<?xml version="1.0" encoding="UTF-8" standalone="no"?>
<!DOCTYPE svg PUBLIC "-//W3C//DTD SVG 1.1//EN"
 "http://www.w3.org/Graphics/SVG/1.1/DTD/svg11.dtd">
<!-- Generated by graphviz version 2.38.0 (20140413.2041)
 -->
<!-- Title: AFDataList.hpp Pages: 1 -->
<!--zoomable 207 -->
<svg id="main" version="1.1" xmlns="http://www.w3.org/2000/svg" xmlns:xlink="http://www.w3.org/1999/xlink" xml:space="preserve" onload="init(evt)">
<style type="text/css"><![CDATA[
.edge:hover path { stroke: red; }
.edge:hover polygon { stroke: red; fill: red; }
]]></style>
<script type="text/javascript"><![CDATA[
var edges = document.getElementsByTagName('g');
if (edges && edges.length) {
  for (var i=0;i<edges.length;i++) {
    if (edges[i].id.substr(0,4)=='edge') {
      edges[i].setAttribute('class','edge');
    }
  }
}
]]></script>
        <defs>
                <circle id="rim" cx="0" cy="0" r="7"/>
                <circle id="rim2" cx="0" cy="0" r="3.5"/>
                <g id="zoomPlus">
                        <use xlink:href="#rim" fill="#404040">
                                <set attributeName="fill" to="#808080" begin="zoomplus.mouseover" end="zoomplus.mouseout"/>
                        </use>
                        <path d="M-4,0h8M0,-4v8" fill="none" stroke="white" stroke-width="1.5" pointer-events="none"/>
                </g>
                <g id="zoomMin">
                        <use xlink:href="#rim" fill="#404040">
                                <set attributeName="fill" to="#808080" begin="zoomminus.mouseover" end="zoomminus.mouseout"/>
                        </use>
                        <path d="M-4,0h8" fill="none" stroke="white" stroke-width="1.5" pointer-events="none"/>
                </g>
                <g id="dirArrow">
                        <path fill="none" stroke="white" stroke-width="1.5" d="M0,-3.0v7 M-2.5,-0.5L0,-3.0L2.5,-0.5"/>
                </g>
               <g id="resetDef">
                       <use xlink:href="#rim2" fill="#404040">
                               <set attributeName="fill" to="#808080" begin="reset.mouseover" end="reset.mouseout"/>
                       </use>
               </g>
        </defs>

<script type="text/javascript">
var viewWidth = 1437;
var viewHeight = 207;
var sectionId = 'dynsection-0';
</script>
<script xlink:href="svgpan.js"/>
<svg id="graph" class="graph">
<g id="viewport">
<title>AFDataList.hpp</title>
<polygon fill="white" stroke="none" points="-4,4 -4,-203 1432.5,-203 1432.5,4 -4,4"/>
<!-- Node0 -->
<g id="node1" class="node"><title>Node0</title>
<polygon fill="#bfbfbf" stroke="black" points="640.5,-179.5 640.5,-198.5 724.5,-198.5 724.5,-179.5 640.5,-179.5"/>
<text text-anchor="middle" x="682.5" y="-186.5" font-family="Helvetica,sans-Serif" font-size="10.00">AFDataList.hpp</text>
</g>
<!-- Node1 -->
<g id="node2" class="node"><title>Node1</title>
<polygon fill="white" stroke="#bfbfbf" points="0,-0.5 0,-19.5 41,-19.5 41,-0.5 0,-0.5"/>
<text text-anchor="middle" x="20.5" y="-7.5" font-family="Helvetica,sans-Serif" font-size="10.00">string</text>
</g>
<!-- Node0&#45;&gt;Node1 -->
<g id="edge1" class="edge"><title>Node0&#45;&gt;Node1</title>
<path fill="none" stroke="midnightblue" d="M640.303,-187.167C536.635,-184.641 271.986,-175.143 190.5,-143 124.379,-116.918 62.6586,-56.7152 35.3066,-27.4997"/>
<polygon fill="midnightblue" stroke="midnightblue" points="37.5858,-24.8075 28.2402,-19.8164 32.4335,-29.5461 37.5858,-24.8075"/>
</g>
<!-- Node2 -->
<g id="node3" class="node"><title>Node2</title>
<polygon fill="white" stroke="#bfbfbf" points="427.5,-118 427.5,-137 473.5,-137 473.5,-118 427.5,-118"/>
<text text-anchor="middle" x="450.5" y="-125" font-family="Helvetica,sans-Serif" font-size="10.00">cstring</text>
</g>
<!-- Node0&#45;&gt;Node2 -->
<g id="edge2" class="edge"><title>Node0&#45;&gt;Node2</title>
<path fill="none" stroke="midnightblue" d="M640.322,-180.892C599.6,-173.464 536.487,-160.453 483.5,-143 481.628,-142.383 479.717,-141.699 477.804,-140.973"/>
<polygon fill="midnightblue" stroke="midnightblue" points="478.991,-137.676 468.411,-137.114 476.331,-144.151 478.991,-137.676"/>
</g>
<!-- Node3 -->
<g id="node4" class="node"><title>Node3</title>
<polygon fill="white" stroke="#bfbfbf" points="231.5,-56.5 231.5,-75.5 285.5,-75.5 285.5,-56.5 231.5,-56.5"/>
<text text-anchor="middle" x="258.5" y="-63.5" font-family="Helvetica,sans-Serif" font-size="10.00">iostream</text>
</g>
<!-- Node0&#45;&gt;Node3 -->
<g id="edge3" class="edge"><title>Node0&#45;&gt;Node3</title>
<path fill="none" stroke="midnightblue" d="M640.238,-186.955C533.158,-183.873 257.725,-173.07 230.5,-143 215.23,-126.135 230.447,-100.23 243.713,-83.4483"/>
<polygon fill="midnightblue" stroke="midnightblue" points="246.552,-85.5101 250.301,-75.6007 241.191,-81.0094 246.552,-85.5101"/>
</g>
<!-- Node4 -->
<g id="node5" class="node"><title>Node4</title>
<polygon fill="white" stroke="#bfbfbf" points="370.5,-56.5 370.5,-75.5 418.5,-75.5 418.5,-56.5 370.5,-56.5"/>
<text text-anchor="middle" x="394.5" y="-63.5" font-family="Helvetica,sans-Serif" font-size="10.00">stdlib.h</text>
</g>
<!-- Node0&#45;&gt;Node4 -->
<g id="edge4" class="edge"><title>Node0&#45;&gt;Node4</title>
<path fill="none" stroke="midnightblue" d="M640.325,-186.056C574.353,-182.174 450.922,-171.257 418.5,-143 402.071,-128.681 396.773,-103.214 395.128,-85.7365"/>
<polygon fill="midnightblue" stroke="midnightblue" points="398.612,-85.3643 394.495,-75.6022 391.626,-85.8011 398.612,-85.3643"/>
</g>
<!-- Node5 -->
<g id="node6" class="node"><title>Node5</title>
<polygon fill="white" stroke="#bfbfbf" points="492,-118 492,-137 539,-137 539,-118 492,-118"/>
<text text-anchor="middle" x="515.5" y="-125" font-family="Helvetica,sans-Serif" font-size="10.00">math.h</text>
</g>
<!-- Node0&#45;&gt;Node5 -->
<g id="edge5" class="edge"><title>Node0&#45;&gt;Node5</title>
<path fill="none" stroke="midnightblue" d="M654.781,-179.495C627.501,-170.936 584.779,-157.029 548.5,-143 546.895,-142.379 545.254,-141.725 543.603,-141.05"/>
<polygon fill="midnightblue" stroke="midnightblue" points="544.798,-137.756 534.225,-137.077 542.067,-144.201 544.798,-137.756"/>
</g>
<!-- Node6 -->
<g id="node7" class="node"><title>Node6</title>
<polygon fill="white" stroke="#bfbfbf" points="557,-118 557,-137 586,-137 586,-118 557,-118"/>
<text text-anchor="middle" x="571.5" y="-125" font-family="Helvetica,sans-Serif" font-size="10.00">list</text>
</g>
<!-- Node0&#45;&gt;Node6 -->
<g id="edge6" class="edge"><title>Node0&#45;&gt;Node6</title>
<path fill="none" stroke="midnightblue" d="M664.988,-179.369C647.29,-170.547 619.24,-156.292 595.5,-143 595.086,-142.768 594.668,-142.533 594.249,-142.295"/>
<polygon fill="midnightblue" stroke="midnightblue" points="595.766,-139.127 585.368,-137.091 592.227,-145.167 595.766,-139.127"/>
</g>
<!-- Node7 -->
<g id="node8" class="node"><title>Node7</title>
<polygon fill="white" stroke="#bfbfbf" points="604.5,-118 604.5,-137 646.5,-137 646.5,-118 604.5,-118"/>
<text text-anchor="middle" x="625.5" y="-125" font-family="Helvetica,sans-Serif" font-size="10.00">vector</text>
</g>
<!-- Node0&#45;&gt;Node7 -->
<g id="edge7" class="edge"><title>Node0&#45;&gt;Node7</title>
<path fill="none" stroke="midnightblue" d="M674.333,-179.475C665.614,-170.373 651.596,-155.741 640.811,-144.483"/>
<polygon fill="midnightblue" stroke="midnightblue" points="643.097,-141.809 633.652,-137.009 638.042,-146.651 643.097,-141.809"/>
</g>
<!-- Node8 -->
<g id="node9" class="node"><title>Node8</title>
<polygon fill="white" stroke="#bfbfbf" points="665,-118 665,-137 700,-137 700,-118 665,-118"/>
<text text-anchor="middle" x="682.5" y="-125" font-family="Helvetica,sans-Serif" font-size="10.00">map</text>
</g>
<!-- Node0&#45;&gt;Node8 -->
<g id="edge8" class="edge"><title>Node0&#45;&gt;Node8</title>
<path fill="none" stroke="midnightblue" d="M682.5,-179.475C682.5,-171.08 682.5,-157.981 682.5,-147.163"/>
<polygon fill="midnightblue" stroke="midnightblue" points="686,-147.009 682.5,-137.009 679,-147.009 686,-147.009"/>
</g>
<!-- Node9 -->
<g id="node10" class="node"><title>Node9</title>
<polygon fill="white" stroke="#bfbfbf" points="718.5,-118 718.5,-137 774.5,-137 774.5,-118 718.5,-118"/>
<text text-anchor="middle" x="746.5" y="-125" font-family="Helvetica,sans-Serif" font-size="10.00">algorithm</text>
</g>
<!-- Node0&#45;&gt;Node9 -->
<g id="edge9" class="edge"><title>Node0&#45;&gt;Node9</title>
<path fill="none" stroke="midnightblue" d="M691.67,-179.475C701.65,-170.197 717.812,-155.171 730.009,-143.831"/>
<polygon fill="midnightblue" stroke="midnightblue" points="732.407,-146.381 737.347,-137.009 727.64,-141.255 732.407,-146.381"/>
</g>
<!-- Node10 -->
<g id="node11" class="node"><title>Node10</title>
<polygon fill="white" stroke="#bfbfbf" points="792.5,-118 792.5,-137 844.5,-137 844.5,-118 792.5,-118"/>
<text text-anchor="middle" x="818.5" y="-125" font-family="Helvetica,sans-Serif" font-size="10.00">assert.h</text>
</g>
<!-- Node0&#45;&gt;Node10 -->
<g id="edge10" class="edge"><title>Node0&#45;&gt;Node10</title>
<path fill="none" stroke="midnightblue" d="M701.985,-179.475C724.91,-169.445 763.185,-152.7 789.575,-141.155"/>
<polygon fill="midnightblue" stroke="midnightblue" points="791.292,-144.224 799.051,-137.009 788.486,-137.811 791.292,-144.224"/>
</g>
<!-- Node11 -->
<g id="node12" class="node"><title>Node11</title>
<polygon fill="white" stroke="#bfbfbf" points="862.5,-118 862.5,-137 912.5,-137 912.5,-118 862.5,-118"/>
<text text-anchor="middle" x="887.5" y="-125" font-family="Helvetica,sans-Serif" font-size="10.00">typeinfo</text>
</g>
<!-- Node0&#45;&gt;Node11 -->
<g id="edge11" class="edge"><title>Node0&#45;&gt;Node11</title>
<path fill="none" stroke="midnightblue" d="M721.35,-179.483C756.325,-171.414 808.924,-158.279 853.5,-143 855.367,-142.36 857.275,-141.665 859.189,-140.937"/>
<polygon fill="midnightblue" stroke="midnightblue" points="860.667,-144.115 868.629,-137.125 858.046,-137.624 860.667,-144.115"/>
</g>
<!-- Node12 -->
<g id="node13" class="node"><title>Node12</title>
<polygon fill="white" stroke="#bfbfbf" points="930.5,-118 930.5,-137 980.5,-137 980.5,-118 930.5,-118"/>
<text text-anchor="middle" x="955.5" y="-125" font-family="Helvetica,sans-Serif" font-size="10.00">iomanip</text>
</g>
<!-- Node0&#45;&gt;Node12 -->
<g id="edge12" class="edge"><title>Node0&#45;&gt;Node12</title>
<path fill="none" stroke="midnightblue" d="M724.609,-182.889C772.878,-176.386 854.027,-163.474 921.5,-143 923.645,-142.349 925.838,-141.606 928.026,-140.807"/>
<polygon fill="midnightblue" stroke="midnightblue" points="929.422,-144.019 937.42,-137.07 926.834,-137.515 929.422,-144.019"/>
</g>
<!-- Node13 -->
<g id="node14" class="node"><title>Node13</title>
<polygon fill="white" stroke="#bfbfbf" points="998.5,-118 998.5,-137 1056.5,-137 1056.5,-118 998.5,-118"/>
<text text-anchor="middle" x="1027.5" y="-125" font-family="Helvetica,sans-Serif" font-size="10.00">functional</text>
</g>
<!-- Node0&#45;&gt;Node13 -->
<g id="edge13" class="edge"><title>Node0&#45;&gt;Node13</title>
<path fill="none" stroke="midnightblue" d="M724.793,-184.75C784.538,-179.496 896.716,-167.19 989.5,-143 992.319,-142.265 995.215,-141.391 998.092,-140.441"/>
<polygon fill="midnightblue" stroke="midnightblue" points="999.421,-143.683 1007.65,-137.012 997.058,-137.093 999.421,-143.683"/>
</g>
<!-- Node14 -->
<g id="node15" class="node"><title>Node14</title>
<polygon fill="white" stroke="#bfbfbf" points="1075,-118 1075,-137 1124,-137 1124,-118 1075,-118"/>
<text text-anchor="middle" x="1099.5" y="-125" font-family="Helvetica,sans-Serif" font-size="10.00">fstream</text>
</g>
<!-- Node0&#45;&gt;Node14 -->
<g id="edge14" class="edge"><title>Node0&#45;&gt;Node14</title>
<path fill="none" stroke="midnightblue" d="M724.604,-186.97C795.917,-184.364 944.512,-175.19 1065.5,-143 1067.85,-142.374 1070.26,-141.614 1072.65,-140.774"/>
<polygon fill="midnightblue" stroke="midnightblue" points="1074.17,-143.935 1082.19,-137.011 1071.61,-137.422 1074.17,-143.935"/>
</g>
<!-- Node15 -->
<g id="node16" class="node"><title>Node15</title>
<polygon fill="white" stroke="#bfbfbf" points="1142.5,-118 1142.5,-137 1194.5,-137 1194.5,-118 1142.5,-118"/>
<text text-anchor="middle" x="1168.5" y="-125" font-family="Helvetica,sans-Serif" font-size="10.00">memory</text>
</g>
<!-- Node0&#45;&gt;Node15 -->
<g id="edge15" class="edge"><title>Node0&#45;&gt;Node15</title>
<path fill="none" stroke="midnightblue" d="M724.55,-187.883C805.139,-186.77 986.4,-179.951 1133.5,-143 1136.01,-142.369 1138.58,-141.589 1141.12,-140.721"/>
<polygon fill="midnightblue" stroke="midnightblue" points="1142.59,-143.908 1150.68,-137.065 1140.09,-137.371 1142.59,-143.908"/>
</g>
<!-- Node16 -->
<g id="node17" class="node"><title>Node16</title>
<polygon fill="white" stroke="#bfbfbf" points="1212.5,-118 1212.5,-137 1316.5,-137 1316.5,-118 1212.5,-118"/>
<text text-anchor="middle" x="1264.5" y="-125" font-family="Helvetica,sans-Serif" font-size="10.00">common/variant.hpp</text>
</g>
<!-- Node0&#45;&gt;Node16 -->
<g id="edge16" class="edge"><title>Node0&#45;&gt;Node16</title>
<path fill="none" stroke="midnightblue" d="M724.628,-186.465C813.585,-182.763 1026.93,-171.453 1203.5,-143 1209.71,-142 1216.22,-140.713 1222.58,-139.32"/>
<polygon fill="midnightblue" stroke="midnightblue" points="1223.42,-142.717 1232.39,-137.069 1221.86,-135.894 1223.42,-142.717"/>
</g>
<!-- Node17 -->
<g id="node18" class="node"><title>Node17</title>
<g id="a_node18"><a xlink:href="_n_f_g_u_i_d_8h.html" target="_top" xlink:title="NFComm/NFPluginModule\l/NFGUID.h">
<polygon fill="white" stroke="black" points="239.5,-112.5 239.5,-142.5 371.5,-142.5 371.5,-112.5 239.5,-112.5"/>
<text text-anchor="start" x="247.5" y="-130.5" font-family="Helvetica,sans-Serif" font-size="10.00">NFComm/NFPluginModule</text>
<text text-anchor="middle" x="305.5" y="-119.5" font-family="Helvetica,sans-Serif" font-size="10.00">/NFGUID.h</text>
</a>
</g>
</g>
<!-- Node0&#45;&gt;Node17 -->
<g id="edge17" class="edge"><title>Node0&#45;&gt;Node17</title>
<path fill="none" stroke="midnightblue" d="M640.142,-181.975C582.467,-173.683 476.042,-158.061 385.5,-143 384.247,-142.792 382.983,-142.58 381.711,-142.365"/>
<polygon fill="midnightblue" stroke="midnightblue" points="382.276,-138.911 371.828,-140.675 381.095,-145.811 382.276,-138.911"/>
</g>
<!-- Node18 -->
<g id="node19" class="node"><title>Node18</title>
<g id="a_node19"><a xlink:href="_n_f_platform_8h.html" target="_top" xlink:title="NFPlatform.h">
<polygon fill="white" stroke="black" points="139.5,-56.5 139.5,-75.5 213.5,-75.5 213.5,-56.5 139.5,-56.5"/>
<text text-anchor="middle" x="176.5" y="-63.5" font-family="Helvetica,sans-Serif" font-size="10.00">NFPlatform.h</text>
</a>
</g>
</g>
<!-- Node0&#45;&gt;Node18 -->
<g id="edge27" class="edge"><title>Node0&#45;&gt;Node18</title>
<path fill="none" stroke="midnightblue" d="M640.139,-188.702C539.491,-189.617 289.296,-187.247 220.5,-143 200.015,-129.825 187.963,-103.498 181.795,-85.5642"/>
<polygon fill="midnightblue" stroke="midnightblue" points="185.097,-84.3959 178.759,-75.906 178.419,-86.4954 185.097,-84.3959"/>
</g>
<!-- Node24 -->
<g id="node25" class="node"><title>Node24</title>
<g id="a_node25"><a xlink:href="_vector3_8hpp.html" target="_top" xlink:title="Math/Vector3.hpp">
<polygon fill="white" stroke="black" points="1334.5,-118 1334.5,-137 1428.5,-137 1428.5,-118 1334.5,-118"/>
<text text-anchor="middle" x="1381.5" y="-125" font-family="Helvetica,sans-Serif" font-size="10.00">Math/Vector3.hpp</text>
</a>
</g>
</g>
<!-- Node0&#45;&gt;Node24 -->
<g id="edge28" class="edge"><title>Node0&#45;&gt;Node24</title>
<path fill="none" stroke="midnightblue" d="M724.558,-187.717C827.674,-186.449 1101.02,-179.6 1325.5,-143 1331.08,-142.091 1336.9,-140.881 1342.61,-139.547"/>
<polygon fill="midnightblue" stroke="midnightblue" points="1343.79,-142.859 1352.65,-137.049 1342.1,-136.066 1343.79,-142.859"/>
</g>
<!-- Node17&#45;&gt;Node3 -->
<g id="edge24" class="edge"><title>Node17&#45;&gt;Node3</title>
<path fill="none" stroke="midnightblue" d="M294.362,-112.399C287.532,-103.753 278.755,-92.642 271.594,-83.576"/>
<polygon fill="midnightblue" stroke="midnightblue" points="274.284,-81.3354 265.339,-75.6578 268.791,-85.6745 274.284,-81.3354"/>
</g>
<!-- Node17&#45;&gt;Node4 -->
<g id="edge26" class="edge"><title>Node17&#45;&gt;Node4</title>
<path fill="none" stroke="midnightblue" d="M326.592,-112.399C340.591,-103.04 358.911,-90.7924 372.995,-81.3771"/>
<polygon fill="midnightblue" stroke="midnightblue" points="375.182,-84.1253 381.55,-75.6578 371.291,-78.3059 375.182,-84.1253"/>
</g>
<!-- Node17&#45;&gt;Node18 -->
<g id="edge18" class="edge"><title>Node17&#45;&gt;Node18</title>
<path fill="none" stroke="midnightblue" d="M274.929,-112.399C253.575,-102.55 225.285,-89.5014 204.515,-79.9217"/>
<polygon fill="midnightblue" stroke="midnightblue" points="205.817,-76.668 195.271,-75.6578 202.885,-83.0244 205.817,-76.668"/>
</g>
<!-- Node23 -->
<g id="node24" class="node"><title>Node23</title>
<polygon fill="white" stroke="#bfbfbf" points="303.5,-56.5 303.5,-75.5 349.5,-75.5 349.5,-56.5 303.5,-56.5"/>
<text text-anchor="middle" x="326.5" y="-63.5" font-family="Helvetica,sans-Serif" font-size="10.00">stdio.h</text>
</g>
<!-- Node17&#45;&gt;Node23 -->
<g id="edge25" class="edge"><title>Node17&#45;&gt;Node23</title>
<path fill="none" stroke="midnightblue" d="M310.477,-112.399C313.34,-104.288 316.968,-94.0071 320.048,-85.2807"/>
<polygon fill="midnightblue" stroke="midnightblue" points="323.417,-86.2526 323.444,-75.6578 316.816,-83.9228 323.417,-86.2526"/>
</g>
<!-- Node18&#45;&gt;Node1 -->
<g id="edge23" class="edge"><title>Node18&#45;&gt;Node1</title>
<path fill="none" stroke="midnightblue" d="M151.781,-56.4435C124.422,-46.973 80.3092,-31.7032 50.8679,-21.512"/>
<polygon fill="midnightblue" stroke="midnightblue" points="51.7123,-18.1005 41.1175,-18.1368 49.4224,-24.7154 51.7123,-18.1005"/>
</g>
<!-- Node19 -->
<g id="node20" class="node"><title>Node19</title>
<polygon fill="white" stroke="#bfbfbf" points="206,-0.5 206,-19.5 255,-19.5 255,-0.5 206,-0.5"/>
<text text-anchor="middle" x="230.5" y="-7.5" font-family="Helvetica,sans-Serif" font-size="10.00">stdint.h</text>
</g>
<!-- Node18&#45;&gt;Node19 -->
<g id="edge19" class="edge"><title>Node18&#45;&gt;Node19</title>
<path fill="none" stroke="midnightblue" d="M185.417,-56.083C193.28,-48.2195 204.931,-36.5688 214.419,-27.0813"/>
<polygon fill="midnightblue" stroke="midnightblue" points="217.153,-29.2971 221.749,-19.7511 212.203,-24.3473 217.153,-29.2971"/>
</g>
<!-- Node20 -->
<g id="node21" class="node"><title>Node20</title>
<polygon fill="white" stroke="#bfbfbf" points="273.5,-0.5 273.5,-19.5 317.5,-19.5 317.5,-0.5 273.5,-0.5"/>
<text text-anchor="middle" x="295.5" y="-7.5" font-family="Helvetica,sans-Serif" font-size="10.00">time.h</text>
</g>
<!-- Node18&#45;&gt;Node20 -->
<g id="edge20" class="edge"><title>Node18&#45;&gt;Node20</title>
<path fill="none" stroke="midnightblue" d="M195.356,-56.4435C214.766,-47.6356 245.23,-33.8116 267.465,-23.722"/>
<polygon fill="midnightblue" stroke="midnightblue" points="269.072,-26.836 276.732,-19.5164 266.18,-20.4615 269.072,-26.836"/>
</g>
<!-- Node21 -->
<g id="node22" class="node"><title>Node21</title>
<polygon fill="white" stroke="#bfbfbf" points="335.5,-0.5 335.5,-19.5 387.5,-19.5 387.5,-0.5 335.5,-0.5"/>
<text text-anchor="middle" x="361.5" y="-7.5" font-family="Helvetica,sans-Serif" font-size="10.00">sstream</text>
</g>
<!-- Node18&#45;&gt;Node21 -->
<g id="edge21" class="edge"><title>Node18&#45;&gt;Node21</title>
<path fill="none" stroke="midnightblue" d="M205.814,-56.4435C238.27,-46.9699 290.606,-31.6935 325.52,-21.5022"/>
<polygon fill="midnightblue" stroke="midnightblue" points="326.696,-24.8052 335.315,-18.6433 324.734,-18.0856 326.696,-24.8052"/>
</g>
<!-- Node22 -->
<g id="node23" class="node"><title>Node22</title>
<polygon fill="white" stroke="#bfbfbf" points="59.5,-0.5 59.5,-19.5 187.5,-19.5 187.5,-0.5 59.5,-0.5"/>
<text text-anchor="middle" x="123.5" y="-7.5" font-family="Helvetica,sans-Serif" font-size="10.00">common/lexical_cast.hpp</text>
</g>
<!-- Node18&#45;&gt;Node22 -->
<g id="edge22" class="edge"><title>Node18&#45;&gt;Node22</title>
<path fill="none" stroke="midnightblue" d="M167.748,-56.083C160.03,-48.2195 148.595,-36.5688 139.283,-27.0813"/>
<polygon fill="midnightblue" stroke="midnightblue" points="141.592,-24.4363 132.089,-19.7511 136.596,-29.3396 141.592,-24.4363"/>
</g>
</g>
</svg>
        <g id="navigator" transform="translate(0 0)" fill="#404254">
                <rect fill="#f2f5e9" fill-opacity="0.5" stroke="#606060" stroke-width=".5" x="0" y="0" width="60" height="60"/>
                <use id="zoomplus" xlink:href="#zoomPlus" x="17" y="9" onmousedown="handleZoom(evt,'in')"/>
                <use id="zoomminus" xlink:href="#zoomMin" x="42" y="9" onmousedown="handleZoom(evt,'out')"/>
                <use id="reset" xlink:href="#resetDef" x="30" y="36" onmousedown="handleReset()"/>
                <g id="arrowUp" xlink:href="#dirArrow" transform="translate(30 24)" onmousedown="handlePan(0,-1)">
                  <use xlink:href="#rim" fill="#404040">
                        <set attributeName="fill" to="#808080" begin="arrowUp.mouseover" end="arrowUp.mouseout"/>
                  </use>
                  <path fill="none" stroke="white" stroke-width="1.5" d="M0,-3.0v7 M-2.5,-0.5L0,-3.0L2.5,-0.5"/>
                </g>
                <g id="arrowRight" xlink:href="#dirArrow" transform="rotate(90) translate(36 -43)" onmousedown="handlePan(1,0)">
                  <use xlink:href="#rim" fill="#404040">
                        <set attributeName="fill" to="#808080" begin="arrowRight.mouseover" end="arrowRight.mouseout"/>
                  </use>
                  <path fill="none" stroke="white" stroke-width="1.5" d="M0,-3.0v7 M-2.5,-0.5L0,-3.0L2.5,-0.5"/>
                </g>
                <g id="arrowDown" xlink:href="#dirArrow" transform="rotate(180) translate(-30 -48)" onmousedown="handlePan(0,1)">
                  <use xlink:href="#rim" fill="#404040">
                        <set attributeName="fill" to="#808080" begin="arrowDown.mouseover" end="arrowDown.mouseout"/>
                  </use>
                  <path fill="none" stroke="white" stroke-width="1.5" d="M0,-3.0v7 M-2.5,-0.5L0,-3.0L2.5,-0.5"/>
                </g>
                <g id="arrowLeft" xlink:href="#dirArrow" transform="rotate(270) translate(-36 17)" onmousedown="handlePan(-1,0)">
                  <use xlink:href="#rim" fill="#404040">
                        <set attributeName="fill" to="#808080" begin="arrowLeft.mouseover" end="arrowLeft.mouseout"/>
                  </use>
                  <path fill="none" stroke="white" stroke-width="1.5" d="M0,-3.0v7 M-2.5,-0.5L0,-3.0L2.5,-0.5"/>
                </g>
        </g>
        <svg viewBox="0 0 15 15" width="100%" height="30px" preserveAspectRatio="xMaxYMin meet">
         <g id="arrow_out" transform="scale(0.3 0.3)">
          <a xlink:href="_a_f_data_list_8hpp__incl_org.svg" target="_base">
           <rect id="button" ry="5" rx="5" y="6" x="6" height="38" width="38"
                fill="#f2f5e9" fill-opacity="0.5" stroke="#606060" stroke-width="1.0"/>
           <path id="arrow"
             d="M 11.500037,31.436501 C 11.940474,20.09759 22.043105,11.32322 32.158766,21.979434 L 37.068811,17.246167 C 37.068811,17.246167 37.088388,32 37.088388,32 L 22.160133,31.978069 C 22.160133,31.978069 26.997745,27.140456 26.997745,27.140456 C 18.528582,18.264221 13.291696,25.230495 11.500037,31.436501 z"
             style="fill:#404040;"/>
          </a>
         </g>
        </svg>
</svg>
