<?xml version="1.0" encoding="UTF-8" standalone="no"?>
<!DOCTYPE svg PUBLIC "-//W3C//DTD SVG 1.1//EN"
 "http://www.w3.org/Graphics/SVG/1.1/DTD/svg11.dtd">
<!-- Generated by graphviz version 2.38.0 (20140413.2041)
 -->
<!-- Title: HelloWorld1.h Pages: 1 -->
<!--zoomable 598 -->
<svg id="main" version="1.1" xmlns="http://www.w3.org/2000/svg" xmlns:xlink="http://www.w3.org/1999/xlink" xml:space="preserve" onload="init(evt)">
<style type="text/css"><![CDATA[
.edge:hover path { stroke: red; }
.edge:hover polygon { stroke: red; fill: red; }
]]></style>
<script type="text/javascript"><![CDATA[
var edges = document.getElementsByTagName('g');
if (edges && edges.length) {
  for (var i=0;i<edges.length;i++) {
    if (edges[i].id.substr(0,4)=='edge') {
      edges[i].setAttribute('class','edge');
    }
  }
}
]]></script>
        <defs>
                <circle id="rim" cx="0" cy="0" r="7"/>
                <circle id="rim2" cx="0" cy="0" r="3.5"/>
                <g id="zoomPlus">
                        <use xlink:href="#rim" fill="#404040">
                                <set attributeName="fill" to="#808080" begin="zoomplus.mouseover" end="zoomplus.mouseout"/>
                        </use>
                        <path d="M-4,0h8M0,-4v8" fill="none" stroke="white" stroke-width="1.5" pointer-events="none"/>
                </g>
                <g id="zoomMin">
                        <use xlink:href="#rim" fill="#404040">
                                <set attributeName="fill" to="#808080" begin="zoomminus.mouseover" end="zoomminus.mouseout"/>
                        </use>
                        <path d="M-4,0h8" fill="none" stroke="white" stroke-width="1.5" pointer-events="none"/>
                </g>
                <g id="dirArrow">
                        <path fill="none" stroke="white" stroke-width="1.5" d="M0,-3.0v7 M-2.5,-0.5L0,-3.0L2.5,-0.5"/>
                </g>
               <g id="resetDef">
                       <use xlink:href="#rim2" fill="#404040">
                               <set attributeName="fill" to="#808080" begin="reset.mouseover" end="reset.mouseout"/>
                       </use>
               </g>
        </defs>

<script type="text/javascript">
var viewWidth = 1674;
var viewHeight = 598;
var sectionId = 'dynsection-0';
</script>
<script xlink:href="svgpan.js"/>
<svg id="graph" class="graph">
<g id="viewport">
<title>HelloWorld1.h</title>
<polygon fill="white" stroke="none" points="-4,4 -4,-594 1669.95,-594 1669.95,4 -4,4"/>
<!-- Node0 -->
<g id="node1" class="node"><title>Node0</title>
<polygon fill="#bfbfbf" stroke="black" points="1209.45,-570.5 1209.45,-589.5 1286.45,-589.5 1286.45,-570.5 1209.45,-570.5"/>
<text text-anchor="middle" x="1247.95" y="-577.5" font-family="Helvetica,sans-Serif" font-size="10.00">HelloWorld1.h</text>
</g>
<!-- Node1 -->
<g id="node2" class="node"><title>Node1</title>
<g id="a_node2"><a xlink:href="_n_f_i_plugin_8h.html" target="_top" xlink:title="NFComm/NFPluginModule\l/NFIPlugin.h">
<polygon fill="white" stroke="black" points="1134.95,-503.5 1134.95,-533.5 1266.95,-533.5 1266.95,-503.5 1134.95,-503.5"/>
<text text-anchor="start" x="1142.95" y="-521.5" font-family="Helvetica,sans-Serif" font-size="10.00">NFComm/NFPluginModule</text>
<text text-anchor="middle" x="1200.95" y="-510.5" font-family="Helvetica,sans-Serif" font-size="10.00">/NFIPlugin.h</text>
</a>
</g>
</g>
<!-- Node0&#45;&gt;Node1 -->
<g id="edge1" class="edge"><title>Node0&#45;&gt;Node1</title>
<path fill="none" stroke="midnightblue" d="M1241.22,-570.475C1235.27,-562.944 1226.33,-551.626 1218.38,-541.566"/>
<polygon fill="midnightblue" stroke="midnightblue" points="1220.97,-539.201 1212.03,-533.523 1215.48,-543.54 1220.97,-539.201"/>
</g>
<!-- Node34 -->
<g id="node35" class="node"><title>Node34</title>
<g id="a_node35"><a xlink:href="_n_f_i_plugin_manager_8h.html" target="_top" xlink:title="NFComm/NFPluginModule\l/NFIPluginManager.h">
<polygon fill="white" stroke="black" points="1228.95,-436.5 1228.95,-466.5 1360.95,-466.5 1360.95,-436.5 1228.95,-436.5"/>
<text text-anchor="start" x="1236.95" y="-454.5" font-family="Helvetica,sans-Serif" font-size="10.00">NFComm/NFPluginModule</text>
<text text-anchor="middle" x="1294.95" y="-443.5" font-family="Helvetica,sans-Serif" font-size="10.00">/NFIPluginManager.h</text>
</a>
</g>
</g>
<!-- Node0&#45;&gt;Node34 -->
<g id="edge68" class="edge"><title>Node0&#45;&gt;Node34</title>
<path fill="none" stroke="midnightblue" d="M1254.43,-570.5C1260.79,-561.779 1270.31,-547.601 1275.95,-534 1283.61,-515.503 1288.53,-493.302 1291.44,-476.746"/>
<polygon fill="midnightblue" stroke="midnightblue" points="1294.91,-477.21 1293.07,-466.777 1288,-476.081 1294.91,-477.21"/>
</g>
<!-- Node2 -->
<g id="node3" class="node"><title>Node2</title>
<polygon fill="white" stroke="#bfbfbf" points="1486.95,-62 1486.95,-81 1540.95,-81 1540.95,-62 1486.95,-62"/>
<text text-anchor="middle" x="1513.95" y="-69" font-family="Helvetica,sans-Serif" font-size="10.00">iostream</text>
</g>
<!-- Node1&#45;&gt;Node2 -->
<g id="edge2" class="edge"><title>Node1&#45;&gt;Node2</title>
<path fill="none" stroke="midnightblue" d="M1267.08,-512.568C1395.46,-501.168 1665.95,-467.426 1665.95,-385.5 1665.95,-385.5 1665.95,-385.5 1665.95,-255 1665.95,-176.056 1580.94,-113.119 1538.07,-86.3998"/>
<polygon fill="midnightblue" stroke="midnightblue" points="1539.73,-83.3118 1529.36,-81.1112 1536.09,-89.2944 1539.73,-83.3118"/>
</g>
<!-- Node3 -->
<g id="node4" class="node"><title>Node3</title>
<polygon fill="white" stroke="#bfbfbf" points="29.9502,-129 29.9502,-148 81.9502,-148 81.9502,-129 29.9502,-129"/>
<text text-anchor="middle" x="55.9502" y="-136" font-family="Helvetica,sans-Serif" font-size="10.00">assert.h</text>
</g>
<!-- Node1&#45;&gt;Node3 -->
<g id="edge3" class="edge"><title>Node1&#45;&gt;Node3</title>
<path fill="none" stroke="midnightblue" d="M1134.78,-516.98C888.631,-514.186 39.9502,-496.503 39.9502,-385.5 39.9502,-385.5 39.9502,-385.5 39.9502,-255 39.9502,-220.538 47.0257,-180.834 51.7663,-158.099"/>
<polygon fill="midnightblue" stroke="midnightblue" points="55.2279,-158.651 53.9238,-148.137 48.3865,-157.169 55.2279,-158.651"/>
</g>
<!-- Node4 -->
<g id="node5" class="node"><title>Node4</title>
<g id="a_node5"><a xlink:href="_n_f_map_8h.html" target="_top" xlink:title="NFComm/NFCore/NFMap.h">
<polygon fill="white" stroke="black" points="1207.45,-246.5 1207.45,-265.5 1344.45,-265.5 1344.45,-246.5 1207.45,-246.5"/>
<text text-anchor="middle" x="1275.95" y="-253.5" font-family="Helvetica,sans-Serif" font-size="10.00">NFComm/NFCore/NFMap.h</text>
</a>
</g>
</g>
<!-- Node1&#45;&gt;Node4 -->
<g id="edge4" class="edge"><title>Node1&#45;&gt;Node4</title>
<path fill="none" stroke="midnightblue" d="M1198.25,-503.177C1193.75,-476.212 1186.56,-416.361 1200.95,-369 1212.61,-330.626 1242.27,-293.434 1260.61,-273.041"/>
<polygon fill="midnightblue" stroke="midnightblue" points="1263.26,-275.333 1267.46,-265.61 1258.11,-270.586 1263.26,-275.333"/>
</g>
<!-- Node11 -->
<g id="node12" class="node"><title>Node11</title>
<g id="a_node12"><a xlink:href="_n_f_platform_8h.html" target="_top" xlink:title="NFComm/NFPluginModule\l/NFPlatform.h">
<polygon fill="white" stroke="black" points="811.95,-56.5 811.95,-86.5 943.95,-86.5 943.95,-56.5 811.95,-56.5"/>
<text text-anchor="start" x="819.95" y="-74.5" font-family="Helvetica,sans-Serif" font-size="10.00">NFComm/NFPluginModule</text>
<text text-anchor="middle" x="877.95" y="-63.5" font-family="Helvetica,sans-Serif" font-size="10.00">/NFPlatform.h</text>
</a>
</g>
</g>
<!-- Node1&#45;&gt;Node11 -->
<g id="edge65" class="edge"><title>Node1&#45;&gt;Node11</title>
<path fill="none" stroke="midnightblue" d="M1134.78,-517.381C883.422,-515.178 1.95021,-490.785 1.95021,-257 1.95021,-257 1.95021,-257 1.95021,-199 1.95021,-164.183 -5.85063,-145.225 20.9502,-123 50.7599,-98.2796 597.184,-80.409 801.612,-74.5628"/>
<polygon fill="midnightblue" stroke="midnightblue" points="801.773,-78.0597 811.669,-74.277 801.574,-71.0626 801.773,-78.0597"/>
</g>
<!-- Node16 -->
<g id="node17" class="node"><title>Node16</title>
<g id="a_node17"><a xlink:href="_n_f_i_module_8h.html" target="_top" xlink:title="NFComm/NFPluginModule\l/NFIModule.h">
<polygon fill="white" stroke="black" points="1209.95,-369.5 1209.95,-399.5 1341.95,-399.5 1341.95,-369.5 1209.95,-369.5"/>
<text text-anchor="start" x="1217.95" y="-387.5" font-family="Helvetica,sans-Serif" font-size="10.00">NFComm/NFPluginModule</text>
<text text-anchor="middle" x="1275.95" y="-376.5" font-family="Helvetica,sans-Serif" font-size="10.00">/NFIModule.h</text>
</a>
</g>
</g>
<!-- Node1&#45;&gt;Node16 -->
<g id="edge23" class="edge"><title>Node1&#45;&gt;Node16</title>
<path fill="none" stroke="midnightblue" d="M1201.69,-503.289C1203.14,-486.232 1207.4,-457.273 1219.95,-436 1226.71,-424.548 1236.92,-414.235 1246.78,-405.959"/>
<polygon fill="midnightblue" stroke="midnightblue" points="1249.24,-408.469 1254.89,-399.506 1244.89,-402.99 1249.24,-408.469"/>
</g>
<!-- Node1&#45;&gt;Node34 -->
<g id="edge66" class="edge"><title>Node1&#45;&gt;Node34</title>
<path fill="none" stroke="midnightblue" d="M1221.35,-503.396C1234.4,-494.367 1251.55,-482.514 1266,-472.518"/>
<polygon fill="midnightblue" stroke="midnightblue" points="1268.36,-475.143 1274.59,-466.577 1264.38,-469.385 1268.36,-475.143"/>
</g>
<!-- Node4&#45;&gt;Node2 -->
<g id="edge8" class="edge"><title>Node4&#45;&gt;Node2</title>
<path fill="none" stroke="midnightblue" d="M1344.68,-250.988C1405.57,-245.852 1487.98,-234.486 1508.95,-210 1537.61,-176.537 1527.57,-119.92 1519.71,-90.8821"/>
<polygon fill="midnightblue" stroke="midnightblue" points="1523.05,-89.8313 1516.9,-81.209 1516.33,-91.7888 1523.05,-89.8313"/>
</g>
<!-- Node5 -->
<g id="node6" class="node"><title>Node5</title>
<polygon fill="white" stroke="#bfbfbf" points="1176.45,-129 1176.45,-148 1211.45,-148 1211.45,-129 1176.45,-129"/>
<text text-anchor="middle" x="1193.95" y="-136" font-family="Helvetica,sans-Serif" font-size="10.00">map</text>
</g>
<!-- Node4&#45;&gt;Node5 -->
<g id="edge5" class="edge"><title>Node4&#45;&gt;Node5</title>
<path fill="none" stroke="midnightblue" d="M1266.32,-246.313C1257.07,-237.673 1243.06,-223.755 1232.95,-210 1220.56,-193.152 1209.34,-171.939 1202.15,-157.205"/>
<polygon fill="midnightblue" stroke="midnightblue" points="1205.31,-155.697 1197.85,-148.172 1198.99,-158.706 1205.31,-155.697"/>
</g>
<!-- Node6 -->
<g id="node7" class="node"><title>Node6</title>
<polygon fill="white" stroke="#bfbfbf" points="1418.45,-129 1418.45,-148 1447.45,-148 1447.45,-129 1418.45,-129"/>
<text text-anchor="middle" x="1432.95" y="-136" font-family="Helvetica,sans-Serif" font-size="10.00">list</text>
</g>
<!-- Node4&#45;&gt;Node6 -->
<g id="edge6" class="edge"><title>Node4&#45;&gt;Node6</title>
<path fill="none" stroke="midnightblue" d="M1286.2,-246.28C1301.35,-233.509 1330.75,-209.156 1356.95,-190 1374.53,-177.146 1395.14,-163.535 1410.47,-153.686"/>
<polygon fill="midnightblue" stroke="midnightblue" points="1412.7,-156.412 1419.25,-148.081 1408.93,-150.512 1412.7,-156.412"/>
</g>
<!-- Node7 -->
<g id="node8" class="node"><title>Node7</title>
<polygon fill="white" stroke="#bfbfbf" points="1331.45,-0.5 1331.45,-19.5 1372.45,-19.5 1372.45,-0.5 1331.45,-0.5"/>
<text text-anchor="middle" x="1351.95" y="-7.5" font-family="Helvetica,sans-Serif" font-size="10.00">string</text>
</g>
<!-- Node4&#45;&gt;Node7 -->
<g id="edge7" class="edge"><title>Node4&#45;&gt;Node7</title>
<path fill="none" stroke="midnightblue" d="M1344.47,-251.176C1410.13,-246.078 1502.98,-234.648 1528.95,-210 1579.05,-162.443 1593.04,-109.987 1549.95,-56 1529.37,-30.2146 1433.03,-18.0784 1382.72,-13.4171"/>
<polygon fill="midnightblue" stroke="midnightblue" points="1382.99,-9.92799 1372.72,-12.5336 1382.38,-16.9008 1382.99,-9.92799"/>
</g>
<!-- Node8 -->
<g id="node9" class="node"><title>Node8</title>
<polygon fill="white" stroke="#bfbfbf" points="1107.95,-129 1107.95,-148 1157.95,-148 1157.95,-129 1107.95,-129"/>
<text text-anchor="middle" x="1132.95" y="-136" font-family="Helvetica,sans-Serif" font-size="10.00">typeinfo</text>
</g>
<!-- Node4&#45;&gt;Node8 -->
<g id="edge9" class="edge"><title>Node4&#45;&gt;Node8</title>
<path fill="none" stroke="midnightblue" d="M1264.07,-246.195C1252.07,-237.237 1233.04,-222.879 1216.95,-210 1193.79,-191.462 1167.7,-169.369 1150.83,-154.919"/>
<polygon fill="midnightblue" stroke="midnightblue" points="1152.78,-151.979 1142.91,-148.118 1148.21,-157.289 1152.78,-151.979"/>
</g>
<!-- Node9 -->
<g id="node10" class="node"><title>Node9</title>
<g id="a_node10"><a xlink:href="_n_f_map_ex_8h.html" target="_top" xlink:title="NFMapEx.h">
<polygon fill="white" stroke="black" points="1241.95,-190.5 1241.95,-209.5 1309.95,-209.5 1309.95,-190.5 1241.95,-190.5"/>
<text text-anchor="middle" x="1275.95" y="-197.5" font-family="Helvetica,sans-Serif" font-size="10.00">NFMapEx.h</text>
</a>
</g>
</g>
<!-- Node4&#45;&gt;Node9 -->
<g id="edge10" class="edge"><title>Node4&#45;&gt;Node9</title>
<path fill="none" stroke="midnightblue" d="M1275.95,-246.083C1275.95,-239.006 1275.95,-228.861 1275.95,-219.986"/>
<polygon fill="midnightblue" stroke="midnightblue" points="1279.45,-219.751 1275.95,-209.751 1272.45,-219.751 1279.45,-219.751"/>
</g>
<!-- Node9&#45;&gt;Node2 -->
<g id="edge14" class="edge"><title>Node9&#45;&gt;Node2</title>
<path fill="none" stroke="midnightblue" d="M1295.39,-190.386C1313.95,-181.907 1342.48,-168.198 1365.95,-154 1386.11,-141.804 1388.7,-135.041 1408.95,-123 1433.38,-108.476 1462.61,-94.6848 1484.03,-85.1959"/>
<polygon fill="midnightblue" stroke="midnightblue" points="1485.51,-88.3669 1493.27,-81.1517 1482.7,-81.954 1485.51,-88.3669"/>
</g>
<!-- Node9&#45;&gt;Node5 -->
<g id="edge11" class="edge"><title>Node9&#45;&gt;Node5</title>
<path fill="none" stroke="midnightblue" d="M1264.2,-190.475C1251.17,-181.02 1229.91,-165.596 1214.19,-154.187"/>
<polygon fill="midnightblue" stroke="midnightblue" points="1215.83,-151.049 1205.68,-148.009 1211.72,-156.715 1215.83,-151.049"/>
</g>
<!-- Node9&#45;&gt;Node6 -->
<g id="edge12" class="edge"><title>Node9&#45;&gt;Node6</title>
<path fill="none" stroke="midnightblue" d="M1303.3,-190.49C1329.47,-182.086 1369.9,-168.431 1403.95,-154 1405.59,-153.305 1407.27,-152.561 1408.95,-151.79"/>
<polygon fill="midnightblue" stroke="midnightblue" points="1410.88,-154.741 1418.36,-147.24 1407.84,-148.438 1410.88,-154.741"/>
</g>
<!-- Node9&#45;&gt;Node7 -->
<g id="edge13" class="edge"><title>Node9&#45;&gt;Node7</title>
<path fill="none" stroke="midnightblue" d="M1285.16,-190.181C1293.55,-181.66 1305.7,-168.016 1312.95,-154 1334.45,-112.413 1345.09,-57.7119 1349.45,-29.5405"/>
<polygon fill="midnightblue" stroke="midnightblue" points="1352.93,-29.9097 1350.9,-19.5109 1346,-28.9051 1352.93,-29.9097"/>
</g>
<!-- Node9&#45;&gt;Node8 -->
<g id="edge15" class="edge"><title>Node9&#45;&gt;Node8</title>
<path fill="none" stroke="midnightblue" d="M1255.02,-190.445C1233.06,-181.445 1197.53,-166.834 1166.95,-154 1165.54,-153.41 1164.11,-152.805 1162.66,-152.193"/>
<polygon fill="midnightblue" stroke="midnightblue" points="1163.64,-148.809 1153.07,-148.126 1160.91,-155.253 1163.64,-148.809"/>
</g>
<!-- Node10 -->
<g id="node11" class="node"><title>Node10</title>
<polygon fill="white" stroke="#bfbfbf" points="1037.95,-129 1037.95,-148 1089.95,-148 1089.95,-129 1037.95,-129"/>
<text text-anchor="middle" x="1063.95" y="-136" font-family="Helvetica,sans-Serif" font-size="10.00">memory</text>
</g>
<!-- Node9&#45;&gt;Node10 -->
<g id="edge16" class="edge"><title>Node9&#45;&gt;Node10</title>
<path fill="none" stroke="midnightblue" d="M1241.93,-191.879C1205.98,-184.002 1147.84,-170.25 1098.95,-154 1097.03,-153.362 1095.07,-152.668 1093.1,-151.941"/>
<polygon fill="midnightblue" stroke="midnightblue" points="1093.97,-148.524 1083.38,-148.133 1091.42,-155.041 1093.97,-148.524"/>
</g>
<!-- Node9&#45;&gt;Node11 -->
<g id="edge17" class="edge"><title>Node9&#45;&gt;Node11</title>
<path fill="none" stroke="midnightblue" d="M1282.51,-190.306C1293.32,-174.836 1312.09,-142.34 1294.95,-123 1272.77,-97.9677 1068.21,-82.878 954.072,-76.3365"/>
<polygon fill="midnightblue" stroke="midnightblue" points="954.174,-72.8367 943.992,-75.7675 953.779,-79.8256 954.174,-72.8367"/>
</g>
<!-- Node11&#45;&gt;Node7 -->
<g id="edge22" class="edge"><title>Node11&#45;&gt;Node7</title>
<path fill="none" stroke="midnightblue" d="M944.249,-58.1376C948.88,-57.3805 953.482,-56.6594 957.95,-56 1092.79,-36.1013 1254.72,-20.0667 1321.19,-13.8204"/>
<polygon fill="midnightblue" stroke="midnightblue" points="1321.75,-17.2834 1331.38,-12.8693 1321.1,-10.3136 1321.75,-17.2834"/>
</g>
<!-- Node12 -->
<g id="node13" class="node"><title>Node12</title>
<polygon fill="white" stroke="#bfbfbf" points="755.45,-0.5 755.45,-19.5 804.45,-19.5 804.45,-0.5 755.45,-0.5"/>
<text text-anchor="middle" x="779.95" y="-7.5" font-family="Helvetica,sans-Serif" font-size="10.00">stdint.h</text>
</g>
<!-- Node11&#45;&gt;Node12 -->
<g id="edge18" class="edge"><title>Node11&#45;&gt;Node12</title>
<path fill="none" stroke="midnightblue" d="M854.726,-56.3993C839.164,-46.9511 818.753,-34.5589 803.188,-25.1089"/>
<polygon fill="midnightblue" stroke="midnightblue" points="804.574,-21.8558 794.21,-19.6578 800.942,-27.8394 804.574,-21.8558"/>
</g>
<!-- Node13 -->
<g id="node14" class="node"><title>Node13</title>
<polygon fill="white" stroke="#bfbfbf" points="822.95,-0.5 822.95,-19.5 866.95,-19.5 866.95,-0.5 822.95,-0.5"/>
<text text-anchor="middle" x="844.95" y="-7.5" font-family="Helvetica,sans-Serif" font-size="10.00">time.h</text>
</g>
<!-- Node11&#45;&gt;Node13 -->
<g id="edge19" class="edge"><title>Node11&#45;&gt;Node13</title>
<path fill="none" stroke="midnightblue" d="M870.13,-56.3993C865.483,-48.0207 859.552,-37.3269 854.613,-28.4229"/>
<polygon fill="midnightblue" stroke="midnightblue" points="857.663,-26.7052 849.752,-19.6578 851.541,-30.1004 857.663,-26.7052"/>
</g>
<!-- Node14 -->
<g id="node15" class="node"><title>Node14</title>
<polygon fill="white" stroke="#bfbfbf" points="884.95,-0.5 884.95,-19.5 936.95,-19.5 936.95,-0.5 884.95,-0.5"/>
<text text-anchor="middle" x="910.95" y="-7.5" font-family="Helvetica,sans-Serif" font-size="10.00">sstream</text>
</g>
<!-- Node11&#45;&gt;Node14 -->
<g id="edge20" class="edge"><title>Node11&#45;&gt;Node14</title>
<path fill="none" stroke="midnightblue" d="M885.771,-56.3993C890.418,-48.0207 896.349,-37.3269 901.287,-28.4229"/>
<polygon fill="midnightblue" stroke="midnightblue" points="904.359,-30.1004 906.148,-19.6578 898.237,-26.7052 904.359,-30.1004"/>
</g>
<!-- Node15 -->
<g id="node16" class="node"><title>Node15</title>
<polygon fill="white" stroke="#bfbfbf" points="954.95,-0.5 954.95,-19.5 1082.95,-19.5 1082.95,-0.5 954.95,-0.5"/>
<text text-anchor="middle" x="1018.95" y="-7.5" font-family="Helvetica,sans-Serif" font-size="10.00">common/lexical_cast.hpp</text>
</g>
<!-- Node11&#45;&gt;Node15 -->
<g id="edge21" class="edge"><title>Node11&#45;&gt;Node15</title>
<path fill="none" stroke="midnightblue" d="M911.365,-56.3993C934.917,-46.4608 966.188,-33.2649 988.943,-23.6625"/>
<polygon fill="midnightblue" stroke="midnightblue" points="990.581,-26.7704 998.433,-19.6578 987.859,-20.3211 990.581,-26.7704"/>
</g>
<!-- Node16&#45;&gt;Node4 -->
<g id="edge25" class="edge"><title>Node16&#45;&gt;Node4</title>
<path fill="none" stroke="midnightblue" d="M1275.95,-369.479C1275.95,-346.719 1275.95,-301.702 1275.95,-276.058"/>
<polygon fill="midnightblue" stroke="midnightblue" points="1279.45,-275.789 1275.95,-265.789 1272.45,-275.789 1279.45,-275.789"/>
</g>
<!-- Node16&#45;&gt;Node7 -->
<g id="edge24" class="edge"><title>Node16&#45;&gt;Node7</title>
<path fill="none" stroke="midnightblue" d="M1342.21,-381.354C1419.86,-377.336 1541.81,-365.834 1571.95,-333 1655.21,-242.309 1660.64,-143.417 1573.95,-56 1547.54,-29.364 1437.2,-17.4362 1382.69,-13.0875"/>
<polygon fill="midnightblue" stroke="midnightblue" points="1382.81,-9.58673 1372.58,-12.3167 1382.28,-16.5665 1382.81,-9.58673"/>
</g>
<!-- Node17 -->
<g id="node18" class="node"><title>Node17</title>
<g id="a_node18"><a xlink:href="_n_f_list_8h.html" target="_top" xlink:title="NFComm/NFCore/NFList.h">
<polygon fill="white" stroke="black" points="1365.95,-190.5 1365.95,-209.5 1499.95,-209.5 1499.95,-190.5 1365.95,-190.5"/>
<text text-anchor="middle" x="1432.95" y="-197.5" font-family="Helvetica,sans-Serif" font-size="10.00">NFComm/NFCore/NFList.h</text>
</a>
</g>
</g>
<!-- Node16&#45;&gt;Node17 -->
<g id="edge26" class="edge"><title>Node16&#45;&gt;Node17</title>
<path fill="none" stroke="midnightblue" d="M1288.01,-369.483C1316.47,-336.396 1387.74,-253.549 1418.47,-217.826"/>
<polygon fill="midnightblue" stroke="midnightblue" points="1421.5,-219.682 1425.36,-209.819 1416.19,-215.117 1421.5,-219.682"/>
</g>
<!-- Node19 -->
<g id="node20" class="node"><title>Node19</title>
<g id="a_node20"><a xlink:href="_n_f_define_8h.html" target="_top" xlink:title="NFComm/NFCore/NFDefine.h">
<polygon fill="white" stroke="black" points="693.45,-246.5 693.45,-265.5 838.45,-265.5 838.45,-246.5 693.45,-246.5"/>
<text text-anchor="middle" x="765.95" y="-253.5" font-family="Helvetica,sans-Serif" font-size="10.00">NFComm/NFCore/NFDefine.h</text>
</a>
</g>
</g>
<!-- Node16&#45;&gt;Node19 -->
<g id="edge32" class="edge"><title>Node16&#45;&gt;Node19</title>
<path fill="none" stroke="midnightblue" d="M1209.52,-380.86C1082.82,-375.225 816.396,-360.257 784.95,-333 768.764,-318.97 765.302,-293.436 765.035,-275.865"/>
<polygon fill="midnightblue" stroke="midnightblue" points="768.538,-275.73 765.219,-265.668 761.539,-275.603 768.538,-275.73"/>
</g>
<!-- Node21 -->
<g id="node22" class="node"><title>Node21</title>
<g id="a_node22"><a xlink:href="_a_f_data_list_8hpp.html" target="_top" xlink:title="AFDataList.hpp">
<polygon fill="white" stroke="black" points="796.95,-190.5 796.95,-209.5 880.95,-209.5 880.95,-190.5 796.95,-190.5"/>
<text text-anchor="middle" x="838.95" y="-197.5" font-family="Helvetica,sans-Serif" font-size="10.00">AFDataList.hpp</text>
</a>
</g>
</g>
<!-- Node16&#45;&gt;Node21 -->
<g id="edge59" class="edge"><title>Node16&#45;&gt;Node21</title>
<path fill="none" stroke="midnightblue" d="M1242.39,-369.483C1159.78,-334.984 947.631,-246.387 868.925,-213.518"/>
<polygon fill="midnightblue" stroke="midnightblue" points="870.156,-210.239 859.579,-209.615 867.458,-216.699 870.156,-210.239"/>
</g>
<!-- Node32 -->
<g id="node33" class="node"><title>Node32</title>
<g id="a_node33"><a xlink:href="_n_f_i_record_8h.html" target="_top" xlink:title="NFComm/NFCore/NFIRecord.h">
<polygon fill="white" stroke="black" points="794.45,-308 794.45,-327 945.45,-327 945.45,-308 794.45,-308"/>
<text text-anchor="middle" x="869.95" y="-315" font-family="Helvetica,sans-Serif" font-size="10.00">NFComm/NFCore/NFIRecord.h</text>
</a>
</g>
</g>
<!-- Node16&#45;&gt;Node32 -->
<g id="edge60" class="edge"><title>Node16&#45;&gt;Node32</title>
<path fill="none" stroke="midnightblue" d="M1209.82,-372.912C1133.42,-360.681 1008.61,-340.699 933.376,-328.654"/>
<polygon fill="midnightblue" stroke="midnightblue" points="933.527,-325.134 923.099,-327.009 932.42,-332.046 933.527,-325.134"/>
</g>
<!-- Node33 -->
<g id="node34" class="node"><title>Node33</title>
<g id="a_node34"><a xlink:href="_n_f_event_define_8h.html" target="_top" xlink:title="NFComm/NFEventDefine\l/NFEventDefine.h">
<polygon fill="white" stroke="black" points="1438.45,-302.5 1438.45,-332.5 1563.45,-332.5 1563.45,-302.5 1438.45,-302.5"/>
<text text-anchor="start" x="1446.45" y="-320.5" font-family="Helvetica,sans-Serif" font-size="10.00">NFComm/NFEventDefine</text>
<text text-anchor="middle" x="1500.95" y="-309.5" font-family="Helvetica,sans-Serif" font-size="10.00">/NFEventDefine.h</text>
</a>
</g>
</g>
<!-- Node16&#45;&gt;Node33 -->
<g id="edge63" class="edge"><title>Node16&#45;&gt;Node33</title>
<path fill="none" stroke="midnightblue" d="M1324.49,-369.476C1358.98,-359.515 1405.46,-346.086 1442.06,-335.512"/>
<polygon fill="midnightblue" stroke="midnightblue" points="1443.47,-338.749 1452.1,-332.611 1441.53,-332.024 1443.47,-338.749"/>
</g>
<!-- Node17&#45;&gt;Node2 -->
<g id="edge27" class="edge"><title>Node17&#45;&gt;Node2</title>
<path fill="none" stroke="midnightblue" d="M1448.47,-190.459C1461.37,-182.594 1479.29,-169.772 1489.95,-154 1502.89,-134.854 1508.98,-108.616 1511.76,-91.1379"/>
<polygon fill="midnightblue" stroke="midnightblue" points="1515.25,-91.4644 1513.15,-81.0803 1508.31,-90.5092 1515.25,-91.4644"/>
</g>
<!-- Node17&#45;&gt;Node5 -->
<g id="edge28" class="edge"><title>Node17&#45;&gt;Node5</title>
<path fill="none" stroke="midnightblue" d="M1369.96,-190.435C1327.08,-183.45 1269.53,-171.788 1220.95,-154 1219.74,-153.558 1218.52,-153.069 1217.3,-152.548"/>
<polygon fill="midnightblue" stroke="midnightblue" points="1218.7,-149.334 1208.17,-148.109 1215.63,-155.63 1218.7,-149.334"/>
</g>
<!-- Node17&#45;&gt;Node6 -->
<g id="edge29" class="edge"><title>Node17&#45;&gt;Node6</title>
<path fill="none" stroke="midnightblue" d="M1432.95,-190.475C1432.95,-182.08 1432.95,-168.981 1432.95,-158.163"/>
<polygon fill="midnightblue" stroke="midnightblue" points="1436.45,-158.009 1432.95,-148.009 1429.45,-158.009 1436.45,-158.009"/>
</g>
<!-- Node17&#45;&gt;Node11 -->
<g id="edge31" class="edge"><title>Node17&#45;&gt;Node11</title>
<path fill="none" stroke="midnightblue" d="M1440.28,-190.301C1452.41,-174.821 1473.65,-142.31 1455.95,-123 1422.71,-86.7259 1103.52,-76.4055 954.226,-73.5519"/>
<polygon fill="midnightblue" stroke="midnightblue" points="954.273,-70.0523 944.21,-73.3668 954.144,-77.0511 954.273,-70.0523"/>
</g>
<!-- Node18 -->
<g id="node19" class="node"><title>Node18</title>
<polygon fill="white" stroke="#bfbfbf" points="1229.95,-129 1229.95,-148 1285.95,-148 1285.95,-129 1229.95,-129"/>
<text text-anchor="middle" x="1257.95" y="-136" font-family="Helvetica,sans-Serif" font-size="10.00">algorithm</text>
</g>
<!-- Node17&#45;&gt;Node18 -->
<g id="edge30" class="edge"><title>Node17&#45;&gt;Node18</title>
<path fill="none" stroke="midnightblue" d="M1407.88,-190.475C1377.6,-180.18 1326.51,-162.81 1292.51,-151.25"/>
<polygon fill="midnightblue" stroke="midnightblue" points="1293.57,-147.914 1282.98,-148.009 1291.32,-154.542 1293.57,-147.914"/>
</g>
<!-- Node20 -->
<g id="node21" class="node"><title>Node20</title>
<polygon fill="white" stroke="#bfbfbf" points="249.95,-129 249.95,-148 307.95,-148 307.95,-129 249.95,-129"/>
<text text-anchor="middle" x="278.95" y="-136" font-family="Helvetica,sans-Serif" font-size="10.00">functional</text>
</g>
<!-- Node19&#45;&gt;Node20 -->
<g id="edge33" class="edge"><title>Node19&#45;&gt;Node20</title>
<path fill="none" stroke="midnightblue" d="M729.467,-246.494C675.738,-233.99 572.154,-209.966 483.95,-190 412.014,-173.717 392.996,-173.812 321.95,-154 318.936,-153.159 315.822,-152.231 312.712,-151.261"/>
<polygon fill="midnightblue" stroke="midnightblue" points="313.509,-147.84 302.917,-148.085 311.349,-154.499 313.509,-147.84"/>
</g>
<!-- Node19&#45;&gt;Node21 -->
<g id="edge34" class="edge"><title>Node19&#45;&gt;Node21</title>
<path fill="none" stroke="midnightblue" d="M777.679,-246.324C788.788,-238.107 805.692,-225.602 818.934,-215.807"/>
<polygon fill="midnightblue" stroke="midnightblue" points="821.05,-218.595 827.008,-209.834 816.887,-212.967 821.05,-218.595"/>
</g>
<!-- Node29 -->
<g id="node30" class="node"><title>Node29</title>
<g id="a_node30"><a xlink:href="_n_f_g_u_i_d_8h.html" target="_top" xlink:title="NFComm/NFPluginModule\l/NFGUID.h">
<polygon fill="white" stroke="black" points="99.9502,-123.5 99.9502,-153.5 231.95,-153.5 231.95,-123.5 99.9502,-123.5"/>
<text text-anchor="start" x="107.95" y="-141.5" font-family="Helvetica,sans-Serif" font-size="10.00">NFComm/NFPluginModule</text>
<text text-anchor="middle" x="165.95" y="-130.5" font-family="Helvetica,sans-Serif" font-size="10.00">/NFGUID.h</text>
</a>
</g>
</g>
<!-- Node19&#45;&gt;Node29 -->
<g id="edge58" class="edge"><title>Node19&#45;&gt;Node29</title>
<path fill="none" stroke="midnightblue" d="M705.806,-246.469C648.588,-238.102 560.169,-224.517 483.95,-210 397.474,-193.53 298.58,-171.021 234.347,-155.908"/>
<polygon fill="midnightblue" stroke="midnightblue" points="234.879,-152.438 224.343,-153.548 233.272,-159.251 234.879,-152.438"/>
</g>
<!-- Node21&#45;&gt;Node2 -->
<g id="edge37" class="edge"><title>Node21&#45;&gt;Node2</title>
<path fill="none" stroke="midnightblue" d="M879.29,-190.435C909.611,-183.109 951.646,-171.032 985.95,-154 1007.05,-143.523 1006.94,-131.392 1028.95,-123 1110.9,-91.7602 1377.91,-78.0079 1476.73,-73.9"/>
<polygon fill="midnightblue" stroke="midnightblue" points="1477,-77.3922 1486.85,-73.489 1476.71,-70.398 1477,-77.3922"/>
</g>
<!-- Node21&#45;&gt;Node3 -->
<g id="edge44" class="edge"><title>Node21&#45;&gt;Node3</title>
<path fill="none" stroke="midnightblue" d="M796.592,-198.296C659.165,-195.724 226.758,-185.287 90.9502,-154 88.2783,-153.384 85.5485,-152.585 82.8505,-151.678"/>
<polygon fill="midnightblue" stroke="midnightblue" points="83.969,-148.358 73.3785,-148.055 81.4687,-154.896 83.969,-148.358"/>
</g>
<!-- Node21&#45;&gt;Node5 -->
<g id="edge42" class="edge"><title>Node21&#45;&gt;Node5</title>
<path fill="none" stroke="midnightblue" d="M881.175,-197.976C944.679,-195.382 1067.88,-186.236 1166.95,-154 1168.37,-153.537 1169.81,-153.001 1171.24,-152.413"/>
<polygon fill="midnightblue" stroke="midnightblue" points="1172.87,-155.511 1180.36,-148.015 1169.83,-149.206 1172.87,-155.511"/>
</g>
<!-- Node21&#45;&gt;Node6 -->
<g id="edge40" class="edge"><title>Node21&#45;&gt;Node6</title>
<path fill="none" stroke="midnightblue" d="M881.08,-194.932C961.534,-187.144 1142.6,-169.521 1294.95,-154 1334.55,-149.966 1380.52,-145.098 1408.14,-142.154"/>
<polygon fill="midnightblue" stroke="midnightblue" points="1408.88,-145.596 1418.45,-141.054 1408.13,-138.635 1408.88,-145.596"/>
</g>
<!-- Node21&#45;&gt;Node7 -->
<g id="edge35" class="edge"><title>Node21&#45;&gt;Node7</title>
<path fill="none" stroke="midnightblue" d="M857.67,-190.416C876.589,-181.63 906.573,-167.402 931.95,-154 956.421,-141.076 960.56,-134.007 985.95,-123 1105.79,-71.0503 1257.37,-32.8484 1321.3,-17.9086"/>
<polygon fill="midnightblue" stroke="midnightblue" points="1322.19,-21.2957 1331.14,-15.6315 1320.61,-14.4759 1322.19,-21.2957"/>
</g>
<!-- Node21&#45;&gt;Node8 -->
<g id="edge45" class="edge"><title>Node21&#45;&gt;Node8</title>
<path fill="none" stroke="midnightblue" d="M881.06,-194.751C933.055,-188.816 1023.82,-176.193 1098.95,-154 1101.1,-153.365 1103.3,-152.633 1105.49,-151.843"/>
<polygon fill="midnightblue" stroke="midnightblue" points="1106.88,-155.057 1114.89,-148.122 1104.3,-148.549 1106.88,-155.057"/>
</g>
<!-- Node21&#45;&gt;Node10 -->
<g id="edge49" class="edge"><title>Node21&#45;&gt;Node10</title>
<path fill="none" stroke="midnightblue" d="M879.713,-190.428C917.428,-182.18 974.902,-168.807 1023.95,-154 1026.58,-153.207 1029.29,-152.338 1031.99,-151.433"/>
<polygon fill="midnightblue" stroke="midnightblue" points="1033.38,-154.658 1041.67,-148.064 1031.07,-148.047 1033.38,-154.658"/>
</g>
<!-- Node21&#45;&gt;Node11 -->
<g id="edge56" class="edge"><title>Node21&#45;&gt;Node11</title>
<path fill="none" stroke="midnightblue" d="M866.965,-190.397C884.124,-183.515 904.699,-171.984 914.95,-154 926.061,-134.51 912.871,-111.081 899.257,-94.356"/>
<polygon fill="midnightblue" stroke="midnightblue" points="901.84,-91.9922 892.644,-86.7305 896.551,-96.5784 901.84,-91.9922"/>
</g>
<!-- Node21&#45;&gt;Node18 -->
<g id="edge43" class="edge"><title>Node21&#45;&gt;Node18</title>
<path fill="none" stroke="midnightblue" d="M880.989,-197.421C951.849,-194.012 1099.16,-183.693 1219.95,-154 1222.78,-153.305 1225.68,-152.457 1228.56,-151.524"/>
<polygon fill="midnightblue" stroke="midnightblue" points="1229.88,-154.77 1238.13,-148.121 1227.54,-148.175 1229.88,-154.77"/>
</g>
<!-- Node21&#45;&gt;Node20 -->
<g id="edge47" class="edge"><title>Node21&#45;&gt;Node20</title>
<path fill="none" stroke="midnightblue" d="M796.598,-194.327C782.986,-192.876 767.837,-191.314 753.95,-190 562.141,-171.856 510.613,-193.067 321.95,-154 318.262,-153.236 314.451,-152.252 310.692,-151.156"/>
<polygon fill="midnightblue" stroke="midnightblue" points="311.575,-147.764 300.985,-148.07 309.455,-154.435 311.575,-147.764"/>
</g>
<!-- Node22 -->
<g id="node23" class="node"><title>Node22</title>
<polygon fill="white" stroke="#bfbfbf" points="859.95,-129 859.95,-148 905.95,-148 905.95,-129 859.95,-129"/>
<text text-anchor="middle" x="882.95" y="-136" font-family="Helvetica,sans-Serif" font-size="10.00">cstring</text>
</g>
<!-- Node21&#45;&gt;Node22 -->
<g id="edge36" class="edge"><title>Node21&#45;&gt;Node22</title>
<path fill="none" stroke="midnightblue" d="M845.254,-190.475C851.854,-181.55 862.387,-167.307 870.643,-156.143"/>
<polygon fill="midnightblue" stroke="midnightblue" points="873.526,-158.131 876.658,-148.009 867.898,-153.968 873.526,-158.131"/>
</g>
<!-- Node23 -->
<g id="node24" class="node"><title>Node23</title>
<polygon fill="white" stroke="#bfbfbf" points="259.95,-62 259.95,-81 307.95,-81 307.95,-62 259.95,-62"/>
<text text-anchor="middle" x="283.95" y="-69" font-family="Helvetica,sans-Serif" font-size="10.00">stdlib.h</text>
</g>
<!-- Node21&#45;&gt;Node23 -->
<g id="edge38" class="edge"><title>Node21&#45;&gt;Node23</title>
<path fill="none" stroke="midnightblue" d="M796.637,-199.042C693.418,-198.519 431.561,-193.246 354.95,-154 326.947,-139.654 305.168,-109.138 293.473,-89.7883"/>
<polygon fill="midnightblue" stroke="midnightblue" points="296.466,-87.9713 288.428,-81.0687 290.407,-91.4771 296.466,-87.9713"/>
</g>
<!-- Node24 -->
<g id="node25" class="node"><title>Node24</title>
<polygon fill="white" stroke="#bfbfbf" points="364.45,-129 364.45,-148 411.45,-148 411.45,-129 364.45,-129"/>
<text text-anchor="middle" x="387.95" y="-136" font-family="Helvetica,sans-Serif" font-size="10.00">math.h</text>
</g>
<!-- Node21&#45;&gt;Node24 -->
<g id="edge39" class="edge"><title>Node21&#45;&gt;Node24</title>
<path fill="none" stroke="midnightblue" d="M796.834,-194.508C691.195,-183.235 423.215,-154.604 420.95,-154 418.654,-153.388 416.314,-152.638 413.992,-151.805"/>
<polygon fill="midnightblue" stroke="midnightblue" points="415.3,-148.559 404.718,-148.053 412.675,-155.048 415.3,-148.559"/>
</g>
<!-- Node25 -->
<g id="node26" class="node"><title>Node25</title>
<polygon fill="white" stroke="#bfbfbf" points="429.95,-129 429.95,-148 471.95,-148 471.95,-129 429.95,-129"/>
<text text-anchor="middle" x="450.95" y="-136" font-family="Helvetica,sans-Serif" font-size="10.00">vector</text>
</g>
<!-- Node21&#45;&gt;Node25 -->
<g id="edge41" class="edge"><title>Node21&#45;&gt;Node25</title>
<path fill="none" stroke="midnightblue" d="M796.727,-194.472C708.581,-184.905 510.684,-162.796 480.95,-154 479.078,-153.446 477.178,-152.786 475.29,-152.058"/>
<polygon fill="midnightblue" stroke="midnightblue" points="476.698,-148.854 466.136,-148.021 473.873,-155.258 476.698,-148.854"/>
</g>
<!-- Node26 -->
<g id="node27" class="node"><title>Node26</title>
<polygon fill="white" stroke="#bfbfbf" points="489.95,-129 489.95,-148 539.95,-148 539.95,-129 489.95,-129"/>
<text text-anchor="middle" x="514.95" y="-136" font-family="Helvetica,sans-Serif" font-size="10.00">iomanip</text>
</g>
<!-- Node21&#45;&gt;Node26 -->
<g id="edge46" class="edge"><title>Node21&#45;&gt;Node26</title>
<path fill="none" stroke="midnightblue" d="M796.81,-193.774C728.023,-185.024 594.691,-167.08 548.95,-154 546.66,-153.345 544.318,-152.575 541.989,-151.737"/>
<polygon fill="midnightblue" stroke="midnightblue" points="543.231,-148.464 532.645,-148.032 540.65,-154.971 543.231,-148.464"/>
</g>
<!-- Node27 -->
<g id="node28" class="node"><title>Node27</title>
<polygon fill="white" stroke="#bfbfbf" points="558.45,-129 558.45,-148 607.45,-148 607.45,-129 558.45,-129"/>
<text text-anchor="middle" x="582.95" y="-136" font-family="Helvetica,sans-Serif" font-size="10.00">fstream</text>
</g>
<!-- Node21&#45;&gt;Node27 -->
<g id="edge48" class="edge"><title>Node21&#45;&gt;Node27</title>
<path fill="none" stroke="midnightblue" d="M796.576,-193.036C751.423,-186.076 678.158,-173.038 616.95,-154 614.809,-153.334 612.62,-152.58 610.434,-151.774"/>
<polygon fill="midnightblue" stroke="midnightblue" points="611.63,-148.483 601.046,-148.022 609.033,-154.983 611.63,-148.483"/>
</g>
<!-- Node28 -->
<g id="node29" class="node"><title>Node28</title>
<polygon fill="white" stroke="#bfbfbf" points="625.95,-129 625.95,-148 729.95,-148 729.95,-129 625.95,-129"/>
<text text-anchor="middle" x="677.95" y="-136" font-family="Helvetica,sans-Serif" font-size="10.00">common/variant.hpp</text>
</g>
<!-- Node21&#45;&gt;Node28 -->
<g id="edge50" class="edge"><title>Node21&#45;&gt;Node28</title>
<path fill="none" stroke="midnightblue" d="M815.883,-190.475C788.266,-180.269 741.831,-163.108 710.554,-151.549"/>
<polygon fill="midnightblue" stroke="midnightblue" points="711.568,-148.193 700.975,-148.009 709.141,-154.759 711.568,-148.193"/>
</g>
<!-- Node21&#45;&gt;Node29 -->
<g id="edge51" class="edge"><title>Node21&#45;&gt;Node29</title>
<path fill="none" stroke="midnightblue" d="M796.725,-197.505C700.256,-193.729 456.154,-182.13 242.295,-154.075"/>
<polygon fill="midnightblue" stroke="midnightblue" points="242.509,-150.573 232.135,-152.727 241.588,-157.512 242.509,-150.573"/>
</g>
<!-- Node31 -->
<g id="node32" class="node"><title>Node31</title>
<g id="a_node32"><a xlink:href="_vector3_8hpp.html" target="_top" xlink:title="Math/Vector3.hpp">
<polygon fill="white" stroke="black" points="747.95,-129 747.95,-148 841.95,-148 841.95,-129 747.95,-129"/>
<text text-anchor="middle" x="794.95" y="-136" font-family="Helvetica,sans-Serif" font-size="10.00">Math/Vector3.hpp</text>
</a>
</g>
</g>
<!-- Node21&#45;&gt;Node31 -->
<g id="edge57" class="edge"><title>Node21&#45;&gt;Node31</title>
<path fill="none" stroke="midnightblue" d="M832.646,-190.475C826.046,-181.55 815.513,-167.307 807.257,-156.143"/>
<polygon fill="midnightblue" stroke="midnightblue" points="810.003,-153.968 801.243,-148.009 804.374,-158.131 810.003,-153.968"/>
</g>
<!-- Node29&#45;&gt;Node2 -->
<g id="edge53" class="edge"><title>Node29&#45;&gt;Node2</title>
<path fill="none" stroke="midnightblue" d="M232.119,-124.144C235.098,-123.721 238.052,-123.336 240.95,-123 366.283,-108.483 1279.52,-79.7251 1476.55,-73.6455"/>
<polygon fill="midnightblue" stroke="midnightblue" points="1476.8,-77.1395 1486.69,-73.3331 1476.58,-70.1428 1476.8,-77.1395"/>
</g>
<!-- Node29&#45;&gt;Node11 -->
<g id="edge52" class="edge"><title>Node29&#45;&gt;Node11</title>
<path fill="none" stroke="midnightblue" d="M232.137,-124.287C235.111,-123.825 238.059,-123.393 240.95,-123 442.295,-95.643 681.608,-81.5813 801.49,-75.7942"/>
<polygon fill="midnightblue" stroke="midnightblue" points="801.842,-79.2815 811.664,-75.3091 801.509,-72.2894 801.842,-79.2815"/>
</g>
<!-- Node29&#45;&gt;Node23 -->
<g id="edge55" class="edge"><title>Node29&#45;&gt;Node23</title>
<path fill="none" stroke="midnightblue" d="M191.554,-123.396C211.801,-112.243 239.87,-96.7812 259.745,-85.8336"/>
<polygon fill="midnightblue" stroke="midnightblue" points="261.436,-88.8976 268.507,-81.007 258.059,-82.7663 261.436,-88.8976"/>
</g>
<!-- Node30 -->
<g id="node31" class="node"><title>Node30</title>
<polygon fill="white" stroke="#bfbfbf" points="142.95,-62 142.95,-81 188.95,-81 188.95,-62 142.95,-62"/>
<text text-anchor="middle" x="165.95" y="-69" font-family="Helvetica,sans-Serif" font-size="10.00">stdio.h</text>
</g>
<!-- Node29&#45;&gt;Node30 -->
<g id="edge54" class="edge"><title>Node29&#45;&gt;Node30</title>
<path fill="none" stroke="midnightblue" d="M165.95,-123.396C165.95,-114.064 165.95,-101.714 165.95,-91.5173"/>
<polygon fill="midnightblue" stroke="midnightblue" points="169.45,-91.1945 165.95,-81.1945 162.45,-91.1946 169.45,-91.1945"/>
</g>
<!-- Node32&#45;&gt;Node19 -->
<g id="edge61" class="edge"><title>Node32&#45;&gt;Node19</title>
<path fill="none" stroke="midnightblue" d="M855.05,-307.975C837.982,-298.211 809.789,-282.081 789.688,-270.581"/>
<polygon fill="midnightblue" stroke="midnightblue" points="791.241,-267.437 780.823,-265.509 787.765,-273.513 791.241,-267.437"/>
</g>
<!-- Node32&#45;&gt;Node21 -->
<g id="edge62" class="edge"><title>Node32&#45;&gt;Node21</title>
<path fill="none" stroke="midnightblue" d="M867.62,-307.819C862.616,-289.173 850.744,-244.943 843.951,-219.632"/>
<polygon fill="midnightblue" stroke="midnightblue" points="847.28,-218.533 841.307,-209.782 840.519,-220.347 847.28,-218.533"/>
</g>
<!-- Node33&#45;&gt;Node2 -->
<g id="edge64" class="edge"><title>Node33&#45;&gt;Node2</title>
<path fill="none" stroke="midnightblue" d="M1508.45,-302.318C1524.45,-270.193 1559.15,-189.491 1541.95,-123 1538.86,-111.062 1532.28,-98.9382 1526.27,-89.5624"/>
<polygon fill="midnightblue" stroke="midnightblue" points="1529.11,-87.5221 1520.6,-81.2115 1523.32,-91.4519 1529.11,-87.5221"/>
</g>
<!-- Node34&#45;&gt;Node16 -->
<g id="edge67" class="edge"><title>Node34&#45;&gt;Node16</title>
<path fill="none" stroke="midnightblue" d="M1290.83,-436.396C1288.51,-428.474 1285.56,-418.379 1282.9,-409.271"/>
<polygon fill="midnightblue" stroke="midnightblue" points="1286.23,-408.193 1280.06,-399.577 1279.51,-410.157 1286.23,-408.193"/>
</g>
</g>
</svg>
        <g id="navigator" transform="translate(0 0)" fill="#404254">
                <rect fill="#f2f5e9" fill-opacity="0.5" stroke="#606060" stroke-width=".5" x="0" y="0" width="60" height="60"/>
                <use id="zoomplus" xlink:href="#zoomPlus" x="17" y="9" onmousedown="handleZoom(evt,'in')"/>
                <use id="zoomminus" xlink:href="#zoomMin" x="42" y="9" onmousedown="handleZoom(evt,'out')"/>
                <use id="reset" xlink:href="#resetDef" x="30" y="36" onmousedown="handleReset()"/>
                <g id="arrowUp" xlink:href="#dirArrow" transform="translate(30 24)" onmousedown="handlePan(0,-1)">
                  <use xlink:href="#rim" fill="#404040">
                        <set attributeName="fill" to="#808080" begin="arrowUp.mouseover" end="arrowUp.mouseout"/>
                  </use>
                  <path fill="none" stroke="white" stroke-width="1.5" d="M0,-3.0v7 M-2.5,-0.5L0,-3.0L2.5,-0.5"/>
                </g>
                <g id="arrowRight" xlink:href="#dirArrow" transform="rotate(90) translate(36 -43)" onmousedown="handlePan(1,0)">
                  <use xlink:href="#rim" fill="#404040">
                        <set attributeName="fill" to="#808080" begin="arrowRight.mouseover" end="arrowRight.mouseout"/>
                  </use>
                  <path fill="none" stroke="white" stroke-width="1.5" d="M0,-3.0v7 M-2.5,-0.5L0,-3.0L2.5,-0.5"/>
                </g>
                <g id="arrowDown" xlink:href="#dirArrow" transform="rotate(180) translate(-30 -48)" onmousedown="handlePan(0,1)">
                  <use xlink:href="#rim" fill="#404040">
                        <set attributeName="fill" to="#808080" begin="arrowDown.mouseover" end="arrowDown.mouseout"/>
                  </use>
                  <path fill="none" stroke="white" stroke-width="1.5" d="M0,-3.0v7 M-2.5,-0.5L0,-3.0L2.5,-0.5"/>
                </g>
                <g id="arrowLeft" xlink:href="#dirArrow" transform="rotate(270) translate(-36 17)" onmousedown="handlePan(-1,0)">
                  <use xlink:href="#rim" fill="#404040">
                        <set attributeName="fill" to="#808080" begin="arrowLeft.mouseover" end="arrowLeft.mouseout"/>
                  </use>
                  <path fill="none" stroke="white" stroke-width="1.5" d="M0,-3.0v7 M-2.5,-0.5L0,-3.0L2.5,-0.5"/>
                </g>
        </g>
        <svg viewBox="0 0 15 15" width="100%" height="30px" preserveAspectRatio="xMaxYMin meet">
         <g id="arrow_out" transform="scale(0.3 0.3)">
          <a xlink:href="_hello_world1_8h__incl_org.svg" target="_base">
           <rect id="button" ry="5" rx="5" y="6" x="6" height="38" width="38"
                fill="#f2f5e9" fill-opacity="0.5" stroke="#606060" stroke-width="1.0"/>
           <path id="arrow"
             d="M 11.500037,31.436501 C 11.940474,20.09759 22.043105,11.32322 32.158766,21.979434 L 37.068811,17.246167 C 37.068811,17.246167 37.088388,32 37.088388,32 L 22.160133,31.978069 C 22.160133,31.978069 26.997745,27.140456 26.997745,27.140456 C 18.528582,18.264221 13.291696,25.230495 11.500037,31.436501 z"
             style="fill:#404040;"/>
          </a>
         </g>
        </svg>
</svg>
