<?xml version="1.0" encoding="UTF-8" standalone="no"?>
<!DOCTYPE svg PUBLIC "-//W3C//DTD SVG 1.1//EN"
 "http://www.w3.org/Graphics/SVG/1.1/DTD/svg11.dtd">
<!-- Generated by graphviz version 2.38.0 (20140413.2041)
 -->
<!-- Title: HelloWorld1.h Pages: 1 -->
<svg width="186pt" height="84pt"
 viewBox="0.00 0.00 186.00 84.00" xmlns="http://www.w3.org/2000/svg" xmlns:xlink="http://www.w3.org/1999/xlink">
<g id="graph0" class="graph" transform="scale(1 1) rotate(0) translate(4 80)">
<title>HelloWorld1.h</title>
<polygon fill="white" stroke="none" points="-4,4 -4,-80 182,-80 182,4 -4,4"/>
<!-- Node35 -->
<g id="node1" class="node"><title>Node35</title>
<polygon fill="#bfbfbf" stroke="black" points="54.5,-56.5 54.5,-75.5 131.5,-75.5 131.5,-56.5 54.5,-56.5"/>
<text text-anchor="middle" x="93" y="-63.5" font-family="Helvetica,sans-Serif" font-size="10.00">HelloWorld1.h</text>
</g>
<!-- Node36 -->
<g id="node2" class="node"><title>Node36</title>
<g id="a_node2"><a xlink:href="_hello_world1_8cpp.html" target="_top" xlink:title="HelloWorld1.cpp">
<polygon fill="white" stroke="black" points="0,-0.5 0,-19.5 88,-19.5 88,-0.5 0,-0.5"/>
<text text-anchor="middle" x="44" y="-7.5" font-family="Helvetica,sans-Serif" font-size="10.00">HelloWorld1.cpp</text>
</a>
</g>
</g>
<!-- Node35&#45;&gt;Node36 -->
<g id="edge1" class="edge"><title>Node35&#45;&gt;Node36</title>
<path fill="none" stroke="midnightblue" d="M77.9655,-48.4314C69.3778,-38.9673 58.9565,-27.4827 51.9408,-19.7511"/>
<polygon fill="midnightblue" stroke="midnightblue" points="75.5967,-51.0293 84.9086,-56.083 80.7807,-46.3254 75.5967,-51.0293"/>
</g>
<!-- Node37 -->
<g id="node3" class="node"><title>Node37</title>
<g id="a_node3"><a xlink:href="_tutorial1_8cpp.html" target="_top" xlink:title="Tutorial1.cpp">
<polygon fill="white" stroke="black" points="106,-0.5 106,-19.5 178,-19.5 178,-0.5 106,-0.5"/>
<text text-anchor="middle" x="142" y="-7.5" font-family="Helvetica,sans-Serif" font-size="10.00">Tutorial1.cpp</text>
</a>
</g>
</g>
<!-- Node35&#45;&gt;Node37 -->
<g id="edge2" class="edge"><title>Node35&#45;&gt;Node37</title>
<path fill="none" stroke="midnightblue" d="M108.034,-48.4314C116.622,-38.9673 127.043,-27.4827 134.059,-19.7511"/>
<polygon fill="midnightblue" stroke="midnightblue" points="105.219,-46.3254 101.091,-56.083 110.403,-51.0293 105.219,-46.3254"/>
</g>
</g>
</svg>
