<?xml version="1.0" encoding="UTF-8" standalone="no"?>
<!DOCTYPE svg PUBLIC "-//W3C//DTD SVG 1.1//EN"
 "http://www.w3.org/Graphics/SVG/1.1/DTD/svg11.dtd">
<!-- Generated by graphviz version 2.38.0 (20140413.2041)
 -->
<!-- Title: NFQueue.h Pages: 1 -->
<svg width="541pt" height="151pt"
 viewBox="0.00 0.00 541.00 151.00" xmlns="http://www.w3.org/2000/svg" xmlns:xlink="http://www.w3.org/1999/xlink">
<g id="graph0" class="graph" transform="scale(1 1) rotate(0) translate(4 147)">
<title>NFQueue.h</title>
<polygon fill="white" stroke="none" points="-4,4 -4,-147 537,-147 537,4 -4,4"/>
<!-- Node0 -->
<g id="node1" class="node"><title>Node0</title>
<polygon fill="#bfbfbf" stroke="black" points="98.5,-123.5 98.5,-142.5 164.5,-142.5 164.5,-123.5 98.5,-123.5"/>
<text text-anchor="middle" x="131.5" y="-130.5" font-family="Helvetica,sans-Serif" font-size="10.00">NFQueue.h</text>
</g>
<!-- Node1 -->
<g id="node2" class="node"><title>Node1</title>
<polygon fill="white" stroke="#bfbfbf" points="0,-62 0,-81 29,-81 29,-62 0,-62"/>
<text text-anchor="middle" x="14.5" y="-69" font-family="Helvetica,sans-Serif" font-size="10.00">list</text>
</g>
<!-- Node0&#45;&gt;Node1 -->
<g id="edge1" class="edge"><title>Node0&#45;&gt;Node1</title>
<path fill="none" stroke="midnightblue" d="M112.359,-123.371C93.3723,-114.665 63.568,-100.599 38.5,-87 37.9651,-86.7098 37.4253,-86.4134 36.8822,-86.1121"/>
<polygon fill="midnightblue" stroke="midnightblue" points="38.4855,-82.9959 28.0796,-81.0037 34.9719,-89.0502 38.4855,-82.9959"/>
</g>
<!-- Node2 -->
<g id="node3" class="node"><title>Node2</title>
<polygon fill="white" stroke="#bfbfbf" points="47.5,-62 47.5,-81 91.5,-81 91.5,-62 47.5,-62"/>
<text text-anchor="middle" x="69.5" y="-69" font-family="Helvetica,sans-Serif" font-size="10.00">thread</text>
</g>
<!-- Node0&#45;&gt;Node2 -->
<g id="edge2" class="edge"><title>Node0&#45;&gt;Node2</title>
<path fill="none" stroke="midnightblue" d="M122.617,-123.475C113.041,-114.285 97.5889,-99.4563 85.8138,-88.156"/>
<polygon fill="midnightblue" stroke="midnightblue" points="88.0051,-85.408 78.3666,-81.0091 83.1582,-90.4585 88.0051,-85.408"/>
</g>
<!-- Node3 -->
<g id="node4" class="node"><title>Node3</title>
<polygon fill="white" stroke="#bfbfbf" points="109.5,-62 109.5,-81 153.5,-81 153.5,-62 109.5,-62"/>
<text text-anchor="middle" x="131.5" y="-69" font-family="Helvetica,sans-Serif" font-size="10.00">mutex</text>
</g>
<!-- Node0&#45;&gt;Node3 -->
<g id="edge3" class="edge"><title>Node0&#45;&gt;Node3</title>
<path fill="none" stroke="midnightblue" d="M131.5,-123.475C131.5,-115.08 131.5,-101.981 131.5,-91.1631"/>
<polygon fill="midnightblue" stroke="midnightblue" points="135,-91.0091 131.5,-81.0091 128,-91.0091 135,-91.0091"/>
</g>
<!-- Node4 -->
<g id="node5" class="node"><title>Node4</title>
<polygon fill="white" stroke="#bfbfbf" points="171.5,-62 171.5,-81 217.5,-81 217.5,-62 171.5,-62"/>
<text text-anchor="middle" x="194.5" y="-69" font-family="Helvetica,sans-Serif" font-size="10.00">atomic</text>
</g>
<!-- Node0&#45;&gt;Node4 -->
<g id="edge4" class="edge"><title>Node0&#45;&gt;Node4</title>
<path fill="none" stroke="midnightblue" d="M140.526,-123.475C150.257,-114.285 165.958,-99.4563 177.923,-88.156"/>
<polygon fill="midnightblue" stroke="midnightblue" points="180.623,-90.4199 185.49,-81.0091 175.817,-85.3308 180.623,-90.4199"/>
</g>
<!-- Node5 -->
<g id="node6" class="node"><title>Node5</title>
<g id="a_node6"><a xlink:href="_n_f_platform_8h.html" target="_top" xlink:title="NFComm/NFPluginModule\l/NFPlatform.h">
<polygon fill="white" stroke="black" points="235.5,-56.5 235.5,-86.5 367.5,-86.5 367.5,-56.5 235.5,-56.5"/>
<text text-anchor="start" x="243.5" y="-74.5" font-family="Helvetica,sans-Serif" font-size="10.00">NFComm/NFPluginModule</text>
<text text-anchor="middle" x="301.5" y="-63.5" font-family="Helvetica,sans-Serif" font-size="10.00">/NFPlatform.h</text>
</a>
</g>
</g>
<!-- Node0&#45;&gt;Node5 -->
<g id="edge5" class="edge"><title>Node0&#45;&gt;Node5</title>
<path fill="none" stroke="midnightblue" d="M155.857,-123.475C180.818,-114.739 220.336,-100.907 251.914,-89.855"/>
<polygon fill="midnightblue" stroke="midnightblue" points="253.152,-93.13 261.434,-86.523 250.84,-86.523 253.152,-93.13"/>
</g>
<!-- Node6 -->
<g id="node7" class="node"><title>Node6</title>
<polygon fill="white" stroke="#bfbfbf" points="146,-0.5 146,-19.5 195,-19.5 195,-0.5 146,-0.5"/>
<text text-anchor="middle" x="170.5" y="-7.5" font-family="Helvetica,sans-Serif" font-size="10.00">stdint.h</text>
</g>
<!-- Node5&#45;&gt;Node6 -->
<g id="edge6" class="edge"><title>Node5&#45;&gt;Node6</title>
<path fill="none" stroke="midnightblue" d="M270.455,-56.3993C248.77,-46.55 220.041,-33.5014 198.949,-23.9217"/>
<polygon fill="midnightblue" stroke="midnightblue" points="200.114,-20.6065 189.562,-19.6578 197.219,-26.9799 200.114,-20.6065"/>
</g>
<!-- Node7 -->
<g id="node8" class="node"><title>Node7</title>
<polygon fill="white" stroke="#bfbfbf" points="213.5,-0.5 213.5,-19.5 257.5,-19.5 257.5,-0.5 213.5,-0.5"/>
<text text-anchor="middle" x="235.5" y="-7.5" font-family="Helvetica,sans-Serif" font-size="10.00">time.h</text>
</g>
<!-- Node5&#45;&gt;Node7 -->
<g id="edge7" class="edge"><title>Node5&#45;&gt;Node7</title>
<path fill="none" stroke="midnightblue" d="M285.859,-56.3993C275.873,-47.3967 262.922,-35.7214 252.655,-26.4652"/>
<polygon fill="midnightblue" stroke="midnightblue" points="254.875,-23.7541 245.104,-19.6578 250.187,-28.9533 254.875,-23.7541"/>
</g>
<!-- Node8 -->
<g id="node9" class="node"><title>Node8</title>
<polygon fill="white" stroke="#bfbfbf" points="275.5,-0.5 275.5,-19.5 327.5,-19.5 327.5,-0.5 275.5,-0.5"/>
<text text-anchor="middle" x="301.5" y="-7.5" font-family="Helvetica,sans-Serif" font-size="10.00">sstream</text>
</g>
<!-- Node5&#45;&gt;Node8 -->
<g id="edge8" class="edge"><title>Node5&#45;&gt;Node8</title>
<path fill="none" stroke="midnightblue" d="M301.5,-56.3993C301.5,-48.4664 301.5,-38.458 301.5,-29.8583"/>
<polygon fill="midnightblue" stroke="midnightblue" points="305,-29.6577 301.5,-19.6578 298,-29.6578 305,-29.6577"/>
</g>
<!-- Node9 -->
<g id="node10" class="node"><title>Node9</title>
<polygon fill="white" stroke="#bfbfbf" points="345.5,-0.5 345.5,-19.5 473.5,-19.5 473.5,-0.5 345.5,-0.5"/>
<text text-anchor="middle" x="409.5" y="-7.5" font-family="Helvetica,sans-Serif" font-size="10.00">common/lexical_cast.hpp</text>
</g>
<!-- Node5&#45;&gt;Node9 -->
<g id="edge9" class="edge"><title>Node5&#45;&gt;Node9</title>
<path fill="none" stroke="midnightblue" d="M327.094,-56.3993C344.568,-46.7728 367.588,-34.0902 384.856,-24.5772"/>
<polygon fill="midnightblue" stroke="midnightblue" points="386.715,-27.5488 393.785,-19.6578 383.337,-21.4177 386.715,-27.5488"/>
</g>
<!-- Node10 -->
<g id="node11" class="node"><title>Node10</title>
<polygon fill="white" stroke="#bfbfbf" points="492,-0.5 492,-19.5 533,-19.5 533,-0.5 492,-0.5"/>
<text text-anchor="middle" x="512.5" y="-7.5" font-family="Helvetica,sans-Serif" font-size="10.00">string</text>
</g>
<!-- Node5&#45;&gt;Node10 -->
<g id="edge10" class="edge"><title>Node5&#45;&gt;Node10</title>
<path fill="none" stroke="midnightblue" d="M353.067,-56.3981C387.057,-47.0377 432.791,-34.3197 481.978,-20.1107"/>
<polygon fill="midnightblue" stroke="midnightblue" points="483.227,-23.3929 491.859,-17.2496 481.28,-16.6691 483.227,-23.3929"/>
</g>
</g>
</svg>
