<?xml version="1.0" encoding="UTF-8" standalone="no"?>
<!DOCTYPE svg PUBLIC "-//W3C//DTD SVG 1.1//EN"
 "http://www.w3.org/Graphics/SVG/1.1/DTD/svg11.dtd">
<!-- Generated by graphviz version 2.38.0 (20140413.2041)
 -->
<!-- Title: NFIPropertyModule.h Pages: 1 -->
<svg width="605pt" height="140pt"
 viewBox="0.00 0.00 605.00 140.00" xmlns="http://www.w3.org/2000/svg" xmlns:xlink="http://www.w3.org/1999/xlink">
<g id="graph0" class="graph" transform="scale(1 1) rotate(0) translate(4 136)">
<title>NFIPropertyModule.h</title>
<polygon fill="white" stroke="none" points="-4,4 -4,-136 601,-136 601,4 -4,4"/>
<!-- Node33 -->
<g id="node1" class="node"><title>Node33</title>
<polygon fill="#bfbfbf" stroke="black" points="301.5,-112.5 301.5,-131.5 409.5,-131.5 409.5,-112.5 301.5,-112.5"/>
<text text-anchor="middle" x="355.5" y="-119.5" font-family="Helvetica,sans-Serif" font-size="10.00">NFIPropertyModule.h</text>
</g>
<!-- Node34 -->
<g id="node2" class="node"><title>Node34</title>
<g id="a_node2"><a xlink:href="_n_f_c_property_module_8h.html" target="_top" xlink:title="NFCPropertyModule.h">
<polygon fill="white" stroke="black" points="149,-56.5 149,-75.5 262,-75.5 262,-56.5 149,-56.5"/>
<text text-anchor="middle" x="205.5" y="-63.5" font-family="Helvetica,sans-Serif" font-size="10.00">NFCPropertyModule.h</text>
</a>
</g>
</g>
<!-- Node33&#45;&gt;Node34 -->
<g id="edge1" class="edge"><title>Node33&#45;&gt;Node34</title>
<path fill="none" stroke="midnightblue" d="M322.275,-109.039C294.052,-98.8786 254.238,-84.5457 229.157,-75.5164"/>
<polygon fill="midnightblue" stroke="midnightblue" points="321.138,-112.349 331.732,-112.444 323.509,-105.763 321.138,-112.349"/>
</g>
<!-- Node37 -->
<g id="node5" class="node"><title>Node37</title>
<g id="a_node5"><a xlink:href="_n_f_c_property_trail_module_8h.html" target="_top" xlink:title="NFCPropertyTrailModule.h">
<polygon fill="white" stroke="black" points="455,-56.5 455,-75.5 586,-75.5 586,-56.5 455,-56.5"/>
<text text-anchor="middle" x="520.5" y="-63.5" font-family="Helvetica,sans-Serif" font-size="10.00">NFCPropertyTrailModule.h</text>
</a>
</g>
</g>
<!-- Node33&#45;&gt;Node37 -->
<g id="edge4" class="edge"><title>Node33&#45;&gt;Node37</title>
<path fill="none" stroke="midnightblue" d="M391.236,-109.304C422.327,-99.1294 466.647,-84.6246 494.478,-75.5164"/>
<polygon fill="midnightblue" stroke="midnightblue" points="390.06,-106.007 381.645,-112.444 392.237,-112.659 390.06,-106.007"/>
</g>
<!-- Node39 -->
<g id="node7" class="node"><title>Node39</title>
<g id="a_node7"><a xlink:href="_n_f_c_scene_process_module_8h.html" target="_top" xlink:title="NFCSceneProcessModule.h">
<polygon fill="white" stroke="black" points="285.5,-56.5 285.5,-75.5 425.5,-75.5 425.5,-56.5 285.5,-56.5"/>
<text text-anchor="middle" x="355.5" y="-63.5" font-family="Helvetica,sans-Serif" font-size="10.00">NFCSceneProcessModule.h</text>
</a>
</g>
</g>
<!-- Node33&#45;&gt;Node39 -->
<g id="edge6" class="edge"><title>Node33&#45;&gt;Node39</title>
<path fill="none" stroke="midnightblue" d="M355.5,-101.805C355.5,-92.9102 355.5,-82.7798 355.5,-75.7511"/>
<polygon fill="midnightblue" stroke="midnightblue" points="352,-102.083 355.5,-112.083 359,-102.083 352,-102.083"/>
</g>
<!-- Node35 -->
<g id="node3" class="node"><title>Node35</title>
<g id="a_node3"><a xlink:href="_n_f_c_property_module_8cpp.html" target="_top" xlink:title="NFCPropertyModule.cpp">
<polygon fill="white" stroke="black" points="0,-0.5 0,-19.5 123,-19.5 123,-0.5 0,-0.5"/>
<text text-anchor="middle" x="61.5" y="-7.5" font-family="Helvetica,sans-Serif" font-size="10.00">NFCPropertyModule.cpp</text>
</a>
</g>
</g>
<!-- Node34&#45;&gt;Node35 -->
<g id="edge2" class="edge"><title>Node34&#45;&gt;Node35</title>
<path fill="none" stroke="midnightblue" d="M173.249,-52.9058C146.176,-42.7536 108.183,-28.5063 84.2105,-19.5164"/>
<polygon fill="midnightblue" stroke="midnightblue" points="172.091,-56.2094 182.683,-56.4435 174.548,-49.6551 172.091,-56.2094"/>
</g>
<!-- Node36 -->
<g id="node4" class="node"><title>Node36</title>
<g id="a_node4"><a xlink:href="_n_f_game_server_plugin_8cpp.html" target="_top" xlink:title="NFGameServerPlugin.cpp">
<polygon fill="white" stroke="black" points="141.5,-0.5 141.5,-19.5 269.5,-19.5 269.5,-0.5 141.5,-0.5"/>
<text text-anchor="middle" x="205.5" y="-7.5" font-family="Helvetica,sans-Serif" font-size="10.00">NFGameServerPlugin.cpp</text>
</a>
</g>
</g>
<!-- Node34&#45;&gt;Node36 -->
<g id="edge3" class="edge"><title>Node34&#45;&gt;Node36</title>
<path fill="none" stroke="midnightblue" d="M205.5,-45.8045C205.5,-36.9102 205.5,-26.7798 205.5,-19.7511"/>
<polygon fill="midnightblue" stroke="midnightblue" points="202,-46.083 205.5,-56.083 209,-46.083 202,-46.083"/>
</g>
<!-- Node38 -->
<g id="node6" class="node"><title>Node38</title>
<g id="a_node6"><a xlink:href="_n_f_c_property_trail_module_8cpp.html" target="_top" xlink:title="NFCPropertyTrailModule.cpp">
<polygon fill="white" stroke="black" points="456,-0.5 456,-19.5 597,-19.5 597,-0.5 456,-0.5"/>
<text text-anchor="middle" x="526.5" y="-7.5" font-family="Helvetica,sans-Serif" font-size="10.00">NFCPropertyTrailModule.cpp</text>
</a>
</g>
</g>
<!-- Node37&#45;&gt;Node38 -->
<g id="edge5" class="edge"><title>Node37&#45;&gt;Node38</title>
<path fill="none" stroke="midnightblue" d="M522.6,-46.1005C523.596,-37.1357 524.738,-26.8579 525.528,-19.7511"/>
<polygon fill="midnightblue" stroke="midnightblue" points="519.117,-45.7576 521.491,-56.083 526.074,-46.5307 519.117,-45.7576"/>
</g>
<!-- Node39&#45;&gt;Node36 -->
<g id="edge8" class="edge"><title>Node39&#45;&gt;Node36</title>
<path fill="none" stroke="midnightblue" d="M322.275,-53.0392C294.052,-42.8786 254.238,-28.5457 229.157,-19.5164"/>
<polygon fill="midnightblue" stroke="midnightblue" points="321.138,-56.3494 331.732,-56.4435 323.509,-49.7632 321.138,-56.3494"/>
</g>
<!-- Node40 -->
<g id="node8" class="node"><title>Node40</title>
<g id="a_node8"><a xlink:href="_n_f_c_scene_process_module_8cpp.html" target="_top" xlink:title="NFCSceneProcessModule.cpp">
<polygon fill="white" stroke="black" points="287.5,-0.5 287.5,-19.5 437.5,-19.5 437.5,-0.5 287.5,-0.5"/>
<text text-anchor="middle" x="362.5" y="-7.5" font-family="Helvetica,sans-Serif" font-size="10.00">NFCSceneProcessModule.cpp</text>
</a>
</g>
</g>
<!-- Node39&#45;&gt;Node40 -->
<g id="edge7" class="edge"><title>Node39&#45;&gt;Node40</title>
<path fill="none" stroke="midnightblue" d="M357.95,-46.1005C359.112,-37.1357 360.444,-26.8579 361.366,-19.7511"/>
<polygon fill="midnightblue" stroke="midnightblue" points="354.471,-45.716 356.656,-56.083 361.412,-46.6159 354.471,-45.716"/>
</g>
</g>
</svg>
