<?xml version="1.0" encoding="UTF-8" standalone="no"?>
<!DOCTYPE svg PUBLIC "-//W3C//DTD SVG 1.1//EN"
 "http://www.w3.org/Graphics/SVG/1.1/DTD/svg11.dtd">
<!-- Generated by graphviz version 2.38.0 (20140413.2041)
 -->
<!-- Title: NFCDynLib.h Pages: 1 -->
<svg width="283pt" height="140pt"
 viewBox="0.00 0.00 282.50 140.00" xmlns="http://www.w3.org/2000/svg" xmlns:xlink="http://www.w3.org/1999/xlink">
<g id="graph0" class="graph" transform="scale(1 1) rotate(0) translate(4 136)">
<title>NFCDynLib.h</title>
<polygon fill="white" stroke="none" points="-4,4 -4,-136 278.5,-136 278.5,4 -4,4"/>
<!-- Node9 -->
<g id="node1" class="node"><title>Node9</title>
<polygon fill="#bfbfbf" stroke="black" points="62.5,-112.5 62.5,-131.5 136.5,-131.5 136.5,-112.5 62.5,-112.5"/>
<text text-anchor="middle" x="99.5" y="-119.5" font-family="Helvetica,sans-Serif" font-size="10.00">NFCDynLib.h</text>
</g>
<!-- Node10 -->
<g id="node2" class="node"><title>Node10</title>
<g id="a_node2"><a xlink:href="_n_f_c_dyn_lib_8cpp.html" target="_top" xlink:title="NFCDynLib.cpp">
<polygon fill="white" stroke="black" points="0,-56.5 0,-75.5 85,-75.5 85,-56.5 0,-56.5"/>
<text text-anchor="middle" x="42.5" y="-63.5" font-family="Helvetica,sans-Serif" font-size="10.00">NFCDynLib.cpp</text>
</a>
</g>
</g>
<!-- Node9&#45;&gt;Node10 -->
<g id="edge1" class="edge"><title>Node9&#45;&gt;Node10</title>
<path fill="none" stroke="midnightblue" d="M82.8785,-105.253C72.766,-95.6731 60.2234,-83.7906 51.8247,-75.8339"/>
<polygon fill="midnightblue" stroke="midnightblue" points="80.6753,-107.987 90.342,-112.324 85.4895,-102.906 80.6753,-107.987"/>
</g>
<!-- Node11 -->
<g id="node3" class="node"><title>Node11</title>
<g id="a_node3"><a xlink:href="_n_f_c_plugin_manager_8h.html" target="_top" xlink:title="NFCPluginManager.h">
<polygon fill="white" stroke="black" points="103,-56.5 103,-75.5 212,-75.5 212,-56.5 103,-56.5"/>
<text text-anchor="middle" x="157.5" y="-63.5" font-family="Helvetica,sans-Serif" font-size="10.00">NFCPluginManager.h</text>
</a>
</g>
</g>
<!-- Node9&#45;&gt;Node11 -->
<g id="edge2" class="edge"><title>Node9&#45;&gt;Node11</title>
<path fill="none" stroke="midnightblue" d="M116.413,-105.253C126.703,-95.6731 139.466,-83.7906 148.012,-75.8339"/>
<polygon fill="midnightblue" stroke="midnightblue" points="113.753,-102.948 108.819,-112.324 118.523,-108.071 113.753,-102.948"/>
</g>
<!-- Node12 -->
<g id="node4" class="node"><title>Node12</title>
<g id="a_node4"><a xlink:href="_n_f_c_plugin_manager_8cpp.html" target="_top" xlink:title="NFCPluginManager.cpp">
<polygon fill="white" stroke="black" points="33,-0.5 33,-19.5 152,-19.5 152,-0.5 33,-0.5"/>
<text text-anchor="middle" x="92.5" y="-7.5" font-family="Helvetica,sans-Serif" font-size="10.00">NFCPluginManager.cpp</text>
</a>
</g>
</g>
<!-- Node11&#45;&gt;Node12 -->
<g id="edge3" class="edge"><title>Node11&#45;&gt;Node12</title>
<path fill="none" stroke="midnightblue" d="M139.227,-49.8197C127.582,-40.1452 112.901,-27.9481 103.133,-19.8339"/>
<polygon fill="midnightblue" stroke="midnightblue" points="137.128,-52.6259 147.057,-56.324 141.601,-47.2416 137.128,-52.6259"/>
</g>
<!-- Node13 -->
<g id="node5" class="node"><title>Node13</title>
<g id="a_node5"><a xlink:href="_n_f_plugin_loader_8cpp.html" target="_top" xlink:title="NFPluginLoader.cpp">
<polygon fill="white" stroke="black" points="170.5,-0.5 170.5,-19.5 274.5,-19.5 274.5,-0.5 170.5,-0.5"/>
<text text-anchor="middle" x="222.5" y="-7.5" font-family="Helvetica,sans-Serif" font-size="10.00">NFPluginLoader.cpp</text>
</a>
</g>
</g>
<!-- Node11&#45;&gt;Node13 -->
<g id="edge4" class="edge"><title>Node11&#45;&gt;Node13</title>
<path fill="none" stroke="midnightblue" d="M175.773,-49.8197C187.418,-40.1452 202.099,-27.9481 211.867,-19.8339"/>
<polygon fill="midnightblue" stroke="midnightblue" points="173.399,-47.2416 167.943,-56.324 177.872,-52.6259 173.399,-47.2416"/>
</g>
</g>
</svg>
