<?xml version="1.0" encoding="UTF-8" standalone="no"?>
<!DOCTYPE svg PUBLIC "-//W3C//DTD SVG 1.1//EN"
 "http://www.w3.org/Graphics/SVG/1.1/DTD/svg11.dtd">
<!-- Generated by graphviz version 2.38.0 (20140413.2041)
 -->
<!-- Title: NFCPluginManager.h Pages: 1 -->
<svg width="250pt" height="84pt"
 viewBox="0.00 0.00 249.50 84.00" xmlns="http://www.w3.org/2000/svg" xmlns:xlink="http://www.w3.org/1999/xlink">
<g id="graph0" class="graph" transform="scale(1 1) rotate(0) translate(4 80)">
<title>NFCPluginManager.h</title>
<polygon fill="white" stroke="none" points="-4,4 -4,-80 245.5,-80 245.5,4 -4,4"/>
<!-- Node36 -->
<g id="node1" class="node"><title>Node36</title>
<polygon fill="#bfbfbf" stroke="black" points="70,-56.5 70,-75.5 179,-75.5 179,-56.5 70,-56.5"/>
<text text-anchor="middle" x="124.5" y="-63.5" font-family="Helvetica,sans-Serif" font-size="10.00">NFCPluginManager.h</text>
</g>
<!-- Node37 -->
<g id="node2" class="node"><title>Node37</title>
<g id="a_node2"><a xlink:href="_n_f_c_plugin_manager_8cpp.html" target="_top" xlink:title="NFCPluginManager.cpp">
<polygon fill="white" stroke="black" points="0,-0.5 0,-19.5 119,-19.5 119,-0.5 0,-0.5"/>
<text text-anchor="middle" x="59.5" y="-7.5" font-family="Helvetica,sans-Serif" font-size="10.00">NFCPluginManager.cpp</text>
</a>
</g>
</g>
<!-- Node36&#45;&gt;Node37 -->
<g id="edge1" class="edge"><title>Node36&#45;&gt;Node37</title>
<path fill="none" stroke="midnightblue" d="M106.227,-49.8197C94.5822,-40.1452 79.9005,-27.9481 70.1334,-19.8339"/>
<polygon fill="midnightblue" stroke="midnightblue" points="104.128,-52.6259 114.057,-56.324 108.601,-47.2416 104.128,-52.6259"/>
</g>
<!-- Node38 -->
<g id="node3" class="node"><title>Node38</title>
<g id="a_node3"><a xlink:href="_n_f_plugin_loader_8cpp.html" target="_top" xlink:title="NFPluginLoader.cpp">
<polygon fill="white" stroke="black" points="137.5,-0.5 137.5,-19.5 241.5,-19.5 241.5,-0.5 137.5,-0.5"/>
<text text-anchor="middle" x="189.5" y="-7.5" font-family="Helvetica,sans-Serif" font-size="10.00">NFPluginLoader.cpp</text>
</a>
</g>
</g>
<!-- Node36&#45;&gt;Node38 -->
<g id="edge2" class="edge"><title>Node36&#45;&gt;Node38</title>
<path fill="none" stroke="midnightblue" d="M142.773,-49.8197C154.418,-40.1452 169.099,-27.9481 178.867,-19.8339"/>
<polygon fill="midnightblue" stroke="midnightblue" points="140.399,-47.2416 134.943,-56.324 144.872,-52.6259 140.399,-47.2416"/>
</g>
</g>
</svg>
