<?xml version="1.0" encoding="UTF-8" standalone="no"?>
<!DOCTYPE svg PUBLIC "-//W3C//DTD SVG 1.1//EN"
 "http://www.w3.org/Graphics/SVG/1.1/DTD/svg11.dtd">
<!-- Generated by graphviz version 2.38.0 (20140413.2041)
 -->
<!-- Title: NFCLogModule.h Pages: 1 -->
<svg width="220pt" height="84pt"
 viewBox="0.00 0.00 219.50 84.00" xmlns="http://www.w3.org/2000/svg" xmlns:xlink="http://www.w3.org/1999/xlink">
<g id="graph0" class="graph" transform="scale(1 1) rotate(0) translate(4 80)">
<title>NFCLogModule.h</title>
<polygon fill="white" stroke="none" points="-4,4 -4,-80 215.5,-80 215.5,4 -4,4"/>
<!-- Node34 -->
<g id="node1" class="node"><title>Node34</title>
<polygon fill="#bfbfbf" stroke="black" points="62,-56.5 62,-75.5 154,-75.5 154,-56.5 62,-56.5"/>
<text text-anchor="middle" x="108" y="-63.5" font-family="Helvetica,sans-Serif" font-size="10.00">NFCLogModule.h</text>
</g>
<!-- Node35 -->
<g id="node2" class="node"><title>Node35</title>
<g id="a_node2"><a xlink:href="_n_f_c_log_module_8cpp.html" target="_top" xlink:title="NFCLogModule.cpp">
<polygon fill="white" stroke="black" points="0,-0.5 0,-19.5 102,-19.5 102,-0.5 0,-0.5"/>
<text text-anchor="middle" x="51" y="-7.5" font-family="Helvetica,sans-Serif" font-size="10.00">NFCLogModule.cpp</text>
</a>
</g>
</g>
<!-- Node34&#45;&gt;Node35 -->
<g id="edge1" class="edge"><title>Node34&#45;&gt;Node35</title>
<path fill="none" stroke="midnightblue" d="M91.3785,-49.2533C81.266,-39.6731 68.7234,-27.7906 60.3247,-19.8339"/>
<polygon fill="midnightblue" stroke="midnightblue" points="89.1753,-51.9873 98.842,-56.324 93.9895,-46.9056 89.1753,-51.9873"/>
</g>
<!-- Node36 -->
<g id="node3" class="node"><title>Node36</title>
<g id="a_node3"><a xlink:href="_n_f_log_plugin_8cpp.html" target="_top" xlink:title="NFLogPlugin.cpp">
<polygon fill="white" stroke="black" points="120.5,-0.5 120.5,-19.5 211.5,-19.5 211.5,-0.5 120.5,-0.5"/>
<text text-anchor="middle" x="166" y="-7.5" font-family="Helvetica,sans-Serif" font-size="10.00">NFLogPlugin.cpp</text>
</a>
</g>
</g>
<!-- Node34&#45;&gt;Node36 -->
<g id="edge2" class="edge"><title>Node34&#45;&gt;Node36</title>
<path fill="none" stroke="midnightblue" d="M124.913,-49.2533C135.203,-39.6731 147.966,-27.7906 156.512,-19.8339"/>
<polygon fill="midnightblue" stroke="midnightblue" points="122.253,-46.9481 117.319,-56.324 127.023,-52.0714 122.253,-46.9481"/>
</g>
</g>
</svg>
