<?xml version="1.0" encoding="UTF-8" standalone="no"?>
<!DOCTYPE svg PUBLIC "-//W3C//DTD SVG 1.1//EN"
 "http://www.w3.org/Graphics/SVG/1.1/DTD/svg11.dtd">
<!-- Generated by graphviz version 2.38.0 (20140413.2041)
 -->
<!-- Title: NFILoginToMasterModule.h Pages: 1 -->
<svg width="659pt" height="140pt"
 viewBox="0.00 0.00 659.00 140.00" xmlns="http://www.w3.org/2000/svg" xmlns:xlink="http://www.w3.org/1999/xlink">
<g id="graph0" class="graph" transform="scale(1 1) rotate(0) translate(4 136)">
<title>NFILoginToMasterModule.h</title>
<polygon fill="white" stroke="none" points="-4,4 -4,-136 655,-136 655,4 -4,4"/>
<!-- Node59 -->
<g id="node1" class="node"><title>Node59</title>
<polygon fill="#bfbfbf" stroke="black" points="256.5,-112.5 256.5,-131.5 391.5,-131.5 391.5,-112.5 256.5,-112.5"/>
<text text-anchor="middle" x="324" y="-119.5" font-family="Helvetica,sans-Serif" font-size="10.00">NFILoginToMasterModule.h</text>
</g>
<!-- Node60 -->
<g id="node2" class="node"><title>Node60</title>
<g id="a_node2"><a xlink:href="_n_f_c_login_to_master_module_8h.html" target="_top" xlink:title="NFCLoginToMasterModule.h">
<polygon fill="white" stroke="black" points="170,-56.5 170,-75.5 310,-75.5 310,-56.5 170,-56.5"/>
<text text-anchor="middle" x="240" y="-63.5" font-family="Helvetica,sans-Serif" font-size="10.00">NFCLoginToMasterModule.h</text>
</a>
</g>
</g>
<!-- Node59&#45;&gt;Node60 -->
<g id="edge1" class="edge"><title>Node59&#45;&gt;Node60</title>
<path fill="none" stroke="midnightblue" d="M302.068,-106.901C286.665,-96.9986 266.554,-84.0705 253.463,-75.6545"/>
<polygon fill="midnightblue" stroke="midnightblue" points="300.199,-109.86 310.504,-112.324 303.985,-103.972 300.199,-109.86"/>
</g>
<!-- Node63 -->
<g id="node5" class="node"><title>Node63</title>
<g id="a_node5"><a xlink:href="_n_f_c_login_net___server_module_8h.html" target="_top" xlink:title="NFCLoginNet_ServerModule.h">
<polygon fill="white" stroke="black" points="335,-56.5 335,-75.5 481,-75.5 481,-56.5 335,-56.5"/>
<text text-anchor="middle" x="408" y="-63.5" font-family="Helvetica,sans-Serif" font-size="10.00">NFCLoginNet_ServerModule.h</text>
</a>
</g>
</g>
<!-- Node59&#45;&gt;Node63 -->
<g id="edge4" class="edge"><title>Node59&#45;&gt;Node63</title>
<path fill="none" stroke="midnightblue" d="M345.932,-106.901C361.335,-96.9986 381.446,-84.0705 394.537,-75.6545"/>
<polygon fill="midnightblue" stroke="midnightblue" points="344.015,-103.972 337.496,-112.324 347.801,-109.86 344.015,-103.972"/>
</g>
<!-- Node61 -->
<g id="node3" class="node"><title>Node61</title>
<g id="a_node3"><a xlink:href="_n_f_c_login_to_master_module_8cpp.html" target="_top" xlink:title="NFCLoginToMasterModule.cpp">
<polygon fill="white" stroke="black" points="0,-0.5 0,-19.5 150,-19.5 150,-0.5 0,-0.5"/>
<text text-anchor="middle" x="75" y="-7.5" font-family="Helvetica,sans-Serif" font-size="10.00">NFCLoginToMasterModule.cpp</text>
</a>
</g>
</g>
<!-- Node60&#45;&gt;Node61 -->
<g id="edge2" class="edge"><title>Node60&#45;&gt;Node61</title>
<path fill="none" stroke="midnightblue" d="M204.264,-53.3044C173.173,-43.1294 128.853,-28.6246 101.022,-19.5164"/>
<polygon fill="midnightblue" stroke="midnightblue" points="203.263,-56.6595 213.855,-56.4435 205.44,-50.0067 203.263,-56.6595"/>
</g>
<!-- Node62 -->
<g id="node4" class="node"><title>Node62</title>
<g id="a_node4"><a xlink:href="_n_f_login_net___client_plugin_8cpp.html" target="_top" xlink:title="NFLoginNet_ClientPlugin.cpp">
<polygon fill="white" stroke="black" points="168.5,-0.5 168.5,-19.5 311.5,-19.5 311.5,-0.5 168.5,-0.5"/>
<text text-anchor="middle" x="240" y="-7.5" font-family="Helvetica,sans-Serif" font-size="10.00">NFLoginNet_ClientPlugin.cpp</text>
</a>
</g>
</g>
<!-- Node60&#45;&gt;Node62 -->
<g id="edge3" class="edge"><title>Node60&#45;&gt;Node62</title>
<path fill="none" stroke="midnightblue" d="M240,-45.8045C240,-36.9102 240,-26.7798 240,-19.7511"/>
<polygon fill="midnightblue" stroke="midnightblue" points="236.5,-46.083 240,-56.083 243.5,-46.083 236.5,-46.083"/>
</g>
<!-- Node64 -->
<g id="node6" class="node"><title>Node64</title>
<g id="a_node6"><a xlink:href="_n_f_c_login_net___server_module_8cpp.html" target="_top" xlink:title="NFCLoginNet_ServerModule.cpp">
<polygon fill="white" stroke="black" points="329.5,-0.5 329.5,-19.5 486.5,-19.5 486.5,-0.5 329.5,-0.5"/>
<text text-anchor="middle" x="408" y="-7.5" font-family="Helvetica,sans-Serif" font-size="10.00">NFCLoginNet_ServerModule.cpp</text>
</a>
</g>
</g>
<!-- Node63&#45;&gt;Node64 -->
<g id="edge5" class="edge"><title>Node63&#45;&gt;Node64</title>
<path fill="none" stroke="midnightblue" d="M408,-45.8045C408,-36.9102 408,-26.7798 408,-19.7511"/>
<polygon fill="midnightblue" stroke="midnightblue" points="404.5,-46.083 408,-56.083 411.5,-46.083 404.5,-46.083"/>
</g>
<!-- Node65 -->
<g id="node7" class="node"><title>Node65</title>
<g id="a_node7"><a xlink:href="_n_f_login_net___server_plugin_8cpp.html" target="_top" xlink:title="NFLoginNet_ServerPlugin.cpp">
<polygon fill="white" stroke="black" points="505,-0.5 505,-19.5 651,-19.5 651,-0.5 505,-0.5"/>
<text text-anchor="middle" x="578" y="-7.5" font-family="Helvetica,sans-Serif" font-size="10.00">NFLoginNet_ServerPlugin.cpp</text>
</a>
</g>
</g>
<!-- Node63&#45;&gt;Node65 -->
<g id="edge6" class="edge"><title>Node63&#45;&gt;Node65</title>
<path fill="none" stroke="midnightblue" d="M444.819,-53.3044C476.852,-43.1294 522.515,-28.6246 551.189,-19.5164"/>
<polygon fill="midnightblue" stroke="midnightblue" points="443.408,-50.0803 434.937,-56.4435 445.527,-56.7518 443.408,-50.0803"/>
</g>
</g>
</svg>
