<?xml version="1.0" encoding="UTF-8" standalone="no"?>
<!DOCTYPE svg PUBLIC "-//W3C//DTD SVG 1.1//EN"
 "http://www.w3.org/Graphics/SVG/1.1/DTD/svg11.dtd">
<!-- Generated by graphviz version 2.38.0 (20140413.2041)
 -->
<!-- Title: NFILoginNet_ServerModule.h Pages: 1 -->
<svg width="1295pt" height="140pt"
 viewBox="0.00 0.00 1294.50 140.00" xmlns="http://www.w3.org/2000/svg" xmlns:xlink="http://www.w3.org/1999/xlink">
<g id="graph0" class="graph" transform="scale(1 1) rotate(0) translate(4 136)">
<title>NFILoginNet_ServerModule.h</title>
<polygon fill="white" stroke="none" points="-4,4 -4,-136 1290.5,-136 1290.5,4 -4,4"/>
<!-- Node55 -->
<g id="node1" class="node"><title>Node55</title>
<polygon fill="#bfbfbf" stroke="black" points="544.5,-112.5 544.5,-131.5 686.5,-131.5 686.5,-112.5 544.5,-112.5"/>
<text text-anchor="middle" x="615.5" y="-119.5" font-family="Helvetica,sans-Serif" font-size="10.00">NFILoginNet_ServerModule.h</text>
</g>
<!-- Node56 -->
<g id="node2" class="node"><title>Node56</title>
<g id="a_node2"><a xlink:href="_n_f_c_login_logic_module_8h.html" target="_top" xlink:title="NFCLoginLogicModule.h">
<polygon fill="white" stroke="black" points="151.5,-56.5 151.5,-75.5 273.5,-75.5 273.5,-56.5 151.5,-56.5"/>
<text text-anchor="middle" x="212.5" y="-63.5" font-family="Helvetica,sans-Serif" font-size="10.00">NFCLoginLogicModule.h</text>
</a>
</g>
</g>
<!-- Node55&#45;&gt;Node56 -->
<g id="edge1" class="edge"><title>Node55&#45;&gt;Node56</title>
<path fill="none" stroke="midnightblue" d="M541.545,-111.09C464.622,-100.783 345.588,-84.8331 273.747,-75.2068"/>
<polygon fill="midnightblue" stroke="midnightblue" points="541.267,-114.584 551.643,-112.444 542.197,-107.646 541.267,-114.584"/>
</g>
<!-- Node59 -->
<g id="node5" class="node"><title>Node59</title>
<g id="a_node5"><a xlink:href="_n_f_c_login_to_master_module_8h.html" target="_top" xlink:title="NFCLoginToMasterModule.h">
<polygon fill="white" stroke="black" points="461.5,-56.5 461.5,-75.5 601.5,-75.5 601.5,-56.5 461.5,-56.5"/>
<text text-anchor="middle" x="531.5" y="-63.5" font-family="Helvetica,sans-Serif" font-size="10.00">NFCLoginToMasterModule.h</text>
</a>
</g>
</g>
<!-- Node55&#45;&gt;Node59 -->
<g id="edge4" class="edge"><title>Node55&#45;&gt;Node59</title>
<path fill="none" stroke="midnightblue" d="M593.568,-106.901C578.165,-96.9986 558.054,-84.0705 544.963,-75.6545"/>
<polygon fill="midnightblue" stroke="midnightblue" points="591.699,-109.86 602.004,-112.324 595.485,-103.972 591.699,-109.86"/>
</g>
<!-- Node62 -->
<g id="node8" class="node"><title>Node62</title>
<g id="a_node8"><a xlink:href="_n_f_c_login_net___server_module_8h.html" target="_top" xlink:title="NFCLoginNet_ServerModule.h">
<polygon fill="white" stroke="black" points="626.5,-56.5 626.5,-75.5 772.5,-75.5 772.5,-56.5 626.5,-56.5"/>
<text text-anchor="middle" x="699.5" y="-63.5" font-family="Helvetica,sans-Serif" font-size="10.00">NFCLoginNet_ServerModule.h</text>
</a>
</g>
</g>
<!-- Node55&#45;&gt;Node62 -->
<g id="edge7" class="edge"><title>Node55&#45;&gt;Node62</title>
<path fill="none" stroke="midnightblue" d="M637.432,-106.901C652.835,-96.9986 672.946,-84.0705 686.037,-75.6545"/>
<polygon fill="midnightblue" stroke="midnightblue" points="635.515,-103.972 628.996,-112.324 639.301,-109.86 635.515,-103.972"/>
</g>
<!-- Node65 -->
<g id="node11" class="node"><title>Node65</title>
<g id="a_node11"><a xlink:href="_n_f_c_world_net___server_module_8h.html" target="_top" xlink:title="NFCWorldNet_ServerModule.h">
<polygon fill="white" stroke="black" points="966,-56.5 966,-75.5 1115,-75.5 1115,-56.5 966,-56.5"/>
<text text-anchor="middle" x="1040.5" y="-63.5" font-family="Helvetica,sans-Serif" font-size="10.00">NFCWorldNet_ServerModule.h</text>
</a>
</g>
</g>
<!-- Node55&#45;&gt;Node65 -->
<g id="edge10" class="edge"><title>Node55&#45;&gt;Node65</title>
<path fill="none" stroke="midnightblue" d="M692.89,-111.167C773.131,-100.972 897.288,-85.1963 973.473,-75.5164"/>
<polygon fill="midnightblue" stroke="midnightblue" points="692.322,-107.711 682.843,-112.444 693.204,-114.655 692.322,-107.711"/>
</g>
<!-- Node57 -->
<g id="node3" class="node"><title>Node57</title>
<g id="a_node3"><a xlink:href="_n_f_c_login_logic_module_8cpp.html" target="_top" xlink:title="NFCLoginLogicModule.cpp">
<polygon fill="white" stroke="black" points="0,-0.5 0,-19.5 133,-19.5 133,-0.5 0,-0.5"/>
<text text-anchor="middle" x="66.5" y="-7.5" font-family="Helvetica,sans-Serif" font-size="10.00">NFCLoginLogicModule.cpp</text>
</a>
</g>
</g>
<!-- Node56&#45;&gt;Node57 -->
<g id="edge2" class="edge"><title>Node56&#45;&gt;Node57</title>
<path fill="none" stroke="midnightblue" d="M179.801,-52.9058C152.352,-42.7536 113.832,-28.5063 89.5259,-19.5164"/>
<polygon fill="midnightblue" stroke="midnightblue" points="178.773,-56.2572 189.366,-56.4435 181.201,-49.6919 178.773,-56.2572"/>
</g>
<!-- Node58 -->
<g id="node4" class="node"><title>Node58</title>
<g id="a_node4"><a xlink:href="_n_f_login_logic_plugin_8cpp.html" target="_top" xlink:title="NFLoginLogicPlugin.cpp">
<polygon fill="white" stroke="black" points="151.5,-0.5 151.5,-19.5 273.5,-19.5 273.5,-0.5 151.5,-0.5"/>
<text text-anchor="middle" x="212.5" y="-7.5" font-family="Helvetica,sans-Serif" font-size="10.00">NFLoginLogicPlugin.cpp</text>
</a>
</g>
</g>
<!-- Node56&#45;&gt;Node58 -->
<g id="edge3" class="edge"><title>Node56&#45;&gt;Node58</title>
<path fill="none" stroke="midnightblue" d="M212.5,-45.8045C212.5,-36.9102 212.5,-26.7798 212.5,-19.7511"/>
<polygon fill="midnightblue" stroke="midnightblue" points="209,-46.083 212.5,-56.083 216,-46.083 209,-46.083"/>
</g>
<!-- Node60 -->
<g id="node6" class="node"><title>Node60</title>
<g id="a_node6"><a xlink:href="_n_f_c_login_to_master_module_8cpp.html" target="_top" xlink:title="NFCLoginToMasterModule.cpp">
<polygon fill="white" stroke="black" points="291.5,-0.5 291.5,-19.5 441.5,-19.5 441.5,-0.5 291.5,-0.5"/>
<text text-anchor="middle" x="366.5" y="-7.5" font-family="Helvetica,sans-Serif" font-size="10.00">NFCLoginToMasterModule.cpp</text>
</a>
</g>
</g>
<!-- Node59&#45;&gt;Node60 -->
<g id="edge5" class="edge"><title>Node59&#45;&gt;Node60</title>
<path fill="none" stroke="midnightblue" d="M495.764,-53.3044C464.673,-43.1294 420.353,-28.6246 392.522,-19.5164"/>
<polygon fill="midnightblue" stroke="midnightblue" points="494.763,-56.6595 505.355,-56.4435 496.94,-50.0067 494.763,-56.6595"/>
</g>
<!-- Node61 -->
<g id="node7" class="node"><title>Node61</title>
<g id="a_node7"><a xlink:href="_n_f_login_net___client_plugin_8cpp.html" target="_top" xlink:title="NFLoginNet_ClientPlugin.cpp">
<polygon fill="white" stroke="black" points="460,-0.5 460,-19.5 603,-19.5 603,-0.5 460,-0.5"/>
<text text-anchor="middle" x="531.5" y="-7.5" font-family="Helvetica,sans-Serif" font-size="10.00">NFLoginNet_ClientPlugin.cpp</text>
</a>
</g>
</g>
<!-- Node59&#45;&gt;Node61 -->
<g id="edge6" class="edge"><title>Node59&#45;&gt;Node61</title>
<path fill="none" stroke="midnightblue" d="M531.5,-45.8045C531.5,-36.9102 531.5,-26.7798 531.5,-19.7511"/>
<polygon fill="midnightblue" stroke="midnightblue" points="528,-46.083 531.5,-56.083 535,-46.083 528,-46.083"/>
</g>
<!-- Node63 -->
<g id="node9" class="node"><title>Node63</title>
<g id="a_node9"><a xlink:href="_n_f_c_login_net___server_module_8cpp.html" target="_top" xlink:title="NFCLoginNet_ServerModule.cpp">
<polygon fill="white" stroke="black" points="621,-0.5 621,-19.5 778,-19.5 778,-0.5 621,-0.5"/>
<text text-anchor="middle" x="699.5" y="-7.5" font-family="Helvetica,sans-Serif" font-size="10.00">NFCLoginNet_ServerModule.cpp</text>
</a>
</g>
</g>
<!-- Node62&#45;&gt;Node63 -->
<g id="edge8" class="edge"><title>Node62&#45;&gt;Node63</title>
<path fill="none" stroke="midnightblue" d="M699.5,-45.8045C699.5,-36.9102 699.5,-26.7798 699.5,-19.7511"/>
<polygon fill="midnightblue" stroke="midnightblue" points="696,-46.083 699.5,-56.083 703,-46.083 696,-46.083"/>
</g>
<!-- Node64 -->
<g id="node10" class="node"><title>Node64</title>
<g id="a_node10"><a xlink:href="_n_f_login_net___server_plugin_8cpp.html" target="_top" xlink:title="NFLoginNet_ServerPlugin.cpp">
<polygon fill="white" stroke="black" points="796.5,-0.5 796.5,-19.5 942.5,-19.5 942.5,-0.5 796.5,-0.5"/>
<text text-anchor="middle" x="869.5" y="-7.5" font-family="Helvetica,sans-Serif" font-size="10.00">NFLoginNet_ServerPlugin.cpp</text>
</a>
</g>
</g>
<!-- Node62&#45;&gt;Node64 -->
<g id="edge9" class="edge"><title>Node62&#45;&gt;Node64</title>
<path fill="none" stroke="midnightblue" d="M736.319,-53.3044C768.352,-43.1294 814.015,-28.6246 842.689,-19.5164"/>
<polygon fill="midnightblue" stroke="midnightblue" points="734.908,-50.0803 726.437,-56.4435 737.027,-56.7518 734.908,-50.0803"/>
</g>
<!-- Node66 -->
<g id="node12" class="node"><title>Node66</title>
<g id="a_node12"><a xlink:href="_n_f_c_world_net___server_module_8cpp.html" target="_top" xlink:title="NFCWorldNet_ServerModule.cpp">
<polygon fill="white" stroke="black" points="961,-0.5 961,-19.5 1120,-19.5 1120,-0.5 961,-0.5"/>
<text text-anchor="middle" x="1040.5" y="-7.5" font-family="Helvetica,sans-Serif" font-size="10.00">NFCWorldNet_ServerModule.cpp</text>
</a>
</g>
</g>
<!-- Node65&#45;&gt;Node66 -->
<g id="edge11" class="edge"><title>Node65&#45;&gt;Node66</title>
<path fill="none" stroke="midnightblue" d="M1040.5,-45.8045C1040.5,-36.9102 1040.5,-26.7798 1040.5,-19.7511"/>
<polygon fill="midnightblue" stroke="midnightblue" points="1037,-46.083 1040.5,-56.083 1044,-46.083 1037,-46.083"/>
</g>
<!-- Node67 -->
<g id="node13" class="node"><title>Node67</title>
<g id="a_node13"><a xlink:href="_n_f_world_net___server_plugin_8cpp.html" target="_top" xlink:title="NFWorldNet_ServerPlugin.cpp">
<polygon fill="white" stroke="black" points="1138.5,-0.5 1138.5,-19.5 1286.5,-19.5 1286.5,-0.5 1138.5,-0.5"/>
<text text-anchor="middle" x="1212.5" y="-7.5" font-family="Helvetica,sans-Serif" font-size="10.00">NFWorldNet_ServerPlugin.cpp</text>
</a>
</g>
</g>
<!-- Node65&#45;&gt;Node67 -->
<g id="edge12" class="edge"><title>Node65&#45;&gt;Node67</title>
<path fill="none" stroke="midnightblue" d="M1077.33,-53.4363C1109.76,-43.2551 1156.24,-28.664 1185.37,-19.5164"/>
<polygon fill="midnightblue" stroke="midnightblue" points="1076.25,-50.1088 1067.75,-56.4435 1078.34,-56.7874 1076.25,-50.1088"/>
</g>
</g>
</svg>
