<?xml version="1.0" encoding="UTF-8" standalone="no"?>
<!DOCTYPE svg PUBLIC "-//W3C//DTD SVG 1.1//EN"
 "http://www.w3.org/Graphics/SVG/1.1/DTD/svg11.dtd">
<!-- Generated by graphviz version 2.38.0 (20140413.2041)
 -->
<!-- Title: NFIPropertyManager.h Pages: 1 -->
<svg width="1465pt" height="386pt"
 viewBox="0.00 0.00 1464.78 386.00" xmlns="http://www.w3.org/2000/svg" xmlns:xlink="http://www.w3.org/1999/xlink">
<g id="graph0" class="graph" transform="scale(1 1) rotate(0) translate(4 382)">
<title>NFIPropertyManager.h</title>
<polygon fill="white" stroke="none" points="-4,4 -4,-382 1460.78,-382 1460.78,4 -4,4"/>
<!-- Node0 -->
<g id="node1" class="node"><title>Node0</title>
<polygon fill="#bfbfbf" stroke="black" points="9.77642,-358.5 9.77642,-377.5 123.776,-377.5 123.776,-358.5 9.77642,-358.5"/>
<text text-anchor="middle" x="66.7764" y="-365.5" font-family="Helvetica,sans-Serif" font-size="10.00">NFIPropertyManager.h</text>
</g>
<!-- Node1 -->
<g id="node2" class="node"><title>Node1</title>
<g id="a_node2"><a xlink:href="_n_f_map_8h.html" target="_top" xlink:title="NFMap.h">
<polygon fill="white" stroke="black" points="38.7764,-246.5 38.7764,-265.5 94.7764,-265.5 94.7764,-246.5 38.7764,-246.5"/>
<text text-anchor="middle" x="66.7764" y="-253.5" font-family="Helvetica,sans-Serif" font-size="10.00">NFMap.h</text>
</a>
</g>
</g>
<!-- Node0&#45;&gt;Node1 -->
<g id="edge1" class="edge"><title>Node0&#45;&gt;Node1</title>
<path fill="none" stroke="midnightblue" d="M66.7764,-358.368C66.7764,-340.617 66.7764,-299.666 66.7764,-275.597"/>
<polygon fill="midnightblue" stroke="midnightblue" points="70.2765,-275.591 66.7764,-265.591 63.2765,-275.591 70.2765,-275.591"/>
</g>
<!-- Node2 -->
<g id="node3" class="node"><title>Node2</title>
<polygon fill="white" stroke="#bfbfbf" points="39.2764,-129 39.2764,-148 74.2764,-148 74.2764,-129 39.2764,-129"/>
<text text-anchor="middle" x="56.7764" y="-136" font-family="Helvetica,sans-Serif" font-size="10.00">map</text>
</g>
<!-- Node0&#45;&gt;Node2 -->
<g id="edge55" class="edge"><title>Node0&#45;&gt;Node2</title>
<path fill="none" stroke="midnightblue" d="M62.4305,-358.374C54.09,-341.28 36.1046,-301.671 29.7764,-266 22.8741,-227.093 38.2164,-181.907 48.4848,-157.455"/>
<polygon fill="midnightblue" stroke="midnightblue" points="51.7993,-158.612 52.6215,-148.049 45.3917,-155.794 51.7993,-158.612"/>
</g>
<!-- Node14 -->
<g id="node15" class="node"><title>Node14</title>
<g id="a_node15"><a xlink:href="_n_f_i_property_8h.html" target="_top" xlink:title="NFIProperty.h">
<polygon fill="white" stroke="black" points="501.276,-302.5 501.276,-321.5 578.276,-321.5 578.276,-302.5 501.276,-302.5"/>
<text text-anchor="middle" x="539.776" y="-309.5" font-family="Helvetica,sans-Serif" font-size="10.00">NFIProperty.h</text>
</a>
</g>
</g>
<!-- Node0&#45;&gt;Node14 -->
<g id="edge20" class="edge"><title>Node0&#45;&gt;Node14</title>
<path fill="none" stroke="midnightblue" d="M123.831,-360.486C217.663,-349.774 402.917,-328.625 491.018,-318.567"/>
<polygon fill="midnightblue" stroke="midnightblue" points="491.475,-322.037 501.014,-317.425 490.681,-315.082 491.475,-322.037"/>
</g>
<!-- Node1&#45;&gt;Node2 -->
<g id="edge2" class="edge"><title>Node1&#45;&gt;Node2</title>
<path fill="none" stroke="midnightblue" d="M63.6887,-246.173C60.7246,-237.198 56.4573,-222.827 54.7764,-210 52.4916,-192.565 53.3997,-172.505 54.6373,-158.252"/>
<polygon fill="midnightblue" stroke="midnightblue" points="58.1272,-158.528 55.6459,-148.228 51.1623,-157.827 58.1272,-158.528"/>
</g>
<!-- Node3 -->
<g id="node4" class="node"><title>Node3</title>
<polygon fill="white" stroke="#bfbfbf" points="199.276,-129 199.276,-148 228.276,-148 228.276,-129 199.276,-129"/>
<text text-anchor="middle" x="213.776" y="-136" font-family="Helvetica,sans-Serif" font-size="10.00">list</text>
</g>
<!-- Node1&#45;&gt;Node3 -->
<g id="edge3" class="edge"><title>Node1&#45;&gt;Node3</title>
<path fill="none" stroke="midnightblue" d="M92.2895,-246.38C112.084,-238.856 139.478,-226.546 159.776,-210 178.183,-194.996 193.989,-172.524 203.66,-157.003"/>
<polygon fill="midnightblue" stroke="midnightblue" points="206.701,-158.74 208.858,-148.367 200.703,-155.13 206.701,-158.74"/>
</g>
<!-- Node4 -->
<g id="node5" class="node"><title>Node4</title>
<polygon fill="white" stroke="#bfbfbf" points="179.276,-0.5 179.276,-19.5 220.276,-19.5 220.276,-0.5 179.276,-0.5"/>
<text text-anchor="middle" x="199.776" y="-7.5" font-family="Helvetica,sans-Serif" font-size="10.00">string</text>
</g>
<!-- Node1&#45;&gt;Node4 -->
<g id="edge4" class="edge"><title>Node1&#45;&gt;Node4</title>
<path fill="none" stroke="midnightblue" d="M52.9955,-246.436C41.4109,-238.47 25.401,-225.515 16.7764,-210 -2.1338,-175.981 -3.77666,-160.463 6.77642,-123 16.2421,-89.3969 20.0849,-77.259 47.7764,-56 83.7254,-28.4017 136.322,-17.6889 169.273,-13.5578"/>
<polygon fill="midnightblue" stroke="midnightblue" points="169.689,-17.033 179.234,-12.4347 168.905,-10.0771 169.689,-17.033"/>
</g>
<!-- Node5 -->
<g id="node6" class="node"><title>Node5</title>
<polygon fill="white" stroke="#bfbfbf" points="229.776,-62 229.776,-81 283.776,-81 283.776,-62 229.776,-62"/>
<text text-anchor="middle" x="256.776" y="-69" font-family="Helvetica,sans-Serif" font-size="10.00">iostream</text>
</g>
<!-- Node1&#45;&gt;Node5 -->
<g id="edge5" class="edge"><title>Node1&#45;&gt;Node5</title>
<path fill="none" stroke="midnightblue" d="M58.6001,-246.309C38.2832,-223.658 -10.6585,-161.873 20.7764,-123 45.3196,-92.6493 159.141,-79.7278 219.29,-74.9419"/>
<polygon fill="midnightblue" stroke="midnightblue" points="219.807,-78.4129 229.513,-74.1659 219.277,-71.433 219.807,-78.4129"/>
</g>
<!-- Node6 -->
<g id="node7" class="node"><title>Node6</title>
<polygon fill="white" stroke="#bfbfbf" points="130.776,-129 130.776,-148 180.776,-148 180.776,-129 130.776,-129"/>
<text text-anchor="middle" x="155.776" y="-136" font-family="Helvetica,sans-Serif" font-size="10.00">typeinfo</text>
</g>
<!-- Node1&#45;&gt;Node6 -->
<g id="edge6" class="edge"><title>Node1&#45;&gt;Node6</title>
<path fill="none" stroke="midnightblue" d="M90.7325,-246.384C107.306,-239.186 128.509,-227.291 140.776,-210 151.508,-194.873 154.841,-173.629 155.746,-158.423"/>
<polygon fill="midnightblue" stroke="midnightblue" points="159.252,-158.271 156.046,-148.173 152.255,-158.066 159.252,-158.271"/>
</g>
<!-- Node7 -->
<g id="node8" class="node"><title>Node7</title>
<g id="a_node8"><a xlink:href="_n_f_map_ex_8h.html" target="_top" xlink:title="NFMapEx.h">
<polygon fill="white" stroke="black" points="63.7764,-190.5 63.7764,-209.5 131.776,-209.5 131.776,-190.5 63.7764,-190.5"/>
<text text-anchor="middle" x="97.7764" y="-197.5" font-family="Helvetica,sans-Serif" font-size="10.00">NFMapEx.h</text>
</a>
</g>
</g>
<!-- Node1&#45;&gt;Node7 -->
<g id="edge7" class="edge"><title>Node1&#45;&gt;Node7</title>
<path fill="none" stroke="midnightblue" d="M71.8954,-246.083C76.1839,-238.613 82.4346,-227.724 87.7187,-218.52"/>
<polygon fill="midnightblue" stroke="midnightblue" points="90.8093,-220.166 92.7527,-209.751 84.7385,-216.681 90.8093,-220.166"/>
</g>
<!-- Node7&#45;&gt;Node2 -->
<g id="edge8" class="edge"><title>Node7&#45;&gt;Node2</title>
<path fill="none" stroke="midnightblue" d="M91.9021,-190.475C85.813,-181.638 76.1316,-167.589 68.4735,-156.475"/>
<polygon fill="midnightblue" stroke="midnightblue" points="71.196,-154.258 62.6398,-148.009 65.4319,-158.229 71.196,-154.258"/>
</g>
<!-- Node7&#45;&gt;Node3 -->
<g id="edge9" class="edge"><title>Node7&#45;&gt;Node3</title>
<path fill="none" stroke="midnightblue" d="M116.702,-190.343C135.477,-181.615 164.955,-167.534 189.776,-154 190.193,-153.773 190.613,-153.542 191.035,-153.308"/>
<polygon fill="midnightblue" stroke="midnightblue" points="193.043,-156.19 199.938,-148.146 189.531,-150.134 193.043,-156.19"/>
</g>
<!-- Node7&#45;&gt;Node4 -->
<g id="edge10" class="edge"><title>Node7&#45;&gt;Node4</title>
<path fill="none" stroke="midnightblue" d="M69.404,-190.495C52.0241,-183.653 31.18,-172.13 20.7764,-154 13.9191,-142.05 14.1004,-135.052 20.7764,-123 52.5292,-65.6762 127.218,-33.7977 169.396,-19.7796"/>
<polygon fill="midnightblue" stroke="midnightblue" points="170.664,-23.0491 179.124,-16.6721 168.533,-16.381 170.664,-23.0491"/>
</g>
<!-- Node7&#45;&gt;Node5 -->
<g id="edge11" class="edge"><title>Node7&#45;&gt;Node5</title>
<path fill="none" stroke="midnightblue" d="M74.3224,-190.408C58.6153,-183.28 39.1579,-171.458 29.7764,-154 23.2546,-141.864 21.1565,-133.748 29.7764,-123 53.1392,-93.8686 161.267,-80.4693 219.458,-75.277"/>
<polygon fill="midnightblue" stroke="midnightblue" points="220.045,-78.7397 229.711,-74.4011 219.449,-71.7651 220.045,-78.7397"/>
</g>
<!-- Node7&#45;&gt;Node6 -->
<g id="edge12" class="edge"><title>Node7&#45;&gt;Node6</title>
<path fill="none" stroke="midnightblue" d="M106.086,-190.475C114.959,-181.373 129.222,-166.741 140.196,-155.483"/>
<polygon fill="midnightblue" stroke="midnightblue" points="143.008,-157.613 147.482,-148.009 137.995,-152.727 143.008,-157.613"/>
</g>
<!-- Node8 -->
<g id="node9" class="node"><title>Node8</title>
<polygon fill="white" stroke="#bfbfbf" points="284.776,-129 284.776,-148 336.776,-148 336.776,-129 284.776,-129"/>
<text text-anchor="middle" x="310.776" y="-136" font-family="Helvetica,sans-Serif" font-size="10.00">memory</text>
</g>
<!-- Node7&#45;&gt;Node8 -->
<g id="edge13" class="edge"><title>Node7&#45;&gt;Node8</title>
<path fill="none" stroke="midnightblue" d="M128.294,-190.475C167.001,-179.663 233.647,-161.046 274.792,-149.552"/>
<polygon fill="midnightblue" stroke="midnightblue" points="275.98,-152.854 284.67,-146.793 274.097,-146.112 275.98,-152.854"/>
</g>
<!-- Node9 -->
<g id="node10" class="node"><title>Node9</title>
<g id="a_node10"><a xlink:href="_n_f_platform_8h.html" target="_top" xlink:title="NFComm/NFPluginModule\l/NFPlatform.h">
<polygon fill="white" stroke="black" points="542.776,-56.5 542.776,-86.5 674.776,-86.5 674.776,-56.5 542.776,-56.5"/>
<text text-anchor="start" x="550.776" y="-74.5" font-family="Helvetica,sans-Serif" font-size="10.00">NFComm/NFPluginModule</text>
<text text-anchor="middle" x="608.776" y="-63.5" font-family="Helvetica,sans-Serif" font-size="10.00">/NFPlatform.h</text>
</a>
</g>
</g>
<!-- Node7&#45;&gt;Node9 -->
<g id="edge14" class="edge"><title>Node7&#45;&gt;Node9</title>
<path fill="none" stroke="midnightblue" d="M97.6661,-190.273C97.9822,-174.145 101.188,-139.79 121.776,-123 152.883,-97.6325 403.207,-82.2069 532.323,-75.8623"/>
<polygon fill="midnightblue" stroke="midnightblue" points="532.721,-79.3472 542.54,-75.3668 532.382,-72.3554 532.721,-79.3472"/>
</g>
<!-- Node9&#45;&gt;Node4 -->
<g id="edge19" class="edge"><title>Node9&#45;&gt;Node4</title>
<path fill="none" stroke="midnightblue" d="M542.46,-58.2515C537.833,-57.4673 533.237,-56.709 528.776,-56 419.434,-38.6214 288.992,-21.9922 230.643,-14.7683"/>
<polygon fill="midnightblue" stroke="midnightblue" points="230.962,-11.2811 220.608,-13.5308 230.105,-18.2285 230.962,-11.2811"/>
</g>
<!-- Node10 -->
<g id="node11" class="node"><title>Node10</title>
<polygon fill="white" stroke="#bfbfbf" points="745.276,-0.5 745.276,-19.5 794.276,-19.5 794.276,-0.5 745.276,-0.5"/>
<text text-anchor="middle" x="769.776" y="-7.5" font-family="Helvetica,sans-Serif" font-size="10.00">stdint.h</text>
</g>
<!-- Node9&#45;&gt;Node10 -->
<g id="edge15" class="edge"><title>Node9&#45;&gt;Node10</title>
<path fill="none" stroke="midnightblue" d="M646.931,-56.3993C674.306,-46.2826 710.814,-32.7905 736.902,-23.1493"/>
<polygon fill="midnightblue" stroke="midnightblue" points="738.183,-26.4073 746.349,-19.6578 735.756,-19.8414 738.183,-26.4073"/>
</g>
<!-- Node11 -->
<g id="node12" class="node"><title>Node11</title>
<polygon fill="white" stroke="#bfbfbf" points="466.776,-0.5 466.776,-19.5 510.776,-19.5 510.776,-0.5 466.776,-0.5"/>
<text text-anchor="middle" x="488.776" y="-7.5" font-family="Helvetica,sans-Serif" font-size="10.00">time.h</text>
</g>
<!-- Node9&#45;&gt;Node11 -->
<g id="edge16" class="edge"><title>Node9&#45;&gt;Node11</title>
<path fill="none" stroke="midnightblue" d="M580.338,-56.3993C560.654,-46.6391 534.633,-33.7373 515.363,-24.1826"/>
<polygon fill="midnightblue" stroke="midnightblue" points="516.751,-20.9644 506.237,-19.6578 513.642,-27.2358 516.751,-20.9644"/>
</g>
<!-- Node12 -->
<g id="node13" class="node"><title>Node12</title>
<polygon fill="white" stroke="#bfbfbf" points="528.776,-0.5 528.776,-19.5 580.776,-19.5 580.776,-0.5 528.776,-0.5"/>
<text text-anchor="middle" x="554.776" y="-7.5" font-family="Helvetica,sans-Serif" font-size="10.00">sstream</text>
</g>
<!-- Node9&#45;&gt;Node12 -->
<g id="edge17" class="edge"><title>Node9&#45;&gt;Node12</title>
<path fill="none" stroke="midnightblue" d="M595.979,-56.3993C588.051,-47.6641 577.84,-36.4126 569.566,-27.2962"/>
<polygon fill="midnightblue" stroke="midnightblue" points="571.946,-24.7106 562.634,-19.6578 566.763,-29.415 571.946,-24.7106"/>
</g>
<!-- Node13 -->
<g id="node14" class="node"><title>Node13</title>
<polygon fill="white" stroke="#bfbfbf" points="598.776,-0.5 598.776,-19.5 726.776,-19.5 726.776,-0.5 598.776,-0.5"/>
<text text-anchor="middle" x="662.776" y="-7.5" font-family="Helvetica,sans-Serif" font-size="10.00">common/lexical_cast.hpp</text>
</g>
<!-- Node9&#45;&gt;Node13 -->
<g id="edge18" class="edge"><title>Node9&#45;&gt;Node13</title>
<path fill="none" stroke="midnightblue" d="M621.574,-56.3993C629.501,-47.6641 639.713,-36.4126 647.987,-27.2962"/>
<polygon fill="midnightblue" stroke="midnightblue" points="650.79,-29.415 654.919,-19.6578 645.607,-24.7106 650.79,-29.415"/>
</g>
<!-- Node15 -->
<g id="node16" class="node"><title>Node15</title>
<g id="a_node16"><a xlink:href="_n_f_define_8h.html" target="_top" xlink:title="NFDefine.h">
<polygon fill="white" stroke="black" points="881.276,-246.5 881.276,-265.5 946.276,-265.5 946.276,-246.5 881.276,-246.5"/>
<text text-anchor="middle" x="913.776" y="-253.5" font-family="Helvetica,sans-Serif" font-size="10.00">NFDefine.h</text>
</a>
</g>
</g>
<!-- Node14&#45;&gt;Node15 -->
<g id="edge21" class="edge"><title>Node14&#45;&gt;Node15</title>
<path fill="none" stroke="midnightblue" d="M578.392,-305.424C648.746,-295.266 797.304,-273.817 870.774,-263.209"/>
<polygon fill="midnightblue" stroke="midnightblue" points="871.654,-266.618 881.051,-261.725 870.653,-259.69 871.654,-266.618"/>
</g>
<!-- Node17 -->
<g id="node18" class="node"><title>Node17</title>
<g id="a_node18"><a xlink:href="_a_f_data_list_8hpp.html" target="_top" xlink:title="AFDataList.hpp">
<polygon fill="white" stroke="black" points="737.776,-190.5 737.776,-209.5 821.776,-209.5 821.776,-190.5 737.776,-190.5"/>
<text text-anchor="middle" x="779.776" y="-197.5" font-family="Helvetica,sans-Serif" font-size="10.00">AFDataList.hpp</text>
</a>
</g>
</g>
<!-- Node14&#45;&gt;Node17 -->
<g id="edge48" class="edge"><title>Node14&#45;&gt;Node17</title>
<path fill="none" stroke="midnightblue" d="M558.609,-302.368C600.669,-283.091 702.423,-236.454 751.872,-213.789"/>
<polygon fill="midnightblue" stroke="midnightblue" points="753.399,-216.94 761.032,-209.591 750.483,-210.576 753.399,-216.94"/>
</g>
<!-- Node30 -->
<g id="node31" class="node"><title>Node30</title>
<g id="a_node31"><a xlink:href="_n_f_list_8h.html" target="_top" xlink:title="NFList.h">
<polygon fill="white" stroke="black" points="237.276,-190.5 237.276,-209.5 290.276,-209.5 290.276,-190.5 237.276,-190.5"/>
<text text-anchor="middle" x="263.776" y="-197.5" font-family="Helvetica,sans-Serif" font-size="10.00">NFList.h</text>
</a>
</g>
</g>
<!-- Node14&#45;&gt;Node30 -->
<g id="edge49" class="edge"><title>Node14&#45;&gt;Node30</title>
<path fill="none" stroke="midnightblue" d="M518.119,-302.368C469.447,-282.97 351.267,-235.87 294.807,-213.367"/>
<polygon fill="midnightblue" stroke="midnightblue" points="295.918,-210.042 285.333,-209.591 293.327,-216.545 295.918,-210.042"/>
</g>
<!-- Node16 -->
<g id="node17" class="node"><title>Node16</title>
<polygon fill="white" stroke="#bfbfbf" points="1398.78,-129 1398.78,-148 1456.78,-148 1456.78,-129 1398.78,-129"/>
<text text-anchor="middle" x="1427.78" y="-136" font-family="Helvetica,sans-Serif" font-size="10.00">functional</text>
</g>
<!-- Node15&#45;&gt;Node16 -->
<g id="edge22" class="edge"><title>Node15&#45;&gt;Node16</title>
<path fill="none" stroke="midnightblue" d="M946.348,-249.34C1023.3,-235.681 1222.09,-198.717 1384.78,-154 1387.79,-153.171 1390.91,-152.25 1394.02,-151.285"/>
<polygon fill="midnightblue" stroke="midnightblue" points="1395.38,-154.524 1403.82,-148.117 1393.23,-147.864 1395.38,-154.524"/>
</g>
<!-- Node15&#45;&gt;Node17 -->
<g id="edge23" class="edge"><title>Node15&#45;&gt;Node17</title>
<path fill="none" stroke="midnightblue" d="M892.544,-246.444C870.393,-237.517 835.458,-223.439 810.34,-213.317"/>
<polygon fill="midnightblue" stroke="midnightblue" points="811.493,-210.008 800.91,-209.516 808.877,-216.501 811.493,-210.008"/>
</g>
<!-- Node27 -->
<g id="node28" class="node"><title>Node27</title>
<g id="a_node28"><a xlink:href="_n_f_g_u_i_d_8h.html" target="_top" xlink:title="NFComm/NFPluginModule\l/NFGUID.h">
<polygon fill="white" stroke="black" points="1210.78,-123.5 1210.78,-153.5 1342.78,-153.5 1342.78,-123.5 1210.78,-123.5"/>
<text text-anchor="start" x="1218.78" y="-141.5" font-family="Helvetica,sans-Serif" font-size="10.00">NFComm/NFPluginModule</text>
<text text-anchor="middle" x="1276.78" y="-130.5" font-family="Helvetica,sans-Serif" font-size="10.00">/NFGUID.h</text>
</a>
</g>
</g>
<!-- Node15&#45;&gt;Node27 -->
<g id="edge47" class="edge"><title>Node15&#45;&gt;Node27</title>
<path fill="none" stroke="midnightblue" d="M940.764,-246.413C1000.33,-227.462 1143.98,-181.754 1222.79,-156.676"/>
<polygon fill="midnightblue" stroke="midnightblue" points="1224.07,-159.943 1232.54,-153.575 1221.95,-153.272 1224.07,-159.943"/>
</g>
<!-- Node17&#45;&gt;Node2 -->
<g id="edge31" class="edge"><title>Node17&#45;&gt;Node2</title>
<path fill="none" stroke="midnightblue" d="M737.588,-198.322C632.839,-196.161 352.665,-187.452 121.776,-154 109.336,-152.198 95.7391,-149.311 84.2115,-146.586"/>
<polygon fill="midnightblue" stroke="midnightblue" points="84.8442,-143.138 74.2992,-144.165 83.1831,-149.938 84.8442,-143.138"/>
</g>
<!-- Node17&#45;&gt;Node3 -->
<g id="edge29" class="edge"><title>Node17&#45;&gt;Node3</title>
<path fill="none" stroke="midnightblue" d="M737.712,-197.247C650.899,-193.189 445.776,-181.329 275.776,-154 263.37,-152.006 249.757,-148.923 238.455,-146.113"/>
<polygon fill="midnightblue" stroke="midnightblue" points="238.998,-142.639 228.442,-143.546 237.26,-149.42 238.998,-142.639"/>
</g>
<!-- Node17&#45;&gt;Node4 -->
<g id="edge24" class="edge"><title>Node17&#45;&gt;Node4</title>
<path fill="none" stroke="midnightblue" d="M737.358,-197.006C687.132,-193.355 601.842,-183.049 534.776,-154 513.487,-144.779 513.132,-134.133 492.776,-123 402.107,-73.411 284.856,-35.7966 230.256,-19.6531"/>
<polygon fill="midnightblue" stroke="midnightblue" points="231.085,-16.2488 220.504,-16.8019 229.12,-22.9675 231.085,-16.2488"/>
</g>
<!-- Node17&#45;&gt;Node5 -->
<g id="edge26" class="edge"><title>Node17&#45;&gt;Node5</title>
<path fill="none" stroke="midnightblue" d="M737.486,-198.194C681.36,-195.8 580.116,-186.824 500.776,-154 479.006,-144.993 479.138,-132.937 457.776,-123 403.642,-97.8185 335.235,-84.0642 293.804,-77.5031"/>
<polygon fill="midnightblue" stroke="midnightblue" points="294.291,-74.0369 283.877,-75.9874 293.234,-80.9567 294.291,-74.0369"/>
</g>
<!-- Node17&#45;&gt;Node6 -->
<g id="edge34" class="edge"><title>Node17&#45;&gt;Node6</title>
<path fill="none" stroke="midnightblue" d="M737.544,-197.568C620.532,-193.315 293.935,-179.447 189.776,-154 187.267,-153.387 184.707,-152.608 182.173,-151.731"/>
<polygon fill="midnightblue" stroke="midnightblue" points="183.285,-148.408 172.698,-148.003 180.722,-154.922 183.285,-148.408"/>
</g>
<!-- Node17&#45;&gt;Node8 -->
<g id="edge38" class="edge"><title>Node17&#45;&gt;Node8</title>
<path fill="none" stroke="midnightblue" d="M737.715,-195.376C665.216,-188.871 512.136,-174.006 383.776,-154 371.729,-152.122 358.646,-149.659 346.926,-147.297"/>
<polygon fill="midnightblue" stroke="midnightblue" points="347.538,-143.849 337.038,-145.264 346.129,-150.706 347.538,-143.849"/>
</g>
<!-- Node17&#45;&gt;Node9 -->
<g id="edge45" class="edge"><title>Node17&#45;&gt;Node9</title>
<path fill="none" stroke="midnightblue" d="M821.875,-197.168C916.861,-192.603 1141.33,-179.231 1163.78,-154 1172.93,-143.706 1173.07,-133.174 1163.78,-123 1132.14,-88.3538 829.819,-77.218 685.168,-73.8556"/>
<polygon fill="midnightblue" stroke="midnightblue" points="685.108,-70.3534 675.032,-73.6267 684.95,-77.3516 685.108,-70.3534"/>
</g>
<!-- Node17&#45;&gt;Node16 -->
<g id="edge36" class="edge"><title>Node17&#45;&gt;Node16</title>
<path fill="none" stroke="midnightblue" d="M822.079,-199.475C921.387,-199.809 1176.77,-196.109 1384.78,-154 1388.47,-153.253 1392.28,-152.279 1396.04,-151.189"/>
<polygon fill="midnightblue" stroke="midnightblue" points="1397.28,-154.469 1405.75,-148.109 1395.16,-147.796 1397.28,-154.469"/>
</g>
<!-- Node18 -->
<g id="node19" class="node"><title>Node18</title>
<polygon fill="white" stroke="#bfbfbf" points="844.776,-129 844.776,-148 890.776,-148 890.776,-129 844.776,-129"/>
<text text-anchor="middle" x="867.776" y="-136" font-family="Helvetica,sans-Serif" font-size="10.00">cstring</text>
</g>
<!-- Node17&#45;&gt;Node18 -->
<g id="edge25" class="edge"><title>Node17&#45;&gt;Node18</title>
<path fill="none" stroke="midnightblue" d="M792.385,-190.475C806.5,-180.931 829.608,-165.307 846.526,-153.868"/>
<polygon fill="midnightblue" stroke="midnightblue" points="848.868,-156.51 855.192,-148.009 844.947,-150.711 848.868,-156.51"/>
</g>
<!-- Node19 -->
<g id="node20" class="node"><title>Node19</title>
<polygon fill="white" stroke="#bfbfbf" points="1331.78,-62 1331.78,-81 1379.78,-81 1379.78,-62 1331.78,-62"/>
<text text-anchor="middle" x="1355.78" y="-69" font-family="Helvetica,sans-Serif" font-size="10.00">stdlib.h</text>
</g>
<!-- Node17&#45;&gt;Node19 -->
<g id="edge27" class="edge"><title>Node17&#45;&gt;Node19</title>
<path fill="none" stroke="midnightblue" d="M821.846,-198.822C947.73,-197.867 1315.04,-191.833 1351.78,-154 1367.71,-137.594 1365.14,-109.476 1361.07,-90.9373"/>
<polygon fill="midnightblue" stroke="midnightblue" points="1364.41,-89.8863 1358.55,-81.056 1357.63,-91.61 1364.41,-89.8863"/>
</g>
<!-- Node20 -->
<g id="node21" class="node"><title>Node20</title>
<polygon fill="white" stroke="#bfbfbf" points="909.276,-129 909.276,-148 956.276,-148 956.276,-129 909.276,-129"/>
<text text-anchor="middle" x="932.776" y="-136" font-family="Helvetica,sans-Serif" font-size="10.00">math.h</text>
</g>
<!-- Node17&#45;&gt;Node20 -->
<g id="edge28" class="edge"><title>Node17&#45;&gt;Node20</title>
<path fill="none" stroke="midnightblue" d="M803.834,-190.421C828.17,-181.64 866.801,-167.416 899.776,-154 901.189,-153.425 902.632,-152.828 904.087,-152.219"/>
<polygon fill="midnightblue" stroke="midnightblue" points="905.847,-155.273 913.658,-148.114 903.088,-148.839 905.847,-155.273"/>
</g>
<!-- Node21 -->
<g id="node22" class="node"><title>Node21</title>
<polygon fill="white" stroke="#bfbfbf" points="974.776,-129 974.776,-148 1016.78,-148 1016.78,-129 974.776,-129"/>
<text text-anchor="middle" x="995.776" y="-136" font-family="Helvetica,sans-Serif" font-size="10.00">vector</text>
</g>
<!-- Node17&#45;&gt;Node21 -->
<g id="edge30" class="edge"><title>Node17&#45;&gt;Node21</title>
<path fill="none" stroke="midnightblue" d="M821.889,-191.475C860.082,-184.027 917.607,-171.246 965.776,-154 967.206,-153.488 968.658,-152.929 970.112,-152.337"/>
<polygon fill="midnightblue" stroke="midnightblue" points="971.84,-155.399 979.542,-148.123 968.984,-149.008 971.84,-155.399"/>
</g>
<!-- Node22 -->
<g id="node23" class="node"><title>Node22</title>
<polygon fill="white" stroke="#bfbfbf" points="392.776,-129 392.776,-148 448.776,-148 448.776,-129 392.776,-129"/>
<text text-anchor="middle" x="420.776" y="-136" font-family="Helvetica,sans-Serif" font-size="10.00">algorithm</text>
</g>
<!-- Node17&#45;&gt;Node22 -->
<g id="edge32" class="edge"><title>Node17&#45;&gt;Node22</title>
<path fill="none" stroke="midnightblue" d="M737.756,-195.615C676.597,-190.109 559.772,-177.399 462.776,-154 459.552,-153.222 456.226,-152.296 452.923,-151.295"/>
<polygon fill="midnightblue" stroke="midnightblue" points="453.802,-147.9 443.21,-148.132 451.635,-154.556 453.802,-147.9"/>
</g>
<!-- Node23 -->
<g id="node24" class="node"><title>Node23</title>
<polygon fill="white" stroke="#bfbfbf" points="1034.78,-129 1034.78,-148 1086.78,-148 1086.78,-129 1034.78,-129"/>
<text text-anchor="middle" x="1060.78" y="-136" font-family="Helvetica,sans-Serif" font-size="10.00">assert.h</text>
</g>
<!-- Node17&#45;&gt;Node23 -->
<g id="edge33" class="edge"><title>Node17&#45;&gt;Node23</title>
<path fill="none" stroke="midnightblue" d="M822.197,-194.019C871.735,-187.568 955.816,-174.637 1025.78,-154 1028.07,-153.325 1030.41,-152.55 1032.74,-151.717"/>
<polygon fill="midnightblue" stroke="midnightblue" points="1034.09,-154.949 1042.15,-148.073 1031.56,-148.422 1034.09,-154.949"/>
</g>
<!-- Node24 -->
<g id="node25" class="node"><title>Node24</title>
<polygon fill="white" stroke="#bfbfbf" points="1104.78,-129 1104.78,-148 1154.78,-148 1154.78,-129 1104.78,-129"/>
<text text-anchor="middle" x="1129.78" y="-136" font-family="Helvetica,sans-Serif" font-size="10.00">iomanip</text>
</g>
<!-- Node17&#45;&gt;Node24 -->
<g id="edge35" class="edge"><title>Node17&#45;&gt;Node24</title>
<path fill="none" stroke="midnightblue" d="M821.901,-196.513C883.159,-192.112 999.972,-180.751 1095.78,-154 1098.07,-153.359 1100.42,-152.599 1102.75,-151.769"/>
<polygon fill="midnightblue" stroke="midnightblue" points="1104.08,-155.005 1112.09,-148.076 1101.51,-148.495 1104.08,-155.005"/>
</g>
<!-- Node25 -->
<g id="node26" class="node"><title>Node25</title>
<polygon fill="white" stroke="#bfbfbf" points="543.276,-129 543.276,-148 592.276,-148 592.276,-129 543.276,-129"/>
<text text-anchor="middle" x="567.776" y="-136" font-family="Helvetica,sans-Serif" font-size="10.00">fstream</text>
</g>
<!-- Node17&#45;&gt;Node25 -->
<g id="edge37" class="edge"><title>Node17&#45;&gt;Node25</title>
<path fill="none" stroke="midnightblue" d="M738.244,-190.422C701.829,-182.448 647.684,-169.487 601.776,-154 599.861,-153.354 597.902,-152.647 595.94,-151.905"/>
<polygon fill="midnightblue" stroke="midnightblue" points="596.863,-148.503 586.28,-148.008 594.244,-154.995 596.863,-148.503"/>
</g>
<!-- Node26 -->
<g id="node27" class="node"><title>Node26</title>
<polygon fill="white" stroke="#bfbfbf" points="610.776,-129 610.776,-148 714.776,-148 714.776,-129 610.776,-129"/>
<text text-anchor="middle" x="662.776" y="-136" font-family="Helvetica,sans-Serif" font-size="10.00">common/variant.hpp</text>
</g>
<!-- Node17&#45;&gt;Node26 -->
<g id="edge39" class="edge"><title>Node17&#45;&gt;Node26</title>
<path fill="none" stroke="midnightblue" d="M763.013,-190.475C743.552,-180.578 711.231,-164.142 688.566,-152.615"/>
<polygon fill="midnightblue" stroke="midnightblue" points="690.009,-149.422 679.509,-148.009 686.836,-155.662 690.009,-149.422"/>
</g>
<!-- Node17&#45;&gt;Node27 -->
<g id="edge40" class="edge"><title>Node17&#45;&gt;Node27</title>
<path fill="none" stroke="midnightblue" d="M821.926,-195.46C897.33,-188.903 1060.21,-173.72 1196.78,-154 1198.03,-153.818 1199.3,-153.632 1200.58,-153.44"/>
<polygon fill="midnightblue" stroke="midnightblue" points="1201.14,-156.895 1210.48,-151.894 1200.06,-149.979 1201.14,-156.895"/>
</g>
<!-- Node29 -->
<g id="node30" class="node"><title>Node29</title>
<g id="a_node30"><a xlink:href="_vector3_8hpp.html" target="_top" xlink:title="Math/Vector3.hpp">
<polygon fill="white" stroke="black" points="732.776,-129 732.776,-148 826.776,-148 826.776,-129 732.776,-129"/>
<text text-anchor="middle" x="779.776" y="-136" font-family="Helvetica,sans-Serif" font-size="10.00">Math/Vector3.hpp</text>
</a>
</g>
</g>
<!-- Node17&#45;&gt;Node29 -->
<g id="edge46" class="edge"><title>Node17&#45;&gt;Node29</title>
<path fill="none" stroke="midnightblue" d="M779.776,-190.475C779.776,-182.08 779.776,-168.981 779.776,-158.163"/>
<polygon fill="midnightblue" stroke="midnightblue" points="783.277,-158.009 779.776,-148.009 776.277,-158.009 783.277,-158.009"/>
</g>
<!-- Node27&#45;&gt;Node5 -->
<g id="edge42" class="edge"><title>Node27&#45;&gt;Node5</title>
<path fill="none" stroke="midnightblue" d="M1210.54,-128.19C1195.21,-126.26 1178.94,-124.393 1163.78,-123 1119.84,-118.963 459.333,-83.3782 294.052,-74.5001"/>
<polygon fill="midnightblue" stroke="midnightblue" points="294.066,-70.9959 283.893,-73.9545 293.691,-77.9858 294.066,-70.9959"/>
</g>
<!-- Node27&#45;&gt;Node9 -->
<g id="edge41" class="edge"><title>Node27&#45;&gt;Node9</title>
<path fill="none" stroke="midnightblue" d="M1210.5,-124.994C1205.86,-124.271 1201.25,-123.597 1196.78,-123 1014.08,-98.6527 797.813,-83.5874 685.357,-76.7812"/>
<polygon fill="midnightblue" stroke="midnightblue" points="685.324,-73.273 675.133,-76.1679 684.905,-80.2605 685.324,-73.273"/>
</g>
<!-- Node27&#45;&gt;Node19 -->
<g id="edge44" class="edge"><title>Node27&#45;&gt;Node19</title>
<path fill="none" stroke="midnightblue" d="M1293.92,-123.396C1306.72,-112.86 1324.2,-98.4771 1337.32,-87.6886"/>
<polygon fill="midnightblue" stroke="midnightblue" points="1339.71,-90.251 1345.21,-81.1945 1335.26,-84.8455 1339.71,-90.251"/>
</g>
<!-- Node28 -->
<g id="node29" class="node"><title>Node28</title>
<polygon fill="white" stroke="#bfbfbf" points="1253.78,-62 1253.78,-81 1299.78,-81 1299.78,-62 1253.78,-62"/>
<text text-anchor="middle" x="1276.78" y="-69" font-family="Helvetica,sans-Serif" font-size="10.00">stdio.h</text>
</g>
<!-- Node27&#45;&gt;Node28 -->
<g id="edge43" class="edge"><title>Node27&#45;&gt;Node28</title>
<path fill="none" stroke="midnightblue" d="M1276.78,-123.396C1276.78,-114.064 1276.78,-101.714 1276.78,-91.5173"/>
<polygon fill="midnightblue" stroke="midnightblue" points="1280.28,-91.1945 1276.78,-81.1945 1273.28,-91.1946 1280.28,-91.1945"/>
</g>
<!-- Node30&#45;&gt;Node2 -->
<g id="edge51" class="edge"><title>Node30&#45;&gt;Node2</title>
<path fill="none" stroke="midnightblue" d="M237.139,-191.343C197.745,-180.02 124.32,-158.915 84.3794,-147.434"/>
<polygon fill="midnightblue" stroke="midnightblue" points="85.1001,-144 74.5223,-144.601 83.1662,-150.727 85.1001,-144"/>
</g>
<!-- Node30&#45;&gt;Node3 -->
<g id="edge52" class="edge"><title>Node30&#45;&gt;Node3</title>
<path fill="none" stroke="midnightblue" d="M256.613,-190.475C249.038,-181.462 236.906,-167.025 227.484,-155.812"/>
<polygon fill="midnightblue" stroke="midnightblue" points="230.04,-153.413 220.927,-148.009 224.681,-157.917 230.04,-153.413"/>
</g>
<!-- Node30&#45;&gt;Node5 -->
<g id="edge50" class="edge"><title>Node30&#45;&gt;Node5</title>
<path fill="none" stroke="midnightblue" d="M263.295,-190.305C262.171,-169.994 259.352,-119.053 257.815,-91.2768"/>
<polygon fill="midnightblue" stroke="midnightblue" points="261.308,-91.047 257.261,-81.2557 254.319,-91.4338 261.308,-91.047"/>
</g>
<!-- Node30&#45;&gt;Node9 -->
<g id="edge54" class="edge"><title>Node30&#45;&gt;Node9</title>
<path fill="none" stroke="midnightblue" d="M281.596,-190.409C298.584,-181.947 324.636,-168.25 345.776,-154 363.85,-141.818 364.174,-132.53 383.776,-123 430.471,-100.297 487.6,-87.6366 532.608,-80.6696"/>
<polygon fill="midnightblue" stroke="midnightblue" points="533.225,-84.1165 542.602,-79.1847 532.196,-77.1925 533.225,-84.1165"/>
</g>
<!-- Node30&#45;&gt;Node22 -->
<g id="edge53" class="edge"><title>Node30&#45;&gt;Node22</title>
<path fill="none" stroke="midnightblue" d="M286.271,-190.475C313.085,-180.313 358.091,-163.256 388.586,-151.7"/>
<polygon fill="midnightblue" stroke="midnightblue" points="390.213,-154.826 398.324,-148.009 387.733,-148.28 390.213,-154.826"/>
</g>
</g>
</svg>
