<?xml version="1.0" encoding="UTF-8" standalone="no"?>
<!DOCTYPE svg PUBLIC "-//W3C//DTD SVG 1.1//EN"
 "http://www.w3.org/Graphics/SVG/1.1/DTD/svg11.dtd">
<!-- Generated by graphviz version 2.38.0 (20140413.2041)
 -->
<!-- Title: NFLockFreeQueue.h Pages: 1 -->
<svg width="291pt" height="140pt"
 viewBox="0.00 0.00 290.50 140.00" xmlns="http://www.w3.org/2000/svg" xmlns:xlink="http://www.w3.org/1999/xlink">
<g id="graph0" class="graph" transform="scale(1 1) rotate(0) translate(4 136)">
<title>NFLockFreeQueue.h</title>
<polygon fill="white" stroke="none" points="-4,4 -4,-136 286.5,-136 286.5,4 -4,4"/>
<!-- Node10 -->
<g id="node1" class="node"><title>Node10</title>
<polygon fill="#bfbfbf" stroke="black" points="90.5,-112.5 90.5,-131.5 197.5,-131.5 197.5,-112.5 90.5,-112.5"/>
<text text-anchor="middle" x="144" y="-119.5" font-family="Helvetica,sans-Serif" font-size="10.00">NFLockFreeQueue.h</text>
</g>
<!-- Node11 -->
<g id="node2" class="node"><title>Node11</title>
<g id="a_node2"><a xlink:href="_n_f_c_mul_net_8h.html" target="_top" xlink:title="NFCMulNet.h">
<polygon fill="white" stroke="black" points="106.5,-56.5 106.5,-75.5 181.5,-75.5 181.5,-56.5 106.5,-56.5"/>
<text text-anchor="middle" x="144" y="-63.5" font-family="Helvetica,sans-Serif" font-size="10.00">NFCMulNet.h</text>
</a>
</g>
</g>
<!-- Node10&#45;&gt;Node11 -->
<g id="edge1" class="edge"><title>Node10&#45;&gt;Node11</title>
<path fill="none" stroke="midnightblue" d="M144,-101.805C144,-92.9102 144,-82.7798 144,-75.7511"/>
<polygon fill="midnightblue" stroke="midnightblue" points="140.5,-102.083 144,-112.083 147.5,-102.083 140.5,-102.083"/>
</g>
<!-- Node12 -->
<g id="node3" class="node"><title>Node12</title>
<g id="a_node3"><a xlink:href="_n_f_c_mul_net_8cpp.html" target="_top" xlink:title="NFCMulNet.cpp">
<polygon fill="white" stroke="black" points="0,-0.5 0,-19.5 86,-19.5 86,-0.5 0,-0.5"/>
<text text-anchor="middle" x="43" y="-7.5" font-family="Helvetica,sans-Serif" font-size="10.00">NFCMulNet.cpp</text>
</a>
</g>
</g>
<!-- Node11&#45;&gt;Node12 -->
<g id="edge2" class="edge"><title>Node11&#45;&gt;Node12</title>
<path fill="none" stroke="midnightblue" d="M118.917,-51.5895C100.243,-41.6052 75.296,-28.2672 59.1871,-19.6545"/>
<polygon fill="midnightblue" stroke="midnightblue" points="117.304,-54.6955 127.773,-56.324 120.604,-48.5224 117.304,-54.6955"/>
</g>
<!-- Node13 -->
<g id="node4" class="node"><title>Node13</title>
<g id="a_node4"><a xlink:href="_test_client_8cpp.html" target="_top" xlink:title="TestClient.cpp">
<polygon fill="white" stroke="black" points="104.5,-0.5 104.5,-19.5 183.5,-19.5 183.5,-0.5 104.5,-0.5"/>
<text text-anchor="middle" x="144" y="-7.5" font-family="Helvetica,sans-Serif" font-size="10.00">TestClient.cpp</text>
</a>
</g>
</g>
<!-- Node11&#45;&gt;Node13 -->
<g id="edge3" class="edge"><title>Node11&#45;&gt;Node13</title>
<path fill="none" stroke="midnightblue" d="M144,-45.8045C144,-36.9102 144,-26.7798 144,-19.7511"/>
<polygon fill="midnightblue" stroke="midnightblue" points="140.5,-46.083 144,-56.083 147.5,-46.083 140.5,-46.083"/>
</g>
<!-- Node14 -->
<g id="node5" class="node"><title>Node14</title>
<g id="a_node5"><a xlink:href="_test_server_8cpp.html" target="_top" xlink:title="TestServer.cpp">
<polygon fill="white" stroke="black" points="201.5,-0.5 201.5,-19.5 282.5,-19.5 282.5,-0.5 201.5,-0.5"/>
<text text-anchor="middle" x="242" y="-7.5" font-family="Helvetica,sans-Serif" font-size="10.00">TestServer.cpp</text>
</a>
</g>
</g>
<!-- Node11&#45;&gt;Node14 -->
<g id="edge4" class="edge"><title>Node11&#45;&gt;Node14</title>
<path fill="none" stroke="midnightblue" d="M168.586,-51.4526C186.678,-41.4835 210.735,-28.2279 226.294,-19.6545"/>
<polygon fill="midnightblue" stroke="midnightblue" points="166.815,-48.4324 159.745,-56.324 170.193,-54.5633 166.815,-48.4324"/>
</g>
</g>
</svg>
