<?xml version="1.0" encoding="UTF-8" standalone="no"?>
<!DOCTYPE svg PUBLIC "-//W3C//DTD SVG 1.1//EN"
 "http://www.w3.org/Graphics/SVG/1.1/DTD/svg11.dtd">
<!-- Generated by graphviz version 2.38.0 (20140413.2041)
 -->
<!-- Title: NFCProxyLogicModule.h Pages: 1 -->
<svg width="292pt" height="84pt"
 viewBox="0.00 0.00 292.00 84.00" xmlns="http://www.w3.org/2000/svg" xmlns:xlink="http://www.w3.org/1999/xlink">
<g id="graph0" class="graph" transform="scale(1 1) rotate(0) translate(4 80)">
<title>NFCProxyLogicModule.h</title>
<polygon fill="white" stroke="none" points="-4,4 -4,-80 288,-80 288,4 -4,4"/>
<!-- Node46 -->
<g id="node1" class="node"><title>Node46</title>
<polygon fill="#bfbfbf" stroke="black" points="80,-56.5 80,-75.5 205,-75.5 205,-56.5 80,-56.5"/>
<text text-anchor="middle" x="142.5" y="-63.5" font-family="Helvetica,sans-Serif" font-size="10.00">NFCProxyLogicModule.h</text>
</g>
<!-- Node47 -->
<g id="node2" class="node"><title>Node47</title>
<g id="a_node2"><a xlink:href="_n_f_c_proxy_logic_module_8cpp.html" target="_top" xlink:title="NFCProxyLogicModule.cpp">
<polygon fill="white" stroke="black" points="0,-0.5 0,-19.5 135,-19.5 135,-0.5 0,-0.5"/>
<text text-anchor="middle" x="67.5" y="-7.5" font-family="Helvetica,sans-Serif" font-size="10.00">NFCProxyLogicModule.cpp</text>
</a>
</g>
</g>
<!-- Node46&#45;&gt;Node47 -->
<g id="edge1" class="edge"><title>Node46&#45;&gt;Node47</title>
<path fill="none" stroke="midnightblue" d="M122.195,-50.3804C108.639,-40.6204 91.2579,-28.1057 79.7693,-19.8339"/>
<polygon fill="midnightblue" stroke="midnightblue" points="120.29,-53.3213 130.45,-56.324 124.38,-47.6405 120.29,-53.3213"/>
</g>
<!-- Node48 -->
<g id="node3" class="node"><title>Node48</title>
<g id="a_node3"><a xlink:href="_n_f_c_proxy_logic_plugin_8cpp.html" target="_top" xlink:title="NFCProxyLogicPlugin.cpp">
<polygon fill="white" stroke="black" points="153,-0.5 153,-19.5 284,-19.5 284,-0.5 153,-0.5"/>
<text text-anchor="middle" x="218.5" y="-7.5" font-family="Helvetica,sans-Serif" font-size="10.00">NFCProxyLogicPlugin.cpp</text>
</a>
</g>
</g>
<!-- Node46&#45;&gt;Node48 -->
<g id="edge2" class="edge"><title>Node46&#45;&gt;Node48</title>
<path fill="none" stroke="midnightblue" d="M163.076,-50.3804C176.812,-40.6204 194.425,-28.1057 206.067,-19.8339"/>
<polygon fill="midnightblue" stroke="midnightblue" points="160.835,-47.6787 154.711,-56.324 164.89,-53.385 160.835,-47.6787"/>
</g>
</g>
</svg>
