<?xml version="1.0" encoding="UTF-8" standalone="no"?>
<!DOCTYPE svg PUBLIC "-//W3C//DTD SVG 1.1//EN"
 "http://www.w3.org/Graphics/SVG/1.1/DTD/svg11.dtd">
<!-- Generated by graphviz version 2.38.0 (20140413.2041)
 -->
<!-- Title: NFIComponentManager.h Pages: 1 -->
<!--zoomable 520 -->
<svg id="main" version="1.1" xmlns="http://www.w3.org/2000/svg" xmlns:xlink="http://www.w3.org/1999/xlink" xml:space="preserve" onload="init(evt)">
<style type="text/css"><![CDATA[
.edge:hover path { stroke: red; }
.edge:hover polygon { stroke: red; fill: red; }
]]></style>
<script type="text/javascript"><![CDATA[
var edges = document.getElementsByTagName('g');
if (edges && edges.length) {
  for (var i=0;i<edges.length;i++) {
    if (edges[i].id.substr(0,4)=='edge') {
      edges[i].setAttribute('class','edge');
    }
  }
}
]]></script>
        <defs>
                <circle id="rim" cx="0" cy="0" r="7"/>
                <circle id="rim2" cx="0" cy="0" r="3.5"/>
                <g id="zoomPlus">
                        <use xlink:href="#rim" fill="#404040">
                                <set attributeName="fill" to="#808080" begin="zoomplus.mouseover" end="zoomplus.mouseout"/>
                        </use>
                        <path d="M-4,0h8M0,-4v8" fill="none" stroke="white" stroke-width="1.5" pointer-events="none"/>
                </g>
                <g id="zoomMin">
                        <use xlink:href="#rim" fill="#404040">
                                <set attributeName="fill" to="#808080" begin="zoomminus.mouseover" end="zoomminus.mouseout"/>
                        </use>
                        <path d="M-4,0h8" fill="none" stroke="white" stroke-width="1.5" pointer-events="none"/>
                </g>
                <g id="dirArrow">
                        <path fill="none" stroke="white" stroke-width="1.5" d="M0,-3.0v7 M-2.5,-0.5L0,-3.0L2.5,-0.5"/>
                </g>
               <g id="resetDef">
                       <use xlink:href="#rim2" fill="#404040">
                               <set attributeName="fill" to="#808080" begin="reset.mouseover" end="reset.mouseout"/>
                       </use>
               </g>
        </defs>

<script type="text/javascript">
var viewWidth = 1809;
var viewHeight = 520;
var sectionId = 'dynsection-0';
</script>
<script xlink:href="svgpan.js"/>
<svg id="graph" class="graph">
<g id="viewport">
<title>NFIComponentManager.h</title>
<polygon fill="white" stroke="none" points="-4,4 -4,-516 1804.79,-516 1804.79,4 -4,4"/>
<!-- Node0 -->
<g id="node1" class="node"><title>Node0</title>
<polygon fill="#bfbfbf" stroke="black" points="68,-492.5 68,-511.5 195,-511.5 195,-492.5 68,-492.5"/>
<text text-anchor="middle" x="131.5" y="-499.5" font-family="Helvetica,sans-Serif" font-size="10.00">NFIComponentManager.h</text>
</g>
<!-- Node1 -->
<g id="node2" class="node"><title>Node1</title>
<polygon fill="white" stroke="#bfbfbf" points="122.5,-129 122.5,-148 174.5,-148 174.5,-129 122.5,-129"/>
<text text-anchor="middle" x="148.5" y="-136" font-family="Helvetica,sans-Serif" font-size="10.00">memory</text>
</g>
<!-- Node0&#45;&gt;Node1 -->
<g id="edge1" class="edge"><title>Node0&#45;&gt;Node1</title>
<path fill="none" stroke="midnightblue" d="M126.532,-492.337C116.232,-473.532 93.5,-427.297 93.5,-385.5 93.5,-385.5 93.5,-385.5 93.5,-255 93.5,-216.716 118.436,-177.622 134.728,-156.167"/>
<polygon fill="midnightblue" stroke="midnightblue" points="137.64,-158.125 141.082,-148.105 132.143,-153.792 137.64,-158.125"/>
</g>
<!-- Node2 -->
<g id="node3" class="node"><title>Node2</title>
<g id="a_node3"><a xlink:href="_n_f_map_8h.html" target="_top" xlink:title="NFMap.h">
<polygon fill="white" stroke="black" points="322.5,-246.5 322.5,-265.5 378.5,-265.5 378.5,-246.5 322.5,-246.5"/>
<text text-anchor="middle" x="350.5" y="-253.5" font-family="Helvetica,sans-Serif" font-size="10.00">NFMap.h</text>
</a>
</g>
</g>
<!-- Node0&#45;&gt;Node2 -->
<g id="edge2" class="edge"><title>Node0&#45;&gt;Node2</title>
<path fill="none" stroke="midnightblue" d="M139.294,-492.316C171.425,-456.517 293.894,-320.068 336.101,-273.042"/>
<polygon fill="midnightblue" stroke="midnightblue" points="338.724,-275.36 342.799,-265.58 333.515,-270.684 338.724,-275.36"/>
</g>
<!-- Node9 -->
<g id="node10" class="node"><title>Node9</title>
<g id="a_node10"><a xlink:href="_n_f_platform_8h.html" target="_top" xlink:title="NFComm/NFPluginModule\l/NFPlatform.h">
<polygon fill="white" stroke="black" points="89.5,-56.5 89.5,-86.5 221.5,-86.5 221.5,-56.5 89.5,-56.5"/>
<text text-anchor="start" x="97.5" y="-74.5" font-family="Helvetica,sans-Serif" font-size="10.00">NFComm/NFPluginModule</text>
<text text-anchor="middle" x="155.5" y="-63.5" font-family="Helvetica,sans-Serif" font-size="10.00">/NFPlatform.h</text>
</a>
</g>
</g>
<!-- Node0&#45;&gt;Node9 -->
<g id="edge66" class="edge"><title>Node0&#45;&gt;Node9</title>
<path fill="none" stroke="midnightblue" d="M112.586,-492.429C80.418,-476.406 18.5,-438.66 18.5,-385.5 18.5,-385.5 18.5,-385.5 18.5,-199 18.5,-147.492 71.4196,-111.146 111.479,-91.0111"/>
<polygon fill="midnightblue" stroke="midnightblue" points="113.103,-94.1133 120.575,-86.6015 110.049,-87.8144 113.103,-94.1133"/>
</g>
<!-- Node14 -->
<g id="node15" class="node"><title>Node14</title>
<g id="a_node15"><a xlink:href="_n_f_i_component_8h.html" target="_top" xlink:title="NFIComponent.h">
<polygon fill="white" stroke="black" points="370,-436.5 370,-455.5 459,-455.5 459,-436.5 370,-436.5"/>
<text text-anchor="middle" x="414.5" y="-443.5" font-family="Helvetica,sans-Serif" font-size="10.00">NFIComponent.h</text>
</a>
</g>
</g>
<!-- Node0&#45;&gt;Node14 -->
<g id="edge21" class="edge"><title>Node0&#45;&gt;Node14</title>
<path fill="none" stroke="midnightblue" d="M176.342,-492.444C226.125,-482.944 306.483,-467.611 359.892,-457.42"/>
<polygon fill="midnightblue" stroke="midnightblue" points="360.701,-460.829 369.868,-455.516 359.389,-453.953 360.701,-460.829"/>
</g>
<!-- Node18 -->
<g id="node19" class="node"><title>Node18</title>
<g id="a_node19"><a xlink:href="_n_f_i_module_8h.html" target="_top" xlink:title="NFComm/NFPluginModule\l/NFIModule.h">
<polygon fill="white" stroke="black" points="633.5,-369.5 633.5,-399.5 765.5,-399.5 765.5,-369.5 633.5,-369.5"/>
<text text-anchor="start" x="641.5" y="-387.5" font-family="Helvetica,sans-Serif" font-size="10.00">NFComm/NFPluginModule</text>
<text text-anchor="middle" x="699.5" y="-376.5" font-family="Helvetica,sans-Serif" font-size="10.00">/NFIModule.h</text>
</a>
</g>
</g>
<!-- Node0&#45;&gt;Node18 -->
<g id="edge67" class="edge"><title>Node0&#45;&gt;Node18</title>
<path fill="none" stroke="midnightblue" d="M195.197,-495.567C263.172,-489.051 373.758,-476.38 467.5,-456 531.826,-442.015 604.133,-418.809 650.668,-402.866"/>
<polygon fill="midnightblue" stroke="midnightblue" points="651.882,-406.15 660.194,-399.58 649.6,-399.532 651.882,-406.15"/>
</g>
<!-- Node3 -->
<g id="node4" class="node"><title>Node3</title>
<polygon fill="white" stroke="#bfbfbf" points="375,-129 375,-148 410,-148 410,-129 375,-129"/>
<text text-anchor="middle" x="392.5" y="-136" font-family="Helvetica,sans-Serif" font-size="10.00">map</text>
</g>
<!-- Node2&#45;&gt;Node3 -->
<g id="edge3" class="edge"><title>Node2&#45;&gt;Node3</title>
<path fill="none" stroke="midnightblue" d="M353.657,-246.319C360.467,-227.59 376.665,-183.046 385.848,-157.792"/>
<polygon fill="midnightblue" stroke="midnightblue" points="389.178,-158.876 389.307,-148.282 382.6,-156.484 389.178,-158.876"/>
</g>
<!-- Node4 -->
<g id="node5" class="node"><title>Node4</title>
<polygon fill="white" stroke="#bfbfbf" points="428,-129 428,-148 457,-148 457,-129 428,-129"/>
<text text-anchor="middle" x="442.5" y="-136" font-family="Helvetica,sans-Serif" font-size="10.00">list</text>
</g>
<!-- Node2&#45;&gt;Node4 -->
<g id="edge4" class="edge"><title>Node2&#45;&gt;Node4</title>
<path fill="none" stroke="midnightblue" d="M357.415,-246.319C372.666,-227.172 409.408,-181.044 429.253,-156.131"/>
<polygon fill="midnightblue" stroke="midnightblue" points="432.012,-158.285 435.505,-148.282 426.537,-153.923 432.012,-158.285"/>
</g>
<!-- Node5 -->
<g id="node6" class="node"><title>Node5</title>
<polygon fill="white" stroke="#bfbfbf" points="346,-0.5 346,-19.5 387,-19.5 387,-0.5 346,-0.5"/>
<text text-anchor="middle" x="366.5" y="-7.5" font-family="Helvetica,sans-Serif" font-size="10.00">string</text>
</g>
<!-- Node2&#45;&gt;Node5 -->
<g id="edge5" class="edge"><title>Node2&#45;&gt;Node5</title>
<path fill="none" stroke="midnightblue" d="M351.069,-246.316C353.373,-211.185 362.033,-79.1185 365.27,-29.763"/>
<polygon fill="midnightblue" stroke="midnightblue" points="368.775,-29.7877 365.937,-19.58 361.79,-29.3296 368.775,-29.7877"/>
</g>
<!-- Node6 -->
<g id="node7" class="node"><title>Node6</title>
<polygon fill="white" stroke="#bfbfbf" points="590.5,-62 590.5,-81 644.5,-81 644.5,-62 590.5,-62"/>
<text text-anchor="middle" x="617.5" y="-69" font-family="Helvetica,sans-Serif" font-size="10.00">iostream</text>
</g>
<!-- Node2&#45;&gt;Node6 -->
<g id="edge6" class="edge"><title>Node2&#45;&gt;Node6</title>
<path fill="none" stroke="midnightblue" d="M378.853,-253.68C434.141,-250.455 553.174,-240.101 578.5,-210 603.4,-180.405 568.053,-159.619 580.5,-123 584.838,-110.237 593.658,-97.9866 601.599,-88.7486"/>
<polygon fill="midnightblue" stroke="midnightblue" points="604.343,-90.9329 608.49,-81.1831 599.168,-86.2191 604.343,-90.9329"/>
</g>
<!-- Node7 -->
<g id="node8" class="node"><title>Node7</title>
<polygon fill="white" stroke="#bfbfbf" points="192.5,-129 192.5,-148 242.5,-148 242.5,-129 192.5,-129"/>
<text text-anchor="middle" x="217.5" y="-136" font-family="Helvetica,sans-Serif" font-size="10.00">typeinfo</text>
</g>
<!-- Node2&#45;&gt;Node7 -->
<g id="edge7" class="edge"><title>Node2&#45;&gt;Node7</title>
<path fill="none" stroke="midnightblue" d="M322.264,-253.005C293.447,-249.358 249.75,-239.058 226.5,-210 214.962,-195.58 213.839,-173.923 214.897,-158.42"/>
<polygon fill="midnightblue" stroke="midnightblue" points="218.385,-158.719 215.935,-148.411 211.422,-157.997 218.385,-158.719"/>
</g>
<!-- Node8 -->
<g id="node9" class="node"><title>Node8</title>
<g id="a_node9"><a xlink:href="_n_f_map_ex_8h.html" target="_top" xlink:title="NFMapEx.h">
<polygon fill="white" stroke="black" points="235.5,-190.5 235.5,-209.5 303.5,-209.5 303.5,-190.5 235.5,-190.5"/>
<text text-anchor="middle" x="269.5" y="-197.5" font-family="Helvetica,sans-Serif" font-size="10.00">NFMapEx.h</text>
</a>
</g>
</g>
<!-- Node2&#45;&gt;Node8 -->
<g id="edge8" class="edge"><title>Node2&#45;&gt;Node8</title>
<path fill="none" stroke="midnightblue" d="M337.486,-246.324C324.968,-237.979 305.818,-225.212 291.029,-215.352"/>
<polygon fill="midnightblue" stroke="midnightblue" points="292.744,-212.289 282.482,-209.655 288.861,-218.114 292.744,-212.289"/>
</g>
<!-- Node8&#45;&gt;Node1 -->
<g id="edge14" class="edge"><title>Node8&#45;&gt;Node1</title>
<path fill="none" stroke="midnightblue" d="M252.164,-190.475C231.947,-180.534 198.313,-163.995 174.858,-152.461"/>
<polygon fill="midnightblue" stroke="midnightblue" points="176.322,-149.281 165.804,-148.009 173.233,-155.563 176.322,-149.281"/>
</g>
<!-- Node8&#45;&gt;Node3 -->
<g id="edge9" class="edge"><title>Node8&#45;&gt;Node3</title>
<path fill="none" stroke="midnightblue" d="M287.123,-190.475C307.674,-180.534 341.864,-163.995 365.707,-152.461"/>
<polygon fill="midnightblue" stroke="midnightblue" points="367.432,-155.515 374.91,-148.009 364.384,-149.213 367.432,-155.515"/>
</g>
<!-- Node8&#45;&gt;Node4 -->
<g id="edge10" class="edge"><title>Node8&#45;&gt;Node4</title>
<path fill="none" stroke="midnightblue" d="M303.504,-191.313C334.279,-183.758 380.475,-170.907 418.5,-154 419.201,-153.688 419.906,-153.36 420.612,-153.019"/>
<polygon fill="midnightblue" stroke="midnightblue" points="422.525,-155.962 429.616,-148.091 419.164,-149.822 422.525,-155.962"/>
</g>
<!-- Node8&#45;&gt;Node5 -->
<g id="edge11" class="edge"><title>Node8&#45;&gt;Node5</title>
<path fill="none" stroke="midnightblue" d="M272.532,-190.281C280.651,-167.42 304.199,-104.19 332.5,-56 338.388,-45.9735 346.13,-35.5662 352.738,-27.2887"/>
<polygon fill="midnightblue" stroke="midnightblue" points="355.458,-29.492 359.089,-19.539 350.043,-25.0549 355.458,-29.492"/>
</g>
<!-- Node8&#45;&gt;Node6 -->
<g id="edge12" class="edge"><title>Node8&#45;&gt;Node6</title>
<path fill="none" stroke="midnightblue" d="M277.556,-190.341C292.982,-174.326 328.465,-140.152 365.5,-123 436.942,-89.9141 529.619,-78.4463 580.318,-74.514"/>
<polygon fill="midnightblue" stroke="midnightblue" points="580.753,-77.9918 590.476,-73.7842 580.251,-71.0098 580.753,-77.9918"/>
</g>
<!-- Node8&#45;&gt;Node7 -->
<g id="edge13" class="edge"><title>Node8&#45;&gt;Node7</title>
<path fill="none" stroke="midnightblue" d="M262.05,-190.475C254.172,-181.462 241.555,-167.025 231.756,-155.812"/>
<polygon fill="midnightblue" stroke="midnightblue" points="234.153,-153.236 224.937,-148.009 228.882,-157.842 234.153,-153.236"/>
</g>
<!-- Node8&#45;&gt;Node9 -->
<g id="edge15" class="edge"><title>Node8&#45;&gt;Node9</title>
<path fill="none" stroke="midnightblue" d="M235.202,-193.961C193.865,-187.106 128.116,-173.428 113.5,-154 99.3926,-135.248 115.461,-111.066 131.63,-93.9266"/>
<polygon fill="midnightblue" stroke="midnightblue" points="134.366,-96.1402 138.957,-86.5921 129.413,-91.1928 134.366,-96.1402"/>
</g>
<!-- Node9&#45;&gt;Node5 -->
<g id="edge20" class="edge"><title>Node9&#45;&gt;Node5</title>
<path fill="none" stroke="midnightblue" d="M207.067,-56.3981C241.057,-47.0377 286.791,-34.3197 335.978,-20.1107"/>
<polygon fill="midnightblue" stroke="midnightblue" points="337.227,-23.3929 345.859,-17.2496 335.28,-16.6691 337.227,-23.3929"/>
</g>
<!-- Node10 -->
<g id="node11" class="node"><title>Node10</title>
<polygon fill="white" stroke="#bfbfbf" points="0,-0.5 0,-19.5 49,-19.5 49,-0.5 0,-0.5"/>
<text text-anchor="middle" x="24.5" y="-7.5" font-family="Helvetica,sans-Serif" font-size="10.00">stdint.h</text>
</g>
<!-- Node9&#45;&gt;Node10 -->
<g id="edge16" class="edge"><title>Node9&#45;&gt;Node10</title>
<path fill="none" stroke="midnightblue" d="M124.455,-56.3993C102.77,-46.55 74.0409,-33.5014 52.9495,-23.9217"/>
<polygon fill="midnightblue" stroke="midnightblue" points="54.1139,-20.6065 43.5617,-19.6578 51.2191,-26.9799 54.1139,-20.6065"/>
</g>
<!-- Node11 -->
<g id="node12" class="node"><title>Node11</title>
<polygon fill="white" stroke="#bfbfbf" points="67.5,-0.5 67.5,-19.5 111.5,-19.5 111.5,-0.5 67.5,-0.5"/>
<text text-anchor="middle" x="89.5" y="-7.5" font-family="Helvetica,sans-Serif" font-size="10.00">time.h</text>
</g>
<!-- Node9&#45;&gt;Node11 -->
<g id="edge17" class="edge"><title>Node9&#45;&gt;Node11</title>
<path fill="none" stroke="midnightblue" d="M139.859,-56.3993C129.873,-47.3967 116.922,-35.7214 106.655,-26.4652"/>
<polygon fill="midnightblue" stroke="midnightblue" points="108.875,-23.7541 99.1036,-19.6578 104.187,-28.9533 108.875,-23.7541"/>
</g>
<!-- Node12 -->
<g id="node13" class="node"><title>Node12</title>
<polygon fill="white" stroke="#bfbfbf" points="129.5,-0.5 129.5,-19.5 181.5,-19.5 181.5,-0.5 129.5,-0.5"/>
<text text-anchor="middle" x="155.5" y="-7.5" font-family="Helvetica,sans-Serif" font-size="10.00">sstream</text>
</g>
<!-- Node9&#45;&gt;Node12 -->
<g id="edge18" class="edge"><title>Node9&#45;&gt;Node12</title>
<path fill="none" stroke="midnightblue" d="M155.5,-56.3993C155.5,-48.4664 155.5,-38.458 155.5,-29.8583"/>
<polygon fill="midnightblue" stroke="midnightblue" points="159,-29.6577 155.5,-19.6578 152,-29.6578 159,-29.6577"/>
</g>
<!-- Node13 -->
<g id="node14" class="node"><title>Node13</title>
<polygon fill="white" stroke="#bfbfbf" points="199.5,-0.5 199.5,-19.5 327.5,-19.5 327.5,-0.5 199.5,-0.5"/>
<text text-anchor="middle" x="263.5" y="-7.5" font-family="Helvetica,sans-Serif" font-size="10.00">common/lexical_cast.hpp</text>
</g>
<!-- Node9&#45;&gt;Node13 -->
<g id="edge19" class="edge"><title>Node9&#45;&gt;Node13</title>
<path fill="none" stroke="midnightblue" d="M181.094,-56.3993C198.568,-46.7728 221.588,-34.0902 238.856,-24.5772"/>
<polygon fill="midnightblue" stroke="midnightblue" points="240.715,-27.5488 247.785,-19.6578 237.337,-21.4177 240.715,-27.5488"/>
</g>
<!-- Node14&#45;&gt;Node9 -->
<g id="edge22" class="edge"><title>Node14&#45;&gt;Node9</title>
<path fill="none" stroke="midnightblue" d="M398.423,-436.416C344.166,-406.4 167.69,-299.986 104.5,-154 99.027,-141.356 99.1961,-135.716 104.5,-123 109.286,-111.526 118.088,-101.325 127.049,-93.1473"/>
<polygon fill="midnightblue" stroke="midnightblue" points="129.515,-95.6444 134.867,-86.5009 124.981,-90.3111 129.515,-95.6444"/>
</g>
<!-- Node15 -->
<g id="node16" class="node"><title>Node15</title>
<g id="a_node16"><a xlink:href="_n_f_g_u_i_d_8h.html" target="_top" xlink:title="NFComm/NFPluginModule\l/NFGUID.h">
<polygon fill="white" stroke="black" points="739.5,-123.5 739.5,-153.5 871.5,-153.5 871.5,-123.5 739.5,-123.5"/>
<text text-anchor="start" x="747.5" y="-141.5" font-family="Helvetica,sans-Serif" font-size="10.00">NFComm/NFPluginModule</text>
<text text-anchor="middle" x="805.5" y="-130.5" font-family="Helvetica,sans-Serif" font-size="10.00">/NFGUID.h</text>
</a>
</g>
</g>
<!-- Node14&#45;&gt;Node15 -->
<g id="edge23" class="edge"><title>Node14&#45;&gt;Node15</title>
<path fill="none" stroke="midnightblue" d="M425.78,-436.186C478.588,-394.926 702.045,-220.332 779.185,-160.061"/>
<polygon fill="midnightblue" stroke="midnightblue" points="781.708,-162.531 787.434,-153.616 777.399,-157.015 781.708,-162.531"/>
</g>
<!-- Node14&#45;&gt;Node18 -->
<g id="edge28" class="edge"><title>Node14&#45;&gt;Node18</title>
<path fill="none" stroke="midnightblue" d="M455.334,-436.475C499.093,-427.339 569.54,-412.632 623.545,-401.357"/>
<polygon fill="midnightblue" stroke="midnightblue" points="624.353,-404.764 633.427,-399.294 622.923,-397.912 624.353,-404.764"/>
</g>
<!-- Node15&#45;&gt;Node6 -->
<g id="edge25" class="edge"><title>Node15&#45;&gt;Node6</title>
<path fill="none" stroke="midnightblue" d="M764.707,-123.396C730.99,-111.739 683.656,-95.3731 651.849,-84.3761"/>
<polygon fill="midnightblue" stroke="midnightblue" points="652.7,-80.9668 642.105,-81.007 650.412,-87.5826 652.7,-80.9668"/>
</g>
<!-- Node15&#45;&gt;Node9 -->
<g id="edge24" class="edge"><title>Node15&#45;&gt;Node9</title>
<path fill="none" stroke="midnightblue" d="M739.219,-125.007C734.584,-124.281 729.976,-123.603 725.5,-123 549.523,-99.3065 341.423,-84.0811 231.837,-77.0489"/>
<polygon fill="midnightblue" stroke="midnightblue" points="231.746,-73.5361 221.544,-76.3939 231.301,-80.522 231.746,-73.5361"/>
</g>
<!-- Node16 -->
<g id="node17" class="node"><title>Node16</title>
<polygon fill="white" stroke="#bfbfbf" points="782.5,-62 782.5,-81 828.5,-81 828.5,-62 782.5,-62"/>
<text text-anchor="middle" x="805.5" y="-69" font-family="Helvetica,sans-Serif" font-size="10.00">stdio.h</text>
</g>
<!-- Node15&#45;&gt;Node16 -->
<g id="edge26" class="edge"><title>Node15&#45;&gt;Node16</title>
<path fill="none" stroke="midnightblue" d="M805.5,-123.396C805.5,-114.064 805.5,-101.714 805.5,-91.5173"/>
<polygon fill="midnightblue" stroke="midnightblue" points="809,-91.1945 805.5,-81.1945 802,-91.1946 809,-91.1945"/>
</g>
<!-- Node17 -->
<g id="node18" class="node"><title>Node17</title>
<polygon fill="white" stroke="#bfbfbf" points="1188.5,-62 1188.5,-81 1236.5,-81 1236.5,-62 1188.5,-62"/>
<text text-anchor="middle" x="1212.5" y="-69" font-family="Helvetica,sans-Serif" font-size="10.00">stdlib.h</text>
</g>
<!-- Node15&#45;&gt;Node17 -->
<g id="edge27" class="edge"><title>Node15&#45;&gt;Node17</title>
<path fill="none" stroke="midnightblue" d="M871.797,-126.912C959.46,-112.912 1110.71,-88.7571 1178.22,-77.9742"/>
<polygon fill="midnightblue" stroke="midnightblue" points="1179,-81.3953 1188.32,-76.362 1177.89,-74.4829 1179,-81.3953"/>
</g>
<!-- Node18&#45;&gt;Node2 -->
<g id="edge30" class="edge"><title>Node18&#45;&gt;Node2</title>
<path fill="none" stroke="midnightblue" d="M647.248,-369.478C613.61,-360.061 569.117,-346.875 530.5,-333 475.496,-313.237 412.994,-285.649 378.003,-269.722"/>
<polygon fill="midnightblue" stroke="midnightblue" points="379.442,-266.532 368.892,-265.555 376.531,-272.898 379.442,-266.532"/>
</g>
<!-- Node18&#45;&gt;Node5 -->
<g id="edge29" class="edge"><title>Node18&#45;&gt;Node5</title>
<path fill="none" stroke="midnightblue" d="M765.639,-382.275C991.666,-377.224 1719.5,-353.469 1719.5,-257 1719.5,-257 1719.5,-257 1719.5,-137.5 1719.5,-97.3982 2040.37,-141.138 1405.5,-56 1203.21,-28.8718 547.82,-14.5617 397.447,-11.5883"/>
<polygon fill="midnightblue" stroke="midnightblue" points="397.188,-8.08263 387.121,-11.3863 397.051,-15.0813 397.188,-8.08263"/>
</g>
<!-- Node19 -->
<g id="node20" class="node"><title>Node19</title>
<g id="a_node20"><a xlink:href="_n_f_list_8h.html" target="_top" xlink:title="NFComm/NFCore/NFList.h">
<polygon fill="white" stroke="black" points="435.5,-190.5 435.5,-209.5 569.5,-209.5 569.5,-190.5 435.5,-190.5"/>
<text text-anchor="middle" x="502.5" y="-197.5" font-family="Helvetica,sans-Serif" font-size="10.00">NFComm/NFCore/NFList.h</text>
</a>
</g>
</g>
<!-- Node18&#45;&gt;Node19 -->
<g id="edge31" class="edge"><title>Node18&#45;&gt;Node19</title>
<path fill="none" stroke="midnightblue" d="M675.516,-369.351C660.27,-359.885 640.47,-346.69 624.5,-333 580.864,-295.594 536.867,-243.687 515.616,-217.506"/>
<polygon fill="midnightblue" stroke="midnightblue" points="518.309,-215.27 509.314,-209.672 512.854,-219.658 518.309,-215.27"/>
</g>
<!-- Node21 -->
<g id="node22" class="node"><title>Node21</title>
<g id="a_node22"><a xlink:href="_n_f_define_8h.html" target="_top" xlink:title="NFComm/NFCore/NFDefine.h">
<polygon fill="white" stroke="black" points="920,-246.5 920,-265.5 1065,-265.5 1065,-246.5 920,-246.5"/>
<text text-anchor="middle" x="992.5" y="-253.5" font-family="Helvetica,sans-Serif" font-size="10.00">NFComm/NFCore/NFDefine.h</text>
</a>
</g>
</g>
<!-- Node18&#45;&gt;Node21 -->
<g id="edge37" class="edge"><title>Node18&#45;&gt;Node21</title>
<path fill="none" stroke="midnightblue" d="M765.729,-379.78C837.957,-374.323 947.205,-361.51 976.5,-333 991.64,-318.266 994.241,-293.099 993.98,-275.789"/>
<polygon fill="midnightblue" stroke="midnightblue" points="997.473,-275.558 993.499,-265.737 990.481,-275.893 997.473,-275.558"/>
</g>
<!-- Node23 -->
<g id="node24" class="node"><title>Node23</title>
<g id="a_node24"><a xlink:href="_a_f_data_list_8hpp.html" target="_top" xlink:title="AFDataList.hpp">
<polygon fill="white" stroke="black" points="938.5,-190.5 938.5,-209.5 1022.5,-209.5 1022.5,-190.5 938.5,-190.5"/>
<text text-anchor="middle" x="980.5" y="-197.5" font-family="Helvetica,sans-Serif" font-size="10.00">AFDataList.hpp</text>
</a>
</g>
</g>
<!-- Node18&#45;&gt;Node23 -->
<g id="edge60" class="edge"><title>Node18&#45;&gt;Node23</title>
<path fill="none" stroke="midnightblue" d="M718.972,-369.301C732.638,-359.272 751.293,-345.454 767.5,-333 785.057,-319.509 788.403,-314.759 806.5,-302 845.003,-274.853 855.715,-269.58 896.5,-246 915.657,-234.925 937.725,-223.139 954.434,-214.408"/>
<polygon fill="midnightblue" stroke="midnightblue" points="956.331,-217.366 963.59,-209.649 953.102,-211.155 956.331,-217.366"/>
</g>
<!-- Node32 -->
<g id="node33" class="node"><title>Node32</title>
<g id="a_node33"><a xlink:href="_n_f_i_record_8h.html" target="_top" xlink:title="NFComm/NFCore/NFIRecord.h">
<polygon fill="white" stroke="black" points="816,-308 816,-327 967,-327 967,-308 816,-308"/>
<text text-anchor="middle" x="891.5" y="-315" font-family="Helvetica,sans-Serif" font-size="10.00">NFComm/NFCore/NFIRecord.h</text>
</a>
</g>
</g>
<!-- Node18&#45;&gt;Node32 -->
<g id="edge61" class="edge"><title>Node18&#45;&gt;Node32</title>
<path fill="none" stroke="midnightblue" d="M741.161,-369.396C775.744,-357.688 824.355,-341.231 856.841,-330.234"/>
<polygon fill="midnightblue" stroke="midnightblue" points="858.022,-333.529 866.372,-327.007 855.777,-326.899 858.022,-333.529"/>
</g>
<!-- Node33 -->
<g id="node34" class="node"><title>Node33</title>
<g id="a_node34"><a xlink:href="_n_f_event_define_8h.html" target="_top" xlink:title="NFComm/NFEventDefine\l/NFEventDefine.h">
<polygon fill="white" stroke="black" points="634,-302.5 634,-332.5 759,-332.5 759,-302.5 634,-302.5"/>
<text text-anchor="start" x="642" y="-320.5" font-family="Helvetica,sans-Serif" font-size="10.00">NFComm/NFEventDefine</text>
<text text-anchor="middle" x="696.5" y="-309.5" font-family="Helvetica,sans-Serif" font-size="10.00">/NFEventDefine.h</text>
</a>
</g>
</g>
<!-- Node18&#45;&gt;Node33 -->
<g id="edge64" class="edge"><title>Node18&#45;&gt;Node33</title>
<path fill="none" stroke="midnightblue" d="M698.849,-369.396C698.491,-361.645 698.037,-351.812 697.624,-342.86"/>
<polygon fill="midnightblue" stroke="midnightblue" points="701.107,-342.404 697.15,-332.577 694.115,-342.727 701.107,-342.404"/>
</g>
<!-- Node19&#45;&gt;Node3 -->
<g id="edge33" class="edge"><title>Node19&#45;&gt;Node3</title>
<path fill="none" stroke="midnightblue" d="M486.353,-190.454C469.408,-181.461 442.017,-166.856 418.5,-154 417.961,-153.706 417.417,-153.407 416.868,-153.106"/>
<polygon fill="midnightblue" stroke="midnightblue" points="418.319,-149.909 407.874,-148.131 414.93,-156.034 418.319,-149.909"/>
</g>
<!-- Node19&#45;&gt;Node4 -->
<g id="edge34" class="edge"><title>Node19&#45;&gt;Node4</title>
<path fill="none" stroke="midnightblue" d="M493.903,-190.475C484.636,-181.285 469.683,-166.456 458.288,-155.156"/>
<polygon fill="midnightblue" stroke="midnightblue" points="460.646,-152.565 451.081,-148.009 455.717,-157.536 460.646,-152.565"/>
</g>
<!-- Node19&#45;&gt;Node6 -->
<g id="edge32" class="edge"><title>Node19&#45;&gt;Node6</title>
<path fill="none" stroke="midnightblue" d="M506.223,-190.267C512.902,-175.295 528.057,-144.284 547.5,-123 560.765,-108.479 578.828,-95.573 593.283,-86.4435"/>
<polygon fill="midnightblue" stroke="midnightblue" points="595.466,-89.2113 602.174,-81.0103 591.816,-83.2383 595.466,-89.2113"/>
</g>
<!-- Node19&#45;&gt;Node9 -->
<g id="edge36" class="edge"><title>Node19&#45;&gt;Node9</title>
<path fill="none" stroke="midnightblue" d="M500.957,-190.278C497.616,-174.159 488.106,-139.818 465.5,-123 429.418,-96.1574 311.138,-82.9403 231.562,-76.934"/>
<polygon fill="midnightblue" stroke="midnightblue" points="231.802,-73.4423 221.573,-76.2024 231.291,-80.4236 231.802,-73.4423"/>
</g>
<!-- Node20 -->
<g id="node21" class="node"><title>Node20</title>
<polygon fill="white" stroke="#bfbfbf" points="589.5,-129 589.5,-148 645.5,-148 645.5,-129 589.5,-129"/>
<text text-anchor="middle" x="617.5" y="-136" font-family="Helvetica,sans-Serif" font-size="10.00">algorithm</text>
</g>
<!-- Node19&#45;&gt;Node20 -->
<g id="edge35" class="edge"><title>Node19&#45;&gt;Node20</title>
<path fill="none" stroke="midnightblue" d="M518.977,-190.475C538.105,-180.578 569.873,-164.142 592.152,-152.615"/>
<polygon fill="midnightblue" stroke="midnightblue" points="593.781,-155.713 601.054,-148.009 590.564,-149.496 593.781,-155.713"/>
</g>
<!-- Node21&#45;&gt;Node15 -->
<g id="edge59" class="edge"><title>Node21&#45;&gt;Node15</title>
<path fill="none" stroke="midnightblue" d="M978.445,-246.319C948.532,-227.843 877.95,-184.249 836.796,-158.83"/>
<polygon fill="midnightblue" stroke="midnightblue" points="838.587,-155.822 828.24,-153.545 834.909,-161.778 838.587,-155.822"/>
</g>
<!-- Node22 -->
<g id="node23" class="node"><title>Node22</title>
<polygon fill="white" stroke="#bfbfbf" points="1633.5,-129 1633.5,-148 1691.5,-148 1691.5,-129 1633.5,-129"/>
<text text-anchor="middle" x="1662.5" y="-136" font-family="Helvetica,sans-Serif" font-size="10.00">functional</text>
</g>
<!-- Node21&#45;&gt;Node22 -->
<g id="edge38" class="edge"><title>Node21&#45;&gt;Node22</title>
<path fill="none" stroke="midnightblue" d="M1065.22,-247.25C1182.87,-233.828 1421.76,-202.909 1619.5,-154 1622.89,-153.161 1626.4,-152.178 1629.88,-151.125"/>
<polygon fill="midnightblue" stroke="midnightblue" points="1631.05,-154.426 1639.5,-148.038 1628.91,-147.761 1631.05,-154.426"/>
</g>
<!-- Node21&#45;&gt;Node23 -->
<g id="edge39" class="edge"><title>Node21&#45;&gt;Node23</title>
<path fill="none" stroke="midnightblue" d="M990.518,-246.083C988.928,-238.927 986.641,-228.635 984.654,-219.691"/>
<polygon fill="midnightblue" stroke="midnightblue" points="988.031,-218.754 982.445,-209.751 981.197,-220.272 988.031,-218.754"/>
</g>
<!-- Node23&#45;&gt;Node1 -->
<g id="edge54" class="edge"><title>Node23&#45;&gt;Node1</title>
<path fill="none" stroke="midnightblue" d="M938.398,-198.482C795.414,-196.431 329.248,-187.294 183.5,-154 180.827,-153.389 178.096,-152.593 175.398,-151.688"/>
<polygon fill="midnightblue" stroke="midnightblue" points="176.516,-148.368 165.925,-148.069 174.018,-154.907 176.516,-148.368"/>
</g>
<!-- Node23&#45;&gt;Node3 -->
<g id="edge47" class="edge"><title>Node23&#45;&gt;Node3</title>
<path fill="none" stroke="midnightblue" d="M938.093,-197.939C824.551,-194.726 515.686,-183.459 418.5,-154 417.078,-153.569 415.647,-153.052 414.228,-152.473"/>
<polygon fill="midnightblue" stroke="midnightblue" points="415.753,-149.323 405.237,-148.03 412.651,-155.598 415.753,-149.323"/>
</g>
<!-- Node23&#45;&gt;Node4 -->
<g id="edge45" class="edge"><title>Node23&#45;&gt;Node4</title>
<path fill="none" stroke="midnightblue" d="M938.284,-194.331C831.257,-182.495 551.808,-151.589 467.156,-142.227"/>
<polygon fill="midnightblue" stroke="midnightblue" points="467.502,-138.744 457.178,-141.123 466.733,-145.701 467.502,-138.744"/>
</g>
<!-- Node23&#45;&gt;Node5 -->
<g id="edge40" class="edge"><title>Node23&#45;&gt;Node5</title>
<path fill="none" stroke="midnightblue" d="M1022.91,-197.302C1154.33,-191.837 1547.07,-173.899 1565.5,-154 1574.86,-143.891 1574.19,-133.694 1565.5,-123 1489.53,-29.4731 578.015,-13.5666 397.464,-11.3278"/>
<polygon fill="midnightblue" stroke="midnightblue" points="397.368,-7.82651 387.327,-11.2072 397.284,-14.826 397.368,-7.82651"/>
</g>
<!-- Node23&#45;&gt;Node6 -->
<g id="edge42" class="edge"><title>Node23&#45;&gt;Node6</title>
<path fill="none" stroke="midnightblue" d="M967.997,-190.238C955.366,-181.314 935.363,-166.981 918.5,-154 901.229,-140.704 900.248,-132.225 880.5,-123 805.425,-87.9308 707.414,-77.2149 654.789,-73.9406"/>
<polygon fill="midnightblue" stroke="midnightblue" points="654.762,-70.4336 644.581,-73.3643 654.368,-77.4225 654.762,-70.4336"/>
</g>
<!-- Node23&#45;&gt;Node7 -->
<g id="edge50" class="edge"><title>Node23&#45;&gt;Node7</title>
<path fill="none" stroke="midnightblue" d="M938.343,-196.275C838.672,-189.752 580.7,-172.412 365.5,-154 326.842,-150.693 282.569,-146.271 252.595,-143.184"/>
<polygon fill="midnightblue" stroke="midnightblue" points="252.929,-139.7 242.622,-142.151 252.209,-146.663 252.929,-139.7"/>
</g>
<!-- Node23&#45;&gt;Node9 -->
<g id="edge57" class="edge"><title>Node23&#45;&gt;Node9</title>
<path fill="none" stroke="midnightblue" d="M938.303,-194.144C888.098,-187.742 802.071,-174.789 730.5,-154 695.468,-143.824 689.898,-131.816 654.5,-123 507.814,-86.4691 330.595,-76.2607 231.713,-73.4737"/>
<polygon fill="midnightblue" stroke="midnightblue" points="231.603,-69.9697 221.514,-73.2049 231.419,-76.9673 231.603,-69.9697"/>
</g>
<!-- Node23&#45;&gt;Node15 -->
<g id="edge56" class="edge"><title>Node23&#45;&gt;Node15</title>
<path fill="none" stroke="midnightblue" d="M955.427,-190.475C929.732,-181.739 889.051,-167.907 856.544,-156.855"/>
<polygon fill="midnightblue" stroke="midnightblue" points="857.338,-153.428 846.744,-153.523 855.085,-160.056 857.338,-153.428"/>
</g>
<!-- Node23&#45;&gt;Node17 -->
<g id="edge43" class="edge"><title>Node23&#45;&gt;Node17</title>
<path fill="none" stroke="midnightblue" d="M1022.8,-198.876C1148.47,-198.071 1513.01,-192.417 1548.5,-154 1557.85,-143.88 1557.49,-133.441 1548.5,-123 1509.81,-78.0631 1324.67,-72.5612 1246.96,-72.2699"/>
<polygon fill="midnightblue" stroke="midnightblue" points="1246.73,-68.7698 1236.73,-72.2598 1246.73,-75.7698 1246.73,-68.7698"/>
</g>
<!-- Node23&#45;&gt;Node20 -->
<g id="edge48" class="edge"><title>Node23&#45;&gt;Node20</title>
<path fill="none" stroke="midnightblue" d="M938.261,-192.575C882.908,-184.089 782.838,-168.517 697.5,-154 683.885,-151.684 668.991,-149.02 655.784,-146.613"/>
<polygon fill="midnightblue" stroke="midnightblue" points="656.079,-143.108 645.612,-144.749 654.817,-149.994 656.079,-143.108"/>
</g>
<!-- Node23&#45;&gt;Node22 -->
<g id="edge52" class="edge"><title>Node23&#45;&gt;Node22</title>
<path fill="none" stroke="midnightblue" d="M1022.86,-199.716C1126.04,-200.663 1398.14,-198.358 1619.5,-154 1623.19,-153.26 1627.01,-152.29 1630.77,-151.203"/>
<polygon fill="midnightblue" stroke="midnightblue" points="1632,-154.484 1640.48,-148.126 1629.89,-147.811 1632,-154.484"/>
</g>
<!-- Node24 -->
<g id="node25" class="node"><title>Node24</title>
<polygon fill="white" stroke="#bfbfbf" points="1039.5,-129 1039.5,-148 1085.5,-148 1085.5,-129 1039.5,-129"/>
<text text-anchor="middle" x="1062.5" y="-136" font-family="Helvetica,sans-Serif" font-size="10.00">cstring</text>
</g>
<!-- Node23&#45;&gt;Node24 -->
<g id="edge41" class="edge"><title>Node23&#45;&gt;Node24</title>
<path fill="none" stroke="midnightblue" d="M992.249,-190.475C1005.28,-181.02 1026.54,-165.596 1042.26,-154.187"/>
<polygon fill="midnightblue" stroke="midnightblue" points="1044.73,-156.715 1050.77,-148.009 1040.62,-151.049 1044.73,-156.715"/>
</g>
<!-- Node25 -->
<g id="node26" class="node"><title>Node25</title>
<polygon fill="white" stroke="#bfbfbf" points="1104,-129 1104,-148 1151,-148 1151,-129 1104,-129"/>
<text text-anchor="middle" x="1127.5" y="-136" font-family="Helvetica,sans-Serif" font-size="10.00">math.h</text>
</g>
<!-- Node23&#45;&gt;Node25 -->
<g id="edge44" class="edge"><title>Node23&#45;&gt;Node25</title>
<path fill="none" stroke="midnightblue" d="M1002.88,-190.454C1025.94,-181.582 1062.88,-167.182 1094.5,-154 1095.91,-153.413 1097.35,-152.806 1098.8,-152.189"/>
<polygon fill="midnightblue" stroke="midnightblue" points="1100.57,-155.238 1108.36,-148.058 1097.79,-148.812 1100.57,-155.238"/>
</g>
<!-- Node26 -->
<g id="node27" class="node"><title>Node26</title>
<polygon fill="white" stroke="#bfbfbf" points="1169.5,-129 1169.5,-148 1211.5,-148 1211.5,-129 1169.5,-129"/>
<text text-anchor="middle" x="1190.5" y="-136" font-family="Helvetica,sans-Serif" font-size="10.00">vector</text>
</g>
<!-- Node23&#45;&gt;Node26 -->
<g id="edge46" class="edge"><title>Node23&#45;&gt;Node26</title>
<path fill="none" stroke="midnightblue" d="M1022.69,-191.012C1059.64,-183.416 1114.47,-170.679 1160.5,-154 1161.93,-153.483 1163.38,-152.919 1164.83,-152.324"/>
<polygon fill="midnightblue" stroke="midnightblue" points="1166.56,-155.383 1174.26,-148.099 1163.7,-148.995 1166.56,-155.383"/>
</g>
<!-- Node27 -->
<g id="node28" class="node"><title>Node27</title>
<polygon fill="white" stroke="#bfbfbf" points="1229.5,-129 1229.5,-148 1281.5,-148 1281.5,-129 1229.5,-129"/>
<text text-anchor="middle" x="1255.5" y="-136" font-family="Helvetica,sans-Serif" font-size="10.00">assert.h</text>
</g>
<!-- Node23&#45;&gt;Node27 -->
<g id="edge49" class="edge"><title>Node23&#45;&gt;Node27</title>
<path fill="none" stroke="midnightblue" d="M1022.75,-193.782C1071.18,-187.181 1152.64,-174.18 1220.5,-154 1222.79,-153.32 1225.13,-152.541 1227.46,-151.706"/>
<polygon fill="midnightblue" stroke="midnightblue" points="1228.81,-154.937 1236.87,-148.057 1226.28,-148.411 1228.81,-154.937"/>
</g>
<!-- Node28 -->
<g id="node29" class="node"><title>Node28</title>
<polygon fill="white" stroke="#bfbfbf" points="1299.5,-129 1299.5,-148 1349.5,-148 1349.5,-129 1299.5,-129"/>
<text text-anchor="middle" x="1324.5" y="-136" font-family="Helvetica,sans-Serif" font-size="10.00">iomanip</text>
</g>
<!-- Node23&#45;&gt;Node28 -->
<g id="edge51" class="edge"><title>Node23&#45;&gt;Node28</title>
<path fill="none" stroke="midnightblue" d="M1022.58,-196.356C1082.88,-191.793 1196.91,-180.269 1290.5,-154 1292.79,-153.356 1295.14,-152.594 1297.47,-151.762"/>
<polygon fill="midnightblue" stroke="midnightblue" points="1298.8,-154.998 1306.82,-148.066 1296.23,-148.488 1298.8,-154.998"/>
</g>
<!-- Node29 -->
<g id="node30" class="node"><title>Node29</title>
<polygon fill="white" stroke="#bfbfbf" points="1368,-129 1368,-148 1417,-148 1417,-129 1368,-129"/>
<text text-anchor="middle" x="1392.5" y="-136" font-family="Helvetica,sans-Serif" font-size="10.00">fstream</text>
</g>
<!-- Node23&#45;&gt;Node29 -->
<g id="edge53" class="edge"><title>Node23&#45;&gt;Node29</title>
<path fill="none" stroke="midnightblue" d="M1022.62,-197.878C1093.22,-195.14 1239.41,-185.782 1358.5,-154 1360.85,-153.372 1363.26,-152.611 1365.64,-151.771"/>
<polygon fill="midnightblue" stroke="midnightblue" points="1367.17,-154.93 1375.19,-148.005 1364.6,-148.419 1367.17,-154.93"/>
</g>
<!-- Node30 -->
<g id="node31" class="node"><title>Node30</title>
<polygon fill="white" stroke="#bfbfbf" points="1435.5,-129 1435.5,-148 1539.5,-148 1539.5,-129 1435.5,-129"/>
<text text-anchor="middle" x="1487.5" y="-136" font-family="Helvetica,sans-Serif" font-size="10.00">common/variant.hpp</text>
</g>
<!-- Node23&#45;&gt;Node30 -->
<g id="edge55" class="edge"><title>Node23&#45;&gt;Node30</title>
<path fill="none" stroke="midnightblue" d="M1022.56,-196.625C1101.95,-191.729 1279.16,-178.832 1426.5,-154 1432.48,-152.992 1438.75,-151.735 1444.9,-150.386"/>
<polygon fill="midnightblue" stroke="midnightblue" points="1446.09,-153.704 1455.06,-148.057 1444.53,-146.881 1446.09,-153.704"/>
</g>
<!-- Node31 -->
<g id="node32" class="node"><title>Node31</title>
<g id="a_node32"><a xlink:href="_vector3_8hpp.html" target="_top" xlink:title="Math/Vector3.hpp">
<polygon fill="white" stroke="black" points="927.5,-129 927.5,-148 1021.5,-148 1021.5,-129 927.5,-129"/>
<text text-anchor="middle" x="974.5" y="-136" font-family="Helvetica,sans-Serif" font-size="10.00">Math/Vector3.hpp</text>
</a>
</g>
</g>
<!-- Node23&#45;&gt;Node31 -->
<g id="edge58" class="edge"><title>Node23&#45;&gt;Node31</title>
<path fill="none" stroke="midnightblue" d="M979.64,-190.475C978.794,-182.08 977.473,-168.981 976.382,-158.163"/>
<polygon fill="midnightblue" stroke="midnightblue" points="979.844,-157.607 975.358,-148.009 972.879,-158.31 979.844,-157.607"/>
</g>
<!-- Node32&#45;&gt;Node21 -->
<g id="edge62" class="edge"><title>Node32&#45;&gt;Node21</title>
<path fill="none" stroke="midnightblue" d="M905.971,-307.975C922.471,-298.255 949.678,-282.227 969.181,-270.737"/>
<polygon fill="midnightblue" stroke="midnightblue" points="971.216,-273.601 978.056,-265.509 967.663,-267.569 971.216,-273.601"/>
</g>
<!-- Node32&#45;&gt;Node23 -->
<g id="edge63" class="edge"><title>Node32&#45;&gt;Node23</title>
<path fill="none" stroke="midnightblue" d="M892.021,-307.844C893.269,-293.638 897.47,-265.056 911.5,-246 921.49,-232.432 936.898,-221.822 950.622,-214.32"/>
<polygon fill="midnightblue" stroke="midnightblue" points="952.47,-217.306 959.767,-209.625 949.273,-211.079 952.47,-217.306"/>
</g>
<!-- Node33&#45;&gt;Node6 -->
<g id="edge65" class="edge"><title>Node33&#45;&gt;Node6</title>
<path fill="none" stroke="midnightblue" d="M695.445,-302.268C692.58,-269.359 682.865,-186.005 654.5,-123 648.898,-110.556 639.89,-98.1702 632.165,-88.7793"/>
<polygon fill="midnightblue" stroke="midnightblue" points="634.732,-86.3955 625.566,-81.0811 629.417,-90.9513 634.732,-86.3955"/>
</g>
</g>
</svg>
        <g id="navigator" transform="translate(0 0)" fill="#404254">
                <rect fill="#f2f5e9" fill-opacity="0.5" stroke="#606060" stroke-width=".5" x="0" y="0" width="60" height="60"/>
                <use id="zoomplus" xlink:href="#zoomPlus" x="17" y="9" onmousedown="handleZoom(evt,'in')"/>
                <use id="zoomminus" xlink:href="#zoomMin" x="42" y="9" onmousedown="handleZoom(evt,'out')"/>
                <use id="reset" xlink:href="#resetDef" x="30" y="36" onmousedown="handleReset()"/>
                <g id="arrowUp" xlink:href="#dirArrow" transform="translate(30 24)" onmousedown="handlePan(0,-1)">
                  <use xlink:href="#rim" fill="#404040">
                        <set attributeName="fill" to="#808080" begin="arrowUp.mouseover" end="arrowUp.mouseout"/>
                  </use>
                  <path fill="none" stroke="white" stroke-width="1.5" d="M0,-3.0v7 M-2.5,-0.5L0,-3.0L2.5,-0.5"/>
                </g>
                <g id="arrowRight" xlink:href="#dirArrow" transform="rotate(90) translate(36 -43)" onmousedown="handlePan(1,0)">
                  <use xlink:href="#rim" fill="#404040">
                        <set attributeName="fill" to="#808080" begin="arrowRight.mouseover" end="arrowRight.mouseout"/>
                  </use>
                  <path fill="none" stroke="white" stroke-width="1.5" d="M0,-3.0v7 M-2.5,-0.5L0,-3.0L2.5,-0.5"/>
                </g>
                <g id="arrowDown" xlink:href="#dirArrow" transform="rotate(180) translate(-30 -48)" onmousedown="handlePan(0,1)">
                  <use xlink:href="#rim" fill="#404040">
                        <set attributeName="fill" to="#808080" begin="arrowDown.mouseover" end="arrowDown.mouseout"/>
                  </use>
                  <path fill="none" stroke="white" stroke-width="1.5" d="M0,-3.0v7 M-2.5,-0.5L0,-3.0L2.5,-0.5"/>
                </g>
                <g id="arrowLeft" xlink:href="#dirArrow" transform="rotate(270) translate(-36 17)" onmousedown="handlePan(-1,0)">
                  <use xlink:href="#rim" fill="#404040">
                        <set attributeName="fill" to="#808080" begin="arrowLeft.mouseover" end="arrowLeft.mouseout"/>
                  </use>
                  <path fill="none" stroke="white" stroke-width="1.5" d="M0,-3.0v7 M-2.5,-0.5L0,-3.0L2.5,-0.5"/>
                </g>
        </g>
        <svg viewBox="0 0 15 15" width="100%" height="30px" preserveAspectRatio="xMaxYMin meet">
         <g id="arrow_out" transform="scale(0.3 0.3)">
          <a xlink:href="_n_f_i_component_manager_8h__incl_org.svg" target="_base">
           <rect id="button" ry="5" rx="5" y="6" x="6" height="38" width="38"
                fill="#f2f5e9" fill-opacity="0.5" stroke="#606060" stroke-width="1.0"/>
           <path id="arrow"
             d="M 11.500037,31.436501 C 11.940474,20.09759 22.043105,11.32322 32.158766,21.979434 L 37.068811,17.246167 C 37.068811,17.246167 37.088388,32 37.088388,32 L 22.160133,31.978069 C 22.160133,31.978069 26.997745,27.140456 26.997745,27.140456 C 18.528582,18.264221 13.291696,25.230495 11.500037,31.436501 z"
             style="fill:#404040;"/>
          </a>
         </g>
        </svg>
</svg>
