<?xml version="1.0" encoding="UTF-8" standalone="no"?>
<!DOCTYPE svg PUBLIC "-//W3C//DTD SVG 1.1//EN"
 "http://www.w3.org/Graphics/SVG/1.1/DTD/svg11.dtd">
<!-- Generated by graphviz version 2.38.0 (20140413.2041)
 -->
<!-- Title: NFIHeartBeatManager.h Pages: 1 -->
<svg width="1605pt" height="330pt"
 viewBox="0.00 0.00 1604.50 330.00" xmlns="http://www.w3.org/2000/svg" xmlns:xlink="http://www.w3.org/1999/xlink">
<g id="graph0" class="graph" transform="scale(1 1) rotate(0) translate(4 326)">
<title>NFIHeartBeatManager.h</title>
<polygon fill="white" stroke="none" points="-4,4 -4,-326 1600.5,-326 1600.5,4 -4,4"/>
<!-- Node0 -->
<g id="node1" class="node"><title>Node0</title>
<polygon fill="#bfbfbf" stroke="black" points="406.5,-302.5 406.5,-321.5 527.5,-321.5 527.5,-302.5 406.5,-302.5"/>
<text text-anchor="middle" x="467" y="-309.5" font-family="Helvetica,sans-Serif" font-size="10.00">NFIHeartBeatManager.h</text>
</g>
<!-- Node1 -->
<g id="node2" class="node"><title>Node1</title>
<polygon fill="white" stroke="#bfbfbf" points="93.5,-0.5 93.5,-19.5 134.5,-19.5 134.5,-0.5 93.5,-0.5"/>
<text text-anchor="middle" x="114" y="-7.5" font-family="Helvetica,sans-Serif" font-size="10.00">string</text>
</g>
<!-- Node0&#45;&gt;Node1 -->
<g id="edge1" class="edge"><title>Node0&#45;&gt;Node1</title>
<path fill="none" stroke="midnightblue" d="M406.427,-309.337C280.068,-304.22 0,-283.566 0,-201 0,-201 0,-201 0,-137.5 0,-85.0747 54.6991,-44.5813 88.3185,-24.6442"/>
<polygon fill="midnightblue" stroke="midnightblue" points="90.2384,-27.5782 97.1789,-19.5732 86.7613,-21.5028 90.2384,-27.5782"/>
</g>
<!-- Node2 -->
<g id="node3" class="node"><title>Node2</title>
<g id="a_node3"><a xlink:href="_n_f_map_8h.html" target="_top" xlink:title="NFMap.h">
<polygon fill="white" stroke="black" points="205,-246.5 205,-265.5 261,-265.5 261,-246.5 205,-246.5"/>
<text text-anchor="middle" x="233" y="-253.5" font-family="Helvetica,sans-Serif" font-size="10.00">NFMap.h</text>
</a>
</g>
</g>
<!-- Node0&#45;&gt;Node2 -->
<g id="edge2" class="edge"><title>Node0&#45;&gt;Node2</title>
<path fill="none" stroke="midnightblue" d="M429.922,-302.444C386.495,-292.422 314.928,-275.906 271.075,-265.787"/>
<polygon fill="midnightblue" stroke="midnightblue" points="271.622,-262.321 261.091,-263.483 270.048,-269.142 271.622,-262.321"/>
</g>
<!-- Node14 -->
<g id="node15" class="node"><title>Node14</title>
<g id="a_node15"><a xlink:href="_n_f_list_8h.html" target="_top" xlink:title="NFList.h">
<polygon fill="white" stroke="black" points="440.5,-190.5 440.5,-209.5 493.5,-209.5 493.5,-190.5 440.5,-190.5"/>
<text text-anchor="middle" x="467" y="-197.5" font-family="Helvetica,sans-Serif" font-size="10.00">NFList.h</text>
</a>
</g>
</g>
<!-- Node0&#45;&gt;Node14 -->
<g id="edge21" class="edge"><title>Node0&#45;&gt;Node14</title>
<path fill="none" stroke="midnightblue" d="M467,-302.368C467,-284.617 467,-243.666 467,-219.597"/>
<polygon fill="midnightblue" stroke="midnightblue" points="470.5,-219.591 467,-209.591 463.5,-219.591 470.5,-219.591"/>
</g>
<!-- Node16 -->
<g id="node17" class="node"><title>Node16</title>
<g id="a_node17"><a xlink:href="_n_f_define_8h.html" target="_top" xlink:title="NFDefine.h">
<polygon fill="white" stroke="black" points="703.5,-246.5 703.5,-265.5 768.5,-265.5 768.5,-246.5 703.5,-246.5"/>
<text text-anchor="middle" x="736" y="-253.5" font-family="Helvetica,sans-Serif" font-size="10.00">NFDefine.h</text>
</a>
</g>
</g>
<!-- Node0&#45;&gt;Node16 -->
<g id="edge27" class="edge"><title>Node0&#45;&gt;Node16</title>
<path fill="none" stroke="midnightblue" d="M509.624,-302.444C559.935,-292.344 643.099,-275.649 693.4,-265.552"/>
<polygon fill="midnightblue" stroke="midnightblue" points="694.191,-268.963 703.306,-263.563 692.813,-262.1 694.191,-268.963"/>
</g>
<!-- Node18 -->
<g id="node19" class="node"><title>Node18</title>
<g id="a_node19"><a xlink:href="_a_f_data_list_8hpp.html" target="_top" xlink:title="AFDataList.hpp">
<polygon fill="white" stroke="black" points="877,-190.5 877,-209.5 961,-209.5 961,-190.5 877,-190.5"/>
<text text-anchor="middle" x="919" y="-197.5" font-family="Helvetica,sans-Serif" font-size="10.00">AFDataList.hpp</text>
</a>
</g>
</g>
<!-- Node0&#45;&gt;Node18 -->
<g id="edge54" class="edge"><title>Node0&#45;&gt;Node18</title>
<path fill="none" stroke="midnightblue" d="M527.514,-307.332C590.802,-302.318 692.495,-290.915 777,-266 820.27,-253.242 867.277,-229.611 894.886,-214.63"/>
<polygon fill="midnightblue" stroke="midnightblue" points="896.73,-217.61 903.805,-209.723 893.356,-211.477 896.73,-217.61"/>
</g>
<!-- Node2&#45;&gt;Node1 -->
<g id="edge5" class="edge"><title>Node2&#45;&gt;Node1</title>
<path fill="none" stroke="midnightblue" d="M215.071,-246.397C200.617,-238.658 180.678,-226.047 168,-210 131.621,-163.955 133.117,-144.197 120,-87 115.615,-67.8789 114.296,-45.4227 113.963,-29.9031"/>
<polygon fill="midnightblue" stroke="midnightblue" points="117.46,-29.524 113.866,-19.5574 110.46,-29.5898 117.46,-29.524"/>
</g>
<!-- Node3 -->
<g id="node4" class="node"><title>Node3</title>
<polygon fill="white" stroke="#bfbfbf" points="265.5,-129 265.5,-148 300.5,-148 300.5,-129 265.5,-129"/>
<text text-anchor="middle" x="283" y="-136" font-family="Helvetica,sans-Serif" font-size="10.00">map</text>
</g>
<!-- Node2&#45;&gt;Node3 -->
<g id="edge3" class="edge"><title>Node2&#45;&gt;Node3</title>
<path fill="none" stroke="midnightblue" d="M244.73,-246.462C254.901,-238.334 269.05,-225.12 276,-210 283.458,-193.774 284.708,-173.277 284.393,-158.572"/>
<polygon fill="midnightblue" stroke="midnightblue" points="287.871,-158.033 283.893,-148.213 280.879,-158.37 287.871,-158.033"/>
</g>
<!-- Node4 -->
<g id="node5" class="node"><title>Node4</title>
<polygon fill="white" stroke="#bfbfbf" points="218.5,-129 218.5,-148 247.5,-148 247.5,-129 218.5,-129"/>
<text text-anchor="middle" x="233" y="-136" font-family="Helvetica,sans-Serif" font-size="10.00">list</text>
</g>
<!-- Node2&#45;&gt;Node4 -->
<g id="edge4" class="edge"><title>Node2&#45;&gt;Node4</title>
<path fill="none" stroke="midnightblue" d="M220.503,-246.302C210.126,-238.251 196.113,-225.245 190,-210 186.692,-201.75 186.93,-198.342 190,-190 194.972,-176.492 205.34,-164.135 214.65,-155.026"/>
<polygon fill="midnightblue" stroke="midnightblue" points="217.094,-157.533 222.079,-148.184 212.352,-152.384 217.094,-157.533"/>
</g>
<!-- Node5 -->
<g id="node6" class="node"><title>Node5</title>
<polygon fill="white" stroke="#bfbfbf" points="397,-62 397,-81 451,-81 451,-62 397,-62"/>
<text text-anchor="middle" x="424" y="-69" font-family="Helvetica,sans-Serif" font-size="10.00">iostream</text>
</g>
<!-- Node2&#45;&gt;Node5 -->
<g id="edge6" class="edge"><title>Node2&#45;&gt;Node5</title>
<path fill="none" stroke="midnightblue" d="M220.371,-246.432C209.277,-238.284 193.468,-225.058 184,-210 163.028,-176.648 141.971,-153.426 167,-123 194.364,-89.7356 321.979,-78.0483 386.477,-74.2199"/>
<polygon fill="midnightblue" stroke="midnightblue" points="386.845,-77.7048 396.634,-73.6512 386.454,-70.7158 386.845,-77.7048"/>
</g>
<!-- Node6 -->
<g id="node7" class="node"><title>Node6</title>
<polygon fill="white" stroke="#bfbfbf" points="319,-129 319,-148 369,-148 369,-129 319,-129"/>
<text text-anchor="middle" x="344" y="-136" font-family="Helvetica,sans-Serif" font-size="10.00">typeinfo</text>
</g>
<!-- Node2&#45;&gt;Node6 -->
<g id="edge7" class="edge"><title>Node2&#45;&gt;Node6</title>
<path fill="none" stroke="midnightblue" d="M246.795,-246.396C259.596,-238.028 278.761,-224.486 293,-210 308.983,-193.739 323.848,-172.145 333.357,-157.16"/>
<polygon fill="midnightblue" stroke="midnightblue" points="336.5,-158.733 338.79,-148.389 330.549,-155.047 336.5,-158.733"/>
</g>
<!-- Node7 -->
<g id="node8" class="node"><title>Node7</title>
<g id="a_node8"><a xlink:href="_n_f_map_ex_8h.html" target="_top" xlink:title="NFMapEx.h">
<polygon fill="white" stroke="black" points="199,-190.5 199,-209.5 267,-209.5 267,-190.5 199,-190.5"/>
<text text-anchor="middle" x="233" y="-197.5" font-family="Helvetica,sans-Serif" font-size="10.00">NFMapEx.h</text>
</a>
</g>
</g>
<!-- Node2&#45;&gt;Node7 -->
<g id="edge8" class="edge"><title>Node2&#45;&gt;Node7</title>
<path fill="none" stroke="midnightblue" d="M233,-246.083C233,-239.006 233,-228.861 233,-219.986"/>
<polygon fill="midnightblue" stroke="midnightblue" points="236.5,-219.751 233,-209.751 229.5,-219.751 236.5,-219.751"/>
</g>
<!-- Node7&#45;&gt;Node1 -->
<g id="edge11" class="edge"><title>Node7&#45;&gt;Node1</title>
<path fill="none" stroke="midnightblue" d="M214.422,-190.363C199.727,-182.682 179.643,-170.168 167,-154 137.051,-115.702 122.798,-58.7717 117.132,-29.643"/>
<polygon fill="midnightblue" stroke="midnightblue" points="120.543,-28.8355 115.313,-19.6213 113.655,-30.0856 120.543,-28.8355"/>
</g>
<!-- Node7&#45;&gt;Node3 -->
<g id="edge9" class="edge"><title>Node7&#45;&gt;Node3</title>
<path fill="none" stroke="midnightblue" d="M240.164,-190.475C247.738,-181.462 259.87,-167.025 269.293,-155.812"/>
<polygon fill="midnightblue" stroke="midnightblue" points="272.096,-157.917 275.85,-148.009 266.737,-153.413 272.096,-157.917"/>
</g>
<!-- Node7&#45;&gt;Node4 -->
<g id="edge10" class="edge"><title>Node7&#45;&gt;Node4</title>
<path fill="none" stroke="midnightblue" d="M233,-190.475C233,-182.08 233,-168.981 233,-158.163"/>
<polygon fill="midnightblue" stroke="midnightblue" points="236.5,-158.009 233,-148.009 229.5,-158.009 236.5,-158.009"/>
</g>
<!-- Node7&#45;&gt;Node5 -->
<g id="edge12" class="edge"><title>Node7&#45;&gt;Node5</title>
<path fill="none" stroke="midnightblue" d="M214.918,-190.39C201.438,-182.872 184.028,-170.565 176,-154 169.992,-141.601 167.284,-133.67 176,-123 202.146,-90.9933 323.781,-78.7568 386.45,-74.5179"/>
<polygon fill="midnightblue" stroke="midnightblue" points="386.949,-77.9931 396.704,-73.8602 386.501,-71.0075 386.949,-77.9931"/>
</g>
<!-- Node7&#45;&gt;Node6 -->
<g id="edge13" class="edge"><title>Node7&#45;&gt;Node6</title>
<path fill="none" stroke="midnightblue" d="M248.904,-190.475C267.285,-180.622 297.756,-164.288 319.245,-152.77"/>
<polygon fill="midnightblue" stroke="midnightblue" points="320.966,-155.818 328.126,-148.009 317.659,-149.649 320.966,-155.818"/>
</g>
<!-- Node8 -->
<g id="node9" class="node"><title>Node8</title>
<polygon fill="white" stroke="#bfbfbf" points="387,-129 387,-148 439,-148 439,-129 387,-129"/>
<text text-anchor="middle" x="413" y="-136" font-family="Helvetica,sans-Serif" font-size="10.00">memory</text>
</g>
<!-- Node7&#45;&gt;Node8 -->
<g id="edge14" class="edge"><title>Node7&#45;&gt;Node8</title>
<path fill="none" stroke="midnightblue" d="M263.26,-190.489C292.78,-181.98 338.834,-168.157 378,-154 379.856,-153.329 381.757,-152.617 383.668,-151.881"/>
<polygon fill="midnightblue" stroke="midnightblue" points="385.146,-155.06 393.134,-148.101 382.549,-148.559 385.146,-155.06"/>
</g>
<!-- Node9 -->
<g id="node10" class="node"><title>Node9</title>
<g id="a_node10"><a xlink:href="_n_f_platform_8h.html" target="_top" xlink:title="NFComm/NFPluginModule\l/NFPlatform.h">
<polygon fill="white" stroke="black" points="469,-56.5 469,-86.5 601,-86.5 601,-56.5 469,-56.5"/>
<text text-anchor="start" x="477" y="-74.5" font-family="Helvetica,sans-Serif" font-size="10.00">NFComm/NFPluginModule</text>
<text text-anchor="middle" x="535" y="-63.5" font-family="Helvetica,sans-Serif" font-size="10.00">/NFPlatform.h</text>
</a>
</g>
</g>
<!-- Node7&#45;&gt;Node9 -->
<g id="edge15" class="edge"><title>Node7&#45;&gt;Node9</title>
<path fill="none" stroke="midnightblue" d="M225.603,-190.411C213.341,-175.107 191.78,-142.865 209,-123 244.106,-82.5 389.242,-94.9346 458.704,-86.8937"/>
<polygon fill="midnightblue" stroke="midnightblue" points="459.36,-90.3361 468.778,-85.4836 458.39,-83.4037 459.36,-90.3361"/>
</g>
<!-- Node9&#45;&gt;Node1 -->
<g id="edge20" class="edge"><title>Node9&#45;&gt;Node1</title>
<path fill="none" stroke="midnightblue" d="M468.786,-57.4691C465.819,-56.9577 462.88,-56.4653 460,-56 344.071,-37.2731 205.306,-21.1033 144.77,-14.3568"/>
<polygon fill="midnightblue" stroke="midnightblue" points="145.059,-10.8675 134.734,-13.245 144.288,-17.8249 145.059,-10.8675"/>
</g>
<!-- Node10 -->
<g id="node11" class="node"><title>Node10</title>
<polygon fill="white" stroke="#bfbfbf" points="563.5,-0.5 563.5,-19.5 612.5,-19.5 612.5,-0.5 563.5,-0.5"/>
<text text-anchor="middle" x="588" y="-7.5" font-family="Helvetica,sans-Serif" font-size="10.00">stdint.h</text>
</g>
<!-- Node9&#45;&gt;Node10 -->
<g id="edge16" class="edge"><title>Node9&#45;&gt;Node10</title>
<path fill="none" stroke="midnightblue" d="M547.56,-56.3993C555.341,-47.6641 565.364,-36.4126 573.484,-27.2962"/>
<polygon fill="midnightblue" stroke="midnightblue" points="576.25,-29.453 580.288,-19.6578 571.023,-24.797 576.25,-29.453"/>
</g>
<!-- Node11 -->
<g id="node12" class="node"><title>Node11</title>
<polygon fill="white" stroke="#bfbfbf" points="631,-0.5 631,-19.5 675,-19.5 675,-0.5 631,-0.5"/>
<text text-anchor="middle" x="653" y="-7.5" font-family="Helvetica,sans-Serif" font-size="10.00">time.h</text>
</g>
<!-- Node9&#45;&gt;Node11 -->
<g id="edge17" class="edge"><title>Node9&#45;&gt;Node11</title>
<path fill="none" stroke="midnightblue" d="M562.964,-56.3993C582.321,-46.6391 607.908,-33.7373 626.856,-24.1826"/>
<polygon fill="midnightblue" stroke="midnightblue" points="628.477,-27.2854 635.83,-19.6578 625.325,-21.035 628.477,-27.2854"/>
</g>
<!-- Node12 -->
<g id="node13" class="node"><title>Node12</title>
<polygon fill="white" stroke="#bfbfbf" points="347,-0.5 347,-19.5 399,-19.5 399,-0.5 347,-0.5"/>
<text text-anchor="middle" x="373" y="-7.5" font-family="Helvetica,sans-Serif" font-size="10.00">sstream</text>
</g>
<!-- Node9&#45;&gt;Node12 -->
<g id="edge18" class="edge"><title>Node9&#45;&gt;Node12</title>
<path fill="none" stroke="midnightblue" d="M496.608,-56.3993C469.063,-46.2826 432.329,-32.7905 406.079,-23.1493"/>
<polygon fill="midnightblue" stroke="midnightblue" points="407.166,-19.8201 396.572,-19.6578 404.753,-26.3909 407.166,-19.8201"/>
</g>
<!-- Node13 -->
<g id="node14" class="node"><title>Node13</title>
<polygon fill="white" stroke="#bfbfbf" points="417,-0.5 417,-19.5 545,-19.5 545,-0.5 417,-0.5"/>
<text text-anchor="middle" x="481" y="-7.5" font-family="Helvetica,sans-Serif" font-size="10.00">common/lexical_cast.hpp</text>
</g>
<!-- Node9&#45;&gt;Node13 -->
<g id="edge19" class="edge"><title>Node9&#45;&gt;Node13</title>
<path fill="none" stroke="midnightblue" d="M522.203,-56.3993C514.275,-47.6641 504.064,-36.4126 495.79,-27.2962"/>
<polygon fill="midnightblue" stroke="midnightblue" points="498.17,-24.7106 488.857,-19.6578 492.986,-29.415 498.17,-24.7106"/>
</g>
<!-- Node14&#45;&gt;Node3 -->
<g id="edge23" class="edge"><title>Node14&#45;&gt;Node3</title>
<path fill="none" stroke="midnightblue" d="M440.308,-193.191C408.595,-185.873 354.393,-172.04 310,-154 308.965,-153.579 307.918,-153.13 306.868,-152.66"/>
<polygon fill="midnightblue" stroke="midnightblue" points="308.094,-149.362 297.579,-148.062 304.989,-155.635 308.094,-149.362"/>
</g>
<!-- Node14&#45;&gt;Node4 -->
<g id="edge24" class="edge"><title>Node14&#45;&gt;Node4</title>
<path fill="none" stroke="midnightblue" d="M440.467,-196.371C399.592,-191.659 319.319,-179.755 256,-154 255.279,-153.707 254.555,-153.391 253.831,-153.057"/>
<polygon fill="midnightblue" stroke="midnightblue" points="255.186,-149.806 244.744,-148.016 251.791,-155.927 255.186,-149.806"/>
</g>
<!-- Node14&#45;&gt;Node5 -->
<g id="edge22" class="edge"><title>Node14&#45;&gt;Node5</title>
<path fill="none" stroke="midnightblue" d="M465.43,-190.402C462.7,-176.142 456.539,-146.812 448,-123 444.006,-111.861 438.373,-99.8792 433.568,-90.3831"/>
<polygon fill="midnightblue" stroke="midnightblue" points="436.517,-88.4675 428.796,-81.2121 430.307,-91.6986 436.517,-88.4675"/>
</g>
<!-- Node14&#45;&gt;Node9 -->
<g id="edge26" class="edge"><title>Node14&#45;&gt;Node9</title>
<path fill="none" stroke="midnightblue" d="M471.674,-190.305C482.026,-171.047 507.18,-124.254 522.488,-95.7769"/>
<polygon fill="midnightblue" stroke="midnightblue" points="525.614,-97.3533 527.266,-86.888 519.448,-94.0389 525.614,-97.3533"/>
</g>
<!-- Node15 -->
<g id="node16" class="node"><title>Node15</title>
<polygon fill="white" stroke="#bfbfbf" points="533,-129 533,-148 589,-148 589,-129 533,-129"/>
<text text-anchor="middle" x="561" y="-136" font-family="Helvetica,sans-Serif" font-size="10.00">algorithm</text>
</g>
<!-- Node14&#45;&gt;Node15 -->
<g id="edge25" class="edge"><title>Node14&#45;&gt;Node15</title>
<path fill="none" stroke="midnightblue" d="M480.468,-190.475C495.685,-180.843 520.687,-165.017 538.801,-153.552"/>
<polygon fill="midnightblue" stroke="midnightblue" points="540.979,-156.315 547.557,-148.009 537.236,-150.4 540.979,-156.315"/>
</g>
<!-- Node17 -->
<g id="node18" class="node"><title>Node17</title>
<polygon fill="white" stroke="#bfbfbf" points="757,-129 757,-148 815,-148 815,-129 757,-129"/>
<text text-anchor="middle" x="786" y="-136" font-family="Helvetica,sans-Serif" font-size="10.00">functional</text>
</g>
<!-- Node16&#45;&gt;Node17 -->
<g id="edge28" class="edge"><title>Node16&#45;&gt;Node17</title>
<path fill="none" stroke="midnightblue" d="M739.758,-246.319C747.866,-227.59 767.149,-183.046 778.081,-157.792"/>
<polygon fill="midnightblue" stroke="midnightblue" points="781.437,-158.85 782.198,-148.282 775.014,-156.069 781.437,-158.85"/>
</g>
<!-- Node16&#45;&gt;Node18 -->
<g id="edge29" class="edge"><title>Node16&#45;&gt;Node18</title>
<path fill="none" stroke="midnightblue" d="M764.997,-246.444C796.185,-237.241 845.93,-222.562 880.408,-212.388"/>
<polygon fill="midnightblue" stroke="midnightblue" points="881.538,-215.704 890.139,-209.516 879.557,-208.99 881.538,-215.704"/>
</g>
<!-- Node27 -->
<g id="node28" class="node"><title>Node27</title>
<g id="a_node28"><a xlink:href="_n_f_g_u_i_d_8h.html" target="_top" xlink:title="NFComm/NFPluginModule\l/NFGUID.h">
<polygon fill="white" stroke="black" points="607,-123.5 607,-153.5 739,-153.5 739,-123.5 607,-123.5"/>
<text text-anchor="start" x="615" y="-141.5" font-family="Helvetica,sans-Serif" font-size="10.00">NFComm/NFPluginModule</text>
<text text-anchor="middle" x="673" y="-130.5" font-family="Helvetica,sans-Serif" font-size="10.00">/NFGUID.h</text>
</a>
</g>
</g>
<!-- Node16&#45;&gt;Node27 -->
<g id="edge53" class="edge"><title>Node16&#45;&gt;Node27</title>
<path fill="none" stroke="midnightblue" d="M731.265,-246.319C721.673,-228.734 699.67,-188.394 685.616,-162.629"/>
<polygon fill="midnightblue" stroke="midnightblue" points="688.522,-160.648 680.661,-153.545 682.377,-164 688.522,-160.648"/>
</g>
<!-- Node18&#45;&gt;Node1 -->
<g id="edge30" class="edge"><title>Node18&#45;&gt;Node1</title>
<path fill="none" stroke="midnightblue" d="M961.15,-197.988C1068.66,-194.973 1346.55,-184.296 1374,-154 1383.25,-143.789 1382.57,-133.79 1374,-123 1292.28,-20.0824 1216.18,-74.0025 1086,-56 1038.31,-49.4044 304.494,-18.8598 144.605,-12.2596"/>
<polygon fill="midnightblue" stroke="midnightblue" points="144.644,-8.7583 134.508,-11.8431 144.356,-15.7524 144.644,-8.7583"/>
</g>
<!-- Node18&#45;&gt;Node3 -->
<g id="edge37" class="edge"><title>Node18&#45;&gt;Node3</title>
<path fill="none" stroke="midnightblue" d="M876.574,-198.158C756.59,-195.414 416.627,-185.042 310,-154 308.531,-153.572 307.052,-153.058 305.583,-152.482"/>
<polygon fill="midnightblue" stroke="midnightblue" points="306.792,-149.181 296.259,-148.043 303.784,-155.502 306.792,-149.181"/>
</g>
<!-- Node18&#45;&gt;Node4 -->
<g id="edge35" class="edge"><title>Node18&#45;&gt;Node4</title>
<path fill="none" stroke="midnightblue" d="M876.831,-198.825C749.755,-197.876 372.132,-191.859 256,-154 255.097,-153.706 254.193,-153.368 253.296,-152.995"/>
<polygon fill="midnightblue" stroke="midnightblue" points="254.605,-149.726 244.14,-148.071 251.289,-155.89 254.605,-149.726"/>
</g>
<!-- Node18&#45;&gt;Node5 -->
<g id="edge32" class="edge"><title>Node18&#45;&gt;Node5</title>
<path fill="none" stroke="midnightblue" d="M961.176,-197.437C1060.01,-193.342 1300.08,-180.72 1324,-154 1333.19,-143.734 1333.54,-132.943 1324,-123 1290.74,-88.3295 506.963,-97.1214 460,-87 457.159,-86.3878 454.254,-85.5704 451.387,-84.6343"/>
<polygon fill="midnightblue" stroke="midnightblue" points="452.526,-81.3236 441.933,-81.12 450.087,-87.885 452.526,-81.3236"/>
</g>
<!-- Node18&#45;&gt;Node6 -->
<g id="edge40" class="edge"><title>Node18&#45;&gt;Node6</title>
<path fill="none" stroke="midnightblue" d="M876.736,-197.23C766.538,-192.337 472.451,-177.419 378,-154 375.635,-153.414 373.224,-152.682 370.832,-151.862"/>
<polygon fill="midnightblue" stroke="midnightblue" points="371.865,-148.508 361.277,-148.13 369.319,-155.028 371.865,-148.508"/>
</g>
<!-- Node18&#45;&gt;Node8 -->
<g id="edge44" class="edge"><title>Node18&#45;&gt;Node8</title>
<path fill="none" stroke="midnightblue" d="M876.883,-194.432C804.638,-186.545 652.456,-169.706 524,-154 498.967,-150.939 470.792,-147.256 449.091,-144.367"/>
<polygon fill="midnightblue" stroke="midnightblue" points="449.376,-140.874 439.001,-143.019 448.449,-147.813 449.376,-140.874"/>
</g>
<!-- Node18&#45;&gt;Node9 -->
<g id="edge51" class="edge"><title>Node18&#45;&gt;Node9</title>
<path fill="none" stroke="midnightblue" d="M961.099,-197.816C1065.67,-194.444 1330.75,-183.083 1357,-154 1366.23,-143.772 1366.49,-132.984 1357,-123 1329.55,-94.1389 680.656,-90.7024 641,-87 631.291,-86.0935 621.106,-84.949 611.049,-83.7022"/>
<polygon fill="midnightblue" stroke="midnightblue" points="611.419,-80.2212 601.056,-82.4264 610.532,-87.1648 611.419,-80.2212"/>
</g>
<!-- Node18&#45;&gt;Node15 -->
<g id="edge38" class="edge"><title>Node18&#45;&gt;Node15</title>
<path fill="none" stroke="midnightblue" d="M876.831,-196.248C814.875,-191.499 695.982,-179.687 598,-154 595.339,-153.302 592.609,-152.47 589.896,-151.562"/>
<polygon fill="midnightblue" stroke="midnightblue" points="590.896,-148.201 580.302,-148.049 588.488,-154.774 590.896,-148.201"/>
</g>
<!-- Node18&#45;&gt;Node17 -->
<g id="edge42" class="edge"><title>Node18&#45;&gt;Node17</title>
<path fill="none" stroke="midnightblue" d="M899.944,-190.475C877.525,-180.445 840.095,-163.7 814.287,-152.155"/>
<polygon fill="midnightblue" stroke="midnightblue" points="815.578,-148.898 805.02,-148.009 812.719,-155.288 815.578,-148.898"/>
</g>
<!-- Node19 -->
<g id="node20" class="node"><title>Node19</title>
<polygon fill="white" stroke="#bfbfbf" points="1447,-129 1447,-148 1493,-148 1493,-129 1447,-129"/>
<text text-anchor="middle" x="1470" y="-136" font-family="Helvetica,sans-Serif" font-size="10.00">cstring</text>
</g>
<!-- Node18&#45;&gt;Node19 -->
<g id="edge31" class="edge"><title>Node18&#45;&gt;Node19</title>
<path fill="none" stroke="midnightblue" d="M961.281,-199.353C1049.97,-199.212 1261.41,-194.25 1433,-154 1435.83,-153.335 1438.74,-152.496 1441.61,-151.557"/>
<polygon fill="midnightblue" stroke="midnightblue" points="1442.93,-154.803 1451.13,-148.095 1440.54,-148.225 1442.93,-154.803"/>
</g>
<!-- Node20 -->
<g id="node21" class="node"><title>Node20</title>
<polygon fill="white" stroke="#bfbfbf" points="1029,-62 1029,-81 1077,-81 1077,-62 1029,-62"/>
<text text-anchor="middle" x="1053" y="-69" font-family="Helvetica,sans-Serif" font-size="10.00">stdlib.h</text>
</g>
<!-- Node18&#45;&gt;Node20 -->
<g id="edge33" class="edge"><title>Node18&#45;&gt;Node20</title>
<path fill="none" stroke="midnightblue" d="M961.056,-198.97C1088.73,-198.444 1465.41,-193.528 1502,-154 1511.36,-143.89 1511.18,-133.272 1502,-123 1474.45,-92.1756 1187.78,-77.8721 1087.45,-73.7834"/>
<polygon fill="midnightblue" stroke="midnightblue" points="1087.37,-70.2778 1077.24,-73.3768 1087.1,-77.2723 1087.37,-70.2778"/>
</g>
<!-- Node21 -->
<g id="node22" class="node"><title>Node21</title>
<polygon fill="white" stroke="#bfbfbf" points="1549.5,-129 1549.5,-148 1596.5,-148 1596.5,-129 1549.5,-129"/>
<text text-anchor="middle" x="1573" y="-136" font-family="Helvetica,sans-Serif" font-size="10.00">math.h</text>
</g>
<!-- Node18&#45;&gt;Node21 -->
<g id="edge34" class="edge"><title>Node18&#45;&gt;Node21</title>
<path fill="none" stroke="midnightblue" d="M961.304,-197.514C1081.81,-193.026 1425.22,-178.401 1535,-154 1538,-153.332 1541.09,-152.471 1544.14,-151.502"/>
<polygon fill="midnightblue" stroke="midnightblue" points="1545.36,-154.783 1553.61,-148.144 1543.02,-148.185 1545.36,-154.783"/>
</g>
<!-- Node22 -->
<g id="node23" class="node"><title>Node22</title>
<polygon fill="white" stroke="#bfbfbf" points="833,-129 833,-148 875,-148 875,-129 833,-129"/>
<text text-anchor="middle" x="854" y="-136" font-family="Helvetica,sans-Serif" font-size="10.00">vector</text>
</g>
<!-- Node18&#45;&gt;Node22 -->
<g id="edge36" class="edge"><title>Node18&#45;&gt;Node22</title>
<path fill="none" stroke="midnightblue" d="M909.687,-190.475C899.551,-181.197 883.136,-166.171 870.748,-154.831"/>
<polygon fill="midnightblue" stroke="midnightblue" points="873.035,-152.18 863.296,-148.009 868.309,-157.343 873.035,-152.18"/>
</g>
<!-- Node23 -->
<g id="node24" class="node"><title>Node23</title>
<polygon fill="white" stroke="#bfbfbf" points="893,-129 893,-148 945,-148 945,-129 893,-129"/>
<text text-anchor="middle" x="919" y="-136" font-family="Helvetica,sans-Serif" font-size="10.00">assert.h</text>
</g>
<!-- Node18&#45;&gt;Node23 -->
<g id="edge39" class="edge"><title>Node18&#45;&gt;Node23</title>
<path fill="none" stroke="midnightblue" d="M919,-190.475C919,-182.08 919,-168.981 919,-158.163"/>
<polygon fill="midnightblue" stroke="midnightblue" points="922.5,-158.009 919,-148.009 915.5,-158.009 922.5,-158.009"/>
</g>
<!-- Node24 -->
<g id="node25" class="node"><title>Node24</title>
<polygon fill="white" stroke="#bfbfbf" points="963,-129 963,-148 1013,-148 1013,-129 963,-129"/>
<text text-anchor="middle" x="988" y="-136" font-family="Helvetica,sans-Serif" font-size="10.00">iomanip</text>
</g>
<!-- Node18&#45;&gt;Node24 -->
<g id="edge41" class="edge"><title>Node18&#45;&gt;Node24</title>
<path fill="none" stroke="midnightblue" d="M928.886,-190.475C939.646,-181.197 957.071,-166.171 970.221,-154.831"/>
<polygon fill="midnightblue" stroke="midnightblue" points="972.845,-157.19 978.132,-148.009 968.273,-151.889 972.845,-157.19"/>
</g>
<!-- Node25 -->
<g id="node26" class="node"><title>Node25</title>
<polygon fill="white" stroke="#bfbfbf" points="1031.5,-129 1031.5,-148 1080.5,-148 1080.5,-129 1031.5,-129"/>
<text text-anchor="middle" x="1056" y="-136" font-family="Helvetica,sans-Serif" font-size="10.00">fstream</text>
</g>
<!-- Node18&#45;&gt;Node25 -->
<g id="edge43" class="edge"><title>Node18&#45;&gt;Node25</title>
<path fill="none" stroke="midnightblue" d="M938.629,-190.475C961.824,-180.401 1000.62,-163.553 1027.21,-152.002"/>
<polygon fill="midnightblue" stroke="midnightblue" points="1028.63,-155.203 1036.41,-148.009 1025.84,-148.782 1028.63,-155.203"/>
</g>
<!-- Node26 -->
<g id="node27" class="node"><title>Node26</title>
<polygon fill="white" stroke="#bfbfbf" points="1099,-129 1099,-148 1203,-148 1203,-129 1099,-129"/>
<text text-anchor="middle" x="1151" y="-136" font-family="Helvetica,sans-Serif" font-size="10.00">common/variant.hpp</text>
</g>
<!-- Node18&#45;&gt;Node26 -->
<g id="edge45" class="edge"><title>Node18&#45;&gt;Node26</title>
<path fill="none" stroke="midnightblue" d="M952.24,-190.475C993.242,-179.959 1063.03,-162.062 1108.05,-150.514"/>
<polygon fill="midnightblue" stroke="midnightblue" points="1109,-153.884 1117.82,-148.009 1107.27,-147.103 1109,-153.884"/>
</g>
<!-- Node18&#45;&gt;Node27 -->
<g id="edge46" class="edge"><title>Node18&#45;&gt;Node27</title>
<path fill="none" stroke="midnightblue" d="M883.754,-190.475C846.623,-181.494 787.228,-167.128 740.941,-155.933"/>
<polygon fill="midnightblue" stroke="midnightblue" points="741.52,-152.472 730.977,-153.523 739.874,-159.276 741.52,-152.472"/>
</g>
<!-- Node29 -->
<g id="node30" class="node"><title>Node29</title>
<g id="a_node30"><a xlink:href="_vector3_8hpp.html" target="_top" xlink:title="Math/Vector3.hpp">
<polygon fill="white" stroke="black" points="1221,-129 1221,-148 1315,-148 1315,-129 1221,-129"/>
<text text-anchor="middle" x="1268" y="-136" font-family="Helvetica,sans-Serif" font-size="10.00">Math/Vector3.hpp</text>
</a>
</g>
</g>
<!-- Node18&#45;&gt;Node29 -->
<g id="edge52" class="edge"><title>Node18&#45;&gt;Node29</title>
<path fill="none" stroke="midnightblue" d="M961.452,-193.848C1018.66,-186.594 1123.53,-172.199 1212,-154 1217.04,-152.964 1222.3,-151.763 1227.49,-150.504"/>
<polygon fill="midnightblue" stroke="midnightblue" points="1228.47,-153.866 1237.32,-148.039 1226.77,-147.076 1228.47,-153.866"/>
</g>
<!-- Node27&#45;&gt;Node5 -->
<g id="edge48" class="edge"><title>Node27&#45;&gt;Node5</title>
<path fill="none" stroke="midnightblue" d="M606.574,-124.437C564.197,-115.446 508.351,-102.373 460,-87 457.724,-86.2765 455.389,-85.4754 453.054,-84.6322"/>
<polygon fill="midnightblue" stroke="midnightblue" points="454.202,-81.3238 443.611,-81.0185 451.7,-87.8615 454.202,-81.3238"/>
</g>
<!-- Node27&#45;&gt;Node9 -->
<g id="edge47" class="edge"><title>Node27&#45;&gt;Node9</title>
<path fill="none" stroke="midnightblue" d="M643.056,-123.396C622.802,-113.856 595.854,-101.163 573.937,-90.8397"/>
<polygon fill="midnightblue" stroke="midnightblue" points="575.424,-87.6713 564.886,-86.5765 572.441,-94.004 575.424,-87.6713"/>
</g>
<!-- Node27&#45;&gt;Node20 -->
<g id="edge50" class="edge"><title>Node27&#45;&gt;Node20</title>
<path fill="none" stroke="midnightblue" d="M739.235,-124.594C742.196,-124.049 745.128,-123.515 748,-123 846.019,-105.413 962.171,-86.7919 1018.68,-77.8738"/>
<polygon fill="midnightblue" stroke="midnightblue" points="1019.51,-81.2866 1028.84,-76.2734 1018.42,-74.3718 1019.51,-81.2866"/>
</g>
<!-- Node28 -->
<g id="node29" class="node"><title>Node28</title>
<polygon fill="white" stroke="#bfbfbf" points="650,-62 650,-81 696,-81 696,-62 650,-62"/>
<text text-anchor="middle" x="673" y="-69" font-family="Helvetica,sans-Serif" font-size="10.00">stdio.h</text>
</g>
<!-- Node27&#45;&gt;Node28 -->
<g id="edge49" class="edge"><title>Node27&#45;&gt;Node28</title>
<path fill="none" stroke="midnightblue" d="M673,-123.396C673,-114.064 673,-101.714 673,-91.5173"/>
<polygon fill="midnightblue" stroke="midnightblue" points="676.5,-91.1945 673,-81.1945 669.5,-91.1946 676.5,-91.1945"/>
</g>
</g>
</svg>
