<?xml version="1.0" encoding="UTF-8" standalone="no"?>
<!DOCTYPE svg PUBLIC "-//W3C//DTD SVG 1.1//EN"
 "http://www.w3.org/Graphics/SVG/1.1/DTD/svg11.dtd">
<!-- Generated by graphviz version 2.38.0 (20140413.2041)
 -->
<!-- Title: NFILogModule.h Pages: 1 -->
<!--zoomable 162 -->
<svg id="main" version="1.1" xmlns="http://www.w3.org/2000/svg" xmlns:xlink="http://www.w3.org/1999/xlink" xml:space="preserve" onload="init(evt)">
<style type="text/css"><![CDATA[
.edge:hover path { stroke: red; }
.edge:hover polygon { stroke: red; fill: red; }
]]></style>
<script type="text/javascript"><![CDATA[
var edges = document.getElementsByTagName('g');
if (edges && edges.length) {
  for (var i=0;i<edges.length;i++) {
    if (edges[i].id.substr(0,4)=='edge') {
      edges[i].setAttribute('class','edge');
    }
  }
}
]]></script>
        <defs>
                <circle id="rim" cx="0" cy="0" r="7"/>
                <circle id="rim2" cx="0" cy="0" r="3.5"/>
                <g id="zoomPlus">
                        <use xlink:href="#rim" fill="#404040">
                                <set attributeName="fill" to="#808080" begin="zoomplus.mouseover" end="zoomplus.mouseout"/>
                        </use>
                        <path d="M-4,0h8M0,-4v8" fill="none" stroke="white" stroke-width="1.5" pointer-events="none"/>
                </g>
                <g id="zoomMin">
                        <use xlink:href="#rim" fill="#404040">
                                <set attributeName="fill" to="#808080" begin="zoomminus.mouseover" end="zoomminus.mouseout"/>
                        </use>
                        <path d="M-4,0h8" fill="none" stroke="white" stroke-width="1.5" pointer-events="none"/>
                </g>
                <g id="dirArrow">
                        <path fill="none" stroke="white" stroke-width="1.5" d="M0,-3.0v7 M-2.5,-0.5L0,-3.0L2.5,-0.5"/>
                </g>
               <g id="resetDef">
                       <use xlink:href="#rim2" fill="#404040">
                               <set attributeName="fill" to="#808080" begin="reset.mouseover" end="reset.mouseout"/>
                       </use>
               </g>
        </defs>

<script type="text/javascript">
var viewWidth = 4639;
var viewHeight = 162;
var sectionId = 'dynsection-1';
</script>
<script xlink:href="svgpan.js"/>
<svg id="graph" class="graph">
<g id="viewport">
<title>NFILogModule.h</title>
<polygon fill="white" stroke="none" points="-4,4 -4,-158 4635,-158 4635,4 -4,4"/>
<!-- Node33 -->
<g id="node1" class="node"><title>Node33</title>
<polygon fill="#bfbfbf" stroke="black" points="1977.5,-134.5 1977.5,-153.5 2064.5,-153.5 2064.5,-134.5 1977.5,-134.5"/>
<text text-anchor="middle" x="2021" y="-141.5" font-family="Helvetica,sans-Serif" font-size="10.00">NFILogModule.h</text>
</g>
<!-- Node34 -->
<g id="node2" class="node"><title>Node34</title>
<g id="a_node2"><a xlink:href="_n_f_c_kernel_module_8h.html" target="_top" xlink:title="NFCKernelModule.h">
<polygon fill="white" stroke="black" points="132,-73 132,-92 236,-92 236,-73 132,-73"/>
<text text-anchor="middle" x="184" y="-80" font-family="Helvetica,sans-Serif" font-size="10.00">NFCKernelModule.h</text>
</a>
</g>
</g>
<!-- Node33&#45;&gt;Node34 -->
<g id="edge1" class="edge"><title>Node33&#45;&gt;Node34</title>
<path fill="none" stroke="midnightblue" d="M1967.17,-142.569C1760.03,-140.693 994.497,-131.744 365,-98 321.559,-95.6713 272.356,-91.6397 236.227,-88.4179"/>
<polygon fill="midnightblue" stroke="midnightblue" points="1967.44,-146.072 1977.47,-142.661 1967.5,-139.072 1967.44,-146.072"/>
</g>
<!-- Node37 -->
<g id="node5" class="node"><title>Node37</title>
<g id="a_node5"><a xlink:href="_n_f_c_log_module_8h.html" target="_top" xlink:title="NFCLogModule.h">
<polygon fill="white" stroke="black" points="374,-73 374,-92 466,-92 466,-73 374,-73"/>
<text text-anchor="middle" x="420" y="-80" font-family="Helvetica,sans-Serif" font-size="10.00">NFCLogModule.h</text>
</a>
</g>
</g>
<!-- Node33&#45;&gt;Node37 -->
<g id="edge4" class="edge"><title>Node33&#45;&gt;Node37</title>
<path fill="none" stroke="midnightblue" d="M1967.24,-141.666C1785.31,-137.056 1176.1,-120.811 673,-98 600.701,-94.7219 516.852,-89.6695 466.15,-86.4766"/>
<polygon fill="midnightblue" stroke="midnightblue" points="1967.26,-145.168 1977.34,-141.922 1967.44,-138.17 1967.26,-145.168"/>
</g>
<!-- Node40 -->
<g id="node8" class="node"><title>Node40</title>
<g id="a_node8"><a xlink:href="_n_f_c_game_server_to_world_module_8h.html" target="_top" xlink:title="NFCGameServerToWorldModule.h">
<polygon fill="white" stroke="black" points="682.5,-73 682.5,-92 847.5,-92 847.5,-73 682.5,-73"/>
<text text-anchor="middle" x="765" y="-80" font-family="Helvetica,sans-Serif" font-size="10.00">NFCGameServerToWorldModule.h</text>
</a>
</g>
</g>
<!-- Node33&#45;&gt;Node40 -->
<g id="edge7" class="edge"><title>Node33&#45;&gt;Node40</title>
<path fill="none" stroke="midnightblue" d="M1967.22,-140.486C1821.91,-133.688 1409.25,-114.355 1066,-98 992.185,-94.483 908.191,-90.4327 847.722,-87.5084"/>
<polygon fill="midnightblue" stroke="midnightblue" points="1967.06,-143.982 1977.21,-140.953 1967.39,-136.99 1967.06,-143.982"/>
</g>
<!-- Node43 -->
<g id="node11" class="node"><title>Node43</title>
<g id="a_node11"><a xlink:href="_n_f_c_game_server_net___server_module_8h.html" target="_top" xlink:title="NFCGameServerNet_ServerModule.h">
<polygon fill="white" stroke="black" points="1075,-73 1075,-92 1251,-92 1251,-73 1075,-73"/>
<text text-anchor="middle" x="1163" y="-80" font-family="Helvetica,sans-Serif" font-size="10.00">NFCGameServerNet_ServerModule.h</text>
</a>
</g>
</g>
<!-- Node33&#45;&gt;Node43 -->
<g id="edge10" class="edge"><title>Node33&#45;&gt;Node43</title>
<path fill="none" stroke="midnightblue" d="M1967.11,-139.76C1851.71,-132.753 1572.15,-115.413 1338,-98 1309.73,-95.8974 1278.9,-93.4088 1251.11,-91.0922"/>
<polygon fill="midnightblue" stroke="midnightblue" points="1967.24,-143.274 1977.43,-140.385 1967.66,-136.287 1967.24,-143.274"/>
</g>
<!-- Node46 -->
<g id="node14" class="node"><title>Node46</title>
<g id="a_node14"><a xlink:href="_n_f_c_event_route_module_8h.html" target="_top" xlink:title="NFCEventRouteModule.h">
<polygon fill="white" stroke="black" points="1347.5,-73 1347.5,-92 1472.5,-92 1472.5,-73 1347.5,-73"/>
<text text-anchor="middle" x="1410" y="-80" font-family="Helvetica,sans-Serif" font-size="10.00">NFCEventRouteModule.h</text>
</a>
</g>
</g>
<!-- Node33&#45;&gt;Node46 -->
<g id="edge13" class="edge"><title>Node33&#45;&gt;Node46</title>
<path fill="none" stroke="midnightblue" d="M1967.18,-137.862C1880.41,-129.567 1704.24,-112.668 1555,-98 1528.06,-95.3522 1498.31,-92.3847 1472.8,-89.8273"/>
<polygon fill="midnightblue" stroke="midnightblue" points="1967.02,-141.363 1977.31,-138.831 1967.69,-134.395 1967.02,-141.363"/>
</g>
<!-- Node48 -->
<g id="node16" class="node"><title>Node48</title>
<g id="a_node16"><a xlink:href="_n_f_c_level_module_8h.html" target="_top" xlink:title="NFCLevelModule.h">
<polygon fill="white" stroke="black" points="1564,-73 1564,-92 1662,-92 1662,-73 1564,-73"/>
<text text-anchor="middle" x="1613" y="-80" font-family="Helvetica,sans-Serif" font-size="10.00">NFCLevelModule.h</text>
</a>
</g>
</g>
<!-- Node33&#45;&gt;Node48 -->
<g id="edge15" class="edge"><title>Node33&#45;&gt;Node48</title>
<path fill="none" stroke="midnightblue" d="M1967.32,-136.489C1901.92,-128.37 1788.13,-113.641 1691,-98 1679.85,-96.2043 1667.84,-94.0713 1656.66,-92.0013"/>
<polygon fill="midnightblue" stroke="midnightblue" points="1967.04,-139.98 1977.39,-137.734 1967.9,-133.033 1967.04,-139.98"/>
</g>
<!-- Node51 -->
<g id="node19" class="node"><title>Node51</title>
<g id="a_node19"><a xlink:href="_n_f_c_property_trail_module_8h.html" target="_top" xlink:title="NFCPropertyTrailModule.h">
<polygon fill="white" stroke="black" points="1873.5,-73 1873.5,-92 2004.5,-92 2004.5,-73 1873.5,-73"/>
<text text-anchor="middle" x="1939" y="-80" font-family="Helvetica,sans-Serif" font-size="10.00">NFCPropertyTrailModule.h</text>
</a>
</g>
</g>
<!-- Node33&#45;&gt;Node51 -->
<g id="edge18" class="edge"><title>Node33&#45;&gt;Node51</title>
<path fill="none" stroke="midnightblue" d="M2000.73,-128.294C1985,-116.88 1963.75,-101.458 1950.73,-92.0091"/>
<polygon fill="midnightblue" stroke="midnightblue" points="1999.1,-131.435 2009.25,-134.475 2003.21,-125.769 1999.1,-131.435"/>
</g>
<!-- Node53 -->
<g id="node21" class="node"><title>Node53</title>
<g id="a_node21"><a xlink:href="_n_f_c_scene_process_module_8h.html" target="_top" xlink:title="NFCSceneProcessModule.h">
<polygon fill="white" stroke="black" points="1700,-73 1700,-92 1840,-92 1840,-73 1700,-73"/>
<text text-anchor="middle" x="1770" y="-80" font-family="Helvetica,sans-Serif" font-size="10.00">NFCSceneProcessModule.h</text>
</a>
</g>
</g>
<!-- Node33&#45;&gt;Node53 -->
<g id="edge20" class="edge"><title>Node33&#45;&gt;Node53</title>
<path fill="none" stroke="midnightblue" d="M1975.08,-132.114C1926.36,-120.565 1850.41,-102.561 1805.9,-92.0091"/>
<polygon fill="midnightblue" stroke="midnightblue" points="1974.5,-135.574 1985.04,-134.475 1976.11,-128.763 1974.5,-135.574"/>
</g>
<!-- Node55 -->
<g id="node23" class="node"><title>Node55</title>
<g id="a_node23"><a xlink:href="_n_f_c_login_to_master_module_8h.html" target="_top" xlink:title="NFCLoginToMasterModule.h">
<polygon fill="white" stroke="black" points="2028,-73 2028,-92 2168,-92 2168,-73 2028,-73"/>
<text text-anchor="middle" x="2098" y="-80" font-family="Helvetica,sans-Serif" font-size="10.00">NFCLoginToMasterModule.h</text>
</a>
</g>
</g>
<!-- Node33&#45;&gt;Node55 -->
<g id="edge23" class="edge"><title>Node33&#45;&gt;Node55</title>
<path fill="none" stroke="midnightblue" d="M2040.03,-128.294C2054.8,-116.88 2074.76,-101.458 2086.99,-92.0091"/>
<polygon fill="midnightblue" stroke="midnightblue" points="2037.81,-125.591 2032.03,-134.475 2042.09,-131.13 2037.81,-125.591"/>
</g>
<!-- Node58 -->
<g id="node26" class="node"><title>Node58</title>
<g id="a_node26"><a xlink:href="_n_f_c_login_net___server_module_8h.html" target="_top" xlink:title="NFCLoginNet_ServerModule.h">
<polygon fill="white" stroke="black" points="2358,-73 2358,-92 2504,-92 2504,-73 2358,-73"/>
<text text-anchor="middle" x="2431" y="-80" font-family="Helvetica,sans-Serif" font-size="10.00">NFCLoginNet_ServerModule.h</text>
</a>
</g>
</g>
<!-- Node33&#45;&gt;Node58 -->
<g id="edge26" class="edge"><title>Node33&#45;&gt;Node58</title>
<path fill="none" stroke="midnightblue" d="M2074.85,-135.186C2151.82,-124.015 2292.77,-103.56 2372.33,-92.015"/>
<polygon fill="midnightblue" stroke="midnightblue" points="2074.27,-131.732 2064.88,-136.632 2075.28,-138.66 2074.27,-131.732"/>
</g>
<!-- Node61 -->
<g id="node29" class="node"><title>Node61</title>
<g id="a_node29"><a xlink:href="_n_f_c_master_net___server_module_8h.html" target="_top" xlink:title="NFCMasterNet_ServerModule.h">
<polygon fill="white" stroke="black" points="2697.5,-73 2697.5,-92 2850.5,-92 2850.5,-73 2697.5,-73"/>
<text text-anchor="middle" x="2774" y="-80" font-family="Helvetica,sans-Serif" font-size="10.00">NFCMasterNet_ServerModule.h</text>
</a>
</g>
</g>
<!-- Node33&#45;&gt;Node61 -->
<g id="edge29" class="edge"><title>Node33&#45;&gt;Node61</title>
<path fill="none" stroke="midnightblue" d="M2074.98,-138.735C2206.71,-128.326 2544.99,-101.596 2697.46,-89.5483"/>
<polygon fill="midnightblue" stroke="midnightblue" points="2074.43,-135.267 2064.74,-139.544 2074.98,-142.245 2074.43,-135.267"/>
</g>
<!-- Node64 -->
<g id="node32" class="node"><title>Node64</title>
<g id="a_node32"><a xlink:href="_n_f_c_proxy_server_to_game_module_8h.html" target="_top" xlink:title="NFCProxyServerToGameModule.h">
<polygon fill="white" stroke="black" points="3049.5,-73 3049.5,-92 3214.5,-92 3214.5,-73 3049.5,-73"/>
<text text-anchor="middle" x="3132" y="-80" font-family="Helvetica,sans-Serif" font-size="10.00">NFCProxyServerToGameModule.h</text>
</a>
</g>
</g>
<!-- Node33&#45;&gt;Node64 -->
<g id="edge32" class="edge"><title>Node33&#45;&gt;Node64</title>
<path fill="none" stroke="midnightblue" d="M2074.79,-140.119C2254.13,-130.515 2832.53,-99.5382 3049.11,-87.9394"/>
<polygon fill="midnightblue" stroke="midnightblue" points="2074.35,-136.638 2064.55,-140.668 2074.73,-143.628 2074.35,-136.638"/>
</g>
<!-- Node67 -->
<g id="node35" class="node"><title>Node67</title>
<g id="a_node35"><a xlink:href="_n_f_c_proxy_server_to_world_module_8h.html" target="_top" xlink:title="NFCProxyServerToWorldModule.h">
<polygon fill="white" stroke="black" points="3243,-73 3243,-92 3407,-92 3407,-73 3243,-73"/>
<text text-anchor="middle" x="3325" y="-80" font-family="Helvetica,sans-Serif" font-size="10.00">NFCProxyServerToWorldModule.h</text>
</a>
</g>
</g>
<!-- Node33&#45;&gt;Node67 -->
<g id="edge35" class="edge"><title>Node33&#45;&gt;Node67</title>
<path fill="none" stroke="midnightblue" d="M2074.92,-142.973C2244.33,-142.46 2780.91,-137.591 3223,-98 3239.12,-96.5562 3256.59,-94.321 3272.44,-92.0346"/>
<polygon fill="midnightblue" stroke="midnightblue" points="2074.76,-139.473 2064.77,-142.999 2074.77,-146.473 2074.76,-139.473"/>
</g>
<!-- Node69 -->
<g id="node37" class="node"><title>Node69</title>
<g id="a_node37"><a xlink:href="_n_f_c_proxy_server_net___server_module_8h.html" target="_top" xlink:title="NFCProxyServerNet_Server\lModule.h">
<polygon fill="white" stroke="black" points="3623,-67.5 3623,-97.5 3759,-97.5 3759,-67.5 3623,-67.5"/>
<text text-anchor="start" x="3631" y="-85.5" font-family="Helvetica,sans-Serif" font-size="10.00">NFCProxyServerNet_Server</text>
<text text-anchor="middle" x="3691" y="-74.5" font-family="Helvetica,sans-Serif" font-size="10.00">Module.h</text>
</a>
</g>
</g>
<!-- Node33&#45;&gt;Node69 -->
<g id="edge38" class="edge"><title>Node33&#45;&gt;Node69</title>
<path fill="none" stroke="midnightblue" d="M2074.76,-141.661C2260.67,-136.948 2893.57,-120.197 3416,-98 3486.57,-95.0014 3567.29,-90.6341 3622.93,-87.4769"/>
<polygon fill="midnightblue" stroke="midnightblue" points="2074.6,-138.164 2064.7,-141.916 2074.78,-145.162 2074.6,-138.164"/>
</g>
<!-- Node72 -->
<g id="node40" class="node"><title>Node72</title>
<g id="a_node40"><a xlink:href="_n_f_c_world_to_master_module_8h.html" target="_top" xlink:title="NFCWorldToMasterModule.h">
<polygon fill="white" stroke="black" points="3976,-73 3976,-92 4118,-92 4118,-73 3976,-73"/>
<text text-anchor="middle" x="4047" y="-80" font-family="Helvetica,sans-Serif" font-size="10.00">NFCWorldToMasterModule.h</text>
</a>
</g>
</g>
<!-- Node33&#45;&gt;Node72 -->
<g id="edge41" class="edge"><title>Node33&#45;&gt;Node72</title>
<path fill="none" stroke="midnightblue" d="M2074.58,-142.131C2288.24,-138.558 3100.21,-123.949 3768,-98 3838.76,-95.2504 3919.56,-90.9208 3975.93,-87.7078"/>
<polygon fill="midnightblue" stroke="midnightblue" points="2074.5,-138.632 2064.56,-142.298 2074.62,-145.631 2074.5,-138.632"/>
</g>
<!-- Node75 -->
<g id="node43" class="node"><title>Node75</title>
<g id="a_node43"><a xlink:href="_n_f_c_world_net___server_module_8h.html" target="_top" xlink:title="NFCWorldNet_ServerModule.h">
<polygon fill="white" stroke="black" points="4310.5,-73 4310.5,-92 4459.5,-92 4459.5,-73 4310.5,-73"/>
<text text-anchor="middle" x="4385" y="-80" font-family="Helvetica,sans-Serif" font-size="10.00">NFCWorldNet_ServerModule.h</text>
</a>
</g>
</g>
<!-- Node33&#45;&gt;Node75 -->
<g id="edge44" class="edge"><title>Node33&#45;&gt;Node75</title>
<path fill="none" stroke="midnightblue" d="M2074.95,-142.537C2315.04,-140.333 3310.52,-129.657 4127,-98 4188.75,-95.6057 4258.75,-91.5898 4310.24,-88.3907"/>
<polygon fill="midnightblue" stroke="midnightblue" points="2074.71,-139.039 2064.75,-142.63 2074.78,-146.039 2074.71,-139.039"/>
</g>
<!-- Node35 -->
<g id="node3" class="node"><title>Node35</title>
<g id="a_node3"><a xlink:href="_n_f_c_kernel_module_8cpp.html" target="_top" xlink:title="NFCKernelModule.cpp">
<polygon fill="white" stroke="black" points="0,-6 0,-25 114,-25 114,-6 0,-6"/>
<text text-anchor="middle" x="57" y="-13" font-family="Helvetica,sans-Serif" font-size="10.00">NFCKernelModule.cpp</text>
</a>
</g>
</g>
<!-- Node34&#45;&gt;Node35 -->
<g id="edge2" class="edge"><title>Node34&#45;&gt;Node35</title>
<path fill="none" stroke="midnightblue" d="M158.158,-68.2739C133.004,-55.3999 95.5076,-36.2086 73.9344,-25.1672"/>
<polygon fill="midnightblue" stroke="midnightblue" points="156.639,-71.428 167.135,-72.8685 159.828,-65.1968 156.639,-71.428"/>
</g>
<!-- Node36 -->
<g id="node4" class="node"><title>Node36</title>
<g id="a_node4"><a xlink:href="_n_f_kernel_plugin_8cpp.html" target="_top" xlink:title="NFKernelPlugin.cpp">
<polygon fill="white" stroke="black" points="132.5,-6 132.5,-25 235.5,-25 235.5,-6 132.5,-6"/>
<text text-anchor="middle" x="184" y="-13" font-family="Helvetica,sans-Serif" font-size="10.00">NFKernelPlugin.cpp</text>
</a>
</g>
</g>
<!-- Node34&#45;&gt;Node36 -->
<g id="edge3" class="edge"><title>Node34&#45;&gt;Node36</title>
<path fill="none" stroke="midnightblue" d="M184,-62.537C184,-50.1703 184,-34.6198 184,-25.1273"/>
<polygon fill="midnightblue" stroke="midnightblue" points="180.5,-62.7338 184,-72.7338 187.5,-62.7338 180.5,-62.7338"/>
</g>
<!-- Node38 -->
<g id="node6" class="node"><title>Node38</title>
<g id="a_node6"><a xlink:href="_n_f_c_log_module_8cpp.html" target="_top" xlink:title="NFCLogModule.cpp">
<polygon fill="white" stroke="black" points="254,-6 254,-25 356,-25 356,-6 254,-6"/>
<text text-anchor="middle" x="305" y="-13" font-family="Helvetica,sans-Serif" font-size="10.00">NFCLogModule.cpp</text>
</a>
</g>
</g>
<!-- Node37&#45;&gt;Node38 -->
<g id="edge5" class="edge"><title>Node37&#45;&gt;Node38</title>
<path fill="none" stroke="midnightblue" d="M395.739,-67.7872C372.947,-54.9047 339.543,-36.0243 320.264,-25.1273"/>
<polygon fill="midnightblue" stroke="midnightblue" points="394.063,-70.8602 404.491,-72.7338 397.507,-64.7662 394.063,-70.8602"/>
</g>
<!-- Node39 -->
<g id="node7" class="node"><title>Node39</title>
<g id="a_node7"><a xlink:href="_n_f_log_plugin_8cpp.html" target="_top" xlink:title="NFLogPlugin.cpp">
<polygon fill="white" stroke="black" points="374.5,-6 374.5,-25 465.5,-25 465.5,-6 374.5,-6"/>
<text text-anchor="middle" x="420" y="-13" font-family="Helvetica,sans-Serif" font-size="10.00">NFLogPlugin.cpp</text>
</a>
</g>
</g>
<!-- Node37&#45;&gt;Node39 -->
<g id="edge6" class="edge"><title>Node37&#45;&gt;Node39</title>
<path fill="none" stroke="midnightblue" d="M420,-62.537C420,-50.1703 420,-34.6198 420,-25.1273"/>
<polygon fill="midnightblue" stroke="midnightblue" points="416.5,-62.7338 420,-72.7338 423.5,-62.7338 416.5,-62.7338"/>
</g>
<!-- Node41 -->
<g id="node9" class="node"><title>Node41</title>
<g id="a_node9"><a xlink:href="_n_f_c_game_server_to_world_module_8cpp.html" target="_top" xlink:title="NFCGameServerToWorldModule.cpp">
<polygon fill="white" stroke="black" points="484,-6 484,-25 660,-25 660,-6 484,-6"/>
<text text-anchor="middle" x="572" y="-13" font-family="Helvetica,sans-Serif" font-size="10.00">NFCGameServerToWorldModule.cpp</text>
</a>
</g>
</g>
<!-- Node40&#45;&gt;Node41 -->
<g id="edge8" class="edge"><title>Node40&#45;&gt;Node41</title>
<path fill="none" stroke="midnightblue" d="M729.67,-69.6013C691.404,-56.7138 631.304,-36.4728 597.428,-25.0637"/>
<polygon fill="midnightblue" stroke="midnightblue" points="728.777,-72.9937 739.371,-72.8685 731.011,-66.3598 728.777,-72.9937"/>
</g>
<!-- Node42 -->
<g id="node10" class="node"><title>Node42</title>
<g id="a_node10"><a xlink:href="_n_f_game_server_net___client_plugin_8cpp.html" target="_top" xlink:title="NFGameServerNet_ClientPlugin.cpp">
<polygon fill="white" stroke="black" points="678.5,-6 678.5,-25 851.5,-25 851.5,-6 678.5,-6"/>
<text text-anchor="middle" x="765" y="-13" font-family="Helvetica,sans-Serif" font-size="10.00">NFGameServerNet_ClientPlugin.cpp</text>
</a>
</g>
</g>
<!-- Node40&#45;&gt;Node42 -->
<g id="edge9" class="edge"><title>Node40&#45;&gt;Node42</title>
<path fill="none" stroke="midnightblue" d="M765,-62.537C765,-50.1703 765,-34.6198 765,-25.1273"/>
<polygon fill="midnightblue" stroke="midnightblue" points="761.5,-62.7338 765,-72.7338 768.5,-62.7338 761.5,-62.7338"/>
</g>
<!-- Node44 -->
<g id="node12" class="node"><title>Node44</title>
<g id="a_node12"><a xlink:href="_n_f_c_game_server_net___server_module_8cpp.html" target="_top" xlink:title="NFCGameServerNet_ServerModule.cpp">
<polygon fill="white" stroke="black" points="869.5,-6 869.5,-25 1056.5,-25 1056.5,-6 869.5,-6"/>
<text text-anchor="middle" x="963" y="-13" font-family="Helvetica,sans-Serif" font-size="10.00">NFCGameServerNet_ServerModule.cpp</text>
</a>
</g>
</g>
<!-- Node43&#45;&gt;Node44 -->
<g id="edge11" class="edge"><title>Node43&#45;&gt;Node44</title>
<path fill="none" stroke="midnightblue" d="M1126.89,-69.7654C1087.27,-56.8862 1024.6,-36.5214 989.35,-25.0637"/>
<polygon fill="midnightblue" stroke="midnightblue" points="1125.85,-73.1062 1136.44,-72.8685 1128.01,-66.449 1125.85,-73.1062"/>
</g>
<!-- Node45 -->
<g id="node13" class="node"><title>Node45</title>
<g id="a_node13"><a xlink:href="_n_f_game_server_net___server_plugin_8cpp.html" target="_top" xlink:title="NFGameServerNet_ServerPlugin.cpp">
<polygon fill="white" stroke="black" points="1075,-6 1075,-25 1251,-25 1251,-6 1075,-6"/>
<text text-anchor="middle" x="1163" y="-13" font-family="Helvetica,sans-Serif" font-size="10.00">NFGameServerNet_ServerPlugin.cpp</text>
</a>
</g>
</g>
<!-- Node43&#45;&gt;Node45 -->
<g id="edge12" class="edge"><title>Node43&#45;&gt;Node45</title>
<path fill="none" stroke="midnightblue" d="M1163,-62.537C1163,-50.1703 1163,-34.6198 1163,-25.1273"/>
<polygon fill="midnightblue" stroke="midnightblue" points="1159.5,-62.7338 1163,-72.7338 1166.5,-62.7338 1159.5,-62.7338"/>
</g>
<!-- Node47 -->
<g id="node15" class="node"><title>Node47</title>
<g id="a_node15"><a xlink:href="_n_f_c_event_route_module_8cpp.html" target="_top" xlink:title="NFCEventRouteModule.cpp">
<polygon fill="white" stroke="black" points="1269,-6 1269,-25 1405,-25 1405,-6 1269,-6"/>
<text text-anchor="middle" x="1337" y="-13" font-family="Helvetica,sans-Serif" font-size="10.00">NFCEventRouteModule.cpp</text>
</a>
</g>
</g>
<!-- Node46&#45;&gt;Node47 -->
<g id="edge14" class="edge"><title>Node46&#45;&gt;Node47</title>
<path fill="none" stroke="midnightblue" d="M1392.43,-65.8564C1378.08,-53.0777 1358.33,-35.4915 1346.69,-25.1273"/>
<polygon fill="midnightblue" stroke="midnightblue" points="1390.36,-68.6978 1400.15,-72.7338 1395.01,-63.4698 1390.36,-68.6978"/>
</g>
<!-- Node49 -->
<g id="node17" class="node"><title>Node49</title>
<g id="a_node17"><a xlink:href="_n_f_c_level_module_8cpp.html" target="_top" xlink:title="NFCLevelModule.cpp">
<polygon fill="white" stroke="black" points="1423,-6 1423,-25 1531,-25 1531,-6 1423,-6"/>
<text text-anchor="middle" x="1477" y="-13" font-family="Helvetica,sans-Serif" font-size="10.00">NFCLevelModule.cpp</text>
</a>
</g>
</g>
<!-- Node48&#45;&gt;Node49 -->
<g id="edge16" class="edge"><title>Node48&#45;&gt;Node49</title>
<path fill="none" stroke="midnightblue" d="M1585.68,-68.4436C1558.74,-55.5691 1518.34,-36.2573 1495.13,-25.1672"/>
<polygon fill="midnightblue" stroke="midnightblue" points="1584.41,-71.7141 1594.94,-72.8685 1587.43,-65.3984 1584.41,-71.7141"/>
</g>
<!-- Node50 -->
<g id="node18" class="node"><title>Node50</title>
<g id="a_node18"><a xlink:href="_n_f_game_server_plugin_8cpp.html" target="_top" xlink:title="NFGameServerPlugin.cpp">
<polygon fill="white" stroke="black" points="1549,-6 1549,-25 1677,-25 1677,-6 1549,-6"/>
<text text-anchor="middle" x="1613" y="-13" font-family="Helvetica,sans-Serif" font-size="10.00">NFGameServerPlugin.cpp</text>
</a>
</g>
</g>
<!-- Node48&#45;&gt;Node50 -->
<g id="edge17" class="edge"><title>Node48&#45;&gt;Node50</title>
<path fill="none" stroke="midnightblue" d="M1613,-62.537C1613,-50.1703 1613,-34.6198 1613,-25.1273"/>
<polygon fill="midnightblue" stroke="midnightblue" points="1609.5,-62.7338 1613,-72.7338 1616.5,-62.7338 1609.5,-62.7338"/>
</g>
<!-- Node52 -->
<g id="node20" class="node"><title>Node52</title>
<g id="a_node20"><a xlink:href="_n_f_c_property_trail_module_8cpp.html" target="_top" xlink:title="NFCPropertyTrailModule.cpp">
<polygon fill="white" stroke="black" points="1863.5,-6 1863.5,-25 2004.5,-25 2004.5,-6 1863.5,-6"/>
<text text-anchor="middle" x="1934" y="-13" font-family="Helvetica,sans-Serif" font-size="10.00">NFCPropertyTrailModule.cpp</text>
</a>
</g>
</g>
<!-- Node51&#45;&gt;Node52 -->
<g id="edge19" class="edge"><title>Node51&#45;&gt;Node52</title>
<path fill="none" stroke="midnightblue" d="M1937.54,-62.537C1936.59,-50.1703 1935.39,-34.6198 1934.66,-25.1273"/>
<polygon fill="midnightblue" stroke="midnightblue" points="1934.07,-63.0317 1938.33,-72.7338 1941.05,-62.4948 1934.07,-63.0317"/>
</g>
<!-- Node53&#45;&gt;Node50 -->
<g id="edge22" class="edge"><title>Node53&#45;&gt;Node50</title>
<path fill="none" stroke="midnightblue" d="M1739.68,-68.9485C1708.6,-56.0787 1661.07,-36.4032 1633.93,-25.1672"/>
<polygon fill="midnightblue" stroke="midnightblue" points="1738.57,-72.277 1749.15,-72.8685 1741.25,-65.8094 1738.57,-72.277"/>
</g>
<!-- Node54 -->
<g id="node22" class="node"><title>Node54</title>
<g id="a_node22"><a xlink:href="_n_f_c_scene_process_module_8cpp.html" target="_top" xlink:title="NFCSceneProcessModule.cpp">
<polygon fill="white" stroke="black" points="1695,-6 1695,-25 1845,-25 1845,-6 1695,-6"/>
<text text-anchor="middle" x="1770" y="-13" font-family="Helvetica,sans-Serif" font-size="10.00">NFCSceneProcessModule.cpp</text>
</a>
</g>
</g>
<!-- Node53&#45;&gt;Node54 -->
<g id="edge21" class="edge"><title>Node53&#45;&gt;Node54</title>
<path fill="none" stroke="midnightblue" d="M1770,-62.537C1770,-50.1703 1770,-34.6198 1770,-25.1273"/>
<polygon fill="midnightblue" stroke="midnightblue" points="1766.5,-62.7338 1770,-72.7338 1773.5,-62.7338 1766.5,-62.7338"/>
</g>
<!-- Node56 -->
<g id="node24" class="node"><title>Node56</title>
<g id="a_node24"><a xlink:href="_n_f_c_login_to_master_module_8cpp.html" target="_top" xlink:title="NFCLoginToMasterModule.cpp">
<polygon fill="white" stroke="black" points="2023,-6 2023,-25 2173,-25 2173,-6 2023,-6"/>
<text text-anchor="middle" x="2098" y="-13" font-family="Helvetica,sans-Serif" font-size="10.00">NFCLoginToMasterModule.cpp</text>
</a>
</g>
</g>
<!-- Node55&#45;&gt;Node56 -->
<g id="edge24" class="edge"><title>Node55&#45;&gt;Node56</title>
<path fill="none" stroke="midnightblue" d="M2098,-62.537C2098,-50.1703 2098,-34.6198 2098,-25.1273"/>
<polygon fill="midnightblue" stroke="midnightblue" points="2094.5,-62.7338 2098,-72.7338 2101.5,-62.7338 2094.5,-62.7338"/>
</g>
<!-- Node57 -->
<g id="node25" class="node"><title>Node57</title>
<g id="a_node25"><a xlink:href="_n_f_login_net___client_plugin_8cpp.html" target="_top" xlink:title="NFLoginNet_ClientPlugin.cpp">
<polygon fill="white" stroke="black" points="2191.5,-6 2191.5,-25 2334.5,-25 2334.5,-6 2191.5,-6"/>
<text text-anchor="middle" x="2263" y="-13" font-family="Helvetica,sans-Serif" font-size="10.00">NFLoginNet_ClientPlugin.cpp</text>
</a>
</g>
</g>
<!-- Node55&#45;&gt;Node57 -->
<g id="edge25" class="edge"><title>Node55&#45;&gt;Node57</title>
<path fill="none" stroke="midnightblue" d="M2129.47,-69.1041C2162.23,-56.1984 2212.67,-36.3272 2241.26,-25.0637"/>
<polygon fill="midnightblue" stroke="midnightblue" points="2127.93,-65.9468 2119.91,-72.8685 2130.5,-72.4596 2127.93,-65.9468"/>
</g>
<!-- Node59 -->
<g id="node27" class="node"><title>Node59</title>
<g id="a_node27"><a xlink:href="_n_f_c_login_net___server_module_8cpp.html" target="_top" xlink:title="NFCLoginNet_ServerModule.cpp">
<polygon fill="white" stroke="black" points="2352.5,-6 2352.5,-25 2509.5,-25 2509.5,-6 2352.5,-6"/>
<text text-anchor="middle" x="2431" y="-13" font-family="Helvetica,sans-Serif" font-size="10.00">NFCLoginNet_ServerModule.cpp</text>
</a>
</g>
</g>
<!-- Node58&#45;&gt;Node59 -->
<g id="edge27" class="edge"><title>Node58&#45;&gt;Node59</title>
<path fill="none" stroke="midnightblue" d="M2431,-62.537C2431,-50.1703 2431,-34.6198 2431,-25.1273"/>
<polygon fill="midnightblue" stroke="midnightblue" points="2427.5,-62.7338 2431,-72.7338 2434.5,-62.7338 2427.5,-62.7338"/>
</g>
<!-- Node60 -->
<g id="node28" class="node"><title>Node60</title>
<g id="a_node28"><a xlink:href="_n_f_login_net___server_plugin_8cpp.html" target="_top" xlink:title="NFLoginNet_ServerPlugin.cpp">
<polygon fill="white" stroke="black" points="2528,-6 2528,-25 2674,-25 2674,-6 2528,-6"/>
<text text-anchor="middle" x="2601" y="-13" font-family="Helvetica,sans-Serif" font-size="10.00">NFLoginNet_ServerPlugin.cpp</text>
</a>
</g>
</g>
<!-- Node58&#45;&gt;Node60 -->
<g id="edge28" class="edge"><title>Node58&#45;&gt;Node60</title>
<path fill="none" stroke="midnightblue" d="M2462.98,-69.2706C2496.72,-56.3699 2549.02,-36.3757 2578.6,-25.0637"/>
<polygon fill="midnightblue" stroke="midnightblue" points="2461.67,-66.0279 2453.57,-72.8685 2464.17,-72.5662 2461.67,-66.0279"/>
</g>
<!-- Node62 -->
<g id="node30" class="node"><title>Node62</title>
<g id="a_node30"><a xlink:href="_n_f_c_master_net___server_module_8cpp.html" target="_top" xlink:title="NFCMasterNet_ServerModule.cpp">
<polygon fill="white" stroke="black" points="2692,-6 2692,-25 2856,-25 2856,-6 2692,-6"/>
<text text-anchor="middle" x="2774" y="-13" font-family="Helvetica,sans-Serif" font-size="10.00">NFCMasterNet_ServerModule.cpp</text>
</a>
</g>
</g>
<!-- Node61&#45;&gt;Node62 -->
<g id="edge30" class="edge"><title>Node61&#45;&gt;Node62</title>
<path fill="none" stroke="midnightblue" d="M2774,-62.537C2774,-50.1703 2774,-34.6198 2774,-25.1273"/>
<polygon fill="midnightblue" stroke="midnightblue" points="2770.5,-62.7338 2774,-72.7338 2777.5,-62.7338 2770.5,-62.7338"/>
</g>
<!-- Node63 -->
<g id="node31" class="node"><title>Node63</title>
<g id="a_node31"><a xlink:href="_n_f_master_net___server_plugin_8cpp.html" target="_top" xlink:title="NFMasterNet_ServerPlugin.cpp">
<polygon fill="white" stroke="black" points="2874,-6 2874,-25 3026,-25 3026,-6 2874,-6"/>
<text text-anchor="middle" x="2950" y="-13" font-family="Helvetica,sans-Serif" font-size="10.00">NFMasterNet_ServerPlugin.cpp</text>
</a>
</g>
</g>
<!-- Node61&#45;&gt;Node63 -->
<g id="edge31" class="edge"><title>Node61&#45;&gt;Node63</title>
<path fill="none" stroke="midnightblue" d="M2807.11,-69.2706C2842.04,-56.3699 2896.18,-36.3757 2926.81,-25.0637"/>
<polygon fill="midnightblue" stroke="midnightblue" points="2805.54,-66.1207 2797.37,-72.8685 2807.96,-72.6872 2805.54,-66.1207"/>
</g>
<!-- Node65 -->
<g id="node33" class="node"><title>Node65</title>
<g id="a_node33"><a xlink:href="_n_f_c_proxy_server_to_game_module_8cpp.html" target="_top" xlink:title="NFCProxyServerToGameModule.cpp">
<polygon fill="white" stroke="black" points="3044,-6 3044,-25 3220,-25 3220,-6 3044,-6"/>
<text text-anchor="middle" x="3132" y="-13" font-family="Helvetica,sans-Serif" font-size="10.00">NFCProxyServerToGameModule.cpp</text>
</a>
</g>
</g>
<!-- Node64&#45;&gt;Node65 -->
<g id="edge33" class="edge"><title>Node64&#45;&gt;Node65</title>
<path fill="none" stroke="midnightblue" d="M3132,-62.537C3132,-50.1703 3132,-34.6198 3132,-25.1273"/>
<polygon fill="midnightblue" stroke="midnightblue" points="3128.5,-62.7338 3132,-72.7338 3135.5,-62.7338 3128.5,-62.7338"/>
</g>
<!-- Node66 -->
<g id="node34" class="node"><title>Node66</title>
<g id="a_node34"><a xlink:href="_n_f_proxy_server_net___client_plugin_8cpp.html" target="_top" xlink:title="NFProxyServerNet_ClientPlugin.cpp">
<polygon fill="white" stroke="black" points="3238.5,-6 3238.5,-25 3411.5,-25 3411.5,-6 3238.5,-6"/>
<text text-anchor="middle" x="3325" y="-13" font-family="Helvetica,sans-Serif" font-size="10.00">NFProxyServerNet_ClientPlugin.cpp</text>
</a>
</g>
</g>
<!-- Node64&#45;&gt;Node66 -->
<g id="edge34" class="edge"><title>Node64&#45;&gt;Node66</title>
<path fill="none" stroke="midnightblue" d="M3167.33,-69.6013C3205.6,-56.7138 3265.7,-36.4728 3299.57,-25.0637"/>
<polygon fill="midnightblue" stroke="midnightblue" points="3165.99,-66.3598 3157.63,-72.8685 3168.22,-72.9937 3165.99,-66.3598"/>
</g>
<!-- Node67&#45;&gt;Node66 -->
<g id="edge37" class="edge"><title>Node67&#45;&gt;Node66</title>
<path fill="none" stroke="midnightblue" d="M3325,-62.537C3325,-50.1703 3325,-34.6198 3325,-25.1273"/>
<polygon fill="midnightblue" stroke="midnightblue" points="3321.5,-62.7338 3325,-72.7338 3328.5,-62.7338 3321.5,-62.7338"/>
</g>
<!-- Node68 -->
<g id="node36" class="node"><title>Node68</title>
<g id="a_node36"><a xlink:href="_n_f_c_proxy_server_to_world_module_8cpp.html" target="_top" xlink:title="NFCProxyServerToWorldModule.cpp">
<polygon fill="white" stroke="black" points="3429.5,-6 3429.5,-25 3604.5,-25 3604.5,-6 3429.5,-6"/>
<text text-anchor="middle" x="3517" y="-13" font-family="Helvetica,sans-Serif" font-size="10.00">NFCProxyServerToWorldModule.cpp</text>
</a>
</g>
</g>
<!-- Node67&#45;&gt;Node68 -->
<g id="edge36" class="edge"><title>Node67&#45;&gt;Node68</title>
<path fill="none" stroke="midnightblue" d="M3360.15,-69.6013C3398.21,-56.7138 3458,-36.4728 3491.7,-25.0637"/>
<polygon fill="midnightblue" stroke="midnightblue" points="3358.85,-66.3466 3350.5,-72.8685 3361.09,-72.977 3358.85,-66.3466"/>
</g>
<!-- Node70 -->
<g id="node38" class="node"><title>Node70</title>
<g id="a_node38"><a xlink:href="_n_f_c_proxy_server_net___server_module_8cpp.html" target="_top" xlink:title="NFCProxyServerNet_Server\lModule.cpp">
<polygon fill="white" stroke="black" points="3623,-0.5 3623,-30.5 3759,-30.5 3759,-0.5 3623,-0.5"/>
<text text-anchor="start" x="3631" y="-18.5" font-family="Helvetica,sans-Serif" font-size="10.00">NFCProxyServerNet_Server</text>
<text text-anchor="middle" x="3691" y="-7.5" font-family="Helvetica,sans-Serif" font-size="10.00">Module.cpp</text>
</a>
</g>
</g>
<!-- Node69&#45;&gt;Node70 -->
<g id="edge39" class="edge"><title>Node69&#45;&gt;Node70</title>
<path fill="none" stroke="midnightblue" d="M3691,-57.1081C3691,-48.1539 3691,-38.3227 3691,-30.5765"/>
<polygon fill="midnightblue" stroke="midnightblue" points="3687.5,-57.3959 3691,-67.396 3694.5,-57.396 3687.5,-57.3959"/>
</g>
<!-- Node71 -->
<g id="node39" class="node"><title>Node71</title>
<g id="a_node39"><a xlink:href="_n_f_proxy_server_net___server_plugin_8cpp.html" target="_top" xlink:title="NFProxyServerNet_ServerPlugin.cpp">
<polygon fill="white" stroke="black" points="3777.5,-6 3777.5,-25 3952.5,-25 3952.5,-6 3777.5,-6"/>
<text text-anchor="middle" x="3865" y="-13" font-family="Helvetica,sans-Serif" font-size="10.00">NFProxyServerNet_ServerPlugin.cpp</text>
</a>
</g>
</g>
<!-- Node69&#45;&gt;Node71 -->
<g id="edge40" class="edge"><title>Node69&#45;&gt;Node71</title>
<path fill="none" stroke="midnightblue" d="M3738.42,-63.7838C3772.16,-51.1807 3815.99,-34.8082 3842.23,-25.007"/>
<polygon fill="midnightblue" stroke="midnightblue" points="3736.9,-60.6178 3728.76,-67.396 3739.35,-67.1752 3736.9,-60.6178"/>
</g>
<!-- Node73 -->
<g id="node41" class="node"><title>Node73</title>
<g id="a_node41"><a xlink:href="_n_f_c_world_to_master_module_8cpp.html" target="_top" xlink:title="NFCWorldToMasterModule.cpp">
<polygon fill="white" stroke="black" points="3971,-6 3971,-25 4123,-25 4123,-6 3971,-6"/>
<text text-anchor="middle" x="4047" y="-13" font-family="Helvetica,sans-Serif" font-size="10.00">NFCWorldToMasterModule.cpp</text>
</a>
</g>
</g>
<!-- Node72&#45;&gt;Node73 -->
<g id="edge42" class="edge"><title>Node72&#45;&gt;Node73</title>
<path fill="none" stroke="midnightblue" d="M4047,-62.537C4047,-50.1703 4047,-34.6198 4047,-25.1273"/>
<polygon fill="midnightblue" stroke="midnightblue" points="4043.5,-62.7338 4047,-72.7338 4050.5,-62.7338 4043.5,-62.7338"/>
</g>
<!-- Node74 -->
<g id="node42" class="node"><title>Node74</title>
<g id="a_node42"><a xlink:href="_n_f_world_net___client_plugin_8cpp.html" target="_top" xlink:title="NFWorldNet_ClientPlugin.cpp">
<polygon fill="white" stroke="black" points="4141,-6 4141,-25 4287,-25 4287,-6 4141,-6"/>
<text text-anchor="middle" x="4214" y="-13" font-family="Helvetica,sans-Serif" font-size="10.00">NFWorldNet_ClientPlugin.cpp</text>
</a>
</g>
</g>
<!-- Node72&#45;&gt;Node74 -->
<g id="edge43" class="edge"><title>Node72&#45;&gt;Node74</title>
<path fill="none" stroke="midnightblue" d="M4078.85,-69.1041C4112.01,-56.1984 4163.06,-36.3272 4192,-25.0637"/>
<polygon fill="midnightblue" stroke="midnightblue" points="4077.23,-65.9796 4069.18,-72.8685 4079.76,-72.5029 4077.23,-65.9796"/>
</g>
<!-- Node76 -->
<g id="node44" class="node"><title>Node76</title>
<g id="a_node44"><a xlink:href="_n_f_c_world_net___server_module_8cpp.html" target="_top" xlink:title="NFCWorldNet_ServerModule.cpp">
<polygon fill="white" stroke="black" points="4305.5,-6 4305.5,-25 4464.5,-25 4464.5,-6 4305.5,-6"/>
<text text-anchor="middle" x="4385" y="-13" font-family="Helvetica,sans-Serif" font-size="10.00">NFCWorldNet_ServerModule.cpp</text>
</a>
</g>
</g>
<!-- Node75&#45;&gt;Node76 -->
<g id="edge45" class="edge"><title>Node75&#45;&gt;Node76</title>
<path fill="none" stroke="midnightblue" d="M4385,-62.537C4385,-50.1703 4385,-34.6198 4385,-25.1273"/>
<polygon fill="midnightblue" stroke="midnightblue" points="4381.5,-62.7338 4385,-72.7338 4388.5,-62.7338 4381.5,-62.7338"/>
</g>
<!-- Node77 -->
<g id="node45" class="node"><title>Node77</title>
<g id="a_node45"><a xlink:href="_n_f_world_net___server_plugin_8cpp.html" target="_top" xlink:title="NFWorldNet_ServerPlugin.cpp">
<polygon fill="white" stroke="black" points="4483,-6 4483,-25 4631,-25 4631,-6 4483,-6"/>
<text text-anchor="middle" x="4557" y="-13" font-family="Helvetica,sans-Serif" font-size="10.00">NFWorldNet_ServerPlugin.cpp</text>
</a>
</g>
</g>
<!-- Node75&#45;&gt;Node77 -->
<g id="edge46" class="edge"><title>Node75&#45;&gt;Node77</title>
<path fill="none" stroke="midnightblue" d="M4417.36,-69.2706C4451.5,-56.3699 4504.41,-36.3757 4534.34,-25.0637"/>
<polygon fill="midnightblue" stroke="midnightblue" points="4415.96,-66.0594 4407.84,-72.8685 4418.43,-72.6074 4415.96,-66.0594"/>
</g>
</g>
</svg>
        <g id="navigator" transform="translate(0 0)" fill="#404254">
                <rect fill="#f2f5e9" fill-opacity="0.5" stroke="#606060" stroke-width=".5" x="0" y="0" width="60" height="60"/>
                <use id="zoomplus" xlink:href="#zoomPlus" x="17" y="9" onmousedown="handleZoom(evt,'in')"/>
                <use id="zoomminus" xlink:href="#zoomMin" x="42" y="9" onmousedown="handleZoom(evt,'out')"/>
                <use id="reset" xlink:href="#resetDef" x="30" y="36" onmousedown="handleReset()"/>
                <g id="arrowUp" xlink:href="#dirArrow" transform="translate(30 24)" onmousedown="handlePan(0,-1)">
                  <use xlink:href="#rim" fill="#404040">
                        <set attributeName="fill" to="#808080" begin="arrowUp.mouseover" end="arrowUp.mouseout"/>
                  </use>
                  <path fill="none" stroke="white" stroke-width="1.5" d="M0,-3.0v7 M-2.5,-0.5L0,-3.0L2.5,-0.5"/>
                </g>
                <g id="arrowRight" xlink:href="#dirArrow" transform="rotate(90) translate(36 -43)" onmousedown="handlePan(1,0)">
                  <use xlink:href="#rim" fill="#404040">
                        <set attributeName="fill" to="#808080" begin="arrowRight.mouseover" end="arrowRight.mouseout"/>
                  </use>
                  <path fill="none" stroke="white" stroke-width="1.5" d="M0,-3.0v7 M-2.5,-0.5L0,-3.0L2.5,-0.5"/>
                </g>
                <g id="arrowDown" xlink:href="#dirArrow" transform="rotate(180) translate(-30 -48)" onmousedown="handlePan(0,1)">
                  <use xlink:href="#rim" fill="#404040">
                        <set attributeName="fill" to="#808080" begin="arrowDown.mouseover" end="arrowDown.mouseout"/>
                  </use>
                  <path fill="none" stroke="white" stroke-width="1.5" d="M0,-3.0v7 M-2.5,-0.5L0,-3.0L2.5,-0.5"/>
                </g>
                <g id="arrowLeft" xlink:href="#dirArrow" transform="rotate(270) translate(-36 17)" onmousedown="handlePan(-1,0)">
                  <use xlink:href="#rim" fill="#404040">
                        <set attributeName="fill" to="#808080" begin="arrowLeft.mouseover" end="arrowLeft.mouseout"/>
                  </use>
                  <path fill="none" stroke="white" stroke-width="1.5" d="M0,-3.0v7 M-2.5,-0.5L0,-3.0L2.5,-0.5"/>
                </g>
        </g>
        <svg viewBox="0 0 15 15" width="100%" height="30px" preserveAspectRatio="xMaxYMin meet">
         <g id="arrow_out" transform="scale(0.3 0.3)">
          <a xlink:href="_n_f_i_log_module_8h__dep__incl_org.svg" target="_base">
           <rect id="button" ry="5" rx="5" y="6" x="6" height="38" width="38"
                fill="#f2f5e9" fill-opacity="0.5" stroke="#606060" stroke-width="1.0"/>
           <path id="arrow"
             d="M 11.500037,31.436501 C 11.940474,20.09759 22.043105,11.32322 32.158766,21.979434 L 37.068811,17.246167 C 37.068811,17.246167 37.088388,32 37.088388,32 L 22.160133,31.978069 C 22.160133,31.978069 26.997745,27.140456 26.997745,27.140456 C 18.528582,18.264221 13.291696,25.230495 11.500037,31.436501 z"
             style="fill:#404040;"/>
          </a>
         </g>
        </svg>
</svg>
