<?xml version="1.0" encoding="UTF-8" standalone="no"?>
<!DOCTYPE svg PUBLIC "-//W3C//DTD SVG 1.1//EN"
 "http://www.w3.org/Graphics/SVG/1.1/DTD/svg11.dtd">
<!-- Generated by graphviz version 2.38.0 (20140413.2041)
 -->
<!-- Title: NFIProxyLogicModule.h Pages: 1 -->
<svg width="871pt" height="140pt"
 viewBox="0.00 0.00 871.00 140.00" xmlns="http://www.w3.org/2000/svg" xmlns:xlink="http://www.w3.org/1999/xlink">
<g id="graph0" class="graph" transform="scale(1 1) rotate(0) translate(4 136)">
<title>NFIProxyLogicModule.h</title>
<polygon fill="white" stroke="none" points="-4,4 -4,-136 867,-136 867,4 -4,4"/>
<!-- Node33 -->
<g id="node1" class="node"><title>Node33</title>
<polygon fill="#bfbfbf" stroke="black" points="335.5,-112.5 335.5,-131.5 455.5,-131.5 455.5,-112.5 335.5,-112.5"/>
<text text-anchor="middle" x="395.5" y="-119.5" font-family="Helvetica,sans-Serif" font-size="10.00">NFIProxyLogicModule.h</text>
</g>
<!-- Node34 -->
<g id="node2" class="node"><title>Node34</title>
<g id="a_node2"><a xlink:href="_n_f_c_proxy_logic_module_8h.html" target="_top" xlink:title="NFCProxyLogicModule.h">
<polygon fill="white" stroke="black" points="156,-56.5 156,-75.5 281,-75.5 281,-56.5 156,-56.5"/>
<text text-anchor="middle" x="218.5" y="-63.5" font-family="Helvetica,sans-Serif" font-size="10.00">NFCProxyLogicModule.h</text>
</a>
</g>
</g>
<!-- Node33&#45;&gt;Node34 -->
<g id="edge1" class="edge"><title>Node33&#45;&gt;Node34</title>
<path fill="none" stroke="midnightblue" d="M357.597,-109.436C324.225,-99.2551 276.399,-84.664 246.415,-75.5164"/>
<polygon fill="midnightblue" stroke="midnightblue" points="356.868,-112.873 367.454,-112.444 358.91,-106.178 356.868,-112.873"/>
</g>
<!-- Node37 -->
<g id="node5" class="node"><title>Node37</title>
<g id="a_node5"><a xlink:href="_n_f_c_proxy_server_to_game_module_8h.html" target="_top" xlink:title="NFCProxyServerToGameModule.h">
<polygon fill="white" stroke="black" points="313,-56.5 313,-75.5 478,-75.5 478,-56.5 313,-56.5"/>
<text text-anchor="middle" x="395.5" y="-63.5" font-family="Helvetica,sans-Serif" font-size="10.00">NFCProxyServerToGameModule.h</text>
</a>
</g>
</g>
<!-- Node33&#45;&gt;Node37 -->
<g id="edge4" class="edge"><title>Node33&#45;&gt;Node37</title>
<path fill="none" stroke="midnightblue" d="M395.5,-101.805C395.5,-92.9102 395.5,-82.7798 395.5,-75.7511"/>
<polygon fill="midnightblue" stroke="midnightblue" points="392,-102.083 395.5,-112.083 399,-102.083 392,-102.083"/>
</g>
<!-- Node40 -->
<g id="node8" class="node"><title>Node40</title>
<g id="a_node8"><a xlink:href="_n_f_c_proxy_server_to_world_module_8h.html" target="_top" xlink:title="NFCProxyServerToWorldModule.h">
<polygon fill="white" stroke="black" points="501.5,-56.5 501.5,-75.5 665.5,-75.5 665.5,-56.5 501.5,-56.5"/>
<text text-anchor="middle" x="583.5" y="-63.5" font-family="Helvetica,sans-Serif" font-size="10.00">NFCProxyServerToWorldModule.h</text>
</a>
</g>
</g>
<!-- Node33&#45;&gt;Node40 -->
<g id="edge7" class="edge"><title>Node33&#45;&gt;Node40</title>
<path fill="none" stroke="midnightblue" d="M435.301,-109.568C470.766,-99.381 521.866,-84.7034 553.85,-75.5164"/>
<polygon fill="midnightblue" stroke="midnightblue" points="433.934,-106.319 425.289,-112.444 435.867,-113.047 433.934,-106.319"/>
</g>
<!-- Node35 -->
<g id="node3" class="node"><title>Node35</title>
<g id="a_node3"><a xlink:href="_n_f_c_proxy_logic_module_8cpp.html" target="_top" xlink:title="NFCProxyLogicModule.cpp">
<polygon fill="white" stroke="black" points="0,-0.5 0,-19.5 135,-19.5 135,-0.5 0,-0.5"/>
<text text-anchor="middle" x="67.5" y="-7.5" font-family="Helvetica,sans-Serif" font-size="10.00">NFCProxyLogicModule.cpp</text>
</a>
</g>
</g>
<!-- Node34&#45;&gt;Node35 -->
<g id="edge2" class="edge"><title>Node34&#45;&gt;Node35</title>
<path fill="none" stroke="midnightblue" d="M185.054,-53.0392C156.642,-42.8786 116.563,-28.5457 91.3145,-19.5164"/>
<polygon fill="midnightblue" stroke="midnightblue" points="183.979,-56.3718 194.574,-56.4435 186.336,-49.7806 183.979,-56.3718"/>
</g>
<!-- Node36 -->
<g id="node4" class="node"><title>Node36</title>
<g id="a_node4"><a xlink:href="_n_f_c_proxy_logic_plugin_8cpp.html" target="_top" xlink:title="NFCProxyLogicPlugin.cpp">
<polygon fill="white" stroke="black" points="153,-0.5 153,-19.5 284,-19.5 284,-0.5 153,-0.5"/>
<text text-anchor="middle" x="218.5" y="-7.5" font-family="Helvetica,sans-Serif" font-size="10.00">NFCProxyLogicPlugin.cpp</text>
</a>
</g>
</g>
<!-- Node34&#45;&gt;Node36 -->
<g id="edge3" class="edge"><title>Node34&#45;&gt;Node36</title>
<path fill="none" stroke="midnightblue" d="M218.5,-45.8045C218.5,-36.9102 218.5,-26.7798 218.5,-19.7511"/>
<polygon fill="midnightblue" stroke="midnightblue" points="215,-46.083 218.5,-56.083 222,-46.083 215,-46.083"/>
</g>
<!-- Node38 -->
<g id="node6" class="node"><title>Node38</title>
<g id="a_node6"><a xlink:href="_n_f_c_proxy_server_to_game_module_8cpp.html" target="_top" xlink:title="NFCProxyServerToGameModule.cpp">
<polygon fill="white" stroke="black" points="302.5,-0.5 302.5,-19.5 478.5,-19.5 478.5,-0.5 302.5,-0.5"/>
<text text-anchor="middle" x="390.5" y="-7.5" font-family="Helvetica,sans-Serif" font-size="10.00">NFCProxyServerToGameModule.cpp</text>
</a>
</g>
</g>
<!-- Node37&#45;&gt;Node38 -->
<g id="edge5" class="edge"><title>Node37&#45;&gt;Node38</title>
<path fill="none" stroke="midnightblue" d="M393.75,-46.1005C392.92,-37.1357 391.968,-26.8579 391.31,-19.7511"/>
<polygon fill="midnightblue" stroke="midnightblue" points="390.267,-46.4483 394.674,-56.083 397.237,-45.8029 390.267,-46.4483"/>
</g>
<!-- Node39 -->
<g id="node7" class="node"><title>Node39</title>
<g id="a_node7"><a xlink:href="_n_f_proxy_server_net___client_plugin_8cpp.html" target="_top" xlink:title="NFProxyServerNet_ClientPlugin.cpp">
<polygon fill="white" stroke="black" points="497,-0.5 497,-19.5 670,-19.5 670,-0.5 497,-0.5"/>
<text text-anchor="middle" x="583.5" y="-7.5" font-family="Helvetica,sans-Serif" font-size="10.00">NFProxyServerNet_ClientPlugin.cpp</text>
</a>
</g>
</g>
<!-- Node37&#45;&gt;Node39 -->
<g id="edge6" class="edge"><title>Node37&#45;&gt;Node39</title>
<path fill="none" stroke="midnightblue" d="M435.301,-53.5677C470.766,-43.381 521.866,-28.7034 553.85,-19.5164"/>
<polygon fill="midnightblue" stroke="midnightblue" points="433.934,-50.3188 425.289,-56.4435 435.867,-57.0467 433.934,-50.3188"/>
</g>
<!-- Node40&#45;&gt;Node39 -->
<g id="edge9" class="edge"><title>Node40&#45;&gt;Node39</title>
<path fill="none" stroke="midnightblue" d="M583.5,-45.8045C583.5,-36.9102 583.5,-26.7798 583.5,-19.7511"/>
<polygon fill="midnightblue" stroke="midnightblue" points="580,-46.083 583.5,-56.083 587,-46.083 580,-46.083"/>
</g>
<!-- Node41 -->
<g id="node9" class="node"><title>Node41</title>
<g id="a_node9"><a xlink:href="_n_f_c_proxy_server_to_world_module_8cpp.html" target="_top" xlink:title="NFCProxyServerToWorldModule.cpp">
<polygon fill="white" stroke="black" points="688,-0.5 688,-19.5 863,-19.5 863,-0.5 688,-0.5"/>
<text text-anchor="middle" x="775.5" y="-7.5" font-family="Helvetica,sans-Serif" font-size="10.00">NFCProxyServerToWorldModule.cpp</text>
</a>
</g>
</g>
<!-- Node40&#45;&gt;Node41 -->
<g id="edge8" class="edge"><title>Node40&#45;&gt;Node41</title>
<path fill="none" stroke="midnightblue" d="M623.683,-53.6986C659.919,-43.507 712.414,-28.7429 745.219,-19.5164"/>
<polygon fill="midnightblue" stroke="midnightblue" points="622.602,-50.3667 613.923,-56.4435 624.497,-57.1053 622.602,-50.3667"/>
</g>
</g>
</svg>
