<?xml version="1.0" encoding="UTF-8" standalone="no"?>
<!DOCTYPE svg PUBLIC "-//W3C//DTD SVG 1.1//EN"
 "http://www.w3.org/Graphics/SVG/1.1/DTD/svg11.dtd">
<!-- Generated by graphviz version 2.38.0 (20140413.2041)
 -->
<!-- Title: NFTime.h Pages: 1 -->
<svg width="110pt" height="84pt"
 viewBox="0.00 0.00 109.50 84.00" xmlns="http://www.w3.org/2000/svg" xmlns:xlink="http://www.w3.org/1999/xlink">
<g id="graph0" class="graph" transform="scale(1 1) rotate(0) translate(4 80)">
<title>NFTime.h</title>
<polygon fill="white" stroke="none" points="-4,4 -4,-80 105.5,-80 105.5,4 -4,4"/>
<!-- Node0 -->
<g id="node1" class="node"><title>Node0</title>
<polygon fill="#bfbfbf" stroke="black" points="21.5,-56.5 21.5,-75.5 80.5,-75.5 80.5,-56.5 21.5,-56.5"/>
<text text-anchor="middle" x="51" y="-63.5" font-family="Helvetica,sans-Serif" font-size="10.00">NFTime.h</text>
</g>
<!-- Node1 -->
<g id="node2" class="node"><title>Node1</title>
<polygon fill="white" stroke="#bfbfbf" points="0,-0.5 0,-19.5 42,-19.5 42,-0.5 0,-0.5"/>
<text text-anchor="middle" x="21" y="-7.5" font-family="Helvetica,sans-Serif" font-size="10.00">vector</text>
</g>
<!-- Node0&#45;&gt;Node1 -->
<g id="edge1" class="edge"><title>Node0&#45;&gt;Node1</title>
<path fill="none" stroke="midnightblue" d="M46.0461,-56.083C41.8959,-48.6127 35.8469,-37.7244 30.7333,-28.5199"/>
<polygon fill="midnightblue" stroke="midnightblue" points="33.7777,-26.7929 25.8617,-19.7511 27.6586,-30.1924 33.7777,-26.7929"/>
</g>
<!-- Node2 -->
<g id="node3" class="node"><title>Node2</title>
<polygon fill="white" stroke="#bfbfbf" points="60.5,-0.5 60.5,-19.5 101.5,-19.5 101.5,-0.5 60.5,-0.5"/>
<text text-anchor="middle" x="81" y="-7.5" font-family="Helvetica,sans-Serif" font-size="10.00">string</text>
</g>
<!-- Node0&#45;&gt;Node2 -->
<g id="edge2" class="edge"><title>Node0&#45;&gt;Node2</title>
<path fill="none" stroke="midnightblue" d="M55.9539,-56.083C60.1041,-48.6127 66.1531,-37.7244 71.2667,-28.5199"/>
<polygon fill="midnightblue" stroke="midnightblue" points="74.3414,-30.1924 76.1383,-19.7511 68.2223,-26.7929 74.3414,-30.1924"/>
</g>
</g>
</svg>
