<?xml version="1.0" encoding="UTF-8" standalone="no"?>
<!DOCTYPE svg PUBLIC "-//W3C//DTD SVG 1.1//EN"
 "http://www.w3.org/Graphics/SVG/1.1/DTD/svg11.dtd">
<!-- Generated by graphviz version 2.38.0 (20140413.2041)
 -->
<!-- Title: NFCMemManger.h Pages: 1 -->
<svg width="468pt" height="151pt"
 viewBox="0.00 0.00 467.50 151.00" xmlns="http://www.w3.org/2000/svg" xmlns:xlink="http://www.w3.org/1999/xlink">
<g id="graph0" class="graph" transform="scale(1 1) rotate(0) translate(4 147)">
<title>NFCMemManger.h</title>
<polygon fill="white" stroke="none" points="-4,4 -4,-147 463.5,-147 463.5,4 -4,4"/>
<!-- Node0 -->
<g id="node1" class="node"><title>Node0</title>
<polygon fill="#bfbfbf" stroke="black" points="244.5,-123.5 244.5,-142.5 342.5,-142.5 342.5,-123.5 244.5,-123.5"/>
<text text-anchor="middle" x="293.5" y="-130.5" font-family="Helvetica,sans-Serif" font-size="10.00">NFCMemManger.h</text>
</g>
<!-- Node1 -->
<g id="node2" class="node"><title>Node1</title>
<g id="a_node2"><a xlink:href="_n_f_platform_8h.html" target="_top" xlink:title="NFComm/NFPluginModule\l/NFPlatform.h">
<polygon fill="white" stroke="black" points="127.5,-56.5 127.5,-86.5 259.5,-86.5 259.5,-56.5 127.5,-56.5"/>
<text text-anchor="start" x="135.5" y="-74.5" font-family="Helvetica,sans-Serif" font-size="10.00">NFComm/NFPluginModule</text>
<text text-anchor="middle" x="193.5" y="-63.5" font-family="Helvetica,sans-Serif" font-size="10.00">/NFPlatform.h</text>
</a>
</g>
</g>
<!-- Node0&#45;&gt;Node1 -->
<g id="edge1" class="edge"><title>Node0&#45;&gt;Node1</title>
<path fill="none" stroke="midnightblue" d="M279.172,-123.475C265.376,-115.266 244.018,-102.558 226.079,-91.8845"/>
<polygon fill="midnightblue" stroke="midnightblue" points="227.452,-88.6285 217.068,-86.523 223.872,-94.6442 227.452,-88.6285"/>
</g>
<!-- Node7 -->
<g id="node8" class="node"><title>Node7</title>
<g id="a_node8"><a xlink:href="_n_f_singleton_8h.html" target="_top" xlink:title="NFSingleton.h">
<polygon fill="white" stroke="black" points="354.5,-62 354.5,-81 432.5,-81 432.5,-62 354.5,-62"/>
<text text-anchor="middle" x="393.5" y="-69" font-family="Helvetica,sans-Serif" font-size="10.00">NFSingleton.h</text>
</a>
</g>
</g>
<!-- Node0&#45;&gt;Node7 -->
<g id="edge7" class="edge"><title>Node0&#45;&gt;Node7</title>
<path fill="none" stroke="midnightblue" d="M307.828,-123.475C324.164,-113.755 351.102,-97.7266 370.412,-86.2372"/>
<polygon fill="midnightblue" stroke="midnightblue" points="372.395,-89.1303 379.199,-81.0091 368.815,-83.1146 372.395,-89.1303"/>
</g>
<!-- Node2 -->
<g id="node3" class="node"><title>Node2</title>
<polygon fill="white" stroke="#bfbfbf" points="0,-0.5 0,-19.5 49,-19.5 49,-0.5 0,-0.5"/>
<text text-anchor="middle" x="24.5" y="-7.5" font-family="Helvetica,sans-Serif" font-size="10.00">stdint.h</text>
</g>
<!-- Node1&#45;&gt;Node2 -->
<g id="edge2" class="edge"><title>Node1&#45;&gt;Node2</title>
<path fill="none" stroke="midnightblue" d="M153.449,-56.3993C124.588,-46.238 86.0545,-32.6716 58.6467,-23.0221"/>
<polygon fill="midnightblue" stroke="midnightblue" points="59.6858,-19.6774 49.091,-19.6578 57.3611,-26.2801 59.6858,-19.6774"/>
</g>
<!-- Node3 -->
<g id="node4" class="node"><title>Node3</title>
<polygon fill="white" stroke="#bfbfbf" points="67.5,-0.5 67.5,-19.5 111.5,-19.5 111.5,-0.5 67.5,-0.5"/>
<text text-anchor="middle" x="89.5" y="-7.5" font-family="Helvetica,sans-Serif" font-size="10.00">time.h</text>
</g>
<!-- Node1&#45;&gt;Node3 -->
<g id="edge3" class="edge"><title>Node1&#45;&gt;Node3</title>
<path fill="none" stroke="midnightblue" d="M168.853,-56.3993C152.183,-46.8619 130.269,-34.3248 113.695,-24.8422"/>
<polygon fill="midnightblue" stroke="midnightblue" points="115.051,-21.5858 104.633,-19.6578 111.575,-27.6617 115.051,-21.5858"/>
</g>
<!-- Node4 -->
<g id="node5" class="node"><title>Node4</title>
<polygon fill="white" stroke="#bfbfbf" points="129.5,-0.5 129.5,-19.5 181.5,-19.5 181.5,-0.5 129.5,-0.5"/>
<text text-anchor="middle" x="155.5" y="-7.5" font-family="Helvetica,sans-Serif" font-size="10.00">sstream</text>
</g>
<!-- Node1&#45;&gt;Node4 -->
<g id="edge4" class="edge"><title>Node1&#45;&gt;Node4</title>
<path fill="none" stroke="midnightblue" d="M184.495,-56.3993C179.087,-47.9315 172.168,-37.0991 166.446,-28.1393"/>
<polygon fill="midnightblue" stroke="midnightblue" points="169.362,-26.2018 161.029,-19.6578 163.462,-29.9695 169.362,-26.2018"/>
</g>
<!-- Node5 -->
<g id="node6" class="node"><title>Node5</title>
<polygon fill="white" stroke="#bfbfbf" points="199.5,-0.5 199.5,-19.5 327.5,-19.5 327.5,-0.5 199.5,-0.5"/>
<text text-anchor="middle" x="263.5" y="-7.5" font-family="Helvetica,sans-Serif" font-size="10.00">common/lexical_cast.hpp</text>
</g>
<!-- Node1&#45;&gt;Node5 -->
<g id="edge5" class="edge"><title>Node1&#45;&gt;Node5</title>
<path fill="none" stroke="midnightblue" d="M210.089,-56.3993C220.785,-47.3076 234.688,-35.4899 245.628,-26.1909"/>
<polygon fill="midnightblue" stroke="midnightblue" points="247.962,-28.8011 253.314,-19.6578 243.428,-23.4675 247.962,-28.8011"/>
</g>
<!-- Node6 -->
<g id="node7" class="node"><title>Node6</title>
<polygon fill="white" stroke="#bfbfbf" points="346,-0.5 346,-19.5 387,-19.5 387,-0.5 346,-0.5"/>
<text text-anchor="middle" x="366.5" y="-7.5" font-family="Helvetica,sans-Serif" font-size="10.00">string</text>
</g>
<!-- Node1&#45;&gt;Node6 -->
<g id="edge6" class="edge"><title>Node1&#45;&gt;Node6</title>
<path fill="none" stroke="midnightblue" d="M234.499,-56.3993C265.645,-45.6871 307.795,-31.1905 336.005,-21.4883"/>
<polygon fill="midnightblue" stroke="midnightblue" points="337.403,-24.7087 345.721,-18.1466 335.126,-18.0893 337.403,-24.7087"/>
</g>
<!-- Node8 -->
<g id="node9" class="node"><title>Node8</title>
<polygon fill="white" stroke="#bfbfbf" points="405.5,-0.5 405.5,-19.5 459.5,-19.5 459.5,-0.5 405.5,-0.5"/>
<text text-anchor="middle" x="432.5" y="-7.5" font-family="Helvetica,sans-Serif" font-size="10.00">iostream</text>
</g>
<!-- Node7&#45;&gt;Node8 -->
<g id="edge8" class="edge"><title>Node7&#45;&gt;Node8</title>
<path fill="none" stroke="midnightblue" d="M399.088,-61.9751C404.88,-53.1384 414.089,-39.0886 421.374,-27.975"/>
<polygon fill="midnightblue" stroke="midnightblue" points="424.368,-29.7913 426.923,-19.5091 418.513,-25.9539 424.368,-29.7913"/>
</g>
</g>
</svg>
