<?xml version="1.0" encoding="UTF-8" standalone="no"?>
<!DOCTYPE svg PUBLIC "-//W3C//DTD SVG 1.1//EN"
 "http://www.w3.org/Graphics/SVG/1.1/DTD/svg11.dtd">
<!-- Generated by graphviz version 2.38.0 (20140413.2041)
 -->
<!-- Title: NFCProperty.h Pages: 1 -->
<svg width="248pt" height="84pt"
 viewBox="0.00 0.00 247.50 84.00" xmlns="http://www.w3.org/2000/svg" xmlns:xlink="http://www.w3.org/1999/xlink">
<g id="graph0" class="graph" transform="scale(1 1) rotate(0) translate(4 80)">
<title>NFCProperty.h</title>
<polygon fill="white" stroke="none" points="-4,4 -4,-80 243.5,-80 243.5,4 -4,4"/>
<!-- Node31 -->
<g id="node1" class="node"><title>Node31</title>
<polygon fill="#bfbfbf" stroke="black" points="69.5,-56.5 69.5,-75.5 150.5,-75.5 150.5,-56.5 69.5,-56.5"/>
<text text-anchor="middle" x="110" y="-63.5" font-family="Helvetica,sans-Serif" font-size="10.00">NFCProperty.h</text>
</g>
<!-- Node32 -->
<g id="node2" class="node"><title>Node32</title>
<g id="a_node2"><a xlink:href="_n_f_c_property_8cpp.html" target="_top" xlink:title="NFCProperty.cpp">
<polygon fill="white" stroke="black" points="0,-0.5 0,-19.5 92,-19.5 92,-0.5 0,-0.5"/>
<text text-anchor="middle" x="46" y="-7.5" font-family="Helvetica,sans-Serif" font-size="10.00">NFCProperty.cpp</text>
</a>
</g>
</g>
<!-- Node31&#45;&gt;Node32 -->
<g id="edge1" class="edge"><title>Node31&#45;&gt;Node32</title>
<path fill="none" stroke="midnightblue" d="M92.0085,-49.8197C80.5424,-40.1452 66.0867,-27.9481 56.4698,-19.8339"/>
<polygon fill="midnightblue" stroke="midnightblue" points="89.8173,-52.5502 99.7173,-56.324 94.3314,-47.2002 89.8173,-52.5502"/>
</g>
<!-- Node33 -->
<g id="node3" class="node"><title>Node33</title>
<g id="a_node3"><a xlink:href="_n_f_c_property_manager_8cpp.html" target="_top" xlink:title="NFCPropertyManager.cpp">
<polygon fill="white" stroke="black" points="110.5,-0.5 110.5,-19.5 239.5,-19.5 239.5,-0.5 110.5,-0.5"/>
<text text-anchor="middle" x="175" y="-7.5" font-family="Helvetica,sans-Serif" font-size="10.00">NFCPropertyManager.cpp</text>
</a>
</g>
</g>
<!-- Node31&#45;&gt;Node33 -->
<g id="edge2" class="edge"><title>Node31&#45;&gt;Node33</title>
<path fill="none" stroke="midnightblue" d="M128.273,-49.8197C139.918,-40.1452 154.599,-27.9481 164.367,-19.8339"/>
<polygon fill="midnightblue" stroke="midnightblue" points="125.899,-47.2416 120.443,-56.324 130.372,-52.6259 125.899,-47.2416"/>
</g>
</g>
</svg>
