<?xml version="1.0" encoding="UTF-8" standalone="no"?>
<!DOCTYPE svg PUBLIC "-//W3C//DTD SVG 1.1//EN"
 "http://www.w3.org/Graphics/SVG/1.1/DTD/svg11.dtd">
<!-- Generated by graphviz version 2.38.0 (20140413.2041)
 -->
<!-- Title: NFIWorldLogicModule.h Pages: 1 -->
<svg width="964pt" height="140pt"
 viewBox="0.00 0.00 963.50 140.00" xmlns="http://www.w3.org/2000/svg" xmlns:xlink="http://www.w3.org/1999/xlink">
<g id="graph0" class="graph" transform="scale(1 1) rotate(0) translate(4 136)">
<title>NFIWorldLogicModule.h</title>
<polygon fill="white" stroke="none" points="-4,4 -4,-136 959.5,-136 959.5,4 -4,4"/>
<!-- Node33 -->
<g id="node1" class="node"><title>Node33</title>
<polygon fill="#bfbfbf" stroke="black" points="394.5,-112.5 394.5,-131.5 514.5,-131.5 514.5,-112.5 394.5,-112.5"/>
<text text-anchor="middle" x="454.5" y="-119.5" font-family="Helvetica,sans-Serif" font-size="10.00">NFIWorldLogicModule.h</text>
</g>
<!-- Node34 -->
<g id="node2" class="node"><title>Node34</title>
<g id="a_node2"><a xlink:href="_n_f_c_world_logic_module_8h.html" target="_top" xlink:title="NFCWorldLogicModule.h">
<polygon fill="white" stroke="black" points="153,-56.5 153,-75.5 278,-75.5 278,-56.5 153,-56.5"/>
<text text-anchor="middle" x="215.5" y="-63.5" font-family="Helvetica,sans-Serif" font-size="10.00">NFCWorldLogicModule.h</text>
</a>
</g>
</g>
<!-- Node33&#45;&gt;Node34 -->
<g id="edge1" class="edge"><title>Node33&#45;&gt;Node34</title>
<path fill="none" stroke="midnightblue" d="M406.776,-110.217C361.615,-100.013 294.727,-84.9006 253.193,-75.5164"/>
<polygon fill="midnightblue" stroke="midnightblue" points="406.104,-113.654 416.63,-112.444 407.647,-106.826 406.104,-113.654"/>
</g>
<!-- Node37 -->
<g id="node5" class="node"><title>Node37</title>
<g id="a_node5"><a xlink:href="_n_f_c_world_to_master_module_8h.html" target="_top" xlink:title="NFCWorldToMasterModule.h">
<polygon fill="white" stroke="black" points="383.5,-56.5 383.5,-75.5 525.5,-75.5 525.5,-56.5 383.5,-56.5"/>
<text text-anchor="middle" x="454.5" y="-63.5" font-family="Helvetica,sans-Serif" font-size="10.00">NFCWorldToMasterModule.h</text>
</a>
</g>
</g>
<!-- Node33&#45;&gt;Node37 -->
<g id="edge4" class="edge"><title>Node33&#45;&gt;Node37</title>
<path fill="none" stroke="midnightblue" d="M454.5,-101.805C454.5,-92.9102 454.5,-82.7798 454.5,-75.7511"/>
<polygon fill="midnightblue" stroke="midnightblue" points="451,-102.083 454.5,-112.083 458,-102.083 451,-102.083"/>
</g>
<!-- Node40 -->
<g id="node8" class="node"><title>Node40</title>
<g id="a_node8"><a xlink:href="_n_f_c_world_net___server_module_8h.html" target="_top" xlink:title="NFCWorldNet_ServerModule.h">
<polygon fill="white" stroke="black" points="635,-56.5 635,-75.5 784,-75.5 784,-56.5 635,-56.5"/>
<text text-anchor="middle" x="709.5" y="-63.5" font-family="Helvetica,sans-Serif" font-size="10.00">NFCWorldNet_ServerModule.h</text>
</a>
</g>
</g>
<!-- Node33&#45;&gt;Node40 -->
<g id="edge7" class="edge"><title>Node33&#45;&gt;Node40</title>
<path fill="none" stroke="midnightblue" d="M504.812,-110.346C553.003,-100.141 624.783,-84.94 669.284,-75.5164"/>
<polygon fill="midnightblue" stroke="midnightblue" points="503.963,-106.948 494.906,-112.444 505.414,-113.796 503.963,-106.948"/>
</g>
<!-- Node35 -->
<g id="node3" class="node"><title>Node35</title>
<g id="a_node3"><a xlink:href="_n_f_c_world_logic_module_8cpp.html" target="_top" xlink:title="NFCWorldLogicModule.cpp">
<polygon fill="white" stroke="black" points="0,-0.5 0,-19.5 135,-19.5 135,-0.5 0,-0.5"/>
<text text-anchor="middle" x="67.5" y="-7.5" font-family="Helvetica,sans-Serif" font-size="10.00">NFCWorldLogicModule.cpp</text>
</a>
</g>
</g>
<!-- Node34&#45;&gt;Node35 -->
<g id="edge2" class="edge"><title>Node34&#45;&gt;Node35</title>
<path fill="none" stroke="midnightblue" d="M182.353,-52.9058C154.528,-42.7536 115.48,-28.5063 90.8413,-19.5164"/>
<polygon fill="midnightblue" stroke="midnightblue" points="181.455,-56.3038 192.049,-56.4435 183.854,-49.7279 181.455,-56.3038"/>
</g>
<!-- Node36 -->
<g id="node4" class="node"><title>Node36</title>
<g id="a_node4"><a xlink:href="_n_f_world_logic_plugin_8cpp.html" target="_top" xlink:title="NFWorldLogicPlugin.cpp">
<polygon fill="white" stroke="black" points="153.5,-0.5 153.5,-19.5 277.5,-19.5 277.5,-0.5 153.5,-0.5"/>
<text text-anchor="middle" x="215.5" y="-7.5" font-family="Helvetica,sans-Serif" font-size="10.00">NFWorldLogicPlugin.cpp</text>
</a>
</g>
</g>
<!-- Node34&#45;&gt;Node36 -->
<g id="edge3" class="edge"><title>Node34&#45;&gt;Node36</title>
<path fill="none" stroke="midnightblue" d="M215.5,-45.8045C215.5,-36.9102 215.5,-26.7798 215.5,-19.7511"/>
<polygon fill="midnightblue" stroke="midnightblue" points="212,-46.083 215.5,-56.083 219,-46.083 212,-46.083"/>
</g>
<!-- Node38 -->
<g id="node6" class="node"><title>Node38</title>
<g id="a_node6"><a xlink:href="_n_f_c_world_to_master_module_8cpp.html" target="_top" xlink:title="NFCWorldToMasterModule.cpp">
<polygon fill="white" stroke="black" points="295.5,-0.5 295.5,-19.5 447.5,-19.5 447.5,-0.5 295.5,-0.5"/>
<text text-anchor="middle" x="371.5" y="-7.5" font-family="Helvetica,sans-Serif" font-size="10.00">NFCWorldToMasterModule.cpp</text>
</a>
</g>
</g>
<!-- Node37&#45;&gt;Node38 -->
<g id="edge5" class="edge"><title>Node37&#45;&gt;Node38</title>
<path fill="none" stroke="midnightblue" d="M432.401,-50.6221C417.238,-40.7574 397.617,-27.9919 384.802,-19.6545"/>
<polygon fill="midnightblue" stroke="midnightblue" points="430.874,-53.8042 441.165,-56.324 434.691,-47.9367 430.874,-53.8042"/>
</g>
<!-- Node39 -->
<g id="node7" class="node"><title>Node39</title>
<g id="a_node7"><a xlink:href="_n_f_world_net___client_plugin_8cpp.html" target="_top" xlink:title="NFWorldNet_ClientPlugin.cpp">
<polygon fill="white" stroke="black" points="465.5,-0.5 465.5,-19.5 611.5,-19.5 611.5,-0.5 465.5,-0.5"/>
<text text-anchor="middle" x="538.5" y="-7.5" font-family="Helvetica,sans-Serif" font-size="10.00">NFWorldNet_ClientPlugin.cpp</text>
</a>
</g>
</g>
<!-- Node37&#45;&gt;Node39 -->
<g id="edge6" class="edge"><title>Node37&#45;&gt;Node39</title>
<path fill="none" stroke="midnightblue" d="M476.432,-50.9005C491.835,-40.9986 511.946,-28.0705 525.037,-19.6545"/>
<polygon fill="midnightblue" stroke="midnightblue" points="474.515,-47.9722 467.996,-56.324 478.301,-53.8605 474.515,-47.9722"/>
</g>
<!-- Node41 -->
<g id="node9" class="node"><title>Node41</title>
<g id="a_node9"><a xlink:href="_n_f_c_world_net___server_module_8cpp.html" target="_top" xlink:title="NFCWorldNet_ServerModule.cpp">
<polygon fill="white" stroke="black" points="630,-0.5 630,-19.5 789,-19.5 789,-0.5 630,-0.5"/>
<text text-anchor="middle" x="709.5" y="-7.5" font-family="Helvetica,sans-Serif" font-size="10.00">NFCWorldNet_ServerModule.cpp</text>
</a>
</g>
</g>
<!-- Node40&#45;&gt;Node41 -->
<g id="edge8" class="edge"><title>Node40&#45;&gt;Node41</title>
<path fill="none" stroke="midnightblue" d="M709.5,-45.8045C709.5,-36.9102 709.5,-26.7798 709.5,-19.7511"/>
<polygon fill="midnightblue" stroke="midnightblue" points="706,-46.083 709.5,-56.083 713,-46.083 706,-46.083"/>
</g>
<!-- Node42 -->
<g id="node10" class="node"><title>Node42</title>
<g id="a_node10"><a xlink:href="_n_f_world_net___server_plugin_8cpp.html" target="_top" xlink:title="NFWorldNet_ServerPlugin.cpp">
<polygon fill="white" stroke="black" points="807.5,-0.5 807.5,-19.5 955.5,-19.5 955.5,-0.5 807.5,-0.5"/>
<text text-anchor="middle" x="881.5" y="-7.5" font-family="Helvetica,sans-Serif" font-size="10.00">NFWorldNet_ServerPlugin.cpp</text>
</a>
</g>
</g>
<!-- Node40&#45;&gt;Node42 -->
<g id="edge9" class="edge"><title>Node40&#45;&gt;Node42</title>
<path fill="none" stroke="midnightblue" d="M746.332,-53.4363C778.762,-43.2551 825.237,-28.664 854.374,-19.5164"/>
<polygon fill="midnightblue" stroke="midnightblue" points="745.246,-50.1088 736.754,-56.4435 747.343,-56.7874 745.246,-50.1088"/>
</g>
</g>
</svg>
