<?xml version="1.0" encoding="UTF-8" standalone="no"?>
<!DOCTYPE svg PUBLIC "-//W3C//DTD SVG 1.1//EN"
 "http://www.w3.org/Graphics/SVG/1.1/DTD/svg11.dtd">
<!-- Generated by graphviz version 2.38.0 (20140413.2041)
 -->
<!-- Title: NFISceneModule.h Pages: 1 -->
<svg width="376pt" height="140pt"
 viewBox="0.00 0.00 376.00 140.00" xmlns="http://www.w3.org/2000/svg" xmlns:xlink="http://www.w3.org/1999/xlink">
<g id="graph0" class="graph" transform="scale(1 1) rotate(0) translate(4 136)">
<title>NFISceneModule.h</title>
<polygon fill="white" stroke="none" points="-4,4 -4,-136 372,-136 372,4 -4,4"/>
<!-- Node42 -->
<g id="node1" class="node"><title>Node42</title>
<polygon fill="#bfbfbf" stroke="black" points="134.5,-112.5 134.5,-131.5 233.5,-131.5 233.5,-112.5 134.5,-112.5"/>
<text text-anchor="middle" x="184" y="-119.5" font-family="Helvetica,sans-Serif" font-size="10.00">NFISceneModule.h</text>
</g>
<!-- Node43 -->
<g id="node2" class="node"><title>Node43</title>
<g id="a_node2"><a xlink:href="_n_f_c_kernel_module_8h.html" target="_top" xlink:title="NFCKernelModule.h">
<polygon fill="white" stroke="black" points="71,-56.5 71,-75.5 175,-75.5 175,-56.5 71,-56.5"/>
<text text-anchor="middle" x="123" y="-63.5" font-family="Helvetica,sans-Serif" font-size="10.00">NFCKernelModule.h</text>
</a>
</g>
</g>
<!-- Node42&#45;&gt;Node43 -->
<g id="edge1" class="edge"><title>Node42&#45;&gt;Node43</title>
<path fill="none" stroke="midnightblue" d="M166.533,-105.537C155.656,-95.9087 142.056,-83.8694 132.979,-75.8339"/>
<polygon fill="midnightblue" stroke="midnightblue" points="164.392,-108.316 174.199,-112.324 169.032,-103.075 164.392,-108.316"/>
</g>
<!-- Node46 -->
<g id="node5" class="node"><title>Node46</title>
<g id="a_node5"><a xlink:href="_n_f_c_scene_module_8h.html" target="_top" xlink:title="NFCSceneModule.h">
<polygon fill="white" stroke="black" points="193,-56.5 193,-75.5 297,-75.5 297,-56.5 193,-56.5"/>
<text text-anchor="middle" x="245" y="-63.5" font-family="Helvetica,sans-Serif" font-size="10.00">NFCSceneModule.h</text>
</a>
</g>
</g>
<!-- Node42&#45;&gt;Node46 -->
<g id="edge4" class="edge"><title>Node42&#45;&gt;Node46</title>
<path fill="none" stroke="midnightblue" d="M201.467,-105.537C212.344,-95.9087 225.944,-83.8694 235.021,-75.8339"/>
<polygon fill="midnightblue" stroke="midnightblue" points="198.968,-103.075 193.801,-112.324 203.608,-108.316 198.968,-103.075"/>
</g>
<!-- Node44 -->
<g id="node3" class="node"><title>Node44</title>
<g id="a_node3"><a xlink:href="_n_f_c_kernel_module_8cpp.html" target="_top" xlink:title="NFCKernelModule.cpp">
<polygon fill="white" stroke="black" points="0,-0.5 0,-19.5 114,-19.5 114,-0.5 0,-0.5"/>
<text text-anchor="middle" x="57" y="-7.5" font-family="Helvetica,sans-Serif" font-size="10.00">NFCKernelModule.cpp</text>
</a>
</g>
</g>
<!-- Node43&#45;&gt;Node44 -->
<g id="edge2" class="edge"><title>Node43&#45;&gt;Node44</title>
<path fill="none" stroke="midnightblue" d="M104.446,-49.8197C92.6219,-40.1452 77.7144,-27.9481 67.797,-19.8339"/>
<polygon fill="midnightblue" stroke="midnightblue" points="102.44,-52.7004 112.396,-56.324 106.873,-47.2827 102.44,-52.7004"/>
</g>
<!-- Node45 -->
<g id="node4" class="node"><title>Node45</title>
<g id="a_node4"><a xlink:href="_n_f_kernel_plugin_8cpp.html" target="_top" xlink:title="NFKernelPlugin.cpp">
<polygon fill="white" stroke="black" points="132.5,-0.5 132.5,-19.5 235.5,-19.5 235.5,-0.5 132.5,-0.5"/>
<text text-anchor="middle" x="184" y="-7.5" font-family="Helvetica,sans-Serif" font-size="10.00">NFKernelPlugin.cpp</text>
</a>
</g>
</g>
<!-- Node43&#45;&gt;Node45 -->
<g id="edge3" class="edge"><title>Node43&#45;&gt;Node45</title>
<path fill="none" stroke="midnightblue" d="M140.467,-49.5372C151.344,-39.9087 164.944,-27.8694 174.021,-19.8339"/>
<polygon fill="midnightblue" stroke="midnightblue" points="137.968,-47.0749 132.801,-56.324 142.608,-52.3162 137.968,-47.0749"/>
</g>
<!-- Node46&#45;&gt;Node45 -->
<g id="edge5" class="edge"><title>Node46&#45;&gt;Node45</title>
<path fill="none" stroke="midnightblue" d="M227.533,-49.5372C216.656,-39.9087 203.056,-27.8694 193.979,-19.8339"/>
<polygon fill="midnightblue" stroke="midnightblue" points="225.392,-52.3162 235.199,-56.324 230.032,-47.0749 225.392,-52.3162"/>
</g>
<!-- Node47 -->
<g id="node6" class="node"><title>Node47</title>
<g id="a_node6"><a xlink:href="_n_f_c_scene_module_8cpp.html" target="_top" xlink:title="NFCSceneModule.cpp">
<polygon fill="white" stroke="black" points="254,-0.5 254,-19.5 368,-19.5 368,-0.5 254,-0.5"/>
<text text-anchor="middle" x="311" y="-7.5" font-family="Helvetica,sans-Serif" font-size="10.00">NFCSceneModule.cpp</text>
</a>
</g>
</g>
<!-- Node46&#45;&gt;Node47 -->
<g id="edge6" class="edge"><title>Node46&#45;&gt;Node47</title>
<path fill="none" stroke="midnightblue" d="M263.554,-49.8197C275.378,-40.1452 290.286,-27.9481 300.203,-19.8339"/>
<polygon fill="midnightblue" stroke="midnightblue" points="261.127,-47.2827 255.604,-56.324 265.56,-52.7004 261.127,-47.2827"/>
</g>
</g>
</svg>
