<?xml version="1.0" encoding="UTF-8" standalone="no"?>
<!DOCTYPE svg PUBLIC "-//W3C//DTD SVG 1.1//EN"
 "http://www.w3.org/Graphics/SVG/1.1/DTD/svg11.dtd">
<!-- Generated by graphviz version 2.38.0 (20140413.2041)
 -->
<!-- Title: NFICommonConfigModule.h Pages: 1 -->
<svg width="309pt" height="84pt"
 viewBox="0.00 0.00 308.50 84.00" xmlns="http://www.w3.org/2000/svg" xmlns:xlink="http://www.w3.org/1999/xlink">
<g id="graph0" class="graph" transform="scale(1 1) rotate(0) translate(4 80)">
<title>NFICommonConfigModule.h</title>
<polygon fill="white" stroke="none" points="-4,4 -4,-80 304.5,-80 304.5,4 -4,4"/>
<!-- Node0 -->
<g id="node1" class="node"><title>Node0</title>
<polygon fill="#bfbfbf" stroke="black" points="51.5,-56.5 51.5,-75.5 188.5,-75.5 188.5,-56.5 51.5,-56.5"/>
<text text-anchor="middle" x="120" y="-63.5" font-family="Helvetica,sans-Serif" font-size="10.00">NFICommonConfigModule.h</text>
</g>
<!-- Node1 -->
<g id="node2" class="node"><title>Node1</title>
<polygon fill="white" stroke="#bfbfbf" points="0,-0.5 0,-19.5 54,-19.5 54,-0.5 0,-0.5"/>
<text text-anchor="middle" x="27" y="-7.5" font-family="Helvetica,sans-Serif" font-size="10.00">iostream</text>
</g>
<!-- Node0&#45;&gt;Node1 -->
<g id="edge1" class="edge"><title>Node0&#45;&gt;Node1</title>
<path fill="none" stroke="midnightblue" d="M105.058,-56.324C90.4148,-47.8215 67.8663,-34.7288 50.7623,-24.7975"/>
<polygon fill="midnightblue" stroke="midnightblue" points="52.3104,-21.6491 41.905,-19.6545 48.7954,-27.7027 52.3104,-21.6491"/>
</g>
<!-- Node2 -->
<g id="node3" class="node"><title>Node2</title>
<polygon fill="white" stroke="#bfbfbf" points="72.5,-0.5 72.5,-19.5 167.5,-19.5 167.5,-0.5 72.5,-0.5"/>
<text text-anchor="middle" x="120" y="-7.5" font-family="Helvetica,sans-Serif" font-size="10.00">NFILogicModule.h</text>
</g>
<!-- Node0&#45;&gt;Node2 -->
<g id="edge2" class="edge"><title>Node0&#45;&gt;Node2</title>
<path fill="none" stroke="midnightblue" d="M120,-56.083C120,-49.0059 120,-38.8611 120,-29.9865"/>
<polygon fill="midnightblue" stroke="midnightblue" points="123.5,-29.751 120,-19.7511 116.5,-29.7511 123.5,-29.751"/>
</g>
<!-- Node3 -->
<g id="node4" class="node"><title>Node3</title>
<polygon fill="white" stroke="#bfbfbf" points="185.5,-0.5 185.5,-19.5 300.5,-19.5 300.5,-0.5 185.5,-0.5"/>
<text text-anchor="middle" x="243" y="-7.5" font-family="Helvetica,sans-Serif" font-size="10.00">NFIBuffConfigModule.h</text>
</g>
<!-- Node0&#45;&gt;Node3 -->
<g id="edge3" class="edge"><title>Node0&#45;&gt;Node3</title>
<path fill="none" stroke="midnightblue" d="M139.49,-56.4435C159.642,-47.5961 191.323,-33.6875 214.331,-23.5865"/>
<polygon fill="midnightblue" stroke="midnightblue" points="215.852,-26.7411 223.601,-19.5164 213.038,-20.3316 215.852,-26.7411"/>
</g>
</g>
</svg>
