<?xml version="1.0" encoding="UTF-8" standalone="no"?>
<!DOCTYPE svg PUBLIC "-//W3C//DTD SVG 1.1//EN"
 "http://www.w3.org/Graphics/SVG/1.1/DTD/svg11.dtd">
<!-- Generated by graphviz version 2.38.0 (20140413.2041)
 -->
<!-- Title: NFIRecord.h Pages: 1 -->
<!--zoomable 319 -->
<svg id="main" version="1.1" xmlns="http://www.w3.org/2000/svg" xmlns:xlink="http://www.w3.org/1999/xlink" xml:space="preserve" onload="init(evt)">
<style type="text/css"><![CDATA[
.edge:hover path { stroke: red; }
.edge:hover polygon { stroke: red; fill: red; }
]]></style>
<script type="text/javascript"><![CDATA[
var edges = document.getElementsByTagName('g');
if (edges && edges.length) {
  for (var i=0;i<edges.length;i++) {
    if (edges[i].id.substr(0,4)=='edge') {
      edges[i].setAttribute('class','edge');
    }
  }
}
]]></script>
        <defs>
                <circle id="rim" cx="0" cy="0" r="7"/>
                <circle id="rim2" cx="0" cy="0" r="3.5"/>
                <g id="zoomPlus">
                        <use xlink:href="#rim" fill="#404040">
                                <set attributeName="fill" to="#808080" begin="zoomplus.mouseover" end="zoomplus.mouseout"/>
                        </use>
                        <path d="M-4,0h8M0,-4v8" fill="none" stroke="white" stroke-width="1.5" pointer-events="none"/>
                </g>
                <g id="zoomMin">
                        <use xlink:href="#rim" fill="#404040">
                                <set attributeName="fill" to="#808080" begin="zoomminus.mouseover" end="zoomminus.mouseout"/>
                        </use>
                        <path d="M-4,0h8" fill="none" stroke="white" stroke-width="1.5" pointer-events="none"/>
                </g>
                <g id="dirArrow">
                        <path fill="none" stroke="white" stroke-width="1.5" d="M0,-3.0v7 M-2.5,-0.5L0,-3.0L2.5,-0.5"/>
                </g>
               <g id="resetDef">
                       <use xlink:href="#rim2" fill="#404040">
                               <set attributeName="fill" to="#808080" begin="reset.mouseover" end="reset.mouseout"/>
                       </use>
               </g>
        </defs>

<script type="text/javascript">
var viewWidth = 1311;
var viewHeight = 319;
var sectionId = 'dynsection-0';
</script>
<script xlink:href="svgpan.js"/>
<svg id="graph" class="graph">
<g id="viewport">
<title>NFIRecord.h</title>
<polygon fill="white" stroke="none" points="-4,4 -4,-315 1307,-315 1307,4 -4,4"/>
<!-- Node0 -->
<g id="node1" class="node"><title>Node0</title>
<polygon fill="#bfbfbf" stroke="black" points="393.5,-291.5 393.5,-310.5 464.5,-310.5 464.5,-291.5 393.5,-291.5"/>
<text text-anchor="middle" x="429" y="-298.5" font-family="Helvetica,sans-Serif" font-size="10.00">NFIRecord.h</text>
</g>
<!-- Node1 -->
<g id="node2" class="node"><title>Node1</title>
<g id="a_node2"><a xlink:href="_n_f_define_8h.html" target="_top" xlink:title="NFDefine.h">
<polygon fill="white" stroke="black" points="278.5,-235.5 278.5,-254.5 343.5,-254.5 343.5,-235.5 278.5,-235.5"/>
<text text-anchor="middle" x="311" y="-242.5" font-family="Helvetica,sans-Serif" font-size="10.00">NFDefine.h</text>
</a>
</g>
</g>
<!-- Node0&#45;&gt;Node1 -->
<g id="edge1" class="edge"><title>Node0&#45;&gt;Node1</title>
<path fill="none" stroke="midnightblue" d="M410.303,-291.444C391.056,-282.636 360.848,-268.812 338.8,-258.722"/>
<polygon fill="midnightblue" stroke="midnightblue" points="340.16,-255.495 329.61,-254.516 337.247,-261.86 340.16,-255.495"/>
</g>
<!-- Node3 -->
<g id="node4" class="node"><title>Node3</title>
<g id="a_node4"><a xlink:href="_a_f_data_list_8hpp.html" target="_top" xlink:title="AFDataList.hpp">
<polygon fill="white" stroke="black" points="549,-179.5 549,-198.5 633,-198.5 633,-179.5 549,-179.5"/>
<text text-anchor="middle" x="591" y="-186.5" font-family="Helvetica,sans-Serif" font-size="10.00">AFDataList.hpp</text>
</a>
</g>
</g>
<!-- Node0&#45;&gt;Node3 -->
<g id="edge33" class="edge"><title>Node0&#45;&gt;Node3</title>
<path fill="none" stroke="midnightblue" d="M441.712,-291.368C469.511,-272.492 535.942,-227.385 570.033,-204.237"/>
<polygon fill="midnightblue" stroke="midnightblue" points="572.04,-207.105 578.347,-198.591 568.108,-201.313 572.04,-207.105"/>
</g>
<!-- Node2 -->
<g id="node3" class="node"><title>Node2</title>
<polygon fill="white" stroke="#bfbfbf" points="0,-118 0,-137 58,-137 58,-118 0,-118"/>
<text text-anchor="middle" x="29" y="-125" font-family="Helvetica,sans-Serif" font-size="10.00">functional</text>
</g>
<!-- Node1&#45;&gt;Node2 -->
<g id="edge2" class="edge"><title>Node1&#45;&gt;Node2</title>
<path fill="none" stroke="midnightblue" d="M289.804,-235.319C240.28,-215.035 116.831,-164.473 59.3446,-140.928"/>
<polygon fill="midnightblue" stroke="midnightblue" points="60.6376,-137.676 50.0571,-137.124 57.9844,-144.154 60.6376,-137.676"/>
</g>
<!-- Node1&#45;&gt;Node3 -->
<g id="edge3" class="edge"><title>Node1&#45;&gt;Node3</title>
<path fill="none" stroke="midnightblue" d="M343.668,-237.7C391.707,-228.435 481.884,-211.044 539.064,-200.016"/>
<polygon fill="midnightblue" stroke="midnightblue" points="539.834,-203.432 548.99,-198.102 538.508,-196.559 539.834,-203.432"/>
</g>
<!-- Node19 -->
<g id="node20" class="node"><title>Node19</title>
<g id="a_node20"><a xlink:href="_n_f_g_u_i_d_8h.html" target="_top" xlink:title="NFComm/NFPluginModule\l/NFGUID.h">
<polygon fill="white" stroke="black" points="114,-112.5 114,-142.5 246,-142.5 246,-112.5 114,-112.5"/>
<text text-anchor="start" x="122" y="-130.5" font-family="Helvetica,sans-Serif" font-size="10.00">NFComm/NFPluginModule</text>
<text text-anchor="middle" x="180" y="-119.5" font-family="Helvetica,sans-Serif" font-size="10.00">/NFGUID.h</text>
</a>
</g>
</g>
<!-- Node1&#45;&gt;Node19 -->
<g id="edge32" class="edge"><title>Node1&#45;&gt;Node19</title>
<path fill="none" stroke="midnightblue" d="M301.154,-235.319C280.594,-217.192 232.61,-174.885 203.578,-149.288"/>
<polygon fill="midnightblue" stroke="midnightblue" points="205.746,-146.533 195.93,-142.545 201.116,-151.784 205.746,-146.533"/>
</g>
<!-- Node3&#45;&gt;Node2 -->
<g id="edge16" class="edge"><title>Node3&#45;&gt;Node2</title>
<path fill="none" stroke="midnightblue" d="M548.797,-187.735C459.732,-186.435 246.409,-179.42 72,-143 68.3127,-142.23 64.5028,-141.242 60.7448,-140.144"/>
<polygon fill="midnightblue" stroke="midnightblue" points="61.6283,-136.752 51.0378,-137.055 59.5059,-143.423 61.6283,-136.752"/>
</g>
<!-- Node4 -->
<g id="node5" class="node"><title>Node4</title>
<polygon fill="white" stroke="#bfbfbf" points="1208.5,-0.5 1208.5,-19.5 1249.5,-19.5 1249.5,-0.5 1208.5,-0.5"/>
<text text-anchor="middle" x="1229" y="-7.5" font-family="Helvetica,sans-Serif" font-size="10.00">string</text>
</g>
<!-- Node3&#45;&gt;Node4 -->
<g id="edge4" class="edge"><title>Node3&#45;&gt;Node4</title>
<path fill="none" stroke="midnightblue" d="M633.208,-187.127C758.678,-184.2 1123.37,-173.157 1167,-143 1205.43,-116.437 1220.67,-59.5954 1226.19,-29.9191"/>
<polygon fill="midnightblue" stroke="midnightblue" points="1229.7,-30.1119 1227.9,-19.6715 1222.8,-28.9571 1229.7,-30.1119"/>
</g>
<!-- Node5 -->
<g id="node6" class="node"><title>Node5</title>
<polygon fill="white" stroke="#bfbfbf" points="1257,-118 1257,-137 1303,-137 1303,-118 1257,-118"/>
<text text-anchor="middle" x="1280" y="-125" font-family="Helvetica,sans-Serif" font-size="10.00">cstring</text>
</g>
<!-- Node3&#45;&gt;Node5 -->
<g id="edge5" class="edge"><title>Node3&#45;&gt;Node5</title>
<path fill="none" stroke="midnightblue" d="M633.085,-186.766C758.144,-182.835 1126.07,-169.295 1243,-143 1246,-142.325 1249.08,-141.446 1252.11,-140.454"/>
<polygon fill="midnightblue" stroke="midnightblue" points="1253.33,-143.734 1261.53,-137.013 1250.93,-137.159 1253.33,-143.734"/>
</g>
<!-- Node6 -->
<g id="node7" class="node"><title>Node6</title>
<polygon fill="white" stroke="#bfbfbf" points="72,-56.5 72,-75.5 126,-75.5 126,-56.5 72,-56.5"/>
<text text-anchor="middle" x="99" y="-63.5" font-family="Helvetica,sans-Serif" font-size="10.00">iostream</text>
</g>
<!-- Node3&#45;&gt;Node6 -->
<g id="edge6" class="edge"><title>Node3&#45;&gt;Node6</title>
<path fill="none" stroke="midnightblue" d="M548.602,-187.136C435.992,-184.421 135.871,-174.292 105,-143 90.4361,-128.238 91.4518,-103.077 94.4321,-85.7761"/>
<polygon fill="midnightblue" stroke="midnightblue" points="97.9118,-86.2345 96.5303,-75.7302 91.0597,-84.8034 97.9118,-86.2345"/>
</g>
<!-- Node7 -->
<g id="node8" class="node"><title>Node7</title>
<polygon fill="white" stroke="#bfbfbf" points="611,-56.5 611,-75.5 659,-75.5 659,-56.5 611,-56.5"/>
<text text-anchor="middle" x="635" y="-63.5" font-family="Helvetica,sans-Serif" font-size="10.00">stdlib.h</text>
</g>
<!-- Node3&#45;&gt;Node7 -->
<g id="edge7" class="edge"><title>Node3&#45;&gt;Node7</title>
<path fill="none" stroke="midnightblue" d="M633.167,-187.712C754.882,-186.444 1100.29,-179.625 1134,-143 1143.33,-132.863 1143.29,-122.17 1134,-112 1102.7,-77.7453 776.855,-69.3302 669.263,-67.478"/>
<polygon fill="midnightblue" stroke="midnightblue" points="669.316,-63.9785 659.26,-67.3141 669.201,-70.9776 669.316,-63.9785"/>
</g>
<!-- Node8 -->
<g id="node9" class="node"><title>Node8</title>
<polygon fill="white" stroke="#bfbfbf" points="264.5,-118 264.5,-137 311.5,-137 311.5,-118 264.5,-118"/>
<text text-anchor="middle" x="288" y="-125" font-family="Helvetica,sans-Serif" font-size="10.00">math.h</text>
</g>
<!-- Node3&#45;&gt;Node8 -->
<g id="edge8" class="edge"><title>Node3&#45;&gt;Node8</title>
<path fill="none" stroke="midnightblue" d="M548.907,-184.441C494.951,-179.106 398.944,-166.989 320,-143 318.074,-142.415 316.113,-141.74 314.158,-141.007"/>
<polygon fill="midnightblue" stroke="midnightblue" points="315.197,-137.648 304.621,-137.022 312.498,-144.107 315.197,-137.648"/>
</g>
<!-- Node9 -->
<g id="node10" class="node"><title>Node9</title>
<polygon fill="white" stroke="#bfbfbf" points="329.5,-118 329.5,-137 358.5,-137 358.5,-118 329.5,-118"/>
<text text-anchor="middle" x="344" y="-125" font-family="Helvetica,sans-Serif" font-size="10.00">list</text>
</g>
<!-- Node3&#45;&gt;Node9 -->
<g id="edge9" class="edge"><title>Node3&#45;&gt;Node9</title>
<path fill="none" stroke="midnightblue" d="M548.685,-183.848C502.902,-178.36 428.359,-166.501 368,-143 367.127,-142.66 366.249,-142.289 365.373,-141.894"/>
<polygon fill="midnightblue" stroke="midnightblue" points="366.753,-138.663 356.284,-137.03 363.449,-144.834 366.753,-138.663"/>
</g>
<!-- Node10 -->
<g id="node11" class="node"><title>Node10</title>
<polygon fill="white" stroke="#bfbfbf" points="377,-118 377,-137 419,-137 419,-118 377,-118"/>
<text text-anchor="middle" x="398" y="-125" font-family="Helvetica,sans-Serif" font-size="10.00">vector</text>
</g>
<!-- Node3&#45;&gt;Node10 -->
<g id="edge10" class="edge"><title>Node3&#45;&gt;Node10</title>
<path fill="none" stroke="midnightblue" d="M552.502,-179.455C519.072,-171.544 469.628,-158.659 428,-143 426.579,-142.465 425.133,-141.888 423.684,-141.282"/>
<polygon fill="midnightblue" stroke="midnightblue" points="424.824,-137.956 414.27,-137.024 421.939,-144.334 424.824,-137.956"/>
</g>
<!-- Node11 -->
<g id="node12" class="node"><title>Node11</title>
<polygon fill="white" stroke="#bfbfbf" points="437.5,-118 437.5,-137 472.5,-137 472.5,-118 437.5,-118"/>
<text text-anchor="middle" x="455" y="-125" font-family="Helvetica,sans-Serif" font-size="10.00">map</text>
</g>
<!-- Node3&#45;&gt;Node11 -->
<g id="edge11" class="edge"><title>Node3&#45;&gt;Node11</title>
<path fill="none" stroke="midnightblue" d="M568.163,-179.351C545.904,-170.739 511.236,-156.842 482,-143 481.158,-142.602 480.306,-142.19 479.447,-141.769"/>
<polygon fill="midnightblue" stroke="midnightblue" points="480.776,-138.516 470.283,-137.054 477.574,-144.741 480.776,-138.516"/>
</g>
<!-- Node12 -->
<g id="node13" class="node"><title>Node12</title>
<polygon fill="white" stroke="#bfbfbf" points="491,-118 491,-137 547,-137 547,-118 491,-118"/>
<text text-anchor="middle" x="519" y="-125" font-family="Helvetica,sans-Serif" font-size="10.00">algorithm</text>
</g>
<!-- Node3&#45;&gt;Node12 -->
<g id="edge12" class="edge"><title>Node3&#45;&gt;Node12</title>
<path fill="none" stroke="midnightblue" d="M580.684,-179.475C569.349,-170.108 550.927,-154.884 537.161,-143.508"/>
<polygon fill="midnightblue" stroke="midnightblue" points="539.235,-140.681 529.297,-137.009 534.776,-146.077 539.235,-140.681"/>
</g>
<!-- Node13 -->
<g id="node14" class="node"><title>Node13</title>
<polygon fill="white" stroke="#bfbfbf" points="565,-118 565,-137 617,-137 617,-118 565,-118"/>
<text text-anchor="middle" x="591" y="-125" font-family="Helvetica,sans-Serif" font-size="10.00">assert.h</text>
</g>
<!-- Node3&#45;&gt;Node13 -->
<g id="edge13" class="edge"><title>Node3&#45;&gt;Node13</title>
<path fill="none" stroke="midnightblue" d="M591,-179.475C591,-171.08 591,-157.981 591,-147.163"/>
<polygon fill="midnightblue" stroke="midnightblue" points="594.5,-147.009 591,-137.009 587.5,-147.009 594.5,-147.009"/>
</g>
<!-- Node14 -->
<g id="node15" class="node"><title>Node14</title>
<polygon fill="white" stroke="#bfbfbf" points="635,-118 635,-137 685,-137 685,-118 635,-118"/>
<text text-anchor="middle" x="660" y="-125" font-family="Helvetica,sans-Serif" font-size="10.00">typeinfo</text>
</g>
<!-- Node3&#45;&gt;Node14 -->
<g id="edge14" class="edge"><title>Node3&#45;&gt;Node14</title>
<path fill="none" stroke="midnightblue" d="M600.886,-179.475C611.646,-170.197 629.071,-155.171 642.221,-143.831"/>
<polygon fill="midnightblue" stroke="midnightblue" points="644.845,-146.19 650.132,-137.009 640.273,-140.889 644.845,-146.19"/>
</g>
<!-- Node15 -->
<g id="node16" class="node"><title>Node15</title>
<polygon fill="white" stroke="#bfbfbf" points="703,-118 703,-137 753,-137 753,-118 703,-118"/>
<text text-anchor="middle" x="728" y="-125" font-family="Helvetica,sans-Serif" font-size="10.00">iomanip</text>
</g>
<!-- Node3&#45;&gt;Node15 -->
<g id="edge15" class="edge"><title>Node3&#45;&gt;Node15</title>
<path fill="none" stroke="midnightblue" d="M610.629,-179.475C633.824,-169.401 672.619,-152.553 699.213,-141.002"/>
<polygon fill="midnightblue" stroke="midnightblue" points="700.63,-144.203 708.408,-137.009 697.841,-137.782 700.63,-144.203"/>
</g>
<!-- Node16 -->
<g id="node17" class="node"><title>Node16</title>
<polygon fill="white" stroke="#bfbfbf" points="771.5,-118 771.5,-137 820.5,-137 820.5,-118 771.5,-118"/>
<text text-anchor="middle" x="796" y="-125" font-family="Helvetica,sans-Serif" font-size="10.00">fstream</text>
</g>
<!-- Node3&#45;&gt;Node16 -->
<g id="edge17" class="edge"><title>Node3&#45;&gt;Node16</title>
<path fill="none" stroke="midnightblue" d="M629.85,-179.483C664.825,-171.414 717.424,-158.279 762,-143 763.867,-142.36 765.775,-141.665 767.689,-140.937"/>
<polygon fill="midnightblue" stroke="midnightblue" points="769.167,-144.115 777.129,-137.125 766.546,-137.624 769.167,-144.115"/>
</g>
<!-- Node17 -->
<g id="node18" class="node"><title>Node17</title>
<polygon fill="white" stroke="#bfbfbf" points="839,-118 839,-137 891,-137 891,-118 839,-118"/>
<text text-anchor="middle" x="865" y="-125" font-family="Helvetica,sans-Serif" font-size="10.00">memory</text>
</g>
<!-- Node3&#45;&gt;Node17 -->
<g id="edge18" class="edge"><title>Node3&#45;&gt;Node17</title>
<path fill="none" stroke="midnightblue" d="M633.071,-182.762C681.305,-176.143 762.422,-163.124 830,-143 832.287,-142.319 834.629,-141.54 836.964,-140.704"/>
<polygon fill="midnightblue" stroke="midnightblue" points="838.311,-143.935 846.368,-137.055 835.779,-137.409 838.311,-143.935"/>
</g>
<!-- Node18 -->
<g id="node19" class="node"><title>Node18</title>
<polygon fill="white" stroke="#bfbfbf" points="909,-118 909,-137 1013,-137 1013,-118 909,-118"/>
<text text-anchor="middle" x="961" y="-125" font-family="Helvetica,sans-Serif" font-size="10.00">common/variant.hpp</text>
</g>
<!-- Node3&#45;&gt;Node18 -->
<g id="edge19" class="edge"><title>Node3&#45;&gt;Node18</title>
<path fill="none" stroke="midnightblue" d="M633.181,-183.062C692.855,-175.803 805.221,-161.129 900,-143 905.753,-141.9 911.783,-140.621 917.719,-139.288"/>
<polygon fill="midnightblue" stroke="midnightblue" points="918.6,-142.677 927.555,-137.015 917.024,-135.856 918.6,-142.677"/>
</g>
<!-- Node3&#45;&gt;Node19 -->
<g id="edge20" class="edge"><title>Node3&#45;&gt;Node19</title>
<path fill="none" stroke="midnightblue" d="M548.979,-183.164C487.119,-175.871 367.683,-161.132 256.279,-143.154"/>
<polygon fill="midnightblue" stroke="midnightblue" points="256.648,-139.668 246.216,-141.517 255.525,-146.577 256.648,-139.668"/>
</g>
<!-- Node20 -->
<g id="node21" class="node"><title>Node20</title>
<g id="a_node21"><a xlink:href="_n_f_platform_8h.html" target="_top" xlink:title="NFPlatform.h">
<polygon fill="white" stroke="black" points="1066,-56.5 1066,-75.5 1140,-75.5 1140,-56.5 1066,-56.5"/>
<text text-anchor="middle" x="1103" y="-63.5" font-family="Helvetica,sans-Serif" font-size="10.00">NFPlatform.h</text>
</a>
</g>
</g>
<!-- Node3&#45;&gt;Node20 -->
<g id="edge30" class="edge"><title>Node3&#45;&gt;Node20</title>
<path fill="none" stroke="midnightblue" d="M633.15,-187.826C757.456,-186.877 1116.07,-180.854 1151,-143 1168.41,-124.135 1143.63,-98.1333 1123.69,-81.9565"/>
<polygon fill="midnightblue" stroke="midnightblue" points="1125.62,-79.0298 1115.57,-75.6745 1121.34,-84.5644 1125.62,-79.0298"/>
</g>
<!-- Node26 -->
<g id="node27" class="node"><title>Node26</title>
<g id="a_node27"><a xlink:href="_vector3_8hpp.html" target="_top" xlink:title="Math/Vector3.hpp">
<polygon fill="white" stroke="black" points="1031,-118 1031,-137 1125,-137 1125,-118 1031,-118"/>
<text text-anchor="middle" x="1078" y="-125" font-family="Helvetica,sans-Serif" font-size="10.00">Math/Vector3.hpp</text>
</a>
</g>
</g>
<!-- Node3&#45;&gt;Node26 -->
<g id="edge31" class="edge"><title>Node3&#45;&gt;Node26</title>
<path fill="none" stroke="midnightblue" d="M633.203,-185.691C710.719,-180.987 880.778,-168.508 1022,-143 1027.44,-142.018 1033.12,-140.789 1038.7,-139.464"/>
<polygon fill="midnightblue" stroke="midnightblue" points="1039.68,-142.825 1048.54,-137.008 1037.99,-136.033 1039.68,-142.825"/>
</g>
<!-- Node19&#45;&gt;Node6 -->
<g id="edge27" class="edge"><title>Node19&#45;&gt;Node6</title>
<path fill="none" stroke="midnightblue" d="M160.804,-112.399C148.184,-103.129 131.707,-91.0254 118.939,-81.6469"/>
<polygon fill="midnightblue" stroke="midnightblue" points="120.918,-78.7572 110.786,-75.6578 116.773,-84.3987 120.918,-78.7572"/>
</g>
<!-- Node19&#45;&gt;Node7 -->
<g id="edge29" class="edge"><title>Node19&#45;&gt;Node7</title>
<path fill="none" stroke="midnightblue" d="M246.207,-113.428C249.176,-112.927 252.117,-112.449 255,-112 381.849,-92.2541 533.718,-76.6776 600.556,-70.2272"/>
<polygon fill="midnightblue" stroke="midnightblue" points="601.288,-73.6732 610.909,-69.2356 600.621,-66.705 601.288,-73.6732"/>
</g>
<!-- Node19&#45;&gt;Node20 -->
<g id="edge21" class="edge"><title>Node19&#45;&gt;Node20</title>
<path fill="none" stroke="midnightblue" d="M246.175,-113.193C249.152,-112.756 252.104,-112.355 255,-112 558.168,-74.8299 926.025,-68.3498 1055.31,-67.2301"/>
<polygon fill="midnightblue" stroke="midnightblue" points="1055.67,-70.7274 1065.64,-67.1478 1055.62,-63.7276 1055.67,-70.7274"/>
</g>
<!-- Node25 -->
<g id="node26" class="node"><title>Node25</title>
<polygon fill="white" stroke="#bfbfbf" points="157,-56.5 157,-75.5 203,-75.5 203,-56.5 157,-56.5"/>
<text text-anchor="middle" x="180" y="-63.5" font-family="Helvetica,sans-Serif" font-size="10.00">stdio.h</text>
</g>
<!-- Node19&#45;&gt;Node25 -->
<g id="edge28" class="edge"><title>Node19&#45;&gt;Node25</title>
<path fill="none" stroke="midnightblue" d="M180,-112.399C180,-104.466 180,-94.458 180,-85.8583"/>
<polygon fill="midnightblue" stroke="midnightblue" points="183.5,-85.6577 180,-75.6578 176.5,-85.6578 183.5,-85.6577"/>
</g>
<!-- Node20&#45;&gt;Node4 -->
<g id="edge26" class="edge"><title>Node20&#45;&gt;Node4</title>
<path fill="none" stroke="midnightblue" d="M1122.97,-56.4435C1143.61,-47.5961 1176.06,-33.6875 1199.63,-23.5865"/>
<polygon fill="midnightblue" stroke="midnightblue" points="1201.32,-26.6727 1209.13,-19.5164 1198.56,-20.2387 1201.32,-26.6727"/>
</g>
<!-- Node21 -->
<g id="node22" class="node"><title>Node21</title>
<polygon fill="white" stroke="#bfbfbf" points="1078.5,-0.5 1078.5,-19.5 1127.5,-19.5 1127.5,-0.5 1078.5,-0.5"/>
<text text-anchor="middle" x="1103" y="-7.5" font-family="Helvetica,sans-Serif" font-size="10.00">stdint.h</text>
</g>
<!-- Node20&#45;&gt;Node21 -->
<g id="edge22" class="edge"><title>Node20&#45;&gt;Node21</title>
<path fill="none" stroke="midnightblue" d="M1103,-56.083C1103,-49.0059 1103,-38.8611 1103,-29.9865"/>
<polygon fill="midnightblue" stroke="midnightblue" points="1106.5,-29.751 1103,-19.7511 1099.5,-29.7511 1106.5,-29.751"/>
</g>
<!-- Node22 -->
<g id="node23" class="node"><title>Node22</title>
<polygon fill="white" stroke="#bfbfbf" points="1146,-0.5 1146,-19.5 1190,-19.5 1190,-0.5 1146,-0.5"/>
<text text-anchor="middle" x="1168" y="-7.5" font-family="Helvetica,sans-Serif" font-size="10.00">time.h</text>
</g>
<!-- Node20&#45;&gt;Node22 -->
<g id="edge23" class="edge"><title>Node20&#45;&gt;Node22</title>
<path fill="none" stroke="midnightblue" d="M1113.44,-56.324C1123.15,-48.2631 1137.82,-36.0765 1149.5,-26.3695"/>
<polygon fill="midnightblue" stroke="midnightblue" points="1151.91,-28.9163 1157.37,-19.8339 1147.44,-23.532 1151.91,-28.9163"/>
</g>
<!-- Node23 -->
<g id="node24" class="node"><title>Node23</title>
<polygon fill="white" stroke="#bfbfbf" points="862,-0.5 862,-19.5 914,-19.5 914,-0.5 862,-0.5"/>
<text text-anchor="middle" x="888" y="-7.5" font-family="Helvetica,sans-Serif" font-size="10.00">sstream</text>
</g>
<!-- Node20&#45;&gt;Node23 -->
<g id="edge24" class="edge"><title>Node20&#45;&gt;Node23</title>
<path fill="none" stroke="midnightblue" d="M1068.48,-56.4419C1034.21,-47.9318 979.93,-34.4076 924.075,-20.2612"/>
<polygon fill="midnightblue" stroke="midnightblue" points="924.922,-16.8654 914.368,-17.8006 923.202,-23.6507 924.922,-16.8654"/>
</g>
<!-- Node24 -->
<g id="node25" class="node"><title>Node24</title>
<polygon fill="white" stroke="#bfbfbf" points="932,-0.5 932,-19.5 1060,-19.5 1060,-0.5 932,-0.5"/>
<text text-anchor="middle" x="996" y="-7.5" font-family="Helvetica,sans-Serif" font-size="10.00">common/lexical_cast.hpp</text>
</g>
<!-- Node20&#45;&gt;Node24 -->
<g id="edge25" class="edge"><title>Node20&#45;&gt;Node24</title>
<path fill="none" stroke="midnightblue" d="M1085.81,-56.324C1068.65,-47.6641 1042.05,-34.2424 1022.25,-24.249"/>
<polygon fill="midnightblue" stroke="midnightblue" points="1023.65,-21.0354 1013.15,-19.6545 1020.5,-27.2847 1023.65,-21.0354"/>
</g>
</g>
</svg>
        <g id="navigator" transform="translate(0 0)" fill="#404254">
                <rect fill="#f2f5e9" fill-opacity="0.5" stroke="#606060" stroke-width=".5" x="0" y="0" width="60" height="60"/>
                <use id="zoomplus" xlink:href="#zoomPlus" x="17" y="9" onmousedown="handleZoom(evt,'in')"/>
                <use id="zoomminus" xlink:href="#zoomMin" x="42" y="9" onmousedown="handleZoom(evt,'out')"/>
                <use id="reset" xlink:href="#resetDef" x="30" y="36" onmousedown="handleReset()"/>
                <g id="arrowUp" xlink:href="#dirArrow" transform="translate(30 24)" onmousedown="handlePan(0,-1)">
                  <use xlink:href="#rim" fill="#404040">
                        <set attributeName="fill" to="#808080" begin="arrowUp.mouseover" end="arrowUp.mouseout"/>
                  </use>
                  <path fill="none" stroke="white" stroke-width="1.5" d="M0,-3.0v7 M-2.5,-0.5L0,-3.0L2.5,-0.5"/>
                </g>
                <g id="arrowRight" xlink:href="#dirArrow" transform="rotate(90) translate(36 -43)" onmousedown="handlePan(1,0)">
                  <use xlink:href="#rim" fill="#404040">
                        <set attributeName="fill" to="#808080" begin="arrowRight.mouseover" end="arrowRight.mouseout"/>
                  </use>
                  <path fill="none" stroke="white" stroke-width="1.5" d="M0,-3.0v7 M-2.5,-0.5L0,-3.0L2.5,-0.5"/>
                </g>
                <g id="arrowDown" xlink:href="#dirArrow" transform="rotate(180) translate(-30 -48)" onmousedown="handlePan(0,1)">
                  <use xlink:href="#rim" fill="#404040">
                        <set attributeName="fill" to="#808080" begin="arrowDown.mouseover" end="arrowDown.mouseout"/>
                  </use>
                  <path fill="none" stroke="white" stroke-width="1.5" d="M0,-3.0v7 M-2.5,-0.5L0,-3.0L2.5,-0.5"/>
                </g>
                <g id="arrowLeft" xlink:href="#dirArrow" transform="rotate(270) translate(-36 17)" onmousedown="handlePan(-1,0)">
                  <use xlink:href="#rim" fill="#404040">
                        <set attributeName="fill" to="#808080" begin="arrowLeft.mouseover" end="arrowLeft.mouseout"/>
                  </use>
                  <path fill="none" stroke="white" stroke-width="1.5" d="M0,-3.0v7 M-2.5,-0.5L0,-3.0L2.5,-0.5"/>
                </g>
        </g>
        <svg viewBox="0 0 15 15" width="100%" height="30px" preserveAspectRatio="xMaxYMin meet">
         <g id="arrow_out" transform="scale(0.3 0.3)">
          <a xlink:href="_n_f_i_record_8h__incl_org.svg" target="_base">
           <rect id="button" ry="5" rx="5" y="6" x="6" height="38" width="38"
                fill="#f2f5e9" fill-opacity="0.5" stroke="#606060" stroke-width="1.0"/>
           <path id="arrow"
             d="M 11.500037,31.436501 C 11.940474,20.09759 22.043105,11.32322 32.158766,21.979434 L 37.068811,17.246167 C 37.068811,17.246167 37.088388,32 37.088388,32 L 22.160133,31.978069 C 22.160133,31.978069 26.997745,27.140456 26.997745,27.140456 C 18.528582,18.264221 13.291696,25.230495 11.500037,31.436501 z"
             style="fill:#404040;"/>
          </a>
         </g>
        </svg>
</svg>
