<?xml version="1.0" encoding="UTF-8" standalone="no"?>
<!DOCTYPE svg PUBLIC "-//W3C//DTD SVG 1.1//EN"
 "http://www.w3.org/Graphics/SVG/1.1/DTD/svg11.dtd">
<!-- Generated by graphviz version 2.38.0 (20140413.2041)
 -->
<!-- Title: NFIGameServerModule.h Pages: 1 -->
<svg width="294pt" height="140pt"
 viewBox="0.00 0.00 294.00 140.00" xmlns="http://www.w3.org/2000/svg" xmlns:xlink="http://www.w3.org/1999/xlink">
<g id="graph0" class="graph" transform="scale(1 1) rotate(0) translate(4 136)">
<title>NFIGameServerModule.h</title>
<polygon fill="white" stroke="none" points="-4,4 -4,-136 290,-136 290,4 -4,4"/>
<!-- Node33 -->
<g id="node1" class="node"><title>Node33</title>
<polygon fill="#bfbfbf" stroke="black" points="83.5,-112.5 83.5,-131.5 208.5,-131.5 208.5,-112.5 83.5,-112.5"/>
<text text-anchor="middle" x="146" y="-119.5" font-family="Helvetica,sans-Serif" font-size="10.00">NFIGameServerModule.h</text>
</g>
<!-- Node34 -->
<g id="node2" class="node"><title>Node34</title>
<g id="a_node2"><a xlink:href="_n_f_c_game_server_module_8h.html" target="_top" xlink:title="NFCGameServerModule.h">
<polygon fill="white" stroke="black" points="81.5,-56.5 81.5,-75.5 210.5,-75.5 210.5,-56.5 81.5,-56.5"/>
<text text-anchor="middle" x="146" y="-63.5" font-family="Helvetica,sans-Serif" font-size="10.00">NFCGameServerModule.h</text>
</a>
</g>
</g>
<!-- Node33&#45;&gt;Node34 -->
<g id="edge1" class="edge"><title>Node33&#45;&gt;Node34</title>
<path fill="none" stroke="midnightblue" d="M146,-101.805C146,-92.9102 146,-82.7798 146,-75.7511"/>
<polygon fill="midnightblue" stroke="midnightblue" points="142.5,-102.083 146,-112.083 149.5,-102.083 142.5,-102.083"/>
</g>
<!-- Node35 -->
<g id="node3" class="node"><title>Node35</title>
<g id="a_node3"><a xlink:href="_n_f_c_game_server_module_8cpp.html" target="_top" xlink:title="NFCGameServerModule.cpp">
<polygon fill="white" stroke="black" points="0,-0.5 0,-19.5 140,-19.5 140,-0.5 0,-0.5"/>
<text text-anchor="middle" x="70" y="-7.5" font-family="Helvetica,sans-Serif" font-size="10.00">NFCGameServerModule.cpp</text>
</a>
</g>
</g>
<!-- Node34&#45;&gt;Node35 -->
<g id="edge2" class="edge"><title>Node34&#45;&gt;Node35</title>
<path fill="none" stroke="midnightblue" d="M125.424,-50.3804C111.688,-40.6204 94.0747,-28.1057 82.4329,-19.8339"/>
<polygon fill="midnightblue" stroke="midnightblue" points="123.61,-53.385 133.789,-56.324 127.665,-47.6787 123.61,-53.385"/>
</g>
<!-- Node36 -->
<g id="node4" class="node"><title>Node36</title>
<g id="a_node4"><a xlink:href="_n_f_game_server_plugin_8cpp.html" target="_top" xlink:title="NFGameServerPlugin.cpp">
<polygon fill="white" stroke="black" points="158,-0.5 158,-19.5 286,-19.5 286,-0.5 158,-0.5"/>
<text text-anchor="middle" x="222" y="-7.5" font-family="Helvetica,sans-Serif" font-size="10.00">NFGameServerPlugin.cpp</text>
</a>
</g>
</g>
<!-- Node34&#45;&gt;Node36 -->
<g id="edge3" class="edge"><title>Node34&#45;&gt;Node36</title>
<path fill="none" stroke="midnightblue" d="M166.576,-50.3804C180.312,-40.6204 197.925,-28.1057 209.567,-19.8339"/>
<polygon fill="midnightblue" stroke="midnightblue" points="164.335,-47.6787 158.211,-56.324 168.39,-53.385 164.335,-47.6787"/>
</g>
</g>
</svg>
