<?xml version="1.0" encoding="UTF-8" standalone="no"?>
<!DOCTYPE svg PUBLIC "-//W3C//DTD SVG 1.1//EN"
 "http://www.w3.org/Graphics/SVG/1.1/DTD/svg11.dtd">
<!-- Generated by graphviz version 2.38.0 (20140413.2041)
 -->
<!-- Title: NFLockFreeQueue.h Pages: 1 -->
<svg width="415pt" height="151pt"
 viewBox="0.00 0.00 415.00 151.00" xmlns="http://www.w3.org/2000/svg" xmlns:xlink="http://www.w3.org/1999/xlink">
<g id="graph0" class="graph" transform="scale(1 1) rotate(0) translate(4 147)">
<title>NFLockFreeQueue.h</title>
<polygon fill="white" stroke="none" points="-4,4 -4,-147 411,-147 411,4 -4,4"/>
<!-- Node0 -->
<g id="node1" class="node"><title>Node0</title>
<polygon fill="#bfbfbf" stroke="black" points="69,-123.5 69,-142.5 176,-142.5 176,-123.5 69,-123.5"/>
<text text-anchor="middle" x="122.5" y="-130.5" font-family="Helvetica,sans-Serif" font-size="10.00">NFLockFreeQueue.h</text>
</g>
<!-- Node1 -->
<g id="node2" class="node"><title>Node1</title>
<polygon fill="white" stroke="#bfbfbf" points="0,-62 0,-81 29,-81 29,-62 0,-62"/>
<text text-anchor="middle" x="14.5" y="-69" font-family="Helvetica,sans-Serif" font-size="10.00">list</text>
</g>
<!-- Node0&#45;&gt;Node1 -->
<g id="edge1" class="edge"><title>Node0&#45;&gt;Node1</title>
<path fill="none" stroke="midnightblue" d="M105.945,-123.454C88.9029,-114.581 61.6464,-100.18 38.5,-87 38.0875,-86.7651 37.6717,-86.5271 37.2533,-86.2866"/>
<polygon fill="midnightblue" stroke="midnightblue" points="38.7793,-83.1232 28.3879,-81.0568 35.2226,-89.1523 38.7793,-83.1232"/>
</g>
<!-- Node2 -->
<g id="node3" class="node"><title>Node2</title>
<polygon fill="white" stroke="#bfbfbf" points="47.5,-62 47.5,-81 91.5,-81 91.5,-62 47.5,-62"/>
<text text-anchor="middle" x="69.5" y="-69" font-family="Helvetica,sans-Serif" font-size="10.00">thread</text>
</g>
<!-- Node0&#45;&gt;Node2 -->
<g id="edge2" class="edge"><title>Node0&#45;&gt;Node2</title>
<path fill="none" stroke="midnightblue" d="M114.906,-123.475C106.799,-114.373 93.7651,-99.741 83.7369,-88.483"/>
<polygon fill="midnightblue" stroke="midnightblue" points="86.3445,-86.1483 77.0795,-81.0091 81.1175,-90.8043 86.3445,-86.1483"/>
</g>
<!-- Node3 -->
<g id="node4" class="node"><title>Node3</title>
<g id="a_node4"><a xlink:href="_n_f_platform_8h.html" target="_top" xlink:title="NFComm/NFPluginModule\l/NFPlatform.h">
<polygon fill="white" stroke="black" points="109.5,-56.5 109.5,-86.5 241.5,-86.5 241.5,-56.5 109.5,-56.5"/>
<text text-anchor="start" x="117.5" y="-74.5" font-family="Helvetica,sans-Serif" font-size="10.00">NFComm/NFPluginModule</text>
<text text-anchor="middle" x="175.5" y="-63.5" font-family="Helvetica,sans-Serif" font-size="10.00">/NFPlatform.h</text>
</a>
</g>
</g>
<!-- Node0&#45;&gt;Node3 -->
<g id="edge3" class="edge"><title>Node0&#45;&gt;Node3</title>
<path fill="none" stroke="midnightblue" d="M130.094,-123.475C136.869,-115.869 147.086,-104.399 156.113,-94.2649"/>
<polygon fill="midnightblue" stroke="midnightblue" points="158.971,-96.3182 163.009,-86.523 153.744,-91.6622 158.971,-96.3182"/>
</g>
<!-- Node9 -->
<g id="node10" class="node"><title>Node9</title>
<polygon fill="white" stroke="#bfbfbf" points="259.5,-62 259.5,-81 401.5,-81 401.5,-62 259.5,-62"/>
<text text-anchor="middle" x="330.5" y="-69" font-family="Helvetica,sans-Serif" font-size="10.00">common/readerwriterqueue.h</text>
</g>
<!-- Node0&#45;&gt;Node9 -->
<g id="edge9" class="edge"><title>Node0&#45;&gt;Node9</title>
<path fill="none" stroke="midnightblue" d="M152.301,-123.475C188.753,-113.048 250.58,-95.3618 290.974,-83.8066"/>
<polygon fill="midnightblue" stroke="midnightblue" points="292.102,-87.1244 300.754,-81.0091 290.177,-80.3944 292.102,-87.1244"/>
</g>
<!-- Node4 -->
<g id="node5" class="node"><title>Node4</title>
<polygon fill="white" stroke="#bfbfbf" points="20,-0.5 20,-19.5 69,-19.5 69,-0.5 20,-0.5"/>
<text text-anchor="middle" x="44.5" y="-7.5" font-family="Helvetica,sans-Serif" font-size="10.00">stdint.h</text>
</g>
<!-- Node3&#45;&gt;Node4 -->
<g id="edge4" class="edge"><title>Node3&#45;&gt;Node4</title>
<path fill="none" stroke="midnightblue" d="M144.455,-56.3993C122.77,-46.55 94.0409,-33.5014 72.9495,-23.9217"/>
<polygon fill="midnightblue" stroke="midnightblue" points="74.1139,-20.6065 63.5617,-19.6578 71.2191,-26.9799 74.1139,-20.6065"/>
</g>
<!-- Node5 -->
<g id="node6" class="node"><title>Node5</title>
<polygon fill="white" stroke="#bfbfbf" points="87.5,-0.5 87.5,-19.5 131.5,-19.5 131.5,-0.5 87.5,-0.5"/>
<text text-anchor="middle" x="109.5" y="-7.5" font-family="Helvetica,sans-Serif" font-size="10.00">time.h</text>
</g>
<!-- Node3&#45;&gt;Node5 -->
<g id="edge5" class="edge"><title>Node3&#45;&gt;Node5</title>
<path fill="none" stroke="midnightblue" d="M159.859,-56.3993C149.873,-47.3967 136.922,-35.7214 126.655,-26.4652"/>
<polygon fill="midnightblue" stroke="midnightblue" points="128.875,-23.7541 119.104,-19.6578 124.187,-28.9533 128.875,-23.7541"/>
</g>
<!-- Node6 -->
<g id="node7" class="node"><title>Node6</title>
<polygon fill="white" stroke="#bfbfbf" points="149.5,-0.5 149.5,-19.5 201.5,-19.5 201.5,-0.5 149.5,-0.5"/>
<text text-anchor="middle" x="175.5" y="-7.5" font-family="Helvetica,sans-Serif" font-size="10.00">sstream</text>
</g>
<!-- Node3&#45;&gt;Node6 -->
<g id="edge6" class="edge"><title>Node3&#45;&gt;Node6</title>
<path fill="none" stroke="midnightblue" d="M175.5,-56.3993C175.5,-48.4664 175.5,-38.458 175.5,-29.8583"/>
<polygon fill="midnightblue" stroke="midnightblue" points="179,-29.6577 175.5,-19.6578 172,-29.6578 179,-29.6577"/>
</g>
<!-- Node7 -->
<g id="node8" class="node"><title>Node7</title>
<polygon fill="white" stroke="#bfbfbf" points="219.5,-0.5 219.5,-19.5 347.5,-19.5 347.5,-0.5 219.5,-0.5"/>
<text text-anchor="middle" x="283.5" y="-7.5" font-family="Helvetica,sans-Serif" font-size="10.00">common/lexical_cast.hpp</text>
</g>
<!-- Node3&#45;&gt;Node7 -->
<g id="edge7" class="edge"><title>Node3&#45;&gt;Node7</title>
<path fill="none" stroke="midnightblue" d="M201.094,-56.3993C218.568,-46.7728 241.588,-34.0902 258.856,-24.5772"/>
<polygon fill="midnightblue" stroke="midnightblue" points="260.715,-27.5488 267.785,-19.6578 257.337,-21.4177 260.715,-27.5488"/>
</g>
<!-- Node8 -->
<g id="node9" class="node"><title>Node8</title>
<polygon fill="white" stroke="#bfbfbf" points="366,-0.5 366,-19.5 407,-19.5 407,-0.5 366,-0.5"/>
<text text-anchor="middle" x="386.5" y="-7.5" font-family="Helvetica,sans-Serif" font-size="10.00">string</text>
</g>
<!-- Node3&#45;&gt;Node8 -->
<g id="edge8" class="edge"><title>Node3&#45;&gt;Node8</title>
<path fill="none" stroke="midnightblue" d="M227.067,-56.3981C261.057,-47.0377 306.791,-34.3197 355.978,-20.1107"/>
<polygon fill="midnightblue" stroke="midnightblue" points="357.227,-23.3929 365.859,-17.2496 355.28,-16.6691 357.227,-23.3929"/>
</g>
</g>
</svg>
