<?xml version="1.0" encoding="UTF-8" standalone="no"?>
<!DOCTYPE svg PUBLIC "-//W3C//DTD SVG 1.1//EN"
 "http://www.w3.org/Graphics/SVG/1.1/DTD/svg11.dtd">
<!-- Generated by graphviz version 2.38.0 (20140413.2041)
 -->
<!-- Title: NFCMemManger.h Pages: 1 -->
<svg width="250pt" height="84pt"
 viewBox="0.00 0.00 249.50 84.00" xmlns="http://www.w3.org/2000/svg" xmlns:xlink="http://www.w3.org/1999/xlink">
<g id="graph0" class="graph" transform="scale(1 1) rotate(0) translate(4 80)">
<title>NFCMemManger.h</title>
<polygon fill="white" stroke="none" points="-4,4 -4,-80 245.5,-80 245.5,4 -4,4"/>
<!-- Node9 -->
<g id="node1" class="node"><title>Node9</title>
<polygon fill="#bfbfbf" stroke="black" points="70.5,-56.5 70.5,-75.5 168.5,-75.5 168.5,-56.5 70.5,-56.5"/>
<text text-anchor="middle" x="119.5" y="-63.5" font-family="Helvetica,sans-Serif" font-size="10.00">NFCMemManger.h</text>
</g>
<!-- Node10 -->
<g id="node2" class="node"><title>Node10</title>
<g id="a_node2"><a xlink:href="_n_f_c_mem_manger_8cpp.html" target="_top" xlink:title="NFCMemManger.cpp">
<polygon fill="white" stroke="black" points="0,-0.5 0,-19.5 109,-19.5 109,-0.5 0,-0.5"/>
<text text-anchor="middle" x="54.5" y="-7.5" font-family="Helvetica,sans-Serif" font-size="10.00">NFCMemManger.cpp</text>
</a>
</g>
</g>
<!-- Node9&#45;&gt;Node10 -->
<g id="edge1" class="edge"><title>Node9&#45;&gt;Node10</title>
<path fill="none" stroke="midnightblue" d="M101.227,-49.8197C89.5822,-40.1452 74.9005,-27.9481 65.1334,-19.8339"/>
<polygon fill="midnightblue" stroke="midnightblue" points="99.1281,-52.6259 109.057,-56.324 103.601,-47.2416 99.1281,-52.6259"/>
</g>
<!-- Node11 -->
<g id="node3" class="node"><title>Node11</title>
<g id="a_node3"><a xlink:href="_n_f_c_kernel_module_8cpp.html" target="_top" xlink:title="NFCKernelModule.cpp">
<polygon fill="white" stroke="black" points="127.5,-0.5 127.5,-19.5 241.5,-19.5 241.5,-0.5 127.5,-0.5"/>
<text text-anchor="middle" x="184.5" y="-7.5" font-family="Helvetica,sans-Serif" font-size="10.00">NFCKernelModule.cpp</text>
</a>
</g>
</g>
<!-- Node9&#45;&gt;Node11 -->
<g id="edge2" class="edge"><title>Node9&#45;&gt;Node11</title>
<path fill="none" stroke="midnightblue" d="M137.773,-49.8197C149.418,-40.1452 164.099,-27.9481 173.867,-19.8339"/>
<polygon fill="midnightblue" stroke="midnightblue" points="135.399,-47.2416 129.943,-56.324 139.872,-52.6259 135.399,-47.2416"/>
</g>
</g>
</svg>
