<?xml version="1.0" encoding="UTF-8" standalone="no"?>
<!DOCTYPE svg PUBLIC "-//W3C//DTD SVG 1.1//EN"
 "http://www.w3.org/Graphics/SVG/1.1/DTD/svg11.dtd">
<!-- Generated by graphviz version 2.38.0 (20140413.2041)
 -->
<!-- Title: NFCDynLib.cpp Pages: 1 -->
<svg width="442pt" height="207pt"
 viewBox="0.00 0.00 441.50 207.00" xmlns="http://www.w3.org/2000/svg" xmlns:xlink="http://www.w3.org/1999/xlink">
<g id="graph0" class="graph" transform="scale(1 1) rotate(0) translate(4 203)">
<title>NFCDynLib.cpp</title>
<polygon fill="white" stroke="none" points="-4,4 -4,-203 437.5,-203 437.5,4 -4,4"/>
<!-- Node0 -->
<g id="node1" class="node"><title>Node0</title>
<polygon fill="#bfbfbf" stroke="black" points="48.5,-179.5 48.5,-198.5 133.5,-198.5 133.5,-179.5 48.5,-179.5"/>
<text text-anchor="middle" x="91" y="-186.5" font-family="Helvetica,sans-Serif" font-size="10.00">NFCDynLib.cpp</text>
</g>
<!-- Node1 -->
<g id="node2" class="node"><title>Node1</title>
<g id="a_node2"><a xlink:href="_n_f_c_dyn_lib_8h.html" target="_top" xlink:title="NFCDynLib.h">
<polygon fill="white" stroke="black" points="54,-123.5 54,-142.5 128,-142.5 128,-123.5 54,-123.5"/>
<text text-anchor="middle" x="91" y="-130.5" font-family="Helvetica,sans-Serif" font-size="10.00">NFCDynLib.h</text>
</a>
</g>
</g>
<!-- Node0&#45;&gt;Node1 -->
<g id="edge1" class="edge"><title>Node0&#45;&gt;Node1</title>
<path fill="none" stroke="midnightblue" d="M91,-179.083C91,-172.006 91,-161.861 91,-152.986"/>
<polygon fill="midnightblue" stroke="midnightblue" points="94.5001,-152.751 91,-142.751 87.5001,-152.751 94.5001,-152.751"/>
</g>
<!-- Node2 -->
<g id="node3" class="node"><title>Node2</title>
<polygon fill="white" stroke="#bfbfbf" points="0,-62 0,-81 46,-81 46,-62 0,-62"/>
<text text-anchor="middle" x="23" y="-69" font-family="Helvetica,sans-Serif" font-size="10.00">stdio.h</text>
</g>
<!-- Node1&#45;&gt;Node2 -->
<g id="edge2" class="edge"><title>Node1&#45;&gt;Node2</title>
<path fill="none" stroke="midnightblue" d="M81.2573,-123.475C70.6532,-114.197 53.4807,-99.1706 40.5212,-87.831"/>
<polygon fill="midnightblue" stroke="midnightblue" points="42.5552,-84.9601 32.7247,-81.0091 37.9457,-90.2282 42.5552,-84.9601"/>
</g>
<!-- Node3 -->
<g id="node4" class="node"><title>Node3</title>
<polygon fill="white" stroke="#bfbfbf" points="64,-62 64,-81 118,-81 118,-62 64,-62"/>
<text text-anchor="middle" x="91" y="-69" font-family="Helvetica,sans-Serif" font-size="10.00">iostream</text>
</g>
<!-- Node1&#45;&gt;Node3 -->
<g id="edge3" class="edge"><title>Node1&#45;&gt;Node3</title>
<path fill="none" stroke="midnightblue" d="M91,-123.475C91,-115.08 91,-101.981 91,-91.1631"/>
<polygon fill="midnightblue" stroke="midnightblue" points="94.5001,-91.0091 91,-81.0091 87.5001,-91.0091 94.5001,-91.0091"/>
</g>
<!-- Node4 -->
<g id="node5" class="node"><title>Node4</title>
<g id="a_node5"><a xlink:href="_n_f_platform_8h.html" target="_top" xlink:title="NFComm/NFPluginModule\l/NFPlatform.h">
<polygon fill="white" stroke="black" points="136,-56.5 136,-86.5 268,-86.5 268,-56.5 136,-56.5"/>
<text text-anchor="start" x="144" y="-74.5" font-family="Helvetica,sans-Serif" font-size="10.00">NFComm/NFPluginModule</text>
<text text-anchor="middle" x="202" y="-63.5" font-family="Helvetica,sans-Serif" font-size="10.00">/NFPlatform.h</text>
</a>
</g>
</g>
<!-- Node1&#45;&gt;Node4 -->
<g id="edge4" class="edge"><title>Node1&#45;&gt;Node4</title>
<path fill="none" stroke="midnightblue" d="M106.904,-123.475C122.499,-115.115 146.798,-102.09 166.929,-91.2991"/>
<polygon fill="midnightblue" stroke="midnightblue" points="168.679,-94.3322 175.839,-86.523 165.372,-88.1627 168.679,-94.3322"/>
</g>
<!-- Node5 -->
<g id="node6" class="node"><title>Node5</title>
<polygon fill="white" stroke="#bfbfbf" points="46.5,-0.5 46.5,-19.5 95.5,-19.5 95.5,-0.5 46.5,-0.5"/>
<text text-anchor="middle" x="71" y="-7.5" font-family="Helvetica,sans-Serif" font-size="10.00">stdint.h</text>
</g>
<!-- Node4&#45;&gt;Node5 -->
<g id="edge5" class="edge"><title>Node4&#45;&gt;Node5</title>
<path fill="none" stroke="midnightblue" d="M170.955,-56.3993C149.27,-46.55 120.541,-33.5014 99.4495,-23.9217"/>
<polygon fill="midnightblue" stroke="midnightblue" points="100.614,-20.6065 90.0617,-19.6578 97.7191,-26.9799 100.614,-20.6065"/>
</g>
<!-- Node6 -->
<g id="node7" class="node"><title>Node6</title>
<polygon fill="white" stroke="#bfbfbf" points="114,-0.5 114,-19.5 158,-19.5 158,-0.5 114,-0.5"/>
<text text-anchor="middle" x="136" y="-7.5" font-family="Helvetica,sans-Serif" font-size="10.00">time.h</text>
</g>
<!-- Node4&#45;&gt;Node6 -->
<g id="edge6" class="edge"><title>Node4&#45;&gt;Node6</title>
<path fill="none" stroke="midnightblue" d="M186.359,-56.3993C176.373,-47.3967 163.422,-35.7214 153.155,-26.4652"/>
<polygon fill="midnightblue" stroke="midnightblue" points="155.375,-23.7541 145.604,-19.6578 150.687,-28.9533 155.375,-23.7541"/>
</g>
<!-- Node7 -->
<g id="node8" class="node"><title>Node7</title>
<polygon fill="white" stroke="#bfbfbf" points="176,-0.5 176,-19.5 228,-19.5 228,-0.5 176,-0.5"/>
<text text-anchor="middle" x="202" y="-7.5" font-family="Helvetica,sans-Serif" font-size="10.00">sstream</text>
</g>
<!-- Node4&#45;&gt;Node7 -->
<g id="edge7" class="edge"><title>Node4&#45;&gt;Node7</title>
<path fill="none" stroke="midnightblue" d="M202,-56.3993C202,-48.4664 202,-38.458 202,-29.8583"/>
<polygon fill="midnightblue" stroke="midnightblue" points="205.5,-29.6577 202,-19.6578 198.5,-29.6578 205.5,-29.6577"/>
</g>
<!-- Node8 -->
<g id="node9" class="node"><title>Node8</title>
<polygon fill="white" stroke="#bfbfbf" points="246,-0.5 246,-19.5 374,-19.5 374,-0.5 246,-0.5"/>
<text text-anchor="middle" x="310" y="-7.5" font-family="Helvetica,sans-Serif" font-size="10.00">common/lexical_cast.hpp</text>
</g>
<!-- Node4&#45;&gt;Node8 -->
<g id="edge8" class="edge"><title>Node4&#45;&gt;Node8</title>
<path fill="none" stroke="midnightblue" d="M227.594,-56.3993C245.068,-46.7728 268.088,-34.0902 285.356,-24.5772"/>
<polygon fill="midnightblue" stroke="midnightblue" points="287.215,-27.5488 294.285,-19.6578 283.837,-21.4177 287.215,-27.5488"/>
</g>
<!-- Node9 -->
<g id="node10" class="node"><title>Node9</title>
<polygon fill="white" stroke="#bfbfbf" points="392.5,-0.5 392.5,-19.5 433.5,-19.5 433.5,-0.5 392.5,-0.5"/>
<text text-anchor="middle" x="413" y="-7.5" font-family="Helvetica,sans-Serif" font-size="10.00">string</text>
</g>
<!-- Node4&#45;&gt;Node9 -->
<g id="edge9" class="edge"><title>Node4&#45;&gt;Node9</title>
<path fill="none" stroke="midnightblue" d="M253.567,-56.3981C287.557,-47.0377 333.291,-34.3197 382.478,-20.1107"/>
<polygon fill="midnightblue" stroke="midnightblue" points="383.727,-23.3929 392.359,-17.2496 381.78,-16.6691 383.727,-23.3929"/>
</g>
</g>
</svg>
