<?xml version="1.0" encoding="UTF-8" standalone="no"?>
<!DOCTYPE svg PUBLIC "-//W3C//DTD SVG 1.1//EN"
 "http://www.w3.org/Graphics/SVG/1.1/DTD/svg11.dtd">
<!-- Generated by graphviz version 2.38.0 (20140413.2041)
 -->
<!-- Title: NFIElementModule.h Pages: 1 -->
<svg width="1713pt" height="587pt"
 viewBox="0.00 0.00 1713.31 587.00" xmlns="http://www.w3.org/2000/svg" xmlns:xlink="http://www.w3.org/1999/xlink">
<g id="graph0" class="graph" transform="scale(1 1) rotate(0) translate(4 583)">
<title>NFIElementModule.h</title>
<polygon fill="white" stroke="none" points="-4,4 -4,-583 1709.31,-583 1709.31,4 -4,4"/>
<!-- Node0 -->
<g id="node1" class="node"><title>Node0</title>
<polygon fill="#bfbfbf" stroke="black" points="342.813,-559.5 342.813,-578.5 449.813,-578.5 449.813,-559.5 342.813,-559.5"/>
<text text-anchor="middle" x="396.313" y="-566.5" font-family="Helvetica,sans-Serif" font-size="10.00">NFIElementModule.h</text>
</g>
<!-- Node1 -->
<g id="node2" class="node"><title>Node1</title>
<polygon fill="white" stroke="#bfbfbf" points="336.313,-62 336.313,-81 390.313,-81 390.313,-62 336.313,-62"/>
<text text-anchor="middle" x="363.313" y="-69" font-family="Helvetica,sans-Serif" font-size="10.00">iostream</text>
</g>
<!-- Node0&#45;&gt;Node1 -->
<g id="edge1" class="edge"><title>Node0&#45;&gt;Node1</title>
<path fill="none" stroke="midnightblue" d="M342.63,-562.894C234.63,-551.132 1.31265,-517.556 1.31265,-447 1.31265,-447 1.31265,-447 1.31265,-199 1.31265,-163.956 -3.93795,-146.215 22.3126,-123 66.735,-83.7139 246.736,-74.9894 325.781,-73.0525"/>
<polygon fill="midnightblue" stroke="midnightblue" points="326.32,-76.5415 336.24,-72.8217 326.166,-69.5432 326.32,-76.5415"/>
</g>
<!-- Node2 -->
<g id="node3" class="node"><title>Node2</title>
<g id="a_node3"><a xlink:href="_n_f_i_module_8h.html" target="_top" xlink:title="NFIModule.h">
<polygon fill="white" stroke="black" points="513.813,-375 513.813,-394 584.813,-394 584.813,-375 513.813,-375"/>
<text text-anchor="middle" x="549.313" y="-382" font-family="Helvetica,sans-Serif" font-size="10.00">NFIModule.h</text>
</a>
</g>
</g>
<!-- Node0&#45;&gt;Node2 -->
<g id="edge2" class="edge"><title>Node0&#45;&gt;Node2</title>
<path fill="none" stroke="midnightblue" d="M393.336,-559.408C388.772,-544.649 381.72,-513.952 393.313,-492 418.757,-443.82 476.887,-413.318 514.556,-397.843"/>
<polygon fill="midnightblue" stroke="midnightblue" points="516.118,-400.989 524.127,-394.052 513.54,-394.481 516.118,-400.989"/>
</g>
<!-- Node19 -->
<g id="node20" class="node"><title>Node19</title>
<g id="a_node20"><a xlink:href="_a_f_data_list_8hpp.html" target="_top" xlink:title="AFDataList.hpp">
<polygon fill="white" stroke="black" points="783.313,-190.5 783.313,-209.5 867.313,-209.5 867.313,-190.5 783.313,-190.5"/>
<text text-anchor="middle" x="825.313" y="-197.5" font-family="Helvetica,sans-Serif" font-size="10.00">AFDataList.hpp</text>
</a>
</g>
</g>
<!-- Node0&#45;&gt;Node19 -->
<g id="edge62" class="edge"><title>Node0&#45;&gt;Node19</title>
<path fill="none" stroke="midnightblue" d="M450.001,-568.527C597.548,-568.542 998.313,-558.335 998.313,-447 998.313,-447 998.313,-447 998.313,-322 998.313,-287.072 1002.65,-271.05 978.313,-246 952.084,-219.007 910.569,-207.992 877.398,-203.598"/>
<polygon fill="midnightblue" stroke="midnightblue" points="877.735,-200.113 867.398,-202.436 876.927,-207.067 877.735,-200.113"/>
</g>
<!-- Node33 -->
<g id="node34" class="node"><title>Node33</title>
<g id="a_node34"><a xlink:href="_n_f_i_property_manager_8h.html" target="_top" xlink:title="NFComm/NFCore/NFIProperty\lManager.h">
<polygon fill="white" stroke="black" points="202.813,-369.5 202.813,-399.5 351.813,-399.5 351.813,-369.5 202.813,-369.5"/>
<text text-anchor="start" x="210.813" y="-387.5" font-family="Helvetica,sans-Serif" font-size="10.00">NFComm/NFCore/NFIProperty</text>
<text text-anchor="middle" x="277.313" y="-376.5" font-family="Helvetica,sans-Serif" font-size="10.00">Manager.h</text>
</a>
</g>
</g>
<!-- Node0&#45;&gt;Node33 -->
<g id="edge63" class="edge"><title>Node0&#45;&gt;Node33</title>
<path fill="none" stroke="midnightblue" d="M377.169,-559.494C362.027,-551.889 341.335,-539.413 328.313,-523 301.253,-488.893 287.588,-439.001 281.497,-409.629"/>
<polygon fill="midnightblue" stroke="midnightblue" points="284.931,-408.951 279.585,-399.804 278.06,-410.288 284.931,-408.951"/>
</g>
<!-- Node35 -->
<g id="node36" class="node"><title>Node35</title>
<g id="a_node36"><a xlink:href="_n_f_i_record_manager_8h.html" target="_top" xlink:title="NFComm/NFCore/NFIRecordManager.h">
<polygon fill="white" stroke="black" points="615.313,-375 615.313,-394 803.313,-394 803.313,-375 615.313,-375"/>
<text text-anchor="middle" x="709.313" y="-382" font-family="Helvetica,sans-Serif" font-size="10.00">NFComm/NFCore/NFIRecordManager.h</text>
</a>
</g>
</g>
<!-- Node0&#45;&gt;Node35 -->
<g id="edge70" class="edge"><title>Node0&#45;&gt;Node35</title>
<path fill="none" stroke="midnightblue" d="M449.93,-561.886C486.325,-555.97 534.516,-544.579 572.313,-523 627.502,-491.491 675.727,-431.785 697.298,-402.527"/>
<polygon fill="midnightblue" stroke="midnightblue" points="700.316,-404.325 703.34,-394.171 694.644,-400.224 700.316,-404.325"/>
</g>
<!-- Node36 -->
<g id="node37" class="node"><title>Node36</title>
<g id="a_node37"><a xlink:href="_n_f_i_component_manager_8h.html" target="_top" xlink:title="NFComm/NFCore/NFIComponent\lManager.h">
<polygon fill="white" stroke="black" points="402.813,-492.5 402.813,-522.5 563.813,-522.5 563.813,-492.5 402.813,-492.5"/>
<text text-anchor="start" x="410.813" y="-510.5" font-family="Helvetica,sans-Serif" font-size="10.00">NFComm/NFCore/NFIComponent</text>
<text text-anchor="middle" x="483.313" y="-499.5" font-family="Helvetica,sans-Serif" font-size="10.00">Manager.h</text>
</a>
</g>
</g>
<!-- Node0&#45;&gt;Node36 -->
<g id="edge73" class="edge"><title>Node0&#45;&gt;Node36</title>
<path fill="none" stroke="midnightblue" d="M408.778,-559.475C420.671,-551.341 439.022,-538.791 454.539,-528.179"/>
<polygon fill="midnightblue" stroke="midnightblue" points="456.53,-531.057 462.808,-522.523 452.578,-525.279 456.53,-531.057"/>
</g>
<!-- Node3 -->
<g id="node4" class="node"><title>Node3</title>
<polygon fill="white" stroke="#bfbfbf" points="600.813,-0.5 600.813,-19.5 641.813,-19.5 641.813,-0.5 600.813,-0.5"/>
<text text-anchor="middle" x="621.313" y="-7.5" font-family="Helvetica,sans-Serif" font-size="10.00">string</text>
</g>
<!-- Node2&#45;&gt;Node3 -->
<g id="edge3" class="edge"><title>Node2&#45;&gt;Node3</title>
<path fill="none" stroke="midnightblue" d="M584.929,-376.045C608.208,-369.126 636.879,-356.252 651.313,-333 683.091,-281.806 640.491,-90.0983 625.897,-29.4898"/>
<polygon fill="midnightblue" stroke="midnightblue" points="629.294,-28.6465 623.522,-19.7619 622.494,-30.3067 629.294,-28.6465"/>
</g>
<!-- Node4 -->
<g id="node5" class="node"><title>Node4</title>
<g id="a_node5"><a xlink:href="_n_f_map_8h.html" target="_top" xlink:title="NFComm/NFCore/NFMap.h">
<polygon fill="white" stroke="black" points="208.813,-252 208.813,-271 345.813,-271 345.813,-252 208.813,-252"/>
<text text-anchor="middle" x="277.313" y="-259" font-family="Helvetica,sans-Serif" font-size="10.00">NFComm/NFCore/NFMap.h</text>
</a>
</g>
</g>
<!-- Node2&#45;&gt;Node4 -->
<g id="edge4" class="edge"><title>Node2&#45;&gt;Node4</title>
<path fill="none" stroke="midnightblue" d="M530.186,-374.992C483.187,-354.084 361.825,-300.096 306.083,-275.298"/>
<polygon fill="midnightblue" stroke="midnightblue" points="307.341,-272.028 296.782,-271.161 304.496,-278.423 307.341,-272.028"/>
</g>
<!-- Node15 -->
<g id="node16" class="node"><title>Node15</title>
<g id="a_node16"><a xlink:href="_n_f_list_8h.html" target="_top" xlink:title="NFComm/NFCore/NFList.h">
<polygon fill="white" stroke="black" points="343.313,-190.5 343.313,-209.5 477.313,-209.5 477.313,-190.5 343.313,-190.5"/>
<text text-anchor="middle" x="410.313" y="-197.5" font-family="Helvetica,sans-Serif" font-size="10.00">NFComm/NFCore/NFList.h</text>
</a>
</g>
</g>
<!-- Node2&#45;&gt;Node15 -->
<g id="edge23" class="edge"><title>Node2&#45;&gt;Node15</title>
<path fill="none" stroke="midnightblue" d="M542.608,-374.698C520.819,-346.09 451.757,-255.415 423.035,-217.703"/>
<polygon fill="midnightblue" stroke="midnightblue" points="425.793,-215.549 416.95,-209.714 420.224,-219.79 425.793,-215.549"/>
</g>
<!-- Node17 -->
<g id="node18" class="node"><title>Node17</title>
<g id="a_node18"><a xlink:href="_n_f_define_8h.html" target="_top" xlink:title="NFComm/NFCore/NFDefine.h">
<polygon fill="white" stroke="black" points="824.813,-252 824.813,-271 969.813,-271 969.813,-252 824.813,-252"/>
<text text-anchor="middle" x="897.313" y="-259" font-family="Helvetica,sans-Serif" font-size="10.00">NFComm/NFCore/NFDefine.h</text>
</a>
</g>
</g>
<!-- Node2&#45;&gt;Node17 -->
<g id="edge29" class="edge"><title>Node2&#45;&gt;Node17</title>
<path fill="none" stroke="midnightblue" d="M579.609,-374.954C588.188,-372.764 597.571,-370.582 606.313,-369 678.684,-355.902 886.217,-387.761 935.313,-333 950.149,-316.452 931.643,-293.083 915.648,-277.863"/>
<polygon fill="midnightblue" stroke="midnightblue" points="917.927,-275.205 908.155,-271.112 913.241,-280.406 917.927,-275.205"/>
</g>
<!-- Node2&#45;&gt;Node19 -->
<g id="edge56" class="edge"><title>Node2&#45;&gt;Node19</title>
<path fill="none" stroke="midnightblue" d="M583.447,-374.948C612.043,-366.844 653.219,-352.932 685.313,-333 738.318,-300.08 788.505,-244.927 811.769,-217.511"/>
<polygon fill="midnightblue" stroke="midnightblue" points="814.615,-219.563 818.345,-209.647 809.245,-215.072 814.615,-219.563"/>
</g>
<!-- Node31 -->
<g id="node32" class="node"><title>Node31</title>
<g id="a_node32"><a xlink:href="_n_f_i_record_8h.html" target="_top" xlink:title="NFComm/NFCore/NFIRecord.h">
<polygon fill="white" stroke="black" points="775.813,-313.5 775.813,-332.5 926.813,-332.5 926.813,-313.5 775.813,-313.5"/>
<text text-anchor="middle" x="851.313" y="-320.5" font-family="Helvetica,sans-Serif" font-size="10.00">NFComm/NFCore/NFIRecord.h</text>
</a>
</g>
</g>
<!-- Node2&#45;&gt;Node31 -->
<g id="edge57" class="edge"><title>Node2&#45;&gt;Node31</title>
<path fill="none" stroke="midnightblue" d="M581.178,-374.99C589.345,-372.92 598.133,-370.789 606.313,-369 668.168,-355.468 739.409,-342.695 789.068,-334.239"/>
<polygon fill="midnightblue" stroke="midnightblue" points="789.739,-337.676 799.014,-332.554 788.569,-330.774 789.739,-337.676"/>
</g>
<!-- Node32 -->
<g id="node33" class="node"><title>Node32</title>
<g id="a_node33"><a xlink:href="_n_f_event_define_8h.html" target="_top" xlink:title="NFComm/NFEventDefine\l/NFEventDefine.h">
<polygon fill="white" stroke="black" points="479.813,-246.5 479.813,-276.5 604.813,-276.5 604.813,-246.5 479.813,-246.5"/>
<text text-anchor="start" x="487.813" y="-264.5" font-family="Helvetica,sans-Serif" font-size="10.00">NFComm/NFEventDefine</text>
<text text-anchor="middle" x="542.313" y="-253.5" font-family="Helvetica,sans-Serif" font-size="10.00">/NFEventDefine.h</text>
</a>
</g>
</g>
<!-- Node2&#45;&gt;Node32 -->
<g id="edge60" class="edge"><title>Node2&#45;&gt;Node32</title>
<path fill="none" stroke="midnightblue" d="M548.809,-374.798C547.757,-356.605 545.291,-313.983 543.718,-286.794"/>
<polygon fill="midnightblue" stroke="midnightblue" points="547.197,-286.32 543.125,-276.539 540.208,-286.725 547.197,-286.32"/>
</g>
<!-- Node4&#45;&gt;Node1 -->
<g id="edge8" class="edge"><title>Node4&#45;&gt;Node1</title>
<path fill="none" stroke="midnightblue" d="M276.326,-251.712C274.188,-228.755 271.169,-165.804 296.313,-123 305.572,-107.237 321.856,-94.7918 336.052,-86.2002"/>
<polygon fill="midnightblue" stroke="midnightblue" points="338.026,-89.104 344.984,-81.1145 334.562,-83.0209 338.026,-89.104"/>
</g>
<!-- Node4&#45;&gt;Node3 -->
<g id="edge7" class="edge"><title>Node4&#45;&gt;Node3</title>
<path fill="none" stroke="midnightblue" d="M275.725,-251.825C273.483,-238.529 269.821,-212.307 271.313,-190 275.619,-125.597 272.47,-90.0387 327.313,-56 370.95,-28.9161 524.291,-16.7519 590.496,-12.6742"/>
<polygon fill="midnightblue" stroke="midnightblue" points="590.934,-16.1544 600.708,-12.0672 590.518,-9.16678 590.934,-16.1544"/>
</g>
<!-- Node5 -->
<g id="node6" class="node"><title>Node5</title>
<polygon fill="white" stroke="#bfbfbf" points="31.8126,-129 31.8126,-148 66.8126,-148 66.8126,-129 31.8126,-129"/>
<text text-anchor="middle" x="49.3126" y="-136" font-family="Helvetica,sans-Serif" font-size="10.00">map</text>
</g>
<!-- Node4&#45;&gt;Node5 -->
<g id="edge5" class="edge"><title>Node4&#45;&gt;Node5</title>
<path fill="none" stroke="midnightblue" d="M208.692,-253.009C172.551,-246.34 129.061,-233.749 96.3126,-210 77.9477,-196.682 64.6529,-173.825 56.9843,-157.755"/>
<polygon fill="midnightblue" stroke="midnightblue" points="60.0482,-156.034 52.7606,-148.344 53.6618,-158.9 60.0482,-156.034"/>
</g>
<!-- Node6 -->
<g id="node7" class="node"><title>Node6</title>
<polygon fill="white" stroke="#bfbfbf" points="305.813,-129 305.813,-148 334.813,-148 334.813,-129 305.813,-129"/>
<text text-anchor="middle" x="320.313" y="-136" font-family="Helvetica,sans-Serif" font-size="10.00">list</text>
</g>
<!-- Node4&#45;&gt;Node6 -->
<g id="edge6" class="edge"><title>Node4&#45;&gt;Node6</title>
<path fill="none" stroke="midnightblue" d="M280.405,-251.798C287.378,-232.176 304.449,-184.138 313.847,-157.693"/>
<polygon fill="midnightblue" stroke="midnightblue" points="317.198,-158.718 317.248,-148.123 310.602,-156.374 317.198,-158.718"/>
</g>
<!-- Node7 -->
<g id="node8" class="node"><title>Node7</title>
<polygon fill="white" stroke="#bfbfbf" points="161.313,-129 161.313,-148 211.313,-148 211.313,-129 161.313,-129"/>
<text text-anchor="middle" x="186.313" y="-136" font-family="Helvetica,sans-Serif" font-size="10.00">typeinfo</text>
</g>
<!-- Node4&#45;&gt;Node7 -->
<g id="edge9" class="edge"><title>Node4&#45;&gt;Node7</title>
<path fill="none" stroke="midnightblue" d="M266.848,-251.974C255.662,-242.51 237.846,-226.397 225.313,-210 212.613,-193.387 201.446,-172.134 194.352,-157.326"/>
<polygon fill="midnightblue" stroke="midnightblue" points="197.516,-155.83 190.123,-148.241 191.17,-158.784 197.516,-155.83"/>
</g>
<!-- Node8 -->
<g id="node9" class="node"><title>Node8</title>
<g id="a_node9"><a xlink:href="_n_f_map_ex_8h.html" target="_top" xlink:title="NFMapEx.h">
<polygon fill="white" stroke="black" points="105.313,-190.5 105.313,-209.5 173.313,-209.5 173.313,-190.5 105.313,-190.5"/>
<text text-anchor="middle" x="139.313" y="-197.5" font-family="Helvetica,sans-Serif" font-size="10.00">NFMapEx.h</text>
</a>
</g>
</g>
<!-- Node4&#45;&gt;Node8 -->
<g id="edge10" class="edge"><title>Node4&#45;&gt;Node8</title>
<path fill="none" stroke="midnightblue" d="M257.541,-251.975C234.176,-241.901 195.098,-225.053 168.31,-213.502"/>
<polygon fill="midnightblue" stroke="midnightblue" points="169.617,-210.254 159.048,-209.509 166.845,-216.682 169.617,-210.254"/>
</g>
<!-- Node8&#45;&gt;Node1 -->
<g id="edge14" class="edge"><title>Node8&#45;&gt;Node1</title>
<path fill="none" stroke="midnightblue" d="M132.746,-190.459C121.89,-175.229 102.945,-143.102 119.313,-123 144.939,-91.5269 264.091,-79.0604 325.895,-74.6469"/>
<polygon fill="midnightblue" stroke="midnightblue" points="326.276,-78.1292 336.016,-73.9596 325.802,-71.1452 326.276,-78.1292"/>
</g>
<!-- Node8&#45;&gt;Node3 -->
<g id="edge13" class="edge"><title>Node8&#45;&gt;Node3</title>
<path fill="none" stroke="midnightblue" d="M105.252,-196.084C77.7863,-191.734 40.794,-180.909 22.3126,-154 14.5125,-142.643 14.2401,-134.165 22.3126,-123 90.0184,-29.3557 478.351,-13.9751 590.806,-11.4778"/>
<polygon fill="midnightblue" stroke="midnightblue" points="590.881,-14.9771 600.807,-11.2742 590.738,-7.97859 590.881,-14.9771"/>
</g>
<!-- Node8&#45;&gt;Node5 -->
<g id="edge11" class="edge"><title>Node8&#45;&gt;Node5</title>
<path fill="none" stroke="midnightblue" d="M126.418,-190.475C111.848,-180.843 87.9105,-165.017 70.5672,-153.552"/>
<polygon fill="midnightblue" stroke="midnightblue" points="72.4556,-150.604 62.1835,-148.009 68.5952,-156.444 72.4556,-150.604"/>
</g>
<!-- Node8&#45;&gt;Node6 -->
<g id="edge12" class="edge"><title>Node8&#45;&gt;Node6</title>
<path fill="none" stroke="midnightblue" d="M165.246,-190.475C200.148,-179.001 261.786,-158.739 295.895,-147.527"/>
<polygon fill="midnightblue" stroke="midnightblue" points="297.13,-150.805 305.537,-144.357 294.944,-144.155 297.13,-150.805"/>
</g>
<!-- Node8&#45;&gt;Node7 -->
<g id="edge15" class="edge"><title>Node8&#45;&gt;Node7</title>
<path fill="none" stroke="midnightblue" d="M146.047,-190.475C153.097,-181.55 164.347,-167.307 173.166,-156.143"/>
<polygon fill="midnightblue" stroke="midnightblue" points="176.139,-158.026 179.591,-148.009 170.646,-153.687 176.139,-158.026"/>
</g>
<!-- Node9 -->
<g id="node10" class="node"><title>Node9</title>
<polygon fill="white" stroke="#bfbfbf" points="429.313,-129 429.313,-148 481.313,-148 481.313,-129 429.313,-129"/>
<text text-anchor="middle" x="455.313" y="-136" font-family="Helvetica,sans-Serif" font-size="10.00">memory</text>
</g>
<!-- Node8&#45;&gt;Node9 -->
<g id="edge16" class="edge"><title>Node8&#45;&gt;Node9</title>
<path fill="none" stroke="midnightblue" d="M173.43,-192.576C233.474,-181.27 357.484,-157.92 419.029,-146.332"/>
<polygon fill="midnightblue" stroke="midnightblue" points="419.879,-149.733 429.059,-144.443 418.584,-142.854 419.879,-149.733"/>
</g>
<!-- Node10 -->
<g id="node11" class="node"><title>Node10</title>
<g id="a_node11"><a xlink:href="_n_f_platform_8h.html" target="_top" xlink:title="NFComm/NFPluginModule\l/NFPlatform.h">
<polygon fill="white" stroke="black" points="1337.31,-56.5 1337.31,-86.5 1469.31,-86.5 1469.31,-56.5 1337.31,-56.5"/>
<text text-anchor="start" x="1345.31" y="-74.5" font-family="Helvetica,sans-Serif" font-size="10.00">NFComm/NFPluginModule</text>
<text text-anchor="middle" x="1403.31" y="-63.5" font-family="Helvetica,sans-Serif" font-size="10.00">/NFPlatform.h</text>
</a>
</g>
</g>
<!-- Node8&#45;&gt;Node10 -->
<g id="edge17" class="edge"><title>Node8&#45;&gt;Node10</title>
<path fill="none" stroke="midnightblue" d="M137.721,-190.303C135.34,-174.224 132.992,-139.949 152.313,-123 191.099,-88.9764 1028.76,-89.1569 1080.31,-87 1164.69,-83.4694 1261.45,-79.0805 1326.9,-76.0616"/>
<polygon fill="midnightblue" stroke="midnightblue" points="1327.3,-79.5469 1337.13,-75.5892 1326.98,-72.5544 1327.3,-79.5469"/>
</g>
<!-- Node10&#45;&gt;Node3 -->
<g id="edge22" class="edge"><title>Node10&#45;&gt;Node3</title>
<path fill="none" stroke="midnightblue" d="M1336.98,-65.4527C1175.67,-53.1795 767.68,-22.1366 652.199,-13.35"/>
<polygon fill="midnightblue" stroke="midnightblue" points="652.191,-9.83941 641.954,-12.5706 651.66,-16.8192 652.191,-9.83941"/>
</g>
<!-- Node11 -->
<g id="node12" class="node"><title>Node11</title>
<polygon fill="white" stroke="#bfbfbf" points="1539.81,-0.5 1539.81,-19.5 1588.81,-19.5 1588.81,-0.5 1539.81,-0.5"/>
<text text-anchor="middle" x="1564.31" y="-7.5" font-family="Helvetica,sans-Serif" font-size="10.00">stdint.h</text>
</g>
<!-- Node10&#45;&gt;Node11 -->
<g id="edge18" class="edge"><title>Node10&#45;&gt;Node11</title>
<path fill="none" stroke="midnightblue" d="M1441.47,-56.3993C1468.84,-46.2826 1505.35,-32.7905 1531.44,-23.1493"/>
<polygon fill="midnightblue" stroke="midnightblue" points="1532.72,-26.4073 1540.89,-19.6578 1530.29,-19.8414 1532.72,-26.4073"/>
</g>
<!-- Node12 -->
<g id="node13" class="node"><title>Node12</title>
<polygon fill="white" stroke="#bfbfbf" points="1261.31,-0.5 1261.31,-19.5 1305.31,-19.5 1305.31,-0.5 1261.31,-0.5"/>
<text text-anchor="middle" x="1283.31" y="-7.5" font-family="Helvetica,sans-Serif" font-size="10.00">time.h</text>
</g>
<!-- Node10&#45;&gt;Node12 -->
<g id="edge19" class="edge"><title>Node10&#45;&gt;Node12</title>
<path fill="none" stroke="midnightblue" d="M1374.87,-56.3993C1355.19,-46.6391 1329.17,-33.7373 1309.9,-24.1826"/>
<polygon fill="midnightblue" stroke="midnightblue" points="1311.29,-20.9644 1300.77,-19.6578 1308.18,-27.2358 1311.29,-20.9644"/>
</g>
<!-- Node13 -->
<g id="node14" class="node"><title>Node13</title>
<polygon fill="white" stroke="#bfbfbf" points="1323.31,-0.5 1323.31,-19.5 1375.31,-19.5 1375.31,-0.5 1323.31,-0.5"/>
<text text-anchor="middle" x="1349.31" y="-7.5" font-family="Helvetica,sans-Serif" font-size="10.00">sstream</text>
</g>
<!-- Node10&#45;&gt;Node13 -->
<g id="edge20" class="edge"><title>Node10&#45;&gt;Node13</title>
<path fill="none" stroke="midnightblue" d="M1390.52,-56.3993C1382.59,-47.6641 1372.38,-36.4126 1364.1,-27.2962"/>
<polygon fill="midnightblue" stroke="midnightblue" points="1366.48,-24.7106 1357.17,-19.6578 1361.3,-29.415 1366.48,-24.7106"/>
</g>
<!-- Node14 -->
<g id="node15" class="node"><title>Node14</title>
<polygon fill="white" stroke="#bfbfbf" points="1393.31,-0.5 1393.31,-19.5 1521.31,-19.5 1521.31,-0.5 1393.31,-0.5"/>
<text text-anchor="middle" x="1457.31" y="-7.5" font-family="Helvetica,sans-Serif" font-size="10.00">common/lexical_cast.hpp</text>
</g>
<!-- Node10&#45;&gt;Node14 -->
<g id="edge21" class="edge"><title>Node10&#45;&gt;Node14</title>
<path fill="none" stroke="midnightblue" d="M1416.11,-56.3993C1424.04,-47.6641 1434.25,-36.4126 1442.52,-27.2962"/>
<polygon fill="midnightblue" stroke="midnightblue" points="1445.33,-29.415 1449.46,-19.6578 1440.14,-24.7106 1445.33,-29.415"/>
</g>
<!-- Node15&#45;&gt;Node1 -->
<g id="edge24" class="edge"><title>Node15&#45;&gt;Node1</title>
<path fill="none" stroke="midnightblue" d="M405.229,-190.263C400.197,-181.358 392.512,-167.04 387.313,-154 378.967,-133.072 372.036,-108.102 367.803,-91.3652"/>
<polygon fill="midnightblue" stroke="midnightblue" points="371.102,-90.1216 365.319,-81.2441 364.303,-91.7901 371.102,-90.1216"/>
</g>
<!-- Node15&#45;&gt;Node5 -->
<g id="edge25" class="edge"><title>Node15&#45;&gt;Node5</title>
<path fill="none" stroke="midnightblue" d="M358.59,-190.475C280.977,-177.683 137.081,-153.966 76.8982,-144.047"/>
<polygon fill="midnightblue" stroke="midnightblue" points="77.4317,-140.587 66.9956,-142.415 76.2933,-147.494 77.4317,-140.587"/>
</g>
<!-- Node15&#45;&gt;Node6 -->
<g id="edge26" class="edge"><title>Node15&#45;&gt;Node6</title>
<path fill="none" stroke="midnightblue" d="M397.418,-190.475C382.848,-180.843 358.91,-165.017 341.567,-153.552"/>
<polygon fill="midnightblue" stroke="midnightblue" points="343.456,-150.604 333.184,-148.009 339.595,-156.444 343.456,-150.604"/>
</g>
<!-- Node15&#45;&gt;Node10 -->
<g id="edge28" class="edge"><title>Node15&#45;&gt;Node10</title>
<path fill="none" stroke="midnightblue" d="M408.355,-190.375C405.302,-174.418 401.541,-140.336 420.313,-123 424.473,-119.158 1096.6,-87.0126 1326.92,-76.1046"/>
<polygon fill="midnightblue" stroke="midnightblue" points="1327.4,-79.5859 1337.22,-75.6168 1327.07,-72.5937 1327.4,-79.5859"/>
</g>
<!-- Node16 -->
<g id="node17" class="node"><title>Node16</title>
<polygon fill="white" stroke="#bfbfbf" points="499.313,-129 499.313,-148 555.313,-148 555.313,-129 499.313,-129"/>
<text text-anchor="middle" x="527.313" y="-136" font-family="Helvetica,sans-Serif" font-size="10.00">algorithm</text>
</g>
<!-- Node15&#45;&gt;Node16 -->
<g id="edge27" class="edge"><title>Node15&#45;&gt;Node16</title>
<path fill="none" stroke="midnightblue" d="M427.076,-190.475C446.537,-180.578 478.858,-164.142 501.523,-152.615"/>
<polygon fill="midnightblue" stroke="midnightblue" points="503.253,-155.662 510.58,-148.009 500.08,-149.422 503.253,-155.662"/>
</g>
<!-- Node18 -->
<g id="node19" class="node"><title>Node18</title>
<polygon fill="white" stroke="#bfbfbf" points="1431.31,-129 1431.31,-148 1489.31,-148 1489.31,-129 1431.31,-129"/>
<text text-anchor="middle" x="1460.31" y="-136" font-family="Helvetica,sans-Serif" font-size="10.00">functional</text>
</g>
<!-- Node17&#45;&gt;Node18 -->
<g id="edge30" class="edge"><title>Node17&#45;&gt;Node18</title>
<path fill="none" stroke="midnightblue" d="M949.846,-251.949C1044.25,-236.094 1248.5,-199.565 1417.31,-154 1420.51,-153.138 1423.81,-152.168 1427.1,-151.15"/>
<polygon fill="midnightblue" stroke="midnightblue" points="1428.38,-154.415 1436.82,-148.006 1426.22,-147.755 1428.38,-154.415"/>
</g>
<!-- Node17&#45;&gt;Node19 -->
<g id="edge31" class="edge"><title>Node17&#45;&gt;Node19</title>
<path fill="none" stroke="midnightblue" d="M886.997,-251.975C875.662,-242.608 857.239,-227.384 843.474,-216.008"/>
<polygon fill="midnightblue" stroke="midnightblue" points="845.547,-213.181 835.609,-209.509 841.088,-218.577 845.547,-213.181"/>
</g>
<!-- Node28 -->
<g id="node29" class="node"><title>Node28</title>
<g id="a_node29"><a xlink:href="_n_f_g_u_i_d_8h.html" target="_top" xlink:title="NFComm/NFPluginModule\l/NFGUID.h">
<polygon fill="white" stroke="black" points="1507.31,-123.5 1507.31,-153.5 1639.31,-153.5 1639.31,-123.5 1507.31,-123.5"/>
<text text-anchor="start" x="1515.31" y="-141.5" font-family="Helvetica,sans-Serif" font-size="10.00">NFComm/NFPluginModule</text>
<text text-anchor="middle" x="1573.31" y="-130.5" font-family="Helvetica,sans-Serif" font-size="10.00">/NFGUID.h</text>
</a>
</g>
</g>
<!-- Node17&#45;&gt;Node28 -->
<g id="edge55" class="edge"><title>Node17&#45;&gt;Node28</title>
<path fill="none" stroke="midnightblue" d="M960.768,-251.979C1028.27,-242.672 1138.08,-226.831 1232.31,-210 1325.34,-193.385 1431.89,-170.776 1500.78,-155.687"/>
<polygon fill="midnightblue" stroke="midnightblue" points="1501.64,-159.08 1510.66,-153.517 1500.14,-152.243 1501.64,-159.08"/>
</g>
<!-- Node19&#45;&gt;Node1 -->
<g id="edge34" class="edge"><title>Node19&#45;&gt;Node1</title>
<path fill="none" stroke="midnightblue" d="M797.186,-190.442C768.461,-181.618 722.628,-167.31 683.313,-154 644.829,-140.972 636.368,-134.199 597.313,-123 528.787,-103.35 447.038,-87.3608 400.55,-78.9483"/>
<polygon fill="midnightblue" stroke="midnightblue" points="401.088,-75.4891 390.628,-77.1713 399.854,-82.3795 401.088,-75.4891"/>
</g>
<!-- Node19&#45;&gt;Node3 -->
<g id="edge32" class="edge"><title>Node19&#45;&gt;Node3</title>
<path fill="none" stroke="midnightblue" d="M790.848,-190.49C767.891,-183.53 738.06,-171.875 716.313,-154 673.264,-118.617 642.425,-58.6471 628.922,-28.8729"/>
<polygon fill="midnightblue" stroke="midnightblue" points="632.111,-27.431 624.877,-19.6905 625.705,-30.253 632.111,-27.431"/>
</g>
<!-- Node19&#45;&gt;Node5 -->
<g id="edge39" class="edge"><title>Node19&#45;&gt;Node5</title>
<path fill="none" stroke="midnightblue" d="M783.092,-197.251C676.906,-192.618 390.217,-178.666 152.313,-154 126.769,-151.352 97.8196,-147.171 77.1312,-143.978"/>
<polygon fill="midnightblue" stroke="midnightblue" points="77.5484,-140.501 67.1273,-142.411 76.4654,-147.416 77.5484,-140.501"/>
</g>
<!-- Node19&#45;&gt;Node6 -->
<g id="edge37" class="edge"><title>Node19&#45;&gt;Node6</title>
<path fill="none" stroke="midnightblue" d="M783.279,-194.796C709.65,-187.328 552.588,-170.934 420.313,-154 394.501,-150.696 365.026,-146.352 344.8,-143.283"/>
<polygon fill="midnightblue" stroke="midnightblue" points="345.28,-139.816 334.866,-141.765 344.222,-146.736 345.28,-139.816"/>
</g>
<!-- Node19&#45;&gt;Node7 -->
<g id="edge42" class="edge"><title>Node19&#45;&gt;Node7</title>
<path fill="none" stroke="midnightblue" d="M783.077,-196.073C693.332,-189.707 477.063,-173.59 296.313,-154 271.298,-151.289 243.171,-147.569 221.621,-144.576"/>
<polygon fill="midnightblue" stroke="midnightblue" points="222.002,-141.095 211.613,-143.173 221.03,-148.028 222.002,-141.095"/>
</g>
<!-- Node19&#45;&gt;Node9 -->
<g id="edge46" class="edge"><title>Node19&#45;&gt;Node9</title>
<path fill="none" stroke="midnightblue" d="M783.106,-196.841C718.906,-192.775 593.296,-181.743 490.313,-154 487.868,-153.341 485.366,-152.553 482.881,-151.688"/>
<polygon fill="midnightblue" stroke="midnightblue" points="484.118,-148.414 473.528,-148.093 481.606,-154.948 484.118,-148.414"/>
</g>
<!-- Node19&#45;&gt;Node10 -->
<g id="edge53" class="edge"><title>Node19&#45;&gt;Node10</title>
<path fill="none" stroke="midnightblue" d="M867.451,-198.424C990.883,-196.354 1345.4,-187.518 1384.31,-154 1400.51,-140.05 1404.36,-115.216 1404.71,-96.6154"/>
<polygon fill="midnightblue" stroke="midnightblue" points="1408.21,-96.4669 1404.58,-86.5135 1401.21,-96.5585 1408.21,-96.4669"/>
</g>
<!-- Node19&#45;&gt;Node16 -->
<g id="edge40" class="edge"><title>Node19&#45;&gt;Node16</title>
<path fill="none" stroke="midnightblue" d="M783.249,-190.601C725.099,-178.991 621.024,-158.211 565.184,-147.062"/>
<polygon fill="midnightblue" stroke="midnightblue" points="565.832,-143.622 555.34,-145.096 564.462,-150.486 565.832,-143.622"/>
</g>
<!-- Node19&#45;&gt;Node18 -->
<g id="edge44" class="edge"><title>Node19&#45;&gt;Node18</title>
<path fill="none" stroke="midnightblue" d="M867.434,-199.376C965.124,-199.475 1214.29,-195.272 1417.31,-154 1421,-153.25 1424.82,-152.274 1428.58,-151.183"/>
<polygon fill="midnightblue" stroke="midnightblue" points="1429.81,-154.463 1438.28,-148.102 1427.69,-147.791 1429.81,-154.463"/>
</g>
<!-- Node20 -->
<g id="node21" class="node"><title>Node20</title>
<polygon fill="white" stroke="#bfbfbf" points="725.313,-129 725.313,-148 771.313,-148 771.313,-129 725.313,-129"/>
<text text-anchor="middle" x="748.313" y="-136" font-family="Helvetica,sans-Serif" font-size="10.00">cstring</text>
</g>
<!-- Node19&#45;&gt;Node20 -->
<g id="edge33" class="edge"><title>Node19&#45;&gt;Node20</title>
<path fill="none" stroke="midnightblue" d="M814.28,-190.475C802.044,-181.02 782.084,-165.596 767.32,-154.187"/>
<polygon fill="midnightblue" stroke="midnightblue" points="769.377,-151.354 759.324,-148.009 765.097,-156.893 769.377,-151.354"/>
</g>
<!-- Node21 -->
<g id="node22" class="node"><title>Node21</title>
<polygon fill="white" stroke="#bfbfbf" points="1023.31,-62 1023.31,-81 1071.31,-81 1071.31,-62 1023.31,-62"/>
<text text-anchor="middle" x="1047.31" y="-69" font-family="Helvetica,sans-Serif" font-size="10.00">stdlib.h</text>
</g>
<!-- Node19&#45;&gt;Node21 -->
<g id="edge35" class="edge"><title>Node19&#45;&gt;Node21</title>
<path fill="none" stroke="midnightblue" d="M821.012,-190.363C814.038,-174.983 802.544,-142.625 818.313,-123 842.379,-93.0483 955.448,-79.8108 1013.19,-74.923"/>
<polygon fill="midnightblue" stroke="midnightblue" points="1013.61,-78.4006 1023.29,-74.1054 1013.04,-71.4234 1013.61,-78.4006"/>
</g>
<!-- Node22 -->
<g id="node23" class="node"><title>Node22</title>
<polygon fill="white" stroke="#bfbfbf" points="827.813,-129 827.813,-148 874.813,-148 874.813,-129 827.813,-129"/>
<text text-anchor="middle" x="851.313" y="-136" font-family="Helvetica,sans-Serif" font-size="10.00">math.h</text>
</g>
<!-- Node19&#45;&gt;Node22 -->
<g id="edge36" class="edge"><title>Node19&#45;&gt;Node22</title>
<path fill="none" stroke="midnightblue" d="M829.038,-190.475C832.783,-181.904 838.672,-168.427 843.455,-157.483"/>
<polygon fill="midnightblue" stroke="midnightblue" points="846.797,-158.574 847.594,-148.009 840.383,-155.771 846.797,-158.574"/>
</g>
<!-- Node23 -->
<g id="node24" class="node"><title>Node23</title>
<polygon fill="white" stroke="#bfbfbf" points="893.313,-129 893.313,-148 935.313,-148 935.313,-129 893.313,-129"/>
<text text-anchor="middle" x="914.313" y="-136" font-family="Helvetica,sans-Serif" font-size="10.00">vector</text>
</g>
<!-- Node19&#45;&gt;Node23 -->
<g id="edge38" class="edge"><title>Node19&#45;&gt;Node23</title>
<path fill="none" stroke="midnightblue" d="M838.064,-190.475C852.339,-180.931 875.71,-165.307 892.821,-153.868"/>
<polygon fill="midnightblue" stroke="midnightblue" points="895.217,-156.477 901.585,-148.009 891.326,-150.657 895.217,-156.477"/>
</g>
<!-- Node24 -->
<g id="node25" class="node"><title>Node24</title>
<polygon fill="white" stroke="#bfbfbf" points="953.313,-129 953.313,-148 1005.31,-148 1005.31,-129 953.313,-129"/>
<text text-anchor="middle" x="979.313" y="-136" font-family="Helvetica,sans-Serif" font-size="10.00">assert.h</text>
</g>
<!-- Node19&#45;&gt;Node24 -->
<g id="edge41" class="edge"><title>Node19&#45;&gt;Node24</title>
<path fill="none" stroke="midnightblue" d="M848.654,-190.419C872.707,-181.518 911.251,-167.096 944.313,-154 945.952,-153.351 947.632,-152.678 949.326,-151.995"/>
<polygon fill="midnightblue" stroke="midnightblue" points="951.065,-155.065 958.998,-148.042 948.417,-148.585 951.065,-155.065"/>
</g>
<!-- Node25 -->
<g id="node26" class="node"><title>Node25</title>
<polygon fill="white" stroke="#bfbfbf" points="1023.31,-129 1023.31,-148 1073.31,-148 1073.31,-129 1023.31,-129"/>
<text text-anchor="middle" x="1048.31" y="-136" font-family="Helvetica,sans-Serif" font-size="10.00">iomanip</text>
</g>
<!-- Node19&#45;&gt;Node25 -->
<g id="edge43" class="edge"><title>Node19&#45;&gt;Node25</title>
<path fill="none" stroke="midnightblue" d="M867.545,-191.082C906.227,-183.328 964.82,-170.315 1014.31,-154 1016.23,-153.367 1018.19,-152.67 1020.16,-151.935"/>
<polygon fill="midnightblue" stroke="midnightblue" points="1021.85,-155.029 1029.83,-148.056 1019.24,-148.533 1021.85,-155.029"/>
</g>
<!-- Node26 -->
<g id="node27" class="node"><title>Node26</title>
<polygon fill="white" stroke="#bfbfbf" points="1091.81,-129 1091.81,-148 1140.81,-148 1140.81,-129 1091.81,-129"/>
<text text-anchor="middle" x="1116.31" y="-136" font-family="Helvetica,sans-Serif" font-size="10.00">fstream</text>
</g>
<!-- Node19&#45;&gt;Node26 -->
<g id="edge45" class="edge"><title>Node19&#45;&gt;Node26</title>
<path fill="none" stroke="midnightblue" d="M867.387,-194.641C918.853,-188.625 1008.27,-175.953 1082.31,-154 1084.46,-153.363 1086.66,-152.629 1088.85,-151.838"/>
<polygon fill="midnightblue" stroke="midnightblue" points="1090.24,-155.052 1098.25,-148.115 1087.66,-148.544 1090.24,-155.052"/>
</g>
<!-- Node27 -->
<g id="node28" class="node"><title>Node27</title>
<polygon fill="white" stroke="#bfbfbf" points="1159.31,-129 1159.31,-148 1263.31,-148 1263.31,-129 1159.31,-129"/>
<text text-anchor="middle" x="1211.31" y="-136" font-family="Helvetica,sans-Serif" font-size="10.00">common/variant.hpp</text>
</g>
<!-- Node19&#45;&gt;Node27 -->
<g id="edge47" class="edge"><title>Node19&#45;&gt;Node27</title>
<path fill="none" stroke="midnightblue" d="M867.333,-194.485C929.471,-187.515 1049.4,-172.935 1150.31,-154 1156.07,-152.92 1162.1,-151.653 1168.04,-150.326"/>
<polygon fill="midnightblue" stroke="midnightblue" points="1168.92,-153.715 1177.88,-148.057 1167.35,-146.894 1168.92,-153.715"/>
</g>
<!-- Node19&#45;&gt;Node28 -->
<g id="edge48" class="edge"><title>Node19&#45;&gt;Node28</title>
<path fill="none" stroke="midnightblue" d="M867.62,-197.995C972.551,-195.113 1253.3,-185.019 1497.02,-154.057"/>
<polygon fill="midnightblue" stroke="midnightblue" points="1497.66,-157.503 1507.13,-152.757 1496.77,-150.561 1497.66,-157.503"/>
</g>
<!-- Node30 -->
<g id="node31" class="node"><title>Node30</title>
<g id="a_node31"><a xlink:href="_vector3_8hpp.html" target="_top" xlink:title="Math/Vector3.hpp">
<polygon fill="white" stroke="black" points="1281.31,-129 1281.31,-148 1375.31,-148 1375.31,-129 1281.31,-129"/>
<text text-anchor="middle" x="1328.31" y="-136" font-family="Helvetica,sans-Serif" font-size="10.00">Math/Vector3.hpp</text>
</a>
</g>
</g>
<!-- Node19&#45;&gt;Node30 -->
<g id="edge54" class="edge"><title>Node19&#45;&gt;Node30</title>
<path fill="none" stroke="midnightblue" d="M867.516,-196.909C947.166,-192.485 1124.9,-180.346 1272.31,-154 1277.75,-153.028 1283.44,-151.805 1289.01,-150.483"/>
<polygon fill="midnightblue" stroke="midnightblue" points="1290,-153.844 1298.86,-148.029 1288.31,-147.052 1290,-153.844"/>
</g>
<!-- Node28&#45;&gt;Node1 -->
<g id="edge50" class="edge"><title>Node28&#45;&gt;Node1</title>
<path fill="none" stroke="midnightblue" d="M1507.14,-124.162C1504.16,-123.734 1501.21,-123.343 1498.31,-123 1278.5,-97.0035 571.734,-77.7746 400.795,-73.4282"/>
<polygon fill="midnightblue" stroke="midnightblue" points="400.631,-69.923 390.546,-73.1691 400.454,-76.9208 400.631,-69.923"/>
</g>
<!-- Node28&#45;&gt;Node10 -->
<g id="edge49" class="edge"><title>Node28&#45;&gt;Node10</title>
<path fill="none" stroke="midnightblue" d="M1536.43,-123.396C1510.92,-113.643 1476.79,-100.595 1449.48,-90.152"/>
<polygon fill="midnightblue" stroke="midnightblue" points="1450.72,-86.8788 1440.13,-86.5765 1448.22,-93.4171 1450.72,-86.8788"/>
</g>
<!-- Node28&#45;&gt;Node21 -->
<g id="edge52" class="edge"><title>Node28&#45;&gt;Node21</title>
<path fill="none" stroke="midnightblue" d="M1507.11,-124.405C1504.14,-123.911 1501.2,-123.44 1498.31,-123 1343.53,-99.4097 1157.28,-82.013 1081.69,-75.4097"/>
<polygon fill="midnightblue" stroke="midnightblue" points="1081.62,-71.8908 1071.36,-74.5143 1081.02,-78.8647 1081.62,-71.8908"/>
</g>
<!-- Node29 -->
<g id="node30" class="node"><title>Node29</title>
<polygon fill="white" stroke="#bfbfbf" points="1550.31,-62 1550.31,-81 1596.31,-81 1596.31,-62 1550.31,-62"/>
<text text-anchor="middle" x="1573.31" y="-69" font-family="Helvetica,sans-Serif" font-size="10.00">stdio.h</text>
</g>
<!-- Node28&#45;&gt;Node29 -->
<g id="edge51" class="edge"><title>Node28&#45;&gt;Node29</title>
<path fill="none" stroke="midnightblue" d="M1573.31,-123.396C1573.31,-114.064 1573.31,-101.714 1573.31,-91.5173"/>
<polygon fill="midnightblue" stroke="midnightblue" points="1576.81,-91.1945 1573.31,-81.1945 1569.81,-91.1946 1576.81,-91.1945"/>
</g>
<!-- Node31&#45;&gt;Node17 -->
<g id="edge58" class="edge"><title>Node31&#45;&gt;Node17</title>
<path fill="none" stroke="midnightblue" d="M857.903,-313.475C864.803,-304.55 875.815,-290.307 884.446,-279.143"/>
<polygon fill="midnightblue" stroke="midnightblue" points="887.387,-281.061 890.734,-271.009 881.849,-276.78 887.387,-281.061"/>
</g>
<!-- Node31&#45;&gt;Node19 -->
<g id="edge59" class="edge"><title>Node31&#45;&gt;Node19</title>
<path fill="none" stroke="midnightblue" d="M841.151,-313.185C832.404,-304.87 820.413,-291.539 815.313,-277 808.655,-258.022 813.343,-234.965 818.301,-219.259"/>
<polygon fill="midnightblue" stroke="midnightblue" points="821.646,-220.295 821.641,-209.7 815.038,-217.986 821.646,-220.295"/>
</g>
<!-- Node32&#45;&gt;Node1 -->
<g id="edge61" class="edge"><title>Node32&#45;&gt;Node1</title>
<path fill="none" stroke="midnightblue" d="M550.867,-246.301C565.93,-219.261 593.005,-159.793 564.313,-123 544.389,-97.4513 453.024,-82.8568 400.593,-76.4481"/>
<polygon fill="midnightblue" stroke="midnightblue" points="400.689,-72.9352 390.347,-75.2392 399.868,-79.887 400.689,-72.9352"/>
</g>
<!-- Node33&#45;&gt;Node4 -->
<g id="edge64" class="edge"><title>Node33&#45;&gt;Node4</title>
<path fill="none" stroke="midnightblue" d="M277.313,-369.145C277.313,-347.203 277.313,-305.327 277.313,-281.091"/>
<polygon fill="midnightblue" stroke="midnightblue" points="280.813,-281.052 277.313,-271.052 273.813,-281.052 280.813,-281.052"/>
</g>
<!-- Node33&#45;&gt;Node5 -->
<g id="edge69" class="edge"><title>Node33&#45;&gt;Node5</title>
<path fill="none" stroke="midnightblue" d="M253.53,-369.417C211.293,-343.24 122.978,-283.054 73.3126,-210 62.6542,-194.322 56.332,-173.476 52.8753,-158.525"/>
<polygon fill="midnightblue" stroke="midnightblue" points="56.2363,-157.498 50.7661,-148.424 49.3841,-158.929 56.2363,-157.498"/>
</g>
<!-- Node34 -->
<g id="node35" class="node"><title>Node34</title>
<g id="a_node35"><a xlink:href="_n_f_i_property_8h.html" target="_top" xlink:title="NFIProperty.h">
<polygon fill="white" stroke="black" points="565.813,-313.5 565.813,-332.5 642.813,-332.5 642.813,-313.5 565.813,-313.5"/>
<text text-anchor="middle" x="604.313" y="-320.5" font-family="Helvetica,sans-Serif" font-size="10.00">NFIProperty.h</text>
</a>
</g>
</g>
<!-- Node33&#45;&gt;Node34 -->
<g id="edge65" class="edge"><title>Node33&#45;&gt;Node34</title>
<path fill="none" stroke="midnightblue" d="M351.923,-369.924C414.434,-358.55 501.851,-342.644 555.686,-332.848"/>
<polygon fill="midnightblue" stroke="midnightblue" points="556.449,-336.267 565.661,-331.033 555.195,-329.38 556.449,-336.267"/>
</g>
<!-- Node34&#45;&gt;Node15 -->
<g id="edge68" class="edge"><title>Node34&#45;&gt;Node15</title>
<path fill="none" stroke="midnightblue" d="M608.95,-313.376C616.503,-298.016 629.114,-265.688 613.313,-246 597.452,-226.238 537.936,-214.618 487.417,-208.152"/>
<polygon fill="midnightblue" stroke="midnightblue" points="487.801,-204.673 477.448,-206.927 486.946,-211.621 487.801,-204.673"/>
</g>
<!-- Node34&#45;&gt;Node17 -->
<g id="edge66" class="edge"><title>Node34&#45;&gt;Node17</title>
<path fill="none" stroke="midnightblue" d="M642.919,-314.16C694.813,-303.622 787.236,-284.853 845.243,-273.074"/>
<polygon fill="midnightblue" stroke="midnightblue" points="846.199,-276.451 855.302,-271.031 844.806,-269.591 846.199,-276.451"/>
</g>
<!-- Node34&#45;&gt;Node19 -->
<g id="edge67" class="edge"><title>Node34&#45;&gt;Node19</title>
<path fill="none" stroke="midnightblue" d="M618.046,-313.433C641.406,-298.969 690.508,-269.033 733.313,-246 754.548,-234.573 779.105,-222.624 797.504,-213.912"/>
<polygon fill="midnightblue" stroke="midnightblue" points="799.214,-216.976 806.772,-209.551 796.234,-210.642 799.214,-216.976"/>
</g>
<!-- Node35&#45;&gt;Node4 -->
<g id="edge72" class="edge"><title>Node35&#45;&gt;Node4</title>
<path fill="none" stroke="midnightblue" d="M704.981,-374.781C696.826,-359.391 677.619,-327.656 651.313,-313 626.075,-298.939 458.082,-280.282 356.023,-270.036"/>
<polygon fill="midnightblue" stroke="midnightblue" points="356.352,-266.552 346.054,-269.041 355.657,-273.517 356.352,-266.552"/>
</g>
<!-- Node35&#45;&gt;Node31 -->
<g id="edge71" class="edge"><title>Node35&#45;&gt;Node31</title>
<path fill="none" stroke="midnightblue" d="M729.658,-374.975C753.699,-364.901 793.91,-348.053 821.475,-336.502"/>
<polygon fill="midnightblue" stroke="midnightblue" points="823.135,-339.602 831.005,-332.509 820.43,-333.146 823.135,-339.602"/>
</g>
<!-- Node36&#45;&gt;Node2 -->
<g id="edge81" class="edge"><title>Node36&#45;&gt;Node2</title>
<path fill="none" stroke="midnightblue" d="M491.143,-492.145C503.273,-469.906 526.575,-427.186 539.705,-403.113"/>
<polygon fill="midnightblue" stroke="midnightblue" points="542.932,-404.507 544.648,-394.052 536.787,-401.155 542.932,-404.507"/>
</g>
<!-- Node36&#45;&gt;Node4 -->
<g id="edge75" class="edge"><title>Node36&#45;&gt;Node4</title>
<path fill="none" stroke="midnightblue" d="M469.84,-492.081C460.57,-482.068 448.041,-468.359 437.313,-456 381.443,-391.634 317.58,-312.711 290.526,-279.016"/>
<polygon fill="midnightblue" stroke="midnightblue" points="293.173,-276.722 284.187,-271.109 287.711,-281.101 293.173,-276.722"/>
</g>
<!-- Node36&#45;&gt;Node9 -->
<g id="edge74" class="edge"><title>Node36&#45;&gt;Node9</title>
<path fill="none" stroke="midnightblue" d="M476.99,-492.294C467.665,-470.009 451.313,-425.264 451.313,-385.5 451.313,-385.5 451.313,-385.5 451.313,-322 451.313,-287.183 458.978,-278.921 470.313,-246 476.013,-229.445 482.678,-227.128 486.313,-210 488.158,-201.305 488.729,-198.554 486.313,-190 482.837,-177.696 475.43,-165.436 468.728,-156.078"/>
<polygon fill="midnightblue" stroke="midnightblue" points="471.5,-153.941 462.669,-148.088 465.922,-158.171 471.5,-153.941"/>
</g>
<!-- Node36&#45;&gt;Node10 -->
<g id="edge80" class="edge"><title>Node36&#45;&gt;Node10</title>
<path fill="none" stroke="midnightblue" d="M563.964,-506.994C836.36,-507.609 1705.31,-500.556 1705.31,-385.5 1705.31,-385.5 1705.31,-385.5 1705.31,-199 1705.31,-161.996 1700.36,-145.926 1671.31,-123 1656.29,-111.145 1553.39,-94.1269 1479.57,-83.1922"/>
<polygon fill="midnightblue" stroke="midnightblue" points="1479.77,-79.683 1469.36,-81.6908 1478.75,-86.6085 1479.77,-79.683"/>
</g>
<!-- Node37 -->
<g id="node38" class="node"><title>Node37</title>
<g id="a_node38"><a xlink:href="_n_f_i_component_8h.html" target="_top" xlink:title="NFIComponent.h">
<polygon fill="white" stroke="black" points="1193.81,-436.5 1193.81,-455.5 1282.81,-455.5 1282.81,-436.5 1193.81,-436.5"/>
<text text-anchor="middle" x="1238.31" y="-443.5" font-family="Helvetica,sans-Serif" font-size="10.00">NFIComponent.h</text>
</a>
</g>
</g>
<!-- Node36&#45;&gt;Node37 -->
<g id="edge76" class="edge"><title>Node36&#45;&gt;Node37</title>
<path fill="none" stroke="midnightblue" d="M564.111,-500.132C718.559,-487.961 1052.01,-461.682 1183.45,-451.324"/>
<polygon fill="midnightblue" stroke="midnightblue" points="1183.98,-454.793 1193.68,-450.518 1183.43,-447.814 1183.98,-454.793"/>
</g>
<!-- Node37&#45;&gt;Node2 -->
<g id="edge79" class="edge"><title>Node37&#45;&gt;Node2</title>
<path fill="none" stroke="midnightblue" d="M1193.56,-444.542C1089.71,-442.886 824.585,-435.245 606.313,-400 600.501,-399.062 594.415,-397.81 588.475,-396.435"/>
<polygon fill="midnightblue" stroke="midnightblue" points="589.233,-393.017 578.687,-394.036 587.566,-399.816 589.233,-393.017"/>
</g>
<!-- Node37&#45;&gt;Node10 -->
<g id="edge77" class="edge"><title>Node37&#45;&gt;Node10</title>
<path fill="none" stroke="midnightblue" d="M1283.01,-441.919C1392.89,-433.122 1667.31,-403.223 1667.31,-324 1667.31,-324 1667.31,-324 1667.31,-199 1667.31,-164.183 1673.44,-147.101 1648.31,-123 1624.45,-100.112 1542.29,-86.585 1479.63,-79.3809"/>
<polygon fill="midnightblue" stroke="midnightblue" points="1479.69,-75.8655 1469.36,-78.236 1478.91,-82.8224 1479.69,-75.8655"/>
</g>
<!-- Node37&#45;&gt;Node28 -->
<g id="edge78" class="edge"><title>Node37&#45;&gt;Node28</title>
<path fill="none" stroke="midnightblue" d="M1283.02,-443.402C1356.15,-438.138 1493.31,-416.001 1493.31,-324 1493.31,-324 1493.31,-324 1493.31,-260.5 1493.31,-220 1524.88,-182.633 1548.36,-160.446"/>
<polygon fill="midnightblue" stroke="midnightblue" points="1550.92,-162.845 1555.95,-153.521 1546.21,-157.673 1550.92,-162.845"/>
</g>
</g>
</svg>
