<?xml version="1.0" encoding="UTF-8" standalone="no"?>
<!DOCTYPE svg PUBLIC "-//W3C//DTD SVG 1.1//EN"
 "http://www.w3.org/Graphics/SVG/1.1/DTD/svg11.dtd">
<!-- Generated by graphviz version 2.38.0 (20140413.2041)
 -->
<!-- Title: NFIPropertyConfigModule.h Pages: 1 -->
<svg width="1643pt" height="453pt"
 viewBox="0.00 0.00 1643.00 453.00" xmlns="http://www.w3.org/2000/svg" xmlns:xlink="http://www.w3.org/1999/xlink">
<g id="graph0" class="graph" transform="scale(1 1) rotate(0) translate(4 449)">
<title>NFIPropertyConfigModule.h</title>
<polygon fill="white" stroke="none" points="-4,4 -4,-449 1639,-449 1639,4 -4,4"/>
<!-- Node0 -->
<g id="node1" class="node"><title>Node0</title>
<polygon fill="#bfbfbf" stroke="black" points="122.5,-425.5 122.5,-444.5 257.5,-444.5 257.5,-425.5 122.5,-425.5"/>
<text text-anchor="middle" x="190" y="-432.5" font-family="Helvetica,sans-Serif" font-size="10.00">NFIPropertyConfigModule.h</text>
</g>
<!-- Node1 -->
<g id="node2" class="node"><title>Node1</title>
<polygon fill="white" stroke="#bfbfbf" points="163,-62 163,-81 217,-81 217,-62 163,-62"/>
<text text-anchor="middle" x="190" y="-69" font-family="Helvetica,sans-Serif" font-size="10.00">iostream</text>
</g>
<!-- Node0&#45;&gt;Node1 -->
<g id="edge1" class="edge"><title>Node0&#45;&gt;Node1</title>
<path fill="none" stroke="midnightblue" d="M138.333,-425.485C82.0699,-412.915 0,-383.449 0,-318.5 0,-318.5 0,-318.5 0,-199 0,-126.253 97.7006,-92.7896 152.982,-79.678"/>
<polygon fill="midnightblue" stroke="midnightblue" points="153.797,-83.0823 162.778,-77.4618 152.252,-76.2549 153.797,-83.0823"/>
</g>
<!-- Node2 -->
<g id="node3" class="node"><title>Node2</title>
<g id="a_node3"><a xlink:href="_n_f_i_module_8h.html" target="_top" xlink:title="NFIModule.h">
<polygon fill="white" stroke="black" points="345.5,-369.5 345.5,-388.5 416.5,-388.5 416.5,-369.5 345.5,-369.5"/>
<text text-anchor="middle" x="381" y="-376.5" font-family="Helvetica,sans-Serif" font-size="10.00">NFIModule.h</text>
</a>
</g>
</g>
<!-- Node0&#45;&gt;Node2 -->
<g id="edge2" class="edge"><title>Node0&#45;&gt;Node2</title>
<path fill="none" stroke="midnightblue" d="M220.265,-425.444C252.955,-416.201 305.182,-401.436 341.183,-391.257"/>
<polygon fill="midnightblue" stroke="midnightblue" points="342.206,-394.605 350.877,-388.516 340.302,-387.869 342.206,-394.605"/>
</g>
<!-- Node3 -->
<g id="node4" class="node"><title>Node3</title>
<polygon fill="white" stroke="#bfbfbf" points="93.5,-0.5 93.5,-19.5 134.5,-19.5 134.5,-0.5 93.5,-0.5"/>
<text text-anchor="middle" x="114" y="-7.5" font-family="Helvetica,sans-Serif" font-size="10.00">string</text>
</g>
<!-- Node2&#45;&gt;Node3 -->
<g id="edge3" class="edge"><title>Node2&#45;&gt;Node3</title>
<path fill="none" stroke="midnightblue" d="M345.289,-377.377C279.918,-375.402 145.049,-367.181 116,-333 39.626,-243.131 87.7712,-82.706 107.073,-29.0448"/>
<polygon fill="midnightblue" stroke="midnightblue" points="110.406,-30.1252 110.602,-19.5322 103.843,-27.6907 110.406,-30.1252"/>
</g>
<!-- Node4 -->
<g id="node5" class="node"><title>Node4</title>
<g id="a_node5"><a xlink:href="_n_f_map_8h.html" target="_top" xlink:title="NFComm/NFCore/NFMap.h">
<polygon fill="white" stroke="black" points="221.5,-246.5 221.5,-265.5 358.5,-265.5 358.5,-246.5 221.5,-246.5"/>
<text text-anchor="middle" x="290" y="-253.5" font-family="Helvetica,sans-Serif" font-size="10.00">NFComm/NFCore/NFMap.h</text>
</a>
</g>
</g>
<!-- Node2&#45;&gt;Node4 -->
<g id="edge4" class="edge"><title>Node2&#45;&gt;Node4</title>
<path fill="none" stroke="midnightblue" d="M374.456,-369.298C359.436,-349.327 322.28,-299.921 302.637,-273.804"/>
<polygon fill="midnightblue" stroke="midnightblue" points="305.293,-271.512 296.485,-265.623 299.699,-275.719 305.293,-271.512"/>
</g>
<!-- Node15 -->
<g id="node16" class="node"><title>Node15</title>
<g id="a_node16"><a xlink:href="_n_f_list_8h.html" target="_top" xlink:title="NFComm/NFCore/NFList.h">
<polygon fill="white" stroke="black" points="394,-190.5 394,-209.5 528,-209.5 528,-190.5 394,-190.5"/>
<text text-anchor="middle" x="461" y="-197.5" font-family="Helvetica,sans-Serif" font-size="10.00">NFComm/NFCore/NFList.h</text>
</a>
</g>
</g>
<!-- Node2&#45;&gt;Node15 -->
<g id="edge23" class="edge"><title>Node2&#45;&gt;Node15</title>
<path fill="none" stroke="midnightblue" d="M384.859,-369.463C397.183,-342.195 435.787,-256.783 452.804,-219.133"/>
<polygon fill="midnightblue" stroke="midnightblue" points="456.062,-220.422 456.992,-209.868 449.684,-217.539 456.062,-220.422"/>
</g>
<!-- Node17 -->
<g id="node18" class="node"><title>Node17</title>
<g id="a_node18"><a xlink:href="_n_f_define_8h.html" target="_top" xlink:title="NFComm/NFCore/NFDefine.h">
<polygon fill="white" stroke="black" points="819.5,-246.5 819.5,-265.5 964.5,-265.5 964.5,-246.5 819.5,-246.5"/>
<text text-anchor="middle" x="892" y="-253.5" font-family="Helvetica,sans-Serif" font-size="10.00">NFComm/NFCore/NFDefine.h</text>
</a>
</g>
</g>
<!-- Node2&#45;&gt;Node17 -->
<g id="edge29" class="edge"><title>Node2&#45;&gt;Node17</title>
<path fill="none" stroke="midnightblue" d="M416.547,-377.09C523.725,-374.029 838.481,-362.581 873,-333 889.265,-319.061 892.709,-293.507 892.95,-275.905"/>
<polygon fill="midnightblue" stroke="midnightblue" points="896.445,-275.618 892.749,-265.689 889.447,-275.756 896.445,-275.618"/>
</g>
<!-- Node19 -->
<g id="node20" class="node"><title>Node19</title>
<g id="a_node20"><a xlink:href="_a_f_data_list_8hpp.html" target="_top" xlink:title="AFDataList.hpp">
<polygon fill="white" stroke="black" points="798,-190.5 798,-209.5 882,-209.5 882,-190.5 798,-190.5"/>
<text text-anchor="middle" x="840" y="-197.5" font-family="Helvetica,sans-Serif" font-size="10.00">AFDataList.hpp</text>
</a>
</g>
</g>
<!-- Node2&#45;&gt;Node19 -->
<g id="edge56" class="edge"><title>Node2&#45;&gt;Node19</title>
<path fill="none" stroke="midnightblue" d="M403.139,-369.463C477.887,-340.638 721.116,-246.844 808.433,-213.173"/>
<polygon fill="midnightblue" stroke="midnightblue" points="809.744,-216.418 817.815,-209.555 807.226,-209.887 809.744,-216.418"/>
</g>
<!-- Node31 -->
<g id="node32" class="node"><title>Node31</title>
<g id="a_node32"><a xlink:href="_n_f_i_record_8h.html" target="_top" xlink:title="NFComm/NFCore/NFIRecord.h">
<polygon fill="white" stroke="black" points="712.5,-308 712.5,-327 863.5,-327 863.5,-308 712.5,-308"/>
<text text-anchor="middle" x="788" y="-315" font-family="Helvetica,sans-Serif" font-size="10.00">NFComm/NFCore/NFIRecord.h</text>
</a>
</g>
</g>
<!-- Node2&#45;&gt;Node31 -->
<g id="edge57" class="edge"><title>Node2&#45;&gt;Node31</title>
<path fill="none" stroke="midnightblue" d="M416.762,-372.772C484.4,-362.884 632.097,-341.292 719.433,-328.524"/>
<polygon fill="midnightblue" stroke="midnightblue" points="720.126,-331.96 729.515,-327.05 719.114,-325.033 720.126,-331.96"/>
</g>
<!-- Node32 -->
<g id="node33" class="node"><title>Node32</title>
<g id="a_node33"><a xlink:href="_n_f_event_define_8h.html" target="_top" xlink:title="NFComm/NFEventDefine\l/NFEventDefine.h">
<polygon fill="white" stroke="black" points="125.5,-302.5 125.5,-332.5 250.5,-332.5 250.5,-302.5 125.5,-302.5"/>
<text text-anchor="start" x="133.5" y="-320.5" font-family="Helvetica,sans-Serif" font-size="10.00">NFComm/NFEventDefine</text>
<text text-anchor="middle" x="188" y="-309.5" font-family="Helvetica,sans-Serif" font-size="10.00">/NFEventDefine.h</text>
</a>
</g>
</g>
<!-- Node2&#45;&gt;Node32 -->
<g id="edge60" class="edge"><title>Node2&#45;&gt;Node32</title>
<path fill="none" stroke="midnightblue" d="M353.348,-369.475C324.766,-360.664 279.37,-346.668 243.369,-335.57"/>
<polygon fill="midnightblue" stroke="midnightblue" points="244.074,-332.124 233.486,-332.523 242.011,-338.814 244.074,-332.124"/>
</g>
<!-- Node4&#45;&gt;Node1 -->
<g id="edge8" class="edge"><title>Node4&#45;&gt;Node1</title>
<path fill="none" stroke="midnightblue" d="M241.229,-246.495C220.215,-240.151 197.61,-229.124 185,-210 160.97,-173.557 173.795,-119.078 183.103,-90.8823"/>
<polygon fill="midnightblue" stroke="midnightblue" points="186.51,-91.7418 186.529,-81.147 179.907,-89.4179 186.51,-91.7418"/>
</g>
<!-- Node4&#45;&gt;Node3 -->
<g id="edge7" class="edge"><title>Node4&#45;&gt;Node3</title>
<path fill="none" stroke="midnightblue" d="M240.441,-246.473C217.093,-240.082 190.576,-229.021 173,-210 125.129,-158.192 115.97,-69.2611 114.311,-30.2707"/>
<polygon fill="midnightblue" stroke="midnightblue" points="117.798,-29.7616 114.002,-19.8699 110.801,-29.9694 117.798,-29.7616"/>
</g>
<!-- Node5 -->
<g id="node6" class="node"><title>Node5</title>
<polygon fill="white" stroke="#bfbfbf" points="371.5,-129 371.5,-148 406.5,-148 406.5,-129 371.5,-129"/>
<text text-anchor="middle" x="389" y="-136" font-family="Helvetica,sans-Serif" font-size="10.00">map</text>
</g>
<!-- Node4&#45;&gt;Node5 -->
<g id="edge5" class="edge"><title>Node4&#45;&gt;Node5</title>
<path fill="none" stroke="midnightblue" d="M297.441,-246.319C313.853,-227.172 353.391,-181.044 374.745,-156.131"/>
<polygon fill="midnightblue" stroke="midnightblue" points="377.622,-158.152 381.473,-148.282 372.307,-153.597 377.622,-158.152"/>
</g>
<!-- Node6 -->
<g id="node7" class="node"><title>Node6</title>
<polygon fill="white" stroke="#bfbfbf" points="324.5,-129 324.5,-148 353.5,-148 353.5,-129 324.5,-129"/>
<text text-anchor="middle" x="339" y="-136" font-family="Helvetica,sans-Serif" font-size="10.00">list</text>
</g>
<!-- Node4&#45;&gt;Node6 -->
<g id="edge6" class="edge"><title>Node4&#45;&gt;Node6</title>
<path fill="none" stroke="midnightblue" d="M293.683,-246.319C301.629,-227.59 320.526,-183.046 331.24,-157.792"/>
<polygon fill="midnightblue" stroke="midnightblue" points="334.591,-158.855 335.274,-148.282 328.147,-156.121 334.591,-158.855"/>
</g>
<!-- Node7 -->
<g id="node8" class="node"><title>Node7</title>
<polygon fill="white" stroke="#bfbfbf" points="256,-129 256,-148 306,-148 306,-129 256,-129"/>
<text text-anchor="middle" x="281" y="-136" font-family="Helvetica,sans-Serif" font-size="10.00">typeinfo</text>
</g>
<!-- Node4&#45;&gt;Node7 -->
<g id="edge9" class="edge"><title>Node4&#45;&gt;Node7</title>
<path fill="none" stroke="midnightblue" d="M289.324,-246.319C287.877,-227.757 284.455,-183.839 282.478,-158.473"/>
<polygon fill="midnightblue" stroke="midnightblue" points="285.951,-157.98 281.684,-148.282 278.972,-158.524 285.951,-157.98"/>
</g>
<!-- Node8 -->
<g id="node9" class="node"><title>Node8</title>
<g id="a_node9"><a xlink:href="_n_f_map_ex_8h.html" target="_top" xlink:title="NFMapEx.h">
<polygon fill="white" stroke="black" points="194,-190.5 194,-209.5 262,-209.5 262,-190.5 194,-190.5"/>
<text text-anchor="middle" x="228" y="-197.5" font-family="Helvetica,sans-Serif" font-size="10.00">NFMapEx.h</text>
</a>
</g>
</g>
<!-- Node4&#45;&gt;Node8 -->
<g id="edge10" class="edge"><title>Node4&#45;&gt;Node8</title>
<path fill="none" stroke="midnightblue" d="M280.039,-246.324C270.873,-238.341 257.063,-226.313 245.972,-216.653"/>
<polygon fill="midnightblue" stroke="midnightblue" points="247.982,-213.762 238.143,-209.834 243.385,-219.041 247.982,-213.762"/>
</g>
<!-- Node8&#45;&gt;Node1 -->
<g id="edge14" class="edge"><title>Node8&#45;&gt;Node1</title>
<path fill="none" stroke="midnightblue" d="M225.277,-190.385C222.427,-181.337 217.841,-166.686 214,-154 207.471,-132.436 200.189,-107.589 195.377,-91.055"/>
<polygon fill="midnightblue" stroke="midnightblue" points="198.63,-89.7056 192.48,-81.0784 191.907,-91.6578 198.63,-89.7056"/>
</g>
<!-- Node8&#45;&gt;Node3 -->
<g id="edge13" class="edge"><title>Node8&#45;&gt;Node3</title>
<path fill="none" stroke="midnightblue" d="M221.944,-190.474C208.913,-171.995 177.494,-126.716 154,-87 142.417,-67.4194 130.432,-44.182 122.639,-28.6023"/>
<polygon fill="midnightblue" stroke="midnightblue" points="125.747,-26.9907 118.169,-19.5855 119.475,-30.0996 125.747,-26.9907"/>
</g>
<!-- Node8&#45;&gt;Node5 -->
<g id="edge11" class="edge"><title>Node8&#45;&gt;Node5</title>
<path fill="none" stroke="midnightblue" d="M258.08,-190.489C285.6,-182.331 327.203,-169.058 362,-154 363.001,-153.567 364.015,-153.11 365.033,-152.636"/>
<polygon fill="midnightblue" stroke="midnightblue" points="366.721,-155.705 374.085,-148.088 363.578,-149.45 366.721,-155.705"/>
</g>
<!-- Node8&#45;&gt;Node6 -->
<g id="edge12" class="edge"><title>Node8&#45;&gt;Node6</title>
<path fill="none" stroke="midnightblue" d="M245.512,-190.369C263.21,-181.547 291.26,-167.292 315,-154 315.414,-153.768 315.832,-153.533 316.251,-153.295"/>
<polygon fill="midnightblue" stroke="midnightblue" points="318.273,-156.167 325.132,-148.091 314.734,-150.127 318.273,-156.167"/>
</g>
<!-- Node8&#45;&gt;Node7 -->
<g id="edge15" class="edge"><title>Node8&#45;&gt;Node7</title>
<path fill="none" stroke="midnightblue" d="M235.594,-190.475C243.701,-181.373 256.735,-166.741 266.763,-155.483"/>
<polygon fill="midnightblue" stroke="midnightblue" points="269.383,-157.804 273.42,-148.009 264.156,-153.148 269.383,-157.804"/>
</g>
<!-- Node9 -->
<g id="node10" class="node"><title>Node9</title>
<polygon fill="white" stroke="#bfbfbf" points="501,-129 501,-148 553,-148 553,-129 501,-129"/>
<text text-anchor="middle" x="527" y="-136" font-family="Helvetica,sans-Serif" font-size="10.00">memory</text>
</g>
<!-- Node8&#45;&gt;Node9 -->
<g id="edge16" class="edge"><title>Node8&#45;&gt;Node9</title>
<path fill="none" stroke="midnightblue" d="M262.008,-192.233C318.899,-180.911 432.84,-158.238 491.02,-146.66"/>
<polygon fill="midnightblue" stroke="midnightblue" points="491.747,-150.084 500.872,-144.699 490.381,-143.219 491.747,-150.084"/>
</g>
<!-- Node10 -->
<g id="node11" class="node"><title>Node10</title>
<g id="a_node11"><a xlink:href="_n_f_platform_8h.html" target="_top" xlink:title="NFComm/NFPluginModule\l/NFPlatform.h">
<polygon fill="white" stroke="black" points="721,-56.5 721,-86.5 853,-86.5 853,-56.5 721,-56.5"/>
<text text-anchor="start" x="729" y="-74.5" font-family="Helvetica,sans-Serif" font-size="10.00">NFComm/NFPluginModule</text>
<text text-anchor="middle" x="787" y="-63.5" font-family="Helvetica,sans-Serif" font-size="10.00">/NFPlatform.h</text>
</a>
</g>
</g>
<!-- Node8&#45;&gt;Node10 -->
<g id="edge17" class="edge"><title>Node8&#45;&gt;Node10</title>
<path fill="none" stroke="midnightblue" d="M227.254,-190.315C226.407,-174.256 227.189,-140.012 247,-123 281.41,-93.4515 569.922,-79.775 710.545,-74.8171"/>
<polygon fill="midnightblue" stroke="midnightblue" points="710.945,-78.3054 720.818,-74.4612 710.702,-71.3096 710.945,-78.3054"/>
</g>
<!-- Node10&#45;&gt;Node3 -->
<g id="edge22" class="edge"><title>Node10&#45;&gt;Node3</title>
<path fill="none" stroke="midnightblue" d="M720.728,-57.9425C716.09,-57.2318 711.48,-56.5744 707,-56 492.687,-28.5213 232.488,-15.8971 144.639,-12.204"/>
<polygon fill="midnightblue" stroke="midnightblue" points="144.698,-8.70353 134.562,-11.7881 144.409,-15.6976 144.698,-8.70353"/>
</g>
<!-- Node11 -->
<g id="node12" class="node"><title>Node11</title>
<polygon fill="white" stroke="#bfbfbf" points="664.5,-0.5 664.5,-19.5 713.5,-19.5 713.5,-0.5 664.5,-0.5"/>
<text text-anchor="middle" x="689" y="-7.5" font-family="Helvetica,sans-Serif" font-size="10.00">stdint.h</text>
</g>
<!-- Node10&#45;&gt;Node11 -->
<g id="edge18" class="edge"><title>Node10&#45;&gt;Node11</title>
<path fill="none" stroke="midnightblue" d="M763.775,-56.3993C748.214,-46.9511 727.803,-34.5589 712.238,-25.1089"/>
<polygon fill="midnightblue" stroke="midnightblue" points="713.624,-21.8558 703.26,-19.6578 709.991,-27.8394 713.624,-21.8558"/>
</g>
<!-- Node12 -->
<g id="node13" class="node"><title>Node12</title>
<polygon fill="white" stroke="#bfbfbf" points="732,-0.5 732,-19.5 776,-19.5 776,-0.5 732,-0.5"/>
<text text-anchor="middle" x="754" y="-7.5" font-family="Helvetica,sans-Serif" font-size="10.00">time.h</text>
</g>
<!-- Node10&#45;&gt;Node12 -->
<g id="edge19" class="edge"><title>Node10&#45;&gt;Node12</title>
<path fill="none" stroke="midnightblue" d="M779.179,-56.3993C774.532,-48.0207 768.601,-37.3269 763.663,-28.4229"/>
<polygon fill="midnightblue" stroke="midnightblue" points="766.713,-26.7052 758.802,-19.6578 760.591,-30.1004 766.713,-26.7052"/>
</g>
<!-- Node13 -->
<g id="node14" class="node"><title>Node13</title>
<polygon fill="white" stroke="#bfbfbf" points="794,-0.5 794,-19.5 846,-19.5 846,-0.5 794,-0.5"/>
<text text-anchor="middle" x="820" y="-7.5" font-family="Helvetica,sans-Serif" font-size="10.00">sstream</text>
</g>
<!-- Node10&#45;&gt;Node13 -->
<g id="edge20" class="edge"><title>Node10&#45;&gt;Node13</title>
<path fill="none" stroke="midnightblue" d="M794.821,-56.3993C799.468,-48.0207 805.399,-37.3269 810.337,-28.4229"/>
<polygon fill="midnightblue" stroke="midnightblue" points="813.409,-30.1004 815.198,-19.6578 807.287,-26.7052 813.409,-30.1004"/>
</g>
<!-- Node14 -->
<g id="node15" class="node"><title>Node14</title>
<polygon fill="white" stroke="#bfbfbf" points="864,-0.5 864,-19.5 992,-19.5 992,-0.5 864,-0.5"/>
<text text-anchor="middle" x="928" y="-7.5" font-family="Helvetica,sans-Serif" font-size="10.00">common/lexical_cast.hpp</text>
</g>
<!-- Node10&#45;&gt;Node14 -->
<g id="edge21" class="edge"><title>Node10&#45;&gt;Node14</title>
<path fill="none" stroke="midnightblue" d="M820.415,-56.3993C843.967,-46.4608 875.238,-33.2649 897.993,-23.6625"/>
<polygon fill="midnightblue" stroke="midnightblue" points="899.631,-26.7704 907.483,-19.6578 896.909,-20.3211 899.631,-26.7704"/>
</g>
<!-- Node15&#45;&gt;Node1 -->
<g id="edge24" class="edge"><title>Node15&#45;&gt;Node1</title>
<path fill="none" stroke="midnightblue" d="M458.32,-190.368C452.894,-174.397 439.038,-140.294 415,-123 358.653,-82.462 275.42,-73.6705 227.568,-72.218"/>
<polygon fill="midnightblue" stroke="midnightblue" points="227.416,-68.7142 217.345,-72.0038 227.269,-75.7126 227.416,-68.7142"/>
</g>
<!-- Node15&#45;&gt;Node5 -->
<g id="edge25" class="edge"><title>Node15&#45;&gt;Node5</title>
<path fill="none" stroke="midnightblue" d="M450.684,-190.475C439.349,-181.108 420.927,-165.884 407.161,-154.508"/>
<polygon fill="midnightblue" stroke="midnightblue" points="409.235,-151.681 399.297,-148.009 404.776,-157.077 409.235,-151.681"/>
</g>
<!-- Node15&#45;&gt;Node6 -->
<g id="edge26" class="edge"><title>Node15&#45;&gt;Node6</title>
<path fill="none" stroke="midnightblue" d="M440.127,-190.49C419.813,-181.982 388.256,-168.159 362,-154 361.585,-153.776 361.166,-153.547 360.747,-153.315"/>
<polygon fill="midnightblue" stroke="midnightblue" points="362.338,-150.189 351.953,-148.095 358.766,-156.209 362.338,-150.189"/>
</g>
<!-- Node15&#45;&gt;Node10 -->
<g id="edge28" class="edge"><title>Node15&#45;&gt;Node10</title>
<path fill="none" stroke="midnightblue" d="M461.844,-190.337C463.896,-174.315 470.666,-140.13 492,-123 524.911,-96.5752 634.851,-83.3516 710.802,-77.2159"/>
<polygon fill="midnightblue" stroke="midnightblue" points="711.12,-80.7018 720.817,-76.4318 710.574,-73.7232 711.12,-80.7018"/>
</g>
<!-- Node16 -->
<g id="node17" class="node"><title>Node16</title>
<polygon fill="white" stroke="#bfbfbf" points="571,-129 571,-148 627,-148 627,-129 571,-129"/>
<text text-anchor="middle" x="599" y="-136" font-family="Helvetica,sans-Serif" font-size="10.00">algorithm</text>
</g>
<!-- Node15&#45;&gt;Node16 -->
<g id="edge27" class="edge"><title>Node15&#45;&gt;Node16</title>
<path fill="none" stroke="midnightblue" d="M480.772,-190.475C504.136,-180.401 543.214,-163.553 570.003,-152.002"/>
<polygon fill="midnightblue" stroke="midnightblue" points="571.468,-155.182 579.265,-148.009 568.696,-148.754 571.468,-155.182"/>
</g>
<!-- Node18 -->
<g id="node19" class="node"><title>Node18</title>
<polygon fill="white" stroke="#bfbfbf" points="1577,-129 1577,-148 1635,-148 1635,-129 1577,-129"/>
<text text-anchor="middle" x="1606" y="-136" font-family="Helvetica,sans-Serif" font-size="10.00">functional</text>
</g>
<!-- Node17&#45;&gt;Node18 -->
<g id="edge30" class="edge"><title>Node17&#45;&gt;Node18</title>
<path fill="none" stroke="midnightblue" d="M963.015,-246.492C1084.11,-231.452 1338.02,-197.596 1550,-154 1555.47,-152.875 1561.21,-151.554 1566.84,-150.175"/>
<polygon fill="midnightblue" stroke="midnightblue" points="1567.94,-153.507 1576.78,-147.662 1566.22,-146.721 1567.94,-153.507"/>
</g>
<!-- Node17&#45;&gt;Node19 -->
<g id="edge31" class="edge"><title>Node17&#45;&gt;Node19</title>
<path fill="none" stroke="midnightblue" d="M883.413,-246.083C875.841,-238.22 864.622,-226.569 855.486,-217.081"/>
<polygon fill="midnightblue" stroke="midnightblue" points="857.885,-214.527 848.427,-209.751 852.842,-219.382 857.885,-214.527"/>
</g>
<!-- Node28 -->
<g id="node29" class="node"><title>Node28</title>
<g id="a_node29"><a xlink:href="_n_f_g_u_i_d_8h.html" target="_top" xlink:title="NFComm/NFPluginModule\l/NFGUID.h">
<polygon fill="white" stroke="black" points="1389,-123.5 1389,-153.5 1521,-153.5 1521,-123.5 1389,-123.5"/>
<text text-anchor="start" x="1397" y="-141.5" font-family="Helvetica,sans-Serif" font-size="10.00">NFComm/NFPluginModule</text>
<text text-anchor="middle" x="1455" y="-130.5" font-family="Helvetica,sans-Serif" font-size="10.00">/NFGUID.h</text>
</a>
</g>
</g>
<!-- Node17&#45;&gt;Node28 -->
<g id="edge55" class="edge"><title>Node17&#45;&gt;Node28</title>
<path fill="none" stroke="midnightblue" d="M933.857,-246.413C1028.17,-227.064 1258.43,-179.826 1378.83,-155.127"/>
<polygon fill="midnightblue" stroke="midnightblue" points="1379.62,-158.537 1388.72,-153.098 1378.22,-151.679 1379.62,-158.537"/>
</g>
<!-- Node19&#45;&gt;Node1 -->
<g id="edge34" class="edge"><title>Node19&#45;&gt;Node1</title>
<path fill="none" stroke="midnightblue" d="M797.859,-191.465C764.5,-184.512 717.311,-172.44 679,-154 657.771,-143.782 657.977,-131.491 636,-123 561.547,-94.2343 320.657,-79.1687 227.377,-74.2971"/>
<polygon fill="midnightblue" stroke="midnightblue" points="227.434,-70.7955 217.268,-73.7791 227.075,-77.7864 227.434,-70.7955"/>
</g>
<!-- Node19&#45;&gt;Node3 -->
<g id="edge32" class="edge"><title>Node19&#45;&gt;Node3</title>
<path fill="none" stroke="midnightblue" d="M807.854,-190.478C781.5,-182.825 743.679,-170.292 713,-154 692.509,-143.118 692.211,-132.4 671,-123 482.905,-39.6476 231.558,-17.7702 144.894,-12.5252"/>
<polygon fill="midnightblue" stroke="midnightblue" points="144.88,-9.01872 134.696,-11.94 144.479,-16.0072 144.88,-9.01872"/>
</g>
<!-- Node19&#45;&gt;Node5 -->
<g id="edge39" class="edge"><title>Node19&#45;&gt;Node5</title>
<path fill="none" stroke="midnightblue" d="M797.929,-193.715C732.481,-185.458 602.329,-168.899 492,-154 466.55,-150.563 437.591,-146.47 416.874,-143.511"/>
<polygon fill="midnightblue" stroke="midnightblue" points="417.25,-140.029 406.855,-142.076 416.258,-146.958 417.25,-140.029"/>
</g>
<!-- Node19&#45;&gt;Node6 -->
<g id="edge37" class="edge"><title>Node19&#45;&gt;Node6</title>
<path fill="none" stroke="midnightblue" d="M797.692,-197.533C696.353,-193.618 442.187,-181.303 362,-154 361.101,-153.694 360.201,-153.346 359.306,-152.965"/>
<polygon fill="midnightblue" stroke="midnightblue" points="360.621,-149.697 350.162,-148.005 357.283,-155.85 360.621,-149.697"/>
</g>
<!-- Node19&#45;&gt;Node7 -->
<g id="edge42" class="edge"><title>Node19&#45;&gt;Node7</title>
<path fill="none" stroke="midnightblue" d="M797.747,-199.871C707.595,-200.757 490.308,-197.703 315,-154 312.636,-153.411 310.225,-152.677 307.833,-151.855"/>
<polygon fill="midnightblue" stroke="midnightblue" points="308.867,-148.501 298.279,-148.121 306.319,-155.021 308.867,-148.501"/>
</g>
<!-- Node19&#45;&gt;Node9 -->
<g id="edge46" class="edge"><title>Node19&#45;&gt;Node9</title>
<path fill="none" stroke="midnightblue" d="M797.894,-195.258C742.857,-189.673 643.838,-177.234 562,-154 559.704,-153.348 557.357,-152.59 555.017,-151.769"/>
<polygon fill="midnightblue" stroke="midnightblue" points="556.195,-148.472 545.606,-148.147 553.681,-155.005 556.195,-148.472"/>
</g>
<!-- Node19&#45;&gt;Node10 -->
<g id="edge53" class="edge"><title>Node19&#45;&gt;Node10</title>
<path fill="none" stroke="midnightblue" d="M882.099,-197.816C986.674,-194.444 1251.75,-183.083 1278,-154 1287.23,-143.772 1287.23,-133.229 1278,-123 1250.79,-92.8426 994.517,-79.6545 863.438,-74.8426"/>
<polygon fill="midnightblue" stroke="midnightblue" points="863.19,-71.3315 853.071,-74.4699 862.939,-78.327 863.19,-71.3315"/>
</g>
<!-- Node19&#45;&gt;Node16 -->
<g id="edge40" class="edge"><title>Node19&#45;&gt;Node16</title>
<path fill="none" stroke="midnightblue" d="M797.732,-190.849C757.214,-182.704 694.485,-169.23 641,-154 638.053,-153.161 635.01,-152.233 631.971,-151.264"/>
<polygon fill="midnightblue" stroke="midnightblue" points="632.995,-147.917 622.402,-148.089 630.79,-154.56 632.995,-147.917"/>
</g>
<!-- Node19&#45;&gt;Node18 -->
<g id="edge44" class="edge"><title>Node19&#45;&gt;Node18</title>
<path fill="none" stroke="midnightblue" d="M882.271,-197.828C1016.39,-193.879 1431.26,-179.842 1563,-154 1566.89,-153.237 1570.91,-152.214 1574.86,-151.062"/>
<polygon fill="midnightblue" stroke="midnightblue" points="1575.96,-154.385 1584.43,-148.01 1573.83,-147.716 1575.96,-154.385"/>
</g>
<!-- Node20 -->
<g id="node21" class="node"><title>Node20</title>
<polygon fill="white" stroke="#bfbfbf" points="1325,-129 1325,-148 1371,-148 1371,-129 1325,-129"/>
<text text-anchor="middle" x="1348" y="-136" font-family="Helvetica,sans-Serif" font-size="10.00">cstring</text>
</g>
<!-- Node19&#45;&gt;Node20 -->
<g id="edge33" class="edge"><title>Node19&#45;&gt;Node20</title>
<path fill="none" stroke="midnightblue" d="M882.223,-198.872C965.436,-197.769 1156,-191.008 1311,-154 1313.83,-153.324 1316.73,-152.477 1319.61,-151.534"/>
<polygon fill="midnightblue" stroke="midnightblue" points="1320.93,-154.779 1329.12,-148.065 1318.53,-148.202 1320.93,-154.779"/>
</g>
<!-- Node21 -->
<g id="node22" class="node"><title>Node21</title>
<polygon fill="white" stroke="#bfbfbf" points="1510,-62 1510,-81 1558,-81 1558,-62 1510,-62"/>
<text text-anchor="middle" x="1534" y="-69" font-family="Helvetica,sans-Serif" font-size="10.00">stdlib.h</text>
</g>
<!-- Node19&#45;&gt;Node21 -->
<g id="edge35" class="edge"><title>Node19&#45;&gt;Node21</title>
<path fill="none" stroke="midnightblue" d="M882.439,-199.435C1025.63,-200.475 1484.58,-200.152 1530,-154 1546.04,-137.701 1543.44,-109.555 1539.33,-90.9811"/>
<polygon fill="midnightblue" stroke="midnightblue" points="1542.67,-89.8999 1536.8,-81.0787 1535.89,-91.634 1542.67,-89.8999"/>
</g>
<!-- Node22 -->
<g id="node23" class="node"><title>Node22</title>
<polygon fill="white" stroke="#bfbfbf" points="721.5,-129 721.5,-148 768.5,-148 768.5,-129 721.5,-129"/>
<text text-anchor="middle" x="745" y="-136" font-family="Helvetica,sans-Serif" font-size="10.00">math.h</text>
</g>
<!-- Node19&#45;&gt;Node22 -->
<g id="edge36" class="edge"><title>Node19&#45;&gt;Node22</title>
<path fill="none" stroke="midnightblue" d="M826.389,-190.475C810.939,-180.799 785.51,-164.872 767.184,-153.394"/>
<polygon fill="midnightblue" stroke="midnightblue" points="768.919,-150.351 758.586,-148.009 765.203,-156.283 768.919,-150.351"/>
</g>
<!-- Node23 -->
<g id="node24" class="node"><title>Node23</title>
<polygon fill="white" stroke="#bfbfbf" points="787,-129 787,-148 829,-148 829,-129 787,-129"/>
<text text-anchor="middle" x="808" y="-136" font-family="Helvetica,sans-Serif" font-size="10.00">vector</text>
</g>
<!-- Node19&#45;&gt;Node23 -->
<g id="edge38" class="edge"><title>Node19&#45;&gt;Node23</title>
<path fill="none" stroke="midnightblue" d="M835.415,-190.475C830.758,-181.815 823.408,-168.149 817.49,-157.145"/>
<polygon fill="midnightblue" stroke="midnightblue" points="820.395,-155.158 812.576,-148.009 814.23,-158.474 820.395,-155.158"/>
</g>
<!-- Node24 -->
<g id="node25" class="node"><title>Node24</title>
<polygon fill="white" stroke="#bfbfbf" points="847,-129 847,-148 899,-148 899,-129 847,-129"/>
<text text-anchor="middle" x="873" y="-136" font-family="Helvetica,sans-Serif" font-size="10.00">assert.h</text>
</g>
<!-- Node19&#45;&gt;Node24 -->
<g id="edge41" class="edge"><title>Node19&#45;&gt;Node24</title>
<path fill="none" stroke="midnightblue" d="M844.728,-190.475C849.58,-181.727 857.266,-167.869 863.4,-156.809"/>
<polygon fill="midnightblue" stroke="midnightblue" points="866.491,-158.452 868.281,-148.009 860.37,-155.057 866.491,-158.452"/>
</g>
<!-- Node25 -->
<g id="node26" class="node"><title>Node25</title>
<polygon fill="white" stroke="#bfbfbf" points="917,-129 917,-148 967,-148 967,-129 917,-129"/>
<text text-anchor="middle" x="942" y="-136" font-family="Helvetica,sans-Serif" font-size="10.00">iomanip</text>
</g>
<!-- Node19&#45;&gt;Node25 -->
<g id="edge43" class="edge"><title>Node19&#45;&gt;Node25</title>
<path fill="none" stroke="midnightblue" d="M854.614,-190.475C871.353,-180.711 899.004,-164.581 918.719,-153.081"/>
<polygon fill="midnightblue" stroke="midnightblue" points="920.539,-156.071 927.413,-148.009 917.012,-150.025 920.539,-156.071"/>
</g>
<!-- Node26 -->
<g id="node27" class="node"><title>Node26</title>
<polygon fill="white" stroke="#bfbfbf" points="985.5,-129 985.5,-148 1034.5,-148 1034.5,-129 985.5,-129"/>
<text text-anchor="middle" x="1010" y="-136" font-family="Helvetica,sans-Serif" font-size="10.00">fstream</text>
</g>
<!-- Node19&#45;&gt;Node26 -->
<g id="edge45" class="edge"><title>Node19&#45;&gt;Node26</title>
<path fill="none" stroke="midnightblue" d="M868.109,-190.454C895.779,-181.865 939.126,-167.935 976,-154 977.651,-153.376 979.339,-152.719 981.038,-152.043"/>
<polygon fill="midnightblue" stroke="midnightblue" points="982.783,-155.11 990.695,-148.064 980.116,-148.638 982.783,-155.11"/>
</g>
<!-- Node27 -->
<g id="node28" class="node"><title>Node27</title>
<polygon fill="white" stroke="#bfbfbf" points="1053,-129 1053,-148 1157,-148 1157,-129 1053,-129"/>
<text text-anchor="middle" x="1105" y="-136" font-family="Helvetica,sans-Serif" font-size="10.00">common/variant.hpp</text>
</g>
<!-- Node19&#45;&gt;Node27 -->
<g id="edge47" class="edge"><title>Node19&#45;&gt;Node27</title>
<path fill="none" stroke="midnightblue" d="M879.532,-190.479C920.66,-181.567 986.907,-167.082 1044,-154 1049.04,-152.844 1054.32,-151.618 1059.56,-150.387"/>
<polygon fill="midnightblue" stroke="midnightblue" points="1060.61,-153.735 1069.54,-148.032 1059,-146.922 1060.61,-153.735"/>
</g>
<!-- Node19&#45;&gt;Node28 -->
<g id="edge48" class="edge"><title>Node19&#45;&gt;Node28</title>
<path fill="none" stroke="midnightblue" d="M882.181,-197.036C971.799,-192.53 1187.92,-179.892 1378.87,-154.057"/>
<polygon fill="midnightblue" stroke="midnightblue" points="1379.38,-157.521 1388.81,-152.698 1378.43,-150.586 1379.38,-157.521"/>
</g>
<!-- Node30 -->
<g id="node31" class="node"><title>Node30</title>
<g id="a_node31"><a xlink:href="_vector3_8hpp.html" target="_top" xlink:title="Math/Vector3.hpp">
<polygon fill="white" stroke="black" points="1175,-129 1175,-148 1269,-148 1269,-129 1175,-129"/>
<text text-anchor="middle" x="1222" y="-136" font-family="Helvetica,sans-Serif" font-size="10.00">Math/Vector3.hpp</text>
</a>
</g>
</g>
<!-- Node19&#45;&gt;Node30 -->
<g id="edge54" class="edge"><title>Node19&#45;&gt;Node30</title>
<path fill="none" stroke="midnightblue" d="M882.201,-194.76C944.595,-188.134 1064.97,-173.982 1166,-154 1171.1,-152.991 1176.43,-151.796 1181.69,-150.533"/>
<polygon fill="midnightblue" stroke="midnightblue" points="1182.78,-153.869 1191.63,-148.049 1181.08,-147.078 1182.78,-153.869"/>
</g>
<!-- Node28&#45;&gt;Node1 -->
<g id="edge50" class="edge"><title>Node28&#45;&gt;Node1</title>
<path fill="none" stroke="midnightblue" d="M1388.83,-124.154C1385.85,-123.728 1382.9,-123.34 1380,-123 1148.54,-95.8672 402.178,-77.3653 227.032,-73.3293"/>
<polygon fill="midnightblue" stroke="midnightblue" points="227.1,-69.8301 217.022,-73.1001 226.94,-76.8282 227.1,-69.8301"/>
</g>
<!-- Node28&#45;&gt;Node10 -->
<g id="edge49" class="edge"><title>Node28&#45;&gt;Node10</title>
<path fill="none" stroke="midnightblue" d="M1388.81,-124.309C1385.84,-123.841 1382.89,-123.401 1380,-123 1195.41,-97.3695 976.556,-82.7869 863.356,-76.4075"/>
<polygon fill="midnightblue" stroke="midnightblue" points="863.247,-72.8961 853.068,-75.834 862.857,-79.8852 863.247,-72.8961"/>
</g>
<!-- Node28&#45;&gt;Node21 -->
<g id="edge52" class="edge"><title>Node28&#45;&gt;Node21</title>
<path fill="none" stroke="midnightblue" d="M1472.14,-123.396C1484.95,-112.86 1502.43,-98.4771 1515.54,-87.6886"/>
<polygon fill="midnightblue" stroke="midnightblue" points="1517.93,-90.251 1523.43,-81.1945 1513.49,-84.8455 1517.93,-90.251"/>
</g>
<!-- Node29 -->
<g id="node30" class="node"><title>Node29</title>
<polygon fill="white" stroke="#bfbfbf" points="1432,-62 1432,-81 1478,-81 1478,-62 1432,-62"/>
<text text-anchor="middle" x="1455" y="-69" font-family="Helvetica,sans-Serif" font-size="10.00">stdio.h</text>
</g>
<!-- Node28&#45;&gt;Node29 -->
<g id="edge51" class="edge"><title>Node28&#45;&gt;Node29</title>
<path fill="none" stroke="midnightblue" d="M1455,-123.396C1455,-114.064 1455,-101.714 1455,-91.5173"/>
<polygon fill="midnightblue" stroke="midnightblue" points="1458.5,-91.1945 1455,-81.1945 1451.5,-91.1946 1458.5,-91.1945"/>
</g>
<!-- Node31&#45;&gt;Node17 -->
<g id="edge58" class="edge"><title>Node31&#45;&gt;Node17</title>
<path fill="none" stroke="midnightblue" d="M802.901,-307.975C819.968,-298.211 848.161,-282.081 868.262,-270.581"/>
<polygon fill="midnightblue" stroke="midnightblue" points="870.185,-273.513 877.127,-265.509 866.709,-267.437 870.185,-273.513"/>
</g>
<!-- Node31&#45;&gt;Node19 -->
<g id="edge59" class="edge"><title>Node31&#45;&gt;Node19</title>
<path fill="none" stroke="midnightblue" d="M790.02,-307.984C793.395,-294.454 800.826,-267.393 811,-246 815.64,-236.243 822.046,-226.068 827.657,-217.866"/>
<polygon fill="midnightblue" stroke="midnightblue" points="830.605,-219.759 833.519,-209.573 824.889,-215.719 830.605,-219.759"/>
</g>
<!-- Node32&#45;&gt;Node1 -->
<g id="edge61" class="edge"><title>Node32&#45;&gt;Node1</title>
<path fill="none" stroke="midnightblue" d="M183.57,-302.266C174.179,-270.033 154.222,-189.125 168,-123 170.378,-111.587 175.48,-99.5921 180.172,-90.1576"/>
<polygon fill="midnightblue" stroke="midnightblue" points="183.393,-91.5528 184.955,-81.0737 177.199,-88.2916 183.393,-91.5528"/>
</g>
</g>
</svg>
