<?xml version="1.0" encoding="UTF-8" standalone="no"?>
<!DOCTYPE svg PUBLIC "-//W3C//DTD SVG 1.1//EN"
 "http://www.w3.org/Graphics/SVG/1.1/DTD/svg11.dtd">
<!-- Generated by graphviz version 2.38.0 (20140413.2041)
 -->
<!-- Title: NFCConsistentHash.hpp Pages: 1 -->
<!--zoomable 151 -->
<svg id="main" version="1.1" xmlns="http://www.w3.org/2000/svg" xmlns:xlink="http://www.w3.org/1999/xlink" xml:space="preserve" onload="init(evt)">
<style type="text/css"><![CDATA[
.edge:hover path { stroke: red; }
.edge:hover polygon { stroke: red; fill: red; }
]]></style>
<script type="text/javascript"><![CDATA[
var edges = document.getElementsByTagName('g');
if (edges && edges.length) {
  for (var i=0;i<edges.length;i++) {
    if (edges[i].id.substr(0,4)=='edge') {
      edges[i].setAttribute('class','edge');
    }
  }
}
]]></script>
        <defs>
                <circle id="rim" cx="0" cy="0" r="7"/>
                <circle id="rim2" cx="0" cy="0" r="3.5"/>
                <g id="zoomPlus">
                        <use xlink:href="#rim" fill="#404040">
                                <set attributeName="fill" to="#808080" begin="zoomplus.mouseover" end="zoomplus.mouseout"/>
                        </use>
                        <path d="M-4,0h8M0,-4v8" fill="none" stroke="white" stroke-width="1.5" pointer-events="none"/>
                </g>
                <g id="zoomMin">
                        <use xlink:href="#rim" fill="#404040">
                                <set attributeName="fill" to="#808080" begin="zoomminus.mouseover" end="zoomminus.mouseout"/>
                        </use>
                        <path d="M-4,0h8" fill="none" stroke="white" stroke-width="1.5" pointer-events="none"/>
                </g>
                <g id="dirArrow">
                        <path fill="none" stroke="white" stroke-width="1.5" d="M0,-3.0v7 M-2.5,-0.5L0,-3.0L2.5,-0.5"/>
                </g>
               <g id="resetDef">
                       <use xlink:href="#rim2" fill="#404040">
                               <set attributeName="fill" to="#808080" begin="reset.mouseover" end="reset.mouseout"/>
                       </use>
               </g>
        </defs>

<script type="text/javascript">
var viewWidth = 569;
var viewHeight = 151;
var sectionId = 'dynsection-0';
</script>
<script xlink:href="svgpan.js"/>
<svg id="graph" class="graph">
<g id="viewport">
<title>NFCConsistentHash.hpp</title>
<polygon fill="white" stroke="none" points="-4,4 -4,-147 564.5,-147 564.5,4 -4,4"/>
<!-- Node0 -->
<g id="node1" class="node"><title>Node0</title>
<polygon fill="#bfbfbf" stroke="black" points="106.5,-123.5 106.5,-142.5 230.5,-142.5 230.5,-123.5 106.5,-123.5"/>
<text text-anchor="middle" x="168.5" y="-130.5" font-family="Helvetica,sans-Serif" font-size="10.00">NFCConsistentHash.hpp</text>
</g>
<!-- Node1 -->
<g id="node2" class="node"><title>Node1</title>
<polygon fill="white" stroke="#bfbfbf" points="0,-62 0,-81 35,-81 35,-62 0,-62"/>
<text text-anchor="middle" x="17.5" y="-69" font-family="Helvetica,sans-Serif" font-size="10.00">map</text>
</g>
<!-- Node0&#45;&gt;Node1 -->
<g id="edge1" class="edge"><title>Node0&#45;&gt;Node1</title>
<path fill="none" stroke="midnightblue" d="M144.617,-123.478C120.464,-114.741 82.1392,-100.55 49.5,-87 47.8734,-86.3247 46.2067,-85.6173 44.5295,-84.8936"/>
<polygon fill="midnightblue" stroke="midnightblue" points="45.5777,-81.53 35.0169,-80.6808 42.7431,-87.9304 45.5777,-81.53"/>
</g>
<!-- Node2 -->
<g id="node3" class="node"><title>Node2</title>
<polygon fill="white" stroke="#bfbfbf" points="125,-0.5 125,-19.5 166,-19.5 166,-0.5 125,-0.5"/>
<text text-anchor="middle" x="145.5" y="-7.5" font-family="Helvetica,sans-Serif" font-size="10.00">string</text>
</g>
<!-- Node0&#45;&gt;Node2 -->
<g id="edge2" class="edge"><title>Node0&#45;&gt;Node2</title>
<path fill="none" stroke="midnightblue" d="M134.316,-123.493C115.507,-116.877 93.7574,-105.596 82.5,-87 75.3649,-75.2137 76.1955,-68.2508 82.5,-56 89.6268,-42.1513 103.209,-31.6199 115.943,-24.24"/>
<polygon fill="midnightblue" stroke="midnightblue" points="117.791,-27.221 124.961,-19.4209 114.492,-21.0472 117.791,-27.221"/>
</g>
<!-- Node3 -->
<g id="node4" class="node"><title>Node3</title>
<polygon fill="white" stroke="#bfbfbf" points="92,-62 92,-81 121,-81 121,-62 92,-62"/>
<text text-anchor="middle" x="106.5" y="-69" font-family="Helvetica,sans-Serif" font-size="10.00">list</text>
</g>
<!-- Node0&#45;&gt;Node3 -->
<g id="edge3" class="edge"><title>Node0&#45;&gt;Node3</title>
<path fill="none" stroke="midnightblue" d="M159.617,-123.475C150.041,-114.285 134.589,-99.4563 122.814,-88.156"/>
<polygon fill="midnightblue" stroke="midnightblue" points="125.005,-85.408 115.367,-81.0091 120.158,-90.4585 125.005,-85.408"/>
</g>
<!-- Node4 -->
<g id="node5" class="node"><title>Node4</title>
<polygon fill="white" stroke="#bfbfbf" points="139.5,-62 139.5,-81 197.5,-81 197.5,-62 139.5,-62"/>
<text text-anchor="middle" x="168.5" y="-69" font-family="Helvetica,sans-Serif" font-size="10.00">functional</text>
</g>
<!-- Node0&#45;&gt;Node4 -->
<g id="edge4" class="edge"><title>Node0&#45;&gt;Node4</title>
<path fill="none" stroke="midnightblue" d="M168.5,-123.475C168.5,-115.08 168.5,-101.981 168.5,-91.1631"/>
<polygon fill="midnightblue" stroke="midnightblue" points="172,-91.0091 168.5,-81.0091 165,-91.0091 172,-91.0091"/>
</g>
<!-- Node5 -->
<g id="node6" class="node"><title>Node5</title>
<polygon fill="white" stroke="#bfbfbf" points="215.5,-62 215.5,-81 271.5,-81 271.5,-62 215.5,-62"/>
<text text-anchor="middle" x="243.5" y="-69" font-family="Helvetica,sans-Serif" font-size="10.00">algorithm</text>
</g>
<!-- Node0&#45;&gt;Node5 -->
<g id="edge5" class="edge"><title>Node0&#45;&gt;Node5</title>
<path fill="none" stroke="midnightblue" d="M179.246,-123.475C191.053,-114.108 210.243,-98.8839 224.582,-87.5081"/>
<polygon fill="midnightblue" stroke="midnightblue" points="227.115,-89.9661 232.774,-81.0091 222.765,-84.4822 227.115,-89.9661"/>
</g>
<!-- Node6 -->
<g id="node7" class="node"><title>Node6</title>
<g id="a_node7"><a xlink:href="_n_f_platform_8h.html" target="_top" xlink:title="NFComm/NFPluginModule\l/NFPlatform.h">
<polygon fill="white" stroke="black" points="289.5,-56.5 289.5,-86.5 421.5,-86.5 421.5,-56.5 289.5,-56.5"/>
<text text-anchor="start" x="297.5" y="-74.5" font-family="Helvetica,sans-Serif" font-size="10.00">NFComm/NFPluginModule</text>
<text text-anchor="middle" x="355.5" y="-63.5" font-family="Helvetica,sans-Serif" font-size="10.00">/NFPlatform.h</text>
</a>
</g>
</g>
<!-- Node0&#45;&gt;Node6 -->
<g id="edge6" class="edge"><title>Node0&#45;&gt;Node6</title>
<path fill="none" stroke="midnightblue" d="M195.293,-123.475C222.986,-114.664 266.971,-100.668 301.852,-89.5698"/>
<polygon fill="midnightblue" stroke="midnightblue" points="302.96,-92.8903 311.428,-86.523 300.837,-86.2198 302.96,-92.8903"/>
</g>
<!-- Node11 -->
<g id="node12" class="node"><title>Node11</title>
<polygon fill="white" stroke="#bfbfbf" points="439.5,-62 439.5,-81 539.5,-81 539.5,-62 439.5,-62"/>
<text text-anchor="middle" x="489.5" y="-69" font-family="Helvetica,sans-Serif" font-size="10.00">common/crc32.hpp</text>
</g>
<!-- Node0&#45;&gt;Node11 -->
<g id="edge12" class="edge"><title>Node0&#45;&gt;Node11</title>
<path fill="none" stroke="midnightblue" d="M224.937,-123.492C278.146,-115.19 360.018,-101.694 430.5,-87 435.66,-85.9243 441.053,-84.7161 446.392,-83.468"/>
<polygon fill="midnightblue" stroke="midnightblue" points="447.607,-86.7761 456.517,-81.0434 445.977,-79.9686 447.607,-86.7761"/>
</g>
<!-- Node6&#45;&gt;Node2 -->
<g id="edge11" class="edge"><title>Node6&#45;&gt;Node2</title>
<path fill="none" stroke="midnightblue" d="M305.999,-56.4747C265.668,-45.0477 210.008,-29.2774 175.953,-19.6284"/>
<polygon fill="midnightblue" stroke="midnightblue" points="176.694,-16.2007 166.119,-16.842 174.786,-22.9356 176.694,-16.2007"/>
</g>
<!-- Node7 -->
<g id="node8" class="node"><title>Node7</title>
<polygon fill="white" stroke="#bfbfbf" points="233,-0.5 233,-19.5 282,-19.5 282,-0.5 233,-0.5"/>
<text text-anchor="middle" x="257.5" y="-7.5" font-family="Helvetica,sans-Serif" font-size="10.00">stdint.h</text>
</g>
<!-- Node6&#45;&gt;Node7 -->
<g id="edge7" class="edge"><title>Node6&#45;&gt;Node7</title>
<path fill="none" stroke="midnightblue" d="M332.275,-56.3993C316.714,-46.9511 296.303,-34.5589 280.738,-25.1089"/>
<polygon fill="midnightblue" stroke="midnightblue" points="282.124,-21.8558 271.76,-19.6578 278.491,-27.8394 282.124,-21.8558"/>
</g>
<!-- Node8 -->
<g id="node9" class="node"><title>Node8</title>
<polygon fill="white" stroke="#bfbfbf" points="300.5,-0.5 300.5,-19.5 344.5,-19.5 344.5,-0.5 300.5,-0.5"/>
<text text-anchor="middle" x="322.5" y="-7.5" font-family="Helvetica,sans-Serif" font-size="10.00">time.h</text>
</g>
<!-- Node6&#45;&gt;Node8 -->
<g id="edge8" class="edge"><title>Node6&#45;&gt;Node8</title>
<path fill="none" stroke="midnightblue" d="M347.679,-56.3993C343.032,-48.0207 337.101,-37.3269 332.163,-28.4229"/>
<polygon fill="midnightblue" stroke="midnightblue" points="335.213,-26.7052 327.302,-19.6578 329.091,-30.1004 335.213,-26.7052"/>
</g>
<!-- Node9 -->
<g id="node10" class="node"><title>Node9</title>
<polygon fill="white" stroke="#bfbfbf" points="362.5,-0.5 362.5,-19.5 414.5,-19.5 414.5,-0.5 362.5,-0.5"/>
<text text-anchor="middle" x="388.5" y="-7.5" font-family="Helvetica,sans-Serif" font-size="10.00">sstream</text>
</g>
<!-- Node6&#45;&gt;Node9 -->
<g id="edge9" class="edge"><title>Node6&#45;&gt;Node9</title>
<path fill="none" stroke="midnightblue" d="M363.321,-56.3993C367.968,-48.0207 373.899,-37.3269 378.837,-28.4229"/>
<polygon fill="midnightblue" stroke="midnightblue" points="381.909,-30.1004 383.698,-19.6578 375.787,-26.7052 381.909,-30.1004"/>
</g>
<!-- Node10 -->
<g id="node11" class="node"><title>Node10</title>
<polygon fill="white" stroke="#bfbfbf" points="432.5,-0.5 432.5,-19.5 560.5,-19.5 560.5,-0.5 432.5,-0.5"/>
<text text-anchor="middle" x="496.5" y="-7.5" font-family="Helvetica,sans-Serif" font-size="10.00">common/lexical_cast.hpp</text>
</g>
<!-- Node6&#45;&gt;Node10 -->
<g id="edge10" class="edge"><title>Node6&#45;&gt;Node10</title>
<path fill="none" stroke="midnightblue" d="M388.915,-56.3993C412.467,-46.4608 443.738,-33.2649 466.493,-23.6625"/>
<polygon fill="midnightblue" stroke="midnightblue" points="468.131,-26.7704 475.983,-19.6578 465.409,-20.3211 468.131,-26.7704"/>
</g>
</g>
</svg>
        <g id="navigator" transform="translate(0 0)" fill="#404254">
                <rect fill="#f2f5e9" fill-opacity="0.5" stroke="#606060" stroke-width=".5" x="0" y="0" width="60" height="60"/>
                <use id="zoomplus" xlink:href="#zoomPlus" x="17" y="9" onmousedown="handleZoom(evt,'in')"/>
                <use id="zoomminus" xlink:href="#zoomMin" x="42" y="9" onmousedown="handleZoom(evt,'out')"/>
                <use id="reset" xlink:href="#resetDef" x="30" y="36" onmousedown="handleReset()"/>
                <g id="arrowUp" xlink:href="#dirArrow" transform="translate(30 24)" onmousedown="handlePan(0,-1)">
                  <use xlink:href="#rim" fill="#404040">
                        <set attributeName="fill" to="#808080" begin="arrowUp.mouseover" end="arrowUp.mouseout"/>
                  </use>
                  <path fill="none" stroke="white" stroke-width="1.5" d="M0,-3.0v7 M-2.5,-0.5L0,-3.0L2.5,-0.5"/>
                </g>
                <g id="arrowRight" xlink:href="#dirArrow" transform="rotate(90) translate(36 -43)" onmousedown="handlePan(1,0)">
                  <use xlink:href="#rim" fill="#404040">
                        <set attributeName="fill" to="#808080" begin="arrowRight.mouseover" end="arrowRight.mouseout"/>
                  </use>
                  <path fill="none" stroke="white" stroke-width="1.5" d="M0,-3.0v7 M-2.5,-0.5L0,-3.0L2.5,-0.5"/>
                </g>
                <g id="arrowDown" xlink:href="#dirArrow" transform="rotate(180) translate(-30 -48)" onmousedown="handlePan(0,1)">
                  <use xlink:href="#rim" fill="#404040">
                        <set attributeName="fill" to="#808080" begin="arrowDown.mouseover" end="arrowDown.mouseout"/>
                  </use>
                  <path fill="none" stroke="white" stroke-width="1.5" d="M0,-3.0v7 M-2.5,-0.5L0,-3.0L2.5,-0.5"/>
                </g>
                <g id="arrowLeft" xlink:href="#dirArrow" transform="rotate(270) translate(-36 17)" onmousedown="handlePan(-1,0)">
                  <use xlink:href="#rim" fill="#404040">
                        <set attributeName="fill" to="#808080" begin="arrowLeft.mouseover" end="arrowLeft.mouseout"/>
                  </use>
                  <path fill="none" stroke="white" stroke-width="1.5" d="M0,-3.0v7 M-2.5,-0.5L0,-3.0L2.5,-0.5"/>
                </g>
        </g>
        <svg viewBox="0 0 15 15" width="100%" height="30px" preserveAspectRatio="xMaxYMin meet">
         <g id="arrow_out" transform="scale(0.3 0.3)">
          <a xlink:href="_n_f_c_consistent_hash_8hpp__incl_org.svg" target="_base">
           <rect id="button" ry="5" rx="5" y="6" x="6" height="38" width="38"
                fill="#f2f5e9" fill-opacity="0.5" stroke="#606060" stroke-width="1.0"/>
           <path id="arrow"
             d="M 11.500037,31.436501 C 11.940474,20.09759 22.043105,11.32322 32.158766,21.979434 L 37.068811,17.246167 C 37.068811,17.246167 37.088388,32 37.088388,32 L 22.160133,31.978069 C 22.160133,31.978069 26.997745,27.140456 26.997745,27.140456 C 18.528582,18.264221 13.291696,25.230495 11.500037,31.436501 z"
             style="fill:#404040;"/>
          </a>
         </g>
        </svg>
</svg>
