<?xml version="1.0" encoding="UTF-8" standalone="no"?>
<!DOCTYPE svg PUBLIC "-//W3C//DTD SVG 1.1//EN"
 "http://www.w3.org/Graphics/SVG/1.1/DTD/svg11.dtd">
<!-- Generated by graphviz version 2.38.0 (20140413.2041)
 -->
<!-- Title: NFIPlugin.h Pages: 1 -->
<!--zoomable 140 -->
<svg id="main" version="1.1" xmlns="http://www.w3.org/2000/svg" xmlns:xlink="http://www.w3.org/1999/xlink" xml:space="preserve" onload="init(evt)">
<style type="text/css"><![CDATA[
.edge:hover path { stroke: red; }
.edge:hover polygon { stroke: red; fill: red; }
]]></style>
<script type="text/javascript"><![CDATA[
var edges = document.getElementsByTagName('g');
if (edges && edges.length) {
  for (var i=0;i<edges.length;i++) {
    if (edges[i].id.substr(0,4)=='edge') {
      edges[i].setAttribute('class','edge');
    }
  }
}
]]></script>
        <defs>
                <circle id="rim" cx="0" cy="0" r="7"/>
                <circle id="rim2" cx="0" cy="0" r="3.5"/>
                <g id="zoomPlus">
                        <use xlink:href="#rim" fill="#404040">
                                <set attributeName="fill" to="#808080" begin="zoomplus.mouseover" end="zoomplus.mouseout"/>
                        </use>
                        <path d="M-4,0h8M0,-4v8" fill="none" stroke="white" stroke-width="1.5" pointer-events="none"/>
                </g>
                <g id="zoomMin">
                        <use xlink:href="#rim" fill="#404040">
                                <set attributeName="fill" to="#808080" begin="zoomminus.mouseover" end="zoomminus.mouseout"/>
                        </use>
                        <path d="M-4,0h8" fill="none" stroke="white" stroke-width="1.5" pointer-events="none"/>
                </g>
                <g id="dirArrow">
                        <path fill="none" stroke="white" stroke-width="1.5" d="M0,-3.0v7 M-2.5,-0.5L0,-3.0L2.5,-0.5"/>
                </g>
               <g id="resetDef">
                       <use xlink:href="#rim2" fill="#404040">
                               <set attributeName="fill" to="#808080" begin="reset.mouseover" end="reset.mouseout"/>
                       </use>
               </g>
        </defs>

<script type="text/javascript">
var viewWidth = 3755;
var viewHeight = 140;
var sectionId = 'dynsection-1';
</script>
<script xlink:href="svgpan.js"/>
<svg id="graph" class="graph">
<g id="viewport">
<title>NFIPlugin.h</title>
<polygon fill="white" stroke="none" points="-4,4 -4,-136 3750.5,-136 3750.5,4 -4,4"/>
<!-- Node34 -->
<g id="node1" class="node"><title>Node34</title>
<polygon fill="#bfbfbf" stroke="black" points="1788.5,-112.5 1788.5,-131.5 1855.5,-131.5 1855.5,-112.5 1788.5,-112.5"/>
<text text-anchor="middle" x="1822" y="-119.5" font-family="Helvetica,sans-Serif" font-size="10.00">NFIPlugin.h</text>
</g>
<!-- Node35 -->
<g id="node2" class="node"><title>Node35</title>
<g id="a_node2"><a xlink:href="_hello_world1_8h.html" target="_top" xlink:title="HelloWorld1.h">
<polygon fill="white" stroke="black" points="103.5,-56.5 103.5,-75.5 180.5,-75.5 180.5,-56.5 103.5,-56.5"/>
<text text-anchor="middle" x="142" y="-63.5" font-family="Helvetica,sans-Serif" font-size="10.00">HelloWorld1.h</text>
</a>
</g>
</g>
<!-- Node34&#45;&gt;Node35 -->
<g id="edge1" class="edge"><title>Node34&#45;&gt;Node35</title>
<path fill="none" stroke="midnightblue" d="M1778.07,-120.532C1552.13,-118.012 519.138,-105.071 200,-76 193.708,-75.4269 187.062,-74.6035 180.602,-73.6846"/>
<polygon fill="midnightblue" stroke="midnightblue" points="1778.18,-124.034 1788.22,-120.644 1778.26,-117.034 1778.18,-124.034"/>
</g>
<!-- Node38 -->
<g id="node5" class="node"><title>Node38</title>
<g id="a_node5"><a xlink:href="_tutorial1_8h.html" target="_top" xlink:title="Tutorial1.h">
<polygon fill="white" stroke="black" points="209,-56.5 209,-75.5 271,-75.5 271,-56.5 209,-56.5"/>
<text text-anchor="middle" x="240" y="-63.5" font-family="Helvetica,sans-Serif" font-size="10.00">Tutorial1.h</text>
</a>
</g>
</g>
<!-- Node34&#45;&gt;Node38 -->
<g id="edge4" class="edge"><title>Node34&#45;&gt;Node38</title>
<path fill="none" stroke="midnightblue" d="M1778.07,-120.593C1559.74,-118.434 589.939,-107.224 290,-76 283.859,-75.3607 277.338,-74.3981 271.104,-73.3368"/>
<polygon fill="midnightblue" stroke="midnightblue" points="1778.15,-124.094 1788.19,-120.692 1778.22,-117.094 1778.15,-124.094"/>
</g>
<!-- Node39 -->
<g id="node6" class="node"><title>Node39</title>
<g id="a_node6"><a xlink:href="_hello_world2_8h.html" target="_top" xlink:title="HelloWorld2.h">
<polygon fill="white" stroke="black" points="299.5,-56.5 299.5,-75.5 376.5,-75.5 376.5,-56.5 299.5,-56.5"/>
<text text-anchor="middle" x="338" y="-63.5" font-family="Helvetica,sans-Serif" font-size="10.00">HelloWorld2.h</text>
</a>
</g>
</g>
<!-- Node34&#45;&gt;Node39 -->
<g id="edge6" class="edge"><title>Node34&#45;&gt;Node39</title>
<path fill="none" stroke="midnightblue" d="M1778.32,-120.522C1606.95,-118.446 964.092,-108.793 436,-76 416.389,-74.7822 394.622,-72.8424 376.592,-71.0749"/>
<polygon fill="midnightblue" stroke="midnightblue" points="1778.41,-124.023 1788.45,-120.642 1778.5,-117.024 1778.41,-124.023"/>
</g>
<!-- Node42 -->
<g id="node9" class="node"><title>Node42</title>
<g id="a_node9"><a xlink:href="_tutorial2_8h.html" target="_top" xlink:title="Tutorial2.h">
<polygon fill="white" stroke="black" points="445,-56.5 445,-75.5 507,-75.5 507,-56.5 445,-56.5"/>
<text text-anchor="middle" x="476" y="-63.5" font-family="Helvetica,sans-Serif" font-size="10.00">Tutorial2.h</text>
</a>
</g>
</g>
<!-- Node34&#45;&gt;Node42 -->
<g id="edge9" class="edge"><title>Node34&#45;&gt;Node42</title>
<path fill="none" stroke="midnightblue" d="M1778.16,-121.051C1614.72,-120.904 1025.44,-117.355 542,-76 530.593,-75.0242 518.138,-73.4572 507.152,-71.9021"/>
<polygon fill="midnightblue" stroke="midnightblue" points="1778.3,-124.551 1788.3,-121.056 1778.31,-117.551 1778.3,-124.551"/>
</g>
<!-- Node43 -->
<g id="node10" class="node"><title>Node43</title>
<g id="a_node10"><a xlink:href="_tutorial3_plugin_8h.html" target="_top" xlink:title="Tutorial3Plugin.h">
<polygon fill="white" stroke="black" points="551.5,-56.5 551.5,-75.5 640.5,-75.5 640.5,-56.5 551.5,-56.5"/>
<text text-anchor="middle" x="596" y="-63.5" font-family="Helvetica,sans-Serif" font-size="10.00">Tutorial3Plugin.h</text>
</a>
</g>
</g>
<!-- Node34&#45;&gt;Node43 -->
<g id="edge11" class="edge"><title>Node34&#45;&gt;Node43</title>
<path fill="none" stroke="midnightblue" d="M1777.84,-119.407C1631.47,-114.069 1148.84,-96.0244 750,-76 713.221,-74.1535 671.524,-71.6942 640.802,-69.813"/>
<polygon fill="midnightblue" stroke="midnightblue" points="1778.07,-122.917 1788.2,-119.783 1778.33,-115.922 1778.07,-122.917"/>
</g>
<!-- Node45 -->
<g id="node12" class="node"><title>Node45</title>
<g id="a_node12"><a xlink:href="_n_f_config_plugin_8h.html" target="_top" xlink:title="NFConfigPlugin.h">
<polygon fill="white" stroke="black" points="759,-56.5 759,-75.5 851,-75.5 851,-56.5 759,-56.5"/>
<text text-anchor="middle" x="805" y="-63.5" font-family="Helvetica,sans-Serif" font-size="10.00">NFConfigPlugin.h</text>
</a>
</g>
</g>
<!-- Node34&#45;&gt;Node45 -->
<g id="edge13" class="edge"><title>Node34&#45;&gt;Node45</title>
<path fill="none" stroke="midnightblue" d="M1777.93,-119.546C1645.25,-115.017 1237.98,-100.017 901,-76 884.804,-74.8457 867.098,-73.274 851.353,-71.767"/>
<polygon fill="midnightblue" stroke="midnightblue" points="1777.98,-123.049 1788.1,-119.89 1778.22,-116.053 1777.98,-123.049"/>
</g>
<!-- Node49 -->
<g id="node16" class="node"><title>Node49</title>
<g id="a_node16"><a xlink:href="_n_f_kernel_plugin_8h.html" target="_top" xlink:title="NFKernelPlugin.h">
<polygon fill="white" stroke="black" points="910,-56.5 910,-75.5 1002,-75.5 1002,-56.5 910,-56.5"/>
<text text-anchor="middle" x="956" y="-63.5" font-family="Helvetica,sans-Serif" font-size="10.00">NFKernelPlugin.h</text>
</a>
</g>
</g>
<!-- Node34&#45;&gt;Node49 -->
<g id="edge17" class="edge"><title>Node34&#45;&gt;Node49</title>
<path fill="none" stroke="midnightblue" d="M1778.37,-118.913C1661.33,-113.211 1330.68,-96.4237 1056,-76 1038.36,-74.6881 1018.98,-73.0017 1002.03,-71.444"/>
<polygon fill="midnightblue" stroke="midnightblue" points="1778.22,-122.409 1788.38,-119.399 1778.56,-115.418 1778.22,-122.409"/>
</g>
<!-- Node51 -->
<g id="node18" class="node"><title>Node51</title>
<g id="a_node18"><a xlink:href="_n_f_log_plugin_8h.html" target="_top" xlink:title="NFLogPlugin.h">
<polygon fill="white" stroke="black" points="1065,-56.5 1065,-75.5 1145,-75.5 1145,-56.5 1065,-56.5"/>
<text text-anchor="middle" x="1105" y="-63.5" font-family="Helvetica,sans-Serif" font-size="10.00">NFLogPlugin.h</text>
</a>
</g>
</g>
<!-- Node34&#45;&gt;Node51 -->
<g id="edge19" class="edge"><title>Node34&#45;&gt;Node51</title>
<path fill="none" stroke="midnightblue" d="M1778.06,-117.69C1648.5,-107.933 1269.39,-79.3809 1145.03,-70.0145"/>
<polygon fill="midnightblue" stroke="midnightblue" points="1778.14,-121.207 1788.38,-118.468 1778.67,-114.227 1778.14,-121.207"/>
</g>
<!-- Node53 -->
<g id="node20" class="node"><title>Node53</title>
<g id="a_node20"><a xlink:href="_n_f_c_plugin_manager_8cpp.html" target="_top" xlink:title="NFCPluginManager.cpp">
<polygon fill="white" stroke="black" points="1244.5,-56.5 1244.5,-75.5 1363.5,-75.5 1363.5,-56.5 1244.5,-56.5"/>
<text text-anchor="middle" x="1304" y="-63.5" font-family="Helvetica,sans-Serif" font-size="10.00">NFCPluginManager.cpp</text>
</a>
</g>
</g>
<!-- Node34&#45;&gt;Node53 -->
<g id="edge21" class="edge"><title>Node34&#45;&gt;Node53</title>
<path fill="none" stroke="midnightblue" d="M1778.12,-117.08C1697.56,-109.781 1520.72,-93.2731 1372,-76 1369.28,-75.684 1366.5,-75.3521 1363.69,-75.0098"/>
<polygon fill="midnightblue" stroke="midnightblue" points="1778.1,-120.593 1788.37,-118.007 1778.73,-113.621 1778.1,-120.593"/>
</g>
<!-- Node54 -->
<g id="node21" class="node"><title>Node54</title>
<g id="a_node21"><a xlink:href="_n_f_game_server_net___client_plugin_8h.html" target="_top" xlink:title="NFGameServerNet_ClientPlugin.h">
<polygon fill="white" stroke="black" points="1381.5,-56.5 1381.5,-75.5 1544.5,-75.5 1544.5,-56.5 1381.5,-56.5"/>
<text text-anchor="middle" x="1463" y="-63.5" font-family="Helvetica,sans-Serif" font-size="10.00">NFGameServerNet_ClientPlugin.h</text>
</a>
</g>
</g>
<!-- Node34&#45;&gt;Node54 -->
<g id="edge22" class="edge"><title>Node34&#45;&gt;Node54</title>
<path fill="none" stroke="midnightblue" d="M1778.32,-114.429C1713.42,-104.668 1591.52,-86.3324 1519.79,-75.5418"/>
<polygon fill="midnightblue" stroke="midnightblue" points="1777.82,-117.893 1788.23,-115.92 1778.86,-110.971 1777.82,-117.893"/>
</g>
<!-- Node57 -->
<g id="node24" class="node"><title>Node57</title>
<g id="a_node24"><a xlink:href="_n_f_game_server_net___server_plugin_8h.html" target="_top" xlink:title="NFGameServerNet_ServerPlugin.h">
<polygon fill="white" stroke="black" points="1571.5,-56.5 1571.5,-75.5 1736.5,-75.5 1736.5,-56.5 1571.5,-56.5"/>
<text text-anchor="middle" x="1654" y="-63.5" font-family="Helvetica,sans-Serif" font-size="10.00">NFGameServerNet_ServerPlugin.h</text>
</a>
</g>
</g>
<!-- Node34&#45;&gt;Node57 -->
<g id="edge25" class="edge"><title>Node34&#45;&gt;Node57</title>
<path fill="none" stroke="midnightblue" d="M1785.61,-109.304C1753.96,-99.1294 1708.83,-84.6246 1680.5,-75.5164"/>
<polygon fill="midnightblue" stroke="midnightblue" points="1784.79,-112.715 1795.38,-112.444 1786.93,-106.051 1784.79,-112.715"/>
</g>
<!-- Node59 -->
<g id="node26" class="node"><title>Node59</title>
<g id="a_node26"><a xlink:href="_n_f_game_server_plugin_8h.html" target="_top" xlink:title="NFGameServerPlugin.h">
<polygon fill="white" stroke="black" points="1763,-56.5 1763,-75.5 1881,-75.5 1881,-56.5 1763,-56.5"/>
<text text-anchor="middle" x="1822" y="-63.5" font-family="Helvetica,sans-Serif" font-size="10.00">NFGameServerPlugin.h</text>
</a>
</g>
</g>
<!-- Node34&#45;&gt;Node59 -->
<g id="edge27" class="edge"><title>Node34&#45;&gt;Node59</title>
<path fill="none" stroke="midnightblue" d="M1822,-101.805C1822,-92.9102 1822,-82.7798 1822,-75.7511"/>
<polygon fill="midnightblue" stroke="midnightblue" points="1818.5,-102.083 1822,-112.083 1825.5,-102.083 1818.5,-102.083"/>
</g>
<!-- Node62 -->
<g id="node29" class="node"><title>Node62</title>
<g id="a_node29"><a xlink:href="_n_f_login_logic_plugin_8h.html" target="_top" xlink:title="NFLoginLogicPlugin.h">
<polygon fill="white" stroke="black" points="1983.5,-56.5 1983.5,-75.5 2094.5,-75.5 2094.5,-56.5 1983.5,-56.5"/>
<text text-anchor="middle" x="2039" y="-63.5" font-family="Helvetica,sans-Serif" font-size="10.00">NFLoginLogicPlugin.h</text>
</a>
</g>
</g>
<!-- Node34&#45;&gt;Node62 -->
<g id="edge30" class="edge"><title>Node34&#45;&gt;Node62</title>
<path fill="none" stroke="midnightblue" d="M1865.61,-110.147C1906.55,-99.9588 1966.98,-84.922 2004.62,-75.5565"/>
<polygon fill="midnightblue" stroke="midnightblue" points="1864.77,-106.751 1855.91,-112.563 1866.46,-113.544 1864.77,-106.751"/>
</g>
<!-- Node65 -->
<g id="node32" class="node"><title>Node65</title>
<g id="a_node32"><a xlink:href="_n_f_login_net___client_plugin_8h.html" target="_top" xlink:title="NFLoginNet_ClientPlugin.h">
<polygon fill="white" stroke="black" points="2112.5,-56.5 2112.5,-75.5 2245.5,-75.5 2245.5,-56.5 2112.5,-56.5"/>
<text text-anchor="middle" x="2179" y="-63.5" font-family="Helvetica,sans-Serif" font-size="10.00">NFLoginNet_ClientPlugin.h</text>
</a>
</g>
</g>
<!-- Node34&#45;&gt;Node65 -->
<g id="edge33" class="edge"><title>Node34&#45;&gt;Node65</title>
<path fill="none" stroke="midnightblue" d="M1865.84,-114.369C1930.47,-104.593 2051.34,-86.3102 2122.53,-75.5418"/>
<polygon fill="midnightblue" stroke="midnightblue" points="1864.95,-110.964 1855.59,-115.92 1866,-117.885 1864.95,-110.964"/>
</g>
<!-- Node68 -->
<g id="node35" class="node"><title>Node68</title>
<g id="a_node35"><a xlink:href="_n_f_login_net___server_plugin_8h.html" target="_top" xlink:title="NFLoginNet_ServerPlugin.h">
<polygon fill="white" stroke="black" points="2263.5,-56.5 2263.5,-75.5 2398.5,-75.5 2398.5,-56.5 2263.5,-56.5"/>
<text text-anchor="middle" x="2331" y="-63.5" font-family="Helvetica,sans-Serif" font-size="10.00">NFLoginNet_ServerPlugin.h</text>
</a>
</g>
</g>
<!-- Node34&#45;&gt;Node68 -->
<g id="edge36" class="edge"><title>Node34&#45;&gt;Node68</title>
<path fill="none" stroke="midnightblue" d="M1866.04,-116.597C1944.2,-108.742 2112.27,-91.6645 2254,-76 2257.08,-75.6599 2260.22,-75.3083 2263.4,-74.95"/>
<polygon fill="midnightblue" stroke="midnightblue" points="1865.22,-113.161 1855.62,-117.643 1865.92,-120.126 1865.22,-113.161"/>
</g>
<!-- Node71 -->
<g id="node38" class="node"><title>Node71</title>
<g id="a_node38"><a xlink:href="_n_f_master_net___server_plugin_8h.html" target="_top" xlink:title="NFMasterNet_ServerPlugin.h">
<polygon fill="white" stroke="black" points="2417,-56.5 2417,-75.5 2559,-75.5 2559,-56.5 2417,-56.5"/>
<text text-anchor="middle" x="2488" y="-63.5" font-family="Helvetica,sans-Serif" font-size="10.00">NFMasterNet_ServerPlugin.h</text>
</a>
</g>
</g>
<!-- Node34&#45;&gt;Node71 -->
<g id="edge39" class="edge"><title>Node34&#45;&gt;Node71</title>
<path fill="none" stroke="midnightblue" d="M1865.72,-118.145C1963.05,-111.679 2204.94,-94.9917 2407,-76 2410.24,-75.6955 2413.55,-75.373 2416.9,-75.0383"/>
<polygon fill="midnightblue" stroke="midnightblue" points="1865.41,-114.658 1855.67,-118.811 1865.88,-121.643 1865.41,-114.658"/>
</g>
<!-- Node74 -->
<g id="node41" class="node"><title>Node74</title>
<g id="a_node41"><a xlink:href="_n_f_master_server_plugin_8h.html" target="_top" xlink:title="NFMasterServerPlugin.h">
<polygon fill="white" stroke="black" points="2577,-56.5 2577,-75.5 2699,-75.5 2699,-56.5 2577,-56.5"/>
<text text-anchor="middle" x="2638" y="-63.5" font-family="Helvetica,sans-Serif" font-size="10.00">NFMasterServerPlugin.h</text>
</a>
</g>
</g>
<!-- Node34&#45;&gt;Node74 -->
<g id="edge42" class="edge"><title>Node34&#45;&gt;Node74</title>
<path fill="none" stroke="midnightblue" d="M1865.69,-119.398C1980.79,-114.954 2301.81,-101.112 2568,-76 2570.93,-75.7238 2573.92,-75.4203 2576.94,-75.097"/>
<polygon fill="midnightblue" stroke="midnightblue" points="1865.38,-115.907 1855.52,-119.787 1865.65,-122.902 1865.38,-115.907"/>
</g>
<!-- Node77 -->
<g id="node44" class="node"><title>Node77</title>
<g id="a_node44"><a xlink:href="_n_f_c_proxy_logic_plugin_8h.html" target="_top" xlink:title="NFCProxyLogicPlugin.h">
<polygon fill="white" stroke="red" points="2717,-56.5 2717,-75.5 2837,-75.5 2837,-56.5 2717,-56.5"/>
<text text-anchor="middle" x="2777" y="-63.5" font-family="Helvetica,sans-Serif" font-size="10.00">NFCProxyLogicPlugin.h</text>
</a>
</g>
</g>
<!-- Node34&#45;&gt;Node77 -->
<g id="edge45" class="edge"><title>Node34&#45;&gt;Node77</title>
<path fill="none" stroke="midnightblue" d="M1866.16,-119.99C1995.69,-116.764 2385.73,-105.155 2708,-76 2710.89,-75.7388 2713.84,-75.4474 2716.82,-75.1339"/>
<polygon fill="midnightblue" stroke="midnightblue" points="1865.78,-116.499 1855.87,-120.243 1865.95,-123.497 1865.78,-116.499"/>
</g>
<!-- Node80 -->
<g id="node46" class="node"><title>Node80</title>
<g id="a_node46"><a xlink:href="_n_f_proxy_server_net___client_plugin_8h.html" target="_top" xlink:title="NFProxyServerNet_ClientPlugin.h">
<polygon fill="white" stroke="red" points="2855,-56.5 2855,-75.5 3017,-75.5 3017,-56.5 2855,-56.5"/>
<text text-anchor="middle" x="2936" y="-63.5" font-family="Helvetica,sans-Serif" font-size="10.00">NFProxyServerNet_ClientPlugin.h</text>
</a>
</g>
</g>
<!-- Node34&#45;&gt;Node80 -->
<g id="edge47" class="edge"><title>Node34&#45;&gt;Node80</title>
<path fill="none" stroke="midnightblue" d="M1865.66,-119.952C2007.3,-116.366 2466.78,-103.272 2846,-76 2848.82,-75.7972 2851.69,-75.5785 2854.58,-75.3471"/>
<polygon fill="midnightblue" stroke="midnightblue" points="1865.54,-116.454 1855.63,-120.204 1865.71,-123.452 1865.54,-116.454"/>
</g>
<!-- Node84 -->
<g id="node47" class="node"><title>Node84</title>
<g id="a_node47"><a xlink:href="_n_f_proxy_server_net___server_plugin_8h.html" target="_top" xlink:title="NFProxyServerNet_ServerPlugin.h">
<polygon fill="white" stroke="red" points="3035,-56.5 3035,-75.5 3199,-75.5 3199,-56.5 3035,-56.5"/>
<text text-anchor="middle" x="3117" y="-63.5" font-family="Helvetica,sans-Serif" font-size="10.00">NFProxyServerNet_ServerPlugin.h</text>
</a>
</g>
</g>
<!-- Node34&#45;&gt;Node84 -->
<g id="edge48" class="edge"><title>Node34&#45;&gt;Node84</title>
<path fill="none" stroke="midnightblue" d="M1865.76,-120.332C2022.85,-117.728 2573.11,-106.83 3026,-76 3028.85,-75.8059 3031.75,-75.5946 3034.68,-75.3695"/>
<polygon fill="midnightblue" stroke="midnightblue" points="1865.5,-116.836 1855.56,-120.498 1865.61,-123.835 1865.5,-116.836"/>
</g>
<!-- Node87 -->
<g id="node48" class="node"><title>Node87</title>
<g id="a_node48"><a xlink:href="_n_f_world_logic_plugin_8h.html" target="_top" xlink:title="NFWorldLogicPlugin.h">
<polygon fill="white" stroke="red" points="3217.5,-56.5 3217.5,-75.5 3330.5,-75.5 3330.5,-56.5 3217.5,-56.5"/>
<text text-anchor="middle" x="3274" y="-63.5" font-family="Helvetica,sans-Serif" font-size="10.00">NFWorldLogicPlugin.h</text>
</a>
</g>
</g>
<!-- Node34&#45;&gt;Node87 -->
<g id="edge49" class="edge"><title>Node34&#45;&gt;Node87</title>
<path fill="none" stroke="midnightblue" d="M1865.73,-121.218C2037.29,-121.728 2680.76,-120.389 3208,-76 3211,-75.7478 3214.06,-75.4539 3217.16,-75.1295"/>
<polygon fill="midnightblue" stroke="midnightblue" points="1865.6,-117.718 1855.58,-121.184 1865.57,-124.718 1865.6,-117.718"/>
</g>
<!-- Node90 -->
<g id="node49" class="node"><title>Node90</title>
<g id="a_node49"><a xlink:href="_n_f_world_net___client_plugin_8h.html" target="_top" xlink:title="NFWorldNet_ClientPlugin.h">
<polygon fill="white" stroke="red" points="3348.5,-56.5 3348.5,-75.5 3483.5,-75.5 3483.5,-56.5 3348.5,-56.5"/>
<text text-anchor="middle" x="3416" y="-63.5" font-family="Helvetica,sans-Serif" font-size="10.00">NFWorldNet_ClientPlugin.h</text>
</a>
</g>
</g>
<!-- Node34&#45;&gt;Node90 -->
<g id="edge50" class="edge"><title>Node34&#45;&gt;Node90</title>
<path fill="none" stroke="midnightblue" d="M1865.94,-121.113C2047.62,-121.284 2758,-119.002 3340,-76 3342.78,-75.7944 3345.62,-75.562 3348.48,-75.3085"/>
<polygon fill="midnightblue" stroke="midnightblue" points="1865.72,-117.613 1855.71,-121.101 1865.71,-124.613 1865.72,-117.613"/>
</g>
<!-- Node93 -->
<g id="node50" class="node"><title>Node93</title>
<g id="a_node50"><a xlink:href="_n_f_world_net___server_plugin_8h.html" target="_top" xlink:title="NFWorldNet_ServerPlugin.h">
<polygon fill="white" stroke="red" points="3501.5,-56.5 3501.5,-75.5 3638.5,-75.5 3638.5,-56.5 3501.5,-56.5"/>
<text text-anchor="middle" x="3570" y="-63.5" font-family="Helvetica,sans-Serif" font-size="10.00">NFWorldNet_ServerPlugin.h</text>
</a>
</g>
</g>
<!-- Node34&#45;&gt;Node93 -->
<g id="edge51" class="edge"><title>Node34&#45;&gt;Node93</title>
<path fill="none" stroke="midnightblue" d="M1865.88,-121.258C2058.38,-122.089 2847.4,-122.33 3493,-76 3495.68,-75.8073 3498.42,-75.5898 3501.18,-75.3526"/>
<polygon fill="midnightblue" stroke="midnightblue" points="1865.62,-117.757 1855.6,-121.211 1865.59,-124.757 1865.62,-117.757"/>
</g>
<!-- Node36 -->
<g id="node3" class="node"><title>Node36</title>
<g id="a_node3"><a xlink:href="_hello_world1_8cpp.html" target="_top" xlink:title="HelloWorld1.cpp">
<polygon fill="white" stroke="black" points="0,-0.5 0,-19.5 88,-19.5 88,-0.5 0,-0.5"/>
<text text-anchor="middle" x="44" y="-7.5" font-family="Helvetica,sans-Serif" font-size="10.00">HelloWorld1.cpp</text>
</a>
</g>
</g>
<!-- Node35&#45;&gt;Node36 -->
<g id="edge2" class="edge"><title>Node35&#45;&gt;Node36</title>
<path fill="none" stroke="midnightblue" d="M117.414,-51.4526C99.3219,-41.4835 75.2654,-28.2279 59.7063,-19.6545"/>
<polygon fill="midnightblue" stroke="midnightblue" points="115.807,-54.5633 126.255,-56.324 119.185,-48.4324 115.807,-54.5633"/>
</g>
<!-- Node37 -->
<g id="node4" class="node"><title>Node37</title>
<g id="a_node4"><a xlink:href="_tutorial1_8cpp.html" target="_top" xlink:title="Tutorial1.cpp">
<polygon fill="white" stroke="black" points="106,-0.5 106,-19.5 178,-19.5 178,-0.5 106,-0.5"/>
<text text-anchor="middle" x="142" y="-7.5" font-family="Helvetica,sans-Serif" font-size="10.00">Tutorial1.cpp</text>
</a>
</g>
</g>
<!-- Node35&#45;&gt;Node37 -->
<g id="edge3" class="edge"><title>Node35&#45;&gt;Node37</title>
<path fill="none" stroke="midnightblue" d="M142,-45.8045C142,-36.9102 142,-26.7798 142,-19.7511"/>
<polygon fill="midnightblue" stroke="midnightblue" points="138.5,-46.083 142,-56.083 145.5,-46.083 138.5,-46.083"/>
</g>
<!-- Node38&#45;&gt;Node37 -->
<g id="edge5" class="edge"><title>Node38&#45;&gt;Node37</title>
<path fill="none" stroke="midnightblue" d="M215.414,-51.4526C197.322,-41.4835 173.265,-28.2279 157.706,-19.6545"/>
<polygon fill="midnightblue" stroke="midnightblue" points="213.807,-54.5633 224.255,-56.324 217.185,-48.4324 213.807,-54.5633"/>
</g>
<!-- Node40 -->
<g id="node7" class="node"><title>Node40</title>
<g id="a_node7"><a xlink:href="_hello_world2_8cpp.html" target="_top" xlink:title="HelloWorld2.cpp">
<polygon fill="white" stroke="black" points="196,-0.5 196,-19.5 284,-19.5 284,-0.5 196,-0.5"/>
<text text-anchor="middle" x="240" y="-7.5" font-family="Helvetica,sans-Serif" font-size="10.00">HelloWorld2.cpp</text>
</a>
</g>
</g>
<!-- Node39&#45;&gt;Node40 -->
<g id="edge7" class="edge"><title>Node39&#45;&gt;Node40</title>
<path fill="none" stroke="midnightblue" d="M313.414,-51.4526C295.322,-41.4835 271.265,-28.2279 255.706,-19.6545"/>
<polygon fill="midnightblue" stroke="midnightblue" points="311.807,-54.5633 322.255,-56.324 315.185,-48.4324 311.807,-54.5633"/>
</g>
<!-- Node41 -->
<g id="node8" class="node"><title>Node41</title>
<g id="a_node8"><a xlink:href="_tutorial2_8cpp.html" target="_top" xlink:title="Tutorial2.cpp">
<polygon fill="white" stroke="black" points="302,-0.5 302,-19.5 374,-19.5 374,-0.5 302,-0.5"/>
<text text-anchor="middle" x="338" y="-7.5" font-family="Helvetica,sans-Serif" font-size="10.00">Tutorial2.cpp</text>
</a>
</g>
</g>
<!-- Node39&#45;&gt;Node41 -->
<g id="edge8" class="edge"><title>Node39&#45;&gt;Node41</title>
<path fill="none" stroke="midnightblue" d="M338,-45.8045C338,-36.9102 338,-26.7798 338,-19.7511"/>
<polygon fill="midnightblue" stroke="midnightblue" points="334.5,-46.083 338,-56.083 341.5,-46.083 334.5,-46.083"/>
</g>
<!-- Node42&#45;&gt;Node41 -->
<g id="edge10" class="edge"><title>Node42&#45;&gt;Node41</title>
<path fill="none" stroke="midnightblue" d="M444.751,-52.772C418.829,-42.6287 382.638,-28.4669 359.764,-19.5164"/>
<polygon fill="midnightblue" stroke="midnightblue" points="443.546,-56.0588 454.133,-56.4435 446.096,-49.5401 443.546,-56.0588"/>
</g>
<!-- Node44 -->
<g id="node11" class="node"><title>Node44</title>
<g id="a_node11"><a xlink:href="_tutorial3_plugin_8cpp.html" target="_top" xlink:title="Tutorial3Plugin.cpp">
<polygon fill="white" stroke="black" points="392.5,-0.5 392.5,-19.5 491.5,-19.5 491.5,-0.5 392.5,-0.5"/>
<text text-anchor="middle" x="442" y="-7.5" font-family="Helvetica,sans-Serif" font-size="10.00">Tutorial3Plugin.cpp</text>
</a>
</g>
</g>
<!-- Node43&#45;&gt;Node44 -->
<g id="edge12" class="edge"><title>Node43&#45;&gt;Node44</title>
<path fill="none" stroke="midnightblue" d="M561.889,-53.0392C532.913,-42.8786 492.038,-28.5457 466.288,-19.5164"/>
<polygon fill="midnightblue" stroke="midnightblue" points="561.003,-56.4373 571.598,-56.4435 563.32,-49.8317 561.003,-56.4373"/>
</g>
<!-- Node46 -->
<g id="node13" class="node"><title>Node46</title>
<g id="a_node13"><a xlink:href="_n_f_c_class_module_8cpp.html" target="_top" xlink:title="NFCClassModule.cpp">
<polygon fill="white" stroke="black" points="509.5,-0.5 509.5,-19.5 620.5,-19.5 620.5,-0.5 509.5,-0.5"/>
<text text-anchor="middle" x="565" y="-7.5" font-family="Helvetica,sans-Serif" font-size="10.00">NFCClassModule.cpp</text>
</a>
</g>
</g>
<!-- Node45&#45;&gt;Node46 -->
<g id="edge14" class="edge"><title>Node45&#45;&gt;Node46</title>
<path fill="none" stroke="midnightblue" d="M757.077,-54.2172C711.726,-44.0134 644.558,-28.9006 602.851,-19.5164"/>
<polygon fill="midnightblue" stroke="midnightblue" points="756.447,-57.663 766.971,-56.4435 757.984,-50.8337 756.447,-57.663"/>
</g>
<!-- Node47 -->
<g id="node14" class="node"><title>Node47</title>
<g id="a_node14"><a xlink:href="_n_f_c_element_module_8cpp.html" target="_top" xlink:title="NFCElementModule.cpp">
<polygon fill="white" stroke="black" points="639,-0.5 639,-19.5 761,-19.5 761,-0.5 639,-0.5"/>
<text text-anchor="middle" x="700" y="-7.5" font-family="Helvetica,sans-Serif" font-size="10.00">NFCElementModule.cpp</text>
</a>
</g>
</g>
<!-- Node45&#45;&gt;Node47 -->
<g id="edge15" class="edge"><title>Node45&#45;&gt;Node47</title>
<path fill="none" stroke="midnightblue" d="M779.19,-51.7261C759.747,-41.7271 733.652,-28.3065 716.828,-19.6545"/>
<polygon fill="midnightblue" stroke="midnightblue" points="777.636,-54.8629 788.13,-56.324 780.838,-48.6379 777.636,-54.8629"/>
</g>
<!-- Node48 -->
<g id="node15" class="node"><title>Node48</title>
<g id="a_node15"><a xlink:href="_n_f_config_plugin_8cpp.html" target="_top" xlink:title="NFConfigPlugin.cpp">
<polygon fill="white" stroke="black" points="779,-0.5 779,-19.5 881,-19.5 881,-0.5 779,-0.5"/>
<text text-anchor="middle" x="830" y="-7.5" font-family="Helvetica,sans-Serif" font-size="10.00">NFConfigPlugin.cpp</text>
</a>
</g>
</g>
<!-- Node45&#45;&gt;Node48 -->
<g id="edge16" class="edge"><title>Node45&#45;&gt;Node48</title>
<path fill="none" stroke="midnightblue" d="M813.341,-46.9827C817.585,-37.8168 822.55,-27.0922 825.949,-19.7511"/>
<polygon fill="midnightblue" stroke="midnightblue" points="810.153,-45.5379 809.128,-56.083 816.506,-48.4788 810.153,-45.5379"/>
</g>
<!-- Node50 -->
<g id="node17" class="node"><title>Node50</title>
<g id="a_node17"><a xlink:href="_n_f_kernel_plugin_8cpp.html" target="_top" xlink:title="NFKernelPlugin.cpp">
<polygon fill="white" stroke="black" points="899.5,-0.5 899.5,-19.5 1002.5,-19.5 1002.5,-0.5 899.5,-0.5"/>
<text text-anchor="middle" x="951" y="-7.5" font-family="Helvetica,sans-Serif" font-size="10.00">NFKernelPlugin.cpp</text>
</a>
</g>
</g>
<!-- Node49&#45;&gt;Node50 -->
<g id="edge18" class="edge"><title>Node49&#45;&gt;Node50</title>
<path fill="none" stroke="midnightblue" d="M954.25,-46.1005C953.42,-37.1357 952.468,-26.8579 951.81,-19.7511"/>
<polygon fill="midnightblue" stroke="midnightblue" points="950.767,-46.4483 955.174,-56.083 957.737,-45.8029 950.767,-46.4483"/>
</g>
<!-- Node52 -->
<g id="node19" class="node"><title>Node52</title>
<g id="a_node19"><a xlink:href="_n_f_log_plugin_8cpp.html" target="_top" xlink:title="NFLogPlugin.cpp">
<polygon fill="white" stroke="black" points="1020.5,-0.5 1020.5,-19.5 1111.5,-19.5 1111.5,-0.5 1020.5,-0.5"/>
<text text-anchor="middle" x="1066" y="-7.5" font-family="Helvetica,sans-Serif" font-size="10.00">NFLogPlugin.cpp</text>
</a>
</g>
</g>
<!-- Node51&#45;&gt;Node52 -->
<g id="edge20" class="edge"><title>Node51&#45;&gt;Node52</title>
<path fill="none" stroke="midnightblue" d="M1092.62,-47.8554C1085.86,-38.5048 1077.79,-27.3265 1072.32,-19.7511"/>
<polygon fill="midnightblue" stroke="midnightblue" points="1089.87,-50.0254 1098.56,-56.083 1095.54,-45.927 1089.87,-50.0254"/>
</g>
<!-- Node55 -->
<g id="node22" class="node"><title>Node55</title>
<g id="a_node22"><a xlink:href="_n_f_c_game_server_to_world_module_8cpp.html" target="_top" xlink:title="NFCGameServerToWorldModule.cpp">
<polygon fill="white" stroke="black" points="1130,-0.5 1130,-19.5 1306,-19.5 1306,-0.5 1130,-0.5"/>
<text text-anchor="middle" x="1218" y="-7.5" font-family="Helvetica,sans-Serif" font-size="10.00">NFCGameServerToWorldModule.cpp</text>
</a>
</g>
</g>
<!-- Node54&#45;&gt;Node55 -->
<g id="edge23" class="edge"><title>Node54&#45;&gt;Node55</title>
<path fill="none" stroke="midnightblue" d="M1414.37,-54.2815C1368.07,-44.0769 1299.31,-28.9203 1256.64,-19.5164"/>
<polygon fill="midnightblue" stroke="midnightblue" points="1413.66,-57.709 1424.18,-56.4435 1415.17,-50.8731 1413.66,-57.709"/>
</g>
<!-- Node56 -->
<g id="node23" class="node"><title>Node56</title>
<g id="a_node23"><a xlink:href="_n_f_game_server_net___client_plugin_8cpp.html" target="_top" xlink:title="NFGameServerNet_ClientPlugin.cpp">
<polygon fill="white" stroke="black" points="1324.5,-0.5 1324.5,-19.5 1497.5,-19.5 1497.5,-0.5 1324.5,-0.5"/>
<text text-anchor="middle" x="1411" y="-7.5" font-family="Helvetica,sans-Serif" font-size="10.00">NFGameServerNet_ClientPlugin.cpp</text>
</a>
</g>
</g>
<!-- Node54&#45;&gt;Node56 -->
<g id="edge24" class="edge"><title>Node54&#45;&gt;Node56</title>
<path fill="none" stroke="midnightblue" d="M1447.32,-48.7175C1438.16,-39.1997 1426.95,-27.5608 1419.43,-19.7511"/>
<polygon fill="midnightblue" stroke="midnightblue" points="1444.96,-51.3075 1454.41,-56.083 1450,-46.452 1444.96,-51.3075"/>
</g>
<!-- Node58 -->
<g id="node25" class="node"><title>Node58</title>
<g id="a_node25"><a xlink:href="_n_f_game_server_net___server_plugin_8cpp.html" target="_top" xlink:title="NFGameServerNet_ServerPlugin.cpp">
<polygon fill="white" stroke="black" points="1516,-0.5 1516,-19.5 1692,-19.5 1692,-0.5 1516,-0.5"/>
<text text-anchor="middle" x="1604" y="-7.5" font-family="Helvetica,sans-Serif" font-size="10.00">NFGameServerNet_ServerPlugin.cpp</text>
</a>
</g>
</g>
<!-- Node57&#45;&gt;Node58 -->
<g id="edge26" class="edge"><title>Node57&#45;&gt;Node58</title>
<path fill="none" stroke="midnightblue" d="M1638.92,-48.7175C1630.11,-39.1997 1619.33,-27.5608 1612.1,-19.7511"/>
<polygon fill="midnightblue" stroke="midnightblue" points="1636.38,-51.1233 1645.74,-56.083 1641.52,-46.3674 1636.38,-51.1233"/>
</g>
<!-- Node60 -->
<g id="node27" class="node"><title>Node60</title>
<g id="a_node27"><a xlink:href="_n_f_c_game_server_module_8cpp.html" target="_top" xlink:title="NFCGameServerModule.cpp">
<polygon fill="white" stroke="black" points="1710,-0.5 1710,-19.5 1850,-19.5 1850,-0.5 1710,-0.5"/>
<text text-anchor="middle" x="1780" y="-7.5" font-family="Helvetica,sans-Serif" font-size="10.00">NFCGameServerModule.cpp</text>
</a>
</g>
</g>
<!-- Node59&#45;&gt;Node60 -->
<g id="edge28" class="edge"><title>Node59&#45;&gt;Node60</title>
<path fill="none" stroke="midnightblue" d="M1808.89,-48.144C1801.57,-38.7357 1792.76,-27.4046 1786.81,-19.7511"/>
<polygon fill="midnightblue" stroke="midnightblue" points="1806.16,-50.3383 1815.06,-56.083 1811.69,-46.0406 1806.16,-50.3383"/>
</g>
<!-- Node61 -->
<g id="node28" class="node"><title>Node61</title>
<g id="a_node28"><a xlink:href="_n_f_game_server_plugin_8cpp.html" target="_top" xlink:title="NFGameServerPlugin.cpp">
<polygon fill="white" stroke="black" points="1868,-0.5 1868,-19.5 1996,-19.5 1996,-0.5 1868,-0.5"/>
<text text-anchor="middle" x="1932" y="-7.5" font-family="Helvetica,sans-Serif" font-size="10.00">NFGameServerPlugin.cpp</text>
</a>
</g>
</g>
<!-- Node59&#45;&gt;Node61 -->
<g id="edge29" class="edge"><title>Node59&#45;&gt;Node61</title>
<path fill="none" stroke="midnightblue" d="M1848.76,-51.8622C1869.16,-41.8492 1896.67,-28.3458 1914.37,-19.6545"/>
<polygon fill="midnightblue" stroke="midnightblue" points="1847.11,-48.7753 1839.67,-56.324 1850.19,-55.059 1847.11,-48.7753"/>
</g>
<!-- Node63 -->
<g id="node30" class="node"><title>Node63</title>
<g id="a_node30"><a xlink:href="_n_f_c_login_logic_module_8cpp.html" target="_top" xlink:title="NFCLoginLogicModule.cpp">
<polygon fill="white" stroke="black" points="2014.5,-0.5 2014.5,-19.5 2147.5,-19.5 2147.5,-0.5 2014.5,-0.5"/>
<text text-anchor="middle" x="2081" y="-7.5" font-family="Helvetica,sans-Serif" font-size="10.00">NFCLoginLogicModule.cpp</text>
</a>
</g>
</g>
<!-- Node62&#45;&gt;Node63 -->
<g id="edge31" class="edge"><title>Node62&#45;&gt;Node63</title>
<path fill="none" stroke="midnightblue" d="M2052.11,-48.144C2059.43,-38.7357 2068.24,-27.4046 2074.19,-19.7511"/>
<polygon fill="midnightblue" stroke="midnightblue" points="2049.31,-46.0406 2045.94,-56.083 2054.84,-50.3383 2049.31,-46.0406"/>
</g>
<!-- Node64 -->
<g id="node31" class="node"><title>Node64</title>
<g id="a_node31"><a xlink:href="_n_f_login_logic_plugin_8cpp.html" target="_top" xlink:title="NFLoginLogicPlugin.cpp">
<polygon fill="white" stroke="black" points="2166,-0.5 2166,-19.5 2288,-19.5 2288,-0.5 2166,-0.5"/>
<text text-anchor="middle" x="2227" y="-7.5" font-family="Helvetica,sans-Serif" font-size="10.00">NFLoginLogicPlugin.cpp</text>
</a>
</g>
</g>
<!-- Node62&#45;&gt;Node64 -->
<g id="edge32" class="edge"><title>Node62&#45;&gt;Node64</title>
<path fill="none" stroke="midnightblue" d="M2078.8,-53.5677C2114.27,-43.381 2165.37,-28.7034 2197.35,-19.5164"/>
<polygon fill="midnightblue" stroke="midnightblue" points="2077.43,-50.3188 2068.79,-56.4435 2079.37,-57.0467 2077.43,-50.3188"/>
</g>
<!-- Node66 -->
<g id="node33" class="node"><title>Node66</title>
<g id="a_node33"><a xlink:href="_n_f_c_login_to_master_module_8cpp.html" target="_top" xlink:title="NFCLoginToMasterModule.cpp">
<polygon fill="white" stroke="black" points="2306,-0.5 2306,-19.5 2456,-19.5 2456,-0.5 2306,-0.5"/>
<text text-anchor="middle" x="2381" y="-7.5" font-family="Helvetica,sans-Serif" font-size="10.00">NFCLoginToMasterModule.cpp</text>
</a>
</g>
</g>
<!-- Node65&#45;&gt;Node66 -->
<g id="edge34" class="edge"><title>Node65&#45;&gt;Node66</title>
<path fill="none" stroke="midnightblue" d="M2220.79,-53.8291C2258.93,-43.6333 2314.48,-28.7823 2349.14,-19.5164"/>
<polygon fill="midnightblue" stroke="midnightblue" points="2219.76,-50.4796 2211.01,-56.4435 2221.57,-57.2422 2219.76,-50.4796"/>
</g>
<!-- Node67 -->
<g id="node34" class="node"><title>Node67</title>
<g id="a_node34"><a xlink:href="_n_f_login_net___client_plugin_8cpp.html" target="_top" xlink:title="NFLoginNet_ClientPlugin.cpp">
<polygon fill="white" stroke="black" points="2474.5,-0.5 2474.5,-19.5 2617.5,-19.5 2617.5,-0.5 2474.5,-0.5"/>
<text text-anchor="middle" x="2546" y="-7.5" font-family="Helvetica,sans-Serif" font-size="10.00">NFLoginNet_ClientPlugin.cpp</text>
</a>
</g>
</g>
<!-- Node65&#45;&gt;Node67 -->
<g id="edge35" class="edge"><title>Node65&#45;&gt;Node67</title>
<path fill="none" stroke="midnightblue" d="M2247.1,-54.9794C2316.43,-44.7791 2422.73,-29.1372 2488.12,-19.5164"/>
<polygon fill="midnightblue" stroke="midnightblue" points="2246.54,-51.525 2237.15,-56.4435 2247.56,-58.4505 2246.54,-51.525"/>
</g>
<!-- Node69 -->
<g id="node36" class="node"><title>Node69</title>
<g id="a_node36"><a xlink:href="_n_f_c_login_net___server_module_8cpp.html" target="_top" xlink:title="NFCLoginNet_ServerModule.cpp">
<polygon fill="white" stroke="black" points="2635.5,-0.5 2635.5,-19.5 2792.5,-19.5 2792.5,-0.5 2635.5,-0.5"/>
<text text-anchor="middle" x="2714" y="-7.5" font-family="Helvetica,sans-Serif" font-size="10.00">NFCLoginNet_ServerModule.cpp</text>
</a>
</g>
</g>
<!-- Node68&#45;&gt;Node69 -->
<g id="edge37" class="edge"><title>Node68&#45;&gt;Node69</title>
<path fill="none" stroke="midnightblue" d="M2401.63,-55.0421C2473.96,-44.8432 2585.22,-29.1569 2653.6,-19.5164"/>
<polygon fill="midnightblue" stroke="midnightblue" points="2401.1,-51.5816 2391.69,-56.4435 2402.08,-58.5131 2401.1,-51.5816"/>
</g>
<!-- Node70 -->
<g id="node37" class="node"><title>Node70</title>
<g id="a_node37"><a xlink:href="_n_f_login_net___server_plugin_8cpp.html" target="_top" xlink:title="NFLoginNet_ServerPlugin.cpp">
<polygon fill="white" stroke="black" points="2811,-0.5 2811,-19.5 2957,-19.5 2957,-0.5 2811,-0.5"/>
<text text-anchor="middle" x="2884" y="-7.5" font-family="Helvetica,sans-Serif" font-size="10.00">NFLoginNet_ServerPlugin.cpp</text>
</a>
</g>
</g>
<!-- Node68&#45;&gt;Node70 -->
<g id="edge38" class="edge"><title>Node68&#45;&gt;Node70</title>
<path fill="none" stroke="midnightblue" d="M2408.71,-55.9516C2584.58,-37.7783 2630.29,-37.2665 2802,-20 2804.85,-19.7134 2807.76,-19.4167 2810.69,-19.1131"/>
<polygon fill="midnightblue" stroke="midnightblue" points="2408.18,-52.4878 2398.6,-57.0015 2408.9,-59.4504 2408.18,-52.4878"/>
</g>
<!-- Node72 -->
<g id="node39" class="node"><title>Node72</title>
<g id="a_node39"><a xlink:href="_n_f_c_master_net___server_module_8cpp.html" target="_top" xlink:title="NFCMasterNet_ServerModule.cpp">
<polygon fill="white" stroke="black" points="2975,-0.5 2975,-19.5 3139,-19.5 3139,-0.5 2975,-0.5"/>
<text text-anchor="middle" x="3057" y="-7.5" font-family="Helvetica,sans-Serif" font-size="10.00">NFCMasterNet_ServerModule.cpp</text>
</a>
</g>
</g>
<!-- Node71&#45;&gt;Node72 -->
<g id="edge40" class="edge"><title>Node71&#45;&gt;Node72</title>
<path fill="none" stroke="midnightblue" d="M2569.28,-55.8894C2746.4,-38.0163 2792.46,-36.4299 2966,-20 2968.84,-19.7307 2971.74,-19.4547 2974.66,-19.1744"/>
<polygon fill="midnightblue" stroke="midnightblue" points="2568.69,-52.4313 2559.09,-56.9208 2569.39,-59.3957 2568.69,-52.4313"/>
</g>
<!-- Node73 -->
<g id="node40" class="node"><title>Node73</title>
<g id="a_node40"><a xlink:href="_n_f_master_net___server_plugin_8cpp.html" target="_top" xlink:title="NFMasterNet_ServerPlugin.cpp">
<polygon fill="white" stroke="black" points="3157,-0.5 3157,-19.5 3309,-19.5 3309,-0.5 3157,-0.5"/>
<text text-anchor="middle" x="3233" y="-7.5" font-family="Helvetica,sans-Serif" font-size="10.00">NFMasterNet_ServerPlugin.cpp</text>
</a>
</g>
</g>
<!-- Node71&#45;&gt;Node73 -->
<g id="edge41" class="edge"><title>Node71&#45;&gt;Node73</title>
<path fill="none" stroke="midnightblue" d="M2569.12,-55.9456C2826.99,-33.7557 2893.9,-41.3282 3148,-20 3150.81,-19.7642 3153.67,-19.5138 3156.56,-19.2523"/>
<polygon fill="midnightblue" stroke="midnightblue" points="2568.74,-52.4656 2559.08,-56.8165 2569.35,-59.4394 2568.74,-52.4656"/>
</g>
<!-- Node75 -->
<g id="node42" class="node"><title>Node75</title>
<g id="a_node42"><a xlink:href="_n_f_c_master_module_8cpp.html" target="_top" xlink:title="NFCMasterModule.cpp">
<polygon fill="white" stroke="black" points="3327,-0.5 3327,-19.5 3443,-19.5 3443,-0.5 3327,-0.5"/>
<text text-anchor="middle" x="3385" y="-7.5" font-family="Helvetica,sans-Serif" font-size="10.00">NFCMasterModule.cpp</text>
</a>
</g>
</g>
<!-- Node74&#45;&gt;Node75 -->
<g id="edge43" class="edge"><title>Node74&#45;&gt;Node75</title>
<path fill="none" stroke="midnightblue" d="M2709.19,-55.9562C2980.12,-31.0391 3050.97,-45.7778 3318,-20 3320.92,-19.7181 3323.91,-19.4054 3326.93,-19.0706"/>
<polygon fill="midnightblue" stroke="midnightblue" points="2708.69,-52.4878 2699.06,-56.8983 2709.34,-59.4578 2708.69,-52.4878"/>
</g>
<!-- Node76 -->
<g id="node43" class="node"><title>Node76</title>
<g id="a_node43"><a xlink:href="_n_f_master_server_plugin_8cpp.html" target="_top" xlink:title="NFMasterServerPlugin.cpp">
<polygon fill="white" stroke="black" points="3461,-0.5 3461,-19.5 3593,-19.5 3593,-0.5 3461,-0.5"/>
<text text-anchor="middle" x="3527" y="-7.5" font-family="Helvetica,sans-Serif" font-size="10.00">NFMasterServerPlugin.cpp</text>
</a>
</g>
</g>
<!-- Node74&#45;&gt;Node76 -->
<g id="edge44" class="edge"><title>Node74&#45;&gt;Node76</title>
<path fill="none" stroke="midnightblue" d="M2709.39,-55.9534C3039.52,-27.2916 3125.49,-47.4548 3452,-20 3454.87,-19.7583 3457.81,-19.4916 3460.77,-19.2061"/>
<polygon fill="midnightblue" stroke="midnightblue" points="2708.71,-52.4998 2699.05,-56.86 2709.32,-59.4731 2708.71,-52.4998"/>
</g>
<!-- Node78 -->
<g id="node45" class="node"><title>Node78</title>
<g id="a_node45"><a xlink:href="_n_f_c_proxy_logic_module_8cpp.html" target="_top" xlink:title="NFCProxyLogicModule.cpp">
<polygon fill="white" stroke="black" points="3611.5,-0.5 3611.5,-19.5 3746.5,-19.5 3746.5,-0.5 3611.5,-0.5"/>
<text text-anchor="middle" x="3679" y="-7.5" font-family="Helvetica,sans-Serif" font-size="10.00">NFCProxyLogicModule.cpp</text>
</a>
</g>
</g>
<!-- Node77&#45;&gt;Node78 -->
<g id="edge46" class="edge"><title>Node77&#45;&gt;Node78</title>
<path fill="none" stroke="midnightblue" d="M2847.18,-55.9722C3182.76,-26.6331 3270.02,-47.273 3602,-20 3605.09,-19.7465 3608.24,-19.466 3611.42,-19.1652"/>
<polygon fill="midnightblue" stroke="midnightblue" points="2846.83,-52.4892 2837.18,-56.8549 2847.45,-59.4621 2846.83,-52.4892"/>
</g>
</g>
</svg>
        <g id="navigator" transform="translate(0 0)" fill="#404254">
                <rect fill="#f2f5e9" fill-opacity="0.5" stroke="#606060" stroke-width=".5" x="0" y="0" width="60" height="60"/>
                <use id="zoomplus" xlink:href="#zoomPlus" x="17" y="9" onmousedown="handleZoom(evt,'in')"/>
                <use id="zoomminus" xlink:href="#zoomMin" x="42" y="9" onmousedown="handleZoom(evt,'out')"/>
                <use id="reset" xlink:href="#resetDef" x="30" y="36" onmousedown="handleReset()"/>
                <g id="arrowUp" xlink:href="#dirArrow" transform="translate(30 24)" onmousedown="handlePan(0,-1)">
                  <use xlink:href="#rim" fill="#404040">
                        <set attributeName="fill" to="#808080" begin="arrowUp.mouseover" end="arrowUp.mouseout"/>
                  </use>
                  <path fill="none" stroke="white" stroke-width="1.5" d="M0,-3.0v7 M-2.5,-0.5L0,-3.0L2.5,-0.5"/>
                </g>
                <g id="arrowRight" xlink:href="#dirArrow" transform="rotate(90) translate(36 -43)" onmousedown="handlePan(1,0)">
                  <use xlink:href="#rim" fill="#404040">
                        <set attributeName="fill" to="#808080" begin="arrowRight.mouseover" end="arrowRight.mouseout"/>
                  </use>
                  <path fill="none" stroke="white" stroke-width="1.5" d="M0,-3.0v7 M-2.5,-0.5L0,-3.0L2.5,-0.5"/>
                </g>
                <g id="arrowDown" xlink:href="#dirArrow" transform="rotate(180) translate(-30 -48)" onmousedown="handlePan(0,1)">
                  <use xlink:href="#rim" fill="#404040">
                        <set attributeName="fill" to="#808080" begin="arrowDown.mouseover" end="arrowDown.mouseout"/>
                  </use>
                  <path fill="none" stroke="white" stroke-width="1.5" d="M0,-3.0v7 M-2.5,-0.5L0,-3.0L2.5,-0.5"/>
                </g>
                <g id="arrowLeft" xlink:href="#dirArrow" transform="rotate(270) translate(-36 17)" onmousedown="handlePan(-1,0)">
                  <use xlink:href="#rim" fill="#404040">
                        <set attributeName="fill" to="#808080" begin="arrowLeft.mouseover" end="arrowLeft.mouseout"/>
                  </use>
                  <path fill="none" stroke="white" stroke-width="1.5" d="M0,-3.0v7 M-2.5,-0.5L0,-3.0L2.5,-0.5"/>
                </g>
        </g>
        <svg viewBox="0 0 15 15" width="100%" height="30px" preserveAspectRatio="xMaxYMin meet">
         <g id="arrow_out" transform="scale(0.3 0.3)">
          <a xlink:href="_n_f_i_plugin_8h__dep__incl_org.svg" target="_base">
           <rect id="button" ry="5" rx="5" y="6" x="6" height="38" width="38"
                fill="#f2f5e9" fill-opacity="0.5" stroke="#606060" stroke-width="1.0"/>
           <path id="arrow"
             d="M 11.500037,31.436501 C 11.940474,20.09759 22.043105,11.32322 32.158766,21.979434 L 37.068811,17.246167 C 37.068811,17.246167 37.088388,32 37.088388,32 L 22.160133,31.978069 C 22.160133,31.978069 26.997745,27.140456 26.997745,27.140456 C 18.528582,18.264221 13.291696,25.230495 11.500037,31.436501 z"
             style="fill:#404040;"/>
          </a>
         </g>
        </svg>
</svg>
