<?xml version="1.0" encoding="UTF-8" standalone="no"?>
<!DOCTYPE svg PUBLIC "-//W3C//DTD SVG 1.1//EN"
 "http://www.w3.org/Graphics/SVG/1.1/DTD/svg11.dtd">
<!-- Generated by graphviz version 2.38.0 (20140413.2041)
 -->
<!-- Title: NFINet.h Pages: 1 -->
<!--zoomable 207 -->
<svg id="main" version="1.1" xmlns="http://www.w3.org/2000/svg" xmlns:xlink="http://www.w3.org/1999/xlink" xml:space="preserve" onload="init(evt)">
<style type="text/css"><![CDATA[
.edge:hover path { stroke: red; }
.edge:hover polygon { stroke: red; fill: red; }
]]></style>
<script type="text/javascript"><![CDATA[
var edges = document.getElementsByTagName('g');
if (edges && edges.length) {
  for (var i=0;i<edges.length;i++) {
    if (edges[i].id.substr(0,4)=='edge') {
      edges[i].setAttribute('class','edge');
    }
  }
}
]]></script>
        <defs>
                <circle id="rim" cx="0" cy="0" r="7"/>
                <circle id="rim2" cx="0" cy="0" r="3.5"/>
                <g id="zoomPlus">
                        <use xlink:href="#rim" fill="#404040">
                                <set attributeName="fill" to="#808080" begin="zoomplus.mouseover" end="zoomplus.mouseout"/>
                        </use>
                        <path d="M-4,0h8M0,-4v8" fill="none" stroke="white" stroke-width="1.5" pointer-events="none"/>
                </g>
                <g id="zoomMin">
                        <use xlink:href="#rim" fill="#404040">
                                <set attributeName="fill" to="#808080" begin="zoomminus.mouseover" end="zoomminus.mouseout"/>
                        </use>
                        <path d="M-4,0h8" fill="none" stroke="white" stroke-width="1.5" pointer-events="none"/>
                </g>
                <g id="dirArrow">
                        <path fill="none" stroke="white" stroke-width="1.5" d="M0,-3.0v7 M-2.5,-0.5L0,-3.0L2.5,-0.5"/>
                </g>
               <g id="resetDef">
                       <use xlink:href="#rim2" fill="#404040">
                               <set attributeName="fill" to="#808080" begin="reset.mouseover" end="reset.mouseout"/>
                       </use>
               </g>
        </defs>

<script type="text/javascript">
var viewWidth = 1727;
var viewHeight = 207;
var sectionId = 'dynsection-0';
</script>
<script xlink:href="svgpan.js"/>
<svg id="graph" class="graph">
<g id="viewport">
<title>NFINet.h</title>
<polygon fill="white" stroke="none" points="-4,4 -4,-203 1723,-203 1723,4 -4,4"/>
<!-- Node0 -->
<g id="node1" class="node"><title>Node0</title>
<polygon fill="#bfbfbf" stroke="black" points="717.5,-179.5 717.5,-198.5 772.5,-198.5 772.5,-179.5 717.5,-179.5"/>
<text text-anchor="middle" x="745" y="-186.5" font-family="Helvetica,sans-Serif" font-size="10.00">NFINet.h</text>
</g>
<!-- Node1 -->
<g id="node2" class="node"><title>Node1</title>
<polygon fill="white" stroke="#bfbfbf" points="0,-118 0,-137 46,-137 46,-118 0,-118"/>
<text text-anchor="middle" x="23" y="-125" font-family="Helvetica,sans-Serif" font-size="10.00">cstring</text>
</g>
<!-- Node0&#45;&gt;Node1 -->
<g id="edge1" class="edge"><title>Node0&#45;&gt;Node1</title>
<path fill="none" stroke="midnightblue" d="M717.431,-187.52C605.364,-185.367 183.826,-175.249 55,-143 52.7886,-142.446 50.5409,-141.745 48.3145,-140.952"/>
<polygon fill="midnightblue" stroke="midnightblue" points="49.4489,-137.634 38.8701,-137.05 46.7762,-144.103 49.4489,-137.634"/>
</g>
<!-- Node2 -->
<g id="node3" class="node"><title>Node2</title>
<polygon fill="white" stroke="#bfbfbf" points="64.5,-118 64.5,-137 111.5,-137 111.5,-118 64.5,-118"/>
<text text-anchor="middle" x="88" y="-125" font-family="Helvetica,sans-Serif" font-size="10.00">errno.h</text>
</g>
<!-- Node0&#45;&gt;Node2 -->
<g id="edge2" class="edge"><title>Node0&#45;&gt;Node2</title>
<path fill="none" stroke="midnightblue" d="M717.164,-187.055C612.295,-183.327 241.179,-168.581 126,-143 122.995,-142.333 119.911,-141.472 116.863,-140.503"/>
<polygon fill="midnightblue" stroke="midnightblue" points="117.981,-137.186 107.387,-137.146 115.644,-143.785 117.981,-137.186"/>
</g>
<!-- Node3 -->
<g id="node4" class="node"><title>Node3</title>
<polygon fill="white" stroke="#bfbfbf" points="74,-56.5 74,-75.5 120,-75.5 120,-56.5 74,-56.5"/>
<text text-anchor="middle" x="97" y="-63.5" font-family="Helvetica,sans-Serif" font-size="10.00">stdio.h</text>
</g>
<!-- Node0&#45;&gt;Node3 -->
<g id="edge3" class="edge"><title>Node0&#45;&gt;Node3</title>
<path fill="none" stroke="midnightblue" d="M717.333,-188.378C616.527,-189.365 269.647,-189.259 171,-143 143.455,-130.083 120.644,-102.188 107.928,-84.0249"/>
<polygon fill="midnightblue" stroke="midnightblue" points="110.711,-81.8911 102.227,-75.545 104.902,-85.7966 110.711,-81.8911"/>
</g>
<!-- Node4 -->
<g id="node5" class="node"><title>Node4</title>
<polygon fill="white" stroke="#bfbfbf" points="394,-118 394,-137 444,-137 444,-118 394,-118"/>
<text text-anchor="middle" x="419" y="-125" font-family="Helvetica,sans-Serif" font-size="10.00">signal.h</text>
</g>
<!-- Node0&#45;&gt;Node4 -->
<g id="edge4" class="edge"><title>Node0&#45;&gt;Node4</title>
<path fill="none" stroke="midnightblue" d="M717.253,-185.932C664.945,-181.549 548.516,-169.473 454,-143 451.562,-142.317 449.065,-141.512 446.583,-140.636"/>
<polygon fill="midnightblue" stroke="midnightblue" points="447.825,-137.363 437.235,-137.021 445.3,-143.892 447.825,-137.363"/>
</g>
<!-- Node5 -->
<g id="node6" class="node"><title>Node5</title>
<polygon fill="white" stroke="#bfbfbf" points="355.5,-0.5 355.5,-19.5 404.5,-19.5 404.5,-0.5 355.5,-0.5"/>
<text text-anchor="middle" x="380" y="-7.5" font-family="Helvetica,sans-Serif" font-size="10.00">stdint.h</text>
</g>
<!-- Node0&#45;&gt;Node5 -->
<g id="edge5" class="edge"><title>Node0&#45;&gt;Node5</title>
<path fill="none" stroke="midnightblue" d="M717.336,-186.572C636.911,-182.144 407.43,-167.459 385,-143 356.675,-112.113 366.241,-58.0601 374.035,-29.6537"/>
<polygon fill="midnightblue" stroke="midnightblue" points="377.467,-30.3937 376.953,-19.8113 370.755,-28.4042 377.467,-30.3937"/>
</g>
<!-- Node6 -->
<g id="node7" class="node"><title>Node6</title>
<polygon fill="white" stroke="#bfbfbf" points="138,-56.5 138,-75.5 192,-75.5 192,-56.5 138,-56.5"/>
<text text-anchor="middle" x="165" y="-63.5" font-family="Helvetica,sans-Serif" font-size="10.00">iostream</text>
</g>
<!-- Node0&#45;&gt;Node6 -->
<g id="edge6" class="edge"><title>Node0&#45;&gt;Node6</title>
<path fill="none" stroke="midnightblue" d="M717.343,-187.391C611.97,-184.848 239.416,-173.739 197,-143 178.655,-129.706 170.762,-103.806 167.41,-85.9652"/>
<polygon fill="midnightblue" stroke="midnightblue" points="170.831,-85.1892 165.827,-75.8507 163.915,-86.2716 170.831,-85.1892"/>
</g>
<!-- Node7 -->
<g id="node8" class="node"><title>Node7</title>
<polygon fill="white" stroke="#bfbfbf" points="462.5,-118 462.5,-137 497.5,-137 497.5,-118 462.5,-118"/>
<text text-anchor="middle" x="480" y="-125" font-family="Helvetica,sans-Serif" font-size="10.00">map</text>
</g>
<!-- Node0&#45;&gt;Node7 -->
<g id="edge7" class="edge"><title>Node0&#45;&gt;Node7</title>
<path fill="none" stroke="midnightblue" d="M717.159,-185.52C671.975,-180.885 580.346,-168.933 507,-143 505.758,-142.561 504.505,-142.071 503.252,-141.545"/>
<polygon fill="midnightblue" stroke="midnightblue" points="504.444,-138.233 493.919,-137.021 501.391,-144.532 504.444,-138.233"/>
</g>
<!-- Node8 -->
<g id="node9" class="node"><title>Node8</title>
<g id="a_node9"><a xlink:href="_n_f_g_u_i_d_8h.html" target="_top" xlink:title="NFComm/NFPluginModule\l/NFGUID.h">
<polygon fill="white" stroke="black" points="206,-112.5 206,-142.5 338,-142.5 338,-112.5 206,-112.5"/>
<text text-anchor="start" x="214" y="-130.5" font-family="Helvetica,sans-Serif" font-size="10.00">NFComm/NFPluginModule</text>
<text text-anchor="middle" x="272" y="-119.5" font-family="Helvetica,sans-Serif" font-size="10.00">/NFGUID.h</text>
</a>
</g>
</g>
<!-- Node0&#45;&gt;Node8 -->
<g id="edge8" class="edge"><title>Node0&#45;&gt;Node8</title>
<path fill="none" stroke="midnightblue" d="M717.284,-185.454C652.949,-179.409 488.555,-163.171 352,-143 350.743,-142.814 349.476,-142.624 348.201,-142.429"/>
<polygon fill="midnightblue" stroke="midnightblue" points="348.724,-138.968 338.299,-140.861 347.629,-145.882 348.724,-138.968"/>
</g>
<!-- Node15 -->
<g id="node16" class="node"><title>Node15</title>
<polygon fill="white" stroke="#bfbfbf" points="515.5,-118 515.5,-137 580.5,-137 580.5,-118 515.5,-118"/>
<text text-anchor="middle" x="548" y="-125" font-family="Helvetica,sans-Serif" font-size="10.00">netinet/in.h</text>
</g>
<!-- Node0&#45;&gt;Node15 -->
<g id="edge18" class="edge"><title>Node0&#45;&gt;Node15</title>
<path fill="none" stroke="midnightblue" d="M717.436,-180.445C686.345,-171.82 634.333,-157.078 590,-143 587.401,-142.175 584.72,-141.301 582.028,-140.408"/>
<polygon fill="midnightblue" stroke="midnightblue" points="582.956,-137.027 572.361,-137.141 580.714,-143.659 582.956,-137.027"/>
</g>
<!-- Node16 -->
<g id="node17" class="node"><title>Node16</title>
<polygon fill="white" stroke="#bfbfbf" points="598.5,-118 598.5,-137 671.5,-137 671.5,-118 598.5,-118"/>
<text text-anchor="middle" x="635" y="-125" font-family="Helvetica,sans-Serif" font-size="10.00">sys/socket.h</text>
</g>
<!-- Node0&#45;&gt;Node16 -->
<g id="edge19" class="edge"><title>Node0&#45;&gt;Node16</title>
<path fill="none" stroke="midnightblue" d="M729.24,-179.475C711.024,-169.622 680.827,-153.288 659.532,-141.77"/>
<polygon fill="midnightblue" stroke="midnightblue" points="661.192,-138.688 650.731,-137.009 657.862,-144.845 661.192,-138.688"/>
</g>
<!-- Node17 -->
<g id="node18" class="node"><title>Node17</title>
<polygon fill="white" stroke="#bfbfbf" points="690,-118 690,-137 732,-137 732,-118 690,-118"/>
<text text-anchor="middle" x="711" y="-125" font-family="Helvetica,sans-Serif" font-size="10.00">vector</text>
</g>
<!-- Node0&#45;&gt;Node17 -->
<g id="edge20" class="edge"><title>Node0&#45;&gt;Node17</title>
<path fill="none" stroke="midnightblue" d="M740.129,-179.475C735.13,-170.727 727.211,-156.869 720.891,-145.809"/>
<polygon fill="midnightblue" stroke="midnightblue" points="723.863,-143.955 715.862,-137.009 717.785,-147.428 723.863,-143.955"/>
</g>
<!-- Node18 -->
<g id="node19" class="node"><title>Node18</title>
<polygon fill="white" stroke="#bfbfbf" points="750,-118 750,-137 808,-137 808,-118 750,-118"/>
<text text-anchor="middle" x="779" y="-125" font-family="Helvetica,sans-Serif" font-size="10.00">functional</text>
</g>
<!-- Node0&#45;&gt;Node18 -->
<g id="edge21" class="edge"><title>Node0&#45;&gt;Node18</title>
<path fill="none" stroke="midnightblue" d="M749.871,-179.475C754.87,-170.727 762.789,-156.869 769.109,-145.809"/>
<polygon fill="midnightblue" stroke="midnightblue" points="772.215,-147.428 774.138,-137.009 766.137,-143.955 772.215,-147.428"/>
</g>
<!-- Node19 -->
<g id="node20" class="node"><title>Node19</title>
<polygon fill="white" stroke="#bfbfbf" points="826,-118 826,-137 878,-137 878,-118 826,-118"/>
<text text-anchor="middle" x="852" y="-125" font-family="Helvetica,sans-Serif" font-size="10.00">memory</text>
</g>
<!-- Node0&#45;&gt;Node19 -->
<g id="edge22" class="edge"><title>Node0&#45;&gt;Node19</title>
<path fill="none" stroke="midnightblue" d="M760.33,-179.475C777.97,-169.666 807.16,-153.435 827.858,-141.925"/>
<polygon fill="midnightblue" stroke="midnightblue" points="829.659,-144.928 836.698,-137.009 826.257,-138.81 829.659,-144.928"/>
</g>
<!-- Node20 -->
<g id="node21" class="node"><title>Node20</title>
<polygon fill="white" stroke="#bfbfbf" points="896.5,-118 896.5,-137 925.5,-137 925.5,-118 896.5,-118"/>
<text text-anchor="middle" x="911" y="-125" font-family="Helvetica,sans-Serif" font-size="10.00">list</text>
</g>
<!-- Node0&#45;&gt;Node20 -->
<g id="edge23" class="edge"><title>Node0&#45;&gt;Node20</title>
<path fill="none" stroke="midnightblue" d="M772.67,-181.313C801.82,-173.794 848.717,-160.334 887,-143 887.698,-142.684 888.402,-142.352 889.107,-142.006"/>
<polygon fill="midnightblue" stroke="midnightblue" points="891.027,-144.945 898.101,-137.057 887.652,-138.812 891.027,-144.945"/>
</g>
<!-- Node21 -->
<g id="node22" class="node"><title>Node21</title>
<polygon fill="white" stroke="#bfbfbf" points="943.5,-118 943.5,-137 1044.5,-137 1044.5,-118 943.5,-118"/>
<text text-anchor="middle" x="994" y="-125" font-family="Helvetica,sans-Serif" font-size="10.00">event2/bufferevent.h</text>
</g>
<!-- Node0&#45;&gt;Node21 -->
<g id="edge24" class="edge"><title>Node0&#45;&gt;Node21</title>
<path fill="none" stroke="midnightblue" d="M772.708,-181.515C809.72,-172.834 877.332,-156.915 935,-143 939.688,-141.869 944.583,-140.679 949.462,-139.488"/>
<polygon fill="midnightblue" stroke="midnightblue" points="950.501,-142.837 959.382,-137.059 948.837,-136.038 950.501,-142.837"/>
</g>
<!-- Node22 -->
<g id="node23" class="node"><title>Node22</title>
<polygon fill="white" stroke="#bfbfbf" points="1062.5,-118 1062.5,-137 1141.5,-137 1141.5,-118 1062.5,-118"/>
<text text-anchor="middle" x="1102" y="-125" font-family="Helvetica,sans-Serif" font-size="10.00">event2/buffer.h</text>
</g>
<!-- Node0&#45;&gt;Node22 -->
<g id="edge25" class="edge"><title>Node0&#45;&gt;Node22</title>
<path fill="none" stroke="midnightblue" d="M772.53,-185.38C826.822,-179.909 951.341,-165.848 1054,-143 1058.11,-142.085 1062.38,-140.998 1066.61,-139.837"/>
<polygon fill="midnightblue" stroke="midnightblue" points="1067.65,-143.18 1076.28,-137.039 1065.7,-136.456 1067.65,-143.18"/>
</g>
<!-- Node23 -->
<g id="node24" class="node"><title>Node23</title>
<polygon fill="white" stroke="#bfbfbf" points="1159.5,-118 1159.5,-137 1246.5,-137 1246.5,-118 1159.5,-118"/>
<text text-anchor="middle" x="1203" y="-125" font-family="Helvetica,sans-Serif" font-size="10.00">event2/listener.h</text>
</g>
<!-- Node0&#45;&gt;Node23 -->
<g id="edge26" class="edge"><title>Node0&#45;&gt;Node23</title>
<path fill="none" stroke="midnightblue" d="M772.8,-186.471C838.882,-182.501 1010.36,-170.218 1151,-143 1155.81,-142.07 1160.82,-140.915 1165.75,-139.666"/>
<polygon fill="midnightblue" stroke="midnightblue" points="1166.91,-142.978 1175.67,-137.013 1165.11,-136.216 1166.91,-142.978"/>
</g>
<!-- Node24 -->
<g id="node25" class="node"><title>Node24</title>
<polygon fill="white" stroke="#bfbfbf" points="1265,-118 1265,-137 1333,-137 1333,-118 1265,-118"/>
<text text-anchor="middle" x="1299" y="-125" font-family="Helvetica,sans-Serif" font-size="10.00">event2/util.h</text>
</g>
<!-- Node0&#45;&gt;Node24 -->
<g id="edge27" class="edge"><title>Node0&#45;&gt;Node24</title>
<path fill="none" stroke="midnightblue" d="M772.756,-187.857C850.132,-186.967 1074.48,-181.033 1256,-143 1259.69,-142.228 1263.5,-141.238 1267.25,-140.139"/>
<polygon fill="midnightblue" stroke="midnightblue" points="1268.49,-143.418 1276.96,-137.05 1266.37,-136.747 1268.49,-143.418"/>
</g>
<!-- Node25 -->
<g id="node26" class="node"><title>Node25</title>
<polygon fill="white" stroke="#bfbfbf" points="1351.5,-118 1351.5,-137 1434.5,-137 1434.5,-118 1351.5,-118"/>
<text text-anchor="middle" x="1393" y="-125" font-family="Helvetica,sans-Serif" font-size="10.00">event2/thread.h</text>
</g>
<!-- Node0&#45;&gt;Node25 -->
<g id="edge28" class="edge"><title>Node0&#45;&gt;Node25</title>
<path fill="none" stroke="midnightblue" d="M772.619,-187.89C858.008,-187.132 1125.06,-181.608 1342,-143 1346.84,-142.138 1351.89,-141.004 1356.84,-139.75"/>
<polygon fill="midnightblue" stroke="midnightblue" points="1358.03,-143.051 1366.77,-137.053 1356.2,-136.296 1358.03,-143.051"/>
</g>
<!-- Node26 -->
<g id="node27" class="node"><title>Node26</title>
<polygon fill="white" stroke="#bfbfbf" points="1453,-118 1453,-137 1569,-137 1569,-118 1453,-118"/>
<text text-anchor="middle" x="1511" y="-125" font-family="Helvetica,sans-Serif" font-size="10.00">event2/event_compat.h</text>
</g>
<!-- Node0&#45;&gt;Node26 -->
<g id="edge29" class="edge"><title>Node0&#45;&gt;Node26</title>
<path fill="none" stroke="midnightblue" d="M772.789,-187.693C867.29,-186.336 1184.76,-179.192 1444,-143 1451.29,-141.982 1458.97,-140.609 1466.43,-139.112"/>
<polygon fill="midnightblue" stroke="midnightblue" points="1467.34,-142.498 1476.4,-137.016 1465.9,-135.648 1467.34,-142.498"/>
</g>
<!-- Node27 -->
<g id="node28" class="node"><title>Node27</title>
<polygon fill="white" stroke="#bfbfbf" points="1587,-118 1587,-137 1639,-137 1639,-118 1587,-118"/>
<text text-anchor="middle" x="1613" y="-125" font-family="Helvetica,sans-Serif" font-size="10.00">assert.h</text>
</g>
<!-- Node0&#45;&gt;Node27 -->
<g id="edge30" class="edge"><title>Node0&#45;&gt;Node27</title>
<path fill="none" stroke="midnightblue" d="M772.532,-187.759C898.37,-186.469 1419.47,-179.011 1578,-143 1580.67,-142.393 1583.4,-141.599 1586.1,-140.695"/>
<polygon fill="midnightblue" stroke="midnightblue" points="1587.48,-143.915 1595.58,-137.078 1584.99,-137.375 1587.48,-143.915"/>
</g>
<!-- Node28 -->
<g id="node29" class="node"><title>Node28</title>
<polygon fill="white" stroke="#bfbfbf" points="1657,-118 1657,-137 1719,-137 1719,-118 1657,-118"/>
<text text-anchor="middle" x="1688" y="-125" font-family="Helvetica,sans-Serif" font-size="10.00">windows.h</text>
</g>
<!-- Node0&#45;&gt;Node28 -->
<g id="edge31" class="edge"><title>Node0&#45;&gt;Node28</title>
<path fill="none" stroke="midnightblue" d="M772.57,-187.729C904.749,-186.262 1474.31,-177.987 1648,-143 1651.44,-142.308 1654.97,-141.375 1658.45,-140.313"/>
<polygon fill="midnightblue" stroke="midnightblue" points="1659.64,-143.605 1667.99,-137.076 1657.39,-136.976 1659.64,-143.605"/>
</g>
<!-- Node8&#45;&gt;Node3 -->
<g id="edge16" class="edge"><title>Node8&#45;&gt;Node3</title>
<path fill="none" stroke="midnightblue" d="M230.527,-112.399C199.787,-101.947 158.45,-87.8931 129.954,-78.2043"/>
<polygon fill="midnightblue" stroke="midnightblue" points="131.042,-74.8777 120.448,-74.9723 128.789,-81.5051 131.042,-74.8777"/>
</g>
<!-- Node8&#45;&gt;Node6 -->
<g id="edge15" class="edge"><title>Node8&#45;&gt;Node6</title>
<path fill="none" stroke="midnightblue" d="M246.642,-112.399C229.331,-102.773 206.524,-90.0902 189.416,-80.5772"/>
<polygon fill="midnightblue" stroke="midnightblue" points="191.01,-77.4588 180.569,-75.6578 187.608,-83.5766 191.01,-77.4588"/>
</g>
<!-- Node9 -->
<g id="node10" class="node"><title>Node9</title>
<g id="a_node10"><a xlink:href="_n_f_platform_8h.html" target="_top" xlink:title="NFPlatform.h">
<polygon fill="white" stroke="black" points="210,-56.5 210,-75.5 284,-75.5 284,-56.5 210,-56.5"/>
<text text-anchor="middle" x="247" y="-63.5" font-family="Helvetica,sans-Serif" font-size="10.00">NFPlatform.h</text>
</a>
</g>
</g>
<!-- Node8&#45;&gt;Node9 -->
<g id="edge9" class="edge"><title>Node8&#45;&gt;Node9</title>
<path fill="none" stroke="midnightblue" d="M266.075,-112.399C262.63,-104.199 258.252,-93.7809 254.56,-84.9936"/>
<polygon fill="midnightblue" stroke="midnightblue" points="257.738,-83.5213 250.638,-75.6578 251.285,-86.2328 257.738,-83.5213"/>
</g>
<!-- Node14 -->
<g id="node15" class="node"><title>Node14</title>
<polygon fill="white" stroke="#bfbfbf" points="302,-56.5 302,-75.5 350,-75.5 350,-56.5 302,-56.5"/>
<text text-anchor="middle" x="326" y="-63.5" font-family="Helvetica,sans-Serif" font-size="10.00">stdlib.h</text>
</g>
<!-- Node8&#45;&gt;Node14 -->
<g id="edge17" class="edge"><title>Node8&#45;&gt;Node14</title>
<path fill="none" stroke="midnightblue" d="M284.797,-112.399C292.725,-103.664 302.936,-92.4126 311.21,-83.2962"/>
<polygon fill="midnightblue" stroke="midnightblue" points="314.014,-85.415 318.143,-75.6578 308.83,-80.7106 314.014,-85.415"/>
</g>
<!-- Node9&#45;&gt;Node5 -->
<g id="edge10" class="edge"><title>Node9&#45;&gt;Node5</title>
<path fill="none" stroke="midnightblue" d="M268.074,-56.4435C290.06,-47.5171 324.734,-33.4387 349.664,-23.3168"/>
<polygon fill="midnightblue" stroke="midnightblue" points="351.076,-26.5213 359.024,-19.5164 348.442,-20.0355 351.076,-26.5213"/>
</g>
<!-- Node10 -->
<g id="node11" class="node"><title>Node10</title>
<polygon fill="white" stroke="#bfbfbf" points="223,-0.5 223,-19.5 267,-19.5 267,-0.5 223,-0.5"/>
<text text-anchor="middle" x="245" y="-7.5" font-family="Helvetica,sans-Serif" font-size="10.00">time.h</text>
</g>
<!-- Node9&#45;&gt;Node10 -->
<g id="edge11" class="edge"><title>Node9&#45;&gt;Node10</title>
<path fill="none" stroke="midnightblue" d="M246.67,-56.083C246.408,-49.0059 246.032,-38.8611 245.703,-29.9865"/>
<polygon fill="midnightblue" stroke="midnightblue" points="249.192,-29.6147 245.324,-19.7511 242.197,-29.8738 249.192,-29.6147"/>
</g>
<!-- Node11 -->
<g id="node12" class="node"><title>Node11</title>
<polygon fill="white" stroke="#bfbfbf" points="285,-0.5 285,-19.5 337,-19.5 337,-0.5 285,-0.5"/>
<text text-anchor="middle" x="311" y="-7.5" font-family="Helvetica,sans-Serif" font-size="10.00">sstream</text>
</g>
<!-- Node9&#45;&gt;Node11 -->
<g id="edge12" class="edge"><title>Node9&#45;&gt;Node11</title>
<path fill="none" stroke="midnightblue" d="M257.283,-56.324C266.836,-48.2631 281.28,-36.0765 292.784,-26.3695"/>
<polygon fill="midnightblue" stroke="midnightblue" points="295.144,-28.9577 300.53,-19.8339 290.63,-23.6076 295.144,-28.9577"/>
</g>
<!-- Node12 -->
<g id="node13" class="node"><title>Node12</title>
<polygon fill="white" stroke="#bfbfbf" points="17,-0.5 17,-19.5 145,-19.5 145,-0.5 17,-0.5"/>
<text text-anchor="middle" x="81" y="-7.5" font-family="Helvetica,sans-Serif" font-size="10.00">common/lexical_cast.hpp</text>
</g>
<!-- Node9&#45;&gt;Node12 -->
<g id="edge13" class="edge"><title>Node9&#45;&gt;Node12</title>
<path fill="none" stroke="midnightblue" d="M220.697,-56.4435C192.649,-47.3196 148.056,-32.8133 116.816,-22.6509"/>
<polygon fill="midnightblue" stroke="midnightblue" points="117.772,-19.2816 107.18,-19.5164 115.607,-25.9383 117.772,-19.2816"/>
</g>
<!-- Node13 -->
<g id="node14" class="node"><title>Node13</title>
<polygon fill="white" stroke="#bfbfbf" points="163.5,-0.5 163.5,-19.5 204.5,-19.5 204.5,-0.5 163.5,-0.5"/>
<text text-anchor="middle" x="184" y="-7.5" font-family="Helvetica,sans-Serif" font-size="10.00">string</text>
</g>
<!-- Node9&#45;&gt;Node13 -->
<g id="edge14" class="edge"><title>Node9&#45;&gt;Node13</title>
<path fill="none" stroke="midnightblue" d="M236.878,-56.324C227.474,-48.2631 213.256,-36.0765 201.931,-26.3695"/>
<polygon fill="midnightblue" stroke="midnightblue" points="204.177,-23.6844 194.306,-19.8339 199.621,-28.9993 204.177,-23.6844"/>
</g>
</g>
</svg>
        <g id="navigator" transform="translate(0 0)" fill="#404254">
                <rect fill="#f2f5e9" fill-opacity="0.5" stroke="#606060" stroke-width=".5" x="0" y="0" width="60" height="60"/>
                <use id="zoomplus" xlink:href="#zoomPlus" x="17" y="9" onmousedown="handleZoom(evt,'in')"/>
                <use id="zoomminus" xlink:href="#zoomMin" x="42" y="9" onmousedown="handleZoom(evt,'out')"/>
                <use id="reset" xlink:href="#resetDef" x="30" y="36" onmousedown="handleReset()"/>
                <g id="arrowUp" xlink:href="#dirArrow" transform="translate(30 24)" onmousedown="handlePan(0,-1)">
                  <use xlink:href="#rim" fill="#404040">
                        <set attributeName="fill" to="#808080" begin="arrowUp.mouseover" end="arrowUp.mouseout"/>
                  </use>
                  <path fill="none" stroke="white" stroke-width="1.5" d="M0,-3.0v7 M-2.5,-0.5L0,-3.0L2.5,-0.5"/>
                </g>
                <g id="arrowRight" xlink:href="#dirArrow" transform="rotate(90) translate(36 -43)" onmousedown="handlePan(1,0)">
                  <use xlink:href="#rim" fill="#404040">
                        <set attributeName="fill" to="#808080" begin="arrowRight.mouseover" end="arrowRight.mouseout"/>
                  </use>
                  <path fill="none" stroke="white" stroke-width="1.5" d="M0,-3.0v7 M-2.5,-0.5L0,-3.0L2.5,-0.5"/>
                </g>
                <g id="arrowDown" xlink:href="#dirArrow" transform="rotate(180) translate(-30 -48)" onmousedown="handlePan(0,1)">
                  <use xlink:href="#rim" fill="#404040">
                        <set attributeName="fill" to="#808080" begin="arrowDown.mouseover" end="arrowDown.mouseout"/>
                  </use>
                  <path fill="none" stroke="white" stroke-width="1.5" d="M0,-3.0v7 M-2.5,-0.5L0,-3.0L2.5,-0.5"/>
                </g>
                <g id="arrowLeft" xlink:href="#dirArrow" transform="rotate(270) translate(-36 17)" onmousedown="handlePan(-1,0)">
                  <use xlink:href="#rim" fill="#404040">
                        <set attributeName="fill" to="#808080" begin="arrowLeft.mouseover" end="arrowLeft.mouseout"/>
                  </use>
                  <path fill="none" stroke="white" stroke-width="1.5" d="M0,-3.0v7 M-2.5,-0.5L0,-3.0L2.5,-0.5"/>
                </g>
        </g>
        <svg viewBox="0 0 15 15" width="100%" height="30px" preserveAspectRatio="xMaxYMin meet">
         <g id="arrow_out" transform="scale(0.3 0.3)">
          <a xlink:href="_n_f_i_net_8h__incl_org.svg" target="_base">
           <rect id="button" ry="5" rx="5" y="6" x="6" height="38" width="38"
                fill="#f2f5e9" fill-opacity="0.5" stroke="#606060" stroke-width="1.0"/>
           <path id="arrow"
             d="M 11.500037,31.436501 C 11.940474,20.09759 22.043105,11.32322 32.158766,21.979434 L 37.068811,17.246167 C 37.068811,17.246167 37.088388,32 37.088388,32 L 22.160133,31.978069 C 22.160133,31.978069 26.997745,27.140456 26.997745,27.140456 C 18.528582,18.264221 13.291696,25.230495 11.500037,31.436501 z"
             style="fill:#404040;"/>
          </a>
         </g>
        </svg>
</svg>
