<?xml version="1.0" encoding="UTF-8" standalone="no"?>
<!DOCTYPE svg PUBLIC "-//W3C//DTD SVG 1.1//EN"
 "http://www.w3.org/Graphics/SVG/1.1/DTD/svg11.dtd">
<!-- Generated by graphviz version 2.38.0 (20140413.2041)
 -->
<!-- Title: NFCConsistentHash.hpp Pages: 1 -->
<!--zoomable 274 -->
<svg id="main" version="1.1" xmlns="http://www.w3.org/2000/svg" xmlns:xlink="http://www.w3.org/1999/xlink" xml:space="preserve" onload="init(evt)">
<style type="text/css"><![CDATA[
.edge:hover path { stroke: red; }
.edge:hover polygon { stroke: red; fill: red; }
]]></style>
<script type="text/javascript"><![CDATA[
var edges = document.getElementsByTagName('g');
if (edges && edges.length) {
  for (var i=0;i<edges.length;i++) {
    if (edges[i].id.substr(0,4)=='edge') {
      edges[i].setAttribute('class','edge');
    }
  }
}
]]></script>
        <defs>
                <circle id="rim" cx="0" cy="0" r="7"/>
                <circle id="rim2" cx="0" cy="0" r="3.5"/>
                <g id="zoomPlus">
                        <use xlink:href="#rim" fill="#404040">
                                <set attributeName="fill" to="#808080" begin="zoomplus.mouseover" end="zoomplus.mouseout"/>
                        </use>
                        <path d="M-4,0h8M0,-4v8" fill="none" stroke="white" stroke-width="1.5" pointer-events="none"/>
                </g>
                <g id="zoomMin">
                        <use xlink:href="#rim" fill="#404040">
                                <set attributeName="fill" to="#808080" begin="zoomminus.mouseover" end="zoomminus.mouseout"/>
                        </use>
                        <path d="M-4,0h8" fill="none" stroke="white" stroke-width="1.5" pointer-events="none"/>
                </g>
                <g id="dirArrow">
                        <path fill="none" stroke="white" stroke-width="1.5" d="M0,-3.0v7 M-2.5,-0.5L0,-3.0L2.5,-0.5"/>
                </g>
               <g id="resetDef">
                       <use xlink:href="#rim2" fill="#404040">
                               <set attributeName="fill" to="#808080" begin="reset.mouseover" end="reset.mouseout"/>
                       </use>
               </g>
        </defs>

<script type="text/javascript">
var viewWidth = 3049;
var viewHeight = 274;
var sectionId = 'dynsection-1';
</script>
<script xlink:href="svgpan.js"/>
<svg id="graph" class="graph">
<g id="viewport">
<title>NFCConsistentHash.hpp</title>
<polygon fill="white" stroke="none" points="-4,4 -4,-270 3045,-270 3045,4 -4,4"/>
<!-- Node12 -->
<g id="node1" class="node"><title>Node12</title>
<polygon fill="#bfbfbf" stroke="black" points="1823,-246.5 1823,-265.5 1947,-265.5 1947,-246.5 1823,-246.5"/>
<text text-anchor="middle" x="1885" y="-253.5" font-family="Helvetica,sans-Serif" font-size="10.00">NFCConsistentHash.hpp</text>
</g>
<!-- Node13 -->
<g id="node2" class="node"><title>Node13</title>
<g id="a_node2"><a xlink:href="_n_f_c_add_consistent_hash_8hpp.html" target="_top" xlink:title="NFCAddConsistentHash.hpp">
<polygon fill="white" stroke="black" points="1664.5,-190.5 1664.5,-209.5 1805.5,-209.5 1805.5,-190.5 1664.5,-190.5"/>
<text text-anchor="middle" x="1735" y="-197.5" font-family="Helvetica,sans-Serif" font-size="10.00">NFCAddConsistentHash.hpp</text>
</a>
</g>
</g>
<!-- Node12&#45;&gt;Node13 -->
<g id="edge1" class="edge"><title>Node12&#45;&gt;Node13</title>
<path fill="none" stroke="midnightblue" d="M1851.78,-243.039C1823.55,-232.879 1783.74,-218.546 1758.66,-209.516"/>
<polygon fill="midnightblue" stroke="midnightblue" points="1850.64,-246.349 1861.23,-246.444 1853.01,-239.763 1850.64,-246.349"/>
</g>
<!-- Node14 -->
<g id="node3" class="node"><title>Node14</title>
<g id="a_node3"><a xlink:href="_n_f_i_net_client_module_8hpp.html" target="_top" xlink:title="NFINetClientModule.hpp">
<polygon fill="white" stroke="black" points="1824,-190.5 1824,-209.5 1946,-209.5 1946,-190.5 1824,-190.5"/>
<text text-anchor="middle" x="1885" y="-197.5" font-family="Helvetica,sans-Serif" font-size="10.00">NFINetClientModule.hpp</text>
</a>
</g>
</g>
<!-- Node12&#45;&gt;Node14 -->
<g id="edge2" class="edge"><title>Node12&#45;&gt;Node14</title>
<path fill="none" stroke="midnightblue" d="M1885,-235.805C1885,-226.91 1885,-216.78 1885,-209.751"/>
<polygon fill="midnightblue" stroke="midnightblue" points="1881.5,-236.083 1885,-246.083 1888.5,-236.083 1881.5,-236.083"/>
</g>
<!-- Node35 -->
<g id="node24" class="node"><title>Node35</title>
<g id="a_node24"><a xlink:href="_n_f_c_proxy_server_net___server_module_8h.html" target="_top" xlink:title="NFCProxyServerNet_Server\lModule.h">
<polygon fill="white" stroke="black" points="2033,-67.5 2033,-97.5 2169,-97.5 2169,-67.5 2033,-67.5"/>
<text text-anchor="start" x="2041" y="-85.5" font-family="Helvetica,sans-Serif" font-size="10.00">NFCProxyServerNet_Server</text>
<text text-anchor="middle" x="2101" y="-74.5" font-family="Helvetica,sans-Serif" font-size="10.00">Module.h</text>
</a>
</g>
</g>
<!-- Node12&#45;&gt;Node35 -->
<g id="edge44" class="edge"><title>Node12&#45;&gt;Node35</title>
<path fill="none" stroke="midnightblue" d="M1950.3,-244.166C2001.55,-231.858 2069.63,-206.233 2103,-154 2113.81,-137.077 2109.95,-112.904 2105.78,-97.7143"/>
<polygon fill="midnightblue" stroke="midnightblue" points="1949.26,-240.813 1940.29,-246.453 1950.82,-247.637 1949.26,-240.813"/>
</g>
<!-- Node15 -->
<g id="node4" class="node"><title>Node15</title>
<g id="a_node4"><a xlink:href="_n_f_i_game_server_to_world_module_8h.html" target="_top" xlink:title="NFIGameServerToWorldModule.h">
<polygon fill="white" stroke="black" points="562.5,-134.5 562.5,-153.5 723.5,-153.5 723.5,-134.5 562.5,-134.5"/>
<text text-anchor="middle" x="643" y="-141.5" font-family="Helvetica,sans-Serif" font-size="10.00">NFIGameServerToWorldModule.h</text>
</a>
</g>
</g>
<!-- Node14&#45;&gt;Node15 -->
<g id="edge3" class="edge"><title>Node14&#45;&gt;Node15</title>
<path fill="none" stroke="midnightblue" d="M1813.71,-190.071C1397.29,-156.162 912.417,-147.753 723.715,-145.667"/>
<polygon fill="midnightblue" stroke="midnightblue" points="1813.59,-193.573 1823.84,-190.902 1814.16,-186.596 1813.59,-193.573"/>
</g>
<!-- Node16 -->
<g id="node5" class="node"><title>Node16</title>
<g id="a_node5"><a xlink:href="_n_f_c_game_server_to_world_module_8h.html" target="_top" xlink:title="NFCGameServerToWorldModule.h">
<polygon fill="white" stroke="black" points="270.5,-73 270.5,-92 435.5,-92 435.5,-73 270.5,-73"/>
<text text-anchor="middle" x="353" y="-80" font-family="Helvetica,sans-Serif" font-size="10.00">NFCGameServerToWorldModule.h</text>
</a>
</g>
</g>
<!-- Node14&#45;&gt;Node16 -->
<g id="edge37" class="edge"><title>Node14&#45;&gt;Node16</title>
<path fill="none" stroke="midnightblue" d="M1813.51,-190.097C1518.02,-169.199 825.389,-204.614 553,-154 483.502,-141.086 405.751,-107.887 371.219,-92.0943"/>
<polygon fill="midnightblue" stroke="midnightblue" points="1813.62,-193.614 1823.85,-190.864 1814.13,-186.633 1813.62,-193.614"/>
</g>
<!-- Node17 -->
<g id="node6" class="node"><title>Node17</title>
<g id="a_node6"><a xlink:href="_n_f_c_game_server_to_world_module_8cpp.html" target="_top" xlink:title="NFCGameServerToWorldModule.cpp">
<polygon fill="white" stroke="black" points="0,-6 0,-25 176,-25 176,-6 0,-6"/>
<text text-anchor="middle" x="88" y="-13" font-family="Helvetica,sans-Serif" font-size="10.00">NFCGameServerToWorldModule.cpp</text>
</a>
</g>
</g>
<!-- Node14&#45;&gt;Node17 -->
<g id="edge38" class="edge"><title>Node14&#45;&gt;Node17</title>
<path fill="none" stroke="midnightblue" d="M1813.82,-190.115C1501.43,-167.874 767.332,-195.308 476,-154 378.234,-140.138 353.84,-131.63 261,-98 201.066,-76.2897 133.72,-41.3011 103.794,-25.1637"/>
<polygon fill="midnightblue" stroke="midnightblue" points="1813.62,-193.61 1823.85,-190.857 1814.13,-186.629 1813.62,-193.61"/>
</g>
<!-- Node22 -->
<g id="node11" class="node"><title>Node22</title>
<g id="a_node11"><a xlink:href="_n_f_i_login_to_master_module_8h.html" target="_top" xlink:title="NFILoginToMasterModule.h">
<polygon fill="white" stroke="black" points="1210.5,-134.5 1210.5,-153.5 1345.5,-153.5 1345.5,-134.5 1210.5,-134.5"/>
<text text-anchor="middle" x="1278" y="-141.5" font-family="Helvetica,sans-Serif" font-size="10.00">NFILoginToMasterModule.h</text>
</a>
</g>
</g>
<!-- Node14&#45;&gt;Node22 -->
<g id="edge10" class="edge"><title>Node14&#45;&gt;Node22</title>
<path fill="none" stroke="midnightblue" d="M1813.64,-190.01C1638.39,-171.723 1445.63,-156.992 1345.78,-149.766"/>
<polygon fill="midnightblue" stroke="midnightblue" points="1813.52,-193.516 1823.83,-191.079 1814.25,-186.554 1813.52,-193.516"/>
</g>
<!-- Node29 -->
<g id="node18" class="node"><title>Node29</title>
<g id="a_node18"><a xlink:href="_n_f_i_proxy_server_to_game_module_8h.html" target="_top" xlink:title="NFIProxyServerToGameModule.h">
<polygon fill="white" stroke="black" points="1695.5,-134.5 1695.5,-153.5 1856.5,-153.5 1856.5,-134.5 1695.5,-134.5"/>
<text text-anchor="middle" x="1776" y="-141.5" font-family="Helvetica,sans-Serif" font-size="10.00">NFIProxyServerToGameModule.h</text>
</a>
</g>
</g>
<!-- Node14&#45;&gt;Node29 -->
<g id="edge17" class="edge"><title>Node14&#45;&gt;Node29</title>
<path fill="none" stroke="midnightblue" d="M1858.48,-185.862C1838.27,-175.849 1811.01,-162.346 1793.47,-153.655"/>
<polygon fill="midnightblue" stroke="midnightblue" points="1856.97,-189.021 1867.49,-190.324 1860.08,-182.748 1856.97,-189.021"/>
</g>
<!-- Node30 -->
<g id="node19" class="node"><title>Node30</title>
<g id="a_node19"><a xlink:href="_n_f_c_proxy_server_to_game_module_8h.html" target="_top" xlink:title="NFCProxyServerToGameModule.h">
<polygon fill="white" stroke="black" points="1601.5,-73 1601.5,-92 1766.5,-92 1766.5,-73 1601.5,-73"/>
<text text-anchor="middle" x="1684" y="-80" font-family="Helvetica,sans-Serif" font-size="10.00">NFCProxyServerToGameModule.h</text>
</a>
</g>
</g>
<!-- Node14&#45;&gt;Node30 -->
<g id="edge39" class="edge"><title>Node14&#45;&gt;Node30</title>
<path fill="none" stroke="midnightblue" d="M1822.18,-188.742C1767.22,-179.139 1694.8,-164.703 1686,-154 1671.38,-136.223 1677.15,-106.535 1681.25,-92.0172"/>
<polygon fill="midnightblue" stroke="midnightblue" points="1821.77,-192.223 1832.22,-190.477 1822.96,-185.326 1821.77,-192.223"/>
</g>
<!-- Node33 -->
<g id="node22" class="node"><title>Node33</title>
<g id="a_node22"><a xlink:href="_n_f_c_proxy_server_to_world_module_8h.html" target="_top" xlink:title="NFCProxyServerToWorldModule.h">
<polygon fill="white" stroke="black" points="1803,-73 1803,-92 1967,-92 1967,-73 1803,-73"/>
<text text-anchor="middle" x="1885" y="-80" font-family="Helvetica,sans-Serif" font-size="10.00">NFCProxyServerToWorldModule.h</text>
</a>
</g>
</g>
<!-- Node14&#45;&gt;Node33 -->
<g id="edge40" class="edge"><title>Node14&#45;&gt;Node33</title>
<path fill="none" stroke="midnightblue" d="M1885,-180.164C1885,-154.865 1885,-110.935 1885,-92.282"/>
<polygon fill="midnightblue" stroke="midnightblue" points="1881.5,-180.319 1885,-190.319 1888.5,-180.319 1881.5,-180.319"/>
</g>
<!-- Node14&#45;&gt;Node35 -->
<g id="edge41" class="edge"><title>Node14&#45;&gt;Node35</title>
<path fill="none" stroke="midnightblue" d="M1956.04,-190.552C2004.85,-183.339 2063.96,-171.351 2082,-154 2097.35,-139.235 2100.73,-113.487 2101.25,-97.5305"/>
<polygon fill="midnightblue" stroke="midnightblue" points="1955.51,-187.091 1946.11,-191.975 1956.51,-194.02 1955.51,-187.091"/>
</g>
<!-- Node38 -->
<g id="node27" class="node"><title>Node38</title>
<g id="a_node27"><a xlink:href="_n_f_i_proxy_server_to_world_module_8h.html" target="_top" xlink:title="NFIProxyServerToWorldModule.h">
<polygon fill="white" stroke="black" points="1913,-134.5 1913,-153.5 2073,-153.5 2073,-134.5 1913,-134.5"/>
<text text-anchor="middle" x="1993" y="-141.5" font-family="Helvetica,sans-Serif" font-size="10.00">NFIProxyServerToWorldModule.h</text>
</a>
</g>
</g>
<!-- Node14&#45;&gt;Node38 -->
<g id="edge27" class="edge"><title>Node14&#45;&gt;Node38</title>
<path fill="none" stroke="midnightblue" d="M1911.55,-185.726C1931.55,-175.727 1958.39,-162.307 1975.69,-153.655"/>
<polygon fill="midnightblue" stroke="midnightblue" points="1909.73,-182.721 1902.35,-190.324 1912.86,-188.982 1909.73,-182.721"/>
</g>
<!-- Node39 -->
<g id="node28" class="node"><title>Node39</title>
<g id="a_node28"><a xlink:href="_n_f_i_world_to_master_module_8h.html" target="_top" xlink:title="NFIWorldToMasterModule.h">
<polygon fill="white" stroke="black" points="2388.5,-134.5 2388.5,-153.5 2525.5,-153.5 2525.5,-134.5 2388.5,-134.5"/>
<text text-anchor="middle" x="2457" y="-141.5" font-family="Helvetica,sans-Serif" font-size="10.00">NFIWorldToMasterModule.h</text>
</a>
</g>
</g>
<!-- Node14&#45;&gt;Node39 -->
<g id="edge30" class="edge"><title>Node14&#45;&gt;Node39</title>
<path fill="none" stroke="midnightblue" d="M1956.29,-192.27C2067.05,-181.813 2279.08,-161.796 2388.27,-151.488"/>
<polygon fill="midnightblue" stroke="midnightblue" points="1955.84,-188.797 1946.21,-193.221 1956.5,-195.766 1955.84,-188.797"/>
</g>
<!-- Node40 -->
<g id="node29" class="node"><title>Node40</title>
<g id="a_node29"><a xlink:href="_n_f_c_world_to_master_module_8h.html" target="_top" xlink:title="NFCWorldToMasterModule.h">
<polygon fill="white" stroke="black" points="2386,-73 2386,-92 2528,-92 2528,-73 2386,-73"/>
<text text-anchor="middle" x="2457" y="-80" font-family="Helvetica,sans-Serif" font-size="10.00">NFCWorldToMasterModule.h</text>
</a>
</g>
</g>
<!-- Node14&#45;&gt;Node40 -->
<g id="edge42" class="edge"><title>Node14&#45;&gt;Node40</title>
<path fill="none" stroke="midnightblue" d="M1956.08,-194.134C2028.83,-188.207 2144.8,-176.128 2243,-154 2315.31,-137.705 2397.83,-106.904 2435.82,-92.0014"/>
<polygon fill="midnightblue" stroke="midnightblue" points="1955.8,-190.645 1946.11,-194.93 1956.36,-197.623 1955.8,-190.645"/>
</g>
<!-- Node41 -->
<g id="node30" class="node"><title>Node41</title>
<g id="a_node30"><a xlink:href="_n_f_c_world_to_master_module_8cpp.html" target="_top" xlink:title="NFCWorldToMasterModule.cpp">
<polygon fill="white" stroke="black" points="2381,-6 2381,-25 2533,-25 2533,-6 2381,-6"/>
<text text-anchor="middle" x="2457" y="-13" font-family="Helvetica,sans-Serif" font-size="10.00">NFCWorldToMasterModule.cpp</text>
</a>
</g>
</g>
<!-- Node14&#45;&gt;Node41 -->
<g id="edge43" class="edge"><title>Node14&#45;&gt;Node41</title>
<path fill="none" stroke="midnightblue" d="M1948.87,-188.715C1992.7,-180.955 2051.94,-169.072 2103,-154 2234.53,-115.177 2386.02,-48.6697 2438.2,-25.0946"/>
<polygon fill="midnightblue" stroke="midnightblue" points="1948.17,-185.285 1938.92,-190.453 1949.37,-192.18 1948.17,-185.285"/>
</g>
<!-- Node15&#45;&gt;Node16 -->
<g id="edge4" class="edge"><title>Node15&#45;&gt;Node16</title>
<path fill="none" stroke="midnightblue" d="M591.347,-132.402C535.125,-120.867 446.335,-102.65 394.473,-92.0091"/>
<polygon fill="midnightblue" stroke="midnightblue" points="590.951,-135.894 601.45,-134.475 592.358,-129.037 590.951,-135.894"/>
</g>
<!-- Node19 -->
<g id="node8" class="node"><title>Node19</title>
<g id="a_node8"><a xlink:href="_n_f_c_game_server_net___server_module_8h.html" target="_top" xlink:title="NFCGameServerNet_ServerModule.h">
<polygon fill="white" stroke="black" points="555,-73 555,-92 731,-92 731,-73 555,-73"/>
<text text-anchor="middle" x="643" y="-80" font-family="Helvetica,sans-Serif" font-size="10.00">NFCGameServerNet_ServerModule.h</text>
</a>
</g>
</g>
<!-- Node15&#45;&gt;Node19 -->
<g id="edge7" class="edge"><title>Node15&#45;&gt;Node19</title>
<path fill="none" stroke="midnightblue" d="M643,-124.317C643,-113.496 643,-100.398 643,-92.0091"/>
<polygon fill="midnightblue" stroke="midnightblue" points="639.5,-124.475 643,-134.475 646.5,-124.475 639.5,-124.475"/>
</g>
<!-- Node16&#45;&gt;Node17 -->
<g id="edge5" class="edge"><title>Node16&#45;&gt;Node17</title>
<path fill="none" stroke="midnightblue" d="M308.089,-70.4841C255.817,-57.6627 170.6,-36.7605 122.994,-25.0834"/>
<polygon fill="midnightblue" stroke="midnightblue" points="307.537,-73.9525 318.083,-72.9355 309.205,-67.154 307.537,-73.9525"/>
</g>
<!-- Node18 -->
<g id="node7" class="node"><title>Node18</title>
<g id="a_node7"><a xlink:href="_n_f_game_server_net___client_plugin_8cpp.html" target="_top" xlink:title="NFGameServerNet_ClientPlugin.cpp">
<polygon fill="white" stroke="black" points="194.5,-6 194.5,-25 367.5,-25 367.5,-6 194.5,-6"/>
<text text-anchor="middle" x="281" y="-13" font-family="Helvetica,sans-Serif" font-size="10.00">NFGameServerNet_ClientPlugin.cpp</text>
</a>
</g>
</g>
<!-- Node16&#45;&gt;Node18 -->
<g id="edge6" class="edge"><title>Node16&#45;&gt;Node18</title>
<path fill="none" stroke="midnightblue" d="M335.672,-65.8564C321.517,-53.0777 302.037,-35.4915 290.556,-25.1273"/>
<polygon fill="midnightblue" stroke="midnightblue" points="333.522,-68.6307 343.29,-72.7338 338.212,-63.4348 333.522,-68.6307"/>
</g>
<!-- Node20 -->
<g id="node9" class="node"><title>Node20</title>
<g id="a_node9"><a xlink:href="_n_f_c_game_server_net___server_module_8cpp.html" target="_top" xlink:title="NFCGameServerNet_ServerModule.cpp">
<polygon fill="white" stroke="black" points="385.5,-6 385.5,-25 572.5,-25 572.5,-6 385.5,-6"/>
<text text-anchor="middle" x="479" y="-13" font-family="Helvetica,sans-Serif" font-size="10.00">NFCGameServerNet_ServerModule.cpp</text>
</a>
</g>
</g>
<!-- Node19&#45;&gt;Node20 -->
<g id="edge8" class="edge"><title>Node19&#45;&gt;Node20</title>
<path fill="none" stroke="midnightblue" d="M611.724,-69.1041C579.162,-56.1984 529.025,-36.3272 500.607,-25.0637"/>
<polygon fill="midnightblue" stroke="midnightblue" points="610.636,-72.4376 621.222,-72.8685 613.215,-65.9301 610.636,-72.4376"/>
</g>
<!-- Node21 -->
<g id="node10" class="node"><title>Node21</title>
<g id="a_node10"><a xlink:href="_n_f_game_server_net___server_plugin_8cpp.html" target="_top" xlink:title="NFGameServerNet_ServerPlugin.cpp">
<polygon fill="white" stroke="black" points="591,-6 591,-25 767,-25 767,-6 591,-6"/>
<text text-anchor="middle" x="679" y="-13" font-family="Helvetica,sans-Serif" font-size="10.00">NFGameServerNet_ServerPlugin.cpp</text>
</a>
</g>
</g>
<!-- Node19&#45;&gt;Node21 -->
<g id="edge9" class="edge"><title>Node19&#45;&gt;Node21</title>
<path fill="none" stroke="midnightblue" d="M652.879,-63.6635C659.821,-51.1281 668.803,-34.9104 674.222,-25.1273"/>
<polygon fill="midnightblue" stroke="midnightblue" points="649.638,-62.2901 647.855,-72.7338 655.762,-65.6817 649.638,-62.2901"/>
</g>
<!-- Node23 -->
<g id="node12" class="node"><title>Node23</title>
<g id="a_node12"><a xlink:href="_n_f_c_login_to_master_module_8h.html" target="_top" xlink:title="NFCLoginToMasterModule.h">
<polygon fill="white" stroke="black" points="955,-73 955,-92 1095,-92 1095,-73 955,-73"/>
<text text-anchor="middle" x="1025" y="-80" font-family="Helvetica,sans-Serif" font-size="10.00">NFCLoginToMasterModule.h</text>
</a>
</g>
</g>
<!-- Node22&#45;&gt;Node23 -->
<g id="edge11" class="edge"><title>Node22&#45;&gt;Node23</title>
<path fill="none" stroke="midnightblue" d="M1231.71,-132.114C1182.61,-120.565 1106.05,-102.561 1061.18,-92.0091"/>
<polygon fill="midnightblue" stroke="midnightblue" points="1231.22,-135.593 1241.75,-134.475 1232.82,-128.779 1231.22,-135.593"/>
</g>
<!-- Node26 -->
<g id="node15" class="node"><title>Node26</title>
<g id="a_node15"><a xlink:href="_n_f_c_login_net___server_module_8h.html" target="_top" xlink:title="NFCLoginNet_ServerModule.h">
<polygon fill="white" stroke="black" points="1205,-73 1205,-92 1351,-92 1351,-73 1205,-73"/>
<text text-anchor="middle" x="1278" y="-80" font-family="Helvetica,sans-Serif" font-size="10.00">NFCLoginNet_ServerModule.h</text>
</a>
</g>
</g>
<!-- Node22&#45;&gt;Node26 -->
<g id="edge14" class="edge"><title>Node22&#45;&gt;Node26</title>
<path fill="none" stroke="midnightblue" d="M1278,-124.317C1278,-113.496 1278,-100.398 1278,-92.0091"/>
<polygon fill="midnightblue" stroke="midnightblue" points="1274.5,-124.475 1278,-134.475 1281.5,-124.475 1274.5,-124.475"/>
</g>
<!-- Node24 -->
<g id="node13" class="node"><title>Node24</title>
<g id="a_node13"><a xlink:href="_n_f_c_login_to_master_module_8cpp.html" target="_top" xlink:title="NFCLoginToMasterModule.cpp">
<polygon fill="white" stroke="black" points="785,-6 785,-25 935,-25 935,-6 785,-6"/>
<text text-anchor="middle" x="860" y="-13" font-family="Helvetica,sans-Serif" font-size="10.00">NFCLoginToMasterModule.cpp</text>
</a>
</g>
</g>
<!-- Node23&#45;&gt;Node24 -->
<g id="edge12" class="edge"><title>Node23&#45;&gt;Node24</title>
<path fill="none" stroke="midnightblue" d="M993.534,-69.1041C960.773,-56.1984 910.33,-36.3272 881.739,-25.0637"/>
<polygon fill="midnightblue" stroke="midnightblue" points="992.502,-72.4596 1003.09,-72.8685 995.068,-65.9468 992.502,-72.4596"/>
</g>
<!-- Node25 -->
<g id="node14" class="node"><title>Node25</title>
<g id="a_node14"><a xlink:href="_n_f_login_net___client_plugin_8cpp.html" target="_top" xlink:title="NFLoginNet_ClientPlugin.cpp">
<polygon fill="white" stroke="black" points="953.5,-6 953.5,-25 1096.5,-25 1096.5,-6 953.5,-6"/>
<text text-anchor="middle" x="1025" y="-13" font-family="Helvetica,sans-Serif" font-size="10.00">NFLoginNet_ClientPlugin.cpp</text>
</a>
</g>
</g>
<!-- Node23&#45;&gt;Node25 -->
<g id="edge13" class="edge"><title>Node23&#45;&gt;Node25</title>
<path fill="none" stroke="midnightblue" d="M1025,-62.537C1025,-50.1703 1025,-34.6198 1025,-25.1273"/>
<polygon fill="midnightblue" stroke="midnightblue" points="1021.5,-62.7338 1025,-72.7338 1028.5,-62.7338 1021.5,-62.7338"/>
</g>
<!-- Node27 -->
<g id="node16" class="node"><title>Node27</title>
<g id="a_node16"><a xlink:href="_n_f_c_login_net___server_module_8cpp.html" target="_top" xlink:title="NFCLoginNet_ServerModule.cpp">
<polygon fill="white" stroke="black" points="1114.5,-6 1114.5,-25 1271.5,-25 1271.5,-6 1114.5,-6"/>
<text text-anchor="middle" x="1193" y="-13" font-family="Helvetica,sans-Serif" font-size="10.00">NFCLoginNet_ServerModule.cpp</text>
</a>
</g>
</g>
<!-- Node26&#45;&gt;Node27 -->
<g id="edge15" class="edge"><title>Node26&#45;&gt;Node27</title>
<path fill="none" stroke="midnightblue" d="M1258.47,-66.5678C1241.7,-53.7376 1218.09,-35.6853 1204.28,-25.1273"/>
<polygon fill="midnightblue" stroke="midnightblue" points="1256.47,-69.4395 1266.54,-72.7338 1260.72,-63.879 1256.47,-69.4395"/>
</g>
<!-- Node28 -->
<g id="node17" class="node"><title>Node28</title>
<g id="a_node17"><a xlink:href="_n_f_login_net___server_plugin_8cpp.html" target="_top" xlink:title="NFLoginNet_ServerPlugin.cpp">
<polygon fill="white" stroke="black" points="1290,-6 1290,-25 1436,-25 1436,-6 1290,-6"/>
<text text-anchor="middle" x="1363" y="-13" font-family="Helvetica,sans-Serif" font-size="10.00">NFLoginNet_ServerPlugin.cpp</text>
</a>
</g>
</g>
<!-- Node26&#45;&gt;Node28 -->
<g id="edge16" class="edge"><title>Node26&#45;&gt;Node28</title>
<path fill="none" stroke="midnightblue" d="M1297.53,-66.5678C1314.3,-53.7376 1337.91,-35.6853 1351.72,-25.1273"/>
<polygon fill="midnightblue" stroke="midnightblue" points="1295.28,-63.879 1289.46,-72.7338 1299.53,-69.4395 1295.28,-63.879"/>
</g>
<!-- Node29&#45;&gt;Node30 -->
<g id="edge18" class="edge"><title>Node29&#45;&gt;Node30</title>
<path fill="none" stroke="midnightblue" d="M1754.24,-128.93C1736.51,-117.459 1712.04,-101.634 1697.16,-92.0091"/>
<polygon fill="midnightblue" stroke="midnightblue" points="1752.52,-131.983 1762.82,-134.475 1756.32,-126.106 1752.52,-131.983"/>
</g>
<!-- Node29&#45;&gt;Node33 -->
<g id="edge21" class="edge"><title>Node29&#45;&gt;Node33</title>
<path fill="none" stroke="midnightblue" d="M1800.63,-129.556C1821.72,-118.042 1851.46,-101.811 1869.41,-92.0091"/>
<polygon fill="midnightblue" stroke="midnightblue" points="1798.72,-126.612 1791.62,-134.475 1802.07,-132.756 1798.72,-126.612"/>
</g>
<!-- Node29&#45;&gt;Node35 -->
<g id="edge24" class="edge"><title>Node29&#45;&gt;Node35</title>
<path fill="none" stroke="midnightblue" d="M1832.6,-132.637C1888.28,-122.445 1973.32,-106.876 2032.71,-96.0023"/>
<polygon fill="midnightblue" stroke="midnightblue" points="1831.77,-129.231 1822.56,-134.475 1833.03,-136.117 1831.77,-129.231"/>
</g>
<!-- Node31 -->
<g id="node20" class="node"><title>Node31</title>
<g id="a_node20"><a xlink:href="_n_f_c_proxy_server_to_game_module_8cpp.html" target="_top" xlink:title="NFCProxyServerToGameModule.cpp">
<polygon fill="white" stroke="black" points="1454,-6 1454,-25 1630,-25 1630,-6 1454,-6"/>
<text text-anchor="middle" x="1542" y="-13" font-family="Helvetica,sans-Serif" font-size="10.00">NFCProxyServerToGameModule.cpp</text>
</a>
</g>
</g>
<!-- Node30&#45;&gt;Node31 -->
<g id="edge19" class="edge"><title>Node30&#45;&gt;Node31</title>
<path fill="none" stroke="midnightblue" d="M1655.85,-68.6127C1627.72,-55.7387 1585.27,-36.3059 1560.93,-25.1672"/>
<polygon fill="midnightblue" stroke="midnightblue" points="1654.59,-71.8887 1665.14,-72.8685 1657.51,-65.5239 1654.59,-71.8887"/>
</g>
<!-- Node32 -->
<g id="node21" class="node"><title>Node32</title>
<g id="a_node21"><a xlink:href="_n_f_proxy_server_net___client_plugin_8cpp.html" target="_top" xlink:title="NFProxyServerNet_ClientPlugin.cpp">
<polygon fill="white" stroke="black" points="1648.5,-6 1648.5,-25 1821.5,-25 1821.5,-6 1648.5,-6"/>
<text text-anchor="middle" x="1735" y="-13" font-family="Helvetica,sans-Serif" font-size="10.00">NFProxyServerNet_ClientPlugin.cpp</text>
</a>
</g>
</g>
<!-- Node30&#45;&gt;Node32 -->
<g id="edge20" class="edge"><title>Node30&#45;&gt;Node32</title>
<path fill="none" stroke="midnightblue" d="M1697.13,-64.7705C1707.07,-52.0972 1720.33,-35.201 1728.23,-25.1273"/>
<polygon fill="midnightblue" stroke="midnightblue" points="1694.3,-62.7059 1690.88,-72.7338 1699.8,-67.0269 1694.3,-62.7059"/>
</g>
<!-- Node33&#45;&gt;Node32 -->
<g id="edge23" class="edge"><title>Node33&#45;&gt;Node32</title>
<path fill="none" stroke="midnightblue" d="M1855.65,-68.781C1825.94,-55.9085 1780.82,-36.3545 1755,-25.1672"/>
<polygon fill="midnightblue" stroke="midnightblue" points="1854.51,-72.1038 1865.08,-72.8685 1857.3,-65.6809 1854.51,-72.1038"/>
</g>
<!-- Node34 -->
<g id="node23" class="node"><title>Node34</title>
<g id="a_node23"><a xlink:href="_n_f_c_proxy_server_to_world_module_8cpp.html" target="_top" xlink:title="NFCProxyServerToWorldModule.cpp">
<polygon fill="white" stroke="black" points="1839.5,-6 1839.5,-25 2014.5,-25 2014.5,-6 1839.5,-6"/>
<text text-anchor="middle" x="1927" y="-13" font-family="Helvetica,sans-Serif" font-size="10.00">NFCProxyServerToWorldModule.cpp</text>
</a>
</g>
</g>
<!-- Node33&#45;&gt;Node34 -->
<g id="edge22" class="edge"><title>Node33&#45;&gt;Node34</title>
<path fill="none" stroke="midnightblue" d="M1896.29,-64.0347C1904.42,-51.4499 1915.04,-35.0072 1921.43,-25.1273"/>
<polygon fill="midnightblue" stroke="midnightblue" points="1893.15,-62.4351 1890.66,-72.7338 1899.03,-66.2341 1893.15,-62.4351"/>
</g>
<!-- Node36 -->
<g id="node25" class="node"><title>Node36</title>
<g id="a_node25"><a xlink:href="_n_f_c_proxy_server_net___server_module_8cpp.html" target="_top" xlink:title="NFCProxyServerNet_Server\lModule.cpp">
<polygon fill="white" stroke="black" points="2033,-0.5 2033,-30.5 2169,-30.5 2169,-0.5 2033,-0.5"/>
<text text-anchor="start" x="2041" y="-18.5" font-family="Helvetica,sans-Serif" font-size="10.00">NFCProxyServerNet_Server</text>
<text text-anchor="middle" x="2101" y="-7.5" font-family="Helvetica,sans-Serif" font-size="10.00">Module.cpp</text>
</a>
</g>
</g>
<!-- Node35&#45;&gt;Node36 -->
<g id="edge25" class="edge"><title>Node35&#45;&gt;Node36</title>
<path fill="none" stroke="midnightblue" d="M2101,-57.1081C2101,-48.1539 2101,-38.3227 2101,-30.5765"/>
<polygon fill="midnightblue" stroke="midnightblue" points="2097.5,-57.3959 2101,-67.396 2104.5,-57.396 2097.5,-57.3959"/>
</g>
<!-- Node37 -->
<g id="node26" class="node"><title>Node37</title>
<g id="a_node26"><a xlink:href="_n_f_proxy_server_net___server_plugin_8cpp.html" target="_top" xlink:title="NFProxyServerNet_ServerPlugin.cpp">
<polygon fill="white" stroke="black" points="2187.5,-6 2187.5,-25 2362.5,-25 2362.5,-6 2187.5,-6"/>
<text text-anchor="middle" x="2275" y="-13" font-family="Helvetica,sans-Serif" font-size="10.00">NFProxyServerNet_ServerPlugin.cpp</text>
</a>
</g>
</g>
<!-- Node35&#45;&gt;Node37 -->
<g id="edge26" class="edge"><title>Node35&#45;&gt;Node37</title>
<path fill="none" stroke="midnightblue" d="M2148.42,-63.7838C2182.16,-51.1807 2225.99,-34.8082 2252.23,-25.007"/>
<polygon fill="midnightblue" stroke="midnightblue" points="2146.9,-60.6178 2138.76,-67.396 2149.35,-67.1752 2146.9,-60.6178"/>
</g>
<!-- Node38&#45;&gt;Node33 -->
<g id="edge28" class="edge"><title>Node38&#45;&gt;Node33</title>
<path fill="none" stroke="midnightblue" d="M1968.6,-129.556C1947.7,-118.042 1918.24,-101.811 1900.45,-92.0091"/>
<polygon fill="midnightblue" stroke="midnightblue" points="1967.08,-132.715 1977.53,-134.475 1970.46,-126.584 1967.08,-132.715"/>
</g>
<!-- Node38&#45;&gt;Node35 -->
<g id="edge29" class="edge"><title>Node38&#45;&gt;Node35</title>
<path fill="none" stroke="midnightblue" d="M2017.43,-129.542C2034.76,-119.991 2057.98,-107.199 2075.55,-97.523"/>
<polygon fill="midnightblue" stroke="midnightblue" points="2015.54,-126.584 2008.47,-134.475 2018.92,-132.715 2015.54,-126.584"/>
</g>
<!-- Node39&#45;&gt;Node40 -->
<g id="edge31" class="edge"><title>Node39&#45;&gt;Node40</title>
<path fill="none" stroke="midnightblue" d="M2457,-124.317C2457,-113.496 2457,-100.398 2457,-92.0091"/>
<polygon fill="midnightblue" stroke="midnightblue" points="2453.5,-124.475 2457,-134.475 2460.5,-124.475 2453.5,-124.475"/>
</g>
<!-- Node43 -->
<g id="node32" class="node"><title>Node43</title>
<g id="a_node32"><a xlink:href="_n_f_c_world_net___server_module_8h.html" target="_top" xlink:title="NFCWorldNet_ServerModule.h">
<polygon fill="white" stroke="black" points="2720.5,-73 2720.5,-92 2869.5,-92 2869.5,-73 2720.5,-73"/>
<text text-anchor="middle" x="2795" y="-80" font-family="Helvetica,sans-Serif" font-size="10.00">NFCWorldNet_ServerModule.h</text>
</a>
</g>
</g>
<!-- Node39&#45;&gt;Node43 -->
<g id="edge34" class="edge"><title>Node39&#45;&gt;Node43</title>
<path fill="none" stroke="midnightblue" d="M2515.58,-132.688C2581.01,-121.17 2685.71,-102.738 2746.66,-92.0091"/>
<polygon fill="midnightblue" stroke="midnightblue" points="2514.67,-129.294 2505.43,-134.475 2515.88,-136.188 2514.67,-129.294"/>
</g>
<!-- Node40&#45;&gt;Node41 -->
<g id="edge32" class="edge"><title>Node40&#45;&gt;Node41</title>
<path fill="none" stroke="midnightblue" d="M2457,-62.537C2457,-50.1703 2457,-34.6198 2457,-25.1273"/>
<polygon fill="midnightblue" stroke="midnightblue" points="2453.5,-62.7338 2457,-72.7338 2460.5,-62.7338 2453.5,-62.7338"/>
</g>
<!-- Node42 -->
<g id="node31" class="node"><title>Node42</title>
<g id="a_node31"><a xlink:href="_n_f_world_net___client_plugin_8cpp.html" target="_top" xlink:title="NFWorldNet_ClientPlugin.cpp">
<polygon fill="white" stroke="black" points="2551,-6 2551,-25 2697,-25 2697,-6 2551,-6"/>
<text text-anchor="middle" x="2624" y="-13" font-family="Helvetica,sans-Serif" font-size="10.00">NFWorldNet_ClientPlugin.cpp</text>
</a>
</g>
</g>
<!-- Node40&#45;&gt;Node42 -->
<g id="edge33" class="edge"><title>Node40&#45;&gt;Node42</title>
<path fill="none" stroke="midnightblue" d="M2488.85,-69.1041C2522.01,-56.1984 2573.06,-36.3272 2602,-25.0637"/>
<polygon fill="midnightblue" stroke="midnightblue" points="2487.23,-65.9796 2479.18,-72.8685 2489.76,-72.5029 2487.23,-65.9796"/>
</g>
<!-- Node44 -->
<g id="node33" class="node"><title>Node44</title>
<g id="a_node33"><a xlink:href="_n_f_c_world_net___server_module_8cpp.html" target="_top" xlink:title="NFCWorldNet_ServerModule.cpp">
<polygon fill="white" stroke="black" points="2715.5,-6 2715.5,-25 2874.5,-25 2874.5,-6 2715.5,-6"/>
<text text-anchor="middle" x="2795" y="-13" font-family="Helvetica,sans-Serif" font-size="10.00">NFCWorldNet_ServerModule.cpp</text>
</a>
</g>
</g>
<!-- Node43&#45;&gt;Node44 -->
<g id="edge35" class="edge"><title>Node43&#45;&gt;Node44</title>
<path fill="none" stroke="midnightblue" d="M2795,-62.537C2795,-50.1703 2795,-34.6198 2795,-25.1273"/>
<polygon fill="midnightblue" stroke="midnightblue" points="2791.5,-62.7338 2795,-72.7338 2798.5,-62.7338 2791.5,-62.7338"/>
</g>
<!-- Node45 -->
<g id="node34" class="node"><title>Node45</title>
<g id="a_node34"><a xlink:href="_n_f_world_net___server_plugin_8cpp.html" target="_top" xlink:title="NFWorldNet_ServerPlugin.cpp">
<polygon fill="white" stroke="black" points="2893,-6 2893,-25 3041,-25 3041,-6 2893,-6"/>
<text text-anchor="middle" x="2967" y="-13" font-family="Helvetica,sans-Serif" font-size="10.00">NFWorldNet_ServerPlugin.cpp</text>
</a>
</g>
</g>
<!-- Node43&#45;&gt;Node45 -->
<g id="edge36" class="edge"><title>Node43&#45;&gt;Node45</title>
<path fill="none" stroke="midnightblue" d="M2827.36,-69.2706C2861.5,-56.3699 2914.41,-36.3757 2944.34,-25.0637"/>
<polygon fill="midnightblue" stroke="midnightblue" points="2825.96,-66.0594 2817.84,-72.8685 2828.43,-72.6074 2825.96,-66.0594"/>
</g>
</g>
</svg>
        <g id="navigator" transform="translate(0 0)" fill="#404254">
                <rect fill="#f2f5e9" fill-opacity="0.5" stroke="#606060" stroke-width=".5" x="0" y="0" width="60" height="60"/>
                <use id="zoomplus" xlink:href="#zoomPlus" x="17" y="9" onmousedown="handleZoom(evt,'in')"/>
                <use id="zoomminus" xlink:href="#zoomMin" x="42" y="9" onmousedown="handleZoom(evt,'out')"/>
                <use id="reset" xlink:href="#resetDef" x="30" y="36" onmousedown="handleReset()"/>
                <g id="arrowUp" xlink:href="#dirArrow" transform="translate(30 24)" onmousedown="handlePan(0,-1)">
                  <use xlink:href="#rim" fill="#404040">
                        <set attributeName="fill" to="#808080" begin="arrowUp.mouseover" end="arrowUp.mouseout"/>
                  </use>
                  <path fill="none" stroke="white" stroke-width="1.5" d="M0,-3.0v7 M-2.5,-0.5L0,-3.0L2.5,-0.5"/>
                </g>
                <g id="arrowRight" xlink:href="#dirArrow" transform="rotate(90) translate(36 -43)" onmousedown="handlePan(1,0)">
                  <use xlink:href="#rim" fill="#404040">
                        <set attributeName="fill" to="#808080" begin="arrowRight.mouseover" end="arrowRight.mouseout"/>
                  </use>
                  <path fill="none" stroke="white" stroke-width="1.5" d="M0,-3.0v7 M-2.5,-0.5L0,-3.0L2.5,-0.5"/>
                </g>
                <g id="arrowDown" xlink:href="#dirArrow" transform="rotate(180) translate(-30 -48)" onmousedown="handlePan(0,1)">
                  <use xlink:href="#rim" fill="#404040">
                        <set attributeName="fill" to="#808080" begin="arrowDown.mouseover" end="arrowDown.mouseout"/>
                  </use>
                  <path fill="none" stroke="white" stroke-width="1.5" d="M0,-3.0v7 M-2.5,-0.5L0,-3.0L2.5,-0.5"/>
                </g>
                <g id="arrowLeft" xlink:href="#dirArrow" transform="rotate(270) translate(-36 17)" onmousedown="handlePan(-1,0)">
                  <use xlink:href="#rim" fill="#404040">
                        <set attributeName="fill" to="#808080" begin="arrowLeft.mouseover" end="arrowLeft.mouseout"/>
                  </use>
                  <path fill="none" stroke="white" stroke-width="1.5" d="M0,-3.0v7 M-2.5,-0.5L0,-3.0L2.5,-0.5"/>
                </g>
        </g>
        <svg viewBox="0 0 15 15" width="100%" height="30px" preserveAspectRatio="xMaxYMin meet">
         <g id="arrow_out" transform="scale(0.3 0.3)">
          <a xlink:href="_n_f_c_consistent_hash_8hpp__dep__incl_org.svg" target="_base">
           <rect id="button" ry="5" rx="5" y="6" x="6" height="38" width="38"
                fill="#f2f5e9" fill-opacity="0.5" stroke="#606060" stroke-width="1.0"/>
           <path id="arrow"
             d="M 11.500037,31.436501 C 11.940474,20.09759 22.043105,11.32322 32.158766,21.979434 L 37.068811,17.246167 C 37.068811,17.246167 37.088388,32 37.088388,32 L 22.160133,31.978069 C 22.160133,31.978069 26.997745,27.140456 26.997745,27.140456 C 18.528582,18.264221 13.291696,25.230495 11.500037,31.436501 z"
             style="fill:#404040;"/>
          </a>
         </g>
        </svg>
</svg>
