<?xml version="1.0" encoding="UTF-8" standalone="no"?>
<!DOCTYPE svg PUBLIC "-//W3C//DTD SVG 1.1//EN"
 "http://www.w3.org/Graphics/SVG/1.1/DTD/svg11.dtd">
<!-- Generated by graphviz version 2.38.0 (20140413.2041)
 -->
<!-- Title: NFIRecordManager.h Pages: 1 -->
<svg width="1392pt" height="375pt"
 viewBox="0.00 0.00 1392.21 375.00" xmlns="http://www.w3.org/2000/svg" xmlns:xlink="http://www.w3.org/1999/xlink">
<g id="graph0" class="graph" transform="scale(1 1) rotate(0) translate(4 371)">
<title>NFIRecordManager.h</title>
<polygon fill="white" stroke="none" points="-4,4 -4,-371 1388.21,-371 1388.21,4 -4,4"/>
<!-- Node0 -->
<g id="node1" class="node"><title>Node0</title>
<polygon fill="#bfbfbf" stroke="black" points="750,-347.5 750,-366.5 858,-366.5 858,-347.5 750,-347.5"/>
<text text-anchor="middle" x="804" y="-354.5" font-family="Helvetica,sans-Serif" font-size="10.00">NFIRecordManager.h</text>
</g>
<!-- Node1 -->
<g id="node2" class="node"><title>Node1</title>
<g id="a_node2"><a xlink:href="_n_f_i_record_8h.html" target="_top" xlink:title="NFIRecord.h">
<polygon fill="white" stroke="black" points="621.5,-291.5 621.5,-310.5 692.5,-310.5 692.5,-291.5 621.5,-291.5"/>
<text text-anchor="middle" x="657" y="-298.5" font-family="Helvetica,sans-Serif" font-size="10.00">NFIRecord.h</text>
</a>
</g>
</g>
<!-- Node0&#45;&gt;Node1 -->
<g id="edge1" class="edge"><title>Node0&#45;&gt;Node1</title>
<path fill="none" stroke="midnightblue" d="M780.707,-347.444C756.193,-338.438 717.404,-324.189 689.8,-314.049"/>
<polygon fill="midnightblue" stroke="midnightblue" points="690.777,-310.679 680.184,-310.516 688.363,-317.25 690.777,-310.679"/>
</g>
<!-- Node28 -->
<g id="node29" class="node"><title>Node28</title>
<g id="a_node29"><a xlink:href="_n_f_map_8h.html" target="_top" xlink:title="NFMap.h">
<polygon fill="white" stroke="black" points="1188,-235.5 1188,-254.5 1244,-254.5 1244,-235.5 1188,-235.5"/>
<text text-anchor="middle" x="1216" y="-242.5" font-family="Helvetica,sans-Serif" font-size="10.00">NFMap.h</text>
</a>
</g>
</g>
<!-- Node0&#45;&gt;Node28 -->
<g id="edge35" class="edge"><title>Node0&#45;&gt;Node28</title>
<path fill="none" stroke="midnightblue" d="M835.986,-347.46C910.958,-327.443 1097.75,-277.573 1178.18,-256.098"/>
<polygon fill="midnightblue" stroke="midnightblue" points="1179.14,-259.464 1187.9,-253.503 1177.33,-252.701 1179.14,-259.464"/>
</g>
<!-- Node2 -->
<g id="node3" class="node"><title>Node2</title>
<g id="a_node3"><a xlink:href="_n_f_define_8h.html" target="_top" xlink:title="NFDefine.h">
<polygon fill="white" stroke="black" points="559.5,-235.5 559.5,-254.5 624.5,-254.5 624.5,-235.5 559.5,-235.5"/>
<text text-anchor="middle" x="592" y="-242.5" font-family="Helvetica,sans-Serif" font-size="10.00">NFDefine.h</text>
</a>
</g>
</g>
<!-- Node1&#45;&gt;Node2 -->
<g id="edge2" class="edge"><title>Node1&#45;&gt;Node2</title>
<path fill="none" stroke="midnightblue" d="M646.557,-291.324C636.854,-283.263 622.185,-271.077 610.5,-261.369"/>
<polygon fill="midnightblue" stroke="midnightblue" points="612.562,-258.532 602.633,-254.834 608.089,-263.916 612.562,-258.532"/>
</g>
<!-- Node4 -->
<g id="node5" class="node"><title>Node4</title>
<g id="a_node5"><a xlink:href="_a_f_data_list_8hpp.html" target="_top" xlink:title="AFDataList.hpp">
<polygon fill="white" stroke="black" points="615,-179.5 615,-198.5 699,-198.5 699,-179.5 615,-179.5"/>
<text text-anchor="middle" x="657" y="-186.5" font-family="Helvetica,sans-Serif" font-size="10.00">AFDataList.hpp</text>
</a>
</g>
</g>
<!-- Node1&#45;&gt;Node4 -->
<g id="edge34" class="edge"><title>Node1&#45;&gt;Node4</title>
<path fill="none" stroke="midnightblue" d="M657,-291.368C657,-273.617 657,-232.666 657,-208.597"/>
<polygon fill="midnightblue" stroke="midnightblue" points="660.5,-208.591 657,-198.591 653.5,-208.591 660.5,-208.591"/>
</g>
<!-- Node3 -->
<g id="node4" class="node"><title>Node3</title>
<polygon fill="white" stroke="#bfbfbf" points="0,-118 0,-137 58,-137 58,-118 0,-118"/>
<text text-anchor="middle" x="29" y="-125" font-family="Helvetica,sans-Serif" font-size="10.00">functional</text>
</g>
<!-- Node2&#45;&gt;Node3 -->
<g id="edge3" class="edge"><title>Node2&#45;&gt;Node3</title>
<path fill="none" stroke="midnightblue" d="M559.303,-237.918C479.109,-222.892 266.345,-182.375 90,-143 82.8422,-141.402 75.2269,-139.64 67.8906,-137.913"/>
<polygon fill="midnightblue" stroke="midnightblue" points="68.6667,-134.5 58.1287,-135.596 67.0501,-141.31 68.6667,-134.5"/>
</g>
<!-- Node2&#45;&gt;Node4 -->
<g id="edge4" class="edge"><title>Node2&#45;&gt;Node4</title>
<path fill="none" stroke="midnightblue" d="M602.443,-235.324C612.146,-227.263 626.815,-215.077 638.5,-205.369"/>
<polygon fill="midnightblue" stroke="midnightblue" points="640.911,-207.916 646.367,-198.834 636.438,-202.532 640.911,-207.916"/>
</g>
<!-- Node20 -->
<g id="node21" class="node"><title>Node20</title>
<g id="a_node21"><a xlink:href="_n_f_g_u_i_d_8h.html" target="_top" xlink:title="NFComm/NFPluginModule\l/NFGUID.h">
<polygon fill="white" stroke="black" points="114,-112.5 114,-142.5 246,-142.5 246,-112.5 114,-112.5"/>
<text text-anchor="start" x="122" y="-130.5" font-family="Helvetica,sans-Serif" font-size="10.00">NFComm/NFPluginModule</text>
<text text-anchor="middle" x="180" y="-119.5" font-family="Helvetica,sans-Serif" font-size="10.00">/NFGUID.h</text>
</a>
</g>
</g>
<!-- Node2&#45;&gt;Node20 -->
<g id="edge33" class="edge"><title>Node2&#45;&gt;Node20</title>
<path fill="none" stroke="midnightblue" d="M561.37,-235.413C493.424,-216.365 329.061,-170.288 239.909,-145.295"/>
<polygon fill="midnightblue" stroke="midnightblue" points="240.782,-141.905 230.209,-142.575 238.893,-148.645 240.782,-141.905"/>
</g>
<!-- Node4&#45;&gt;Node3 -->
<g id="edge17" class="edge"><title>Node4&#45;&gt;Node3</title>
<path fill="none" stroke="midnightblue" d="M614.653,-188.321C517.615,-188.284 272.122,-183.776 72,-143 68.309,-142.248 64.4968,-141.271 60.7374,-140.179"/>
<polygon fill="midnightblue" stroke="midnightblue" points="61.6193,-136.787 51.029,-137.098 59.5015,-143.459 61.6193,-136.787"/>
</g>
<!-- Node5 -->
<g id="node6" class="node"><title>Node5</title>
<polygon fill="white" stroke="#bfbfbf" points="1263.5,-0.5 1263.5,-19.5 1304.5,-19.5 1304.5,-0.5 1263.5,-0.5"/>
<text text-anchor="middle" x="1284" y="-7.5" font-family="Helvetica,sans-Serif" font-size="10.00">string</text>
</g>
<!-- Node4&#45;&gt;Node5 -->
<g id="edge5" class="edge"><title>Node4&#45;&gt;Node5</title>
<path fill="none" stroke="midnightblue" d="M699.031,-187.375C761.572,-185.286 882.054,-176.77 978,-143 1003.38,-134.067 1005.87,-123.897 1030,-112 1108.48,-73.3089 1205.68,-37.9574 1253.91,-21.2063"/>
<polygon fill="midnightblue" stroke="midnightblue" points="1255.13,-24.4898 1263.44,-17.9196 1252.85,-17.8726 1255.13,-24.4898"/>
</g>
<!-- Node6 -->
<g id="node7" class="node"><title>Node6</title>
<polygon fill="white" stroke="#bfbfbf" points="264,-118 264,-137 310,-137 310,-118 264,-118"/>
<text text-anchor="middle" x="287" y="-125" font-family="Helvetica,sans-Serif" font-size="10.00">cstring</text>
</g>
<!-- Node4&#45;&gt;Node6 -->
<g id="edge6" class="edge"><title>Node4&#45;&gt;Node6</title>
<path fill="none" stroke="midnightblue" d="M614.831,-186.343C550.066,-182.92 422.72,-172.702 319,-143 317.065,-142.446 315.097,-141.794 313.137,-141.078"/>
<polygon fill="midnightblue" stroke="midnightblue" points="314.168,-137.717 303.589,-137.129 311.492,-144.185 314.168,-137.717"/>
</g>
<!-- Node7 -->
<g id="node8" class="node"><title>Node7</title>
<polygon fill="white" stroke="#bfbfbf" points="1185,-56.5 1185,-75.5 1239,-75.5 1239,-56.5 1185,-56.5"/>
<text text-anchor="middle" x="1212" y="-63.5" font-family="Helvetica,sans-Serif" font-size="10.00">iostream</text>
</g>
<!-- Node4&#45;&gt;Node7 -->
<g id="edge7" class="edge"><title>Node4&#45;&gt;Node7</title>
<path fill="none" stroke="midnightblue" d="M699.031,-185.522C783.385,-180.127 970.333,-165.931 1030,-143 1052.33,-134.418 1052.61,-122.716 1074,-112 1106.61,-95.6621 1146.45,-83.4148 1174.93,-75.8546"/>
<polygon fill="midnightblue" stroke="midnightblue" points="1176.07,-79.1754 1184.87,-73.2824 1174.31,-72.3985 1176.07,-79.1754"/>
</g>
<!-- Node8 -->
<g id="node9" class="node"><title>Node8</title>
<polygon fill="white" stroke="#bfbfbf" points="77,-56.5 77,-75.5 125,-75.5 125,-56.5 77,-56.5"/>
<text text-anchor="middle" x="101" y="-63.5" font-family="Helvetica,sans-Serif" font-size="10.00">stdlib.h</text>
</g>
<!-- Node4&#45;&gt;Node8 -->
<g id="edge8" class="edge"><title>Node4&#45;&gt;Node8</title>
<path fill="none" stroke="midnightblue" d="M614.667,-187.685C491.586,-186.342 140.303,-179.333 105,-143 90.5737,-128.153 92.3078,-103.011 95.8247,-85.7379"/>
<polygon fill="midnightblue" stroke="midnightblue" points="99.301,-86.2519 98.2414,-75.7102 92.4958,-84.6118 99.301,-86.2519"/>
</g>
<!-- Node9 -->
<g id="node10" class="node"><title>Node9</title>
<polygon fill="white" stroke="#bfbfbf" points="328.5,-118 328.5,-137 375.5,-137 375.5,-118 328.5,-118"/>
<text text-anchor="middle" x="352" y="-125" font-family="Helvetica,sans-Serif" font-size="10.00">math.h</text>
</g>
<!-- Node4&#45;&gt;Node9 -->
<g id="edge9" class="edge"><title>Node4&#45;&gt;Node9</title>
<path fill="none" stroke="midnightblue" d="M614.794,-184.318C560.684,-178.852 464.371,-166.597 385,-143 382.856,-142.362 380.667,-141.62 378.487,-140.815"/>
<polygon fill="midnightblue" stroke="midnightblue" points="379.744,-137.548 369.163,-137.01 377.099,-144.029 379.744,-137.548"/>
</g>
<!-- Node10 -->
<g id="node11" class="node"><title>Node10</title>
<polygon fill="white" stroke="#bfbfbf" points="1082.5,-118 1082.5,-137 1111.5,-137 1111.5,-118 1082.5,-118"/>
<text text-anchor="middle" x="1097" y="-125" font-family="Helvetica,sans-Serif" font-size="10.00">list</text>
</g>
<!-- Node4&#45;&gt;Node10 -->
<g id="edge10" class="edge"><title>Node4&#45;&gt;Node10</title>
<path fill="none" stroke="midnightblue" d="M699.079,-188.248C774.574,-187.635 937.342,-181.471 1068,-143 1069.67,-142.508 1071.36,-141.923 1073.04,-141.275"/>
<polygon fill="midnightblue" stroke="midnightblue" points="1074.68,-144.376 1082.36,-137.079 1071.81,-137.993 1074.68,-144.376"/>
</g>
<!-- Node11 -->
<g id="node12" class="node"><title>Node11</title>
<polygon fill="white" stroke="#bfbfbf" points="394,-118 394,-137 436,-137 436,-118 394,-118"/>
<text text-anchor="middle" x="415" y="-125" font-family="Helvetica,sans-Serif" font-size="10.00">vector</text>
</g>
<!-- Node4&#45;&gt;Node11 -->
<g id="edge11" class="edge"><title>Node4&#45;&gt;Node11</title>
<path fill="none" stroke="midnightblue" d="M614.762,-182.111C571.389,-175.354 502.315,-162.612 445,-143 443.382,-142.446 441.738,-141.827 440.094,-141.165"/>
<polygon fill="midnightblue" stroke="midnightblue" points="441.449,-137.937 430.891,-137.06 438.598,-144.33 441.449,-137.937"/>
</g>
<!-- Node12 -->
<g id="node13" class="node"><title>Node12</title>
<polygon fill="white" stroke="#bfbfbf" points="1129.5,-118 1129.5,-137 1164.5,-137 1164.5,-118 1129.5,-118"/>
<text text-anchor="middle" x="1147" y="-125" font-family="Helvetica,sans-Serif" font-size="10.00">map</text>
</g>
<!-- Node4&#45;&gt;Node12 -->
<g id="edge12" class="edge"><title>Node4&#45;&gt;Node12</title>
<path fill="none" stroke="midnightblue" d="M699.076,-186.126C797.979,-181.367 1042.78,-167.428 1121,-143 1122.25,-142.61 1123.5,-142.155 1124.75,-141.653"/>
<polygon fill="midnightblue" stroke="midnightblue" points="1126.54,-144.676 1133.98,-137.135 1123.46,-138.389 1126.54,-144.676"/>
</g>
<!-- Node13 -->
<g id="node14" class="node"><title>Node13</title>
<polygon fill="white" stroke="#bfbfbf" points="454,-118 454,-137 510,-137 510,-118 454,-118"/>
<text text-anchor="middle" x="482" y="-125" font-family="Helvetica,sans-Serif" font-size="10.00">algorithm</text>
</g>
<!-- Node4&#45;&gt;Node13 -->
<g id="edge13" class="edge"><title>Node4&#45;&gt;Node13</title>
<path fill="none" stroke="midnightblue" d="M629.085,-179.422C601.093,-170.698 556.834,-156.569 519,-143 517.1,-142.319 515.152,-141.604 513.19,-140.872"/>
<polygon fill="midnightblue" stroke="midnightblue" points="514.032,-137.447 503.442,-137.147 511.534,-143.986 514.032,-137.447"/>
</g>
<!-- Node14 -->
<g id="node15" class="node"><title>Node14</title>
<polygon fill="white" stroke="#bfbfbf" points="528,-118 528,-137 580,-137 580,-118 528,-118"/>
<text text-anchor="middle" x="554" y="-125" font-family="Helvetica,sans-Serif" font-size="10.00">assert.h</text>
</g>
<!-- Node4&#45;&gt;Node14 -->
<g id="edge14" class="edge"><title>Node4&#45;&gt;Node14</title>
<path fill="none" stroke="midnightblue" d="M642.243,-179.475C625.339,-169.711 597.417,-153.581 577.51,-142.081"/>
<polygon fill="midnightblue" stroke="midnightblue" points="579.14,-138.981 568.73,-137.009 575.638,-145.042 579.14,-138.981"/>
</g>
<!-- Node15 -->
<g id="node16" class="node"><title>Node15</title>
<polygon fill="white" stroke="#bfbfbf" points="1253,-118 1253,-137 1303,-137 1303,-118 1253,-118"/>
<text text-anchor="middle" x="1278" y="-125" font-family="Helvetica,sans-Serif" font-size="10.00">typeinfo</text>
</g>
<!-- Node4&#45;&gt;Node15 -->
<g id="edge15" class="edge"><title>Node4&#45;&gt;Node15</title>
<path fill="none" stroke="midnightblue" d="M699.018,-186.557C815.436,-182.275 1140.37,-168.339 1244,-143 1246.51,-142.387 1249.07,-141.607 1251.6,-140.73"/>
<polygon fill="midnightblue" stroke="midnightblue" points="1253.05,-143.92 1261.08,-137.001 1250.49,-137.407 1253.05,-143.92"/>
</g>
<!-- Node16 -->
<g id="node17" class="node"><title>Node16</title>
<polygon fill="white" stroke="#bfbfbf" points="598,-118 598,-137 648,-137 648,-118 598,-118"/>
<text text-anchor="middle" x="623" y="-125" font-family="Helvetica,sans-Serif" font-size="10.00">iomanip</text>
</g>
<!-- Node4&#45;&gt;Node16 -->
<g id="edge16" class="edge"><title>Node4&#45;&gt;Node16</title>
<path fill="none" stroke="midnightblue" d="M652.129,-179.475C647.13,-170.727 639.211,-156.869 632.891,-145.809"/>
<polygon fill="midnightblue" stroke="midnightblue" points="635.863,-143.955 627.862,-137.009 629.785,-147.428 635.863,-143.955"/>
</g>
<!-- Node17 -->
<g id="node18" class="node"><title>Node17</title>
<polygon fill="white" stroke="#bfbfbf" points="666.5,-118 666.5,-137 715.5,-137 715.5,-118 666.5,-118"/>
<text text-anchor="middle" x="691" y="-125" font-family="Helvetica,sans-Serif" font-size="10.00">fstream</text>
</g>
<!-- Node4&#45;&gt;Node17 -->
<g id="edge18" class="edge"><title>Node4&#45;&gt;Node17</title>
<path fill="none" stroke="midnightblue" d="M661.871,-179.475C666.87,-170.727 674.789,-156.869 681.109,-145.809"/>
<polygon fill="midnightblue" stroke="midnightblue" points="684.215,-147.428 686.138,-137.009 678.137,-143.955 684.215,-147.428"/>
</g>
<!-- Node18 -->
<g id="node19" class="node"><title>Node18</title>
<polygon fill="white" stroke="#bfbfbf" points="1183,-118 1183,-137 1235,-137 1235,-118 1183,-118"/>
<text text-anchor="middle" x="1209" y="-125" font-family="Helvetica,sans-Serif" font-size="10.00">memory</text>
</g>
<!-- Node4&#45;&gt;Node18 -->
<g id="edge19" class="edge"><title>Node4&#45;&gt;Node18</title>
<path fill="none" stroke="midnightblue" d="M699.252,-188.648C788.373,-189.078 1001.59,-185.154 1174,-143 1176.52,-142.385 1179.09,-141.616 1181.63,-140.755"/>
<polygon fill="midnightblue" stroke="midnightblue" points="1183.09,-143.944 1191.19,-137.11 1180.6,-137.404 1183.09,-143.944"/>
</g>
<!-- Node19 -->
<g id="node20" class="node"><title>Node19</title>
<polygon fill="white" stroke="#bfbfbf" points="734,-118 734,-137 838,-137 838,-118 734,-118"/>
<text text-anchor="middle" x="786" y="-125" font-family="Helvetica,sans-Serif" font-size="10.00">common/variant.hpp</text>
</g>
<!-- Node4&#45;&gt;Node19 -->
<g id="edge20" class="edge"><title>Node4&#45;&gt;Node19</title>
<path fill="none" stroke="midnightblue" d="M675.483,-179.475C697.132,-169.49 733.213,-152.848 758.232,-141.307"/>
<polygon fill="midnightblue" stroke="midnightblue" points="759.937,-144.376 767.552,-137.009 757.005,-138.019 759.937,-144.376"/>
</g>
<!-- Node4&#45;&gt;Node20 -->
<g id="edge21" class="edge"><title>Node4&#45;&gt;Node20</title>
<path fill="none" stroke="midnightblue" d="M614.897,-184.398C543.345,-178.034 393.256,-163.642 256.448,-143.146"/>
<polygon fill="midnightblue" stroke="midnightblue" points="256.615,-139.631 246.204,-141.595 255.568,-146.552 256.615,-139.631"/>
</g>
<!-- Node21 -->
<g id="node22" class="node"><title>Node21</title>
<g id="a_node22"><a xlink:href="_n_f_platform_8h.html" target="_top" xlink:title="NFPlatform.h">
<polygon fill="white" stroke="black" points="914,-56.5 914,-75.5 988,-75.5 988,-56.5 914,-56.5"/>
<text text-anchor="middle" x="951" y="-63.5" font-family="Helvetica,sans-Serif" font-size="10.00">NFPlatform.h</text>
</a>
</g>
</g>
<!-- Node4&#45;&gt;Node21 -->
<g id="edge31" class="edge"><title>Node4&#45;&gt;Node21</title>
<path fill="none" stroke="midnightblue" d="M699.129,-188.186C774.105,-187.521 925.946,-181.344 959,-143 972.63,-127.189 966.483,-102.103 959.721,-85.1171"/>
<polygon fill="midnightblue" stroke="midnightblue" points="962.83,-83.4903 955.603,-75.7427 956.421,-86.3059 962.83,-83.4903"/>
</g>
<!-- Node27 -->
<g id="node28" class="node"><title>Node27</title>
<g id="a_node28"><a xlink:href="_vector3_8hpp.html" target="_top" xlink:title="Math/Vector3.hpp">
<polygon fill="white" stroke="black" points="856,-118 856,-137 950,-137 950,-118 856,-118"/>
<text text-anchor="middle" x="903" y="-125" font-family="Helvetica,sans-Serif" font-size="10.00">Math/Vector3.hpp</text>
</a>
</g>
</g>
<!-- Node4&#45;&gt;Node27 -->
<g id="edge32" class="edge"><title>Node4&#45;&gt;Node27</title>
<path fill="none" stroke="midnightblue" d="M694.19,-179.433C732.534,-170.543 794.026,-156.13 847,-143 851.396,-141.91 855.98,-140.755 860.551,-139.59"/>
<polygon fill="midnightblue" stroke="midnightblue" points="861.64,-142.924 870.456,-137.049 859.9,-136.144 861.64,-142.924"/>
</g>
<!-- Node20&#45;&gt;Node7 -->
<g id="edge28" class="edge"><title>Node20&#45;&gt;Node7</title>
<path fill="none" stroke="midnightblue" d="M246.172,-113.171C249.15,-112.74 252.103,-112.346 255,-112 301.407,-106.452 1004.22,-75.9498 1174.87,-68.5957"/>
<polygon fill="midnightblue" stroke="midnightblue" points="1175.04,-72.0918 1184.88,-68.1647 1174.74,-65.0983 1175.04,-72.0918"/>
</g>
<!-- Node20&#45;&gt;Node8 -->
<g id="edge30" class="edge"><title>Node20&#45;&gt;Node8</title>
<path fill="none" stroke="midnightblue" d="M161.278,-112.399C149.088,-103.218 133.208,-91.2579 120.807,-81.9182"/>
<polygon fill="midnightblue" stroke="midnightblue" points="122.589,-78.8782 112.495,-75.6578 118.377,-84.4697 122.589,-78.8782"/>
</g>
<!-- Node20&#45;&gt;Node21 -->
<g id="edge22" class="edge"><title>Node20&#45;&gt;Node21</title>
<path fill="none" stroke="midnightblue" d="M246.18,-113.235C249.156,-112.787 252.106,-112.372 255,-112 497.825,-80.804 791.235,-70.815 903.858,-67.9939"/>
<polygon fill="midnightblue" stroke="midnightblue" points="903.958,-71.4926 913.87,-67.7502 903.787,-64.4947 903.958,-71.4926"/>
</g>
<!-- Node26 -->
<g id="node27" class="node"><title>Node26</title>
<polygon fill="white" stroke="#bfbfbf" points="157,-56.5 157,-75.5 203,-75.5 203,-56.5 157,-56.5"/>
<text text-anchor="middle" x="180" y="-63.5" font-family="Helvetica,sans-Serif" font-size="10.00">stdio.h</text>
</g>
<!-- Node20&#45;&gt;Node26 -->
<g id="edge29" class="edge"><title>Node20&#45;&gt;Node26</title>
<path fill="none" stroke="midnightblue" d="M180,-112.399C180,-104.466 180,-94.458 180,-85.8583"/>
<polygon fill="midnightblue" stroke="midnightblue" points="183.5,-85.6577 180,-75.6578 176.5,-85.6578 183.5,-85.6577"/>
</g>
<!-- Node21&#45;&gt;Node5 -->
<g id="edge27" class="edge"><title>Node21&#45;&gt;Node5</title>
<path fill="none" stroke="midnightblue" d="M988.035,-58.3908C992.734,-57.574 997.478,-56.7597 1002,-56 1093.29,-40.662 1201.43,-23.759 1253.28,-15.7335"/>
<polygon fill="midnightblue" stroke="midnightblue" points="1254.11,-19.1461 1263.46,-14.1594 1253.04,-12.2283 1254.11,-19.1461"/>
</g>
<!-- Node22 -->
<g id="node23" class="node"><title>Node22</title>
<polygon fill="white" stroke="#bfbfbf" points="828.5,-0.5 828.5,-19.5 877.5,-19.5 877.5,-0.5 828.5,-0.5"/>
<text text-anchor="middle" x="853" y="-7.5" font-family="Helvetica,sans-Serif" font-size="10.00">stdint.h</text>
</g>
<!-- Node21&#45;&gt;Node22 -->
<g id="edge23" class="edge"><title>Node21&#45;&gt;Node22</title>
<path fill="none" stroke="midnightblue" d="M935.255,-56.324C919.681,-47.7428 895.623,-34.486 877.541,-24.5224"/>
<polygon fill="midnightblue" stroke="midnightblue" points="879.154,-21.4152 868.706,-19.6545 875.776,-27.546 879.154,-21.4152"/>
</g>
<!-- Node23 -->
<g id="node24" class="node"><title>Node23</title>
<polygon fill="white" stroke="#bfbfbf" points="896,-0.5 896,-19.5 940,-19.5 940,-0.5 896,-0.5"/>
<text text-anchor="middle" x="918" y="-7.5" font-family="Helvetica,sans-Serif" font-size="10.00">time.h</text>
</g>
<!-- Node21&#45;&gt;Node23 -->
<g id="edge24" class="edge"><title>Node21&#45;&gt;Node23</title>
<path fill="none" stroke="midnightblue" d="M945.551,-56.083C940.986,-48.6127 934.332,-37.7244 928.707,-28.5199"/>
<polygon fill="midnightblue" stroke="midnightblue" points="931.549,-26.4588 923.348,-19.7511 925.576,-30.109 931.549,-26.4588"/>
</g>
<!-- Node24 -->
<g id="node25" class="node"><title>Node24</title>
<polygon fill="white" stroke="#bfbfbf" points="958,-0.5 958,-19.5 1010,-19.5 1010,-0.5 958,-0.5"/>
<text text-anchor="middle" x="984" y="-7.5" font-family="Helvetica,sans-Serif" font-size="10.00">sstream</text>
</g>
<!-- Node21&#45;&gt;Node24 -->
<g id="edge25" class="edge"><title>Node21&#45;&gt;Node24</title>
<path fill="none" stroke="midnightblue" d="M956.449,-56.083C961.014,-48.6127 967.668,-37.7244 973.293,-28.5199"/>
<polygon fill="midnightblue" stroke="midnightblue" points="976.424,-30.109 978.652,-19.7511 970.451,-26.4588 976.424,-30.109"/>
</g>
<!-- Node25 -->
<g id="node26" class="node"><title>Node25</title>
<polygon fill="white" stroke="#bfbfbf" points="1028,-0.5 1028,-19.5 1156,-19.5 1156,-0.5 1028,-0.5"/>
<text text-anchor="middle" x="1092" y="-7.5" font-family="Helvetica,sans-Serif" font-size="10.00">common/lexical_cast.hpp</text>
</g>
<!-- Node21&#45;&gt;Node25 -->
<g id="edge26" class="edge"><title>Node21&#45;&gt;Node25</title>
<path fill="none" stroke="midnightblue" d="M973.342,-56.4435C996.753,-47.4776 1033.74,-33.314 1060.19,-23.1827"/>
<polygon fill="midnightblue" stroke="midnightblue" points="1061.68,-26.3615 1069.76,-19.5164 1059.17,-19.8245 1061.68,-26.3615"/>
</g>
<!-- Node28&#45;&gt;Node5 -->
<g id="edge38" class="edge"><title>Node28&#45;&gt;Node5</title>
<path fill="none" stroke="midnightblue" d="M1244.13,-240.068C1272.49,-234.871 1316.24,-223.351 1346,-199 1368.36,-180.706 1371.4,-170.871 1379,-143 1389.47,-104.624 1383.37,-86.6373 1358,-56 1346.36,-41.9397 1329.11,-31.0946 1314.2,-23.5774"/>
<polygon fill="midnightblue" stroke="midnightblue" points="1315.35,-20.2502 1304.82,-19.1177 1312.35,-26.5722 1315.35,-20.2502"/>
</g>
<!-- Node28&#45;&gt;Node7 -->
<g id="edge39" class="edge"><title>Node28&#45;&gt;Node7</title>
<path fill="none" stroke="midnightblue" d="M1244.09,-236.557C1266.61,-229.569 1298.13,-217.405 1321,-199 1354.15,-172.316 1386.37,-146.167 1361,-112 1335.52,-77.6922 1284.66,-68.5988 1249.5,-66.66"/>
<polygon fill="midnightblue" stroke="midnightblue" points="1249.27,-63.1486 1239.14,-66.2679 1249,-70.1436 1249.27,-63.1486"/>
</g>
<!-- Node28&#45;&gt;Node10 -->
<g id="edge37" class="edge"><title>Node28&#45;&gt;Node10</title>
<path fill="none" stroke="midnightblue" d="M1207.06,-235.319C1187.16,-216.004 1138.97,-169.237 1113.47,-144.483"/>
<polygon fill="midnightblue" stroke="midnightblue" points="1115.66,-141.735 1106.05,-137.282 1110.79,-146.758 1115.66,-141.735"/>
</g>
<!-- Node28&#45;&gt;Node12 -->
<g id="edge36" class="edge"><title>Node28&#45;&gt;Node12</title>
<path fill="none" stroke="midnightblue" d="M1210.81,-235.319C1199.53,-216.422 1172.54,-171.248 1157.53,-146.121"/>
<polygon fill="midnightblue" stroke="midnightblue" points="1160.38,-144.072 1152.25,-137.282 1154.37,-147.662 1160.38,-144.072"/>
</g>
<!-- Node28&#45;&gt;Node15 -->
<g id="edge40" class="edge"><title>Node28&#45;&gt;Node15</title>
<path fill="none" stroke="midnightblue" d="M1217.37,-235.139C1219.64,-222.193 1224.95,-197.624 1235,-179 1241.85,-166.303 1252.3,-153.937 1261.18,-144.62"/>
<polygon fill="midnightblue" stroke="midnightblue" points="1263.89,-146.852 1268.45,-137.286 1258.92,-141.924 1263.89,-146.852"/>
</g>
<!-- Node29 -->
<g id="node30" class="node"><title>Node29</title>
<g id="a_node30"><a xlink:href="_n_f_map_ex_8h.html" target="_top" xlink:title="NFMapEx.h">
<polygon fill="white" stroke="black" points="1244,-179.5 1244,-198.5 1312,-198.5 1312,-179.5 1244,-179.5"/>
<text text-anchor="middle" x="1278" y="-186.5" font-family="Helvetica,sans-Serif" font-size="10.00">NFMapEx.h</text>
</a>
</g>
</g>
<!-- Node28&#45;&gt;Node29 -->
<g id="edge41" class="edge"><title>Node28&#45;&gt;Node29</title>
<path fill="none" stroke="midnightblue" d="M1225.96,-235.324C1235.13,-227.341 1248.94,-215.313 1260.03,-205.653"/>
<polygon fill="midnightblue" stroke="midnightblue" points="1262.62,-208.041 1267.86,-198.834 1258.02,-202.762 1262.62,-208.041"/>
</g>
<!-- Node29&#45;&gt;Node5 -->
<g id="edge44" class="edge"><title>Node29&#45;&gt;Node5</title>
<path fill="none" stroke="midnightblue" d="M1310.18,-179.488C1328.54,-172.801 1350.02,-161.45 1361,-143 1386.18,-100.7 1334.41,-50.3714 1304,-25.8759"/>
<polygon fill="midnightblue" stroke="midnightblue" points="1306.11,-23.081 1296.08,-19.6801 1301.8,-28.5961 1306.11,-23.081"/>
</g>
<!-- Node29&#45;&gt;Node7 -->
<g id="edge45" class="edge"><title>Node29&#45;&gt;Node7</title>
<path fill="none" stroke="midnightblue" d="M1300.79,-179.471C1316.33,-172.316 1335.71,-160.435 1345,-143 1351.48,-130.841 1353.03,-123.195 1345,-112 1323.36,-81.8369 1280.4,-71.6358 1249.15,-68.321"/>
<polygon fill="midnightblue" stroke="midnightblue" points="1249.31,-64.822 1239.04,-67.442 1248.7,-71.7956 1249.31,-64.822"/>
</g>
<!-- Node29&#45;&gt;Node10 -->
<g id="edge43" class="edge"><title>Node29&#45;&gt;Node10</title>
<path fill="none" stroke="midnightblue" d="M1243.72,-180.931C1211.29,-173.609 1161.67,-160.741 1121,-143 1120.3,-142.693 1119.59,-142.37 1118.88,-142.032"/>
<polygon fill="midnightblue" stroke="midnightblue" points="1120.32,-138.833 1109.87,-137.127 1116.98,-144.981 1120.32,-138.833"/>
</g>
<!-- Node29&#45;&gt;Node12 -->
<g id="edge42" class="edge"><title>Node29&#45;&gt;Node12</title>
<path fill="none" stroke="midnightblue" d="M1256.65,-179.382C1235.46,-170.683 1202.16,-156.623 1174,-143 1173.16,-142.594 1172.31,-142.177 1171.46,-141.75"/>
<polygon fill="midnightblue" stroke="midnightblue" points="1172.79,-138.501 1162.3,-137.008 1169.57,-144.717 1172.79,-138.501"/>
</g>
<!-- Node29&#45;&gt;Node15 -->
<g id="edge46" class="edge"><title>Node29&#45;&gt;Node15</title>
<path fill="none" stroke="midnightblue" d="M1278,-179.475C1278,-171.08 1278,-157.981 1278,-147.163"/>
<polygon fill="midnightblue" stroke="midnightblue" points="1281.5,-147.009 1278,-137.009 1274.5,-147.009 1281.5,-147.009"/>
</g>
<!-- Node29&#45;&gt;Node18 -->
<g id="edge47" class="edge"><title>Node29&#45;&gt;Node18</title>
<path fill="none" stroke="midnightblue" d="M1268.11,-179.475C1257.35,-170.197 1239.93,-155.171 1226.78,-143.831"/>
<polygon fill="midnightblue" stroke="midnightblue" points="1228.73,-140.889 1218.87,-137.009 1224.16,-146.19 1228.73,-140.889"/>
</g>
<!-- Node29&#45;&gt;Node21 -->
<g id="edge48" class="edge"><title>Node29&#45;&gt;Node21</title>
<path fill="none" stroke="midnightblue" d="M1287.73,-179.073C1303.22,-163.808 1329.99,-132.369 1312,-112 1291.55,-88.8423 1091.47,-74.7961 998.297,-69.4616"/>
<polygon fill="midnightblue" stroke="midnightblue" points="998.465,-65.9656 988.284,-68.8983 998.072,-72.9545 998.465,-65.9656"/>
</g>
</g>
</svg>
