<?xml version="1.0" encoding="UTF-8" standalone="no"?>
<!DOCTYPE svg PUBLIC "-//W3C//DTD SVG 1.1//EN"
 "http://www.w3.org/Graphics/SVG/1.1/DTD/svg11.dtd">
<!-- Generated by graphviz version 2.38.0 (20140413.2041)
 -->
<!-- Title: NFIWorldToMasterModule.h Pages: 1 -->
<svg width="668pt" height="140pt"
 viewBox="0.00 0.00 668.00 140.00" xmlns="http://www.w3.org/2000/svg" xmlns:xlink="http://www.w3.org/1999/xlink">
<g id="graph0" class="graph" transform="scale(1 1) rotate(0) translate(4 136)">
<title>NFIWorldToMasterModule.h</title>
<polygon fill="white" stroke="none" points="-4,4 -4,-136 664,-136 664,4 -4,4"/>
<!-- Node58 -->
<g id="node1" class="node"><title>Node58</title>
<polygon fill="#bfbfbf" stroke="black" points="259.5,-112.5 259.5,-131.5 396.5,-131.5 396.5,-112.5 259.5,-112.5"/>
<text text-anchor="middle" x="328" y="-119.5" font-family="Helvetica,sans-Serif" font-size="10.00">NFIWorldToMasterModule.h</text>
</g>
<!-- Node59 -->
<g id="node2" class="node"><title>Node59</title>
<g id="a_node2"><a xlink:href="_n_f_c_world_to_master_module_8h.html" target="_top" xlink:title="NFCWorldToMasterModule.h">
<polygon fill="white" stroke="black" points="172,-56.5 172,-75.5 314,-75.5 314,-56.5 172,-56.5"/>
<text text-anchor="middle" x="243" y="-63.5" font-family="Helvetica,sans-Serif" font-size="10.00">NFCWorldToMasterModule.h</text>
</a>
</g>
</g>
<!-- Node58&#45;&gt;Node59 -->
<g id="edge1" class="edge"><title>Node58&#45;&gt;Node59</title>
<path fill="none" stroke="midnightblue" d="M305.806,-106.901C290.22,-96.9986 269.87,-84.0705 256.623,-75.6545"/>
<polygon fill="midnightblue" stroke="midnightblue" points="304.026,-109.916 314.343,-112.324 307.779,-104.007 304.026,-109.916"/>
</g>
<!-- Node62 -->
<g id="node5" class="node"><title>Node62</title>
<g id="a_node5"><a xlink:href="_n_f_c_world_net___server_module_8h.html" target="_top" xlink:title="NFCWorldNet_ServerModule.h">
<polygon fill="white" stroke="black" points="339.5,-56.5 339.5,-75.5 488.5,-75.5 488.5,-56.5 339.5,-56.5"/>
<text text-anchor="middle" x="414" y="-63.5" font-family="Helvetica,sans-Serif" font-size="10.00">NFCWorldNet_ServerModule.h</text>
</a>
</g>
</g>
<!-- Node58&#45;&gt;Node62 -->
<g id="edge4" class="edge"><title>Node58&#45;&gt;Node62</title>
<path fill="none" stroke="midnightblue" d="M350.455,-106.901C366.224,-96.9986 386.814,-84.0705 400.217,-75.6545"/>
<polygon fill="midnightblue" stroke="midnightblue" points="348.425,-104.042 341.817,-112.324 352.148,-109.97 348.425,-104.042"/>
</g>
<!-- Node60 -->
<g id="node3" class="node"><title>Node60</title>
<g id="a_node3"><a xlink:href="_n_f_c_world_to_master_module_8cpp.html" target="_top" xlink:title="NFCWorldToMasterModule.cpp">
<polygon fill="white" stroke="black" points="0,-0.5 0,-19.5 152,-19.5 152,-0.5 0,-0.5"/>
<text text-anchor="middle" x="76" y="-7.5" font-family="Helvetica,sans-Serif" font-size="10.00">NFCWorldToMasterModule.cpp</text>
</a>
</g>
</g>
<!-- Node59&#45;&gt;Node60 -->
<g id="edge2" class="edge"><title>Node59&#45;&gt;Node60</title>
<path fill="none" stroke="midnightblue" d="M206.83,-53.3044C175.363,-43.1294 130.506,-28.6246 102.338,-19.5164"/>
<polygon fill="midnightblue" stroke="midnightblue" points="205.947,-56.697 216.538,-56.4435 208.1,-50.0366 205.947,-56.697"/>
</g>
<!-- Node61 -->
<g id="node4" class="node"><title>Node61</title>
<g id="a_node4"><a xlink:href="_n_f_world_net___client_plugin_8cpp.html" target="_top" xlink:title="NFWorldNet_ClientPlugin.cpp">
<polygon fill="white" stroke="black" points="170,-0.5 170,-19.5 316,-19.5 316,-0.5 170,-0.5"/>
<text text-anchor="middle" x="243" y="-7.5" font-family="Helvetica,sans-Serif" font-size="10.00">NFWorldNet_ClientPlugin.cpp</text>
</a>
</g>
</g>
<!-- Node59&#45;&gt;Node61 -->
<g id="edge3" class="edge"><title>Node59&#45;&gt;Node61</title>
<path fill="none" stroke="midnightblue" d="M243,-45.8045C243,-36.9102 243,-26.7798 243,-19.7511"/>
<polygon fill="midnightblue" stroke="midnightblue" points="239.5,-46.083 243,-56.083 246.5,-46.083 239.5,-46.083"/>
</g>
<!-- Node63 -->
<g id="node6" class="node"><title>Node63</title>
<g id="a_node6"><a xlink:href="_n_f_c_world_net___server_module_8cpp.html" target="_top" xlink:title="NFCWorldNet_ServerModule.cpp">
<polygon fill="white" stroke="black" points="334.5,-0.5 334.5,-19.5 493.5,-19.5 493.5,-0.5 334.5,-0.5"/>
<text text-anchor="middle" x="414" y="-7.5" font-family="Helvetica,sans-Serif" font-size="10.00">NFCWorldNet_ServerModule.cpp</text>
</a>
</g>
</g>
<!-- Node62&#45;&gt;Node63 -->
<g id="edge5" class="edge"><title>Node62&#45;&gt;Node63</title>
<path fill="none" stroke="midnightblue" d="M414,-45.8045C414,-36.9102 414,-26.7798 414,-19.7511"/>
<polygon fill="midnightblue" stroke="midnightblue" points="410.5,-46.083 414,-56.083 417.5,-46.083 410.5,-46.083"/>
</g>
<!-- Node64 -->
<g id="node7" class="node"><title>Node64</title>
<g id="a_node7"><a xlink:href="_n_f_world_net___server_plugin_8cpp.html" target="_top" xlink:title="NFWorldNet_ServerPlugin.cpp">
<polygon fill="white" stroke="black" points="512,-0.5 512,-19.5 660,-19.5 660,-0.5 512,-0.5"/>
<text text-anchor="middle" x="586" y="-7.5" font-family="Helvetica,sans-Serif" font-size="10.00">NFWorldNet_ServerPlugin.cpp</text>
</a>
</g>
</g>
<!-- Node62&#45;&gt;Node64 -->
<g id="edge6" class="edge"><title>Node62&#45;&gt;Node64</title>
<path fill="none" stroke="midnightblue" d="M450.832,-53.4363C483.262,-43.2551 529.737,-28.664 558.874,-19.5164"/>
<polygon fill="midnightblue" stroke="midnightblue" points="449.746,-50.1088 441.254,-56.4435 451.843,-56.7874 449.746,-50.1088"/>
</g>
</g>
</svg>
