<?xml version="1.0" encoding="UTF-8" standalone="no"?>
<!DOCTYPE svg PUBLIC "-//W3C//DTD SVG 1.1//EN"
 "http://www.w3.org/Graphics/SVG/1.1/DTD/svg11.dtd">
<!-- Generated by graphviz version 2.38.0 (20140413.2041)
 -->
<!-- Title: NFILoginLogicModule.h Pages: 1 -->
<svg width="951pt" height="140pt"
 viewBox="0.00 0.00 950.50 140.00" xmlns="http://www.w3.org/2000/svg" xmlns:xlink="http://www.w3.org/1999/xlink">
<g id="graph0" class="graph" transform="scale(1 1) rotate(0) translate(4 136)">
<title>NFILoginLogicModule.h</title>
<polygon fill="white" stroke="none" points="-4,4 -4,-136 946.5,-136 946.5,4 -4,4"/>
<!-- Node33 -->
<g id="node1" class="node"><title>Node33</title>
<polygon fill="#bfbfbf" stroke="black" points="389.5,-112.5 389.5,-131.5 507.5,-131.5 507.5,-112.5 389.5,-112.5"/>
<text text-anchor="middle" x="448.5" y="-119.5" font-family="Helvetica,sans-Serif" font-size="10.00">NFILoginLogicModule.h</text>
</g>
<!-- Node34 -->
<g id="node2" class="node"><title>Node34</title>
<g id="a_node2"><a xlink:href="_n_f_c_login_logic_module_8h.html" target="_top" xlink:title="NFCLoginLogicModule.h">
<polygon fill="white" stroke="black" points="151.5,-56.5 151.5,-75.5 273.5,-75.5 273.5,-56.5 151.5,-56.5"/>
<text text-anchor="middle" x="212.5" y="-63.5" font-family="Helvetica,sans-Serif" font-size="10.00">NFCLoginLogicModule.h</text>
</a>
</g>
</g>
<!-- Node33&#45;&gt;Node34 -->
<g id="edge1" class="edge"><title>Node33&#45;&gt;Node34</title>
<path fill="none" stroke="midnightblue" d="M401.094,-110.153C356.503,-99.95 290.646,-84.8809 249.72,-75.5164"/>
<polygon fill="midnightblue" stroke="midnightblue" points="400.576,-113.625 411.105,-112.444 402.138,-106.801 400.576,-113.625"/>
</g>
<!-- Node37 -->
<g id="node5" class="node"><title>Node37</title>
<g id="a_node5"><a xlink:href="_n_f_c_login_to_master_module_8h.html" target="_top" xlink:title="NFCLoginToMasterModule.h">
<polygon fill="white" stroke="black" points="378.5,-56.5 378.5,-75.5 518.5,-75.5 518.5,-56.5 378.5,-56.5"/>
<text text-anchor="middle" x="448.5" y="-63.5" font-family="Helvetica,sans-Serif" font-size="10.00">NFCLoginToMasterModule.h</text>
</a>
</g>
</g>
<!-- Node33&#45;&gt;Node37 -->
<g id="edge4" class="edge"><title>Node33&#45;&gt;Node37</title>
<path fill="none" stroke="midnightblue" d="M448.5,-101.805C448.5,-92.9102 448.5,-82.7798 448.5,-75.7511"/>
<polygon fill="midnightblue" stroke="midnightblue" points="445,-102.083 448.5,-112.083 452,-102.083 445,-102.083"/>
</g>
<!-- Node40 -->
<g id="node8" class="node"><title>Node40</title>
<g id="a_node8"><a xlink:href="_n_f_c_login_net___server_module_8h.html" target="_top" xlink:title="NFCLoginNet_ServerModule.h">
<polygon fill="white" stroke="black" points="626.5,-56.5 626.5,-75.5 772.5,-75.5 772.5,-56.5 626.5,-56.5"/>
<text text-anchor="middle" x="699.5" y="-63.5" font-family="Helvetica,sans-Serif" font-size="10.00">NFCLoginNet_ServerModule.h</text>
</a>
</g>
</g>
<!-- Node33&#45;&gt;Node40 -->
<g id="edge7" class="edge"><title>Node33&#45;&gt;Node40</title>
<path fill="none" stroke="midnightblue" d="M498.321,-110.281C545.753,-100.077 616.204,-84.9203 659.914,-75.5164"/>
<polygon fill="midnightblue" stroke="midnightblue" points="497.312,-106.918 488.272,-112.444 498.784,-113.762 497.312,-106.918"/>
</g>
<!-- Node35 -->
<g id="node3" class="node"><title>Node35</title>
<g id="a_node3"><a xlink:href="_n_f_c_login_logic_module_8cpp.html" target="_top" xlink:title="NFCLoginLogicModule.cpp">
<polygon fill="white" stroke="black" points="0,-0.5 0,-19.5 133,-19.5 133,-0.5 0,-0.5"/>
<text text-anchor="middle" x="66.5" y="-7.5" font-family="Helvetica,sans-Serif" font-size="10.00">NFCLoginLogicModule.cpp</text>
</a>
</g>
</g>
<!-- Node34&#45;&gt;Node35 -->
<g id="edge2" class="edge"><title>Node34&#45;&gt;Node35</title>
<path fill="none" stroke="midnightblue" d="M179.801,-52.9058C152.352,-42.7536 113.832,-28.5063 89.5259,-19.5164"/>
<polygon fill="midnightblue" stroke="midnightblue" points="178.773,-56.2572 189.366,-56.4435 181.201,-49.6919 178.773,-56.2572"/>
</g>
<!-- Node36 -->
<g id="node4" class="node"><title>Node36</title>
<g id="a_node4"><a xlink:href="_n_f_login_logic_plugin_8cpp.html" target="_top" xlink:title="NFLoginLogicPlugin.cpp">
<polygon fill="white" stroke="black" points="151.5,-0.5 151.5,-19.5 273.5,-19.5 273.5,-0.5 151.5,-0.5"/>
<text text-anchor="middle" x="212.5" y="-7.5" font-family="Helvetica,sans-Serif" font-size="10.00">NFLoginLogicPlugin.cpp</text>
</a>
</g>
</g>
<!-- Node34&#45;&gt;Node36 -->
<g id="edge3" class="edge"><title>Node34&#45;&gt;Node36</title>
<path fill="none" stroke="midnightblue" d="M212.5,-45.8045C212.5,-36.9102 212.5,-26.7798 212.5,-19.7511"/>
<polygon fill="midnightblue" stroke="midnightblue" points="209,-46.083 212.5,-56.083 216,-46.083 209,-46.083"/>
</g>
<!-- Node38 -->
<g id="node6" class="node"><title>Node38</title>
<g id="a_node6"><a xlink:href="_n_f_c_login_to_master_module_8cpp.html" target="_top" xlink:title="NFCLoginToMasterModule.cpp">
<polygon fill="white" stroke="black" points="291.5,-0.5 291.5,-19.5 441.5,-19.5 441.5,-0.5 291.5,-0.5"/>
<text text-anchor="middle" x="366.5" y="-7.5" font-family="Helvetica,sans-Serif" font-size="10.00">NFCLoginToMasterModule.cpp</text>
</a>
</g>
</g>
<!-- Node37&#45;&gt;Node38 -->
<g id="edge5" class="edge"><title>Node37&#45;&gt;Node38</title>
<path fill="none" stroke="midnightblue" d="M426.667,-50.6221C411.687,-40.7574 392.303,-27.9919 379.642,-19.6545"/>
<polygon fill="midnightblue" stroke="midnightblue" points="425.049,-53.7471 435.325,-56.324 428.899,-47.9009 425.049,-53.7471"/>
</g>
<!-- Node39 -->
<g id="node7" class="node"><title>Node39</title>
<g id="a_node7"><a xlink:href="_n_f_login_net___client_plugin_8cpp.html" target="_top" xlink:title="NFLoginNet_ClientPlugin.cpp">
<polygon fill="white" stroke="black" points="460,-0.5 460,-19.5 603,-19.5 603,-0.5 460,-0.5"/>
<text text-anchor="middle" x="531.5" y="-7.5" font-family="Helvetica,sans-Serif" font-size="10.00">NFLoginNet_ClientPlugin.cpp</text>
</a>
</g>
</g>
<!-- Node37&#45;&gt;Node39 -->
<g id="edge6" class="edge"><title>Node37&#45;&gt;Node39</title>
<path fill="none" stroke="midnightblue" d="M470.599,-50.6221C485.762,-40.7574 505.383,-27.9919 518.198,-19.6545"/>
<polygon fill="midnightblue" stroke="midnightblue" points="468.309,-47.9367 461.835,-56.324 472.126,-53.8042 468.309,-47.9367"/>
</g>
<!-- Node41 -->
<g id="node9" class="node"><title>Node41</title>
<g id="a_node9"><a xlink:href="_n_f_c_login_net___server_module_8cpp.html" target="_top" xlink:title="NFCLoginNet_ServerModule.cpp">
<polygon fill="white" stroke="black" points="621,-0.5 621,-19.5 778,-19.5 778,-0.5 621,-0.5"/>
<text text-anchor="middle" x="699.5" y="-7.5" font-family="Helvetica,sans-Serif" font-size="10.00">NFCLoginNet_ServerModule.cpp</text>
</a>
</g>
</g>
<!-- Node40&#45;&gt;Node41 -->
<g id="edge8" class="edge"><title>Node40&#45;&gt;Node41</title>
<path fill="none" stroke="midnightblue" d="M699.5,-45.8045C699.5,-36.9102 699.5,-26.7798 699.5,-19.7511"/>
<polygon fill="midnightblue" stroke="midnightblue" points="696,-46.083 699.5,-56.083 703,-46.083 696,-46.083"/>
</g>
<!-- Node42 -->
<g id="node10" class="node"><title>Node42</title>
<g id="a_node10"><a xlink:href="_n_f_login_net___server_plugin_8cpp.html" target="_top" xlink:title="NFLoginNet_ServerPlugin.cpp">
<polygon fill="white" stroke="black" points="796.5,-0.5 796.5,-19.5 942.5,-19.5 942.5,-0.5 796.5,-0.5"/>
<text text-anchor="middle" x="869.5" y="-7.5" font-family="Helvetica,sans-Serif" font-size="10.00">NFLoginNet_ServerPlugin.cpp</text>
</a>
</g>
</g>
<!-- Node40&#45;&gt;Node42 -->
<g id="edge9" class="edge"><title>Node40&#45;&gt;Node42</title>
<path fill="none" stroke="midnightblue" d="M736.319,-53.3044C768.352,-43.1294 814.015,-28.6246 842.689,-19.5164"/>
<polygon fill="midnightblue" stroke="midnightblue" points="734.908,-50.0803 726.437,-56.4435 737.027,-56.7518 734.908,-50.0803"/>
</g>
</g>
</svg>
