<?xml version="1.0" encoding="UTF-8" standalone="no"?>
<!DOCTYPE svg PUBLIC "-//W3C//DTD SVG 1.1//EN"
 "http://www.w3.org/Graphics/SVG/1.1/DTD/svg11.dtd">
<!-- Generated by graphviz version 2.38.0 (20140413.2041)
 -->
<!-- Title: NFIProxyServerToWorldModule.h Pages: 1 -->
<svg width="722pt" height="162pt"
 viewBox="0.00 0.00 722.00 162.00" xmlns="http://www.w3.org/2000/svg" xmlns:xlink="http://www.w3.org/1999/xlink">
<g id="graph0" class="graph" transform="scale(1 1) rotate(0) translate(4 158)">
<title>NFIProxyServerToWorldModule.h</title>
<polygon fill="white" stroke="none" points="-4,4 -4,-158 718,-158 718,4 -4,4"/>
<!-- Node58 -->
<g id="node1" class="node"><title>Node58</title>
<polygon fill="#bfbfbf" stroke="black" points="285.5,-134.5 285.5,-153.5 445.5,-153.5 445.5,-134.5 285.5,-134.5"/>
<text text-anchor="middle" x="365.5" y="-141.5" font-family="Helvetica,sans-Serif" font-size="10.00">NFIProxyServerToWorldModule.h</text>
</g>
<!-- Node59 -->
<g id="node2" class="node"><title>Node59</title>
<g id="a_node2"><a xlink:href="_n_f_c_proxy_server_to_world_module_8h.html" target="_top" xlink:title="NFCProxyServerToWorldModule.h">
<polygon fill="white" stroke="black" points="197.5,-73 197.5,-92 361.5,-92 361.5,-73 197.5,-73"/>
<text text-anchor="middle" x="279.5" y="-80" font-family="Helvetica,sans-Serif" font-size="10.00">NFCProxyServerToWorldModule.h</text>
</a>
</g>
</g>
<!-- Node58&#45;&gt;Node59 -->
<g id="edge1" class="edge"><title>Node58&#45;&gt;Node59</title>
<path fill="none" stroke="midnightblue" d="M344.705,-128.613C328.165,-117.169 305.583,-101.546 291.799,-92.0091"/>
<polygon fill="midnightblue" stroke="midnightblue" points="342.963,-131.664 353.178,-134.475 346.946,-125.907 342.963,-131.664"/>
</g>
<!-- Node62 -->
<g id="node5" class="node"><title>Node62</title>
<g id="a_node5"><a xlink:href="_n_f_c_proxy_server_net___server_module_8h.html" target="_top" xlink:title="NFCProxyServerNet_Server\lModule.h">
<polygon fill="white" stroke="black" points="384.5,-67.5 384.5,-97.5 520.5,-97.5 520.5,-67.5 384.5,-67.5"/>
<text text-anchor="start" x="392.5" y="-85.5" font-family="Helvetica,sans-Serif" font-size="10.00">NFCProxyServerNet_Server</text>
<text text-anchor="middle" x="452.5" y="-74.5" font-family="Helvetica,sans-Serif" font-size="10.00">Module.h</text>
</a>
</g>
</g>
<!-- Node58&#45;&gt;Node62 -->
<g id="edge4" class="edge"><title>Node58&#45;&gt;Node62</title>
<path fill="none" stroke="midnightblue" d="M386.352,-128.739C400.179,-119.282 418.24,-106.93 431.996,-97.523"/>
<polygon fill="midnightblue" stroke="midnightblue" points="384.243,-125.941 377.965,-134.475 388.195,-131.719 384.243,-125.941"/>
</g>
<!-- Node60 -->
<g id="node3" class="node"><title>Node60</title>
<g id="a_node3"><a xlink:href="_n_f_c_proxy_server_to_world_module_8cpp.html" target="_top" xlink:title="NFCProxyServerToWorldModule.cpp">
<polygon fill="white" stroke="black" points="0,-6 0,-25 175,-25 175,-6 0,-6"/>
<text text-anchor="middle" x="87.5" y="-13" font-family="Helvetica,sans-Serif" font-size="10.00">NFCProxyServerToWorldModule.cpp</text>
</a>
</g>
</g>
<!-- Node59&#45;&gt;Node60 -->
<g id="edge2" class="edge"><title>Node59&#45;&gt;Node60</title>
<path fill="none" stroke="midnightblue" d="M244.353,-69.6013C206.285,-56.7138 146.497,-36.4728 112.796,-25.0637"/>
<polygon fill="midnightblue" stroke="midnightblue" points="243.41,-72.977 254.004,-72.8685 245.654,-66.3466 243.41,-72.977"/>
</g>
<!-- Node61 -->
<g id="node4" class="node"><title>Node61</title>
<g id="a_node4"><a xlink:href="_n_f_proxy_server_net___client_plugin_8cpp.html" target="_top" xlink:title="NFProxyServerNet_ClientPlugin.cpp">
<polygon fill="white" stroke="black" points="193,-6 193,-25 366,-25 366,-6 193,-6"/>
<text text-anchor="middle" x="279.5" y="-13" font-family="Helvetica,sans-Serif" font-size="10.00">NFProxyServerNet_ClientPlugin.cpp</text>
</a>
</g>
</g>
<!-- Node59&#45;&gt;Node61 -->
<g id="edge3" class="edge"><title>Node59&#45;&gt;Node61</title>
<path fill="none" stroke="midnightblue" d="M279.5,-62.537C279.5,-50.1703 279.5,-34.6198 279.5,-25.1273"/>
<polygon fill="midnightblue" stroke="midnightblue" points="276,-62.7338 279.5,-72.7338 283,-62.7338 276,-62.7338"/>
</g>
<!-- Node63 -->
<g id="node6" class="node"><title>Node63</title>
<g id="a_node6"><a xlink:href="_n_f_c_proxy_server_net___server_module_8cpp.html" target="_top" xlink:title="NFCProxyServerNet_Server\lModule.cpp">
<polygon fill="white" stroke="black" points="384.5,-0.5 384.5,-30.5 520.5,-30.5 520.5,-0.5 384.5,-0.5"/>
<text text-anchor="start" x="392.5" y="-18.5" font-family="Helvetica,sans-Serif" font-size="10.00">NFCProxyServerNet_Server</text>
<text text-anchor="middle" x="452.5" y="-7.5" font-family="Helvetica,sans-Serif" font-size="10.00">Module.cpp</text>
</a>
</g>
</g>
<!-- Node62&#45;&gt;Node63 -->
<g id="edge5" class="edge"><title>Node62&#45;&gt;Node63</title>
<path fill="none" stroke="midnightblue" d="M452.5,-57.1081C452.5,-48.1539 452.5,-38.3227 452.5,-30.5765"/>
<polygon fill="midnightblue" stroke="midnightblue" points="449,-57.3959 452.5,-67.396 456,-57.396 449,-57.3959"/>
</g>
<!-- Node64 -->
<g id="node7" class="node"><title>Node64</title>
<g id="a_node7"><a xlink:href="_n_f_proxy_server_net___server_plugin_8cpp.html" target="_top" xlink:title="NFProxyServerNet_ServerPlugin.cpp">
<polygon fill="white" stroke="black" points="539,-6 539,-25 714,-25 714,-6 539,-6"/>
<text text-anchor="middle" x="626.5" y="-13" font-family="Helvetica,sans-Serif" font-size="10.00">NFProxyServerNet_ServerPlugin.cpp</text>
</a>
</g>
</g>
<!-- Node62&#45;&gt;Node64 -->
<g id="edge6" class="edge"><title>Node62&#45;&gt;Node64</title>
<path fill="none" stroke="midnightblue" d="M499.925,-63.7838C533.663,-51.1807 577.49,-34.8082 603.727,-25.007"/>
<polygon fill="midnightblue" stroke="midnightblue" points="498.398,-60.6178 490.255,-67.396 500.848,-67.1752 498.398,-60.6178"/>
</g>
</g>
</svg>
