<?xml version="1.0" encoding="UTF-8" standalone="no"?>
<!DOCTYPE svg PUBLIC "-//W3C//DTD SVG 1.1//EN"
 "http://www.w3.org/Graphics/SVG/1.1/DTD/svg11.dtd">
<!-- Generated by graphviz version 2.38.0 (20140413.2041)
 -->
<!-- Title: NFIUUIDModule.h Pages: 1 -->
<svg width="1762pt" height="162pt"
 viewBox="0.00 0.00 1761.50 162.00" xmlns="http://www.w3.org/2000/svg" xmlns:xlink="http://www.w3.org/1999/xlink">
<g id="graph0" class="graph" transform="scale(1 1) rotate(0) translate(4 158)">
<title>NFIUUIDModule.h</title>
<polygon fill="white" stroke="none" points="-4,4 -4,-158 1757.5,-158 1757.5,4 -4,4"/>
<!-- Node33 -->
<g id="node1" class="node"><title>Node33</title>
<polygon fill="#bfbfbf" stroke="black" points="715,-134.5 715,-153.5 809,-153.5 809,-134.5 715,-134.5"/>
<text text-anchor="middle" x="762" y="-141.5" font-family="Helvetica,sans-Serif" font-size="10.00">NFIUUIDModule.h</text>
</g>
<!-- Node34 -->
<g id="node2" class="node"><title>Node34</title>
<g id="a_node2"><a xlink:href="_n_f_c_kernel_module_8h.html" target="_top" xlink:title="NFCKernelModule.h">
<polygon fill="white" stroke="black" points="132,-73 132,-92 236,-92 236,-73 132,-73"/>
<text text-anchor="middle" x="184" y="-80" font-family="Helvetica,sans-Serif" font-size="10.00">NFCKernelModule.h</text>
</a>
</g>
</g>
<!-- Node33&#45;&gt;Node34 -->
<g id="edge1" class="edge"><title>Node33&#45;&gt;Node34</title>
<path fill="none" stroke="midnightblue" d="M704.561,-140.365C609.548,-135.467 413.869,-123.096 250,-98 239.795,-96.4372 228.807,-94.2354 218.781,-92.0187"/>
<polygon fill="midnightblue" stroke="midnightblue" points="704.651,-143.874 714.815,-140.885 705.005,-136.883 704.651,-143.874"/>
</g>
<!-- Node37 -->
<g id="node5" class="node"><title>Node37</title>
<g id="a_node5"><a xlink:href="_n_f_c_u_u_i_d_module_8h.html" target="_top" xlink:title="NFCUUIDModule.h">
<polygon fill="white" stroke="black" points="259,-73 259,-92 357,-92 357,-73 259,-73"/>
<text text-anchor="middle" x="308" y="-80" font-family="Helvetica,sans-Serif" font-size="10.00">NFCUUIDModule.h</text>
</a>
</g>
</g>
<!-- Node33&#45;&gt;Node37 -->
<g id="edge4" class="edge"><title>Node33&#45;&gt;Node37</title>
<path fill="none" stroke="midnightblue" d="M704.677,-135.487C614.722,-123.698 441.949,-101.055 357.255,-89.9552"/>
<polygon fill="midnightblue" stroke="midnightblue" points="704.329,-138.972 714.699,-136.801 705.238,-132.031 704.329,-138.972"/>
</g>
<!-- Node39 -->
<g id="node7" class="node"><title>Node39</title>
<g id="a_node7"><a xlink:href="_n_f_c_game_server_net___server_module_8h.html" target="_top" xlink:title="NFCGameServerNet_ServerModule.h">
<polygon fill="white" stroke="black" points="586,-73 586,-92 762,-92 762,-73 586,-73"/>
<text text-anchor="middle" x="674" y="-80" font-family="Helvetica,sans-Serif" font-size="10.00">NFCGameServerNet_ServerModule.h</text>
</a>
</g>
</g>
<!-- Node33&#45;&gt;Node39 -->
<g id="edge7" class="edge"><title>Node33&#45;&gt;Node39</title>
<path fill="none" stroke="midnightblue" d="M740.721,-128.613C723.796,-117.169 700.69,-101.546 686.585,-92.0091"/>
<polygon fill="midnightblue" stroke="midnightblue" points="739.147,-131.773 749.392,-134.475 743.068,-125.974 739.147,-131.773"/>
</g>
<!-- Node42 -->
<g id="node10" class="node"><title>Node42</title>
<g id="a_node10"><a xlink:href="_n_f_c_game_server_module_8h.html" target="_top" xlink:title="NFCGameServerModule.h">
<polygon fill="white" stroke="black" points="785.5,-73 785.5,-92 914.5,-92 914.5,-73 785.5,-73"/>
<text text-anchor="middle" x="850" y="-80" font-family="Helvetica,sans-Serif" font-size="10.00">NFCGameServerModule.h</text>
</a>
</g>
</g>
<!-- Node33&#45;&gt;Node42 -->
<g id="edge10" class="edge"><title>Node33&#45;&gt;Node42</title>
<path fill="none" stroke="midnightblue" d="M783.279,-128.613C800.204,-117.169 823.31,-101.546 837.415,-92.0091"/>
<polygon fill="midnightblue" stroke="midnightblue" points="780.932,-125.974 774.608,-134.475 784.853,-131.773 780.932,-125.974"/>
</g>
<!-- Node45 -->
<g id="node13" class="node"><title>Node45</title>
<g id="a_node13"><a xlink:href="_n_f_c_login_net___server_module_8h.html" target="_top" xlink:title="NFCLoginNet_ServerModule.h">
<polygon fill="white" stroke="black" points="1090,-73 1090,-92 1236,-92 1236,-73 1090,-73"/>
<text text-anchor="middle" x="1163" y="-80" font-family="Helvetica,sans-Serif" font-size="10.00">NFCLoginNet_ServerModule.h</text>
</a>
</g>
</g>
<!-- Node33&#45;&gt;Node45 -->
<g id="edge13" class="edge"><title>Node33&#45;&gt;Node45</title>
<path fill="none" stroke="midnightblue" d="M819.078,-134.531C895.25,-123.228 1029.38,-103.327 1105.67,-92.006"/>
<polygon fill="midnightblue" stroke="midnightblue" points="818.557,-131.07 809.179,-136 819.584,-137.994 818.557,-131.07"/>
</g>
<!-- Node48 -->
<g id="node16" class="node"><title>Node48</title>
<g id="a_node16"><a xlink:href="_n_f_c_proxy_server_net___server_module_8h.html" target="_top" xlink:title="NFCProxyServerNet_Server\lModule.h">
<polygon fill="white" stroke="black" points="1424,-67.5 1424,-97.5 1560,-97.5 1560,-67.5 1424,-67.5"/>
<text text-anchor="start" x="1432" y="-85.5" font-family="Helvetica,sans-Serif" font-size="10.00">NFCProxyServerNet_Server</text>
<text text-anchor="middle" x="1492" y="-74.5" font-family="Helvetica,sans-Serif" font-size="10.00">Module.h</text>
</a>
</g>
</g>
<!-- Node33&#45;&gt;Node48 -->
<g id="edge16" class="edge"><title>Node33&#45;&gt;Node48</title>
<path fill="none" stroke="midnightblue" d="M819.421,-138.32C952.408,-127.48 1281.06,-100.693 1423.89,-89.0512"/>
<polygon fill="midnightblue" stroke="midnightblue" points="818.737,-134.864 809.055,-139.165 819.306,-141.841 818.737,-134.864"/>
</g>
<!-- Node35 -->
<g id="node3" class="node"><title>Node35</title>
<g id="a_node3"><a xlink:href="_n_f_c_kernel_module_8cpp.html" target="_top" xlink:title="NFCKernelModule.cpp">
<polygon fill="white" stroke="black" points="0,-6 0,-25 114,-25 114,-6 0,-6"/>
<text text-anchor="middle" x="57" y="-13" font-family="Helvetica,sans-Serif" font-size="10.00">NFCKernelModule.cpp</text>
</a>
</g>
</g>
<!-- Node34&#45;&gt;Node35 -->
<g id="edge2" class="edge"><title>Node34&#45;&gt;Node35</title>
<path fill="none" stroke="midnightblue" d="M158.158,-68.2739C133.004,-55.3999 95.5076,-36.2086 73.9344,-25.1672"/>
<polygon fill="midnightblue" stroke="midnightblue" points="156.639,-71.428 167.135,-72.8685 159.828,-65.1968 156.639,-71.428"/>
</g>
<!-- Node36 -->
<g id="node4" class="node"><title>Node36</title>
<g id="a_node4"><a xlink:href="_n_f_kernel_plugin_8cpp.html" target="_top" xlink:title="NFKernelPlugin.cpp">
<polygon fill="white" stroke="black" points="132.5,-6 132.5,-25 235.5,-25 235.5,-6 132.5,-6"/>
<text text-anchor="middle" x="184" y="-13" font-family="Helvetica,sans-Serif" font-size="10.00">NFKernelPlugin.cpp</text>
</a>
</g>
</g>
<!-- Node34&#45;&gt;Node36 -->
<g id="edge3" class="edge"><title>Node34&#45;&gt;Node36</title>
<path fill="none" stroke="midnightblue" d="M184,-62.537C184,-50.1703 184,-34.6198 184,-25.1273"/>
<polygon fill="midnightblue" stroke="midnightblue" points="180.5,-62.7338 184,-72.7338 187.5,-62.7338 180.5,-62.7338"/>
</g>
<!-- Node37&#45;&gt;Node36 -->
<g id="edge6" class="edge"><title>Node37&#45;&gt;Node36</title>
<path fill="none" stroke="midnightblue" d="M282.443,-68.1034C257.887,-55.2309 221.505,-36.16 200.534,-25.1672"/>
<polygon fill="midnightblue" stroke="midnightblue" points="281.052,-71.3256 291.534,-72.8685 284.302,-65.1258 281.052,-71.3256"/>
</g>
<!-- Node38 -->
<g id="node6" class="node"><title>Node38</title>
<g id="a_node6"><a xlink:href="_n_f_c_u_u_i_d_module_8cpp.html" target="_top" xlink:title="NFCUUIDModule.cpp">
<polygon fill="white" stroke="black" points="253.5,-6 253.5,-25 362.5,-25 362.5,-6 253.5,-6"/>
<text text-anchor="middle" x="308" y="-13" font-family="Helvetica,sans-Serif" font-size="10.00">NFCUUIDModule.cpp</text>
</a>
</g>
</g>
<!-- Node37&#45;&gt;Node38 -->
<g id="edge5" class="edge"><title>Node37&#45;&gt;Node38</title>
<path fill="none" stroke="midnightblue" d="M308,-62.537C308,-50.1703 308,-34.6198 308,-25.1273"/>
<polygon fill="midnightblue" stroke="midnightblue" points="304.5,-62.7338 308,-72.7338 311.5,-62.7338 304.5,-62.7338"/>
</g>
<!-- Node40 -->
<g id="node8" class="node"><title>Node40</title>
<g id="a_node8"><a xlink:href="_n_f_c_game_server_net___server_module_8cpp.html" target="_top" xlink:title="NFCGameServerNet_ServerModule.cpp">
<polygon fill="white" stroke="black" points="380.5,-6 380.5,-25 567.5,-25 567.5,-6 380.5,-6"/>
<text text-anchor="middle" x="474" y="-13" font-family="Helvetica,sans-Serif" font-size="10.00">NFCGameServerNet_ServerModule.cpp</text>
</a>
</g>
</g>
<!-- Node39&#45;&gt;Node40 -->
<g id="edge8" class="edge"><title>Node39&#45;&gt;Node40</title>
<path fill="none" stroke="midnightblue" d="M637.894,-69.7654C598.265,-56.8862 535.604,-36.5214 500.35,-25.0637"/>
<polygon fill="midnightblue" stroke="midnightblue" points="636.849,-73.1062 647.442,-72.8685 639.013,-66.449 636.849,-73.1062"/>
</g>
<!-- Node41 -->
<g id="node9" class="node"><title>Node41</title>
<g id="a_node9"><a xlink:href="_n_f_game_server_net___server_plugin_8cpp.html" target="_top" xlink:title="NFGameServerNet_ServerPlugin.cpp">
<polygon fill="white" stroke="black" points="586,-6 586,-25 762,-25 762,-6 586,-6"/>
<text text-anchor="middle" x="674" y="-13" font-family="Helvetica,sans-Serif" font-size="10.00">NFGameServerNet_ServerPlugin.cpp</text>
</a>
</g>
</g>
<!-- Node39&#45;&gt;Node41 -->
<g id="edge9" class="edge"><title>Node39&#45;&gt;Node41</title>
<path fill="none" stroke="midnightblue" d="M674,-62.537C674,-50.1703 674,-34.6198 674,-25.1273"/>
<polygon fill="midnightblue" stroke="midnightblue" points="670.5,-62.7338 674,-72.7338 677.5,-62.7338 670.5,-62.7338"/>
</g>
<!-- Node43 -->
<g id="node11" class="node"><title>Node43</title>
<g id="a_node11"><a xlink:href="_n_f_c_game_server_module_8cpp.html" target="_top" xlink:title="NFCGameServerModule.cpp">
<polygon fill="white" stroke="black" points="780,-6 780,-25 920,-25 920,-6 780,-6"/>
<text text-anchor="middle" x="850" y="-13" font-family="Helvetica,sans-Serif" font-size="10.00">NFCGameServerModule.cpp</text>
</a>
</g>
</g>
<!-- Node42&#45;&gt;Node43 -->
<g id="edge11" class="edge"><title>Node42&#45;&gt;Node43</title>
<path fill="none" stroke="midnightblue" d="M850,-62.537C850,-50.1703 850,-34.6198 850,-25.1273"/>
<polygon fill="midnightblue" stroke="midnightblue" points="846.5,-62.7338 850,-72.7338 853.5,-62.7338 846.5,-62.7338"/>
</g>
<!-- Node44 -->
<g id="node12" class="node"><title>Node44</title>
<g id="a_node12"><a xlink:href="_n_f_game_server_plugin_8cpp.html" target="_top" xlink:title="NFGameServerPlugin.cpp">
<polygon fill="white" stroke="black" points="938,-6 938,-25 1066,-25 1066,-6 938,-6"/>
<text text-anchor="middle" x="1002" y="-13" font-family="Helvetica,sans-Serif" font-size="10.00">NFGameServerPlugin.cpp</text>
</a>
</g>
</g>
<!-- Node42&#45;&gt;Node44 -->
<g id="edge12" class="edge"><title>Node42&#45;&gt;Node44</title>
<path fill="none" stroke="midnightblue" d="M879.743,-68.781C909.845,-55.9085 955.571,-36.3545 981.732,-25.1672"/>
<polygon fill="midnightblue" stroke="midnightblue" points="878.003,-65.7184 870.184,-72.8685 880.755,-72.1547 878.003,-65.7184"/>
</g>
<!-- Node46 -->
<g id="node14" class="node"><title>Node46</title>
<g id="a_node14"><a xlink:href="_n_f_c_login_net___server_module_8cpp.html" target="_top" xlink:title="NFCLoginNet_ServerModule.cpp">
<polygon fill="white" stroke="black" points="1084.5,-6 1084.5,-25 1241.5,-25 1241.5,-6 1084.5,-6"/>
<text text-anchor="middle" x="1163" y="-13" font-family="Helvetica,sans-Serif" font-size="10.00">NFCLoginNet_ServerModule.cpp</text>
</a>
</g>
</g>
<!-- Node45&#45;&gt;Node46 -->
<g id="edge14" class="edge"><title>Node45&#45;&gt;Node46</title>
<path fill="none" stroke="midnightblue" d="M1163,-62.537C1163,-50.1703 1163,-34.6198 1163,-25.1273"/>
<polygon fill="midnightblue" stroke="midnightblue" points="1159.5,-62.7338 1163,-72.7338 1166.5,-62.7338 1159.5,-62.7338"/>
</g>
<!-- Node47 -->
<g id="node15" class="node"><title>Node47</title>
<g id="a_node15"><a xlink:href="_n_f_login_net___server_plugin_8cpp.html" target="_top" xlink:title="NFLoginNet_ServerPlugin.cpp">
<polygon fill="white" stroke="black" points="1260,-6 1260,-25 1406,-25 1406,-6 1260,-6"/>
<text text-anchor="middle" x="1333" y="-13" font-family="Helvetica,sans-Serif" font-size="10.00">NFLoginNet_ServerPlugin.cpp</text>
</a>
</g>
</g>
<!-- Node45&#45;&gt;Node47 -->
<g id="edge15" class="edge"><title>Node45&#45;&gt;Node47</title>
<path fill="none" stroke="midnightblue" d="M1194.98,-69.2706C1228.72,-56.3699 1281.02,-36.3757 1310.6,-25.0637"/>
<polygon fill="midnightblue" stroke="midnightblue" points="1193.67,-66.0279 1185.57,-72.8685 1196.17,-72.5662 1193.67,-66.0279"/>
</g>
<!-- Node49 -->
<g id="node17" class="node"><title>Node49</title>
<g id="a_node17"><a xlink:href="_n_f_c_proxy_server_net___server_module_8cpp.html" target="_top" xlink:title="NFCProxyServerNet_Server\lModule.cpp">
<polygon fill="white" stroke="black" points="1424,-0.5 1424,-30.5 1560,-30.5 1560,-0.5 1424,-0.5"/>
<text text-anchor="start" x="1432" y="-18.5" font-family="Helvetica,sans-Serif" font-size="10.00">NFCProxyServerNet_Server</text>
<text text-anchor="middle" x="1492" y="-7.5" font-family="Helvetica,sans-Serif" font-size="10.00">Module.cpp</text>
</a>
</g>
</g>
<!-- Node48&#45;&gt;Node49 -->
<g id="edge17" class="edge"><title>Node48&#45;&gt;Node49</title>
<path fill="none" stroke="midnightblue" d="M1492,-57.1081C1492,-48.1539 1492,-38.3227 1492,-30.5765"/>
<polygon fill="midnightblue" stroke="midnightblue" points="1488.5,-57.3959 1492,-67.396 1495.5,-57.396 1488.5,-57.3959"/>
</g>
<!-- Node50 -->
<g id="node18" class="node"><title>Node50</title>
<g id="a_node18"><a xlink:href="_n_f_proxy_server_net___server_plugin_8cpp.html" target="_top" xlink:title="NFProxyServerNet_ServerPlugin.cpp">
<polygon fill="white" stroke="black" points="1578.5,-6 1578.5,-25 1753.5,-25 1753.5,-6 1578.5,-6"/>
<text text-anchor="middle" x="1666" y="-13" font-family="Helvetica,sans-Serif" font-size="10.00">NFProxyServerNet_ServerPlugin.cpp</text>
</a>
</g>
</g>
<!-- Node48&#45;&gt;Node50 -->
<g id="edge18" class="edge"><title>Node48&#45;&gt;Node50</title>
<path fill="none" stroke="midnightblue" d="M1539.42,-63.7838C1573.16,-51.1807 1616.99,-34.8082 1643.23,-25.007"/>
<polygon fill="midnightblue" stroke="midnightblue" points="1537.9,-60.6178 1529.76,-67.396 1540.35,-67.1752 1537.9,-60.6178"/>
</g>
</g>
</svg>
