<?xml version="1.0" encoding="UTF-8" standalone="no"?>
<!DOCTYPE svg PUBLIC "-//W3C//DTD SVG 1.1//EN"
 "http://www.w3.org/Graphics/SVG/1.1/DTD/svg11.dtd">
<!-- Generated by graphviz version 2.38.0 (20140413.2041)
 -->
<!-- Title: NFIClassModule.h Pages: 1 -->
<svg width="1634pt" height="587pt"
 viewBox="0.00 0.00 1634.00 587.00" xmlns="http://www.w3.org/2000/svg" xmlns:xlink="http://www.w3.org/1999/xlink">
<g id="graph0" class="graph" transform="scale(1 1) rotate(0) translate(4 583)">
<title>NFIClassModule.h</title>
<polygon fill="white" stroke="none" points="-4,4 -4,-583 1630,-583 1630,4 -4,4"/>
<!-- Node0 -->
<g id="node1" class="node"><title>Node0</title>
<polygon fill="#bfbfbf" stroke="black" points="1093,-559.5 1093,-578.5 1189,-578.5 1189,-559.5 1093,-559.5"/>
<text text-anchor="middle" x="1141" y="-566.5" font-family="Helvetica,sans-Serif" font-size="10.00">NFIClassModule.h</text>
</g>
<!-- Node1 -->
<g id="node2" class="node"><title>Node1</title>
<polygon fill="white" stroke="#bfbfbf" points="1277,-62 1277,-81 1331,-81 1331,-62 1277,-62"/>
<text text-anchor="middle" x="1304" y="-69" font-family="Helvetica,sans-Serif" font-size="10.00">iostream</text>
</g>
<!-- Node0&#45;&gt;Node1 -->
<g id="edge1" class="edge"><title>Node0&#45;&gt;Node1</title>
<path fill="none" stroke="midnightblue" d="M1189.28,-566.185C1311.95,-560.266 1626,-536.386 1626,-447 1626,-447 1626,-447 1626,-199 1626,-155.688 1602.09,-145.372 1565,-123 1527.83,-100.577 1404.35,-83.8395 1341.48,-76.5395"/>
<polygon fill="midnightblue" stroke="midnightblue" points="1341.54,-73.0235 1331.21,-75.368 1340.75,-79.9784 1341.54,-73.0235"/>
</g>
<!-- Node2 -->
<g id="node3" class="node"><title>Node2</title>
<g id="a_node3"><a xlink:href="_n_f_i_module_8h.html" target="_top" xlink:title="NFIModule.h">
<polygon fill="white" stroke="black" points="492.5,-375 492.5,-394 563.5,-394 563.5,-375 492.5,-375"/>
<text text-anchor="middle" x="528" y="-382" font-family="Helvetica,sans-Serif" font-size="10.00">NFIModule.h</text>
</a>
</g>
</g>
<!-- Node0&#45;&gt;Node2 -->
<g id="edge2" class="edge"><title>Node0&#45;&gt;Node2</title>
<path fill="none" stroke="midnightblue" d="M1112.26,-559.442C1012.31,-529.686 679.829,-430.702 566.346,-396.916"/>
<polygon fill="midnightblue" stroke="midnightblue" points="567.265,-393.538 556.682,-394.039 565.267,-400.247 567.265,-393.538"/>
</g>
<!-- Node33 -->
<g id="node34" class="node"><title>Node33</title>
<g id="a_node34"><a xlink:href="_n_f_i_property_manager_8h.html" target="_top" xlink:title="NFComm/NFCore/NFIProperty\lManager.h">
<polygon fill="white" stroke="black" points="1296.5,-369.5 1296.5,-399.5 1445.5,-399.5 1445.5,-369.5 1296.5,-369.5"/>
<text text-anchor="start" x="1304.5" y="-387.5" font-family="Helvetica,sans-Serif" font-size="10.00">NFComm/NFCore/NFIProperty</text>
<text text-anchor="middle" x="1371" y="-376.5" font-family="Helvetica,sans-Serif" font-size="10.00">Manager.h</text>
</a>
</g>
</g>
<!-- Node0&#45;&gt;Node33 -->
<g id="edge62" class="edge"><title>Node0&#45;&gt;Node33</title>
<path fill="none" stroke="midnightblue" d="M1151.78,-559.442C1186.29,-532.063 1294.66,-446.075 1344.92,-406.193"/>
<polygon fill="midnightblue" stroke="midnightblue" points="1347.38,-408.712 1353.04,-399.755 1343.03,-403.229 1347.38,-408.712"/>
</g>
<!-- Node35 -->
<g id="node36" class="node"><title>Node35</title>
<g id="a_node36"><a xlink:href="_n_f_i_record_manager_8h.html" target="_top" xlink:title="NFComm/NFCore/NFIRecordManager.h">
<polygon fill="white" stroke="black" points="1047,-375 1047,-394 1235,-394 1235,-375 1047,-375"/>
<text text-anchor="middle" x="1141" y="-382" font-family="Helvetica,sans-Serif" font-size="10.00">NFComm/NFCore/NFIRecordManager.h</text>
</a>
</g>
</g>
<!-- Node0&#45;&gt;Node35 -->
<g id="edge69" class="edge"><title>Node0&#45;&gt;Node35</title>
<path fill="none" stroke="midnightblue" d="M1141,-559.198C1141,-531.193 1141,-443.713 1141,-404.66"/>
<polygon fill="midnightblue" stroke="midnightblue" points="1144.5,-404.214 1141,-394.214 1137.5,-404.214 1144.5,-404.214"/>
</g>
<!-- Node36 -->
<g id="node37" class="node"><title>Node36</title>
<g id="a_node37"><a xlink:href="_n_f_i_component_manager_8h.html" target="_top" xlink:title="NFComm/NFCore/NFIComponent\lManager.h">
<polygon fill="white" stroke="black" points="371.5,-492.5 371.5,-522.5 532.5,-522.5 532.5,-492.5 371.5,-492.5"/>
<text text-anchor="start" x="379.5" y="-510.5" font-family="Helvetica,sans-Serif" font-size="10.00">NFComm/NFCore/NFIComponent</text>
<text text-anchor="middle" x="452" y="-499.5" font-family="Helvetica,sans-Serif" font-size="10.00">Manager.h</text>
</a>
</g>
</g>
<!-- Node0&#45;&gt;Node36 -->
<g id="edge72" class="edge"><title>Node0&#45;&gt;Node36</title>
<path fill="none" stroke="midnightblue" d="M1092.82,-563.84C978.729,-553.987 690.524,-529.098 542.624,-516.326"/>
<polygon fill="midnightblue" stroke="midnightblue" points="542.919,-512.839 532.655,-515.465 542.316,-519.813 542.919,-512.839"/>
</g>
<!-- Node3 -->
<g id="node4" class="node"><title>Node3</title>
<polygon fill="white" stroke="#bfbfbf" points="591.5,-0.5 591.5,-19.5 632.5,-19.5 632.5,-0.5 591.5,-0.5"/>
<text text-anchor="middle" x="612" y="-7.5" font-family="Helvetica,sans-Serif" font-size="10.00">string</text>
</g>
<!-- Node2&#45;&gt;Node3 -->
<g id="edge3" class="edge"><title>Node2&#45;&gt;Node3</title>
<path fill="none" stroke="midnightblue" d="M492.11,-380.512C372.829,-368.736 0.326339,-316.233 57,-123 66.9581,-89.0473 69.7237,-74.311 100,-56 110.38,-49.7224 472.726,-21.6274 581.458,-13.3205"/>
<polygon fill="midnightblue" stroke="midnightblue" points="581.749,-16.8085 591.454,-12.558 581.217,-9.82878 581.749,-16.8085"/>
</g>
<!-- Node4 -->
<g id="node5" class="node"><title>Node4</title>
<g id="a_node5"><a xlink:href="_n_f_map_8h.html" target="_top" xlink:title="NFComm/NFCore/NFMap.h">
<polygon fill="white" stroke="black" points="1310.5,-252 1310.5,-271 1447.5,-271 1447.5,-252 1310.5,-252"/>
<text text-anchor="middle" x="1379" y="-259" font-family="Helvetica,sans-Serif" font-size="10.00">NFComm/NFCore/NFMap.h</text>
</a>
</g>
</g>
<!-- Node2&#45;&gt;Node4 -->
<g id="edge4" class="edge"><title>Node2&#45;&gt;Node4</title>
<path fill="none" stroke="midnightblue" d="M563.692,-379.96C630.334,-373.064 778.072,-356.428 901,-333 937.426,-326.058 945.547,-319.795 982,-313 1091.71,-292.548 1220.05,-277.879 1300.44,-269.789"/>
<polygon fill="midnightblue" stroke="midnightblue" points="1300.88,-273.262 1310.49,-268.787 1300.19,-266.296 1300.88,-273.262"/>
</g>
<!-- Node15 -->
<g id="node16" class="node"><title>Node15</title>
<g id="a_node16"><a xlink:href="_n_f_list_8h.html" target="_top" xlink:title="NFComm/NFCore/NFList.h">
<polygon fill="white" stroke="black" points="1180,-190.5 1180,-209.5 1314,-209.5 1314,-190.5 1180,-190.5"/>
<text text-anchor="middle" x="1247" y="-197.5" font-family="Helvetica,sans-Serif" font-size="10.00">NFComm/NFCore/NFList.h</text>
</a>
</g>
</g>
<!-- Node2&#45;&gt;Node15 -->
<g id="edge23" class="edge"><title>Node2&#45;&gt;Node15</title>
<path fill="none" stroke="midnightblue" d="M563.894,-381.343C625.306,-376.921 753.978,-364.45 858,-333 878.175,-326.9 881.381,-320.704 901,-313 1009.5,-270.391 1141.46,-230.988 1206.61,-212.328"/>
<polygon fill="midnightblue" stroke="midnightblue" points="1207.82,-215.622 1216.48,-209.514 1205.9,-208.89 1207.82,-215.622"/>
</g>
<!-- Node17 -->
<g id="node18" class="node"><title>Node17</title>
<g id="a_node18"><a xlink:href="_n_f_define_8h.html" target="_top" xlink:title="NFComm/NFCore/NFDefine.h">
<polygon fill="white" stroke="black" points="537.5,-252 537.5,-271 682.5,-271 682.5,-252 537.5,-252"/>
<text text-anchor="middle" x="610" y="-259" font-family="Helvetica,sans-Serif" font-size="10.00">NFComm/NFCore/NFDefine.h</text>
</a>
</g>
</g>
<!-- Node2&#45;&gt;Node17 -->
<g id="edge29" class="edge"><title>Node2&#45;&gt;Node17</title>
<path fill="none" stroke="midnightblue" d="M533.897,-374.798C547.372,-354.914 580.621,-305.852 598.38,-279.647"/>
<polygon fill="midnightblue" stroke="midnightblue" points="601.444,-281.365 604.156,-271.123 595.649,-277.438 601.444,-281.365"/>
</g>
<!-- Node19 -->
<g id="node20" class="node"><title>Node19</title>
<g id="a_node20"><a xlink:href="_a_f_data_list_8hpp.html" target="_top" xlink:title="AFDataList.hpp">
<polygon fill="white" stroke="black" points="669,-190.5 669,-209.5 753,-209.5 753,-190.5 669,-190.5"/>
<text text-anchor="middle" x="711" y="-197.5" font-family="Helvetica,sans-Serif" font-size="10.00">AFDataList.hpp</text>
</a>
</g>
</g>
<!-- Node2&#45;&gt;Node19 -->
<g id="edge56" class="edge"><title>Node2&#45;&gt;Node19</title>
<path fill="none" stroke="midnightblue" d="M524.769,-374.932C516.513,-351.426 497.368,-285.078 528,-246 544.017,-225.567 610.512,-213.173 658.738,-206.704"/>
<polygon fill="midnightblue" stroke="midnightblue" points="659.259,-210.166 668.728,-205.413 658.361,-203.224 659.259,-210.166"/>
</g>
<!-- Node31 -->
<g id="node32" class="node"><title>Node31</title>
<g id="a_node32"><a xlink:href="_n_f_i_record_8h.html" target="_top" xlink:title="NFComm/NFCore/NFIRecord.h">
<polygon fill="white" stroke="black" points="585.5,-313.5 585.5,-332.5 736.5,-332.5 736.5,-313.5 585.5,-313.5"/>
<text text-anchor="middle" x="661" y="-320.5" font-family="Helvetica,sans-Serif" font-size="10.00">NFComm/NFCore/NFIRecord.h</text>
</a>
</g>
</g>
<!-- Node2&#45;&gt;Node31 -->
<g id="edge57" class="edge"><title>Node2&#45;&gt;Node31</title>
<path fill="none" stroke="midnightblue" d="M547.056,-374.975C569.475,-364.945 606.905,-348.2 632.713,-336.655"/>
<polygon fill="midnightblue" stroke="midnightblue" points="634.281,-339.788 641.98,-332.509 631.422,-333.398 634.281,-339.788"/>
</g>
<!-- Node32 -->
<g id="node33" class="node"><title>Node32</title>
<g id="a_node33"><a xlink:href="_n_f_event_define_8h.html" target="_top" xlink:title="NFComm/NFEventDefine\l/NFEventDefine.h">
<polygon fill="white" stroke="black" points="310.5,-246.5 310.5,-276.5 435.5,-276.5 435.5,-246.5 310.5,-246.5"/>
<text text-anchor="start" x="318.5" y="-264.5" font-family="Helvetica,sans-Serif" font-size="10.00">NFComm/NFEventDefine</text>
<text text-anchor="middle" x="373" y="-253.5" font-family="Helvetica,sans-Serif" font-size="10.00">/NFEventDefine.h</text>
</a>
</g>
</g>
<!-- Node2&#45;&gt;Node32 -->
<g id="edge60" class="edge"><title>Node2&#45;&gt;Node32</title>
<path fill="none" stroke="midnightblue" d="M518.826,-374.882C504.117,-361.213 474.151,-333.965 447,-313 433.165,-302.317 417.216,-291.282 403.675,-282.262"/>
<polygon fill="midnightblue" stroke="midnightblue" points="405.445,-279.236 395.171,-276.649 401.589,-285.079 405.445,-279.236"/>
</g>
<!-- Node4&#45;&gt;Node1 -->
<g id="edge8" class="edge"><title>Node4&#45;&gt;Node1</title>
<path fill="none" stroke="midnightblue" d="M1414.23,-251.979C1441.06,-244.235 1477.88,-230.795 1505,-210 1539.07,-183.871 1574.1,-156.307 1547,-123 1521.49,-91.6401 1402.82,-79.1209 1341.27,-74.6711"/>
<polygon fill="midnightblue" stroke="midnightblue" points="1341.4,-71.1723 1331.19,-73.9778 1340.92,-78.1558 1341.4,-71.1723"/>
</g>
<!-- Node4&#45;&gt;Node3 -->
<g id="edge7" class="edge"><title>Node4&#45;&gt;Node3</title>
<path fill="none" stroke="midnightblue" d="M1435.81,-251.997C1466.92,-244.986 1504.6,-232.393 1532,-210 1563.9,-183.927 1585.1,-158.385 1564,-123 1531.92,-69.1982 1500.29,-73.0004 1440,-56 1285.86,-12.5354 774.204,-10.6311 642.915,-10.8771"/>
<polygon fill="midnightblue" stroke="midnightblue" points="642.752,-7.37743 632.761,-10.9021 642.77,-14.3774 642.752,-7.37743"/>
</g>
<!-- Node5 -->
<g id="node6" class="node"><title>Node5</title>
<polygon fill="white" stroke="#bfbfbf" points="1486.5,-129 1486.5,-148 1521.5,-148 1521.5,-129 1486.5,-129"/>
<text text-anchor="middle" x="1504" y="-136" font-family="Helvetica,sans-Serif" font-size="10.00">map</text>
</g>
<!-- Node4&#45;&gt;Node5 -->
<g id="edge5" class="edge"><title>Node4&#45;&gt;Node5</title>
<path fill="none" stroke="midnightblue" d="M1414.32,-251.978C1437.6,-244.597 1466.99,-231.611 1485,-210 1497.03,-195.566 1501.5,-174.213 1503.13,-158.792"/>
<polygon fill="midnightblue" stroke="midnightblue" points="1506.65,-158.599 1503.9,-148.368 1499.67,-158.082 1506.65,-158.599"/>
</g>
<!-- Node6 -->
<g id="node7" class="node"><title>Node6</title>
<polygon fill="white" stroke="#bfbfbf" points="1332.5,-129 1332.5,-148 1361.5,-148 1361.5,-129 1332.5,-129"/>
<text text-anchor="middle" x="1347" y="-136" font-family="Helvetica,sans-Serif" font-size="10.00">list</text>
</g>
<!-- Node4&#45;&gt;Node6 -->
<g id="edge6" class="edge"><title>Node4&#45;&gt;Node6</title>
<path fill="none" stroke="midnightblue" d="M1376.7,-251.798C1371.53,-232.263 1358.92,-184.565 1351.91,-158.047"/>
<polygon fill="midnightblue" stroke="midnightblue" points="1355.22,-156.896 1349.28,-148.123 1348.45,-158.686 1355.22,-156.896"/>
</g>
<!-- Node7 -->
<g id="node8" class="node"><title>Node7</title>
<polygon fill="white" stroke="#bfbfbf" points="1380,-129 1380,-148 1430,-148 1430,-129 1380,-129"/>
<text text-anchor="middle" x="1405" y="-136" font-family="Helvetica,sans-Serif" font-size="10.00">typeinfo</text>
</g>
<!-- Node4&#45;&gt;Node7 -->
<g id="edge9" class="edge"><title>Node4&#45;&gt;Node7</title>
<path fill="none" stroke="midnightblue" d="M1380.87,-251.798C1385.07,-232.263 1395.32,-184.565 1401.01,-158.047"/>
<polygon fill="midnightblue" stroke="midnightblue" points="1404.47,-158.635 1403.15,-148.123 1397.62,-157.165 1404.47,-158.635"/>
</g>
<!-- Node8 -->
<g id="node9" class="node"><title>Node8</title>
<g id="a_node9"><a xlink:href="_n_f_map_ex_8h.html" target="_top" xlink:title="NFMapEx.h">
<polygon fill="white" stroke="black" points="1408,-190.5 1408,-209.5 1476,-209.5 1476,-190.5 1408,-190.5"/>
<text text-anchor="middle" x="1442" y="-197.5" font-family="Helvetica,sans-Serif" font-size="10.00">NFMapEx.h</text>
</a>
</g>
</g>
<!-- Node4&#45;&gt;Node8 -->
<g id="edge10" class="edge"><title>Node4&#45;&gt;Node8</title>
<path fill="none" stroke="midnightblue" d="M1388.03,-251.975C1397.76,-242.785 1413.46,-227.956 1425.42,-216.656"/>
<polygon fill="midnightblue" stroke="midnightblue" points="1428.12,-218.92 1432.99,-209.509 1423.32,-213.831 1428.12,-218.92"/>
</g>
<!-- Node8&#45;&gt;Node1 -->
<g id="edge14" class="edge"><title>Node8&#45;&gt;Node1</title>
<path fill="none" stroke="midnightblue" d="M1476.06,-191.006C1495.5,-184.509 1518.27,-173.175 1530,-154 1537.19,-142.247 1538.61,-133.752 1530,-123 1506.81,-94.0538 1399.64,-80.5996 1341.6,-75.3428"/>
<polygon fill="midnightblue" stroke="midnightblue" points="1341.63,-71.8324 1331.36,-74.4547 1341.02,-78.8062 1341.63,-71.8324"/>
</g>
<!-- Node8&#45;&gt;Node3 -->
<g id="edge13" class="edge"><title>Node8&#45;&gt;Node3</title>
<path fill="none" stroke="midnightblue" d="M1476.19,-194.276C1500.45,-188.943 1531.39,-177.677 1547,-154 1554.58,-142.498 1555.1,-134.142 1547,-123 1490.12,-44.8009 1435.01,-74.0138 1340,-56 1203.08,-30.0388 763.436,-15.4541 642.845,-11.8747"/>
<polygon fill="midnightblue" stroke="midnightblue" points="642.914,-8.37534 632.816,-11.5807 642.709,-15.3723 642.914,-8.37534"/>
</g>
<!-- Node8&#45;&gt;Node5 -->
<g id="edge11" class="edge"><title>Node8&#45;&gt;Node5</title>
<path fill="none" stroke="midnightblue" d="M1450.88,-190.475C1460.46,-181.285 1475.91,-166.456 1487.69,-155.156"/>
<polygon fill="midnightblue" stroke="midnightblue" points="1490.34,-157.458 1495.13,-148.009 1485.49,-152.408 1490.34,-157.458"/>
</g>
<!-- Node8&#45;&gt;Node6 -->
<g id="edge12" class="edge"><title>Node8&#45;&gt;Node6</title>
<path fill="none" stroke="midnightblue" d="M1428.39,-190.475C1412.94,-180.799 1387.51,-164.872 1369.18,-153.394"/>
<polygon fill="midnightblue" stroke="midnightblue" points="1370.92,-150.351 1360.59,-148.009 1367.2,-156.283 1370.92,-150.351"/>
</g>
<!-- Node8&#45;&gt;Node7 -->
<g id="edge15" class="edge"><title>Node8&#45;&gt;Node7</title>
<path fill="none" stroke="midnightblue" d="M1436.7,-190.475C1431.26,-181.727 1422.64,-167.869 1415.76,-156.809"/>
<polygon fill="midnightblue" stroke="midnightblue" points="1418.54,-154.653 1410.29,-148.009 1412.6,-158.349 1418.54,-154.653"/>
</g>
<!-- Node9 -->
<g id="node10" class="node"><title>Node9</title>
<polygon fill="white" stroke="#bfbfbf" points="1186,-129 1186,-148 1238,-148 1238,-129 1186,-129"/>
<text text-anchor="middle" x="1212" y="-136" font-family="Helvetica,sans-Serif" font-size="10.00">memory</text>
</g>
<!-- Node8&#45;&gt;Node9 -->
<g id="edge16" class="edge"><title>Node8&#45;&gt;Node9</title>
<path fill="none" stroke="midnightblue" d="M1409.05,-190.475C1366.29,-179.415 1291.97,-160.189 1247.85,-148.774"/>
<polygon fill="midnightblue" stroke="midnightblue" points="1248.67,-145.372 1238.12,-146.256 1246.92,-152.149 1248.67,-145.372"/>
</g>
<!-- Node10 -->
<g id="node11" class="node"><title>Node10</title>
<g id="a_node11"><a xlink:href="_n_f_platform_8h.html" target="_top" xlink:title="NFComm/NFPluginModule\l/NFPlatform.h">
<polygon fill="white" stroke="black" points="274,-56.5 274,-86.5 406,-86.5 406,-56.5 274,-56.5"/>
<text text-anchor="start" x="282" y="-74.5" font-family="Helvetica,sans-Serif" font-size="10.00">NFComm/NFPluginModule</text>
<text text-anchor="middle" x="340" y="-63.5" font-family="Helvetica,sans-Serif" font-size="10.00">/NFPlatform.h</text>
</a>
</g>
</g>
<!-- Node8&#45;&gt;Node10 -->
<g id="edge17" class="edge"><title>Node8&#45;&gt;Node10</title>
<path fill="none" stroke="midnightblue" d="M1444.9,-190.481C1449.67,-174.699 1456.96,-140.897 1439,-123 1399.78,-83.913 498.155,-91.8659 443,-87 434.309,-86.2332 425.229,-85.2394 416.217,-84.1315"/>
<polygon fill="midnightblue" stroke="midnightblue" points="416.459,-80.634 406.096,-82.8382 415.572,-87.5776 416.459,-80.634"/>
</g>
<!-- Node10&#45;&gt;Node3 -->
<g id="edge22" class="edge"><title>Node10&#45;&gt;Node3</title>
<path fill="none" stroke="midnightblue" d="M404.116,-56.4747C460.123,-44.223 538.956,-26.9784 581.651,-17.6389"/>
<polygon fill="midnightblue" stroke="midnightblue" points="582.421,-21.0533 591.442,-15.4971 580.925,-14.215 582.421,-21.0533"/>
</g>
<!-- Node11 -->
<g id="node12" class="node"><title>Node11</title>
<polygon fill="white" stroke="#bfbfbf" points="368.5,-0.5 368.5,-19.5 417.5,-19.5 417.5,-0.5 368.5,-0.5"/>
<text text-anchor="middle" x="393" y="-7.5" font-family="Helvetica,sans-Serif" font-size="10.00">stdint.h</text>
</g>
<!-- Node10&#45;&gt;Node11 -->
<g id="edge18" class="edge"><title>Node10&#45;&gt;Node11</title>
<path fill="none" stroke="midnightblue" d="M352.56,-56.3993C360.341,-47.6641 370.364,-36.4126 378.484,-27.2962"/>
<polygon fill="midnightblue" stroke="midnightblue" points="381.25,-29.453 385.288,-19.6578 376.023,-24.797 381.25,-29.453"/>
</g>
<!-- Node12 -->
<g id="node13" class="node"><title>Node12</title>
<polygon fill="white" stroke="#bfbfbf" points="436,-0.5 436,-19.5 480,-19.5 480,-0.5 436,-0.5"/>
<text text-anchor="middle" x="458" y="-7.5" font-family="Helvetica,sans-Serif" font-size="10.00">time.h</text>
</g>
<!-- Node10&#45;&gt;Node12 -->
<g id="edge19" class="edge"><title>Node10&#45;&gt;Node12</title>
<path fill="none" stroke="midnightblue" d="M367.964,-56.3993C387.321,-46.6391 412.908,-33.7373 431.856,-24.1826"/>
<polygon fill="midnightblue" stroke="midnightblue" points="433.477,-27.2854 440.83,-19.6578 430.325,-21.035 433.477,-27.2854"/>
</g>
<!-- Node13 -->
<g id="node14" class="node"><title>Node13</title>
<polygon fill="white" stroke="#bfbfbf" points="152,-0.5 152,-19.5 204,-19.5 204,-0.5 152,-0.5"/>
<text text-anchor="middle" x="178" y="-7.5" font-family="Helvetica,sans-Serif" font-size="10.00">sstream</text>
</g>
<!-- Node10&#45;&gt;Node13 -->
<g id="edge20" class="edge"><title>Node10&#45;&gt;Node13</title>
<path fill="none" stroke="midnightblue" d="M301.608,-56.3993C274.063,-46.2826 237.329,-32.7905 211.079,-23.1493"/>
<polygon fill="midnightblue" stroke="midnightblue" points="212.166,-19.8201 201.572,-19.6578 209.753,-26.3909 212.166,-19.8201"/>
</g>
<!-- Node14 -->
<g id="node15" class="node"><title>Node14</title>
<polygon fill="white" stroke="#bfbfbf" points="222,-0.5 222,-19.5 350,-19.5 350,-0.5 222,-0.5"/>
<text text-anchor="middle" x="286" y="-7.5" font-family="Helvetica,sans-Serif" font-size="10.00">common/lexical_cast.hpp</text>
</g>
<!-- Node10&#45;&gt;Node14 -->
<g id="edge21" class="edge"><title>Node10&#45;&gt;Node14</title>
<path fill="none" stroke="midnightblue" d="M327.203,-56.3993C319.275,-47.6641 309.064,-36.4126 300.79,-27.2962"/>
<polygon fill="midnightblue" stroke="midnightblue" points="303.17,-24.7106 293.857,-19.6578 297.986,-29.415 303.17,-24.7106"/>
</g>
<!-- Node15&#45;&gt;Node1 -->
<g id="edge24" class="edge"><title>Node15&#45;&gt;Node1</title>
<path fill="none" stroke="midnightblue" d="M1254.82,-190.297C1262.23,-181.645 1273.21,-167.719 1280,-154 1290.09,-133.613 1296.73,-108.212 1300.42,-91.2367"/>
<polygon fill="midnightblue" stroke="midnightblue" points="1303.85,-91.9339 1302.42,-81.4356 1296.99,-90.5324 1303.85,-91.9339"/>
</g>
<!-- Node15&#45;&gt;Node5 -->
<g id="edge25" class="edge"><title>Node15&#45;&gt;Node5</title>
<path fill="none" stroke="midnightblue" d="M1283.82,-190.475C1335.84,-178.431 1429.69,-156.704 1476.25,-145.925"/>
<polygon fill="midnightblue" stroke="midnightblue" points="1477.27,-149.28 1486.23,-143.615 1475.7,-142.46 1477.27,-149.28"/>
</g>
<!-- Node15&#45;&gt;Node6 -->
<g id="edge26" class="edge"><title>Node15&#45;&gt;Node6</title>
<path fill="none" stroke="midnightblue" d="M1261.33,-190.475C1277.66,-180.755 1304.6,-164.727 1323.91,-153.237"/>
<polygon fill="midnightblue" stroke="midnightblue" points="1325.89,-156.13 1332.7,-148.009 1322.32,-150.115 1325.89,-156.13"/>
</g>
<!-- Node15&#45;&gt;Node10 -->
<g id="edge28" class="edge"><title>Node15&#45;&gt;Node10</title>
<path fill="none" stroke="midnightblue" d="M1250.37,-190.312C1255.84,-174.555 1264.42,-141.214 1247,-123 1216.1,-90.6849 487.521,-91.1211 443,-87 434.312,-86.1958 425.235,-85.1787 416.224,-84.0576"/>
<polygon fill="midnightblue" stroke="midnightblue" points="416.469,-80.5603 406.104,-82.7535 415.574,-87.5029 416.469,-80.5603"/>
</g>
<!-- Node16 -->
<g id="node17" class="node"><title>Node16</title>
<polygon fill="white" stroke="#bfbfbf" points="1112,-129 1112,-148 1168,-148 1168,-129 1112,-129"/>
<text text-anchor="middle" x="1140" y="-136" font-family="Helvetica,sans-Serif" font-size="10.00">algorithm</text>
</g>
<!-- Node15&#45;&gt;Node16 -->
<g id="edge27" class="edge"><title>Node15&#45;&gt;Node16</title>
<path fill="none" stroke="midnightblue" d="M1231.67,-190.475C1214.03,-180.666 1184.84,-164.435 1164.14,-152.925"/>
<polygon fill="midnightblue" stroke="midnightblue" points="1165.74,-149.81 1155.3,-148.009 1162.34,-155.928 1165.74,-149.81"/>
</g>
<!-- Node18 -->
<g id="node19" class="node"><title>Node18</title>
<polygon fill="white" stroke="#bfbfbf" points="254,-129 254,-148 312,-148 312,-129 254,-129"/>
<text text-anchor="middle" x="283" y="-136" font-family="Helvetica,sans-Serif" font-size="10.00">functional</text>
</g>
<!-- Node17&#45;&gt;Node18 -->
<g id="edge30" class="edge"><title>Node17&#45;&gt;Node18</title>
<path fill="none" stroke="midnightblue" d="M587.006,-251.992C530.036,-230.911 382.179,-176.199 315.939,-151.688"/>
<polygon fill="midnightblue" stroke="midnightblue" points="316.999,-148.349 306.406,-148.161 314.57,-154.914 316.999,-148.349"/>
</g>
<!-- Node17&#45;&gt;Node19 -->
<g id="edge31" class="edge"><title>Node17&#45;&gt;Node19</title>
<path fill="none" stroke="midnightblue" d="M624.471,-251.975C640.971,-242.255 668.178,-226.227 687.681,-214.737"/>
<polygon fill="midnightblue" stroke="midnightblue" points="689.716,-217.601 696.556,-209.509 686.163,-211.569 689.716,-217.601"/>
</g>
<!-- Node28 -->
<g id="node29" class="node"><title>Node28</title>
<g id="a_node29"><a xlink:href="_n_f_g_u_i_d_8h.html" target="_top" xlink:title="NFComm/NFPluginModule\l/NFGUID.h">
<polygon fill="white" stroke="black" points="66,-123.5 66,-153.5 198,-153.5 198,-123.5 66,-123.5"/>
<text text-anchor="start" x="74" y="-141.5" font-family="Helvetica,sans-Serif" font-size="10.00">NFComm/NFPluginModule</text>
<text text-anchor="middle" x="132" y="-130.5" font-family="Helvetica,sans-Serif" font-size="10.00">/NFGUID.h</text>
</a>
</g>
</g>
<!-- Node17&#45;&gt;Node28 -->
<g id="edge55" class="edge"><title>Node17&#45;&gt;Node28</title>
<path fill="none" stroke="midnightblue" d="M576.388,-251.992C497.724,-232.079 300.516,-182.158 197.297,-156.029"/>
<polygon fill="midnightblue" stroke="midnightblue" points="197.859,-152.561 187.306,-153.5 196.141,-159.347 197.859,-152.561"/>
</g>
<!-- Node19&#45;&gt;Node1 -->
<g id="edge34" class="edge"><title>Node19&#45;&gt;Node1</title>
<path fill="none" stroke="midnightblue" d="M753.005,-192.778C759.69,-191.824 766.532,-190.868 773,-190 902.598,-172.607 944.74,-205.34 1065,-154 1085.05,-145.442 1083.52,-132.778 1103,-123 1156.36,-96.2151 1225,-82.936 1266.68,-76.9077"/>
<polygon fill="midnightblue" stroke="midnightblue" points="1267.25,-80.3629 1276.68,-75.5275 1266.29,-73.4288 1267.25,-80.3629"/>
</g>
<!-- Node19&#45;&gt;Node3 -->
<g id="edge32" class="edge"><title>Node19&#45;&gt;Node3</title>
<path fill="none" stroke="midnightblue" d="M682.755,-190.435C664.971,-183.523 643.152,-171.945 631,-154 605.214,-115.921 606.644,-58.8961 609.514,-29.6957"/>
<polygon fill="midnightblue" stroke="midnightblue" points="613.004,-29.9827 610.673,-19.6476 606.05,-29.1808 613.004,-29.9827"/>
</g>
<!-- Node19&#45;&gt;Node5 -->
<g id="edge39" class="edge"><title>Node19&#45;&gt;Node5</title>
<path fill="none" stroke="midnightblue" d="M753.089,-198.714C865.187,-197.452 1180.09,-190.647 1439,-154 1451.45,-152.238 1465.04,-149.358 1476.57,-146.626"/>
<polygon fill="midnightblue" stroke="midnightblue" points="1477.6,-149.977 1486.48,-144.196 1475.94,-143.179 1477.6,-149.977"/>
</g>
<!-- Node19&#45;&gt;Node6 -->
<g id="edge37" class="edge"><title>Node19&#45;&gt;Node6</title>
<path fill="none" stroke="midnightblue" d="M753.127,-196.33C843.678,-190.401 1063.53,-174.984 1247,-154 1272.85,-151.043 1302.32,-146.644 1322.54,-143.468"/>
<polygon fill="midnightblue" stroke="midnightblue" points="1323.14,-146.916 1332.46,-141.889 1322.04,-140.003 1323.14,-146.916"/>
</g>
<!-- Node19&#45;&gt;Node7 -->
<g id="edge42" class="edge"><title>Node19&#45;&gt;Node7</title>
<path fill="none" stroke="midnightblue" d="M753.112,-197.905C879.147,-194.346 1251.94,-181.702 1370,-154 1372.67,-153.374 1375.4,-152.567 1378.09,-151.655"/>
<polygon fill="midnightblue" stroke="midnightblue" points="1379.48,-154.872 1387.56,-148.026 1376.97,-148.336 1379.48,-154.872"/>
</g>
<!-- Node19&#45;&gt;Node9 -->
<g id="edge46" class="edge"><title>Node19&#45;&gt;Node9</title>
<path fill="none" stroke="midnightblue" d="M753.315,-192.539C759.897,-191.626 766.626,-190.746 773,-190 952.045,-169.044 1001.93,-196.993 1177,-154 1179.52,-153.382 1182.08,-152.612 1184.63,-151.75"/>
<polygon fill="midnightblue" stroke="midnightblue" points="1186.09,-154.938 1194.19,-148.103 1183.6,-148.399 1186.09,-154.938"/>
</g>
<!-- Node19&#45;&gt;Node10 -->
<g id="edge53" class="edge"><title>Node19&#45;&gt;Node10</title>
<path fill="none" stroke="midnightblue" d="M668.803,-199.41C585.411,-199.32 403.697,-194.36 359,-154 343.225,-139.756 339.275,-115.178 338.786,-96.7274"/>
<polygon fill="midnightblue" stroke="midnightblue" points="342.286,-96.7137 338.835,-86.6967 335.286,-96.6795 342.286,-96.7137"/>
</g>
<!-- Node19&#45;&gt;Node16 -->
<g id="edge40" class="edge"><title>Node19&#45;&gt;Node16</title>
<path fill="none" stroke="midnightblue" d="M753.33,-192.66C759.91,-191.731 766.635,-190.814 773,-190 917.153,-171.559 956.219,-185.91 1098,-154 1101.41,-153.231 1104.94,-152.28 1108.43,-151.234"/>
<polygon fill="midnightblue" stroke="midnightblue" points="1109.6,-154.531 1118.03,-148.112 1107.44,-147.874 1109.6,-154.531"/>
</g>
<!-- Node19&#45;&gt;Node18 -->
<g id="edge44" class="edge"><title>Node19&#45;&gt;Node18</title>
<path fill="none" stroke="midnightblue" d="M668.93,-196.961C597.62,-192.868 448.787,-181.56 326,-154 322.512,-153.217 318.91,-152.256 315.343,-151.205"/>
<polygon fill="midnightblue" stroke="midnightblue" points="316.101,-147.773 305.51,-148.076 313.978,-154.444 316.101,-147.773"/>
</g>
<!-- Node20 -->
<g id="node21" class="node"><title>Node20</title>
<polygon fill="white" stroke="#bfbfbf" points="1010,-129 1010,-148 1056,-148 1056,-129 1010,-129"/>
<text text-anchor="middle" x="1033" y="-136" font-family="Helvetica,sans-Serif" font-size="10.00">cstring</text>
</g>
<!-- Node19&#45;&gt;Node20 -->
<g id="edge33" class="edge"><title>Node19&#45;&gt;Node20</title>
<path fill="none" stroke="midnightblue" d="M753.206,-192.759C830.785,-181.243 989.236,-157.507 1001,-154 1002.93,-153.425 1004.89,-152.757 1006.85,-152.03"/>
<polygon fill="midnightblue" stroke="midnightblue" points="1008.5,-155.133 1016.39,-148.057 1005.81,-148.671 1008.5,-155.133"/>
</g>
<!-- Node21 -->
<g id="node22" class="node"><title>Node21</title>
<polygon fill="white" stroke="#bfbfbf" points="452,-62 452,-81 500,-81 500,-62 452,-62"/>
<text text-anchor="middle" x="476" y="-69" font-family="Helvetica,sans-Serif" font-size="10.00">stdlib.h</text>
</g>
<!-- Node19&#45;&gt;Node21 -->
<g id="edge35" class="edge"><title>Node19&#45;&gt;Node21</title>
<path fill="none" stroke="midnightblue" d="M668.898,-198.264C627.926,-195.551 565.759,-185.924 523,-154 501.675,-138.079 488.457,-109.411 481.664,-90.6709"/>
<polygon fill="midnightblue" stroke="midnightblue" points="484.979,-89.5474 478.467,-81.1899 478.346,-91.784 484.979,-89.5474"/>
</g>
<!-- Node22 -->
<g id="node23" class="node"><title>Node22</title>
<polygon fill="white" stroke="#bfbfbf" points="368.5,-129 368.5,-148 415.5,-148 415.5,-129 368.5,-129"/>
<text text-anchor="middle" x="392" y="-136" font-family="Helvetica,sans-Serif" font-size="10.00">math.h</text>
</g>
<!-- Node19&#45;&gt;Node22 -->
<g id="edge36" class="edge"><title>Node19&#45;&gt;Node22</title>
<path fill="none" stroke="midnightblue" d="M668.574,-195.764C612.065,-190.68 509.412,-178.734 425,-154 422.853,-153.371 420.662,-152.635 418.482,-151.834"/>
<polygon fill="midnightblue" stroke="midnightblue" points="419.736,-148.566 409.155,-148.037 417.097,-155.049 419.736,-148.566"/>
</g>
<!-- Node23 -->
<g id="node24" class="node"><title>Node23</title>
<polygon fill="white" stroke="#bfbfbf" points="434,-129 434,-148 476,-148 476,-129 434,-129"/>
<text text-anchor="middle" x="455" y="-136" font-family="Helvetica,sans-Serif" font-size="10.00">vector</text>
</g>
<!-- Node19&#45;&gt;Node23 -->
<g id="edge38" class="edge"><title>Node19&#45;&gt;Node23</title>
<path fill="none" stroke="midnightblue" d="M668.857,-192.889C623.94,-185.806 551.032,-172.667 490,-154 487.718,-153.302 485.38,-152.511 483.047,-151.666"/>
<polygon fill="midnightblue" stroke="midnightblue" points="484.237,-148.374 473.648,-148.002 481.694,-154.895 484.237,-148.374"/>
</g>
<!-- Node24 -->
<g id="node25" class="node"><title>Node24</title>
<polygon fill="white" stroke="#bfbfbf" points="532,-129 532,-148 584,-148 584,-129 532,-129"/>
<text text-anchor="middle" x="558" y="-136" font-family="Helvetica,sans-Serif" font-size="10.00">assert.h</text>
</g>
<!-- Node19&#45;&gt;Node24 -->
<g id="edge41" class="edge"><title>Node19&#45;&gt;Node24</title>
<path fill="none" stroke="midnightblue" d="M689.079,-190.475C662.948,-180.313 619.088,-163.256 589.37,-151.7"/>
<polygon fill="midnightblue" stroke="midnightblue" points="590.469,-148.372 579.881,-148.009 587.932,-154.896 590.469,-148.372"/>
</g>
<!-- Node25 -->
<g id="node26" class="node"><title>Node25</title>
<polygon fill="white" stroke="#bfbfbf" points="640,-129 640,-148 690,-148 690,-129 640,-129"/>
<text text-anchor="middle" x="665" y="-136" font-family="Helvetica,sans-Serif" font-size="10.00">iomanip</text>
</g>
<!-- Node19&#45;&gt;Node25 -->
<g id="edge43" class="edge"><title>Node19&#45;&gt;Node25</title>
<path fill="none" stroke="midnightblue" d="M704.409,-190.475C697.509,-181.55 686.498,-167.307 677.866,-156.143"/>
<polygon fill="midnightblue" stroke="midnightblue" points="680.464,-153.78 671.578,-148.009 674.926,-158.061 680.464,-153.78"/>
</g>
<!-- Node26 -->
<g id="node27" class="node"><title>Node26</title>
<polygon fill="white" stroke="#bfbfbf" points="708.5,-129 708.5,-148 757.5,-148 757.5,-129 708.5,-129"/>
<text text-anchor="middle" x="733" y="-136" font-family="Helvetica,sans-Serif" font-size="10.00">fstream</text>
</g>
<!-- Node19&#45;&gt;Node26 -->
<g id="edge45" class="edge"><title>Node19&#45;&gt;Node26</title>
<path fill="none" stroke="midnightblue" d="M714.152,-190.475C717.321,-181.904 722.304,-168.427 726.351,-157.483"/>
<polygon fill="midnightblue" stroke="midnightblue" points="729.668,-158.602 729.854,-148.009 723.103,-156.175 729.668,-158.602"/>
</g>
<!-- Node27 -->
<g id="node28" class="node"><title>Node27</title>
<polygon fill="white" stroke="#bfbfbf" points="776,-129 776,-148 880,-148 880,-129 776,-129"/>
<text text-anchor="middle" x="828" y="-136" font-family="Helvetica,sans-Serif" font-size="10.00">common/variant.hpp</text>
</g>
<!-- Node19&#45;&gt;Node27 -->
<g id="edge47" class="edge"><title>Node19&#45;&gt;Node27</title>
<path fill="none" stroke="midnightblue" d="M727.763,-190.475C747.225,-180.578 779.545,-164.142 802.211,-152.615"/>
<polygon fill="midnightblue" stroke="midnightblue" points="803.941,-155.662 811.268,-148.009 800.768,-149.422 803.941,-155.662"/>
</g>
<!-- Node19&#45;&gt;Node28 -->
<g id="edge48" class="edge"><title>Node19&#45;&gt;Node28</title>
<path fill="none" stroke="midnightblue" d="M668.865,-195.377C587.069,-188.245 401.089,-171.547 245,-154 233.176,-152.671 220.67,-151.166 208.454,-149.641"/>
<polygon fill="midnightblue" stroke="midnightblue" points="208.642,-146.137 198.283,-148.358 207.766,-153.082 208.642,-146.137"/>
</g>
<!-- Node30 -->
<g id="node31" class="node"><title>Node30</title>
<g id="a_node31"><a xlink:href="_vector3_8hpp.html" target="_top" xlink:title="Math/Vector3.hpp">
<polygon fill="white" stroke="black" points="898,-129 898,-148 992,-148 992,-129 898,-129"/>
<text text-anchor="middle" x="945" y="-136" font-family="Helvetica,sans-Serif" font-size="10.00">Math/Vector3.hpp</text>
</a>
</g>
</g>
<!-- Node19&#45;&gt;Node30 -->
<g id="edge54" class="edge"><title>Node19&#45;&gt;Node30</title>
<path fill="none" stroke="midnightblue" d="M745.139,-190.431C780.982,-181.42 838.974,-166.8 889,-154 893.331,-152.892 897.849,-151.731 902.358,-150.568"/>
<polygon fill="midnightblue" stroke="midnightblue" points="903.332,-153.932 912.139,-148.042 901.582,-147.154 903.332,-153.932"/>
</g>
<!-- Node28&#45;&gt;Node1 -->
<g id="edge50" class="edge"><title>Node28&#45;&gt;Node1</title>
<path fill="none" stroke="midnightblue" d="M198.254,-124.79C202.896,-124.116 207.512,-123.508 212,-123 623.695,-76.3803 1127.36,-72.548 1266.74,-72.43"/>
<polygon fill="midnightblue" stroke="midnightblue" points="1266.88,-75.9301 1276.88,-72.4277 1266.88,-68.9301 1266.88,-75.9301"/>
</g>
<!-- Node28&#45;&gt;Node10 -->
<g id="edge49" class="edge"><title>Node28&#45;&gt;Node10</title>
<path fill="none" stroke="midnightblue" d="M176.877,-123.476C208.616,-113.557 251.357,-100.201 285.126,-89.6481"/>
<polygon fill="midnightblue" stroke="midnightblue" points="286.344,-92.9344 294.845,-86.6109 284.256,-86.2531 286.344,-92.9344"/>
</g>
<!-- Node28&#45;&gt;Node21 -->
<g id="edge52" class="edge"><title>Node28&#45;&gt;Node21</title>
<path fill="none" stroke="midnightblue" d="M198.351,-125.454C202.97,-124.622 207.554,-123.797 212,-123 302.192,-106.829 325.278,-105.603 415,-87 423.733,-85.1892 433.125,-83.0521 441.86,-80.9831"/>
<polygon fill="midnightblue" stroke="midnightblue" points="442.827,-84.3503 451.732,-78.6092 441.191,-77.5443 442.827,-84.3503"/>
</g>
<!-- Node29 -->
<g id="node30" class="node"><title>Node29</title>
<polygon fill="white" stroke="#bfbfbf" points="109,-62 109,-81 155,-81 155,-62 109,-62"/>
<text text-anchor="middle" x="132" y="-69" font-family="Helvetica,sans-Serif" font-size="10.00">stdio.h</text>
</g>
<!-- Node28&#45;&gt;Node29 -->
<g id="edge51" class="edge"><title>Node28&#45;&gt;Node29</title>
<path fill="none" stroke="midnightblue" d="M132,-123.396C132,-114.064 132,-101.714 132,-91.5173"/>
<polygon fill="midnightblue" stroke="midnightblue" points="135.5,-91.1945 132,-81.1945 128.5,-91.1946 135.5,-91.1945"/>
</g>
<!-- Node31&#45;&gt;Node17 -->
<g id="edge58" class="edge"><title>Node31&#45;&gt;Node17</title>
<path fill="none" stroke="midnightblue" d="M653.693,-313.475C645.967,-304.462 633.592,-290.025 623.982,-278.812"/>
<polygon fill="midnightblue" stroke="midnightblue" points="626.459,-276.324 617.294,-271.009 621.144,-280.879 626.459,-276.324"/>
</g>
<!-- Node31&#45;&gt;Node19 -->
<g id="edge59" class="edge"><title>Node31&#45;&gt;Node19</title>
<path fill="none" stroke="midnightblue" d="M668.148,-313.214C674.913,-304.5 684.915,-290.53 691,-277 699.376,-258.376 704.795,-235.551 707.85,-219.803"/>
<polygon fill="midnightblue" stroke="midnightblue" points="711.333,-220.211 709.667,-209.748 704.445,-218.967 711.333,-220.211"/>
</g>
<!-- Node32&#45;&gt;Node1 -->
<g id="edge61" class="edge"><title>Node32&#45;&gt;Node1</title>
<path fill="none" stroke="midnightblue" d="M342.546,-246.342C292.503,-221.297 202.464,-167.612 245,-123 280.979,-85.2648 1083.07,-74.7653 1266.76,-72.8519"/>
<polygon fill="midnightblue" stroke="midnightblue" points="1267.02,-76.3494 1276.99,-72.7476 1266.95,-69.3498 1267.02,-76.3494"/>
</g>
<!-- Node33&#45;&gt;Node4 -->
<g id="edge63" class="edge"><title>Node33&#45;&gt;Node4</title>
<path fill="none" stroke="midnightblue" d="M1371.95,-369.145C1373.4,-347.203 1376.17,-305.327 1377.77,-281.091"/>
<polygon fill="midnightblue" stroke="midnightblue" points="1381.27,-281.261 1378.43,-271.052 1374.28,-280.799 1381.27,-281.261"/>
</g>
<!-- Node33&#45;&gt;Node5 -->
<g id="edge68" class="edge"><title>Node33&#45;&gt;Node5</title>
<path fill="none" stroke="midnightblue" d="M1387.68,-369.415C1418.28,-342.325 1482.31,-279.462 1505,-210 1510.52,-193.106 1509.46,-172.699 1507.5,-158.197"/>
<polygon fill="midnightblue" stroke="midnightblue" points="1510.91,-157.324 1505.85,-148.012 1504,-158.443 1510.91,-157.324"/>
</g>
<!-- Node34 -->
<g id="node35" class="node"><title>Node34</title>
<g id="a_node35"><a xlink:href="_n_f_i_property_8h.html" target="_top" xlink:title="NFIProperty.h">
<polygon fill="white" stroke="black" points="772.5,-313.5 772.5,-332.5 849.5,-332.5 849.5,-313.5 772.5,-313.5"/>
<text text-anchor="middle" x="811" y="-320.5" font-family="Helvetica,sans-Serif" font-size="10.00">NFIProperty.h</text>
</a>
</g>
</g>
<!-- Node33&#45;&gt;Node34 -->
<g id="edge64" class="edge"><title>Node33&#45;&gt;Node34</title>
<path fill="none" stroke="midnightblue" d="M1296.47,-374.863C1279.24,-372.902 1260.99,-370.852 1244,-369 1104.68,-353.808 940.02,-337.015 859.817,-328.911"/>
<polygon fill="midnightblue" stroke="midnightblue" points="859.836,-325.395 849.535,-327.873 859.133,-332.359 859.836,-325.395"/>
</g>
<!-- Node34&#45;&gt;Node15 -->
<g id="edge67" class="edge"><title>Node34&#45;&gt;Node15</title>
<path fill="none" stroke="midnightblue" d="M815.317,-313.081C823.804,-296.632 844.358,-261.764 873,-246 922.476,-218.77 1075.42,-207.8 1169.7,-203.544"/>
<polygon fill="midnightblue" stroke="midnightblue" points="1169.93,-207.037 1179.77,-203.105 1169.62,-200.044 1169.93,-207.037"/>
</g>
<!-- Node34&#45;&gt;Node17 -->
<g id="edge65" class="edge"><title>Node34&#45;&gt;Node17</title>
<path fill="none" stroke="midnightblue" d="M782.202,-313.475C747.126,-303.092 687.737,-285.512 648.693,-273.954"/>
<polygon fill="midnightblue" stroke="midnightblue" points="649.327,-270.492 638.745,-271.009 647.34,-277.204 649.327,-270.492"/>
</g>
<!-- Node34&#45;&gt;Node19 -->
<g id="edge66" class="edge"><title>Node34&#45;&gt;Node19</title>
<path fill="none" stroke="midnightblue" d="M803.808,-313.298C787.231,-293.24 746.115,-243.489 724.606,-217.463"/>
<polygon fill="midnightblue" stroke="midnightblue" points="727.195,-215.102 718.127,-209.623 721.799,-219.561 727.195,-215.102"/>
</g>
<!-- Node35&#45;&gt;Node4 -->
<g id="edge71" class="edge"><title>Node35&#45;&gt;Node4</title>
<path fill="none" stroke="midnightblue" d="M1157.74,-374.992C1198.6,-354.214 1303.73,-300.765 1352.91,-275.764"/>
<polygon fill="midnightblue" stroke="midnightblue" points="1354.64,-278.813 1361.96,-271.161 1351.46,-272.573 1354.64,-278.813"/>
</g>
<!-- Node35&#45;&gt;Node31 -->
<g id="edge70" class="edge"><title>Node35&#45;&gt;Node31</title>
<path fill="none" stroke="midnightblue" d="M1072.23,-374.975C984.277,-364.073 832.312,-345.236 739.793,-333.767"/>
<polygon fill="midnightblue" stroke="midnightblue" points="739.999,-330.266 729.645,-332.509 739.138,-337.213 739.999,-330.266"/>
</g>
<!-- Node36&#45;&gt;Node2 -->
<g id="edge80" class="edge"><title>Node36&#45;&gt;Node2</title>
<path fill="none" stroke="midnightblue" d="M461.017,-492.145C475.047,-469.806 502.057,-426.804 517.139,-402.792"/>
<polygon fill="midnightblue" stroke="midnightblue" points="520.273,-404.382 522.628,-394.052 514.346,-400.659 520.273,-404.382"/>
</g>
<!-- Node36&#45;&gt;Node4 -->
<g id="edge74" class="edge"><title>Node36&#45;&gt;Node4</title>
<path fill="none" stroke="midnightblue" d="M505.507,-492.416C673.043,-448.318 1185.33,-313.476 1336.55,-273.673"/>
<polygon fill="midnightblue" stroke="midnightblue" points="1337.61,-277.013 1346.39,-271.082 1335.83,-270.243 1337.61,-277.013"/>
</g>
<!-- Node36&#45;&gt;Node9 -->
<g id="edge73" class="edge"><title>Node36&#45;&gt;Node9</title>
<path fill="none" stroke="midnightblue" d="M451.687,-492.158C451.812,-465.391 455.5,-407.095 483,-369 511.241,-329.88 531.566,-331.803 576,-313 639.614,-286.081 1111.56,-176.102 1177,-154 1178.92,-153.353 1180.88,-152.652 1182.84,-151.92"/>
<polygon fill="midnightblue" stroke="midnightblue" points="1184.53,-155.017 1192.55,-148.098 1181.97,-148.503 1184.53,-155.017"/>
</g>
<!-- Node36&#45;&gt;Node10 -->
<g id="edge79" class="edge"><title>Node36&#45;&gt;Node10</title>
<path fill="none" stroke="midnightblue" d="M371.452,-501.442C241.503,-491.048 0,-461.506 0,-385.5 0,-385.5 0,-385.5 0,-199 0,-160.829 9.07965,-145.381 40,-123 74.8551,-97.7707 186.868,-84.1996 263.703,-77.6667"/>
<polygon fill="midnightblue" stroke="midnightblue" points="264.152,-81.1416 273.829,-76.8289 263.575,-74.1655 264.152,-81.1416"/>
</g>
<!-- Node37 -->
<g id="node38" class="node"><title>Node37</title>
<g id="a_node38"><a xlink:href="_n_f_i_component_8h.html" target="_top" xlink:title="NFIComponent.h">
<polygon fill="white" stroke="black" points="171.5,-436.5 171.5,-455.5 260.5,-455.5 260.5,-436.5 171.5,-436.5"/>
<text text-anchor="middle" x="216" y="-443.5" font-family="Helvetica,sans-Serif" font-size="10.00">NFIComponent.h</text>
</a>
</g>
</g>
<!-- Node36&#45;&gt;Node37 -->
<g id="edge75" class="edge"><title>Node36&#45;&gt;Node37</title>
<path fill="none" stroke="midnightblue" d="M396.37,-492.475C354.589,-481.941 298.167,-467.716 259.621,-457.998"/>
<polygon fill="midnightblue" stroke="midnightblue" points="260.292,-454.557 249.74,-455.506 258.58,-461.345 260.292,-454.557"/>
</g>
<!-- Node37&#45;&gt;Node2 -->
<g id="edge78" class="edge"><title>Node37&#45;&gt;Node2</title>
<path fill="none" stroke="midnightblue" d="M260.702,-436.475C319.637,-425.236 422.792,-405.564 482.247,-394.225"/>
<polygon fill="midnightblue" stroke="midnightblue" points="482.942,-397.656 492.11,-392.344 481.631,-390.78 482.942,-397.656"/>
</g>
<!-- Node37&#45;&gt;Node10 -->
<g id="edge76" class="edge"><title>Node37&#45;&gt;Node10</title>
<path fill="none" stroke="midnightblue" d="M190.971,-436.46C150.702,-420.948 76,-384.075 76,-324 76,-324 76,-324 76,-260.5 76,-198.808 17.3938,-170.299 57,-123 70.2509,-107.175 184.547,-90.7152 263.766,-81.0487"/>
<polygon fill="midnightblue" stroke="midnightblue" points="264.219,-84.5195 273.727,-79.8463 263.38,-77.57 264.219,-84.5195"/>
</g>
<!-- Node37&#45;&gt;Node28 -->
<g id="edge77" class="edge"><title>Node37&#45;&gt;Node28</title>
<path fill="none" stroke="midnightblue" d="M206.155,-436.383C186.229,-417.932 143,-372.332 143,-324 143,-324 143,-324 143,-260.5 143,-226.843 138.727,-188.134 135.507,-163.747"/>
<polygon fill="midnightblue" stroke="midnightblue" points="138.945,-163.053 134.121,-153.62 132.009,-164.002 138.945,-163.053"/>
</g>
</g>
</svg>
