<?xml version="1.0" encoding="UTF-8" standalone="no"?>
<!DOCTYPE svg PUBLIC "-//W3C//DTD SVG 1.1//EN"
 "http://www.w3.org/Graphics/SVG/1.1/DTD/svg11.dtd">
<!-- Generated by graphviz version 2.38.0 (20140413.2041)
 -->
<!-- Title: NFIMasterModule.h Pages: 1 -->
<svg width="274pt" height="140pt"
 viewBox="0.00 0.00 274.00 140.00" xmlns="http://www.w3.org/2000/svg" xmlns:xlink="http://www.w3.org/1999/xlink">
<g id="graph0" class="graph" transform="scale(1 1) rotate(0) translate(4 136)">
<title>NFIMasterModule.h</title>
<polygon fill="white" stroke="none" points="-4,4 -4,-136 270,-136 270,4 -4,4"/>
<!-- Node33 -->
<g id="node1" class="node"><title>Node33</title>
<polygon fill="#bfbfbf" stroke="black" points="78.5,-112.5 78.5,-131.5 179.5,-131.5 179.5,-112.5 78.5,-112.5"/>
<text text-anchor="middle" x="129" y="-119.5" font-family="Helvetica,sans-Serif" font-size="10.00">NFIMasterModule.h</text>
</g>
<!-- Node34 -->
<g id="node2" class="node"><title>Node34</title>
<g id="a_node2"><a xlink:href="_n_f_c_master_module_8h.html" target="_top" xlink:title="NFCMasterModule.h">
<polygon fill="white" stroke="black" points="76,-56.5 76,-75.5 182,-75.5 182,-56.5 76,-56.5"/>
<text text-anchor="middle" x="129" y="-63.5" font-family="Helvetica,sans-Serif" font-size="10.00">NFCMasterModule.h</text>
</a>
</g>
</g>
<!-- Node33&#45;&gt;Node34 -->
<g id="edge1" class="edge"><title>Node33&#45;&gt;Node34</title>
<path fill="none" stroke="midnightblue" d="M129,-101.805C129,-92.9102 129,-82.7798 129,-75.7511"/>
<polygon fill="midnightblue" stroke="midnightblue" points="125.5,-102.083 129,-112.083 132.5,-102.083 125.5,-102.083"/>
</g>
<!-- Node35 -->
<g id="node3" class="node"><title>Node35</title>
<g id="a_node3"><a xlink:href="_n_f_c_master_module_8cpp.html" target="_top" xlink:title="NFCMasterModule.cpp">
<polygon fill="white" stroke="black" points="0,-0.5 0,-19.5 116,-19.5 116,-0.5 0,-0.5"/>
<text text-anchor="middle" x="58" y="-7.5" font-family="Helvetica,sans-Serif" font-size="10.00">NFCMasterModule.cpp</text>
</a>
</g>
</g>
<!-- Node34&#45;&gt;Node35 -->
<g id="edge2" class="edge"><title>Node34&#45;&gt;Node35</title>
<path fill="none" stroke="midnightblue" d="M109.41,-50.1008C96.6324,-40.3824 80.3873,-28.0269 69.6149,-19.8339"/>
<polygon fill="midnightblue" stroke="midnightblue" points="107.514,-53.0561 117.593,-56.324 111.752,-47.4844 107.514,-53.0561"/>
</g>
<!-- Node36 -->
<g id="node4" class="node"><title>Node36</title>
<g id="a_node4"><a xlink:href="_n_f_master_server_plugin_8cpp.html" target="_top" xlink:title="NFMasterServerPlugin.cpp">
<polygon fill="white" stroke="black" points="134,-0.5 134,-19.5 266,-19.5 266,-0.5 134,-0.5"/>
<text text-anchor="middle" x="200" y="-7.5" font-family="Helvetica,sans-Serif" font-size="10.00">NFMasterServerPlugin.cpp</text>
</a>
</g>
</g>
<!-- Node34&#45;&gt;Node36 -->
<g id="edge3" class="edge"><title>Node34&#45;&gt;Node36</title>
<path fill="none" stroke="midnightblue" d="M148.59,-50.1008C161.368,-40.3824 177.613,-28.0269 188.385,-19.8339"/>
<polygon fill="midnightblue" stroke="midnightblue" points="146.248,-47.4844 140.407,-56.324 150.486,-53.0561 146.248,-47.4844"/>
</g>
</g>
</svg>
