<?xml version="1.0" encoding="UTF-8" standalone="no"?>
<!DOCTYPE svg PUBLIC "-//W3C//DTD SVG 1.1//EN"
 "http://www.w3.org/Graphics/SVG/1.1/DTD/svg11.dtd">
<!-- Generated by graphviz version 2.38.0 (20140413.2041)
 -->
<!-- Title: NFIPropertyTrailModule.h Pages: 1 -->
<svg width="149pt" height="140pt"
 viewBox="0.00 0.00 149.00 140.00" xmlns="http://www.w3.org/2000/svg" xmlns:xlink="http://www.w3.org/1999/xlink">
<g id="graph0" class="graph" transform="scale(1 1) rotate(0) translate(4 136)">
<title>NFIPropertyTrailModule.h</title>
<polygon fill="white" stroke="none" points="-4,4 -4,-136 145,-136 145,4 -4,4"/>
<!-- Node33 -->
<g id="node1" class="node"><title>Node33</title>
<polygon fill="#bfbfbf" stroke="black" points="7.5,-112.5 7.5,-131.5 133.5,-131.5 133.5,-112.5 7.5,-112.5"/>
<text text-anchor="middle" x="70.5" y="-119.5" font-family="Helvetica,sans-Serif" font-size="10.00">NFIPropertyTrailModule.h</text>
</g>
<!-- Node34 -->
<g id="node2" class="node"><title>Node34</title>
<g id="a_node2"><a xlink:href="_n_f_c_property_trail_module_8h.html" target="_top" xlink:title="NFCPropertyTrailModule.h">
<polygon fill="white" stroke="black" points="5,-56.5 5,-75.5 136,-75.5 136,-56.5 5,-56.5"/>
<text text-anchor="middle" x="70.5" y="-63.5" font-family="Helvetica,sans-Serif" font-size="10.00">NFCPropertyTrailModule.h</text>
</a>
</g>
</g>
<!-- Node33&#45;&gt;Node34 -->
<g id="edge1" class="edge"><title>Node33&#45;&gt;Node34</title>
<path fill="none" stroke="midnightblue" d="M70.5,-101.805C70.5,-92.9102 70.5,-82.7798 70.5,-75.7511"/>
<polygon fill="midnightblue" stroke="midnightblue" points="67.0001,-102.083 70.5,-112.083 74.0001,-102.083 67.0001,-102.083"/>
</g>
<!-- Node35 -->
<g id="node3" class="node"><title>Node35</title>
<g id="a_node3"><a xlink:href="_n_f_c_property_trail_module_8cpp.html" target="_top" xlink:title="NFCPropertyTrailModule.cpp">
<polygon fill="white" stroke="black" points="0,-0.5 0,-19.5 141,-19.5 141,-0.5 0,-0.5"/>
<text text-anchor="middle" x="70.5" y="-7.5" font-family="Helvetica,sans-Serif" font-size="10.00">NFCPropertyTrailModule.cpp</text>
</a>
</g>
</g>
<!-- Node34&#45;&gt;Node35 -->
<g id="edge2" class="edge"><title>Node34&#45;&gt;Node35</title>
<path fill="none" stroke="midnightblue" d="M70.5,-45.8045C70.5,-36.9102 70.5,-26.7798 70.5,-19.7511"/>
<polygon fill="midnightblue" stroke="midnightblue" points="67.0001,-46.083 70.5,-56.083 74.0001,-46.083 67.0001,-46.083"/>
</g>
</g>
</svg>
