<?xml version="1.0" encoding="UTF-8" standalone="no"?>
<!DOCTYPE svg PUBLIC "-//W3C//DTD SVG 1.1//EN"
 "http://www.w3.org/Graphics/SVG/1.1/DTD/svg11.dtd">
<!-- Generated by graphviz version 2.38.0 (20140413.2041)
 -->
<!-- Title: NFCEventManager.h Pages: 1 -->
<svg width="226pt" height="84pt"
 viewBox="0.00 0.00 225.50 84.00" xmlns="http://www.w3.org/2000/svg" xmlns:xlink="http://www.w3.org/1999/xlink">
<g id="graph0" class="graph" transform="scale(1 1) rotate(0) translate(4 80)">
<title>NFCEventManager.h</title>
<polygon fill="white" stroke="none" points="-4,4 -4,-80 221.5,-80 221.5,4 -4,4"/>
<!-- Node31 -->
<g id="node1" class="node"><title>Node31</title>
<polygon fill="#bfbfbf" stroke="black" points="64,-56.5 64,-75.5 170,-75.5 170,-56.5 64,-56.5"/>
<text text-anchor="middle" x="117" y="-63.5" font-family="Helvetica,sans-Serif" font-size="10.00">NFCEventManager.h</text>
</g>
<!-- Node32 -->
<g id="node2" class="node"><title>Node32</title>
<g id="a_node2"><a xlink:href="_n_f_c_event_manager_8cpp.html" target="_top" xlink:title="NFCEventManager.cpp">
<polygon fill="white" stroke="black" points="0,-0.5 0,-19.5 116,-19.5 116,-0.5 0,-0.5"/>
<text text-anchor="middle" x="58" y="-7.5" font-family="Helvetica,sans-Serif" font-size="10.00">NFCEventManager.cpp</text>
</a>
</g>
</g>
<!-- Node31&#45;&gt;Node32 -->
<g id="edge1" class="edge"><title>Node31&#45;&gt;Node32</title>
<path fill="none" stroke="midnightblue" d="M100.105,-49.5372C89.5855,-39.9087 76.4313,-27.8694 67.6519,-19.8339"/>
<polygon fill="midnightblue" stroke="midnightblue" points="97.7808,-52.1542 107.521,-56.324 102.507,-46.9905 97.7808,-52.1542"/>
</g>
<!-- Node33 -->
<g id="node3" class="node"><title>Node33</title>
<g id="a_node3"><a xlink:href="_n_f_c_object_8cpp.html" target="_top" xlink:title="NFCObject.cpp">
<polygon fill="white" stroke="black" points="134.5,-0.5 134.5,-19.5 217.5,-19.5 217.5,-0.5 134.5,-0.5"/>
<text text-anchor="middle" x="176" y="-7.5" font-family="Helvetica,sans-Serif" font-size="10.00">NFCObject.cpp</text>
</a>
</g>
</g>
<!-- Node31&#45;&gt;Node33 -->
<g id="edge2" class="edge"><title>Node31&#45;&gt;Node33</title>
<path fill="none" stroke="midnightblue" d="M133.895,-49.5372C144.415,-39.9087 157.569,-27.8694 166.348,-19.8339"/>
<polygon fill="midnightblue" stroke="midnightblue" points="131.493,-46.9905 126.479,-56.324 136.219,-52.1542 131.493,-46.9905"/>
</g>
</g>
</svg>
