<?xml version="1.0" encoding="UTF-8" standalone="no"?>
<!DOCTYPE svg PUBLIC "-//W3C//DTD SVG 1.1//EN"
 "http://www.w3.org/Graphics/SVG/1.1/DTD/svg11.dtd">
<!-- Generated by graphviz version 2.38.0 (20140413.2041)
 -->
<!-- Title: NFIObject.h Pages: 1 -->
<svg width="4357pt" height="218pt"
 viewBox="0.00 0.00 4356.50 218.00" xmlns="http://www.w3.org/2000/svg" xmlns:xlink="http://www.w3.org/1999/xlink">
<g id="graph0" class="graph" transform="scale(1 1) rotate(0) translate(4 214)">
<title>NFIObject.h</title>
<polygon fill="white" stroke="none" points="-4,4 -4,-214 4352.5,-214 4352.5,4 -4,4"/>
<!-- Node41 -->
<g id="node1" class="node"><title>Node41</title>
<polygon fill="#bfbfbf" stroke="black" points="324.5,-190.5 324.5,-209.5 392.5,-209.5 392.5,-190.5 324.5,-190.5"/>
<text text-anchor="middle" x="358.5" y="-197.5" font-family="Helvetica,sans-Serif" font-size="10.00">NFIObject.h</text>
</g>
<!-- Node42 -->
<g id="node2" class="node"><title>Node42</title>
<g id="a_node2"><a xlink:href="_n_f_c_object_8h.html" target="_top" xlink:title="NFCObject.h">
<polygon fill="white" stroke="black" points="111,-134.5 111,-153.5 184,-153.5 184,-134.5 111,-134.5"/>
<text text-anchor="middle" x="147.5" y="-141.5" font-family="Helvetica,sans-Serif" font-size="10.00">NFCObject.h</text>
</a>
</g>
</g>
<!-- Node41&#45;&gt;Node42 -->
<g id="edge1" class="edge"><title>Node41&#45;&gt;Node42</title>
<path fill="none" stroke="midnightblue" d="M315.358,-187.959C275.506,-177.76 217.137,-162.822 180.777,-153.516"/>
<polygon fill="midnightblue" stroke="midnightblue" points="314.511,-191.355 325.066,-190.444 316.246,-184.573 314.511,-191.355"/>
</g>
<!-- Node46 -->
<g id="node6" class="node"><title>Node46</title>
<g id="a_node6"><a xlink:href="_n_f_c_kernel_module_8h.html" target="_top" xlink:title="NFCKernelModule.h">
<polygon fill="white" stroke="black" points="245.5,-73 245.5,-92 349.5,-92 349.5,-73 245.5,-73"/>
<text text-anchor="middle" x="297.5" y="-80" font-family="Helvetica,sans-Serif" font-size="10.00">NFCKernelModule.h</text>
</a>
</g>
</g>
<!-- Node41&#45;&gt;Node46 -->
<g id="edge5" class="edge"><title>Node41&#45;&gt;Node46</title>
<path fill="none" stroke="midnightblue" d="M331.087,-185.342C319.147,-177.846 306.338,-167.337 299.5,-154 289.221,-133.952 292.685,-106.302 295.446,-92.3356"/>
<polygon fill="midnightblue" stroke="midnightblue" points="329.53,-188.486 339.935,-190.485 333.048,-182.434 329.53,-188.486"/>
</g>
<!-- Node48 -->
<g id="node8" class="node"><title>Node48</title>
<g id="a_node8"><a xlink:href="_n_f_c_scene_module_8h.html" target="_top" xlink:title="NFCSceneModule.h">
<polygon fill="white" stroke="black" points="367.5,-73 367.5,-92 471.5,-92 471.5,-73 367.5,-73"/>
<text text-anchor="middle" x="419.5" y="-80" font-family="Helvetica,sans-Serif" font-size="10.00">NFCSceneModule.h</text>
</a>
</g>
</g>
<!-- Node41&#45;&gt;Node48 -->
<g id="edge8" class="edge"><title>Node41&#45;&gt;Node48</title>
<path fill="none" stroke="midnightblue" d="M385.375,-185.197C397.097,-177.668 409.696,-167.174 416.5,-154 426.844,-133.972 423.868,-106.314 421.376,-92.3404"/>
<polygon fill="midnightblue" stroke="midnightblue" points="383.492,-182.246 376.694,-190.372 387.076,-188.259 383.492,-182.246"/>
</g>
<!-- Node50 -->
<g id="node10" class="node"><title>Node50</title>
<g id="a_node10"><a xlink:href="_n_f_i_kernel_module_8h.html" target="_top" xlink:title="NFIKernelModule.h">
<polygon fill="white" stroke="black" points="2000,-134.5 2000,-153.5 2099,-153.5 2099,-134.5 2000,-134.5"/>
<text text-anchor="middle" x="2049.5" y="-141.5" font-family="Helvetica,sans-Serif" font-size="10.00">NFIKernelModule.h</text>
</a>
</g>
</g>
<!-- Node41&#45;&gt;Node50 -->
<g id="edge11" class="edge"><title>Node41&#45;&gt;Node50</title>
<path fill="none" stroke="midnightblue" d="M402.951,-197.581C639.71,-190.02 1751.08,-154.53 1999.96,-146.582"/>
<polygon fill="midnightblue" stroke="midnightblue" points="402.544,-194.092 392.66,-197.909 402.767,-201.088 402.544,-194.092"/>
</g>
<!-- Node109 -->
<g id="node50" class="node"><title>Node109</title>
<g id="a_node50"><a xlink:href="_n_f_i_scene_module_8h.html" target="_top" xlink:title="NFISceneModule.h">
<polygon fill="white" stroke="black" points="309,-134.5 309,-153.5 408,-153.5 408,-134.5 309,-134.5"/>
<text text-anchor="middle" x="358.5" y="-141.5" font-family="Helvetica,sans-Serif" font-size="10.00">NFISceneModule.h</text>
</a>
</g>
</g>
<!-- Node41&#45;&gt;Node109 -->
<g id="edge58" class="edge"><title>Node41&#45;&gt;Node109</title>
<path fill="none" stroke="midnightblue" d="M358.5,-179.805C358.5,-170.91 358.5,-160.78 358.5,-153.751"/>
<polygon fill="midnightblue" stroke="midnightblue" points="355,-180.083 358.5,-190.083 362,-180.083 355,-180.083"/>
</g>
<!-- Node43 -->
<g id="node3" class="node"><title>Node43</title>
<g id="a_node3"><a xlink:href="_hello_world2_8cpp.html" target="_top" xlink:title="HelloWorld2.cpp">
<polygon fill="white" stroke="black" points="139.5,-73 139.5,-92 227.5,-92 227.5,-73 139.5,-73"/>
<text text-anchor="middle" x="183.5" y="-80" font-family="Helvetica,sans-Serif" font-size="10.00">HelloWorld2.cpp</text>
</a>
</g>
</g>
<!-- Node42&#45;&gt;Node43 -->
<g id="edge2" class="edge"><title>Node42&#45;&gt;Node43</title>
<path fill="none" stroke="midnightblue" d="M157.985,-125.671C164.679,-114.608 173.062,-100.751 178.352,-92.0091"/>
<polygon fill="midnightblue" stroke="midnightblue" points="154.84,-124.107 152.658,-134.475 160.829,-127.731 154.84,-124.107"/>
</g>
<!-- Node44 -->
<g id="node4" class="node"><title>Node44</title>
<g id="a_node4"><a xlink:href="_n_f_c_object_8cpp.html" target="_top" xlink:title="NFCObject.cpp">
<polygon fill="white" stroke="black" points="0,-73 0,-92 83,-92 83,-73 0,-73"/>
<text text-anchor="middle" x="41.5" y="-80" font-family="Helvetica,sans-Serif" font-size="10.00">NFCObject.cpp</text>
</a>
</g>
</g>
<!-- Node42&#45;&gt;Node44 -->
<g id="edge3" class="edge"><title>Node42&#45;&gt;Node44</title>
<path fill="none" stroke="midnightblue" d="M123.55,-129.556C103.037,-118.042 74.1211,-101.811 56.659,-92.0091"/>
<polygon fill="midnightblue" stroke="midnightblue" points="121.879,-132.632 132.313,-134.475 125.306,-126.528 121.879,-132.632"/>
</g>
<!-- Node45 -->
<g id="node5" class="node"><title>Node45</title>
<g id="a_node5"><a xlink:href="_n_f_c_kernel_module_8cpp.html" target="_top" xlink:title="NFCKernelModule.cpp">
<polygon fill="white" stroke="black" points="87.5,-6 87.5,-25 201.5,-25 201.5,-6 87.5,-6"/>
<text text-anchor="middle" x="144.5" y="-13" font-family="Helvetica,sans-Serif" font-size="10.00">NFCKernelModule.cpp</text>
</a>
</g>
</g>
<!-- Node42&#45;&gt;Node45 -->
<g id="edge4" class="edge"><title>Node42&#45;&gt;Node45</title>
<path fill="none" stroke="midnightblue" d="M139.054,-125.145C135.675,-117.052 132.188,-107.243 130.5,-98 125.652,-71.4487 135.475,-39.9411 141.035,-25.0761"/>
<polygon fill="midnightblue" stroke="midnightblue" points="135.869,-126.595 143.134,-134.307 142.263,-123.748 135.869,-126.595"/>
</g>
<!-- Node46&#45;&gt;Node45 -->
<g id="edge6" class="edge"><title>Node46&#45;&gt;Node45</title>
<path fill="none" stroke="midnightblue" d="M267.956,-68.9485C237.662,-56.0787 191.349,-36.4032 164.901,-25.1672"/>
<polygon fill="midnightblue" stroke="midnightblue" points="266.61,-72.1797 277.183,-72.8685 269.347,-65.737 266.61,-72.1797"/>
</g>
<!-- Node47 -->
<g id="node7" class="node"><title>Node47</title>
<g id="a_node7"><a xlink:href="_n_f_kernel_plugin_8cpp.html" target="_top" xlink:title="NFKernelPlugin.cpp">
<polygon fill="white" stroke="black" points="249,-6 249,-25 352,-25 352,-6 249,-6"/>
<text text-anchor="middle" x="300.5" y="-13" font-family="Helvetica,sans-Serif" font-size="10.00">NFKernelPlugin.cpp</text>
</a>
</g>
</g>
<!-- Node46&#45;&gt;Node47 -->
<g id="edge7" class="edge"><title>Node46&#45;&gt;Node47</title>
<path fill="none" stroke="midnightblue" d="M298.375,-62.537C298.946,-50.1703 299.664,-34.6198 300.102,-25.1273"/>
<polygon fill="midnightblue" stroke="midnightblue" points="294.869,-62.583 297.905,-72.7338 301.862,-62.9058 294.869,-62.583"/>
</g>
<!-- Node48&#45;&gt;Node47 -->
<g id="edge9" class="edge"><title>Node48&#45;&gt;Node47</title>
<path fill="none" stroke="midnightblue" d="M394.395,-67.7872C370.81,-54.9047 336.244,-36.0243 316.295,-25.1273"/>
<polygon fill="midnightblue" stroke="midnightblue" points="392.997,-71.0117 403.451,-72.7338 396.353,-64.8684 392.997,-71.0117"/>
</g>
<!-- Node49 -->
<g id="node9" class="node"><title>Node49</title>
<g id="a_node9"><a xlink:href="_n_f_c_scene_module_8cpp.html" target="_top" xlink:title="NFCSceneModule.cpp">
<polygon fill="white" stroke="black" points="370.5,-6 370.5,-25 484.5,-25 484.5,-6 370.5,-6"/>
<text text-anchor="middle" x="427.5" y="-13" font-family="Helvetica,sans-Serif" font-size="10.00">NFCSceneModule.cpp</text>
</a>
</g>
</g>
<!-- Node48&#45;&gt;Node49 -->
<g id="edge10" class="edge"><title>Node48&#45;&gt;Node49</title>
<path fill="none" stroke="midnightblue" d="M421.834,-62.537C423.356,-50.1703 425.27,-34.6198 426.438,-25.1273"/>
<polygon fill="midnightblue" stroke="midnightblue" points="418.327,-62.3811 420.579,-72.7338 425.274,-63.2363 418.327,-62.3811"/>
</g>
<!-- Node50&#45;&gt;Node46 -->
<g id="edge15" class="edge"><title>Node50&#45;&gt;Node46</title>
<path fill="none" stroke="midnightblue" d="M1989.58,-143.065C1727.85,-143.096 683.58,-140.497 358.5,-98 348.462,-96.6878 337.667,-94.4153 327.989,-92.0535"/>
<polygon fill="midnightblue" stroke="midnightblue" points="1989.64,-146.565 1999.64,-143.063 1989.64,-139.565 1989.64,-146.565"/>
</g>
<!-- Node51 -->
<g id="node11" class="node"><title>Node51</title>
<g id="a_node11"><a xlink:href="_hello_world3_module_8h.html" target="_top" xlink:title="HelloWorld3Module.h">
<polygon fill="white" stroke="black" points="3117,-73 3117,-92 3226,-92 3226,-73 3117,-73"/>
<text text-anchor="middle" x="3171.5" y="-80" font-family="Helvetica,sans-Serif" font-size="10.00">HelloWorld3Module.h</text>
</a>
</g>
</g>
<!-- Node50&#45;&gt;Node51 -->
<g id="edge12" class="edge"><title>Node50&#45;&gt;Node51</title>
<path fill="none" stroke="midnightblue" d="M2109.34,-141.875C2303.15,-138.007 2912.34,-124.041 3107.5,-98 3117.89,-96.6137 3129.08,-94.3511 3139.15,-92.0211"/>
<polygon fill="midnightblue" stroke="midnightblue" points="2109,-138.381 2099.07,-142.078 2109.14,-145.379 2109,-138.381"/>
</g>
<!-- Node54 -->
<g id="node14" class="node"><title>Node54</title>
<g id="a_node14"><a xlink:href="_n_f_c_u_u_i_d_module_8h.html" target="_top" xlink:title="NFCUUIDModule.h">
<polygon fill="white" stroke="black" points="489.5,-73 489.5,-92 587.5,-92 587.5,-73 489.5,-73"/>
<text text-anchor="middle" x="538.5" y="-80" font-family="Helvetica,sans-Serif" font-size="10.00">NFCUUIDModule.h</text>
</a>
</g>
</g>
<!-- Node50&#45;&gt;Node54 -->
<g id="edge16" class="edge"><title>Node50&#45;&gt;Node54</title>
<path fill="none" stroke="midnightblue" d="M1989.46,-142.696C1751.8,-141.249 876.464,-133.569 601.5,-98 591.148,-96.6609 580.004,-94.3812 570.008,-92.0209"/>
<polygon fill="midnightblue" stroke="midnightblue" points="1989.62,-146.196 1999.64,-142.756 1989.66,-139.197 1989.62,-146.196"/>
</g>
<!-- Node55 -->
<g id="node15" class="node"><title>Node55</title>
<g id="a_node15"><a xlink:href="_n_f_c_u_u_i_d_module_8cpp.html" target="_top" xlink:title="NFCUUIDModule.cpp">
<polygon fill="white" stroke="black" points="506,-6 506,-25 615,-25 615,-6 506,-6"/>
<text text-anchor="middle" x="560.5" y="-13" font-family="Helvetica,sans-Serif" font-size="10.00">NFCUUIDModule.cpp</text>
</a>
</g>
</g>
<!-- Node50&#45;&gt;Node55 -->
<g id="edge19" class="edge"><title>Node50&#45;&gt;Node55</title>
<path fill="none" stroke="midnightblue" d="M1989.94,-142.401C1728.98,-139.612 696.842,-126.795 634.5,-98 617.063,-89.9461 581.389,-44.297 566.865,-25.0539"/>
<polygon fill="midnightblue" stroke="midnightblue" points="1989.94,-145.901 1999.98,-142.507 1990.02,-138.902 1989.94,-145.901"/>
</g>
<!-- Node56 -->
<g id="node16" class="node"><title>Node56</title>
<g id="a_node16"><a xlink:href="_n_f_c_game_server_to_world_module_8h.html" target="_top" xlink:title="NFCGameServerToWorldModule.h">
<polygon fill="white" stroke="black" points="3281,-73 3281,-92 3446,-92 3446,-73 3281,-73"/>
<text text-anchor="middle" x="3363.5" y="-80" font-family="Helvetica,sans-Serif" font-size="10.00">NFCGameServerToWorldModule.h</text>
</a>
</g>
</g>
<!-- Node50&#45;&gt;Node56 -->
<g id="edge20" class="edge"><title>Node50&#45;&gt;Node56</title>
<path fill="none" stroke="midnightblue" d="M2109.22,-142.314C2283.17,-139.975 2804.35,-130.554 3235.5,-98 3255.46,-96.493 3277.11,-94.2674 3296.82,-92.0099"/>
<polygon fill="midnightblue" stroke="midnightblue" points="2108.96,-138.817 2099,-142.448 2109.05,-145.816 2108.96,-138.817"/>
</g>
<!-- Node59 -->
<g id="node19" class="node"><title>Node59</title>
<g id="a_node19"><a xlink:href="_n_f_c_game_server_net___server_module_8h.html" target="_top" xlink:title="NFCGameServerNet_ServerModule.h">
<polygon fill="white" stroke="black" points="3666.5,-73 3666.5,-92 3842.5,-92 3842.5,-73 3666.5,-73"/>
<text text-anchor="middle" x="3754.5" y="-80" font-family="Helvetica,sans-Serif" font-size="10.00">NFCGameServerNet_ServerModule.h</text>
</a>
</g>
</g>
<!-- Node50&#45;&gt;Node59 -->
<g id="edge23" class="edge"><title>Node50&#45;&gt;Node59</title>
<path fill="none" stroke="midnightblue" d="M2109.28,-141.439C2303.46,-136.292 2934.04,-118.988 3455.5,-98 3526.38,-95.1471 3606.68,-91.2142 3666.21,-88.164"/>
<polygon fill="midnightblue" stroke="midnightblue" points="2108.91,-137.947 2099.01,-141.71 2109.1,-144.945 2108.91,-137.947"/>
</g>
<!-- Node62 -->
<g id="node22" class="node"><title>Node62</title>
<g id="a_node22"><a xlink:href="_n_f_c_create_role_module_8h.html" target="_top" xlink:title="NFCCreateRoleModule.h">
<polygon fill="white" stroke="black" points="3963.5,-73 3963.5,-92 4087.5,-92 4087.5,-73 3963.5,-73"/>
<text text-anchor="middle" x="4025.5" y="-80" font-family="Helvetica,sans-Serif" font-size="10.00">NFCCreateRoleModule.h</text>
</a>
</g>
</g>
<!-- Node50&#45;&gt;Node62 -->
<g id="edge26" class="edge"><title>Node50&#45;&gt;Node62</title>
<path fill="none" stroke="midnightblue" d="M2109.4,-142.768C2336.73,-141.621 3167.89,-134.988 3851.5,-98 3888.58,-95.9938 3930.01,-92.5874 3963.15,-89.5802"/>
<polygon fill="midnightblue" stroke="midnightblue" points="2109.33,-139.269 2099.35,-142.818 2109.36,-146.269 2109.33,-139.269"/>
</g>
<!-- Node64 -->
<g id="node24" class="node"><title>Node64</title>
<g id="a_node24"><a xlink:href="_n_f_c_event_route_module_8h.html" target="_top" xlink:title="NFCEventRouteModule.h">
<polygon fill="white" stroke="black" points="4213,-73 4213,-92 4338,-92 4338,-73 4213,-73"/>
<text text-anchor="middle" x="4275.5" y="-80" font-family="Helvetica,sans-Serif" font-size="10.00">NFCEventRouteModule.h</text>
</a>
</g>
</g>
<!-- Node50&#45;&gt;Node64 -->
<g id="edge28" class="edge"><title>Node50&#45;&gt;Node64</title>
<path fill="none" stroke="midnightblue" d="M2109.17,-142.971C2354.73,-142.581 3311.25,-138.401 4096.5,-98 4135.11,-96.0135 4178.31,-92.5495 4212.6,-89.5053"/>
<polygon fill="midnightblue" stroke="midnightblue" points="2109.03,-139.471 2099.03,-142.986 2109.04,-146.471 2109.03,-139.471"/>
</g>
<!-- Node66 -->
<g id="node26" class="node"><title>Node66</title>
<g id="a_node26"><a xlink:href="_n_f_c_game_server_module_8h.html" target="_top" xlink:title="NFCGameServerModule.h">
<polygon fill="white" stroke="black" points="2521,-73 2521,-92 2650,-92 2650,-73 2521,-73"/>
<text text-anchor="middle" x="2585.5" y="-80" font-family="Helvetica,sans-Serif" font-size="10.00">NFCGameServerModule.h</text>
</a>
</g>
</g>
<!-- Node50&#45;&gt;Node66 -->
<g id="edge30" class="edge"><title>Node50&#45;&gt;Node66</title>
<path fill="none" stroke="midnightblue" d="M2109.35,-139.022C2197.65,-132.735 2367.88,-119.016 2511.5,-98 2522.64,-96.3699 2534.65,-94.1987 2545.68,-92.0338"/>
<polygon fill="midnightblue" stroke="midnightblue" points="2108.99,-135.539 2099.26,-139.734 2109.48,-142.522 2108.99,-135.539"/>
</g>
<!-- Node69 -->
<g id="node29" class="node"><title>Node69</title>
<g id="a_node29"><a xlink:href="_n_f_c_level_module_8h.html" target="_top" xlink:title="NFCLevelModule.h">
<polygon fill="white" stroke="black" points="2668.5,-73 2668.5,-92 2766.5,-92 2766.5,-73 2668.5,-73"/>
<text text-anchor="middle" x="2717.5" y="-80" font-family="Helvetica,sans-Serif" font-size="10.00">NFCLevelModule.h</text>
</a>
</g>
</g>
<!-- Node50&#45;&gt;Node69 -->
<g id="edge33" class="edge"><title>Node50&#45;&gt;Node69</title>
<path fill="none" stroke="midnightblue" d="M2109.35,-141.891C2218.94,-139.126 2458.93,-129.669 2658.5,-98 2667.88,-96.5122 2677.95,-94.2784 2687.08,-92.007"/>
<polygon fill="midnightblue" stroke="midnightblue" points="2109.07,-138.396 2099.16,-142.138 2109.24,-145.394 2109.07,-138.396"/>
</g>
<!-- Node71 -->
<g id="node31" class="node"><title>Node71</title>
<g id="a_node31"><a xlink:href="_n_f_c_property_module_8h.html" target="_top" xlink:title="NFCPropertyModule.h">
<polygon fill="white" stroke="black" points="1921,-73 1921,-92 2034,-92 2034,-73 1921,-73"/>
<text text-anchor="middle" x="1977.5" y="-80" font-family="Helvetica,sans-Serif" font-size="10.00">NFCPropertyModule.h</text>
</a>
</g>
</g>
<!-- Node50&#45;&gt;Node71 -->
<g id="edge36" class="edge"><title>Node50&#45;&gt;Node71</title>
<path fill="none" stroke="midnightblue" d="M2031.32,-127.973C2017.54,-116.593 1999.12,-101.369 1987.8,-92.0091"/>
<polygon fill="midnightblue" stroke="midnightblue" points="2029.25,-130.803 2039.18,-134.475 2033.71,-125.407 2029.25,-130.803"/>
</g>
<!-- Node73 -->
<g id="node33" class="node"><title>Node73</title>
<g id="a_node33"><a xlink:href="_n_f_c_property_trail_module_8h.html" target="_top" xlink:title="NFCPropertyTrailModule.h">
<polygon fill="white" stroke="black" points="644,-73 644,-92 775,-92 775,-73 644,-73"/>
<text text-anchor="middle" x="709.5" y="-80" font-family="Helvetica,sans-Serif" font-size="10.00">NFCPropertyTrailModule.h</text>
</a>
</g>
</g>
<!-- Node50&#45;&gt;Node73 -->
<g id="edge39" class="edge"><title>Node50&#45;&gt;Node73</title>
<path fill="none" stroke="midnightblue" d="M1989.68,-142.106C1772.01,-138.661 1022.42,-125.065 784.5,-98 772.377,-96.621 759.281,-94.3604 747.478,-92.0301"/>
<polygon fill="midnightblue" stroke="midnightblue" points="1989.89,-145.61 1999.94,-142.267 1990,-138.611 1989.89,-145.61"/>
</g>
<!-- Node75 -->
<g id="node35" class="node"><title>Node75</title>
<g id="a_node35"><a xlink:href="_n_f_c_scene_process_module_8h.html" target="_top" xlink:title="NFCSceneProcessModule.h">
<polygon fill="white" stroke="black" points="2052.5,-73 2052.5,-92 2192.5,-92 2192.5,-73 2052.5,-73"/>
<text text-anchor="middle" x="2122.5" y="-80" font-family="Helvetica,sans-Serif" font-size="10.00">NFCSceneProcessModule.h</text>
</a>
</g>
</g>
<!-- Node50&#45;&gt;Node75 -->
<g id="edge41" class="edge"><title>Node50&#45;&gt;Node75</title>
<path fill="none" stroke="midnightblue" d="M2067.94,-127.973C2081.9,-116.593 2100.58,-101.369 2112.06,-92.0091"/>
<polygon fill="midnightblue" stroke="midnightblue" points="2065.5,-125.444 2059.96,-134.475 2069.92,-130.87 2065.5,-125.444"/>
</g>
<!-- Node77 -->
<g id="node37" class="node"><title>Node77</title>
<g id="a_node37"><a xlink:href="_n_f_c_login_logic_module_8h.html" target="_top" xlink:title="NFCLoginLogicModule.h">
<polygon fill="white" stroke="red" points="2784.5,-73 2784.5,-92 2906.5,-92 2906.5,-73 2784.5,-73"/>
<text text-anchor="middle" x="2845.5" y="-80" font-family="Helvetica,sans-Serif" font-size="10.00">NFCLoginLogicModule.h</text>
</a>
</g>
</g>
<!-- Node50&#45;&gt;Node77 -->
<g id="edge44" class="edge"><title>Node50&#45;&gt;Node77</title>
<path fill="none" stroke="midnightblue" d="M2109.11,-142.172C2233.5,-139.816 2529.58,-130.922 2775.5,-98 2786.57,-96.5179 2798.51,-94.2858 2809.34,-92.0142"/>
<polygon fill="midnightblue" stroke="midnightblue" points="2108.97,-138.674 2099.03,-142.356 2109.09,-145.673 2108.97,-138.674"/>
</g>
<!-- Node80 -->
<g id="node39" class="node"><title>Node80</title>
<g id="a_node39"><a xlink:href="_n_f_c_login_to_master_module_8h.html" target="_top" xlink:title="NFCLoginToMasterModule.h">
<polygon fill="white" stroke="red" points="793.5,-73 793.5,-92 933.5,-92 933.5,-73 793.5,-73"/>
<text text-anchor="middle" x="863.5" y="-80" font-family="Helvetica,sans-Serif" font-size="10.00">NFCLoginToMasterModule.h</text>
</a>
</g>
</g>
<!-- Node50&#45;&gt;Node80 -->
<g id="edge46" class="edge"><title>Node50&#45;&gt;Node80</title>
<path fill="none" stroke="midnightblue" d="M1989.91,-143.521C1823.63,-144.343 1340.62,-142.404 942.5,-98 929.889,-96.5934 916.261,-94.3546 903.933,-92.053"/>
<polygon fill="midnightblue" stroke="midnightblue" points="1989.96,-147.021 1999.94,-143.467 1989.92,-140.021 1989.96,-147.021"/>
</g>
<!-- Node83 -->
<g id="node40" class="node"><title>Node83</title>
<g id="a_node40"><a xlink:href="_n_f_c_login_net___server_module_8h.html" target="_top" xlink:title="NFCLoginNet_ServerModule.h">
<polygon fill="white" stroke="red" points="951.5,-73 951.5,-92 1097.5,-92 1097.5,-73 951.5,-73"/>
<text text-anchor="middle" x="1024.5" y="-80" font-family="Helvetica,sans-Serif" font-size="10.00">NFCLoginNet_ServerModule.h</text>
</a>
</g>
</g>
<!-- Node50&#45;&gt;Node83 -->
<g id="edge47" class="edge"><title>Node50&#45;&gt;Node83</title>
<path fill="none" stroke="midnightblue" d="M1989.67,-142.783C1840.23,-141.668 1438.76,-135.151 1106.5,-98 1093.57,-96.5542 1079.6,-94.3328 1066.91,-92.0599"/>
<polygon fill="midnightblue" stroke="midnightblue" points="1989.96,-146.285 1999.99,-142.854 1990.01,-139.285 1989.96,-146.285"/>
</g>
<!-- Node86 -->
<g id="node41" class="node"><title>Node86</title>
<g id="a_node41"><a xlink:href="_n_f_c_master_net___server_module_8h.html" target="_top" xlink:title="NFCMasterNet_ServerModule.h">
<polygon fill="white" stroke="red" points="1116,-73 1116,-92 1269,-92 1269,-73 1116,-73"/>
<text text-anchor="middle" x="1192.5" y="-80" font-family="Helvetica,sans-Serif" font-size="10.00">NFCMasterNet_ServerModule.h</text>
</a>
</g>
</g>
<!-- Node50&#45;&gt;Node86 -->
<g id="edge48" class="edge"><title>Node50&#45;&gt;Node86</title>
<path fill="none" stroke="midnightblue" d="M1989.59,-141.72C1859.68,-138.458 1542.48,-127.868 1278.5,-98 1265.11,-96.4849 1250.64,-94.2708 1237.45,-92.0267"/>
<polygon fill="midnightblue" stroke="midnightblue" points="1989.65,-145.222 1999.73,-141.969 1989.82,-138.224 1989.65,-145.222"/>
</g>
<!-- Node89 -->
<g id="node42" class="node"><title>Node89</title>
<g id="a_node42"><a xlink:href="_n_f_c_master_module_8h.html" target="_top" xlink:title="NFCMasterModule.h">
<polygon fill="white" stroke="red" points="1287.5,-73 1287.5,-92 1393.5,-92 1393.5,-73 1287.5,-73"/>
<text text-anchor="middle" x="1340.5" y="-80" font-family="Helvetica,sans-Serif" font-size="10.00">NFCMasterModule.h</text>
</a>
</g>
</g>
<!-- Node50&#45;&gt;Node89 -->
<g id="edge49" class="edge"><title>Node50&#45;&gt;Node89</title>
<path fill="none" stroke="midnightblue" d="M1989.37,-142.03C1874.64,-139.469 1616.82,-130.302 1402.5,-98 1392.66,-96.5173 1382.08,-94.285 1372.49,-92.0133"/>
<polygon fill="midnightblue" stroke="midnightblue" points="1989.62,-145.536 1999.69,-142.251 1989.77,-138.537 1989.62,-145.536"/>
</g>
<!-- Node92 -->
<g id="node43" class="node"><title>Node92</title>
<g id="a_node43"><a xlink:href="_n_f_c_proxy_logic_module_8h.html" target="_top" xlink:title="NFCProxyLogicModule.h">
<polygon fill="white" stroke="red" points="1412,-73 1412,-92 1537,-92 1537,-73 1412,-73"/>
<text text-anchor="middle" x="1474.5" y="-80" font-family="Helvetica,sans-Serif" font-size="10.00">NFCProxyLogicModule.h</text>
</a>
</g>
</g>
<!-- Node50&#45;&gt;Node92 -->
<g id="edge50" class="edge"><title>Node50&#45;&gt;Node92</title>
<path fill="none" stroke="midnightblue" d="M1989.69,-139.841C1895.04,-134.353 1705.11,-121.347 1545.5,-98 1534.67,-96.4158 1523,-94.2336 1512.31,-92.043"/>
<polygon fill="midnightblue" stroke="midnightblue" points="1989.74,-143.35 1999.92,-140.427 1990.14,-136.361 1989.74,-143.35"/>
</g>
<!-- Node95 -->
<g id="node44" class="node"><title>Node95</title>
<g id="a_node44"><a xlink:href="_n_f_c_proxy_server_to_game_module_8h.html" target="_top" xlink:title="NFCProxyServerToGameModule.h">
<polygon fill="white" stroke="red" points="1555,-73 1555,-92 1720,-92 1720,-73 1555,-73"/>
<text text-anchor="middle" x="1637.5" y="-80" font-family="Helvetica,sans-Serif" font-size="10.00">NFCProxyServerToGameModule.h</text>
</a>
</g>
</g>
<!-- Node50&#45;&gt;Node95 -->
<g id="edge51" class="edge"><title>Node50&#45;&gt;Node95</title>
<path fill="none" stroke="midnightblue" d="M1989.89,-134.919C1925.59,-126.132 1820.23,-111.528 1729.5,-98 1716.87,-96.1162 1703.27,-94.0142 1690.5,-92.0081"/>
<polygon fill="midnightblue" stroke="midnightblue" points="1989.47,-138.394 1999.85,-136.279 1990.42,-131.458 1989.47,-138.394"/>
</g>
<!-- Node98 -->
<g id="node45" class="node"><title>Node98</title>
<g id="a_node45"><a xlink:href="_n_f_c_proxy_server_to_world_module_8h.html" target="_top" xlink:title="NFCProxyServerToWorldModule.h">
<polygon fill="white" stroke="red" points="1738.5,-73 1738.5,-92 1902.5,-92 1902.5,-73 1738.5,-73"/>
<text text-anchor="middle" x="1820.5" y="-80" font-family="Helvetica,sans-Serif" font-size="10.00">NFCProxyServerToWorldModule.h</text>
</a>
</g>
</g>
<!-- Node50&#45;&gt;Node98 -->
<g id="edge52" class="edge"><title>Node50&#45;&gt;Node98</title>
<path fill="none" stroke="midnightblue" d="M2006.76,-131.896C1962.29,-120.34 1893.61,-102.495 1853.25,-92.0091"/>
<polygon fill="midnightblue" stroke="midnightblue" points="2006.13,-135.348 2016.69,-134.475 2007.89,-128.573 2006.13,-135.348"/>
</g>
<!-- Node100 -->
<g id="node46" class="node"><title>Node100</title>
<g id="a_node46"><a xlink:href="_n_f_c_proxy_server_net___server_module_8h.html" target="_top" xlink:title="NFCProxyServerNet_Server\lModule.h">
<polygon fill="white" stroke="red" points="2962.5,-67.5 2962.5,-97.5 3098.5,-97.5 3098.5,-67.5 2962.5,-67.5"/>
<text text-anchor="start" x="2970.5" y="-85.5" font-family="Helvetica,sans-Serif" font-size="10.00">NFCProxyServerNet_Server</text>
<text text-anchor="middle" x="3030.5" y="-74.5" font-family="Helvetica,sans-Serif" font-size="10.00">Module.h</text>
</a>
</g>
</g>
<!-- Node50&#45;&gt;Node100 -->
<g id="edge53" class="edge"><title>Node50&#45;&gt;Node100</title>
<path fill="none" stroke="midnightblue" d="M2109.39,-142.584C2254.05,-141.018 2633.84,-133.555 2948.5,-98 2952.95,-97.4968 2957.53,-96.9028 2962.14,-96.2475"/>
<polygon fill="midnightblue" stroke="midnightblue" points="2109.34,-139.084 2099.38,-142.687 2109.42,-146.084 2109.34,-139.084"/>
</g>
<!-- Node101 -->
<g id="node47" class="node"><title>Node101</title>
<g id="a_node47"><a xlink:href="_n_f_c_proxy_server_net___server_module_8cpp.html" target="_top" xlink:title="NFCProxyServerNet_Server\lModule.cpp">
<polygon fill="white" stroke="black" points="2866.5,-0.5 2866.5,-30.5 3002.5,-30.5 3002.5,-0.5 2866.5,-0.5"/>
<text text-anchor="start" x="2874.5" y="-18.5" font-family="Helvetica,sans-Serif" font-size="10.00">NFCProxyServerNet_Server</text>
<text text-anchor="middle" x="2934.5" y="-7.5" font-family="Helvetica,sans-Serif" font-size="10.00">Module.cpp</text>
</a>
</g>
</g>
<!-- Node50&#45;&gt;Node101 -->
<g id="edge55" class="edge"><title>Node50&#45;&gt;Node101</title>
<path fill="none" stroke="midnightblue" d="M2109.45,-141.847C2300.55,-137.918 2884.63,-123.839 2915.5,-98 2935.11,-81.5889 2936.74,-49.2216 2935.84,-30.5947"/>
<polygon fill="midnightblue" stroke="midnightblue" points="2109.23,-138.351 2099.31,-142.054 2109.38,-145.35 2109.23,-138.351"/>
</g>
<!-- Node103 -->
<g id="node48" class="node"><title>Node103</title>
<g id="a_node48"><a xlink:href="_n_f_c_world_logic_module_8h.html" target="_top" xlink:title="NFCWorldLogicModule.h">
<polygon fill="white" stroke="red" points="2211,-73 2211,-92 2336,-92 2336,-73 2211,-73"/>
<text text-anchor="middle" x="2273.5" y="-80" font-family="Helvetica,sans-Serif" font-size="10.00">NFCWorldLogicModule.h</text>
</a>
</g>
</g>
<!-- Node50&#45;&gt;Node103 -->
<g id="edge56" class="edge"><title>Node50&#45;&gt;Node103</title>
<path fill="none" stroke="midnightblue" d="M2091.3,-131.896C2134.81,-120.34 2201.99,-102.495 2241.47,-92.0091"/>
<polygon fill="midnightblue" stroke="midnightblue" points="2090.36,-128.525 2081.59,-134.475 2092.16,-135.29 2090.36,-128.525"/>
</g>
<!-- Node106 -->
<g id="node49" class="node"><title>Node106</title>
<g id="a_node49"><a xlink:href="_n_f_c_world_net___server_module_8h.html" target="_top" xlink:title="NFCWorldNet_ServerModule.h">
<polygon fill="white" stroke="red" points="2354,-73 2354,-92 2503,-92 2503,-73 2354,-73"/>
<text text-anchor="middle" x="2428.5" y="-80" font-family="Helvetica,sans-Serif" font-size="10.00">NFCWorldNet_ServerModule.h</text>
</a>
</g>
</g>
<!-- Node50&#45;&gt;Node106 -->
<g id="edge57" class="edge"><title>Node50&#45;&gt;Node106</title>
<path fill="none" stroke="midnightblue" d="M2109.12,-134.254C2168.75,-125.426 2263.05,-111.241 2344.5,-98 2356.04,-96.124 2368.46,-94.0251 2380.11,-92.0194"/>
<polygon fill="midnightblue" stroke="midnightblue" points="2108.51,-130.807 2099.13,-135.732 2109.54,-137.731 2108.51,-130.807"/>
</g>
<!-- Node52 -->
<g id="node12" class="node"><title>Node52</title>
<g id="a_node12"><a xlink:href="_hello_world3_module_8cpp.html" target="_top" xlink:title="HelloWorld3Module.cpp">
<polygon fill="white" stroke="black" points="3021,-6 3021,-25 3140,-25 3140,-6 3021,-6"/>
<text text-anchor="middle" x="3080.5" y="-13" font-family="Helvetica,sans-Serif" font-size="10.00">HelloWorld3Module.cpp</text>
</a>
</g>
</g>
<!-- Node51&#45;&gt;Node52 -->
<g id="edge13" class="edge"><title>Node51&#45;&gt;Node52</title>
<path fill="none" stroke="midnightblue" d="M3151.09,-66.9196C3133.1,-54.0695 3107.49,-35.7821 3092.58,-25.1273"/>
<polygon fill="midnightblue" stroke="midnightblue" points="3149.06,-69.7695 3159.23,-72.7338 3153.12,-64.0733 3149.06,-69.7695"/>
</g>
<!-- Node53 -->
<g id="node13" class="node"><title>Node53</title>
<g id="a_node13"><a xlink:href="_tutorial3_plugin_8cpp.html" target="_top" xlink:title="Tutorial3Plugin.cpp">
<polygon fill="white" stroke="black" points="3158,-6 3158,-25 3257,-25 3257,-6 3158,-6"/>
<text text-anchor="middle" x="3207.5" y="-13" font-family="Helvetica,sans-Serif" font-size="10.00">Tutorial3Plugin.cpp</text>
</a>
</g>
</g>
<!-- Node51&#45;&gt;Node53 -->
<g id="edge14" class="edge"><title>Node51&#45;&gt;Node53</title>
<path fill="none" stroke="midnightblue" d="M3181.38,-63.6635C3188.32,-51.1281 3197.3,-34.9104 3202.72,-25.1273"/>
<polygon fill="midnightblue" stroke="midnightblue" points="3178.14,-62.2901 3176.36,-72.7338 3184.26,-65.6817 3178.14,-62.2901"/>
</g>
<!-- Node54&#45;&gt;Node47 -->
<g id="edge18" class="edge"><title>Node54&#45;&gt;Node47</title>
<path fill="none" stroke="midnightblue" d="M497.023,-70.1721C449.959,-57.3186 374.253,-36.6427 331.856,-25.0637"/>
<polygon fill="midnightblue" stroke="midnightblue" points="496.327,-73.6102 506.895,-72.8685 498.171,-66.8575 496.327,-73.6102"/>
</g>
<!-- Node54&#45;&gt;Node55 -->
<g id="edge17" class="edge"><title>Node54&#45;&gt;Node55</title>
<path fill="none" stroke="midnightblue" d="M544.79,-62.9145C548.996,-50.4883 554.334,-34.7166 557.58,-25.1273"/>
<polygon fill="midnightblue" stroke="midnightblue" points="541.358,-62.1395 541.467,-72.7338 547.988,-64.3838 541.358,-62.1395"/>
</g>
<!-- Node57 -->
<g id="node17" class="node"><title>Node57</title>
<g id="a_node17"><a xlink:href="_n_f_c_game_server_to_world_module_8cpp.html" target="_top" xlink:title="NFCGameServerToWorldModule.cpp">
<polygon fill="white" stroke="black" points="3275.5,-6 3275.5,-25 3451.5,-25 3451.5,-6 3275.5,-6"/>
<text text-anchor="middle" x="3363.5" y="-13" font-family="Helvetica,sans-Serif" font-size="10.00">NFCGameServerToWorldModule.cpp</text>
</a>
</g>
</g>
<!-- Node56&#45;&gt;Node57 -->
<g id="edge21" class="edge"><title>Node56&#45;&gt;Node57</title>
<path fill="none" stroke="midnightblue" d="M3363.5,-62.537C3363.5,-50.1703 3363.5,-34.6198 3363.5,-25.1273"/>
<polygon fill="midnightblue" stroke="midnightblue" points="3360,-62.7338 3363.5,-72.7338 3367,-62.7338 3360,-62.7338"/>
</g>
<!-- Node58 -->
<g id="node18" class="node"><title>Node58</title>
<g id="a_node18"><a xlink:href="_n_f_game_server_net___client_plugin_8cpp.html" target="_top" xlink:title="NFGameServerNet_ClientPlugin.cpp">
<polygon fill="white" stroke="black" points="3470,-6 3470,-25 3643,-25 3643,-6 3470,-6"/>
<text text-anchor="middle" x="3556.5" y="-13" font-family="Helvetica,sans-Serif" font-size="10.00">NFGameServerNet_ClientPlugin.cpp</text>
</a>
</g>
</g>
<!-- Node56&#45;&gt;Node58 -->
<g id="edge22" class="edge"><title>Node56&#45;&gt;Node58</title>
<path fill="none" stroke="midnightblue" d="M3398.83,-69.6013C3437.1,-56.7138 3497.2,-36.4728 3531.07,-25.0637"/>
<polygon fill="midnightblue" stroke="midnightblue" points="3397.49,-66.3598 3389.13,-72.8685 3399.72,-72.9937 3397.49,-66.3598"/>
</g>
<!-- Node60 -->
<g id="node20" class="node"><title>Node60</title>
<g id="a_node20"><a xlink:href="_n_f_c_game_server_net___server_module_8cpp.html" target="_top" xlink:title="NFCGameServerNet_ServerModule.cpp">
<polygon fill="white" stroke="black" points="3661,-6 3661,-25 3848,-25 3848,-6 3661,-6"/>
<text text-anchor="middle" x="3754.5" y="-13" font-family="Helvetica,sans-Serif" font-size="10.00">NFCGameServerNet_ServerModule.cpp</text>
</a>
</g>
</g>
<!-- Node59&#45;&gt;Node60 -->
<g id="edge24" class="edge"><title>Node59&#45;&gt;Node60</title>
<path fill="none" stroke="midnightblue" d="M3754.5,-62.537C3754.5,-50.1703 3754.5,-34.6198 3754.5,-25.1273"/>
<polygon fill="midnightblue" stroke="midnightblue" points="3751,-62.7338 3754.5,-72.7338 3758,-62.7338 3751,-62.7338"/>
</g>
<!-- Node61 -->
<g id="node21" class="node"><title>Node61</title>
<g id="a_node21"><a xlink:href="_n_f_game_server_net___server_plugin_8cpp.html" target="_top" xlink:title="NFGameServerNet_ServerPlugin.cpp">
<polygon fill="white" stroke="black" points="3866.5,-6 3866.5,-25 4042.5,-25 4042.5,-6 3866.5,-6"/>
<text text-anchor="middle" x="3954.5" y="-13" font-family="Helvetica,sans-Serif" font-size="10.00">NFGameServerNet_ServerPlugin.cpp</text>
</a>
</g>
</g>
<!-- Node59&#45;&gt;Node61 -->
<g id="edge25" class="edge"><title>Node59&#45;&gt;Node61</title>
<path fill="none" stroke="midnightblue" d="M3790.61,-69.7654C3830.23,-56.8862 3892.9,-36.5214 3928.15,-25.0637"/>
<polygon fill="midnightblue" stroke="midnightblue" points="3789.49,-66.449 3781.06,-72.8685 3791.65,-73.1062 3789.49,-66.449"/>
</g>
<!-- Node63 -->
<g id="node23" class="node"><title>Node63</title>
<g id="a_node23"><a xlink:href="_n_f_c_create_role_module_8cpp.html" target="_top" xlink:title="NFCCreateRoleModule.cpp">
<polygon fill="white" stroke="black" points="4060.5,-6 4060.5,-25 4194.5,-25 4194.5,-6 4060.5,-6"/>
<text text-anchor="middle" x="4127.5" y="-13" font-family="Helvetica,sans-Serif" font-size="10.00">NFCCreateRoleModule.cpp</text>
</a>
</g>
</g>
<!-- Node62&#45;&gt;Node63 -->
<g id="edge27" class="edge"><title>Node62&#45;&gt;Node63</title>
<path fill="none" stroke="midnightblue" d="M4047.83,-67.2687C4068.02,-54.4026 4097.09,-35.879 4113.96,-25.1273"/>
<polygon fill="midnightblue" stroke="midnightblue" points="4045.81,-64.408 4039.26,-72.7338 4049.57,-70.3113 4045.81,-64.408"/>
</g>
<!-- Node65 -->
<g id="node25" class="node"><title>Node65</title>
<g id="a_node25"><a xlink:href="_n_f_c_event_route_module_8cpp.html" target="_top" xlink:title="NFCEventRouteModule.cpp">
<polygon fill="white" stroke="black" points="4212.5,-6 4212.5,-25 4348.5,-25 4348.5,-6 4212.5,-6"/>
<text text-anchor="middle" x="4280.5" y="-13" font-family="Helvetica,sans-Serif" font-size="10.00">NFCEventRouteModule.cpp</text>
</a>
</g>
</g>
<!-- Node64&#45;&gt;Node65 -->
<g id="edge29" class="edge"><title>Node64&#45;&gt;Node65</title>
<path fill="none" stroke="midnightblue" d="M4276.96,-62.537C4277.91,-50.1703 4279.11,-34.6198 4279.84,-25.1273"/>
<polygon fill="midnightblue" stroke="midnightblue" points="4273.45,-62.4948 4276.17,-72.7338 4280.43,-63.0317 4273.45,-62.4948"/>
</g>
<!-- Node67 -->
<g id="node27" class="node"><title>Node67</title>
<g id="a_node27"><a xlink:href="_n_f_c_game_server_module_8cpp.html" target="_top" xlink:title="NFCGameServerModule.cpp">
<polygon fill="white" stroke="black" points="2430.5,-6 2430.5,-25 2570.5,-25 2570.5,-6 2430.5,-6"/>
<text text-anchor="middle" x="2500.5" y="-13" font-family="Helvetica,sans-Serif" font-size="10.00">NFCGameServerModule.cpp</text>
</a>
</g>
</g>
<!-- Node66&#45;&gt;Node67 -->
<g id="edge31" class="edge"><title>Node66&#45;&gt;Node67</title>
<path fill="none" stroke="midnightblue" d="M2565.97,-66.5678C2549.2,-53.7376 2525.59,-35.6853 2511.78,-25.1273"/>
<polygon fill="midnightblue" stroke="midnightblue" points="2563.97,-69.4395 2574.04,-72.7338 2568.22,-63.879 2563.97,-69.4395"/>
</g>
<!-- Node68 -->
<g id="node28" class="node"><title>Node68</title>
<g id="a_node28"><a xlink:href="_n_f_game_server_plugin_8cpp.html" target="_top" xlink:title="NFGameServerPlugin.cpp">
<polygon fill="white" stroke="black" points="2250.5,-6 2250.5,-25 2378.5,-25 2378.5,-6 2250.5,-6"/>
<text text-anchor="middle" x="2314.5" y="-13" font-family="Helvetica,sans-Serif" font-size="10.00">NFGameServerPlugin.cpp</text>
</a>
</g>
</g>
<!-- Node66&#45;&gt;Node68 -->
<g id="edge32" class="edge"><title>Node66&#45;&gt;Node68</title>
<path fill="none" stroke="midnightblue" d="M2539.91,-70.5642C2486.48,-57.7499 2399.07,-36.7848 2350.29,-25.0834"/>
<polygon fill="midnightblue" stroke="midnightblue" points="2539.25,-74.0066 2549.79,-72.9355 2540.88,-67.1996 2539.25,-74.0066"/>
</g>
<!-- Node69&#45;&gt;Node68 -->
<g id="edge35" class="edge"><title>Node69&#45;&gt;Node68</title>
<path fill="none" stroke="midnightblue" d="M2675.23,-70.5967C2669.62,-69.3017 2663.93,-68.0642 2658.5,-67 2606.08,-56.7341 2461.7,-36.5229 2377.58,-25.0264"/>
<polygon fill="midnightblue" stroke="midnightblue" points="2674.62,-74.0507 2685.16,-72.9648 2676.25,-67.2415 2674.62,-74.0507"/>
</g>
<!-- Node70 -->
<g id="node30" class="node"><title>Node70</title>
<g id="a_node30"><a xlink:href="_n_f_c_level_module_8cpp.html" target="_top" xlink:title="NFCLevelModule.cpp">
<polygon fill="white" stroke="black" points="2588.5,-6 2588.5,-25 2696.5,-25 2696.5,-6 2588.5,-6"/>
<text text-anchor="middle" x="2642.5" y="-13" font-family="Helvetica,sans-Serif" font-size="10.00">NFCLevelModule.cpp</text>
</a>
</g>
</g>
<!-- Node69&#45;&gt;Node70 -->
<g id="edge34" class="edge"><title>Node69&#45;&gt;Node70</title>
<path fill="none" stroke="midnightblue" d="M2699.45,-65.8564C2684.71,-53.0777 2664.41,-35.4915 2652.45,-25.1273"/>
<polygon fill="midnightblue" stroke="midnightblue" points="2697.54,-68.8294 2707.39,-72.7338 2702.12,-63.5396 2697.54,-68.8294"/>
</g>
<!-- Node71&#45;&gt;Node68 -->
<g id="edge38" class="edge"><title>Node71&#45;&gt;Node68</title>
<path fill="none" stroke="midnightblue" d="M2025.55,-70.7566C2031.58,-69.4617 2037.68,-68.181 2043.5,-67 2121.12,-51.245 2211.64,-34.7547 2265.94,-25.0644"/>
<polygon fill="midnightblue" stroke="midnightblue" points="2024.53,-67.3954 2015.5,-72.9341 2026.01,-74.2366 2024.53,-67.3954"/>
</g>
<!-- Node72 -->
<g id="node32" class="node"><title>Node72</title>
<g id="a_node32"><a xlink:href="_n_f_c_property_module_8cpp.html" target="_top" xlink:title="NFCPropertyModule.cpp">
<polygon fill="white" stroke="black" points="1911,-6 1911,-25 2034,-25 2034,-6 1911,-6"/>
<text text-anchor="middle" x="1972.5" y="-13" font-family="Helvetica,sans-Serif" font-size="10.00">NFCPropertyModule.cpp</text>
</a>
</g>
</g>
<!-- Node71&#45;&gt;Node72 -->
<g id="edge37" class="edge"><title>Node71&#45;&gt;Node72</title>
<path fill="none" stroke="midnightblue" d="M1976.04,-62.537C1975.09,-50.1703 1973.89,-34.6198 1973.16,-25.1273"/>
<polygon fill="midnightblue" stroke="midnightblue" points="1972.57,-63.0317 1976.83,-72.7338 1979.55,-62.4948 1972.57,-63.0317"/>
</g>
<!-- Node74 -->
<g id="node34" class="node"><title>Node74</title>
<g id="a_node34"><a xlink:href="_n_f_c_property_trail_module_8cpp.html" target="_top" xlink:title="NFCPropertyTrailModule.cpp">
<polygon fill="white" stroke="black" points="639,-6 639,-25 780,-25 780,-6 639,-6"/>
<text text-anchor="middle" x="709.5" y="-13" font-family="Helvetica,sans-Serif" font-size="10.00">NFCPropertyTrailModule.cpp</text>
</a>
</g>
</g>
<!-- Node73&#45;&gt;Node74 -->
<g id="edge40" class="edge"><title>Node73&#45;&gt;Node74</title>
<path fill="none" stroke="midnightblue" d="M709.5,-62.537C709.5,-50.1703 709.5,-34.6198 709.5,-25.1273"/>
<polygon fill="midnightblue" stroke="midnightblue" points="706,-62.7338 709.5,-72.7338 713,-62.7338 706,-62.7338"/>
</g>
<!-- Node75&#45;&gt;Node68 -->
<g id="edge43" class="edge"><title>Node75&#45;&gt;Node68</title>
<path fill="none" stroke="midnightblue" d="M2157.65,-69.6013C2195.71,-56.7138 2255.5,-36.4728 2289.2,-25.0637"/>
<polygon fill="midnightblue" stroke="midnightblue" points="2156.35,-66.3466 2148,-72.8685 2158.59,-72.977 2156.35,-66.3466"/>
</g>
<!-- Node76 -->
<g id="node36" class="node"><title>Node76</title>
<g id="a_node36"><a xlink:href="_n_f_c_scene_process_module_8cpp.html" target="_top" xlink:title="NFCSceneProcessModule.cpp">
<polygon fill="white" stroke="black" points="2052.5,-6 2052.5,-25 2202.5,-25 2202.5,-6 2052.5,-6"/>
<text text-anchor="middle" x="2127.5" y="-13" font-family="Helvetica,sans-Serif" font-size="10.00">NFCSceneProcessModule.cpp</text>
</a>
</g>
</g>
<!-- Node75&#45;&gt;Node76 -->
<g id="edge42" class="edge"><title>Node75&#45;&gt;Node76</title>
<path fill="none" stroke="midnightblue" d="M2123.96,-62.537C2124.91,-50.1703 2126.11,-34.6198 2126.84,-25.1273"/>
<polygon fill="midnightblue" stroke="midnightblue" points="2120.45,-62.4948 2123.17,-72.7338 2127.43,-63.0317 2120.45,-62.4948"/>
</g>
<!-- Node78 -->
<g id="node38" class="node"><title>Node78</title>
<g id="a_node38"><a xlink:href="_n_f_c_login_logic_module_8cpp.html" target="_top" xlink:title="NFCLoginLogicModule.cpp">
<polygon fill="white" stroke="black" points="2715,-6 2715,-25 2848,-25 2848,-6 2715,-6"/>
<text text-anchor="middle" x="2781.5" y="-13" font-family="Helvetica,sans-Serif" font-size="10.00">NFCLoginLogicModule.cpp</text>
</a>
</g>
</g>
<!-- Node77&#45;&gt;Node78 -->
<g id="edge45" class="edge"><title>Node77&#45;&gt;Node78</title>
<path fill="none" stroke="midnightblue" d="M2829.74,-65.4968C2817.19,-52.7496 2800.1,-35.3947 2789.99,-25.1273"/>
<polygon fill="midnightblue" stroke="midnightblue" points="2827.36,-68.0637 2836.87,-72.7338 2832.35,-63.1525 2827.36,-68.0637"/>
</g>
<!-- Node100&#45;&gt;Node101 -->
<g id="edge54" class="edge"><title>Node100&#45;&gt;Node101</title>
<path fill="none" stroke="midnightblue" d="M3001.31,-61.7337C2986.45,-51.6755 2968.74,-39.6847 2955.29,-30.5765"/>
<polygon fill="midnightblue" stroke="midnightblue" points="2999.43,-64.6875 3009.67,-67.396 3003.35,-58.8912 2999.43,-64.6875"/>
</g>
<!-- Node109&#45;&gt;Node46 -->
<g id="edge59" class="edge"><title>Node109&#45;&gt;Node46</title>
<path fill="none" stroke="midnightblue" d="M342.429,-127.325C330.84,-116.02 315.639,-101.193 306.224,-92.0091"/>
<polygon fill="midnightblue" stroke="midnightblue" points="340.158,-129.998 349.76,-134.475 345.046,-124.987 340.158,-129.998"/>
</g>
<!-- Node109&#45;&gt;Node48 -->
<g id="edge60" class="edge"><title>Node109&#45;&gt;Node48</title>
<path fill="none" stroke="midnightblue" d="M374.571,-127.325C386.16,-116.02 401.361,-101.193 410.776,-92.0091"/>
<polygon fill="midnightblue" stroke="midnightblue" points="371.954,-124.987 367.24,-134.475 376.842,-129.998 371.954,-124.987"/>
</g>
</g>
</svg>
