<?xml version="1.0" encoding="UTF-8" standalone="no"?>
<!DOCTYPE svg PUBLIC "-//W3C//DTD SVG 1.1//EN"
 "http://www.w3.org/Graphics/SVG/1.1/DTD/svg11.dtd">
<!-- Generated by graphviz version 2.38.0 (20140413.2041)
 -->
<!-- Title: NFGUID.h Pages: 1 -->
<svg width="403pt" height="140pt"
 viewBox="0.00 0.00 402.50 140.00" xmlns="http://www.w3.org/2000/svg" xmlns:xlink="http://www.w3.org/1999/xlink">
<g id="graph0" class="graph" transform="scale(1 1) rotate(0) translate(4 136)">
<title>NFGUID.h</title>
<polygon fill="white" stroke="none" points="-4,4 -4,-136 398.5,-136 398.5,4 -4,4"/>
<!-- Node0 -->
<g id="node1" class="node"><title>Node0</title>
<polygon fill="#bfbfbf" stroke="black" points="241,-112.5 241,-131.5 302,-131.5 302,-112.5 241,-112.5"/>
<text text-anchor="middle" x="271.5" y="-119.5" font-family="Helvetica,sans-Serif" font-size="10.00">NFGUID.h</text>
</g>
<!-- Node1 -->
<g id="node2" class="node"><title>Node1</title>
<g id="a_node2"><a xlink:href="_n_f_platform_8h.html" target="_top" xlink:title="NFPlatform.h">
<polygon fill="white" stroke="black" points="118.5,-56.5 118.5,-75.5 192.5,-75.5 192.5,-56.5 118.5,-56.5"/>
<text text-anchor="middle" x="155.5" y="-63.5" font-family="Helvetica,sans-Serif" font-size="10.00">NFPlatform.h</text>
</a>
</g>
</g>
<!-- Node0&#45;&gt;Node1 -->
<g id="edge1" class="edge"><title>Node0&#45;&gt;Node1</title>
<path fill="none" stroke="midnightblue" d="M253.119,-112.444C234.284,-103.675 204.769,-89.9355 183.121,-79.8579"/>
<polygon fill="midnightblue" stroke="midnightblue" points="184.338,-76.5637 173.795,-75.5164 181.383,-82.9098 184.338,-76.5637"/>
</g>
<!-- Node7 -->
<g id="node8" class="node"><title>Node7</title>
<polygon fill="white" stroke="#bfbfbf" points="210.5,-56.5 210.5,-75.5 264.5,-75.5 264.5,-56.5 210.5,-56.5"/>
<text text-anchor="middle" x="237.5" y="-63.5" font-family="Helvetica,sans-Serif" font-size="10.00">iostream</text>
</g>
<!-- Node0&#45;&gt;Node7 -->
<g id="edge7" class="edge"><title>Node0&#45;&gt;Node7</title>
<path fill="none" stroke="midnightblue" d="M265.886,-112.083C261.133,-104.534 254.182,-93.4948 248.348,-84.2298"/>
<polygon fill="midnightblue" stroke="midnightblue" points="251.3,-82.3486 243.01,-75.7511 245.376,-86.0783 251.3,-82.3486"/>
</g>
<!-- Node8 -->
<g id="node9" class="node"><title>Node8</title>
<polygon fill="white" stroke="#bfbfbf" points="282.5,-56.5 282.5,-75.5 328.5,-75.5 328.5,-56.5 282.5,-56.5"/>
<text text-anchor="middle" x="305.5" y="-63.5" font-family="Helvetica,sans-Serif" font-size="10.00">stdio.h</text>
</g>
<!-- Node0&#45;&gt;Node8 -->
<g id="edge8" class="edge"><title>Node0&#45;&gt;Node8</title>
<path fill="none" stroke="midnightblue" d="M277.114,-112.083C281.867,-104.534 288.818,-93.4948 294.652,-84.2298"/>
<polygon fill="midnightblue" stroke="midnightblue" points="297.624,-86.0783 299.99,-75.7511 291.7,-82.3486 297.624,-86.0783"/>
</g>
<!-- Node9 -->
<g id="node10" class="node"><title>Node9</title>
<polygon fill="white" stroke="#bfbfbf" points="346.5,-56.5 346.5,-75.5 394.5,-75.5 394.5,-56.5 346.5,-56.5"/>
<text text-anchor="middle" x="370.5" y="-63.5" font-family="Helvetica,sans-Serif" font-size="10.00">stdlib.h</text>
</g>
<!-- Node0&#45;&gt;Node9 -->
<g id="edge9" class="edge"><title>Node0&#45;&gt;Node9</title>
<path fill="none" stroke="midnightblue" d="M287.406,-112.324C303.138,-103.743 327.442,-90.486 345.709,-80.5224"/>
<polygon fill="midnightblue" stroke="midnightblue" points="347.53,-83.5157 354.633,-75.6545 344.178,-77.3704 347.53,-83.5157"/>
</g>
<!-- Node2 -->
<g id="node3" class="node"><title>Node2</title>
<polygon fill="white" stroke="#bfbfbf" points="0,-0.5 0,-19.5 49,-19.5 49,-0.5 0,-0.5"/>
<text text-anchor="middle" x="24.5" y="-7.5" font-family="Helvetica,sans-Serif" font-size="10.00">stdint.h</text>
</g>
<!-- Node1&#45;&gt;Node2 -->
<g id="edge2" class="edge"><title>Node1&#45;&gt;Node2</title>
<path fill="none" stroke="midnightblue" d="M134.743,-56.4435C113.184,-47.5566 79.2367,-33.5632 54.7062,-23.4514"/>
<polygon fill="midnightblue" stroke="midnightblue" points="55.7394,-20.0917 45.1602,-19.5164 53.0717,-26.5634 55.7394,-20.0917"/>
</g>
<!-- Node3 -->
<g id="node4" class="node"><title>Node3</title>
<polygon fill="white" stroke="#bfbfbf" points="67.5,-0.5 67.5,-19.5 111.5,-19.5 111.5,-0.5 67.5,-0.5"/>
<text text-anchor="middle" x="89.5" y="-7.5" font-family="Helvetica,sans-Serif" font-size="10.00">time.h</text>
</g>
<!-- Node1&#45;&gt;Node3 -->
<g id="edge3" class="edge"><title>Node1&#45;&gt;Node3</title>
<path fill="none" stroke="midnightblue" d="M144.896,-56.324C135.044,-48.2631 120.149,-36.0765 108.285,-26.3695"/>
<polygon fill="midnightblue" stroke="midnightblue" points="110.253,-23.4575 100.297,-19.8339 105.82,-28.8752 110.253,-23.4575"/>
</g>
<!-- Node4 -->
<g id="node5" class="node"><title>Node4</title>
<polygon fill="white" stroke="#bfbfbf" points="129.5,-0.5 129.5,-19.5 181.5,-19.5 181.5,-0.5 129.5,-0.5"/>
<text text-anchor="middle" x="155.5" y="-7.5" font-family="Helvetica,sans-Serif" font-size="10.00">sstream</text>
</g>
<!-- Node1&#45;&gt;Node4 -->
<g id="edge4" class="edge"><title>Node1&#45;&gt;Node4</title>
<path fill="none" stroke="midnightblue" d="M155.5,-56.083C155.5,-49.0059 155.5,-38.8611 155.5,-29.9865"/>
<polygon fill="midnightblue" stroke="midnightblue" points="159,-29.751 155.5,-19.7511 152,-29.7511 159,-29.751"/>
</g>
<!-- Node5 -->
<g id="node6" class="node"><title>Node5</title>
<polygon fill="white" stroke="#bfbfbf" points="199.5,-0.5 199.5,-19.5 327.5,-19.5 327.5,-0.5 199.5,-0.5"/>
<text text-anchor="middle" x="263.5" y="-7.5" font-family="Helvetica,sans-Serif" font-size="10.00">common/lexical_cast.hpp</text>
</g>
<!-- Node1&#45;&gt;Node5 -->
<g id="edge5" class="edge"><title>Node1&#45;&gt;Node5</title>
<path fill="none" stroke="midnightblue" d="M172.852,-56.324C190.172,-47.6641 217.015,-34.2424 237.002,-24.249"/>
<polygon fill="midnightblue" stroke="midnightblue" points="238.812,-27.2572 246.191,-19.6545 235.681,-20.9962 238.812,-27.2572"/>
</g>
<!-- Node6 -->
<g id="node7" class="node"><title>Node6</title>
<polygon fill="white" stroke="#bfbfbf" points="346,-0.5 346,-19.5 387,-19.5 387,-0.5 346,-0.5"/>
<text text-anchor="middle" x="366.5" y="-7.5" font-family="Helvetica,sans-Serif" font-size="10.00">string</text>
</g>
<!-- Node1&#45;&gt;Node6 -->
<g id="edge6" class="edge"><title>Node1&#45;&gt;Node6</title>
<path fill="none" stroke="midnightblue" d="M192.035,-56.4587C226.683,-48.2383 280.411,-35.1815 336.184,-19.9853"/>
<polygon fill="midnightblue" stroke="midnightblue" points="337.162,-23.3464 345.881,-17.327 335.311,-16.5955 337.162,-23.3464"/>
</g>
</g>
</svg>
