<?xml version="1.0" encoding="UTF-8" standalone="no"?>
<!DOCTYPE svg PUBLIC "-//W3C//DTD SVG 1.1//EN"
 "http://www.w3.org/Graphics/SVG/1.1/DTD/svg11.dtd">
<!-- Generated by graphviz version 2.38.0 (20140413.2041)
 -->
<!-- Title: NFCPropertyManager.cpp Pages: 1 -->
<svg width="1476pt" height="487pt"
 viewBox="0.00 0.00 1475.61 487.00" xmlns="http://www.w3.org/2000/svg" xmlns:xlink="http://www.w3.org/1999/xlink">
<g id="graph0" class="graph" transform="scale(1 1) rotate(0) translate(4 483)">
<title>NFCPropertyManager.cpp</title>
<polygon fill="white" stroke="none" points="-4,4 -4,-483 1471.61,-483 1471.61,4 -4,4"/>
<!-- Node0 -->
<g id="node1" class="node"><title>Node0</title>
<polygon fill="#bfbfbf" stroke="black" points="925.5,-459.5 925.5,-478.5 1054.5,-478.5 1054.5,-459.5 925.5,-459.5"/>
<text text-anchor="middle" x="990" y="-466.5" font-family="Helvetica,sans-Serif" font-size="10.00">NFCPropertyManager.cpp</text>
</g>
<!-- Node1 -->
<g id="node2" class="node"><title>Node1</title>
<g id="a_node2"><a xlink:href="_n_f_c_property_8h.html" target="_top" xlink:title="NFCProperty.h">
<polygon fill="white" stroke="black" points="993.5,-347.5 993.5,-366.5 1074.5,-366.5 1074.5,-347.5 993.5,-347.5"/>
<text text-anchor="middle" x="1034" y="-354.5" font-family="Helvetica,sans-Serif" font-size="10.00">NFCProperty.h</text>
</a>
</g>
</g>
<!-- Node0&#45;&gt;Node1 -->
<g id="edge1" class="edge"><title>Node0&#45;&gt;Node1</title>
<path fill="none" stroke="midnightblue" d="M995.298,-459.28C1000.54,-450.388 1008.56,-436.08 1014,-423 1020.38,-407.67 1025.78,-389.569 1029.36,-376.366"/>
<polygon fill="midnightblue" stroke="midnightblue" points="1032.77,-377.157 1031.92,-366.597 1026,-375.385 1032.77,-377.157"/>
</g>
<!-- Node32 -->
<g id="node33" class="node"><title>Node32</title>
<g id="a_node33"><a xlink:href="_n_f_c_property_manager_8h.html" target="_top" xlink:title="NFCPropertyManager.h">
<polygon fill="white" stroke="black" points="886.5,-403.5 886.5,-422.5 1005.5,-422.5 1005.5,-403.5 886.5,-403.5"/>
<text text-anchor="middle" x="946" y="-410.5" font-family="Helvetica,sans-Serif" font-size="10.00">NFCPropertyManager.h</text>
</a>
</g>
</g>
<!-- Node0&#45;&gt;Node32 -->
<g id="edge59" class="edge"><title>Node0&#45;&gt;Node32</title>
<path fill="none" stroke="midnightblue" d="M982.734,-459.083C976.455,-451.377 967.212,-440.033 959.569,-430.653"/>
<polygon fill="midnightblue" stroke="midnightblue" points="962.161,-428.293 953.131,-422.751 956.734,-432.714 962.161,-428.293"/>
</g>
<!-- Node2 -->
<g id="node3" class="node"><title>Node2</title>
<g id="a_node3"><a xlink:href="_n_f_define_8h.html" target="_top" xlink:title="NFDefine.h">
<polygon fill="white" stroke="black" points="797.5,-235.5 797.5,-254.5 862.5,-254.5 862.5,-235.5 797.5,-235.5"/>
<text text-anchor="middle" x="830" y="-242.5" font-family="Helvetica,sans-Serif" font-size="10.00">NFDefine.h</text>
</a>
</g>
</g>
<!-- Node1&#45;&gt;Node2 -->
<g id="edge2" class="edge"><title>Node1&#45;&gt;Node2</title>
<path fill="none" stroke="midnightblue" d="M1017.99,-347.368C982.539,-328.251 897.188,-282.229 854.779,-259.361"/>
<polygon fill="midnightblue" stroke="midnightblue" points="856.396,-256.257 845.933,-254.591 853.074,-262.418 856.396,-256.257"/>
</g>
<!-- Node4 -->
<g id="node5" class="node"><title>Node4</title>
<g id="a_node5"><a xlink:href="_a_f_data_list_8hpp.html" target="_top" xlink:title="AFDataList.hpp">
<polygon fill="white" stroke="black" points="788,-179.5 788,-198.5 872,-198.5 872,-179.5 788,-179.5"/>
<text text-anchor="middle" x="830" y="-186.5" font-family="Helvetica,sans-Serif" font-size="10.00">AFDataList.hpp</text>
</a>
</g>
</g>
<!-- Node1&#45;&gt;Node4 -->
<g id="edge54" class="edge"><title>Node1&#45;&gt;Node4</title>
<path fill="none" stroke="midnightblue" d="M1024.8,-347.374C1015.13,-338.317 999.497,-323.659 986,-311 949.993,-277.23 944.389,-264.757 905,-235 889.396,-223.212 870.51,-211.895 855.594,-203.559"/>
<polygon fill="midnightblue" stroke="midnightblue" points="856.89,-200.278 846.44,-198.537 853.523,-206.416 856.89,-200.278"/>
</g>
<!-- Node28 -->
<g id="node29" class="node"><title>Node28</title>
<g id="a_node29"><a xlink:href="_n_f_map_8h.html" target="_top" xlink:title="NFMap.h">
<polygon fill="white" stroke="black" points="1253,-235.5 1253,-254.5 1309,-254.5 1309,-235.5 1253,-235.5"/>
<text text-anchor="middle" x="1281" y="-242.5" font-family="Helvetica,sans-Serif" font-size="10.00">NFMap.h</text>
</a>
</g>
</g>
<!-- Node1&#45;&gt;Node28 -->
<g id="edge34" class="edge"><title>Node1&#45;&gt;Node28</title>
<path fill="none" stroke="midnightblue" d="M1051.02,-347.455C1076.62,-334.696 1126.66,-310.119 1170,-291 1196.52,-279.301 1227.06,-267.003 1249.39,-258.225"/>
<polygon fill="midnightblue" stroke="midnightblue" points="1250.68,-261.476 1258.72,-254.573 1248.13,-254.958 1250.68,-261.476"/>
</g>
<!-- Node30 -->
<g id="node31" class="node"><title>Node30</title>
<g id="a_node31"><a xlink:href="_n_f_list_8h.html" target="_top" xlink:title="NFList.h">
<polygon fill="white" stroke="black" points="1074.5,-179.5 1074.5,-198.5 1127.5,-198.5 1127.5,-179.5 1074.5,-179.5"/>
<text text-anchor="middle" x="1101" y="-186.5" font-family="Helvetica,sans-Serif" font-size="10.00">NFList.h</text>
</a>
</g>
</g>
<!-- Node1&#45;&gt;Node30 -->
<g id="edge48" class="edge"><title>Node1&#45;&gt;Node30</title>
<path fill="none" stroke="midnightblue" d="M1047,-347.273C1057.92,-339.204 1072.99,-326.187 1081,-311 1098.33,-278.161 1101.33,-233.915 1101.48,-209.041"/>
<polygon fill="midnightblue" stroke="midnightblue" points="1104.98,-208.769 1101.38,-198.802 1097.98,-208.835 1104.98,-208.769"/>
</g>
<!-- Node31 -->
<g id="node32" class="node"><title>Node31</title>
<g id="a_node32"><a xlink:href="_n_f_i_property_8h.html" target="_top" xlink:title="NFIProperty.h">
<polygon fill="white" stroke="black" points="995.5,-291.5 995.5,-310.5 1072.5,-310.5 1072.5,-291.5 995.5,-291.5"/>
<text text-anchor="middle" x="1034" y="-298.5" font-family="Helvetica,sans-Serif" font-size="10.00">NFIProperty.h</text>
</a>
</g>
</g>
<!-- Node1&#45;&gt;Node31 -->
<g id="edge55" class="edge"><title>Node1&#45;&gt;Node31</title>
<path fill="none" stroke="midnightblue" d="M1034,-347.083C1034,-340.006 1034,-329.861 1034,-320.986"/>
<polygon fill="midnightblue" stroke="midnightblue" points="1037.5,-320.751 1034,-310.751 1030.5,-320.751 1037.5,-320.751"/>
</g>
<!-- Node3 -->
<g id="node4" class="node"><title>Node3</title>
<polygon fill="white" stroke="#bfbfbf" points="0,-118 0,-137 58,-137 58,-118 0,-118"/>
<text text-anchor="middle" x="29" y="-125" font-family="Helvetica,sans-Serif" font-size="10.00">functional</text>
</g>
<!-- Node2&#45;&gt;Node3 -->
<g id="edge3" class="edge"><title>Node2&#45;&gt;Node3</title>
<path fill="none" stroke="midnightblue" d="M797.325,-240.878C693.353,-230.661 361.087,-195.81 90,-143 82.8013,-141.598 75.1666,-139.929 67.8239,-138.232"/>
<polygon fill="midnightblue" stroke="midnightblue" points="68.5979,-134.818 58.0607,-135.921 66.9859,-141.63 68.5979,-134.818"/>
</g>
<!-- Node2&#45;&gt;Node4 -->
<g id="edge4" class="edge"><title>Node2&#45;&gt;Node4</title>
<path fill="none" stroke="midnightblue" d="M830,-235.083C830,-228.006 830,-217.861 830,-208.986"/>
<polygon fill="midnightblue" stroke="midnightblue" points="833.5,-208.751 830,-198.751 826.5,-208.751 833.5,-208.751"/>
</g>
<!-- Node20 -->
<g id="node21" class="node"><title>Node20</title>
<g id="a_node21"><a xlink:href="_n_f_g_u_i_d_8h.html" target="_top" xlink:title="NFComm/NFPluginModule\l/NFGUID.h">
<polygon fill="white" stroke="black" points="114,-112.5 114,-142.5 246,-142.5 246,-112.5 114,-112.5"/>
<text text-anchor="start" x="122" y="-130.5" font-family="Helvetica,sans-Serif" font-size="10.00">NFComm/NFPluginModule</text>
<text text-anchor="middle" x="180" y="-119.5" font-family="Helvetica,sans-Serif" font-size="10.00">/NFGUID.h</text>
</a>
</g>
</g>
<!-- Node2&#45;&gt;Node20 -->
<g id="edge33" class="edge"><title>Node2&#45;&gt;Node20</title>
<path fill="none" stroke="midnightblue" d="M797.225,-238.445C710.705,-223.738 468.792,-182.337 256.336,-143.231"/>
<polygon fill="midnightblue" stroke="midnightblue" points="256.711,-139.741 246.242,-141.37 255.442,-146.625 256.711,-139.741"/>
</g>
<!-- Node4&#45;&gt;Node3 -->
<g id="edge17" class="edge"><title>Node4&#45;&gt;Node3</title>
<path fill="none" stroke="midnightblue" d="M787.64,-186.966C649.158,-183.352 210.781,-170.017 72,-143 68.1093,-142.243 64.087,-141.223 60.1351,-140.073"/>
<polygon fill="midnightblue" stroke="midnightblue" points="61.1625,-136.727 50.5718,-137.023 59.0353,-143.396 61.1625,-136.727"/>
</g>
<!-- Node5 -->
<g id="node6" class="node"><title>Node5</title>
<polygon fill="white" stroke="#bfbfbf" points="1251.5,-0.5 1251.5,-19.5 1292.5,-19.5 1292.5,-0.5 1251.5,-0.5"/>
<text text-anchor="middle" x="1272" y="-7.5" font-family="Helvetica,sans-Serif" font-size="10.00">string</text>
</g>
<!-- Node4&#45;&gt;Node5 -->
<g id="edge5" class="edge"><title>Node4&#45;&gt;Node5</title>
<path fill="none" stroke="midnightblue" d="M844.268,-179.221C874.802,-160.457 944.635,-117.689 956,-112 1015.19,-82.3704 1031.1,-76.605 1094,-56 1145,-39.2925 1205.92,-25.0956 1241.64,-17.3346"/>
<polygon fill="midnightblue" stroke="midnightblue" points="1242.41,-20.7498 1251.45,-15.2282 1240.94,-13.9059 1242.41,-20.7498"/>
</g>
<!-- Node6 -->
<g id="node7" class="node"><title>Node6</title>
<polygon fill="white" stroke="#bfbfbf" points="264,-118 264,-137 310,-137 310,-118 264,-118"/>
<text text-anchor="middle" x="287" y="-125" font-family="Helvetica,sans-Serif" font-size="10.00">cstring</text>
</g>
<!-- Node4&#45;&gt;Node6 -->
<g id="edge6" class="edge"><title>Node4&#45;&gt;Node6</title>
<path fill="none" stroke="midnightblue" d="M787.752,-186.113C681.859,-181.089 407.295,-166.171 319,-143 316.843,-142.434 314.649,-141.734 312.474,-140.949"/>
<polygon fill="midnightblue" stroke="midnightblue" points="313.797,-137.709 303.218,-137.126 311.124,-144.179 313.797,-137.709"/>
</g>
<!-- Node7 -->
<g id="node8" class="node"><title>Node7</title>
<polygon fill="white" stroke="#bfbfbf" points="1103,-56.5 1103,-75.5 1157,-75.5 1157,-56.5 1103,-56.5"/>
<text text-anchor="middle" x="1130" y="-63.5" font-family="Helvetica,sans-Serif" font-size="10.00">iostream</text>
</g>
<!-- Node4&#45;&gt;Node7 -->
<g id="edge7" class="edge"><title>Node4&#45;&gt;Node7</title>
<path fill="none" stroke="midnightblue" d="M861.578,-179.425C887.705,-171.703 925.362,-159.1 956,-143 976.856,-132.041 978.078,-122.833 999,-112 1029.3,-96.3132 1066.25,-84.1924 1093.17,-76.5032"/>
<polygon fill="midnightblue" stroke="midnightblue" points="1094.27,-79.8303 1102.97,-73.7749 1092.39,-73.087 1094.27,-79.8303"/>
</g>
<!-- Node8 -->
<g id="node9" class="node"><title>Node8</title>
<polygon fill="white" stroke="#bfbfbf" points="77,-56.5 77,-75.5 125,-75.5 125,-56.5 77,-56.5"/>
<text text-anchor="middle" x="101" y="-63.5" font-family="Helvetica,sans-Serif" font-size="10.00">stdlib.h</text>
</g>
<!-- Node4&#45;&gt;Node8 -->
<g id="edge8" class="edge"><title>Node4&#45;&gt;Node8</title>
<path fill="none" stroke="midnightblue" d="M787.899,-186.92C636.754,-182.844 129.157,-167.386 105,-143 90.4307,-128.293 92.1968,-103.12 95.7601,-85.8012"/>
<polygon fill="midnightblue" stroke="midnightblue" points="99.2439,-86.2873 98.2077,-75.7433 92.4424,-84.6321 99.2439,-86.2873"/>
</g>
<!-- Node9 -->
<g id="node10" class="node"><title>Node9</title>
<polygon fill="white" stroke="#bfbfbf" points="328.5,-118 328.5,-137 375.5,-137 375.5,-118 328.5,-118"/>
<text text-anchor="middle" x="352" y="-125" font-family="Helvetica,sans-Serif" font-size="10.00">math.h</text>
</g>
<!-- Node4&#45;&gt;Node9 -->
<g id="edge9" class="edge"><title>Node4&#45;&gt;Node9</title>
<path fill="none" stroke="midnightblue" d="M787.815,-188.088C707.866,-187.305 529.366,-181.001 385,-143 382.702,-142.395 380.36,-141.651 378.037,-140.822"/>
<polygon fill="midnightblue" stroke="midnightblue" points="379.345,-137.575 368.761,-137.075 376.723,-144.065 379.345,-137.575"/>
</g>
<!-- Node10 -->
<g id="node11" class="node"><title>Node10</title>
<polygon fill="white" stroke="#bfbfbf" points="1228.5,-118 1228.5,-137 1257.5,-137 1257.5,-118 1228.5,-118"/>
<text text-anchor="middle" x="1243" y="-125" font-family="Helvetica,sans-Serif" font-size="10.00">list</text>
</g>
<!-- Node4&#45;&gt;Node10 -->
<g id="edge10" class="edge"><title>Node4&#45;&gt;Node10</title>
<path fill="none" stroke="midnightblue" d="M872.159,-188.911C944.958,-189.228 1098.06,-184.335 1219,-143 1219.89,-142.697 1220.78,-142.357 1221.66,-141.989"/>
<polygon fill="midnightblue" stroke="midnightblue" points="1223.53,-144.961 1230.8,-137.248 1220.31,-138.748 1223.53,-144.961"/>
</g>
<!-- Node11 -->
<g id="node12" class="node"><title>Node11</title>
<polygon fill="white" stroke="#bfbfbf" points="394,-118 394,-137 436,-137 436,-118 394,-118"/>
<text text-anchor="middle" x="415" y="-125" font-family="Helvetica,sans-Serif" font-size="10.00">vector</text>
</g>
<!-- Node4&#45;&gt;Node11 -->
<g id="edge11" class="edge"><title>Node4&#45;&gt;Node11</title>
<path fill="none" stroke="midnightblue" d="M787.791,-187.628C715.963,-185.994 565.988,-178.222 445,-143 443.125,-142.454 441.224,-141.8 439.335,-141.076"/>
<polygon fill="midnightblue" stroke="midnightblue" points="440.741,-137.871 430.178,-137.048 437.922,-144.279 440.741,-137.871"/>
</g>
<!-- Node12 -->
<g id="node13" class="node"><title>Node12</title>
<polygon fill="white" stroke="#bfbfbf" points="1344.5,-118 1344.5,-137 1379.5,-137 1379.5,-118 1344.5,-118"/>
<text text-anchor="middle" x="1362" y="-125" font-family="Helvetica,sans-Serif" font-size="10.00">map</text>
</g>
<!-- Node4&#45;&gt;Node12 -->
<g id="edge12" class="edge"><title>Node4&#45;&gt;Node12</title>
<path fill="none" stroke="midnightblue" d="M872.235,-186.419C977.393,-182.133 1248.67,-168.841 1335,-143 1336.43,-142.571 1337.88,-142.061 1339.31,-141.493"/>
<polygon fill="midnightblue" stroke="midnightblue" points="1340.92,-144.604 1348.45,-137.151 1337.92,-138.282 1340.92,-144.604"/>
</g>
<!-- Node13 -->
<g id="node14" class="node"><title>Node13</title>
<polygon fill="white" stroke="#bfbfbf" points="1008,-118 1008,-137 1064,-137 1064,-118 1008,-118"/>
<text text-anchor="middle" x="1036" y="-125" font-family="Helvetica,sans-Serif" font-size="10.00">algorithm</text>
</g>
<!-- Node4&#45;&gt;Node13 -->
<g id="edge13" class="edge"><title>Node4&#45;&gt;Node13</title>
<path fill="none" stroke="midnightblue" d="M863.478,-179.491C896.751,-170.876 949.154,-156.878 994,-143 996.763,-142.145 999.619,-141.229 1002.48,-140.289"/>
<polygon fill="midnightblue" stroke="midnightblue" points="1003.74,-143.557 1012.1,-137.05 1001.51,-136.923 1003.74,-143.557"/>
</g>
<!-- Node14 -->
<g id="node15" class="node"><title>Node14</title>
<polygon fill="white" stroke="#bfbfbf" points="454,-118 454,-137 506,-137 506,-118 454,-118"/>
<text text-anchor="middle" x="480" y="-125" font-family="Helvetica,sans-Serif" font-size="10.00">assert.h</text>
</g>
<!-- Node4&#45;&gt;Node14 -->
<g id="edge14" class="edge"><title>Node4&#45;&gt;Node14</title>
<path fill="none" stroke="midnightblue" d="M787.79,-185.344C726.702,-180.747 610.505,-169.157 515,-143 512.558,-142.331 510.058,-141.535 507.575,-140.666"/>
<polygon fill="midnightblue" stroke="midnightblue" points="508.813,-137.393 498.224,-137.062 506.296,-143.925 508.813,-137.393"/>
</g>
<!-- Node15 -->
<g id="node16" class="node"><title>Node15</title>
<polygon fill="white" stroke="#bfbfbf" points="1276,-118 1276,-137 1326,-137 1326,-118 1276,-118"/>
<text text-anchor="middle" x="1301" y="-125" font-family="Helvetica,sans-Serif" font-size="10.00">typeinfo</text>
</g>
<!-- Node4&#45;&gt;Node15 -->
<g id="edge15" class="edge"><title>Node4&#45;&gt;Node15</title>
<path fill="none" stroke="midnightblue" d="M872.181,-187.677C950.837,-186.192 1124.73,-178.743 1266,-143 1268.51,-142.365 1271.08,-141.582 1273.62,-140.712"/>
<polygon fill="midnightblue" stroke="midnightblue" points="1275.09,-143.898 1283.17,-137.052 1272.58,-137.362 1275.09,-143.898"/>
</g>
<!-- Node16 -->
<g id="node17" class="node"><title>Node16</title>
<polygon fill="white" stroke="#bfbfbf" points="524,-118 524,-137 574,-137 574,-118 524,-118"/>
<text text-anchor="middle" x="549" y="-125" font-family="Helvetica,sans-Serif" font-size="10.00">iomanip</text>
</g>
<!-- Node4&#45;&gt;Node16 -->
<g id="edge16" class="edge"><title>Node4&#45;&gt;Node16</title>
<path fill="none" stroke="midnightblue" d="M787.812,-183.224C738.095,-176.932 653.344,-164.119 583,-143 580.853,-142.355 578.658,-141.617 576.469,-140.821"/>
<polygon fill="midnightblue" stroke="midnightblue" points="577.66,-137.528 567.074,-137.091 575.077,-144.034 577.66,-137.528"/>
</g>
<!-- Node17 -->
<g id="node18" class="node"><title>Node17</title>
<polygon fill="white" stroke="#bfbfbf" points="592.5,-118 592.5,-137 641.5,-137 641.5,-118 592.5,-118"/>
<text text-anchor="middle" x="617" y="-125" font-family="Helvetica,sans-Serif" font-size="10.00">fstream</text>
</g>
<!-- Node4&#45;&gt;Node17 -->
<g id="edge18" class="edge"><title>Node4&#45;&gt;Node17</title>
<path fill="none" stroke="midnightblue" d="M788.232,-179.447C751.61,-171.489 697.161,-158.539 651,-143 649.084,-142.355 647.125,-141.649 645.162,-140.908"/>
<polygon fill="midnightblue" stroke="midnightblue" points="646.085,-137.506 635.502,-137.012 643.467,-143.998 646.085,-137.506"/>
</g>
<!-- Node18 -->
<g id="node19" class="node"><title>Node18</title>
<polygon fill="white" stroke="#bfbfbf" points="1158,-118 1158,-137 1210,-137 1210,-118 1158,-118"/>
<text text-anchor="middle" x="1184" y="-125" font-family="Helvetica,sans-Serif" font-size="10.00">memory</text>
</g>
<!-- Node4&#45;&gt;Node18 -->
<g id="edge19" class="edge"><title>Node4&#45;&gt;Node18</title>
<path fill="none" stroke="midnightblue" d="M872.349,-180.882C942.552,-169.082 1081.82,-145.674 1147.76,-134.591"/>
<polygon fill="midnightblue" stroke="midnightblue" points="1148.41,-138.03 1157.7,-132.921 1147.25,-131.127 1148.41,-138.03"/>
</g>
<!-- Node19 -->
<g id="node20" class="node"><title>Node19</title>
<polygon fill="white" stroke="#bfbfbf" points="660,-118 660,-137 764,-137 764,-118 660,-118"/>
<text text-anchor="middle" x="712" y="-125" font-family="Helvetica,sans-Serif" font-size="10.00">common/variant.hpp</text>
</g>
<!-- Node4&#45;&gt;Node19 -->
<g id="edge20" class="edge"><title>Node4&#45;&gt;Node19</title>
<path fill="none" stroke="midnightblue" d="M813.093,-179.475C793.466,-169.578 760.869,-153.142 738.01,-141.615"/>
<polygon fill="midnightblue" stroke="midnightblue" points="739.38,-138.386 728.875,-137.009 736.228,-144.637 739.38,-138.386"/>
</g>
<!-- Node4&#45;&gt;Node20 -->
<g id="edge21" class="edge"><title>Node4&#45;&gt;Node20</title>
<path fill="none" stroke="midnightblue" d="M787.983,-186.338C694.31,-182.284 461.129,-170.258 256.23,-143.065"/>
<polygon fill="midnightblue" stroke="midnightblue" points="256.563,-139.578 246.186,-141.716 255.632,-146.516 256.563,-139.578"/>
</g>
<!-- Node21 -->
<g id="node22" class="node"><title>Node21</title>
<g id="a_node22"><a xlink:href="_n_f_platform_8h.html" target="_top" xlink:title="NFPlatform.h">
<polygon fill="white" stroke="black" points="853,-56.5 853,-75.5 927,-75.5 927,-56.5 853,-56.5"/>
<text text-anchor="middle" x="890" y="-63.5" font-family="Helvetica,sans-Serif" font-size="10.00">NFPlatform.h</text>
</a>
</g>
</g>
<!-- Node4&#45;&gt;Node21 -->
<g id="edge31" class="edge"><title>Node4&#45;&gt;Node21</title>
<path fill="none" stroke="midnightblue" d="M846.645,-179.399C859.566,-171.738 876.643,-159.235 885,-143 894.155,-125.214 894.236,-101.909 892.77,-85.8187"/>
<polygon fill="midnightblue" stroke="midnightblue" points="896.206,-85.0706 891.537,-75.5597 889.256,-85.9059 896.206,-85.0706"/>
</g>
<!-- Node27 -->
<g id="node28" class="node"><title>Node27</title>
<g id="a_node28"><a xlink:href="_vector3_8hpp.html" target="_top" xlink:title="Math/Vector3.hpp">
<polygon fill="white" stroke="black" points="782,-118 782,-137 876,-137 876,-118 782,-118"/>
<text text-anchor="middle" x="829" y="-125" font-family="Helvetica,sans-Serif" font-size="10.00">Math/Vector3.hpp</text>
</a>
</g>
</g>
<!-- Node4&#45;&gt;Node27 -->
<g id="edge32" class="edge"><title>Node4&#45;&gt;Node27</title>
<path fill="none" stroke="midnightblue" d="M829.857,-179.475C829.716,-171.08 829.495,-157.981 829.314,-147.163"/>
<polygon fill="midnightblue" stroke="midnightblue" points="832.811,-146.949 829.143,-137.009 825.812,-147.067 832.811,-146.949"/>
</g>
<!-- Node20&#45;&gt;Node7 -->
<g id="edge28" class="edge"><title>Node20&#45;&gt;Node7</title>
<path fill="none" stroke="midnightblue" d="M246.174,-113.187C249.151,-112.752 252.104,-112.353 255,-112 297.113,-106.872 930.505,-76.4988 1092.5,-68.7822"/>
<polygon fill="midnightblue" stroke="midnightblue" points="1093.08,-72.2584 1102.9,-68.2867 1092.75,-65.2663 1093.08,-72.2584"/>
</g>
<!-- Node20&#45;&gt;Node8 -->
<g id="edge30" class="edge"><title>Node20&#45;&gt;Node8</title>
<path fill="none" stroke="midnightblue" d="M161.278,-112.399C149.088,-103.218 133.208,-91.2579 120.807,-81.9182"/>
<polygon fill="midnightblue" stroke="midnightblue" points="122.589,-78.8782 112.495,-75.6578 118.377,-84.4697 122.589,-78.8782"/>
</g>
<!-- Node20&#45;&gt;Node21 -->
<g id="edge22" class="edge"><title>Node20&#45;&gt;Node21</title>
<path fill="none" stroke="midnightblue" d="M246.183,-113.257C249.158,-112.803 252.107,-112.381 255,-112 473.714,-83.214 737.403,-71.9599 842.969,-68.3984"/>
<polygon fill="midnightblue" stroke="midnightblue" points="843.102,-71.896 852.981,-68.0679 842.871,-64.8999 843.102,-71.896"/>
</g>
<!-- Node26 -->
<g id="node27" class="node"><title>Node26</title>
<polygon fill="white" stroke="#bfbfbf" points="157,-56.5 157,-75.5 203,-75.5 203,-56.5 157,-56.5"/>
<text text-anchor="middle" x="180" y="-63.5" font-family="Helvetica,sans-Serif" font-size="10.00">stdio.h</text>
</g>
<!-- Node20&#45;&gt;Node26 -->
<g id="edge29" class="edge"><title>Node20&#45;&gt;Node26</title>
<path fill="none" stroke="midnightblue" d="M180,-112.399C180,-104.466 180,-94.458 180,-85.8583"/>
<polygon fill="midnightblue" stroke="midnightblue" points="183.5,-85.6577 180,-75.6578 176.5,-85.6578 183.5,-85.6577"/>
</g>
<!-- Node21&#45;&gt;Node5 -->
<g id="edge27" class="edge"><title>Node21&#45;&gt;Node5</title>
<path fill="none" stroke="midnightblue" d="M927.019,-58.2902C931.72,-57.4902 936.47,-56.7074 941,-56 1051.31,-38.775 1182.9,-22.008 1241.38,-14.7515"/>
<polygon fill="midnightblue" stroke="midnightblue" points="1241.93,-18.21 1251.43,-13.5093 1241.08,-11.2629 1241.93,-18.21"/>
</g>
<!-- Node22 -->
<g id="node23" class="node"><title>Node22</title>
<polygon fill="white" stroke="#bfbfbf" points="1026.5,-0.5 1026.5,-19.5 1075.5,-19.5 1075.5,-0.5 1026.5,-0.5"/>
<text text-anchor="middle" x="1051" y="-7.5" font-family="Helvetica,sans-Serif" font-size="10.00">stdint.h</text>
</g>
<!-- Node21&#45;&gt;Node22 -->
<g id="edge23" class="edge"><title>Node21&#45;&gt;Node22</title>
<path fill="none" stroke="midnightblue" d="M915.511,-56.4435C942.835,-47.2789 986.35,-32.6839 1016.67,-22.5153"/>
<polygon fill="midnightblue" stroke="midnightblue" points="1018.03,-25.7491 1026.4,-19.2508 1015.81,-19.1125 1018.03,-25.7491"/>
</g>
<!-- Node23 -->
<g id="node24" class="node"><title>Node23</title>
<polygon fill="white" stroke="#bfbfbf" points="748,-0.5 748,-19.5 792,-19.5 792,-0.5 748,-0.5"/>
<text text-anchor="middle" x="770" y="-7.5" font-family="Helvetica,sans-Serif" font-size="10.00">time.h</text>
</g>
<!-- Node21&#45;&gt;Node23 -->
<g id="edge24" class="edge"><title>Node21&#45;&gt;Node23</title>
<path fill="none" stroke="midnightblue" d="M870.986,-56.4435C851.412,-47.6356 820.692,-33.8116 798.271,-23.722"/>
<polygon fill="midnightblue" stroke="midnightblue" points="799.481,-20.4284 788.925,-19.5164 796.608,-26.8119 799.481,-20.4284"/>
</g>
<!-- Node24 -->
<g id="node25" class="node"><title>Node24</title>
<polygon fill="white" stroke="#bfbfbf" points="810,-0.5 810,-19.5 862,-19.5 862,-0.5 810,-0.5"/>
<text text-anchor="middle" x="836" y="-7.5" font-family="Helvetica,sans-Serif" font-size="10.00">sstream</text>
</g>
<!-- Node21&#45;&gt;Node24 -->
<g id="edge25" class="edge"><title>Node21&#45;&gt;Node24</title>
<path fill="none" stroke="midnightblue" d="M881.083,-56.083C873.22,-48.2195 861.569,-36.5688 852.081,-27.0813"/>
<polygon fill="midnightblue" stroke="midnightblue" points="854.297,-24.3473 844.751,-19.7511 849.347,-29.2971 854.297,-24.3473"/>
</g>
<!-- Node25 -->
<g id="node26" class="node"><title>Node25</title>
<polygon fill="white" stroke="#bfbfbf" points="880,-0.5 880,-19.5 1008,-19.5 1008,-0.5 880,-0.5"/>
<text text-anchor="middle" x="944" y="-7.5" font-family="Helvetica,sans-Serif" font-size="10.00">common/lexical_cast.hpp</text>
</g>
<!-- Node21&#45;&gt;Node25 -->
<g id="edge26" class="edge"><title>Node21&#45;&gt;Node25</title>
<path fill="none" stroke="midnightblue" d="M898.917,-56.083C906.78,-48.2195 918.431,-36.5688 927.919,-27.0813"/>
<polygon fill="midnightblue" stroke="midnightblue" points="930.653,-29.2971 935.249,-19.7511 925.703,-24.3473 930.653,-29.2971"/>
</g>
<!-- Node28&#45;&gt;Node5 -->
<g id="edge37" class="edge"><title>Node28&#45;&gt;Node5</title>
<path fill="none" stroke="midnightblue" d="M1309.11,-244.524C1345.71,-243.603 1409.2,-236.253 1445,-199 1472.09,-170.812 1471.75,-148.598 1458,-112 1434.32,-48.9745 1349.25,-24.4282 1302.8,-15.5658"/>
<polygon fill="midnightblue" stroke="midnightblue" points="1303.16,-12.0739 1292.7,-13.7695 1301.93,-18.9659 1303.16,-12.0739"/>
</g>
<!-- Node28&#45;&gt;Node7 -->
<g id="edge38" class="edge"><title>Node28&#45;&gt;Node7</title>
<path fill="none" stroke="midnightblue" d="M1309.16,-243.011C1341.49,-240.319 1393.93,-230.925 1424,-199 1450.85,-170.49 1463.61,-141.627 1438,-112 1403.47,-72.0612 1242.23,-66.8742 1167.81,-66.6567"/>
<polygon fill="midnightblue" stroke="midnightblue" points="1167.49,-63.1566 1157.49,-66.6572 1167.49,-70.1566 1167.49,-63.1566"/>
</g>
<!-- Node28&#45;&gt;Node10 -->
<g id="edge36" class="edge"><title>Node28&#45;&gt;Node10</title>
<path fill="none" stroke="midnightblue" d="M1278.14,-235.319C1271.98,-216.59 1257.33,-172.046 1249.02,-146.792"/>
<polygon fill="midnightblue" stroke="midnightblue" points="1252.34,-145.687 1245.89,-137.282 1245.69,-147.875 1252.34,-145.687"/>
</g>
<!-- Node28&#45;&gt;Node12 -->
<g id="edge35" class="edge"><title>Node28&#45;&gt;Node12</title>
<path fill="none" stroke="midnightblue" d="M1287.09,-235.319C1300.4,-216.339 1332.3,-170.848 1349.88,-145.788"/>
<polygon fill="midnightblue" stroke="midnightblue" points="1352.96,-147.479 1355.84,-137.282 1347.23,-143.46 1352.96,-147.479"/>
</g>
<!-- Node28&#45;&gt;Node15 -->
<g id="edge39" class="edge"><title>Node28&#45;&gt;Node15</title>
<path fill="none" stroke="midnightblue" d="M1282.5,-235.319C1285.72,-216.757 1293.32,-172.839 1297.71,-147.473"/>
<polygon fill="midnightblue" stroke="midnightblue" points="1301.22,-147.733 1299.48,-137.282 1294.32,-146.538 1301.22,-147.733"/>
</g>
<!-- Node29 -->
<g id="node30" class="node"><title>Node29</title>
<g id="a_node30"><a xlink:href="_n_f_map_ex_8h.html" target="_top" xlink:title="NFMapEx.h">
<polygon fill="white" stroke="black" points="1347,-179.5 1347,-198.5 1415,-198.5 1415,-179.5 1347,-179.5"/>
<text text-anchor="middle" x="1381" y="-186.5" font-family="Helvetica,sans-Serif" font-size="10.00">NFMapEx.h</text>
</a>
</g>
</g>
<!-- Node28&#45;&gt;Node29 -->
<g id="edge40" class="edge"><title>Node28&#45;&gt;Node29</title>
<path fill="none" stroke="midnightblue" d="M1297.07,-235.324C1312.96,-226.743 1337.51,-213.486 1355.96,-203.522"/>
<polygon fill="midnightblue" stroke="midnightblue" points="1357.84,-206.486 1364.97,-198.655 1354.51,-200.326 1357.84,-206.486"/>
</g>
<!-- Node29&#45;&gt;Node5 -->
<g id="edge43" class="edge"><title>Node29&#45;&gt;Node5</title>
<path fill="none" stroke="midnightblue" d="M1399.08,-179.39C1412.56,-171.872 1429.97,-159.565 1438,-143 1444.01,-130.601 1444.75,-124.01 1438,-112 1408.96,-60.3302 1341.58,-32.0089 1302.18,-19.326"/>
<polygon fill="midnightblue" stroke="midnightblue" points="1303.15,-15.9644 1292.56,-16.3643 1301.09,-22.654 1303.15,-15.9644"/>
</g>
<!-- Node29&#45;&gt;Node7 -->
<g id="edge44" class="edge"><title>Node29&#45;&gt;Node7</title>
<path fill="none" stroke="midnightblue" d="M1392.03,-179.29C1409.64,-164.353 1440.35,-133.394 1422,-112 1389.6,-74.2266 1238.56,-67.862 1167.34,-66.9939"/>
<polygon fill="midnightblue" stroke="midnightblue" points="1167.06,-63.4914 1157.03,-66.9002 1167,-70.4911 1167.06,-63.4914"/>
</g>
<!-- Node29&#45;&gt;Node10 -->
<g id="edge42" class="edge"><title>Node29&#45;&gt;Node10</title>
<path fill="none" stroke="midnightblue" d="M1355.57,-179.347C1332.11,-171.043 1296.56,-157.633 1267,-143 1266.45,-142.73 1265.91,-142.452 1265.35,-142.167"/>
<polygon fill="midnightblue" stroke="midnightblue" points="1266.92,-139.031 1256.48,-137.187 1263.49,-145.135 1266.92,-139.031"/>
</g>
<!-- Node29&#45;&gt;Node12 -->
<g id="edge41" class="edge"><title>Node29&#45;&gt;Node12</title>
<path fill="none" stroke="midnightblue" d="M1378.28,-179.475C1375.57,-170.992 1371.33,-157.704 1367.85,-146.822"/>
<polygon fill="midnightblue" stroke="midnightblue" points="1371.09,-145.47 1364.72,-137.009 1364.43,-147.6 1371.09,-145.47"/>
</g>
<!-- Node29&#45;&gt;Node15 -->
<g id="edge45" class="edge"><title>Node29&#45;&gt;Node15</title>
<path fill="none" stroke="midnightblue" d="M1369.54,-179.475C1356.83,-170.02 1336.09,-154.596 1320.75,-143.187"/>
<polygon fill="midnightblue" stroke="midnightblue" points="1322.55,-140.169 1312.44,-137.009 1318.38,-145.785 1322.55,-140.169"/>
</g>
<!-- Node29&#45;&gt;Node18 -->
<g id="edge46" class="edge"><title>Node29&#45;&gt;Node18</title>
<path fill="none" stroke="midnightblue" d="M1346.81,-179.793C1313.77,-171.559 1262.47,-157.978 1219,-143 1217.09,-142.341 1215.13,-141.631 1213.17,-140.892"/>
<polygon fill="midnightblue" stroke="midnightblue" points="1214.05,-137.477 1203.46,-137.055 1211.47,-143.987 1214.05,-137.477"/>
</g>
<!-- Node29&#45;&gt;Node21 -->
<g id="edge47" class="edge"><title>Node29&#45;&gt;Node21</title>
<path fill="none" stroke="midnightblue" d="M1385.43,-179.403C1392.77,-163.794 1405.07,-130.683 1388,-112 1372.9,-95.4785 1058.92,-76.371 937.422,-69.567"/>
<polygon fill="midnightblue" stroke="midnightblue" points="937.481,-66.065 927.302,-69.0038 937.092,-73.0542 937.481,-66.065"/>
</g>
<!-- Node30&#45;&gt;Node7 -->
<g id="edge49" class="edge"><title>Node30&#45;&gt;Node7</title>
<path fill="none" stroke="midnightblue" d="M1103.09,-179.298C1107.77,-159.763 1119.2,-112.065 1125.55,-85.5471"/>
<polygon fill="midnightblue" stroke="midnightblue" points="1129.01,-86.1635 1127.93,-75.6232 1122.2,-84.532 1129.01,-86.1635"/>
</g>
<!-- Node30&#45;&gt;Node10 -->
<g id="edge51" class="edge"><title>Node30&#45;&gt;Node10</title>
<path fill="none" stroke="midnightblue" d="M1127.35,-179.472C1151.64,-171.255 1188.46,-157.901 1219,-143 1219.55,-142.733 1220.1,-142.458 1220.65,-142.175"/>
<polygon fill="midnightblue" stroke="midnightblue" points="1222.51,-145.148 1229.53,-137.216 1219.09,-139.037 1222.51,-145.148"/>
</g>
<!-- Node30&#45;&gt;Node12 -->
<g id="edge50" class="edge"><title>Node30&#45;&gt;Node12</title>
<path fill="none" stroke="midnightblue" d="M1127.66,-185.525C1171.82,-180.844 1262.49,-168.763 1335,-143 1336.24,-142.559 1337.49,-142.068 1338.75,-141.54"/>
<polygon fill="midnightblue" stroke="midnightblue" points="1340.61,-144.527 1348.08,-137.012 1337.55,-138.229 1340.61,-144.527"/>
</g>
<!-- Node30&#45;&gt;Node13 -->
<g id="edge52" class="edge"><title>Node30&#45;&gt;Node13</title>
<path fill="none" stroke="midnightblue" d="M1091.69,-179.475C1081.55,-170.197 1065.14,-155.171 1052.75,-143.831"/>
<polygon fill="midnightblue" stroke="midnightblue" points="1055.04,-141.18 1045.3,-137.009 1050.31,-146.343 1055.04,-141.18"/>
</g>
<!-- Node30&#45;&gt;Node21 -->
<g id="edge53" class="edge"><title>Node30&#45;&gt;Node21</title>
<path fill="none" stroke="midnightblue" d="M1100.4,-179.499C1098.81,-163.747 1093.13,-129.993 1073,-112 1035.86,-78.8025 978.174,-69.1752 937.512,-66.8245"/>
<polygon fill="midnightblue" stroke="midnightblue" points="937.453,-63.3184 927.306,-66.3653 937.138,-70.3113 937.453,-63.3184"/>
</g>
<!-- Node31&#45;&gt;Node2 -->
<g id="edge56" class="edge"><title>Node31&#45;&gt;Node2</title>
<path fill="none" stroke="midnightblue" d="M1001.68,-291.444C966.611,-282.162 910.502,-267.309 872.035,-257.127"/>
<polygon fill="midnightblue" stroke="midnightblue" points="872.736,-253.692 862.173,-254.516 870.945,-260.459 872.736,-253.692"/>
</g>
<!-- Node31&#45;&gt;Node4 -->
<g id="edge57" class="edge"><title>Node31&#45;&gt;Node4</title>
<path fill="none" stroke="midnightblue" d="M1029.33,-291.449C1021.3,-277.531 1003.53,-250.027 981,-235 951.455,-215.295 913.043,-204.003 882.355,-197.659"/>
<polygon fill="midnightblue" stroke="midnightblue" points="882.752,-194.171 872.267,-195.692 881.413,-201.041 882.752,-194.171"/>
</g>
<!-- Node31&#45;&gt;Node30 -->
<g id="edge58" class="edge"><title>Node31&#45;&gt;Node30</title>
<path fill="none" stroke="midnightblue" d="M1039.26,-291.368C1050.27,-273.296 1075.92,-231.176 1090.46,-207.307"/>
<polygon fill="midnightblue" stroke="midnightblue" points="1093.55,-208.953 1095.77,-198.591 1087.58,-205.311 1093.55,-208.953"/>
</g>
<!-- Node32&#45;&gt;Node2 -->
<g id="edge60" class="edge"><title>Node32&#45;&gt;Node2</title>
<path fill="none" stroke="midnightblue" d="M926.33,-403.352C911.032,-395.739 890.247,-383.325 877,-367 851.879,-336.042 839.033,-290.089 833.493,-264.648"/>
<polygon fill="midnightblue" stroke="midnightblue" points="836.859,-263.637 831.444,-254.53 829.999,-265.026 836.859,-263.637"/>
</g>
<!-- Node32&#45;&gt;Node4 -->
<g id="edge62" class="edge"><title>Node32&#45;&gt;Node4</title>
<path fill="none" stroke="midnightblue" d="M943.498,-403.391C935.556,-376.863 909.172,-294.572 871,-235 864.173,-224.345 854.763,-213.813 846.68,-205.62"/>
<polygon fill="midnightblue" stroke="midnightblue" points="849.058,-203.05 839.464,-198.553 844.16,-208.051 849.058,-203.05"/>
</g>
<!-- Node32&#45;&gt;Node28 -->
<g id="edge61" class="edge"><title>Node32&#45;&gt;Node28</title>
<path fill="none" stroke="midnightblue" d="M979.199,-403.426C1007.46,-395.582 1048.8,-382.808 1083,-367 1151.48,-335.348 1225.72,-285.256 1260.65,-260.639"/>
<polygon fill="midnightblue" stroke="midnightblue" points="1262.92,-263.325 1269.04,-254.681 1258.86,-257.617 1262.92,-263.325"/>
</g>
<!-- Node33 -->
<g id="node34" class="node"><title>Node33</title>
<g id="a_node34"><a xlink:href="_n_f_i_property_manager_8h.html" target="_top" xlink:title="NFIPropertyManager.h">
<polygon fill="white" stroke="black" points="1213,-347.5 1213,-366.5 1327,-366.5 1327,-347.5 1213,-347.5"/>
<text text-anchor="middle" x="1270" y="-354.5" font-family="Helvetica,sans-Serif" font-size="10.00">NFIPropertyManager.h</text>
</a>
</g>
</g>
<!-- Node32&#45;&gt;Node33 -->
<g id="edge63" class="edge"><title>Node32&#45;&gt;Node33</title>
<path fill="none" stroke="midnightblue" d="M997.339,-403.444C1054.81,-393.865 1147.87,-378.356 1209,-368.167"/>
<polygon fill="midnightblue" stroke="midnightblue" points="1209.61,-371.613 1218.9,-366.516 1208.46,-364.708 1209.61,-371.613"/>
</g>
<!-- Node33&#45;&gt;Node12 -->
<g id="edge66" class="edge"><title>Node33&#45;&gt;Node12</title>
<path fill="none" stroke="midnightblue" d="M1284.25,-347.211C1316.59,-326.312 1394.97,-270.042 1424,-199 1433.45,-175.867 1409.35,-155.157 1388.49,-142.264"/>
<polygon fill="midnightblue" stroke="midnightblue" points="1389.96,-139.074 1379.56,-137.071 1386.44,-145.125 1389.96,-139.074"/>
</g>
<!-- Node33&#45;&gt;Node28 -->
<g id="edge64" class="edge"><title>Node33&#45;&gt;Node28</title>
<path fill="none" stroke="midnightblue" d="M1270.86,-347.368C1272.64,-329.617 1276.73,-288.666 1279.14,-264.597"/>
<polygon fill="midnightblue" stroke="midnightblue" points="1282.63,-264.89 1280.14,-254.591 1275.66,-264.193 1282.63,-264.89"/>
</g>
<!-- Node33&#45;&gt;Node31 -->
<g id="edge65" class="edge"><title>Node33&#45;&gt;Node31</title>
<path fill="none" stroke="midnightblue" d="M1232.61,-347.444C1191.61,-338.063 1125.75,-322.993 1081.22,-312.804"/>
<polygon fill="midnightblue" stroke="midnightblue" points="1081.75,-309.335 1071.22,-310.516 1080.19,-316.159 1081.75,-309.335"/>
</g>
</g>
</svg>
