<?xml version="1.0" encoding="UTF-8" standalone="no"?>
<!DOCTYPE svg PUBLIC "-//W3C//DTD SVG 1.1//EN"
 "http://www.w3.org/Graphics/SVG/1.1/DTD/svg11.dtd">
<!-- Generated by graphviz version 2.38.0 (20140413.2041)
 -->
<!-- Title: NFCComponentManager.h Pages: 1 -->
<!--zoomable 196 -->
<svg id="main" version="1.1" xmlns="http://www.w3.org/2000/svg" xmlns:xlink="http://www.w3.org/1999/xlink" xml:space="preserve" onload="init(evt)">
<style type="text/css"><![CDATA[
.edge:hover path { stroke: red; }
.edge:hover polygon { stroke: red; fill: red; }
]]></style>
<script type="text/javascript"><![CDATA[
var edges = document.getElementsByTagName('g');
if (edges && edges.length) {
  for (var i=0;i<edges.length;i++) {
    if (edges[i].id.substr(0,4)=='edge') {
      edges[i].setAttribute('class','edge');
    }
  }
}
]]></script>
        <defs>
                <circle id="rim" cx="0" cy="0" r="7"/>
                <circle id="rim2" cx="0" cy="0" r="3.5"/>
                <g id="zoomPlus">
                        <use xlink:href="#rim" fill="#404040">
                                <set attributeName="fill" to="#808080" begin="zoomplus.mouseover" end="zoomplus.mouseout"/>
                        </use>
                        <path d="M-4,0h8M0,-4v8" fill="none" stroke="white" stroke-width="1.5" pointer-events="none"/>
                </g>
                <g id="zoomMin">
                        <use xlink:href="#rim" fill="#404040">
                                <set attributeName="fill" to="#808080" begin="zoomminus.mouseover" end="zoomminus.mouseout"/>
                        </use>
                        <path d="M-4,0h8" fill="none" stroke="white" stroke-width="1.5" pointer-events="none"/>
                </g>
                <g id="dirArrow">
                        <path fill="none" stroke="white" stroke-width="1.5" d="M0,-3.0v7 M-2.5,-0.5L0,-3.0L2.5,-0.5"/>
                </g>
               <g id="resetDef">
                       <use xlink:href="#rim2" fill="#404040">
                               <set attributeName="fill" to="#808080" begin="reset.mouseover" end="reset.mouseout"/>
                       </use>
               </g>
        </defs>

<script type="text/javascript">
var viewWidth = 522;
var viewHeight = 196;
var sectionId = 'dynsection-1';
</script>
<script xlink:href="svgpan.js"/>
<svg id="graph" class="graph">
<g id="viewport">
<title>NFCComponentManager.h</title>
<polygon fill="white" stroke="none" points="-4,4 -4,-192 517.5,-192 517.5,4 -4,4"/>
<!-- Node35 -->
<g id="node1" class="node"><title>Node35</title>
<polygon fill="#bfbfbf" stroke="black" points="275.5,-168.5 275.5,-187.5 406.5,-187.5 406.5,-168.5 275.5,-168.5"/>
<text text-anchor="middle" x="341" y="-175.5" font-family="Helvetica,sans-Serif" font-size="10.00">NFCComponentManager.h</text>
</g>
<!-- Node36 -->
<g id="node2" class="node"><title>Node36</title>
<g id="a_node2"><a xlink:href="_n_f_c_element_module_8h.html" target="_top" xlink:title="NFCElementModule.h">
<polygon fill="white" stroke="black" points="140,-112.5 140,-131.5 252,-131.5 252,-112.5 140,-112.5"/>
<text text-anchor="middle" x="196" y="-119.5" font-family="Helvetica,sans-Serif" font-size="10.00">NFCElementModule.h</text>
</a>
</g>
</g>
<!-- Node35&#45;&gt;Node36 -->
<g id="edge1" class="edge"><title>Node35&#45;&gt;Node36</title>
<path fill="none" stroke="midnightblue" d="M308.525,-164.906C281.264,-154.754 243.008,-140.506 218.868,-131.516"/>
<polygon fill="midnightblue" stroke="midnightblue" points="307.432,-168.233 318.024,-168.444 309.875,-161.674 307.432,-168.233"/>
</g>
<!-- Node41 -->
<g id="node7" class="node"><title>Node41</title>
<g id="a_node7"><a xlink:href="_n_f_c_component_manager_8cpp.html" target="_top" xlink:title="NFCComponentManager.cpp">
<polygon fill="white" stroke="black" points="270,-112.5 270,-131.5 412,-131.5 412,-112.5 270,-112.5"/>
<text text-anchor="middle" x="341" y="-119.5" font-family="Helvetica,sans-Serif" font-size="10.00">NFCComponentManager.cpp</text>
</a>
</g>
</g>
<!-- Node35&#45;&gt;Node41 -->
<g id="edge8" class="edge"><title>Node35&#45;&gt;Node41</title>
<path fill="none" stroke="midnightblue" d="M341,-157.805C341,-148.91 341,-138.78 341,-131.751"/>
<polygon fill="midnightblue" stroke="midnightblue" points="337.5,-158.083 341,-168.083 344.5,-158.083 337.5,-158.083"/>
</g>
<!-- Node42 -->
<g id="node8" class="node"><title>Node42</title>
<g id="a_node8"><a xlink:href="_n_f_c_object_8cpp.html" target="_top" xlink:title="NFCObject.cpp">
<polygon fill="white" stroke="black" points="430.5,-112.5 430.5,-131.5 513.5,-131.5 513.5,-112.5 430.5,-112.5"/>
<text text-anchor="middle" x="472" y="-119.5" font-family="Helvetica,sans-Serif" font-size="10.00">NFCObject.cpp</text>
</a>
</g>
</g>
<!-- Node35&#45;&gt;Node42 -->
<g id="edge9" class="edge"><title>Node35&#45;&gt;Node42</title>
<path fill="none" stroke="midnightblue" d="M371.317,-164.503C395.876,-154.38 429.818,-140.388 451.34,-131.516"/>
<polygon fill="midnightblue" stroke="midnightblue" points="369.669,-161.397 361.757,-168.444 372.337,-167.868 369.669,-161.397"/>
</g>
<!-- Node37 -->
<g id="node3" class="node"><title>Node37</title>
<g id="a_node3"><a xlink:href="_n_f_c_class_module_8h.html" target="_top" xlink:title="NFCClassModule.h">
<polygon fill="white" stroke="black" points="145.5,-56.5 145.5,-75.5 246.5,-75.5 246.5,-56.5 145.5,-56.5"/>
<text text-anchor="middle" x="196" y="-63.5" font-family="Helvetica,sans-Serif" font-size="10.00">NFCClassModule.h</text>
</a>
</g>
</g>
<!-- Node36&#45;&gt;Node37 -->
<g id="edge2" class="edge"><title>Node36&#45;&gt;Node37</title>
<path fill="none" stroke="midnightblue" d="M196,-101.805C196,-92.9102 196,-82.7798 196,-75.7511"/>
<polygon fill="midnightblue" stroke="midnightblue" points="192.5,-102.083 196,-112.083 199.5,-102.083 192.5,-102.083"/>
</g>
<!-- Node39 -->
<g id="node5" class="node"><title>Node39</title>
<g id="a_node5"><a xlink:href="_n_f_c_element_module_8cpp.html" target="_top" xlink:title="NFCElementModule.cpp">
<polygon fill="white" stroke="black" points="0,-0.5 0,-19.5 122,-19.5 122,-0.5 0,-0.5"/>
<text text-anchor="middle" x="61" y="-7.5" font-family="Helvetica,sans-Serif" font-size="10.00">NFCElementModule.cpp</text>
</a>
</g>
</g>
<!-- Node36&#45;&gt;Node39 -->
<g id="edge6" class="edge"><title>Node36&#45;&gt;Node39</title>
<path fill="none" stroke="midnightblue" d="M175.591,-106.247C163.855,-97.6264 148.921,-86.4234 136,-76 111.86,-56.5272 84.5882,-32.303 70.5229,-19.6361"/>
<polygon fill="midnightblue" stroke="midnightblue" points="173.716,-109.211 183.856,-112.28 177.843,-103.557 173.716,-109.211"/>
</g>
<!-- Node40 -->
<g id="node6" class="node"><title>Node40</title>
<g id="a_node6"><a xlink:href="_n_f_config_plugin_8cpp.html" target="_top" xlink:title="NFConfigPlugin.cpp">
<polygon fill="white" stroke="black" points="270,-0.5 270,-19.5 372,-19.5 372,-0.5 270,-0.5"/>
<text text-anchor="middle" x="321" y="-7.5" font-family="Helvetica,sans-Serif" font-size="10.00">NFConfigPlugin.cpp</text>
</a>
</g>
</g>
<!-- Node36&#45;&gt;Node40 -->
<g id="edge7" class="edge"><title>Node36&#45;&gt;Node40</title>
<path fill="none" stroke="midnightblue" d="M216.296,-106.505C227.911,-97.9688 242.594,-86.7645 255,-76 276.865,-57.0283 300.612,-32.6005 312.784,-19.7686"/>
<polygon fill="midnightblue" stroke="midnightblue" points="214.132,-103.75 208.1,-112.461 218.247,-109.413 214.132,-103.75"/>
</g>
<!-- Node38 -->
<g id="node4" class="node"><title>Node38</title>
<g id="a_node4"><a xlink:href="_n_f_c_class_module_8cpp.html" target="_top" xlink:title="NFCClassModule.cpp">
<polygon fill="white" stroke="black" points="140.5,-0.5 140.5,-19.5 251.5,-19.5 251.5,-0.5 140.5,-0.5"/>
<text text-anchor="middle" x="196" y="-7.5" font-family="Helvetica,sans-Serif" font-size="10.00">NFCClassModule.cpp</text>
</a>
</g>
</g>
<!-- Node37&#45;&gt;Node38 -->
<g id="edge3" class="edge"><title>Node37&#45;&gt;Node38</title>
<path fill="none" stroke="midnightblue" d="M196,-45.8045C196,-36.9102 196,-26.7798 196,-19.7511"/>
<polygon fill="midnightblue" stroke="midnightblue" points="192.5,-46.083 196,-56.083 199.5,-46.083 192.5,-46.083"/>
</g>
<!-- Node37&#45;&gt;Node39 -->
<g id="edge4" class="edge"><title>Node37&#45;&gt;Node39</title>
<path fill="none" stroke="midnightblue" d="M165.094,-52.6377C139.76,-42.504 104.569,-28.4274 82.2911,-19.5164"/>
<polygon fill="midnightblue" stroke="midnightblue" points="164.024,-55.9792 174.609,-56.4435 166.624,-49.4799 164.024,-55.9792"/>
</g>
<!-- Node37&#45;&gt;Node40 -->
<g id="edge5" class="edge"><title>Node37&#45;&gt;Node40</title>
<path fill="none" stroke="midnightblue" d="M225.241,-52.3678C248.65,-42.2553 280.841,-28.3486 301.286,-19.5164"/>
<polygon fill="midnightblue" stroke="midnightblue" points="223.599,-49.2647 215.807,-56.4435 226.375,-55.6907 223.599,-49.2647"/>
</g>
</g>
</svg>
        <g id="navigator" transform="translate(0 0)" fill="#404254">
                <rect fill="#f2f5e9" fill-opacity="0.5" stroke="#606060" stroke-width=".5" x="0" y="0" width="60" height="60"/>
                <use id="zoomplus" xlink:href="#zoomPlus" x="17" y="9" onmousedown="handleZoom(evt,'in')"/>
                <use id="zoomminus" xlink:href="#zoomMin" x="42" y="9" onmousedown="handleZoom(evt,'out')"/>
                <use id="reset" xlink:href="#resetDef" x="30" y="36" onmousedown="handleReset()"/>
                <g id="arrowUp" xlink:href="#dirArrow" transform="translate(30 24)" onmousedown="handlePan(0,-1)">
                  <use xlink:href="#rim" fill="#404040">
                        <set attributeName="fill" to="#808080" begin="arrowUp.mouseover" end="arrowUp.mouseout"/>
                  </use>
                  <path fill="none" stroke="white" stroke-width="1.5" d="M0,-3.0v7 M-2.5,-0.5L0,-3.0L2.5,-0.5"/>
                </g>
                <g id="arrowRight" xlink:href="#dirArrow" transform="rotate(90) translate(36 -43)" onmousedown="handlePan(1,0)">
                  <use xlink:href="#rim" fill="#404040">
                        <set attributeName="fill" to="#808080" begin="arrowRight.mouseover" end="arrowRight.mouseout"/>
                  </use>
                  <path fill="none" stroke="white" stroke-width="1.5" d="M0,-3.0v7 M-2.5,-0.5L0,-3.0L2.5,-0.5"/>
                </g>
                <g id="arrowDown" xlink:href="#dirArrow" transform="rotate(180) translate(-30 -48)" onmousedown="handlePan(0,1)">
                  <use xlink:href="#rim" fill="#404040">
                        <set attributeName="fill" to="#808080" begin="arrowDown.mouseover" end="arrowDown.mouseout"/>
                  </use>
                  <path fill="none" stroke="white" stroke-width="1.5" d="M0,-3.0v7 M-2.5,-0.5L0,-3.0L2.5,-0.5"/>
                </g>
                <g id="arrowLeft" xlink:href="#dirArrow" transform="rotate(270) translate(-36 17)" onmousedown="handlePan(-1,0)">
                  <use xlink:href="#rim" fill="#404040">
                        <set attributeName="fill" to="#808080" begin="arrowLeft.mouseover" end="arrowLeft.mouseout"/>
                  </use>
                  <path fill="none" stroke="white" stroke-width="1.5" d="M0,-3.0v7 M-2.5,-0.5L0,-3.0L2.5,-0.5"/>
                </g>
        </g>
        <svg viewBox="0 0 15 15" width="100%" height="30px" preserveAspectRatio="xMaxYMin meet">
         <g id="arrow_out" transform="scale(0.3 0.3)">
          <a xlink:href="_n_f_c_component_manager_8h__dep__incl_org.svg" target="_base">
           <rect id="button" ry="5" rx="5" y="6" x="6" height="38" width="38"
                fill="#f2f5e9" fill-opacity="0.5" stroke="#606060" stroke-width="1.0"/>
           <path id="arrow"
             d="M 11.500037,31.436501 C 11.940474,20.09759 22.043105,11.32322 32.158766,21.979434 L 37.068811,17.246167 C 37.068811,17.246167 37.088388,32 37.088388,32 L 22.160133,31.978069 C 22.160133,31.978069 26.997745,27.140456 26.997745,27.140456 C 18.528582,18.264221 13.291696,25.230495 11.500037,31.436501 z"
             style="fill:#404040;"/>
          </a>
         </g>
        </svg>
</svg>
