<?xml version="1.0" encoding="UTF-8" standalone="no"?>
<!DOCTYPE svg PUBLIC "-//W3C//DTD SVG 1.1//EN"
 "http://www.w3.org/Graphics/SVG/1.1/DTD/svg11.dtd">
<!-- Generated by graphviz version 2.38.0 (20140413.2041)
 -->
<!-- Title: NFIPropertyConfigModule.h Pages: 1 -->
<svg width="885pt" height="140pt"
 viewBox="0.00 0.00 884.50 140.00" xmlns="http://www.w3.org/2000/svg" xmlns:xlink="http://www.w3.org/1999/xlink">
<g id="graph0" class="graph" transform="scale(1 1) rotate(0) translate(4 136)">
<title>NFIPropertyConfigModule.h</title>
<polygon fill="white" stroke="none" points="-4,4 -4,-136 880.5,-136 880.5,4 -4,4"/>
<!-- Node33 -->
<g id="node1" class="node"><title>Node33</title>
<polygon fill="#bfbfbf" stroke="black" points="321.5,-112.5 321.5,-131.5 456.5,-131.5 456.5,-112.5 321.5,-112.5"/>
<text text-anchor="middle" x="389" y="-119.5" font-family="Helvetica,sans-Serif" font-size="10.00">NFIPropertyConfigModule.h</text>
</g>
<!-- Node34 -->
<g id="node2" class="node"><title>Node34</title>
<g id="a_node2"><a xlink:href="_n_f_c_event_route_module_8h.html" target="_top" xlink:title="NFCEventRouteModule.h">
<polygon fill="white" stroke="black" points="54.5,-56.5 54.5,-75.5 179.5,-75.5 179.5,-56.5 54.5,-56.5"/>
<text text-anchor="middle" x="117" y="-63.5" font-family="Helvetica,sans-Serif" font-size="10.00">NFCEventRouteModule.h</text>
</a>
</g>
</g>
<!-- Node33&#45;&gt;Node34 -->
<g id="edge1" class="edge"><title>Node33&#45;&gt;Node34</title>
<path fill="none" stroke="midnightblue" d="M335.977,-110.473C284.571,-100.268 207.563,-84.9794 159.898,-75.5164"/>
<polygon fill="midnightblue" stroke="midnightblue" points="335.411,-113.929 345.901,-112.444 336.774,-107.063 335.411,-113.929"/>
</g>
<!-- Node36 -->
<g id="node4" class="node"><title>Node36</title>
<g id="a_node4"><a xlink:href="_n_f_c_level_module_8h.html" target="_top" xlink:title="NFCLevelModule.h">
<polygon fill="white" stroke="black" points="203,-56.5 203,-75.5 301,-75.5 301,-56.5 203,-56.5"/>
<text text-anchor="middle" x="252" y="-63.5" font-family="Helvetica,sans-Serif" font-size="10.00">NFCLevelModule.h</text>
</a>
</g>
</g>
<!-- Node33&#45;&gt;Node36 -->
<g id="edge3" class="edge"><title>Node33&#45;&gt;Node36</title>
<path fill="none" stroke="midnightblue" d="M357.977,-108.772C332.243,-98.6287 296.314,-84.4669 273.606,-75.5164"/>
<polygon fill="midnightblue" stroke="midnightblue" points="356.705,-112.033 367.292,-112.444 359.272,-105.52 356.705,-112.033"/>
</g>
<!-- Node39 -->
<g id="node7" class="node"><title>Node39</title>
<g id="a_node7"><a xlink:href="_n_f_c_property_config_module_8h.html" target="_top" xlink:title="NFCPropertyConfigModule.h">
<polygon fill="white" stroke="black" points="319,-56.5 319,-75.5 459,-75.5 459,-56.5 319,-56.5"/>
<text text-anchor="middle" x="389" y="-63.5" font-family="Helvetica,sans-Serif" font-size="10.00">NFCPropertyConfigModule.h</text>
</a>
</g>
</g>
<!-- Node33&#45;&gt;Node39 -->
<g id="edge6" class="edge"><title>Node33&#45;&gt;Node39</title>
<path fill="none" stroke="midnightblue" d="M389,-101.805C389,-92.9102 389,-82.7798 389,-75.7511"/>
<polygon fill="midnightblue" stroke="midnightblue" points="385.5,-102.083 389,-112.083 392.5,-102.083 385.5,-102.083"/>
</g>
<!-- Node41 -->
<g id="node9" class="node"><title>Node41</title>
<g id="a_node9"><a xlink:href="_n_f_c_property_module_8h.html" target="_top" xlink:title="NFCPropertyModule.h">
<polygon fill="white" stroke="black" points="477.5,-56.5 477.5,-75.5 590.5,-75.5 590.5,-56.5 477.5,-56.5"/>
<text text-anchor="middle" x="534" y="-63.5" font-family="Helvetica,sans-Serif" font-size="10.00">NFCPropertyModule.h</text>
</a>
</g>
</g>
<!-- Node33&#45;&gt;Node41 -->
<g id="edge9" class="edge"><title>Node33&#45;&gt;Node41</title>
<path fill="none" stroke="midnightblue" d="M421.475,-108.906C448.736,-98.7536 486.992,-84.5063 511.132,-75.5164"/>
<polygon fill="midnightblue" stroke="midnightblue" points="420.125,-105.674 411.976,-112.444 422.568,-112.233 420.125,-105.674"/>
</g>
<!-- Node43 -->
<g id="node11" class="node"><title>Node43</title>
<g id="a_node11"><a xlink:href="_n_f_c_property_trail_module_8h.html" target="_top" xlink:title="NFCPropertyTrailModule.h">
<polygon fill="white" stroke="black" points="696.5,-56.5 696.5,-75.5 827.5,-75.5 827.5,-56.5 696.5,-56.5"/>
<text text-anchor="middle" x="762" y="-63.5" font-family="Helvetica,sans-Serif" font-size="10.00">NFCPropertyTrailModule.h</text>
</a>
</g>
</g>
<!-- Node33&#45;&gt;Node43 -->
<g id="edge12" class="edge"><title>Node33&#45;&gt;Node43</title>
<path fill="none" stroke="midnightblue" d="M458.216,-110.979C528.674,-100.779 636.719,-85.1372 703.174,-75.5164"/>
<polygon fill="midnightblue" stroke="midnightblue" points="457.498,-107.547 448.103,-112.444 458.501,-114.475 457.498,-107.547"/>
</g>
<!-- Node35 -->
<g id="node3" class="node"><title>Node35</title>
<g id="a_node3"><a xlink:href="_n_f_c_event_route_module_8cpp.html" target="_top" xlink:title="NFCEventRouteModule.cpp">
<polygon fill="white" stroke="black" points="0,-0.5 0,-19.5 136,-19.5 136,-0.5 0,-0.5"/>
<text text-anchor="middle" x="68" y="-7.5" font-family="Helvetica,sans-Serif" font-size="10.00">NFCEventRouteModule.cpp</text>
</a>
</g>
</g>
<!-- Node34&#45;&gt;Node35 -->
<g id="edge2" class="edge"><title>Node34&#45;&gt;Node35</title>
<path fill="none" stroke="midnightblue" d="M101.966,-48.4314C93.3778,-38.9673 82.9565,-27.4827 75.9408,-19.7511"/>
<polygon fill="midnightblue" stroke="midnightblue" points="99.5967,-51.0293 108.909,-56.083 104.781,-46.3254 99.5967,-51.0293"/>
</g>
<!-- Node37 -->
<g id="node5" class="node"><title>Node37</title>
<g id="a_node5"><a xlink:href="_n_f_c_level_module_8cpp.html" target="_top" xlink:title="NFCLevelModule.cpp">
<polygon fill="white" stroke="black" points="154,-0.5 154,-19.5 262,-19.5 262,-0.5 154,-0.5"/>
<text text-anchor="middle" x="208" y="-7.5" font-family="Helvetica,sans-Serif" font-size="10.00">NFCLevelModule.cpp</text>
</a>
</g>
</g>
<!-- Node36&#45;&gt;Node37 -->
<g id="edge4" class="edge"><title>Node36&#45;&gt;Node37</title>
<path fill="none" stroke="midnightblue" d="M238.265,-48.144C230.599,-38.7357 221.367,-27.4046 215.131,-19.7511"/>
<polygon fill="midnightblue" stroke="midnightblue" points="235.704,-50.5415 244.734,-56.083 241.131,-46.1198 235.704,-50.5415"/>
</g>
<!-- Node38 -->
<g id="node6" class="node"><title>Node38</title>
<g id="a_node6"><a xlink:href="_n_f_game_server_plugin_8cpp.html" target="_top" xlink:title="NFGameServerPlugin.cpp">
<polygon fill="white" stroke="black" points="280,-0.5 280,-19.5 408,-19.5 408,-0.5 280,-0.5"/>
<text text-anchor="middle" x="344" y="-7.5" font-family="Helvetica,sans-Serif" font-size="10.00">NFGameServerPlugin.cpp</text>
</a>
</g>
</g>
<!-- Node36&#45;&gt;Node38 -->
<g id="edge5" class="edge"><title>Node36&#45;&gt;Node38</title>
<path fill="none" stroke="midnightblue" d="M275.55,-51.1774C292.479,-41.2407 314.783,-28.1492 329.255,-19.6545"/>
<polygon fill="midnightblue" stroke="midnightblue" points="273.634,-48.2435 266.781,-56.324 277.177,-54.2804 273.634,-48.2435"/>
</g>
<!-- Node39&#45;&gt;Node38 -->
<g id="edge8" class="edge"><title>Node39&#45;&gt;Node38</title>
<path fill="none" stroke="midnightblue" d="M374.953,-48.144C367.113,-38.7357 357.671,-27.4046 351.293,-19.7511"/>
<polygon fill="midnightblue" stroke="midnightblue" points="372.479,-50.6414 381.569,-56.083 377.856,-46.1601 372.479,-50.6414"/>
</g>
<!-- Node40 -->
<g id="node8" class="node"><title>Node40</title>
<g id="a_node8"><a xlink:href="_n_f_c_property_config_module_8cpp.html" target="_top" xlink:title="NFCPropertyConfigModule.cpp">
<polygon fill="white" stroke="black" points="426,-0.5 426,-19.5 576,-19.5 576,-0.5 426,-0.5"/>
<text text-anchor="middle" x="501" y="-7.5" font-family="Helvetica,sans-Serif" font-size="10.00">NFCPropertyConfigModule.cpp</text>
</a>
</g>
</g>
<!-- Node39&#45;&gt;Node40 -->
<g id="edge7" class="edge"><title>Node39&#45;&gt;Node40</title>
<path fill="none" stroke="midnightblue" d="M416.249,-51.8622C437.016,-41.8492 465.023,-28.3458 483.05,-19.6545"/>
<polygon fill="midnightblue" stroke="midnightblue" points="414.482,-48.8282 406.995,-56.324 417.523,-55.1336 414.482,-48.8282"/>
</g>
<!-- Node41&#45;&gt;Node38 -->
<g id="edge11" class="edge"><title>Node41&#45;&gt;Node38</title>
<path fill="none" stroke="midnightblue" d="M494.236,-53.6986C458.377,-43.507 406.429,-28.7429 373.965,-19.5164"/>
<polygon fill="midnightblue" stroke="midnightblue" points="493.318,-57.0763 503.894,-56.4435 495.232,-50.343 493.318,-57.0763"/>
</g>
<!-- Node42 -->
<g id="node10" class="node"><title>Node42</title>
<g id="a_node10"><a xlink:href="_n_f_c_property_module_8cpp.html" target="_top" xlink:title="NFCPropertyModule.cpp">
<polygon fill="white" stroke="black" points="594.5,-0.5 594.5,-19.5 717.5,-19.5 717.5,-0.5 594.5,-0.5"/>
<text text-anchor="middle" x="656" y="-7.5" font-family="Helvetica,sans-Serif" font-size="10.00">NFCPropertyModule.cpp</text>
</a>
</g>
</g>
<!-- Node41&#45;&gt;Node42 -->
<g id="edge10" class="edge"><title>Node41&#45;&gt;Node42</title>
<path fill="none" stroke="midnightblue" d="M562.539,-52.3678C585.386,-42.2553 616.805,-28.3486 636.759,-19.5164"/>
<polygon fill="midnightblue" stroke="midnightblue" points="561.059,-49.1955 553.331,-56.4435 563.892,-55.5965 561.059,-49.1955"/>
</g>
<!-- Node44 -->
<g id="node12" class="node"><title>Node44</title>
<g id="a_node12"><a xlink:href="_n_f_c_property_trail_module_8cpp.html" target="_top" xlink:title="NFCPropertyTrailModule.cpp">
<polygon fill="white" stroke="black" points="735.5,-0.5 735.5,-19.5 876.5,-19.5 876.5,-0.5 735.5,-0.5"/>
<text text-anchor="middle" x="806" y="-7.5" font-family="Helvetica,sans-Serif" font-size="10.00">NFCPropertyTrailModule.cpp</text>
</a>
</g>
</g>
<!-- Node43&#45;&gt;Node44 -->
<g id="edge13" class="edge"><title>Node43&#45;&gt;Node44</title>
<path fill="none" stroke="midnightblue" d="M775.735,-48.144C783.401,-38.7357 792.633,-27.4046 798.869,-19.7511"/>
<polygon fill="midnightblue" stroke="midnightblue" points="772.869,-46.1198 769.266,-56.083 778.296,-50.5415 772.869,-46.1198"/>
</g>
</g>
</svg>
