<?xml version="1.0" encoding="UTF-8" standalone="no"?>
<!DOCTYPE svg PUBLIC "-//W3C//DTD SVG 1.1//EN"
 "http://www.w3.org/Graphics/SVG/1.1/DTD/svg11.dtd">
<!-- Generated by graphviz version 2.38.0 (20140413.2041)
 -->
<!-- Title: NFHashmap.h Pages: 1 -->
<svg width="491pt" height="140pt"
 viewBox="0.00 0.00 490.50 140.00" xmlns="http://www.w3.org/2000/svg" xmlns:xlink="http://www.w3.org/1999/xlink">
<g id="graph0" class="graph" transform="scale(1 1) rotate(0) translate(4 136)">
<title>NFHashmap.h</title>
<polygon fill="white" stroke="none" points="-4,4 -4,-136 486.5,-136 486.5,4 -4,4"/>
<!-- Node0 -->
<g id="node1" class="node"><title>Node0</title>
<polygon fill="#bfbfbf" stroke="black" points="99,-112.5 99,-131.5 178,-131.5 178,-112.5 99,-112.5"/>
<text text-anchor="middle" x="138.5" y="-119.5" font-family="Helvetica,sans-Serif" font-size="10.00">NFHashmap.h</text>
</g>
<!-- Node1 -->
<g id="node2" class="node"><title>Node1</title>
<polygon fill="white" stroke="#bfbfbf" points="0,-56.5 0,-75.5 83,-75.5 83,-56.5 0,-56.5"/>
<text text-anchor="middle" x="41.5" y="-63.5" font-family="Helvetica,sans-Serif" font-size="10.00">unordered_map</text>
</g>
<!-- Node0&#45;&gt;Node1 -->
<g id="edge1" class="edge"><title>Node0&#45;&gt;Node1</title>
<path fill="none" stroke="midnightblue" d="M122.915,-112.324C107.501,-103.743 83.6878,-90.486 65.7903,-80.5224"/>
<polygon fill="midnightblue" stroke="midnightblue" points="67.4858,-77.4606 57.0461,-75.6545 64.0809,-83.5767 67.4858,-77.4606"/>
</g>
<!-- Node2 -->
<g id="node3" class="node"><title>Node2</title>
<polygon fill="white" stroke="#bfbfbf" points="93,-0.5 93,-19.5 134,-19.5 134,-0.5 93,-0.5"/>
<text text-anchor="middle" x="113.5" y="-7.5" font-family="Helvetica,sans-Serif" font-size="10.00">string</text>
</g>
<!-- Node0&#45;&gt;Node2 -->
<g id="edge2" class="edge"><title>Node0&#45;&gt;Node2</title>
<path fill="none" stroke="midnightblue" d="M136.538,-112.368C132.504,-94.617 123.197,-53.6664 117.727,-29.5974"/>
<polygon fill="midnightblue" stroke="midnightblue" points="121.082,-28.567 115.453,-19.5914 114.256,-30.1185 121.082,-28.567"/>
</g>
<!-- Node3 -->
<g id="node4" class="node"><title>Node3</title>
<polygon fill="white" stroke="#bfbfbf" points="139.5,-56.5 139.5,-75.5 191.5,-75.5 191.5,-56.5 139.5,-56.5"/>
<text text-anchor="middle" x="165.5" y="-63.5" font-family="Helvetica,sans-Serif" font-size="10.00">memory</text>
</g>
<!-- Node0&#45;&gt;Node3 -->
<g id="edge3" class="edge"><title>Node0&#45;&gt;Node3</title>
<path fill="none" stroke="midnightblue" d="M142.959,-112.083C146.654,-104.691 152.023,-93.9533 156.594,-84.8111"/>
<polygon fill="midnightblue" stroke="midnightblue" points="159.783,-86.2606 161.124,-75.7511 153.522,-83.1301 159.783,-86.2606"/>
</g>
<!-- Node4 -->
<g id="node5" class="node"><title>Node4</title>
<g id="a_node5"><a xlink:href="_n_f_platform_8h.html" target="_top" xlink:title="NFPlatform.h">
<polygon fill="white" stroke="black" points="209.5,-56.5 209.5,-75.5 283.5,-75.5 283.5,-56.5 209.5,-56.5"/>
<text text-anchor="middle" x="246.5" y="-63.5" font-family="Helvetica,sans-Serif" font-size="10.00">NFPlatform.h</text>
</a>
</g>
</g>
<!-- Node0&#45;&gt;Node4 -->
<g id="edge4" class="edge"><title>Node0&#45;&gt;Node4</title>
<path fill="none" stroke="midnightblue" d="M155.852,-112.324C173.172,-103.664 200.015,-90.2424 220.002,-80.249"/>
<polygon fill="midnightblue" stroke="midnightblue" points="221.812,-83.2572 229.191,-75.6545 218.681,-76.9962 221.812,-83.2572"/>
</g>
<!-- Node4&#45;&gt;Node2 -->
<g id="edge9" class="edge"><title>Node4&#45;&gt;Node2</title>
<path fill="none" stroke="midnightblue" d="M225.426,-56.4435C203.311,-47.4646 168.357,-33.2729 143.397,-23.1386"/>
<polygon fill="midnightblue" stroke="midnightblue" points="144.621,-19.8581 134.039,-19.339 141.987,-26.3439 144.621,-19.8581"/>
</g>
<!-- Node5 -->
<g id="node6" class="node"><title>Node5</title>
<polygon fill="white" stroke="#bfbfbf" points="155,-0.5 155,-19.5 204,-19.5 204,-0.5 155,-0.5"/>
<text text-anchor="middle" x="179.5" y="-7.5" font-family="Helvetica,sans-Serif" font-size="10.00">stdint.h</text>
</g>
<!-- Node4&#45;&gt;Node5 -->
<g id="edge5" class="edge"><title>Node4&#45;&gt;Node5</title>
<path fill="none" stroke="midnightblue" d="M235.735,-56.324C225.734,-48.2631 210.613,-36.0765 198.57,-26.3695"/>
<polygon fill="midnightblue" stroke="midnightblue" points="200.443,-23.3841 190.461,-19.8339 196.05,-28.8343 200.443,-23.3841"/>
</g>
<!-- Node6 -->
<g id="node7" class="node"><title>Node6</title>
<polygon fill="white" stroke="#bfbfbf" points="222.5,-0.5 222.5,-19.5 266.5,-19.5 266.5,-0.5 222.5,-0.5"/>
<text text-anchor="middle" x="244.5" y="-7.5" font-family="Helvetica,sans-Serif" font-size="10.00">time.h</text>
</g>
<!-- Node4&#45;&gt;Node6 -->
<g id="edge6" class="edge"><title>Node4&#45;&gt;Node6</title>
<path fill="none" stroke="midnightblue" d="M246.17,-56.083C245.908,-49.0059 245.532,-38.8611 245.203,-29.9865"/>
<polygon fill="midnightblue" stroke="midnightblue" points="248.692,-29.6147 244.824,-19.7511 241.697,-29.8738 248.692,-29.6147"/>
</g>
<!-- Node7 -->
<g id="node8" class="node"><title>Node7</title>
<polygon fill="white" stroke="#bfbfbf" points="284.5,-0.5 284.5,-19.5 336.5,-19.5 336.5,-0.5 284.5,-0.5"/>
<text text-anchor="middle" x="310.5" y="-7.5" font-family="Helvetica,sans-Serif" font-size="10.00">sstream</text>
</g>
<!-- Node4&#45;&gt;Node7 -->
<g id="edge7" class="edge"><title>Node4&#45;&gt;Node7</title>
<path fill="none" stroke="midnightblue" d="M256.783,-56.324C266.336,-48.2631 280.78,-36.0765 292.284,-26.3695"/>
<polygon fill="midnightblue" stroke="midnightblue" points="294.644,-28.9577 300.03,-19.8339 290.13,-23.6076 294.644,-28.9577"/>
</g>
<!-- Node8 -->
<g id="node9" class="node"><title>Node8</title>
<polygon fill="white" stroke="#bfbfbf" points="354.5,-0.5 354.5,-19.5 482.5,-19.5 482.5,-0.5 354.5,-0.5"/>
<text text-anchor="middle" x="418.5" y="-7.5" font-family="Helvetica,sans-Serif" font-size="10.00">common/lexical_cast.hpp</text>
</g>
<!-- Node4&#45;&gt;Node8 -->
<g id="edge8" class="edge"><title>Node4&#45;&gt;Node8</title>
<path fill="none" stroke="midnightblue" d="M273.754,-56.4435C302.941,-47.2801 349.421,-32.6876 381.809,-22.5192"/>
<polygon fill="midnightblue" stroke="midnightblue" points="382.881,-25.8512 391.374,-19.5164 380.784,-19.1726 382.881,-25.8512"/>
</g>
</g>
</svg>
