<?xml version="1.0" encoding="UTF-8" standalone="no"?>
<!DOCTYPE svg PUBLIC "-//W3C//DTD SVG 1.1//EN"
 "http://www.w3.org/Graphics/SVG/1.1/DTD/svg11.dtd">
<!-- Generated by graphviz version 2.38.0 (20140413.2041)
 -->
<!-- Title: NFIGameLogicModule.h Pages: 1 -->
<!--zoomable 140 -->
<svg id="main" version="1.1" xmlns="http://www.w3.org/2000/svg" xmlns:xlink="http://www.w3.org/1999/xlink" xml:space="preserve" onload="init(evt)">
<style type="text/css"><![CDATA[
.edge:hover path { stroke: red; }
.edge:hover polygon { stroke: red; fill: red; }
]]></style>
<script type="text/javascript"><![CDATA[
var edges = document.getElementsByTagName('g');
if (edges && edges.length) {
  for (var i=0;i<edges.length;i++) {
    if (edges[i].id.substr(0,4)=='edge') {
      edges[i].setAttribute('class','edge');
    }
  }
}
]]></script>
        <defs>
                <circle id="rim" cx="0" cy="0" r="7"/>
                <circle id="rim2" cx="0" cy="0" r="3.5"/>
                <g id="zoomPlus">
                        <use xlink:href="#rim" fill="#404040">
                                <set attributeName="fill" to="#808080" begin="zoomplus.mouseover" end="zoomplus.mouseout"/>
                        </use>
                        <path d="M-4,0h8M0,-4v8" fill="none" stroke="white" stroke-width="1.5" pointer-events="none"/>
                </g>
                <g id="zoomMin">
                        <use xlink:href="#rim" fill="#404040">
                                <set attributeName="fill" to="#808080" begin="zoomminus.mouseover" end="zoomminus.mouseout"/>
                        </use>
                        <path d="M-4,0h8" fill="none" stroke="white" stroke-width="1.5" pointer-events="none"/>
                </g>
                <g id="dirArrow">
                        <path fill="none" stroke="white" stroke-width="1.5" d="M0,-3.0v7 M-2.5,-0.5L0,-3.0L2.5,-0.5"/>
                </g>
               <g id="resetDef">
                       <use xlink:href="#rim2" fill="#404040">
                               <set attributeName="fill" to="#808080" begin="reset.mouseover" end="reset.mouseout"/>
                       </use>
               </g>
        </defs>

<script type="text/javascript">
var viewWidth = 2125;
var viewHeight = 140;
var sectionId = 'dynsection-1';
</script>
<script xlink:href="svgpan.js"/>
<svg id="graph" class="graph">
<g id="viewport">
<title>NFIGameLogicModule.h</title>
<polygon fill="white" stroke="none" points="-4,4 -4,-136 2121,-136 2121,4 -4,4"/>
<!-- Node33 -->
<g id="node1" class="node"><title>Node33</title>
<polygon fill="#bfbfbf" stroke="black" points="1089,-112.5 1089,-131.5 1210,-131.5 1210,-112.5 1089,-112.5"/>
<text text-anchor="middle" x="1149.5" y="-119.5" font-family="Helvetica,sans-Serif" font-size="10.00">NFIGameLogicModule.h</text>
</g>
<!-- Node34 -->
<g id="node2" class="node"><title>Node34</title>
<g id="a_node2"><a xlink:href="_n_f_c_game_server_to_world_module_8h.html" target="_top" xlink:title="NFCGameServerToWorldModule.h">
<polygon fill="white" stroke="black" points="197,-56.5 197,-75.5 362,-75.5 362,-56.5 197,-56.5"/>
<text text-anchor="middle" x="279.5" y="-63.5" font-family="Helvetica,sans-Serif" font-size="10.00">NFCGameServerToWorldModule.h</text>
</a>
</g>
</g>
<!-- Node33&#45;&gt;Node34 -->
<g id="edge1" class="edge"><title>Node33&#45;&gt;Node34</title>
<path fill="none" stroke="midnightblue" d="M1078.48,-116.592C918.8,-106.681 532.117,-82.6797 362.071,-72.1251"/>
<polygon fill="midnightblue" stroke="midnightblue" points="1078.47,-120.098 1088.67,-117.224 1078.91,-113.111 1078.47,-120.098"/>
</g>
<!-- Node37 -->
<g id="node5" class="node"><title>Node37</title>
<g id="a_node5"><a xlink:href="_n_f_c_game_server_net___server_module_8h.html" target="_top" xlink:title="NFCGameServerNet_ServerModule.h">
<polygon fill="white" stroke="black" points="585.5,-56.5 585.5,-75.5 761.5,-75.5 761.5,-56.5 585.5,-56.5"/>
<text text-anchor="middle" x="673.5" y="-63.5" font-family="Helvetica,sans-Serif" font-size="10.00">NFCGameServerNet_ServerModule.h</text>
</a>
</g>
</g>
<!-- Node33&#45;&gt;Node37 -->
<g id="edge4" class="edge"><title>Node33&#45;&gt;Node37</title>
<path fill="none" stroke="midnightblue" d="M1078.78,-112.978C990.29,-102.938 839.38,-85.8183 748.794,-75.5418"/>
<polygon fill="midnightblue" stroke="midnightblue" points="1078.4,-116.456 1088.73,-114.106 1079.19,-109.501 1078.4,-116.456"/>
</g>
<!-- Node40 -->
<g id="node8" class="node"><title>Node40</title>
<g id="a_node8"><a xlink:href="_n_f_c_create_role_module_8h.html" target="_top" xlink:title="NFCCreateRoleModule.h">
<polygon fill="white" stroke="black" points="795.5,-56.5 795.5,-75.5 919.5,-75.5 919.5,-56.5 795.5,-56.5"/>
<text text-anchor="middle" x="857.5" y="-63.5" font-family="Helvetica,sans-Serif" font-size="10.00">NFCCreateRoleModule.h</text>
</a>
</g>
</g>
<!-- Node33&#45;&gt;Node40 -->
<g id="edge7" class="edge"><title>Node33&#45;&gt;Node40</title>
<path fill="none" stroke="midnightblue" d="M1093.27,-110.601C1038.08,-100.395 954.935,-85.0189 903.552,-75.5164"/>
<polygon fill="midnightblue" stroke="midnightblue" points="1092.76,-114.067 1103.23,-112.444 1094.03,-107.183 1092.76,-114.067"/>
</g>
<!-- Node42 -->
<g id="node10" class="node"><title>Node42</title>
<g id="a_node10"><a xlink:href="_n_f_c_event_route_module_8h.html" target="_top" xlink:title="NFCEventRouteModule.h">
<polygon fill="white" stroke="black" points="948,-56.5 948,-75.5 1073,-75.5 1073,-56.5 948,-56.5"/>
<text text-anchor="middle" x="1010.5" y="-63.5" font-family="Helvetica,sans-Serif" font-size="10.00">NFCEventRouteModule.h</text>
</a>
</g>
</g>
<!-- Node33&#45;&gt;Node42 -->
<g id="edge9" class="edge"><title>Node33&#45;&gt;Node42</title>
<path fill="none" stroke="midnightblue" d="M1118.02,-108.772C1091.91,-98.6287 1055.46,-84.4669 1032.42,-75.5164"/>
<polygon fill="midnightblue" stroke="midnightblue" points="1116.89,-112.085 1127.48,-112.444 1119.42,-105.56 1116.89,-112.085"/>
</g>
<!-- Node44 -->
<g id="node12" class="node"><title>Node44</title>
<g id="a_node12"><a xlink:href="_n_f_c_level_module_8h.html" target="_top" xlink:title="NFCLevelModule.h">
<polygon fill="white" stroke="black" points="1100.5,-56.5 1100.5,-75.5 1198.5,-75.5 1198.5,-56.5 1100.5,-56.5"/>
<text text-anchor="middle" x="1149.5" y="-63.5" font-family="Helvetica,sans-Serif" font-size="10.00">NFCLevelModule.h</text>
</a>
</g>
</g>
<!-- Node33&#45;&gt;Node44 -->
<g id="edge11" class="edge"><title>Node33&#45;&gt;Node44</title>
<path fill="none" stroke="midnightblue" d="M1149.5,-101.805C1149.5,-92.9102 1149.5,-82.7798 1149.5,-75.7511"/>
<polygon fill="midnightblue" stroke="midnightblue" points="1146,-102.083 1149.5,-112.083 1153,-102.083 1146,-102.083"/>
</g>
<!-- Node47 -->
<g id="node15" class="node"><title>Node47</title>
<g id="a_node15"><a xlink:href="_n_f_c_property_module_8h.html" target="_top" xlink:title="NFCPropertyModule.h">
<polygon fill="white" stroke="black" points="1222,-56.5 1222,-75.5 1335,-75.5 1335,-56.5 1222,-56.5"/>
<text text-anchor="middle" x="1278.5" y="-63.5" font-family="Helvetica,sans-Serif" font-size="10.00">NFCPropertyModule.h</text>
</a>
</g>
</g>
<!-- Node33&#45;&gt;Node47 -->
<g id="edge14" class="edge"><title>Node33&#45;&gt;Node47</title>
<path fill="none" stroke="midnightblue" d="M1179.35,-108.503C1203.54,-98.3795 1236.96,-84.388 1258.16,-75.5164"/>
<polygon fill="midnightblue" stroke="midnightblue" points="1177.81,-105.354 1169.94,-112.444 1180.52,-111.811 1177.81,-105.354"/>
</g>
<!-- Node49 -->
<g id="node17" class="node"><title>Node49</title>
<g id="a_node17"><a xlink:href="_n_f_c_property_trail_module_8h.html" target="_top" xlink:title="NFCPropertyTrailModule.h">
<polygon fill="white" stroke="black" points="1595,-56.5 1595,-75.5 1726,-75.5 1726,-56.5 1595,-56.5"/>
<text text-anchor="middle" x="1660.5" y="-63.5" font-family="Helvetica,sans-Serif" font-size="10.00">NFCPropertyTrailModule.h</text>
</a>
</g>
</g>
<!-- Node33&#45;&gt;Node49 -->
<g id="edge17" class="edge"><title>Node33&#45;&gt;Node49</title>
<path fill="none" stroke="midnightblue" d="M1220.35,-113.513C1319.51,-103.034 1498.35,-84.1356 1594.72,-73.9518"/>
<polygon fill="midnightblue" stroke="midnightblue" points="1219.7,-110.062 1210.13,-114.593 1220.44,-117.023 1219.7,-110.062"/>
</g>
<!-- Node51 -->
<g id="node19" class="node"><title>Node51</title>
<g id="a_node19"><a xlink:href="_n_f_c_scene_process_module_8h.html" target="_top" xlink:title="NFCSceneProcessModule.h">
<polygon fill="white" stroke="black" points="1353.5,-56.5 1353.5,-75.5 1493.5,-75.5 1493.5,-56.5 1353.5,-56.5"/>
<text text-anchor="middle" x="1423.5" y="-63.5" font-family="Helvetica,sans-Serif" font-size="10.00">NFCSceneProcessModule.h</text>
</a>
</g>
</g>
<!-- Node33&#45;&gt;Node51 -->
<g id="edge19" class="edge"><title>Node33&#45;&gt;Node51</title>
<path fill="none" stroke="midnightblue" d="M1202.91,-110.473C1254.7,-100.268 1332.27,-84.9794 1380.29,-75.5164"/>
<polygon fill="midnightblue" stroke="midnightblue" points="1202.05,-107.076 1192.92,-112.444 1203.4,-113.944 1202.05,-107.076"/>
</g>
<!-- Node53 -->
<g id="node21" class="node"><title>Node53</title>
<g id="a_node21"><a xlink:href="_n_f_c_proxy_logic_module_8h.html" target="_top" xlink:title="NFCProxyLogicModule.h">
<polygon fill="white" stroke="black" points="1836,-56.5 1836,-75.5 1961,-75.5 1961,-56.5 1836,-56.5"/>
<text text-anchor="middle" x="1898.5" y="-63.5" font-family="Helvetica,sans-Serif" font-size="10.00">NFCProxyLogicModule.h</text>
</a>
</g>
</g>
<!-- Node33&#45;&gt;Node53 -->
<g id="edge22" class="edge"><title>Node33&#45;&gt;Node53</title>
<path fill="none" stroke="midnightblue" d="M1220.33,-115.894C1366.1,-105.384 1697.55,-81.4876 1835.96,-71.5091"/>
<polygon fill="midnightblue" stroke="midnightblue" points="1219.88,-112.417 1210.16,-116.627 1220.39,-119.398 1219.88,-112.417"/>
</g>
<!-- Node35 -->
<g id="node3" class="node"><title>Node35</title>
<g id="a_node3"><a xlink:href="_n_f_c_game_server_to_world_module_8cpp.html" target="_top" xlink:title="NFCGameServerToWorldModule.cpp">
<polygon fill="white" stroke="black" points="191.5,-0.5 191.5,-19.5 367.5,-19.5 367.5,-0.5 191.5,-0.5"/>
<text text-anchor="middle" x="279.5" y="-7.5" font-family="Helvetica,sans-Serif" font-size="10.00">NFCGameServerToWorldModule.cpp</text>
</a>
</g>
</g>
<!-- Node34&#45;&gt;Node35 -->
<g id="edge2" class="edge"><title>Node34&#45;&gt;Node35</title>
<path fill="none" stroke="midnightblue" d="M279.5,-45.8045C279.5,-36.9102 279.5,-26.7798 279.5,-19.7511"/>
<polygon fill="midnightblue" stroke="midnightblue" points="276,-46.083 279.5,-56.083 283,-46.083 276,-46.083"/>
</g>
<!-- Node36 -->
<g id="node4" class="node"><title>Node36</title>
<g id="a_node4"><a xlink:href="_n_f_game_server_net___client_plugin_8cpp.html" target="_top" xlink:title="NFGameServerNet_ClientPlugin.cpp">
<polygon fill="white" stroke="black" points="0,-0.5 0,-19.5 173,-19.5 173,-0.5 0,-0.5"/>
<text text-anchor="middle" x="86.5" y="-7.5" font-family="Helvetica,sans-Serif" font-size="10.00">NFGameServerNet_ClientPlugin.cpp</text>
</a>
</g>
</g>
<!-- Node34&#45;&gt;Node36 -->
<g id="edge3" class="edge"><title>Node34&#45;&gt;Node36</title>
<path fill="none" stroke="midnightblue" d="M239.108,-53.6986C202.683,-43.507 149.914,-28.7429 116.938,-19.5164"/>
<polygon fill="midnightblue" stroke="midnightblue" points="238.345,-57.1196 248.919,-56.4435 240.231,-50.3785 238.345,-57.1196"/>
</g>
<!-- Node38 -->
<g id="node6" class="node"><title>Node38</title>
<g id="a_node6"><a xlink:href="_n_f_c_game_server_net___server_module_8cpp.html" target="_top" xlink:title="NFCGameServerNet_ServerModule.cpp">
<polygon fill="white" stroke="black" points="580,-0.5 580,-19.5 767,-19.5 767,-0.5 580,-0.5"/>
<text text-anchor="middle" x="673.5" y="-7.5" font-family="Helvetica,sans-Serif" font-size="10.00">NFCGameServerNet_ServerModule.cpp</text>
</a>
</g>
</g>
<!-- Node37&#45;&gt;Node38 -->
<g id="edge5" class="edge"><title>Node37&#45;&gt;Node38</title>
<path fill="none" stroke="midnightblue" d="M673.5,-45.8045C673.5,-36.9102 673.5,-26.7798 673.5,-19.7511"/>
<polygon fill="midnightblue" stroke="midnightblue" points="670,-46.083 673.5,-56.083 677,-46.083 670,-46.083"/>
</g>
<!-- Node39 -->
<g id="node7" class="node"><title>Node39</title>
<g id="a_node7"><a xlink:href="_n_f_game_server_net___server_plugin_8cpp.html" target="_top" xlink:title="NFGameServerNet_ServerPlugin.cpp">
<polygon fill="white" stroke="black" points="385.5,-0.5 385.5,-19.5 561.5,-19.5 561.5,-0.5 385.5,-0.5"/>
<text text-anchor="middle" x="473.5" y="-7.5" font-family="Helvetica,sans-Serif" font-size="10.00">NFGameServerNet_ServerPlugin.cpp</text>
</a>
</g>
</g>
<!-- Node37&#45;&gt;Node39 -->
<g id="edge6" class="edge"><title>Node37&#45;&gt;Node39</title>
<path fill="none" stroke="midnightblue" d="M632.126,-53.8291C594.364,-43.6333 539.36,-28.7823 505.042,-19.5164"/>
<polygon fill="midnightblue" stroke="midnightblue" points="631.243,-57.2158 641.809,-56.4435 633.067,-50.4578 631.243,-57.2158"/>
</g>
<!-- Node41 -->
<g id="node9" class="node"><title>Node41</title>
<g id="a_node9"><a xlink:href="_n_f_c_create_role_module_8cpp.html" target="_top" xlink:title="NFCCreateRoleModule.cpp">
<polygon fill="white" stroke="black" points="785.5,-0.5 785.5,-19.5 919.5,-19.5 919.5,-0.5 785.5,-0.5"/>
<text text-anchor="middle" x="852.5" y="-7.5" font-family="Helvetica,sans-Serif" font-size="10.00">NFCCreateRoleModule.cpp</text>
</a>
</g>
</g>
<!-- Node40&#45;&gt;Node41 -->
<g id="edge8" class="edge"><title>Node40&#45;&gt;Node41</title>
<path fill="none" stroke="midnightblue" d="M855.75,-46.1005C854.92,-37.1357 853.968,-26.8579 853.31,-19.7511"/>
<polygon fill="midnightblue" stroke="midnightblue" points="852.267,-46.4483 856.674,-56.083 859.237,-45.8029 852.267,-46.4483"/>
</g>
<!-- Node43 -->
<g id="node11" class="node"><title>Node43</title>
<g id="a_node11"><a xlink:href="_n_f_c_event_route_module_8cpp.html" target="_top" xlink:title="NFCEventRouteModule.cpp">
<polygon fill="white" stroke="black" points="937.5,-0.5 937.5,-19.5 1073.5,-19.5 1073.5,-0.5 937.5,-0.5"/>
<text text-anchor="middle" x="1005.5" y="-7.5" font-family="Helvetica,sans-Serif" font-size="10.00">NFCEventRouteModule.cpp</text>
</a>
</g>
</g>
<!-- Node42&#45;&gt;Node43 -->
<g id="edge10" class="edge"><title>Node42&#45;&gt;Node43</title>
<path fill="none" stroke="midnightblue" d="M1008.75,-46.1005C1007.92,-37.1357 1006.97,-26.8579 1006.31,-19.7511"/>
<polygon fill="midnightblue" stroke="midnightblue" points="1005.27,-46.4483 1009.67,-56.083 1012.24,-45.8029 1005.27,-46.4483"/>
</g>
<!-- Node45 -->
<g id="node13" class="node"><title>Node45</title>
<g id="a_node13"><a xlink:href="_n_f_c_level_module_8cpp.html" target="_top" xlink:title="NFCLevelModule.cpp">
<polygon fill="white" stroke="black" points="1091.5,-0.5 1091.5,-19.5 1199.5,-19.5 1199.5,-0.5 1091.5,-0.5"/>
<text text-anchor="middle" x="1145.5" y="-7.5" font-family="Helvetica,sans-Serif" font-size="10.00">NFCLevelModule.cpp</text>
</a>
</g>
</g>
<!-- Node44&#45;&gt;Node45 -->
<g id="edge12" class="edge"><title>Node44&#45;&gt;Node45</title>
<path fill="none" stroke="midnightblue" d="M1148.1,-46.1005C1147.44,-37.1357 1146.67,-26.8579 1146.15,-19.7511"/>
<polygon fill="midnightblue" stroke="midnightblue" points="1144.61,-46.3689 1148.84,-56.083 1151.59,-45.8517 1144.61,-46.3689"/>
</g>
<!-- Node46 -->
<g id="node14" class="node"><title>Node46</title>
<g id="a_node14"><a xlink:href="_n_f_game_server_plugin_8cpp.html" target="_top" xlink:title="NFGameServerPlugin.cpp">
<polygon fill="white" stroke="black" points="1359.5,-0.5 1359.5,-19.5 1487.5,-19.5 1487.5,-0.5 1359.5,-0.5"/>
<text text-anchor="middle" x="1423.5" y="-7.5" font-family="Helvetica,sans-Serif" font-size="10.00">NFGameServerPlugin.cpp</text>
</a>
</g>
</g>
<!-- Node44&#45;&gt;Node46 -->
<g id="edge13" class="edge"><title>Node44&#45;&gt;Node46</title>
<path fill="none" stroke="midnightblue" d="M1202.91,-54.4734C1254.7,-44.2678 1332.27,-28.9794 1380.29,-19.5164"/>
<polygon fill="midnightblue" stroke="midnightblue" points="1202.05,-51.0759 1192.92,-56.4435 1203.4,-57.9438 1202.05,-51.0759"/>
</g>
<!-- Node47&#45;&gt;Node46 -->
<g id="edge16" class="edge"><title>Node47&#45;&gt;Node46</title>
<path fill="none" stroke="midnightblue" d="M1310.98,-52.9058C1338.24,-42.7536 1376.49,-28.5063 1400.63,-19.5164"/>
<polygon fill="midnightblue" stroke="midnightblue" points="1309.63,-49.6736 1301.48,-56.4435 1312.07,-56.2334 1309.63,-49.6736"/>
</g>
<!-- Node48 -->
<g id="node16" class="node"><title>Node48</title>
<g id="a_node16"><a xlink:href="_n_f_c_property_module_8cpp.html" target="_top" xlink:title="NFCPropertyModule.cpp">
<polygon fill="white" stroke="black" points="1218,-0.5 1218,-19.5 1341,-19.5 1341,-0.5 1218,-0.5"/>
<text text-anchor="middle" x="1279.5" y="-7.5" font-family="Helvetica,sans-Serif" font-size="10.00">NFCPropertyModule.cpp</text>
</a>
</g>
</g>
<!-- Node47&#45;&gt;Node48 -->
<g id="edge15" class="edge"><title>Node47&#45;&gt;Node48</title>
<path fill="none" stroke="midnightblue" d="M1278.86,-45.8045C1279.02,-36.9102 1279.21,-26.7798 1279.34,-19.7511"/>
<polygon fill="midnightblue" stroke="midnightblue" points="1275.35,-46.0199 1278.67,-56.083 1282.35,-46.1495 1275.35,-46.0199"/>
</g>
<!-- Node50 -->
<g id="node18" class="node"><title>Node50</title>
<g id="a_node18"><a xlink:href="_n_f_c_property_trail_module_8cpp.html" target="_top" xlink:title="NFCPropertyTrailModule.cpp">
<polygon fill="white" stroke="black" points="1674,-0.5 1674,-19.5 1815,-19.5 1815,-0.5 1674,-0.5"/>
<text text-anchor="middle" x="1744.5" y="-7.5" font-family="Helvetica,sans-Serif" font-size="10.00">NFCPropertyTrailModule.cpp</text>
</a>
</g>
</g>
<!-- Node49&#45;&gt;Node50 -->
<g id="edge18" class="edge"><title>Node49&#45;&gt;Node50</title>
<path fill="none" stroke="midnightblue" d="M1682.43,-50.9005C1697.84,-40.9986 1717.95,-28.0705 1731.04,-19.6545"/>
<polygon fill="midnightblue" stroke="midnightblue" points="1680.52,-47.9722 1674,-56.324 1684.3,-53.8605 1680.52,-47.9722"/>
</g>
<!-- Node51&#45;&gt;Node46 -->
<g id="edge21" class="edge"><title>Node51&#45;&gt;Node46</title>
<path fill="none" stroke="midnightblue" d="M1423.5,-45.8045C1423.5,-36.9102 1423.5,-26.7798 1423.5,-19.7511"/>
<polygon fill="midnightblue" stroke="midnightblue" points="1420,-46.083 1423.5,-56.083 1427,-46.083 1420,-46.083"/>
</g>
<!-- Node52 -->
<g id="node20" class="node"><title>Node52</title>
<g id="a_node20"><a xlink:href="_n_f_c_scene_process_module_8cpp.html" target="_top" xlink:title="NFCSceneProcessModule.cpp">
<polygon fill="white" stroke="black" points="1505.5,-0.5 1505.5,-19.5 1655.5,-19.5 1655.5,-0.5 1505.5,-0.5"/>
<text text-anchor="middle" x="1580.5" y="-7.5" font-family="Helvetica,sans-Serif" font-size="10.00">NFCSceneProcessModule.cpp</text>
</a>
</g>
</g>
<!-- Node51&#45;&gt;Node52 -->
<g id="edge20" class="edge"><title>Node51&#45;&gt;Node52</title>
<path fill="none" stroke="midnightblue" d="M1457.89,-53.172C1487.45,-43.0039 1529.37,-28.5852 1555.74,-19.5164"/>
<polygon fill="midnightblue" stroke="midnightblue" points="1456.7,-49.8813 1448.38,-56.4435 1458.97,-56.5007 1456.7,-49.8813"/>
</g>
<!-- Node54 -->
<g id="node22" class="node"><title>Node54</title>
<g id="a_node22"><a xlink:href="_n_f_c_proxy_logic_module_8cpp.html" target="_top" xlink:title="NFCProxyLogicModule.cpp">
<polygon fill="white" stroke="black" points="1982,-0.5 1982,-19.5 2117,-19.5 2117,-0.5 1982,-0.5"/>
<text text-anchor="middle" x="2049.5" y="-7.5" font-family="Helvetica,sans-Serif" font-size="10.00">NFCProxyLogicModule.cpp</text>
</a>
</g>
</g>
<!-- Node53&#45;&gt;Node54 -->
<g id="edge23" class="edge"><title>Node53&#45;&gt;Node54</title>
<path fill="none" stroke="midnightblue" d="M1931.95,-53.0392C1960.36,-42.8786 2000.44,-28.5457 2025.69,-19.5164"/>
<polygon fill="midnightblue" stroke="midnightblue" points="1930.66,-49.7806 1922.43,-56.4435 1933.02,-56.3718 1930.66,-49.7806"/>
</g>
<!-- Node55 -->
<g id="node23" class="node"><title>Node55</title>
<g id="a_node23"><a xlink:href="_n_f_c_proxy_logic_plugin_8cpp.html" target="_top" xlink:title="NFCProxyLogicPlugin.cpp">
<polygon fill="white" stroke="black" points="1833,-0.5 1833,-19.5 1964,-19.5 1964,-0.5 1833,-0.5"/>
<text text-anchor="middle" x="1898.5" y="-7.5" font-family="Helvetica,sans-Serif" font-size="10.00">NFCProxyLogicPlugin.cpp</text>
</a>
</g>
</g>
<!-- Node53&#45;&gt;Node55 -->
<g id="edge24" class="edge"><title>Node53&#45;&gt;Node55</title>
<path fill="none" stroke="midnightblue" d="M1898.5,-45.8045C1898.5,-36.9102 1898.5,-26.7798 1898.5,-19.7511"/>
<polygon fill="midnightblue" stroke="midnightblue" points="1895,-46.083 1898.5,-56.083 1902,-46.083 1895,-46.083"/>
</g>
</g>
</svg>
        <g id="navigator" transform="translate(0 0)" fill="#404254">
                <rect fill="#f2f5e9" fill-opacity="0.5" stroke="#606060" stroke-width=".5" x="0" y="0" width="60" height="60"/>
                <use id="zoomplus" xlink:href="#zoomPlus" x="17" y="9" onmousedown="handleZoom(evt,'in')"/>
                <use id="zoomminus" xlink:href="#zoomMin" x="42" y="9" onmousedown="handleZoom(evt,'out')"/>
                <use id="reset" xlink:href="#resetDef" x="30" y="36" onmousedown="handleReset()"/>
                <g id="arrowUp" xlink:href="#dirArrow" transform="translate(30 24)" onmousedown="handlePan(0,-1)">
                  <use xlink:href="#rim" fill="#404040">
                        <set attributeName="fill" to="#808080" begin="arrowUp.mouseover" end="arrowUp.mouseout"/>
                  </use>
                  <path fill="none" stroke="white" stroke-width="1.5" d="M0,-3.0v7 M-2.5,-0.5L0,-3.0L2.5,-0.5"/>
                </g>
                <g id="arrowRight" xlink:href="#dirArrow" transform="rotate(90) translate(36 -43)" onmousedown="handlePan(1,0)">
                  <use xlink:href="#rim" fill="#404040">
                        <set attributeName="fill" to="#808080" begin="arrowRight.mouseover" end="arrowRight.mouseout"/>
                  </use>
                  <path fill="none" stroke="white" stroke-width="1.5" d="M0,-3.0v7 M-2.5,-0.5L0,-3.0L2.5,-0.5"/>
                </g>
                <g id="arrowDown" xlink:href="#dirArrow" transform="rotate(180) translate(-30 -48)" onmousedown="handlePan(0,1)">
                  <use xlink:href="#rim" fill="#404040">
                        <set attributeName="fill" to="#808080" begin="arrowDown.mouseover" end="arrowDown.mouseout"/>
                  </use>
                  <path fill="none" stroke="white" stroke-width="1.5" d="M0,-3.0v7 M-2.5,-0.5L0,-3.0L2.5,-0.5"/>
                </g>
                <g id="arrowLeft" xlink:href="#dirArrow" transform="rotate(270) translate(-36 17)" onmousedown="handlePan(-1,0)">
                  <use xlink:href="#rim" fill="#404040">
                        <set attributeName="fill" to="#808080" begin="arrowLeft.mouseover" end="arrowLeft.mouseout"/>
                  </use>
                  <path fill="none" stroke="white" stroke-width="1.5" d="M0,-3.0v7 M-2.5,-0.5L0,-3.0L2.5,-0.5"/>
                </g>
        </g>
        <svg viewBox="0 0 15 15" width="100%" height="30px" preserveAspectRatio="xMaxYMin meet">
         <g id="arrow_out" transform="scale(0.3 0.3)">
          <a xlink:href="_n_f_i_game_logic_module_8h__dep__incl_org.svg" target="_base">
           <rect id="button" ry="5" rx="5" y="6" x="6" height="38" width="38"
                fill="#f2f5e9" fill-opacity="0.5" stroke="#606060" stroke-width="1.0"/>
           <path id="arrow"
             d="M 11.500037,31.436501 C 11.940474,20.09759 22.043105,11.32322 32.158766,21.979434 L 37.068811,17.246167 C 37.068811,17.246167 37.088388,32 37.088388,32 L 22.160133,31.978069 C 22.160133,31.978069 26.997745,27.140456 26.997745,27.140456 C 18.528582,18.264221 13.291696,25.230495 11.500037,31.436501 z"
             style="fill:#404040;"/>
          </a>
         </g>
        </svg>
</svg>
