<?xml version="1.0" encoding="UTF-8" standalone="no"?>
<!DOCTYPE svg PUBLIC "-//W3C//DTD SVG 1.1//EN"
 "http://www.w3.org/Graphics/SVG/1.1/DTD/svg11.dtd">
<!-- Generated by graphviz version 2.38.0 (20140413.2041)
 -->
<!-- Title: NFCAddConsistentHash.hpp Pages: 1 -->
<!--zoomable 207 -->
<svg id="main" version="1.1" xmlns="http://www.w3.org/2000/svg" xmlns:xlink="http://www.w3.org/1999/xlink" xml:space="preserve" onload="init(evt)">
<style type="text/css"><![CDATA[
.edge:hover path { stroke: red; }
.edge:hover polygon { stroke: red; fill: red; }
]]></style>
<script type="text/javascript"><![CDATA[
var edges = document.getElementsByTagName('g');
if (edges && edges.length) {
  for (var i=0;i<edges.length;i++) {
    if (edges[i].id.substr(0,4)=='edge') {
      edges[i].setAttribute('class','edge');
    }
  }
}
]]></script>
        <defs>
                <circle id="rim" cx="0" cy="0" r="7"/>
                <circle id="rim2" cx="0" cy="0" r="3.5"/>
                <g id="zoomPlus">
                        <use xlink:href="#rim" fill="#404040">
                                <set attributeName="fill" to="#808080" begin="zoomplus.mouseover" end="zoomplus.mouseout"/>
                        </use>
                        <path d="M-4,0h8M0,-4v8" fill="none" stroke="white" stroke-width="1.5" pointer-events="none"/>
                </g>
                <g id="zoomMin">
                        <use xlink:href="#rim" fill="#404040">
                                <set attributeName="fill" to="#808080" begin="zoomminus.mouseover" end="zoomminus.mouseout"/>
                        </use>
                        <path d="M-4,0h8" fill="none" stroke="white" stroke-width="1.5" pointer-events="none"/>
                </g>
                <g id="dirArrow">
                        <path fill="none" stroke="white" stroke-width="1.5" d="M0,-3.0v7 M-2.5,-0.5L0,-3.0L2.5,-0.5"/>
                </g>
               <g id="resetDef">
                       <use xlink:href="#rim2" fill="#404040">
                               <set attributeName="fill" to="#808080" begin="reset.mouseover" end="reset.mouseout"/>
                       </use>
               </g>
        </defs>

<script type="text/javascript">
var viewWidth = 562;
var viewHeight = 207;
var sectionId = 'dynsection-0';
</script>
<script xlink:href="svgpan.js"/>
<svg id="graph" class="graph">
<g id="viewport">
<title>NFCAddConsistentHash.hpp</title>
<polygon fill="white" stroke="none" points="-4,4 -4,-203 557.827,-203 557.827,4 -4,4"/>
<!-- Node0 -->
<g id="node1" class="node"><title>Node0</title>
<polygon fill="#bfbfbf" stroke="black" points="276.327,-179.5 276.327,-198.5 417.327,-198.5 417.327,-179.5 276.327,-179.5"/>
<text text-anchor="middle" x="346.827" y="-186.5" font-family="Helvetica,sans-Serif" font-size="10.00">NFCAddConsistentHash.hpp</text>
</g>
<!-- Node1 -->
<g id="node2" class="node"><title>Node1</title>
<polygon fill="white" stroke="#bfbfbf" points="14.3265,-62 14.3265,-81 49.3265,-81 49.3265,-62 14.3265,-62"/>
<text text-anchor="middle" x="31.8265" y="-69" font-family="Helvetica,sans-Serif" font-size="10.00">map</text>
</g>
<!-- Node0&#45;&gt;Node1 -->
<g id="edge1" class="edge"><title>Node0&#45;&gt;Node1</title>
<path fill="none" stroke="midnightblue" d="M320.413,-179.386C270.032,-162.778 156.93,-124.633 63.8265,-87 62.2326,-86.3557 60.6017,-85.6775 58.9613,-84.9807"/>
<polygon fill="midnightblue" stroke="midnightblue" points="60.217,-81.7096 49.6537,-80.8924 57.4018,-88.1185 60.217,-81.7096"/>
</g>
<!-- Node2 -->
<g id="node3" class="node"><title>Node2</title>
<polygon fill="white" stroke="#bfbfbf" points="24.3265,-0.5 24.3265,-19.5 65.3265,-19.5 65.3265,-0.5 24.3265,-0.5"/>
<text text-anchor="middle" x="44.8265" y="-7.5" font-family="Helvetica,sans-Serif" font-size="10.00">string</text>
</g>
<!-- Node0&#45;&gt;Node2 -->
<g id="edge2" class="edge"><title>Node0&#45;&gt;Node2</title>
<path fill="none" stroke="midnightblue" d="M287.938,-179.465C199.057,-165.208 37.5098,-133.458 4.8265,-87 -8.96052,-67.4024 10.3246,-42.4604 26.593,-26.6067"/>
<polygon fill="midnightblue" stroke="midnightblue" points="29.1962,-28.9673 34.1789,-19.6172 24.4529,-23.8193 29.1962,-28.9673"/>
</g>
<!-- Node3 -->
<g id="node4" class="node"><title>Node3</title>
<polygon fill="white" stroke="#bfbfbf" points="374.327,-62 374.327,-81 403.327,-81 403.327,-62 374.327,-62"/>
<text text-anchor="middle" x="388.827" y="-69" font-family="Helvetica,sans-Serif" font-size="10.00">list</text>
</g>
<!-- Node0&#45;&gt;Node3 -->
<g id="edge3" class="edge"><title>Node0&#45;&gt;Node3</title>
<path fill="none" stroke="midnightblue" d="M352.831,-179.432C358.719,-170.659 367.558,-156.441 372.827,-143 379.404,-126.219 383.637,-106.079 386.086,-91.6305"/>
<polygon fill="midnightblue" stroke="midnightblue" points="389.593,-91.856 387.678,-81.4356 382.677,-90.7757 389.593,-91.856"/>
</g>
<!-- Node4 -->
<g id="node5" class="node"><title>Node4</title>
<polygon fill="white" stroke="#bfbfbf" points="421.827,-62 421.827,-81 479.827,-81 479.827,-62 421.827,-62"/>
<text text-anchor="middle" x="450.827" y="-69" font-family="Helvetica,sans-Serif" font-size="10.00">functional</text>
</g>
<!-- Node0&#45;&gt;Node4 -->
<g id="edge4" class="edge"><title>Node0&#45;&gt;Node4</title>
<path fill="none" stroke="midnightblue" d="M355.777,-179.21C364.801,-170.264 379.043,-155.914 390.827,-143 407.154,-125.106 425.053,-103.845 437.014,-89.3843"/>
<polygon fill="midnightblue" stroke="midnightblue" points="439.974,-91.2954 443.627,-81.3501 434.569,-86.8468 439.974,-91.2954"/>
</g>
<!-- Node5 -->
<g id="node6" class="node"><title>Node5</title>
<polygon fill="white" stroke="#bfbfbf" points="497.827,-62 497.827,-81 553.827,-81 553.827,-62 497.827,-62"/>
<text text-anchor="middle" x="525.827" y="-69" font-family="Helvetica,sans-Serif" font-size="10.00">algorithm</text>
</g>
<!-- Node0&#45;&gt;Node5 -->
<g id="edge5" class="edge"><title>Node0&#45;&gt;Node5</title>
<path fill="none" stroke="midnightblue" d="M360.281,-179.319C390.862,-159.586 465.851,-111.199 503.499,-86.9068"/>
<polygon fill="midnightblue" stroke="midnightblue" points="505.711,-89.6448 512.216,-81.282 501.916,-83.7629 505.711,-89.6448"/>
</g>
<!-- Node6 -->
<g id="node7" class="node"><title>Node6</title>
<g id="a_node7"><a xlink:href="_n_f_c_consistent_hash_8hpp.html" target="_top" xlink:title="NFCConsistentHash.hpp">
<polygon fill="white" stroke="black" points="239.827,-123.5 239.827,-142.5 363.827,-142.5 363.827,-123.5 239.827,-123.5"/>
<text text-anchor="middle" x="301.827" y="-130.5" font-family="Helvetica,sans-Serif" font-size="10.00">NFCConsistentHash.hpp</text>
</a>
</g>
</g>
<!-- Node0&#45;&gt;Node6 -->
<g id="edge6" class="edge"><title>Node0&#45;&gt;Node6</title>
<path fill="none" stroke="midnightblue" d="M339.396,-179.083C332.974,-171.377 323.521,-160.033 315.704,-150.653"/>
<polygon fill="midnightblue" stroke="midnightblue" points="318.21,-148.193 309.119,-142.751 312.832,-152.674 318.21,-148.193"/>
</g>
<!-- Node6&#45;&gt;Node1 -->
<g id="edge7" class="edge"><title>Node6&#45;&gt;Node1</title>
<path fill="none" stroke="midnightblue" d="M239.687,-124.393C191.072,-117.456 122.166,-105.441 63.8265,-87 61.951,-86.4071 60.0401,-85.7335 58.1326,-85.0089"/>
<polygon fill="midnightblue" stroke="midnightblue" points="59.3779,-81.7359 48.8023,-81.0988 56.6723,-88.1919 59.3779,-81.7359"/>
</g>
<!-- Node6&#45;&gt;Node2 -->
<g id="edge8" class="edge"><title>Node6&#45;&gt;Node2</title>
<path fill="none" stroke="midnightblue" d="M239.748,-130.226C196.463,-126.31 139.118,-115.526 96.8265,-87 75.5538,-72.6512 60.5154,-46.4211 52.2558,-28.8479"/>
<polygon fill="midnightblue" stroke="midnightblue" points="55.4333,-27.3793 48.18,-19.6566 49.0342,-30.2169 55.4333,-27.3793"/>
</g>
<!-- Node6&#45;&gt;Node3 -->
<g id="edge9" class="edge"><title>Node6&#45;&gt;Node3</title>
<path fill="none" stroke="midnightblue" d="M314.291,-123.475C328.246,-113.931 351.091,-98.3073 367.817,-86.8683"/>
<polygon fill="midnightblue" stroke="midnightblue" points="370.106,-89.5433 376.385,-81.0091 366.155,-83.7653 370.106,-89.5433"/>
</g>
<!-- Node6&#45;&gt;Node4 -->
<g id="edge10" class="edge"><title>Node6&#45;&gt;Node4</title>
<path fill="none" stroke="midnightblue" d="M323.175,-123.475C348.512,-113.357 390.965,-96.4046 419.898,-84.8507"/>
<polygon fill="midnightblue" stroke="midnightblue" points="421.529,-87.9681 429.518,-81.0091 418.933,-81.4673 421.529,-87.9681"/>
</g>
<!-- Node6&#45;&gt;Node5 -->
<g id="edge11" class="edge"><title>Node6&#45;&gt;Node5</title>
<path fill="none" stroke="midnightblue" d="M344.615,-123.455C382.815,-115.412 440.092,-102.333 488.827,-87 491.103,-86.2837 493.44,-85.4962 495.78,-84.6698"/>
<polygon fill="midnightblue" stroke="midnightblue" points="497.114,-87.9079 505.262,-81.1367 494.67,-81.3484 497.114,-87.9079"/>
</g>
<!-- Node7 -->
<g id="node8" class="node"><title>Node7</title>
<g id="a_node8"><a xlink:href="_n_f_platform_8h.html" target="_top" xlink:title="NFComm/NFPluginModule\l/NFPlatform.h">
<polygon fill="white" stroke="black" points="105.827,-56.5 105.827,-86.5 237.827,-86.5 237.827,-56.5 105.827,-56.5"/>
<text text-anchor="start" x="113.827" y="-74.5" font-family="Helvetica,sans-Serif" font-size="10.00">NFComm/NFPluginModule</text>
<text text-anchor="middle" x="171.827" y="-63.5" font-family="Helvetica,sans-Serif" font-size="10.00">/NFPlatform.h</text>
</a>
</g>
</g>
<!-- Node6&#45;&gt;Node7 -->
<g id="edge12" class="edge"><title>Node6&#45;&gt;Node7</title>
<path fill="none" stroke="midnightblue" d="M283.201,-123.475C264.607,-114.965 235.449,-101.619 211.63,-90.718"/>
<polygon fill="midnightblue" stroke="midnightblue" points="213.014,-87.5023 202.465,-86.523 210.101,-93.8673 213.014,-87.5023"/>
</g>
<!-- Node12 -->
<g id="node13" class="node"><title>Node12</title>
<polygon fill="white" stroke="#bfbfbf" points="255.827,-62 255.827,-81 355.827,-81 355.827,-62 255.827,-62"/>
<text text-anchor="middle" x="305.827" y="-69" font-family="Helvetica,sans-Serif" font-size="10.00">common/crc32.hpp</text>
</g>
<!-- Node6&#45;&gt;Node12 -->
<g id="edge18" class="edge"><title>Node6&#45;&gt;Node12</title>
<path fill="none" stroke="midnightblue" d="M302.4,-123.475C302.964,-115.08 303.845,-101.981 304.572,-91.1631"/>
<polygon fill="midnightblue" stroke="midnightblue" points="308.076,-91.2214 305.254,-81.0091 301.092,-90.7518 308.076,-91.2214"/>
</g>
<!-- Node7&#45;&gt;Node2 -->
<g id="edge17" class="edge"><title>Node7&#45;&gt;Node2</title>
<path fill="none" stroke="midnightblue" d="M141.729,-56.3993C120.706,-46.55 92.8547,-33.5014 72.4073,-23.9217"/>
<polygon fill="midnightblue" stroke="midnightblue" points="73.8465,-20.7309 63.3061,-19.6578 70.8767,-27.0698 73.8465,-20.7309"/>
</g>
<!-- Node8 -->
<g id="node9" class="node"><title>Node8</title>
<polygon fill="white" stroke="#bfbfbf" points="362.327,-0.5 362.327,-19.5 411.327,-19.5 411.327,-0.5 362.327,-0.5"/>
<text text-anchor="middle" x="386.827" y="-7.5" font-family="Helvetica,sans-Serif" font-size="10.00">stdint.h</text>
</g>
<!-- Node7&#45;&gt;Node8 -->
<g id="edge13" class="edge"><title>Node7&#45;&gt;Node8</title>
<path fill="none" stroke="midnightblue" d="M222.506,-56.4747C262.506,-45.405 317.234,-30.2592 352.314,-20.5511"/>
<polygon fill="midnightblue" stroke="midnightblue" points="353.391,-23.8847 362.095,-17.8442 351.524,-17.1383 353.391,-23.8847"/>
</g>
<!-- Node9 -->
<g id="node10" class="node"><title>Node9</title>
<polygon fill="white" stroke="#bfbfbf" points="83.8265,-0.5 83.8265,-19.5 127.827,-19.5 127.827,-0.5 83.8265,-0.5"/>
<text text-anchor="middle" x="105.827" y="-7.5" font-family="Helvetica,sans-Serif" font-size="10.00">time.h</text>
</g>
<!-- Node7&#45;&gt;Node9 -->
<g id="edge14" class="edge"><title>Node7&#45;&gt;Node9</title>
<path fill="none" stroke="midnightblue" d="M156.185,-56.3993C146.199,-47.3967 133.249,-35.7214 122.981,-26.4652"/>
<polygon fill="midnightblue" stroke="midnightblue" points="125.201,-23.7541 115.43,-19.6578 120.514,-28.9533 125.201,-23.7541"/>
</g>
<!-- Node10 -->
<g id="node11" class="node"><title>Node10</title>
<polygon fill="white" stroke="#bfbfbf" points="145.827,-0.5 145.827,-19.5 197.827,-19.5 197.827,-0.5 145.827,-0.5"/>
<text text-anchor="middle" x="171.827" y="-7.5" font-family="Helvetica,sans-Serif" font-size="10.00">sstream</text>
</g>
<!-- Node7&#45;&gt;Node10 -->
<g id="edge15" class="edge"><title>Node7&#45;&gt;Node10</title>
<path fill="none" stroke="midnightblue" d="M171.827,-56.3993C171.827,-48.4664 171.827,-38.458 171.827,-29.8583"/>
<polygon fill="midnightblue" stroke="midnightblue" points="175.327,-29.6577 171.827,-19.6578 168.327,-29.6578 175.327,-29.6577"/>
</g>
<!-- Node11 -->
<g id="node12" class="node"><title>Node11</title>
<polygon fill="white" stroke="#bfbfbf" points="215.827,-0.5 215.827,-19.5 343.827,-19.5 343.827,-0.5 215.827,-0.5"/>
<text text-anchor="middle" x="279.827" y="-7.5" font-family="Helvetica,sans-Serif" font-size="10.00">common/lexical_cast.hpp</text>
</g>
<!-- Node7&#45;&gt;Node11 -->
<g id="edge16" class="edge"><title>Node7&#45;&gt;Node11</title>
<path fill="none" stroke="midnightblue" d="M197.421,-56.3993C214.894,-46.7728 237.915,-34.0902 255.182,-24.5772"/>
<polygon fill="midnightblue" stroke="midnightblue" points="257.042,-27.5488 264.112,-19.6578 253.664,-21.4177 257.042,-27.5488"/>
</g>
</g>
</svg>
        <g id="navigator" transform="translate(0 0)" fill="#404254">
                <rect fill="#f2f5e9" fill-opacity="0.5" stroke="#606060" stroke-width=".5" x="0" y="0" width="60" height="60"/>
                <use id="zoomplus" xlink:href="#zoomPlus" x="17" y="9" onmousedown="handleZoom(evt,'in')"/>
                <use id="zoomminus" xlink:href="#zoomMin" x="42" y="9" onmousedown="handleZoom(evt,'out')"/>
                <use id="reset" xlink:href="#resetDef" x="30" y="36" onmousedown="handleReset()"/>
                <g id="arrowUp" xlink:href="#dirArrow" transform="translate(30 24)" onmousedown="handlePan(0,-1)">
                  <use xlink:href="#rim" fill="#404040">
                        <set attributeName="fill" to="#808080" begin="arrowUp.mouseover" end="arrowUp.mouseout"/>
                  </use>
                  <path fill="none" stroke="white" stroke-width="1.5" d="M0,-3.0v7 M-2.5,-0.5L0,-3.0L2.5,-0.5"/>
                </g>
                <g id="arrowRight" xlink:href="#dirArrow" transform="rotate(90) translate(36 -43)" onmousedown="handlePan(1,0)">
                  <use xlink:href="#rim" fill="#404040">
                        <set attributeName="fill" to="#808080" begin="arrowRight.mouseover" end="arrowRight.mouseout"/>
                  </use>
                  <path fill="none" stroke="white" stroke-width="1.5" d="M0,-3.0v7 M-2.5,-0.5L0,-3.0L2.5,-0.5"/>
                </g>
                <g id="arrowDown" xlink:href="#dirArrow" transform="rotate(180) translate(-30 -48)" onmousedown="handlePan(0,1)">
                  <use xlink:href="#rim" fill="#404040">
                        <set attributeName="fill" to="#808080" begin="arrowDown.mouseover" end="arrowDown.mouseout"/>
                  </use>
                  <path fill="none" stroke="white" stroke-width="1.5" d="M0,-3.0v7 M-2.5,-0.5L0,-3.0L2.5,-0.5"/>
                </g>
                <g id="arrowLeft" xlink:href="#dirArrow" transform="rotate(270) translate(-36 17)" onmousedown="handlePan(-1,0)">
                  <use xlink:href="#rim" fill="#404040">
                        <set attributeName="fill" to="#808080" begin="arrowLeft.mouseover" end="arrowLeft.mouseout"/>
                  </use>
                  <path fill="none" stroke="white" stroke-width="1.5" d="M0,-3.0v7 M-2.5,-0.5L0,-3.0L2.5,-0.5"/>
                </g>
        </g>
        <svg viewBox="0 0 15 15" width="100%" height="30px" preserveAspectRatio="xMaxYMin meet">
         <g id="arrow_out" transform="scale(0.3 0.3)">
          <a xlink:href="_n_f_c_add_consistent_hash_8hpp__incl_org.svg" target="_base">
           <rect id="button" ry="5" rx="5" y="6" x="6" height="38" width="38"
                fill="#f2f5e9" fill-opacity="0.5" stroke="#606060" stroke-width="1.0"/>
           <path id="arrow"
             d="M 11.500037,31.436501 C 11.940474,20.09759 22.043105,11.32322 32.158766,21.979434 L 37.068811,17.246167 C 37.068811,17.246167 37.088388,32 37.088388,32 L 22.160133,31.978069 C 22.160133,31.978069 26.997745,27.140456 26.997745,27.140456 C 18.528582,18.264221 13.291696,25.230495 11.500037,31.436501 z"
             style="fill:#404040;"/>
          </a>
         </g>
        </svg>
</svg>
