<?xml version="1.0" encoding="UTF-8" standalone="no"?>
<!DOCTYPE svg PUBLIC "-//W3C//DTD SVG 1.1//EN"
 "http://www.w3.org/Graphics/SVG/1.1/DTD/svg11.dtd">
<!-- Generated by graphviz version 2.38.0 (20140413.2041)
 -->
<!-- Title: NFCHeartBeatManager.h Pages: 1 -->
<svg width="1604pt" height="386pt"
 viewBox="0.00 0.00 1604.00 386.00" xmlns="http://www.w3.org/2000/svg" xmlns:xlink="http://www.w3.org/1999/xlink">
<g id="graph0" class="graph" transform="scale(1 1) rotate(0) translate(4 382)">
<title>NFCHeartBeatManager.h</title>
<polygon fill="white" stroke="none" points="-4,4 -4,-382 1600,-382 1600,4 -4,4"/>
<!-- Node0 -->
<g id="node1" class="node"><title>Node0</title>
<polygon fill="#bfbfbf" stroke="black" points="428.5,-358.5 428.5,-377.5 553.5,-377.5 553.5,-358.5 428.5,-358.5"/>
<text text-anchor="middle" x="491" y="-365.5" font-family="Helvetica,sans-Serif" font-size="10.00">NFCHeartBeatManager.h</text>
</g>
<!-- Node1 -->
<g id="node2" class="node"><title>Node1</title>
<g id="a_node2"><a xlink:href="_n_f_map_8h.html" target="_top" xlink:title="NFMap.h">
<polygon fill="white" stroke="black" points="232,-246.5 232,-265.5 288,-265.5 288,-246.5 232,-246.5"/>
<text text-anchor="middle" x="260" y="-253.5" font-family="Helvetica,sans-Serif" font-size="10.00">NFMap.h</text>
</a>
</g>
</g>
<!-- Node0&#45;&gt;Node1 -->
<g id="edge1" class="edge"><title>Node0&#45;&gt;Node1</title>
<path fill="none" stroke="midnightblue" d="M438.551,-358.452C406.378,-351.715 365.14,-340.324 332,-322 309.085,-309.33 287.446,-288.073 273.985,-273.333"/>
<polygon fill="midnightblue" stroke="midnightblue" points="276.311,-270.681 267.057,-265.522 271.074,-275.326 276.311,-270.681"/>
</g>
<!-- Node14 -->
<g id="node15" class="node"><title>Node14</title>
<g id="a_node15"><a xlink:href="_n_f_list_8h.html" target="_top" xlink:title="NFList.h">
<polygon fill="white" stroke="black" points="375.5,-190.5 375.5,-209.5 428.5,-209.5 428.5,-190.5 375.5,-190.5"/>
<text text-anchor="middle" x="402" y="-197.5" font-family="Helvetica,sans-Serif" font-size="10.00">NFList.h</text>
</a>
</g>
</g>
<!-- Node0&#45;&gt;Node14 -->
<g id="edge20" class="edge"><title>Node0&#45;&gt;Node14</title>
<path fill="none" stroke="midnightblue" d="M489.197,-358.278C486.364,-345.503 480.223,-321.147 471,-302 455.575,-269.98 430.827,-236.658 415.539,-217.422"/>
<polygon fill="midnightblue" stroke="midnightblue" points="418.253,-215.213 409.248,-209.631 412.807,-219.61 418.253,-215.213"/>
</g>
<!-- Node16 -->
<g id="node17" class="node"><title>Node16</title>
<g id="a_node17"><a xlink:href="_n_f_define_8h.html" target="_top" xlink:title="NFDefine.h">
<polygon fill="white" stroke="black" points="603.5,-246.5 603.5,-265.5 668.5,-265.5 668.5,-246.5 603.5,-246.5"/>
<text text-anchor="middle" x="636" y="-253.5" font-family="Helvetica,sans-Serif" font-size="10.00">NFDefine.h</text>
</a>
</g>
</g>
<!-- Node0&#45;&gt;Node16 -->
<g id="edge26" class="edge"><title>Node0&#45;&gt;Node16</title>
<path fill="none" stroke="midnightblue" d="M502.378,-358.368C527.048,-339.653 585.71,-295.151 616.448,-271.832"/>
<polygon fill="midnightblue" stroke="midnightblue" points="618.823,-274.424 624.675,-265.591 614.593,-268.847 618.823,-274.424"/>
</g>
<!-- Node18 -->
<g id="node19" class="node"><title>Node18</title>
<g id="a_node19"><a xlink:href="_a_f_data_list_8hpp.html" target="_top" xlink:title="AFDataList.hpp">
<polygon fill="white" stroke="black" points="714,-190.5 714,-209.5 798,-209.5 798,-190.5 714,-190.5"/>
<text text-anchor="middle" x="756" y="-197.5" font-family="Helvetica,sans-Serif" font-size="10.00">AFDataList.hpp</text>
</a>
</g>
</g>
<!-- Node0&#45;&gt;Node18 -->
<g id="edge53" class="edge"><title>Node0&#45;&gt;Node18</title>
<path fill="none" stroke="midnightblue" d="M509.694,-358.455C544.08,-342.394 619.14,-305.723 677,-266 699.485,-250.563 723.421,-230.257 738.976,-216.479"/>
<polygon fill="midnightblue" stroke="midnightblue" points="741.579,-218.846 746.693,-209.568 736.909,-213.631 741.579,-218.846"/>
</g>
<!-- Node30 -->
<g id="node31" class="node"><title>Node30</title>
<g id="a_node31"><a xlink:href="_n_f_i_heart_beat_manager_8h.html" target="_top" xlink:title="NFIHeartBeatManager.h">
<polygon fill="white" stroke="black" points="341.5,-302.5 341.5,-321.5 462.5,-321.5 462.5,-302.5 341.5,-302.5"/>
<text text-anchor="middle" x="402" y="-309.5" font-family="Helvetica,sans-Serif" font-size="10.00">NFIHeartBeatManager.h</text>
</a>
</g>
</g>
<!-- Node0&#45;&gt;Node30 -->
<g id="edge54" class="edge"><title>Node0&#45;&gt;Node30</title>
<path fill="none" stroke="midnightblue" d="M476.701,-358.324C462.817,-349.9 441.508,-336.971 425.196,-327.074"/>
<polygon fill="midnightblue" stroke="midnightblue" points="426.629,-323.85 416.264,-321.655 422.998,-329.834 426.629,-323.85"/>
</g>
<!-- Node2 -->
<g id="node3" class="node"><title>Node2</title>
<polygon fill="white" stroke="#bfbfbf" points="333.5,-129 333.5,-148 368.5,-148 368.5,-129 333.5,-129"/>
<text text-anchor="middle" x="351" y="-136" font-family="Helvetica,sans-Serif" font-size="10.00">map</text>
</g>
<!-- Node1&#45;&gt;Node2 -->
<g id="edge2" class="edge"><title>Node1&#45;&gt;Node2</title>
<path fill="none" stroke="midnightblue" d="M269.018,-246.432C278.047,-237.659 292.126,-223.441 303,-210 317.057,-192.625 331.224,-171.231 340.485,-156.597"/>
<polygon fill="midnightblue" stroke="midnightblue" points="343.484,-158.403 345.812,-148.067 337.546,-154.695 343.484,-158.403"/>
</g>
<!-- Node3 -->
<g id="node4" class="node"><title>Node3</title>
<polygon fill="white" stroke="#bfbfbf" points="286.5,-129 286.5,-148 315.5,-148 315.5,-129 286.5,-129"/>
<text text-anchor="middle" x="301" y="-136" font-family="Helvetica,sans-Serif" font-size="10.00">list</text>
</g>
<!-- Node1&#45;&gt;Node3 -->
<g id="edge3" class="edge"><title>Node1&#45;&gt;Node3</title>
<path fill="none" stroke="midnightblue" d="M265.756,-246.397C271.405,-237.596 279.894,-223.357 285,-210 291.436,-193.164 295.686,-173.031 298.178,-158.599"/>
<polygon fill="midnightblue" stroke="midnightblue" points="301.683,-158.846 299.807,-148.418 294.771,-157.74 301.683,-158.846"/>
</g>
<!-- Node4 -->
<g id="node5" class="node"><title>Node4</title>
<polygon fill="white" stroke="#bfbfbf" points="161.5,-0.5 161.5,-19.5 202.5,-19.5 202.5,-0.5 161.5,-0.5"/>
<text text-anchor="middle" x="182" y="-7.5" font-family="Helvetica,sans-Serif" font-size="10.00">string</text>
</g>
<!-- Node1&#45;&gt;Node4 -->
<g id="edge4" class="edge"><title>Node1&#45;&gt;Node4</title>
<path fill="none" stroke="midnightblue" d="M231.802,-253.24C198.872,-249.815 144.406,-239.725 109,-210 87.6882,-192.108 87.3932,-181.082 81,-154 68.1152,-99.4191 126.271,-49.231 159.756,-25.457"/>
<polygon fill="midnightblue" stroke="midnightblue" points="161.821,-28.285 168.074,-19.7321 157.852,-22.5188 161.821,-28.285"/>
</g>
<!-- Node5 -->
<g id="node6" class="node"><title>Node5</title>
<polygon fill="white" stroke="#bfbfbf" points="370,-62 370,-81 424,-81 424,-62 370,-62"/>
<text text-anchor="middle" x="397" y="-69" font-family="Helvetica,sans-Serif" font-size="10.00">iostream</text>
</g>
<!-- Node1&#45;&gt;Node5 -->
<g id="edge5" class="edge"><title>Node1&#45;&gt;Node5</title>
<path fill="none" stroke="midnightblue" d="M231.645,-246.425C173.066,-227.328 47.9466,-178.575 95,-123 128.476,-83.4614 286.047,-74.8558 359.338,-73.0001"/>
<polygon fill="midnightblue" stroke="midnightblue" points="359.597,-76.4953 369.516,-72.7725 359.44,-69.4971 359.597,-76.4953"/>
</g>
<!-- Node6 -->
<g id="node7" class="node"><title>Node6</title>
<polygon fill="white" stroke="#bfbfbf" points="104,-129 104,-148 154,-148 154,-129 104,-129"/>
<text text-anchor="middle" x="129" y="-136" font-family="Helvetica,sans-Serif" font-size="10.00">typeinfo</text>
</g>
<!-- Node1&#45;&gt;Node6 -->
<g id="edge6" class="edge"><title>Node1&#45;&gt;Node6</title>
<path fill="none" stroke="midnightblue" d="M246.945,-246.24C234.285,-237.546 214.738,-223.589 199,-210 178.733,-192.499 157.303,-170.297 143.575,-155.532"/>
<polygon fill="midnightblue" stroke="midnightblue" points="146.145,-153.156 136.796,-148.171 140.996,-157.898 146.145,-153.156"/>
</g>
<!-- Node7 -->
<g id="node8" class="node"><title>Node7</title>
<g id="a_node8"><a xlink:href="_n_f_map_ex_8h.html" target="_top" xlink:title="NFMapEx.h">
<polygon fill="white" stroke="black" points="208,-190.5 208,-209.5 276,-209.5 276,-190.5 208,-190.5"/>
<text text-anchor="middle" x="242" y="-197.5" font-family="Helvetica,sans-Serif" font-size="10.00">NFMapEx.h</text>
</a>
</g>
</g>
<!-- Node1&#45;&gt;Node7 -->
<g id="edge7" class="edge"><title>Node1&#45;&gt;Node7</title>
<path fill="none" stroke="midnightblue" d="M257.028,-246.083C254.616,-238.849 251.136,-228.409 248.132,-219.397"/>
<polygon fill="midnightblue" stroke="midnightblue" points="251.4,-218.131 244.917,-209.751 244.759,-220.345 251.4,-218.131"/>
</g>
<!-- Node7&#45;&gt;Node2 -->
<g id="edge8" class="edge"><title>Node7&#45;&gt;Node2</title>
<path fill="none" stroke="midnightblue" d="M257.617,-190.475C275.586,-180.666 305.321,-164.435 326.406,-152.925"/>
<polygon fill="midnightblue" stroke="midnightblue" points="328.311,-155.873 335.412,-148.009 324.958,-149.728 328.311,-155.873"/>
</g>
<!-- Node7&#45;&gt;Node3 -->
<g id="edge9" class="edge"><title>Node7&#45;&gt;Node3</title>
<path fill="none" stroke="midnightblue" d="M250.453,-190.475C259.566,-181.285 274.27,-166.456 285.476,-155.156"/>
<polygon fill="midnightblue" stroke="midnightblue" points="288.007,-157.574 292.562,-148.009 283.036,-152.646 288.007,-157.574"/>
</g>
<!-- Node7&#45;&gt;Node4 -->
<g id="edge10" class="edge"><title>Node7&#45;&gt;Node4</title>
<path fill="none" stroke="midnightblue" d="M239.266,-190.434C230.13,-161.806 200.52,-69.03 187.845,-29.3142"/>
<polygon fill="midnightblue" stroke="midnightblue" points="191.125,-28.0792 184.75,-19.6168 184.456,-30.2076 191.125,-28.0792"/>
</g>
<!-- Node7&#45;&gt;Node5 -->
<g id="edge11" class="edge"><title>Node7&#45;&gt;Node5</title>
<path fill="none" stroke="midnightblue" d="M239.347,-190.464C235.185,-175.242 229.041,-143.128 244,-123 270.652,-87.1394 323.611,-76.3689 359.672,-73.3396"/>
<polygon fill="midnightblue" stroke="midnightblue" points="360.075,-76.8205 369.815,-72.6522 359.601,-69.8365 360.075,-76.8205"/>
</g>
<!-- Node7&#45;&gt;Node6 -->
<g id="edge12" class="edge"><title>Node7&#45;&gt;Node6</title>
<path fill="none" stroke="midnightblue" d="M225.81,-190.475C207.098,-180.622 176.077,-164.288 154.201,-152.77"/>
<polygon fill="midnightblue" stroke="midnightblue" points="155.639,-149.571 145.16,-148.009 152.378,-155.765 155.639,-149.571"/>
</g>
<!-- Node8 -->
<g id="node9" class="node"><title>Node8</title>
<polygon fill="white" stroke="#bfbfbf" points="425,-129 425,-148 477,-148 477,-129 425,-129"/>
<text text-anchor="middle" x="451" y="-136" font-family="Helvetica,sans-Serif" font-size="10.00">memory</text>
</g>
<!-- Node7&#45;&gt;Node8 -->
<g id="edge13" class="edge"><title>Node7&#45;&gt;Node8</title>
<path fill="none" stroke="midnightblue" d="M271.945,-190.475C309.716,-179.722 374.603,-161.249 415.025,-149.742"/>
<polygon fill="midnightblue" stroke="midnightblue" points="416.084,-153.079 424.743,-146.975 414.167,-146.347 416.084,-153.079"/>
</g>
<!-- Node9 -->
<g id="node10" class="node"><title>Node9</title>
<g id="a_node10"><a xlink:href="_n_f_platform_8h.html" target="_top" xlink:title="NFComm/NFPluginModule\l/NFPlatform.h">
<polygon fill="white" stroke="black" points="759,-56.5 759,-86.5 891,-86.5 891,-56.5 759,-56.5"/>
<text text-anchor="start" x="767" y="-74.5" font-family="Helvetica,sans-Serif" font-size="10.00">NFComm/NFPluginModule</text>
<text text-anchor="middle" x="825" y="-63.5" font-family="Helvetica,sans-Serif" font-size="10.00">/NFPlatform.h</text>
</a>
</g>
</g>
<!-- Node7&#45;&gt;Node9 -->
<g id="edge14" class="edge"><title>Node7&#45;&gt;Node9</title>
<path fill="none" stroke="midnightblue" d="M243.199,-190.145C245.927,-173.802 254.229,-139.104 277,-123 314.622,-96.3925 606.758,-81.2082 748.437,-75.3408"/>
<polygon fill="midnightblue" stroke="midnightblue" points="748.936,-78.8234 758.785,-74.9178 748.65,-71.8293 748.936,-78.8234"/>
</g>
<!-- Node9&#45;&gt;Node4 -->
<g id="edge19" class="edge"><title>Node9&#45;&gt;Node4</title>
<path fill="none" stroke="midnightblue" d="M758.725,-57.9631C754.088,-57.2476 749.479,-56.5834 745,-56 542.864,-29.6696 297.755,-16.428 212.764,-12.3808"/>
<polygon fill="midnightblue" stroke="midnightblue" points="212.68,-8.8732 202.527,-11.9013 212.353,-15.8655 212.68,-8.8732"/>
</g>
<!-- Node10 -->
<g id="node11" class="node"><title>Node10</title>
<polygon fill="white" stroke="#bfbfbf" points="853.5,-0.5 853.5,-19.5 902.5,-19.5 902.5,-0.5 853.5,-0.5"/>
<text text-anchor="middle" x="878" y="-7.5" font-family="Helvetica,sans-Serif" font-size="10.00">stdint.h</text>
</g>
<!-- Node9&#45;&gt;Node10 -->
<g id="edge15" class="edge"><title>Node9&#45;&gt;Node10</title>
<path fill="none" stroke="midnightblue" d="M837.56,-56.3993C845.341,-47.6641 855.364,-36.4126 863.484,-27.2962"/>
<polygon fill="midnightblue" stroke="midnightblue" points="866.25,-29.453 870.288,-19.6578 861.023,-24.797 866.25,-29.453"/>
</g>
<!-- Node11 -->
<g id="node12" class="node"><title>Node11</title>
<polygon fill="white" stroke="#bfbfbf" points="921,-0.5 921,-19.5 965,-19.5 965,-0.5 921,-0.5"/>
<text text-anchor="middle" x="943" y="-7.5" font-family="Helvetica,sans-Serif" font-size="10.00">time.h</text>
</g>
<!-- Node9&#45;&gt;Node11 -->
<g id="edge16" class="edge"><title>Node9&#45;&gt;Node11</title>
<path fill="none" stroke="midnightblue" d="M852.964,-56.3993C872.321,-46.6391 897.908,-33.7373 916.856,-24.1826"/>
<polygon fill="midnightblue" stroke="midnightblue" points="918.477,-27.2854 925.83,-19.6578 915.325,-21.035 918.477,-27.2854"/>
</g>
<!-- Node12 -->
<g id="node13" class="node"><title>Node12</title>
<polygon fill="white" stroke="#bfbfbf" points="637,-0.5 637,-19.5 689,-19.5 689,-0.5 637,-0.5"/>
<text text-anchor="middle" x="663" y="-7.5" font-family="Helvetica,sans-Serif" font-size="10.00">sstream</text>
</g>
<!-- Node9&#45;&gt;Node12 -->
<g id="edge17" class="edge"><title>Node9&#45;&gt;Node12</title>
<path fill="none" stroke="midnightblue" d="M786.608,-56.3993C759.063,-46.2826 722.329,-32.7905 696.079,-23.1493"/>
<polygon fill="midnightblue" stroke="midnightblue" points="697.166,-19.8201 686.572,-19.6578 694.753,-26.3909 697.166,-19.8201"/>
</g>
<!-- Node13 -->
<g id="node14" class="node"><title>Node13</title>
<polygon fill="white" stroke="#bfbfbf" points="707,-0.5 707,-19.5 835,-19.5 835,-0.5 707,-0.5"/>
<text text-anchor="middle" x="771" y="-7.5" font-family="Helvetica,sans-Serif" font-size="10.00">common/lexical_cast.hpp</text>
</g>
<!-- Node9&#45;&gt;Node13 -->
<g id="edge18" class="edge"><title>Node9&#45;&gt;Node13</title>
<path fill="none" stroke="midnightblue" d="M812.203,-56.3993C804.275,-47.6641 794.064,-36.4126 785.79,-27.2962"/>
<polygon fill="midnightblue" stroke="midnightblue" points="788.17,-24.7106 778.857,-19.6578 782.986,-29.415 788.17,-24.7106"/>
</g>
<!-- Node14&#45;&gt;Node2 -->
<g id="edge22" class="edge"><title>Node14&#45;&gt;Node2</title>
<path fill="none" stroke="midnightblue" d="M394.693,-190.475C386.967,-181.462 374.592,-167.025 364.982,-155.812"/>
<polygon fill="midnightblue" stroke="midnightblue" points="367.459,-153.324 358.294,-148.009 362.144,-157.879 367.459,-153.324"/>
</g>
<!-- Node14&#45;&gt;Node3 -->
<g id="edge23" class="edge"><title>Node14&#45;&gt;Node3</title>
<path fill="none" stroke="midnightblue" d="M386.651,-190.38C370.846,-181.449 345.551,-167.003 324,-154 323.712,-153.826 323.422,-153.651 323.131,-153.474"/>
<polygon fill="midnightblue" stroke="midnightblue" points="324.912,-150.461 314.567,-148.176 321.23,-156.414 324.912,-150.461"/>
</g>
<!-- Node14&#45;&gt;Node5 -->
<g id="edge21" class="edge"><title>Node14&#45;&gt;Node5</title>
<path fill="none" stroke="midnightblue" d="M401.656,-190.305C400.854,-169.994 398.84,-119.053 397.742,-91.2768"/>
<polygon fill="midnightblue" stroke="midnightblue" points="401.238,-91.1096 397.346,-81.2557 394.244,-91.3862 401.238,-91.1096"/>
</g>
<!-- Node14&#45;&gt;Node9 -->
<g id="edge25" class="edge"><title>Node14&#45;&gt;Node9</title>
<path fill="none" stroke="midnightblue" d="M420.275,-190.48C437.692,-182.07 464.389,-168.409 486,-154 504.135,-141.909 504.145,-131.992 524,-123 595.784,-90.4892 685.749,-78.7087 748.544,-74.5445"/>
<polygon fill="midnightblue" stroke="midnightblue" points="749.003,-78.023 758.771,-73.9176 748.575,-71.0361 749.003,-78.023"/>
</g>
<!-- Node15 -->
<g id="node16" class="node"><title>Node15</title>
<polygon fill="white" stroke="#bfbfbf" points="533,-129 533,-148 589,-148 589,-129 533,-129"/>
<text text-anchor="middle" x="561" y="-136" font-family="Helvetica,sans-Serif" font-size="10.00">algorithm</text>
</g>
<!-- Node14&#45;&gt;Node15 -->
<g id="edge24" class="edge"><title>Node14&#45;&gt;Node15</title>
<path fill="none" stroke="midnightblue" d="M424.781,-190.475C452.055,-180.269 497.913,-163.108 528.801,-151.549"/>
<polygon fill="midnightblue" stroke="midnightblue" points="530.122,-154.792 538.261,-148.009 527.669,-148.236 530.122,-154.792"/>
</g>
<!-- Node17 -->
<g id="node18" class="node"><title>Node17</title>
<polygon fill="white" stroke="#bfbfbf" points="607,-129 607,-148 665,-148 665,-129 607,-129"/>
<text text-anchor="middle" x="636" y="-136" font-family="Helvetica,sans-Serif" font-size="10.00">functional</text>
</g>
<!-- Node16&#45;&gt;Node17 -->
<g id="edge27" class="edge"><title>Node16&#45;&gt;Node17</title>
<path fill="none" stroke="midnightblue" d="M636,-246.319C636,-227.757 636,-183.839 636,-158.473"/>
<polygon fill="midnightblue" stroke="midnightblue" points="639.5,-158.282 636,-148.282 632.5,-158.282 639.5,-158.282"/>
</g>
<!-- Node16&#45;&gt;Node18 -->
<g id="edge28" class="edge"><title>Node16&#45;&gt;Node18</title>
<path fill="none" stroke="midnightblue" d="M655.014,-246.444C674.588,-237.636 705.308,-223.812 727.729,-213.722"/>
<polygon fill="midnightblue" stroke="midnightblue" points="729.392,-216.812 737.075,-209.516 726.519,-210.428 729.392,-216.812"/>
</g>
<!-- Node27 -->
<g id="node28" class="node"><title>Node27</title>
<g id="a_node28"><a xlink:href="_n_f_g_u_i_d_8h.html" target="_top" xlink:title="NFComm/NFPluginModule\l/NFGUID.h">
<polygon fill="white" stroke="black" points="1427,-123.5 1427,-153.5 1559,-153.5 1559,-123.5 1427,-123.5"/>
<text text-anchor="start" x="1435" y="-141.5" font-family="Helvetica,sans-Serif" font-size="10.00">NFComm/NFPluginModule</text>
<text text-anchor="middle" x="1493" y="-130.5" font-family="Helvetica,sans-Serif" font-size="10.00">/NFGUID.h</text>
</a>
</g>
</g>
<!-- Node16&#45;&gt;Node27 -->
<g id="edge52" class="edge"><title>Node16&#45;&gt;Node27</title>
<path fill="none" stroke="midnightblue" d="M668.664,-250.878C774.16,-237.519 1115.28,-193.968 1397,-154 1403.5,-153.077 1410.25,-152.1 1417.02,-151.105"/>
<polygon fill="midnightblue" stroke="midnightblue" points="1417.54,-154.566 1426.92,-149.64 1416.52,-147.641 1417.54,-154.566"/>
</g>
<!-- Node18&#45;&gt;Node2 -->
<g id="edge36" class="edge"><title>Node18&#45;&gt;Node2</title>
<path fill="none" stroke="midnightblue" d="M713.943,-194.637C649.534,-187.685 522.702,-172.925 416,-154 403.623,-151.805 390.035,-148.859 378.498,-146.196"/>
<polygon fill="midnightblue" stroke="midnightblue" points="379.108,-142.744 368.572,-143.86 377.504,-149.558 379.108,-142.744"/>
</g>
<!-- Node18&#45;&gt;Node3 -->
<g id="edge34" class="edge"><title>Node18&#45;&gt;Node3</title>
<path fill="none" stroke="midnightblue" d="M713.964,-197.058C619.967,-192.322 395.438,-178.721 324,-154 323.264,-153.745 322.527,-153.463 321.793,-153.158"/>
<polygon fill="midnightblue" stroke="midnightblue" points="323.115,-149.897 312.643,-148.283 319.823,-156.074 323.115,-149.897"/>
</g>
<!-- Node18&#45;&gt;Node4 -->
<g id="edge29" class="edge"><title>Node18&#45;&gt;Node4</title>
<path fill="none" stroke="midnightblue" d="M753.177,-190.404C747.493,-174.495 733.111,-140.489 709,-123 627.82,-64.1149 312.872,-25.2949 212.744,-14.2417"/>
<polygon fill="midnightblue" stroke="midnightblue" points="212.997,-10.7485 202.677,-13.1444 212.239,-17.7073 212.997,-10.7485"/>
</g>
<!-- Node18&#45;&gt;Node5 -->
<g id="edge31" class="edge"><title>Node18&#45;&gt;Node5</title>
<path fill="none" stroke="midnightblue" d="M749.437,-190.251C736.79,-174.087 707.329,-139.675 674,-123 594.94,-83.4465 489.347,-74.5748 434.162,-72.7748"/>
<polygon fill="midnightblue" stroke="midnightblue" points="434.23,-69.2755 424.141,-72.5086 434.044,-76.273 434.23,-69.2755"/>
</g>
<!-- Node18&#45;&gt;Node6 -->
<g id="edge39" class="edge"><title>Node18&#45;&gt;Node6</title>
<path fill="none" stroke="midnightblue" d="M713.705,-195.084C630.209,-187.34 438.299,-169.478 277,-154 238.379,-150.294 194.099,-145.942 164.114,-142.98"/>
<polygon fill="midnightblue" stroke="midnightblue" points="164.432,-139.495 154.136,-141.994 163.744,-146.461 164.432,-139.495"/>
</g>
<!-- Node18&#45;&gt;Node8 -->
<g id="edge43" class="edge"><title>Node18&#45;&gt;Node8</title>
<path fill="none" stroke="midnightblue" d="M713.654,-190.846C667.137,-181.874 590.228,-167 524,-154 511.938,-151.632 498.76,-149.022 486.961,-146.676"/>
<polygon fill="midnightblue" stroke="midnightblue" points="487.5,-143.215 477.009,-144.696 486.134,-150.08 487.5,-143.215"/>
</g>
<!-- Node18&#45;&gt;Node9 -->
<g id="edge50" class="edge"><title>Node18&#45;&gt;Node9</title>
<path fill="none" stroke="midnightblue" d="M798.314,-197.517C935.482,-192.505 1360.16,-175.32 1380,-154 1389.39,-143.913 1389.29,-133.174 1380,-123 1348.36,-88.3538 1046.04,-77.218 901.392,-73.8556"/>
<polygon fill="midnightblue" stroke="midnightblue" points="901.332,-70.3534 891.256,-73.6267 901.174,-77.3516 901.332,-70.3534"/>
</g>
<!-- Node18&#45;&gt;Node15 -->
<g id="edge37" class="edge"><title>Node18&#45;&gt;Node15</title>
<path fill="none" stroke="midnightblue" d="M722.424,-190.44C690.241,-182 640.428,-168.319 598,-154 595.875,-153.283 593.694,-152.514 591.504,-151.719"/>
<polygon fill="midnightblue" stroke="midnightblue" points="592.595,-148.389 582.003,-148.134 590.124,-154.939 592.595,-148.389"/>
</g>
<!-- Node18&#45;&gt;Node17 -->
<g id="edge41" class="edge"><title>Node18&#45;&gt;Node17</title>
<path fill="none" stroke="midnightblue" d="M738.807,-190.475C718.757,-180.534 685.401,-163.995 662.14,-152.461"/>
<polygon fill="midnightblue" stroke="midnightblue" points="663.675,-149.316 653.161,-148.009 660.566,-155.587 663.675,-149.316"/>
</g>
<!-- Node19 -->
<g id="node20" class="node"><title>Node19</title>
<polygon fill="white" stroke="#bfbfbf" points="759,-129 759,-148 805,-148 805,-129 759,-129"/>
<text text-anchor="middle" x="782" y="-136" font-family="Helvetica,sans-Serif" font-size="10.00">cstring</text>
</g>
<!-- Node18&#45;&gt;Node19 -->
<g id="edge30" class="edge"><title>Node18&#45;&gt;Node19</title>
<path fill="none" stroke="midnightblue" d="M759.725,-190.475C763.471,-181.904 769.36,-168.427 774.142,-157.483"/>
<polygon fill="midnightblue" stroke="midnightblue" points="777.485,-158.574 778.282,-148.009 771.07,-155.771 777.485,-158.574"/>
</g>
<!-- Node20 -->
<g id="node21" class="node"><title>Node20</title>
<polygon fill="white" stroke="#bfbfbf" points="1548,-62 1548,-81 1596,-81 1596,-62 1548,-62"/>
<text text-anchor="middle" x="1572" y="-69" font-family="Helvetica,sans-Serif" font-size="10.00">stdlib.h</text>
</g>
<!-- Node18&#45;&gt;Node20 -->
<g id="edge32" class="edge"><title>Node18&#45;&gt;Node20</title>
<path fill="none" stroke="midnightblue" d="M798.033,-198.215C960.62,-194.98 1540.63,-181.541 1568,-154 1584.12,-137.78 1581.5,-109.613 1577.37,-91.0132"/>
<polygon fill="midnightblue" stroke="midnightblue" points="1580.7,-89.91 1574.82,-81.0953 1573.92,-91.6516 1580.7,-89.91"/>
</g>
<!-- Node21 -->
<g id="node22" class="node"><title>Node21</title>
<polygon fill="white" stroke="#bfbfbf" points="823.5,-129 823.5,-148 870.5,-148 870.5,-129 823.5,-129"/>
<text text-anchor="middle" x="847" y="-136" font-family="Helvetica,sans-Serif" font-size="10.00">math.h</text>
</g>
<!-- Node18&#45;&gt;Node21 -->
<g id="edge33" class="edge"><title>Node18&#45;&gt;Node21</title>
<path fill="none" stroke="midnightblue" d="M769.038,-190.475C783.769,-180.843 807.973,-165.017 825.509,-153.552"/>
<polygon fill="midnightblue" stroke="midnightblue" points="827.532,-156.411 833.986,-148.009 823.701,-150.552 827.532,-156.411"/>
</g>
<!-- Node22 -->
<g id="node23" class="node"><title>Node22</title>
<polygon fill="white" stroke="#bfbfbf" points="889,-129 889,-148 931,-148 931,-129 889,-129"/>
<text text-anchor="middle" x="910" y="-136" font-family="Helvetica,sans-Serif" font-size="10.00">vector</text>
</g>
<!-- Node18&#45;&gt;Node22 -->
<g id="edge35" class="edge"><title>Node18&#45;&gt;Node22</title>
<path fill="none" stroke="midnightblue" d="M781.945,-190.448C807.24,-181.909 846.66,-168.063 880,-154 881.199,-153.494 882.419,-152.965 883.648,-152.421"/>
<polygon fill="midnightblue" stroke="midnightblue" points="885.402,-155.466 893.004,-148.087 882.459,-149.114 885.402,-155.466"/>
</g>
<!-- Node23 -->
<g id="node24" class="node"><title>Node23</title>
<polygon fill="white" stroke="#bfbfbf" points="949,-129 949,-148 1001,-148 1001,-129 949,-129"/>
<text text-anchor="middle" x="975" y="-136" font-family="Helvetica,sans-Serif" font-size="10.00">assert.h</text>
</g>
<!-- Node18&#45;&gt;Node23 -->
<g id="edge38" class="edge"><title>Node18&#45;&gt;Node23</title>
<path fill="none" stroke="midnightblue" d="M798.167,-190.609C835.797,-182.668 892.181,-169.651 940,-154 942.133,-153.302 944.319,-152.532 946.507,-151.722"/>
<polygon fill="midnightblue" stroke="midnightblue" points="947.916,-154.929 955.943,-148.014 945.356,-148.414 947.916,-154.929"/>
</g>
<!-- Node24 -->
<g id="node25" class="node"><title>Node24</title>
<polygon fill="white" stroke="#bfbfbf" points="1019,-129 1019,-148 1069,-148 1069,-129 1019,-129"/>
<text text-anchor="middle" x="1044" y="-136" font-family="Helvetica,sans-Serif" font-size="10.00">iomanip</text>
</g>
<!-- Node18&#45;&gt;Node24 -->
<g id="edge40" class="edge"><title>Node18&#45;&gt;Node24</title>
<path fill="none" stroke="midnightblue" d="M798.031,-194.528C848.964,-188.433 937.03,-175.714 1010,-154 1012.15,-153.361 1014.34,-152.626 1016.53,-151.833"/>
<polygon fill="midnightblue" stroke="midnightblue" points="1017.92,-155.047 1025.93,-148.108 1015.34,-148.54 1017.92,-155.047"/>
</g>
<!-- Node25 -->
<g id="node26" class="node"><title>Node25</title>
<polygon fill="white" stroke="#bfbfbf" points="1087.5,-129 1087.5,-148 1136.5,-148 1136.5,-129 1087.5,-129"/>
<text text-anchor="middle" x="1112" y="-136" font-family="Helvetica,sans-Serif" font-size="10.00">fstream</text>
</g>
<!-- Node18&#45;&gt;Node25 -->
<g id="edge42" class="edge"><title>Node18&#45;&gt;Node25</title>
<path fill="none" stroke="midnightblue" d="M798.145,-196.665C860.351,-192.427 979.969,-181.235 1078,-154 1080.3,-153.362 1082.64,-152.605 1084.97,-151.775"/>
<polygon fill="midnightblue" stroke="midnightblue" points="1086.3,-155.012 1094.32,-148.085 1083.73,-148.501 1086.3,-155.012"/>
</g>
<!-- Node26 -->
<g id="node27" class="node"><title>Node26</title>
<polygon fill="white" stroke="#bfbfbf" points="1155,-129 1155,-148 1259,-148 1259,-129 1155,-129"/>
<text text-anchor="middle" x="1207" y="-136" font-family="Helvetica,sans-Serif" font-size="10.00">common/variant.hpp</text>
</g>
<!-- Node18&#45;&gt;Node26 -->
<g id="edge44" class="edge"><title>Node18&#45;&gt;Node26</title>
<path fill="none" stroke="midnightblue" d="M798.079,-195.791C869.833,-189.951 1020.3,-176.111 1146,-154 1151.91,-152.961 1158.1,-151.698 1164.17,-150.355"/>
<polygon fill="midnightblue" stroke="midnightblue" points="1165.26,-153.696 1174.22,-148.045 1163.69,-146.873 1165.26,-153.696"/>
</g>
<!-- Node18&#45;&gt;Node27 -->
<g id="edge45" class="edge"><title>Node18&#45;&gt;Node27</title>
<path fill="none" stroke="midnightblue" d="M798.046,-197.738C902.459,-194.252 1181.84,-182.776 1413,-154 1414.26,-153.843 1415.53,-153.679 1416.81,-153.509"/>
<polygon fill="midnightblue" stroke="midnightblue" points="1417.33,-156.971 1426.73,-152.095 1416.34,-150.041 1417.33,-156.971"/>
</g>
<!-- Node29 -->
<g id="node30" class="node"><title>Node29</title>
<g id="a_node30"><a xlink:href="_vector3_8hpp.html" target="_top" xlink:title="Math/Vector3.hpp">
<polygon fill="white" stroke="black" points="1277,-129 1277,-148 1371,-148 1371,-129 1277,-129"/>
<text text-anchor="middle" x="1324" y="-136" font-family="Helvetica,sans-Serif" font-size="10.00">Math/Vector3.hpp</text>
</a>
</g>
</g>
<!-- Node18&#45;&gt;Node29 -->
<g id="edge51" class="edge"><title>Node18&#45;&gt;Node29</title>
<path fill="none" stroke="midnightblue" d="M798.114,-197.659C886.018,-194.344 1095.2,-183.753 1268,-154 1273.51,-153.052 1279.26,-151.831 1284.9,-150.501"/>
<polygon fill="midnightblue" stroke="midnightblue" points="1285.99,-153.838 1294.84,-148.025 1284.3,-147.046 1285.99,-153.838"/>
</g>
<!-- Node27&#45;&gt;Node5 -->
<g id="edge47" class="edge"><title>Node27&#45;&gt;Node5</title>
<path fill="none" stroke="midnightblue" d="M1426.77,-128.142C1411.44,-126.215 1395.17,-124.361 1380,-123 1190.95,-106.04 589.799,-80.4877 434.108,-74.0261"/>
<polygon fill="midnightblue" stroke="midnightblue" points="434.228,-70.5281 424.092,-73.6112 433.938,-77.5222 434.228,-70.5281"/>
</g>
<!-- Node27&#45;&gt;Node9 -->
<g id="edge46" class="edge"><title>Node27&#45;&gt;Node9</title>
<path fill="none" stroke="midnightblue" d="M1426.72,-124.994C1422.09,-124.271 1417.48,-123.597 1413,-123 1230.31,-98.6527 1014.04,-83.5874 901.581,-76.7812"/>
<polygon fill="midnightblue" stroke="midnightblue" points="901.548,-73.273 891.356,-76.1679 901.129,-80.2605 901.548,-73.273"/>
</g>
<!-- Node27&#45;&gt;Node20 -->
<g id="edge49" class="edge"><title>Node27&#45;&gt;Node20</title>
<path fill="none" stroke="midnightblue" d="M1510.14,-123.396C1522.95,-112.86 1540.43,-98.4771 1553.54,-87.6886"/>
<polygon fill="midnightblue" stroke="midnightblue" points="1555.93,-90.251 1561.43,-81.1945 1551.49,-84.8455 1555.93,-90.251"/>
</g>
<!-- Node28 -->
<g id="node29" class="node"><title>Node28</title>
<polygon fill="white" stroke="#bfbfbf" points="1470,-62 1470,-81 1516,-81 1516,-62 1470,-62"/>
<text text-anchor="middle" x="1493" y="-69" font-family="Helvetica,sans-Serif" font-size="10.00">stdio.h</text>
</g>
<!-- Node27&#45;&gt;Node28 -->
<g id="edge48" class="edge"><title>Node27&#45;&gt;Node28</title>
<path fill="none" stroke="midnightblue" d="M1493,-123.396C1493,-114.064 1493,-101.714 1493,-91.5173"/>
<polygon fill="midnightblue" stroke="midnightblue" points="1496.5,-91.1945 1493,-81.1945 1489.5,-91.1946 1496.5,-91.1945"/>
</g>
<!-- Node30&#45;&gt;Node1 -->
<g id="edge56" class="edge"><title>Node30&#45;&gt;Node1</title>
<path fill="none" stroke="midnightblue" d="M379.5,-302.444C355.923,-293.478 318.678,-279.314 292.036,-269.183"/>
<polygon fill="midnightblue" stroke="midnightblue" points="292.986,-265.8 282.395,-265.516 290.498,-272.342 292.986,-265.8"/>
</g>
<!-- Node30&#45;&gt;Node4 -->
<g id="edge55" class="edge"><title>Node30&#45;&gt;Node4</title>
<path fill="none" stroke="midnightblue" d="M341.381,-307.015C229.079,-297.958 0,-270.915 0,-201 0,-201 0,-201 0,-137.5 0,-64.6004 99.6719,-30.3195 151.495,-17.4224"/>
<polygon fill="midnightblue" stroke="midnightblue" points="152.553,-20.7685 161.476,-15.0557 150.938,-13.9574 152.553,-20.7685"/>
</g>
<!-- Node30&#45;&gt;Node14 -->
<g id="edge57" class="edge"><title>Node30&#45;&gt;Node14</title>
<path fill="none" stroke="midnightblue" d="M402,-302.368C402,-284.617 402,-243.666 402,-219.597"/>
<polygon fill="midnightblue" stroke="midnightblue" points="405.5,-219.591 402,-209.591 398.5,-219.591 405.5,-219.591"/>
</g>
<!-- Node30&#45;&gt;Node16 -->
<g id="edge58" class="edge"><title>Node30&#45;&gt;Node16</title>
<path fill="none" stroke="midnightblue" d="M439.078,-302.444C481.043,-292.759 549.283,-277.012 593.402,-266.83"/>
<polygon fill="midnightblue" stroke="midnightblue" points="594.292,-270.217 603.249,-264.558 592.718,-263.396 594.292,-270.217"/>
</g>
<!-- Node30&#45;&gt;Node18 -->
<g id="edge59" class="edge"><title>Node30&#45;&gt;Node18</title>
<path fill="none" stroke="midnightblue" d="M425.808,-302.465C461.959,-289.613 532.955,-264.796 594,-246 634.325,-233.584 680.76,-220.842 713.549,-212.101"/>
<polygon fill="midnightblue" stroke="midnightblue" points="714.498,-215.471 723.265,-209.522 712.701,-208.705 714.498,-215.471"/>
</g>
</g>
</svg>
