<?xml version="1.0" encoding="UTF-8" standalone="no"?>
<!DOCTYPE svg PUBLIC "-//W3C//DTD SVG 1.1//EN"
 "http://www.w3.org/Graphics/SVG/1.1/DTD/svg11.dtd">
<!-- Generated by graphviz version 2.38.0 (20140413.2041)
 -->
<!-- Title: NFCProperty.cpp Pages: 1 -->
<svg width="1475pt" height="431pt"
 viewBox="0.00 0.00 1475.12 431.00" xmlns="http://www.w3.org/2000/svg" xmlns:xlink="http://www.w3.org/1999/xlink">
<g id="graph0" class="graph" transform="scale(1 1) rotate(0) translate(4 427)">
<title>NFCProperty.cpp</title>
<polygon fill="white" stroke="none" points="-4,4 -4,-427 1471.12,-427 1471.12,4 -4,4"/>
<!-- Node0 -->
<g id="node1" class="node"><title>Node0</title>
<polygon fill="#bfbfbf" stroke="black" points="892,-403.5 892,-422.5 984,-422.5 984,-403.5 892,-403.5"/>
<text text-anchor="middle" x="938" y="-410.5" font-family="Helvetica,sans-Serif" font-size="10.00">NFCProperty.cpp</text>
</g>
<!-- Node1 -->
<g id="node2" class="node"><title>Node1</title>
<g id="a_node2"><a xlink:href="_n_f_c_property_8h.html" target="_top" xlink:title="NFCProperty.h">
<polygon fill="white" stroke="black" points="855.5,-347.5 855.5,-366.5 936.5,-366.5 936.5,-347.5 855.5,-347.5"/>
<text text-anchor="middle" x="896" y="-354.5" font-family="Helvetica,sans-Serif" font-size="10.00">NFCProperty.h</text>
</a>
</g>
</g>
<!-- Node0&#45;&gt;Node1 -->
<g id="edge1" class="edge"><title>Node0&#45;&gt;Node1</title>
<path fill="none" stroke="midnightblue" d="M931.065,-403.083C925.071,-395.377 916.248,-384.033 908.952,-374.653"/>
<polygon fill="midnightblue" stroke="midnightblue" points="911.709,-372.496 902.806,-366.751 906.183,-376.793 911.709,-372.496"/>
</g>
<!-- Node32 -->
<g id="node33" class="node"><title>Node32</title>
<polygon fill="white" stroke="#bfbfbf" points="954.5,-347.5 954.5,-366.5 1007.5,-366.5 1007.5,-347.5 954.5,-347.5"/>
<text text-anchor="middle" x="981" y="-354.5" font-family="Helvetica,sans-Serif" font-size="10.00">complex</text>
</g>
<!-- Node0&#45;&gt;Node32 -->
<g id="edge59" class="edge"><title>Node0&#45;&gt;Node32</title>
<path fill="none" stroke="midnightblue" d="M945.101,-403.083C951.237,-395.377 960.27,-384.033 967.739,-374.653"/>
<polygon fill="midnightblue" stroke="midnightblue" points="970.54,-376.754 974.032,-366.751 965.064,-372.394 970.54,-376.754"/>
</g>
<!-- Node2 -->
<g id="node3" class="node"><title>Node2</title>
<g id="a_node3"><a xlink:href="_n_f_define_8h.html" target="_top" xlink:title="NFDefine.h">
<polygon fill="white" stroke="black" points="735.5,-235.5 735.5,-254.5 800.5,-254.5 800.5,-235.5 735.5,-235.5"/>
<text text-anchor="middle" x="768" y="-242.5" font-family="Helvetica,sans-Serif" font-size="10.00">NFDefine.h</text>
</a>
</g>
</g>
<!-- Node1&#45;&gt;Node2 -->
<g id="edge2" class="edge"><title>Node1&#45;&gt;Node2</title>
<path fill="none" stroke="midnightblue" d="M875.121,-347.483C857.754,-339.715 833.047,-327.018 815,-311 799.599,-297.33 786.308,-277.764 777.828,-263.675"/>
<polygon fill="midnightblue" stroke="midnightblue" points="780.805,-261.831 772.76,-254.936 774.749,-265.343 780.805,-261.831"/>
</g>
<!-- Node4 -->
<g id="node5" class="node"><title>Node4</title>
<g id="a_node5"><a xlink:href="_a_f_data_list_8hpp.html" target="_top" xlink:title="AFDataList.hpp">
<polygon fill="white" stroke="black" points="771,-179.5 771,-198.5 855,-198.5 855,-179.5 771,-179.5"/>
<text text-anchor="middle" x="813" y="-186.5" font-family="Helvetica,sans-Serif" font-size="10.00">AFDataList.hpp</text>
</a>
</g>
</g>
<!-- Node1&#45;&gt;Node4 -->
<g id="edge54" class="edge"><title>Node1&#45;&gt;Node4</title>
<path fill="none" stroke="midnightblue" d="M883.588,-347.405C872.692,-339.238 857.189,-326 848,-311 827.982,-278.321 818.969,-233.681 815.275,-208.769"/>
<polygon fill="midnightblue" stroke="midnightblue" points="818.701,-207.987 813.898,-198.544 811.764,-208.922 818.701,-207.987"/>
</g>
<!-- Node28 -->
<g id="node29" class="node"><title>Node28</title>
<g id="a_node29"><a xlink:href="_n_f_map_8h.html" target="_top" xlink:title="NFMap.h">
<polygon fill="white" stroke="black" points="1306,-235.5 1306,-254.5 1362,-254.5 1362,-235.5 1306,-235.5"/>
<text text-anchor="middle" x="1334" y="-242.5" font-family="Helvetica,sans-Serif" font-size="10.00">NFMap.h</text>
</a>
</g>
</g>
<!-- Node1&#45;&gt;Node28 -->
<g id="edge34" class="edge"><title>Node1&#45;&gt;Node28</title>
<path fill="none" stroke="midnightblue" d="M930.005,-347.46C1010.37,-327.278 1211.58,-276.745 1295.89,-255.57"/>
<polygon fill="midnightblue" stroke="midnightblue" points="1296.97,-258.909 1305.81,-253.079 1295.26,-252.12 1296.97,-258.909"/>
</g>
<!-- Node30 -->
<g id="node31" class="node"><title>Node30</title>
<g id="a_node31"><a xlink:href="_n_f_list_8h.html" target="_top" xlink:title="NFList.h">
<polygon fill="white" stroke="black" points="1065.5,-179.5 1065.5,-198.5 1118.5,-198.5 1118.5,-179.5 1065.5,-179.5"/>
<text text-anchor="middle" x="1092" y="-186.5" font-family="Helvetica,sans-Serif" font-size="10.00">NFList.h</text>
</a>
</g>
</g>
<!-- Node1&#45;&gt;Node30 -->
<g id="edge48" class="edge"><title>Node1&#45;&gt;Node30</title>
<path fill="none" stroke="midnightblue" d="M906.262,-347.309C937.882,-320.528 1034.1,-239.035 1074.18,-205.09"/>
<polygon fill="midnightblue" stroke="midnightblue" points="1076.47,-207.739 1081.84,-198.605 1071.95,-202.397 1076.47,-207.739"/>
</g>
<!-- Node31 -->
<g id="node32" class="node"><title>Node31</title>
<g id="a_node32"><a xlink:href="_n_f_i_property_8h.html" target="_top" xlink:title="NFIProperty.h">
<polygon fill="white" stroke="black" points="857.5,-291.5 857.5,-310.5 934.5,-310.5 934.5,-291.5 857.5,-291.5"/>
<text text-anchor="middle" x="896" y="-298.5" font-family="Helvetica,sans-Serif" font-size="10.00">NFIProperty.h</text>
</a>
</g>
</g>
<!-- Node1&#45;&gt;Node31 -->
<g id="edge55" class="edge"><title>Node1&#45;&gt;Node31</title>
<path fill="none" stroke="midnightblue" d="M896,-347.083C896,-340.006 896,-329.861 896,-320.986"/>
<polygon fill="midnightblue" stroke="midnightblue" points="899.5,-320.751 896,-310.751 892.5,-320.751 899.5,-320.751"/>
</g>
<!-- Node3 -->
<g id="node4" class="node"><title>Node3</title>
<polygon fill="white" stroke="#bfbfbf" points="0,-118 0,-137 58,-137 58,-118 0,-118"/>
<text text-anchor="middle" x="29" y="-125" font-family="Helvetica,sans-Serif" font-size="10.00">functional</text>
</g>
<!-- Node2&#45;&gt;Node3 -->
<g id="edge3" class="edge"><title>Node2&#45;&gt;Node3</title>
<path fill="none" stroke="midnightblue" d="M735.342,-240.294C637.159,-228.904 336.241,-192.184 90,-143 82.808,-141.563 75.1765,-139.879 67.8349,-138.176"/>
<polygon fill="midnightblue" stroke="midnightblue" points="68.6093,-134.763 58.0719,-135.864 66.9964,-141.574 68.6093,-134.763"/>
</g>
<!-- Node2&#45;&gt;Node4 -->
<g id="edge4" class="edge"><title>Node2&#45;&gt;Node4</title>
<path fill="none" stroke="midnightblue" d="M775.431,-235.083C781.853,-227.377 791.306,-216.033 799.122,-206.653"/>
<polygon fill="midnightblue" stroke="midnightblue" points="801.994,-208.674 805.707,-198.751 796.617,-204.193 801.994,-208.674"/>
</g>
<!-- Node20 -->
<g id="node21" class="node"><title>Node20</title>
<g id="a_node21"><a xlink:href="_n_f_g_u_i_d_8h.html" target="_top" xlink:title="NFComm/NFPluginModule\l/NFGUID.h">
<polygon fill="white" stroke="black" points="114,-112.5 114,-142.5 246,-142.5 246,-112.5 114,-112.5"/>
<text text-anchor="start" x="122" y="-130.5" font-family="Helvetica,sans-Serif" font-size="10.00">NFComm/NFPluginModule</text>
<text text-anchor="middle" x="180" y="-119.5" font-family="Helvetica,sans-Serif" font-size="10.00">/NFGUID.h</text>
</a>
</g>
</g>
<!-- Node2&#45;&gt;Node20 -->
<g id="edge33" class="edge"><title>Node2&#45;&gt;Node20</title>
<path fill="none" stroke="midnightblue" d="M735.127,-237.543C643.905,-219.624 385.828,-168.93 256.233,-143.474"/>
<polygon fill="midnightblue" stroke="midnightblue" points="256.859,-140.03 246.371,-141.537 255.509,-146.899 256.859,-140.03"/>
</g>
<!-- Node4&#45;&gt;Node3 -->
<g id="edge17" class="edge"><title>Node4&#45;&gt;Node3</title>
<path fill="none" stroke="midnightblue" d="M770.638,-186.899C634.215,-183.122 207.346,-169.443 72,-143 68.1098,-142.24 64.0878,-141.219 60.1361,-140.068"/>
<polygon fill="midnightblue" stroke="midnightblue" points="61.1637,-136.722 50.573,-137.017 59.0359,-143.391 61.1637,-136.722"/>
</g>
<!-- Node5 -->
<g id="node6" class="node"><title>Node5</title>
<polygon fill="white" stroke="#bfbfbf" points="1241.5,-0.5 1241.5,-19.5 1282.5,-19.5 1282.5,-0.5 1241.5,-0.5"/>
<text text-anchor="middle" x="1262" y="-7.5" font-family="Helvetica,sans-Serif" font-size="10.00">string</text>
</g>
<!-- Node4&#45;&gt;Node5 -->
<g id="edge5" class="edge"><title>Node4&#45;&gt;Node5</title>
<path fill="none" stroke="midnightblue" d="M841.17,-179.398C863.982,-171.737 896.416,-159.233 922,-143 939.267,-132.044 938.346,-122.321 956,-112 1048.75,-57.775 1174.55,-28.0671 1231.62,-16.6081"/>
<polygon fill="midnightblue" stroke="midnightblue" points="1232.31,-20.039 1241.45,-14.6791 1230.96,-13.17 1232.31,-20.039"/>
</g>
<!-- Node6 -->
<g id="node7" class="node"><title>Node6</title>
<polygon fill="white" stroke="#bfbfbf" points="764,-118 764,-137 810,-137 810,-118 764,-118"/>
<text text-anchor="middle" x="787" y="-125" font-family="Helvetica,sans-Serif" font-size="10.00">cstring</text>
</g>
<!-- Node4&#45;&gt;Node6 -->
<g id="edge6" class="edge"><title>Node4&#45;&gt;Node6</title>
<path fill="none" stroke="midnightblue" d="M809.275,-179.475C805.529,-170.904 799.64,-157.427 794.858,-146.483"/>
<polygon fill="midnightblue" stroke="midnightblue" points="797.93,-144.771 790.718,-137.009 791.515,-147.574 797.93,-144.771"/>
</g>
<!-- Node7 -->
<g id="node8" class="node"><title>Node7</title>
<polygon fill="white" stroke="#bfbfbf" points="1173,-56.5 1173,-75.5 1227,-75.5 1227,-56.5 1173,-56.5"/>
<text text-anchor="middle" x="1200" y="-63.5" font-family="Helvetica,sans-Serif" font-size="10.00">iostream</text>
</g>
<!-- Node4&#45;&gt;Node7 -->
<g id="edge7" class="edge"><title>Node4&#45;&gt;Node7</title>
<path fill="none" stroke="midnightblue" d="M851.312,-179.496C880.868,-172.105 922.264,-159.915 956,-143 977.061,-132.44 977.511,-121.659 999,-112 1053.01,-87.7233 1121.24,-76.025 1162.7,-70.79"/>
<polygon fill="midnightblue" stroke="midnightblue" points="1163.38,-74.2334 1172.9,-69.5657 1162.55,-67.2834 1163.38,-74.2334"/>
</g>
<!-- Node8 -->
<g id="node9" class="node"><title>Node8</title>
<polygon fill="white" stroke="#bfbfbf" points="77,-56.5 77,-75.5 125,-75.5 125,-56.5 77,-56.5"/>
<text text-anchor="middle" x="101" y="-63.5" font-family="Helvetica,sans-Serif" font-size="10.00">stdlib.h</text>
</g>
<!-- Node4&#45;&gt;Node8 -->
<g id="edge8" class="edge"><title>Node4&#45;&gt;Node8</title>
<path fill="none" stroke="midnightblue" d="M770.983,-188.502C625.838,-189.81 151.88,-190.394 105,-143 90.4417,-128.282 92.2053,-103.112 95.7651,-85.7963"/>
<polygon fill="midnightblue" stroke="midnightblue" points="99.2483,-86.2846 98.2102,-75.7407 92.4465,-84.6306 99.2483,-86.2846"/>
</g>
<!-- Node9 -->
<g id="node10" class="node"><title>Node9</title>
<polygon fill="white" stroke="#bfbfbf" points="866.5,-118 866.5,-137 913.5,-137 913.5,-118 866.5,-118"/>
<text text-anchor="middle" x="890" y="-125" font-family="Helvetica,sans-Serif" font-size="10.00">math.h</text>
</g>
<!-- Node4&#45;&gt;Node9 -->
<g id="edge9" class="edge"><title>Node4&#45;&gt;Node9</title>
<path fill="none" stroke="midnightblue" d="M824.032,-179.475C836.268,-170.02 856.229,-154.596 870.993,-143.187"/>
<polygon fill="midnightblue" stroke="midnightblue" points="873.215,-145.893 878.988,-137.009 868.935,-140.354 873.215,-145.893"/>
</g>
<!-- Node10 -->
<g id="node11" class="node"><title>Node10</title>
<polygon fill="white" stroke="#bfbfbf" points="1281.5,-118 1281.5,-137 1310.5,-137 1310.5,-118 1281.5,-118"/>
<text text-anchor="middle" x="1296" y="-125" font-family="Helvetica,sans-Serif" font-size="10.00">list</text>
</g>
<!-- Node4&#45;&gt;Node10 -->
<g id="edge10" class="edge"><title>Node4&#45;&gt;Node10</title>
<path fill="none" stroke="midnightblue" d="M855.044,-186.256C953.241,-181.802 1195.16,-168.517 1272,-143 1272.89,-142.705 1273.78,-142.372 1274.67,-142.009"/>
<polygon fill="midnightblue" stroke="midnightblue" points="1276.53,-144.988 1283.81,-137.294 1273.32,-138.767 1276.53,-144.988"/>
</g>
<!-- Node11 -->
<g id="node12" class="node"><title>Node11</title>
<polygon fill="white" stroke="#bfbfbf" points="264,-118 264,-137 306,-137 306,-118 264,-118"/>
<text text-anchor="middle" x="285" y="-125" font-family="Helvetica,sans-Serif" font-size="10.00">vector</text>
</g>
<!-- Node4&#45;&gt;Node11 -->
<g id="edge11" class="edge"><title>Node4&#45;&gt;Node11</title>
<path fill="none" stroke="midnightblue" d="M770.651,-186.128C666.553,-181.212 400.439,-166.662 315,-143 313.275,-142.522 311.529,-141.948 309.792,-141.308"/>
<polygon fill="midnightblue" stroke="midnightblue" points="310.722,-137.897 300.154,-137.131 307.938,-144.319 310.722,-137.897"/>
</g>
<!-- Node12 -->
<g id="node13" class="node"><title>Node12</title>
<polygon fill="white" stroke="#bfbfbf" points="1228.5,-118 1228.5,-137 1263.5,-137 1263.5,-118 1228.5,-118"/>
<text text-anchor="middle" x="1246" y="-125" font-family="Helvetica,sans-Serif" font-size="10.00">map</text>
</g>
<!-- Node4&#45;&gt;Node12 -->
<g id="edge12" class="edge"><title>Node4&#45;&gt;Node12</title>
<path fill="none" stroke="midnightblue" d="M855.139,-184.2C923.728,-177.713 1063.65,-163.214 1181,-143 1193.39,-140.866 1206.98,-137.93 1218.51,-135.257"/>
<polygon fill="midnightblue" stroke="midnightblue" points="1219.51,-138.617 1228.44,-132.907 1217.9,-131.806 1219.51,-138.617"/>
</g>
<!-- Node13 -->
<g id="node14" class="node"><title>Node13</title>
<polygon fill="white" stroke="#bfbfbf" points="1008,-118 1008,-137 1064,-137 1064,-118 1008,-118"/>
<text text-anchor="middle" x="1036" y="-125" font-family="Helvetica,sans-Serif" font-size="10.00">algorithm</text>
</g>
<!-- Node4&#45;&gt;Node13 -->
<g id="edge13" class="edge"><title>Node4&#45;&gt;Node13</title>
<path fill="none" stroke="midnightblue" d="M851.402,-179.495C888.224,-171.095 945.258,-157.442 994,-143 996.774,-142.178 999.636,-141.286 1002.5,-140.362"/>
<polygon fill="midnightblue" stroke="midnightblue" points="1003.75,-143.634 1012.13,-137.151 1001.54,-136.994 1003.75,-143.634"/>
</g>
<!-- Node14 -->
<g id="node15" class="node"><title>Node14</title>
<polygon fill="white" stroke="#bfbfbf" points="324,-118 324,-137 376,-137 376,-118 324,-118"/>
<text text-anchor="middle" x="350" y="-125" font-family="Helvetica,sans-Serif" font-size="10.00">assert.h</text>
</g>
<!-- Node4&#45;&gt;Node14 -->
<g id="edge14" class="edge"><title>Node4&#45;&gt;Node14</title>
<path fill="none" stroke="midnightblue" d="M770.985,-187.565C693.486,-185.891 523.313,-178.134 385,-143 382.49,-142.362 379.924,-141.578 377.379,-140.707"/>
<polygon fill="midnightblue" stroke="midnightblue" points="378.417,-137.357 367.827,-137.045 375.912,-143.893 378.417,-137.357"/>
</g>
<!-- Node15 -->
<g id="node16" class="node"><title>Node15</title>
<polygon fill="white" stroke="#bfbfbf" points="1329,-118 1329,-137 1379,-137 1379,-118 1329,-118"/>
<text text-anchor="middle" x="1354" y="-125" font-family="Helvetica,sans-Serif" font-size="10.00">typeinfo</text>
</g>
<!-- Node4&#45;&gt;Node15 -->
<g id="edge15" class="edge"><title>Node4&#45;&gt;Node15</title>
<path fill="none" stroke="midnightblue" d="M855.273,-185.959C960.546,-180.601 1232.25,-165.015 1320,-143 1322.36,-142.407 1324.77,-141.671 1327.16,-140.847"/>
<polygon fill="midnightblue" stroke="midnightblue" points="1328.68,-144.013 1336.72,-137.111 1326.13,-137.494 1328.68,-144.013"/>
</g>
<!-- Node16 -->
<g id="node17" class="node"><title>Node16</title>
<polygon fill="white" stroke="#bfbfbf" points="394,-118 394,-137 444,-137 444,-118 394,-118"/>
<text text-anchor="middle" x="419" y="-125" font-family="Helvetica,sans-Serif" font-size="10.00">iomanip</text>
</g>
<!-- Node4&#45;&gt;Node16 -->
<g id="edge16" class="edge"><title>Node4&#45;&gt;Node16</title>
<path fill="none" stroke="midnightblue" d="M770.971,-186.533C703.031,-183.323 565.344,-173.336 453,-143 450.7,-142.379 448.352,-141.633 446.018,-140.812"/>
<polygon fill="midnightblue" stroke="midnightblue" points="447.253,-137.536 436.666,-137.136 444.692,-144.051 447.253,-137.536"/>
</g>
<!-- Node17 -->
<g id="node18" class="node"><title>Node17</title>
<polygon fill="white" stroke="#bfbfbf" points="462.5,-118 462.5,-137 511.5,-137 511.5,-118 462.5,-118"/>
<text text-anchor="middle" x="487" y="-125" font-family="Helvetica,sans-Serif" font-size="10.00">fstream</text>
</g>
<!-- Node4&#45;&gt;Node17 -->
<g id="edge18" class="edge"><title>Node4&#45;&gt;Node17</title>
<path fill="none" stroke="midnightblue" d="M770.708,-184.821C713.271,-179.754 607.809,-167.776 521,-143 518.709,-142.346 516.368,-141.577 514.038,-140.74"/>
<polygon fill="midnightblue" stroke="midnightblue" points="515.28,-137.467 504.693,-137.035 512.7,-143.974 515.28,-137.467"/>
</g>
<!-- Node18 -->
<g id="node19" class="node"><title>Node18</title>
<polygon fill="white" stroke="#bfbfbf" points="1120,-118 1120,-137 1172,-137 1172,-118 1120,-118"/>
<text text-anchor="middle" x="1146" y="-125" font-family="Helvetica,sans-Serif" font-size="10.00">memory</text>
</g>
<!-- Node4&#45;&gt;Node18 -->
<g id="edge19" class="edge"><title>Node4&#45;&gt;Node18</title>
<path fill="none" stroke="midnightblue" d="M855.39,-180.994C906.903,-172.403 996.434,-157.228 1073,-143 1084.99,-140.772 1098.06,-138.217 1109.78,-135.878"/>
<polygon fill="midnightblue" stroke="midnightblue" points="1110.56,-139.292 1119.67,-133.892 1109.18,-132.428 1110.56,-139.292"/>
</g>
<!-- Node19 -->
<g id="node20" class="node"><title>Node19</title>
<polygon fill="white" stroke="#bfbfbf" points="530,-118 530,-137 634,-137 634,-118 530,-118"/>
<text text-anchor="middle" x="582" y="-125" font-family="Helvetica,sans-Serif" font-size="10.00">common/variant.hpp</text>
</g>
<!-- Node4&#45;&gt;Node19 -->
<g id="edge20" class="edge"><title>Node4&#45;&gt;Node19</title>
<path fill="none" stroke="midnightblue" d="M779.903,-179.475C739.078,-168.959 669.592,-151.062 624.761,-139.514"/>
<polygon fill="midnightblue" stroke="midnightblue" points="625.592,-136.114 615.035,-137.009 623.846,-142.893 625.592,-136.114"/>
</g>
<!-- Node4&#45;&gt;Node20 -->
<g id="edge21" class="edge"><title>Node4&#45;&gt;Node20</title>
<path fill="none" stroke="midnightblue" d="M770.829,-186.193C679.063,-181.918 454.257,-169.588 256.195,-143.063"/>
<polygon fill="midnightblue" stroke="midnightblue" points="256.567,-139.582 246.188,-141.708 255.627,-146.518 256.567,-139.582"/>
</g>
<!-- Node21 -->
<g id="node22" class="node"><title>Node21</title>
<g id="a_node22"><a xlink:href="_n_f_platform_8h.html" target="_top" xlink:title="NFPlatform.h">
<polygon fill="white" stroke="black" points="840,-56.5 840,-75.5 914,-75.5 914,-56.5 840,-56.5"/>
<text text-anchor="middle" x="877" y="-63.5" font-family="Helvetica,sans-Serif" font-size="10.00">NFPlatform.h</text>
</a>
</g>
</g>
<!-- Node4&#45;&gt;Node21 -->
<g id="edge31" class="edge"><title>Node4&#45;&gt;Node21</title>
<path fill="none" stroke="midnightblue" d="M817.603,-179.298C828.074,-159.502 853.843,-110.782 867.747,-84.4932"/>
<polygon fill="midnightblue" stroke="midnightblue" points="870.857,-86.0993 872.439,-75.6232 864.67,-82.8264 870.857,-86.0993"/>
</g>
<!-- Node27 -->
<g id="node28" class="node"><title>Node27</title>
<g id="a_node28"><a xlink:href="_vector3_8hpp.html" target="_top" xlink:title="Math/Vector3.hpp">
<polygon fill="white" stroke="black" points="652,-118 652,-137 746,-137 746,-118 652,-118"/>
<text text-anchor="middle" x="699" y="-125" font-family="Helvetica,sans-Serif" font-size="10.00">Math/Vector3.hpp</text>
</a>
</g>
</g>
<!-- Node4&#45;&gt;Node27 -->
<g id="edge32" class="edge"><title>Node4&#45;&gt;Node27</title>
<path fill="none" stroke="midnightblue" d="M796.667,-179.475C777.789,-169.622 746.493,-153.288 724.424,-141.77"/>
<polygon fill="midnightblue" stroke="midnightblue" points="725.788,-138.533 715.303,-137.009 722.549,-144.739 725.788,-138.533"/>
</g>
<!-- Node20&#45;&gt;Node7 -->
<g id="edge28" class="edge"><title>Node20&#45;&gt;Node7</title>
<path fill="none" stroke="midnightblue" d="M246.172,-113.173C249.15,-112.742 252.103,-112.347 255,-112 346.159,-101.075 998.956,-74.9064 1162.78,-68.4558"/>
<polygon fill="midnightblue" stroke="midnightblue" points="1163,-71.95 1172.85,-68.0597 1162.72,-64.9554 1163,-71.95"/>
</g>
<!-- Node20&#45;&gt;Node8 -->
<g id="edge30" class="edge"><title>Node20&#45;&gt;Node8</title>
<path fill="none" stroke="midnightblue" d="M161.278,-112.399C149.088,-103.218 133.208,-91.2579 120.807,-81.9182"/>
<polygon fill="midnightblue" stroke="midnightblue" points="122.589,-78.8782 112.495,-75.6578 118.377,-84.4697 122.589,-78.8782"/>
</g>
<!-- Node20&#45;&gt;Node21 -->
<g id="edge22" class="edge"><title>Node20&#45;&gt;Node21</title>
<path fill="none" stroke="midnightblue" d="M246.184,-113.262C249.158,-112.807 252.108,-112.383 255,-112 468.244,-83.7741 725.131,-72.2558 829.482,-68.5127"/>
<polygon fill="midnightblue" stroke="midnightblue" points="829.815,-72.0033 839.686,-68.1542 829.569,-65.0076 829.815,-72.0033"/>
</g>
<!-- Node26 -->
<g id="node27" class="node"><title>Node26</title>
<polygon fill="white" stroke="#bfbfbf" points="157,-56.5 157,-75.5 203,-75.5 203,-56.5 157,-56.5"/>
<text text-anchor="middle" x="180" y="-63.5" font-family="Helvetica,sans-Serif" font-size="10.00">stdio.h</text>
</g>
<!-- Node20&#45;&gt;Node26 -->
<g id="edge29" class="edge"><title>Node20&#45;&gt;Node26</title>
<path fill="none" stroke="midnightblue" d="M180,-112.399C180,-104.466 180,-94.458 180,-85.8583"/>
<polygon fill="midnightblue" stroke="midnightblue" points="183.5,-85.6577 180,-75.6578 176.5,-85.6578 183.5,-85.6577"/>
</g>
<!-- Node21&#45;&gt;Node5 -->
<g id="edge27" class="edge"><title>Node21&#45;&gt;Node5</title>
<path fill="none" stroke="midnightblue" d="M914.018,-58.285C918.719,-57.4858 923.469,-56.7047 928,-56 1039.3,-38.6884 1172.09,-21.9651 1231.1,-14.7355"/>
<polygon fill="midnightblue" stroke="midnightblue" points="1231.74,-18.1839 1241.24,-13.4981 1230.89,-11.2355 1231.74,-18.1839"/>
</g>
<!-- Node22 -->
<g id="node23" class="node"><title>Node22</title>
<polygon fill="white" stroke="#bfbfbf" points="906.5,-0.5 906.5,-19.5 955.5,-19.5 955.5,-0.5 906.5,-0.5"/>
<text text-anchor="middle" x="931" y="-7.5" font-family="Helvetica,sans-Serif" font-size="10.00">stdint.h</text>
</g>
<!-- Node21&#45;&gt;Node22 -->
<g id="edge23" class="edge"><title>Node21&#45;&gt;Node22</title>
<path fill="none" stroke="midnightblue" d="M885.917,-56.083C893.78,-48.2195 905.431,-36.5688 914.919,-27.0813"/>
<polygon fill="midnightblue" stroke="midnightblue" points="917.653,-29.2971 922.249,-19.7511 912.703,-24.3473 917.653,-29.2971"/>
</g>
<!-- Node23 -->
<g id="node24" class="node"><title>Node23</title>
<polygon fill="white" stroke="#bfbfbf" points="974,-0.5 974,-19.5 1018,-19.5 1018,-0.5 974,-0.5"/>
<text text-anchor="middle" x="996" y="-7.5" font-family="Helvetica,sans-Serif" font-size="10.00">time.h</text>
</g>
<!-- Node21&#45;&gt;Node23 -->
<g id="edge24" class="edge"><title>Node21&#45;&gt;Node23</title>
<path fill="none" stroke="midnightblue" d="M895.856,-56.4435C915.266,-47.6356 945.73,-33.8116 967.965,-23.722"/>
<polygon fill="midnightblue" stroke="midnightblue" points="969.572,-26.836 977.232,-19.5164 966.68,-20.4615 969.572,-26.836"/>
</g>
<!-- Node24 -->
<g id="node25" class="node"><title>Node24</title>
<polygon fill="white" stroke="#bfbfbf" points="690,-0.5 690,-19.5 742,-19.5 742,-0.5 690,-0.5"/>
<text text-anchor="middle" x="716" y="-7.5" font-family="Helvetica,sans-Serif" font-size="10.00">sstream</text>
</g>
<!-- Node21&#45;&gt;Node24 -->
<g id="edge25" class="edge"><title>Node21&#45;&gt;Node24</title>
<path fill="none" stroke="midnightblue" d="M851.489,-56.4435C824.404,-47.3591 781.41,-32.9388 751.131,-22.7831"/>
<polygon fill="midnightblue" stroke="midnightblue" points="751.986,-19.3781 741.392,-19.5164 749.76,-26.0148 751.986,-19.3781"/>
</g>
<!-- Node25 -->
<g id="node26" class="node"><title>Node25</title>
<polygon fill="white" stroke="#bfbfbf" points="760,-0.5 760,-19.5 888,-19.5 888,-0.5 760,-0.5"/>
<text text-anchor="middle" x="824" y="-7.5" font-family="Helvetica,sans-Serif" font-size="10.00">common/lexical_cast.hpp</text>
</g>
<!-- Node21&#45;&gt;Node25 -->
<g id="edge26" class="edge"><title>Node21&#45;&gt;Node25</title>
<path fill="none" stroke="midnightblue" d="M868.248,-56.083C860.53,-48.2195 849.095,-36.5688 839.783,-27.0813"/>
<polygon fill="midnightblue" stroke="midnightblue" points="842.092,-24.4363 832.589,-19.7511 837.096,-29.3396 842.092,-24.4363"/>
</g>
<!-- Node28&#45;&gt;Node5 -->
<g id="edge37" class="edge"><title>Node28&#45;&gt;Node5</title>
<path fill="none" stroke="midnightblue" d="M1362.18,-242.658C1391.62,-239.574 1436.44,-229.756 1458,-199 1465.97,-187.632 1474.88,-165.247 1454,-112 1442.24,-82.0132 1434.75,-73.9481 1408,-56 1372.64,-32.2679 1324.2,-20.6031 1293,-15.2042"/>
<polygon fill="midnightblue" stroke="midnightblue" points="1293.16,-11.6852 1282.73,-13.5463 1292.04,-18.5957 1293.16,-11.6852"/>
</g>
<!-- Node28&#45;&gt;Node7 -->
<g id="edge38" class="edge"><title>Node28&#45;&gt;Node7</title>
<path fill="none" stroke="midnightblue" d="M1362.23,-240.498C1387.15,-235.747 1422.08,-224.664 1439,-199 1449.22,-183.498 1470.78,-150.964 1438,-112 1412.78,-82.0237 1298.21,-71.8448 1237.7,-68.5244"/>
<polygon fill="midnightblue" stroke="midnightblue" points="1237.58,-65.0139 1227.42,-67.9977 1237.22,-72.0047 1237.58,-65.0139"/>
</g>
<!-- Node28&#45;&gt;Node10 -->
<g id="edge36" class="edge"><title>Node28&#45;&gt;Node10</title>
<path fill="none" stroke="midnightblue" d="M1331.14,-235.319C1324.98,-216.59 1310.33,-172.046 1302.02,-146.792"/>
<polygon fill="midnightblue" stroke="midnightblue" points="1305.34,-145.687 1298.89,-137.282 1298.69,-147.875 1305.34,-145.687"/>
</g>
<!-- Node28&#45;&gt;Node12 -->
<g id="edge35" class="edge"><title>Node28&#45;&gt;Node12</title>
<path fill="none" stroke="midnightblue" d="M1327.39,-235.319C1312.86,-216.255 1277.96,-170.447 1258.92,-145.458"/>
<polygon fill="midnightblue" stroke="midnightblue" points="1261.54,-143.115 1252.69,-137.282 1255.97,-147.358 1261.54,-143.115"/>
</g>
<!-- Node28&#45;&gt;Node15 -->
<g id="edge39" class="edge"><title>Node28&#45;&gt;Node15</title>
<path fill="none" stroke="midnightblue" d="M1335.5,-235.319C1338.72,-216.757 1346.32,-172.839 1350.71,-147.473"/>
<polygon fill="midnightblue" stroke="midnightblue" points="1354.22,-147.733 1352.48,-137.282 1347.32,-146.538 1354.22,-147.733"/>
</g>
<!-- Node29 -->
<g id="node30" class="node"><title>Node29</title>
<g id="a_node30"><a xlink:href="_n_f_map_ex_8h.html" target="_top" xlink:title="NFMapEx.h">
<polygon fill="white" stroke="black" points="1362,-179.5 1362,-198.5 1430,-198.5 1430,-179.5 1362,-179.5"/>
<text text-anchor="middle" x="1396" y="-186.5" font-family="Helvetica,sans-Serif" font-size="10.00">NFMapEx.h</text>
</a>
</g>
</g>
<!-- Node28&#45;&gt;Node29 -->
<g id="edge40" class="edge"><title>Node28&#45;&gt;Node29</title>
<path fill="none" stroke="midnightblue" d="M1343.96,-235.324C1353.13,-227.341 1366.94,-215.313 1378.03,-205.653"/>
<polygon fill="midnightblue" stroke="midnightblue" points="1380.62,-208.041 1385.86,-198.834 1376.02,-202.762 1380.62,-208.041"/>
</g>
<!-- Node29&#45;&gt;Node5 -->
<g id="edge43" class="edge"><title>Node29&#45;&gt;Node5</title>
<path fill="none" stroke="midnightblue" d="M1408.21,-179.236C1418.35,-171.143 1432.04,-158.112 1438,-143 1443.05,-130.182 1444.9,-123.923 1438,-112 1406.59,-57.758 1333.83,-30.1266 1292.36,-18.3175"/>
<polygon fill="midnightblue" stroke="midnightblue" points="1293.11,-14.8931 1282.54,-15.6495 1291.27,-21.6484 1293.11,-14.8931"/>
</g>
<!-- Node29&#45;&gt;Node7 -->
<g id="edge44" class="edge"><title>Node29&#45;&gt;Node7</title>
<path fill="none" stroke="midnightblue" d="M1403.85,-179.042C1416.29,-163.731 1437.52,-132.223 1421,-112 1398.2,-84.0955 1293.96,-73.0551 1237.16,-69.0533"/>
<polygon fill="midnightblue" stroke="midnightblue" points="1237.35,-65.5581 1227.14,-68.3855 1236.88,-72.5426 1237.35,-65.5581"/>
</g>
<!-- Node29&#45;&gt;Node10 -->
<g id="edge42" class="edge"><title>Node29&#45;&gt;Node10</title>
<path fill="none" stroke="midnightblue" d="M1381.41,-179.412C1366.09,-170.384 1341.32,-155.751 1320,-143 1319.6,-142.763 1319.2,-142.523 1318.8,-142.281"/>
<polygon fill="midnightblue" stroke="midnightblue" points="1320.57,-139.264 1310.2,-137.108 1316.97,-145.263 1320.57,-139.264"/>
</g>
<!-- Node29&#45;&gt;Node12 -->
<g id="edge41" class="edge"><title>Node29&#45;&gt;Node12</title>
<path fill="none" stroke="midnightblue" d="M1368.4,-179.4C1342.94,-171.133 1304.29,-157.747 1272,-143 1271.16,-142.615 1270.3,-142.212 1269.45,-141.797"/>
<polygon fill="midnightblue" stroke="midnightblue" points="1270.85,-138.58 1260.36,-137.05 1267.6,-144.784 1270.85,-138.58"/>
</g>
<!-- Node29&#45;&gt;Node15 -->
<g id="edge45" class="edge"><title>Node29&#45;&gt;Node15</title>
<path fill="none" stroke="midnightblue" d="M1389.98,-179.475C1383.74,-170.638 1373.83,-156.589 1365.98,-145.475"/>
<polygon fill="midnightblue" stroke="midnightblue" points="1368.63,-143.16 1360.01,-137.009 1362.91,-147.197 1368.63,-143.16"/>
</g>
<!-- Node29&#45;&gt;Node18 -->
<g id="edge46" class="edge"><title>Node29&#45;&gt;Node18</title>
<path fill="none" stroke="midnightblue" d="M1361.76,-179.852C1314.67,-168.643 1230.28,-148.56 1182.19,-137.112"/>
<polygon fill="midnightblue" stroke="midnightblue" points="1182.75,-133.649 1172.21,-134.739 1181.13,-140.459 1182.75,-133.649"/>
</g>
<!-- Node29&#45;&gt;Node21 -->
<g id="edge47" class="edge"><title>Node29&#45;&gt;Node21</title>
<path fill="none" stroke="midnightblue" d="M1398.16,-179.473C1401.58,-163.679 1406.17,-129.858 1388,-112 1355.29,-79.8465 1044.35,-70.3017 924.129,-67.7997"/>
<polygon fill="midnightblue" stroke="midnightblue" points="924.183,-64.3002 914.114,-67.5985 924.042,-71.2988 924.183,-64.3002"/>
</g>
<!-- Node30&#45;&gt;Node7 -->
<g id="edge49" class="edge"><title>Node30&#45;&gt;Node7</title>
<path fill="none" stroke="midnightblue" d="M1118.85,-181.021C1138.86,-174.45 1165.33,-162.619 1181,-143 1194.1,-126.593 1198.31,-102.337 1199.59,-85.6645"/>
<polygon fill="midnightblue" stroke="midnightblue" points="1203.09,-85.6804 1200.08,-75.5233 1196.1,-85.3429 1203.09,-85.6804"/>
</g>
<!-- Node30&#45;&gt;Node10 -->
<g id="edge51" class="edge"><title>Node30&#45;&gt;Node10</title>
<path fill="none" stroke="midnightblue" d="M1118.72,-183.891C1154.58,-177.805 1219.8,-164.714 1272,-143 1272.71,-142.706 1273.42,-142.392 1274.13,-142.064"/>
<polygon fill="midnightblue" stroke="midnightblue" points="1276.01,-145.027 1283.17,-137.214 1272.7,-138.859 1276.01,-145.027"/>
</g>
<!-- Node30&#45;&gt;Node12 -->
<g id="edge50" class="edge"><title>Node30&#45;&gt;Node12</title>
<path fill="none" stroke="midnightblue" d="M1116.97,-179.383C1141.77,-170.686 1180.79,-156.627 1214,-143 1215.63,-142.331 1217.3,-141.629 1218.98,-140.909"/>
<polygon fill="midnightblue" stroke="midnightblue" points="1220.76,-143.948 1228.49,-136.707 1217.93,-137.545 1220.76,-143.948"/>
</g>
<!-- Node30&#45;&gt;Node13 -->
<g id="edge52" class="edge"><title>Node30&#45;&gt;Node13</title>
<path fill="none" stroke="midnightblue" d="M1083.98,-179.475C1075.41,-170.373 1061.64,-155.741 1051.04,-144.483"/>
<polygon fill="midnightblue" stroke="midnightblue" points="1053.41,-141.892 1044.01,-137.009 1048.31,-146.69 1053.41,-141.892"/>
</g>
<!-- Node30&#45;&gt;Node21 -->
<g id="edge53" class="edge"><title>Node30&#45;&gt;Node21</title>
<path fill="none" stroke="midnightblue" d="M1092.53,-179.307C1092.99,-163.543 1091.54,-130.19 1073,-112 1052.25,-91.6437 975.557,-78.7293 924.485,-72.1885"/>
<polygon fill="midnightblue" stroke="midnightblue" points="924.676,-68.6854 914.321,-70.9271 923.814,-75.6322 924.676,-68.6854"/>
</g>
<!-- Node31&#45;&gt;Node2 -->
<g id="edge56" class="edge"><title>Node31&#45;&gt;Node2</title>
<path fill="none" stroke="midnightblue" d="M875.718,-291.444C854.653,-282.557 821.483,-268.563 797.514,-258.451"/>
<polygon fill="midnightblue" stroke="midnightblue" points="798.761,-255.179 788.187,-254.516 796.04,-261.628 798.761,-255.179"/>
</g>
<!-- Node31&#45;&gt;Node4 -->
<g id="edge57" class="edge"><title>Node31&#45;&gt;Node4</title>
<path fill="none" stroke="midnightblue" d="M889.487,-291.368C875.729,-273.135 843.503,-230.426 825.582,-206.675"/>
<polygon fill="midnightblue" stroke="midnightblue" points="828.3,-204.466 819.483,-198.591 822.712,-208.682 828.3,-204.466"/>
</g>
<!-- Node31&#45;&gt;Node30 -->
<g id="edge58" class="edge"><title>Node31&#45;&gt;Node30</title>
<path fill="none" stroke="midnightblue" d="M911.38,-291.368C945.371,-272.292 1027.1,-226.422 1067.94,-203.505"/>
<polygon fill="midnightblue" stroke="midnightblue" points="1069.68,-206.538 1076.69,-198.591 1066.26,-200.433 1069.68,-206.538"/>
</g>
</g>
</svg>
