<?xml version="1.0" encoding="UTF-8" standalone="no"?>
<!DOCTYPE svg PUBLIC "-//W3C//DTD SVG 1.1//EN"
 "http://www.w3.org/Graphics/SVG/1.1/DTD/svg11.dtd">
<!-- Generated by graphviz version 2.38.0 (20140413.2041)
 -->
<!-- Title: NFIGameServerToWorldModule.h Pages: 1 -->
<svg width="775pt" height="140pt"
 viewBox="0.00 0.00 775.00 140.00" xmlns="http://www.w3.org/2000/svg" xmlns:xlink="http://www.w3.org/1999/xlink">
<g id="graph0" class="graph" transform="scale(1 1) rotate(0) translate(4 136)">
<title>NFIGameServerToWorldModule.h</title>
<polygon fill="white" stroke="none" points="-4,4 -4,-136 771,-136 771,4 -4,4"/>
<!-- Node58 -->
<g id="node1" class="node"><title>Node58</title>
<polygon fill="#bfbfbf" stroke="black" points="299.5,-112.5 299.5,-131.5 460.5,-131.5 460.5,-112.5 299.5,-112.5"/>
<text text-anchor="middle" x="380" y="-119.5" font-family="Helvetica,sans-Serif" font-size="10.00">NFIGameServerToWorldModule.h</text>
</g>
<!-- Node59 -->
<g id="node2" class="node"><title>Node59</title>
<g id="a_node2"><a xlink:href="_n_f_c_game_server_to_world_module_8h.html" target="_top" xlink:title="NFCGameServerToWorldModule.h">
<polygon fill="white" stroke="black" points="198.5,-56.5 198.5,-75.5 363.5,-75.5 363.5,-56.5 198.5,-56.5"/>
<text text-anchor="middle" x="281" y="-63.5" font-family="Helvetica,sans-Serif" font-size="10.00">NFCGameServerToWorldModule.h</text>
</a>
</g>
</g>
<!-- Node58&#45;&gt;Node59 -->
<g id="edge1" class="edge"><title>Node58&#45;&gt;Node59</title>
<path fill="none" stroke="midnightblue" d="M355.163,-107.453C336.886,-97.4835 312.584,-84.2279 296.867,-75.6545"/>
<polygon fill="midnightblue" stroke="midnightblue" points="353.639,-110.608 364.094,-112.324 356.991,-104.463 353.639,-110.608"/>
</g>
<!-- Node62 -->
<g id="node5" class="node"><title>Node62</title>
<g id="a_node5"><a xlink:href="_n_f_c_game_server_net___server_module_8h.html" target="_top" xlink:title="NFCGameServerNet_ServerModule.h">
<polygon fill="white" stroke="black" points="391,-56.5 391,-75.5 567,-75.5 567,-56.5 391,-56.5"/>
<text text-anchor="middle" x="479" y="-63.5" font-family="Helvetica,sans-Serif" font-size="10.00">NFCGameServerNet_ServerModule.h</text>
</a>
</g>
</g>
<!-- Node58&#45;&gt;Node62 -->
<g id="edge4" class="edge"><title>Node58&#45;&gt;Node62</title>
<path fill="none" stroke="midnightblue" d="M404.837,-107.453C423.114,-97.4835 447.416,-84.2279 463.133,-75.6545"/>
<polygon fill="midnightblue" stroke="midnightblue" points="403.009,-104.463 395.906,-112.324 406.361,-110.608 403.009,-104.463"/>
</g>
<!-- Node60 -->
<g id="node3" class="node"><title>Node60</title>
<g id="a_node3"><a xlink:href="_n_f_c_game_server_to_world_module_8cpp.html" target="_top" xlink:title="NFCGameServerToWorldModule.cpp">
<polygon fill="white" stroke="black" points="0,-0.5 0,-19.5 176,-19.5 176,-0.5 0,-0.5"/>
<text text-anchor="middle" x="88" y="-7.5" font-family="Helvetica,sans-Serif" font-size="10.00">NFCGameServerToWorldModule.cpp</text>
</a>
</g>
</g>
<!-- Node59&#45;&gt;Node60 -->
<g id="edge2" class="edge"><title>Node59&#45;&gt;Node60</title>
<path fill="none" stroke="midnightblue" d="M240.608,-53.6986C204.183,-43.507 151.414,-28.7429 118.438,-19.5164"/>
<polygon fill="midnightblue" stroke="midnightblue" points="239.845,-57.1196 250.419,-56.4435 241.731,-50.3785 239.845,-57.1196"/>
</g>
<!-- Node61 -->
<g id="node4" class="node"><title>Node61</title>
<g id="a_node4"><a xlink:href="_n_f_game_server_net___client_plugin_8cpp.html" target="_top" xlink:title="NFGameServerNet_ClientPlugin.cpp">
<polygon fill="white" stroke="black" points="194.5,-0.5 194.5,-19.5 367.5,-19.5 367.5,-0.5 194.5,-0.5"/>
<text text-anchor="middle" x="281" y="-7.5" font-family="Helvetica,sans-Serif" font-size="10.00">NFGameServerNet_ClientPlugin.cpp</text>
</a>
</g>
</g>
<!-- Node59&#45;&gt;Node61 -->
<g id="edge3" class="edge"><title>Node59&#45;&gt;Node61</title>
<path fill="none" stroke="midnightblue" d="M281,-45.8045C281,-36.9102 281,-26.7798 281,-19.7511"/>
<polygon fill="midnightblue" stroke="midnightblue" points="277.5,-46.083 281,-56.083 284.5,-46.083 277.5,-46.083"/>
</g>
<!-- Node63 -->
<g id="node6" class="node"><title>Node63</title>
<g id="a_node6"><a xlink:href="_n_f_c_game_server_net___server_module_8cpp.html" target="_top" xlink:title="NFCGameServerNet_ServerModule.cpp">
<polygon fill="white" stroke="black" points="385.5,-0.5 385.5,-19.5 572.5,-19.5 572.5,-0.5 385.5,-0.5"/>
<text text-anchor="middle" x="479" y="-7.5" font-family="Helvetica,sans-Serif" font-size="10.00">NFCGameServerNet_ServerModule.cpp</text>
</a>
</g>
</g>
<!-- Node62&#45;&gt;Node63 -->
<g id="edge5" class="edge"><title>Node62&#45;&gt;Node63</title>
<path fill="none" stroke="midnightblue" d="M479,-45.8045C479,-36.9102 479,-26.7798 479,-19.7511"/>
<polygon fill="midnightblue" stroke="midnightblue" points="475.5,-46.083 479,-56.083 482.5,-46.083 475.5,-46.083"/>
</g>
<!-- Node64 -->
<g id="node7" class="node"><title>Node64</title>
<g id="a_node7"><a xlink:href="_n_f_game_server_net___server_plugin_8cpp.html" target="_top" xlink:title="NFGameServerNet_ServerPlugin.cpp">
<polygon fill="white" stroke="black" points="591,-0.5 591,-19.5 767,-19.5 767,-0.5 591,-0.5"/>
<text text-anchor="middle" x="679" y="-7.5" font-family="Helvetica,sans-Serif" font-size="10.00">NFGameServerNet_ServerPlugin.cpp</text>
</a>
</g>
</g>
<!-- Node62&#45;&gt;Node64 -->
<g id="edge6" class="edge"><title>Node62&#45;&gt;Node64</title>
<path fill="none" stroke="midnightblue" d="M520.374,-53.8291C558.136,-43.6333 613.14,-28.7823 647.458,-19.5164"/>
<polygon fill="midnightblue" stroke="midnightblue" points="519.433,-50.4578 510.691,-56.4435 521.257,-57.2158 519.433,-50.4578"/>
</g>
</g>
</svg>
