<?xml version="1.0" encoding="UTF-8" standalone="no"?>
<!DOCTYPE svg PUBLIC "-//W3C//DTD SVG 1.1//EN"
 "http://www.w3.org/Graphics/SVG/1.1/DTD/svg11.dtd">
<!-- Generated by graphviz version 2.38.0 (20140413.2041)
 -->
<!-- Title: NFCSceneModule.h Pages: 1 -->
<svg width="244pt" height="84pt"
 viewBox="0.00 0.00 243.50 84.00" xmlns="http://www.w3.org/2000/svg" xmlns:xlink="http://www.w3.org/1999/xlink">
<g id="graph0" class="graph" transform="scale(1 1) rotate(0) translate(4 80)">
<title>NFCSceneModule.h</title>
<polygon fill="white" stroke="none" points="-4,4 -4,-80 239.5,-80 239.5,4 -4,4"/>
<!-- Node43 -->
<g id="node1" class="node"><title>Node43</title>
<polygon fill="#bfbfbf" stroke="black" points="62.5,-56.5 62.5,-75.5 166.5,-75.5 166.5,-56.5 62.5,-56.5"/>
<text text-anchor="middle" x="114.5" y="-63.5" font-family="Helvetica,sans-Serif" font-size="10.00">NFCSceneModule.h</text>
</g>
<!-- Node44 -->
<g id="node2" class="node"><title>Node44</title>
<g id="a_node2"><a xlink:href="_n_f_kernel_plugin_8cpp.html" target="_top" xlink:title="NFKernelPlugin.cpp">
<polygon fill="white" stroke="black" points="0,-0.5 0,-19.5 103,-19.5 103,-0.5 0,-0.5"/>
<text text-anchor="middle" x="51.5" y="-7.5" font-family="Helvetica,sans-Serif" font-size="10.00">NFKernelPlugin.cpp</text>
</a>
</g>
</g>
<!-- Node43&#45;&gt;Node44 -->
<g id="edge1" class="edge"><title>Node43&#45;&gt;Node44</title>
<path fill="none" stroke="midnightblue" d="M96.4601,-49.5372C85.2269,-39.9087 71.1809,-27.8694 61.8062,-19.8339"/>
<polygon fill="midnightblue" stroke="midnightblue" points="94.5076,-52.4734 104.378,-56.324 99.0632,-47.1586 94.5076,-52.4734"/>
</g>
<!-- Node45 -->
<g id="node3" class="node"><title>Node45</title>
<g id="a_node3"><a xlink:href="_n_f_c_scene_module_8cpp.html" target="_top" xlink:title="NFCSceneModule.cpp">
<polygon fill="white" stroke="black" points="121.5,-0.5 121.5,-19.5 235.5,-19.5 235.5,-0.5 121.5,-0.5"/>
<text text-anchor="middle" x="178.5" y="-7.5" font-family="Helvetica,sans-Serif" font-size="10.00">NFCSceneModule.cpp</text>
</a>
</g>
</g>
<!-- Node43&#45;&gt;Node45 -->
<g id="edge2" class="edge"><title>Node43&#45;&gt;Node45</title>
<path fill="none" stroke="midnightblue" d="M132.491,-49.8197C143.958,-40.1452 158.413,-27.9481 168.03,-19.8339"/>
<polygon fill="midnightblue" stroke="midnightblue" points="130.169,-47.2002 124.783,-56.324 134.683,-52.5502 130.169,-47.2002"/>
</g>
</g>
</svg>
