<?xml version="1.0" encoding="UTF-8" standalone="no"?>
<!DOCTYPE svg PUBLIC "-//W3C//DTD SVG 1.1//EN"
 "http://www.w3.org/Graphics/SVG/1.1/DTD/svg11.dtd">
<!-- Generated by graphviz version 2.38.0 (20140413.2041)
 -->
<!-- Title: NFIComponent.h Pages: 1 -->
<!--zoomable 464 -->
<svg id="main" version="1.1" xmlns="http://www.w3.org/2000/svg" xmlns:xlink="http://www.w3.org/1999/xlink" xml:space="preserve" onload="init(evt)">
<style type="text/css"><![CDATA[
.edge:hover path { stroke: red; }
.edge:hover polygon { stroke: red; fill: red; }
]]></style>
<script type="text/javascript"><![CDATA[
var edges = document.getElementsByTagName('g');
if (edges && edges.length) {
  for (var i=0;i<edges.length;i++) {
    if (edges[i].id.substr(0,4)=='edge') {
      edges[i].setAttribute('class','edge');
    }
  }
}
]]></script>
        <defs>
                <circle id="rim" cx="0" cy="0" r="7"/>
                <circle id="rim2" cx="0" cy="0" r="3.5"/>
                <g id="zoomPlus">
                        <use xlink:href="#rim" fill="#404040">
                                <set attributeName="fill" to="#808080" begin="zoomplus.mouseover" end="zoomplus.mouseout"/>
                        </use>
                        <path d="M-4,0h8M0,-4v8" fill="none" stroke="white" stroke-width="1.5" pointer-events="none"/>
                </g>
                <g id="zoomMin">
                        <use xlink:href="#rim" fill="#404040">
                                <set attributeName="fill" to="#808080" begin="zoomminus.mouseover" end="zoomminus.mouseout"/>
                        </use>
                        <path d="M-4,0h8" fill="none" stroke="white" stroke-width="1.5" pointer-events="none"/>
                </g>
                <g id="dirArrow">
                        <path fill="none" stroke="white" stroke-width="1.5" d="M0,-3.0v7 M-2.5,-0.5L0,-3.0L2.5,-0.5"/>
                </g>
               <g id="resetDef">
                       <use xlink:href="#rim2" fill="#404040">
                               <set attributeName="fill" to="#808080" begin="reset.mouseover" end="reset.mouseout"/>
                       </use>
               </g>
        </defs>

<script type="text/javascript">
var viewWidth = 1682;
var viewHeight = 464;
var sectionId = 'dynsection-0';
</script>
<script xlink:href="svgpan.js"/>
<svg id="graph" class="graph">
<g id="viewport">
<title>NFIComponent.h</title>
<polygon fill="white" stroke="none" points="-4,4 -4,-460 1678,-460 1678,4 -4,4"/>
<!-- Node0 -->
<g id="node1" class="node"><title>Node0</title>
<polygon fill="#bfbfbf" stroke="black" points="973.5,-436.5 973.5,-455.5 1062.5,-455.5 1062.5,-436.5 973.5,-436.5"/>
<text text-anchor="middle" x="1018" y="-443.5" font-family="Helvetica,sans-Serif" font-size="10.00">NFIComponent.h</text>
</g>
<!-- Node1 -->
<g id="node2" class="node"><title>Node1</title>
<g id="a_node2"><a xlink:href="_n_f_platform_8h.html" target="_top" xlink:title="NFComm/NFPluginModule\l/NFPlatform.h">
<polygon fill="white" stroke="black" points="782,-56.5 782,-86.5 914,-86.5 914,-56.5 782,-56.5"/>
<text text-anchor="start" x="790" y="-74.5" font-family="Helvetica,sans-Serif" font-size="10.00">NFComm/NFPluginModule</text>
<text text-anchor="middle" x="848" y="-63.5" font-family="Helvetica,sans-Serif" font-size="10.00">/NFPlatform.h</text>
</a>
</g>
</g>
<!-- Node0&#45;&gt;Node1 -->
<g id="edge1" class="edge"><title>Node0&#45;&gt;Node1</title>
<path fill="none" stroke="midnightblue" d="M1018,-436.411C1018,-415.977 1018,-362.863 1018,-318.5 1018,-318.5 1018,-318.5 1018,-199 1018,-142.61 957.054,-108.397 908.145,-90.019"/>
<polygon fill="midnightblue" stroke="midnightblue" points="909.14,-86.6571 898.545,-86.5528 906.762,-93.241 909.14,-86.6571"/>
</g>
<!-- Node7 -->
<g id="node8" class="node"><title>Node7</title>
<g id="a_node8"><a xlink:href="_n_f_g_u_i_d_8h.html" target="_top" xlink:title="NFComm/NFPluginModule\l/NFGUID.h">
<polygon fill="white" stroke="black" points="114,-123.5 114,-153.5 246,-153.5 246,-123.5 114,-123.5"/>
<text text-anchor="start" x="122" y="-141.5" font-family="Helvetica,sans-Serif" font-size="10.00">NFComm/NFPluginModule</text>
<text text-anchor="middle" x="180" y="-130.5" font-family="Helvetica,sans-Serif" font-size="10.00">/NFGUID.h</text>
</a>
</g>
</g>
<!-- Node0&#45;&gt;Node7 -->
<g id="edge7" class="edge"><title>Node0&#45;&gt;Node7</title>
<path fill="none" stroke="midnightblue" d="M973.432,-442.538C807.635,-432.797 236,-393.754 236,-318.5 236,-318.5 236,-318.5 236,-255 236,-219.785 214.662,-184.036 198.329,-161.83"/>
<polygon fill="midnightblue" stroke="midnightblue" points="201.001,-159.561 192.151,-153.735 195.436,-163.808 201.001,-159.561"/>
</g>
<!-- Node11 -->
<g id="node12" class="node"><title>Node11</title>
<g id="a_node12"><a xlink:href="_n_f_i_module_8h.html" target="_top" xlink:title="NFComm/NFPluginModule\l/NFIModule.h">
<polygon fill="white" stroke="black" points="1055,-369.5 1055,-399.5 1187,-399.5 1187,-369.5 1055,-369.5"/>
<text text-anchor="start" x="1063" y="-387.5" font-family="Helvetica,sans-Serif" font-size="10.00">NFComm/NFPluginModule</text>
<text text-anchor="middle" x="1121" y="-376.5" font-family="Helvetica,sans-Serif" font-size="10.00">/NFIModule.h</text>
</a>
</g>
</g>
<!-- Node0&#45;&gt;Node11 -->
<g id="edge12" class="edge"><title>Node0&#45;&gt;Node11</title>
<path fill="none" stroke="midnightblue" d="M1032.76,-436.475C1047.1,-428.191 1069.37,-415.325 1087.95,-404.591"/>
<polygon fill="midnightblue" stroke="midnightblue" points="1089.82,-407.556 1096.72,-399.523 1086.32,-401.494 1089.82,-407.556"/>
</g>
<!-- Node2 -->
<g id="node3" class="node"><title>Node2</title>
<polygon fill="white" stroke="#bfbfbf" points="984.5,-0.5 984.5,-19.5 1033.5,-19.5 1033.5,-0.5 984.5,-0.5"/>
<text text-anchor="middle" x="1009" y="-7.5" font-family="Helvetica,sans-Serif" font-size="10.00">stdint.h</text>
</g>
<!-- Node1&#45;&gt;Node2 -->
<g id="edge2" class="edge"><title>Node1&#45;&gt;Node2</title>
<path fill="none" stroke="midnightblue" d="M886.155,-56.3993C913.53,-46.2826 950.037,-32.7905 976.126,-23.1493"/>
<polygon fill="midnightblue" stroke="midnightblue" points="977.406,-26.4073 985.573,-19.6578 974.98,-19.8414 977.406,-26.4073"/>
</g>
<!-- Node3 -->
<g id="node4" class="node"><title>Node3</title>
<polygon fill="white" stroke="#bfbfbf" points="706,-0.5 706,-19.5 750,-19.5 750,-0.5 706,-0.5"/>
<text text-anchor="middle" x="728" y="-7.5" font-family="Helvetica,sans-Serif" font-size="10.00">time.h</text>
</g>
<!-- Node1&#45;&gt;Node3 -->
<g id="edge3" class="edge"><title>Node1&#45;&gt;Node3</title>
<path fill="none" stroke="midnightblue" d="M819.562,-56.3993C799.877,-46.6391 773.857,-33.7373 754.587,-24.1826"/>
<polygon fill="midnightblue" stroke="midnightblue" points="755.975,-20.9644 745.461,-19.6578 752.865,-27.2358 755.975,-20.9644"/>
</g>
<!-- Node4 -->
<g id="node5" class="node"><title>Node4</title>
<polygon fill="white" stroke="#bfbfbf" points="768,-0.5 768,-19.5 820,-19.5 820,-0.5 768,-0.5"/>
<text text-anchor="middle" x="794" y="-7.5" font-family="Helvetica,sans-Serif" font-size="10.00">sstream</text>
</g>
<!-- Node1&#45;&gt;Node4 -->
<g id="edge4" class="edge"><title>Node1&#45;&gt;Node4</title>
<path fill="none" stroke="midnightblue" d="M835.203,-56.3993C827.275,-47.6641 817.064,-36.4126 808.79,-27.2962"/>
<polygon fill="midnightblue" stroke="midnightblue" points="811.17,-24.7106 801.857,-19.6578 805.986,-29.415 811.17,-24.7106"/>
</g>
<!-- Node5 -->
<g id="node6" class="node"><title>Node5</title>
<polygon fill="white" stroke="#bfbfbf" points="838,-0.5 838,-19.5 966,-19.5 966,-0.5 838,-0.5"/>
<text text-anchor="middle" x="902" y="-7.5" font-family="Helvetica,sans-Serif" font-size="10.00">common/lexical_cast.hpp</text>
</g>
<!-- Node1&#45;&gt;Node5 -->
<g id="edge5" class="edge"><title>Node1&#45;&gt;Node5</title>
<path fill="none" stroke="midnightblue" d="M860.797,-56.3993C868.725,-47.6641 878.936,-36.4126 887.21,-27.2962"/>
<polygon fill="midnightblue" stroke="midnightblue" points="890.014,-29.415 894.143,-19.6578 884.83,-24.7106 890.014,-29.415"/>
</g>
<!-- Node6 -->
<g id="node7" class="node"><title>Node6</title>
<polygon fill="white" stroke="#bfbfbf" points="1539.5,-0.5 1539.5,-19.5 1580.5,-19.5 1580.5,-0.5 1539.5,-0.5"/>
<text text-anchor="middle" x="1560" y="-7.5" font-family="Helvetica,sans-Serif" font-size="10.00">string</text>
</g>
<!-- Node1&#45;&gt;Node6 -->
<g id="edge6" class="edge"><title>Node1&#45;&gt;Node6</title>
<path fill="none" stroke="midnightblue" d="M914.269,-57.9185C918.907,-57.2136 923.518,-56.564 928,-56 1157.94,-27.0617 1437.47,-15.2762 1529.22,-12.0106"/>
<polygon fill="midnightblue" stroke="midnightblue" points="1529.59,-15.4999 1539.46,-11.654 1529.34,-8.50416 1529.59,-15.4999"/>
</g>
<!-- Node7&#45;&gt;Node1 -->
<g id="edge8" class="edge"><title>Node7&#45;&gt;Node1</title>
<path fill="none" stroke="midnightblue" d="M246.19,-124.309C249.163,-123.841 252.11,-123.401 255,-123 439.594,-97.3695 658.444,-82.7869 771.644,-76.4075"/>
<polygon fill="midnightblue" stroke="midnightblue" points="772.143,-79.8852 781.932,-75.834 771.753,-72.8961 772.143,-79.8852"/>
</g>
<!-- Node8 -->
<g id="node9" class="node"><title>Node8</title>
<polygon fill="white" stroke="#bfbfbf" points="1299,-62 1299,-81 1353,-81 1353,-62 1299,-62"/>
<text text-anchor="middle" x="1326" y="-69" font-family="Helvetica,sans-Serif" font-size="10.00">iostream</text>
</g>
<!-- Node7&#45;&gt;Node8 -->
<g id="edge9" class="edge"><title>Node7&#45;&gt;Node8</title>
<path fill="none" stroke="midnightblue" d="M246.172,-124.171C249.15,-123.741 252.103,-123.347 255,-123 359.261,-110.529 1111.77,-80.8096 1288.78,-73.9361"/>
<polygon fill="midnightblue" stroke="midnightblue" points="1289.04,-77.4287 1298.9,-73.5438 1288.77,-70.4339 1289.04,-77.4287"/>
</g>
<!-- Node9 -->
<g id="node10" class="node"><title>Node9</title>
<polygon fill="white" stroke="#bfbfbf" points="157,-62 157,-81 203,-81 203,-62 157,-62"/>
<text text-anchor="middle" x="180" y="-69" font-family="Helvetica,sans-Serif" font-size="10.00">stdio.h</text>
</g>
<!-- Node7&#45;&gt;Node9 -->
<g id="edge10" class="edge"><title>Node7&#45;&gt;Node9</title>
<path fill="none" stroke="midnightblue" d="M180,-123.396C180,-114.064 180,-101.714 180,-91.5173"/>
<polygon fill="midnightblue" stroke="midnightblue" points="183.5,-91.1945 180,-81.1945 176.5,-91.1946 183.5,-91.1945"/>
</g>
<!-- Node10 -->
<g id="node11" class="node"><title>Node10</title>
<polygon fill="white" stroke="#bfbfbf" points="77,-62 77,-81 125,-81 125,-62 77,-62"/>
<text text-anchor="middle" x="101" y="-69" font-family="Helvetica,sans-Serif" font-size="10.00">stdlib.h</text>
</g>
<!-- Node7&#45;&gt;Node10 -->
<g id="edge11" class="edge"><title>Node7&#45;&gt;Node10</title>
<path fill="none" stroke="midnightblue" d="M162.858,-123.396C150.053,-112.86 132.572,-98.4771 119.46,-87.6886"/>
<polygon fill="midnightblue" stroke="midnightblue" points="121.513,-84.8455 111.567,-81.1945 117.066,-90.251 121.513,-84.8455"/>
</g>
<!-- Node11&#45;&gt;Node6 -->
<g id="edge13" class="edge"><title>Node11&#45;&gt;Node6</title>
<path fill="none" stroke="midnightblue" d="M1187.16,-382.18C1333.94,-377.46 1674,-355.856 1674,-257 1674,-257 1674,-257 1674,-137.5 1674,-85.0747 1619.3,-44.5813 1585.68,-24.6442"/>
<polygon fill="midnightblue" stroke="midnightblue" points="1587.24,-21.5028 1576.82,-19.5732 1583.76,-27.5782 1587.24,-21.5028"/>
</g>
<!-- Node12 -->
<g id="node13" class="node"><title>Node12</title>
<g id="a_node13"><a xlink:href="_n_f_map_8h.html" target="_top" xlink:title="NFComm/NFCore/NFMap.h">
<polygon fill="white" stroke="black" points="1309.5,-246.5 1309.5,-265.5 1446.5,-265.5 1446.5,-246.5 1309.5,-246.5"/>
<text text-anchor="middle" x="1378" y="-253.5" font-family="Helvetica,sans-Serif" font-size="10.00">NFComm/NFCore/NFMap.h</text>
</a>
</g>
</g>
<!-- Node11&#45;&gt;Node12 -->
<g id="edge14" class="edge"><title>Node11&#45;&gt;Node12</title>
<path fill="none" stroke="midnightblue" d="M1149.49,-369.479C1199.6,-344.813 1302.81,-294.008 1351.49,-270.049"/>
<polygon fill="midnightblue" stroke="midnightblue" points="1353.04,-273.187 1360.47,-265.63 1349.95,-266.906 1353.04,-273.187"/>
</g>
<!-- Node18 -->
<g id="node19" class="node"><title>Node18</title>
<g id="a_node19"><a xlink:href="_n_f_list_8h.html" target="_top" xlink:title="NFComm/NFCore/NFList.h">
<polygon fill="white" stroke="black" points="1082,-190.5 1082,-209.5 1216,-209.5 1216,-190.5 1082,-190.5"/>
<text text-anchor="middle" x="1149" y="-197.5" font-family="Helvetica,sans-Serif" font-size="10.00">NFComm/NFCore/NFList.h</text>
</a>
</g>
</g>
<!-- Node11&#45;&gt;Node18 -->
<g id="edge28" class="edge"><title>Node11&#45;&gt;Node18</title>
<path fill="none" stroke="midnightblue" d="M1123.15,-369.483C1128.12,-337.097 1140.4,-257.037 1146.06,-220.159"/>
<polygon fill="midnightblue" stroke="midnightblue" points="1149.59,-220.234 1147.65,-209.819 1142.67,-219.172 1149.59,-220.234"/>
</g>
<!-- Node20 -->
<g id="node21" class="node"><title>Node20</title>
<g id="a_node21"><a xlink:href="_n_f_define_8h.html" target="_top" xlink:title="NFComm/NFCore/NFDefine.h">
<polygon fill="white" stroke="black" points="730.5,-246.5 730.5,-265.5 875.5,-265.5 875.5,-246.5 730.5,-246.5"/>
<text text-anchor="middle" x="803" y="-253.5" font-family="Helvetica,sans-Serif" font-size="10.00">NFComm/NFCore/NFDefine.h</text>
</a>
</g>
</g>
<!-- Node11&#45;&gt;Node20 -->
<g id="edge34" class="edge"><title>Node11&#45;&gt;Node20</title>
<path fill="none" stroke="midnightblue" d="M1054.93,-380.605C977.349,-375.831 855.039,-363.568 822,-333 806.277,-318.453 802.709,-293.038 802.291,-275.635"/>
<polygon fill="midnightblue" stroke="midnightblue" points="805.791,-275.579 802.375,-265.55 798.791,-275.52 805.791,-275.579"/>
</g>
<!-- Node22 -->
<g id="node23" class="node"><title>Node22</title>
<g id="a_node23"><a xlink:href="_a_f_data_list_8hpp.html" target="_top" xlink:title="AFDataList.hpp">
<polygon fill="white" stroke="black" points="780,-190.5 780,-209.5 864,-209.5 864,-190.5 780,-190.5"/>
<text text-anchor="middle" x="822" y="-197.5" font-family="Helvetica,sans-Serif" font-size="10.00">AFDataList.hpp</text>
</a>
</g>
</g>
<!-- Node11&#45;&gt;Node22 -->
<g id="edge57" class="edge"><title>Node11&#45;&gt;Node22</title>
<path fill="none" stroke="midnightblue" d="M1099.72,-369.386C1061.16,-343.956 976.97,-289.083 904,-246 885.18,-234.888 863.485,-223.023 847.139,-214.267"/>
<polygon fill="midnightblue" stroke="midnightblue" points="848.666,-211.115 838.195,-209.5 845.374,-217.292 848.666,-211.115"/>
</g>
<!-- Node31 -->
<g id="node32" class="node"><title>Node31</title>
<g id="a_node32"><a xlink:href="_n_f_i_record_8h.html" target="_top" xlink:title="NFComm/NFCore/NFIRecord.h">
<polygon fill="white" stroke="black" points="831.5,-308 831.5,-327 982.5,-327 982.5,-308 831.5,-308"/>
<text text-anchor="middle" x="907" y="-315" font-family="Helvetica,sans-Serif" font-size="10.00">NFComm/NFCore/NFIRecord.h</text>
</a>
</g>
</g>
<!-- Node11&#45;&gt;Node31 -->
<g id="edge58" class="edge"><title>Node11&#45;&gt;Node31</title>
<path fill="none" stroke="midnightblue" d="M1074.83,-369.476C1035.97,-357.673 981.08,-341.001 944.792,-329.979"/>
<polygon fill="midnightblue" stroke="midnightblue" points="945.665,-326.586 935.079,-327.029 943.63,-333.284 945.665,-326.586"/>
</g>
<!-- Node32 -->
<g id="node33" class="node"><title>Node32</title>
<g id="a_node33"><a xlink:href="_n_f_event_define_8h.html" target="_top" xlink:title="NFComm/NFEventDefine\l/NFEventDefine.h">
<polygon fill="white" stroke="black" points="1411.5,-302.5 1411.5,-332.5 1536.5,-332.5 1536.5,-302.5 1411.5,-302.5"/>
<text text-anchor="start" x="1419.5" y="-320.5" font-family="Helvetica,sans-Serif" font-size="10.00">NFComm/NFEventDefine</text>
<text text-anchor="middle" x="1474" y="-309.5" font-family="Helvetica,sans-Serif" font-size="10.00">/NFEventDefine.h</text>
</a>
</g>
</g>
<!-- Node11&#45;&gt;Node32 -->
<g id="edge61" class="edge"><title>Node11&#45;&gt;Node32</title>
<path fill="none" stroke="midnightblue" d="M1187.4,-371.274C1248.44,-360.034 1338.74,-343.406 1401.61,-331.83"/>
<polygon fill="midnightblue" stroke="midnightblue" points="1402.26,-335.27 1411.46,-330.017 1400.99,-328.385 1402.26,-335.27"/>
</g>
<!-- Node12&#45;&gt;Node6 -->
<g id="edge17" class="edge"><title>Node12&#45;&gt;Node6</title>
<path fill="none" stroke="midnightblue" d="M1406.45,-246.417C1426.94,-239.176 1454.33,-227.213 1474,-210 1479.58,-205.115 1550.76,-90.5985 1552,-87 1558.48,-68.2295 1560.12,-45.4291 1560.36,-29.7271"/>
<polygon fill="midnightblue" stroke="midnightblue" points="1563.86,-29.7 1560.34,-19.7074 1556.86,-29.7146 1563.86,-29.7"/>
</g>
<!-- Node12&#45;&gt;Node8 -->
<g id="edge18" class="edge"><title>Node12&#45;&gt;Node8</title>
<path fill="none" stroke="midnightblue" d="M1394.28,-246.374C1431.45,-225.563 1516.75,-170.777 1482,-123 1455.1,-86.0181 1400.53,-75.5639 1363.61,-72.9069"/>
<polygon fill="midnightblue" stroke="midnightblue" points="1363.42,-69.3908 1353.24,-72.33 1363.03,-76.38 1363.42,-69.3908"/>
</g>
<!-- Node13 -->
<g id="node14" class="node"><title>Node13</title>
<polygon fill="white" stroke="#bfbfbf" points="1196.5,-129 1196.5,-148 1231.5,-148 1231.5,-129 1196.5,-129"/>
<text text-anchor="middle" x="1214" y="-136" font-family="Helvetica,sans-Serif" font-size="10.00">map</text>
</g>
<!-- Node12&#45;&gt;Node13 -->
<g id="edge15" class="edge"><title>Node12&#45;&gt;Node13</title>
<path fill="none" stroke="midnightblue" d="M1365.67,-246.319C1337.77,-226.67 1269.53,-178.609 1234.9,-154.217"/>
<polygon fill="midnightblue" stroke="midnightblue" points="1236.66,-151.179 1226.47,-148.282 1232.63,-156.902 1236.66,-151.179"/>
</g>
<!-- Node14 -->
<g id="node15" class="node"><title>Node14</title>
<polygon fill="white" stroke="#bfbfbf" points="1320.5,-129 1320.5,-148 1349.5,-148 1349.5,-129 1320.5,-129"/>
<text text-anchor="middle" x="1335" y="-136" font-family="Helvetica,sans-Serif" font-size="10.00">list</text>
</g>
<!-- Node12&#45;&gt;Node14 -->
<g id="edge16" class="edge"><title>Node12&#45;&gt;Node14</title>
<path fill="none" stroke="midnightblue" d="M1365.5,-246.302C1355.13,-238.251 1341.11,-225.245 1335,-210 1328.39,-193.506 1329.27,-173.045 1331.28,-158.421"/>
<polygon fill="midnightblue" stroke="midnightblue" points="1334.81,-158.574 1333.01,-148.133 1327.9,-157.415 1334.81,-158.574"/>
</g>
<!-- Node15 -->
<g id="node16" class="node"><title>Node15</title>
<polygon fill="white" stroke="#bfbfbf" points="1406,-129 1406,-148 1456,-148 1456,-129 1406,-129"/>
<text text-anchor="middle" x="1431" y="-136" font-family="Helvetica,sans-Serif" font-size="10.00">typeinfo</text>
</g>
<!-- Node12&#45;&gt;Node15 -->
<g id="edge19" class="edge"><title>Node12&#45;&gt;Node15</title>
<path fill="none" stroke="midnightblue" d="M1389.58,-246.391C1399.65,-238.215 1413.73,-224.971 1421,-210 1428.84,-193.853 1431,-173.345 1431.41,-158.616"/>
<polygon fill="midnightblue" stroke="midnightblue" points="1434.91,-158.245 1431.43,-148.237 1427.91,-158.229 1434.91,-158.245"/>
</g>
<!-- Node16 -->
<g id="node17" class="node"><title>Node16</title>
<g id="a_node17"><a xlink:href="_n_f_map_ex_8h.html" target="_top" xlink:title="NFMapEx.h">
<polygon fill="white" stroke="black" points="1344,-190.5 1344,-209.5 1412,-209.5 1412,-190.5 1344,-190.5"/>
<text text-anchor="middle" x="1378" y="-197.5" font-family="Helvetica,sans-Serif" font-size="10.00">NFMapEx.h</text>
</a>
</g>
</g>
<!-- Node12&#45;&gt;Node16 -->
<g id="edge20" class="edge"><title>Node12&#45;&gt;Node16</title>
<path fill="none" stroke="midnightblue" d="M1378,-246.083C1378,-239.006 1378,-228.861 1378,-219.986"/>
<polygon fill="midnightblue" stroke="midnightblue" points="1381.5,-219.751 1378,-209.751 1374.5,-219.751 1381.5,-219.751"/>
</g>
<!-- Node16&#45;&gt;Node1 -->
<g id="edge27" class="edge"><title>Node16&#45;&gt;Node1</title>
<path fill="none" stroke="midnightblue" d="M1378.61,-190.312C1379.22,-174.249 1377.93,-139.997 1358,-123 1325.75,-95.4999 1058.99,-80.9607 924.667,-75.3231"/>
<polygon fill="midnightblue" stroke="midnightblue" points="924.581,-71.8166 914.445,-74.9005 924.292,-78.8107 924.581,-71.8166"/>
</g>
<!-- Node16&#45;&gt;Node6 -->
<g id="edge23" class="edge"><title>Node16&#45;&gt;Node6</title>
<path fill="none" stroke="midnightblue" d="M1412.11,-190.498C1434.12,-183.612 1462.24,-172.039 1482,-154 1520.88,-118.509 1544.46,-59.0271 1554.43,-29.2061"/>
<polygon fill="midnightblue" stroke="midnightblue" points="1557.77,-30.2519 1557.49,-19.6608 1551.1,-28.1136 1557.77,-30.2519"/>
</g>
<!-- Node16&#45;&gt;Node8 -->
<g id="edge24" class="edge"><title>Node16&#45;&gt;Node8</title>
<path fill="none" stroke="midnightblue" d="M1412.13,-190.751C1431.25,-184.193 1453.51,-172.884 1465,-154 1472.16,-142.231 1472.91,-134.284 1465,-123 1442.2,-90.4594 1396.17,-78.8066 1363.33,-74.6793"/>
<polygon fill="midnightblue" stroke="midnightblue" points="1363.49,-71.1768 1353.18,-73.5868 1362.74,-78.1366 1363.49,-71.1768"/>
</g>
<!-- Node16&#45;&gt;Node13 -->
<g id="edge21" class="edge"><title>Node16&#45;&gt;Node13</title>
<path fill="none" stroke="midnightblue" d="M1346.96,-190.498C1318.81,-182.393 1276.43,-169.194 1241,-154 1240,-153.57 1238.98,-153.116 1237.96,-152.645"/>
<polygon fill="midnightblue" stroke="midnightblue" points="1239.42,-149.457 1228.91,-148.107 1236.28,-155.716 1239.42,-149.457"/>
</g>
<!-- Node16&#45;&gt;Node14 -->
<g id="edge22" class="edge"><title>Node16&#45;&gt;Node14</title>
<path fill="none" stroke="midnightblue" d="M1371.84,-190.475C1365.39,-181.55 1355.1,-167.307 1347.03,-156.143"/>
<polygon fill="midnightblue" stroke="midnightblue" points="1349.84,-154.064 1341.15,-148.009 1344.17,-158.164 1349.84,-154.064"/>
</g>
<!-- Node16&#45;&gt;Node15 -->
<g id="edge25" class="edge"><title>Node16&#45;&gt;Node15</title>
<path fill="none" stroke="midnightblue" d="M1385.59,-190.475C1393.7,-181.373 1406.73,-166.741 1416.76,-155.483"/>
<polygon fill="midnightblue" stroke="midnightblue" points="1419.38,-157.804 1423.42,-148.009 1414.16,-153.148 1419.38,-157.804"/>
</g>
<!-- Node17 -->
<g id="node18" class="node"><title>Node17</title>
<polygon fill="white" stroke="#bfbfbf" points="1250,-129 1250,-148 1302,-148 1302,-129 1250,-129"/>
<text text-anchor="middle" x="1276" y="-136" font-family="Helvetica,sans-Serif" font-size="10.00">memory</text>
</g>
<!-- Node16&#45;&gt;Node17 -->
<g id="edge26" class="edge"><title>Node16&#45;&gt;Node17</title>
<path fill="none" stroke="midnightblue" d="M1363.39,-190.475C1346.65,-180.711 1319,-164.581 1299.28,-153.081"/>
<polygon fill="midnightblue" stroke="midnightblue" points="1300.99,-150.025 1290.59,-148.009 1297.46,-156.071 1300.99,-150.025"/>
</g>
<!-- Node18&#45;&gt;Node1 -->
<g id="edge33" class="edge"><title>Node18&#45;&gt;Node1</title>
<path fill="none" stroke="midnightblue" d="M1147.3,-190.332C1143.66,-174.303 1133.57,-140.106 1111,-123 1082.14,-101.133 991.044,-87.1807 924.125,-79.6069"/>
<polygon fill="midnightblue" stroke="midnightblue" points="924.346,-76.1101 914.022,-78.4908 923.577,-83.0678 924.346,-76.1101"/>
</g>
<!-- Node18&#45;&gt;Node8 -->
<g id="edge29" class="edge"><title>Node18&#45;&gt;Node8</title>
<path fill="none" stroke="midnightblue" d="M1151.04,-190.414C1155.16,-174.824 1165.96,-141.744 1187,-123 1215.76,-97.373 1258.56,-84.4387 1289.06,-78.1218"/>
<polygon fill="midnightblue" stroke="midnightblue" points="1289.73,-81.5556 1298.89,-76.2244 1288.41,-74.6824 1289.73,-81.5556"/>
</g>
<!-- Node18&#45;&gt;Node13 -->
<g id="edge30" class="edge"><title>Node18&#45;&gt;Node13</title>
<path fill="none" stroke="midnightblue" d="M1158.31,-190.475C1168.45,-181.197 1184.86,-166.171 1197.25,-154.831"/>
<polygon fill="midnightblue" stroke="midnightblue" points="1199.69,-157.343 1204.7,-148.009 1194.96,-152.18 1199.69,-157.343"/>
</g>
<!-- Node18&#45;&gt;Node14 -->
<g id="edge31" class="edge"><title>Node18&#45;&gt;Node14</title>
<path fill="none" stroke="midnightblue" d="M1191.69,-190.487C1225,-183.058 1272,-170.821 1311,-154 1311.7,-153.696 1312.41,-153.375 1313.12,-153.04"/>
<polygon fill="midnightblue" stroke="midnightblue" points="1315.02,-155.992 1322.14,-148.148 1311.68,-149.839 1315.02,-155.992"/>
</g>
<!-- Node19 -->
<g id="node20" class="node"><title>Node19</title>
<polygon fill="white" stroke="#bfbfbf" points="1046,-129 1046,-148 1102,-148 1102,-129 1046,-129"/>
<text text-anchor="middle" x="1074" y="-136" font-family="Helvetica,sans-Serif" font-size="10.00">algorithm</text>
</g>
<!-- Node18&#45;&gt;Node19 -->
<g id="edge32" class="edge"><title>Node18&#45;&gt;Node19</title>
<path fill="none" stroke="midnightblue" d="M1138.25,-190.475C1126.45,-181.108 1107.26,-165.884 1092.92,-154.508"/>
<polygon fill="midnightblue" stroke="midnightblue" points="1094.74,-151.482 1084.73,-148.009 1090.38,-156.966 1094.74,-151.482"/>
</g>
<!-- Node20&#45;&gt;Node7 -->
<g id="edge56" class="edge"><title>Node20&#45;&gt;Node7</title>
<path fill="none" stroke="midnightblue" d="M773.854,-246.404C726.326,-232.671 628.993,-205.732 545,-190 420.583,-166.697 385.066,-173.94 256.455,-154.154"/>
<polygon fill="midnightblue" stroke="midnightblue" points="256.631,-150.639 246.211,-152.552 255.55,-157.555 256.631,-150.639"/>
</g>
<!-- Node21 -->
<g id="node22" class="node"><title>Node21</title>
<polygon fill="white" stroke="#bfbfbf" points="0,-129 0,-148 58,-148 58,-129 0,-129"/>
<text text-anchor="middle" x="29" y="-136" font-family="Helvetica,sans-Serif" font-size="10.00">functional</text>
</g>
<!-- Node20&#45;&gt;Node21 -->
<g id="edge35" class="edge"><title>Node20&#45;&gt;Node21</title>
<path fill="none" stroke="midnightblue" d="M730.408,-247.08C600.928,-232.433 321.869,-198.501 89,-154 82.2107,-152.703 75.0337,-151.138 68.0955,-149.524"/>
<polygon fill="midnightblue" stroke="midnightblue" points="68.7139,-146.074 58.1738,-147.149 67.0841,-152.881 68.7139,-146.074"/>
</g>
<!-- Node20&#45;&gt;Node22 -->
<g id="edge36" class="edge"><title>Node20&#45;&gt;Node22</title>
<path fill="none" stroke="midnightblue" d="M806.137,-246.083C808.683,-238.849 812.356,-228.409 815.527,-219.397"/>
<polygon fill="midnightblue" stroke="midnightblue" points="818.903,-220.346 818.921,-209.751 812.3,-218.023 818.903,-220.346"/>
</g>
<!-- Node22&#45;&gt;Node1 -->
<g id="edge54" class="edge"><title>Node22&#45;&gt;Node1</title>
<path fill="none" stroke="midnightblue" d="M823.787,-190.305C827.694,-171.298 837.113,-125.47 842.985,-96.9004"/>
<polygon fill="midnightblue" stroke="midnightblue" points="846.458,-97.3879 845.043,-86.888 839.601,-95.9786 846.458,-97.3879"/>
</g>
<!-- Node22&#45;&gt;Node6 -->
<g id="edge37" class="edge"><title>Node22&#45;&gt;Node6</title>
<path fill="none" stroke="midnightblue" d="M847.275,-190.442C868.466,-182.65 899.02,-169.94 923,-154 939.758,-142.86 938.115,-132.222 956,-123 1156.14,-19.8042 1437.01,-10.6464 1529.3,-10.6057"/>
<polygon fill="midnightblue" stroke="midnightblue" points="1529.34,-14.1058 1539.35,-10.6385 1529.37,-7.10584 1529.34,-14.1058"/>
</g>
<!-- Node22&#45;&gt;Node7 -->
<g id="edge53" class="edge"><title>Node22&#45;&gt;Node7</title>
<path fill="none" stroke="midnightblue" d="M779.835,-195.56C759.102,-193.874 733.742,-191.82 711,-190 511.616,-174.046 458.162,-181.101 256.229,-154.069"/>
<polygon fill="midnightblue" stroke="midnightblue" points="256.565,-150.583 246.187,-152.714 255.629,-157.52 256.565,-150.583"/>
</g>
<!-- Node22&#45;&gt;Node8 -->
<g id="edge39" class="edge"><title>Node22&#45;&gt;Node8</title>
<path fill="none" stroke="midnightblue" d="M848.554,-190.443C875.671,-181.62 918.93,-167.312 956,-154 992.278,-140.973 999.842,-133.254 1037,-123 1125.79,-98.4971 1233.36,-83.4118 1288.86,-76.6663"/>
<polygon fill="midnightblue" stroke="midnightblue" points="1289.41,-80.1257 1298.92,-75.4657 1288.58,-73.175 1289.41,-80.1257"/>
</g>
<!-- Node22&#45;&gt;Node10 -->
<g id="edge40" class="edge"><title>Node22&#45;&gt;Node10</title>
<path fill="none" stroke="midnightblue" d="M779.823,-197.108C627.895,-190.196 116.927,-166.091 105,-154 88.9416,-137.721 91.5434,-109.57 95.6581,-90.9891"/>
<polygon fill="midnightblue" stroke="midnightblue" points="99.1047,-91.6384 98.1941,-81.0828 92.3234,-89.9024 99.1047,-91.6384"/>
</g>
<!-- Node22&#45;&gt;Node13 -->
<g id="edge44" class="edge"><title>Node22&#45;&gt;Node13</title>
<path fill="none" stroke="midnightblue" d="M864.323,-192.576C944.941,-180.339 1118.52,-153.993 1186.19,-143.722"/>
<polygon fill="midnightblue" stroke="midnightblue" points="1186.75,-147.177 1196.11,-142.216 1185.7,-140.256 1186.75,-147.177"/>
</g>
<!-- Node22&#45;&gt;Node14 -->
<g id="edge42" class="edge"><title>Node22&#45;&gt;Node14</title>
<path fill="none" stroke="midnightblue" d="M864.106,-197.546C966.92,-193.608 1228.39,-181.158 1311,-154 1312.06,-153.65 1313.13,-153.246 1314.19,-152.801"/>
<polygon fill="midnightblue" stroke="midnightblue" points="1316.09,-155.758 1323.31,-148.006 1312.83,-149.562 1316.09,-155.758"/>
</g>
<!-- Node22&#45;&gt;Node15 -->
<g id="edge47" class="edge"><title>Node22&#45;&gt;Node15</title>
<path fill="none" stroke="midnightblue" d="M864.222,-197.071C954.955,-192.571 1175.14,-179.754 1358,-154 1370.37,-152.258 1383.81,-149.763 1395.74,-147.334"/>
<polygon fill="midnightblue" stroke="midnightblue" points="1396.71,-150.708 1405.78,-145.235 1395.28,-143.856 1396.71,-150.708"/>
</g>
<!-- Node22&#45;&gt;Node17 -->
<g id="edge51" class="edge"><title>Node22&#45;&gt;Node17</title>
<path fill="none" stroke="midnightblue" d="M864.198,-198.278C940.378,-196.137 1105.47,-187.647 1240,-154 1242.67,-153.333 1245.4,-152.511 1248.1,-151.6"/>
<polygon fill="midnightblue" stroke="midnightblue" points="1249.5,-154.812 1257.64,-148.028 1247.05,-148.257 1249.5,-154.812"/>
</g>
<!-- Node22&#45;&gt;Node19 -->
<g id="edge45" class="edge"><title>Node22&#45;&gt;Node19</title>
<path fill="none" stroke="midnightblue" d="M858.105,-190.475C905.371,-179.315 987.85,-159.841 1036.02,-148.467"/>
<polygon fill="midnightblue" stroke="midnightblue" points="1036.83,-151.873 1045.76,-146.168 1035.22,-145.06 1036.83,-151.873"/>
</g>
<!-- Node22&#45;&gt;Node21 -->
<g id="edge49" class="edge"><title>Node22&#45;&gt;Node21</title>
<path fill="none" stroke="midnightblue" d="M779.92,-197.128C632.053,-190.46 141.457,-167.544 72,-154 68.1095,-153.241 64.0874,-152.221 60.1356,-151.071"/>
<polygon fill="midnightblue" stroke="midnightblue" points="61.1631,-147.725 50.5723,-148.02 59.0356,-154.394 61.1631,-147.725"/>
</g>
<!-- Node23 -->
<g id="node24" class="node"><title>Node23</title>
<polygon fill="white" stroke="#bfbfbf" points="868,-129 868,-148 914,-148 914,-129 868,-129"/>
<text text-anchor="middle" x="891" y="-136" font-family="Helvetica,sans-Serif" font-size="10.00">cstring</text>
</g>
<!-- Node22&#45;&gt;Node23 -->
<g id="edge38" class="edge"><title>Node22&#45;&gt;Node23</title>
<path fill="none" stroke="midnightblue" d="M831.886,-190.475C842.646,-181.197 860.071,-166.171 873.221,-154.831"/>
<polygon fill="midnightblue" stroke="midnightblue" points="875.845,-157.19 881.132,-148.009 871.273,-151.889 875.845,-157.19"/>
</g>
<!-- Node24 -->
<g id="node25" class="node"><title>Node24</title>
<polygon fill="white" stroke="#bfbfbf" points="264.5,-129 264.5,-148 311.5,-148 311.5,-129 264.5,-129"/>
<text text-anchor="middle" x="288" y="-136" font-family="Helvetica,sans-Serif" font-size="10.00">math.h</text>
</g>
<!-- Node22&#45;&gt;Node24 -->
<g id="edge41" class="edge"><title>Node22&#45;&gt;Node24</title>
<path fill="none" stroke="midnightblue" d="M779.774,-195.581C663.039,-186.08 343.095,-159.684 321,-154 318.699,-153.408 316.354,-152.673 314.03,-151.85"/>
<polygon fill="midnightblue" stroke="midnightblue" points="315.335,-148.602 304.751,-148.114 312.721,-155.095 315.335,-148.602"/>
</g>
<!-- Node25 -->
<g id="node26" class="node"><title>Node25</title>
<polygon fill="white" stroke="#bfbfbf" points="330,-129 330,-148 372,-148 372,-129 330,-129"/>
<text text-anchor="middle" x="351" y="-136" font-family="Helvetica,sans-Serif" font-size="10.00">vector</text>
</g>
<!-- Node22&#45;&gt;Node25 -->
<g id="edge43" class="edge"><title>Node22&#45;&gt;Node25</title>
<path fill="none" stroke="midnightblue" d="M779.858,-195.539C677.013,-186.974 418.811,-164.707 381,-154 379.122,-153.468 377.217,-152.824 375.326,-152.108"/>
<polygon fill="midnightblue" stroke="midnightblue" points="376.729,-148.901 366.165,-148.094 373.92,-155.313 376.729,-148.901"/>
</g>
<!-- Node26 -->
<g id="node27" class="node"><title>Node26</title>
<polygon fill="white" stroke="#bfbfbf" points="390,-129 390,-148 442,-148 442,-129 390,-129"/>
<text text-anchor="middle" x="416" y="-136" font-family="Helvetica,sans-Serif" font-size="10.00">assert.h</text>
</g>
<!-- Node22&#45;&gt;Node26 -->
<g id="edge46" class="edge"><title>Node22&#45;&gt;Node26</title>
<path fill="none" stroke="midnightblue" d="M779.91,-195.346C696.36,-187.856 512.343,-170.104 451,-154 448.551,-153.357 446.047,-152.579 443.559,-151.722"/>
<polygon fill="midnightblue" stroke="midnightblue" points="444.794,-148.447 434.203,-148.139 442.29,-154.984 444.794,-148.447"/>
</g>
<!-- Node27 -->
<g id="node28" class="node"><title>Node27</title>
<polygon fill="white" stroke="#bfbfbf" points="460,-129 460,-148 510,-148 510,-129 460,-129"/>
<text text-anchor="middle" x="485" y="-136" font-family="Helvetica,sans-Serif" font-size="10.00">iomanip</text>
</g>
<!-- Node22&#45;&gt;Node27 -->
<g id="edge48" class="edge"><title>Node22&#45;&gt;Node27</title>
<path fill="none" stroke="midnightblue" d="M779.876,-196.159C720.69,-191.402 609.97,-179.694 519,-154 516.707,-153.352 514.365,-152.588 512.034,-151.754"/>
<polygon fill="midnightblue" stroke="midnightblue" points="513.274,-148.48 502.688,-148.055 510.698,-154.989 513.274,-148.48"/>
</g>
<!-- Node28 -->
<g id="node29" class="node"><title>Node28</title>
<polygon fill="white" stroke="#bfbfbf" points="528.5,-129 528.5,-148 577.5,-148 577.5,-129 528.5,-129"/>
<text text-anchor="middle" x="553" y="-136" font-family="Helvetica,sans-Serif" font-size="10.00">fstream</text>
</g>
<!-- Node22&#45;&gt;Node28 -->
<g id="edge50" class="edge"><title>Node22&#45;&gt;Node28</title>
<path fill="none" stroke="midnightblue" d="M779.742,-193.687C732.185,-187.071 652.954,-174.125 587,-154 584.856,-153.346 582.663,-152.6 580.476,-151.8"/>
<polygon fill="midnightblue" stroke="midnightblue" points="581.669,-148.508 571.084,-148.06 579.079,-155.011 581.669,-148.508"/>
</g>
<!-- Node29 -->
<g id="node30" class="node"><title>Node29</title>
<polygon fill="white" stroke="#bfbfbf" points="596,-129 596,-148 700,-148 700,-129 596,-129"/>
<text text-anchor="middle" x="648" y="-136" font-family="Helvetica,sans-Serif" font-size="10.00">common/variant.hpp</text>
</g>
<!-- Node22&#45;&gt;Node29 -->
<g id="edge52" class="edge"><title>Node22&#45;&gt;Node29</title>
<path fill="none" stroke="midnightblue" d="M797.07,-190.475C766.964,-180.18 716.168,-162.81 682.362,-151.25"/>
<polygon fill="midnightblue" stroke="midnightblue" points="683.478,-147.933 672.884,-148.009 681.213,-154.556 683.478,-147.933"/>
</g>
<!-- Node30 -->
<g id="node31" class="node"><title>Node30</title>
<g id="a_node31"><a xlink:href="_vector3_8hpp.html" target="_top" xlink:title="Math/Vector3.hpp">
<polygon fill="white" stroke="black" points="718,-129 718,-148 812,-148 812,-129 718,-129"/>
<text text-anchor="middle" x="765" y="-136" font-family="Helvetica,sans-Serif" font-size="10.00">Math/Vector3.hpp</text>
</a>
</g>
</g>
<!-- Node22&#45;&gt;Node30 -->
<g id="edge55" class="edge"><title>Node22&#45;&gt;Node30</title>
<path fill="none" stroke="midnightblue" d="M813.833,-190.475C805.114,-181.373 791.096,-166.741 780.311,-155.483"/>
<polygon fill="midnightblue" stroke="midnightblue" points="782.597,-152.809 773.152,-148.009 777.542,-157.651 782.597,-152.809"/>
</g>
<!-- Node31&#45;&gt;Node20 -->
<g id="edge59" class="edge"><title>Node31&#45;&gt;Node20</title>
<path fill="none" stroke="midnightblue" d="M892.099,-307.975C875.032,-298.211 846.839,-282.081 826.738,-270.581"/>
<polygon fill="midnightblue" stroke="midnightblue" points="828.291,-267.437 817.873,-265.509 824.815,-273.513 828.291,-267.437"/>
</g>
<!-- Node31&#45;&gt;Node22 -->
<g id="edge60" class="edge"><title>Node31&#45;&gt;Node22</title>
<path fill="none" stroke="midnightblue" d="M905.942,-307.912C903.848,-293.805 898.092,-265.361 884,-246 874.616,-233.107 860.422,-222.42 847.982,-214.7"/>
<polygon fill="midnightblue" stroke="midnightblue" points="849.723,-211.664 839.328,-209.615 846.176,-217.699 849.723,-211.664"/>
</g>
<!-- Node32&#45;&gt;Node8 -->
<g id="edge62" class="edge"><title>Node32&#45;&gt;Node8</title>
<path fill="none" stroke="midnightblue" d="M1482.18,-302.384C1500.96,-267.898 1542.49,-178.161 1501,-123 1484.43,-100.975 1409.29,-85.53 1363.02,-77.9161"/>
<polygon fill="midnightblue" stroke="midnightblue" points="1363.48,-74.4457 1353.06,-76.3235 1362.38,-81.358 1363.48,-74.4457"/>
</g>
</g>
</svg>
        <g id="navigator" transform="translate(0 0)" fill="#404254">
                <rect fill="#f2f5e9" fill-opacity="0.5" stroke="#606060" stroke-width=".5" x="0" y="0" width="60" height="60"/>
                <use id="zoomplus" xlink:href="#zoomPlus" x="17" y="9" onmousedown="handleZoom(evt,'in')"/>
                <use id="zoomminus" xlink:href="#zoomMin" x="42" y="9" onmousedown="handleZoom(evt,'out')"/>
                <use id="reset" xlink:href="#resetDef" x="30" y="36" onmousedown="handleReset()"/>
                <g id="arrowUp" xlink:href="#dirArrow" transform="translate(30 24)" onmousedown="handlePan(0,-1)">
                  <use xlink:href="#rim" fill="#404040">
                        <set attributeName="fill" to="#808080" begin="arrowUp.mouseover" end="arrowUp.mouseout"/>
                  </use>
                  <path fill="none" stroke="white" stroke-width="1.5" d="M0,-3.0v7 M-2.5,-0.5L0,-3.0L2.5,-0.5"/>
                </g>
                <g id="arrowRight" xlink:href="#dirArrow" transform="rotate(90) translate(36 -43)" onmousedown="handlePan(1,0)">
                  <use xlink:href="#rim" fill="#404040">
                        <set attributeName="fill" to="#808080" begin="arrowRight.mouseover" end="arrowRight.mouseout"/>
                  </use>
                  <path fill="none" stroke="white" stroke-width="1.5" d="M0,-3.0v7 M-2.5,-0.5L0,-3.0L2.5,-0.5"/>
                </g>
                <g id="arrowDown" xlink:href="#dirArrow" transform="rotate(180) translate(-30 -48)" onmousedown="handlePan(0,1)">
                  <use xlink:href="#rim" fill="#404040">
                        <set attributeName="fill" to="#808080" begin="arrowDown.mouseover" end="arrowDown.mouseout"/>
                  </use>
                  <path fill="none" stroke="white" stroke-width="1.5" d="M0,-3.0v7 M-2.5,-0.5L0,-3.0L2.5,-0.5"/>
                </g>
                <g id="arrowLeft" xlink:href="#dirArrow" transform="rotate(270) translate(-36 17)" onmousedown="handlePan(-1,0)">
                  <use xlink:href="#rim" fill="#404040">
                        <set attributeName="fill" to="#808080" begin="arrowLeft.mouseover" end="arrowLeft.mouseout"/>
                  </use>
                  <path fill="none" stroke="white" stroke-width="1.5" d="M0,-3.0v7 M-2.5,-0.5L0,-3.0L2.5,-0.5"/>
                </g>
        </g>
        <svg viewBox="0 0 15 15" width="100%" height="30px" preserveAspectRatio="xMaxYMin meet">
         <g id="arrow_out" transform="scale(0.3 0.3)">
          <a xlink:href="_n_f_i_component_8h__incl_org.svg" target="_base">
           <rect id="button" ry="5" rx="5" y="6" x="6" height="38" width="38"
                fill="#f2f5e9" fill-opacity="0.5" stroke="#606060" stroke-width="1.0"/>
           <path id="arrow"
             d="M 11.500037,31.436501 C 11.940474,20.09759 22.043105,11.32322 32.158766,21.979434 L 37.068811,17.246167 C 37.068811,17.246167 37.088388,32 37.088388,32 L 22.160133,31.978069 C 22.160133,31.978069 26.997745,27.140456 26.997745,27.140456 C 18.528582,18.264221 13.291696,25.230495 11.500037,31.436501 z"
             style="fill:#404040;"/>
          </a>
         </g>
        </svg>
</svg>
