<?xml version="1.0" encoding="UTF-8" standalone="no"?>
<!DOCTYPE svg PUBLIC "-//W3C//DTD SVG 1.1//EN"
 "http://www.w3.org/Graphics/SVG/1.1/DTD/svg11.dtd">
<!-- Generated by graphviz version 2.38.0 (20140413.2041)
 -->
<!-- Title: NFConfigPlugin.h Pages: 1 -->
<svg width="380pt" height="84pt"
 viewBox="0.00 0.00 379.50 84.00" xmlns="http://www.w3.org/2000/svg" xmlns:xlink="http://www.w3.org/1999/xlink">
<g id="graph0" class="graph" transform="scale(1 1) rotate(0) translate(4 80)">
<title>NFConfigPlugin.h</title>
<polygon fill="white" stroke="none" points="-4,4 -4,-80 375.5,-80 375.5,4 -4,4"/>
<!-- Node35 -->
<g id="node1" class="node"><title>Node35</title>
<polygon fill="#bfbfbf" stroke="black" points="144.5,-56.5 144.5,-75.5 236.5,-75.5 236.5,-56.5 144.5,-56.5"/>
<text text-anchor="middle" x="190.5" y="-63.5" font-family="Helvetica,sans-Serif" font-size="10.00">NFConfigPlugin.h</text>
</g>
<!-- Node36 -->
<g id="node2" class="node"><title>Node36</title>
<g id="a_node2"><a xlink:href="_n_f_c_class_module_8cpp.html" target="_top" xlink:title="NFCClassModule.cpp">
<polygon fill="white" stroke="black" points="0,-0.5 0,-19.5 111,-19.5 111,-0.5 0,-0.5"/>
<text text-anchor="middle" x="55.5" y="-7.5" font-family="Helvetica,sans-Serif" font-size="10.00">NFCClassModule.cpp</text>
</a>
</g>
</g>
<!-- Node35&#45;&gt;Node36 -->
<g id="edge1" class="edge"><title>Node35&#45;&gt;Node36</title>
<path fill="none" stroke="midnightblue" d="M159.594,-52.6377C134.26,-42.504 99.0686,-28.4274 76.7911,-19.5164"/>
<polygon fill="midnightblue" stroke="midnightblue" points="158.524,-55.9792 169.109,-56.4435 161.124,-49.4799 158.524,-55.9792"/>
</g>
<!-- Node37 -->
<g id="node3" class="node"><title>Node37</title>
<g id="a_node3"><a xlink:href="_n_f_c_element_module_8cpp.html" target="_top" xlink:title="NFCElementModule.cpp">
<polygon fill="white" stroke="black" points="129.5,-0.5 129.5,-19.5 251.5,-19.5 251.5,-0.5 129.5,-0.5"/>
<text text-anchor="middle" x="190.5" y="-7.5" font-family="Helvetica,sans-Serif" font-size="10.00">NFCElementModule.cpp</text>
</a>
</g>
</g>
<!-- Node35&#45;&gt;Node37 -->
<g id="edge2" class="edge"><title>Node35&#45;&gt;Node37</title>
<path fill="none" stroke="midnightblue" d="M190.5,-45.8045C190.5,-36.9102 190.5,-26.7798 190.5,-19.7511"/>
<polygon fill="midnightblue" stroke="midnightblue" points="187,-46.083 190.5,-56.083 194,-46.083 187,-46.083"/>
</g>
<!-- Node38 -->
<g id="node4" class="node"><title>Node38</title>
<g id="a_node4"><a xlink:href="_n_f_config_plugin_8cpp.html" target="_top" xlink:title="NFConfigPlugin.cpp">
<polygon fill="white" stroke="black" points="269.5,-0.5 269.5,-19.5 371.5,-19.5 371.5,-0.5 269.5,-0.5"/>
<text text-anchor="middle" x="320.5" y="-7.5" font-family="Helvetica,sans-Serif" font-size="10.00">NFConfigPlugin.cpp</text>
</a>
</g>
</g>
<!-- Node35&#45;&gt;Node38 -->
<g id="edge3" class="edge"><title>Node35&#45;&gt;Node38</title>
<path fill="none" stroke="midnightblue" d="M220.585,-52.503C244.957,-42.3795 278.64,-28.388 299.997,-19.5164"/>
<polygon fill="midnightblue" stroke="midnightblue" points="218.991,-49.3752 211.099,-56.4435 221.677,-55.8397 218.991,-49.3752"/>
</g>
</g>
</svg>
