<?xml version="1.0" encoding="UTF-8" standalone="no"?>
<!DOCTYPE svg PUBLIC "-//W3C//DTD SVG 1.1//EN"
 "http://www.w3.org/Graphics/SVG/1.1/DTD/svg11.dtd">
<!-- Generated by graphviz version 2.38.0 (20140413.2041)
 -->
<!-- Title: NFCLogModule.cpp Pages: 1 -->
<svg width="2531pt" height="576pt"
 viewBox="0.00 0.00 2531.00 576.00" xmlns="http://www.w3.org/2000/svg" xmlns:xlink="http://www.w3.org/1999/xlink">
<g id="graph0" class="graph" transform="scale(1 1) rotate(0) translate(4 572)">
<title>NFCLogModule.cpp</title>
<polygon fill="white" stroke="none" points="-4,4 -4,-572 2527,-572 2527,4 -4,4"/>
<!-- Node0 -->
<g id="node1" class="node"><title>Node0</title>
<polygon fill="#bfbfbf" stroke="black" points="1726,-548.5 1726,-567.5 1828,-567.5 1828,-548.5 1726,-548.5"/>
<text text-anchor="middle" x="1777" y="-555.5" font-family="Helvetica,sans-Serif" font-size="10.00">NFCLogModule.cpp</text>
</g>
<!-- Node1 -->
<g id="node2" class="node"><title>Node1</title>
<g id="a_node2"><a xlink:href="_n_f_c_log_module_8h.html" target="_top" xlink:title="NFCLogModule.h">
<polygon fill="white" stroke="black" points="1348,-492.5 1348,-511.5 1440,-511.5 1440,-492.5 1348,-492.5"/>
<text text-anchor="middle" x="1394" y="-499.5" font-family="Helvetica,sans-Serif" font-size="10.00">NFCLogModule.h</text>
</a>
</g>
</g>
<!-- Node0&#45;&gt;Node1 -->
<g id="edge1" class="edge"><title>Node0&#45;&gt;Node1</title>
<path fill="none" stroke="midnightblue" d="M1725.74,-549.773C1654.1,-539.672 1524.49,-521.398 1450.26,-510.932"/>
<polygon fill="midnightblue" stroke="midnightblue" points="1450.55,-507.439 1440.16,-509.509 1449.58,-514.371 1450.55,-507.439"/>
</g>
<!-- Node4 -->
<g id="node5" class="node"><title>Node4</title>
<polygon fill="white" stroke="#bfbfbf" points="1139.5,-0.5 1139.5,-19.5 1180.5,-19.5 1180.5,-0.5 1139.5,-0.5"/>
<text text-anchor="middle" x="1160" y="-7.5" font-family="Helvetica,sans-Serif" font-size="10.00">string</text>
</g>
<!-- Node0&#45;&gt;Node4 -->
<g id="edge73" class="edge"><title>Node0&#45;&gt;Node4</title>
<path fill="none" stroke="midnightblue" d="M1767.96,-548.372C1750.1,-530.344 1712,-486.598 1712,-441.5 1712,-441.5 1712,-441.5 1712,-137.5 1712,-29.7539 1307.37,-13.7778 1190.97,-11.4111"/>
<polygon fill="midnightblue" stroke="midnightblue" points="1190.69,-7.90552 1180.63,-11.2219 1190.57,-14.9043 1190.69,-7.90552"/>
</g>
<!-- Node6 -->
<g id="node7" class="node"><title>Node6</title>
<polygon fill="white" stroke="#bfbfbf" points="1345.5,-129 1345.5,-148 1380.5,-148 1380.5,-129 1345.5,-129"/>
<text text-anchor="middle" x="1363" y="-136" font-family="Helvetica,sans-Serif" font-size="10.00">map</text>
</g>
<!-- Node0&#45;&gt;Node6 -->
<g id="edge75" class="edge"><title>Node0&#45;&gt;Node6</title>
<path fill="none" stroke="midnightblue" d="M1725.97,-552.455C1660.98,-543.544 1557,-517.423 1557,-441.5 1557,-441.5 1557,-441.5 1557,-316.5 1557,-213.433 1404.99,-297.793 1351,-210 1341.17,-194.018 1347.13,-172.336 1353.66,-157.254"/>
<polygon fill="midnightblue" stroke="midnightblue" points="1356.92,-158.549 1358.09,-148.019 1350.61,-155.524 1356.92,-158.549"/>
</g>
<!-- Node8 -->
<g id="node9" class="node"><title>Node8</title>
<polygon fill="white" stroke="#bfbfbf" points="1494,-62 1494,-81 1548,-81 1548,-62 1494,-62"/>
<text text-anchor="middle" x="1521" y="-69" font-family="Helvetica,sans-Serif" font-size="10.00">iostream</text>
</g>
<!-- Node0&#45;&gt;Node8 -->
<g id="edge80" class="edge"><title>Node0&#45;&gt;Node8</title>
<path fill="none" stroke="midnightblue" d="M1752.45,-548.456C1735.02,-541.234 1712.28,-529.278 1698,-512 1676.92,-486.484 1674,-474.599 1674,-441.5 1674,-441.5 1674,-441.5 1674,-199 1674,-138.794 1602.76,-101.853 1557.51,-84.4584"/>
<polygon fill="midnightblue" stroke="midnightblue" points="1558.59,-81.1295 1548,-80.9438 1556.17,-87.695 1558.59,-81.1295"/>
</g>
<!-- Node11 -->
<g id="node12" class="node"><title>Node11</title>
<polygon fill="white" stroke="#bfbfbf" points="1008,-129 1008,-148 1060,-148 1060,-129 1008,-129"/>
<text text-anchor="middle" x="1034" y="-136" font-family="Helvetica,sans-Serif" font-size="10.00">memory</text>
</g>
<!-- Node0&#45;&gt;Node11 -->
<g id="edge82" class="edge"><title>Node0&#45;&gt;Node11</title>
<path fill="none" stroke="midnightblue" d="M1725.88,-554.281C1560.4,-544.807 1050,-510.032 1050,-441.5 1050,-441.5 1050,-441.5 1050,-255 1050,-220.538 1042.92,-180.834 1038.18,-158.099"/>
<polygon fill="midnightblue" stroke="midnightblue" points="1041.56,-157.169 1036.03,-148.137 1034.72,-158.651 1041.56,-157.169"/>
</g>
<!-- Node15 -->
<g id="node16" class="node"><title>Node15</title>
<polygon fill="white" stroke="#bfbfbf" points="1461,-0.5 1461,-19.5 1513,-19.5 1513,-0.5 1461,-0.5"/>
<text text-anchor="middle" x="1487" y="-7.5" font-family="Helvetica,sans-Serif" font-size="10.00">sstream</text>
</g>
<!-- Node0&#45;&gt;Node15 -->
<g id="edge81" class="edge"><title>Node0&#45;&gt;Node15</title>
<path fill="none" stroke="midnightblue" d="M1773.58,-548.467C1766.32,-529.541 1750,-482.479 1750,-441.5 1750,-441.5 1750,-441.5 1750,-137.5 1750,-99.7399 1754.01,-81.3287 1726,-56 1696.68,-29.4828 1582.38,-17.6815 1523.1,-13.2556"/>
<polygon fill="midnightblue" stroke="midnightblue" points="1523.28,-9.75911 1513.05,-12.5365 1522.78,-16.7413 1523.28,-9.75911"/>
</g>
<!-- Node18 -->
<g id="node19" class="node"><title>Node18</title>
<polygon fill="white" stroke="#bfbfbf" points="1399,-129 1399,-148 1455,-148 1455,-129 1399,-129"/>
<text text-anchor="middle" x="1427" y="-136" font-family="Helvetica,sans-Serif" font-size="10.00">algorithm</text>
</g>
<!-- Node0&#45;&gt;Node18 -->
<g id="edge78" class="edge"><title>Node0&#45;&gt;Node18</title>
<path fill="none" stroke="midnightblue" d="M1731.83,-548.401C1678.8,-535.384 1598,-505.113 1598,-441.5 1598,-441.5 1598,-441.5 1598,-255 1598,-191.32 1515.56,-160.387 1465.16,-147.427"/>
<polygon fill="midnightblue" stroke="midnightblue" points="1465.78,-143.976 1455.24,-145 1464.12,-150.776 1465.78,-143.976"/>
</g>
<!-- Node20 -->
<g id="node21" class="node"><title>Node20</title>
<polygon fill="white" stroke="#bfbfbf" points="0,-129 0,-148 58,-148 58,-129 0,-129"/>
<text text-anchor="middle" x="29" y="-136" font-family="Helvetica,sans-Serif" font-size="10.00">functional</text>
</g>
<!-- Node0&#45;&gt;Node20 -->
<g id="edge77" class="edge"><title>Node0&#45;&gt;Node20</title>
<path fill="none" stroke="midnightblue" d="M1725.75,-555.766C1463.92,-549.132 288,-515.234 288,-441.5 288,-441.5 288,-441.5 288,-255 288,-230.833 135.646,-175.795 64.6391,-151.456"/>
<polygon fill="midnightblue" stroke="midnightblue" points="65.3753,-148.009 54.7808,-148.095 63.1165,-154.635 65.3753,-148.009"/>
</g>
<!-- Node22 -->
<g id="node23" class="node"><title>Node22</title>
<polygon fill="white" stroke="#bfbfbf" points="816,-129 816,-148 862,-148 862,-129 816,-129"/>
<text text-anchor="middle" x="839" y="-136" font-family="Helvetica,sans-Serif" font-size="10.00">cstring</text>
</g>
<!-- Node0&#45;&gt;Node22 -->
<g id="edge66" class="edge"><title>Node0&#45;&gt;Node22</title>
<path fill="none" stroke="midnightblue" d="M1725.75,-557.568C1570.74,-558.75 1108.87,-558.199 967,-512 912.141,-494.136 858,-499.194 858,-441.5 858,-441.5 858,-441.5 858,-255 858,-220.405 849.598,-180.745 843.968,-158.055"/>
<polygon fill="midnightblue" stroke="midnightblue" points="847.291,-156.924 841.406,-148.114 840.513,-158.671 847.291,-156.924"/>
</g>
<!-- Node25 -->
<g id="node26" class="node"><title>Node25</title>
<polygon fill="white" stroke="#bfbfbf" points="880,-129 880,-148 922,-148 922,-129 880,-129"/>
<text text-anchor="middle" x="901" y="-136" font-family="Helvetica,sans-Serif" font-size="10.00">vector</text>
</g>
<!-- Node0&#45;&gt;Node25 -->
<g id="edge74" class="edge"><title>Node0&#45;&gt;Node25</title>
<path fill="none" stroke="midnightblue" d="M1725.81,-557.31C1580.58,-557.649 1168.2,-554.715 1041,-512 987.364,-493.988 935,-498.079 935,-441.5 935,-441.5 935,-441.5 935,-255 935,-219.271 919.842,-179.762 909.768,-157.45"/>
<polygon fill="midnightblue" stroke="midnightblue" points="912.858,-155.795 905.445,-148.226 906.52,-158.766 912.858,-155.795"/>
</g>
<!-- Node28 -->
<g id="node29" class="node"><title>Node28</title>
<polygon fill="white" stroke="#bfbfbf" points="940.5,-129 940.5,-148 989.5,-148 989.5,-129 940.5,-129"/>
<text text-anchor="middle" x="965" y="-136" font-family="Helvetica,sans-Serif" font-size="10.00">fstream</text>
</g>
<!-- Node0&#45;&gt;Node28 -->
<g id="edge79" class="edge"><title>Node0&#45;&gt;Node28</title>
<path fill="none" stroke="midnightblue" d="M1725.74,-555.896C1596.43,-552.699 1259.62,-541.691 1152,-512 1084.84,-493.472 1012,-511.166 1012,-441.5 1012,-441.5 1012,-441.5 1012,-255 1012,-217.85 990.881,-178.606 976.956,-156.769"/>
<polygon fill="midnightblue" stroke="midnightblue" points="979.776,-154.688 971.339,-148.281 973.939,-158.552 979.776,-154.688"/>
</g>
<!-- Node35 -->
<g id="node36" class="node"><title>Node35</title>
<polygon fill="white" stroke="#bfbfbf" points="1778,-492.5 1778,-511.5 1830,-511.5 1830,-492.5 1778,-492.5"/>
<text text-anchor="middle" x="1804" y="-499.5" font-family="Helvetica,sans-Serif" font-size="10.00">stdarg.h</text>
</g>
<!-- Node0&#45;&gt;Node35 -->
<g id="edge63" class="edge"><title>Node0&#45;&gt;Node35</title>
<path fill="none" stroke="midnightblue" d="M1781.46,-548.083C1785.15,-540.691 1790.52,-529.953 1795.09,-520.811"/>
<polygon fill="midnightblue" stroke="midnightblue" points="1798.28,-522.261 1799.62,-511.751 1792.02,-519.13 1798.28,-522.261"/>
</g>
<!-- Node36 -->
<g id="node37" class="node"><title>Node36</title>
<polygon fill="white" stroke="#bfbfbf" points="1848.5,-492.5 1848.5,-511.5 1937.5,-511.5 1937.5,-492.5 1848.5,-492.5"/>
<text text-anchor="middle" x="1893" y="-499.5" font-family="Helvetica,sans-Serif" font-size="10.00">easylogging++.h</text>
</g>
<!-- Node0&#45;&gt;Node36 -->
<g id="edge64" class="edge"><title>Node0&#45;&gt;Node36</title>
<path fill="none" stroke="midnightblue" d="M1795.38,-548.444C1814.22,-539.675 1843.73,-525.935 1865.38,-515.858"/>
<polygon fill="midnightblue" stroke="midnightblue" points="1867.12,-518.91 1874.71,-511.516 1864.16,-512.564 1867.12,-518.91"/>
</g>
<!-- Node37 -->
<g id="node38" class="node"><title>Node37</title>
<polygon fill="white" stroke="#bfbfbf" points="1955.5,-492.5 1955.5,-511.5 1996.5,-511.5 1996.5,-492.5 1955.5,-492.5"/>
<text text-anchor="middle" x="1976" y="-499.5" font-family="Helvetica,sans-Serif" font-size="10.00">ctime</text>
</g>
<!-- Node0&#45;&gt;Node37 -->
<g id="edge65" class="edge"><title>Node0&#45;&gt;Node37</title>
<path fill="none" stroke="midnightblue" d="M1810.98,-548.454C1843.37,-540.21 1893.71,-527.138 1945.71,-512.291"/>
<polygon fill="midnightblue" stroke="midnightblue" points="1946.79,-515.623 1955.44,-509.499 1944.86,-508.895 1946.79,-515.623"/>
</g>
<!-- Node38 -->
<g id="node39" class="node"><title>Node38</title>
<polygon fill="white" stroke="#bfbfbf" points="2014.5,-492.5 2014.5,-511.5 2059.5,-511.5 2059.5,-492.5 2014.5,-492.5"/>
<text text-anchor="middle" x="2037" y="-499.5" font-family="Helvetica,sans-Serif" font-size="10.00">cstdlib</text>
</g>
<!-- Node0&#45;&gt;Node38 -->
<g id="edge67" class="edge"><title>Node0&#45;&gt;Node38</title>
<path fill="none" stroke="midnightblue" d="M1827.31,-548.436C1871.71,-540.58 1938.36,-528.066 2004.61,-512.186"/>
<polygon fill="midnightblue" stroke="midnightblue" points="2005.48,-515.576 2014.38,-509.819 2003.83,-508.773 2005.48,-515.576"/>
</g>
<!-- Node39 -->
<g id="node40" class="node"><title>Node39</title>
<polygon fill="white" stroke="#bfbfbf" points="2078,-492.5 2078,-511.5 2124,-511.5 2124,-492.5 2078,-492.5"/>
<text text-anchor="middle" x="2101" y="-499.5" font-family="Helvetica,sans-Serif" font-size="10.00">cctype</text>
</g>
<!-- Node0&#45;&gt;Node39 -->
<g id="edge68" class="edge"><title>Node0&#45;&gt;Node39</title>
<path fill="none" stroke="midnightblue" d="M1828.25,-551.014C1884.71,-543.994 1978.34,-531.1 2067.64,-512.081"/>
<polygon fill="midnightblue" stroke="midnightblue" points="2068.63,-515.449 2077.66,-509.916 2067.15,-508.606 2068.63,-515.449"/>
</g>
<!-- Node40 -->
<g id="node41" class="node"><title>Node40</title>
<polygon fill="white" stroke="#bfbfbf" points="2142.5,-492.5 2142.5,-511.5 2189.5,-511.5 2189.5,-492.5 2142.5,-492.5"/>
<text text-anchor="middle" x="2166" y="-499.5" font-family="Helvetica,sans-Serif" font-size="10.00">cwchar</text>
</g>
<!-- Node0&#45;&gt;Node40 -->
<g id="edge69" class="edge"><title>Node0&#45;&gt;Node40</title>
<path fill="none" stroke="midnightblue" d="M1828.06,-552.819C1895.55,-546.79 2018.26,-534.098 2132.35,-511.86"/>
<polygon fill="midnightblue" stroke="midnightblue" points="2133.17,-515.265 2142.3,-509.891 2131.81,-508.398 2133.17,-515.265"/>
</g>
<!-- Node41 -->
<g id="node42" class="node"><title>Node41</title>
<polygon fill="white" stroke="#bfbfbf" points="2207.5,-492.5 2207.5,-511.5 2254.5,-511.5 2254.5,-492.5 2207.5,-492.5"/>
<text text-anchor="middle" x="2231" y="-499.5" font-family="Helvetica,sans-Serif" font-size="10.00">csignal</text>
</g>
<!-- Node0&#45;&gt;Node41 -->
<g id="edge70" class="edge"><title>Node0&#45;&gt;Node41</title>
<path fill="none" stroke="midnightblue" d="M1828.08,-554.328C1905.98,-549.645 2059.2,-538.051 2197.42,-512.031"/>
<polygon fill="midnightblue" stroke="midnightblue" points="2198.18,-515.449 2207.34,-510.132 2196.86,-508.574 2198.18,-515.449"/>
</g>
<!-- Node42 -->
<g id="node43" class="node"><title>Node42</title>
<polygon fill="white" stroke="#bfbfbf" points="2273,-492.5 2273,-511.5 2317,-511.5 2317,-492.5 2273,-492.5"/>
<text text-anchor="middle" x="2295" y="-499.5" font-family="Helvetica,sans-Serif" font-size="10.00">cerrno</text>
</g>
<!-- Node0&#45;&gt;Node42 -->
<g id="edge71" class="edge"><title>Node0&#45;&gt;Node42</title>
<path fill="none" stroke="midnightblue" d="M1828.28,-555.468C1915.71,-552.16 2099.23,-542.191 2262.54,-511.93"/>
<polygon fill="midnightblue" stroke="midnightblue" points="2263.59,-515.294 2272.77,-510.003 2262.3,-508.415 2263.59,-515.294"/>
</g>
<!-- Node43 -->
<g id="node44" class="node"><title>Node43</title>
<polygon fill="white" stroke="#bfbfbf" points="2335.5,-492.5 2335.5,-511.5 2384.5,-511.5 2384.5,-492.5 2335.5,-492.5"/>
<text text-anchor="middle" x="2360" y="-499.5" font-family="Helvetica,sans-Serif" font-size="10.00">cstdarg</text>
</g>
<!-- Node0&#45;&gt;Node43 -->
<g id="edge72" class="edge"><title>Node0&#45;&gt;Node43</title>
<path fill="none" stroke="midnightblue" d="M1828.09,-555.825C1923.86,-552.971 2136.91,-543.535 2325.15,-511.823"/>
<polygon fill="midnightblue" stroke="midnightblue" points="2325.96,-515.235 2335.23,-510.099 2324.78,-508.335 2325.96,-515.235"/>
</g>
<!-- Node44 -->
<g id="node45" class="node"><title>Node44</title>
<polygon fill="white" stroke="#bfbfbf" points="2403,-492.5 2403,-511.5 2443,-511.5 2443,-492.5 2403,-492.5"/>
<text text-anchor="middle" x="2423" y="-499.5" font-family="Helvetica,sans-Serif" font-size="10.00">utility</text>
</g>
<!-- Node0&#45;&gt;Node44 -->
<g id="edge76" class="edge"><title>Node0&#45;&gt;Node44</title>
<path fill="none" stroke="midnightblue" d="M1828.3,-557.189C1933.11,-556.731 2179.29,-551.325 2393.04,-511.742"/>
<polygon fill="midnightblue" stroke="midnightblue" points="2393.69,-515.181 2402.87,-509.892 2392.39,-508.301 2393.69,-515.181"/>
</g>
<!-- Node45 -->
<g id="node46" class="node"><title>Node45</title>
<polygon fill="white" stroke="#bfbfbf" points="2461,-492.5 2461,-511.5 2523,-511.5 2523,-492.5 2461,-492.5"/>
<text text-anchor="middle" x="2492" y="-499.5" font-family="Helvetica,sans-Serif" font-size="10.00">type_traits</text>
</g>
<!-- Node0&#45;&gt;Node45 -->
<g id="edge83" class="edge"><title>Node0&#45;&gt;Node45</title>
<path fill="none" stroke="midnightblue" d="M1828.09,-556.287C1939.52,-554.152 2212.81,-545.768 2450.43,-512.008"/>
<polygon fill="midnightblue" stroke="midnightblue" points="2451.24,-515.426 2460.64,-510.537 2450.25,-508.498 2451.24,-515.426"/>
</g>
<!-- Node2 -->
<g id="node3" class="node"><title>Node2</title>
<g id="a_node3"><a xlink:href="_n_f_i_log_module_8h.html" target="_top" xlink:title="NFComm/NFPluginModule\l/NFILogModule.h">
<polygon fill="white" stroke="black" points="1238,-425.5 1238,-455.5 1370,-455.5 1370,-425.5 1238,-425.5"/>
<text text-anchor="start" x="1246" y="-443.5" font-family="Helvetica,sans-Serif" font-size="10.00">NFComm/NFPluginModule</text>
<text text-anchor="middle" x="1304" y="-432.5" font-family="Helvetica,sans-Serif" font-size="10.00">/NFILogModule.h</text>
</a>
</g>
</g>
<!-- Node1&#45;&gt;Node2 -->
<g id="edge2" class="edge"><title>Node1&#45;&gt;Node2</title>
<path fill="none" stroke="midnightblue" d="M1381.11,-492.475C1368.8,-484.341 1349.82,-471.791 1333.77,-461.179"/>
<polygon fill="midnightblue" stroke="midnightblue" points="1335.48,-458.118 1325.21,-455.523 1331.62,-463.958 1335.48,-458.118"/>
</g>
<!-- Node3 -->
<g id="node4" class="node"><title>Node3</title>
<g id="a_node4"><a xlink:href="_n_f_i_module_8h.html" target="_top" xlink:title="NFIModule.h">
<polygon fill="white" stroke="black" points="1116.5,-369.5 1116.5,-388.5 1187.5,-388.5 1187.5,-369.5 1116.5,-369.5"/>
<text text-anchor="middle" x="1152" y="-376.5" font-family="Helvetica,sans-Serif" font-size="10.00">NFIModule.h</text>
</a>
</g>
</g>
<!-- Node2&#45;&gt;Node3 -->
<g id="edge3" class="edge"><title>Node2&#45;&gt;Node3</title>
<path fill="none" stroke="midnightblue" d="M1267.98,-425.399C1242.36,-415.372 1208.27,-402.028 1183.69,-392.405"/>
<polygon fill="midnightblue" stroke="midnightblue" points="1184.71,-389.044 1174.12,-388.658 1182.15,-395.562 1184.71,-389.044"/>
</g>
<!-- Node3&#45;&gt;Node4 -->
<g id="edge4" class="edge"><title>Node3&#45;&gt;Node4</title>
<path fill="none" stroke="midnightblue" d="M1143.63,-369.427C1126.29,-350.704 1088,-304.054 1088,-257 1088,-257 1088,-257 1088,-137.5 1088,-92.7129 1122.51,-49.3074 1143.75,-26.8372"/>
<polygon fill="midnightblue" stroke="midnightblue" points="1146.39,-29.1387 1150.88,-19.5422 1141.39,-24.2442 1146.39,-29.1387"/>
</g>
<!-- Node5 -->
<g id="node6" class="node"><title>Node5</title>
<g id="a_node6"><a xlink:href="_n_f_map_8h.html" target="_top" xlink:title="NFComm/NFCore/NFMap.h">
<polygon fill="white" stroke="black" points="1187.5,-246.5 1187.5,-265.5 1324.5,-265.5 1324.5,-246.5 1187.5,-246.5"/>
<text text-anchor="middle" x="1256" y="-253.5" font-family="Helvetica,sans-Serif" font-size="10.00">NFComm/NFCore/NFMap.h</text>
</a>
</g>
</g>
<!-- Node3&#45;&gt;Node5 -->
<g id="edge5" class="edge"><title>Node3&#45;&gt;Node5</title>
<path fill="none" stroke="midnightblue" d="M1159.48,-369.298C1176.72,-349.24 1219.48,-299.489 1241.85,-273.463"/>
<polygon fill="midnightblue" stroke="midnightblue" points="1244.72,-275.488 1248.59,-265.623 1239.42,-270.926 1244.72,-275.488"/>
</g>
<!-- Node17 -->
<g id="node18" class="node"><title>Node17</title>
<g id="a_node18"><a xlink:href="_n_f_list_8h.html" target="_top" xlink:title="NFComm/NFCore/NFList.h">
<polygon fill="white" stroke="black" points="1360,-190.5 1360,-209.5 1494,-209.5 1494,-190.5 1360,-190.5"/>
<text text-anchor="middle" x="1427" y="-197.5" font-family="Helvetica,sans-Serif" font-size="10.00">NFComm/NFCore/NFList.h</text>
</a>
</g>
</g>
<!-- Node3&#45;&gt;Node17 -->
<g id="edge24" class="edge"><title>Node3&#45;&gt;Node17</title>
<path fill="none" stroke="midnightblue" d="M1166.7,-369.248C1197.74,-350.7 1272.09,-305.868 1333,-266 1358.8,-249.115 1387.91,-228.78 1406.81,-215.404"/>
<polygon fill="midnightblue" stroke="midnightblue" points="1408.84,-218.256 1414.97,-209.613 1404.79,-212.548 1408.84,-218.256"/>
</g>
<!-- Node19 -->
<g id="node20" class="node"><title>Node19</title>
<g id="a_node20"><a xlink:href="_n_f_define_8h.html" target="_top" xlink:title="NFComm/NFCore/NFDefine.h">
<polygon fill="white" stroke="black" points="576.5,-246.5 576.5,-265.5 721.5,-265.5 721.5,-246.5 576.5,-246.5"/>
<text text-anchor="middle" x="649" y="-253.5" font-family="Helvetica,sans-Serif" font-size="10.00">NFComm/NFCore/NFDefine.h</text>
</a>
</g>
</g>
<!-- Node3&#45;&gt;Node19 -->
<g id="edge30" class="edge"><title>Node3&#45;&gt;Node19</title>
<path fill="none" stroke="midnightblue" d="M1116.28,-377.028C1010.13,-373.818 701.861,-362.061 668,-333 651.745,-319.049 648.3,-293.497 648.055,-275.9"/>
<polygon fill="midnightblue" stroke="midnightblue" points="651.558,-275.752 648.253,-265.686 644.559,-275.616 651.558,-275.752"/>
</g>
<!-- Node21 -->
<g id="node22" class="node"><title>Node21</title>
<g id="a_node22"><a xlink:href="_a_f_data_list_8hpp.html" target="_top" xlink:title="AFDataList.hpp">
<polygon fill="white" stroke="black" points="708,-190.5 708,-209.5 792,-209.5 792,-190.5 708,-190.5"/>
<text text-anchor="middle" x="750" y="-197.5" font-family="Helvetica,sans-Serif" font-size="10.00">AFDataList.hpp</text>
</a>
</g>
</g>
<!-- Node3&#45;&gt;Node21 -->
<g id="edge57" class="edge"><title>Node3&#45;&gt;Node21</title>
<path fill="none" stroke="midnightblue" d="M1132.61,-369.463C1067.49,-340.788 856.334,-247.819 778.852,-213.703"/>
<polygon fill="midnightblue" stroke="midnightblue" points="780.228,-210.485 769.666,-209.659 777.407,-216.892 780.228,-210.485"/>
</g>
<!-- Node33 -->
<g id="node34" class="node"><title>Node33</title>
<g id="a_node34"><a xlink:href="_n_f_i_record_8h.html" target="_top" xlink:title="NFComm/NFCore/NFIRecord.h">
<polygon fill="white" stroke="black" points="677.5,-308 677.5,-327 828.5,-327 828.5,-308 677.5,-308"/>
<text text-anchor="middle" x="753" y="-315" font-family="Helvetica,sans-Serif" font-size="10.00">NFComm/NFCore/NFIRecord.h</text>
</a>
</g>
</g>
<!-- Node3&#45;&gt;Node33 -->
<g id="edge58" class="edge"><title>Node3&#45;&gt;Node33</title>
<path fill="none" stroke="midnightblue" d="M1116.24,-372.667C1049.61,-362.731 905.508,-341.242 820.192,-328.52"/>
<polygon fill="midnightblue" stroke="midnightblue" points="820.495,-325.026 810.088,-327.013 819.462,-331.95 820.495,-325.026"/>
</g>
<!-- Node34 -->
<g id="node35" class="node"><title>Node34</title>
<g id="a_node35"><a xlink:href="_n_f_event_define_8h.html" target="_top" xlink:title="NFComm/NFEventDefine\l/NFEventDefine.h">
<polygon fill="white" stroke="black" points="1399.5,-302.5 1399.5,-332.5 1524.5,-332.5 1524.5,-302.5 1399.5,-302.5"/>
<text text-anchor="start" x="1407.5" y="-320.5" font-family="Helvetica,sans-Serif" font-size="10.00">NFComm/NFEventDefine</text>
<text text-anchor="middle" x="1462" y="-309.5" font-family="Helvetica,sans-Serif" font-size="10.00">/NFEventDefine.h</text>
</a>
</g>
</g>
<!-- Node3&#45;&gt;Node34 -->
<g id="edge61" class="edge"><title>Node3&#45;&gt;Node34</title>
<path fill="none" stroke="midnightblue" d="M1187.56,-371.175C1236.55,-361.772 1325.92,-344.619 1389.36,-332.443"/>
<polygon fill="midnightblue" stroke="midnightblue" points="1390.14,-335.856 1399.3,-330.533 1388.82,-328.981 1390.14,-335.856"/>
</g>
<!-- Node5&#45;&gt;Node4 -->
<g id="edge8" class="edge"><title>Node5&#45;&gt;Node4</title>
<path fill="none" stroke="midnightblue" d="M1324.51,-251.535C1394.11,-246.648 1495.71,-235.313 1525,-210 1577.89,-164.286 1603.56,-108.141 1557,-56 1532.66,-28.7495 1279.49,-15.8737 1190.63,-12.1692"/>
<polygon fill="midnightblue" stroke="midnightblue" points="1190.76,-8.67205 1180.63,-11.7626 1190.48,-15.6663 1190.76,-8.67205"/>
</g>
<!-- Node5&#45;&gt;Node6 -->
<g id="edge6" class="edge"><title>Node5&#45;&gt;Node6</title>
<path fill="none" stroke="midnightblue" d="M1264.04,-246.319C1281.86,-227.088 1324.89,-180.641 1347.89,-155.805"/>
<polygon fill="midnightblue" stroke="midnightblue" points="1350.64,-157.996 1354.86,-148.282 1345.5,-153.239 1350.64,-157.996"/>
</g>
<!-- Node7 -->
<g id="node8" class="node"><title>Node7</title>
<polygon fill="white" stroke="#bfbfbf" points="1298.5,-129 1298.5,-148 1327.5,-148 1327.5,-129 1298.5,-129"/>
<text text-anchor="middle" x="1313" y="-136" font-family="Helvetica,sans-Serif" font-size="10.00">list</text>
</g>
<!-- Node5&#45;&gt;Node7 -->
<g id="edge7" class="edge"><title>Node5&#45;&gt;Node7</title>
<path fill="none" stroke="midnightblue" d="M1258.52,-246.329C1262.36,-233.619 1270.27,-209.342 1280,-190 1285.92,-178.231 1293.99,-165.835 1300.67,-156.269"/>
<polygon fill="midnightblue" stroke="midnightblue" points="1303.56,-158.247 1306.53,-148.078 1297.86,-154.175 1303.56,-158.247"/>
</g>
<!-- Node5&#45;&gt;Node8 -->
<g id="edge9" class="edge"><title>Node5&#45;&gt;Node8</title>
<path fill="none" stroke="midnightblue" d="M1324.75,-250.511C1388.54,-244.958 1477.37,-233.236 1503,-210 1536.06,-180.036 1530.69,-121.396 1525.2,-91.302"/>
<polygon fill="midnightblue" stroke="midnightblue" points="1528.59,-90.3917 1523.17,-81.2851 1521.73,-91.7808 1528.59,-90.3917"/>
</g>
<!-- Node9 -->
<g id="node10" class="node"><title>Node9</title>
<polygon fill="white" stroke="#bfbfbf" points="1116,-129 1116,-148 1166,-148 1166,-129 1116,-129"/>
<text text-anchor="middle" x="1141" y="-136" font-family="Helvetica,sans-Serif" font-size="10.00">typeinfo</text>
</g>
<!-- Node5&#45;&gt;Node9 -->
<g id="edge10" class="edge"><title>Node5&#45;&gt;Node9</title>
<path fill="none" stroke="midnightblue" d="M1211.1,-246.473C1189.64,-240.058 1165.53,-228.976 1151,-210 1139.86,-195.451 1138.27,-174.117 1138.9,-158.731"/>
<polygon fill="midnightblue" stroke="midnightblue" points="1142.42,-158.574 1139.7,-148.336 1135.44,-158.039 1142.42,-158.574"/>
</g>
<!-- Node10 -->
<g id="node11" class="node"><title>Node10</title>
<g id="a_node11"><a xlink:href="_n_f_map_ex_8h.html" target="_top" xlink:title="NFMapEx.h">
<polygon fill="white" stroke="black" points="1160,-190.5 1160,-209.5 1228,-209.5 1228,-190.5 1160,-190.5"/>
<text text-anchor="middle" x="1194" y="-197.5" font-family="Helvetica,sans-Serif" font-size="10.00">NFMapEx.h</text>
</a>
</g>
</g>
<!-- Node5&#45;&gt;Node10 -->
<g id="edge11" class="edge"><title>Node5&#45;&gt;Node10</title>
<path fill="none" stroke="midnightblue" d="M1246.04,-246.324C1236.87,-238.341 1223.06,-226.313 1211.97,-216.653"/>
<polygon fill="midnightblue" stroke="midnightblue" points="1213.98,-213.762 1204.14,-209.834 1209.38,-219.041 1213.98,-213.762"/>
</g>
<!-- Node10&#45;&gt;Node4 -->
<g id="edge14" class="edge"><title>Node10&#45;&gt;Node4</title>
<path fill="none" stroke="midnightblue" d="M1194.99,-190.388C1195.98,-181.342 1197.44,-166.694 1198,-154 1198.61,-140.236 1200.24,-136.594 1198,-123 1192.34,-88.7019 1177.55,-50.7856 1168.18,-29.0366"/>
<polygon fill="midnightblue" stroke="midnightblue" points="1171.32,-27.4804 1164.08,-19.7452 1164.91,-30.307 1171.32,-27.4804"/>
</g>
<!-- Node10&#45;&gt;Node6 -->
<g id="edge12" class="edge"><title>Node10&#45;&gt;Node6</title>
<path fill="none" stroke="midnightblue" d="M1226.76,-190.488C1255.95,-182.469 1299.55,-169.403 1336,-154 1337,-153.575 1338.02,-153.126 1339.04,-152.658"/>
<polygon fill="midnightblue" stroke="midnightblue" points="1340.72,-155.732 1348.11,-148.136 1337.59,-149.469 1340.72,-155.732"/>
</g>
<!-- Node10&#45;&gt;Node7 -->
<g id="edge13" class="edge"><title>Node10&#45;&gt;Node7</title>
<path fill="none" stroke="midnightblue" d="M1211.05,-190.475C1231.52,-180.241 1265.97,-163.013 1289.09,-151.454"/>
<polygon fill="midnightblue" stroke="midnightblue" points="1290.85,-154.486 1298.23,-146.884 1287.72,-148.225 1290.85,-154.486"/>
</g>
<!-- Node10&#45;&gt;Node8 -->
<g id="edge15" class="edge"><title>Node10&#45;&gt;Node8</title>
<path fill="none" stroke="midnightblue" d="M1204.28,-190.333C1226.85,-171.374 1279.47,-127.542 1289,-123 1353.35,-92.3469 1436.62,-80.0631 1483.89,-75.3186"/>
<polygon fill="midnightblue" stroke="midnightblue" points="1484.35,-78.7912 1493.97,-74.3668 1483.69,-71.8222 1484.35,-78.7912"/>
</g>
<!-- Node10&#45;&gt;Node9 -->
<g id="edge16" class="edge"><title>Node10&#45;&gt;Node9</title>
<path fill="none" stroke="midnightblue" d="M1186.41,-190.475C1178.3,-181.373 1165.27,-166.741 1155.24,-155.483"/>
<polygon fill="midnightblue" stroke="midnightblue" points="1157.84,-153.148 1148.58,-148.009 1152.62,-157.804 1157.84,-153.148"/>
</g>
<!-- Node10&#45;&gt;Node11 -->
<g id="edge17" class="edge"><title>Node10&#45;&gt;Node11</title>
<path fill="none" stroke="midnightblue" d="M1171.08,-190.475C1143.63,-180.269 1097.48,-163.108 1066.4,-151.549"/>
<polygon fill="midnightblue" stroke="midnightblue" points="1067.47,-148.214 1056.88,-148.009 1065.03,-154.775 1067.47,-148.214"/>
</g>
<!-- Node12 -->
<g id="node13" class="node"><title>Node12</title>
<g id="a_node13"><a xlink:href="_n_f_platform_8h.html" target="_top" xlink:title="NFComm/NFPluginModule\l/NFPlatform.h">
<polygon fill="white" stroke="black" points="590,-56.5 590,-86.5 722,-86.5 722,-56.5 590,-56.5"/>
<text text-anchor="start" x="598" y="-74.5" font-family="Helvetica,sans-Serif" font-size="10.00">NFComm/NFPluginModule</text>
<text text-anchor="middle" x="656" y="-63.5" font-family="Helvetica,sans-Serif" font-size="10.00">/NFPlatform.h</text>
</a>
</g>
</g>
<!-- Node10&#45;&gt;Node12 -->
<g id="edge18" class="edge"><title>Node10&#45;&gt;Node12</title>
<path fill="none" stroke="midnightblue" d="M1194.74,-190.322C1195.58,-174.275 1194.78,-140.049 1175,-123 1142.21,-94.737 868.705,-80.5169 732.482,-75.1325"/>
<polygon fill="midnightblue" stroke="midnightblue" points="732.25,-71.6209 722.122,-74.7296 731.978,-78.6156 732.25,-71.6209"/>
</g>
<!-- Node12&#45;&gt;Node4 -->
<g id="edge23" class="edge"><title>Node12&#45;&gt;Node4</title>
<path fill="none" stroke="midnightblue" d="M722.293,-58.0966C726.926,-57.3493 731.529,-56.6416 736,-56 882.409,-34.9913 1058.57,-19.3638 1128.85,-13.5157"/>
<polygon fill="midnightblue" stroke="midnightblue" points="1129.52,-16.9724 1139.2,-12.6618 1128.94,-9.99607 1129.52,-16.9724"/>
</g>
<!-- Node13 -->
<g id="node14" class="node"><title>Node13</title>
<polygon fill="white" stroke="#bfbfbf" points="738.5,-0.5 738.5,-19.5 787.5,-19.5 787.5,-0.5 738.5,-0.5"/>
<text text-anchor="middle" x="763" y="-7.5" font-family="Helvetica,sans-Serif" font-size="10.00">stdint.h</text>
</g>
<!-- Node12&#45;&gt;Node13 -->
<g id="edge19" class="edge"><title>Node12&#45;&gt;Node13</title>
<path fill="none" stroke="midnightblue" d="M681.358,-56.3993C698.669,-46.7728 721.476,-34.0902 738.584,-24.5772"/>
<polygon fill="midnightblue" stroke="midnightblue" points="740.392,-27.5766 747.431,-19.6578 736.99,-21.4588 740.392,-27.5766"/>
</g>
<!-- Node14 -->
<g id="node15" class="node"><title>Node14</title>
<polygon fill="white" stroke="#bfbfbf" points="530,-0.5 530,-19.5 574,-19.5 574,-0.5 530,-0.5"/>
<text text-anchor="middle" x="552" y="-7.5" font-family="Helvetica,sans-Serif" font-size="10.00">time.h</text>
</g>
<!-- Node12&#45;&gt;Node14 -->
<g id="edge20" class="edge"><title>Node12&#45;&gt;Node14</title>
<path fill="none" stroke="midnightblue" d="M631.353,-56.3993C614.683,-46.8619 592.769,-34.3248 576.195,-24.8422"/>
<polygon fill="midnightblue" stroke="midnightblue" points="577.551,-21.5858 567.133,-19.6578 574.075,-27.6617 577.551,-21.5858"/>
</g>
<!-- Node12&#45;&gt;Node15 -->
<g id="edge21" class="edge"><title>Node12&#45;&gt;Node15</title>
<path fill="none" stroke="midnightblue" d="M722.25,-65.7565C889.055,-53.8132 1322.2,-22.8001 1450.61,-13.6057"/>
<polygon fill="midnightblue" stroke="midnightblue" points="1450.98,-17.0883 1460.7,-12.8829 1450.48,-10.1061 1450.98,-17.0883"/>
</g>
<!-- Node16 -->
<g id="node17" class="node"><title>Node16</title>
<polygon fill="white" stroke="#bfbfbf" points="592,-0.5 592,-19.5 720,-19.5 720,-0.5 592,-0.5"/>
<text text-anchor="middle" x="656" y="-7.5" font-family="Helvetica,sans-Serif" font-size="10.00">common/lexical_cast.hpp</text>
</g>
<!-- Node12&#45;&gt;Node16 -->
<g id="edge22" class="edge"><title>Node12&#45;&gt;Node16</title>
<path fill="none" stroke="midnightblue" d="M656,-56.3993C656,-48.4664 656,-38.458 656,-29.8583"/>
<polygon fill="midnightblue" stroke="midnightblue" points="659.5,-29.6577 656,-19.6578 652.5,-29.6578 659.5,-29.6577"/>
</g>
<!-- Node17&#45;&gt;Node6 -->
<g id="edge26" class="edge"><title>Node17&#45;&gt;Node6</title>
<path fill="none" stroke="midnightblue" d="M1417.83,-190.475C1407.85,-181.197 1391.69,-166.171 1379.49,-154.831"/>
<polygon fill="midnightblue" stroke="midnightblue" points="1381.86,-152.255 1372.15,-148.009 1377.09,-157.381 1381.86,-152.255"/>
</g>
<!-- Node17&#45;&gt;Node7 -->
<g id="edge27" class="edge"><title>Node17&#45;&gt;Node7</title>
<path fill="none" stroke="midnightblue" d="M1408.23,-190.415C1389.63,-181.742 1360.45,-167.702 1336,-154 1335.59,-153.769 1335.17,-153.534 1334.76,-153.296"/>
<polygon fill="midnightblue" stroke="midnightblue" points="1336.37,-150.18 1325.99,-148.019 1332.76,-156.176 1336.37,-150.18"/>
</g>
<!-- Node17&#45;&gt;Node8 -->
<g id="edge25" class="edge"><title>Node17&#45;&gt;Node8</title>
<path fill="none" stroke="midnightblue" d="M1447.98,-190.412C1463.65,-182.976 1484.44,-170.766 1497,-154 1510.92,-135.416 1516.8,-108.868 1519.26,-91.1792"/>
<polygon fill="midnightblue" stroke="midnightblue" points="1522.74,-91.5701 1520.41,-81.2335 1515.78,-90.7638 1522.74,-91.5701"/>
</g>
<!-- Node17&#45;&gt;Node12 -->
<g id="edge29" class="edge"><title>Node17&#45;&gt;Node12</title>
<path fill="none" stroke="midnightblue" d="M1437.18,-190.262C1453.77,-175.006 1482.99,-143.215 1464,-123 1439.17,-96.567 928.992,-79.9268 732.355,-74.4737"/>
<polygon fill="midnightblue" stroke="midnightblue" points="732.198,-70.9682 722.106,-74.1918 732.006,-77.9655 732.198,-70.9682"/>
</g>
<!-- Node17&#45;&gt;Node18 -->
<g id="edge28" class="edge"><title>Node17&#45;&gt;Node18</title>
<path fill="none" stroke="midnightblue" d="M1427,-190.475C1427,-182.08 1427,-168.981 1427,-158.163"/>
<polygon fill="midnightblue" stroke="midnightblue" points="1430.5,-158.009 1427,-148.009 1423.5,-158.009 1430.5,-158.009"/>
</g>
<!-- Node19&#45;&gt;Node20 -->
<g id="edge31" class="edge"><title>Node19&#45;&gt;Node20</title>
<path fill="none" stroke="midnightblue" d="M603.964,-246.486C516.892,-230.036 331.41,-195.055 302,-190 200.028,-172.473 172.495,-178.619 72,-154 68.6068,-153.169 65.0989,-152.19 61.618,-151.141"/>
<polygon fill="midnightblue" stroke="midnightblue" points="62.5875,-147.776 51.9964,-148.058 60.4512,-154.442 62.5875,-147.776"/>
</g>
<!-- Node19&#45;&gt;Node21 -->
<g id="edge32" class="edge"><title>Node19&#45;&gt;Node21</title>
<path fill="none" stroke="midnightblue" d="M665.227,-246.324C681.351,-237.703 706.3,-224.364 724.964,-214.386"/>
<polygon fill="midnightblue" stroke="midnightblue" points="726.644,-217.456 733.813,-209.655 723.344,-211.283 726.644,-217.456"/>
</g>
<!-- Node30 -->
<g id="node31" class="node"><title>Node30</title>
<g id="a_node31"><a xlink:href="_n_f_g_u_i_d_8h.html" target="_top" xlink:title="NFComm/NFPluginModule\l/NFGUID.h">
<polygon fill="white" stroke="black" points="114,-123.5 114,-153.5 246,-153.5 246,-123.5 114,-123.5"/>
<text text-anchor="start" x="122" y="-141.5" font-family="Helvetica,sans-Serif" font-size="10.00">NFComm/NFPluginModule</text>
<text text-anchor="middle" x="180" y="-130.5" font-family="Helvetica,sans-Serif" font-size="10.00">/NFGUID.h</text>
</a>
</g>
</g>
<!-- Node19&#45;&gt;Node30 -->
<g id="edge56" class="edge"><title>Node19&#45;&gt;Node30</title>
<path fill="none" stroke="midnightblue" d="M619.444,-246.402C574.574,-233.469 486.496,-208.549 411,-190 359.576,-177.366 301.324,-164.642 256.183,-155.127"/>
<polygon fill="midnightblue" stroke="midnightblue" points="256.68,-151.655 246.174,-153.024 255.241,-158.505 256.68,-151.655"/>
</g>
<!-- Node21&#45;&gt;Node4 -->
<g id="edge33" class="edge"><title>Node21&#45;&gt;Node4</title>
<path fill="none" stroke="midnightblue" d="M749.945,-190.376C750.329,-174.723 753.441,-141.545 772,-123 872.243,-22.8322 1056.07,-11.0197 1129,-10.4842"/>
<polygon fill="midnightblue" stroke="midnightblue" points="1129.33,-13.9842 1139.33,-10.4805 1129.33,-6.98422 1129.33,-13.9842"/>
</g>
<!-- Node21&#45;&gt;Node6 -->
<g id="edge40" class="edge"><title>Node21&#45;&gt;Node6</title>
<path fill="none" stroke="midnightblue" d="M792.073,-198.024C908.623,-194.965 1233.79,-183.916 1336,-154 1337.47,-153.57 1338.95,-153.054 1340.42,-152.477"/>
<polygon fill="midnightblue" stroke="midnightblue" points="1342.22,-155.496 1349.74,-148.035 1339.21,-149.176 1342.22,-155.496"/>
</g>
<!-- Node21&#45;&gt;Node7 -->
<g id="edge38" class="edge"><title>Node21&#45;&gt;Node7</title>
<path fill="none" stroke="midnightblue" d="M792.317,-194.528C903.409,-182.787 1200.83,-151.355 1288.41,-142.099"/>
<polygon fill="midnightblue" stroke="midnightblue" points="1288.89,-145.568 1298.47,-141.036 1288.15,-138.606 1288.89,-145.568"/>
</g>
<!-- Node21&#45;&gt;Node8 -->
<g id="edge35" class="edge"><title>Node21&#45;&gt;Node8</title>
<path fill="none" stroke="midnightblue" d="M753.467,-190.48C760.657,-174.061 778.904,-138.311 807,-123 866.621,-90.51 1344.85,-76.6881 1483.47,-73.3398"/>
<polygon fill="midnightblue" stroke="midnightblue" points="1483.69,-76.8358 1493.6,-73.0993 1483.52,-69.8378 1483.69,-76.8358"/>
</g>
<!-- Node21&#45;&gt;Node9 -->
<g id="edge43" class="edge"><title>Node21&#45;&gt;Node9</title>
<path fill="none" stroke="midnightblue" d="M792.179,-193.85C853.35,-186.199 970.181,-170.906 1069,-154 1081.05,-151.938 1094.18,-149.386 1105.89,-147"/>
<polygon fill="midnightblue" stroke="midnightblue" points="1106.66,-150.415 1115.74,-144.963 1105.24,-143.559 1106.66,-150.415"/>
</g>
<!-- Node21&#45;&gt;Node11 -->
<g id="edge47" class="edge"><title>Node21&#45;&gt;Node11</title>
<path fill="none" stroke="midnightblue" d="M792.286,-193.994C842.135,-187.483 927.163,-174.462 998,-154 1000.44,-153.296 1002.93,-152.487 1005.42,-151.617"/>
<polygon fill="midnightblue" stroke="midnightblue" points="1006.71,-154.872 1014.82,-148.063 1004.23,-148.325 1006.71,-154.872"/>
</g>
<!-- Node21&#45;&gt;Node12 -->
<g id="edge54" class="edge"><title>Node21&#45;&gt;Node12</title>
<path fill="none" stroke="midnightblue" d="M707.688,-196.66C649.493,-192.457 549.387,-181.356 527,-154 503.419,-125.185 544.616,-103.444 586.57,-89.6948"/>
<polygon fill="midnightblue" stroke="midnightblue" points="587.861,-92.958 596.357,-86.6278 585.768,-86.2783 587.861,-92.958"/>
</g>
<!-- Node21&#45;&gt;Node18 -->
<g id="edge41" class="edge"><title>Node21&#45;&gt;Node18</title>
<path fill="none" stroke="midnightblue" d="M792.11,-197.649C915.479,-193.434 1274.57,-179.279 1389,-154 1392.07,-153.321 1395.23,-152.439 1398.34,-151.446"/>
<polygon fill="midnightblue" stroke="midnightblue" points="1399.76,-154.656 1408.01,-148.003 1397.41,-148.062 1399.76,-154.656"/>
</g>
<!-- Node21&#45;&gt;Node20 -->
<g id="edge45" class="edge"><title>Node21&#45;&gt;Node20</title>
<path fill="none" stroke="midnightblue" d="M707.669,-197.624C579.13,-193.221 194.657,-178.322 72,-154 68.3051,-153.267 64.4905,-152.303 60.7297,-151.218"/>
<polygon fill="midnightblue" stroke="midnightblue" points="61.6098,-147.825 51.0198,-148.144 59.4971,-154.499 61.6098,-147.825"/>
</g>
<!-- Node21&#45;&gt;Node22 -->
<g id="edge34" class="edge"><title>Node21&#45;&gt;Node22</title>
<path fill="none" stroke="midnightblue" d="M762.752,-190.475C777.027,-180.931 800.397,-165.307 817.508,-153.868"/>
<polygon fill="midnightblue" stroke="midnightblue" points="819.904,-156.477 826.272,-148.009 816.014,-150.657 819.904,-156.477"/>
</g>
<!-- Node23 -->
<g id="node24" class="node"><title>Node23</title>
<polygon fill="white" stroke="#bfbfbf" points="77,-62 77,-81 125,-81 125,-62 77,-62"/>
<text text-anchor="middle" x="101" y="-69" font-family="Helvetica,sans-Serif" font-size="10.00">stdlib.h</text>
</g>
<!-- Node21&#45;&gt;Node23 -->
<g id="edge36" class="edge"><title>Node21&#45;&gt;Node23</title>
<path fill="none" stroke="midnightblue" d="M707.78,-197.582C567.73,-192.683 126.135,-175.575 105,-154 88.9985,-137.665 91.5854,-109.528 95.6814,-90.9662"/>
<polygon fill="midnightblue" stroke="midnightblue" points="99.1252,-91.6259 98.2061,-81.071 92.3424,-89.8953 99.1252,-91.6259"/>
</g>
<!-- Node24 -->
<g id="node25" class="node"><title>Node24</title>
<polygon fill="white" stroke="#bfbfbf" points="536.5,-129 536.5,-148 583.5,-148 583.5,-129 536.5,-129"/>
<text text-anchor="middle" x="560" y="-136" font-family="Helvetica,sans-Serif" font-size="10.00">math.h</text>
</g>
<!-- Node21&#45;&gt;Node24 -->
<g id="edge37" class="edge"><title>Node21&#45;&gt;Node24</title>
<path fill="none" stroke="midnightblue" d="M715.272,-190.485C683.172,-182.276 634.336,-168.928 593,-154 591.341,-153.401 589.647,-152.758 587.946,-152.088"/>
<polygon fill="midnightblue" stroke="midnightblue" points="588.899,-148.693 578.323,-148.074 586.205,-155.154 588.899,-148.693"/>
</g>
<!-- Node21&#45;&gt;Node25 -->
<g id="edge39" class="edge"><title>Node21&#45;&gt;Node25</title>
<path fill="none" stroke="midnightblue" d="M775.3,-190.373C799.97,-181.778 838.427,-167.892 871,-154 872.197,-153.489 873.416,-152.957 874.643,-152.409"/>
<polygon fill="midnightblue" stroke="midnightblue" points="876.401,-155.452 883.994,-148.063 873.451,-149.104 876.401,-155.452"/>
</g>
<!-- Node26 -->
<g id="node27" class="node"><title>Node26</title>
<polygon fill="white" stroke="#bfbfbf" points="602,-129 602,-148 654,-148 654,-129 602,-129"/>
<text text-anchor="middle" x="628" y="-136" font-family="Helvetica,sans-Serif" font-size="10.00">assert.h</text>
</g>
<!-- Node21&#45;&gt;Node26 -->
<g id="edge42" class="edge"><title>Node21&#45;&gt;Node26</title>
<path fill="none" stroke="midnightblue" d="M732.52,-190.475C712.137,-180.534 678.225,-163.995 654.575,-152.461"/>
<polygon fill="midnightblue" stroke="midnightblue" points="655.969,-149.247 645.447,-148.009 652.901,-155.538 655.969,-149.247"/>
</g>
<!-- Node27 -->
<g id="node28" class="node"><title>Node27</title>
<polygon fill="white" stroke="#bfbfbf" points="672,-129 672,-148 722,-148 722,-129 672,-129"/>
<text text-anchor="middle" x="697" y="-136" font-family="Helvetica,sans-Serif" font-size="10.00">iomanip</text>
</g>
<!-- Node21&#45;&gt;Node27 -->
<g id="edge44" class="edge"><title>Node21&#45;&gt;Node27</title>
<path fill="none" stroke="midnightblue" d="M742.406,-190.475C734.299,-181.373 721.265,-166.741 711.237,-155.483"/>
<polygon fill="midnightblue" stroke="midnightblue" points="713.844,-153.148 704.58,-148.009 708.617,-157.804 713.844,-153.148"/>
</g>
<!-- Node21&#45;&gt;Node28 -->
<g id="edge46" class="edge"><title>Node21&#45;&gt;Node28</title>
<path fill="none" stroke="midnightblue" d="M792.24,-190.498C829.274,-182.573 884.333,-169.641 931,-154 932.917,-153.358 934.876,-152.654 936.84,-151.913"/>
<polygon fill="midnightblue" stroke="midnightblue" points="938.533,-155.004 946.501,-148.021 935.918,-148.511 938.533,-155.004"/>
</g>
<!-- Node29 -->
<g id="node30" class="node"><title>Node29</title>
<polygon fill="white" stroke="#bfbfbf" points="264,-129 264,-148 368,-148 368,-129 264,-129"/>
<text text-anchor="middle" x="316" y="-136" font-family="Helvetica,sans-Serif" font-size="10.00">common/variant.hpp</text>
</g>
<!-- Node21&#45;&gt;Node29 -->
<g id="edge48" class="edge"><title>Node21&#45;&gt;Node29</title>
<path fill="none" stroke="midnightblue" d="M707.816,-195.481C638.451,-189.343 496.111,-175.271 377,-154 371.096,-152.946 364.908,-151.674 358.832,-150.326"/>
<polygon fill="midnightblue" stroke="midnightblue" points="359.312,-146.845 348.781,-148.013 357.741,-153.667 359.312,-146.845"/>
</g>
<!-- Node21&#45;&gt;Node30 -->
<g id="edge49" class="edge"><title>Node21&#45;&gt;Node30</title>
<path fill="none" stroke="midnightblue" d="M707.786,-196.595C623.748,-191.499 429.404,-178.168 256.252,-154.085"/>
<polygon fill="midnightblue" stroke="midnightblue" points="256.583,-150.598 246.193,-152.671 255.608,-157.529 256.583,-150.598"/>
</g>
<!-- Node32 -->
<g id="node33" class="node"><title>Node32</title>
<g id="a_node33"><a xlink:href="_vector3_8hpp.html" target="_top" xlink:title="Math/Vector3.hpp">
<polygon fill="white" stroke="black" points="386,-129 386,-148 480,-148 480,-129 386,-129"/>
<text text-anchor="middle" x="433" y="-136" font-family="Helvetica,sans-Serif" font-size="10.00">Math/Vector3.hpp</text>
</a>
</g>
</g>
<!-- Node21&#45;&gt;Node32 -->
<g id="edge55" class="edge"><title>Node21&#45;&gt;Node32</title>
<path fill="none" stroke="midnightblue" d="M707.725,-192.358C656.848,-184.183 568.907,-169.472 494,-154 488.603,-152.885 482.955,-151.644 477.367,-150.371"/>
<polygon fill="midnightblue" stroke="midnightblue" points="477.971,-146.918 467.439,-148.063 476.387,-153.736 477.971,-146.918"/>
</g>
<!-- Node30&#45;&gt;Node8 -->
<g id="edge51" class="edge"><title>Node30&#45;&gt;Node8</title>
<path fill="none" stroke="midnightblue" d="M246.169,-124.145C249.148,-123.721 252.102,-123.336 255,-123 502.174,-94.3431 1301.25,-76.8957 1483.68,-73.2268"/>
<polygon fill="midnightblue" stroke="midnightblue" points="1483.91,-76.723 1493.84,-73.0239 1483.77,-69.7243 1483.91,-76.723"/>
</g>
<!-- Node30&#45;&gt;Node12 -->
<g id="edge50" class="edge"><title>Node30&#45;&gt;Node12</title>
<path fill="none" stroke="midnightblue" d="M246.212,-124.454C249.179,-123.947 252.119,-123.459 255,-123 367.634,-105.04 498.902,-89.5275 579.731,-80.5954"/>
<polygon fill="midnightblue" stroke="midnightblue" points="580.263,-84.0582 589.82,-79.4858 579.498,-77.1001 580.263,-84.0582"/>
</g>
<!-- Node30&#45;&gt;Node23 -->
<g id="edge53" class="edge"><title>Node30&#45;&gt;Node23</title>
<path fill="none" stroke="midnightblue" d="M162.858,-123.396C150.053,-112.86 132.572,-98.4771 119.46,-87.6886"/>
<polygon fill="midnightblue" stroke="midnightblue" points="121.513,-84.8455 111.567,-81.1945 117.066,-90.251 121.513,-84.8455"/>
</g>
<!-- Node31 -->
<g id="node32" class="node"><title>Node31</title>
<polygon fill="white" stroke="#bfbfbf" points="157,-62 157,-81 203,-81 203,-62 157,-62"/>
<text text-anchor="middle" x="180" y="-69" font-family="Helvetica,sans-Serif" font-size="10.00">stdio.h</text>
</g>
<!-- Node30&#45;&gt;Node31 -->
<g id="edge52" class="edge"><title>Node30&#45;&gt;Node31</title>
<path fill="none" stroke="midnightblue" d="M180,-123.396C180,-114.064 180,-101.714 180,-91.5173"/>
<polygon fill="midnightblue" stroke="midnightblue" points="183.5,-91.1945 180,-81.1945 176.5,-91.1946 183.5,-91.1945"/>
</g>
<!-- Node33&#45;&gt;Node19 -->
<g id="edge59" class="edge"><title>Node33&#45;&gt;Node19</title>
<path fill="none" stroke="midnightblue" d="M738.099,-307.975C721.032,-298.211 692.839,-282.081 672.738,-270.581"/>
<polygon fill="midnightblue" stroke="midnightblue" points="674.291,-267.437 663.873,-265.509 670.815,-273.513 674.291,-267.437"/>
</g>
<!-- Node33&#45;&gt;Node21 -->
<g id="edge60" class="edge"><title>Node33&#45;&gt;Node21</title>
<path fill="none" stroke="midnightblue" d="M752.775,-307.819C752.292,-289.257 751.152,-245.339 750.493,-219.973"/>
<polygon fill="midnightblue" stroke="midnightblue" points="753.987,-219.688 750.228,-209.782 746.989,-219.87 753.987,-219.688"/>
</g>
<!-- Node34&#45;&gt;Node8 -->
<g id="edge62" class="edge"><title>Node34&#45;&gt;Node8</title>
<path fill="none" stroke="midnightblue" d="M1472.9,-302.321C1492.75,-275.303 1533.63,-213.793 1543,-154 1545.13,-140.388 1545.81,-136.488 1543,-123 1540.62,-111.587 1535.52,-99.5921 1530.83,-90.1576"/>
<polygon fill="midnightblue" stroke="midnightblue" points="1533.8,-88.2916 1526.04,-81.0737 1527.61,-91.5528 1533.8,-88.2916"/>
</g>
</g>
</svg>
