<?xml version="1.0" encoding="UTF-8" standalone="no"?>
<!DOCTYPE svg PUBLIC "-//W3C//DTD SVG 1.1//EN"
 "http://www.w3.org/Graphics/SVG/1.1/DTD/svg11.dtd">
<!-- Generated by graphviz version 2.38.0 (20140413.2041)
 -->
<!-- Title: NFIPlugin.h Pages: 1 -->
<!--zoomable 531 -->
<svg id="main" version="1.1" xmlns="http://www.w3.org/2000/svg" xmlns:xlink="http://www.w3.org/1999/xlink" xml:space="preserve" onload="init(evt)">
<style type="text/css"><![CDATA[
.edge:hover path { stroke: red; }
.edge:hover polygon { stroke: red; fill: red; }
]]></style>
<script type="text/javascript"><![CDATA[
var edges = document.getElementsByTagName('g');
if (edges && edges.length) {
  for (var i=0;i<edges.length;i++) {
    if (edges[i].id.substr(0,4)=='edge') {
      edges[i].setAttribute('class','edge');
    }
  }
}
]]></script>
        <defs>
                <circle id="rim" cx="0" cy="0" r="7"/>
                <circle id="rim2" cx="0" cy="0" r="3.5"/>
                <g id="zoomPlus">
                        <use xlink:href="#rim" fill="#404040">
                                <set attributeName="fill" to="#808080" begin="zoomplus.mouseover" end="zoomplus.mouseout"/>
                        </use>
                        <path d="M-4,0h8M0,-4v8" fill="none" stroke="white" stroke-width="1.5" pointer-events="none"/>
                </g>
                <g id="zoomMin">
                        <use xlink:href="#rim" fill="#404040">
                                <set attributeName="fill" to="#808080" begin="zoomminus.mouseover" end="zoomminus.mouseout"/>
                        </use>
                        <path d="M-4,0h8" fill="none" stroke="white" stroke-width="1.5" pointer-events="none"/>
                </g>
                <g id="dirArrow">
                        <path fill="none" stroke="white" stroke-width="1.5" d="M0,-3.0v7 M-2.5,-0.5L0,-3.0L2.5,-0.5"/>
                </g>
               <g id="resetDef">
                       <use xlink:href="#rim2" fill="#404040">
                               <set attributeName="fill" to="#808080" begin="reset.mouseover" end="reset.mouseout"/>
                       </use>
               </g>
        </defs>

<script type="text/javascript">
var viewWidth = 1636;
var viewHeight = 531;
var sectionId = 'dynsection-0';
</script>
<script xlink:href="svgpan.js"/>
<svg id="graph" class="graph">
<g id="viewport">
<title>NFIPlugin.h</title>
<polygon fill="white" stroke="none" points="-4,4 -4,-527 1632,-527 1632,4 -4,4"/>
<!-- Node0 -->
<g id="node1" class="node"><title>Node0</title>
<polygon fill="#bfbfbf" stroke="black" points="472.5,-503.5 472.5,-522.5 539.5,-522.5 539.5,-503.5 472.5,-503.5"/>
<text text-anchor="middle" x="506" y="-510.5" font-family="Helvetica,sans-Serif" font-size="10.00">NFIPlugin.h</text>
</g>
<!-- Node1 -->
<g id="node2" class="node"><title>Node1</title>
<polygon fill="white" stroke="#bfbfbf" points="87,-62 87,-81 141,-81 141,-62 87,-62"/>
<text text-anchor="middle" x="114" y="-69" font-family="Helvetica,sans-Serif" font-size="10.00">iostream</text>
</g>
<!-- Node0&#45;&gt;Node1 -->
<g id="edge1" class="edge"><title>Node0&#45;&gt;Node1</title>
<path fill="none" stroke="midnightblue" d="M472.408,-510.846C359.395,-506.065 0,-483.182 0,-385.5 0,-385.5 0,-385.5 0,-199 0,-146.575 54.6991,-106.081 88.3185,-86.1442"/>
<polygon fill="midnightblue" stroke="midnightblue" points="90.2384,-89.0782 97.1789,-81.0732 86.7613,-83.0028 90.2384,-89.0782"/>
</g>
<!-- Node2 -->
<g id="node3" class="node"><title>Node2</title>
<polygon fill="white" stroke="#bfbfbf" points="1546,-129 1546,-148 1598,-148 1598,-129 1546,-129"/>
<text text-anchor="middle" x="1572" y="-136" font-family="Helvetica,sans-Serif" font-size="10.00">assert.h</text>
</g>
<!-- Node0&#45;&gt;Node2 -->
<g id="edge2" class="edge"><title>Node0&#45;&gt;Node2</title>
<path fill="none" stroke="midnightblue" d="M539.72,-509.606C680.62,-499.162 1215,-454.972 1215,-385.5 1215,-385.5 1215,-385.5 1215,-255 1215,-221.521 1445.22,-167.329 1535.91,-147.281"/>
<polygon fill="midnightblue" stroke="midnightblue" points="1536.73,-150.683 1545.75,-145.118 1535.23,-143.846 1536.73,-150.683"/>
</g>
<!-- Node3 -->
<g id="node4" class="node"><title>Node3</title>
<g id="a_node4"><a xlink:href="_n_f_map_8h.html" target="_top" xlink:title="NFComm/NFCore/NFMap.h">
<polygon fill="white" stroke="black" points="179.5,-246.5 179.5,-265.5 316.5,-265.5 316.5,-246.5 179.5,-246.5"/>
<text text-anchor="middle" x="248" y="-253.5" font-family="Helvetica,sans-Serif" font-size="10.00">NFComm/NFCore/NFMap.h</text>
</a>
</g>
</g>
<!-- Node0&#45;&gt;Node3 -->
<g id="edge3" class="edge"><title>Node0&#45;&gt;Node3</title>
<path fill="none" stroke="midnightblue" d="M497.119,-503.222C459.517,-466.057 313.102,-321.345 264.088,-272.901"/>
<polygon fill="midnightblue" stroke="midnightblue" points="266.416,-270.281 256.844,-265.741 261.496,-275.26 266.416,-270.281"/>
</g>
<!-- Node10 -->
<g id="node11" class="node"><title>Node10</title>
<g id="a_node11"><a xlink:href="_n_f_platform_8h.html" target="_top" xlink:title="NFComm/NFPluginModule\l/NFPlatform.h">
<polygon fill="white" stroke="black" points="591,-56.5 591,-86.5 723,-86.5 723,-56.5 591,-56.5"/>
<text text-anchor="start" x="599" y="-74.5" font-family="Helvetica,sans-Serif" font-size="10.00">NFComm/NFPluginModule</text>
<text text-anchor="middle" x="657" y="-63.5" font-family="Helvetica,sans-Serif" font-size="10.00">/NFPlatform.h</text>
</a>
</g>
</g>
<!-- Node0&#45;&gt;Node10 -->
<g id="edge64" class="edge"><title>Node0&#45;&gt;Node10</title>
<path fill="none" stroke="midnightblue" d="M539.519,-511.823C725.874,-510.41 1626,-497.772 1626,-385.5 1626,-385.5 1626,-385.5 1626,-199 1626,-164.183 1633.98,-145.002 1607,-123 1570.33,-93.0968 803.112,-91.4347 756,-87 748.605,-86.3039 740.918,-85.4357 733.243,-84.4724"/>
<polygon fill="midnightblue" stroke="midnightblue" points="733.555,-80.9836 723.186,-83.1578 732.648,-87.9245 733.555,-80.9836"/>
</g>
<!-- Node15 -->
<g id="node16" class="node"><title>Node15</title>
<g id="a_node16"><a xlink:href="_n_f_i_module_8h.html" target="_top" xlink:title="NFComm/NFPluginModule\l/NFIModule.h">
<polygon fill="white" stroke="black" points="440,-369.5 440,-399.5 572,-399.5 572,-369.5 440,-369.5"/>
<text text-anchor="start" x="448" y="-387.5" font-family="Helvetica,sans-Serif" font-size="10.00">NFComm/NFPluginModule</text>
<text text-anchor="middle" x="506" y="-376.5" font-family="Helvetica,sans-Serif" font-size="10.00">/NFIModule.h</text>
</a>
</g>
</g>
<!-- Node0&#45;&gt;Node15 -->
<g id="edge22" class="edge"><title>Node0&#45;&gt;Node15</title>
<path fill="none" stroke="midnightblue" d="M498.588,-503.411C491.724,-494.844 481.994,-480.979 478,-467 474.215,-453.752 474.55,-449.339 478,-436 480.481,-426.41 485.218,-416.699 490.1,-408.39"/>
<polygon fill="midnightblue" stroke="midnightblue" points="493.212,-410.016 495.561,-399.685 487.282,-406.296 493.212,-410.016"/>
</g>
<!-- Node33 -->
<g id="node34" class="node"><title>Node33</title>
<g id="a_node34"><a xlink:href="_n_f_i_plugin_manager_8h.html" target="_top" xlink:title="NFComm/NFPluginModule\l/NFIPluginManager.h">
<polygon fill="white" stroke="black" points="487,-436.5 487,-466.5 619,-466.5 619,-436.5 487,-436.5"/>
<text text-anchor="start" x="495" y="-454.5" font-family="Helvetica,sans-Serif" font-size="10.00">NFComm/NFPluginModule</text>
<text text-anchor="middle" x="553" y="-443.5" font-family="Helvetica,sans-Serif" font-size="10.00">/NFIPluginManager.h</text>
</a>
</g>
</g>
<!-- Node0&#45;&gt;Node33 -->
<g id="edge65" class="edge"><title>Node0&#45;&gt;Node33</title>
<path fill="none" stroke="midnightblue" d="M512.734,-503.475C518.683,-495.944 527.623,-484.626 535.569,-474.566"/>
<polygon fill="midnightblue" stroke="midnightblue" points="538.471,-476.54 541.923,-466.523 532.978,-472.201 538.471,-476.54"/>
</g>
<!-- Node3&#45;&gt;Node1 -->
<g id="edge7" class="edge"><title>Node3&#45;&gt;Node1</title>
<path fill="none" stroke="midnightblue" d="M184.288,-246.427C161.751,-240.089 138.438,-229.086 124,-210 97.4849,-174.949 103.863,-119.438 109.588,-90.8515"/>
<polygon fill="midnightblue" stroke="midnightblue" points="113.025,-91.5203 111.755,-81.0018 106.188,-90.0161 113.025,-91.5203"/>
</g>
<!-- Node4 -->
<g id="node5" class="node"><title>Node4</title>
<polygon fill="white" stroke="#bfbfbf" points="366.5,-129 366.5,-148 401.5,-148 401.5,-129 366.5,-129"/>
<text text-anchor="middle" x="384" y="-136" font-family="Helvetica,sans-Serif" font-size="10.00">map</text>
</g>
<!-- Node3&#45;&gt;Node4 -->
<g id="edge4" class="edge"><title>Node3&#45;&gt;Node4</title>
<path fill="none" stroke="midnightblue" d="M258.222,-246.319C281.162,-226.837 336.989,-179.425 365.932,-154.845"/>
<polygon fill="midnightblue" stroke="midnightblue" points="368.303,-157.423 373.659,-148.282 363.771,-152.088 368.303,-157.423"/>
</g>
<!-- Node5 -->
<g id="node6" class="node"><title>Node5</title>
<polygon fill="white" stroke="#bfbfbf" points="248.5,-129 248.5,-148 277.5,-148 277.5,-129 248.5,-129"/>
<text text-anchor="middle" x="263" y="-136" font-family="Helvetica,sans-Serif" font-size="10.00">list</text>
</g>
<!-- Node3&#45;&gt;Node5 -->
<g id="edge5" class="edge"><title>Node3&#45;&gt;Node5</title>
<path fill="none" stroke="midnightblue" d="M249.127,-246.319C251.538,-227.757 257.242,-183.839 260.536,-158.473"/>
<polygon fill="midnightblue" stroke="midnightblue" points="264.042,-158.65 261.859,-148.282 257.101,-157.748 264.042,-158.65"/>
</g>
<!-- Node6 -->
<g id="node7" class="node"><title>Node6</title>
<polygon fill="white" stroke="#bfbfbf" points="485.5,-0.5 485.5,-19.5 526.5,-19.5 526.5,-0.5 485.5,-0.5"/>
<text text-anchor="middle" x="506" y="-7.5" font-family="Helvetica,sans-Serif" font-size="10.00">string</text>
</g>
<!-- Node3&#45;&gt;Node6 -->
<g id="edge6" class="edge"><title>Node3&#45;&gt;Node6</title>
<path fill="none" stroke="midnightblue" d="M190.463,-246.43C163.636,-240.049 132.702,-229.01 110,-210 55.2321,-164.14 16.1158,-109.007 64,-56 91.5382,-25.5158 379.342,-14.6047 475.162,-11.801"/>
<polygon fill="midnightblue" stroke="midnightblue" points="475.462,-15.294 485.359,-11.5124 475.264,-8.29684 475.462,-15.294"/>
</g>
<!-- Node7 -->
<g id="node8" class="node"><title>Node7</title>
<polygon fill="white" stroke="#bfbfbf" points="180,-129 180,-148 230,-148 230,-129 180,-129"/>
<text text-anchor="middle" x="205" y="-136" font-family="Helvetica,sans-Serif" font-size="10.00">typeinfo</text>
</g>
<!-- Node3&#45;&gt;Node7 -->
<g id="edge8" class="edge"><title>Node3&#45;&gt;Node7</title>
<path fill="none" stroke="midnightblue" d="M244.768,-246.319C237.795,-227.59 221.212,-183.046 211.81,-157.792"/>
<polygon fill="midnightblue" stroke="midnightblue" points="215.039,-156.432 208.269,-148.282 208.478,-158.875 215.039,-156.432"/>
</g>
<!-- Node8 -->
<g id="node9" class="node"><title>Node8</title>
<g id="a_node9"><a xlink:href="_n_f_map_ex_8h.html" target="_top" xlink:title="NFMapEx.h">
<polygon fill="white" stroke="black" points="133,-190.5 133,-209.5 201,-209.5 201,-190.5 133,-190.5"/>
<text text-anchor="middle" x="167" y="-197.5" font-family="Helvetica,sans-Serif" font-size="10.00">NFMapEx.h</text>
</a>
</g>
</g>
<!-- Node3&#45;&gt;Node8 -->
<g id="edge9" class="edge"><title>Node3&#45;&gt;Node8</title>
<path fill="none" stroke="midnightblue" d="M234.986,-246.324C222.468,-237.979 203.318,-225.212 188.529,-215.352"/>
<polygon fill="midnightblue" stroke="midnightblue" points="190.244,-212.289 179.982,-209.655 186.361,-218.114 190.244,-212.289"/>
</g>
<!-- Node8&#45;&gt;Node1 -->
<g id="edge13" class="edge"><title>Node8&#45;&gt;Node1</title>
<path fill="none" stroke="midnightblue" d="M160.436,-190.466C153.972,-181.719 144.191,-167.521 138,-154 128.619,-133.515 121.889,-108.46 117.985,-91.5815"/>
<polygon fill="midnightblue" stroke="midnightblue" points="121.303,-90.3741 115.737,-81.3595 114.467,-91.878 121.303,-90.3741"/>
</g>
<!-- Node8&#45;&gt;Node4 -->
<g id="edge10" class="edge"><title>Node8&#45;&gt;Node4</title>
<path fill="none" stroke="midnightblue" d="M201.082,-193.688C239.731,-187.037 304.231,-174.025 357,-154 358.203,-153.543 359.42,-153.044 360.637,-152.513"/>
<polygon fill="midnightblue" stroke="midnightblue" points="362.316,-155.588 369.754,-148.043 359.234,-149.303 362.316,-155.588"/>
</g>
<!-- Node8&#45;&gt;Node5 -->
<g id="edge11" class="edge"><title>Node8&#45;&gt;Node5</title>
<path fill="none" stroke="midnightblue" d="M180.754,-190.475C196.366,-180.799 222.063,-164.872 240.583,-153.394"/>
<polygon fill="midnightblue" stroke="midnightblue" points="242.615,-156.252 249.271,-148.009 238.927,-150.302 242.615,-156.252"/>
</g>
<!-- Node8&#45;&gt;Node6 -->
<g id="edge12" class="edge"><title>Node8&#45;&gt;Node6</title>
<path fill="none" stroke="midnightblue" d="M154.015,-190.233C120.686,-166.717 37.4977,-100.984 78,-56 104.539,-26.5242 381.52,-14.9862 475.219,-11.9081"/>
<polygon fill="midnightblue" stroke="midnightblue" points="475.576,-15.3986 485.459,-11.5817 475.353,-8.40212 475.576,-15.3986"/>
</g>
<!-- Node8&#45;&gt;Node7 -->
<g id="edge14" class="edge"><title>Node8&#45;&gt;Node7</title>
<path fill="none" stroke="midnightblue" d="M172.444,-190.475C178.088,-181.638 187.061,-167.589 194.159,-156.475"/>
<polygon fill="midnightblue" stroke="midnightblue" points="197.133,-158.321 199.566,-148.009 191.233,-154.553 197.133,-158.321"/>
</g>
<!-- Node9 -->
<g id="node10" class="node"><title>Node9</title>
<polygon fill="white" stroke="#bfbfbf" points="296,-129 296,-148 348,-148 348,-129 296,-129"/>
<text text-anchor="middle" x="322" y="-136" font-family="Helvetica,sans-Serif" font-size="10.00">memory</text>
</g>
<!-- Node8&#45;&gt;Node9 -->
<g id="edge15" class="edge"><title>Node8&#45;&gt;Node9</title>
<path fill="none" stroke="midnightblue" d="M190.315,-190.351C214.347,-181.397 252.874,-166.933 286,-154 287.836,-153.283 289.722,-152.541 291.624,-151.788"/>
<polygon fill="midnightblue" stroke="midnightblue" points="293.1,-154.968 301.09,-148.01 290.505,-148.466 293.1,-154.968"/>
</g>
<!-- Node8&#45;&gt;Node10 -->
<g id="edge16" class="edge"><title>Node8&#45;&gt;Node10</title>
<path fill="none" stroke="midnightblue" d="M164.28,-190.327C159.945,-174.596 153.616,-141.294 171,-123 198.63,-93.9253 450.693,-80.2475 580.495,-75.0856"/>
<polygon fill="midnightblue" stroke="midnightblue" points="580.908,-78.5722 590.764,-74.6849 580.635,-71.5776 580.908,-78.5722"/>
</g>
<!-- Node10&#45;&gt;Node6 -->
<g id="edge21" class="edge"><title>Node10&#45;&gt;Node6</title>
<path fill="none" stroke="midnightblue" d="M621.215,-56.3993C595.307,-46.1905 560.676,-32.5446 536.167,-22.8869"/>
<polygon fill="midnightblue" stroke="midnightblue" points="537.249,-19.5515 526.662,-19.1417 534.683,-26.0641 537.249,-19.5515"/>
</g>
<!-- Node11 -->
<g id="node12" class="node"><title>Node11</title>
<polygon fill="white" stroke="#bfbfbf" points="835.5,-0.5 835.5,-19.5 884.5,-19.5 884.5,-0.5 835.5,-0.5"/>
<text text-anchor="middle" x="860" y="-7.5" font-family="Helvetica,sans-Serif" font-size="10.00">stdint.h</text>
</g>
<!-- Node10&#45;&gt;Node11 -->
<g id="edge17" class="edge"><title>Node10&#45;&gt;Node11</title>
<path fill="none" stroke="midnightblue" d="M704.851,-56.4747C741.925,-45.6082 792.4,-30.8139 825.572,-21.0911"/>
<polygon fill="midnightblue" stroke="midnightblue" points="826.665,-24.418 835.277,-18.2465 824.696,-17.7006 826.665,-24.418"/>
</g>
<!-- Node12 -->
<g id="node13" class="node"><title>Node12</title>
<polygon fill="white" stroke="#bfbfbf" points="557,-0.5 557,-19.5 601,-19.5 601,-0.5 557,-0.5"/>
<text text-anchor="middle" x="579" y="-7.5" font-family="Helvetica,sans-Serif" font-size="10.00">time.h</text>
</g>
<!-- Node10&#45;&gt;Node12 -->
<g id="edge18" class="edge"><title>Node10&#45;&gt;Node12</title>
<path fill="none" stroke="midnightblue" d="M638.515,-56.3993C626.48,-47.2185 610.8,-35.2579 598.557,-25.9182"/>
<polygon fill="midnightblue" stroke="midnightblue" points="600.423,-22.9401 590.35,-19.6578 596.178,-28.5056 600.423,-22.9401"/>
</g>
<!-- Node13 -->
<g id="node14" class="node"><title>Node13</title>
<polygon fill="white" stroke="#bfbfbf" points="619,-0.5 619,-19.5 671,-19.5 671,-0.5 619,-0.5"/>
<text text-anchor="middle" x="645" y="-7.5" font-family="Helvetica,sans-Serif" font-size="10.00">sstream</text>
</g>
<!-- Node10&#45;&gt;Node13 -->
<g id="edge19" class="edge"><title>Node10&#45;&gt;Node13</title>
<path fill="none" stroke="midnightblue" d="M654.156,-56.3993C652.538,-48.3772 650.492,-38.2328 648.745,-29.569"/>
<polygon fill="midnightblue" stroke="midnightblue" points="652.154,-28.7684 646.746,-19.6578 645.292,-30.1524 652.154,-28.7684"/>
</g>
<!-- Node14 -->
<g id="node15" class="node"><title>Node14</title>
<polygon fill="white" stroke="#bfbfbf" points="689,-0.5 689,-19.5 817,-19.5 817,-0.5 689,-0.5"/>
<text text-anchor="middle" x="753" y="-7.5" font-family="Helvetica,sans-Serif" font-size="10.00">common/lexical_cast.hpp</text>
</g>
<!-- Node10&#45;&gt;Node14 -->
<g id="edge20" class="edge"><title>Node10&#45;&gt;Node14</title>
<path fill="none" stroke="midnightblue" d="M679.751,-56.3993C694.995,-46.9511 714.989,-34.5589 730.236,-25.1089"/>
<polygon fill="midnightblue" stroke="midnightblue" points="732.375,-27.9009 739.031,-19.6578 728.687,-21.951 732.375,-27.9009"/>
</g>
<!-- Node15&#45;&gt;Node3 -->
<g id="edge24" class="edge"><title>Node15&#45;&gt;Node3</title>
<path fill="none" stroke="midnightblue" d="M477.404,-369.479C427.097,-344.813 323.478,-294.008 274.613,-270.049"/>
<polygon fill="midnightblue" stroke="midnightblue" points="276.121,-266.89 265.602,-265.63 273.04,-273.175 276.121,-266.89"/>
</g>
<!-- Node15&#45;&gt;Node6 -->
<g id="edge23" class="edge"><title>Node15&#45;&gt;Node6</title>
<path fill="none" stroke="midnightblue" d="M506,-369.461C506,-346.118 506,-297.849 506,-257 506,-257 506,-257 506,-137.5 506,-99.2024 506,-54.3829 506,-29.6971"/>
<polygon fill="midnightblue" stroke="midnightblue" points="509.5,-29.5894 506,-19.5894 502.5,-29.5895 509.5,-29.5894"/>
</g>
<!-- Node16 -->
<g id="node17" class="node"><title>Node16</title>
<g id="a_node17"><a xlink:href="_n_f_list_8h.html" target="_top" xlink:title="NFComm/NFCore/NFList.h">
<polygon fill="white" stroke="black" points="344,-190.5 344,-209.5 478,-209.5 478,-190.5 344,-190.5"/>
<text text-anchor="middle" x="411" y="-197.5" font-family="Helvetica,sans-Serif" font-size="10.00">NFComm/NFCore/NFList.h</text>
</a>
</g>
</g>
<!-- Node15&#45;&gt;Node16 -->
<g id="edge25" class="edge"><title>Node15&#45;&gt;Node16</title>
<path fill="none" stroke="midnightblue" d="M498.703,-369.483C481.626,-336.676 439.083,-254.949 420.237,-218.745"/>
<polygon fill="midnightblue" stroke="midnightblue" points="423.313,-217.073 415.591,-209.819 417.103,-220.305 423.313,-217.073"/>
</g>
<!-- Node18 -->
<g id="node19" class="node"><title>Node18</title>
<g id="a_node19"><a xlink:href="_n_f_define_8h.html" target="_top" xlink:title="NFComm/NFCore/NFDefine.h">
<polygon fill="white" stroke="black" points="621.5,-246.5 621.5,-265.5 766.5,-265.5 766.5,-246.5 621.5,-246.5"/>
<text text-anchor="middle" x="694" y="-253.5" font-family="Helvetica,sans-Serif" font-size="10.00">NFComm/NFCore/NFDefine.h</text>
</a>
</g>
</g>
<!-- Node15&#45;&gt;Node18 -->
<g id="edge31" class="edge"><title>Node15&#45;&gt;Node18</title>
<path fill="none" stroke="midnightblue" d="M522.071,-369.259C541.767,-352.173 576.535,-323.184 609,-302 627.352,-290.025 649.228,-278.501 666.19,-270.113"/>
<polygon fill="midnightblue" stroke="midnightblue" points="668.088,-273.082 675.546,-265.557 665.023,-266.789 668.088,-273.082"/>
</g>
<!-- Node20 -->
<g id="node21" class="node"><title>Node20</title>
<g id="a_node21"><a xlink:href="_a_f_data_list_8hpp.html" target="_top" xlink:title="AFDataList.hpp">
<polygon fill="white" stroke="black" points="791,-190.5 791,-209.5 875,-209.5 875,-190.5 791,-190.5"/>
<text text-anchor="middle" x="833" y="-197.5" font-family="Helvetica,sans-Serif" font-size="10.00">AFDataList.hpp</text>
</a>
</g>
</g>
<!-- Node15&#45;&gt;Node20 -->
<g id="edge58" class="edge"><title>Node15&#45;&gt;Node20</title>
<path fill="none" stroke="midnightblue" d="M572.038,-378.426C642.15,-371.812 747.044,-358.022 778,-333 813.454,-304.342 826.344,-248.882 830.799,-219.814"/>
<polygon fill="midnightblue" stroke="midnightblue" points="834.287,-220.137 832.16,-209.758 827.35,-219.198 834.287,-220.137"/>
</g>
<!-- Node31 -->
<g id="node32" class="node"><title>Node31</title>
<g id="a_node32"><a xlink:href="_n_f_i_record_8h.html" target="_top" xlink:title="NFComm/NFCore/NFIRecord.h">
<polygon fill="white" stroke="black" points="618.5,-308 618.5,-327 769.5,-327 769.5,-308 618.5,-308"/>
<text text-anchor="middle" x="694" y="-315" font-family="Helvetica,sans-Serif" font-size="10.00">NFComm/NFCore/NFIRecord.h</text>
</a>
</g>
</g>
<!-- Node15&#45;&gt;Node31 -->
<g id="edge59" class="edge"><title>Node15&#45;&gt;Node31</title>
<path fill="none" stroke="midnightblue" d="M546.793,-369.396C580.51,-357.739 627.844,-341.373 659.651,-330.376"/>
<polygon fill="midnightblue" stroke="midnightblue" points="661.088,-333.583 669.395,-327.007 658.8,-326.967 661.088,-333.583"/>
</g>
<!-- Node32 -->
<g id="node33" class="node"><title>Node32</title>
<g id="a_node33"><a xlink:href="_n_f_event_define_8h.html" target="_top" xlink:title="NFComm/NFEventDefine\l/NFEventDefine.h">
<polygon fill="white" stroke="black" points="103.5,-302.5 103.5,-332.5 228.5,-332.5 228.5,-302.5 103.5,-302.5"/>
<text text-anchor="start" x="111.5" y="-320.5" font-family="Helvetica,sans-Serif" font-size="10.00">NFComm/NFEventDefine</text>
<text text-anchor="middle" x="166" y="-309.5" font-family="Helvetica,sans-Serif" font-size="10.00">/NFEventDefine.h</text>
</a>
</g>
</g>
<!-- Node15&#45;&gt;Node32 -->
<g id="edge62" class="edge"><title>Node15&#45;&gt;Node32</title>
<path fill="none" stroke="midnightblue" d="M439.637,-370.813C381.909,-359.777 298.397,-343.811 238.838,-332.425"/>
<polygon fill="midnightblue" stroke="midnightblue" points="239.231,-328.937 228.751,-330.497 237.916,-335.812 239.231,-328.937"/>
</g>
<!-- Node16&#45;&gt;Node1 -->
<g id="edge26" class="edge"><title>Node16&#45;&gt;Node1</title>
<path fill="none" stroke="midnightblue" d="M414.084,-190.25C418.953,-174.689 426.295,-142.054 410,-123 377.061,-84.4821 223.403,-75.3425 151.405,-73.1742"/>
<polygon fill="midnightblue" stroke="midnightblue" points="151.491,-69.6753 141.399,-72.9022 151.301,-76.6727 151.491,-69.6753"/>
</g>
<!-- Node16&#45;&gt;Node4 -->
<g id="edge27" class="edge"><title>Node16&#45;&gt;Node4</title>
<path fill="none" stroke="midnightblue" d="M407.132,-190.475C403.202,-181.815 397,-168.149 392.007,-157.145"/>
<polygon fill="midnightblue" stroke="midnightblue" points="395.181,-155.669 387.861,-148.009 388.806,-158.562 395.181,-155.669"/>
</g>
<!-- Node16&#45;&gt;Node5 -->
<g id="edge28" class="edge"><title>Node16&#45;&gt;Node5</title>
<path fill="none" stroke="midnightblue" d="M382.287,-190.345C356.732,-182.231 318.615,-169.108 287,-154 286.451,-153.738 285.898,-153.466 285.344,-153.188"/>
<polygon fill="midnightblue" stroke="midnightblue" points="286.894,-150.045 276.451,-148.256 283.499,-156.167 286.894,-150.045"/>
</g>
<!-- Node16&#45;&gt;Node10 -->
<g id="edge30" class="edge"><title>Node16&#45;&gt;Node10</title>
<path fill="none" stroke="midnightblue" d="M422.13,-190.347C441.955,-175.222 485.055,-143.628 525,-123 550.02,-110.079 579.136,-98.5938 603.647,-89.8539"/>
<polygon fill="midnightblue" stroke="midnightblue" points="604.867,-93.1351 613.144,-86.5215 602.549,-86.5299 604.867,-93.1351"/>
</g>
<!-- Node17 -->
<g id="node18" class="node"><title>Node17</title>
<polygon fill="white" stroke="#bfbfbf" points="534,-129 534,-148 590,-148 590,-129 534,-129"/>
<text text-anchor="middle" x="562" y="-136" font-family="Helvetica,sans-Serif" font-size="10.00">algorithm</text>
</g>
<!-- Node16&#45;&gt;Node17 -->
<g id="edge29" class="edge"><title>Node16&#45;&gt;Node17</title>
<path fill="none" stroke="midnightblue" d="M432.635,-190.475C458.424,-180.313 501.711,-163.256 531.04,-151.7"/>
<polygon fill="midnightblue" stroke="midnightblue" points="532.385,-154.932 540.406,-148.009 529.819,-148.419 532.385,-154.932"/>
</g>
<!-- Node19 -->
<g id="node20" class="node"><title>Node19</title>
<polygon fill="white" stroke="#bfbfbf" points="608,-129 608,-148 666,-148 666,-129 608,-129"/>
<text text-anchor="middle" x="637" y="-136" font-family="Helvetica,sans-Serif" font-size="10.00">functional</text>
</g>
<!-- Node18&#45;&gt;Node19 -->
<g id="edge32" class="edge"><title>Node18&#45;&gt;Node19</title>
<path fill="none" stroke="midnightblue" d="M689.716,-246.319C680.432,-227.506 658.294,-182.648 645.861,-157.455"/>
<polygon fill="midnightblue" stroke="midnightblue" points="648.898,-155.701 641.334,-148.282 642.621,-158.798 648.898,-155.701"/>
</g>
<!-- Node18&#45;&gt;Node20 -->
<g id="edge33" class="edge"><title>Node18&#45;&gt;Node20</title>
<path fill="none" stroke="midnightblue" d="M716.025,-246.444C739.104,-237.478 775.562,-223.314 801.641,-213.183"/>
<polygon fill="midnightblue" stroke="midnightblue" points="803.024,-216.4 811.078,-209.516 800.489,-209.875 803.024,-216.4"/>
</g>
<!-- Node28 -->
<g id="node29" class="node"><title>Node28</title>
<g id="a_node29"><a xlink:href="_n_f_g_u_i_d_8h.html" target="_top" xlink:title="NFComm/NFPluginModule\l/NFGUID.h">
<polygon fill="white" stroke="black" points="722,-123.5 722,-153.5 854,-153.5 854,-123.5 722,-123.5"/>
<text text-anchor="start" x="730" y="-141.5" font-family="Helvetica,sans-Serif" font-size="10.00">NFComm/NFPluginModule</text>
<text text-anchor="middle" x="788" y="-130.5" font-family="Helvetica,sans-Serif" font-size="10.00">/NFGUID.h</text>
</a>
</g>
</g>
<!-- Node18&#45;&gt;Node28 -->
<g id="edge57" class="edge"><title>Node18&#45;&gt;Node28</title>
<path fill="none" stroke="midnightblue" d="M701.065,-246.319C715.566,-228.502 749.078,-187.324 770.002,-161.615"/>
<polygon fill="midnightblue" stroke="midnightblue" points="772.972,-163.511 776.569,-153.545 767.542,-159.092 772.972,-163.511"/>
</g>
<!-- Node20&#45;&gt;Node1 -->
<g id="edge36" class="edge"><title>Node20&#45;&gt;Node1</title>
<path fill="none" stroke="midnightblue" d="M802.193,-190.49C777.198,-182.883 741.552,-170.406 713,-154 694.102,-143.141 695.184,-131.227 675,-123 579.584,-84.1091 261.113,-75.0266 151.469,-73.0305"/>
<polygon fill="midnightblue" stroke="midnightblue" points="151.285,-69.5269 141.227,-72.8539 151.165,-76.5259 151.285,-69.5269"/>
</g>
<!-- Node20&#45;&gt;Node2 -->
<g id="edge43" class="edge"><title>Node20&#45;&gt;Node2</title>
<path fill="none" stroke="midnightblue" d="M875.27,-197.847C1006.45,-194.021 1405.38,-180.463 1532,-154 1535.43,-153.283 1538.96,-152.334 1542.44,-151.264"/>
<polygon fill="midnightblue" stroke="midnightblue" points="1543.64,-154.554 1551.97,-148.016 1541.38,-147.927 1543.64,-154.554"/>
</g>
<!-- Node20&#45;&gt;Node4 -->
<g id="edge41" class="edge"><title>Node20&#45;&gt;Node4</title>
<path fill="none" stroke="midnightblue" d="M790.759,-193.402C700.04,-181.381 488.624,-153.364 412.201,-143.237"/>
<polygon fill="midnightblue" stroke="midnightblue" points="412.308,-139.721 401.935,-141.877 411.388,-146.66 412.308,-139.721"/>
</g>
<!-- Node20&#45;&gt;Node5 -->
<g id="edge39" class="edge"><title>Node20&#45;&gt;Node5</title>
<path fill="none" stroke="midnightblue" d="M790.942,-198.015C679.843,-195.021 380.664,-184.298 287,-154 285.935,-153.655 284.867,-153.256 283.806,-152.814"/>
<polygon fill="midnightblue" stroke="midnightblue" points="285.164,-149.574 274.683,-148.031 281.914,-155.774 285.164,-149.574"/>
</g>
<!-- Node20&#45;&gt;Node6 -->
<g id="edge34" class="edge"><title>Node20&#45;&gt;Node6</title>
<path fill="none" stroke="midnightblue" d="M875.037,-197.542C1012.35,-192.577 1440.04,-175.444 1460,-154 1469.39,-143.915 1468.47,-133.863 1460,-123 1384.75,-26.5332 1313.96,-74.3809 1193,-56 909.146,-12.8651 832.561,-58.1944 548,-20 544.309,-19.5046 540.46,-18.86 536.655,-18.1433"/>
<polygon fill="midnightblue" stroke="midnightblue" points="537.323,-14.7075 526.824,-16.1305 535.919,-21.5653 537.323,-14.7075"/>
</g>
<!-- Node20&#45;&gt;Node7 -->
<g id="edge44" class="edge"><title>Node20&#45;&gt;Node7</title>
<path fill="none" stroke="midnightblue" d="M790.903,-197.598C673.465,-193.402 343.993,-179.623 239,-154 236.491,-153.388 233.93,-152.609 231.396,-151.733"/>
<polygon fill="midnightblue" stroke="midnightblue" points="232.508,-148.409 221.921,-148.005 229.945,-154.923 232.508,-148.409"/>
</g>
<!-- Node20&#45;&gt;Node9 -->
<g id="edge48" class="edge"><title>Node20&#45;&gt;Node9</title>
<path fill="none" stroke="midnightblue" d="M790.914,-199.196C707.051,-198.679 513.686,-192.927 357,-154 354.487,-153.376 351.918,-152.6 349.372,-151.735"/>
<polygon fill="midnightblue" stroke="midnightblue" points="350.408,-148.384 339.817,-148.083 347.909,-154.923 350.408,-148.384"/>
</g>
<!-- Node20&#45;&gt;Node10 -->
<g id="edge55" class="edge"><title>Node20&#45;&gt;Node10</title>
<path fill="none" stroke="midnightblue" d="M875.307,-197.335C1007.38,-191.934 1404.39,-174.086 1423,-154 1432.36,-143.894 1432.48,-133.001 1423,-123 1371.95,-69.1236 829.851,-94.3856 756,-87 748.609,-86.2608 740.925,-85.364 733.251,-84.3829"/>
<polygon fill="midnightblue" stroke="midnightblue" points="733.569,-80.8945 723.196,-83.0506 732.65,-87.8338 733.569,-80.8945"/>
</g>
<!-- Node20&#45;&gt;Node17 -->
<g id="edge42" class="edge"><title>Node20&#45;&gt;Node17</title>
<path fill="none" stroke="midnightblue" d="M790.602,-193.242C743.298,-186.266 664.767,-173.036 599,-154 596.417,-153.252 593.764,-152.397 591.121,-151.483"/>
<polygon fill="midnightblue" stroke="midnightblue" points="592.332,-148.199 581.739,-148.008 589.901,-154.763 592.332,-148.199"/>
</g>
<!-- Node20&#45;&gt;Node19 -->
<g id="edge46" class="edge"><title>Node20&#45;&gt;Node19</title>
<path fill="none" stroke="midnightblue" d="M802.703,-190.468C771.758,-181.665 722.379,-167.372 680,-154 677.253,-153.133 674.414,-152.218 671.564,-151.287"/>
<polygon fill="midnightblue" stroke="midnightblue" points="672.551,-147.926 661.957,-148.1 670.347,-154.57 672.551,-147.926"/>
</g>
<!-- Node21 -->
<g id="node22" class="node"><title>Node21</title>
<polygon fill="white" stroke="#bfbfbf" points="872,-129 872,-148 918,-148 918,-129 872,-129"/>
<text text-anchor="middle" x="895" y="-136" font-family="Helvetica,sans-Serif" font-size="10.00">cstring</text>
</g>
<!-- Node20&#45;&gt;Node21 -->
<g id="edge35" class="edge"><title>Node20&#45;&gt;Node21</title>
<path fill="none" stroke="midnightblue" d="M841.883,-190.475C851.459,-181.285 866.911,-166.456 878.686,-155.156"/>
<polygon fill="midnightblue" stroke="midnightblue" points="881.342,-157.458 886.133,-148.009 876.495,-152.408 881.342,-157.458"/>
</g>
<!-- Node22 -->
<g id="node23" class="node"><title>Node22</title>
<polygon fill="white" stroke="#bfbfbf" points="1136,-62 1136,-81 1184,-81 1184,-62 1136,-62"/>
<text text-anchor="middle" x="1160" y="-69" font-family="Helvetica,sans-Serif" font-size="10.00">stdlib.h</text>
</g>
<!-- Node20&#45;&gt;Node22 -->
<g id="edge37" class="edge"><title>Node20&#45;&gt;Node22</title>
<path fill="none" stroke="midnightblue" d="M875.101,-197.436C1009.52,-192.242 1420.77,-174.714 1440,-154 1511.42,-77.0844 1283.52,-71.2967 1194.27,-71.8766"/>
<polygon fill="midnightblue" stroke="midnightblue" points="1194.07,-68.3783 1184.1,-71.9746 1194.13,-75.378 1194.07,-68.3783"/>
</g>
<!-- Node23 -->
<g id="node24" class="node"><title>Node23</title>
<polygon fill="white" stroke="#bfbfbf" points="936.5,-129 936.5,-148 983.5,-148 983.5,-129 936.5,-129"/>
<text text-anchor="middle" x="960" y="-136" font-family="Helvetica,sans-Serif" font-size="10.00">math.h</text>
</g>
<!-- Node20&#45;&gt;Node23 -->
<g id="edge38" class="edge"><title>Node20&#45;&gt;Node23</title>
<path fill="none" stroke="midnightblue" d="M851.196,-190.475C872.509,-180.49 908.031,-163.848 932.663,-152.307"/>
<polygon fill="midnightblue" stroke="midnightblue" points="934.267,-155.421 941.838,-148.009 931.297,-149.082 934.267,-155.421"/>
</g>
<!-- Node24 -->
<g id="node25" class="node"><title>Node24</title>
<polygon fill="white" stroke="#bfbfbf" points="1002,-129 1002,-148 1044,-148 1044,-129 1002,-129"/>
<text text-anchor="middle" x="1023" y="-136" font-family="Helvetica,sans-Serif" font-size="10.00">vector</text>
</g>
<!-- Node20&#45;&gt;Node24 -->
<g id="edge40" class="edge"><title>Node20&#45;&gt;Node24</title>
<path fill="none" stroke="midnightblue" d="M870.457,-190.449C903.269,-182.491 951.985,-169.541 993,-154 994.42,-153.462 995.864,-152.882 997.313,-152.274"/>
<polygon fill="midnightblue" stroke="midnightblue" points="999.06,-155.325 1006.72,-148.009 996.171,-148.949 999.06,-155.325"/>
</g>
<!-- Node25 -->
<g id="node26" class="node"><title>Node25</title>
<polygon fill="white" stroke="#bfbfbf" points="1062,-129 1062,-148 1112,-148 1112,-129 1062,-129"/>
<text text-anchor="middle" x="1087" y="-136" font-family="Helvetica,sans-Serif" font-size="10.00">iomanip</text>
</g>
<!-- Node20&#45;&gt;Node25 -->
<g id="edge45" class="edge"><title>Node20&#45;&gt;Node25</title>
<path fill="none" stroke="midnightblue" d="M875.403,-192.928C920.18,-185.915 992.524,-172.869 1053,-154 1055.14,-153.332 1057.33,-152.577 1059.51,-151.77"/>
<polygon fill="midnightblue" stroke="midnightblue" points="1060.92,-154.978 1068.9,-148.016 1058.32,-148.479 1060.92,-154.978"/>
</g>
<!-- Node26 -->
<g id="node27" class="node"><title>Node26</title>
<polygon fill="white" stroke="#bfbfbf" points="1130.5,-129 1130.5,-148 1179.5,-148 1179.5,-129 1130.5,-129"/>
<text text-anchor="middle" x="1155" y="-136" font-family="Helvetica,sans-Serif" font-size="10.00">fstream</text>
</g>
<!-- Node20&#45;&gt;Node26 -->
<g id="edge47" class="edge"><title>Node20&#45;&gt;Node26</title>
<path fill="none" stroke="midnightblue" d="M875.196,-195.707C931.952,-190.534 1035.62,-178.464 1121,-154 1123.29,-153.344 1125.63,-152.573 1127.96,-151.735"/>
<polygon fill="midnightblue" stroke="midnightblue" points="1129.3,-154.969 1137.3,-148.028 1126.72,-148.462 1129.3,-154.969"/>
</g>
<!-- Node27 -->
<g id="node28" class="node"><title>Node27</title>
<polygon fill="white" stroke="#bfbfbf" points="1198,-129 1198,-148 1302,-148 1302,-129 1198,-129"/>
<text text-anchor="middle" x="1250" y="-136" font-family="Helvetica,sans-Serif" font-size="10.00">common/variant.hpp</text>
</g>
<!-- Node20&#45;&gt;Node27 -->
<g id="edge49" class="edge"><title>Node20&#45;&gt;Node27</title>
<path fill="none" stroke="midnightblue" d="M875.149,-195.155C942.014,-188.723 1076.37,-174.444 1189,-154 1194.83,-152.941 1200.94,-151.677 1206.95,-150.343"/>
<polygon fill="midnightblue" stroke="midnightblue" points="1207.93,-153.708 1216.89,-148.054 1206.36,-146.886 1207.93,-153.708"/>
</g>
<!-- Node20&#45;&gt;Node28 -->
<g id="edge50" class="edge"><title>Node20&#45;&gt;Node28</title>
<path fill="none" stroke="midnightblue" d="M826.553,-190.475C820.857,-182.944 812.297,-171.626 804.689,-161.566"/>
<polygon fill="midnightblue" stroke="midnightblue" points="807.429,-159.388 798.606,-153.523 801.846,-163.61 807.429,-159.388"/>
</g>
<!-- Node30 -->
<g id="node31" class="node"><title>Node30</title>
<g id="a_node31"><a xlink:href="_vector3_8hpp.html" target="_top" xlink:title="Math/Vector3.hpp">
<polygon fill="white" stroke="black" points="1320,-129 1320,-148 1414,-148 1414,-129 1320,-129"/>
<text text-anchor="middle" x="1367" y="-136" font-family="Helvetica,sans-Serif" font-size="10.00">Math/Vector3.hpp</text>
</a>
</g>
</g>
<!-- Node20&#45;&gt;Node30 -->
<g id="edge56" class="edge"><title>Node20&#45;&gt;Node30</title>
<path fill="none" stroke="midnightblue" d="M875.18,-197.29C958.85,-193.402 1151.52,-181.97 1311,-154 1316.44,-153.046 1322.13,-151.832 1327.71,-150.515"/>
<polygon fill="midnightblue" stroke="midnightblue" points="1328.69,-153.877 1337.55,-148.065 1327,-147.084 1328.69,-153.877"/>
</g>
<!-- Node28&#45;&gt;Node1 -->
<g id="edge52" class="edge"><title>Node28&#45;&gt;Node1</title>
<path fill="none" stroke="midnightblue" d="M721.722,-124.989C717.086,-124.267 712.478,-123.595 708,-123 498.321,-95.1481 244.851,-79.5809 151.147,-74.4349"/>
<polygon fill="midnightblue" stroke="midnightblue" points="151.211,-70.9333 141.036,-73.8862 150.832,-77.923 151.211,-70.9333"/>
</g>
<!-- Node28&#45;&gt;Node10 -->
<g id="edge51" class="edge"><title>Node28&#45;&gt;Node10</title>
<path fill="none" stroke="midnightblue" d="M759.575,-123.396C740.52,-113.941 715.224,-101.39 694.52,-91.1168"/>
<polygon fill="midnightblue" stroke="midnightblue" points="695.883,-87.8861 685.37,-86.5765 692.772,-94.1566 695.883,-87.8861"/>
</g>
<!-- Node28&#45;&gt;Node22 -->
<g id="edge54" class="edge"><title>Node28&#45;&gt;Node22</title>
<path fill="none" stroke="midnightblue" d="M854.238,-124.61C857.198,-124.06 860.129,-123.521 863,-123 957.997,-105.743 1070.43,-87.1146 1125.75,-78.0662"/>
<polygon fill="midnightblue" stroke="midnightblue" points="1126.41,-81.5049 1135.71,-76.439 1125.28,-74.5964 1126.41,-81.5049"/>
</g>
<!-- Node29 -->
<g id="node30" class="node"><title>Node29</title>
<polygon fill="white" stroke="#bfbfbf" points="765,-62 765,-81 811,-81 811,-62 765,-62"/>
<text text-anchor="middle" x="788" y="-69" font-family="Helvetica,sans-Serif" font-size="10.00">stdio.h</text>
</g>
<!-- Node28&#45;&gt;Node29 -->
<g id="edge53" class="edge"><title>Node28&#45;&gt;Node29</title>
<path fill="none" stroke="midnightblue" d="M788,-123.396C788,-114.064 788,-101.714 788,-91.5173"/>
<polygon fill="midnightblue" stroke="midnightblue" points="791.5,-91.1945 788,-81.1945 784.5,-91.1946 791.5,-91.1945"/>
</g>
<!-- Node31&#45;&gt;Node18 -->
<g id="edge60" class="edge"><title>Node31&#45;&gt;Node18</title>
<path fill="none" stroke="midnightblue" d="M694,-307.975C694,-299.58 694,-286.481 694,-275.663"/>
<polygon fill="midnightblue" stroke="midnightblue" points="697.5,-275.509 694,-265.509 690.5,-275.509 697.5,-275.509"/>
</g>
<!-- Node31&#45;&gt;Node20 -->
<g id="edge61" class="edge"><title>Node31&#45;&gt;Node20</title>
<path fill="none" stroke="midnightblue" d="M710.753,-307.898C727.816,-298.729 754.591,-283.185 775,-266 792.272,-251.456 809.125,-231.769 820.173,-217.884"/>
<polygon fill="midnightblue" stroke="midnightblue" points="823.156,-219.749 826.541,-209.709 817.634,-215.447 823.156,-219.749"/>
</g>
<!-- Node32&#45;&gt;Node1 -->
<g id="edge63" class="edge"><title>Node32&#45;&gt;Node1</title>
<path fill="none" stroke="midnightblue" d="M156.633,-302.355C143.986,-282.561 121.692,-245.078 110,-210 102.029,-186.085 103.006,-179.128 101,-154 99.9034,-140.266 99.2689,-136.669 101,-123 102.357,-112.284 105.273,-100.587 108,-91.1517"/>
<polygon fill="midnightblue" stroke="midnightblue" points="111.433,-91.8944 111.01,-81.308 104.739,-89.8477 111.433,-91.8944"/>
</g>
<!-- Node33&#45;&gt;Node15 -->
<g id="edge66" class="edge"><title>Node33&#45;&gt;Node15</title>
<path fill="none" stroke="midnightblue" d="M542.802,-436.396C536.766,-428.049 528.985,-417.287 522.133,-407.811"/>
<polygon fill="midnightblue" stroke="midnightblue" points="524.874,-405.629 516.178,-399.577 519.202,-409.731 524.874,-405.629"/>
</g>
</g>
</svg>
        <g id="navigator" transform="translate(0 0)" fill="#404254">
                <rect fill="#f2f5e9" fill-opacity="0.5" stroke="#606060" stroke-width=".5" x="0" y="0" width="60" height="60"/>
                <use id="zoomplus" xlink:href="#zoomPlus" x="17" y="9" onmousedown="handleZoom(evt,'in')"/>
                <use id="zoomminus" xlink:href="#zoomMin" x="42" y="9" onmousedown="handleZoom(evt,'out')"/>
                <use id="reset" xlink:href="#resetDef" x="30" y="36" onmousedown="handleReset()"/>
                <g id="arrowUp" xlink:href="#dirArrow" transform="translate(30 24)" onmousedown="handlePan(0,-1)">
                  <use xlink:href="#rim" fill="#404040">
                        <set attributeName="fill" to="#808080" begin="arrowUp.mouseover" end="arrowUp.mouseout"/>
                  </use>
                  <path fill="none" stroke="white" stroke-width="1.5" d="M0,-3.0v7 M-2.5,-0.5L0,-3.0L2.5,-0.5"/>
                </g>
                <g id="arrowRight" xlink:href="#dirArrow" transform="rotate(90) translate(36 -43)" onmousedown="handlePan(1,0)">
                  <use xlink:href="#rim" fill="#404040">
                        <set attributeName="fill" to="#808080" begin="arrowRight.mouseover" end="arrowRight.mouseout"/>
                  </use>
                  <path fill="none" stroke="white" stroke-width="1.5" d="M0,-3.0v7 M-2.5,-0.5L0,-3.0L2.5,-0.5"/>
                </g>
                <g id="arrowDown" xlink:href="#dirArrow" transform="rotate(180) translate(-30 -48)" onmousedown="handlePan(0,1)">
                  <use xlink:href="#rim" fill="#404040">
                        <set attributeName="fill" to="#808080" begin="arrowDown.mouseover" end="arrowDown.mouseout"/>
                  </use>
                  <path fill="none" stroke="white" stroke-width="1.5" d="M0,-3.0v7 M-2.5,-0.5L0,-3.0L2.5,-0.5"/>
                </g>
                <g id="arrowLeft" xlink:href="#dirArrow" transform="rotate(270) translate(-36 17)" onmousedown="handlePan(-1,0)">
                  <use xlink:href="#rim" fill="#404040">
                        <set attributeName="fill" to="#808080" begin="arrowLeft.mouseover" end="arrowLeft.mouseout"/>
                  </use>
                  <path fill="none" stroke="white" stroke-width="1.5" d="M0,-3.0v7 M-2.5,-0.5L0,-3.0L2.5,-0.5"/>
                </g>
        </g>
        <svg viewBox="0 0 15 15" width="100%" height="30px" preserveAspectRatio="xMaxYMin meet">
         <g id="arrow_out" transform="scale(0.3 0.3)">
          <a xlink:href="_n_f_i_plugin_8h__incl_org.svg" target="_base">
           <rect id="button" ry="5" rx="5" y="6" x="6" height="38" width="38"
                fill="#f2f5e9" fill-opacity="0.5" stroke="#606060" stroke-width="1.0"/>
           <path id="arrow"
             d="M 11.500037,31.436501 C 11.940474,20.09759 22.043105,11.32322 32.158766,21.979434 L 37.068811,17.246167 C 37.068811,17.246167 37.088388,32 37.088388,32 L 22.160133,31.978069 C 22.160133,31.978069 26.997745,27.140456 26.997745,27.140456 C 18.528582,18.264221 13.291696,25.230495 11.500037,31.436501 z"
             style="fill:#404040;"/>
          </a>
         </g>
        </svg>
</svg>
