<?xml version="1.0" encoding="UTF-8" standalone="no"?>
<!DOCTYPE svg PUBLIC "-//W3C//DTD SVG 1.1//EN"
 "http://www.w3.org/Graphics/SVG/1.1/DTD/svg11.dtd">
<!-- Generated by graphviz version 2.38.0 (20140413.2041)
 -->
<!-- Title: NFCEventManager.h Pages: 1 -->
<!--zoomable 386 -->
<svg id="main" version="1.1" xmlns="http://www.w3.org/2000/svg" xmlns:xlink="http://www.w3.org/1999/xlink" xml:space="preserve" onload="init(evt)">
<style type="text/css"><![CDATA[
.edge:hover path { stroke: red; }
.edge:hover polygon { stroke: red; fill: red; }
]]></style>
<script type="text/javascript"><![CDATA[
var edges = document.getElementsByTagName('g');
if (edges && edges.length) {
  for (var i=0;i<edges.length;i++) {
    if (edges[i].id.substr(0,4)=='edge') {
      edges[i].setAttribute('class','edge');
    }
  }
}
]]></script>
        <defs>
                <circle id="rim" cx="0" cy="0" r="7"/>
                <circle id="rim2" cx="0" cy="0" r="3.5"/>
                <g id="zoomPlus">
                        <use xlink:href="#rim" fill="#404040">
                                <set attributeName="fill" to="#808080" begin="zoomplus.mouseover" end="zoomplus.mouseout"/>
                        </use>
                        <path d="M-4,0h8M0,-4v8" fill="none" stroke="white" stroke-width="1.5" pointer-events="none"/>
                </g>
                <g id="zoomMin">
                        <use xlink:href="#rim" fill="#404040">
                                <set attributeName="fill" to="#808080" begin="zoomminus.mouseover" end="zoomminus.mouseout"/>
                        </use>
                        <path d="M-4,0h8" fill="none" stroke="white" stroke-width="1.5" pointer-events="none"/>
                </g>
                <g id="dirArrow">
                        <path fill="none" stroke="white" stroke-width="1.5" d="M0,-3.0v7 M-2.5,-0.5L0,-3.0L2.5,-0.5"/>
                </g>
               <g id="resetDef">
                       <use xlink:href="#rim2" fill="#404040">
                               <set attributeName="fill" to="#808080" begin="reset.mouseover" end="reset.mouseout"/>
                       </use>
               </g>
        </defs>

<script type="text/javascript">
var viewWidth = 1647;
var viewHeight = 386;
var sectionId = 'dynsection-0';
</script>
<script xlink:href="svgpan.js"/>
<svg id="graph" class="graph">
<g id="viewport">
<title>NFCEventManager.h</title>
<polygon fill="white" stroke="none" points="-4,4 -4,-382 1643,-382 1643,4 -4,4"/>
<!-- Node0 -->
<g id="node1" class="node"><title>Node0</title>
<polygon fill="#bfbfbf" stroke="black" points="774,-358.5 774,-377.5 880,-377.5 880,-358.5 774,-358.5"/>
<text text-anchor="middle" x="827" y="-365.5" font-family="Helvetica,sans-Serif" font-size="10.00">NFCEventManager.h</text>
</g>
<!-- Node1 -->
<g id="node2" class="node"><title>Node1</title>
<g id="a_node2"><a xlink:href="_n_f_i_event_manager_8h.html" target="_top" xlink:title="NFIEventManager.h">
<polygon fill="white" stroke="black" points="827.5,-302.5 827.5,-321.5 928.5,-321.5 928.5,-302.5 827.5,-302.5"/>
<text text-anchor="middle" x="878" y="-309.5" font-family="Helvetica,sans-Serif" font-size="10.00">NFIEventManager.h</text>
</a>
</g>
</g>
<!-- Node0&#45;&gt;Node1 -->
<g id="edge1" class="edge"><title>Node0&#45;&gt;Node1</title>
<path fill="none" stroke="midnightblue" d="M835.422,-358.083C842.848,-350.22 853.852,-338.569 862.812,-329.081"/>
<polygon fill="midnightblue" stroke="midnightblue" points="865.413,-331.424 869.735,-321.751 860.324,-326.618 865.413,-331.424"/>
</g>
<!-- Node4 -->
<g id="node5" class="node"><title>Node4</title>
<g id="a_node5"><a xlink:href="_n_f_define_8h.html" target="_top" xlink:title="NFDefine.h">
<polygon fill="white" stroke="black" points="700.5,-241 700.5,-260 765.5,-260 765.5,-241 700.5,-241"/>
<text text-anchor="middle" x="733" y="-248" font-family="Helvetica,sans-Serif" font-size="10.00">NFDefine.h</text>
</a>
</g>
</g>
<!-- Node0&#45;&gt;Node4 -->
<g id="edge53" class="edge"><title>Node0&#45;&gt;Node4</title>
<path fill="none" stroke="midnightblue" d="M819.935,-358.319C804.352,-339.172 766.811,-293.044 746.535,-268.131"/>
<polygon fill="midnightblue" stroke="midnightblue" points="749.174,-265.829 740.147,-260.282 743.745,-270.247 749.174,-265.829"/>
</g>
<!-- Node2 -->
<g id="node3" class="node"><title>Node2</title>
<polygon fill="white" stroke="#bfbfbf" points="1456,-56.5 1456,-75.5 1510,-75.5 1510,-56.5 1456,-56.5"/>
<text text-anchor="middle" x="1483" y="-63.5" font-family="Helvetica,sans-Serif" font-size="10.00">iostream</text>
</g>
<!-- Node1&#45;&gt;Node2 -->
<g id="edge2" class="edge"><title>Node1&#45;&gt;Node2</title>
<path fill="none" stroke="midnightblue" d="M928.869,-310.365C1062.21,-308.237 1414.33,-299.477 1454,-266 1507.05,-221.227 1495.19,-125.951 1487.24,-85.6365"/>
<polygon fill="midnightblue" stroke="midnightblue" points="1490.62,-84.6646 1485.12,-75.6077 1483.77,-86.1161 1490.62,-84.6646"/>
</g>
<!-- Node3 -->
<g id="node4" class="node"><title>Node3</title>
<polygon fill="white" stroke="#bfbfbf" points="0,-118 0,-137 58,-137 58,-118 0,-118"/>
<text text-anchor="middle" x="29" y="-125" font-family="Helvetica,sans-Serif" font-size="10.00">functional</text>
</g>
<!-- Node1&#45;&gt;Node3 -->
<g id="edge3" class="edge"><title>Node1&#45;&gt;Node3</title>
<path fill="none" stroke="midnightblue" d="M827.491,-305.27C717.121,-292.109 446.646,-256.37 226,-199 165.166,-183.183 96.566,-156.538 58.4921,-140.93"/>
<polygon fill="midnightblue" stroke="midnightblue" points="59.6224,-137.61 49.0436,-137.026 56.949,-144.079 59.6224,-137.61"/>
</g>
<!-- Node1&#45;&gt;Node4 -->
<g id="edge4" class="edge"><title>Node1&#45;&gt;Node4</title>
<path fill="none" stroke="midnightblue" d="M857.225,-302.475C832.568,-292.357 791.255,-275.405 763.098,-263.851"/>
<polygon fill="midnightblue" stroke="midnightblue" points="764.317,-260.567 753.736,-260.009 761.659,-267.043 764.317,-260.567"/>
</g>
<!-- Node5 -->
<g id="node6" class="node"><title>Node5</title>
<g id="a_node6"><a xlink:href="_a_f_data_list_8hpp.html" target="_top" xlink:title="AFDataList.hpp">
<polygon fill="white" stroke="black" points="691,-179.5 691,-198.5 775,-198.5 775,-179.5 691,-179.5"/>
<text text-anchor="middle" x="733" y="-186.5" font-family="Helvetica,sans-Serif" font-size="10.00">AFDataList.hpp</text>
</a>
</g>
</g>
<!-- Node1&#45;&gt;Node5 -->
<g id="edge50" class="edge"><title>Node1&#45;&gt;Node5</title>
<path fill="none" stroke="midnightblue" d="M867.572,-302.298C843.117,-281.891 781.832,-230.75 751.127,-205.127"/>
<polygon fill="midnightblue" stroke="midnightblue" points="753.254,-202.343 743.334,-198.623 748.769,-207.718 753.254,-202.343"/>
</g>
<!-- Node28 -->
<g id="node29" class="node"><title>Node28</title>
<g id="a_node29"><a xlink:href="_n_f_list_8h.html" target="_top" xlink:title="NFList.h">
<polygon fill="white" stroke="black" points="1098.5,-179.5 1098.5,-198.5 1151.5,-198.5 1151.5,-179.5 1098.5,-179.5"/>
<text text-anchor="middle" x="1125" y="-186.5" font-family="Helvetica,sans-Serif" font-size="10.00">NFList.h</text>
</a>
</g>
</g>
<!-- Node1&#45;&gt;Node28 -->
<g id="edge36" class="edge"><title>Node1&#45;&gt;Node28</title>
<path fill="none" stroke="midnightblue" d="M895.369,-302.492C937.871,-281.671 1047.34,-228.042 1098.24,-203.108"/>
<polygon fill="midnightblue" stroke="midnightblue" points="1099.88,-206.203 1107.32,-198.661 1096.8,-199.917 1099.88,-206.203"/>
</g>
<!-- Node29 -->
<g id="node30" class="node"><title>Node29</title>
<g id="a_node30"><a xlink:href="_n_f_map_ex_8h.html" target="_top" xlink:title="NFMapEx.h">
<polygon fill="white" stroke="black" points="1247,-179.5 1247,-198.5 1315,-198.5 1315,-179.5 1247,-179.5"/>
<text text-anchor="middle" x="1281" y="-186.5" font-family="Helvetica,sans-Serif" font-size="10.00">NFMapEx.h</text>
</a>
</g>
</g>
<!-- Node1&#45;&gt;Node29 -->
<g id="edge42" class="edge"><title>Node1&#45;&gt;Node29</title>
<path fill="none" stroke="midnightblue" d="M906.338,-302.492C977.212,-281.212 1162.22,-225.664 1242.69,-201.503"/>
<polygon fill="midnightblue" stroke="midnightblue" points="1243.85,-204.808 1252.42,-198.58 1241.84,-198.103 1243.85,-204.808"/>
</g>
<!-- Node30 -->
<g id="node31" class="node"><title>Node30</title>
<g id="a_node31"><a xlink:href="_n_f_event_define_8h.html" target="_top" xlink:title="NFComm/NFEventDefine\l/NFEventDefine.h">
<polygon fill="white" stroke="black" points="1320.5,-235.5 1320.5,-265.5 1445.5,-265.5 1445.5,-235.5 1320.5,-235.5"/>
<text text-anchor="start" x="1328.5" y="-253.5" font-family="Helvetica,sans-Serif" font-size="10.00">NFComm/NFEventDefine</text>
<text text-anchor="middle" x="1383" y="-242.5" font-family="Helvetica,sans-Serif" font-size="10.00">/NFEventDefine.h</text>
</a>
</g>
</g>
<!-- Node1&#45;&gt;Node30 -->
<g id="edge51" class="edge"><title>Node1&#45;&gt;Node30</title>
<path fill="none" stroke="midnightblue" d="M928.734,-305.022C1018.66,-294.427 1206.29,-272.321 1310.06,-260.094"/>
<polygon fill="midnightblue" stroke="midnightblue" points="1310.62,-263.552 1320.14,-258.906 1309.8,-256.6 1310.62,-263.552"/>
</g>
<!-- Node4&#45;&gt;Node3 -->
<g id="edge5" class="edge"><title>Node4&#45;&gt;Node3</title>
<path fill="none" stroke="midnightblue" d="M700.275,-246.676C602.638,-237.74 305.38,-206.82 67,-143 64.342,-142.288 61.6126,-141.457 58.8953,-140.56"/>
<polygon fill="midnightblue" stroke="midnightblue" points="59.8501,-137.184 49.2556,-137.113 57.493,-143.776 59.8501,-137.184"/>
</g>
<!-- Node4&#45;&gt;Node5 -->
<g id="edge6" class="edge"><title>Node4&#45;&gt;Node5</title>
<path fill="none" stroke="midnightblue" d="M733,-240.975C733,-232.58 733,-219.481 733,-208.663"/>
<polygon fill="midnightblue" stroke="midnightblue" points="736.5,-208.509 733,-198.509 729.5,-208.509 736.5,-208.509"/>
</g>
<!-- Node20 -->
<g id="node21" class="node"><title>Node20</title>
<g id="a_node21"><a xlink:href="_n_f_g_u_i_d_8h.html" target="_top" xlink:title="NFComm/NFPluginModule\l/NFGUID.h">
<polygon fill="white" stroke="black" points="76,-112.5 76,-142.5 208,-142.5 208,-112.5 76,-112.5"/>
<text text-anchor="start" x="84" y="-130.5" font-family="Helvetica,sans-Serif" font-size="10.00">NFComm/NFPluginModule</text>
<text text-anchor="middle" x="142" y="-119.5" font-family="Helvetica,sans-Serif" font-size="10.00">/NFGUID.h</text>
</a>
</g>
</g>
<!-- Node4&#45;&gt;Node20 -->
<g id="edge35" class="edge"><title>Node4&#45;&gt;Node20</title>
<path fill="none" stroke="midnightblue" d="M700.341,-241.745C643.103,-228.259 520.869,-199.925 417,-179 331.574,-161.79 307.46,-159.704 218.26,-143.216"/>
<polygon fill="midnightblue" stroke="midnightblue" points="218.716,-139.741 208.245,-141.355 217.437,-146.623 218.716,-139.741"/>
</g>
<!-- Node5&#45;&gt;Node2 -->
<g id="edge9" class="edge"><title>Node5&#45;&gt;Node2</title>
<path fill="none" stroke="midnightblue" d="M775.177,-185.406C821.953,-181.234 898.76,-170.476 959,-143 979.464,-133.666 978.028,-120.128 999,-112 1182.16,-41.0117 1247.7,-106.097 1445.82,-75.8774"/>
<polygon fill="midnightblue" stroke="midnightblue" points="1446.65,-79.2908 1455.97,-74.2643 1445.55,-72.3775 1446.65,-79.2908"/>
</g>
<!-- Node5&#45;&gt;Node3 -->
<g id="edge19" class="edge"><title>Node5&#45;&gt;Node3</title>
<path fill="none" stroke="midnightblue" d="M690.926,-186.788C564.091,-182.879 186.846,-169.296 67,-143 63.9265,-142.326 60.7715,-141.447 57.6567,-140.455"/>
<polygon fill="midnightblue" stroke="midnightblue" points="58.5866,-137.071 47.9919,-137.014 56.2387,-143.665 58.5866,-137.071"/>
</g>
<!-- Node6 -->
<g id="node7" class="node"><title>Node6</title>
<polygon fill="white" stroke="#bfbfbf" points="1252.5,-0.5 1252.5,-19.5 1293.5,-19.5 1293.5,-0.5 1252.5,-0.5"/>
<text text-anchor="middle" x="1273" y="-7.5" font-family="Helvetica,sans-Serif" font-size="10.00">string</text>
</g>
<!-- Node5&#45;&gt;Node6 -->
<g id="edge7" class="edge"><title>Node5&#45;&gt;Node6</title>
<path fill="none" stroke="midnightblue" d="M690.741,-188.755C610.678,-189.184 441.599,-184.963 405,-143 395.944,-132.617 395.838,-122.29 405,-112 461.962,-48.0251 1093.99,-18.3206 1242.08,-12.2108"/>
<polygon fill="midnightblue" stroke="midnightblue" points="1242.43,-15.6999 1252.28,-11.7963 1242.14,-8.70566 1242.43,-15.6999"/>
</g>
<!-- Node7 -->
<g id="node8" class="node"><title>Node7</title>
<polygon fill="white" stroke="#bfbfbf" points="414,-118 414,-137 460,-137 460,-118 414,-118"/>
<text text-anchor="middle" x="437" y="-125" font-family="Helvetica,sans-Serif" font-size="10.00">cstring</text>
</g>
<!-- Node5&#45;&gt;Node7 -->
<g id="edge8" class="edge"><title>Node5&#45;&gt;Node7</title>
<path fill="none" stroke="midnightblue" d="M690.619,-184.159C637.815,-178.608 545.244,-166.346 469,-143 467.075,-142.411 465.115,-141.732 463.161,-140.998"/>
<polygon fill="midnightblue" stroke="midnightblue" points="464.201,-137.639 453.625,-137.007 461.499,-144.096 464.201,-137.639"/>
</g>
<!-- Node8 -->
<g id="node9" class="node"><title>Node8</title>
<polygon fill="white" stroke="#bfbfbf" points="247,-56.5 247,-75.5 295,-75.5 295,-56.5 247,-56.5"/>
<text text-anchor="middle" x="271" y="-63.5" font-family="Helvetica,sans-Serif" font-size="10.00">stdlib.h</text>
</g>
<!-- Node5&#45;&gt;Node8 -->
<g id="edge10" class="edge"><title>Node5&#45;&gt;Node8</title>
<path fill="none" stroke="midnightblue" d="M690.683,-185.467C608.201,-180.083 429.009,-166.071 372,-143 367.368,-141.126 318.192,-103.44 290.207,-81.8547"/>
<polygon fill="midnightblue" stroke="midnightblue" points="292.329,-79.0715 282.275,-75.7302 288.051,-84.6121 292.329,-79.0715"/>
</g>
<!-- Node9 -->
<g id="node10" class="node"><title>Node9</title>
<polygon fill="white" stroke="#bfbfbf" points="478.5,-118 478.5,-137 525.5,-137 525.5,-118 478.5,-118"/>
<text text-anchor="middle" x="502" y="-125" font-family="Helvetica,sans-Serif" font-size="10.00">math.h</text>
</g>
<!-- Node5&#45;&gt;Node9 -->
<g id="edge11" class="edge"><title>Node5&#45;&gt;Node9</title>
<path fill="none" stroke="midnightblue" d="M690.649,-180.797C650.12,-173.339 587.557,-160.343 535,-143 533.128,-142.382 531.217,-141.697 529.305,-140.97"/>
<polygon fill="midnightblue" stroke="midnightblue" points="530.492,-137.674 519.913,-137.11 527.832,-144.149 530.492,-137.674"/>
</g>
<!-- Node10 -->
<g id="node11" class="node"><title>Node10</title>
<polygon fill="white" stroke="#bfbfbf" points="1135.5,-118 1135.5,-137 1164.5,-137 1164.5,-118 1135.5,-118"/>
<text text-anchor="middle" x="1150" y="-125" font-family="Helvetica,sans-Serif" font-size="10.00">list</text>
</g>
<!-- Node5&#45;&gt;Node10 -->
<g id="edge12" class="edge"><title>Node5&#45;&gt;Node10</title>
<path fill="none" stroke="midnightblue" d="M775.132,-185.454C862.757,-179.79 1061.82,-164.895 1126,-143 1126.89,-142.697 1127.78,-142.358 1128.66,-141.99"/>
<polygon fill="midnightblue" stroke="midnightblue" points="1130.53,-144.963 1137.8,-137.251 1127.31,-138.75 1130.53,-144.963"/>
</g>
<!-- Node11 -->
<g id="node12" class="node"><title>Node11</title>
<polygon fill="white" stroke="#bfbfbf" points="544,-118 544,-137 586,-137 586,-118 544,-118"/>
<text text-anchor="middle" x="565" y="-125" font-family="Helvetica,sans-Serif" font-size="10.00">vector</text>
</g>
<!-- Node5&#45;&gt;Node11 -->
<g id="edge13" class="edge"><title>Node5&#45;&gt;Node11</title>
<path fill="none" stroke="midnightblue" d="M702.973,-179.485C674.735,-171.18 631.468,-157.681 595,-143 593.625,-142.446 592.224,-141.858 590.818,-141.248"/>
<polygon fill="midnightblue" stroke="midnightblue" points="592.188,-138.026 581.639,-137.035 589.267,-144.388 592.188,-138.026"/>
</g>
<!-- Node12 -->
<g id="node13" class="node"><title>Node12</title>
<polygon fill="white" stroke="#bfbfbf" points="1082.5,-118 1082.5,-137 1117.5,-137 1117.5,-118 1082.5,-118"/>
<text text-anchor="middle" x="1100" y="-125" font-family="Helvetica,sans-Serif" font-size="10.00">map</text>
</g>
<!-- Node5&#45;&gt;Node12 -->
<g id="edge14" class="edge"><title>Node5&#45;&gt;Node12</title>
<path fill="none" stroke="midnightblue" d="M775.145,-187.265C840.474,-185.06 969.446,-176.424 1073,-143 1074.42,-142.54 1075.86,-142.007 1077.29,-141.421"/>
<polygon fill="midnightblue" stroke="midnightblue" points="1078.92,-144.52 1086.41,-137.028 1075.88,-138.213 1078.92,-144.52"/>
</g>
<!-- Node13 -->
<g id="node14" class="node"><title>Node13</title>
<polygon fill="white" stroke="#bfbfbf" points="1008,-118 1008,-137 1064,-137 1064,-118 1008,-118"/>
<text text-anchor="middle" x="1036" y="-125" font-family="Helvetica,sans-Serif" font-size="10.00">algorithm</text>
</g>
<!-- Node5&#45;&gt;Node13 -->
<g id="edge15" class="edge"><title>Node5&#45;&gt;Node13</title>
<path fill="none" stroke="midnightblue" d="M775.028,-182.885C826.976,-176.076 917.848,-162.573 994,-143 997.213,-142.174 1000.53,-141.217 1003.83,-140.195"/>
<polygon fill="midnightblue" stroke="midnightblue" points="1005.13,-143.453 1013.54,-137.006 1002.94,-136.803 1005.13,-143.453"/>
</g>
<!-- Node14 -->
<g id="node15" class="node"><title>Node14</title>
<polygon fill="white" stroke="#bfbfbf" points="604,-118 604,-137 656,-137 656,-118 604,-118"/>
<text text-anchor="middle" x="630" y="-125" font-family="Helvetica,sans-Serif" font-size="10.00">assert.h</text>
</g>
<!-- Node5&#45;&gt;Node14 -->
<g id="edge16" class="edge"><title>Node5&#45;&gt;Node14</title>
<path fill="none" stroke="midnightblue" d="M718.243,-179.475C701.339,-169.711 673.417,-153.581 653.51,-142.081"/>
<polygon fill="midnightblue" stroke="midnightblue" points="655.14,-138.981 644.73,-137.009 651.638,-145.042 655.14,-138.981"/>
</g>
<!-- Node15 -->
<g id="node16" class="node"><title>Node15</title>
<polygon fill="white" stroke="#bfbfbf" points="1291,-118 1291,-137 1341,-137 1341,-118 1291,-118"/>
<text text-anchor="middle" x="1316" y="-125" font-family="Helvetica,sans-Serif" font-size="10.00">typeinfo</text>
</g>
<!-- Node5&#45;&gt;Node15 -->
<g id="edge17" class="edge"><title>Node5&#45;&gt;Node15</title>
<path fill="none" stroke="midnightblue" d="M775.08,-186.297C886.268,-181.519 1185.92,-166.763 1282,-143 1284.37,-142.415 1286.78,-141.685 1289.17,-140.865"/>
<polygon fill="midnightblue" stroke="midnightblue" points="1290.68,-144.032 1298.72,-137.135 1288.14,-137.511 1290.68,-144.032"/>
</g>
<!-- Node16 -->
<g id="node17" class="node"><title>Node16</title>
<polygon fill="white" stroke="#bfbfbf" points="674,-118 674,-137 724,-137 724,-118 674,-118"/>
<text text-anchor="middle" x="699" y="-125" font-family="Helvetica,sans-Serif" font-size="10.00">iomanip</text>
</g>
<!-- Node5&#45;&gt;Node16 -->
<g id="edge18" class="edge"><title>Node5&#45;&gt;Node16</title>
<path fill="none" stroke="midnightblue" d="M728.129,-179.475C723.13,-170.727 715.211,-156.869 708.891,-145.809"/>
<polygon fill="midnightblue" stroke="midnightblue" points="711.863,-143.955 703.862,-137.009 705.785,-147.428 711.863,-143.955"/>
</g>
<!-- Node17 -->
<g id="node18" class="node"><title>Node17</title>
<polygon fill="white" stroke="#bfbfbf" points="742.5,-118 742.5,-137 791.5,-137 791.5,-118 742.5,-118"/>
<text text-anchor="middle" x="767" y="-125" font-family="Helvetica,sans-Serif" font-size="10.00">fstream</text>
</g>
<!-- Node5&#45;&gt;Node17 -->
<g id="edge20" class="edge"><title>Node5&#45;&gt;Node17</title>
<path fill="none" stroke="midnightblue" d="M737.871,-179.475C742.87,-170.727 750.789,-156.869 757.109,-145.809"/>
<polygon fill="midnightblue" stroke="midnightblue" points="760.215,-147.428 762.138,-137.009 754.137,-143.955 760.215,-147.428"/>
</g>
<!-- Node18 -->
<g id="node19" class="node"><title>Node18</title>
<polygon fill="white" stroke="#bfbfbf" points="1221,-118 1221,-137 1273,-137 1273,-118 1221,-118"/>
<text text-anchor="middle" x="1247" y="-125" font-family="Helvetica,sans-Serif" font-size="10.00">memory</text>
</g>
<!-- Node5&#45;&gt;Node18 -->
<g id="edge21" class="edge"><title>Node5&#45;&gt;Node18</title>
<path fill="none" stroke="midnightblue" d="M775.02,-184.991C853.496,-179.086 1027.55,-164.641 1173,-143 1185.32,-141.167 1198.7,-138.694 1210.66,-136.31"/>
<polygon fill="midnightblue" stroke="midnightblue" points="1211.63,-139.683 1220.73,-134.256 1210.23,-132.824 1211.63,-139.683"/>
</g>
<!-- Node19 -->
<g id="node20" class="node"><title>Node19</title>
<polygon fill="white" stroke="#bfbfbf" points="810,-118 810,-137 914,-137 914,-118 810,-118"/>
<text text-anchor="middle" x="862" y="-125" font-family="Helvetica,sans-Serif" font-size="10.00">common/variant.hpp</text>
</g>
<!-- Node5&#45;&gt;Node19 -->
<g id="edge22" class="edge"><title>Node5&#45;&gt;Node19</title>
<path fill="none" stroke="midnightblue" d="M751.483,-179.475C773.132,-169.49 809.213,-152.848 834.232,-141.307"/>
<polygon fill="midnightblue" stroke="midnightblue" points="835.937,-144.376 843.552,-137.009 833.005,-138.019 835.937,-144.376"/>
</g>
<!-- Node5&#45;&gt;Node20 -->
<g id="edge23" class="edge"><title>Node5&#45;&gt;Node20</title>
<path fill="none" stroke="midnightblue" d="M690.979,-184.903C588.347,-177.25 326.04,-157.138 218.416,-143.069"/>
<polygon fill="midnightblue" stroke="midnightblue" points="218.57,-139.558 208.191,-141.684 217.631,-146.494 218.57,-139.558"/>
</g>
<!-- Node21 -->
<g id="node22" class="node"><title>Node21</title>
<g id="a_node22"><a xlink:href="_n_f_platform_8h.html" target="_top" xlink:title="NFPlatform.h">
<polygon fill="white" stroke="black" points="1364,-56.5 1364,-75.5 1438,-75.5 1438,-56.5 1364,-56.5"/>
<text text-anchor="middle" x="1401" y="-63.5" font-family="Helvetica,sans-Serif" font-size="10.00">NFPlatform.h</text>
</a>
</g>
</g>
<!-- Node5&#45;&gt;Node21 -->
<g id="edge33" class="edge"><title>Node5&#45;&gt;Node21</title>
<path fill="none" stroke="midnightblue" d="M775.307,-182.826C814.869,-176.88 874.901,-164.977 923,-143 944.429,-133.209 943.983,-120.385 966,-112 1035.91,-85.3759 1255.97,-73.0756 1353.57,-68.8234"/>
<polygon fill="midnightblue" stroke="midnightblue" points="1353.9,-72.3128 1363.74,-68.3904 1353.6,-65.3191 1353.9,-72.3128"/>
</g>
<!-- Node27 -->
<g id="node28" class="node"><title>Node27</title>
<g id="a_node28"><a xlink:href="_vector3_8hpp.html" target="_top" xlink:title="Math/Vector3.hpp">
<polygon fill="white" stroke="black" points="226,-118 226,-137 320,-137 320,-118 226,-118"/>
<text text-anchor="middle" x="273" y="-125" font-family="Helvetica,sans-Serif" font-size="10.00">Math/Vector3.hpp</text>
</a>
</g>
</g>
<!-- Node5&#45;&gt;Node27 -->
<g id="edge34" class="edge"><title>Node5&#45;&gt;Node27</title>
<path fill="none" stroke="midnightblue" d="M690.827,-184.932C617.769,-179.243 463.102,-165.539 334,-143 328.092,-141.969 321.902,-140.71 315.825,-139.369"/>
<polygon fill="midnightblue" stroke="midnightblue" points="316.303,-135.887 305.773,-137.06 314.736,-142.71 316.303,-135.887"/>
</g>
<!-- Node20&#45;&gt;Node2 -->
<g id="edge30" class="edge"><title>Node20&#45;&gt;Node2</title>
<path fill="none" stroke="midnightblue" d="M208.165,-113.107C211.145,-112.693 214.1,-112.321 217,-112 757.27,-52.2646 903.452,-149.555 1445.96,-75.7933"/>
<polygon fill="midnightblue" stroke="midnightblue" points="1446.56,-79.2426 1456,-74.4149 1445.61,-72.3077 1446.56,-79.2426"/>
</g>
<!-- Node20&#45;&gt;Node8 -->
<g id="edge32" class="edge"><title>Node20&#45;&gt;Node8</title>
<path fill="none" stroke="midnightblue" d="M172.571,-112.399C193.925,-102.55 222.215,-89.5014 242.985,-79.9217"/>
<polygon fill="midnightblue" stroke="midnightblue" points="244.615,-83.0244 252.229,-75.6578 241.683,-76.668 244.615,-83.0244"/>
</g>
<!-- Node20&#45;&gt;Node21 -->
<g id="edge24" class="edge"><title>Node20&#45;&gt;Node21</title>
<path fill="none" stroke="midnightblue" d="M208.168,-113.138C211.147,-112.716 214.101,-112.333 217,-112 442.999,-86.0133 1162.3,-71.3397 1353.79,-67.8288"/>
<polygon fill="midnightblue" stroke="midnightblue" points="1353.88,-71.3278 1363.82,-67.6463 1353.76,-64.3289 1353.88,-71.3278"/>
</g>
<!-- Node26 -->
<g id="node27" class="node"><title>Node26</title>
<polygon fill="white" stroke="#bfbfbf" points="119,-56.5 119,-75.5 165,-75.5 165,-56.5 119,-56.5"/>
<text text-anchor="middle" x="142" y="-63.5" font-family="Helvetica,sans-Serif" font-size="10.00">stdio.h</text>
</g>
<!-- Node20&#45;&gt;Node26 -->
<g id="edge31" class="edge"><title>Node20&#45;&gt;Node26</title>
<path fill="none" stroke="midnightblue" d="M142,-112.399C142,-104.466 142,-94.458 142,-85.8583"/>
<polygon fill="midnightblue" stroke="midnightblue" points="145.5,-85.6577 142,-75.6578 138.5,-85.6578 145.5,-85.6577"/>
</g>
<!-- Node21&#45;&gt;Node6 -->
<g id="edge29" class="edge"><title>Node21&#45;&gt;Node6</title>
<path fill="none" stroke="midnightblue" d="M1380.72,-56.4435C1359.65,-47.5566 1326.48,-33.5632 1302.51,-23.4514"/>
<polygon fill="midnightblue" stroke="midnightblue" points="1303.76,-20.1787 1293.19,-19.5164 1301.04,-26.6283 1303.76,-20.1787"/>
</g>
<!-- Node22 -->
<g id="node23" class="node"><title>Node22</title>
<polygon fill="white" stroke="#bfbfbf" points="1311.5,-0.5 1311.5,-19.5 1360.5,-19.5 1360.5,-0.5 1311.5,-0.5"/>
<text text-anchor="middle" x="1336" y="-7.5" font-family="Helvetica,sans-Serif" font-size="10.00">stdint.h</text>
</g>
<!-- Node21&#45;&gt;Node22 -->
<g id="edge25" class="edge"><title>Node21&#45;&gt;Node22</title>
<path fill="none" stroke="midnightblue" d="M1390.56,-56.324C1380.85,-48.2631 1366.18,-36.0765 1354.5,-26.3695"/>
<polygon fill="midnightblue" stroke="midnightblue" points="1356.56,-23.532 1346.63,-19.8339 1352.09,-28.9163 1356.56,-23.532"/>
</g>
<!-- Node23 -->
<g id="node24" class="node"><title>Node23</title>
<polygon fill="white" stroke="#bfbfbf" points="1379,-0.5 1379,-19.5 1423,-19.5 1423,-0.5 1379,-0.5"/>
<text text-anchor="middle" x="1401" y="-7.5" font-family="Helvetica,sans-Serif" font-size="10.00">time.h</text>
</g>
<!-- Node21&#45;&gt;Node23 -->
<g id="edge26" class="edge"><title>Node21&#45;&gt;Node23</title>
<path fill="none" stroke="midnightblue" d="M1401,-56.083C1401,-49.0059 1401,-38.8611 1401,-29.9865"/>
<polygon fill="midnightblue" stroke="midnightblue" points="1404.5,-29.751 1401,-19.7511 1397.5,-29.7511 1404.5,-29.751"/>
</g>
<!-- Node24 -->
<g id="node25" class="node"><title>Node24</title>
<polygon fill="white" stroke="#bfbfbf" points="1441,-0.5 1441,-19.5 1493,-19.5 1493,-0.5 1441,-0.5"/>
<text text-anchor="middle" x="1467" y="-7.5" font-family="Helvetica,sans-Serif" font-size="10.00">sstream</text>
</g>
<!-- Node21&#45;&gt;Node24 -->
<g id="edge27" class="edge"><title>Node21&#45;&gt;Node24</title>
<path fill="none" stroke="midnightblue" d="M1411.6,-56.324C1421.46,-48.2631 1436.35,-36.0765 1448.22,-26.3695"/>
<polygon fill="midnightblue" stroke="midnightblue" points="1450.68,-28.8752 1456.2,-19.8339 1446.25,-23.4575 1450.68,-28.8752"/>
</g>
<!-- Node25 -->
<g id="node26" class="node"><title>Node25</title>
<polygon fill="white" stroke="#bfbfbf" points="1511,-0.5 1511,-19.5 1639,-19.5 1639,-0.5 1511,-0.5"/>
<text text-anchor="middle" x="1575" y="-7.5" font-family="Helvetica,sans-Serif" font-size="10.00">common/lexical_cast.hpp</text>
</g>
<!-- Node21&#45;&gt;Node25 -->
<g id="edge28" class="edge"><title>Node21&#45;&gt;Node25</title>
<path fill="none" stroke="midnightblue" d="M1428.57,-56.4435C1458.1,-47.2801 1505.12,-32.6876 1537.88,-22.5192"/>
<polygon fill="midnightblue" stroke="midnightblue" points="1539.04,-25.8232 1547.56,-19.5164 1536.97,-19.1378 1539.04,-25.8232"/>
</g>
<!-- Node28&#45;&gt;Node2 -->
<g id="edge37" class="edge"><title>Node28&#45;&gt;Node2</title>
<path fill="none" stroke="midnightblue" d="M1151.74,-185.461C1194.68,-180.77 1281.17,-168.772 1350,-143 1392.59,-127.054 1437.62,-98.5007 1462.83,-81.2978"/>
<polygon fill="midnightblue" stroke="midnightblue" points="1464.95,-84.0873 1471.18,-75.5178 1460.97,-78.3316 1464.95,-84.0873"/>
</g>
<!-- Node28&#45;&gt;Node10 -->
<g id="edge39" class="edge"><title>Node28&#45;&gt;Node10</title>
<path fill="none" stroke="midnightblue" d="M1128.58,-179.475C1132.18,-170.904 1137.85,-157.427 1142.44,-146.483"/>
<polygon fill="midnightblue" stroke="midnightblue" points="1145.78,-147.584 1146.42,-137.009 1139.32,-144.873 1145.78,-147.584"/>
</g>
<!-- Node28&#45;&gt;Node12 -->
<g id="edge38" class="edge"><title>Node28&#45;&gt;Node12</title>
<path fill="none" stroke="midnightblue" d="M1121.42,-179.475C1117.82,-170.904 1112.15,-157.427 1107.56,-146.483"/>
<polygon fill="midnightblue" stroke="midnightblue" points="1110.68,-144.873 1103.58,-137.009 1104.22,-147.584 1110.68,-144.873"/>
</g>
<!-- Node28&#45;&gt;Node13 -->
<g id="edge40" class="edge"><title>Node28&#45;&gt;Node13</title>
<path fill="none" stroke="midnightblue" d="M1112.25,-179.475C1097.97,-169.931 1074.6,-154.307 1057.49,-142.868"/>
<polygon fill="midnightblue" stroke="midnightblue" points="1058.99,-139.657 1048.73,-137.009 1055.1,-145.477 1058.99,-139.657"/>
</g>
<!-- Node28&#45;&gt;Node21 -->
<g id="edge41" class="edge"><title>Node28&#45;&gt;Node21</title>
<path fill="none" stroke="midnightblue" d="M1134.39,-179.34C1155,-160.397 1203.09,-116.594 1212,-112 1256.96,-88.8297 1314.09,-77.3639 1353.71,-71.8405"/>
<polygon fill="midnightblue" stroke="midnightblue" points="1354.19,-75.3084 1363.64,-70.5294 1353.27,-68.3687 1354.19,-75.3084"/>
</g>
<!-- Node29&#45;&gt;Node2 -->
<g id="edge46" class="edge"><title>Node29&#45;&gt;Node2</title>
<path fill="none" stroke="midnightblue" d="M1315.21,-185.499C1349.42,-181.443 1401.98,-170.818 1438,-143 1457.3,-128.097 1469.98,-102.388 1476.82,-85.0462"/>
<polygon fill="midnightblue" stroke="midnightblue" points="1480.17,-86.0941 1480.34,-75.5006 1473.6,-83.6766 1480.17,-86.0941"/>
</g>
<!-- Node29&#45;&gt;Node6 -->
<g id="edge45" class="edge"><title>Node29&#45;&gt;Node6</title>
<path fill="none" stroke="midnightblue" d="M1304.79,-179.499C1320.72,-172.413 1340.46,-160.605 1350,-143 1356.56,-130.885 1354.41,-125.053 1350,-112 1338.21,-77.0873 1309,-44.7137 1290.13,-26.4434"/>
<polygon fill="midnightblue" stroke="midnightblue" points="1292.45,-23.8135 1282.77,-19.5105 1287.65,-28.9119 1292.45,-23.8135"/>
</g>
<!-- Node29&#45;&gt;Node10 -->
<g id="edge44" class="edge"><title>Node29&#45;&gt;Node10</title>
<path fill="none" stroke="midnightblue" d="M1262.23,-179.475C1239,-168.922 1199.39,-150.935 1173.98,-139.392"/>
<polygon fill="midnightblue" stroke="midnightblue" points="1175.23,-136.117 1164.68,-135.168 1172.34,-142.491 1175.23,-136.117"/>
</g>
<!-- Node29&#45;&gt;Node12 -->
<g id="edge43" class="edge"><title>Node29&#45;&gt;Node12</title>
<path fill="none" stroke="midnightblue" d="M1246.99,-180.477C1215.07,-172.872 1166.34,-159.847 1126,-143 1125,-142.582 1123.99,-142.134 1122.97,-141.666"/>
<polygon fill="midnightblue" stroke="midnightblue" points="1124.51,-138.521 1114.01,-137.075 1121.32,-144.751 1124.51,-138.521"/>
</g>
<!-- Node29&#45;&gt;Node15 -->
<g id="edge47" class="edge"><title>Node29&#45;&gt;Node15</title>
<path fill="none" stroke="midnightblue" d="M1286.01,-179.475C1291.16,-170.727 1299.31,-156.869 1305.82,-145.809"/>
<polygon fill="midnightblue" stroke="midnightblue" points="1308.94,-147.403 1310.99,-137.009 1302.91,-143.854 1308.94,-147.403"/>
</g>
<!-- Node29&#45;&gt;Node18 -->
<g id="edge48" class="edge"><title>Node29&#45;&gt;Node18</title>
<path fill="none" stroke="midnightblue" d="M1276.13,-179.475C1271.13,-170.727 1263.21,-156.869 1256.89,-145.809"/>
<polygon fill="midnightblue" stroke="midnightblue" points="1259.86,-143.955 1251.86,-137.009 1253.78,-147.428 1259.86,-143.955"/>
</g>
<!-- Node29&#45;&gt;Node21 -->
<g id="edge49" class="edge"><title>Node29&#45;&gt;Node21</title>
<path fill="none" stroke="midnightblue" d="M1315.15,-187.687C1348.27,-185.335 1396.94,-176.009 1421,-143 1433.63,-125.673 1423.22,-100.978 1413.29,-84.4916"/>
<polygon fill="midnightblue" stroke="midnightblue" points="1416.06,-82.3327 1407.68,-75.8508 1410.19,-86.1442 1416.06,-82.3327"/>
</g>
<!-- Node30&#45;&gt;Node2 -->
<g id="edge52" class="edge"><title>Node30&#45;&gt;Node2</title>
<path fill="none" stroke="midnightblue" d="M1397.16,-235.335C1415.57,-216.1 1447.45,-179.871 1465,-143 1473.72,-124.676 1478.4,-101.8 1480.78,-85.9583"/>
<polygon fill="midnightblue" stroke="midnightblue" points="1484.28,-86.207 1482.13,-75.8319 1477.34,-85.2809 1484.28,-86.207"/>
</g>
</g>
</svg>
        <g id="navigator" transform="translate(0 0)" fill="#404254">
                <rect fill="#f2f5e9" fill-opacity="0.5" stroke="#606060" stroke-width=".5" x="0" y="0" width="60" height="60"/>
                <use id="zoomplus" xlink:href="#zoomPlus" x="17" y="9" onmousedown="handleZoom(evt,'in')"/>
                <use id="zoomminus" xlink:href="#zoomMin" x="42" y="9" onmousedown="handleZoom(evt,'out')"/>
                <use id="reset" xlink:href="#resetDef" x="30" y="36" onmousedown="handleReset()"/>
                <g id="arrowUp" xlink:href="#dirArrow" transform="translate(30 24)" onmousedown="handlePan(0,-1)">
                  <use xlink:href="#rim" fill="#404040">
                        <set attributeName="fill" to="#808080" begin="arrowUp.mouseover" end="arrowUp.mouseout"/>
                  </use>
                  <path fill="none" stroke="white" stroke-width="1.5" d="M0,-3.0v7 M-2.5,-0.5L0,-3.0L2.5,-0.5"/>
                </g>
                <g id="arrowRight" xlink:href="#dirArrow" transform="rotate(90) translate(36 -43)" onmousedown="handlePan(1,0)">
                  <use xlink:href="#rim" fill="#404040">
                        <set attributeName="fill" to="#808080" begin="arrowRight.mouseover" end="arrowRight.mouseout"/>
                  </use>
                  <path fill="none" stroke="white" stroke-width="1.5" d="M0,-3.0v7 M-2.5,-0.5L0,-3.0L2.5,-0.5"/>
                </g>
                <g id="arrowDown" xlink:href="#dirArrow" transform="rotate(180) translate(-30 -48)" onmousedown="handlePan(0,1)">
                  <use xlink:href="#rim" fill="#404040">
                        <set attributeName="fill" to="#808080" begin="arrowDown.mouseover" end="arrowDown.mouseout"/>
                  </use>
                  <path fill="none" stroke="white" stroke-width="1.5" d="M0,-3.0v7 M-2.5,-0.5L0,-3.0L2.5,-0.5"/>
                </g>
                <g id="arrowLeft" xlink:href="#dirArrow" transform="rotate(270) translate(-36 17)" onmousedown="handlePan(-1,0)">
                  <use xlink:href="#rim" fill="#404040">
                        <set attributeName="fill" to="#808080" begin="arrowLeft.mouseover" end="arrowLeft.mouseout"/>
                  </use>
                  <path fill="none" stroke="white" stroke-width="1.5" d="M0,-3.0v7 M-2.5,-0.5L0,-3.0L2.5,-0.5"/>
                </g>
        </g>
        <svg viewBox="0 0 15 15" width="100%" height="30px" preserveAspectRatio="xMaxYMin meet">
         <g id="arrow_out" transform="scale(0.3 0.3)">
          <a xlink:href="_n_f_c_event_manager_8h__incl_org.svg" target="_base">
           <rect id="button" ry="5" rx="5" y="6" x="6" height="38" width="38"
                fill="#f2f5e9" fill-opacity="0.5" stroke="#606060" stroke-width="1.0"/>
           <path id="arrow"
             d="M 11.500037,31.436501 C 11.940474,20.09759 22.043105,11.32322 32.158766,21.979434 L 37.068811,17.246167 C 37.068811,17.246167 37.088388,32 37.088388,32 L 22.160133,31.978069 C 22.160133,31.978069 26.997745,27.140456 26.997745,27.140456 C 18.528582,18.264221 13.291696,25.230495 11.500037,31.436501 z"
             style="fill:#404040;"/>
          </a>
         </g>
        </svg>
</svg>
