<?xml version="1.0" encoding="UTF-8" standalone="no"?>
<!DOCTYPE svg PUBLIC "-//W3C//DTD SVG 1.1//EN"
 "http://www.w3.org/Graphics/SVG/1.1/DTD/svg11.dtd">
<!-- Generated by graphviz version 2.38.0 (20140413.2041)
 -->
<!-- Title: NFILevelModule.h Pages: 1 -->
<svg width="404pt" height="140pt"
 viewBox="0.00 0.00 403.50 140.00" xmlns="http://www.w3.org/2000/svg" xmlns:xlink="http://www.w3.org/1999/xlink">
<g id="graph0" class="graph" transform="scale(1 1) rotate(0) translate(4 136)">
<title>NFILevelModule.h</title>
<polygon fill="white" stroke="none" points="-4,4 -4,-136 399.5,-136 399.5,4 -4,4"/>
<!-- Node33 -->
<g id="node1" class="node"><title>Node33</title>
<polygon fill="#bfbfbf" stroke="black" points="143.5,-112.5 143.5,-131.5 236.5,-131.5 236.5,-112.5 143.5,-112.5"/>
<text text-anchor="middle" x="190" y="-119.5" font-family="Helvetica,sans-Serif" font-size="10.00">NFILevelModule.h</text>
</g>
<!-- Node34 -->
<g id="node2" class="node"><title>Node34</title>
<g id="a_node2"><a xlink:href="_n_f_c_level_module_8h.html" target="_top" xlink:title="NFCLevelModule.h">
<polygon fill="white" stroke="black" points="79,-56.5 79,-75.5 177,-75.5 177,-56.5 79,-56.5"/>
<text text-anchor="middle" x="128" y="-63.5" font-family="Helvetica,sans-Serif" font-size="10.00">NFCLevelModule.h</text>
</a>
</g>
</g>
<!-- Node33&#45;&gt;Node34 -->
<g id="edge1" class="edge"><title>Node33&#45;&gt;Node34</title>
<path fill="none" stroke="midnightblue" d="M172.246,-105.537C161.192,-95.9087 147.369,-83.8694 138.143,-75.8339"/>
<polygon fill="midnightblue" stroke="midnightblue" points="170.199,-108.395 180.039,-112.324 174.797,-103.117 170.199,-108.395"/>
</g>
<!-- Node37 -->
<g id="node5" class="node"><title>Node37</title>
<g id="a_node5"><a xlink:href="_n_f_c_property_module_8h.html" target="_top" xlink:title="NFCPropertyModule.h">
<polygon fill="white" stroke="black" points="195.5,-56.5 195.5,-75.5 308.5,-75.5 308.5,-56.5 195.5,-56.5"/>
<text text-anchor="middle" x="252" y="-63.5" font-family="Helvetica,sans-Serif" font-size="10.00">NFCPropertyModule.h</text>
</a>
</g>
</g>
<!-- Node33&#45;&gt;Node37 -->
<g id="edge4" class="edge"><title>Node33&#45;&gt;Node37</title>
<path fill="none" stroke="midnightblue" d="M207.754,-105.537C218.808,-95.9087 232.631,-83.8694 241.857,-75.8339"/>
<polygon fill="midnightblue" stroke="midnightblue" points="205.203,-103.117 199.961,-112.324 209.801,-108.395 205.203,-103.117"/>
</g>
<!-- Node35 -->
<g id="node3" class="node"><title>Node35</title>
<g id="a_node3"><a xlink:href="_n_f_c_level_module_8cpp.html" target="_top" xlink:title="NFCLevelModule.cpp">
<polygon fill="white" stroke="black" points="0,-0.5 0,-19.5 108,-19.5 108,-0.5 0,-0.5"/>
<text text-anchor="middle" x="54" y="-7.5" font-family="Helvetica,sans-Serif" font-size="10.00">NFCLevelModule.cpp</text>
</a>
</g>
</g>
<!-- Node34&#45;&gt;Node35 -->
<g id="edge2" class="edge"><title>Node34&#45;&gt;Node35</title>
<path fill="none" stroke="midnightblue" d="M107.966,-50.3804C94.5909,-40.6204 77.4412,-28.1057 66.1057,-19.8339"/>
<polygon fill="midnightblue" stroke="midnightblue" points="105.97,-53.2565 116.111,-56.324 110.096,-47.602 105.97,-53.2565"/>
</g>
<!-- Node36 -->
<g id="node4" class="node"><title>Node36</title>
<g id="a_node4"><a xlink:href="_n_f_game_server_plugin_8cpp.html" target="_top" xlink:title="NFGameServerPlugin.cpp">
<polygon fill="white" stroke="black" points="126,-0.5 126,-19.5 254,-19.5 254,-0.5 126,-0.5"/>
<text text-anchor="middle" x="190" y="-7.5" font-family="Helvetica,sans-Serif" font-size="10.00">NFGameServerPlugin.cpp</text>
</a>
</g>
</g>
<!-- Node34&#45;&gt;Node36 -->
<g id="edge3" class="edge"><title>Node34&#45;&gt;Node36</title>
<path fill="none" stroke="midnightblue" d="M145.754,-49.5372C156.808,-39.9087 170.631,-27.8694 179.857,-19.8339"/>
<polygon fill="midnightblue" stroke="midnightblue" points="143.203,-47.1168 137.961,-56.324 147.801,-52.3954 143.203,-47.1168"/>
</g>
<!-- Node37&#45;&gt;Node36 -->
<g id="edge6" class="edge"><title>Node37&#45;&gt;Node36</title>
<path fill="none" stroke="midnightblue" d="M234.246,-49.5372C223.192,-39.9087 209.369,-27.8694 200.143,-19.8339"/>
<polygon fill="midnightblue" stroke="midnightblue" points="232.199,-52.3954 242.039,-56.324 236.797,-47.1168 232.199,-52.3954"/>
</g>
<!-- Node38 -->
<g id="node6" class="node"><title>Node38</title>
<g id="a_node6"><a xlink:href="_n_f_c_property_module_8cpp.html" target="_top" xlink:title="NFCPropertyModule.cpp">
<polygon fill="white" stroke="black" points="272.5,-0.5 272.5,-19.5 395.5,-19.5 395.5,-0.5 272.5,-0.5"/>
<text text-anchor="middle" x="334" y="-7.5" font-family="Helvetica,sans-Serif" font-size="10.00">NFCPropertyModule.cpp</text>
</a>
</g>
</g>
<!-- Node37&#45;&gt;Node38 -->
<g id="edge5" class="edge"><title>Node37&#45;&gt;Node38</title>
<path fill="none" stroke="midnightblue" d="M273.833,-50.6221C288.813,-40.7574 308.197,-27.9919 320.858,-19.6545"/>
<polygon fill="midnightblue" stroke="midnightblue" points="271.601,-47.9009 265.175,-56.324 275.451,-53.7471 271.601,-47.9009"/>
</g>
</g>
</svg>
