<?xml version="1.0" encoding="UTF-8" standalone="no"?>
<!DOCTYPE svg PUBLIC "-//W3C//DTD SVG 1.1//EN"
 "http://www.w3.org/Graphics/SVG/1.1/DTD/svg11.dtd">
<!-- Generated by graphviz version 2.38.0 (20140413.2041)
 -->
<!-- Title: NFIProperty.h Pages: 1 -->
<!--zoomable 319 -->
<svg id="main" version="1.1" xmlns="http://www.w3.org/2000/svg" xmlns:xlink="http://www.w3.org/1999/xlink" xml:space="preserve" onload="init(evt)">
<style type="text/css"><![CDATA[
.edge:hover path { stroke: red; }
.edge:hover polygon { stroke: red; fill: red; }
]]></style>
<script type="text/javascript"><![CDATA[
var edges = document.getElementsByTagName('g');
if (edges && edges.length) {
  for (var i=0;i<edges.length;i++) {
    if (edges[i].id.substr(0,4)=='edge') {
      edges[i].setAttribute('class','edge');
    }
  }
}
]]></script>
        <defs>
                <circle id="rim" cx="0" cy="0" r="7"/>
                <circle id="rim2" cx="0" cy="0" r="3.5"/>
                <g id="zoomPlus">
                        <use xlink:href="#rim" fill="#404040">
                                <set attributeName="fill" to="#808080" begin="zoomplus.mouseover" end="zoomplus.mouseout"/>
                        </use>
                        <path d="M-4,0h8M0,-4v8" fill="none" stroke="white" stroke-width="1.5" pointer-events="none"/>
                </g>
                <g id="zoomMin">
                        <use xlink:href="#rim" fill="#404040">
                                <set attributeName="fill" to="#808080" begin="zoomminus.mouseover" end="zoomminus.mouseout"/>
                        </use>
                        <path d="M-4,0h8" fill="none" stroke="white" stroke-width="1.5" pointer-events="none"/>
                </g>
                <g id="dirArrow">
                        <path fill="none" stroke="white" stroke-width="1.5" d="M0,-3.0v7 M-2.5,-0.5L0,-3.0L2.5,-0.5"/>
                </g>
               <g id="resetDef">
                       <use xlink:href="#rim2" fill="#404040">
                               <set attributeName="fill" to="#808080" begin="reset.mouseover" end="reset.mouseout"/>
                       </use>
               </g>
        </defs>

<script type="text/javascript">
var viewWidth = 1359;
var viewHeight = 319;
var sectionId = 'dynsection-0';
</script>
<script xlink:href="svgpan.js"/>
<svg id="graph" class="graph">
<g id="viewport">
<title>NFIProperty.h</title>
<polygon fill="white" stroke="none" points="-4,4 -4,-315 1355.25,-315 1355.25,4 -4,4"/>
<!-- Node0 -->
<g id="node1" class="node"><title>Node0</title>
<polygon fill="#bfbfbf" stroke="black" points="694.5,-291.5 694.5,-310.5 771.5,-310.5 771.5,-291.5 694.5,-291.5"/>
<text text-anchor="middle" x="733" y="-298.5" font-family="Helvetica,sans-Serif" font-size="10.00">NFIProperty.h</text>
</g>
<!-- Node1 -->
<g id="node2" class="node"><title>Node1</title>
<g id="a_node2"><a xlink:href="_n_f_define_8h.html" target="_top" xlink:title="NFDefine.h">
<polygon fill="white" stroke="black" points="562.5,-235.5 562.5,-254.5 627.5,-254.5 627.5,-235.5 562.5,-235.5"/>
<text text-anchor="middle" x="595" y="-242.5" font-family="Helvetica,sans-Serif" font-size="10.00">NFDefine.h</text>
</a>
</g>
</g>
<!-- Node0&#45;&gt;Node1 -->
<g id="edge1" class="edge"><title>Node0&#45;&gt;Node1</title>
<path fill="none" stroke="midnightblue" d="M711.133,-291.444C688.221,-282.478 652.025,-268.314 626.134,-258.183"/>
<polygon fill="midnightblue" stroke="midnightblue" points="627.352,-254.901 616.764,-254.516 624.801,-261.42 627.352,-254.901"/>
</g>
<!-- Node3 -->
<g id="node4" class="node"><title>Node3</title>
<g id="a_node4"><a xlink:href="_a_f_data_list_8hpp.html" target="_top" xlink:title="AFDataList.hpp">
<polygon fill="white" stroke="black" points="691,-179.5 691,-198.5 775,-198.5 775,-179.5 691,-179.5"/>
<text text-anchor="middle" x="733" y="-186.5" font-family="Helvetica,sans-Serif" font-size="10.00">AFDataList.hpp</text>
</a>
</g>
</g>
<!-- Node0&#45;&gt;Node3 -->
<g id="edge33" class="edge"><title>Node0&#45;&gt;Node3</title>
<path fill="none" stroke="midnightblue" d="M733,-291.368C733,-273.617 733,-232.666 733,-208.597"/>
<polygon fill="midnightblue" stroke="midnightblue" points="736.5,-208.591 733,-198.591 729.5,-208.591 736.5,-208.591"/>
</g>
<!-- Node27 -->
<g id="node28" class="node"><title>Node27</title>
<g id="a_node28"><a xlink:href="_n_f_list_8h.html" target="_top" xlink:title="NFList.h">
<polygon fill="white" stroke="black" points="1216.5,-179.5 1216.5,-198.5 1269.5,-198.5 1269.5,-179.5 1216.5,-179.5"/>
<text text-anchor="middle" x="1243" y="-186.5" font-family="Helvetica,sans-Serif" font-size="10.00">NFList.h</text>
</a>
</g>
</g>
<!-- Node0&#45;&gt;Node27 -->
<g id="edge34" class="edge"><title>Node0&#45;&gt;Node27</title>
<path fill="none" stroke="midnightblue" d="M771.751,-291.642C867.311,-271.031 1113.22,-217.993 1206.43,-197.887"/>
<polygon fill="midnightblue" stroke="midnightblue" points="1207.22,-201.297 1216.26,-195.768 1205.75,-194.455 1207.22,-201.297"/>
</g>
<!-- Node2 -->
<g id="node3" class="node"><title>Node2</title>
<polygon fill="white" stroke="#bfbfbf" points="0,-118 0,-137 58,-137 58,-118 0,-118"/>
<text text-anchor="middle" x="29" y="-125" font-family="Helvetica,sans-Serif" font-size="10.00">functional</text>
</g>
<!-- Node1&#45;&gt;Node2 -->
<g id="edge2" class="edge"><title>Node1&#45;&gt;Node2</title>
<path fill="none" stroke="midnightblue" d="M562.213,-239.262C479.292,-226.936 254.808,-191.429 72,-143 68.8015,-142.153 65.495,-141.193 62.2022,-140.181"/>
<polygon fill="midnightblue" stroke="midnightblue" points="63.0777,-136.786 52.486,-137.046 60.9282,-143.448 63.0777,-136.786"/>
</g>
<!-- Node1&#45;&gt;Node3 -->
<g id="edge3" class="edge"><title>Node1&#45;&gt;Node3</title>
<path fill="none" stroke="midnightblue" d="M616.867,-235.444C639.779,-226.478 675.975,-212.314 701.866,-202.183"/>
<polygon fill="midnightblue" stroke="midnightblue" points="703.199,-205.42 711.236,-198.516 700.648,-198.901 703.199,-205.42"/>
</g>
<!-- Node19 -->
<g id="node20" class="node"><title>Node19</title>
<g id="a_node20"><a xlink:href="_n_f_g_u_i_d_8h.html" target="_top" xlink:title="NFComm/NFPluginModule\l/NFGUID.h">
<polygon fill="white" stroke="black" points="114,-112.5 114,-142.5 246,-142.5 246,-112.5 114,-112.5"/>
<text text-anchor="start" x="122" y="-130.5" font-family="Helvetica,sans-Serif" font-size="10.00">NFComm/NFPluginModule</text>
<text text-anchor="middle" x="180" y="-119.5" font-family="Helvetica,sans-Serif" font-size="10.00">/NFGUID.h</text>
</a>
</g>
</g>
<!-- Node1&#45;&gt;Node19 -->
<g id="edge32" class="edge"><title>Node1&#45;&gt;Node19</title>
<path fill="none" stroke="midnightblue" d="M564.147,-235.413C495.706,-216.365 330.146,-170.288 240.345,-145.295"/>
<polygon fill="midnightblue" stroke="midnightblue" points="241.147,-141.885 230.574,-142.575 239.27,-148.629 241.147,-141.885"/>
</g>
<!-- Node3&#45;&gt;Node2 -->
<g id="edge16" class="edge"><title>Node3&#45;&gt;Node2</title>
<path fill="none" stroke="midnightblue" d="M690.839,-186.547C564.645,-181.976 191.293,-166.76 72,-143 68.3058,-142.264 64.4915,-141.297 60.731,-140.212"/>
<polygon fill="midnightblue" stroke="midnightblue" points="61.6113,-136.819 51.0212,-137.137 59.4978,-143.493 61.6113,-136.819"/>
</g>
<!-- Node4 -->
<g id="node5" class="node"><title>Node4</title>
<polygon fill="white" stroke="#bfbfbf" points="782.5,-0.5 782.5,-19.5 823.5,-19.5 823.5,-0.5 782.5,-0.5"/>
<text text-anchor="middle" x="803" y="-7.5" font-family="Helvetica,sans-Serif" font-size="10.00">string</text>
</g>
<!-- Node3&#45;&gt;Node4 -->
<g id="edge4" class="edge"><title>Node3&#45;&gt;Node4</title>
<path fill="none" stroke="midnightblue" d="M730.32,-179.28C724.03,-157.074 710.488,-97.2342 733,-56 741.519,-40.3969 758.02,-29.397 772.862,-22.1798"/>
<polygon fill="midnightblue" stroke="midnightblue" points="774.574,-25.2486 782.276,-17.9731 771.718,-18.8577 774.574,-25.2486"/>
</g>
<!-- Node5 -->
<g id="node6" class="node"><title>Node5</title>
<polygon fill="white" stroke="#bfbfbf" points="780,-118 780,-137 826,-137 826,-118 780,-118"/>
<text text-anchor="middle" x="803" y="-125" font-family="Helvetica,sans-Serif" font-size="10.00">cstring</text>
</g>
<!-- Node3&#45;&gt;Node5 -->
<g id="edge5" class="edge"><title>Node3&#45;&gt;Node5</title>
<path fill="none" stroke="midnightblue" d="M743.029,-179.475C754.049,-170.108 771.96,-154.884 785.343,-143.508"/>
<polygon fill="midnightblue" stroke="midnightblue" points="787.637,-146.152 792.989,-137.009 783.103,-140.819 787.637,-146.152"/>
</g>
<!-- Node6 -->
<g id="node7" class="node"><title>Node6</title>
<polygon fill="white" stroke="#bfbfbf" points="742,-56.5 742,-75.5 796,-75.5 796,-56.5 742,-56.5"/>
<text text-anchor="middle" x="769" y="-63.5" font-family="Helvetica,sans-Serif" font-size="10.00">iostream</text>
</g>
<!-- Node3&#45;&gt;Node6 -->
<g id="edge6" class="edge"><title>Node3&#45;&gt;Node6</title>
<path fill="none" stroke="midnightblue" d="M735.589,-179.298C741.401,-159.763 755.592,-112.065 763.482,-85.5471"/>
<polygon fill="midnightblue" stroke="midnightblue" points="766.937,-86.2061 766.434,-75.6232 760.228,-84.2098 766.937,-86.2061"/>
</g>
<!-- Node7 -->
<g id="node8" class="node"><title>Node7</title>
<polygon fill="white" stroke="#bfbfbf" points="77,-56.5 77,-75.5 125,-75.5 125,-56.5 77,-56.5"/>
<text text-anchor="middle" x="101" y="-63.5" font-family="Helvetica,sans-Serif" font-size="10.00">stdlib.h</text>
</g>
<!-- Node3&#45;&gt;Node7 -->
<g id="edge7" class="edge"><title>Node3&#45;&gt;Node7</title>
<path fill="none" stroke="midnightblue" d="M690.673,-188.134C556.32,-188.134 145.91,-184.692 105,-143 90.5011,-128.224 92.2514,-103.066 95.7919,-85.7699"/>
<polygon fill="midnightblue" stroke="midnightblue" points="99.272,-86.2698 98.2243,-75.7269 92.4686,-84.622 99.272,-86.2698"/>
</g>
<!-- Node8 -->
<g id="node9" class="node"><title>Node8</title>
<polygon fill="white" stroke="#bfbfbf" points="844.5,-118 844.5,-137 891.5,-137 891.5,-118 844.5,-118"/>
<text text-anchor="middle" x="868" y="-125" font-family="Helvetica,sans-Serif" font-size="10.00">math.h</text>
</g>
<!-- Node3&#45;&gt;Node8 -->
<g id="edge8" class="edge"><title>Node3&#45;&gt;Node8</title>
<path fill="none" stroke="midnightblue" d="M752.342,-179.475C775.099,-169.445 813.092,-152.7 839.288,-141.155"/>
<polygon fill="midnightblue" stroke="midnightblue" points="840.955,-144.245 848.694,-137.009 838.131,-137.839 840.955,-144.245"/>
</g>
<!-- Node9 -->
<g id="node10" class="node"><title>Node9</title>
<polygon fill="white" stroke="#bfbfbf" points="1146.5,-118 1146.5,-137 1175.5,-137 1175.5,-118 1146.5,-118"/>
<text text-anchor="middle" x="1161" y="-125" font-family="Helvetica,sans-Serif" font-size="10.00">list</text>
</g>
<!-- Node3&#45;&gt;Node9 -->
<g id="edge9" class="edge"><title>Node3&#45;&gt;Node9</title>
<path fill="none" stroke="midnightblue" d="M775.019,-188.052C848.813,-187.097 1005.84,-180.37 1132,-143 1133.67,-142.505 1135.36,-141.919 1137.04,-141.269"/>
<polygon fill="midnightblue" stroke="midnightblue" points="1138.68,-144.368 1146.36,-137.069 1135.8,-137.987 1138.68,-144.368"/>
</g>
<!-- Node10 -->
<g id="node11" class="node"><title>Node10</title>
<polygon fill="white" stroke="#bfbfbf" points="910,-118 910,-137 952,-137 952,-118 910,-118"/>
<text text-anchor="middle" x="931" y="-125" font-family="Helvetica,sans-Serif" font-size="10.00">vector</text>
</g>
<!-- Node3&#45;&gt;Node10 -->
<g id="edge10" class="edge"><title>Node3&#45;&gt;Node10</title>
<path fill="none" stroke="midnightblue" d="M772.404,-179.432C806.63,-171.508 857.272,-158.614 900,-143 901.611,-142.411 903.254,-141.771 904.899,-141.098"/>
<polygon fill="midnightblue" stroke="midnightblue" points="906.425,-144.25 914.171,-137.021 903.608,-137.842 906.425,-144.25"/>
</g>
<!-- Node11 -->
<g id="node12" class="node"><title>Node11</title>
<polygon fill="white" stroke="#bfbfbf" points="1193.5,-118 1193.5,-137 1228.5,-137 1228.5,-118 1193.5,-118"/>
<text text-anchor="middle" x="1211" y="-125" font-family="Helvetica,sans-Serif" font-size="10.00">map</text>
</g>
<!-- Node3&#45;&gt;Node11 -->
<g id="edge11" class="edge"><title>Node3&#45;&gt;Node11</title>
<path fill="none" stroke="midnightblue" d="M775.066,-186.002C872.102,-181.04 1109.1,-166.811 1185,-143 1186.25,-142.608 1187.5,-142.153 1188.75,-141.649"/>
<polygon fill="midnightblue" stroke="midnightblue" points="1190.54,-144.671 1197.98,-137.127 1187.46,-138.385 1190.54,-144.671"/>
</g>
<!-- Node12 -->
<g id="node13" class="node"><title>Node12</title>
<polygon fill="white" stroke="#bfbfbf" points="1247,-118 1247,-137 1303,-137 1303,-118 1247,-118"/>
<text text-anchor="middle" x="1275" y="-125" font-family="Helvetica,sans-Serif" font-size="10.00">algorithm</text>
</g>
<!-- Node3&#45;&gt;Node12 -->
<g id="edge12" class="edge"><title>Node3&#45;&gt;Node12</title>
<path fill="none" stroke="midnightblue" d="M775.209,-188.259C862.733,-187.922 1069.85,-182.581 1238,-143 1240.83,-142.333 1243.74,-141.492 1246.61,-140.553"/>
<polygon fill="midnightblue" stroke="midnightblue" points="1247.93,-143.798 1256.13,-137.089 1245.53,-137.221 1247.93,-143.798"/>
</g>
<!-- Node13 -->
<g id="node14" class="node"><title>Node13</title>
<polygon fill="white" stroke="#bfbfbf" points="970,-118 970,-137 1022,-137 1022,-118 970,-118"/>
<text text-anchor="middle" x="996" y="-125" font-family="Helvetica,sans-Serif" font-size="10.00">assert.h</text>
</g>
<!-- Node3&#45;&gt;Node13 -->
<g id="edge13" class="edge"><title>Node3&#45;&gt;Node13</title>
<path fill="none" stroke="midnightblue" d="M775.213,-182.23C821.446,-175.321 897.473,-162.221 961,-143 963.284,-142.309 965.624,-141.522 967.957,-140.682"/>
<polygon fill="midnightblue" stroke="midnightblue" points="969.308,-143.912 977.358,-137.023 966.77,-137.388 969.308,-143.912"/>
</g>
<!-- Node14 -->
<g id="node15" class="node"><title>Node14</title>
<polygon fill="white" stroke="#bfbfbf" points="1040,-118 1040,-137 1090,-137 1090,-118 1040,-118"/>
<text text-anchor="middle" x="1065" y="-125" font-family="Helvetica,sans-Serif" font-size="10.00">typeinfo</text>
</g>
<!-- Node3&#45;&gt;Node14 -->
<g id="edge14" class="edge"><title>Node3&#45;&gt;Node14</title>
<path fill="none" stroke="midnightblue" d="M775.168,-185.011C833.556,-180.115 941.906,-168.281 1031,-143 1033.29,-142.35 1035.63,-141.583 1037.96,-140.747"/>
<polygon fill="midnightblue" stroke="midnightblue" points="1039.3,-143.982 1047.31,-137.046 1036.72,-137.474 1039.3,-143.982"/>
</g>
<!-- Node15 -->
<g id="node16" class="node"><title>Node15</title>
<polygon fill="white" stroke="#bfbfbf" points="264,-118 264,-137 314,-137 314,-118 264,-118"/>
<text text-anchor="middle" x="289" y="-125" font-family="Helvetica,sans-Serif" font-size="10.00">iomanip</text>
</g>
<!-- Node3&#45;&gt;Node15 -->
<g id="edge15" class="edge"><title>Node3&#45;&gt;Node15</title>
<path fill="none" stroke="midnightblue" d="M690.948,-187.429C615.856,-185.524 454.267,-177.389 323,-143 320.643,-142.383 318.237,-141.629 315.849,-140.794"/>
<polygon fill="midnightblue" stroke="midnightblue" points="316.888,-137.442 306.301,-137.037 314.325,-143.956 316.888,-137.442"/>
</g>
<!-- Node16 -->
<g id="node17" class="node"><title>Node16</title>
<polygon fill="white" stroke="#bfbfbf" points="332.5,-118 332.5,-137 381.5,-137 381.5,-118 332.5,-118"/>
<text text-anchor="middle" x="357" y="-125" font-family="Helvetica,sans-Serif" font-size="10.00">fstream</text>
</g>
<!-- Node3&#45;&gt;Node16 -->
<g id="edge17" class="edge"><title>Node3&#45;&gt;Node16</title>
<path fill="none" stroke="midnightblue" d="M690.952,-186.147C625.697,-182.455 496.566,-171.872 391,-143 388.702,-142.372 386.356,-141.62 384.023,-140.795"/>
<polygon fill="midnightblue" stroke="midnightblue" points="385.259,-137.52 374.672,-137.113 382.694,-144.034 385.259,-137.52"/>
</g>
<!-- Node17 -->
<g id="node18" class="node"><title>Node17</title>
<polygon fill="white" stroke="#bfbfbf" points="400,-118 400,-137 452,-137 452,-118 400,-118"/>
<text text-anchor="middle" x="426" y="-125" font-family="Helvetica,sans-Serif" font-size="10.00">memory</text>
</g>
<!-- Node3&#45;&gt;Node17 -->
<g id="edge18" class="edge"><title>Node3&#45;&gt;Node17</title>
<path fill="none" stroke="midnightblue" d="M690.872,-184.052C636.844,-178.304 540.618,-165.753 461,-143 458.706,-142.344 456.358,-141.583 454.02,-140.76"/>
<polygon fill="midnightblue" stroke="midnightblue" points="455.199,-137.463 444.609,-137.134 452.682,-143.995 455.199,-137.463"/>
</g>
<!-- Node18 -->
<g id="node19" class="node"><title>Node18</title>
<polygon fill="white" stroke="#bfbfbf" points="470,-118 470,-137 574,-137 574,-118 470,-118"/>
<text text-anchor="middle" x="522" y="-125" font-family="Helvetica,sans-Serif" font-size="10.00">common/variant.hpp</text>
</g>
<!-- Node3&#45;&gt;Node18 -->
<g id="edge19" class="edge"><title>Node3&#45;&gt;Node18</title>
<path fill="none" stroke="midnightblue" d="M702.769,-179.475C665.713,-169.026 602.807,-151.287 561.836,-139.733"/>
<polygon fill="midnightblue" stroke="midnightblue" points="562.75,-136.355 552.175,-137.009 560.85,-143.092 562.75,-136.355"/>
</g>
<!-- Node3&#45;&gt;Node19 -->
<g id="edge20" class="edge"><title>Node3&#45;&gt;Node19</title>
<path fill="none" stroke="midnightblue" d="M690.958,-185.42C609.163,-180.102 422.743,-166.526 256.127,-143.073"/>
<polygon fill="midnightblue" stroke="midnightblue" points="256.588,-139.603 246.194,-141.659 255.602,-146.533 256.588,-139.603"/>
</g>
<!-- Node20 -->
<g id="node21" class="node"><title>Node20</title>
<g id="a_node21"><a xlink:href="_n_f_platform_8h.html" target="_top" xlink:title="NFPlatform.h">
<polygon fill="white" stroke="black" points="1036,-56.5 1036,-75.5 1110,-75.5 1110,-56.5 1036,-56.5"/>
<text text-anchor="middle" x="1073" y="-63.5" font-family="Helvetica,sans-Serif" font-size="10.00">NFPlatform.h</text>
</a>
</g>
</g>
<!-- Node3&#45;&gt;Node20 -->
<g id="edge30" class="edge"><title>Node3&#45;&gt;Node20</title>
<path fill="none" stroke="midnightblue" d="M775.178,-185.905C866.861,-180.92 1077.82,-166.946 1099,-143 1113.95,-126.1 1099.62,-100.204 1087.04,-83.4344"/>
<polygon fill="midnightblue" stroke="midnightblue" points="1089.76,-81.2313 1080.79,-75.5926 1084.29,-85.5942 1089.76,-81.2313"/>
</g>
<!-- Node26 -->
<g id="node27" class="node"><title>Node26</title>
<g id="a_node27"><a xlink:href="_vector3_8hpp.html" target="_top" xlink:title="Math/Vector3.hpp">
<polygon fill="white" stroke="black" points="592,-118 592,-137 686,-137 686,-118 592,-118"/>
<text text-anchor="middle" x="639" y="-125" font-family="Helvetica,sans-Serif" font-size="10.00">Math/Vector3.hpp</text>
</a>
</g>
</g>
<!-- Node3&#45;&gt;Node26 -->
<g id="edge31" class="edge"><title>Node3&#45;&gt;Node26</title>
<path fill="none" stroke="midnightblue" d="M719.532,-179.475C704.315,-169.843 679.313,-154.017 661.199,-142.552"/>
<polygon fill="midnightblue" stroke="midnightblue" points="662.764,-139.4 652.443,-137.009 659.021,-145.315 662.764,-139.4"/>
</g>
<!-- Node19&#45;&gt;Node6 -->
<g id="edge27" class="edge"><title>Node19&#45;&gt;Node6</title>
<path fill="none" stroke="midnightblue" d="M246.191,-113.317C249.164,-112.847 252.111,-112.405 255,-112 432.59,-87.1273 646.746,-73.6373 731.683,-68.9374"/>
<polygon fill="midnightblue" stroke="midnightblue" points="732.065,-72.4219 741.859,-68.3824 731.683,-65.4323 732.065,-72.4219"/>
</g>
<!-- Node19&#45;&gt;Node7 -->
<g id="edge29" class="edge"><title>Node19&#45;&gt;Node7</title>
<path fill="none" stroke="midnightblue" d="M161.278,-112.399C149.088,-103.218 133.208,-91.2579 120.807,-81.9182"/>
<polygon fill="midnightblue" stroke="midnightblue" points="122.589,-78.8782 112.495,-75.6578 118.377,-84.4697 122.589,-78.8782"/>
</g>
<!-- Node19&#45;&gt;Node20 -->
<g id="edge21" class="edge"><title>Node19&#45;&gt;Node20</title>
<path fill="none" stroke="midnightblue" d="M246.176,-113.2C249.153,-112.761 252.104,-112.358 255,-112 405.769,-93.3663 874.515,-74.496 1025.57,-68.7592"/>
<polygon fill="midnightblue" stroke="midnightblue" points="1026.03,-72.2445 1035.89,-68.369 1025.76,-65.2495 1026.03,-72.2445"/>
</g>
<!-- Node25 -->
<g id="node26" class="node"><title>Node25</title>
<polygon fill="white" stroke="#bfbfbf" points="157,-56.5 157,-75.5 203,-75.5 203,-56.5 157,-56.5"/>
<text text-anchor="middle" x="180" y="-63.5" font-family="Helvetica,sans-Serif" font-size="10.00">stdio.h</text>
</g>
<!-- Node19&#45;&gt;Node25 -->
<g id="edge28" class="edge"><title>Node19&#45;&gt;Node25</title>
<path fill="none" stroke="midnightblue" d="M180,-112.399C180,-104.466 180,-94.458 180,-85.8583"/>
<polygon fill="midnightblue" stroke="midnightblue" points="183.5,-85.6577 180,-75.6578 176.5,-85.6578 183.5,-85.6577"/>
</g>
<!-- Node20&#45;&gt;Node4 -->
<g id="edge26" class="edge"><title>Node20&#45;&gt;Node4</title>
<path fill="none" stroke="midnightblue" d="M1035.74,-57.5482C981.853,-46.7706 883.182,-27.0363 833.415,-17.083"/>
<polygon fill="midnightblue" stroke="midnightblue" points="834.064,-13.6435 823.571,-15.1143 832.691,-20.5076 834.064,-13.6435"/>
</g>
<!-- Node21 -->
<g id="node22" class="node"><title>Node21</title>
<polygon fill="white" stroke="#bfbfbf" points="1102.5,-0.5 1102.5,-19.5 1151.5,-19.5 1151.5,-0.5 1102.5,-0.5"/>
<text text-anchor="middle" x="1127" y="-7.5" font-family="Helvetica,sans-Serif" font-size="10.00">stdint.h</text>
</g>
<!-- Node20&#45;&gt;Node21 -->
<g id="edge22" class="edge"><title>Node20&#45;&gt;Node21</title>
<path fill="none" stroke="midnightblue" d="M1081.92,-56.083C1089.78,-48.2195 1101.43,-36.5688 1110.92,-27.0813"/>
<polygon fill="midnightblue" stroke="midnightblue" points="1113.65,-29.2971 1118.25,-19.7511 1108.7,-24.3473 1113.65,-29.2971"/>
</g>
<!-- Node22 -->
<g id="node23" class="node"><title>Node22</title>
<polygon fill="white" stroke="#bfbfbf" points="1170,-0.5 1170,-19.5 1214,-19.5 1214,-0.5 1170,-0.5"/>
<text text-anchor="middle" x="1192" y="-7.5" font-family="Helvetica,sans-Serif" font-size="10.00">time.h</text>
</g>
<!-- Node20&#45;&gt;Node22 -->
<g id="edge23" class="edge"><title>Node20&#45;&gt;Node22</title>
<path fill="none" stroke="midnightblue" d="M1091.86,-56.4435C1111.27,-47.6356 1141.73,-33.8116 1163.96,-23.722"/>
<polygon fill="midnightblue" stroke="midnightblue" points="1165.57,-26.836 1173.23,-19.5164 1162.68,-20.4615 1165.57,-26.836"/>
</g>
<!-- Node23 -->
<g id="node24" class="node"><title>Node23</title>
<polygon fill="white" stroke="#bfbfbf" points="886,-0.5 886,-19.5 938,-19.5 938,-0.5 886,-0.5"/>
<text text-anchor="middle" x="912" y="-7.5" font-family="Helvetica,sans-Serif" font-size="10.00">sstream</text>
</g>
<!-- Node20&#45;&gt;Node23 -->
<g id="edge24" class="edge"><title>Node20&#45;&gt;Node23</title>
<path fill="none" stroke="midnightblue" d="M1047.49,-56.4435C1020.4,-47.3591 977.41,-32.9388 947.131,-22.7831"/>
<polygon fill="midnightblue" stroke="midnightblue" points="947.986,-19.3781 937.392,-19.5164 945.76,-26.0148 947.986,-19.3781"/>
</g>
<!-- Node24 -->
<g id="node25" class="node"><title>Node24</title>
<polygon fill="white" stroke="#bfbfbf" points="956,-0.5 956,-19.5 1084,-19.5 1084,-0.5 956,-0.5"/>
<text text-anchor="middle" x="1020" y="-7.5" font-family="Helvetica,sans-Serif" font-size="10.00">common/lexical_cast.hpp</text>
</g>
<!-- Node20&#45;&gt;Node24 -->
<g id="edge25" class="edge"><title>Node20&#45;&gt;Node24</title>
<path fill="none" stroke="midnightblue" d="M1064.25,-56.083C1056.53,-48.2195 1045.1,-36.5688 1035.78,-27.0813"/>
<polygon fill="midnightblue" stroke="midnightblue" points="1038.09,-24.4363 1028.59,-19.7511 1033.1,-29.3396 1038.09,-24.4363"/>
</g>
<!-- Node27&#45;&gt;Node6 -->
<g id="edge35" class="edge"><title>Node27&#45;&gt;Node6</title>
<path fill="none" stroke="midnightblue" d="M1266.79,-179.499C1282.72,-172.413 1302.46,-160.605 1312,-143 1318.56,-130.885 1321.33,-122.137 1312,-112 1294.84,-93.3586 925.96,-74.3957 806.192,-68.7104"/>
<polygon fill="midnightblue" stroke="midnightblue" points="806.199,-65.2069 796.045,-68.2323 805.869,-72.1992 806.199,-65.2069"/>
</g>
<!-- Node27&#45;&gt;Node9 -->
<g id="edge37" class="edge"><title>Node27&#45;&gt;Node9</title>
<path fill="none" stroke="midnightblue" d="M1231.25,-179.475C1218.22,-170.02 1196.96,-154.596 1181.24,-143.187"/>
<polygon fill="midnightblue" stroke="midnightblue" points="1182.88,-140.049 1172.73,-137.009 1178.77,-145.715 1182.88,-140.049"/>
</g>
<!-- Node27&#45;&gt;Node11 -->
<g id="edge36" class="edge"><title>Node27&#45;&gt;Node11</title>
<path fill="none" stroke="midnightblue" d="M1238.42,-179.475C1233.76,-170.815 1226.41,-157.149 1220.49,-146.145"/>
<polygon fill="midnightblue" stroke="midnightblue" points="1223.4,-144.158 1215.58,-137.009 1217.23,-147.474 1223.4,-144.158"/>
</g>
<!-- Node27&#45;&gt;Node12 -->
<g id="edge38" class="edge"><title>Node27&#45;&gt;Node12</title>
<path fill="none" stroke="midnightblue" d="M1247.58,-179.475C1252.24,-170.815 1259.59,-157.149 1265.51,-146.145"/>
<polygon fill="midnightblue" stroke="midnightblue" points="1268.77,-147.474 1270.42,-137.009 1262.6,-144.158 1268.77,-147.474"/>
</g>
<!-- Node27&#45;&gt;Node20 -->
<g id="edge39" class="edge"><title>Node27&#45;&gt;Node20</title>
<path fill="none" stroke="midnightblue" d="M1269.52,-184.437C1293.8,-179.615 1328.41,-168.457 1345,-143 1352.52,-131.458 1353.91,-122.507 1345,-112 1316.77,-78.7118 1190.7,-70.0146 1120.53,-67.7653"/>
<polygon fill="midnightblue" stroke="midnightblue" points="1120.29,-64.2569 1110.19,-67.4674 1120.09,-71.254 1120.29,-64.2569"/>
</g>
</g>
</svg>
        <g id="navigator" transform="translate(0 0)" fill="#404254">
                <rect fill="#f2f5e9" fill-opacity="0.5" stroke="#606060" stroke-width=".5" x="0" y="0" width="60" height="60"/>
                <use id="zoomplus" xlink:href="#zoomPlus" x="17" y="9" onmousedown="handleZoom(evt,'in')"/>
                <use id="zoomminus" xlink:href="#zoomMin" x="42" y="9" onmousedown="handleZoom(evt,'out')"/>
                <use id="reset" xlink:href="#resetDef" x="30" y="36" onmousedown="handleReset()"/>
                <g id="arrowUp" xlink:href="#dirArrow" transform="translate(30 24)" onmousedown="handlePan(0,-1)">
                  <use xlink:href="#rim" fill="#404040">
                        <set attributeName="fill" to="#808080" begin="arrowUp.mouseover" end="arrowUp.mouseout"/>
                  </use>
                  <path fill="none" stroke="white" stroke-width="1.5" d="M0,-3.0v7 M-2.5,-0.5L0,-3.0L2.5,-0.5"/>
                </g>
                <g id="arrowRight" xlink:href="#dirArrow" transform="rotate(90) translate(36 -43)" onmousedown="handlePan(1,0)">
                  <use xlink:href="#rim" fill="#404040">
                        <set attributeName="fill" to="#808080" begin="arrowRight.mouseover" end="arrowRight.mouseout"/>
                  </use>
                  <path fill="none" stroke="white" stroke-width="1.5" d="M0,-3.0v7 M-2.5,-0.5L0,-3.0L2.5,-0.5"/>
                </g>
                <g id="arrowDown" xlink:href="#dirArrow" transform="rotate(180) translate(-30 -48)" onmousedown="handlePan(0,1)">
                  <use xlink:href="#rim" fill="#404040">
                        <set attributeName="fill" to="#808080" begin="arrowDown.mouseover" end="arrowDown.mouseout"/>
                  </use>
                  <path fill="none" stroke="white" stroke-width="1.5" d="M0,-3.0v7 M-2.5,-0.5L0,-3.0L2.5,-0.5"/>
                </g>
                <g id="arrowLeft" xlink:href="#dirArrow" transform="rotate(270) translate(-36 17)" onmousedown="handlePan(-1,0)">
                  <use xlink:href="#rim" fill="#404040">
                        <set attributeName="fill" to="#808080" begin="arrowLeft.mouseover" end="arrowLeft.mouseout"/>
                  </use>
                  <path fill="none" stroke="white" stroke-width="1.5" d="M0,-3.0v7 M-2.5,-0.5L0,-3.0L2.5,-0.5"/>
                </g>
        </g>
        <svg viewBox="0 0 15 15" width="100%" height="30px" preserveAspectRatio="xMaxYMin meet">
         <g id="arrow_out" transform="scale(0.3 0.3)">
          <a xlink:href="_n_f_i_property_8h__incl_org.svg" target="_base">
           <rect id="button" ry="5" rx="5" y="6" x="6" height="38" width="38"
                fill="#f2f5e9" fill-opacity="0.5" stroke="#606060" stroke-width="1.0"/>
           <path id="arrow"
             d="M 11.500037,31.436501 C 11.940474,20.09759 22.043105,11.32322 32.158766,21.979434 L 37.068811,17.246167 C 37.068811,17.246167 37.088388,32 37.088388,32 L 22.160133,31.978069 C 22.160133,31.978069 26.997745,27.140456 26.997745,27.140456 C 18.528582,18.264221 13.291696,25.230495 11.500037,31.436501 z"
             style="fill:#404040;"/>
          </a>
         </g>
        </svg>
</svg>
