<?xml version="1.0" encoding="UTF-8" standalone="no"?>
<!DOCTYPE svg PUBLIC "-//W3C//DTD SVG 1.1//EN"
 "http://www.w3.org/Graphics/SVG/1.1/DTD/svg11.dtd">
<!-- Generated by graphviz version 2.38.0 (20140413.2041)
 -->
<!-- Title: NFIKernelModule.h Pages: 1 -->
<!--zoomable 162 -->
<svg id="main" version="1.1" xmlns="http://www.w3.org/2000/svg" xmlns:xlink="http://www.w3.org/1999/xlink" xml:space="preserve" onload="init(evt)">
<style type="text/css"><![CDATA[
.edge:hover path { stroke: red; }
.edge:hover polygon { stroke: red; fill: red; }
]]></style>
<script type="text/javascript"><![CDATA[
var edges = document.getElementsByTagName('g');
if (edges && edges.length) {
  for (var i=0;i<edges.length;i++) {
    if (edges[i].id.substr(0,4)=='edge') {
      edges[i].setAttribute('class','edge');
    }
  }
}
]]></script>
        <defs>
                <circle id="rim" cx="0" cy="0" r="7"/>
                <circle id="rim2" cx="0" cy="0" r="3.5"/>
                <g id="zoomPlus">
                        <use xlink:href="#rim" fill="#404040">
                                <set attributeName="fill" to="#808080" begin="zoomplus.mouseover" end="zoomplus.mouseout"/>
                        </use>
                        <path d="M-4,0h8M0,-4v8" fill="none" stroke="white" stroke-width="1.5" pointer-events="none"/>
                </g>
                <g id="zoomMin">
                        <use xlink:href="#rim" fill="#404040">
                                <set attributeName="fill" to="#808080" begin="zoomminus.mouseover" end="zoomminus.mouseout"/>
                        </use>
                        <path d="M-4,0h8" fill="none" stroke="white" stroke-width="1.5" pointer-events="none"/>
                </g>
                <g id="dirArrow">
                        <path fill="none" stroke="white" stroke-width="1.5" d="M0,-3.0v7 M-2.5,-0.5L0,-3.0L2.5,-0.5"/>
                </g>
               <g id="resetDef">
                       <use xlink:href="#rim2" fill="#404040">
                               <set attributeName="fill" to="#808080" begin="reset.mouseover" end="reset.mouseout"/>
                       </use>
               </g>
        </defs>

<script type="text/javascript">
var viewWidth = 4341;
var viewHeight = 162;
var sectionId = 'dynsection-1';
</script>
<script xlink:href="svgpan.js"/>
<svg id="graph" class="graph">
<g id="viewport">
<title>NFIKernelModule.h</title>
<polygon fill="white" stroke="none" points="-4,4 -4,-158 4337,-158 4337,4 -4,4"/>
<!-- Node42 -->
<g id="node1" class="node"><title>Node42</title>
<polygon fill="#bfbfbf" stroke="black" points="2448,-134.5 2448,-153.5 2547,-153.5 2547,-134.5 2448,-134.5"/>
<text text-anchor="middle" x="2497.5" y="-141.5" font-family="Helvetica,sans-Serif" font-size="10.00">NFIKernelModule.h</text>
</g>
<!-- Node43 -->
<g id="node2" class="node"><title>Node43</title>
<g id="a_node2"><a xlink:href="_hello_world3_module_8h.html" target="_top" xlink:title="HelloWorld3Module.h">
<polygon fill="white" stroke="black" points="132,-73 132,-92 241,-92 241,-73 132,-73"/>
<text text-anchor="middle" x="186.5" y="-80" font-family="Helvetica,sans-Serif" font-size="10.00">HelloWorld3Module.h</text>
</a>
</g>
</g>
<!-- Node42&#45;&gt;Node43 -->
<g id="edge1" class="edge"><title>Node42&#45;&gt;Node43</title>
<path fill="none" stroke="midnightblue" d="M2437.77,-142.925C2186.81,-142.356 1193.07,-137.584 377.5,-98 331.496,-95.7672 279.364,-91.7062 241.201,-88.4488"/>
<polygon fill="midnightblue" stroke="midnightblue" points="2437.77,-146.425 2447.77,-142.946 2437.78,-139.425 2437.77,-146.425"/>
</g>
<!-- Node46 -->
<g id="node5" class="node"><title>Node46</title>
<g id="a_node5"><a xlink:href="_n_f_c_kernel_module_8h.html" target="_top" xlink:title="NFCKernelModule.h">
<polygon fill="white" stroke="black" points="386.5,-73 386.5,-92 490.5,-92 490.5,-73 386.5,-73"/>
<text text-anchor="middle" x="438.5" y="-80" font-family="Helvetica,sans-Serif" font-size="10.00">NFCKernelModule.h</text>
</a>
</g>
</g>
<!-- Node42&#45;&gt;Node46 -->
<g id="edge4" class="edge"><title>Node42&#45;&gt;Node46</title>
<path fill="none" stroke="midnightblue" d="M2437.64,-143.211C2148.3,-143.991 892.729,-144.583 504.5,-98 493.667,-96.7002 481.995,-94.4312 471.523,-92.0687"/>
<polygon fill="midnightblue" stroke="midnightblue" points="2437.93,-146.71 2447.92,-143.182 2437.91,-139.71 2437.93,-146.71"/>
</g>
<!-- Node49 -->
<g id="node8" class="node"><title>Node49</title>
<g id="a_node8"><a xlink:href="_n_f_c_u_u_i_d_module_8h.html" target="_top" xlink:title="NFCUUIDModule.h">
<polygon fill="white" stroke="black" points="513.5,-73 513.5,-92 611.5,-92 611.5,-73 513.5,-73"/>
<text text-anchor="middle" x="562.5" y="-80" font-family="Helvetica,sans-Serif" font-size="10.00">NFCUUIDModule.h</text>
</a>
</g>
</g>
<!-- Node42&#45;&gt;Node49 -->
<g id="edge7" class="edge"><title>Node42&#45;&gt;Node49</title>
<path fill="none" stroke="midnightblue" d="M2437.68,-143.097C2211.43,-143.123 1386.53,-140.139 708.5,-98 676.213,-95.9934 640.029,-92.4091 611.76,-89.3064"/>
<polygon fill="midnightblue" stroke="midnightblue" points="2438,-146.597 2448,-143.093 2438,-139.597 2438,-146.597"/>
</g>
<!-- Node50 -->
<g id="node9" class="node"><title>Node50</title>
<g id="a_node9"><a xlink:href="_n_f_c_u_u_i_d_module_8cpp.html" target="_top" xlink:title="NFCUUIDModule.cpp">
<polygon fill="white" stroke="black" points="508,-6 508,-25 617,-25 617,-6 508,-6"/>
<text text-anchor="middle" x="562.5" y="-13" font-family="Helvetica,sans-Serif" font-size="10.00">NFCUUIDModule.cpp</text>
</a>
</g>
</g>
<!-- Node42&#45;&gt;Node50 -->
<g id="edge10" class="edge"><title>Node42&#45;&gt;Node50</title>
<path fill="none" stroke="midnightblue" d="M2437.33,-142.36C2157,-139.247 985.814,-124.734 824.5,-98 731.92,-82.6568 626.676,-42.6652 583.082,-25.0466"/>
<polygon fill="midnightblue" stroke="midnightblue" points="2437.66,-145.864 2447.7,-142.475 2437.74,-138.864 2437.66,-145.864"/>
</g>
<!-- Node51 -->
<g id="node10" class="node"><title>Node51</title>
<g id="a_node10"><a xlink:href="_n_f_c_game_server_to_world_module_8h.html" target="_top" xlink:title="NFCGameServerToWorldModule.h">
<polygon fill="white" stroke="black" points="834,-73 834,-92 999,-92 999,-73 834,-73"/>
<text text-anchor="middle" x="916.5" y="-80" font-family="Helvetica,sans-Serif" font-size="10.00">NFCGameServerToWorldModule.h</text>
</a>
</g>
</g>
<!-- Node42&#45;&gt;Node51 -->
<g id="edge11" class="edge"><title>Node42&#45;&gt;Node51</title>
<path fill="none" stroke="midnightblue" d="M2437.56,-141.17C2254.64,-135.524 1687.42,-117.578 1217.5,-98 1143.67,-94.9239 1059.67,-90.828 999.21,-87.7741"/>
<polygon fill="midnightblue" stroke="midnightblue" points="2437.67,-144.675 2447.77,-141.484 2437.89,-137.678 2437.67,-144.675"/>
</g>
<!-- Node54 -->
<g id="node13" class="node"><title>Node54</title>
<g id="a_node13"><a xlink:href="_n_f_c_game_server_net___server_module_8h.html" target="_top" xlink:title="NFCGameServerNet_ServerModule.h">
<polygon fill="white" stroke="black" points="1226.5,-73 1226.5,-92 1402.5,-92 1402.5,-73 1226.5,-73"/>
<text text-anchor="middle" x="1314.5" y="-80" font-family="Helvetica,sans-Serif" font-size="10.00">NFCGameServerNet_ServerModule.h</text>
</a>
</g>
</g>
<!-- Node42&#45;&gt;Node54 -->
<g id="edge14" class="edge"><title>Node42&#45;&gt;Node54</title>
<path fill="none" stroke="midnightblue" d="M2437.47,-142.443C2274.05,-140.505 1807.62,-132.162 1421.5,-98 1404.69,-96.5131 1386.48,-94.2795 1369.93,-92.0081"/>
<polygon fill="midnightblue" stroke="midnightblue" points="2437.75,-145.947 2447.79,-142.562 2437.83,-138.947 2437.75,-145.947"/>
</g>
<!-- Node57 -->
<g id="node16" class="node"><title>Node57</title>
<g id="a_node16"><a xlink:href="_n_f_c_create_role_module_8h.html" target="_top" xlink:title="NFCCreateRoleModule.h">
<polygon fill="white" stroke="black" points="1430.5,-73 1430.5,-92 1554.5,-92 1554.5,-73 1430.5,-73"/>
<text text-anchor="middle" x="1492.5" y="-80" font-family="Helvetica,sans-Serif" font-size="10.00">NFCCreateRoleModule.h</text>
</a>
</g>
</g>
<!-- Node42&#45;&gt;Node57 -->
<g id="edge17" class="edge"><title>Node42&#45;&gt;Node57</title>
<path fill="none" stroke="midnightblue" d="M2437.54,-140.677C2298.45,-135.102 1943.04,-119.791 1646.5,-98 1616.24,-95.776 1582.68,-92.6902 1554.64,-89.9368"/>
<polygon fill="midnightblue" stroke="midnightblue" points="2437.45,-144.175 2447.58,-141.077 2437.72,-137.181 2437.45,-144.175"/>
</g>
<!-- Node59 -->
<g id="node18" class="node"><title>Node59</title>
<g id="a_node18"><a xlink:href="_n_f_c_event_route_module_8h.html" target="_top" xlink:title="NFCEventRouteModule.h">
<polygon fill="white" stroke="black" points="1656,-73 1656,-92 1781,-92 1781,-73 1656,-73"/>
<text text-anchor="middle" x="1718.5" y="-80" font-family="Helvetica,sans-Serif" font-size="10.00">NFCEventRouteModule.h</text>
</a>
</g>
</g>
<!-- Node42&#45;&gt;Node59 -->
<g id="edge19" class="edge"><title>Node42&#45;&gt;Node59</title>
<path fill="none" stroke="midnightblue" d="M2437.66,-139.218C2325.8,-132.037 2077.44,-115.57 1868.5,-98 1839.82,-95.5884 1808.09,-92.5721 1781.23,-89.9161"/>
<polygon fill="midnightblue" stroke="midnightblue" points="2437.52,-142.716 2447.73,-139.863 2437.97,-135.731 2437.52,-142.716"/>
</g>
<!-- Node61 -->
<g id="node20" class="node"><title>Node61</title>
<g id="a_node20"><a xlink:href="_n_f_c_game_server_module_8h.html" target="_top" xlink:title="NFCGameServerModule.h">
<polygon fill="white" stroke="black" points="1878,-73 1878,-92 2007,-92 2007,-73 1878,-73"/>
<text text-anchor="middle" x="1942.5" y="-80" font-family="Helvetica,sans-Serif" font-size="10.00">NFCGameServerModule.h</text>
</a>
</g>
</g>
<!-- Node42&#45;&gt;Node61 -->
<g id="edge21" class="edge"><title>Node42&#45;&gt;Node61</title>
<path fill="none" stroke="midnightblue" d="M2437.65,-139.336C2346.45,-133.317 2167.37,-119.782 2016.5,-98 2005.36,-96.3912 1993.35,-94.2269 1982.32,-92.0619"/>
<polygon fill="midnightblue" stroke="midnightblue" points="2437.59,-142.84 2447.8,-139.999 2438.05,-135.854 2437.59,-142.84"/>
</g>
<!-- Node64 -->
<g id="node23" class="node"><title>Node64</title>
<g id="a_node23"><a xlink:href="_n_f_c_level_module_8h.html" target="_top" xlink:title="NFCLevelModule.h">
<polygon fill="white" stroke="black" points="2025.5,-73 2025.5,-92 2123.5,-92 2123.5,-73 2025.5,-73"/>
<text text-anchor="middle" x="2074.5" y="-80" font-family="Helvetica,sans-Serif" font-size="10.00">NFCLevelModule.h</text>
</a>
</g>
</g>
<!-- Node42&#45;&gt;Node64 -->
<g id="edge24" class="edge"><title>Node42&#45;&gt;Node64</title>
<path fill="none" stroke="midnightblue" d="M2437.59,-137.881C2365,-131.158 2239.15,-117.828 2132.5,-98 2123.72,-96.3684 2114.3,-94.1966 2105.65,-92.0318"/>
<polygon fill="midnightblue" stroke="midnightblue" points="2437.63,-141.399 2447.91,-138.826 2438.27,-134.429 2437.63,-141.399"/>
</g>
<!-- Node66 -->
<g id="node25" class="node"><title>Node66</title>
<g id="a_node25"><a xlink:href="_n_f_c_property_module_8h.html" target="_top" xlink:title="NFCPropertyModule.h">
<polygon fill="white" stroke="black" points="2142,-73 2142,-92 2255,-92 2255,-73 2142,-73"/>
<text text-anchor="middle" x="2198.5" y="-80" font-family="Helvetica,sans-Serif" font-size="10.00">NFCPropertyModule.h</text>
</a>
</g>
</g>
<!-- Node42&#45;&gt;Node66 -->
<g id="edge27" class="edge"><title>Node42&#45;&gt;Node66</title>
<path fill="none" stroke="midnightblue" d="M2441.42,-132.584C2394.18,-123.71 2324.83,-110.451 2264.5,-98 2255.42,-96.1268 2245.66,-94.0288 2236.51,-92.0233"/>
<polygon fill="midnightblue" stroke="midnightblue" points="2440.98,-136.062 2451.45,-134.465 2442.27,-129.182 2440.98,-136.062"/>
</g>
<!-- Node68 -->
<g id="node27" class="node"><title>Node68</title>
<g id="a_node27"><a xlink:href="_n_f_c_property_trail_module_8h.html" target="_top" xlink:title="NFCPropertyTrailModule.h">
<polygon fill="white" stroke="black" points="2432,-73 2432,-92 2563,-92 2563,-73 2432,-73"/>
<text text-anchor="middle" x="2497.5" y="-80" font-family="Helvetica,sans-Serif" font-size="10.00">NFCPropertyTrailModule.h</text>
</a>
</g>
</g>
<!-- Node42&#45;&gt;Node68 -->
<g id="edge30" class="edge"><title>Node42&#45;&gt;Node68</title>
<path fill="none" stroke="midnightblue" d="M2497.5,-124.317C2497.5,-113.496 2497.5,-100.398 2497.5,-92.0091"/>
<polygon fill="midnightblue" stroke="midnightblue" points="2494,-124.475 2497.5,-134.475 2501,-124.475 2494,-124.475"/>
</g>
<!-- Node70 -->
<g id="node29" class="node"><title>Node70</title>
<g id="a_node29"><a xlink:href="_n_f_c_scene_process_module_8h.html" target="_top" xlink:title="NFCSceneProcessModule.h">
<polygon fill="white" stroke="black" points="2273.5,-73 2273.5,-92 2413.5,-92 2413.5,-73 2273.5,-73"/>
<text text-anchor="middle" x="2343.5" y="-80" font-family="Helvetica,sans-Serif" font-size="10.00">NFCSceneProcessModule.h</text>
</a>
</g>
</g>
<!-- Node42&#45;&gt;Node70 -->
<g id="edge32" class="edge"><title>Node42&#45;&gt;Node70</title>
<path fill="none" stroke="midnightblue" d="M2465.88,-130.782C2435.95,-119.22 2391.81,-102.164 2365.52,-92.0091"/>
<polygon fill="midnightblue" stroke="midnightblue" points="2464.85,-134.136 2475.44,-134.475 2467.37,-127.606 2464.85,-134.136"/>
</g>
<!-- Node72 -->
<g id="node31" class="node"><title>Node72</title>
<g id="a_node31"><a xlink:href="_n_f_c_login_logic_module_8h.html" target="_top" xlink:title="NFCLoginLogicModule.h">
<polygon fill="white" stroke="black" points="2581.5,-73 2581.5,-92 2703.5,-92 2703.5,-73 2581.5,-73"/>
<text text-anchor="middle" x="2642.5" y="-80" font-family="Helvetica,sans-Serif" font-size="10.00">NFCLoginLogicModule.h</text>
</a>
</g>
</g>
<!-- Node42&#45;&gt;Node72 -->
<g id="edge35" class="edge"><title>Node42&#45;&gt;Node72</title>
<path fill="none" stroke="midnightblue" d="M2527.64,-130.631C2555.81,-119.072 2597.12,-102.12 2621.76,-92.0091"/>
<polygon fill="midnightblue" stroke="midnightblue" points="2526.2,-127.441 2518.27,-134.475 2528.86,-133.917 2526.2,-127.441"/>
</g>
<!-- Node75 -->
<g id="node34" class="node"><title>Node75</title>
<g id="a_node34"><a xlink:href="_n_f_c_login_to_master_module_8h.html" target="_top" xlink:title="NFCLoginToMasterModule.h">
<polygon fill="white" stroke="black" points="2721.5,-73 2721.5,-92 2861.5,-92 2861.5,-73 2721.5,-73"/>
<text text-anchor="middle" x="2791.5" y="-80" font-family="Helvetica,sans-Serif" font-size="10.00">NFCLoginToMasterModule.h</text>
</a>
</g>
</g>
<!-- Node42&#45;&gt;Node75 -->
<g id="edge38" class="edge"><title>Node42&#45;&gt;Node75</title>
<path fill="none" stroke="midnightblue" d="M2549.51,-132.474C2606.49,-120.943 2696.77,-102.672 2749.46,-92.0091"/>
<polygon fill="midnightblue" stroke="midnightblue" points="2548.73,-129.061 2539.62,-134.475 2550.12,-135.922 2548.73,-129.061"/>
</g>
<!-- Node78 -->
<g id="node37" class="node"><title>Node78</title>
<g id="a_node37"><a xlink:href="_n_f_c_login_net___server_module_8h.html" target="_top" xlink:title="NFCLoginNet_ServerModule.h">
<polygon fill="white" stroke="black" points="2879.5,-73 2879.5,-92 3025.5,-92 3025.5,-73 2879.5,-73"/>
<text text-anchor="middle" x="2952.5" y="-80" font-family="Helvetica,sans-Serif" font-size="10.00">NFCLoginNet_ServerModule.h</text>
</a>
</g>
</g>
<!-- Node42&#45;&gt;Node78 -->
<g id="edge41" class="edge"><title>Node42&#45;&gt;Node78</title>
<path fill="none" stroke="midnightblue" d="M2557.12,-136.829C2630.87,-128.96 2760.2,-114.393 2870.5,-98 2882.23,-96.2573 2894.85,-94.1433 2906.6,-92.0747"/>
<polygon fill="midnightblue" stroke="midnightblue" points="2556.67,-133.357 2547.09,-137.894 2557.41,-140.318 2556.67,-133.357"/>
</g>
<!-- Node81 -->
<g id="node40" class="node"><title>Node81</title>
<g id="a_node40"><a xlink:href="_n_f_c_master_net___server_module_8h.html" target="_top" xlink:title="NFCMasterNet_ServerModule.h">
<polygon fill="white" stroke="black" points="3044,-73 3044,-92 3197,-92 3197,-73 3044,-73"/>
<text text-anchor="middle" x="3120.5" y="-80" font-family="Helvetica,sans-Serif" font-size="10.00">NFCMasterNet_ServerModule.h</text>
</a>
</g>
</g>
<!-- Node42&#45;&gt;Node81 -->
<g id="edge44" class="edge"><title>Node42&#45;&gt;Node81</title>
<path fill="none" stroke="midnightblue" d="M2557.4,-139.617C2656.78,-133.638 2861.92,-119.741 3034.5,-98 3047.42,-96.3724 3061.36,-94.202 3074.19,-92.0371"/>
<polygon fill="midnightblue" stroke="midnightblue" points="2557.02,-136.133 2547.25,-140.222 2557.44,-143.121 2557.02,-136.133"/>
</g>
<!-- Node84 -->
<g id="node43" class="node"><title>Node84</title>
<g id="a_node43"><a xlink:href="_n_f_c_master_module_8h.html" target="_top" xlink:title="NFCMasterModule.h">
<polygon fill="white" stroke="red" points="3215.5,-73 3215.5,-92 3321.5,-92 3321.5,-73 3215.5,-73"/>
<text text-anchor="middle" x="3268.5" y="-80" font-family="Helvetica,sans-Serif" font-size="10.00">NFCMasterModule.h</text>
</a>
</g>
</g>
<!-- Node42&#45;&gt;Node84 -->
<g id="edge47" class="edge"><title>Node42&#45;&gt;Node84</title>
<path fill="none" stroke="midnightblue" d="M2557.42,-142.473C2679.83,-140.675 2967.17,-132.764 3205.5,-98 3215.5,-96.542 3226.25,-94.317 3235.99,-92.0445"/>
<polygon fill="midnightblue" stroke="midnightblue" points="2557.09,-138.977 2547.14,-142.615 2557.19,-145.976 2557.09,-138.977"/>
</g>
<!-- Node87 -->
<g id="node44" class="node"><title>Node87</title>
<g id="a_node44"><a xlink:href="_n_f_c_proxy_logic_module_8h.html" target="_top" xlink:title="NFCProxyLogicModule.h">
<polygon fill="white" stroke="red" points="3340,-73 3340,-92 3465,-92 3465,-73 3340,-73"/>
<text text-anchor="middle" x="3402.5" y="-80" font-family="Helvetica,sans-Serif" font-size="10.00">NFCProxyLogicModule.h</text>
</a>
</g>
</g>
<!-- Node42&#45;&gt;Node87 -->
<g id="edge48" class="edge"><title>Node42&#45;&gt;Node87</title>
<path fill="none" stroke="midnightblue" d="M2557.31,-142.732C2694.54,-141.471 3042.4,-134.597 3330.5,-98 3341.88,-96.5539 3354.16,-94.3324 3365.3,-92.0595"/>
<polygon fill="midnightblue" stroke="midnightblue" points="2556.99,-139.235 2547.02,-142.82 2557.05,-146.234 2556.99,-139.235"/>
</g>
<!-- Node90 -->
<g id="node45" class="node"><title>Node90</title>
<g id="a_node45"><a xlink:href="_n_f_c_proxy_server_to_game_module_8h.html" target="_top" xlink:title="NFCProxyServerToGameModule.h">
<polygon fill="white" stroke="red" points="3483,-73 3483,-92 3648,-92 3648,-73 3483,-73"/>
<text text-anchor="middle" x="3565.5" y="-80" font-family="Helvetica,sans-Serif" font-size="10.00">NFCProxyServerToGameModule.h</text>
</a>
</g>
</g>
<!-- Node42&#45;&gt;Node90 -->
<g id="edge49" class="edge"><title>Node42&#45;&gt;Node90</title>
<path fill="none" stroke="midnightblue" d="M2557.27,-142.534C2710.14,-140.847 3127.69,-133.115 3473.5,-98 3487.98,-96.5298 3503.65,-94.3012 3517.88,-92.0292"/>
<polygon fill="midnightblue" stroke="midnightblue" points="2557.12,-139.036 2547.15,-142.641 2557.19,-146.035 2557.12,-139.036"/>
</g>
<!-- Node93 -->
<g id="node46" class="node"><title>Node93</title>
<g id="a_node46"><a xlink:href="_n_f_c_proxy_server_to_world_module_8h.html" target="_top" xlink:title="NFCProxyServerToWorldModule.h">
<polygon fill="white" stroke="red" points="3666.5,-73 3666.5,-92 3830.5,-92 3830.5,-73 3666.5,-73"/>
<text text-anchor="middle" x="3748.5" y="-80" font-family="Helvetica,sans-Serif" font-size="10.00">NFCProxyServerToWorldModule.h</text>
</a>
</g>
</g>
<!-- Node42&#45;&gt;Node93 -->
<g id="edge50" class="edge"><title>Node42&#45;&gt;Node93</title>
<path fill="none" stroke="midnightblue" d="M2557.14,-143.153C2728.51,-143.06 3236.95,-139.064 3656.5,-98 3671.14,-96.5667 3687,-94.3202 3701.36,-92.0197"/>
<polygon fill="midnightblue" stroke="midnightblue" points="2557.06,-139.652 2547.06,-143.154 2557.06,-146.652 2557.06,-139.652"/>
</g>
<!-- Node95 -->
<g id="node47" class="node"><title>Node95</title>
<g id="a_node47"><a xlink:href="_n_f_c_proxy_server_net___server_module_8h.html" target="_top" xlink:title="NFCProxyServerNet_Server\lModule.h">
<polygon fill="white" stroke="red" points="3848.5,-67.5 3848.5,-97.5 3984.5,-97.5 3984.5,-67.5 3848.5,-67.5"/>
<text text-anchor="start" x="3856.5" y="-85.5" font-family="Helvetica,sans-Serif" font-size="10.00">NFCProxyServerNet_Server</text>
<text text-anchor="middle" x="3916.5" y="-74.5" font-family="Helvetica,sans-Serif" font-size="10.00">Module.h</text>
</a>
</g>
</g>
<!-- Node42&#45;&gt;Node95 -->
<g id="edge51" class="edge"><title>Node42&#45;&gt;Node95</title>
<path fill="none" stroke="midnightblue" d="M2557.19,-142.211C2783.08,-139.035 3585.62,-125.995 3839.5,-98 3842.34,-97.6869 3845.23,-97.3276 3848.15,-96.9318"/>
<polygon fill="midnightblue" stroke="midnightblue" points="2557.13,-138.711 2547.18,-142.35 2557.23,-145.71 2557.13,-138.711"/>
</g>
<!-- Node96 -->
<g id="node48" class="node"><title>Node96</title>
<g id="a_node48"><a xlink:href="_n_f_c_proxy_server_net___server_module_8cpp.html" target="_top" xlink:title="NFCProxyServerNet_Server\lModule.cpp">
<polygon fill="white" stroke="black" points="3941.5,-0.5 3941.5,-30.5 4077.5,-30.5 4077.5,-0.5 3941.5,-0.5"/>
<text text-anchor="start" x="3949.5" y="-18.5" font-family="Helvetica,sans-Serif" font-size="10.00">NFCProxyServerNet_Server</text>
<text text-anchor="middle" x="4009.5" y="-7.5" font-family="Helvetica,sans-Serif" font-size="10.00">Module.cpp</text>
</a>
</g>
</g>
<!-- Node42&#45;&gt;Node96 -->
<g id="edge53" class="edge"><title>Node42&#45;&gt;Node96</title>
<path fill="none" stroke="midnightblue" d="M2557.39,-143.266C2829.44,-144.215 3937.9,-145.168 3993.5,-98 4012.85,-81.583 4013.16,-49.2179 4011.46,-30.5929"/>
<polygon fill="midnightblue" stroke="midnightblue" points="2557.33,-139.766 2547.32,-143.23 2557.3,-146.766 2557.33,-139.766"/>
</g>
<!-- Node98 -->
<g id="node49" class="node"><title>Node98</title>
<g id="a_node49"><a xlink:href="_n_f_c_world_logic_module_8h.html" target="_top" xlink:title="NFCWorldLogicModule.h">
<polygon fill="white" stroke="red" points="4041,-73 4041,-92 4166,-92 4166,-73 4041,-73"/>
<text text-anchor="middle" x="4103.5" y="-80" font-family="Helvetica,sans-Serif" font-size="10.00">NFCWorldLogicModule.h</text>
</a>
</g>
</g>
<!-- Node42&#45;&gt;Node98 -->
<g id="edge54" class="edge"><title>Node42&#45;&gt;Node98</title>
<path fill="none" stroke="midnightblue" d="M2557.17,-142.494C2802.46,-140.222 3734,-129.647 4026.5,-98 4038.94,-96.6538 4052.39,-94.4025 4064.5,-92.0705"/>
<polygon fill="midnightblue" stroke="midnightblue" points="2556.99,-138.996 2547.03,-142.587 2557.06,-145.995 2556.99,-138.996"/>
</g>
<!-- Node101 -->
<g id="node50" class="node"><title>Node101</title>
<g id="a_node50"><a xlink:href="_n_f_c_world_net___server_module_8h.html" target="_top" xlink:title="NFCWorldNet_ServerModule.h">
<polygon fill="white" stroke="red" points="4184,-73 4184,-92 4333,-92 4333,-73 4184,-73"/>
<text text-anchor="middle" x="4258.5" y="-80" font-family="Helvetica,sans-Serif" font-size="10.00">NFCWorldNet_ServerModule.h</text>
</a>
</g>
</g>
<!-- Node42&#45;&gt;Node101 -->
<g id="edge55" class="edge"><title>Node42&#45;&gt;Node101</title>
<path fill="none" stroke="midnightblue" d="M2557.34,-142.569C2817.54,-140.513 3851.97,-130.423 4175.5,-98 4188.89,-96.658 4203.38,-94.4079 4216.44,-92.0757"/>
<polygon fill="midnightblue" stroke="midnightblue" points="2557.3,-139.069 2547.33,-142.647 2557.36,-146.069 2557.3,-139.069"/>
</g>
<!-- Node44 -->
<g id="node3" class="node"><title>Node44</title>
<g id="a_node3"><a xlink:href="_hello_world3_module_8cpp.html" target="_top" xlink:title="HelloWorld3Module.cpp">
<polygon fill="white" stroke="black" points="0,-6 0,-25 119,-25 119,-6 0,-6"/>
<text text-anchor="middle" x="59.5" y="-13" font-family="Helvetica,sans-Serif" font-size="10.00">HelloWorld3Module.cpp</text>
</a>
</g>
</g>
<!-- Node43&#45;&gt;Node44 -->
<g id="edge2" class="edge"><title>Node43&#45;&gt;Node44</title>
<path fill="none" stroke="midnightblue" d="M160.658,-68.2739C135.504,-55.3999 98.0076,-36.2086 76.4344,-25.1672"/>
<polygon fill="midnightblue" stroke="midnightblue" points="159.139,-71.428 169.635,-72.8685 162.328,-65.1968 159.139,-71.428"/>
</g>
<!-- Node45 -->
<g id="node4" class="node"><title>Node45</title>
<g id="a_node4"><a xlink:href="_tutorial3_plugin_8cpp.html" target="_top" xlink:title="Tutorial3Plugin.cpp">
<polygon fill="white" stroke="black" points="137,-6 137,-25 236,-25 236,-6 137,-6"/>
<text text-anchor="middle" x="186.5" y="-13" font-family="Helvetica,sans-Serif" font-size="10.00">Tutorial3Plugin.cpp</text>
</a>
</g>
</g>
<!-- Node43&#45;&gt;Node45 -->
<g id="edge3" class="edge"><title>Node43&#45;&gt;Node45</title>
<path fill="none" stroke="midnightblue" d="M186.5,-62.537C186.5,-50.1703 186.5,-34.6198 186.5,-25.1273"/>
<polygon fill="midnightblue" stroke="midnightblue" points="183,-62.7338 186.5,-72.7338 190,-62.7338 183,-62.7338"/>
</g>
<!-- Node47 -->
<g id="node6" class="node"><title>Node47</title>
<g id="a_node6"><a xlink:href="_n_f_c_kernel_module_8cpp.html" target="_top" xlink:title="NFCKernelModule.cpp">
<polygon fill="white" stroke="black" points="254.5,-6 254.5,-25 368.5,-25 368.5,-6 254.5,-6"/>
<text text-anchor="middle" x="311.5" y="-13" font-family="Helvetica,sans-Serif" font-size="10.00">NFCKernelModule.cpp</text>
</a>
</g>
</g>
<!-- Node46&#45;&gt;Node47 -->
<g id="edge5" class="edge"><title>Node46&#45;&gt;Node47</title>
<path fill="none" stroke="midnightblue" d="M412.658,-68.2739C387.504,-55.3999 350.008,-36.2086 328.434,-25.1672"/>
<polygon fill="midnightblue" stroke="midnightblue" points="411.139,-71.428 421.635,-72.8685 414.328,-65.1968 411.139,-71.428"/>
</g>
<!-- Node48 -->
<g id="node7" class="node"><title>Node48</title>
<g id="a_node7"><a xlink:href="_n_f_kernel_plugin_8cpp.html" target="_top" xlink:title="NFKernelPlugin.cpp">
<polygon fill="white" stroke="black" points="387,-6 387,-25 490,-25 490,-6 387,-6"/>
<text text-anchor="middle" x="438.5" y="-13" font-family="Helvetica,sans-Serif" font-size="10.00">NFKernelPlugin.cpp</text>
</a>
</g>
</g>
<!-- Node46&#45;&gt;Node48 -->
<g id="edge6" class="edge"><title>Node46&#45;&gt;Node48</title>
<path fill="none" stroke="midnightblue" d="M438.5,-62.537C438.5,-50.1703 438.5,-34.6198 438.5,-25.1273"/>
<polygon fill="midnightblue" stroke="midnightblue" points="435,-62.7338 438.5,-72.7338 442,-62.7338 435,-62.7338"/>
</g>
<!-- Node49&#45;&gt;Node48 -->
<g id="edge9" class="edge"><title>Node49&#45;&gt;Node48</title>
<path fill="none" stroke="midnightblue" d="M536.943,-68.1034C512.387,-55.2309 476.005,-36.16 455.034,-25.1672"/>
<polygon fill="midnightblue" stroke="midnightblue" points="535.552,-71.3256 546.034,-72.8685 538.802,-65.1258 535.552,-71.3256"/>
</g>
<!-- Node49&#45;&gt;Node50 -->
<g id="edge8" class="edge"><title>Node49&#45;&gt;Node50</title>
<path fill="none" stroke="midnightblue" d="M562.5,-62.537C562.5,-50.1703 562.5,-34.6198 562.5,-25.1273"/>
<polygon fill="midnightblue" stroke="midnightblue" points="559,-62.7338 562.5,-72.7338 566,-62.7338 559,-62.7338"/>
</g>
<!-- Node52 -->
<g id="node11" class="node"><title>Node52</title>
<g id="a_node11"><a xlink:href="_n_f_c_game_server_to_world_module_8cpp.html" target="_top" xlink:title="NFCGameServerToWorldModule.cpp">
<polygon fill="white" stroke="black" points="635.5,-6 635.5,-25 811.5,-25 811.5,-6 635.5,-6"/>
<text text-anchor="middle" x="723.5" y="-13" font-family="Helvetica,sans-Serif" font-size="10.00">NFCGameServerToWorldModule.cpp</text>
</a>
</g>
</g>
<!-- Node51&#45;&gt;Node52 -->
<g id="edge12" class="edge"><title>Node51&#45;&gt;Node52</title>
<path fill="none" stroke="midnightblue" d="M881.17,-69.6013C842.904,-56.7138 782.804,-36.4728 748.928,-25.0637"/>
<polygon fill="midnightblue" stroke="midnightblue" points="880.277,-72.9937 890.871,-72.8685 882.511,-66.3598 880.277,-72.9937"/>
</g>
<!-- Node53 -->
<g id="node12" class="node"><title>Node53</title>
<g id="a_node12"><a xlink:href="_n_f_game_server_net___client_plugin_8cpp.html" target="_top" xlink:title="NFGameServerNet_ClientPlugin.cpp">
<polygon fill="white" stroke="black" points="830,-6 830,-25 1003,-25 1003,-6 830,-6"/>
<text text-anchor="middle" x="916.5" y="-13" font-family="Helvetica,sans-Serif" font-size="10.00">NFGameServerNet_ClientPlugin.cpp</text>
</a>
</g>
</g>
<!-- Node51&#45;&gt;Node53 -->
<g id="edge13" class="edge"><title>Node51&#45;&gt;Node53</title>
<path fill="none" stroke="midnightblue" d="M916.5,-62.537C916.5,-50.1703 916.5,-34.6198 916.5,-25.1273"/>
<polygon fill="midnightblue" stroke="midnightblue" points="913,-62.7338 916.5,-72.7338 920,-62.7338 913,-62.7338"/>
</g>
<!-- Node55 -->
<g id="node14" class="node"><title>Node55</title>
<g id="a_node14"><a xlink:href="_n_f_c_game_server_net___server_module_8cpp.html" target="_top" xlink:title="NFCGameServerNet_ServerModule.cpp">
<polygon fill="white" stroke="black" points="1021,-6 1021,-25 1208,-25 1208,-6 1021,-6"/>
<text text-anchor="middle" x="1114.5" y="-13" font-family="Helvetica,sans-Serif" font-size="10.00">NFCGameServerNet_ServerModule.cpp</text>
</a>
</g>
</g>
<!-- Node54&#45;&gt;Node55 -->
<g id="edge15" class="edge"><title>Node54&#45;&gt;Node55</title>
<path fill="none" stroke="midnightblue" d="M1278.39,-69.7654C1238.77,-56.8862 1176.1,-36.5214 1140.85,-25.0637"/>
<polygon fill="midnightblue" stroke="midnightblue" points="1277.35,-73.1062 1287.94,-72.8685 1279.51,-66.449 1277.35,-73.1062"/>
</g>
<!-- Node56 -->
<g id="node15" class="node"><title>Node56</title>
<g id="a_node15"><a xlink:href="_n_f_game_server_net___server_plugin_8cpp.html" target="_top" xlink:title="NFGameServerNet_ServerPlugin.cpp">
<polygon fill="white" stroke="black" points="1226.5,-6 1226.5,-25 1402.5,-25 1402.5,-6 1226.5,-6"/>
<text text-anchor="middle" x="1314.5" y="-13" font-family="Helvetica,sans-Serif" font-size="10.00">NFGameServerNet_ServerPlugin.cpp</text>
</a>
</g>
</g>
<!-- Node54&#45;&gt;Node56 -->
<g id="edge16" class="edge"><title>Node54&#45;&gt;Node56</title>
<path fill="none" stroke="midnightblue" d="M1314.5,-62.537C1314.5,-50.1703 1314.5,-34.6198 1314.5,-25.1273"/>
<polygon fill="midnightblue" stroke="midnightblue" points="1311,-62.7338 1314.5,-72.7338 1318,-62.7338 1311,-62.7338"/>
</g>
<!-- Node58 -->
<g id="node17" class="node"><title>Node58</title>
<g id="a_node17"><a xlink:href="_n_f_c_create_role_module_8cpp.html" target="_top" xlink:title="NFCCreateRoleModule.cpp">
<polygon fill="white" stroke="black" points="1420.5,-6 1420.5,-25 1554.5,-25 1554.5,-6 1420.5,-6"/>
<text text-anchor="middle" x="1487.5" y="-13" font-family="Helvetica,sans-Serif" font-size="10.00">NFCCreateRoleModule.cpp</text>
</a>
</g>
</g>
<!-- Node57&#45;&gt;Node58 -->
<g id="edge18" class="edge"><title>Node57&#45;&gt;Node58</title>
<path fill="none" stroke="midnightblue" d="M1491.04,-62.537C1490.09,-50.1703 1488.89,-34.6198 1488.16,-25.1273"/>
<polygon fill="midnightblue" stroke="midnightblue" points="1487.57,-63.0317 1491.83,-72.7338 1494.55,-62.4948 1487.57,-63.0317"/>
</g>
<!-- Node60 -->
<g id="node19" class="node"><title>Node60</title>
<g id="a_node19"><a xlink:href="_n_f_c_event_route_module_8cpp.html" target="_top" xlink:title="NFCEventRouteModule.cpp">
<polygon fill="white" stroke="black" points="1572.5,-6 1572.5,-25 1708.5,-25 1708.5,-6 1572.5,-6"/>
<text text-anchor="middle" x="1640.5" y="-13" font-family="Helvetica,sans-Serif" font-size="10.00">NFCEventRouteModule.cpp</text>
</a>
</g>
</g>
<!-- Node59&#45;&gt;Node60 -->
<g id="edge20" class="edge"><title>Node59&#45;&gt;Node60</title>
<path fill="none" stroke="midnightblue" d="M1700.16,-66.2134C1684.79,-53.407 1663.41,-35.5884 1650.85,-25.1273"/>
<polygon fill="midnightblue" stroke="midnightblue" points="1698.06,-69.0207 1707.98,-72.7338 1702.54,-63.6431 1698.06,-69.0207"/>
</g>
<!-- Node62 -->
<g id="node21" class="node"><title>Node62</title>
<g id="a_node21"><a xlink:href="_n_f_c_game_server_module_8cpp.html" target="_top" xlink:title="NFCGameServerModule.cpp">
<polygon fill="white" stroke="black" points="1726.5,-6 1726.5,-25 1866.5,-25 1866.5,-6 1726.5,-6"/>
<text text-anchor="middle" x="1796.5" y="-13" font-family="Helvetica,sans-Serif" font-size="10.00">NFCGameServerModule.cpp</text>
</a>
</g>
</g>
<!-- Node61&#45;&gt;Node62 -->
<g id="edge22" class="edge"><title>Node61&#45;&gt;Node62</title>
<path fill="none" stroke="midnightblue" d="M1913.93,-68.781C1885.02,-55.9085 1841.1,-36.3545 1815.97,-25.1672"/>
<polygon fill="midnightblue" stroke="midnightblue" points="1912.55,-71.9987 1923.11,-72.8685 1915.4,-65.6038 1912.55,-71.9987"/>
</g>
<!-- Node63 -->
<g id="node22" class="node"><title>Node63</title>
<g id="a_node22"><a xlink:href="_n_f_game_server_plugin_8cpp.html" target="_top" xlink:title="NFGameServerPlugin.cpp">
<polygon fill="white" stroke="black" points="2010.5,-6 2010.5,-25 2138.5,-25 2138.5,-6 2010.5,-6"/>
<text text-anchor="middle" x="2074.5" y="-13" font-family="Helvetica,sans-Serif" font-size="10.00">NFGameServerPlugin.cpp</text>
</a>
</g>
</g>
<!-- Node61&#45;&gt;Node63 -->
<g id="edge23" class="edge"><title>Node61&#45;&gt;Node63</title>
<path fill="none" stroke="midnightblue" d="M1969.01,-68.4436C1995.16,-55.5691 2034.38,-36.2573 2056.9,-25.1672"/>
<polygon fill="midnightblue" stroke="midnightblue" points="1967.45,-65.3108 1960.03,-72.8685 1970.55,-71.5907 1967.45,-65.3108"/>
</g>
<!-- Node64&#45;&gt;Node63 -->
<g id="edge26" class="edge"><title>Node64&#45;&gt;Node63</title>
<path fill="none" stroke="midnightblue" d="M2074.5,-62.537C2074.5,-50.1703 2074.5,-34.6198 2074.5,-25.1273"/>
<polygon fill="midnightblue" stroke="midnightblue" points="2071,-62.7338 2074.5,-72.7338 2078,-62.7338 2071,-62.7338"/>
</g>
<!-- Node65 -->
<g id="node24" class="node"><title>Node65</title>
<g id="a_node24"><a xlink:href="_n_f_c_level_module_8cpp.html" target="_top" xlink:title="NFCLevelModule.cpp">
<polygon fill="white" stroke="black" points="1884.5,-6 1884.5,-25 1992.5,-25 1992.5,-6 1884.5,-6"/>
<text text-anchor="middle" x="1938.5" y="-13" font-family="Helvetica,sans-Serif" font-size="10.00">NFCLevelModule.cpp</text>
</a>
</g>
</g>
<!-- Node64&#45;&gt;Node65 -->
<g id="edge25" class="edge"><title>Node64&#45;&gt;Node65</title>
<path fill="none" stroke="midnightblue" d="M2047.18,-68.4436C2020.24,-55.5691 1979.84,-36.2573 1956.63,-25.1672"/>
<polygon fill="midnightblue" stroke="midnightblue" points="2045.91,-71.7141 2056.44,-72.8685 2048.93,-65.3984 2045.91,-71.7141"/>
</g>
<!-- Node66&#45;&gt;Node63 -->
<g id="edge29" class="edge"><title>Node66&#45;&gt;Node63</title>
<path fill="none" stroke="midnightblue" d="M2172.94,-68.1034C2148.39,-55.2309 2112.01,-36.16 2091.03,-25.1672"/>
<polygon fill="midnightblue" stroke="midnightblue" points="2171.55,-71.3256 2182.03,-72.8685 2174.8,-65.1258 2171.55,-71.3256"/>
</g>
<!-- Node67 -->
<g id="node26" class="node"><title>Node67</title>
<g id="a_node26"><a xlink:href="_n_f_c_property_module_8cpp.html" target="_top" xlink:title="NFCPropertyModule.cpp">
<polygon fill="white" stroke="black" points="2157,-6 2157,-25 2280,-25 2280,-6 2157,-6"/>
<text text-anchor="middle" x="2218.5" y="-13" font-family="Helvetica,sans-Serif" font-size="10.00">NFCPropertyModule.cpp</text>
</a>
</g>
</g>
<!-- Node66&#45;&gt;Node67 -->
<g id="edge28" class="edge"><title>Node66&#45;&gt;Node67</title>
<path fill="none" stroke="midnightblue" d="M2204.22,-62.9145C2208.04,-50.4883 2212.89,-34.7166 2215.85,-25.1273"/>
<polygon fill="midnightblue" stroke="midnightblue" points="2200.79,-62.1467 2201.2,-72.7338 2207.48,-64.2053 2200.79,-62.1467"/>
</g>
<!-- Node69 -->
<g id="node28" class="node"><title>Node69</title>
<g id="a_node28"><a xlink:href="_n_f_c_property_trail_module_8cpp.html" target="_top" xlink:title="NFCPropertyTrailModule.cpp">
<polygon fill="white" stroke="black" points="2467,-6 2467,-25 2608,-25 2608,-6 2467,-6"/>
<text text-anchor="middle" x="2537.5" y="-13" font-family="Helvetica,sans-Serif" font-size="10.00">NFCPropertyTrailModule.cpp</text>
</a>
</g>
</g>
<!-- Node68&#45;&gt;Node69 -->
<g id="edge31" class="edge"><title>Node68&#45;&gt;Node69</title>
<path fill="none" stroke="midnightblue" d="M2508.25,-64.0347C2515.99,-51.4499 2526.11,-35.0072 2532.19,-25.1273"/>
<polygon fill="midnightblue" stroke="midnightblue" points="2505.15,-62.3829 2502.89,-72.7338 2511.12,-66.0516 2505.15,-62.3829"/>
</g>
<!-- Node70&#45;&gt;Node63 -->
<g id="edge34" class="edge"><title>Node70&#45;&gt;Node63</title>
<path fill="none" stroke="midnightblue" d="M2298.24,-70.5642C2245.21,-57.7499 2158.45,-36.7848 2110.02,-25.0834"/>
<polygon fill="midnightblue" stroke="midnightblue" points="2297.51,-73.9888 2308.06,-72.9355 2299.16,-67.1846 2297.51,-73.9888"/>
</g>
<!-- Node71 -->
<g id="node30" class="node"><title>Node71</title>
<g id="a_node30"><a xlink:href="_n_f_c_scene_process_module_8cpp.html" target="_top" xlink:title="NFCSceneProcessModule.cpp">
<polygon fill="white" stroke="black" points="2298.5,-6 2298.5,-25 2448.5,-25 2448.5,-6 2298.5,-6"/>
<text text-anchor="middle" x="2373.5" y="-13" font-family="Helvetica,sans-Serif" font-size="10.00">NFCSceneProcessModule.cpp</text>
</a>
</g>
</g>
<!-- Node70&#45;&gt;Node71 -->
<g id="edge33" class="edge"><title>Node70&#45;&gt;Node71</title>
<path fill="none" stroke="midnightblue" d="M2351.9,-63.29C2357.67,-50.8076 2365.05,-34.8135 2369.52,-25.1273"/>
<polygon fill="midnightblue" stroke="midnightblue" points="2348.56,-62.1875 2347.55,-72.7338 2354.91,-65.1209 2348.56,-62.1875"/>
</g>
<!-- Node73 -->
<g id="node32" class="node"><title>Node73</title>
<g id="a_node32"><a xlink:href="_n_f_c_login_logic_module_8cpp.html" target="_top" xlink:title="NFCLoginLogicModule.cpp">
<polygon fill="white" stroke="black" points="2626,-6 2626,-25 2759,-25 2759,-6 2626,-6"/>
<text text-anchor="middle" x="2692.5" y="-13" font-family="Helvetica,sans-Serif" font-size="10.00">NFCLoginLogicModule.cpp</text>
</a>
</g>
</g>
<!-- Node72&#45;&gt;Node73 -->
<g id="edge36" class="edge"><title>Node72&#45;&gt;Node73</title>
<path fill="none" stroke="midnightblue" d="M2655.37,-64.7705C2665.12,-52.0972 2678.11,-35.201 2685.86,-25.1273"/>
<polygon fill="midnightblue" stroke="midnightblue" points="2652.57,-62.6735 2649.24,-72.7338 2658.11,-66.9416 2652.57,-62.6735"/>
</g>
<!-- Node74 -->
<g id="node33" class="node"><title>Node74</title>
<g id="a_node33"><a xlink:href="_n_f_login_logic_plugin_8cpp.html" target="_top" xlink:title="NFLoginLogicPlugin.cpp">
<polygon fill="white" stroke="black" points="2777.5,-6 2777.5,-25 2899.5,-25 2899.5,-6 2777.5,-6"/>
<text text-anchor="middle" x="2838.5" y="-13" font-family="Helvetica,sans-Serif" font-size="10.00">NFLoginLogicPlugin.cpp</text>
</a>
</g>
</g>
<!-- Node72&#45;&gt;Node74 -->
<g id="edge37" class="edge"><title>Node72&#45;&gt;Node74</title>
<path fill="none" stroke="midnightblue" d="M2678.38,-69.6013C2717.24,-56.7138 2778.27,-36.4728 2812.68,-25.0637"/>
<polygon fill="midnightblue" stroke="midnightblue" points="2676.92,-66.3986 2668.53,-72.8685 2679.12,-73.0428 2676.92,-66.3986"/>
</g>
<!-- Node76 -->
<g id="node35" class="node"><title>Node76</title>
<g id="a_node35"><a xlink:href="_n_f_c_login_to_master_module_8cpp.html" target="_top" xlink:title="NFCLoginToMasterModule.cpp">
<polygon fill="white" stroke="black" points="2917.5,-6 2917.5,-25 3067.5,-25 3067.5,-6 2917.5,-6"/>
<text text-anchor="middle" x="2992.5" y="-13" font-family="Helvetica,sans-Serif" font-size="10.00">NFCLoginToMasterModule.cpp</text>
</a>
</g>
</g>
<!-- Node75&#45;&gt;Node76 -->
<g id="edge39" class="edge"><title>Node75&#45;&gt;Node76</title>
<path fill="none" stroke="midnightblue" d="M2827.79,-69.7654C2867.61,-56.8862 2930.59,-36.5214 2966.02,-25.0637"/>
<polygon fill="midnightblue" stroke="midnightblue" points="2826.63,-66.4613 2818.19,-72.8685 2828.78,-73.1217 2826.63,-66.4613"/>
</g>
<!-- Node77 -->
<g id="node36" class="node"><title>Node77</title>
<g id="a_node36"><a xlink:href="_n_f_login_net___client_plugin_8cpp.html" target="_top" xlink:title="NFLoginNet_ClientPlugin.cpp">
<polygon fill="white" stroke="black" points="3086,-6 3086,-25 3229,-25 3229,-6 3086,-6"/>
<text text-anchor="middle" x="3157.5" y="-13" font-family="Helvetica,sans-Serif" font-size="10.00">NFLoginNet_ClientPlugin.cpp</text>
</a>
</g>
</g>
<!-- Node75&#45;&gt;Node77 -->
<g id="edge40" class="edge"><title>Node75&#45;&gt;Node77</title>
<path fill="none" stroke="midnightblue" d="M2847.49,-71.1618C2855.22,-69.7529 2863.06,-68.3336 2870.5,-67 2961.99,-50.6104 2984.98,-47.1888 3076.5,-31 3087.33,-29.084 3098.98,-27.0088 3109.96,-25.0434"/>
<polygon fill="midnightblue" stroke="midnightblue" points="2846.65,-67.7584 2837.44,-72.9998 2847.91,-74.6443 2846.65,-67.7584"/>
</g>
<!-- Node79 -->
<g id="node38" class="node"><title>Node79</title>
<g id="a_node38"><a xlink:href="_n_f_c_login_net___server_module_8cpp.html" target="_top" xlink:title="NFCLoginNet_ServerModule.cpp">
<polygon fill="white" stroke="black" points="3247,-6 3247,-25 3404,-25 3404,-6 3247,-6"/>
<text text-anchor="middle" x="3325.5" y="-13" font-family="Helvetica,sans-Serif" font-size="10.00">NFCLoginNet_ServerModule.cpp</text>
</a>
</g>
</g>
<!-- Node78&#45;&gt;Node79 -->
<g id="edge42" class="edge"><title>Node78&#45;&gt;Node79</title>
<path fill="none" stroke="midnightblue" d="M3010.67,-71.1905C3018.67,-69.7785 3026.79,-68.3506 3034.5,-67 3119.35,-52.1354 3218.16,-35.0321 3276.06,-25.03"/>
<polygon fill="midnightblue" stroke="midnightblue" points="3009.86,-67.7783 3000.62,-72.9637 3011.08,-74.6717 3009.86,-67.7783"/>
</g>
<!-- Node80 -->
<g id="node39" class="node"><title>Node80</title>
<g id="a_node39"><a xlink:href="_n_f_login_net___server_plugin_8cpp.html" target="_top" xlink:title="NFLoginNet_ServerPlugin.cpp">
<polygon fill="white" stroke="black" points="3422.5,-6 3422.5,-25 3568.5,-25 3568.5,-6 3422.5,-6"/>
<text text-anchor="middle" x="3495.5" y="-13" font-family="Helvetica,sans-Serif" font-size="10.00">NFLoginNet_ServerPlugin.cpp</text>
</a>
</g>
</g>
<!-- Node78&#45;&gt;Node80 -->
<g id="edge43" class="edge"><title>Node78&#45;&gt;Node80</title>
<path fill="none" stroke="midnightblue" d="M3007.21,-71.1997C3016.3,-69.6672 3025.65,-68.2015 3034.5,-67 3201.73,-44.2889 3245.25,-53.5383 3412.5,-31 3424.82,-29.3394 3438.11,-27.183 3450.37,-25.0432"/>
<polygon fill="midnightblue" stroke="midnightblue" points="3006.34,-67.7969 2997.08,-72.9477 3007.53,-74.6948 3006.34,-67.7969"/>
</g>
<!-- Node82 -->
<g id="node41" class="node"><title>Node82</title>
<g id="a_node41"><a xlink:href="_n_f_c_master_net___server_module_8cpp.html" target="_top" xlink:title="NFCMasterNet_ServerModule.cpp">
<polygon fill="white" stroke="black" points="3586.5,-6 3586.5,-25 3750.5,-25 3750.5,-6 3586.5,-6"/>
<text text-anchor="middle" x="3668.5" y="-13" font-family="Helvetica,sans-Serif" font-size="10.00">NFCMasterNet_ServerModule.cpp</text>
</a>
</g>
</g>
<!-- Node81&#45;&gt;Node82 -->
<g id="edge45" class="edge"><title>Node81&#45;&gt;Node82</title>
<path fill="none" stroke="midnightblue" d="M3177.27,-71.3476C3187.01,-69.7737 3197.03,-68.2561 3206.5,-67 3370.72,-45.2151 3413.18,-52.0439 3577.5,-31 3590.83,-29.293 3605.21,-27.145 3618.51,-25.0293"/>
<polygon fill="midnightblue" stroke="midnightblue" points="3176.57,-67.9163 3167.28,-72.9995 3177.71,-74.8227 3176.57,-67.9163"/>
</g>
<!-- Node83 -->
<g id="node42" class="node"><title>Node83</title>
<g id="a_node42"><a xlink:href="_n_f_master_net___server_plugin_8cpp.html" target="_top" xlink:title="NFMasterNet_ServerPlugin.cpp">
<polygon fill="white" stroke="black" points="3768.5,-6 3768.5,-25 3920.5,-25 3920.5,-6 3768.5,-6"/>
<text text-anchor="middle" x="3844.5" y="-13" font-family="Helvetica,sans-Serif" font-size="10.00">NFMasterNet_ServerPlugin.cpp</text>
</a>
</g>
</g>
<!-- Node81&#45;&gt;Node83 -->
<g id="edge46" class="edge"><title>Node81&#45;&gt;Node83</title>
<path fill="none" stroke="midnightblue" d="M3175.9,-71.3061C3186.05,-69.6809 3196.57,-68.1568 3206.5,-67 3451.14,-38.4884 3514.89,-59.7474 3759.5,-31 3772.58,-29.4624 3786.72,-27.2685 3799.63,-25.0512"/>
<polygon fill="midnightblue" stroke="midnightblue" points="3175.2,-67.8738 3165.9,-72.955 3176.34,-74.7805 3175.2,-67.8738"/>
</g>
<!-- Node95&#45;&gt;Node96 -->
<g id="edge52" class="edge"><title>Node95&#45;&gt;Node96</title>
<path fill="none" stroke="midnightblue" d="M3945.19,-61.4511C3959.49,-51.4517 3976.45,-39.5995 3989.36,-30.5765"/>
<polygon fill="midnightblue" stroke="midnightblue" points="3942.87,-58.7985 3936.68,-67.396 3946.88,-64.536 3942.87,-58.7985"/>
</g>
</g>
</svg>
        <g id="navigator" transform="translate(0 0)" fill="#404254">
                <rect fill="#f2f5e9" fill-opacity="0.5" stroke="#606060" stroke-width=".5" x="0" y="0" width="60" height="60"/>
                <use id="zoomplus" xlink:href="#zoomPlus" x="17" y="9" onmousedown="handleZoom(evt,'in')"/>
                <use id="zoomminus" xlink:href="#zoomMin" x="42" y="9" onmousedown="handleZoom(evt,'out')"/>
                <use id="reset" xlink:href="#resetDef" x="30" y="36" onmousedown="handleReset()"/>
                <g id="arrowUp" xlink:href="#dirArrow" transform="translate(30 24)" onmousedown="handlePan(0,-1)">
                  <use xlink:href="#rim" fill="#404040">
                        <set attributeName="fill" to="#808080" begin="arrowUp.mouseover" end="arrowUp.mouseout"/>
                  </use>
                  <path fill="none" stroke="white" stroke-width="1.5" d="M0,-3.0v7 M-2.5,-0.5L0,-3.0L2.5,-0.5"/>
                </g>
                <g id="arrowRight" xlink:href="#dirArrow" transform="rotate(90) translate(36 -43)" onmousedown="handlePan(1,0)">
                  <use xlink:href="#rim" fill="#404040">
                        <set attributeName="fill" to="#808080" begin="arrowRight.mouseover" end="arrowRight.mouseout"/>
                  </use>
                  <path fill="none" stroke="white" stroke-width="1.5" d="M0,-3.0v7 M-2.5,-0.5L0,-3.0L2.5,-0.5"/>
                </g>
                <g id="arrowDown" xlink:href="#dirArrow" transform="rotate(180) translate(-30 -48)" onmousedown="handlePan(0,1)">
                  <use xlink:href="#rim" fill="#404040">
                        <set attributeName="fill" to="#808080" begin="arrowDown.mouseover" end="arrowDown.mouseout"/>
                  </use>
                  <path fill="none" stroke="white" stroke-width="1.5" d="M0,-3.0v7 M-2.5,-0.5L0,-3.0L2.5,-0.5"/>
                </g>
                <g id="arrowLeft" xlink:href="#dirArrow" transform="rotate(270) translate(-36 17)" onmousedown="handlePan(-1,0)">
                  <use xlink:href="#rim" fill="#404040">
                        <set attributeName="fill" to="#808080" begin="arrowLeft.mouseover" end="arrowLeft.mouseout"/>
                  </use>
                  <path fill="none" stroke="white" stroke-width="1.5" d="M0,-3.0v7 M-2.5,-0.5L0,-3.0L2.5,-0.5"/>
                </g>
        </g>
        <svg viewBox="0 0 15 15" width="100%" height="30px" preserveAspectRatio="xMaxYMin meet">
         <g id="arrow_out" transform="scale(0.3 0.3)">
          <a xlink:href="_n_f_i_kernel_module_8h__dep__incl_org.svg" target="_base">
           <rect id="button" ry="5" rx="5" y="6" x="6" height="38" width="38"
                fill="#f2f5e9" fill-opacity="0.5" stroke="#606060" stroke-width="1.0"/>
           <path id="arrow"
             d="M 11.500037,31.436501 C 11.940474,20.09759 22.043105,11.32322 32.158766,21.979434 L 37.068811,17.246167 C 37.068811,17.246167 37.088388,32 37.088388,32 L 22.160133,31.978069 C 22.160133,31.978069 26.997745,27.140456 26.997745,27.140456 C 18.528582,18.264221 13.291696,25.230495 11.500037,31.436501 z"
             style="fill:#404040;"/>
          </a>
         </g>
        </svg>
</svg>
