<?xml version="1.0" encoding="UTF-8" standalone="no"?>
<!DOCTYPE svg PUBLIC "-//W3C//DTD SVG 1.1//EN"
 "http://www.w3.org/Graphics/SVG/1.1/DTD/svg11.dtd">
<!-- Generated by graphviz version 2.38.0 (20140413.2041)
 -->
<!-- Title: NFCPluginManager.h Pages: 1 -->
<svg width="1840pt" height="520pt"
 viewBox="0.00 0.00 1840.00 520.00" xmlns="http://www.w3.org/2000/svg" xmlns:xlink="http://www.w3.org/1999/xlink">
<g id="graph0" class="graph" transform="scale(1 1) rotate(0) translate(4 516)">
<title>NFCPluginManager.h</title>
<polygon fill="white" stroke="none" points="-4,4 -4,-516 1836,-516 1836,4 -4,4"/>
<!-- Node0 -->
<g id="node1" class="node"><title>Node0</title>
<polygon fill="#bfbfbf" stroke="black" points="1031.5,-492.5 1031.5,-511.5 1140.5,-511.5 1140.5,-492.5 1031.5,-492.5"/>
<text text-anchor="middle" x="1086" y="-499.5" font-family="Helvetica,sans-Serif" font-size="10.00">NFCPluginManager.h</text>
</g>
<!-- Node1 -->
<g id="node2" class="node"><title>Node1</title>
<polygon fill="white" stroke="#bfbfbf" points="218.5,-129 218.5,-148 253.5,-148 253.5,-129 218.5,-129"/>
<text text-anchor="middle" x="236" y="-136" font-family="Helvetica,sans-Serif" font-size="10.00">map</text>
</g>
<!-- Node0&#45;&gt;Node1 -->
<g id="edge1" class="edge"><title>Node0&#45;&gt;Node1</title>
<path fill="none" stroke="midnightblue" d="M1031.31,-499.99C826.148,-495.489 114,-473.157 114,-380 114,-380 114,-380 114,-255 114,-203.146 172.84,-167.609 208.794,-150.735"/>
<polygon fill="midnightblue" stroke="midnightblue" points="210.579,-153.77 218.26,-146.473 207.705,-147.387 210.579,-153.77"/>
</g>
<!-- Node2 -->
<g id="node3" class="node"><title>Node2</title>
<polygon fill="white" stroke="#bfbfbf" points="74.5,-0.5 74.5,-19.5 115.5,-19.5 115.5,-0.5 74.5,-0.5"/>
<text text-anchor="middle" x="95" y="-7.5" font-family="Helvetica,sans-Serif" font-size="10.00">string</text>
</g>
<!-- Node0&#45;&gt;Node2 -->
<g id="edge2" class="edge"><title>Node0&#45;&gt;Node2</title>
<path fill="none" stroke="midnightblue" d="M1031.25,-500.829C860.742,-499.896 340.843,-493.934 177,-456 93.5945,-436.689 0,-465.612 0,-380 0,-380 0,-380 0,-137.5 0,-88.9251 45.3419,-47.0905 73.3762,-25.867"/>
<polygon fill="midnightblue" stroke="midnightblue" points="75.7817,-28.4441 81.7907,-19.7181 71.6516,-22.7923 75.7817,-28.4441"/>
</g>
<!-- Node3 -->
<g id="node4" class="node"><title>Node3</title>
<polygon fill="white" stroke="#bfbfbf" points="1681,-0.5 1681,-19.5 1725,-19.5 1725,-0.5 1681,-0.5"/>
<text text-anchor="middle" x="1703" y="-7.5" font-family="Helvetica,sans-Serif" font-size="10.00">time.h</text>
</g>
<!-- Node0&#45;&gt;Node3 -->
<g id="edge3" class="edge"><title>Node0&#45;&gt;Node3</title>
<path fill="none" stroke="midnightblue" d="M1140.57,-500.675C1236.54,-499.139 1441.36,-491.547 1610,-456 1712.05,-434.489 1832,-484.288 1832,-380 1832,-380 1832,-380 1832,-137.5 1832,-82.1248 1770.65,-42.9659 1732.57,-23.9916"/>
<polygon fill="midnightblue" stroke="midnightblue" points="1733.97,-20.7812 1723.44,-19.6049 1730.94,-27.0906 1733.97,-20.7812"/>
</g>
<!-- Node4 -->
<g id="node5" class="node"><title>Node4</title>
<g id="a_node5"><a xlink:href="_n_f_c_dyn_lib_8h.html" target="_top" xlink:title="NFCDynLib.h">
<polygon fill="white" stroke="black" points="1730,-129 1730,-148 1804,-148 1804,-129 1730,-129"/>
<text text-anchor="middle" x="1767" y="-136" font-family="Helvetica,sans-Serif" font-size="10.00">NFCDynLib.h</text>
</a>
</g>
</g>
<!-- Node0&#45;&gt;Node4 -->
<g id="edge4" class="edge"><title>Node0&#45;&gt;Node4</title>
<path fill="none" stroke="midnightblue" d="M1140.67,-496.861C1300.2,-484.057 1754,-442.171 1754,-380 1754,-380 1754,-380 1754,-255 1754,-220.648 1759.75,-180.908 1763.6,-158.137"/>
<polygon fill="midnightblue" stroke="midnightblue" points="1767.07,-158.611 1765.35,-148.156 1760.18,-157.4 1767.07,-158.611"/>
</g>
<!-- Node11 -->
<g id="node12" class="node"><title>Node11</title>
<g id="a_node12"><a xlink:href="_n_f_singleton_8h.html" target="_top" xlink:title="NFComm/NFCore/NFSingleton.h">
<polygon fill="white" stroke="black" points="1322,-369.5 1322,-388.5 1480,-388.5 1480,-369.5 1322,-369.5"/>
<text text-anchor="middle" x="1401" y="-376.5" font-family="Helvetica,sans-Serif" font-size="10.00">NFComm/NFCore/NFSingleton.h</text>
</a>
</g>
</g>
<!-- Node0&#45;&gt;Node11 -->
<g id="edge13" class="edge"><title>Node0&#45;&gt;Node11</title>
<path fill="none" stroke="midnightblue" d="M1108.15,-492.492C1162.92,-471.454 1304.88,-416.924 1368.88,-392.34"/>
<polygon fill="midnightblue" stroke="midnightblue" points="1370.37,-395.514 1378.45,-388.661 1367.86,-388.98 1370.37,-395.514"/>
</g>
<!-- Node12 -->
<g id="node13" class="node"><title>Node12</title>
<g id="a_node13"><a xlink:href="_n_f_i_plugin_manager_8h.html" target="_top" xlink:title="NFComm/NFPluginModule\l/NFIPluginManager.h">
<polygon fill="white" stroke="black" points="727,-425.5 727,-455.5 859,-455.5 859,-425.5 727,-425.5"/>
<text text-anchor="start" x="735" y="-443.5" font-family="Helvetica,sans-Serif" font-size="10.00">NFComm/NFPluginModule</text>
<text text-anchor="middle" x="793" y="-432.5" font-family="Helvetica,sans-Serif" font-size="10.00">/NFIPluginManager.h</text>
</a>
</g>
</g>
<!-- Node0&#45;&gt;Node12 -->
<g id="edge15" class="edge"><title>Node0&#45;&gt;Node12</title>
<path fill="none" stroke="midnightblue" d="M1044.02,-492.475C998.492,-483.23 924.861,-468.277 869.091,-456.952"/>
<polygon fill="midnightblue" stroke="midnightblue" points="869.745,-453.513 859.249,-454.953 868.352,-460.373 869.745,-453.513"/>
</g>
<!-- Node5 -->
<g id="node6" class="node"><title>Node5</title>
<polygon fill="white" stroke="#bfbfbf" points="1667,-62 1667,-81 1713,-81 1713,-62 1667,-62"/>
<text text-anchor="middle" x="1690" y="-69" font-family="Helvetica,sans-Serif" font-size="10.00">stdio.h</text>
</g>
<!-- Node4&#45;&gt;Node5 -->
<g id="edge5" class="edge"><title>Node4&#45;&gt;Node5</title>
<path fill="none" stroke="midnightblue" d="M1756.62,-128.734C1744.15,-118.208 1723.03,-100.379 1707.91,-87.6174"/>
<polygon fill="midnightblue" stroke="midnightblue" points="1710.12,-84.9034 1700.22,-81.1273 1705.6,-90.2524 1710.12,-84.9034"/>
</g>
<!-- Node6 -->
<g id="node7" class="node"><title>Node6</title>
<polygon fill="white" stroke="#bfbfbf" points="611,-62 611,-81 665,-81 665,-62 611,-62"/>
<text text-anchor="middle" x="638" y="-69" font-family="Helvetica,sans-Serif" font-size="10.00">iostream</text>
</g>
<!-- Node4&#45;&gt;Node6 -->
<g id="edge6" class="edge"><title>Node4&#45;&gt;Node6</title>
<path fill="none" stroke="midnightblue" d="M1741.32,-128.953C1733.3,-126.622 1724.36,-124.365 1716,-123 1509.28,-89.2351 841.328,-75.9279 675.518,-73.0997"/>
<polygon fill="midnightblue" stroke="midnightblue" points="675.39,-69.5972 665.333,-72.9285 675.272,-76.5962 675.39,-69.5972"/>
</g>
<!-- Node7 -->
<g id="node8" class="node"><title>Node7</title>
<g id="a_node8"><a xlink:href="_n_f_platform_8h.html" target="_top" xlink:title="NFComm/NFPluginModule\l/NFPlatform.h">
<polygon fill="white" stroke="black" points="1374,-56.5 1374,-86.5 1506,-86.5 1506,-56.5 1374,-56.5"/>
<text text-anchor="start" x="1382" y="-74.5" font-family="Helvetica,sans-Serif" font-size="10.00">NFComm/NFPluginModule</text>
<text text-anchor="middle" x="1440" y="-63.5" font-family="Helvetica,sans-Serif" font-size="10.00">/NFPlatform.h</text>
</a>
</g>
</g>
<!-- Node4&#45;&gt;Node7 -->
<g id="edge7" class="edge"><title>Node4&#45;&gt;Node7</title>
<path fill="none" stroke="midnightblue" d="M1738.81,-128.941C1731.42,-126.849 1723.44,-124.72 1716,-123 1630.68,-103.283 1605.94,-103.567 1516.31,-87.214"/>
<polygon fill="midnightblue" stroke="midnightblue" points="1516.71,-83.7299 1506.24,-85.3584 1515.44,-90.6138 1516.71,-83.7299"/>
</g>
<!-- Node7&#45;&gt;Node2 -->
<g id="edge12" class="edge"><title>Node7&#45;&gt;Node2</title>
<path fill="none" stroke="midnightblue" d="M1373.75,-57.7355C1369.11,-57.0741 1364.49,-56.4843 1360,-56 1109.86,-29.0233 295.189,-14.3041 125.958,-11.4968"/>
<polygon fill="midnightblue" stroke="midnightblue" points="125.814,-7.99401 115.758,-11.3291 125.699,-14.9931 125.814,-7.99401"/>
</g>
<!-- Node7&#45;&gt;Node3 -->
<g id="edge9" class="edge"><title>Node7&#45;&gt;Node3</title>
<path fill="none" stroke="midnightblue" d="M1501.99,-56.4747C1554.91,-44.5023 1628.91,-27.762 1670.78,-18.2897"/>
<polygon fill="midnightblue" stroke="midnightblue" points="1671.72,-21.6659 1680.7,-16.0455 1670.17,-14.8384 1671.72,-21.6659"/>
</g>
<!-- Node8 -->
<g id="node9" class="node"><title>Node8</title>
<polygon fill="white" stroke="#bfbfbf" points="1415.5,-0.5 1415.5,-19.5 1464.5,-19.5 1464.5,-0.5 1415.5,-0.5"/>
<text text-anchor="middle" x="1440" y="-7.5" font-family="Helvetica,sans-Serif" font-size="10.00">stdint.h</text>
</g>
<!-- Node7&#45;&gt;Node8 -->
<g id="edge8" class="edge"><title>Node7&#45;&gt;Node8</title>
<path fill="none" stroke="midnightblue" d="M1440,-56.3993C1440,-48.4664 1440,-38.458 1440,-29.8583"/>
<polygon fill="midnightblue" stroke="midnightblue" points="1443.5,-29.6577 1440,-19.6578 1436.5,-29.6578 1443.5,-29.6577"/>
</g>
<!-- Node9 -->
<g id="node10" class="node"><title>Node9</title>
<polygon fill="white" stroke="#bfbfbf" points="1483,-0.5 1483,-19.5 1535,-19.5 1535,-0.5 1483,-0.5"/>
<text text-anchor="middle" x="1509" y="-7.5" font-family="Helvetica,sans-Serif" font-size="10.00">sstream</text>
</g>
<!-- Node7&#45;&gt;Node9 -->
<g id="edge10" class="edge"><title>Node7&#45;&gt;Node9</title>
<path fill="none" stroke="midnightblue" d="M1456.35,-56.3993C1466.9,-47.3076 1480.6,-35.4899 1491.38,-26.1909"/>
<polygon fill="midnightblue" stroke="midnightblue" points="1493.67,-28.8389 1498.96,-19.6578 1489.1,-23.5377 1493.67,-28.8389"/>
</g>
<!-- Node10 -->
<g id="node11" class="node"><title>Node10</title>
<polygon fill="white" stroke="#bfbfbf" points="1269,-0.5 1269,-19.5 1397,-19.5 1397,-0.5 1269,-0.5"/>
<text text-anchor="middle" x="1333" y="-7.5" font-family="Helvetica,sans-Serif" font-size="10.00">common/lexical_cast.hpp</text>
</g>
<!-- Node7&#45;&gt;Node10 -->
<g id="edge11" class="edge"><title>Node7&#45;&gt;Node10</title>
<path fill="none" stroke="midnightblue" d="M1414.64,-56.3993C1397.33,-46.7728 1374.52,-34.0902 1357.42,-24.5772"/>
<polygon fill="midnightblue" stroke="midnightblue" points="1359.01,-21.4588 1348.57,-19.6578 1355.61,-27.5766 1359.01,-21.4588"/>
</g>
<!-- Node11&#45;&gt;Node6 -->
<g id="edge14" class="edge"><title>Node11&#45;&gt;Node6</title>
<path fill="none" stroke="midnightblue" d="M1446.72,-369.497C1530.92,-352.524 1702,-311.35 1702,-257 1702,-257 1702,-257 1702,-199 1702,-164.183 1709.92,-145.083 1683,-123 1643.27,-90.4021 856.734,-75.968 675.17,-73.063"/>
<polygon fill="midnightblue" stroke="midnightblue" points="675.105,-69.5616 665.051,-72.9031 674.994,-76.5608 675.105,-69.5616"/>
</g>
<!-- Node13 -->
<g id="node14" class="node"><title>Node13</title>
<g id="a_node14"><a xlink:href="_n_f_i_module_8h.html" target="_top" xlink:title="NFIModule.h">
<polygon fill="white" stroke="black" points="634.5,-369.5 634.5,-388.5 705.5,-388.5 705.5,-369.5 634.5,-369.5"/>
<text text-anchor="middle" x="670" y="-376.5" font-family="Helvetica,sans-Serif" font-size="10.00">NFIModule.h</text>
</a>
</g>
</g>
<!-- Node12&#45;&gt;Node13 -->
<g id="edge16" class="edge"><title>Node12&#45;&gt;Node13</title>
<path fill="none" stroke="midnightblue" d="M763.851,-425.399C743.582,-415.595 716.759,-402.619 696.981,-393.052"/>
<polygon fill="midnightblue" stroke="midnightblue" points="698.424,-389.862 687.898,-388.658 695.376,-396.163 698.424,-389.862"/>
</g>
<!-- Node13&#45;&gt;Node2 -->
<g id="edge17" class="edge"><title>Node13&#45;&gt;Node2</title>
<path fill="none" stroke="midnightblue" d="M634.43,-378.06C552.655,-376.462 348.244,-362.39 217,-266 140.593,-209.884 124.444,-178.856 101,-87 96.1487,-67.9918 94.9037,-45.5178 94.7153,-29.9632"/>
<polygon fill="midnightblue" stroke="midnightblue" points="98.2159,-29.5958 94.7349,-19.5892 91.2159,-29.5825 98.2159,-29.5958"/>
</g>
<!-- Node14 -->
<g id="node15" class="node"><title>Node14</title>
<g id="a_node15"><a xlink:href="_n_f_map_8h.html" target="_top" xlink:title="NFComm/NFCore/NFMap.h">
<polygon fill="white" stroke="black" points="226.5,-246.5 226.5,-265.5 363.5,-265.5 363.5,-246.5 226.5,-246.5"/>
<text text-anchor="middle" x="295" y="-253.5" font-family="Helvetica,sans-Serif" font-size="10.00">NFComm/NFCore/NFMap.h</text>
</a>
</g>
</g>
<!-- Node13&#45;&gt;Node14 -->
<g id="edge18" class="edge"><title>Node13&#45;&gt;Node14</title>
<path fill="none" stroke="midnightblue" d="M634.449,-370.51C597.87,-362.478 539.416,-348.737 490,-333 429.933,-313.871 361.719,-285.763 323.99,-269.633"/>
<polygon fill="midnightblue" stroke="midnightblue" points="325.202,-266.344 314.633,-265.61 322.438,-272.775 325.202,-266.344"/>
</g>
<!-- Node19 -->
<g id="node20" class="node"><title>Node19</title>
<g id="a_node20"><a xlink:href="_n_f_list_8h.html" target="_top" xlink:title="NFComm/NFCore/NFList.h">
<polygon fill="white" stroke="black" points="423,-190.5 423,-209.5 557,-209.5 557,-190.5 423,-190.5"/>
<text text-anchor="middle" x="490" y="-197.5" font-family="Helvetica,sans-Serif" font-size="10.00">NFComm/NFCore/NFList.h</text>
</a>
</g>
</g>
<!-- Node13&#45;&gt;Node19 -->
<g id="edge32" class="edge"><title>Node13&#45;&gt;Node19</title>
<path fill="none" stroke="midnightblue" d="M634.47,-374.53C604.791,-369.837 563.232,-358.821 537,-333 505.459,-301.954 495.011,-248.367 491.606,-219.958"/>
<polygon fill="midnightblue" stroke="midnightblue" points="495.063,-219.366 490.562,-209.774 488.1,-220.079 495.063,-219.366"/>
</g>
<!-- Node21 -->
<g id="node22" class="node"><title>Node21</title>
<g id="a_node22"><a xlink:href="_n_f_define_8h.html" target="_top" xlink:title="NFComm/NFCore/NFDefine.h">
<polygon fill="white" stroke="black" points="924.5,-246.5 924.5,-265.5 1069.5,-265.5 1069.5,-246.5 924.5,-246.5"/>
<text text-anchor="middle" x="997" y="-253.5" font-family="Helvetica,sans-Serif" font-size="10.00">NFComm/NFCore/NFDefine.h</text>
</a>
</g>
</g>
<!-- Node13&#45;&gt;Node21 -->
<g id="edge38" class="edge"><title>Node13&#45;&gt;Node21</title>
<path fill="none" stroke="midnightblue" d="M705.649,-377.554C777.782,-375.91 937.544,-368.275 977,-333 993.02,-318.678 996.898,-293.212 997.511,-275.735"/>
<polygon fill="midnightblue" stroke="midnightblue" points="1001.01,-275.61 997.537,-265.601 994.011,-275.592 1001.01,-275.61"/>
</g>
<!-- Node23 -->
<g id="node24" class="node"><title>Node23</title>
<g id="a_node24"><a xlink:href="_a_f_data_list_8hpp.html" target="_top" xlink:title="AFDataList.hpp">
<polygon fill="white" stroke="black" points="863,-190.5 863,-209.5 947,-209.5 947,-190.5 863,-190.5"/>
<text text-anchor="middle" x="905" y="-197.5" font-family="Helvetica,sans-Serif" font-size="10.00">AFDataList.hpp</text>
</a>
</g>
</g>
<!-- Node13&#45;&gt;Node23 -->
<g id="edge65" class="edge"><title>Node13&#45;&gt;Node23</title>
<path fill="none" stroke="midnightblue" d="M681.335,-369.463C718.63,-341.372 837.847,-251.579 885.27,-215.86"/>
<polygon fill="midnightblue" stroke="midnightblue" points="887.622,-218.471 893.504,-209.659 883.41,-212.879 887.622,-218.471"/>
</g>
<!-- Node34 -->
<g id="node35" class="node"><title>Node34</title>
<g id="a_node35"><a xlink:href="_n_f_i_record_8h.html" target="_top" xlink:title="NFComm/NFCore/NFIRecord.h">
<polygon fill="white" stroke="black" points="817.5,-308 817.5,-327 968.5,-327 968.5,-308 817.5,-308"/>
<text text-anchor="middle" x="893" y="-315" font-family="Helvetica,sans-Serif" font-size="10.00">NFComm/NFCore/NFIRecord.h</text>
</a>
</g>
</g>
<!-- Node13&#45;&gt;Node34 -->
<g id="edge66" class="edge"><title>Node13&#45;&gt;Node34</title>
<path fill="none" stroke="midnightblue" d="M701.95,-369.475C741.196,-359.004 807.878,-341.212 851.173,-329.66"/>
<polygon fill="midnightblue" stroke="midnightblue" points="852.349,-332.969 861.109,-327.009 850.544,-326.205 852.349,-332.969"/>
</g>
<!-- Node35 -->
<g id="node36" class="node"><title>Node35</title>
<g id="a_node36"><a xlink:href="_n_f_event_define_8h.html" target="_top" xlink:title="NFComm/NFEventDefine\l/NFEventDefine.h">
<polygon fill="white" stroke="black" points="546.5,-302.5 546.5,-332.5 671.5,-332.5 671.5,-302.5 546.5,-302.5"/>
<text text-anchor="start" x="554.5" y="-320.5" font-family="Helvetica,sans-Serif" font-size="10.00">NFComm/NFEventDefine</text>
<text text-anchor="middle" x="609" y="-309.5" font-family="Helvetica,sans-Serif" font-size="10.00">/NFEventDefine.h</text>
</a>
</g>
</g>
<!-- Node13&#45;&gt;Node35 -->
<g id="edge69" class="edge"><title>Node13&#45;&gt;Node35</title>
<path fill="none" stroke="midnightblue" d="M661.26,-369.475C653.307,-361.718 641.236,-349.943 630.698,-339.665"/>
<polygon fill="midnightblue" stroke="midnightblue" points="632.979,-337 623.376,-332.523 628.091,-342.011 632.979,-337"/>
</g>
<!-- Node14&#45;&gt;Node1 -->
<g id="edge19" class="edge"><title>Node14&#45;&gt;Node1</title>
<path fill="none" stroke="midnightblue" d="M283.711,-246.243C273.836,-237.967 259.875,-224.66 252,-210 243.292,-193.788 239.31,-173.02 237.497,-158.233"/>
<polygon fill="midnightblue" stroke="midnightblue" points="240.978,-157.863 236.492,-148.265 234.013,-158.566 240.978,-157.863"/>
</g>
<!-- Node14&#45;&gt;Node2 -->
<g id="edge21" class="edge"><title>Node14&#45;&gt;Node2</title>
<path fill="none" stroke="midnightblue" d="M270.89,-246.429C251.872,-238.86 225.407,-226.467 206,-210 154.349,-166.175 145.503,-147.976 116,-87 107.076,-68.557 101.409,-45.7011 98.2406,-29.8966"/>
<polygon fill="midnightblue" stroke="midnightblue" points="101.632,-28.9909 96.3643,-19.7986 94.7501,-30.2698 101.632,-28.9909"/>
</g>
<!-- Node14&#45;&gt;Node6 -->
<g id="edge22" class="edge"><title>Node14&#45;&gt;Node6</title>
<path fill="none" stroke="midnightblue" d="M280.226,-246.375C244.745,-224.635 160.437,-166.253 199,-123 225.596,-93.1691 499.752,-78.4425 600.835,-73.9957"/>
<polygon fill="midnightblue" stroke="midnightblue" points="601.058,-77.4894 610.898,-73.562 600.757,-70.4959 601.058,-77.4894"/>
</g>
<!-- Node15 -->
<g id="node16" class="node"><title>Node15</title>
<polygon fill="white" stroke="#bfbfbf" points="448.5,-129 448.5,-148 477.5,-148 477.5,-129 448.5,-129"/>
<text text-anchor="middle" x="463" y="-136" font-family="Helvetica,sans-Serif" font-size="10.00">list</text>
</g>
<!-- Node14&#45;&gt;Node15 -->
<g id="edge20" class="edge"><title>Node14&#45;&gt;Node15</title>
<path fill="none" stroke="midnightblue" d="M307.891,-246.441C321.415,-237.439 343.271,-222.825 362,-210 390.126,-190.741 422.387,-168.13 442.727,-153.81"/>
<polygon fill="midnightblue" stroke="midnightblue" points="444.764,-156.657 450.922,-148.035 440.732,-150.935 444.764,-156.657"/>
</g>
<!-- Node16 -->
<g id="node17" class="node"><title>Node16</title>
<polygon fill="white" stroke="#bfbfbf" points="380,-129 380,-148 430,-148 430,-129 380,-129"/>
<text text-anchor="middle" x="405" y="-136" font-family="Helvetica,sans-Serif" font-size="10.00">typeinfo</text>
</g>
<!-- Node14&#45;&gt;Node16 -->
<g id="edge23" class="edge"><title>Node14&#45;&gt;Node16</title>
<path fill="none" stroke="midnightblue" d="M303.25,-246.38C311.912,-237.327 325.924,-222.673 338,-210 355.722,-191.403 376.044,-170.01 389.616,-155.713"/>
<polygon fill="midnightblue" stroke="midnightblue" points="392.41,-157.853 396.756,-148.19 387.333,-153.034 392.41,-157.853"/>
</g>
<!-- Node17 -->
<g id="node18" class="node"><title>Node17</title>
<g id="a_node18"><a xlink:href="_n_f_map_ex_8h.html" target="_top" xlink:title="NFMapEx.h">
<polygon fill="white" stroke="black" points="261,-190.5 261,-209.5 329,-209.5 329,-190.5 261,-190.5"/>
<text text-anchor="middle" x="295" y="-197.5" font-family="Helvetica,sans-Serif" font-size="10.00">NFMapEx.h</text>
</a>
</g>
</g>
<!-- Node14&#45;&gt;Node17 -->
<g id="edge24" class="edge"><title>Node14&#45;&gt;Node17</title>
<path fill="none" stroke="midnightblue" d="M295,-246.083C295,-239.006 295,-228.861 295,-219.986"/>
<polygon fill="midnightblue" stroke="midnightblue" points="298.5,-219.751 295,-209.751 291.5,-219.751 298.5,-219.751"/>
</g>
<!-- Node17&#45;&gt;Node1 -->
<g id="edge25" class="edge"><title>Node17&#45;&gt;Node1</title>
<path fill="none" stroke="midnightblue" d="M286.547,-190.475C277.434,-181.285 262.73,-166.456 251.524,-155.156"/>
<polygon fill="midnightblue" stroke="midnightblue" points="253.964,-152.646 244.438,-148.009 248.993,-157.574 253.964,-152.646"/>
</g>
<!-- Node17&#45;&gt;Node2 -->
<g id="edge27" class="edge"><title>Node17&#45;&gt;Node2</title>
<path fill="none" stroke="midnightblue" d="M267.69,-190.387C247.26,-183.004 219.44,-170.875 199,-154 154.743,-117.461 119.661,-58.0232 103.956,-28.6205"/>
<polygon fill="midnightblue" stroke="midnightblue" points="106.957,-26.8049 99.2264,-19.5598 100.751,-30.0443 106.957,-26.8049"/>
</g>
<!-- Node17&#45;&gt;Node6 -->
<g id="edge28" class="edge"><title>Node17&#45;&gt;Node6</title>
<path fill="none" stroke="midnightblue" d="M260.816,-190.493C242.007,-183.877 220.257,-172.596 209,-154 201.865,-142.214 199.845,-133.296 209,-123 234.873,-93.9024 501.11,-78.78 600.687,-74.1082"/>
<polygon fill="midnightblue" stroke="midnightblue" points="601.06,-77.5948 610.889,-73.6389 600.738,-70.6022 601.06,-77.5948"/>
</g>
<!-- Node17&#45;&gt;Node7 -->
<g id="edge31" class="edge"><title>Node17&#45;&gt;Node7</title>
<path fill="none" stroke="midnightblue" d="M292.511,-190.436C288.487,-174.578 282.724,-140.657 301,-123 339.217,-86.078 1114.99,-75.5636 1363.87,-73.1346"/>
<polygon fill="midnightblue" stroke="midnightblue" points="1363.94,-76.6341 1373.91,-73.0382 1363.88,-69.6344 1363.94,-76.6341"/>
</g>
<!-- Node17&#45;&gt;Node15 -->
<g id="edge26" class="edge"><title>Node17&#45;&gt;Node15</title>
<path fill="none" stroke="midnightblue" d="M329.014,-190.849C358.74,-183.148 402.7,-170.349 439,-154 439.699,-153.685 440.403,-153.354 441.108,-153.01"/>
<polygon fill="midnightblue" stroke="midnightblue" points="443.027,-155.95 450.105,-148.067 439.656,-149.815 443.027,-155.95"/>
</g>
<!-- Node17&#45;&gt;Node16 -->
<g id="edge29" class="edge"><title>Node17&#45;&gt;Node16</title>
<path fill="none" stroke="midnightblue" d="M310.76,-190.475C328.976,-180.622 359.173,-164.288 380.468,-152.77"/>
<polygon fill="midnightblue" stroke="midnightblue" points="382.138,-155.845 389.269,-148.009 378.808,-149.688 382.138,-155.845"/>
</g>
<!-- Node18 -->
<g id="node19" class="node"><title>Node18</title>
<polygon fill="white" stroke="#bfbfbf" points="310,-129 310,-148 362,-148 362,-129 310,-129"/>
<text text-anchor="middle" x="336" y="-136" font-family="Helvetica,sans-Serif" font-size="10.00">memory</text>
</g>
<!-- Node17&#45;&gt;Node18 -->
<g id="edge30" class="edge"><title>Node17&#45;&gt;Node18</title>
<path fill="none" stroke="midnightblue" d="M300.874,-190.475C306.963,-181.638 316.645,-167.589 324.303,-156.475"/>
<polygon fill="midnightblue" stroke="midnightblue" points="327.344,-158.229 330.137,-148.009 321.58,-154.258 327.344,-158.229"/>
</g>
<!-- Node19&#45;&gt;Node1 -->
<g id="edge34" class="edge"><title>Node19&#45;&gt;Node1</title>
<path fill="none" stroke="midnightblue" d="M453.608,-190.475C402.194,-178.431 309.442,-156.704 263.426,-145.925"/>
<polygon fill="midnightblue" stroke="midnightblue" points="264.1,-142.488 253.565,-143.615 262.503,-149.303 264.1,-142.488"/>
</g>
<!-- Node19&#45;&gt;Node6 -->
<g id="edge33" class="edge"><title>Node19&#45;&gt;Node6</title>
<path fill="none" stroke="midnightblue" d="M492.518,-190.349C497.397,-174.947 509.502,-142.555 530,-123 549.96,-103.958 578.41,-91.0557 601.099,-83.0612"/>
<polygon fill="midnightblue" stroke="midnightblue" points="602.376,-86.3247 610.747,-79.8306 600.153,-79.6869 602.376,-86.3247"/>
</g>
<!-- Node19&#45;&gt;Node7 -->
<g id="edge37" class="edge"><title>Node19&#45;&gt;Node7</title>
<path fill="none" stroke="midnightblue" d="M498.837,-190.371C516.494,-173.762 558.14,-137.693 601,-123 740.726,-75.1022 1184.14,-71.3786 1363.55,-71.9169"/>
<polygon fill="midnightblue" stroke="midnightblue" points="1363.69,-75.4173 1373.7,-71.9528 1363.71,-68.4174 1363.69,-75.4173"/>
</g>
<!-- Node19&#45;&gt;Node15 -->
<g id="edge35" class="edge"><title>Node19&#45;&gt;Node15</title>
<path fill="none" stroke="midnightblue" d="M486.132,-190.475C482.202,-181.815 476,-168.149 471.007,-157.145"/>
<polygon fill="midnightblue" stroke="midnightblue" points="474.181,-155.669 466.861,-148.009 467.806,-158.562 474.181,-155.669"/>
</g>
<!-- Node20 -->
<g id="node21" class="node"><title>Node20</title>
<polygon fill="white" stroke="#bfbfbf" points="610,-129 610,-148 666,-148 666,-129 610,-129"/>
<text text-anchor="middle" x="638" y="-136" font-family="Helvetica,sans-Serif" font-size="10.00">algorithm</text>
</g>
<!-- Node19&#45;&gt;Node20 -->
<g id="edge36" class="edge"><title>Node19&#45;&gt;Node20</title>
<path fill="none" stroke="midnightblue" d="M511.205,-190.475C536.372,-180.357 578.54,-163.405 607.279,-151.851"/>
<polygon fill="midnightblue" stroke="midnightblue" points="608.862,-154.987 616.835,-148.009 606.251,-148.492 608.862,-154.987"/>
</g>
<!-- Node22 -->
<g id="node23" class="node"><title>Node22</title>
<polygon fill="white" stroke="#bfbfbf" points="1616,-129 1616,-148 1674,-148 1674,-129 1616,-129"/>
<text text-anchor="middle" x="1645" y="-136" font-family="Helvetica,sans-Serif" font-size="10.00">functional</text>
</g>
<!-- Node21&#45;&gt;Node22 -->
<g id="edge39" class="edge"><title>Node21&#45;&gt;Node22</title>
<path fill="none" stroke="midnightblue" d="M1069.85,-247.744C1185.27,-235.178 1416.63,-205.63 1607,-154 1609.66,-153.28 1612.38,-152.443 1615.1,-151.541"/>
<polygon fill="midnightblue" stroke="midnightblue" points="1616.5,-154.756 1624.74,-148.087 1614.14,-148.166 1616.5,-154.756"/>
</g>
<!-- Node21&#45;&gt;Node23 -->
<g id="edge40" class="edge"><title>Node21&#45;&gt;Node23</title>
<path fill="none" stroke="midnightblue" d="M982.219,-246.324C967.733,-237.822 945.427,-224.729 928.507,-214.797"/>
<polygon fill="midnightblue" stroke="midnightblue" points="930.141,-211.698 919.745,-209.655 926.597,-217.735 930.141,-211.698"/>
</g>
<!-- Node32 -->
<g id="node33" class="node"><title>Node32</title>
<g id="a_node33"><a xlink:href="_n_f_g_u_i_d_8h.html" target="_top" xlink:title="NFComm/NFPluginModule\l/NFGUID.h">
<polygon fill="white" stroke="black" points="1466,-123.5 1466,-153.5 1598,-153.5 1598,-123.5 1466,-123.5"/>
<text text-anchor="start" x="1474" y="-141.5" font-family="Helvetica,sans-Serif" font-size="10.00">NFComm/NFPluginModule</text>
<text text-anchor="middle" x="1532" y="-130.5" font-family="Helvetica,sans-Serif" font-size="10.00">/NFGUID.h</text>
</a>
</g>
</g>
<!-- Node21&#45;&gt;Node32 -->
<g id="edge64" class="edge"><title>Node21&#45;&gt;Node32</title>
<path fill="none" stroke="midnightblue" d="M1036.77,-246.413C1125.72,-227.211 1341.91,-180.539 1457,-155.691"/>
<polygon fill="midnightblue" stroke="midnightblue" points="1457.77,-159.107 1466.8,-153.575 1456.29,-152.265 1457.77,-159.107"/>
</g>
<!-- Node23&#45;&gt;Node1 -->
<g id="edge48" class="edge"><title>Node23&#45;&gt;Node1</title>
<path fill="none" stroke="midnightblue" d="M862.662,-197.957C763.816,-195.061 510.338,-184.98 301,-154 288.565,-152.16 274.969,-149.267 263.441,-146.548"/>
<polygon fill="midnightblue" stroke="midnightblue" points="264.071,-143.1 253.527,-144.135 262.416,-149.901 264.071,-143.1"/>
</g>
<!-- Node23&#45;&gt;Node2 -->
<g id="edge41" class="edge"><title>Node23&#45;&gt;Node2</title>
<path fill="none" stroke="midnightblue" d="M947.099,-197.816C1051.67,-194.444 1316.75,-183.083 1343,-154 1352.23,-143.772 1352.24,-133.216 1343,-123 1258.66,-29.788 309.19,-13.5925 125.622,-11.3263"/>
<polygon fill="midnightblue" stroke="midnightblue" points="125.617,-7.82609 115.576,-11.207 125.534,-14.8256 125.617,-7.82609"/>
</g>
<!-- Node23&#45;&gt;Node6 -->
<g id="edge43" class="edge"><title>Node23&#45;&gt;Node6</title>
<path fill="none" stroke="midnightblue" d="M862.668,-196.258C821.9,-192.027 759.712,-181.279 713,-154 685.443,-137.907 662.095,-108.427 649.08,-89.6813"/>
<polygon fill="midnightblue" stroke="midnightblue" points="651.877,-87.5681 643.398,-81.2154 646.065,-91.4691 651.877,-87.5681"/>
</g>
<!-- Node23&#45;&gt;Node7 -->
<g id="edge62" class="edge"><title>Node23&#45;&gt;Node7</title>
<path fill="none" stroke="midnightblue" d="M947.048,-199.156C1048.29,-198.876 1302.66,-194.084 1376,-154 1399.9,-140.936 1417.92,-114.814 1428.65,-95.6509"/>
<polygon fill="midnightblue" stroke="midnightblue" points="1431.84,-97.1017 1433.46,-86.6307 1425.67,-93.8087 1431.84,-97.1017"/>
</g>
<!-- Node23&#45;&gt;Node15 -->
<g id="edge46" class="edge"><title>Node23&#45;&gt;Node15</title>
<path fill="none" stroke="midnightblue" d="M862.619,-193.295C771.573,-181.039 559.722,-152.52 487.573,-142.808"/>
<polygon fill="midnightblue" stroke="midnightblue" points="487.979,-139.331 477.602,-141.466 487.045,-146.269 487.979,-139.331"/>
</g>
<!-- Node23&#45;&gt;Node16 -->
<g id="edge51" class="edge"><title>Node23&#45;&gt;Node16</title>
<path fill="none" stroke="midnightblue" d="M862.806,-199.214C780.136,-198.701 591.595,-192.914 439,-154 436.639,-153.398 434.231,-152.655 431.84,-151.828"/>
<polygon fill="midnightblue" stroke="midnightblue" points="432.876,-148.474 422.289,-148.083 430.322,-154.992 432.876,-148.474"/>
</g>
<!-- Node23&#45;&gt;Node18 -->
<g id="edge55" class="edge"><title>Node23&#45;&gt;Node18</title>
<path fill="none" stroke="midnightblue" d="M862.754,-199.816C771.552,-200.632 550.002,-197.504 371,-154 368.483,-153.388 365.913,-152.622 363.365,-151.763"/>
<polygon fill="midnightblue" stroke="midnightblue" points="364.399,-148.411 353.808,-148.12 361.906,-154.952 364.399,-148.411"/>
</g>
<!-- Node23&#45;&gt;Node20 -->
<g id="edge49" class="edge"><title>Node23&#45;&gt;Node20</title>
<path fill="none" stroke="midnightblue" d="M862.722,-192.3C817.204,-184.679 742.86,-171.053 680,-154 676.971,-153.178 673.844,-152.251 670.726,-151.274"/>
<polygon fill="midnightblue" stroke="midnightblue" points="671.526,-147.852 660.933,-148.043 669.333,-154.5 671.526,-147.852"/>
</g>
<!-- Node23&#45;&gt;Node22 -->
<g id="edge53" class="edge"><title>Node23&#45;&gt;Node22</title>
<path fill="none" stroke="midnightblue" d="M947.007,-197.959C1078.33,-194.443 1479.91,-181.656 1607,-154 1610.07,-153.331 1613.23,-152.455 1616.35,-151.466"/>
<polygon fill="midnightblue" stroke="midnightblue" points="1617.76,-154.677 1626.01,-148.027 1615.42,-148.081 1617.76,-154.677"/>
</g>
<!-- Node24 -->
<g id="node25" class="node"><title>Node24</title>
<polygon fill="white" stroke="#bfbfbf" points="722,-129 722,-148 768,-148 768,-129 722,-129"/>
<text text-anchor="middle" x="745" y="-136" font-family="Helvetica,sans-Serif" font-size="10.00">cstring</text>
</g>
<!-- Node23&#45;&gt;Node24 -->
<g id="edge42" class="edge"><title>Node23&#45;&gt;Node24</title>
<path fill="none" stroke="midnightblue" d="M878.272,-190.361C852.201,-181.757 811.538,-167.866 777,-154 775.585,-153.432 774.141,-152.837 772.688,-152.225"/>
<polygon fill="midnightblue" stroke="midnightblue" points="773.722,-148.857 763.157,-148.059 770.919,-155.271 773.722,-148.857"/>
</g>
<!-- Node25 -->
<g id="node26" class="node"><title>Node25</title>
<polygon fill="white" stroke="#bfbfbf" points="1524,-62 1524,-81 1572,-81 1572,-62 1524,-62"/>
<text text-anchor="middle" x="1548" y="-69" font-family="Helvetica,sans-Serif" font-size="10.00">stdlib.h</text>
</g>
<!-- Node23&#45;&gt;Node25 -->
<g id="edge44" class="edge"><title>Node23&#45;&gt;Node25</title>
<path fill="none" stroke="midnightblue" d="M947.086,-197.722C1051.86,-194.143 1322.03,-182.366 1407,-154 1431.8,-145.721 1434.45,-136.236 1457,-123 1479.16,-109.992 1504.78,-95.8525 1523.18,-85.8525"/>
<polygon fill="midnightblue" stroke="midnightblue" points="1524.96,-88.8686 1532.09,-81.0284 1521.63,-82.7134 1524.96,-88.8686"/>
</g>
<!-- Node26 -->
<g id="node27" class="node"><title>Node26</title>
<polygon fill="white" stroke="#bfbfbf" points="786.5,-129 786.5,-148 833.5,-148 833.5,-129 786.5,-129"/>
<text text-anchor="middle" x="810" y="-136" font-family="Helvetica,sans-Serif" font-size="10.00">math.h</text>
</g>
<!-- Node23&#45;&gt;Node26 -->
<g id="edge45" class="edge"><title>Node23&#45;&gt;Node26</title>
<path fill="none" stroke="midnightblue" d="M891.389,-190.475C875.939,-180.799 850.51,-164.872 832.184,-153.394"/>
<polygon fill="midnightblue" stroke="midnightblue" points="833.919,-150.351 823.586,-148.009 830.203,-156.283 833.919,-150.351"/>
</g>
<!-- Node27 -->
<g id="node28" class="node"><title>Node27</title>
<polygon fill="white" stroke="#bfbfbf" points="852,-129 852,-148 894,-148 894,-129 852,-129"/>
<text text-anchor="middle" x="873" y="-136" font-family="Helvetica,sans-Serif" font-size="10.00">vector</text>
</g>
<!-- Node23&#45;&gt;Node27 -->
<g id="edge47" class="edge"><title>Node23&#45;&gt;Node27</title>
<path fill="none" stroke="midnightblue" d="M900.415,-190.475C895.758,-181.815 888.408,-168.149 882.49,-157.145"/>
<polygon fill="midnightblue" stroke="midnightblue" points="885.395,-155.158 877.576,-148.009 879.23,-158.474 885.395,-155.158"/>
</g>
<!-- Node28 -->
<g id="node29" class="node"><title>Node28</title>
<polygon fill="white" stroke="#bfbfbf" points="912,-129 912,-148 964,-148 964,-129 912,-129"/>
<text text-anchor="middle" x="938" y="-136" font-family="Helvetica,sans-Serif" font-size="10.00">assert.h</text>
</g>
<!-- Node23&#45;&gt;Node28 -->
<g id="edge50" class="edge"><title>Node23&#45;&gt;Node28</title>
<path fill="none" stroke="midnightblue" d="M909.728,-190.475C914.58,-181.727 922.266,-167.869 928.4,-156.809"/>
<polygon fill="midnightblue" stroke="midnightblue" points="931.491,-158.452 933.281,-148.009 925.37,-155.057 931.491,-158.452"/>
</g>
<!-- Node29 -->
<g id="node30" class="node"><title>Node29</title>
<polygon fill="white" stroke="#bfbfbf" points="982,-129 982,-148 1032,-148 1032,-129 982,-129"/>
<text text-anchor="middle" x="1007" y="-136" font-family="Helvetica,sans-Serif" font-size="10.00">iomanip</text>
</g>
<!-- Node23&#45;&gt;Node29 -->
<g id="edge52" class="edge"><title>Node23&#45;&gt;Node29</title>
<path fill="none" stroke="midnightblue" d="M919.614,-190.475C936.353,-180.711 964.004,-164.581 983.719,-153.081"/>
<polygon fill="midnightblue" stroke="midnightblue" points="985.539,-156.071 992.413,-148.009 982.012,-150.025 985.539,-156.071"/>
</g>
<!-- Node30 -->
<g id="node31" class="node"><title>Node30</title>
<polygon fill="white" stroke="#bfbfbf" points="1050.5,-129 1050.5,-148 1099.5,-148 1099.5,-129 1050.5,-129"/>
<text text-anchor="middle" x="1075" y="-136" font-family="Helvetica,sans-Serif" font-size="10.00">fstream</text>
</g>
<!-- Node23&#45;&gt;Node30 -->
<g id="edge54" class="edge"><title>Node23&#45;&gt;Node30</title>
<path fill="none" stroke="midnightblue" d="M933.109,-190.454C960.779,-181.865 1004.13,-167.935 1041,-154 1042.65,-153.376 1044.34,-152.719 1046.04,-152.043"/>
<polygon fill="midnightblue" stroke="midnightblue" points="1047.78,-155.11 1055.7,-148.064 1045.12,-148.638 1047.78,-155.11"/>
</g>
<!-- Node31 -->
<g id="node32" class="node"><title>Node31</title>
<polygon fill="white" stroke="#bfbfbf" points="1118,-129 1118,-148 1222,-148 1222,-129 1118,-129"/>
<text text-anchor="middle" x="1170" y="-136" font-family="Helvetica,sans-Serif" font-size="10.00">common/variant.hpp</text>
</g>
<!-- Node23&#45;&gt;Node31 -->
<g id="edge56" class="edge"><title>Node23&#45;&gt;Node31</title>
<path fill="none" stroke="midnightblue" d="M944.326,-190.424C985.243,-181.468 1051.16,-166.947 1108,-154 1113.12,-152.833 1118.48,-151.6 1123.81,-150.365"/>
<polygon fill="midnightblue" stroke="midnightblue" points="1125.01,-153.68 1133.95,-148.005 1123.42,-146.862 1125.01,-153.68"/>
</g>
<!-- Node23&#45;&gt;Node32 -->
<g id="edge57" class="edge"><title>Node23&#45;&gt;Node32</title>
<path fill="none" stroke="midnightblue" d="M947.009,-196.94C1038.88,-192.128 1264.47,-178.649 1452,-154 1453.26,-153.834 1454.53,-153.663 1455.81,-153.485"/>
<polygon fill="midnightblue" stroke="midnightblue" points="1456.34,-156.944 1465.72,-152.025 1455.32,-150.019 1456.34,-156.944"/>
</g>
<!-- Node33 -->
<g id="node34" class="node"><title>Node33</title>
<g id="a_node34"><a xlink:href="_vector3_8hpp.html" target="_top" xlink:title="Math/Vector3.hpp">
<polygon fill="white" stroke="black" points="1240,-129 1240,-148 1334,-148 1334,-129 1240,-129"/>
<text text-anchor="middle" x="1287" y="-136" font-family="Helvetica,sans-Serif" font-size="10.00">Math/Vector3.hpp</text>
</a>
</g>
</g>
<!-- Node23&#45;&gt;Node33 -->
<g id="edge63" class="edge"><title>Node23&#45;&gt;Node33</title>
<path fill="none" stroke="midnightblue" d="M947.201,-194.76C1009.6,-188.134 1129.97,-173.982 1231,-154 1236.1,-152.991 1241.43,-151.796 1246.69,-150.533"/>
<polygon fill="midnightblue" stroke="midnightblue" points="1247.78,-153.869 1256.63,-148.049 1246.08,-147.078 1247.78,-153.869"/>
</g>
<!-- Node32&#45;&gt;Node5 -->
<g id="edge60" class="edge"><title>Node32&#45;&gt;Node5</title>
<path fill="none" stroke="midnightblue" d="M1566.28,-123.396C1594.13,-111.941 1633.03,-95.9385 1659.73,-84.9521"/>
<polygon fill="midnightblue" stroke="midnightblue" points="1661.41,-88.0484 1669.32,-81.007 1658.74,-81.5748 1661.41,-88.0484"/>
</g>
<!-- Node32&#45;&gt;Node6 -->
<g id="edge59" class="edge"><title>Node32&#45;&gt;Node6</title>
<path fill="none" stroke="midnightblue" d="M1465.97,-132.352C1429.68,-129.543 1383.86,-126.031 1343,-123 1087.75,-104.067 780.411,-82.4606 675.324,-75.1068"/>
<polygon fill="midnightblue" stroke="midnightblue" points="675.443,-71.6066 665.223,-74.4002 674.954,-78.5895 675.443,-71.6066"/>
</g>
<!-- Node32&#45;&gt;Node7 -->
<g id="edge58" class="edge"><title>Node32&#45;&gt;Node7</title>
<path fill="none" stroke="midnightblue" d="M1512.04,-123.396C1499.26,-114.367 1482.48,-102.514 1468.33,-92.5184"/>
<polygon fill="midnightblue" stroke="midnightblue" points="1470.11,-89.4883 1459.92,-86.5765 1466.07,-95.2054 1470.11,-89.4883"/>
</g>
<!-- Node32&#45;&gt;Node25 -->
<g id="edge61" class="edge"><title>Node32&#45;&gt;Node25</title>
<path fill="none" stroke="midnightblue" d="M1535.47,-123.396C1537.79,-113.963 1540.87,-101.448 1543.4,-91.1891"/>
<polygon fill="midnightblue" stroke="midnightblue" points="1546.87,-91.7413 1545.86,-81.1945 1540.07,-90.0681 1546.87,-91.7413"/>
</g>
<!-- Node34&#45;&gt;Node21 -->
<g id="edge67" class="edge"><title>Node34&#45;&gt;Node21</title>
<path fill="none" stroke="midnightblue" d="M907.901,-307.975C924.968,-298.211 953.161,-282.081 973.262,-270.581"/>
<polygon fill="midnightblue" stroke="midnightblue" points="975.185,-273.513 982.127,-265.509 971.709,-267.437 975.185,-273.513"/>
</g>
<!-- Node34&#45;&gt;Node23 -->
<g id="edge68" class="edge"><title>Node34&#45;&gt;Node23</title>
<path fill="none" stroke="midnightblue" d="M893.902,-307.819C895.83,-289.257 900.393,-245.339 903.029,-219.973"/>
<polygon fill="midnightblue" stroke="midnightblue" points="906.535,-220.09 904.088,-209.782 899.573,-219.367 906.535,-220.09"/>
</g>
<!-- Node35&#45;&gt;Node6 -->
<g id="edge70" class="edge"><title>Node35&#45;&gt;Node6</title>
<path fill="none" stroke="midnightblue" d="M605.141,-302.438C596.903,-269.887 579.988,-187.232 601,-123 605.191,-110.188 614.007,-97.936 621.981,-88.7095"/>
<polygon fill="midnightblue" stroke="midnightblue" points="624.729,-90.8915 628.912,-81.1572 619.572,-86.1585 624.729,-90.8915"/>
</g>
</g>
</svg>
