<?xml version="1.0" encoding="UTF-8" standalone="no"?>
<!DOCTYPE svg PUBLIC "-//W3C//DTD SVG 1.1//EN"
 "http://www.w3.org/Graphics/SVG/1.1/DTD/svg11.dtd">
<!-- Generated by graphviz version 2.38.0 (20140413.2041)
 -->
<!-- Title: NFIElementModule.h Pages: 1 -->
<svg width="4671pt" height="218pt"
 viewBox="0.00 0.00 4670.50 218.00" xmlns="http://www.w3.org/2000/svg" xmlns:xlink="http://www.w3.org/1999/xlink">
<g id="graph0" class="graph" transform="scale(1 1) rotate(0) translate(4 214)">
<title>NFIElementModule.h</title>
<polygon fill="white" stroke="none" points="-4,4 -4,-214 4666.5,-214 4666.5,4 -4,4"/>
<!-- Node38 -->
<g id="node1" class="node"><title>Node38</title>
<polygon fill="#bfbfbf" stroke="black" points="2087,-190.5 2087,-209.5 2194,-209.5 2194,-190.5 2087,-190.5"/>
<text text-anchor="middle" x="2140.5" y="-197.5" font-family="Helvetica,sans-Serif" font-size="10.00">NFIElementModule.h</text>
</g>
<!-- Node39 -->
<g id="node2" class="node"><title>Node39</title>
<g id="a_node2"><a xlink:href="_hello_world3_module_8h.html" target="_top" xlink:title="HelloWorld3Module.h">
<polygon fill="white" stroke="black" points="132,-129 132,-148 241,-148 241,-129 132,-129"/>
<text text-anchor="middle" x="186.5" y="-136" font-family="Helvetica,sans-Serif" font-size="10.00">HelloWorld3Module.h</text>
</a>
</g>
</g>
<!-- Node38&#45;&gt;Node39 -->
<g id="edge1" class="edge"><title>Node38&#45;&gt;Node39</title>
<path fill="none" stroke="midnightblue" d="M2076.91,-198.258C1795.66,-194.851 661.667,-179.756 306.5,-154 285.047,-152.444 261.535,-149.81 241.053,-147.21"/>
<polygon fill="midnightblue" stroke="midnightblue" points="2076.91,-201.758 2086.95,-198.379 2076.99,-194.759 2076.91,-201.758"/>
</g>
<!-- Node42 -->
<g id="node5" class="node"><title>Node42</title>
<g id="a_node5"><a xlink:href="_n_f_c_element_module_8h.html" target="_top" xlink:title="NFCElementModule.h">
<polygon fill="white" stroke="black" points="357.5,-129 357.5,-148 469.5,-148 469.5,-129 357.5,-129"/>
<text text-anchor="middle" x="413.5" y="-136" font-family="Helvetica,sans-Serif" font-size="10.00">NFCElementModule.h</text>
</a>
</g>
</g>
<!-- Node38&#45;&gt;Node42 -->
<g id="edge4" class="edge"><title>Node38&#45;&gt;Node42</title>
<path fill="none" stroke="midnightblue" d="M2076.91,-198.594C1863.92,-196.932 1156.25,-188.96 572.5,-154 538.329,-151.954 500.123,-148.507 469.728,-145.487"/>
<polygon fill="midnightblue" stroke="midnightblue" points="2076.95,-202.095 2086.97,-198.671 2077,-195.095 2076.95,-202.095"/>
</g>
<!-- Node43 -->
<g id="node6" class="node"><title>Node43</title>
<g id="a_node6"><a xlink:href="_n_f_c_class_module_8h.html" target="_top" xlink:title="NFCClassModule.h">
<polygon fill="white" stroke="black" points="254,-62 254,-81 355,-81 355,-62 254,-62"/>
<text text-anchor="middle" x="304.5" y="-69" font-family="Helvetica,sans-Serif" font-size="10.00">NFCClassModule.h</text>
</a>
</g>
</g>
<!-- Node38&#45;&gt;Node43 -->
<g id="edge11" class="edge"><title>Node38&#45;&gt;Node43</title>
<path fill="none" stroke="midnightblue" d="M2076.79,-199.183C1766.28,-199.848 423.532,-200.047 348.5,-154 321.639,-137.515 310.117,-98.499 306.191,-81.1156"/>
<polygon fill="midnightblue" stroke="midnightblue" points="2076.97,-202.682 2086.96,-199.16 2076.96,-195.682 2076.97,-202.682"/>
</g>
<!-- Node47 -->
<g id="node10" class="node"><title>Node47</title>
<g id="a_node10"><a xlink:href="_n_f_c_kernel_module_8h.html" target="_top" xlink:title="NFCKernelModule.h">
<polygon fill="white" stroke="black" points="581.5,-129 581.5,-148 685.5,-148 685.5,-129 581.5,-129"/>
<text text-anchor="middle" x="633.5" y="-136" font-family="Helvetica,sans-Serif" font-size="10.00">NFCKernelModule.h</text>
</a>
</g>
</g>
<!-- Node38&#45;&gt;Node47 -->
<g id="edge12" class="edge"><title>Node38&#45;&gt;Node47</title>
<path fill="none" stroke="midnightblue" d="M2076.94,-197.155C1893.33,-191.728 1346.32,-174.883 892.5,-154 820.744,-150.698 737.862,-145.882 685.573,-142.72"/>
<polygon fill="midnightblue" stroke="midnightblue" points="2076.87,-200.654 2086.96,-197.45 2077.07,-193.657 2076.87,-200.654"/>
</g>
<!-- Node50 -->
<g id="node13" class="node"><title>Node50</title>
<g id="a_node13"><a xlink:href="_n_f_c_game_server_to_world_module_8h.html" target="_top" xlink:title="NFCGameServerToWorldModule.h">
<polygon fill="white" stroke="black" points="902,-129 902,-148 1067,-148 1067,-129 902,-129"/>
<text text-anchor="middle" x="984.5" y="-136" font-family="Helvetica,sans-Serif" font-size="10.00">NFCGameServerToWorldModule.h</text>
</a>
</g>
</g>
<!-- Node38&#45;&gt;Node50 -->
<g id="edge15" class="edge"><title>Node38&#45;&gt;Node50</title>
<path fill="none" stroke="midnightblue" d="M2076.53,-195.707C1880.21,-185.603 1286.43,-155.04 1067.08,-143.751"/>
<polygon fill="midnightblue" stroke="midnightblue" points="2076.51,-199.211 2086.68,-196.23 2076.87,-192.22 2076.51,-199.211"/>
</g>
<!-- Node53 -->
<g id="node16" class="node"><title>Node53</title>
<g id="a_node16"><a xlink:href="_n_f_c_game_server_net___server_module_8h.html" target="_top" xlink:title="NFCGameServerNet_ServerModule.h">
<polygon fill="white" stroke="black" points="1294.5,-129 1294.5,-148 1470.5,-148 1470.5,-129 1294.5,-129"/>
<text text-anchor="middle" x="1382.5" y="-136" font-family="Helvetica,sans-Serif" font-size="10.00">NFCGameServerNet_ServerModule.h</text>
</a>
</g>
</g>
<!-- Node38&#45;&gt;Node53 -->
<g id="edge18" class="edge"><title>Node38&#45;&gt;Node53</title>
<path fill="none" stroke="midnightblue" d="M2076.69,-193.991C1941.35,-183.368 1625.27,-158.557 1470.73,-146.426"/>
<polygon fill="midnightblue" stroke="midnightblue" points="2076.65,-197.499 2086.9,-194.792 2077.2,-190.52 2076.65,-197.499"/>
</g>
<!-- Node56 -->
<g id="node19" class="node"><title>Node56</title>
<g id="a_node19"><a xlink:href="_n_f_c_level_module_8h.html" target="_top" xlink:title="NFCLevelModule.h">
<polygon fill="white" stroke="black" points="1660.5,-129 1660.5,-148 1758.5,-148 1758.5,-129 1660.5,-129"/>
<text text-anchor="middle" x="1709.5" y="-136" font-family="Helvetica,sans-Serif" font-size="10.00">NFCLevelModule.h</text>
</a>
</g>
</g>
<!-- Node38&#45;&gt;Node56 -->
<g id="edge21" class="edge"><title>Node38&#45;&gt;Node56</title>
<path fill="none" stroke="midnightblue" d="M2076.58,-193.737C2002,-187.031 1875.17,-173.873 1767.5,-154 1758.72,-152.38 1749.3,-150.212 1740.65,-148.047"/>
<polygon fill="midnightblue" stroke="midnightblue" points="2076.48,-197.242 2086.75,-194.64 2077.1,-190.269 2076.48,-197.242"/>
</g>
<!-- Node59 -->
<g id="node22" class="node"><title>Node59</title>
<g id="a_node22"><a xlink:href="_n_f_c_property_config_module_8h.html" target="_top" xlink:title="NFCPropertyConfigModule.h">
<polygon fill="white" stroke="black" points="1776.5,-129 1776.5,-148 1916.5,-148 1916.5,-129 1776.5,-129"/>
<text text-anchor="middle" x="1846.5" y="-136" font-family="Helvetica,sans-Serif" font-size="10.00">NFCPropertyConfigModule.h</text>
</a>
</g>
</g>
<!-- Node38&#45;&gt;Node59 -->
<g id="edge24" class="edge"><title>Node38&#45;&gt;Node59</title>
<path fill="none" stroke="midnightblue" d="M2088.49,-188.474C2031.51,-176.943 1941.23,-158.672 1888.54,-148.009"/>
<polygon fill="midnightblue" stroke="midnightblue" points="2087.88,-191.922 2098.38,-190.475 2089.27,-185.061 2087.88,-191.922"/>
</g>
<!-- Node61 -->
<g id="node24" class="node"><title>Node61</title>
<g id="a_node24"><a xlink:href="_n_f_c_property_module_8h.html" target="_top" xlink:title="NFCPropertyModule.h">
<polygon fill="white" stroke="black" points="1935,-129 1935,-148 2048,-148 2048,-129 1935,-129"/>
<text text-anchor="middle" x="1991.5" y="-136" font-family="Helvetica,sans-Serif" font-size="10.00">NFCPropertyModule.h</text>
</a>
</g>
</g>
<!-- Node38&#45;&gt;Node61 -->
<g id="edge27" class="edge"><title>Node38&#45;&gt;Node61</title>
<path fill="none" stroke="midnightblue" d="M2109.53,-186.631C2080.58,-175.072 2038.13,-158.12 2012.81,-148.009"/>
<polygon fill="midnightblue" stroke="midnightblue" points="2108.57,-190.017 2119.15,-190.475 2111.16,-183.516 2108.57,-190.017"/>
</g>
<!-- Node63 -->
<g id="node26" class="node"><title>Node63</title>
<g id="a_node26"><a xlink:href="_n_f_c_property_trail_module_8h.html" target="_top" xlink:title="NFCPropertyTrailModule.h">
<polygon fill="white" stroke="black" points="2238,-129 2238,-148 2369,-148 2369,-129 2238,-129"/>
<text text-anchor="middle" x="2303.5" y="-136" font-family="Helvetica,sans-Serif" font-size="10.00">NFCPropertyTrailModule.h</text>
</a>
</g>
</g>
<!-- Node38&#45;&gt;Node63 -->
<g id="edge30" class="edge"><title>Node38&#45;&gt;Node63</title>
<path fill="none" stroke="midnightblue" d="M2173.56,-186.933C2205.24,-175.368 2252.25,-158.208 2280.19,-148.009"/>
<polygon fill="midnightblue" stroke="midnightblue" points="2172.05,-183.758 2163.85,-190.475 2174.45,-190.334 2172.05,-183.758"/>
</g>
<!-- Node65 -->
<g id="node28" class="node"><title>Node65</title>
<g id="a_node28"><a xlink:href="_n_f_c_scene_process_module_8h.html" target="_top" xlink:title="NFCSceneProcessModule.h">
<polygon fill="white" stroke="black" points="2070.5,-129 2070.5,-148 2210.5,-148 2210.5,-129 2070.5,-129"/>
<text text-anchor="middle" x="2140.5" y="-136" font-family="Helvetica,sans-Serif" font-size="10.00">NFCSceneProcessModule.h</text>
</a>
</g>
</g>
<!-- Node38&#45;&gt;Node65 -->
<g id="edge32" class="edge"><title>Node38&#45;&gt;Node65</title>
<path fill="none" stroke="midnightblue" d="M2140.5,-180.317C2140.5,-169.496 2140.5,-156.398 2140.5,-148.009"/>
<polygon fill="midnightblue" stroke="midnightblue" points="2137,-180.475 2140.5,-190.475 2144,-180.475 2137,-180.475"/>
</g>
<!-- Node67 -->
<g id="node30" class="node"><title>Node67</title>
<g id="a_node30"><a xlink:href="_n_f_c_login_to_master_module_8h.html" target="_top" xlink:title="NFCLoginToMasterModule.h">
<polygon fill="white" stroke="black" points="2403.5,-129 2403.5,-148 2543.5,-148 2543.5,-129 2403.5,-129"/>
<text text-anchor="middle" x="2473.5" y="-136" font-family="Helvetica,sans-Serif" font-size="10.00">NFCLoginToMasterModule.h</text>
</a>
</g>
</g>
<!-- Node38&#45;&gt;Node67 -->
<g id="edge35" class="edge"><title>Node38&#45;&gt;Node67</title>
<path fill="none" stroke="midnightblue" d="M2198.21,-188.688C2262.67,-177.17 2365.83,-158.738 2425.88,-148.009"/>
<polygon fill="midnightblue" stroke="midnightblue" points="2197.44,-185.271 2188.21,-190.475 2198.67,-192.162 2197.44,-185.271"/>
</g>
<!-- Node70 -->
<g id="node33" class="node"><title>Node70</title>
<g id="a_node33"><a xlink:href="_n_f_c_login_net___server_module_8h.html" target="_top" xlink:title="NFCLoginNet_ServerModule.h">
<polygon fill="white" stroke="black" points="2733.5,-129 2733.5,-148 2879.5,-148 2879.5,-129 2733.5,-129"/>
<text text-anchor="middle" x="2806.5" y="-136" font-family="Helvetica,sans-Serif" font-size="10.00">NFCLoginNet_ServerModule.h</text>
</a>
</g>
</g>
<!-- Node38&#45;&gt;Node70 -->
<g id="edge38" class="edge"><title>Node38&#45;&gt;Node70</title>
<path fill="none" stroke="midnightblue" d="M2204.27,-193.303C2328.45,-182.209 2602.02,-157.768 2733.35,-146.036"/>
<polygon fill="midnightblue" stroke="midnightblue" points="2203.81,-189.83 2194.16,-194.206 2204.43,-196.803 2203.81,-189.83"/>
</g>
<!-- Node73 -->
<g id="node36" class="node"><title>Node73</title>
<g id="a_node36"><a xlink:href="_n_f_c_master_net___server_module_8h.html" target="_top" xlink:title="NFCMasterNet_ServerModule.h">
<polygon fill="white" stroke="black" points="3073,-129 3073,-148 3226,-148 3226,-129 3073,-129"/>
<text text-anchor="middle" x="3149.5" y="-136" font-family="Helvetica,sans-Serif" font-size="10.00">NFCMasterNet_ServerModule.h</text>
</a>
</g>
</g>
<!-- Node38&#45;&gt;Node73 -->
<g id="edge41" class="edge"><title>Node38&#45;&gt;Node73</title>
<path fill="none" stroke="midnightblue" d="M2204.25,-195.241C2381.7,-184.777 2880.86,-155.341 3072.89,-144.018"/>
<polygon fill="midnightblue" stroke="midnightblue" points="2203.81,-191.76 2194.04,-195.843 2204.22,-198.748 2203.81,-191.76"/>
</g>
<!-- Node76 -->
<g id="node39" class="node"><title>Node76</title>
<g id="a_node39"><a xlink:href="_n_f_c_proxy_server_to_game_module_8h.html" target="_top" xlink:title="NFCProxyServerToGameModule.h">
<polygon fill="white" stroke="black" points="3425,-129 3425,-148 3590,-148 3590,-129 3425,-129"/>
<text text-anchor="middle" x="3507.5" y="-136" font-family="Helvetica,sans-Serif" font-size="10.00">NFCProxyServerToGameModule.h</text>
</a>
</g>
</g>
<!-- Node38&#45;&gt;Node76 -->
<g id="edge44" class="edge"><title>Node38&#45;&gt;Node76</title>
<path fill="none" stroke="midnightblue" d="M2204.18,-196.647C2372.48,-190.37 2843,-172.448 3234.5,-154 3298.39,-150.99 3370.65,-147.131 3424.78,-144.151"/>
<polygon fill="midnightblue" stroke="midnightblue" points="2203.88,-193.156 2194.01,-197.026 2204.14,-200.151 2203.88,-193.156"/>
</g>
<!-- Node79 -->
<g id="node42" class="node"><title>Node79</title>
<g id="a_node42"><a xlink:href="_n_f_c_proxy_server_to_world_module_8h.html" target="_top" xlink:title="NFCProxyServerToWorldModule.h">
<polygon fill="white" stroke="black" points="3618.5,-129 3618.5,-148 3782.5,-148 3782.5,-129 3618.5,-129"/>
<text text-anchor="middle" x="3700.5" y="-136" font-family="Helvetica,sans-Serif" font-size="10.00">NFCProxyServerToWorldModule.h</text>
</a>
</g>
</g>
<!-- Node38&#45;&gt;Node79 -->
<g id="edge47" class="edge"><title>Node38&#45;&gt;Node79</title>
<path fill="none" stroke="midnightblue" d="M2204.47,-199.54C2408.34,-200.723 3060.97,-200.36 3598.5,-154 3614.81,-152.594 3632.49,-150.34 3648.47,-148.025"/>
<polygon fill="midnightblue" stroke="midnightblue" points="2204.27,-196.039 2194.24,-199.477 2204.22,-203.039 2204.27,-196.039"/>
</g>
<!-- Node81 -->
<g id="node44" class="node"><title>Node81</title>
<g id="a_node44"><a xlink:href="_n_f_c_proxy_server_net___server_module_8h.html" target="_top" xlink:title="NFCProxyServerNet_Server\lModule.h">
<polygon fill="white" stroke="black" points="3998.5,-123.5 3998.5,-153.5 4134.5,-153.5 4134.5,-123.5 3998.5,-123.5"/>
<text text-anchor="start" x="4006.5" y="-141.5" font-family="Helvetica,sans-Serif" font-size="10.00">NFCProxyServerNet_Server</text>
<text text-anchor="middle" x="4066.5" y="-130.5" font-family="Helvetica,sans-Serif" font-size="10.00">Module.h</text>
</a>
</g>
</g>
<!-- Node38&#45;&gt;Node81 -->
<g id="edge50" class="edge"><title>Node38&#45;&gt;Node81</title>
<path fill="none" stroke="midnightblue" d="M2204.41,-197.843C2424.81,-193.727 3173.5,-178.711 3791.5,-154 3862.08,-151.178 3942.79,-146.783 3998.43,-143.571"/>
<polygon fill="midnightblue" stroke="midnightblue" points="2204.25,-194.345 2194.32,-198.031 2204.38,-201.344 2204.25,-194.345"/>
</g>
<!-- Node84 -->
<g id="node47" class="node"><title>Node84</title>
<g id="a_node47"><a xlink:href="_n_f_c_world_to_master_module_8h.html" target="_top" xlink:title="NFCWorldToMasterModule.h">
<polygon fill="white" stroke="black" points="4251.5,-129 4251.5,-148 4393.5,-148 4393.5,-129 4251.5,-129"/>
<text text-anchor="middle" x="4322.5" y="-136" font-family="Helvetica,sans-Serif" font-size="10.00">NFCWorldToMasterModule.h</text>
</a>
</g>
</g>
<!-- Node38&#45;&gt;Node84 -->
<g id="edge53" class="edge"><title>Node38&#45;&gt;Node84</title>
<path fill="none" stroke="midnightblue" d="M2204.64,-198.92C2453.76,-198.321 3381.12,-193.409 4143.5,-154 4179,-152.165 4218.37,-149.089 4251.14,-146.241"/>
<polygon fill="midnightblue" stroke="midnightblue" points="2204.32,-195.421 2194.32,-198.943 2204.33,-202.421 2204.32,-195.421"/>
</g>
<!-- Node87 -->
<g id="node50" class="node"><title>Node87</title>
<g id="a_node50"><a xlink:href="_n_f_c_world_net___server_module_8h.html" target="_top" xlink:title="NFCWorldNet_ServerModule.h">
<polygon fill="white" stroke="red" points="4412,-129 4412,-148 4561,-148 4561,-129 4412,-129"/>
<text text-anchor="middle" x="4486.5" y="-136" font-family="Helvetica,sans-Serif" font-size="10.00">NFCWorldNet_ServerModule.h</text>
</a>
</g>
</g>
<!-- Node38&#45;&gt;Node87 -->
<g id="edge56" class="edge"><title>Node38&#45;&gt;Node87</title>
<path fill="none" stroke="midnightblue" d="M2204.3,-199.033C2524.54,-199.003 3958.89,-196.455 4402.5,-154 4416.2,-152.689 4431.03,-150.417 4444.37,-148.055"/>
<polygon fill="midnightblue" stroke="midnightblue" points="2204.26,-195.533 2194.26,-199.034 2204.26,-202.533 2204.26,-195.533"/>
</g>
<!-- Node40 -->
<g id="node3" class="node"><title>Node40</title>
<g id="a_node3"><a xlink:href="_hello_world3_module_8cpp.html" target="_top" xlink:title="HelloWorld3Module.cpp">
<polygon fill="white" stroke="black" points="0,-62 0,-81 119,-81 119,-62 0,-62"/>
<text text-anchor="middle" x="59.5" y="-69" font-family="Helvetica,sans-Serif" font-size="10.00">HelloWorld3Module.cpp</text>
</a>
</g>
</g>
<!-- Node39&#45;&gt;Node40 -->
<g id="edge2" class="edge"><title>Node39&#45;&gt;Node40</title>
<path fill="none" stroke="midnightblue" d="M160.658,-124.274C135.504,-111.4 98.0076,-92.2086 76.4344,-81.1672"/>
<polygon fill="midnightblue" stroke="midnightblue" points="159.139,-127.428 169.635,-128.869 162.328,-121.197 159.139,-127.428"/>
</g>
<!-- Node41 -->
<g id="node4" class="node"><title>Node41</title>
<g id="a_node4"><a xlink:href="_tutorial3_plugin_8cpp.html" target="_top" xlink:title="Tutorial3Plugin.cpp">
<polygon fill="white" stroke="black" points="137,-62 137,-81 236,-81 236,-62 137,-62"/>
<text text-anchor="middle" x="186.5" y="-69" font-family="Helvetica,sans-Serif" font-size="10.00">Tutorial3Plugin.cpp</text>
</a>
</g>
</g>
<!-- Node39&#45;&gt;Node41 -->
<g id="edge3" class="edge"><title>Node39&#45;&gt;Node41</title>
<path fill="none" stroke="midnightblue" d="M186.5,-118.537C186.5,-106.17 186.5,-90.6198 186.5,-81.1273"/>
<polygon fill="midnightblue" stroke="midnightblue" points="183,-118.734 186.5,-128.734 190,-118.734 183,-118.734"/>
</g>
<!-- Node42&#45;&gt;Node43 -->
<g id="edge5" class="edge"><title>Node42&#45;&gt;Node43</title>
<path fill="none" stroke="midnightblue" d="M389.926,-123.442C368.34,-110.57 337.078,-91.9274 318.967,-81.1273"/>
<polygon fill="midnightblue" stroke="midnightblue" points="388.418,-126.618 398.8,-128.734 392.004,-120.606 388.418,-126.618"/>
</g>
<!-- Node45 -->
<g id="node8" class="node"><title>Node45</title>
<g id="a_node8"><a xlink:href="_n_f_c_element_module_8cpp.html" target="_top" xlink:title="NFCElementModule.cpp">
<polygon fill="white" stroke="black" points="243.5,-0.5 243.5,-19.5 365.5,-19.5 365.5,-0.5 243.5,-0.5"/>
<text text-anchor="middle" x="304.5" y="-7.5" font-family="Helvetica,sans-Serif" font-size="10.00">NFCElementModule.cpp</text>
</a>
</g>
</g>
<!-- Node42&#45;&gt;Node45 -->
<g id="edge9" class="edge"><title>Node42&#45;&gt;Node45</title>
<path fill="none" stroke="midnightblue" d="M405.136,-119.917C396.322,-102.503 381.268,-75.666 363.5,-56 350.2,-41.2796 331.551,-27.9852 318.801,-19.7281"/>
<polygon fill="midnightblue" stroke="midnightblue" points="402.026,-121.524 409.578,-128.956 408.308,-118.437 402.026,-121.524"/>
</g>
<!-- Node46 -->
<g id="node9" class="node"><title>Node46</title>
<g id="a_node9"><a xlink:href="_n_f_config_plugin_8cpp.html" target="_top" xlink:title="NFConfigPlugin.cpp">
<polygon fill="white" stroke="black" points="383.5,-0.5 383.5,-19.5 485.5,-19.5 485.5,-0.5 383.5,-0.5"/>
<text text-anchor="middle" x="434.5" y="-7.5" font-family="Helvetica,sans-Serif" font-size="10.00">NFConfigPlugin.cpp</text>
</a>
</g>
</g>
<!-- Node42&#45;&gt;Node46 -->
<g id="edge10" class="edge"><title>Node42&#45;&gt;Node46</title>
<path fill="none" stroke="midnightblue" d="M416.603,-118.806C421.207,-91.0761 429.665,-40.1279 433.046,-19.7557"/>
<polygon fill="midnightblue" stroke="midnightblue" points="413.128,-118.367 414.943,-128.805 420.034,-119.513 413.128,-118.367"/>
</g>
<!-- Node44 -->
<g id="node7" class="node"><title>Node44</title>
<g id="a_node7"><a xlink:href="_n_f_c_class_module_8cpp.html" target="_top" xlink:title="NFCClassModule.cpp">
<polygon fill="white" stroke="black" points="114,-0.5 114,-19.5 225,-19.5 225,-0.5 114,-0.5"/>
<text text-anchor="middle" x="169.5" y="-7.5" font-family="Helvetica,sans-Serif" font-size="10.00">NFCClassModule.cpp</text>
</a>
</g>
</g>
<!-- Node43&#45;&gt;Node44 -->
<g id="edge6" class="edge"><title>Node43&#45;&gt;Node44</title>
<path fill="none" stroke="midnightblue" d="M275.747,-57.8272C249.538,-46.2761 211.547,-29.5316 188.806,-19.5091"/>
<polygon fill="midnightblue" stroke="midnightblue" points="274.596,-61.1447 285.158,-61.9751 277.419,-54.7392 274.596,-61.1447"/>
</g>
<!-- Node43&#45;&gt;Node45 -->
<g id="edge7" class="edge"><title>Node43&#45;&gt;Node45</title>
<path fill="none" stroke="midnightblue" d="M304.5,-51.8165C304.5,-40.9962 304.5,-27.898 304.5,-19.5091"/>
<polygon fill="midnightblue" stroke="midnightblue" points="301,-51.9751 304.5,-61.9751 308,-51.9751 301,-51.9751"/>
</g>
<!-- Node43&#45;&gt;Node46 -->
<g id="edge8" class="edge"><title>Node43&#45;&gt;Node46</title>
<path fill="none" stroke="midnightblue" d="M332.523,-57.6742C357.748,-46.1287 394.107,-29.4875 415.909,-19.5091"/>
<polygon fill="midnightblue" stroke="midnightblue" points="330.762,-54.6308 323.126,-61.9751 333.675,-60.9958 330.762,-54.6308"/>
</g>
<!-- Node48 -->
<g id="node11" class="node"><title>Node48</title>
<g id="a_node11"><a xlink:href="_n_f_c_kernel_module_8cpp.html" target="_top" xlink:title="NFCKernelModule.cpp">
<polygon fill="white" stroke="black" points="449.5,-62 449.5,-81 563.5,-81 563.5,-62 449.5,-62"/>
<text text-anchor="middle" x="506.5" y="-69" font-family="Helvetica,sans-Serif" font-size="10.00">NFCKernelModule.cpp</text>
</a>
</g>
</g>
<!-- Node47&#45;&gt;Node48 -->
<g id="edge13" class="edge"><title>Node47&#45;&gt;Node48</title>
<path fill="none" stroke="midnightblue" d="M607.658,-124.274C582.504,-111.4 545.008,-92.2086 523.434,-81.1672"/>
<polygon fill="midnightblue" stroke="midnightblue" points="606.139,-127.428 616.635,-128.869 609.328,-121.197 606.139,-127.428"/>
</g>
<!-- Node49 -->
<g id="node12" class="node"><title>Node49</title>
<g id="a_node12"><a xlink:href="_n_f_kernel_plugin_8cpp.html" target="_top" xlink:title="NFKernelPlugin.cpp">
<polygon fill="white" stroke="black" points="582,-62 582,-81 685,-81 685,-62 582,-62"/>
<text text-anchor="middle" x="633.5" y="-69" font-family="Helvetica,sans-Serif" font-size="10.00">NFKernelPlugin.cpp</text>
</a>
</g>
</g>
<!-- Node47&#45;&gt;Node49 -->
<g id="edge14" class="edge"><title>Node47&#45;&gt;Node49</title>
<path fill="none" stroke="midnightblue" d="M633.5,-118.537C633.5,-106.17 633.5,-90.6198 633.5,-81.1273"/>
<polygon fill="midnightblue" stroke="midnightblue" points="630,-118.734 633.5,-128.734 637,-118.734 630,-118.734"/>
</g>
<!-- Node51 -->
<g id="node14" class="node"><title>Node51</title>
<g id="a_node14"><a xlink:href="_n_f_c_game_server_to_world_module_8cpp.html" target="_top" xlink:title="NFCGameServerToWorldModule.cpp">
<polygon fill="white" stroke="black" points="703.5,-62 703.5,-81 879.5,-81 879.5,-62 703.5,-62"/>
<text text-anchor="middle" x="791.5" y="-69" font-family="Helvetica,sans-Serif" font-size="10.00">NFCGameServerToWorldModule.cpp</text>
</a>
</g>
</g>
<!-- Node50&#45;&gt;Node51 -->
<g id="edge16" class="edge"><title>Node50&#45;&gt;Node51</title>
<path fill="none" stroke="midnightblue" d="M949.17,-125.601C910.904,-112.714 850.804,-92.4728 816.928,-81.0637"/>
<polygon fill="midnightblue" stroke="midnightblue" points="948.277,-128.994 958.871,-128.869 950.511,-122.36 948.277,-128.994"/>
</g>
<!-- Node52 -->
<g id="node15" class="node"><title>Node52</title>
<g id="a_node15"><a xlink:href="_n_f_game_server_net___client_plugin_8cpp.html" target="_top" xlink:title="NFGameServerNet_ClientPlugin.cpp">
<polygon fill="white" stroke="black" points="898,-62 898,-81 1071,-81 1071,-62 898,-62"/>
<text text-anchor="middle" x="984.5" y="-69" font-family="Helvetica,sans-Serif" font-size="10.00">NFGameServerNet_ClientPlugin.cpp</text>
</a>
</g>
</g>
<!-- Node50&#45;&gt;Node52 -->
<g id="edge17" class="edge"><title>Node50&#45;&gt;Node52</title>
<path fill="none" stroke="midnightblue" d="M984.5,-118.537C984.5,-106.17 984.5,-90.6198 984.5,-81.1273"/>
<polygon fill="midnightblue" stroke="midnightblue" points="981,-118.734 984.5,-128.734 988,-118.734 981,-118.734"/>
</g>
<!-- Node54 -->
<g id="node17" class="node"><title>Node54</title>
<g id="a_node17"><a xlink:href="_n_f_c_game_server_net___server_module_8cpp.html" target="_top" xlink:title="NFCGameServerNet_ServerModule.cpp">
<polygon fill="white" stroke="black" points="1089,-62 1089,-81 1276,-81 1276,-62 1089,-62"/>
<text text-anchor="middle" x="1182.5" y="-69" font-family="Helvetica,sans-Serif" font-size="10.00">NFCGameServerNet_ServerModule.cpp</text>
</a>
</g>
</g>
<!-- Node53&#45;&gt;Node54 -->
<g id="edge19" class="edge"><title>Node53&#45;&gt;Node54</title>
<path fill="none" stroke="midnightblue" d="M1346.39,-125.765C1306.77,-112.886 1244.1,-92.5214 1208.85,-81.0637"/>
<polygon fill="midnightblue" stroke="midnightblue" points="1345.35,-129.106 1355.94,-128.869 1347.51,-122.449 1345.35,-129.106"/>
</g>
<!-- Node55 -->
<g id="node18" class="node"><title>Node55</title>
<g id="a_node18"><a xlink:href="_n_f_game_server_net___server_plugin_8cpp.html" target="_top" xlink:title="NFGameServerNet_ServerPlugin.cpp">
<polygon fill="white" stroke="black" points="1294.5,-62 1294.5,-81 1470.5,-81 1470.5,-62 1294.5,-62"/>
<text text-anchor="middle" x="1382.5" y="-69" font-family="Helvetica,sans-Serif" font-size="10.00">NFGameServerNet_ServerPlugin.cpp</text>
</a>
</g>
</g>
<!-- Node53&#45;&gt;Node55 -->
<g id="edge20" class="edge"><title>Node53&#45;&gt;Node55</title>
<path fill="none" stroke="midnightblue" d="M1382.5,-118.537C1382.5,-106.17 1382.5,-90.6198 1382.5,-81.1273"/>
<polygon fill="midnightblue" stroke="midnightblue" points="1379,-118.734 1382.5,-128.734 1386,-118.734 1379,-118.734"/>
</g>
<!-- Node57 -->
<g id="node20" class="node"><title>Node57</title>
<g id="a_node20"><a xlink:href="_n_f_c_level_module_8cpp.html" target="_top" xlink:title="NFCLevelModule.cpp">
<polygon fill="white" stroke="black" points="1488.5,-62 1488.5,-81 1596.5,-81 1596.5,-62 1488.5,-62"/>
<text text-anchor="middle" x="1542.5" y="-69" font-family="Helvetica,sans-Serif" font-size="10.00">NFCLevelModule.cpp</text>
</a>
</g>
</g>
<!-- Node56&#45;&gt;Node57 -->
<g id="edge22" class="edge"><title>Node56&#45;&gt;Node57</title>
<path fill="none" stroke="midnightblue" d="M1677.65,-125.104C1644.49,-112.198 1593.44,-92.3272 1564.5,-81.0637"/>
<polygon fill="midnightblue" stroke="midnightblue" points="1676.74,-128.503 1687.32,-128.869 1679.27,-121.98 1676.74,-128.503"/>
</g>
<!-- Node58 -->
<g id="node21" class="node"><title>Node58</title>
<g id="a_node21"><a xlink:href="_n_f_game_server_plugin_8cpp.html" target="_top" xlink:title="NFGameServerPlugin.cpp">
<polygon fill="white" stroke="black" points="1782.5,-62 1782.5,-81 1910.5,-81 1910.5,-62 1782.5,-62"/>
<text text-anchor="middle" x="1846.5" y="-69" font-family="Helvetica,sans-Serif" font-size="10.00">NFGameServerPlugin.cpp</text>
</a>
</g>
</g>
<!-- Node56&#45;&gt;Node58 -->
<g id="edge23" class="edge"><title>Node56&#45;&gt;Node58</title>
<path fill="none" stroke="midnightblue" d="M1737.02,-124.444C1764.15,-111.569 1804.86,-92.2573 1828.23,-81.1672"/>
<polygon fill="midnightblue" stroke="midnightblue" points="1735.23,-121.42 1727.69,-128.869 1738.23,-127.744 1735.23,-121.42"/>
</g>
<!-- Node59&#45;&gt;Node58 -->
<g id="edge26" class="edge"><title>Node59&#45;&gt;Node58</title>
<path fill="none" stroke="midnightblue" d="M1846.5,-118.537C1846.5,-106.17 1846.5,-90.6198 1846.5,-81.1273"/>
<polygon fill="midnightblue" stroke="midnightblue" points="1843,-118.734 1846.5,-128.734 1850,-118.734 1843,-118.734"/>
</g>
<!-- Node60 -->
<g id="node23" class="node"><title>Node60</title>
<g id="a_node23"><a xlink:href="_n_f_c_property_config_module_8cpp.html" target="_top" xlink:title="NFCPropertyConfigModule.cpp">
<polygon fill="white" stroke="black" points="1614.5,-62 1614.5,-81 1764.5,-81 1764.5,-62 1614.5,-62"/>
<text text-anchor="middle" x="1689.5" y="-69" font-family="Helvetica,sans-Serif" font-size="10.00">NFCPropertyConfigModule.cpp</text>
</a>
</g>
</g>
<!-- Node59&#45;&gt;Node60 -->
<g id="edge25" class="edge"><title>Node59&#45;&gt;Node60</title>
<path fill="none" stroke="midnightblue" d="M1816.18,-124.948C1785.1,-112.079 1737.57,-92.4032 1710.43,-81.1672"/>
<polygon fill="midnightblue" stroke="midnightblue" points="1815.07,-128.277 1825.65,-128.869 1817.75,-121.809 1815.07,-128.277"/>
</g>
<!-- Node61&#45;&gt;Node58 -->
<g id="edge29" class="edge"><title>Node61&#45;&gt;Node58</title>
<path fill="none" stroke="midnightblue" d="M1962.75,-124.613C1934.03,-111.739 1890.68,-92.3059 1865.83,-81.1672"/>
<polygon fill="midnightblue" stroke="midnightblue" points="1961.69,-127.972 1972.25,-128.869 1964.55,-121.584 1961.69,-127.972"/>
</g>
<!-- Node62 -->
<g id="node25" class="node"><title>Node62</title>
<g id="a_node25"><a xlink:href="_n_f_c_property_module_8cpp.html" target="_top" xlink:title="NFCPropertyModule.cpp">
<polygon fill="white" stroke="black" points="1929,-62 1929,-81 2052,-81 2052,-62 1929,-62"/>
<text text-anchor="middle" x="1990.5" y="-69" font-family="Helvetica,sans-Serif" font-size="10.00">NFCPropertyModule.cpp</text>
</a>
</g>
</g>
<!-- Node61&#45;&gt;Node62 -->
<g id="edge28" class="edge"><title>Node61&#45;&gt;Node62</title>
<path fill="none" stroke="midnightblue" d="M1991.21,-118.537C1991.02,-106.17 1990.78,-90.6198 1990.63,-81.1273"/>
<polygon fill="midnightblue" stroke="midnightblue" points="1987.71,-118.789 1991.37,-128.734 1994.71,-118.681 1987.71,-118.789"/>
</g>
<!-- Node64 -->
<g id="node27" class="node"><title>Node64</title>
<g id="a_node27"><a xlink:href="_n_f_c_property_trail_module_8cpp.html" target="_top" xlink:title="NFCPropertyTrailModule.cpp">
<polygon fill="white" stroke="black" points="2239,-62 2239,-81 2380,-81 2380,-62 2239,-62"/>
<text text-anchor="middle" x="2309.5" y="-69" font-family="Helvetica,sans-Serif" font-size="10.00">NFCPropertyTrailModule.cpp</text>
</a>
</g>
</g>
<!-- Node63&#45;&gt;Node64 -->
<g id="edge31" class="edge"><title>Node63&#45;&gt;Node64</title>
<path fill="none" stroke="midnightblue" d="M2305.25,-118.537C2306.39,-106.17 2307.83,-90.6198 2308.7,-81.1273"/>
<polygon fill="midnightblue" stroke="midnightblue" points="2301.74,-118.454 2304.31,-128.734 2308.71,-119.098 2301.74,-118.454"/>
</g>
<!-- Node65&#45;&gt;Node58 -->
<g id="edge34" class="edge"><title>Node65&#45;&gt;Node58</title>
<path fill="none" stroke="midnightblue" d="M2091.76,-126.724C2033.87,-113.924 1938.47,-92.8334 1885.32,-81.0834"/>
<polygon fill="midnightblue" stroke="midnightblue" points="2091.24,-130.194 2101.76,-128.936 2092.75,-123.359 2091.24,-130.194"/>
</g>
<!-- Node66 -->
<g id="node29" class="node"><title>Node66</title>
<g id="a_node29"><a xlink:href="_n_f_c_scene_process_module_8cpp.html" target="_top" xlink:title="NFCSceneProcessModule.cpp">
<polygon fill="white" stroke="black" points="2070.5,-62 2070.5,-81 2220.5,-81 2220.5,-62 2070.5,-62"/>
<text text-anchor="middle" x="2145.5" y="-69" font-family="Helvetica,sans-Serif" font-size="10.00">NFCSceneProcessModule.cpp</text>
</a>
</g>
</g>
<!-- Node65&#45;&gt;Node66 -->
<g id="edge33" class="edge"><title>Node65&#45;&gt;Node66</title>
<path fill="none" stroke="midnightblue" d="M2141.96,-118.537C2142.91,-106.17 2144.11,-90.6198 2144.84,-81.1273"/>
<polygon fill="midnightblue" stroke="midnightblue" points="2138.45,-118.495 2141.17,-128.734 2145.43,-119.032 2138.45,-118.495"/>
</g>
<!-- Node68 -->
<g id="node31" class="node"><title>Node68</title>
<g id="a_node31"><a xlink:href="_n_f_c_login_to_master_module_8cpp.html" target="_top" xlink:title="NFCLoginToMasterModule.cpp">
<polygon fill="white" stroke="black" points="2398.5,-62 2398.5,-81 2548.5,-81 2548.5,-62 2398.5,-62"/>
<text text-anchor="middle" x="2473.5" y="-69" font-family="Helvetica,sans-Serif" font-size="10.00">NFCLoginToMasterModule.cpp</text>
</a>
</g>
</g>
<!-- Node67&#45;&gt;Node68 -->
<g id="edge36" class="edge"><title>Node67&#45;&gt;Node68</title>
<path fill="none" stroke="midnightblue" d="M2473.5,-118.537C2473.5,-106.17 2473.5,-90.6198 2473.5,-81.1273"/>
<polygon fill="midnightblue" stroke="midnightblue" points="2470,-118.734 2473.5,-128.734 2477,-118.734 2470,-118.734"/>
</g>
<!-- Node69 -->
<g id="node32" class="node"><title>Node69</title>
<g id="a_node32"><a xlink:href="_n_f_login_net___client_plugin_8cpp.html" target="_top" xlink:title="NFLoginNet_ClientPlugin.cpp">
<polygon fill="white" stroke="black" points="2567,-62 2567,-81 2710,-81 2710,-62 2567,-62"/>
<text text-anchor="middle" x="2638.5" y="-69" font-family="Helvetica,sans-Serif" font-size="10.00">NFLoginNet_ClientPlugin.cpp</text>
</a>
</g>
</g>
<!-- Node67&#45;&gt;Node69 -->
<g id="edge37" class="edge"><title>Node67&#45;&gt;Node69</title>
<path fill="none" stroke="midnightblue" d="M2504.97,-125.104C2537.73,-112.198 2588.17,-92.3272 2616.76,-81.0637"/>
<polygon fill="midnightblue" stroke="midnightblue" points="2503.43,-121.947 2495.41,-128.869 2506,-128.46 2503.43,-121.947"/>
</g>
<!-- Node71 -->
<g id="node34" class="node"><title>Node71</title>
<g id="a_node34"><a xlink:href="_n_f_c_login_net___server_module_8cpp.html" target="_top" xlink:title="NFCLoginNet_ServerModule.cpp">
<polygon fill="white" stroke="black" points="2728,-62 2728,-81 2885,-81 2885,-62 2728,-62"/>
<text text-anchor="middle" x="2806.5" y="-69" font-family="Helvetica,sans-Serif" font-size="10.00">NFCLoginNet_ServerModule.cpp</text>
</a>
</g>
</g>
<!-- Node70&#45;&gt;Node71 -->
<g id="edge39" class="edge"><title>Node70&#45;&gt;Node71</title>
<path fill="none" stroke="midnightblue" d="M2806.5,-118.537C2806.5,-106.17 2806.5,-90.6198 2806.5,-81.1273"/>
<polygon fill="midnightblue" stroke="midnightblue" points="2803,-118.734 2806.5,-128.734 2810,-118.734 2803,-118.734"/>
</g>
<!-- Node72 -->
<g id="node35" class="node"><title>Node72</title>
<g id="a_node35"><a xlink:href="_n_f_login_net___server_plugin_8cpp.html" target="_top" xlink:title="NFLoginNet_ServerPlugin.cpp">
<polygon fill="white" stroke="black" points="2903.5,-62 2903.5,-81 3049.5,-81 3049.5,-62 2903.5,-62"/>
<text text-anchor="middle" x="2976.5" y="-69" font-family="Helvetica,sans-Serif" font-size="10.00">NFLoginNet_ServerPlugin.cpp</text>
</a>
</g>
</g>
<!-- Node70&#45;&gt;Node72 -->
<g id="edge40" class="edge"><title>Node70&#45;&gt;Node72</title>
<path fill="none" stroke="midnightblue" d="M2838.48,-125.271C2872.22,-112.37 2924.52,-92.3757 2954.1,-81.0637"/>
<polygon fill="midnightblue" stroke="midnightblue" points="2837.17,-122.028 2829.07,-128.869 2839.67,-128.566 2837.17,-122.028"/>
</g>
<!-- Node74 -->
<g id="node37" class="node"><title>Node74</title>
<g id="a_node37"><a xlink:href="_n_f_c_master_net___server_module_8cpp.html" target="_top" xlink:title="NFCMasterNet_ServerModule.cpp">
<polygon fill="white" stroke="black" points="3067.5,-62 3067.5,-81 3231.5,-81 3231.5,-62 3067.5,-62"/>
<text text-anchor="middle" x="3149.5" y="-69" font-family="Helvetica,sans-Serif" font-size="10.00">NFCMasterNet_ServerModule.cpp</text>
</a>
</g>
</g>
<!-- Node73&#45;&gt;Node74 -->
<g id="edge42" class="edge"><title>Node73&#45;&gt;Node74</title>
<path fill="none" stroke="midnightblue" d="M3149.5,-118.537C3149.5,-106.17 3149.5,-90.6198 3149.5,-81.1273"/>
<polygon fill="midnightblue" stroke="midnightblue" points="3146,-118.734 3149.5,-128.734 3153,-118.734 3146,-118.734"/>
</g>
<!-- Node75 -->
<g id="node38" class="node"><title>Node75</title>
<g id="a_node38"><a xlink:href="_n_f_master_net___server_plugin_8cpp.html" target="_top" xlink:title="NFMasterNet_ServerPlugin.cpp">
<polygon fill="white" stroke="black" points="3249.5,-62 3249.5,-81 3401.5,-81 3401.5,-62 3249.5,-62"/>
<text text-anchor="middle" x="3325.5" y="-69" font-family="Helvetica,sans-Serif" font-size="10.00">NFMasterNet_ServerPlugin.cpp</text>
</a>
</g>
</g>
<!-- Node73&#45;&gt;Node75 -->
<g id="edge43" class="edge"><title>Node73&#45;&gt;Node75</title>
<path fill="none" stroke="midnightblue" d="M3182.61,-125.271C3217.54,-112.37 3271.68,-92.3757 3302.31,-81.0637"/>
<polygon fill="midnightblue" stroke="midnightblue" points="3181.04,-122.121 3172.87,-128.869 3183.46,-128.687 3181.04,-122.121"/>
</g>
<!-- Node77 -->
<g id="node40" class="node"><title>Node77</title>
<g id="a_node40"><a xlink:href="_n_f_c_proxy_server_to_game_module_8cpp.html" target="_top" xlink:title="NFCProxyServerToGameModule.cpp">
<polygon fill="white" stroke="black" points="3419.5,-62 3419.5,-81 3595.5,-81 3595.5,-62 3419.5,-62"/>
<text text-anchor="middle" x="3507.5" y="-69" font-family="Helvetica,sans-Serif" font-size="10.00">NFCProxyServerToGameModule.cpp</text>
</a>
</g>
</g>
<!-- Node76&#45;&gt;Node77 -->
<g id="edge45" class="edge"><title>Node76&#45;&gt;Node77</title>
<path fill="none" stroke="midnightblue" d="M3507.5,-118.537C3507.5,-106.17 3507.5,-90.6198 3507.5,-81.1273"/>
<polygon fill="midnightblue" stroke="midnightblue" points="3504,-118.734 3507.5,-128.734 3511,-118.734 3504,-118.734"/>
</g>
<!-- Node78 -->
<g id="node41" class="node"><title>Node78</title>
<g id="a_node41"><a xlink:href="_n_f_proxy_server_net___client_plugin_8cpp.html" target="_top" xlink:title="NFProxyServerNet_ClientPlugin.cpp">
<polygon fill="white" stroke="black" points="3614,-62 3614,-81 3787,-81 3787,-62 3614,-62"/>
<text text-anchor="middle" x="3700.5" y="-69" font-family="Helvetica,sans-Serif" font-size="10.00">NFProxyServerNet_ClientPlugin.cpp</text>
</a>
</g>
</g>
<!-- Node76&#45;&gt;Node78 -->
<g id="edge46" class="edge"><title>Node76&#45;&gt;Node78</title>
<path fill="none" stroke="midnightblue" d="M3542.83,-125.601C3581.1,-112.714 3641.2,-92.4728 3675.07,-81.0637"/>
<polygon fill="midnightblue" stroke="midnightblue" points="3541.49,-122.36 3533.13,-128.869 3543.72,-128.994 3541.49,-122.36"/>
</g>
<!-- Node79&#45;&gt;Node78 -->
<g id="edge49" class="edge"><title>Node79&#45;&gt;Node78</title>
<path fill="none" stroke="midnightblue" d="M3700.5,-118.537C3700.5,-106.17 3700.5,-90.6198 3700.5,-81.1273"/>
<polygon fill="midnightblue" stroke="midnightblue" points="3697,-118.734 3700.5,-128.734 3704,-118.734 3697,-118.734"/>
</g>
<!-- Node80 -->
<g id="node43" class="node"><title>Node80</title>
<g id="a_node43"><a xlink:href="_n_f_c_proxy_server_to_world_module_8cpp.html" target="_top" xlink:title="NFCProxyServerToWorldModule.cpp">
<polygon fill="white" stroke="black" points="3805,-62 3805,-81 3980,-81 3980,-62 3805,-62"/>
<text text-anchor="middle" x="3892.5" y="-69" font-family="Helvetica,sans-Serif" font-size="10.00">NFCProxyServerToWorldModule.cpp</text>
</a>
</g>
</g>
<!-- Node79&#45;&gt;Node80 -->
<g id="edge48" class="edge"><title>Node79&#45;&gt;Node80</title>
<path fill="none" stroke="midnightblue" d="M3735.65,-125.601C3773.71,-112.714 3833.5,-92.4728 3867.2,-81.0637"/>
<polygon fill="midnightblue" stroke="midnightblue" points="3734.35,-122.347 3726,-128.869 3736.59,-128.977 3734.35,-122.347"/>
</g>
<!-- Node82 -->
<g id="node45" class="node"><title>Node82</title>
<g id="a_node45"><a xlink:href="_n_f_c_proxy_server_net___server_module_8cpp.html" target="_top" xlink:title="NFCProxyServerNet_Server\lModule.cpp">
<polygon fill="white" stroke="black" points="3998.5,-56.5 3998.5,-86.5 4134.5,-86.5 4134.5,-56.5 3998.5,-56.5"/>
<text text-anchor="start" x="4006.5" y="-74.5" font-family="Helvetica,sans-Serif" font-size="10.00">NFCProxyServerNet_Server</text>
<text text-anchor="middle" x="4066.5" y="-63.5" font-family="Helvetica,sans-Serif" font-size="10.00">Module.cpp</text>
</a>
</g>
</g>
<!-- Node81&#45;&gt;Node82 -->
<g id="edge51" class="edge"><title>Node81&#45;&gt;Node82</title>
<path fill="none" stroke="midnightblue" d="M4066.5,-113.108C4066.5,-104.154 4066.5,-94.3227 4066.5,-86.5765"/>
<polygon fill="midnightblue" stroke="midnightblue" points="4063,-113.396 4066.5,-123.396 4070,-113.396 4063,-113.396"/>
</g>
<!-- Node83 -->
<g id="node46" class="node"><title>Node83</title>
<g id="a_node46"><a xlink:href="_n_f_proxy_server_net___server_plugin_8cpp.html" target="_top" xlink:title="NFProxyServerNet_ServerPlugin.cpp">
<polygon fill="white" stroke="black" points="4153,-62 4153,-81 4328,-81 4328,-62 4153,-62"/>
<text text-anchor="middle" x="4240.5" y="-69" font-family="Helvetica,sans-Serif" font-size="10.00">NFProxyServerNet_ServerPlugin.cpp</text>
</a>
</g>
</g>
<!-- Node81&#45;&gt;Node83 -->
<g id="edge52" class="edge"><title>Node81&#45;&gt;Node83</title>
<path fill="none" stroke="midnightblue" d="M4113.92,-119.784C4147.66,-107.181 4191.49,-90.8082 4217.73,-81.007"/>
<polygon fill="midnightblue" stroke="midnightblue" points="4112.4,-116.618 4104.26,-123.396 4114.85,-123.175 4112.4,-116.618"/>
</g>
<!-- Node85 -->
<g id="node48" class="node"><title>Node85</title>
<g id="a_node48"><a xlink:href="_n_f_c_world_to_master_module_8cpp.html" target="_top" xlink:title="NFCWorldToMasterModule.cpp">
<polygon fill="white" stroke="black" points="4346.5,-62 4346.5,-81 4498.5,-81 4498.5,-62 4346.5,-62"/>
<text text-anchor="middle" x="4422.5" y="-69" font-family="Helvetica,sans-Serif" font-size="10.00">NFCWorldToMasterModule.cpp</text>
</a>
</g>
</g>
<!-- Node84&#45;&gt;Node85 -->
<g id="edge54" class="edge"><title>Node84&#45;&gt;Node85</title>
<path fill="none" stroke="midnightblue" d="M4344.39,-123.269C4364.19,-110.403 4392.69,-91.879 4409.23,-81.1273"/>
<polygon fill="midnightblue" stroke="midnightblue" points="4342.46,-120.349 4335.99,-128.734 4346.28,-126.218 4342.46,-120.349"/>
</g>
<!-- Node86 -->
<g id="node49" class="node"><title>Node86</title>
<g id="a_node49"><a xlink:href="_n_f_world_net___client_plugin_8cpp.html" target="_top" xlink:title="NFWorldNet_ClientPlugin.cpp">
<polygon fill="white" stroke="black" points="4516.5,-62 4516.5,-81 4662.5,-81 4662.5,-62 4516.5,-62"/>
<text text-anchor="middle" x="4589.5" y="-69" font-family="Helvetica,sans-Serif" font-size="10.00">NFWorldNet_ClientPlugin.cpp</text>
</a>
</g>
</g>
<!-- Node84&#45;&gt;Node86 -->
<g id="edge55" class="edge"><title>Node84&#45;&gt;Node86</title>
<path fill="none" stroke="midnightblue" d="M4367.42,-126.564C4420.06,-113.75 4506.18,-92.7848 4554.24,-81.0834"/>
<polygon fill="midnightblue" stroke="midnightblue" points="4366.57,-123.169 4357.68,-128.936 4368.22,-129.971 4366.57,-123.169"/>
</g>
</g>
</svg>
