<?xml version="1.0" encoding="UTF-8" standalone="no"?>
<!DOCTYPE svg PUBLIC "-//W3C//DTD SVG 1.1//EN"
 "http://www.w3.org/Graphics/SVG/1.1/DTD/svg11.dtd">
<!-- Generated by graphviz version 2.38.0 (20140413.2041)
 -->
<!-- Title: NFSingleton.h Pages: 1 -->
<svg width="510pt" height="140pt"
 viewBox="0.00 0.00 509.50 140.00" xmlns="http://www.w3.org/2000/svg" xmlns:xlink="http://www.w3.org/1999/xlink">
<g id="graph0" class="graph" transform="scale(1 1) rotate(0) translate(4 136)">
<title>NFSingleton.h</title>
<polygon fill="white" stroke="none" points="-4,4 -4,-136 505.5,-136 505.5,4 -4,4"/>
<!-- Node2 -->
<g id="node1" class="node"><title>Node2</title>
<polygon fill="#bfbfbf" stroke="black" points="212.5,-112.5 212.5,-131.5 290.5,-131.5 290.5,-112.5 212.5,-112.5"/>
<text text-anchor="middle" x="251.5" y="-119.5" font-family="Helvetica,sans-Serif" font-size="10.00">NFSingleton.h</text>
</g>
<!-- Node3 -->
<g id="node2" class="node"><title>Node3</title>
<g id="a_node2"><a xlink:href="_n_f_c_mem_manger_8h.html" target="_top" xlink:title="NFCMemManger.h">
<polygon fill="white" stroke="black" points="135.5,-56.5 135.5,-75.5 233.5,-75.5 233.5,-56.5 135.5,-56.5"/>
<text text-anchor="middle" x="184.5" y="-63.5" font-family="Helvetica,sans-Serif" font-size="10.00">NFCMemManger.h</text>
</a>
</g>
</g>
<!-- Node2&#45;&gt;Node3 -->
<g id="edge1" class="edge"><title>Node2&#45;&gt;Node3</title>
<path fill="none" stroke="midnightblue" d="M232.665,-105.82C220.662,-96.1452 205.528,-83.9481 195.461,-75.8339"/>
<polygon fill="midnightblue" stroke="midnightblue" points="230.753,-108.774 240.735,-112.324 235.146,-103.324 230.753,-108.774"/>
</g>
<!-- Node6 -->
<g id="node5" class="node"><title>Node6</title>
<g id="a_node5"><a xlink:href="_n_f_c_plugin_manager_8h.html" target="_top" xlink:title="NFCPluginManager.h">
<polygon fill="white" stroke="black" points="265,-56.5 265,-75.5 374,-75.5 374,-56.5 265,-56.5"/>
<text text-anchor="middle" x="319.5" y="-63.5" font-family="Helvetica,sans-Serif" font-size="10.00">NFCPluginManager.h</text>
</a>
</g>
</g>
<!-- Node2&#45;&gt;Node6 -->
<g id="edge4" class="edge"><title>Node2&#45;&gt;Node6</title>
<path fill="none" stroke="midnightblue" d="M270.262,-106.101C282.5,-96.3824 298.059,-84.0269 308.376,-75.8339"/>
<polygon fill="midnightblue" stroke="midnightblue" points="268.08,-103.364 262.425,-112.324 272.433,-108.846 268.08,-103.364"/>
</g>
<!-- Node4 -->
<g id="node3" class="node"><title>Node4</title>
<g id="a_node3"><a xlink:href="_n_f_c_mem_manger_8cpp.html" target="_top" xlink:title="NFCMemManger.cpp">
<polygon fill="white" stroke="black" points="0,-0.5 0,-19.5 109,-19.5 109,-0.5 0,-0.5"/>
<text text-anchor="middle" x="54.5" y="-7.5" font-family="Helvetica,sans-Serif" font-size="10.00">NFCMemManger.cpp</text>
</a>
</g>
</g>
<!-- Node3&#45;&gt;Node4 -->
<g id="edge2" class="edge"><title>Node3&#45;&gt;Node4</title>
<path fill="none" stroke="midnightblue" d="M154.415,-52.503C130.043,-42.3795 96.36,-28.388 75.0025,-19.5164"/>
<polygon fill="midnightblue" stroke="midnightblue" points="153.323,-55.8397 163.901,-56.4435 156.009,-49.3752 153.323,-55.8397"/>
</g>
<!-- Node5 -->
<g id="node4" class="node"><title>Node5</title>
<g id="a_node4"><a xlink:href="_n_f_c_kernel_module_8cpp.html" target="_top" xlink:title="NFCKernelModule.cpp">
<polygon fill="white" stroke="black" points="127.5,-0.5 127.5,-19.5 241.5,-19.5 241.5,-0.5 127.5,-0.5"/>
<text text-anchor="middle" x="184.5" y="-7.5" font-family="Helvetica,sans-Serif" font-size="10.00">NFCKernelModule.cpp</text>
</a>
</g>
</g>
<!-- Node3&#45;&gt;Node5 -->
<g id="edge3" class="edge"><title>Node3&#45;&gt;Node5</title>
<path fill="none" stroke="midnightblue" d="M184.5,-45.8045C184.5,-36.9102 184.5,-26.7798 184.5,-19.7511"/>
<polygon fill="midnightblue" stroke="midnightblue" points="181,-46.083 184.5,-56.083 188,-46.083 181,-46.083"/>
</g>
<!-- Node7 -->
<g id="node6" class="node"><title>Node7</title>
<g id="a_node6"><a xlink:href="_n_f_c_plugin_manager_8cpp.html" target="_top" xlink:title="NFCPluginManager.cpp">
<polygon fill="white" stroke="black" points="260,-0.5 260,-19.5 379,-19.5 379,-0.5 260,-0.5"/>
<text text-anchor="middle" x="319.5" y="-7.5" font-family="Helvetica,sans-Serif" font-size="10.00">NFCPluginManager.cpp</text>
</a>
</g>
</g>
<!-- Node6&#45;&gt;Node7 -->
<g id="edge5" class="edge"><title>Node6&#45;&gt;Node7</title>
<path fill="none" stroke="midnightblue" d="M319.5,-45.8045C319.5,-36.9102 319.5,-26.7798 319.5,-19.7511"/>
<polygon fill="midnightblue" stroke="midnightblue" points="316,-46.083 319.5,-56.083 323,-46.083 316,-46.083"/>
</g>
<!-- Node8 -->
<g id="node7" class="node"><title>Node8</title>
<g id="a_node7"><a xlink:href="_n_f_plugin_loader_8cpp.html" target="_top" xlink:title="NFPluginLoader.cpp">
<polygon fill="white" stroke="black" points="397.5,-0.5 397.5,-19.5 501.5,-19.5 501.5,-0.5 397.5,-0.5"/>
<text text-anchor="middle" x="449.5" y="-7.5" font-family="Helvetica,sans-Serif" font-size="10.00">NFPluginLoader.cpp</text>
</a>
</g>
</g>
<!-- Node6&#45;&gt;Node8 -->
<g id="edge6" class="edge"><title>Node6&#45;&gt;Node8</title>
<path fill="none" stroke="midnightblue" d="M349.585,-52.503C373.957,-42.3795 407.64,-28.388 428.997,-19.5164"/>
<polygon fill="midnightblue" stroke="midnightblue" points="347.991,-49.3752 340.099,-56.4435 350.677,-55.8397 347.991,-49.3752"/>
</g>
</g>
</svg>
