<?xml version="1.0" encoding="UTF-8" standalone="no"?>
<!DOCTYPE svg PUBLIC "-//W3C//DTD SVG 1.1//EN"
 "http://www.w3.org/Graphics/SVG/1.1/DTD/svg11.dtd">
<!-- Generated by graphviz version 2.38.0 (20140413.2041)
 -->
<!-- Title: NFGameServerNet_ClientPlugin.h Pages: 1 -->
<svg width="376pt" height="84pt"
 viewBox="0.00 0.00 375.50 84.00" xmlns="http://www.w3.org/2000/svg" xmlns:xlink="http://www.w3.org/1999/xlink">
<g id="graph0" class="graph" transform="scale(1 1) rotate(0) translate(4 80)">
<title>NFGameServerNet_ClientPlugin.h</title>
<polygon fill="white" stroke="none" points="-4,4 -4,-80 371.5,-80 371.5,4 -4,4"/>
<!-- Node35 -->
<g id="node1" class="node"><title>Node35</title>
<polygon fill="#bfbfbf" stroke="black" points="102.5,-56.5 102.5,-75.5 265.5,-75.5 265.5,-56.5 102.5,-56.5"/>
<text text-anchor="middle" x="184" y="-63.5" font-family="Helvetica,sans-Serif" font-size="10.00">NFGameServerNet_ClientPlugin.h</text>
</g>
<!-- Node36 -->
<g id="node2" class="node"><title>Node36</title>
<g id="a_node2"><a xlink:href="_n_f_c_game_server_to_world_module_8cpp.html" target="_top" xlink:title="NFCGameServerToWorldModule.cpp">
<polygon fill="white" stroke="black" points="0,-0.5 0,-19.5 176,-19.5 176,-0.5 0,-0.5"/>
<text text-anchor="middle" x="88" y="-7.5" font-family="Helvetica,sans-Serif" font-size="10.00">NFCGameServerToWorldModule.cpp</text>
</a>
</g>
</g>
<!-- Node35&#45;&gt;Node36 -->
<g id="edge1" class="edge"><title>Node35&#45;&gt;Node36</title>
<path fill="none" stroke="midnightblue" d="M159.426,-51.1774C141.761,-41.2407 118.487,-28.1492 103.386,-19.6545"/>
<polygon fill="midnightblue" stroke="midnightblue" points="158.144,-54.4718 168.576,-56.324 161.576,-48.3708 158.144,-54.4718"/>
</g>
<!-- Node37 -->
<g id="node3" class="node"><title>Node37</title>
<g id="a_node3"><a xlink:href="_n_f_game_server_net___client_plugin_8cpp.html" target="_top" xlink:title="NFGameServerNet_ClientPlugin.cpp">
<polygon fill="white" stroke="black" points="194.5,-0.5 194.5,-19.5 367.5,-19.5 367.5,-0.5 194.5,-0.5"/>
<text text-anchor="middle" x="281" y="-7.5" font-family="Helvetica,sans-Serif" font-size="10.00">NFGameServerNet_ClientPlugin.cpp</text>
</a>
</g>
</g>
<!-- Node35&#45;&gt;Node37 -->
<g id="edge2" class="edge"><title>Node35&#45;&gt;Node37</title>
<path fill="none" stroke="midnightblue" d="M208.335,-51.4526C226.243,-41.4835 250.054,-28.2279 265.454,-19.6545"/>
<polygon fill="midnightblue" stroke="midnightblue" points="206.62,-48.4018 199.585,-56.324 210.025,-54.5179 206.62,-48.4018"/>
</g>
</g>
</svg>
