<?xml version="1.0" encoding="UTF-8" standalone="no"?>
<!DOCTYPE svg PUBLIC "-//W3C//DTD SVG 1.1//EN"
 "http://www.w3.org/Graphics/SVG/1.1/DTD/svg11.dtd">
<!-- Generated by graphviz version 2.38.0 (20140413.2041)
 -->
<!-- Title: NFCWorldToMasterModule.h Pages: 1 -->
<svg width="324pt" height="84pt"
 viewBox="0.00 0.00 324.00 84.00" xmlns="http://www.w3.org/2000/svg" xmlns:xlink="http://www.w3.org/1999/xlink">
<g id="graph0" class="graph" transform="scale(1 1) rotate(0) translate(4 80)">
<title>NFCWorldToMasterModule.h</title>
<polygon fill="white" stroke="none" points="-4,4 -4,-80 320,-80 320,4 -4,4"/>
<!-- Node69 -->
<g id="node1" class="node"><title>Node69</title>
<polygon fill="#bfbfbf" stroke="black" points="88,-56.5 88,-75.5 230,-75.5 230,-56.5 88,-56.5"/>
<text text-anchor="middle" x="159" y="-63.5" font-family="Helvetica,sans-Serif" font-size="10.00">NFCWorldToMasterModule.h</text>
</g>
<!-- Node70 -->
<g id="node2" class="node"><title>Node70</title>
<g id="a_node2"><a xlink:href="_n_f_c_world_to_master_module_8cpp.html" target="_top" xlink:title="NFCWorldToMasterModule.cpp">
<polygon fill="white" stroke="black" points="0,-0.5 0,-19.5 152,-19.5 152,-0.5 0,-0.5"/>
<text text-anchor="middle" x="76" y="-7.5" font-family="Helvetica,sans-Serif" font-size="10.00">NFCWorldToMasterModule.cpp</text>
</a>
</g>
</g>
<!-- Node69&#45;&gt;Node70 -->
<g id="edge1" class="edge"><title>Node69&#45;&gt;Node70</title>
<path fill="none" stroke="midnightblue" d="M136.901,-50.6221C121.738,-40.7574 102.117,-27.9919 89.3023,-19.6545"/>
<polygon fill="midnightblue" stroke="midnightblue" points="135.374,-53.8042 145.665,-56.324 139.191,-47.9367 135.374,-53.8042"/>
</g>
<!-- Node71 -->
<g id="node3" class="node"><title>Node71</title>
<g id="a_node3"><a xlink:href="_n_f_world_net___client_plugin_8cpp.html" target="_top" xlink:title="NFWorldNet_ClientPlugin.cpp">
<polygon fill="white" stroke="black" points="170,-0.5 170,-19.5 316,-19.5 316,-0.5 170,-0.5"/>
<text text-anchor="middle" x="243" y="-7.5" font-family="Helvetica,sans-Serif" font-size="10.00">NFWorldNet_ClientPlugin.cpp</text>
</a>
</g>
</g>
<!-- Node69&#45;&gt;Node71 -->
<g id="edge2" class="edge"><title>Node69&#45;&gt;Node71</title>
<path fill="none" stroke="midnightblue" d="M180.932,-50.9005C196.335,-40.9986 216.446,-28.0705 229.537,-19.6545"/>
<polygon fill="midnightblue" stroke="midnightblue" points="179.015,-47.9722 172.496,-56.324 182.801,-53.8605 179.015,-47.9722"/>
</g>
</g>
</svg>
