<?xml version="1.0" encoding="UTF-8" standalone="no"?>
<!DOCTYPE svg PUBLIC "-//W3C//DTD SVG 1.1//EN"
 "http://www.w3.org/Graphics/SVG/1.1/DTD/svg11.dtd">
<!-- Generated by graphviz version 2.38.0 (20140413.2041)
 -->
<!-- Title: NFCHeartBeatManager.h Pages: 1 -->
<svg width="763pt" height="140pt"
 viewBox="0.00 0.00 762.50 140.00" xmlns="http://www.w3.org/2000/svg" xmlns:xlink="http://www.w3.org/1999/xlink">
<g id="graph0" class="graph" transform="scale(1 1) rotate(0) translate(4 136)">
<title>NFCHeartBeatManager.h</title>
<polygon fill="white" stroke="none" points="-4,4 -4,-136 758.5,-136 758.5,4 -4,4"/>
<!-- Node31 -->
<g id="node1" class="node"><title>Node31</title>
<polygon fill="#bfbfbf" stroke="black" points="258.5,-112.5 258.5,-131.5 383.5,-131.5 383.5,-112.5 258.5,-112.5"/>
<text text-anchor="middle" x="321" y="-119.5" font-family="Helvetica,sans-Serif" font-size="10.00">NFCHeartBeatManager.h</text>
</g>
<!-- Node32 -->
<g id="node2" class="node"><title>Node32</title>
<g id="a_node2"><a xlink:href="_n_f_c_heart_beat_manager_8cpp.html" target="_top" xlink:title="NFCHeartBeatManager.cpp">
<polygon fill="white" stroke="black" points="0,-56.5 0,-75.5 136,-75.5 136,-56.5 0,-56.5"/>
<text text-anchor="middle" x="68" y="-63.5" font-family="Helvetica,sans-Serif" font-size="10.00">NFCHeartBeatManager.cpp</text>
</a>
</g>
</g>
<!-- Node31&#45;&gt;Node32 -->
<g id="edge1" class="edge"><title>Node31&#45;&gt;Node32</title>
<path fill="none" stroke="midnightblue" d="M271.082,-110.346C223.269,-100.141 152.052,-84.94 107.901,-75.5164"/>
<polygon fill="midnightblue" stroke="midnightblue" points="270.401,-113.779 280.911,-112.444 271.862,-106.933 270.401,-113.779"/>
</g>
<!-- Node33 -->
<g id="node3" class="node"><title>Node33</title>
<g id="a_node3"><a xlink:href="_n_f_c_object_8cpp.html" target="_top" xlink:title="NFCObject.cpp">
<polygon fill="white" stroke="black" points="154.5,-56.5 154.5,-75.5 237.5,-75.5 237.5,-56.5 154.5,-56.5"/>
<text text-anchor="middle" x="196" y="-63.5" font-family="Helvetica,sans-Serif" font-size="10.00">NFCObject.cpp</text>
</a>
</g>
</g>
<!-- Node31&#45;&gt;Node33 -->
<g id="edge2" class="edge"><title>Node31&#45;&gt;Node33</title>
<path fill="none" stroke="midnightblue" d="M291.759,-108.368C268.35,-98.2553 236.159,-84.3486 215.714,-75.5164"/>
<polygon fill="midnightblue" stroke="midnightblue" points="290.625,-111.691 301.193,-112.444 293.401,-105.265 290.625,-111.691"/>
</g>
<!-- Node34 -->
<g id="node4" class="node"><title>Node34</title>
<g id="a_node4"><a xlink:href="_n_f_c_proxy_server_to_game_module_8h.html" target="_top" xlink:title="NFCProxyServerToGameModule.h">
<polygon fill="white" stroke="black" points="294.5,-56.5 294.5,-75.5 459.5,-75.5 459.5,-56.5 294.5,-56.5"/>
<text text-anchor="middle" x="377" y="-63.5" font-family="Helvetica,sans-Serif" font-size="10.00">NFCProxyServerToGameModule.h</text>
</a>
</g>
</g>
<!-- Node31&#45;&gt;Node34 -->
<g id="edge3" class="edge"><title>Node31&#45;&gt;Node34</title>
<path fill="none" stroke="midnightblue" d="M337.33,-105.253C347.265,-95.6731 359.588,-83.7906 367.839,-75.8339"/>
<polygon fill="midnightblue" stroke="midnightblue" points="334.766,-102.863 329.997,-112.324 339.625,-107.902 334.766,-102.863"/>
</g>
<!-- Node35 -->
<g id="node5" class="node"><title>Node35</title>
<g id="a_node5"><a xlink:href="_n_f_c_proxy_server_to_game_module_8cpp.html" target="_top" xlink:title="NFCProxyServerToGameModule.cpp">
<polygon fill="white" stroke="black" points="180,-0.5 180,-19.5 356,-19.5 356,-0.5 180,-0.5"/>
<text text-anchor="middle" x="268" y="-7.5" font-family="Helvetica,sans-Serif" font-size="10.00">NFCProxyServerToGameModule.cpp</text>
</a>
</g>
</g>
<!-- Node31&#45;&gt;Node35 -->
<g id="edge6" class="edge"><title>Node31&#45;&gt;Node35</title>
<path fill="none" stroke="midnightblue" d="M305.895,-104.814C298.992,-96.6827 291.211,-86.3708 286,-76 276.537,-57.1666 271.483,-32.6827 269.315,-19.8052"/>
<polygon fill="midnightblue" stroke="midnightblue" points="303.374,-107.246 312.626,-112.408 308.613,-102.603 303.374,-107.246"/>
</g>
<!-- Node37 -->
<g id="node7" class="node"><title>Node37</title>
<g id="a_node7"><a xlink:href="_n_f_c_proxy_server_to_world_module_8h.html" target="_top" xlink:title="NFCProxyServerToWorldModule.h">
<polygon fill="white" stroke="black" points="478,-56.5 478,-75.5 642,-75.5 642,-56.5 478,-56.5"/>
<text text-anchor="middle" x="560" y="-63.5" font-family="Helvetica,sans-Serif" font-size="10.00">NFCProxyServerToWorldModule.h</text>
</a>
</g>
</g>
<!-- Node31&#45;&gt;Node37 -->
<g id="edge7" class="edge"><title>Node31&#45;&gt;Node37</title>
<path fill="none" stroke="midnightblue" d="M368.724,-110.217C413.885,-100.013 480.773,-84.9006 522.307,-75.5164"/>
<polygon fill="midnightblue" stroke="midnightblue" points="367.853,-106.826 358.87,-112.444 369.396,-113.654 367.853,-106.826"/>
</g>
<!-- Node38 -->
<g id="node8" class="node"><title>Node38</title>
<g id="a_node8"><a xlink:href="_n_f_c_proxy_server_to_world_module_8cpp.html" target="_top" xlink:title="NFCProxyServerToWorldModule.cpp">
<polygon fill="white" stroke="black" points="579.5,-0.5 579.5,-19.5 754.5,-19.5 754.5,-0.5 579.5,-0.5"/>
<text text-anchor="middle" x="667" y="-7.5" font-family="Helvetica,sans-Serif" font-size="10.00">NFCProxyServerToWorldModule.cpp</text>
</a>
</g>
</g>
<!-- Node31&#45;&gt;Node38 -->
<g id="edge10" class="edge"><title>Node31&#45;&gt;Node38</title>
<path fill="none" stroke="midnightblue" d="M393.756,-120.347C479.276,-118.037 614.232,-109.069 651,-76 667.072,-61.5449 668.236,-33.7818 667.67,-19.6797"/>
<polygon fill="midnightblue" stroke="midnightblue" points="393.492,-116.853 383.581,-120.597 393.664,-123.851 393.492,-116.853"/>
</g>
<!-- Node34&#45;&gt;Node35 -->
<g id="edge4" class="edge"><title>Node34&#45;&gt;Node35</title>
<path fill="none" stroke="midnightblue" d="M350.481,-51.8622C330.27,-41.8492 303.013,-28.3458 285.469,-19.6545"/>
<polygon fill="midnightblue" stroke="midnightblue" points="348.973,-55.0209 359.487,-56.324 352.08,-48.7485 348.973,-55.0209"/>
</g>
<!-- Node36 -->
<g id="node6" class="node"><title>Node36</title>
<g id="a_node6"><a xlink:href="_n_f_proxy_server_net___client_plugin_8cpp.html" target="_top" xlink:title="NFProxyServerNet_ClientPlugin.cpp">
<polygon fill="white" stroke="black" points="379.5,-0.5 379.5,-19.5 552.5,-19.5 552.5,-0.5 379.5,-0.5"/>
<text text-anchor="middle" x="466" y="-7.5" font-family="Helvetica,sans-Serif" font-size="10.00">NFProxyServerNet_ClientPlugin.cpp</text>
</a>
</g>
</g>
<!-- Node34&#45;&gt;Node36 -->
<g id="edge5" class="edge"><title>Node34&#45;&gt;Node36</title>
<path fill="none" stroke="midnightblue" d="M400.238,-50.9005C416.558,-40.9986 437.865,-28.0705 451.736,-19.6545"/>
<polygon fill="midnightblue" stroke="midnightblue" points="398.033,-48.1444 391.299,-56.324 401.664,-54.1289 398.033,-48.1444"/>
</g>
<!-- Node37&#45;&gt;Node36 -->
<g id="edge9" class="edge"><title>Node37&#45;&gt;Node36</title>
<path fill="none" stroke="midnightblue" d="M535.938,-51.1774C518.641,-41.2407 495.852,-28.1492 481.065,-19.6545"/>
<polygon fill="midnightblue" stroke="midnightblue" points="534.483,-54.3775 544.897,-56.324 537.97,-48.3078 534.483,-54.3775"/>
</g>
<!-- Node37&#45;&gt;Node38 -->
<g id="edge8" class="edge"><title>Node37&#45;&gt;Node38</title>
<path fill="none" stroke="midnightblue" d="M586.302,-51.7261C606.115,-41.7271 632.707,-28.3065 649.851,-19.6545"/>
<polygon fill="midnightblue" stroke="midnightblue" points="584.542,-48.6938 577.191,-56.324 587.696,-54.9431 584.542,-48.6938"/>
</g>
</g>
</svg>
