<?xml version="1.0" encoding="UTF-8" standalone="no"?>
<!DOCTYPE svg PUBLIC "-//W3C//DTD SVG 1.1//EN"
 "http://www.w3.org/Graphics/SVG/1.1/DTD/svg11.dtd">
<!-- Generated by graphviz version 2.38.0 (20140413.2041)
 -->
<!-- Title: NFCPropertyManager.h Pages: 1 -->
<svg width="1539pt" height="431pt"
 viewBox="0.00 0.00 1538.92 431.00" xmlns="http://www.w3.org/2000/svg" xmlns:xlink="http://www.w3.org/1999/xlink">
<g id="graph0" class="graph" transform="scale(1 1) rotate(0) translate(4 427)">
<title>NFCPropertyManager.h</title>
<polygon fill="white" stroke="none" points="-4,4 -4,-427 1534.92,-427 1534.92,4 -4,4"/>
<!-- Node0 -->
<g id="node1" class="node"><title>Node0</title>
<polygon fill="#bfbfbf" stroke="black" points="984.5,-403.5 984.5,-422.5 1103.5,-422.5 1103.5,-403.5 984.5,-403.5"/>
<text text-anchor="middle" x="1044" y="-410.5" font-family="Helvetica,sans-Serif" font-size="10.00">NFCPropertyManager.h</text>
</g>
<!-- Node1 -->
<g id="node2" class="node"><title>Node1</title>
<g id="a_node2"><a xlink:href="_n_f_define_8h.html" target="_top" xlink:title="NFDefine.h">
<polygon fill="white" stroke="black" points="770.5,-235.5 770.5,-254.5 835.5,-254.5 835.5,-235.5 770.5,-235.5"/>
<text text-anchor="middle" x="803" y="-242.5" font-family="Helvetica,sans-Serif" font-size="10.00">NFDefine.h</text>
</a>
</g>
</g>
<!-- Node0&#45;&gt;Node1 -->
<g id="edge1" class="edge"><title>Node0&#45;&gt;Node1</title>
<path fill="none" stroke="midnightblue" d="M1026.84,-403.364C1010.16,-394.762 984.298,-380.872 963,-367 909.577,-332.205 850.742,-285.3 821.553,-261.396"/>
<polygon fill="midnightblue" stroke="midnightblue" points="823.43,-258.408 813.485,-254.755 818.982,-263.813 823.43,-258.408"/>
</g>
<!-- Node3 -->
<g id="node4" class="node"><title>Node3</title>
<g id="a_node4"><a xlink:href="_a_f_data_list_8hpp.html" target="_top" xlink:title="AFDataList.hpp">
<polygon fill="white" stroke="black" points="761,-179.5 761,-198.5 845,-198.5 845,-179.5 761,-179.5"/>
<text text-anchor="middle" x="803" y="-186.5" font-family="Helvetica,sans-Serif" font-size="10.00">AFDataList.hpp</text>
</a>
</g>
</g>
<!-- Node0&#45;&gt;Node3 -->
<g id="edge47" class="edge"><title>Node0&#45;&gt;Node3</title>
<path fill="none" stroke="midnightblue" d="M1034.55,-403.297C998.184,-369.796 866.919,-248.88 819.901,-205.569"/>
<polygon fill="midnightblue" stroke="midnightblue" points="822.109,-202.843 812.382,-198.643 817.366,-207.992 822.109,-202.843"/>
</g>
<!-- Node27 -->
<g id="node28" class="node"><title>Node27</title>
<g id="a_node28"><a xlink:href="_n_f_map_8h.html" target="_top" xlink:title="NFMap.h">
<polygon fill="white" stroke="black" points="1307,-235.5 1307,-254.5 1363,-254.5 1363,-235.5 1307,-235.5"/>
<text text-anchor="middle" x="1335" y="-242.5" font-family="Helvetica,sans-Serif" font-size="10.00">NFMap.h</text>
</a>
</g>
</g>
<!-- Node0&#45;&gt;Node27 -->
<g id="edge33" class="edge"><title>Node0&#45;&gt;Node27</title>
<path fill="none" stroke="midnightblue" d="M1059.24,-403.309C1106.87,-376.136 1253.25,-292.636 1311.11,-259.63"/>
<polygon fill="midnightblue" stroke="midnightblue" points="1312.96,-262.6 1319.92,-254.605 1309.49,-256.52 1312.96,-262.6"/>
</g>
<!-- Node29 -->
<g id="node30" class="node"><title>Node29</title>
<g id="a_node30"><a xlink:href="_n_f_i_property_manager_8h.html" target="_top" xlink:title="NFIPropertyManager.h">
<polygon fill="white" stroke="black" points="1220,-347.5 1220,-366.5 1334,-366.5 1334,-347.5 1220,-347.5"/>
<text text-anchor="middle" x="1277" y="-354.5" font-family="Helvetica,sans-Serif" font-size="10.00">NFIPropertyManager.h</text>
</a>
</g>
</g>
<!-- Node0&#45;&gt;Node29 -->
<g id="edge48" class="edge"><title>Node0&#45;&gt;Node29</title>
<path fill="none" stroke="midnightblue" d="M1080.92,-403.444C1121.4,-394.063 1186.42,-378.993 1230.38,-368.804"/>
<polygon fill="midnightblue" stroke="midnightblue" points="1231.3,-372.184 1240.25,-366.516 1229.72,-365.365 1231.3,-372.184"/>
</g>
<!-- Node2 -->
<g id="node3" class="node"><title>Node2</title>
<polygon fill="white" stroke="#bfbfbf" points="0,-118 0,-137 58,-137 58,-118 0,-118"/>
<text text-anchor="middle" x="29" y="-125" font-family="Helvetica,sans-Serif" font-size="10.00">functional</text>
</g>
<!-- Node1&#45;&gt;Node2 -->
<g id="edge2" class="edge"><title>Node1&#45;&gt;Node2</title>
<path fill="none" stroke="midnightblue" d="M770.461,-240.633C669.126,-229.881 350.397,-194.062 90,-143 82.8031,-141.589 75.1691,-139.916 67.8268,-138.217"/>
<polygon fill="midnightblue" stroke="midnightblue" points="68.6009,-134.804 58.0636,-135.906 66.9886,-141.615 68.6009,-134.804"/>
</g>
<!-- Node1&#45;&gt;Node3 -->
<g id="edge3" class="edge"><title>Node1&#45;&gt;Node3</title>
<path fill="none" stroke="midnightblue" d="M803,-235.083C803,-228.006 803,-217.861 803,-208.986"/>
<polygon fill="midnightblue" stroke="midnightblue" points="806.5,-208.751 803,-198.751 799.5,-208.751 806.5,-208.751"/>
</g>
<!-- Node19 -->
<g id="node20" class="node"><title>Node19</title>
<g id="a_node20"><a xlink:href="_n_f_g_u_i_d_8h.html" target="_top" xlink:title="NFComm/NFPluginModule\l/NFGUID.h">
<polygon fill="white" stroke="black" points="114,-112.5 114,-142.5 246,-142.5 246,-112.5 114,-112.5"/>
<text text-anchor="start" x="122" y="-130.5" font-family="Helvetica,sans-Serif" font-size="10.00">NFComm/NFPluginModule</text>
<text text-anchor="middle" x="180" y="-119.5" font-family="Helvetica,sans-Serif" font-size="10.00">/NFGUID.h</text>
</a>
</g>
</g>
<!-- Node1&#45;&gt;Node19 -->
<g id="edge32" class="edge"><title>Node1&#45;&gt;Node19</title>
<path fill="none" stroke="midnightblue" d="M770.382,-237.953C674.696,-220.213 392.902,-167.971 256.158,-142.619"/>
<polygon fill="midnightblue" stroke="midnightblue" points="256.641,-139.149 246.17,-140.767 255.365,-146.032 256.641,-139.149"/>
</g>
<!-- Node3&#45;&gt;Node2 -->
<g id="edge16" class="edge"><title>Node3&#45;&gt;Node2</title>
<path fill="none" stroke="midnightblue" d="M760.737,-186.861C625.643,-182.991 205.359,-169.112 72,-143 68.1101,-142.238 64.0883,-141.216 60.1367,-140.065"/>
<polygon fill="midnightblue" stroke="midnightblue" points="61.1644,-136.719 50.5737,-137.013 59.0363,-143.388 61.1644,-136.719"/>
</g>
<!-- Node4 -->
<g id="node5" class="node"><title>Node4</title>
<polygon fill="white" stroke="#bfbfbf" points="1238.5,-0.5 1238.5,-19.5 1279.5,-19.5 1279.5,-0.5 1238.5,-0.5"/>
<text text-anchor="middle" x="1259" y="-7.5" font-family="Helvetica,sans-Serif" font-size="10.00">string</text>
</g>
<!-- Node3&#45;&gt;Node4 -->
<g id="edge4" class="edge"><title>Node3&#45;&gt;Node4</title>
<path fill="none" stroke="midnightblue" d="M835.926,-179.491C860.986,-172.13 895.699,-159.982 923,-143 940.087,-132.371 938.719,-122.311 956,-112 1047.04,-57.6836 1171.08,-28.1658 1228.07,-16.6999"/>
<polygon fill="midnightblue" stroke="midnightblue" points="1229.08,-20.0672 1238.22,-14.7062 1227.74,-13.1983 1229.08,-20.0672"/>
</g>
<!-- Node5 -->
<g id="node6" class="node"><title>Node5</title>
<polygon fill="white" stroke="#bfbfbf" points="868,-118 868,-137 914,-137 914,-118 868,-118"/>
<text text-anchor="middle" x="891" y="-125" font-family="Helvetica,sans-Serif" font-size="10.00">cstring</text>
</g>
<!-- Node3&#45;&gt;Node5 -->
<g id="edge5" class="edge"><title>Node3&#45;&gt;Node5</title>
<path fill="none" stroke="midnightblue" d="M815.608,-179.475C829.723,-169.931 852.831,-154.307 869.749,-142.868"/>
<polygon fill="midnightblue" stroke="midnightblue" points="872.091,-145.51 878.415,-137.009 868.171,-139.711 872.091,-145.51"/>
</g>
<!-- Node6 -->
<g id="node7" class="node"><title>Node6</title>
<polygon fill="white" stroke="#bfbfbf" points="1173,-56.5 1173,-75.5 1227,-75.5 1227,-56.5 1173,-56.5"/>
<text text-anchor="middle" x="1200" y="-63.5" font-family="Helvetica,sans-Serif" font-size="10.00">iostream</text>
</g>
<!-- Node3&#45;&gt;Node6 -->
<g id="edge6" class="edge"><title>Node3&#45;&gt;Node6</title>
<path fill="none" stroke="midnightblue" d="M845.329,-179.615C876.868,-172.413 920.441,-160.412 956,-143 977.159,-132.639 977.511,-121.659 999,-112 1053.01,-87.7233 1121.24,-76.025 1162.7,-70.79"/>
<polygon fill="midnightblue" stroke="midnightblue" points="1163.38,-74.2334 1172.9,-69.5657 1162.55,-67.2834 1163.38,-74.2334"/>
</g>
<!-- Node7 -->
<g id="node8" class="node"><title>Node7</title>
<polygon fill="white" stroke="#bfbfbf" points="77,-56.5 77,-75.5 125,-75.5 125,-56.5 77,-56.5"/>
<text text-anchor="middle" x="101" y="-63.5" font-family="Helvetica,sans-Serif" font-size="10.00">stdlib.h</text>
</g>
<!-- Node3&#45;&gt;Node7 -->
<g id="edge7" class="edge"><title>Node3&#45;&gt;Node7</title>
<path fill="none" stroke="midnightblue" d="M760.578,-188.463C616.32,-189.611 151.093,-189.64 105,-143 90.4483,-128.276 92.2105,-103.107 95.7681,-85.7933"/>
<polygon fill="midnightblue" stroke="midnightblue" points="99.2509,-86.2829 98.2118,-75.7392 92.449,-84.6296 99.2509,-86.2829"/>
</g>
<!-- Node8 -->
<g id="node9" class="node"><title>Node8</title>
<polygon fill="white" stroke="#bfbfbf" points="302.5,-118 302.5,-137 349.5,-137 349.5,-118 302.5,-118"/>
<text text-anchor="middle" x="326" y="-125" font-family="Helvetica,sans-Serif" font-size="10.00">math.h</text>
</g>
<!-- Node3&#45;&gt;Node8 -->
<g id="edge8" class="edge"><title>Node3&#45;&gt;Node8</title>
<path fill="none" stroke="midnightblue" d="M760.751,-185.407C665.068,-179.262 434.298,-162.83 359,-143 356.702,-142.395 354.36,-141.65 352.038,-140.821"/>
<polygon fill="midnightblue" stroke="midnightblue" points="353.345,-137.574 342.762,-137.074 350.723,-144.065 353.345,-137.574"/>
</g>
<!-- Node9 -->
<g id="node10" class="node"><title>Node9</title>
<polygon fill="white" stroke="#bfbfbf" points="1228.5,-118 1228.5,-137 1257.5,-137 1257.5,-118 1228.5,-118"/>
<text text-anchor="middle" x="1243" y="-125" font-family="Helvetica,sans-Serif" font-size="10.00">list</text>
</g>
<!-- Node3&#45;&gt;Node9 -->
<g id="edge9" class="edge"><title>Node3&#45;&gt;Node9</title>
<path fill="none" stroke="midnightblue" d="M845.162,-182.591C909.445,-174.305 1035.81,-157.865 1143,-143 1168.78,-139.426 1198.26,-135.125 1218.49,-132.14"/>
<polygon fill="midnightblue" stroke="midnightblue" points="1219.05,-135.595 1228.43,-130.67 1218.03,-128.671 1219.05,-135.595"/>
</g>
<!-- Node10 -->
<g id="node11" class="node"><title>Node10</title>
<polygon fill="white" stroke="#bfbfbf" points="368,-118 368,-137 410,-137 410,-118 368,-118"/>
<text text-anchor="middle" x="389" y="-125" font-family="Helvetica,sans-Serif" font-size="10.00">vector</text>
</g>
<!-- Node3&#45;&gt;Node10 -->
<g id="edge10" class="edge"><title>Node3&#45;&gt;Node10</title>
<path fill="none" stroke="midnightblue" d="M760.9,-187.612C689.259,-185.955 539.673,-178.15 419,-143 417.126,-142.454 415.224,-141.8 413.335,-141.076"/>
<polygon fill="midnightblue" stroke="midnightblue" points="414.741,-137.871 404.178,-137.047 411.922,-144.278 414.741,-137.871"/>
</g>
<!-- Node11 -->
<g id="node12" class="node"><title>Node11</title>
<polygon fill="white" stroke="#bfbfbf" points="1458.5,-118 1458.5,-137 1493.5,-137 1493.5,-118 1458.5,-118"/>
<text text-anchor="middle" x="1476" y="-125" font-family="Helvetica,sans-Serif" font-size="10.00">map</text>
</g>
<!-- Node3&#45;&gt;Node11 -->
<g id="edge11" class="edge"><title>Node3&#45;&gt;Node11</title>
<path fill="none" stroke="midnightblue" d="M845.092,-184.7C935.059,-177.589 1152.73,-160.079 1335,-143 1374.32,-139.315 1419.76,-134.551 1448.19,-131.51"/>
<polygon fill="midnightblue" stroke="midnightblue" points="1448.63,-134.982 1458.2,-130.434 1447.89,-128.022 1448.63,-134.982"/>
</g>
<!-- Node12 -->
<g id="node13" class="node"><title>Node12</title>
<polygon fill="white" stroke="#bfbfbf" points="1008,-118 1008,-137 1064,-137 1064,-118 1008,-118"/>
<text text-anchor="middle" x="1036" y="-125" font-family="Helvetica,sans-Serif" font-size="10.00">algorithm</text>
</g>
<!-- Node3&#45;&gt;Node12 -->
<g id="edge12" class="edge"><title>Node3&#45;&gt;Node12</title>
<path fill="none" stroke="midnightblue" d="M844.671,-179.453C883.576,-171.174 943.116,-157.737 994,-143 996.943,-142.148 999.984,-141.211 1003.02,-140.236"/>
<polygon fill="midnightblue" stroke="midnightblue" points="1004.21,-143.531 1012.59,-137.051 1001.99,-136.889 1004.21,-143.531"/>
</g>
<!-- Node13 -->
<g id="node14" class="node"><title>Node13</title>
<polygon fill="white" stroke="#bfbfbf" points="428,-118 428,-137 480,-137 480,-118 428,-118"/>
<text text-anchor="middle" x="454" y="-125" font-family="Helvetica,sans-Serif" font-size="10.00">assert.h</text>
</g>
<!-- Node3&#45;&gt;Node13 -->
<g id="edge13" class="edge"><title>Node3&#45;&gt;Node13</title>
<path fill="none" stroke="midnightblue" d="M760.924,-185.328C700.03,-180.71 584.202,-169.097 489,-143 486.558,-142.331 484.059,-141.535 481.575,-140.665"/>
<polygon fill="midnightblue" stroke="midnightblue" points="482.814,-137.392 472.224,-137.061 480.296,-143.923 482.814,-137.392"/>
</g>
<!-- Node14 -->
<g id="node15" class="node"><title>Node14</title>
<polygon fill="white" stroke="#bfbfbf" points="1276,-118 1276,-137 1326,-137 1326,-118 1276,-118"/>
<text text-anchor="middle" x="1301" y="-125" font-family="Helvetica,sans-Serif" font-size="10.00">typeinfo</text>
</g>
<!-- Node3&#45;&gt;Node14 -->
<g id="edge14" class="edge"><title>Node3&#45;&gt;Node14</title>
<path fill="none" stroke="midnightblue" d="M845.205,-188.036C927.448,-187.205 1114.39,-180.878 1266,-143 1268.51,-142.372 1271.08,-141.595 1273.63,-140.728"/>
<polygon fill="midnightblue" stroke="midnightblue" points="1275.09,-143.915 1283.18,-137.074 1272.59,-137.377 1275.09,-143.915"/>
</g>
<!-- Node15 -->
<g id="node16" class="node"><title>Node15</title>
<polygon fill="white" stroke="#bfbfbf" points="498,-118 498,-137 548,-137 548,-118 498,-118"/>
<text text-anchor="middle" x="523" y="-125" font-family="Helvetica,sans-Serif" font-size="10.00">iomanip</text>
</g>
<!-- Node3&#45;&gt;Node15 -->
<g id="edge15" class="edge"><title>Node3&#45;&gt;Node15</title>
<path fill="none" stroke="midnightblue" d="M760.983,-183.204C711.468,-176.893 627.06,-164.061 557,-143 554.853,-142.355 552.659,-141.615 550.47,-140.82"/>
<polygon fill="midnightblue" stroke="midnightblue" points="551.661,-137.527 541.075,-137.088 549.077,-144.032 551.661,-137.527"/>
</g>
<!-- Node16 -->
<g id="node17" class="node"><title>Node16</title>
<polygon fill="white" stroke="#bfbfbf" points="566.5,-118 566.5,-137 615.5,-137 615.5,-118 566.5,-118"/>
<text text-anchor="middle" x="591" y="-125" font-family="Helvetica,sans-Serif" font-size="10.00">fstream</text>
</g>
<!-- Node3&#45;&gt;Node16 -->
<g id="edge17" class="edge"><title>Node3&#45;&gt;Node16</title>
<path fill="none" stroke="midnightblue" d="M761.468,-179.422C725.052,-171.448 670.908,-158.487 625,-143 623.085,-142.354 621.126,-141.647 619.163,-140.905"/>
<polygon fill="midnightblue" stroke="midnightblue" points="620.087,-137.503 609.503,-137.008 617.468,-143.995 620.087,-137.503"/>
</g>
<!-- Node17 -->
<g id="node18" class="node"><title>Node17</title>
<polygon fill="white" stroke="#bfbfbf" points="1082,-118 1082,-137 1134,-137 1134,-118 1082,-118"/>
<text text-anchor="middle" x="1108" y="-125" font-family="Helvetica,sans-Serif" font-size="10.00">memory</text>
</g>
<!-- Node3&#45;&gt;Node17 -->
<g id="edge18" class="edge"><title>Node3&#45;&gt;Node17</title>
<path fill="none" stroke="midnightblue" d="M845.284,-183.965C898.999,-178.157 994.194,-165.572 1073,-143 1075.29,-142.343 1077.64,-141.581 1079.98,-140.757"/>
<polygon fill="midnightblue" stroke="midnightblue" points="1081.32,-143.992 1089.39,-137.13 1078.8,-137.46 1081.32,-143.992"/>
</g>
<!-- Node18 -->
<g id="node19" class="node"><title>Node18</title>
<polygon fill="white" stroke="#bfbfbf" points="634,-118 634,-137 738,-137 738,-118 634,-118"/>
<text text-anchor="middle" x="686" y="-125" font-family="Helvetica,sans-Serif" font-size="10.00">common/variant.hpp</text>
</g>
<!-- Node3&#45;&gt;Node18 -->
<g id="edge19" class="edge"><title>Node3&#45;&gt;Node18</title>
<path fill="none" stroke="midnightblue" d="M786.237,-179.475C766.775,-169.578 734.455,-153.142 711.789,-141.615"/>
<polygon fill="midnightblue" stroke="midnightblue" points="713.232,-138.422 702.732,-137.009 710.059,-144.662 713.232,-138.422"/>
</g>
<!-- Node3&#45;&gt;Node19 -->
<g id="edge20" class="edge"><title>Node3&#45;&gt;Node19</title>
<path fill="none" stroke="midnightblue" d="M760.954,-185.903C669.531,-181.039 445.926,-167.495 260,-143 258.741,-142.834 257.471,-142.662 256.193,-142.484"/>
<polygon fill="midnightblue" stroke="midnightblue" points="256.68,-139.018 246.277,-141.022 255.659,-145.943 256.68,-139.018"/>
</g>
<!-- Node20 -->
<g id="node21" class="node"><title>Node20</title>
<g id="a_node21"><a xlink:href="_n_f_platform_8h.html" target="_top" xlink:title="NFPlatform.h">
<polygon fill="white" stroke="black" points="840,-56.5 840,-75.5 914,-75.5 914,-56.5 840,-56.5"/>
<text text-anchor="middle" x="877" y="-63.5" font-family="Helvetica,sans-Serif" font-size="10.00">NFPlatform.h</text>
</a>
</g>
</g>
<!-- Node3&#45;&gt;Node20 -->
<g id="edge30" class="edge"><title>Node3&#45;&gt;Node20</title>
<path fill="none" stroke="midnightblue" d="M760.617,-185.807C641.055,-179.419 308.738,-160.188 293,-143 283.696,-132.839 283.639,-122.11 293,-112 329.156,-72.9512 696.664,-67.6743 829.456,-67.0481"/>
<polygon fill="midnightblue" stroke="midnightblue" points="829.731,-70.5471 839.717,-67.0069 829.703,-63.5472 829.731,-70.5471"/>
</g>
<!-- Node26 -->
<g id="node27" class="node"><title>Node26</title>
<g id="a_node27"><a xlink:href="_vector3_8hpp.html" target="_top" xlink:title="Math/Vector3.hpp">
<polygon fill="white" stroke="black" points="756,-118 756,-137 850,-137 850,-118 756,-118"/>
<text text-anchor="middle" x="803" y="-125" font-family="Helvetica,sans-Serif" font-size="10.00">Math/Vector3.hpp</text>
</a>
</g>
</g>
<!-- Node3&#45;&gt;Node26 -->
<g id="edge31" class="edge"><title>Node3&#45;&gt;Node26</title>
<path fill="none" stroke="midnightblue" d="M803,-179.475C803,-171.08 803,-157.981 803,-147.163"/>
<polygon fill="midnightblue" stroke="midnightblue" points="806.5,-147.009 803,-137.009 799.5,-147.009 806.5,-147.009"/>
</g>
<!-- Node19&#45;&gt;Node6 -->
<g id="edge27" class="edge"><title>Node19&#45;&gt;Node6</title>
<path fill="none" stroke="midnightblue" d="M246.23,-117.123C261.563,-115.196 277.83,-113.348 293,-112 466.123,-96.6215 1013.82,-74.3532 1162.47,-68.4702"/>
<polygon fill="midnightblue" stroke="midnightblue" points="1163.01,-71.9516 1172.86,-68.0597 1162.73,-64.957 1163.01,-71.9516"/>
</g>
<!-- Node19&#45;&gt;Node7 -->
<g id="edge29" class="edge"><title>Node19&#45;&gt;Node7</title>
<path fill="none" stroke="midnightblue" d="M161.278,-112.399C149.088,-103.218 133.208,-91.2579 120.807,-81.9182"/>
<polygon fill="midnightblue" stroke="midnightblue" points="122.589,-78.8782 112.495,-75.6578 118.377,-84.4697 122.589,-78.8782"/>
</g>
<!-- Node19&#45;&gt;Node20 -->
<g id="edge21" class="edge"><title>Node19&#45;&gt;Node20</title>
<path fill="none" stroke="midnightblue" d="M246.27,-113.927C250.908,-113.22 255.519,-112.568 260,-112 471.433,-85.2059 725.804,-72.9123 829.51,-68.7384"/>
<polygon fill="midnightblue" stroke="midnightblue" points="829.8,-72.2297 839.654,-68.3368 829.523,-65.2352 829.8,-72.2297"/>
</g>
<!-- Node25 -->
<g id="node26" class="node"><title>Node25</title>
<polygon fill="white" stroke="#bfbfbf" points="157,-56.5 157,-75.5 203,-75.5 203,-56.5 157,-56.5"/>
<text text-anchor="middle" x="180" y="-63.5" font-family="Helvetica,sans-Serif" font-size="10.00">stdio.h</text>
</g>
<!-- Node19&#45;&gt;Node25 -->
<g id="edge28" class="edge"><title>Node19&#45;&gt;Node25</title>
<path fill="none" stroke="midnightblue" d="M180,-112.399C180,-104.466 180,-94.458 180,-85.8583"/>
<polygon fill="midnightblue" stroke="midnightblue" points="183.5,-85.6577 180,-75.6578 176.5,-85.6578 183.5,-85.6577"/>
</g>
<!-- Node20&#45;&gt;Node4 -->
<g id="edge26" class="edge"><title>Node20&#45;&gt;Node4</title>
<path fill="none" stroke="midnightblue" d="M914.019,-58.2902C918.72,-57.4902 923.47,-56.7074 928,-56 1038.31,-38.775 1169.9,-22.008 1228.38,-14.7515"/>
<polygon fill="midnightblue" stroke="midnightblue" points="1228.93,-18.21 1238.43,-13.5093 1228.08,-11.2629 1228.93,-18.21"/>
</g>
<!-- Node21 -->
<g id="node22" class="node"><title>Node21</title>
<polygon fill="white" stroke="#bfbfbf" points="754.5,-0.5 754.5,-19.5 803.5,-19.5 803.5,-0.5 754.5,-0.5"/>
<text text-anchor="middle" x="779" y="-7.5" font-family="Helvetica,sans-Serif" font-size="10.00">stdint.h</text>
</g>
<!-- Node20&#45;&gt;Node21 -->
<g id="edge22" class="edge"><title>Node20&#45;&gt;Node21</title>
<path fill="none" stroke="midnightblue" d="M861.255,-56.324C845.681,-47.7428 821.623,-34.486 803.541,-24.5224"/>
<polygon fill="midnightblue" stroke="midnightblue" points="805.154,-21.4152 794.706,-19.6545 801.776,-27.546 805.154,-21.4152"/>
</g>
<!-- Node22 -->
<g id="node23" class="node"><title>Node22</title>
<polygon fill="white" stroke="#bfbfbf" points="822,-0.5 822,-19.5 866,-19.5 866,-0.5 822,-0.5"/>
<text text-anchor="middle" x="844" y="-7.5" font-family="Helvetica,sans-Serif" font-size="10.00">time.h</text>
</g>
<!-- Node20&#45;&gt;Node22 -->
<g id="edge23" class="edge"><title>Node20&#45;&gt;Node22</title>
<path fill="none" stroke="midnightblue" d="M871.551,-56.083C866.986,-48.6127 860.332,-37.7244 854.707,-28.5199"/>
<polygon fill="midnightblue" stroke="midnightblue" points="857.549,-26.4588 849.348,-19.7511 851.576,-30.109 857.549,-26.4588"/>
</g>
<!-- Node23 -->
<g id="node24" class="node"><title>Node23</title>
<polygon fill="white" stroke="#bfbfbf" points="884,-0.5 884,-19.5 936,-19.5 936,-0.5 884,-0.5"/>
<text text-anchor="middle" x="910" y="-7.5" font-family="Helvetica,sans-Serif" font-size="10.00">sstream</text>
</g>
<!-- Node20&#45;&gt;Node23 -->
<g id="edge24" class="edge"><title>Node20&#45;&gt;Node23</title>
<path fill="none" stroke="midnightblue" d="M882.449,-56.083C887.014,-48.6127 893.668,-37.7244 899.293,-28.5199"/>
<polygon fill="midnightblue" stroke="midnightblue" points="902.424,-30.109 904.652,-19.7511 896.451,-26.4588 902.424,-30.109"/>
</g>
<!-- Node24 -->
<g id="node25" class="node"><title>Node24</title>
<polygon fill="white" stroke="#bfbfbf" points="954,-0.5 954,-19.5 1082,-19.5 1082,-0.5 954,-0.5"/>
<text text-anchor="middle" x="1018" y="-7.5" font-family="Helvetica,sans-Serif" font-size="10.00">common/lexical_cast.hpp</text>
</g>
<!-- Node20&#45;&gt;Node24 -->
<g id="edge25" class="edge"><title>Node20&#45;&gt;Node24</title>
<path fill="none" stroke="midnightblue" d="M899.342,-56.4435C922.753,-47.4776 959.736,-33.314 986.19,-23.1827"/>
<polygon fill="midnightblue" stroke="midnightblue" points="987.676,-26.3615 995.763,-19.5164 985.172,-19.8245 987.676,-26.3615"/>
</g>
<!-- Node27&#45;&gt;Node4 -->
<g id="edge36" class="edge"><title>Node27&#45;&gt;Node4</title>
<path fill="none" stroke="midnightblue" d="M1363.07,-241.03C1394.8,-236.492 1446.73,-225.38 1483,-199 1517.27,-174.076 1546,-146.923 1522,-112 1468.78,-34.5557 1347.32,-16.4669 1290.02,-12.2616"/>
<polygon fill="midnightblue" stroke="midnightblue" points="1289.97,-8.75189 1279.77,-11.6093 1289.53,-15.7377 1289.97,-8.75189"/>
</g>
<!-- Node27&#45;&gt;Node6 -->
<g id="edge37" class="edge"><title>Node27&#45;&gt;Node6</title>
<path fill="none" stroke="midnightblue" d="M1363,-235.738C1422.31,-216.899 1551.33,-168.038 1503,-112 1469.07,-72.6559 1310.42,-67.1557 1237.2,-66.7567"/>
<polygon fill="midnightblue" stroke="midnightblue" points="1237.05,-63.2564 1227.05,-66.7314 1237.04,-70.2564 1237.05,-63.2564"/>
</g>
<!-- Node27&#45;&gt;Node9 -->
<g id="edge35" class="edge"><title>Node27&#45;&gt;Node9</title>
<path fill="none" stroke="midnightblue" d="M1328.09,-235.319C1312.83,-216.172 1276.09,-170.044 1256.25,-145.131"/>
<polygon fill="midnightblue" stroke="midnightblue" points="1258.96,-142.923 1250,-137.282 1253.49,-147.285 1258.96,-142.923"/>
</g>
<!-- Node27&#45;&gt;Node11 -->
<g id="edge34" class="edge"><title>Node27&#45;&gt;Node11</title>
<path fill="none" stroke="midnightblue" d="M1349.35,-235.357C1363.26,-226.751 1384.73,-212.857 1402,-199 1423.48,-181.757 1446.13,-159.5 1460.62,-144.651"/>
<polygon fill="midnightblue" stroke="midnightblue" points="1463.34,-146.868 1467.77,-137.244 1458.31,-142.005 1463.34,-146.868"/>
</g>
<!-- Node27&#45;&gt;Node14 -->
<g id="edge38" class="edge"><title>Node27&#45;&gt;Node14</title>
<path fill="none" stroke="midnightblue" d="M1330.7,-235.222C1326.47,-226.286 1320.07,-211.944 1316,-199 1310.61,-181.856 1306.55,-161.761 1304.02,-147.421"/>
<polygon fill="midnightblue" stroke="midnightblue" points="1307.43,-146.603 1302.32,-137.321 1300.53,-147.762 1307.43,-146.603"/>
</g>
<!-- Node28 -->
<g id="node29" class="node"><title>Node28</title>
<g id="a_node29"><a xlink:href="_n_f_map_ex_8h.html" target="_top" xlink:title="NFMapEx.h">
<polygon fill="white" stroke="black" points="1325,-179.5 1325,-198.5 1393,-198.5 1393,-179.5 1325,-179.5"/>
<text text-anchor="middle" x="1359" y="-186.5" font-family="Helvetica,sans-Serif" font-size="10.00">NFMapEx.h</text>
</a>
</g>
</g>
<!-- Node27&#45;&gt;Node28 -->
<g id="edge39" class="edge"><title>Node27&#45;&gt;Node28</title>
<path fill="none" stroke="midnightblue" d="M1338.96,-235.083C1342.21,-227.77 1346.92,-217.181 1350.95,-208.103"/>
<polygon fill="midnightblue" stroke="midnightblue" points="1354.25,-209.311 1355.11,-198.751 1347.85,-206.468 1354.25,-209.311"/>
</g>
<!-- Node28&#45;&gt;Node4 -->
<g id="edge42" class="edge"><title>Node28&#45;&gt;Node4</title>
<path fill="none" stroke="midnightblue" d="M1366.49,-179.322C1377.94,-164.948 1397.32,-135.458 1386,-112 1365.7,-69.9205 1318.4,-39.9738 1287.61,-24.0999"/>
<polygon fill="midnightblue" stroke="midnightblue" points="1289.14,-20.9529 1278.63,-19.6275 1286.02,-27.2187 1289.14,-20.9529"/>
</g>
<!-- Node28&#45;&gt;Node6 -->
<g id="edge43" class="edge"><title>Node28&#45;&gt;Node6</title>
<path fill="none" stroke="midnightblue" d="M1363.55,-179.444C1370.97,-164.191 1383.37,-132.027 1368,-112 1352.22,-91.4313 1282.01,-78.2082 1237.5,-71.7316"/>
<polygon fill="midnightblue" stroke="midnightblue" points="1237.72,-68.2284 1227.33,-70.3037 1236.74,-75.1604 1237.72,-68.2284"/>
</g>
<!-- Node28&#45;&gt;Node9 -->
<g id="edge41" class="edge"><title>Node28&#45;&gt;Node9</title>
<path fill="none" stroke="midnightblue" d="M1340.07,-179.343C1321.3,-170.615 1291.82,-156.534 1267,-143 1266.58,-142.773 1266.16,-142.542 1265.74,-142.308"/>
<polygon fill="midnightblue" stroke="midnightblue" points="1267.25,-139.134 1256.84,-137.146 1263.73,-145.19 1267.25,-139.134"/>
</g>
<!-- Node28&#45;&gt;Node11 -->
<g id="edge40" class="edge"><title>Node28&#45;&gt;Node11</title>
<path fill="none" stroke="midnightblue" d="M1375.76,-179.475C1395.22,-169.578 1427.55,-153.142 1450.21,-141.615"/>
<polygon fill="midnightblue" stroke="midnightblue" points="1451.94,-144.662 1459.27,-137.009 1448.77,-138.422 1451.94,-144.662"/>
</g>
<!-- Node28&#45;&gt;Node14 -->
<g id="edge44" class="edge"><title>Node28&#45;&gt;Node14</title>
<path fill="none" stroke="midnightblue" d="M1350.69,-179.475C1341.82,-170.373 1327.55,-155.741 1316.58,-144.483"/>
<polygon fill="midnightblue" stroke="midnightblue" points="1318.78,-141.727 1309.29,-137.009 1313.77,-146.613 1318.78,-141.727"/>
</g>
<!-- Node28&#45;&gt;Node17 -->
<g id="edge45" class="edge"><title>Node28&#45;&gt;Node17</title>
<path fill="none" stroke="midnightblue" d="M1324.89,-179.914C1277.56,-168.694 1192.36,-148.498 1144.03,-137.041"/>
<polygon fill="midnightblue" stroke="midnightblue" points="1144.56,-133.569 1134.02,-134.668 1142.94,-140.38 1144.56,-133.569"/>
</g>
<!-- Node28&#45;&gt;Node20 -->
<g id="edge46" class="edge"><title>Node28&#45;&gt;Node20</title>
<path fill="none" stroke="midnightblue" d="M1359.12,-179.263C1358.82,-163.117 1355.63,-128.734 1335,-112 1303.59,-86.5258 1035.38,-73.1983 924.583,-68.7384"/>
<polygon fill="midnightblue" stroke="midnightblue" points="924.496,-65.2323 914.366,-68.3344 924.22,-72.2269 924.496,-65.2323"/>
</g>
<!-- Node29&#45;&gt;Node11 -->
<g id="edge59" class="edge"><title>Node29&#45;&gt;Node11</title>
<path fill="none" stroke="midnightblue" d="M1285.24,-347.373C1293.9,-338.315 1307.91,-323.657 1320,-311 1367.56,-261.225 1383.45,-252.314 1427,-199 1441.23,-181.577 1455.72,-160.191 1465.21,-145.573"/>
<polygon fill="midnightblue" stroke="midnightblue" points="1468.22,-147.36 1470.67,-137.053 1462.33,-143.582 1468.22,-147.36"/>
</g>
<!-- Node29&#45;&gt;Node27 -->
<g id="edge49" class="edge"><title>Node29&#45;&gt;Node27</title>
<path fill="none" stroke="midnightblue" d="M1281.55,-347.368C1291.04,-329.376 1313.09,-287.55 1325.71,-263.627"/>
<polygon fill="midnightblue" stroke="midnightblue" points="1328.9,-265.07 1330.47,-254.591 1322.71,-261.805 1328.9,-265.07"/>
</g>
<!-- Node30 -->
<g id="node31" class="node"><title>Node30</title>
<g id="a_node31"><a xlink:href="_n_f_i_property_8h.html" target="_top" xlink:title="NFIProperty.h">
<polygon fill="white" stroke="black" points="1068.5,-291.5 1068.5,-310.5 1145.5,-310.5 1145.5,-291.5 1068.5,-291.5"/>
<text text-anchor="middle" x="1107" y="-298.5" font-family="Helvetica,sans-Serif" font-size="10.00">NFIProperty.h</text>
</a>
</g>
</g>
<!-- Node29&#45;&gt;Node30 -->
<g id="edge50" class="edge"><title>Node29&#45;&gt;Node30</title>
<path fill="none" stroke="midnightblue" d="M1250.06,-347.444C1221.34,-338.32 1175.67,-323.813 1143.68,-313.651"/>
<polygon fill="midnightblue" stroke="midnightblue" points="1144.4,-310.208 1133.81,-310.516 1142.28,-316.88 1144.4,-310.208"/>
</g>
<!-- Node30&#45;&gt;Node1 -->
<g id="edge51" class="edge"><title>Node30&#45;&gt;Node1</title>
<path fill="none" stroke="midnightblue" d="M1068.5,-293.161C1011.53,-283.041 905.129,-264.141 845.787,-253.6"/>
<polygon fill="midnightblue" stroke="midnightblue" points="846.086,-250.099 835.628,-251.796 844.862,-256.991 846.086,-250.099"/>
</g>
<!-- Node30&#45;&gt;Node3 -->
<g id="edge52" class="edge"><title>Node30&#45;&gt;Node3</title>
<path fill="none" stroke="midnightblue" d="M1094.36,-291.364C1073.64,-277.574 1030.77,-250.557 991,-235 946.529,-217.605 893.416,-205.646 855.005,-198.453"/>
<polygon fill="midnightblue" stroke="midnightblue" points="855.543,-194.993 845.077,-196.638 854.284,-201.879 855.543,-194.993"/>
</g>
<!-- Node31 -->
<g id="node32" class="node"><title>Node31</title>
<g id="a_node32"><a xlink:href="_n_f_list_8h.html" target="_top" xlink:title="NFList.h">
<polygon fill="white" stroke="black" points="1165.5,-179.5 1165.5,-198.5 1218.5,-198.5 1218.5,-179.5 1165.5,-179.5"/>
<text text-anchor="middle" x="1192" y="-186.5" font-family="Helvetica,sans-Serif" font-size="10.00">NFList.h</text>
</a>
</g>
</g>
<!-- Node30&#45;&gt;Node31 -->
<g id="edge53" class="edge"><title>Node30&#45;&gt;Node31</title>
<path fill="none" stroke="midnightblue" d="M1113.67,-291.368C1127.76,-273.135 1160.76,-230.426 1179.11,-206.675"/>
<polygon fill="midnightblue" stroke="midnightblue" points="1182.02,-208.644 1185.36,-198.591 1176.48,-204.364 1182.02,-208.644"/>
</g>
<!-- Node31&#45;&gt;Node6 -->
<g id="edge54" class="edge"><title>Node31&#45;&gt;Node6</title>
<path fill="none" stroke="midnightblue" d="M1192.58,-179.298C1193.86,-159.85 1196.99,-112.49 1198.75,-85.9036"/>
<polygon fill="midnightblue" stroke="midnightblue" points="1202.26,-85.8323 1199.43,-75.6232 1195.28,-85.3705 1202.26,-85.8323"/>
</g>
<!-- Node31&#45;&gt;Node9 -->
<g id="edge56" class="edge"><title>Node31&#45;&gt;Node9</title>
<path fill="none" stroke="midnightblue" d="M1199.31,-179.475C1207.03,-170.462 1219.41,-156.025 1229.02,-144.812"/>
<polygon fill="midnightblue" stroke="midnightblue" points="1231.86,-146.879 1235.71,-137.009 1226.54,-142.324 1231.86,-146.879"/>
</g>
<!-- Node31&#45;&gt;Node11 -->
<g id="edge55" class="edge"><title>Node31&#45;&gt;Node11</title>
<path fill="none" stroke="midnightblue" d="M1218.72,-182.402C1272.57,-171.12 1393.66,-145.751 1448.31,-134.301"/>
<polygon fill="midnightblue" stroke="midnightblue" points="1449.25,-137.681 1458.32,-132.205 1447.81,-130.83 1449.25,-137.681"/>
</g>
<!-- Node31&#45;&gt;Node12 -->
<g id="edge57" class="edge"><title>Node31&#45;&gt;Node12</title>
<path fill="none" stroke="midnightblue" d="M1169.16,-179.454C1145.18,-170.462 1106.39,-155.856 1073,-143 1071.17,-142.294 1069.28,-141.565 1067.38,-140.827"/>
<polygon fill="midnightblue" stroke="midnightblue" points="1068.48,-137.501 1057.9,-137.131 1065.94,-144.023 1068.48,-137.501"/>
</g>
<!-- Node31&#45;&gt;Node20 -->
<g id="edge58" class="edge"><title>Node31&#45;&gt;Node20</title>
<path fill="none" stroke="midnightblue" d="M1189.06,-179.236C1183.15,-163.045 1168.17,-128.591 1143,-112 1107.83,-88.8143 990.758,-75.9943 924.243,-70.4202"/>
<polygon fill="midnightblue" stroke="midnightblue" points="924.273,-66.9111 914.022,-69.5873 923.705,-73.888 924.273,-66.9111"/>
</g>
</g>
</svg>
