<?xml version="1.0" encoding="UTF-8" standalone="no"?>
<!DOCTYPE svg PUBLIC "-//W3C//DTD SVG 1.1//EN"
 "http://www.w3.org/Graphics/SVG/1.1/DTD/svg11.dtd">
<!-- Generated by graphviz version 2.38.0 (20140413.2041)
 -->
<!-- Title: NFList.h Pages: 1 -->
<svg width="553pt" height="151pt"
 viewBox="0.00 0.00 552.50 151.00" xmlns="http://www.w3.org/2000/svg" xmlns:xlink="http://www.w3.org/1999/xlink">
<g id="graph0" class="graph" transform="scale(1 1) rotate(0) translate(4 147)">
<title>NFList.h</title>
<polygon fill="white" stroke="none" points="-4,4 -4,-147 548.5,-147 548.5,4 -4,4"/>
<!-- Node0 -->
<g id="node1" class="node"><title>Node0</title>
<polygon fill="#bfbfbf" stroke="black" points="113.5,-123.5 113.5,-142.5 166.5,-142.5 166.5,-123.5 113.5,-123.5"/>
<text text-anchor="middle" x="140" y="-130.5" font-family="Helvetica,sans-Serif" font-size="10.00">NFList.h</text>
</g>
<!-- Node1 -->
<g id="node2" class="node"><title>Node1</title>
<polygon fill="white" stroke="#bfbfbf" points="0,-62 0,-81 54,-81 54,-62 0,-62"/>
<text text-anchor="middle" x="27" y="-69" font-family="Helvetica,sans-Serif" font-size="10.00">iostream</text>
</g>
<!-- Node0&#45;&gt;Node1 -->
<g id="edge1" class="edge"><title>Node0&#45;&gt;Node1</title>
<path fill="none" stroke="midnightblue" d="M123.81,-123.475C105.098,-113.622 74.0769,-97.2883 52.2013,-85.7697"/>
<polygon fill="midnightblue" stroke="midnightblue" points="53.6392,-82.5713 43.1601,-81.0091 50.3778,-88.7651 53.6392,-82.5713"/>
</g>
<!-- Node2 -->
<g id="node3" class="node"><title>Node2</title>
<polygon fill="white" stroke="#bfbfbf" points="72.5,-62 72.5,-81 107.5,-81 107.5,-62 72.5,-62"/>
<text text-anchor="middle" x="90" y="-69" font-family="Helvetica,sans-Serif" font-size="10.00">map</text>
</g>
<!-- Node0&#45;&gt;Node2 -->
<g id="edge2" class="edge"><title>Node0&#45;&gt;Node2</title>
<path fill="none" stroke="midnightblue" d="M132.836,-123.475C125.262,-114.462 113.13,-100.025 103.707,-88.8118"/>
<polygon fill="midnightblue" stroke="midnightblue" points="106.263,-86.4132 97.1505,-81.0091 100.904,-90.9166 106.263,-86.4132"/>
</g>
<!-- Node3 -->
<g id="node4" class="node"><title>Node3</title>
<polygon fill="white" stroke="#bfbfbf" points="125.5,-62 125.5,-81 154.5,-81 154.5,-62 125.5,-62"/>
<text text-anchor="middle" x="140" y="-69" font-family="Helvetica,sans-Serif" font-size="10.00">list</text>
</g>
<!-- Node0&#45;&gt;Node3 -->
<g id="edge3" class="edge"><title>Node0&#45;&gt;Node3</title>
<path fill="none" stroke="midnightblue" d="M140,-123.475C140,-115.08 140,-101.981 140,-91.1631"/>
<polygon fill="midnightblue" stroke="midnightblue" points="143.5,-91.0091 140,-81.0091 136.5,-91.0091 143.5,-91.0091"/>
</g>
<!-- Node4 -->
<g id="node5" class="node"><title>Node4</title>
<polygon fill="white" stroke="#bfbfbf" points="173,-62 173,-81 229,-81 229,-62 173,-62"/>
<text text-anchor="middle" x="201" y="-69" font-family="Helvetica,sans-Serif" font-size="10.00">algorithm</text>
</g>
<!-- Node0&#45;&gt;Node4 -->
<g id="edge4" class="edge"><title>Node0&#45;&gt;Node4</title>
<path fill="none" stroke="midnightblue" d="M148.74,-123.475C158.162,-114.285 173.364,-99.4563 184.949,-88.156"/>
<polygon fill="midnightblue" stroke="midnightblue" points="187.562,-90.4971 192.276,-81.0091 182.674,-85.4861 187.562,-90.4971"/>
</g>
<!-- Node5 -->
<g id="node6" class="node"><title>Node5</title>
<g id="a_node6"><a xlink:href="_n_f_platform_8h.html" target="_top" xlink:title="NFComm/NFPluginModule\l/NFPlatform.h">
<polygon fill="white" stroke="black" points="247,-56.5 247,-86.5 379,-86.5 379,-56.5 247,-56.5"/>
<text text-anchor="start" x="255" y="-74.5" font-family="Helvetica,sans-Serif" font-size="10.00">NFComm/NFPluginModule</text>
<text text-anchor="middle" x="313" y="-63.5" font-family="Helvetica,sans-Serif" font-size="10.00">/NFPlatform.h</text>
</a>
</g>
</g>
<!-- Node0&#45;&gt;Node5 -->
<g id="edge5" class="edge"><title>Node0&#45;&gt;Node5</title>
<path fill="none" stroke="midnightblue" d="M164.787,-123.475C190.188,-114.739 230.404,-100.907 262.539,-89.855"/>
<polygon fill="midnightblue" stroke="midnightblue" points="263.909,-93.0851 272.227,-86.523 261.633,-86.4656 263.909,-93.0851"/>
</g>
<!-- Node6 -->
<g id="node7" class="node"><title>Node6</title>
<polygon fill="white" stroke="#bfbfbf" points="157.5,-0.5 157.5,-19.5 206.5,-19.5 206.5,-0.5 157.5,-0.5"/>
<text text-anchor="middle" x="182" y="-7.5" font-family="Helvetica,sans-Serif" font-size="10.00">stdint.h</text>
</g>
<!-- Node5&#45;&gt;Node6 -->
<g id="edge6" class="edge"><title>Node5&#45;&gt;Node6</title>
<path fill="none" stroke="midnightblue" d="M281.955,-56.3993C260.27,-46.55 231.541,-33.5014 210.449,-23.9217"/>
<polygon fill="midnightblue" stroke="midnightblue" points="211.614,-20.6065 201.062,-19.6578 208.719,-26.9799 211.614,-20.6065"/>
</g>
<!-- Node7 -->
<g id="node8" class="node"><title>Node7</title>
<polygon fill="white" stroke="#bfbfbf" points="225,-0.5 225,-19.5 269,-19.5 269,-0.5 225,-0.5"/>
<text text-anchor="middle" x="247" y="-7.5" font-family="Helvetica,sans-Serif" font-size="10.00">time.h</text>
</g>
<!-- Node5&#45;&gt;Node7 -->
<g id="edge7" class="edge"><title>Node5&#45;&gt;Node7</title>
<path fill="none" stroke="midnightblue" d="M297.359,-56.3993C287.373,-47.3967 274.422,-35.7214 264.155,-26.4652"/>
<polygon fill="midnightblue" stroke="midnightblue" points="266.375,-23.7541 256.604,-19.6578 261.687,-28.9533 266.375,-23.7541"/>
</g>
<!-- Node8 -->
<g id="node9" class="node"><title>Node8</title>
<polygon fill="white" stroke="#bfbfbf" points="287,-0.5 287,-19.5 339,-19.5 339,-0.5 287,-0.5"/>
<text text-anchor="middle" x="313" y="-7.5" font-family="Helvetica,sans-Serif" font-size="10.00">sstream</text>
</g>
<!-- Node5&#45;&gt;Node8 -->
<g id="edge8" class="edge"><title>Node5&#45;&gt;Node8</title>
<path fill="none" stroke="midnightblue" d="M313,-56.3993C313,-48.4664 313,-38.458 313,-29.8583"/>
<polygon fill="midnightblue" stroke="midnightblue" points="316.5,-29.6577 313,-19.6578 309.5,-29.6578 316.5,-29.6577"/>
</g>
<!-- Node9 -->
<g id="node10" class="node"><title>Node9</title>
<polygon fill="white" stroke="#bfbfbf" points="357,-0.5 357,-19.5 485,-19.5 485,-0.5 357,-0.5"/>
<text text-anchor="middle" x="421" y="-7.5" font-family="Helvetica,sans-Serif" font-size="10.00">common/lexical_cast.hpp</text>
</g>
<!-- Node5&#45;&gt;Node9 -->
<g id="edge9" class="edge"><title>Node5&#45;&gt;Node9</title>
<path fill="none" stroke="midnightblue" d="M338.594,-56.3993C356.068,-46.7728 379.088,-34.0902 396.356,-24.5772"/>
<polygon fill="midnightblue" stroke="midnightblue" points="398.215,-27.5488 405.285,-19.6578 394.837,-21.4177 398.215,-27.5488"/>
</g>
<!-- Node10 -->
<g id="node11" class="node"><title>Node10</title>
<polygon fill="white" stroke="#bfbfbf" points="503.5,-0.5 503.5,-19.5 544.5,-19.5 544.5,-0.5 503.5,-0.5"/>
<text text-anchor="middle" x="524" y="-7.5" font-family="Helvetica,sans-Serif" font-size="10.00">string</text>
</g>
<!-- Node5&#45;&gt;Node10 -->
<g id="edge10" class="edge"><title>Node5&#45;&gt;Node10</title>
<path fill="none" stroke="midnightblue" d="M364.567,-56.3981C398.557,-47.0377 444.291,-34.3197 493.478,-20.1107"/>
<polygon fill="midnightblue" stroke="midnightblue" points="494.727,-23.3929 503.359,-17.2496 492.78,-16.6691 494.727,-23.3929"/>
</g>
</g>
</svg>
