<?xml version="1.0" encoding="UTF-8" standalone="no"?>
<!DOCTYPE svg PUBLIC "-//W3C//DTD SVG 1.1//EN"
 "http://www.w3.org/Graphics/SVG/1.1/DTD/svg11.dtd">
<!-- Generated by graphviz version 2.38.0 (20140413.2041)
 -->
<!-- Title: NFLogPlugin.cpp Pages: 1 -->
<!--zoomable 654 -->
<svg id="main" version="1.1" xmlns="http://www.w3.org/2000/svg" xmlns:xlink="http://www.w3.org/1999/xlink" xml:space="preserve" onload="init(evt)">
<style type="text/css"><![CDATA[
.edge:hover path { stroke: red; }
.edge:hover polygon { stroke: red; fill: red; }
]]></style>
<script type="text/javascript"><![CDATA[
var edges = document.getElementsByTagName('g');
if (edges && edges.length) {
  for (var i=0;i<edges.length;i++) {
    if (edges[i].id.substr(0,4)=='edge') {
      edges[i].setAttribute('class','edge');
    }
  }
}
]]></script>
        <defs>
                <circle id="rim" cx="0" cy="0" r="7"/>
                <circle id="rim2" cx="0" cy="0" r="3.5"/>
                <g id="zoomPlus">
                        <use xlink:href="#rim" fill="#404040">
                                <set attributeName="fill" to="#808080" begin="zoomplus.mouseover" end="zoomplus.mouseout"/>
                        </use>
                        <path d="M-4,0h8M0,-4v8" fill="none" stroke="white" stroke-width="1.5" pointer-events="none"/>
                </g>
                <g id="zoomMin">
                        <use xlink:href="#rim" fill="#404040">
                                <set attributeName="fill" to="#808080" begin="zoomminus.mouseover" end="zoomminus.mouseout"/>
                        </use>
                        <path d="M-4,0h8" fill="none" stroke="white" stroke-width="1.5" pointer-events="none"/>
                </g>
                <g id="dirArrow">
                        <path fill="none" stroke="white" stroke-width="1.5" d="M0,-3.0v7 M-2.5,-0.5L0,-3.0L2.5,-0.5"/>
                </g>
               <g id="resetDef">
                       <use xlink:href="#rim2" fill="#404040">
                               <set attributeName="fill" to="#808080" begin="reset.mouseover" end="reset.mouseout"/>
                       </use>
               </g>
        </defs>

<script type="text/javascript">
var viewWidth = 2013;
var viewHeight = 654;
var sectionId = 'dynsection-0';
</script>
<script xlink:href="svgpan.js"/>
<svg id="graph" class="graph">
<g id="viewport">
<title>NFLogPlugin.cpp</title>
<polygon fill="white" stroke="none" points="-4,4 -4,-650 2008.86,-650 2008.86,4 -4,4"/>
<!-- Node0 -->
<g id="node1" class="node"><title>Node0</title>
<polygon fill="#bfbfbf" stroke="black" points="1136.86,-626.5 1136.86,-645.5 1227.86,-645.5 1227.86,-626.5 1136.86,-626.5"/>
<text text-anchor="middle" x="1182.36" y="-633.5" font-family="Helvetica,sans-Serif" font-size="10.00">NFLogPlugin.cpp</text>
</g>
<!-- Node1 -->
<g id="node2" class="node"><title>Node1</title>
<g id="a_node2"><a xlink:href="_n_f_log_plugin_8h.html" target="_top" xlink:title="NFLogPlugin.h">
<polygon fill="white" stroke="black" points="1087.36,-570.5 1087.36,-589.5 1167.36,-589.5 1167.36,-570.5 1087.36,-570.5"/>
<text text-anchor="middle" x="1127.36" y="-577.5" font-family="Helvetica,sans-Serif" font-size="10.00">NFLogPlugin.h</text>
</a>
</g>
</g>
<!-- Node0&#45;&gt;Node1 -->
<g id="edge1" class="edge"><title>Node0&#45;&gt;Node1</title>
<path fill="none" stroke="midnightblue" d="M1173.28,-626.083C1165.19,-618.141 1153.17,-606.335 1143.45,-596.797"/>
<polygon fill="midnightblue" stroke="midnightblue" points="1145.86,-594.26 1136.28,-589.751 1140.96,-599.254 1145.86,-594.26"/>
</g>
<!-- Node36 -->
<g id="node37" class="node"><title>Node36</title>
<g id="a_node37"><a xlink:href="_n_f_c_log_module_8h.html" target="_top" xlink:title="NFCLogModule.h">
<polygon fill="white" stroke="black" points="1234.36,-509 1234.36,-528 1326.36,-528 1326.36,-509 1234.36,-509"/>
<text text-anchor="middle" x="1280.36" y="-516" font-family="Helvetica,sans-Serif" font-size="10.00">NFCLogModule.h</text>
</a>
</g>
</g>
<!-- Node0&#45;&gt;Node36 -->
<g id="edge70" class="edge"><title>Node0&#45;&gt;Node36</title>
<path fill="none" stroke="midnightblue" d="M1189.73,-626.319C1205.98,-607.172 1245.11,-561.044 1266.25,-536.131"/>
<polygon fill="midnightblue" stroke="midnightblue" points="1269.11,-538.172 1272.91,-528.282 1263.77,-533.643 1269.11,-538.172"/>
</g>
<!-- Node2 -->
<g id="node3" class="node"><title>Node2</title>
<g id="a_node3"><a xlink:href="_n_f_i_plugin_8h.html" target="_top" xlink:title="NFComm/NFPluginModule\l/NFIPlugin.h">
<polygon fill="white" stroke="black" points="1061.36,-503.5 1061.36,-533.5 1193.36,-533.5 1193.36,-503.5 1061.36,-503.5"/>
<text text-anchor="start" x="1069.36" y="-521.5" font-family="Helvetica,sans-Serif" font-size="10.00">NFComm/NFPluginModule</text>
<text text-anchor="middle" x="1127.36" y="-510.5" font-family="Helvetica,sans-Serif" font-size="10.00">/NFIPlugin.h</text>
</a>
</g>
</g>
<!-- Node1&#45;&gt;Node2 -->
<g id="edge2" class="edge"><title>Node1&#45;&gt;Node2</title>
<path fill="none" stroke="midnightblue" d="M1127.36,-570.475C1127.36,-563.471 1127.36,-553.192 1127.36,-543.696"/>
<polygon fill="midnightblue" stroke="midnightblue" points="1130.86,-543.523 1127.36,-533.523 1123.86,-543.523 1130.86,-543.523"/>
</g>
<!-- Node35 -->
<g id="node36" class="node"><title>Node35</title>
<g id="a_node36"><a xlink:href="_n_f_i_plugin_manager_8h.html" target="_top" xlink:title="NFComm/NFPluginModule\l/NFIPluginManager.h">
<polygon fill="white" stroke="black" points="772.363,-436.5 772.363,-466.5 904.363,-466.5 904.363,-436.5 772.363,-436.5"/>
<text text-anchor="start" x="780.363" y="-454.5" font-family="Helvetica,sans-Serif" font-size="10.00">NFComm/NFPluginModule</text>
<text text-anchor="middle" x="838.363" y="-443.5" font-family="Helvetica,sans-Serif" font-size="10.00">/NFIPluginManager.h</text>
</a>
</g>
</g>
<!-- Node1&#45;&gt;Node35 -->
<g id="edge69" class="edge"><title>Node1&#45;&gt;Node35</title>
<path fill="none" stroke="midnightblue" d="M1107.5,-570.305C1060.8,-549.864 943.222,-498.398 880.046,-470.745"/>
<polygon fill="midnightblue" stroke="midnightblue" points="881.328,-467.486 870.764,-466.682 878.521,-473.898 881.328,-467.486"/>
</g>
<!-- Node3 -->
<g id="node4" class="node"><title>Node3</title>
<polygon fill="white" stroke="#bfbfbf" points="1180.36,-62 1180.36,-81 1234.36,-81 1234.36,-62 1180.36,-62"/>
<text text-anchor="middle" x="1207.36" y="-69" font-family="Helvetica,sans-Serif" font-size="10.00">iostream</text>
</g>
<!-- Node2&#45;&gt;Node3 -->
<g id="edge3" class="edge"><title>Node2&#45;&gt;Node3</title>
<path fill="none" stroke="midnightblue" d="M1141.05,-503.411C1161.68,-480.624 1198.36,-433.379 1198.36,-385.5 1198.36,-385.5 1198.36,-385.5 1198.36,-255 1198.36,-195.125 1203.26,-124.334 1205.83,-91.2716"/>
<polygon fill="midnightblue" stroke="midnightblue" points="1209.32,-91.4767 1206.63,-81.2301 1202.34,-90.9203 1209.32,-91.4767"/>
</g>
<!-- Node4 -->
<g id="node5" class="node"><title>Node4</title>
<polygon fill="white" stroke="#bfbfbf" points="77.3635,-129 77.3635,-148 129.363,-148 129.363,-129 77.3635,-129"/>
<text text-anchor="middle" x="103.363" y="-136" font-family="Helvetica,sans-Serif" font-size="10.00">assert.h</text>
</g>
<!-- Node2&#45;&gt;Node4 -->
<g id="edge4" class="edge"><title>Node2&#45;&gt;Node4</title>
<path fill="none" stroke="midnightblue" d="M1091.08,-503.491C1048.56,-487.121 975.956,-459.305 913.363,-436 569.863,-308.103 479.982,-286.843 138.363,-154 136.72,-153.361 135.037,-152.697 133.34,-152.019"/>
<polygon fill="midnightblue" stroke="midnightblue" points="134.243,-148.608 123.661,-148.085 131.607,-155.093 134.243,-148.608"/>
</g>
<!-- Node5 -->
<g id="node6" class="node"><title>Node5</title>
<g id="a_node6"><a xlink:href="_n_f_map_8h.html" target="_top" xlink:title="NFComm/NFCore/NFMap.h">
<polygon fill="white" stroke="black" points="1399.86,-246.5 1399.86,-265.5 1536.86,-265.5 1536.86,-246.5 1399.86,-246.5"/>
<text text-anchor="middle" x="1468.36" y="-253.5" font-family="Helvetica,sans-Serif" font-size="10.00">NFComm/NFCore/NFMap.h</text>
</a>
</g>
</g>
<!-- Node2&#45;&gt;Node5 -->
<g id="edge5" class="edge"><title>Node2&#45;&gt;Node5</title>
<path fill="none" stroke="midnightblue" d="M1193.66,-506.639C1259.86,-495.306 1353.69,-477.722 1367.36,-467 1430.94,-417.153 1456.79,-317.293 1465.08,-275.775"/>
<polygon fill="midnightblue" stroke="midnightblue" points="1468.53,-276.385 1466.94,-265.911 1461.65,-275.092 1468.53,-276.385"/>
</g>
<!-- Node12 -->
<g id="node13" class="node"><title>Node12</title>
<g id="a_node13"><a xlink:href="_n_f_platform_8h.html" target="_top" xlink:title="NFComm/NFPluginModule\l/NFPlatform.h">
<polygon fill="white" stroke="black" points="1702.36,-56.5 1702.36,-86.5 1834.36,-86.5 1834.36,-56.5 1702.36,-56.5"/>
<text text-anchor="start" x="1710.36" y="-74.5" font-family="Helvetica,sans-Serif" font-size="10.00">NFComm/NFPluginModule</text>
<text text-anchor="middle" x="1768.36" y="-63.5" font-family="Helvetica,sans-Serif" font-size="10.00">/NFPlatform.h</text>
</a>
</g>
</g>
<!-- Node2&#45;&gt;Node12 -->
<g id="edge66" class="edge"><title>Node2&#45;&gt;Node12</title>
<path fill="none" stroke="midnightblue" d="M1193.43,-507.27C1356.38,-481.594 1764.36,-414.423 1764.36,-385.5 1764.36,-385.5 1764.36,-385.5 1764.36,-199 1764.36,-163.399 1765.97,-122.19 1767.14,-96.7327"/>
<polygon fill="midnightblue" stroke="midnightblue" points="1770.65,-96.6907 1767.63,-86.5349 1763.66,-96.3562 1770.65,-96.6907"/>
</g>
<!-- Node17 -->
<g id="node18" class="node"><title>Node17</title>
<g id="a_node18"><a xlink:href="_n_f_i_module_8h.html" target="_top" xlink:title="NFComm/NFPluginModule\l/NFIModule.h">
<polygon fill="white" stroke="black" points="958.363,-369.5 958.363,-399.5 1090.36,-399.5 1090.36,-369.5 958.363,-369.5"/>
<text text-anchor="start" x="966.363" y="-387.5" font-family="Helvetica,sans-Serif" font-size="10.00">NFComm/NFPluginModule</text>
<text text-anchor="middle" x="1024.36" y="-376.5" font-family="Helvetica,sans-Serif" font-size="10.00">/NFIModule.h</text>
</a>
</g>
</g>
<!-- Node2&#45;&gt;Node17 -->
<g id="edge24" class="edge"><title>Node2&#45;&gt;Node17</title>
<path fill="none" stroke="midnightblue" d="M1116.34,-503.374C1098.45,-480.448 1062.96,-434.966 1041.68,-407.689"/>
<polygon fill="midnightblue" stroke="midnightblue" points="1044.22,-405.255 1035.31,-399.525 1038.7,-409.562 1044.22,-405.255"/>
</g>
<!-- Node2&#45;&gt;Node35 -->
<g id="edge67" class="edge"><title>Node2&#45;&gt;Node35</title>
<path fill="none" stroke="midnightblue" d="M1065.01,-503.476C1019.78,-493.302 958.458,-479.511 911.007,-468.839"/>
<polygon fill="midnightblue" stroke="midnightblue" points="911.627,-465.391 901.103,-466.611 910.091,-472.22 911.627,-465.391"/>
</g>
<!-- Node5&#45;&gt;Node3 -->
<g id="edge9" class="edge"><title>Node5&#45;&gt;Node3</title>
<path fill="none" stroke="midnightblue" d="M1472.17,-246.362C1481.68,-223.302 1503.64,-159.564 1473.36,-123 1444.77,-88.4616 1311.05,-77.3549 1244.78,-73.9376"/>
<polygon fill="midnightblue" stroke="midnightblue" points="1244.91,-70.4398 1234.75,-73.4528 1244.57,-77.4317 1244.91,-70.4398"/>
</g>
<!-- Node6 -->
<g id="node7" class="node"><title>Node6</title>
<polygon fill="white" stroke="#bfbfbf" points="1358.86,-129 1358.86,-148 1393.86,-148 1393.86,-129 1358.86,-129"/>
<text text-anchor="middle" x="1376.36" y="-136" font-family="Helvetica,sans-Serif" font-size="10.00">map</text>
</g>
<!-- Node5&#45;&gt;Node6 -->
<g id="edge6" class="edge"><title>Node5&#45;&gt;Node6</title>
<path fill="none" stroke="midnightblue" d="M1461.45,-246.319C1446.2,-227.172 1409.46,-181.044 1389.61,-156.131"/>
<polygon fill="midnightblue" stroke="midnightblue" points="1392.33,-153.923 1383.36,-148.282 1386.85,-158.285 1392.33,-153.923"/>
</g>
<!-- Node7 -->
<g id="node8" class="node"><title>Node7</title>
<polygon fill="white" stroke="#bfbfbf" points="1311.86,-129 1311.86,-148 1340.86,-148 1340.86,-129 1311.86,-129"/>
<text text-anchor="middle" x="1326.36" y="-136" font-family="Helvetica,sans-Serif" font-size="10.00">list</text>
</g>
<!-- Node5&#45;&gt;Node7 -->
<g id="edge7" class="edge"><title>Node5&#45;&gt;Node7</title>
<path fill="none" stroke="midnightblue" d="M1457.69,-246.319C1433.74,-226.837 1375.45,-179.425 1345.23,-154.845"/>
<polygon fill="midnightblue" stroke="midnightblue" points="1347.13,-151.877 1337.16,-148.282 1342.71,-157.307 1347.13,-151.877"/>
</g>
<!-- Node8 -->
<g id="node9" class="node"><title>Node8</title>
<polygon fill="white" stroke="#bfbfbf" points="1615.86,-0.5 1615.86,-19.5 1656.86,-19.5 1656.86,-0.5 1615.86,-0.5"/>
<text text-anchor="middle" x="1636.36" y="-7.5" font-family="Helvetica,sans-Serif" font-size="10.00">string</text>
</g>
<!-- Node5&#45;&gt;Node8 -->
<g id="edge8" class="edge"><title>Node5&#45;&gt;Node8</title>
<path fill="none" stroke="midnightblue" d="M1529.14,-246.444C1571.31,-239.123 1622.19,-227.048 1635.36,-210 1676.89,-156.254 1655.23,-67.6978 1642.94,-29.4922"/>
<polygon fill="midnightblue" stroke="midnightblue" points="1646.16,-28.0864 1639.64,-19.7319 1639.52,-30.3261 1646.16,-28.0864"/>
</g>
<!-- Node9 -->
<g id="node10" class="node"><title>Node9</title>
<polygon fill="white" stroke="#bfbfbf" points="1520.36,-129 1520.36,-148 1570.36,-148 1570.36,-129 1520.36,-129"/>
<text text-anchor="middle" x="1545.36" y="-136" font-family="Helvetica,sans-Serif" font-size="10.00">typeinfo</text>
</g>
<!-- Node5&#45;&gt;Node9 -->
<g id="edge10" class="edge"><title>Node5&#45;&gt;Node9</title>
<path fill="none" stroke="midnightblue" d="M1476.47,-246.446C1484.56,-237.683 1497.08,-223.473 1506.36,-210 1518.11,-192.945 1529.32,-172.036 1536.68,-157.435"/>
<polygon fill="midnightblue" stroke="midnightblue" points="1540.02,-158.579 1541.31,-148.064 1533.74,-155.477 1540.02,-158.579"/>
</g>
<!-- Node10 -->
<g id="node11" class="node"><title>Node10</title>
<g id="a_node11"><a xlink:href="_n_f_map_ex_8h.html" target="_top" xlink:title="NFMapEx.h">
<polygon fill="white" stroke="black" points="1558.36,-190.5 1558.36,-209.5 1626.36,-209.5 1626.36,-190.5 1558.36,-190.5"/>
<text text-anchor="middle" x="1592.36" y="-197.5" font-family="Helvetica,sans-Serif" font-size="10.00">NFMapEx.h</text>
</a>
</g>
</g>
<!-- Node5&#45;&gt;Node10 -->
<g id="edge11" class="edge"><title>Node5&#45;&gt;Node10</title>
<path fill="none" stroke="midnightblue" d="M1488.01,-246.444C1508.33,-237.596 1540.27,-223.687 1563.46,-213.586"/>
<polygon fill="midnightblue" stroke="midnightblue" points="1565.04,-216.718 1572.81,-209.516 1562.24,-210.3 1565.04,-216.718"/>
</g>
<!-- Node10&#45;&gt;Node3 -->
<g id="edge15" class="edge"><title>Node10&#45;&gt;Node3</title>
<path fill="none" stroke="midnightblue" d="M1593.8,-190.473C1595.92,-174.679 1597.85,-140.858 1579.36,-123 1532.22,-77.4556 1329.5,-72.3051 1244.79,-72.189"/>
<polygon fill="midnightblue" stroke="midnightblue" points="1244.58,-68.6891 1234.59,-72.1989 1244.59,-75.6891 1244.58,-68.6891"/>
</g>
<!-- Node10&#45;&gt;Node6 -->
<g id="edge12" class="edge"><title>Node10&#45;&gt;Node6</title>
<path fill="none" stroke="midnightblue" d="M1558.12,-193.603C1519.63,-186.911 1455.7,-173.897 1403.36,-154 1402.16,-153.543 1400.94,-153.042 1399.73,-152.511"/>
<polygon fill="midnightblue" stroke="midnightblue" points="1401.13,-149.301 1390.61,-148.039 1398.05,-155.586 1401.13,-149.301"/>
</g>
<!-- Node10&#45;&gt;Node7 -->
<g id="edge13" class="edge"><title>Node10&#45;&gt;Node7</title>
<path fill="none" stroke="midnightblue" d="M1558.24,-196.76C1510.19,-192.706 1420.49,-181.816 1349.36,-154 1348.64,-153.716 1347.91,-153.409 1347.18,-153.082"/>
<polygon fill="midnightblue" stroke="midnightblue" points="1348.53,-149.828 1338.08,-148.083 1345.16,-155.964 1348.53,-149.828"/>
</g>
<!-- Node10&#45;&gt;Node8 -->
<g id="edge14" class="edge"><title>Node10&#45;&gt;Node8</title>
<path fill="none" stroke="midnightblue" d="M1594.37,-190.434C1601.05,-161.867 1622.69,-69.4262 1632.02,-29.5696"/>
<polygon fill="midnightblue" stroke="midnightblue" points="1635.48,-30.1513 1634.35,-19.6168 1628.66,-28.5561 1635.48,-30.1513"/>
</g>
<!-- Node10&#45;&gt;Node9 -->
<g id="edge16" class="edge"><title>Node10&#45;&gt;Node9</title>
<path fill="none" stroke="midnightblue" d="M1585.63,-190.475C1578.58,-181.55 1567.33,-167.307 1558.51,-156.143"/>
<polygon fill="midnightblue" stroke="midnightblue" points="1561.03,-153.687 1552.08,-148.009 1555.54,-158.026 1561.03,-153.687"/>
</g>
<!-- Node11 -->
<g id="node12" class="node"><title>Node11</title>
<polygon fill="white" stroke="#bfbfbf" points="1412.36,-129 1412.36,-148 1464.36,-148 1464.36,-129 1412.36,-129"/>
<text text-anchor="middle" x="1438.36" y="-136" font-family="Helvetica,sans-Serif" font-size="10.00">memory</text>
</g>
<!-- Node10&#45;&gt;Node11 -->
<g id="edge17" class="edge"><title>Node10&#45;&gt;Node11</title>
<path fill="none" stroke="midnightblue" d="M1570.3,-190.475C1544,-180.313 1499.85,-163.256 1469.94,-151.7"/>
<polygon fill="midnightblue" stroke="midnightblue" points="1470.98,-148.348 1460.39,-148.009 1468.45,-154.878 1470.98,-148.348"/>
</g>
<!-- Node10&#45;&gt;Node12 -->
<g id="edge18" class="edge"><title>Node10&#45;&gt;Node12</title>
<path fill="none" stroke="midnightblue" d="M1604.46,-190.305C1632.26,-170.325 1701.29,-120.707 1740.32,-92.6548"/>
<polygon fill="midnightblue" stroke="midnightblue" points="1742.55,-95.3605 1748.63,-86.6821 1738.47,-89.6764 1742.55,-95.3605"/>
</g>
<!-- Node12&#45;&gt;Node8 -->
<g id="edge23" class="edge"><title>Node12&#45;&gt;Node8</title>
<path fill="none" stroke="midnightblue" d="M1737.08,-56.3993C1715.13,-46.5054 1686.02,-33.3832 1664.74,-23.7919"/>
<polygon fill="midnightblue" stroke="midnightblue" points="1666.13,-20.5764 1655.57,-19.6578 1663.25,-26.958 1666.13,-20.5764"/>
</g>
<!-- Node13 -->
<g id="node14" class="node"><title>Node13</title>
<polygon fill="white" stroke="#bfbfbf" points="1955.86,-0.5 1955.86,-19.5 2004.86,-19.5 2004.86,-0.5 1955.86,-0.5"/>
<text text-anchor="middle" x="1980.36" y="-7.5" font-family="Helvetica,sans-Serif" font-size="10.00">stdint.h</text>
</g>
<!-- Node12&#45;&gt;Node13 -->
<g id="edge19" class="edge"><title>Node12&#45;&gt;Node13</title>
<path fill="none" stroke="midnightblue" d="M1818.34,-56.4747C1857.67,-45.4363 1911.44,-30.3448 1946.04,-20.6335"/>
<polygon fill="midnightblue" stroke="midnightblue" points="1947.01,-23.996 1955.69,-17.9239 1945.12,-17.2564 1947.01,-23.996"/>
</g>
<!-- Node14 -->
<g id="node15" class="node"><title>Node14</title>
<polygon fill="white" stroke="#bfbfbf" points="1677.36,-0.5 1677.36,-19.5 1721.36,-19.5 1721.36,-0.5 1677.36,-0.5"/>
<text text-anchor="middle" x="1699.36" y="-7.5" font-family="Helvetica,sans-Serif" font-size="10.00">time.h</text>
</g>
<!-- Node12&#45;&gt;Node14 -->
<g id="edge20" class="edge"><title>Node12&#45;&gt;Node14</title>
<path fill="none" stroke="midnightblue" d="M1752.01,-56.3993C1741.47,-47.3076 1727.76,-35.4899 1716.98,-26.1909"/>
<polygon fill="midnightblue" stroke="midnightblue" points="1719.26,-23.5377 1709.4,-19.6578 1714.69,-28.8389 1719.26,-23.5377"/>
</g>
<!-- Node15 -->
<g id="node16" class="node"><title>Node15</title>
<polygon fill="white" stroke="#bfbfbf" points="1739.36,-0.5 1739.36,-19.5 1791.36,-19.5 1791.36,-0.5 1739.36,-0.5"/>
<text text-anchor="middle" x="1765.36" y="-7.5" font-family="Helvetica,sans-Serif" font-size="10.00">sstream</text>
</g>
<!-- Node12&#45;&gt;Node15 -->
<g id="edge21" class="edge"><title>Node12&#45;&gt;Node15</title>
<path fill="none" stroke="midnightblue" d="M1767.65,-56.3993C1767.25,-48.4664 1766.75,-38.458 1766.31,-29.8583"/>
<polygon fill="midnightblue" stroke="midnightblue" points="1769.8,-29.4688 1765.8,-19.6578 1762.81,-29.8214 1769.8,-29.4688"/>
</g>
<!-- Node16 -->
<g id="node17" class="node"><title>Node16</title>
<polygon fill="white" stroke="#bfbfbf" points="1809.36,-0.5 1809.36,-19.5 1937.36,-19.5 1937.36,-0.5 1809.36,-0.5"/>
<text text-anchor="middle" x="1873.36" y="-7.5" font-family="Helvetica,sans-Serif" font-size="10.00">common/lexical_cast.hpp</text>
</g>
<!-- Node12&#45;&gt;Node16 -->
<g id="edge22" class="edge"><title>Node12&#45;&gt;Node16</title>
<path fill="none" stroke="midnightblue" d="M1793.25,-56.3993C1810.08,-46.8619 1832.2,-34.3248 1848.94,-24.8422"/>
<polygon fill="midnightblue" stroke="midnightblue" points="1851.11,-27.633 1858.09,-19.6578 1847.66,-21.5429 1851.11,-27.633"/>
</g>
<!-- Node17&#45;&gt;Node5 -->
<g id="edge26" class="edge"><title>Node17&#45;&gt;Node5</title>
<path fill="none" stroke="midnightblue" d="M1073.58,-369.479C1162.24,-344.217 1347.14,-291.537 1428.49,-268.359"/>
<polygon fill="midnightblue" stroke="midnightblue" points="1429.69,-271.658 1438.35,-265.552 1427.77,-264.926 1429.69,-271.658"/>
</g>
<!-- Node17&#45;&gt;Node8 -->
<g id="edge25" class="edge"><title>Node17&#45;&gt;Node8</title>
<path fill="none" stroke="midnightblue" d="M958.114,-381.887C738.668,-375.675 49.3635,-348.852 49.3635,-257 49.3635,-257 49.3635,-257 49.3635,-137.5 49.3635,-100.629 -135.993,-138.14 215.363,-56 354.904,-23.3783 1410.68,-12.9104 1605.51,-11.248"/>
<polygon fill="midnightblue" stroke="midnightblue" points="1605.65,-14.747 1615.62,-11.1631 1605.59,-7.74729 1605.65,-14.747"/>
</g>
<!-- Node18 -->
<g id="node19" class="node"><title>Node18</title>
<g id="a_node19"><a xlink:href="_n_f_list_8h.html" target="_top" xlink:title="NFComm/NFCore/NFList.h">
<polygon fill="white" stroke="black" points="1226.36,-190.5 1226.36,-209.5 1360.36,-209.5 1360.36,-190.5 1226.36,-190.5"/>
<text text-anchor="middle" x="1293.36" y="-197.5" font-family="Helvetica,sans-Serif" font-size="10.00">NFComm/NFCore/NFList.h</text>
</a>
</g>
</g>
<!-- Node17&#45;&gt;Node18 -->
<g id="edge27" class="edge"><title>Node17&#45;&gt;Node18</title>
<path fill="none" stroke="midnightblue" d="M1064.51,-369.472C1087.56,-360.588 1116.56,-347.963 1140.36,-333 1195.81,-298.143 1251.75,-243.927 1277.98,-217.124"/>
<polygon fill="midnightblue" stroke="midnightblue" points="1280.69,-219.356 1285.14,-209.738 1275.66,-214.487 1280.69,-219.356"/>
</g>
<!-- Node20 -->
<g id="node21" class="node"><title>Node20</title>
<g id="a_node21"><a xlink:href="_n_f_define_8h.html" target="_top" xlink:title="NFComm/NFCore/NFDefine.h">
<polygon fill="white" stroke="black" points="724.863,-246.5 724.863,-265.5 869.863,-265.5 869.863,-246.5 724.863,-246.5"/>
<text text-anchor="middle" x="797.363" y="-253.5" font-family="Helvetica,sans-Serif" font-size="10.00">NFComm/NFCore/NFDefine.h</text>
</a>
</g>
</g>
<!-- Node17&#45;&gt;Node20 -->
<g id="edge33" class="edge"><title>Node17&#45;&gt;Node20</title>
<path fill="none" stroke="midnightblue" d="M958.277,-378.418C896.355,-372.12 810.278,-358.887 789.363,-333 776.244,-316.762 782.274,-291.775 788.87,-274.927"/>
<polygon fill="midnightblue" stroke="midnightblue" points="792.129,-276.208 792.884,-265.64 785.703,-273.431 792.129,-276.208"/>
</g>
<!-- Node22 -->
<g id="node23" class="node"><title>Node22</title>
<g id="a_node23"><a xlink:href="_a_f_data_list_8hpp.html" target="_top" xlink:title="AFDataList.hpp">
<polygon fill="white" stroke="black" points="813.363,-190.5 813.363,-209.5 897.363,-209.5 897.363,-190.5 813.363,-190.5"/>
<text text-anchor="middle" x="855.363" y="-197.5" font-family="Helvetica,sans-Serif" font-size="10.00">AFDataList.hpp</text>
</a>
</g>
</g>
<!-- Node17&#45;&gt;Node22 -->
<g id="edge60" class="edge"><title>Node17&#45;&gt;Node22</title>
<path fill="none" stroke="midnightblue" d="M1013.62,-369.252C1000.94,-352.658 978.942,-324.63 958.363,-302 929.506,-270.266 893.161,-235.788 872.262,-216.441"/>
<polygon fill="midnightblue" stroke="midnightblue" points="874.537,-213.777 864.81,-209.578 869.795,-218.926 874.537,-213.777"/>
</g>
<!-- Node33 -->
<g id="node34" class="node"><title>Node33</title>
<g id="a_node34"><a xlink:href="_n_f_i_record_8h.html" target="_top" xlink:title="NFComm/NFCore/NFIRecord.h">
<polygon fill="white" stroke="black" points="798.863,-308 798.863,-327 949.863,-327 949.863,-308 798.863,-308"/>
<text text-anchor="middle" x="874.363" y="-315" font-family="Helvetica,sans-Serif" font-size="10.00">NFComm/NFCore/NFIRecord.h</text>
</a>
</g>
</g>
<!-- Node17&#45;&gt;Node33 -->
<g id="edge61" class="edge"><title>Node17&#45;&gt;Node33</title>
<path fill="none" stroke="midnightblue" d="M991.816,-369.396C965.497,-357.991 928.777,-342.079 903.435,-331.098"/>
<polygon fill="midnightblue" stroke="midnightblue" points="904.562,-327.772 893.995,-327.007 901.779,-334.195 904.562,-327.772"/>
</g>
<!-- Node34 -->
<g id="node35" class="node"><title>Node34</title>
<g id="a_node35"><a xlink:href="_n_f_event_define_8h.html" target="_top" xlink:title="NFComm/NFEventDefine\l/NFEventDefine.h">
<polygon fill="white" stroke="black" points="1006.86,-302.5 1006.86,-332.5 1131.86,-332.5 1131.86,-302.5 1006.86,-302.5"/>
<text text-anchor="start" x="1014.86" y="-320.5" font-family="Helvetica,sans-Serif" font-size="10.00">NFComm/NFEventDefine</text>
<text text-anchor="middle" x="1069.36" y="-309.5" font-family="Helvetica,sans-Serif" font-size="10.00">/NFEventDefine.h</text>
</a>
</g>
</g>
<!-- Node17&#45;&gt;Node34 -->
<g id="edge64" class="edge"><title>Node17&#45;&gt;Node34</title>
<path fill="none" stroke="midnightblue" d="M1034.13,-369.396C1039.91,-361.049 1047.36,-350.287 1053.92,-340.811"/>
<polygon fill="midnightblue" stroke="midnightblue" points="1056.8,-342.791 1059.62,-332.577 1051.05,-338.806 1056.8,-342.791"/>
</g>
<!-- Node18&#45;&gt;Node3 -->
<g id="edge28" class="edge"><title>Node18&#45;&gt;Node3</title>
<path fill="none" stroke="midnightblue" d="M1287.45,-190.305C1273.4,-169.633 1237.77,-117.232 1219.14,-89.8176"/>
<polygon fill="midnightblue" stroke="midnightblue" points="1221.83,-87.5578 1213.32,-81.2557 1216.04,-91.4934 1221.83,-87.5578"/>
</g>
<!-- Node18&#45;&gt;Node6 -->
<g id="edge29" class="edge"><title>Node18&#45;&gt;Node6</title>
<path fill="none" stroke="midnightblue" d="M1305.26,-190.475C1318.57,-180.931 1340.36,-165.307 1356.32,-153.868"/>
<polygon fill="midnightblue" stroke="midnightblue" points="1358.41,-156.68 1364.49,-148.009 1354.33,-150.991 1358.41,-156.68"/>
</g>
<!-- Node18&#45;&gt;Node7 -->
<g id="edge30" class="edge"><title>Node18&#45;&gt;Node7</title>
<path fill="none" stroke="midnightblue" d="M1298.09,-190.475C1302.94,-181.727 1310.63,-167.869 1316.76,-156.809"/>
<polygon fill="midnightblue" stroke="midnightblue" points="1319.85,-158.452 1321.64,-148.009 1313.73,-155.057 1319.85,-158.452"/>
</g>
<!-- Node18&#45;&gt;Node12 -->
<g id="edge32" class="edge"><title>Node18&#45;&gt;Node12</title>
<path fill="none" stroke="midnightblue" d="M1291.37,-190.49C1288.24,-174.724 1284.24,-140.949 1302.36,-123 1329.47,-96.1644 1566.8,-81.5501 1691.91,-75.6493"/>
<polygon fill="midnightblue" stroke="midnightblue" points="1692.36,-79.1322 1702.18,-75.1722 1692.03,-72.1398 1692.36,-79.1322"/>
</g>
<!-- Node19 -->
<g id="node20" class="node"><title>Node19</title>
<polygon fill="white" stroke="#bfbfbf" points="1123.36,-129 1123.36,-148 1179.36,-148 1179.36,-129 1123.36,-129"/>
<text text-anchor="middle" x="1151.36" y="-136" font-family="Helvetica,sans-Serif" font-size="10.00">algorithm</text>
</g>
<!-- Node18&#45;&gt;Node19 -->
<g id="edge31" class="edge"><title>Node18&#45;&gt;Node19</title>
<path fill="none" stroke="midnightblue" d="M1273.02,-190.475C1248.98,-180.401 1208.77,-163.553 1181.2,-152.002"/>
<polygon fill="midnightblue" stroke="midnightblue" points="1182.25,-148.646 1171.67,-148.009 1179.54,-155.102 1182.25,-148.646"/>
</g>
<!-- Node21 -->
<g id="node22" class="node"><title>Node21</title>
<polygon fill="white" stroke="#bfbfbf" points="147.363,-129 147.363,-148 205.363,-148 205.363,-129 147.363,-129"/>
<text text-anchor="middle" x="176.363" y="-136" font-family="Helvetica,sans-Serif" font-size="10.00">functional</text>
</g>
<!-- Node20&#45;&gt;Node21 -->
<g id="edge34" class="edge"><title>Node20&#45;&gt;Node21</title>
<path fill="none" stroke="midnightblue" d="M789.234,-246.312C774.915,-231.666 743.553,-202.445 710.363,-190 512.539,-115.825 445.056,-186.922 236.363,-154 229.536,-152.923 222.34,-151.468 215.394,-149.894"/>
<polygon fill="midnightblue" stroke="midnightblue" points="216.009,-146.443 205.47,-147.533 214.389,-153.253 216.009,-146.443"/>
</g>
<!-- Node20&#45;&gt;Node22 -->
<g id="edge35" class="edge"><title>Node20&#45;&gt;Node22</title>
<path fill="none" stroke="midnightblue" d="M806.682,-246.324C815.256,-238.341 828.176,-226.313 838.551,-216.653"/>
<polygon fill="midnightblue" stroke="midnightblue" points="840.941,-219.21 845.875,-209.834 836.171,-214.086 840.941,-219.21"/>
</g>
<!-- Node30 -->
<g id="node31" class="node"><title>Node30</title>
<g id="a_node31"><a xlink:href="_n_f_g_u_i_d_8h.html" target="_top" xlink:title="NFComm/NFPluginModule\l/NFGUID.h">
<polygon fill="white" stroke="black" points="261.363,-123.5 261.363,-153.5 393.363,-153.5 393.363,-123.5 261.363,-123.5"/>
<text text-anchor="start" x="269.363" y="-141.5" font-family="Helvetica,sans-Serif" font-size="10.00">NFComm/NFPluginModule</text>
<text text-anchor="middle" x="327.363" y="-130.5" font-family="Helvetica,sans-Serif" font-size="10.00">/NFGUID.h</text>
</a>
</g>
</g>
<!-- Node20&#45;&gt;Node30 -->
<g id="edge59" class="edge"><title>Node20&#45;&gt;Node30</title>
<path fill="none" stroke="midnightblue" d="M794.605,-246.473C789.453,-232.07 776.896,-203.205 755.363,-190 689.087,-149.356 484.336,-164.941 407.363,-154 406.106,-153.821 404.838,-153.637 403.561,-153.448"/>
<polygon fill="midnightblue" stroke="midnightblue" points="404.072,-149.986 393.655,-151.917 403.003,-156.904 404.072,-149.986"/>
</g>
<!-- Node22&#45;&gt;Node3 -->
<g id="edge38" class="edge"><title>Node22&#45;&gt;Node3</title>
<path fill="none" stroke="midnightblue" d="M894.838,-190.427C924.767,-183.065 966.4,-170.945 1000.36,-154 1021.45,-143.482 1022.27,-133.495 1043.36,-123 1084.7,-102.435 1136.09,-88.2623 1170.21,-80.2789"/>
<polygon fill="midnightblue" stroke="midnightblue" points="1171.24,-83.6334 1180.21,-77.9998 1169.69,-76.8083 1171.24,-83.6334"/>
</g>
<!-- Node22&#45;&gt;Node4 -->
<g id="edge45" class="edge"><title>Node22&#45;&gt;Node4</title>
<path fill="none" stroke="midnightblue" d="M813.324,-196.384C660.106,-186.849 140.435,-154.48 138.363,-154 135.692,-153.381 132.963,-152.579 130.265,-151.67"/>
<polygon fill="midnightblue" stroke="midnightblue" points="131.384,-148.351 120.794,-148.046 128.883,-154.889 131.384,-148.351"/>
</g>
<!-- Node22&#45;&gt;Node6 -->
<g id="edge43" class="edge"><title>Node22&#45;&gt;Node6</title>
<path fill="none" stroke="midnightblue" d="M897.436,-197.329C1000.85,-192.876 1265.13,-179.304 1349.36,-154 1350.8,-153.569 1352.24,-153.058 1353.68,-152.49"/>
<polygon fill="midnightblue" stroke="midnightblue" points="1355.29,-155.601 1362.81,-148.146 1352.28,-149.279 1355.29,-155.601"/>
</g>
<!-- Node22&#45;&gt;Node7 -->
<g id="edge41" class="edge"><title>Node22&#45;&gt;Node7</title>
<path fill="none" stroke="midnightblue" d="M897.576,-193.667C993.56,-181.542 1225.74,-152.212 1301.79,-142.604"/>
<polygon fill="midnightblue" stroke="midnightblue" points="1302.36,-146.06 1311.85,-141.334 1301.49,-139.115 1302.36,-146.06"/>
</g>
<!-- Node22&#45;&gt;Node8 -->
<g id="edge36" class="edge"><title>Node22&#45;&gt;Node8</title>
<path fill="none" stroke="midnightblue" d="M813.164,-193.911C802.164,-192.609 790.322,-191.231 779.363,-190 741.722,-185.773 465.694,-182.163 440.363,-154 431.15,-143.756 431.086,-133.186 440.363,-123 521.296,-34.1343 1426.4,-14.4937 1605.63,-11.4661"/>
<polygon fill="midnightblue" stroke="midnightblue" points="1605.75,-14.9647 1615.69,-11.3009 1605.64,-7.96563 1605.75,-14.9647"/>
</g>
<!-- Node22&#45;&gt;Node9 -->
<g id="edge46" class="edge"><title>Node22&#45;&gt;Node9</title>
<path fill="none" stroke="midnightblue" d="M897.516,-197.762C997.753,-194.421 1258.06,-183.4 1473.36,-154 1485.48,-152.346 1498.62,-149.896 1510.32,-147.478"/>
<polygon fill="midnightblue" stroke="midnightblue" points="1511.12,-150.888 1520.17,-145.384 1509.66,-144.041 1511.12,-150.888"/>
</g>
<!-- Node22&#45;&gt;Node11 -->
<g id="edge50" class="edge"><title>Node22&#45;&gt;Node11</title>
<path fill="none" stroke="midnightblue" d="M897.548,-199.802C990.237,-200.639 1218.08,-197.634 1402.36,-154 1405.04,-153.367 1407.77,-152.568 1410.48,-151.671"/>
<polygon fill="midnightblue" stroke="midnightblue" points="1411.87,-154.888 1420.03,-148.121 1409.43,-148.327 1411.87,-154.888"/>
</g>
<!-- Node22&#45;&gt;Node12 -->
<g id="edge57" class="edge"><title>Node22&#45;&gt;Node12</title>
<path fill="none" stroke="midnightblue" d="M896.42,-190.449C933.396,-182.358 989.044,-169.209 1036.36,-154 1071.88,-142.585 1078.02,-131.42 1114.36,-123 1222.23,-98.0077 1543.58,-81.8455 1691.85,-75.5192"/>
<polygon fill="midnightblue" stroke="midnightblue" points="1692.38,-79.0001 1702.22,-75.0807 1692.08,-72.0063 1692.38,-79.0001"/>
</g>
<!-- Node22&#45;&gt;Node19 -->
<g id="edge44" class="edge"><title>Node22&#45;&gt;Node19</title>
<path fill="none" stroke="midnightblue" d="M897.598,-193.589C948.359,-186.612 1035.89,-173.066 1109.36,-154 1112.4,-153.212 1115.53,-152.308 1118.66,-151.345"/>
<polygon fill="midnightblue" stroke="midnightblue" points="1120.04,-154.574 1128.46,-148.137 1117.86,-147.922 1120.04,-154.574"/>
</g>
<!-- Node22&#45;&gt;Node21 -->
<g id="edge48" class="edge"><title>Node22&#45;&gt;Node21</title>
<path fill="none" stroke="midnightblue" d="M813.049,-194.978C795.246,-193.341 774.305,-191.488 755.363,-190 517.338,-171.298 453.544,-200.533 219.363,-154 215.669,-153.266 211.854,-152.3 208.094,-151.215"/>
<polygon fill="midnightblue" stroke="midnightblue" points="208.974,-147.823 198.384,-148.141 206.861,-154.496 208.974,-147.823"/>
</g>
<!-- Node23 -->
<g id="node24" class="node"><title>Node23</title>
<polygon fill="white" stroke="#bfbfbf" points="819.363,-129 819.363,-148 865.363,-148 865.363,-129 819.363,-129"/>
<text text-anchor="middle" x="842.363" y="-136" font-family="Helvetica,sans-Serif" font-size="10.00">cstring</text>
</g>
<!-- Node22&#45;&gt;Node23 -->
<g id="edge37" class="edge"><title>Node22&#45;&gt;Node23</title>
<path fill="none" stroke="midnightblue" d="M853.501,-190.475C851.647,-181.992 848.744,-168.704 846.367,-157.822"/>
<polygon fill="midnightblue" stroke="midnightblue" points="849.777,-157.032 844.223,-148.009 842.938,-158.526 849.777,-157.032"/>
</g>
<!-- Node24 -->
<g id="node25" class="node"><title>Node24</title>
<polygon fill="white" stroke="#bfbfbf" points="224.363,-62 224.363,-81 272.363,-81 272.363,-62 224.363,-62"/>
<text text-anchor="middle" x="248.363" y="-69" font-family="Helvetica,sans-Serif" font-size="10.00">stdlib.h</text>
</g>
<!-- Node22&#45;&gt;Node24 -->
<g id="edge39" class="edge"><title>Node22&#45;&gt;Node24</title>
<path fill="none" stroke="midnightblue" d="M813.046,-195.019C795.242,-193.389 774.302,-191.53 755.363,-190 699.514,-185.489 291.538,-194.062 252.363,-154 236.377,-137.651 238.96,-109.518 243.051,-90.9603"/>
<polygon fill="midnightblue" stroke="midnightblue" points="246.494,-91.6227 245.573,-81.068 239.711,-89.8935 246.494,-91.6227"/>
</g>
<!-- Node25 -->
<g id="node26" class="node"><title>Node25</title>
<polygon fill="white" stroke="#bfbfbf" points="883.863,-129 883.863,-148 930.863,-148 930.863,-129 883.863,-129"/>
<text text-anchor="middle" x="907.363" y="-136" font-family="Helvetica,sans-Serif" font-size="10.00">math.h</text>
</g>
<!-- Node22&#45;&gt;Node25 -->
<g id="edge40" class="edge"><title>Node22&#45;&gt;Node25</title>
<path fill="none" stroke="midnightblue" d="M862.814,-190.475C870.691,-181.462 883.308,-167.025 893.108,-155.812"/>
<polygon fill="midnightblue" stroke="midnightblue" points="895.982,-157.842 899.927,-148.009 890.711,-153.236 895.982,-157.842"/>
</g>
<!-- Node26 -->
<g id="node27" class="node"><title>Node26</title>
<polygon fill="white" stroke="#bfbfbf" points="949.363,-129 949.363,-148 991.363,-148 991.363,-129 949.363,-129"/>
<text text-anchor="middle" x="970.363" y="-136" font-family="Helvetica,sans-Serif" font-size="10.00">vector</text>
</g>
<!-- Node22&#45;&gt;Node26 -->
<g id="edge42" class="edge"><title>Node22&#45;&gt;Node26</title>
<path fill="none" stroke="midnightblue" d="M871.84,-190.475C890.969,-180.578 922.737,-164.142 945.015,-152.615"/>
<polygon fill="midnightblue" stroke="midnightblue" points="946.644,-155.713 953.917,-148.009 943.427,-149.496 946.644,-155.713"/>
</g>
<!-- Node27 -->
<g id="node28" class="node"><title>Node27</title>
<polygon fill="white" stroke="#bfbfbf" points="449.363,-129 449.363,-148 499.363,-148 499.363,-129 449.363,-129"/>
<text text-anchor="middle" x="474.363" y="-136" font-family="Helvetica,sans-Serif" font-size="10.00">iomanip</text>
</g>
<!-- Node22&#45;&gt;Node27 -->
<g id="edge47" class="edge"><title>Node22&#45;&gt;Node27</title>
<path fill="none" stroke="midnightblue" d="M813.253,-192.314C807.908,-191.51 802.51,-190.72 797.363,-190 669.174,-172.074 633.332,-187.716 508.363,-154 506.063,-153.379 503.715,-152.634 501.382,-151.813"/>
<polygon fill="midnightblue" stroke="midnightblue" points="502.616,-148.537 492.029,-148.137 500.056,-155.052 502.616,-148.537"/>
</g>
<!-- Node28 -->
<g id="node29" class="node"><title>Node28</title>
<polygon fill="white" stroke="#bfbfbf" points="517.863,-129 517.863,-148 566.863,-148 566.863,-129 517.863,-129"/>
<text text-anchor="middle" x="542.363" y="-136" font-family="Helvetica,sans-Serif" font-size="10.00">fstream</text>
</g>
<!-- Node22&#45;&gt;Node28 -->
<g id="edge49" class="edge"><title>Node22&#45;&gt;Node28</title>
<path fill="none" stroke="midnightblue" d="M813.129,-192.323C736.53,-180.194 582.027,-155.638 576.363,-154 574.075,-153.338 571.735,-152.563 569.407,-151.722"/>
<polygon fill="midnightblue" stroke="midnightblue" points="570.65,-148.45 560.064,-148.011 568.066,-154.955 570.65,-148.45"/>
</g>
<!-- Node29 -->
<g id="node30" class="node"><title>Node29</title>
<polygon fill="white" stroke="#bfbfbf" points="585.363,-129 585.363,-148 689.363,-148 689.363,-129 585.363,-129"/>
<text text-anchor="middle" x="637.363" y="-136" font-family="Helvetica,sans-Serif" font-size="10.00">common/variant.hpp</text>
</g>
<!-- Node22&#45;&gt;Node29 -->
<g id="edge51" class="edge"><title>Node22&#45;&gt;Node29</title>
<path fill="none" stroke="midnightblue" d="M824.129,-190.475C785.763,-180.004 720.576,-162.212 678.252,-150.66"/>
<polygon fill="midnightblue" stroke="midnightblue" points="679.108,-147.266 668.54,-148.009 677.265,-154.019 679.108,-147.266"/>
</g>
<!-- Node22&#45;&gt;Node30 -->
<g id="edge52" class="edge"><title>Node22&#45;&gt;Node30</title>
<path fill="none" stroke="midnightblue" d="M813.274,-192.156C807.926,-191.378 802.521,-190.638 797.363,-190 624.608,-168.644 579.834,-177.545 407.363,-154 406.105,-153.828 404.836,-153.651 403.559,-153.468"/>
<polygon fill="midnightblue" stroke="midnightblue" points="404.057,-150.003 393.647,-151.974 403.013,-156.925 404.057,-150.003"/>
</g>
<!-- Node32 -->
<g id="node33" class="node"><title>Node32</title>
<g id="a_node33"><a xlink:href="_vector3_8hpp.html" target="_top" xlink:title="Math/Vector3.hpp">
<polygon fill="white" stroke="black" points="707.363,-129 707.363,-148 801.363,-148 801.363,-129 707.363,-129"/>
<text text-anchor="middle" x="754.363" y="-136" font-family="Helvetica,sans-Serif" font-size="10.00">Math/Vector3.hpp</text>
</a>
</g>
</g>
<!-- Node22&#45;&gt;Node32 -->
<g id="edge58" class="edge"><title>Node22&#45;&gt;Node32</title>
<path fill="none" stroke="midnightblue" d="M840.893,-190.475C824.393,-180.755 797.185,-164.727 777.682,-153.237"/>
<polygon fill="midnightblue" stroke="midnightblue" points="779.2,-150.069 768.807,-148.009 775.647,-156.101 779.2,-150.069"/>
</g>
<!-- Node30&#45;&gt;Node3 -->
<g id="edge54" class="edge"><title>Node30&#45;&gt;Node3</title>
<path fill="none" stroke="midnightblue" d="M393.611,-128.303C408.942,-126.368 425.205,-124.47 440.363,-123 720.229,-95.8569 1058.99,-79.1845 1170.11,-74.1343"/>
<polygon fill="midnightblue" stroke="midnightblue" points="1170.31,-77.6289 1180.14,-73.6819 1169.99,-70.636 1170.31,-77.6289"/>
</g>
<!-- Node30&#45;&gt;Node12 -->
<g id="edge53" class="edge"><title>Node30&#45;&gt;Node12</title>
<path fill="none" stroke="midnightblue" d="M393.583,-127.994C408.916,-126.074 425.186,-124.26 440.363,-123 686.165,-102.597 1447.69,-81.0498 1692.05,-74.5008"/>
<polygon fill="midnightblue" stroke="midnightblue" points="1692.36,-77.994 1702.26,-74.2279 1692.17,-70.9965 1692.36,-77.994"/>
</g>
<!-- Node30&#45;&gt;Node24 -->
<g id="edge56" class="edge"><title>Node30&#45;&gt;Node24</title>
<path fill="none" stroke="midnightblue" d="M310.222,-123.396C297.416,-112.86 279.936,-98.4771 266.823,-87.6886"/>
<polygon fill="midnightblue" stroke="midnightblue" points="268.877,-84.8455 258.931,-81.1945 264.429,-90.251 268.877,-84.8455"/>
</g>
<!-- Node31 -->
<g id="node32" class="node"><title>Node31</title>
<polygon fill="white" stroke="#bfbfbf" points="304.363,-62 304.363,-81 350.363,-81 350.363,-62 304.363,-62"/>
<text text-anchor="middle" x="327.363" y="-69" font-family="Helvetica,sans-Serif" font-size="10.00">stdio.h</text>
</g>
<!-- Node30&#45;&gt;Node31 -->
<g id="edge55" class="edge"><title>Node30&#45;&gt;Node31</title>
<path fill="none" stroke="midnightblue" d="M327.363,-123.396C327.363,-114.064 327.363,-101.714 327.363,-91.5173"/>
<polygon fill="midnightblue" stroke="midnightblue" points="330.864,-91.1945 327.363,-81.1945 323.864,-91.1946 330.864,-91.1945"/>
</g>
<!-- Node33&#45;&gt;Node20 -->
<g id="edge62" class="edge"><title>Node33&#45;&gt;Node20</title>
<path fill="none" stroke="midnightblue" d="M863.331,-307.975C851.095,-298.52 831.135,-283.096 816.37,-271.687"/>
<polygon fill="midnightblue" stroke="midnightblue" points="818.428,-268.854 808.375,-265.509 814.148,-274.393 818.428,-268.854"/>
</g>
<!-- Node33&#45;&gt;Node22 -->
<g id="edge63" class="edge"><title>Node33&#45;&gt;Node22</title>
<path fill="none" stroke="midnightblue" d="M876.482,-307.671C879.361,-294.174 883.586,-267.692 878.363,-246 876.057,-236.418 871.346,-226.581 866.785,-218.558"/>
<polygon fill="midnightblue" stroke="midnightblue" points="869.653,-216.537 861.468,-209.809 863.671,-220.173 869.653,-216.537"/>
</g>
<!-- Node34&#45;&gt;Node3 -->
<g id="edge65" class="edge"><title>Node34&#45;&gt;Node3</title>
<path fill="none" stroke="midnightblue" d="M1068.9,-302.469C1068.48,-268.174 1071.84,-178.836 1114.36,-123 1128.36,-104.62 1151.05,-92.1115 1170.51,-84.1414"/>
<polygon fill="midnightblue" stroke="midnightblue" points="1171.96,-87.3346 1180.04,-80.4839 1169.45,-80.7993 1171.96,-87.3346"/>
</g>
<!-- Node35&#45;&gt;Node17 -->
<g id="edge68" class="edge"><title>Node35&#45;&gt;Node17</title>
<path fill="none" stroke="midnightblue" d="M878.723,-436.396C906.874,-426.558 944.622,-413.367 974.633,-402.879"/>
<polygon fill="midnightblue" stroke="midnightblue" points="975.798,-406.18 984.083,-399.577 973.488,-399.571 975.798,-406.18"/>
</g>
<!-- Node37 -->
<g id="node38" class="node"><title>Node37</title>
<g id="a_node38"><a xlink:href="_n_f_i_log_module_8h.html" target="_top" xlink:title="NFComm/NFPluginModule\l/NFILogModule.h">
<polygon fill="white" stroke="black" points="1226.36,-436.5 1226.36,-466.5 1358.36,-466.5 1358.36,-436.5 1226.36,-436.5"/>
<text text-anchor="start" x="1234.36" y="-454.5" font-family="Helvetica,sans-Serif" font-size="10.00">NFComm/NFPluginModule</text>
<text text-anchor="middle" x="1292.36" y="-443.5" font-family="Helvetica,sans-Serif" font-size="10.00">/NFILogModule.h</text>
</a>
</g>
</g>
<!-- Node36&#45;&gt;Node37 -->
<g id="edge71" class="edge"><title>Node36&#45;&gt;Node37</title>
<path fill="none" stroke="midnightblue" d="M1281.98,-508.734C1283.49,-500.541 1285.82,-487.923 1287.89,-476.714"/>
<polygon fill="midnightblue" stroke="midnightblue" points="1291.39,-477.058 1289.76,-466.589 1284.51,-475.787 1291.39,-477.058"/>
</g>
<!-- Node37&#45;&gt;Node17 -->
<g id="edge72" class="edge"><title>Node37&#45;&gt;Node17</title>
<path fill="none" stroke="midnightblue" d="M1234.54,-436.476C1192.77,-426.345 1136.21,-412.626 1092.28,-401.973"/>
<polygon fill="midnightblue" stroke="midnightblue" points="1093.09,-398.567 1082.54,-399.611 1091.44,-405.369 1093.09,-398.567"/>
</g>
</g>
</svg>
        <g id="navigator" transform="translate(0 0)" fill="#404254">
                <rect fill="#f2f5e9" fill-opacity="0.5" stroke="#606060" stroke-width=".5" x="0" y="0" width="60" height="60"/>
                <use id="zoomplus" xlink:href="#zoomPlus" x="17" y="9" onmousedown="handleZoom(evt,'in')"/>
                <use id="zoomminus" xlink:href="#zoomMin" x="42" y="9" onmousedown="handleZoom(evt,'out')"/>
                <use id="reset" xlink:href="#resetDef" x="30" y="36" onmousedown="handleReset()"/>
                <g id="arrowUp" xlink:href="#dirArrow" transform="translate(30 24)" onmousedown="handlePan(0,-1)">
                  <use xlink:href="#rim" fill="#404040">
                        <set attributeName="fill" to="#808080" begin="arrowUp.mouseover" end="arrowUp.mouseout"/>
                  </use>
                  <path fill="none" stroke="white" stroke-width="1.5" d="M0,-3.0v7 M-2.5,-0.5L0,-3.0L2.5,-0.5"/>
                </g>
                <g id="arrowRight" xlink:href="#dirArrow" transform="rotate(90) translate(36 -43)" onmousedown="handlePan(1,0)">
                  <use xlink:href="#rim" fill="#404040">
                        <set attributeName="fill" to="#808080" begin="arrowRight.mouseover" end="arrowRight.mouseout"/>
                  </use>
                  <path fill="none" stroke="white" stroke-width="1.5" d="M0,-3.0v7 M-2.5,-0.5L0,-3.0L2.5,-0.5"/>
                </g>
                <g id="arrowDown" xlink:href="#dirArrow" transform="rotate(180) translate(-30 -48)" onmousedown="handlePan(0,1)">
                  <use xlink:href="#rim" fill="#404040">
                        <set attributeName="fill" to="#808080" begin="arrowDown.mouseover" end="arrowDown.mouseout"/>
                  </use>
                  <path fill="none" stroke="white" stroke-width="1.5" d="M0,-3.0v7 M-2.5,-0.5L0,-3.0L2.5,-0.5"/>
                </g>
                <g id="arrowLeft" xlink:href="#dirArrow" transform="rotate(270) translate(-36 17)" onmousedown="handlePan(-1,0)">
                  <use xlink:href="#rim" fill="#404040">
                        <set attributeName="fill" to="#808080" begin="arrowLeft.mouseover" end="arrowLeft.mouseout"/>
                  </use>
                  <path fill="none" stroke="white" stroke-width="1.5" d="M0,-3.0v7 M-2.5,-0.5L0,-3.0L2.5,-0.5"/>
                </g>
        </g>
        <svg viewBox="0 0 15 15" width="100%" height="30px" preserveAspectRatio="xMaxYMin meet">
         <g id="arrow_out" transform="scale(0.3 0.3)">
          <a xlink:href="_n_f_log_plugin_8cpp__incl_org.svg" target="_base">
           <rect id="button" ry="5" rx="5" y="6" x="6" height="38" width="38"
                fill="#f2f5e9" fill-opacity="0.5" stroke="#606060" stroke-width="1.0"/>
           <path id="arrow"
             d="M 11.500037,31.436501 C 11.940474,20.09759 22.043105,11.32322 32.158766,21.979434 L 37.068811,17.246167 C 37.068811,17.246167 37.088388,32 37.088388,32 L 22.160133,31.978069 C 22.160133,31.978069 26.997745,27.140456 26.997745,27.140456 C 18.528582,18.264221 13.291696,25.230495 11.500037,31.436501 z"
             style="fill:#404040;"/>
          </a>
         </g>
        </svg>
</svg>
