<?xml version="1.0" encoding="UTF-8" standalone="no"?>
<!DOCTYPE svg PUBLIC "-//W3C//DTD SVG 1.1//EN"
 "http://www.w3.org/Graphics/SVG/1.1/DTD/svg11.dtd">
<!-- Generated by graphviz version 2.38.0 (20140413.2041)
 -->
<!-- Title: NFIGameServerNet_ServerModule.h Pages: 1 -->
<!--zoomable 140 -->
<svg id="main" version="1.1" xmlns="http://www.w3.org/2000/svg" xmlns:xlink="http://www.w3.org/1999/xlink" xml:space="preserve" onload="init(evt)">
<style type="text/css"><![CDATA[
.edge:hover path { stroke: red; }
.edge:hover polygon { stroke: red; fill: red; }
]]></style>
<script type="text/javascript"><![CDATA[
var edges = document.getElementsByTagName('g');
if (edges && edges.length) {
  for (var i=0;i<edges.length;i++) {
    if (edges[i].id.substr(0,4)=='edge') {
      edges[i].setAttribute('class','edge');
    }
  }
}
]]></script>
        <defs>
                <circle id="rim" cx="0" cy="0" r="7"/>
                <circle id="rim2" cx="0" cy="0" r="3.5"/>
                <g id="zoomPlus">
                        <use xlink:href="#rim" fill="#404040">
                                <set attributeName="fill" to="#808080" begin="zoomplus.mouseover" end="zoomplus.mouseout"/>
                        </use>
                        <path d="M-4,0h8M0,-4v8" fill="none" stroke="white" stroke-width="1.5" pointer-events="none"/>
                </g>
                <g id="zoomMin">
                        <use xlink:href="#rim" fill="#404040">
                                <set attributeName="fill" to="#808080" begin="zoomminus.mouseover" end="zoomminus.mouseout"/>
                        </use>
                        <path d="M-4,0h8" fill="none" stroke="white" stroke-width="1.5" pointer-events="none"/>
                </g>
                <g id="dirArrow">
                        <path fill="none" stroke="white" stroke-width="1.5" d="M0,-3.0v7 M-2.5,-0.5L0,-3.0L2.5,-0.5"/>
                </g>
               <g id="resetDef">
                       <use xlink:href="#rim2" fill="#404040">
                               <set attributeName="fill" to="#808080" begin="reset.mouseover" end="reset.mouseout"/>
                       </use>
               </g>
        </defs>

<script type="text/javascript">
var viewWidth = 1089;
var viewHeight = 140;
var sectionId = 'dynsection-1';
</script>
<script xlink:href="svgpan.js"/>
<svg id="graph" class="graph">
<g id="viewport">
<title>NFIGameServerNet_ServerModule.h</title>
<polygon fill="white" stroke="none" points="-4,4 -4,-136 1085,-136 1085,4 -4,4"/>
<!-- Node55 -->
<g id="node1" class="node"><title>Node55</title>
<polygon fill="#bfbfbf" stroke="black" points="493,-112.5 493,-131.5 665,-131.5 665,-112.5 493,-112.5"/>
<text text-anchor="middle" x="579" y="-119.5" font-family="Helvetica,sans-Serif" font-size="10.00">NFIGameServerNet_ServerModule.h</text>
</g>
<!-- Node56 -->
<g id="node2" class="node"><title>Node56</title>
<g id="a_node2"><a xlink:href="_n_f_c_game_server_to_world_module_8h.html" target="_top" xlink:title="NFCGameServerToWorldModule.h">
<polygon fill="white" stroke="black" points="198.5,-56.5 198.5,-75.5 363.5,-75.5 363.5,-56.5 198.5,-56.5"/>
<text text-anchor="middle" x="281" y="-63.5" font-family="Helvetica,sans-Serif" font-size="10.00">NFCGameServerToWorldModule.h</text>
</a>
</g>
</g>
<!-- Node55&#45;&gt;Node56 -->
<g id="edge1" class="edge"><title>Node55&#45;&gt;Node56</title>
<path fill="none" stroke="midnightblue" d="M521.611,-110.601C465.293,-100.395 380.438,-85.0189 327.998,-75.5164"/>
<polygon fill="midnightblue" stroke="midnightblue" points="521.317,-114.104 531.781,-112.444 522.565,-107.217 521.317,-114.104"/>
</g>
<!-- Node59 -->
<g id="node5" class="node"><title>Node59</title>
<g id="a_node5"><a xlink:href="_n_f_c_game_server_net___server_module_8h.html" target="_top" xlink:title="NFCGameServerNet_ServerModule.h">
<polygon fill="white" stroke="black" points="491,-56.5 491,-75.5 667,-75.5 667,-56.5 491,-56.5"/>
<text text-anchor="middle" x="579" y="-63.5" font-family="Helvetica,sans-Serif" font-size="10.00">NFCGameServerNet_ServerModule.h</text>
</a>
</g>
</g>
<!-- Node55&#45;&gt;Node59 -->
<g id="edge4" class="edge"><title>Node55&#45;&gt;Node59</title>
<path fill="none" stroke="midnightblue" d="M579,-101.805C579,-92.9102 579,-82.7798 579,-75.7511"/>
<polygon fill="midnightblue" stroke="midnightblue" points="575.5,-102.083 579,-112.083 582.5,-102.083 575.5,-102.083"/>
</g>
<!-- Node62 -->
<g id="node8" class="node"><title>Node62</title>
<g id="a_node8"><a xlink:href="_n_f_c_scene_process_module_8h.html" target="_top" xlink:title="NFCSceneProcessModule.h">
<polygon fill="white" stroke="black" points="790,-56.5 790,-75.5 930,-75.5 930,-56.5 790,-56.5"/>
<text text-anchor="middle" x="860" y="-63.5" font-family="Helvetica,sans-Serif" font-size="10.00">NFCSceneProcessModule.h</text>
</a>
</g>
</g>
<!-- Node55&#45;&gt;Node62 -->
<g id="edge7" class="edge"><title>Node55&#45;&gt;Node62</title>
<path fill="none" stroke="midnightblue" d="M633.446,-110.537C686.552,-100.332 766.338,-84.9992 815.683,-75.5164"/>
<polygon fill="midnightblue" stroke="midnightblue" points="632.685,-107.119 623.525,-112.444 634.006,-113.993 632.685,-107.119"/>
</g>
<!-- Node57 -->
<g id="node3" class="node"><title>Node57</title>
<g id="a_node3"><a xlink:href="_n_f_c_game_server_to_world_module_8cpp.html" target="_top" xlink:title="NFCGameServerToWorldModule.cpp">
<polygon fill="white" stroke="black" points="0,-0.5 0,-19.5 176,-19.5 176,-0.5 0,-0.5"/>
<text text-anchor="middle" x="88" y="-7.5" font-family="Helvetica,sans-Serif" font-size="10.00">NFCGameServerToWorldModule.cpp</text>
</a>
</g>
</g>
<!-- Node56&#45;&gt;Node57 -->
<g id="edge2" class="edge"><title>Node56&#45;&gt;Node57</title>
<path fill="none" stroke="midnightblue" d="M240.608,-53.6986C204.183,-43.507 151.414,-28.7429 118.438,-19.5164"/>
<polygon fill="midnightblue" stroke="midnightblue" points="239.845,-57.1196 250.419,-56.4435 241.731,-50.3785 239.845,-57.1196"/>
</g>
<!-- Node58 -->
<g id="node4" class="node"><title>Node58</title>
<g id="a_node4"><a xlink:href="_n_f_game_server_net___client_plugin_8cpp.html" target="_top" xlink:title="NFGameServerNet_ClientPlugin.cpp">
<polygon fill="white" stroke="black" points="194.5,-0.5 194.5,-19.5 367.5,-19.5 367.5,-0.5 194.5,-0.5"/>
<text text-anchor="middle" x="281" y="-7.5" font-family="Helvetica,sans-Serif" font-size="10.00">NFGameServerNet_ClientPlugin.cpp</text>
</a>
</g>
</g>
<!-- Node56&#45;&gt;Node58 -->
<g id="edge3" class="edge"><title>Node56&#45;&gt;Node58</title>
<path fill="none" stroke="midnightblue" d="M281,-45.8045C281,-36.9102 281,-26.7798 281,-19.7511"/>
<polygon fill="midnightblue" stroke="midnightblue" points="277.5,-46.083 281,-56.083 284.5,-46.083 277.5,-46.083"/>
</g>
<!-- Node60 -->
<g id="node6" class="node"><title>Node60</title>
<g id="a_node6"><a xlink:href="_n_f_c_game_server_net___server_module_8cpp.html" target="_top" xlink:title="NFCGameServerNet_ServerModule.cpp">
<polygon fill="white" stroke="black" points="385.5,-0.5 385.5,-19.5 572.5,-19.5 572.5,-0.5 385.5,-0.5"/>
<text text-anchor="middle" x="479" y="-7.5" font-family="Helvetica,sans-Serif" font-size="10.00">NFCGameServerNet_ServerModule.cpp</text>
</a>
</g>
</g>
<!-- Node59&#45;&gt;Node60 -->
<g id="edge5" class="edge"><title>Node59&#45;&gt;Node60</title>
<path fill="none" stroke="midnightblue" d="M553.912,-51.4526C535.451,-41.4835 510.903,-28.2279 495.027,-19.6545"/>
<polygon fill="midnightblue" stroke="midnightblue" points="552.471,-54.6521 562.933,-56.324 555.797,-48.4928 552.471,-54.6521"/>
</g>
<!-- Node61 -->
<g id="node7" class="node"><title>Node61</title>
<g id="a_node7"><a xlink:href="_n_f_game_server_net___server_plugin_8cpp.html" target="_top" xlink:title="NFGameServerNet_ServerPlugin.cpp">
<polygon fill="white" stroke="black" points="591,-0.5 591,-19.5 767,-19.5 767,-0.5 591,-0.5"/>
<text text-anchor="middle" x="679" y="-7.5" font-family="Helvetica,sans-Serif" font-size="10.00">NFGameServerNet_ServerPlugin.cpp</text>
</a>
</g>
</g>
<!-- Node59&#45;&gt;Node61 -->
<g id="edge6" class="edge"><title>Node59&#45;&gt;Node61</title>
<path fill="none" stroke="midnightblue" d="M604.088,-51.4526C622.549,-41.4835 647.097,-28.2279 662.973,-19.6545"/>
<polygon fill="midnightblue" stroke="midnightblue" points="602.203,-48.4928 595.067,-56.324 605.529,-54.6521 602.203,-48.4928"/>
</g>
<!-- Node63 -->
<g id="node9" class="node"><title>Node63</title>
<g id="a_node9"><a xlink:href="_n_f_c_scene_process_module_8cpp.html" target="_top" xlink:title="NFCSceneProcessModule.cpp">
<polygon fill="white" stroke="black" points="785,-0.5 785,-19.5 935,-19.5 935,-0.5 785,-0.5"/>
<text text-anchor="middle" x="860" y="-7.5" font-family="Helvetica,sans-Serif" font-size="10.00">NFCSceneProcessModule.cpp</text>
</a>
</g>
</g>
<!-- Node62&#45;&gt;Node63 -->
<g id="edge8" class="edge"><title>Node62&#45;&gt;Node63</title>
<path fill="none" stroke="midnightblue" d="M860,-45.8045C860,-36.9102 860,-26.7798 860,-19.7511"/>
<polygon fill="midnightblue" stroke="midnightblue" points="856.5,-46.083 860,-56.083 863.5,-46.083 856.5,-46.083"/>
</g>
<!-- Node64 -->
<g id="node10" class="node"><title>Node64</title>
<g id="a_node10"><a xlink:href="_n_f_game_server_plugin_8cpp.html" target="_top" xlink:title="NFGameServerPlugin.cpp">
<polygon fill="white" stroke="black" points="953,-0.5 953,-19.5 1081,-19.5 1081,-0.5 953,-0.5"/>
<text text-anchor="middle" x="1017" y="-7.5" font-family="Helvetica,sans-Serif" font-size="10.00">NFGameServerPlugin.cpp</text>
</a>
</g>
</g>
<!-- Node62&#45;&gt;Node64 -->
<g id="edge9" class="edge"><title>Node62&#45;&gt;Node64</title>
<path fill="none" stroke="midnightblue" d="M894.389,-53.172C923.952,-43.0039 965.873,-28.5852 992.239,-19.5164"/>
<polygon fill="midnightblue" stroke="midnightblue" points="893.195,-49.8813 884.877,-56.4435 895.472,-56.5007 893.195,-49.8813"/>
</g>
</g>
</svg>
        <g id="navigator" transform="translate(0 0)" fill="#404254">
                <rect fill="#f2f5e9" fill-opacity="0.5" stroke="#606060" stroke-width=".5" x="0" y="0" width="60" height="60"/>
                <use id="zoomplus" xlink:href="#zoomPlus" x="17" y="9" onmousedown="handleZoom(evt,'in')"/>
                <use id="zoomminus" xlink:href="#zoomMin" x="42" y="9" onmousedown="handleZoom(evt,'out')"/>
                <use id="reset" xlink:href="#resetDef" x="30" y="36" onmousedown="handleReset()"/>
                <g id="arrowUp" xlink:href="#dirArrow" transform="translate(30 24)" onmousedown="handlePan(0,-1)">
                  <use xlink:href="#rim" fill="#404040">
                        <set attributeName="fill" to="#808080" begin="arrowUp.mouseover" end="arrowUp.mouseout"/>
                  </use>
                  <path fill="none" stroke="white" stroke-width="1.5" d="M0,-3.0v7 M-2.5,-0.5L0,-3.0L2.5,-0.5"/>
                </g>
                <g id="arrowRight" xlink:href="#dirArrow" transform="rotate(90) translate(36 -43)" onmousedown="handlePan(1,0)">
                  <use xlink:href="#rim" fill="#404040">
                        <set attributeName="fill" to="#808080" begin="arrowRight.mouseover" end="arrowRight.mouseout"/>
                  </use>
                  <path fill="none" stroke="white" stroke-width="1.5" d="M0,-3.0v7 M-2.5,-0.5L0,-3.0L2.5,-0.5"/>
                </g>
                <g id="arrowDown" xlink:href="#dirArrow" transform="rotate(180) translate(-30 -48)" onmousedown="handlePan(0,1)">
                  <use xlink:href="#rim" fill="#404040">
                        <set attributeName="fill" to="#808080" begin="arrowDown.mouseover" end="arrowDown.mouseout"/>
                  </use>
                  <path fill="none" stroke="white" stroke-width="1.5" d="M0,-3.0v7 M-2.5,-0.5L0,-3.0L2.5,-0.5"/>
                </g>
                <g id="arrowLeft" xlink:href="#dirArrow" transform="rotate(270) translate(-36 17)" onmousedown="handlePan(-1,0)">
                  <use xlink:href="#rim" fill="#404040">
                        <set attributeName="fill" to="#808080" begin="arrowLeft.mouseover" end="arrowLeft.mouseout"/>
                  </use>
                  <path fill="none" stroke="white" stroke-width="1.5" d="M0,-3.0v7 M-2.5,-0.5L0,-3.0L2.5,-0.5"/>
                </g>
        </g>
        <svg viewBox="0 0 15 15" width="100%" height="30px" preserveAspectRatio="xMaxYMin meet">
         <g id="arrow_out" transform="scale(0.3 0.3)">
          <a xlink:href="_n_f_i_game_server_net___server_module_8h__dep__incl_org.svg" target="_base">
           <rect id="button" ry="5" rx="5" y="6" x="6" height="38" width="38"
                fill="#f2f5e9" fill-opacity="0.5" stroke="#606060" stroke-width="1.0"/>
           <path id="arrow"
             d="M 11.500037,31.436501 C 11.940474,20.09759 22.043105,11.32322 32.158766,21.979434 L 37.068811,17.246167 C 37.068811,17.246167 37.088388,32 37.088388,32 L 22.160133,31.978069 C 22.160133,31.978069 26.997745,27.140456 26.997745,27.140456 C 18.528582,18.264221 13.291696,25.230495 11.500037,31.436501 z"
             style="fill:#404040;"/>
          </a>
         </g>
        </svg>
</svg>
