<?xml version="1.0" encoding="UTF-8" standalone="no"?>
<!DOCTYPE svg PUBLIC "-//W3C//DTD SVG 1.1//EN"
 "http://www.w3.org/Graphics/SVG/1.1/DTD/svg11.dtd">
<!-- Generated by graphviz version 2.38.0 (20140413.2041)
 -->
<!-- Title: NFCMasterModule.h Pages: 1 -->
<svg width="274pt" height="84pt"
 viewBox="0.00 0.00 274.00 84.00" xmlns="http://www.w3.org/2000/svg" xmlns:xlink="http://www.w3.org/1999/xlink">
<g id="graph0" class="graph" transform="scale(1 1) rotate(0) translate(4 80)">
<title>NFCMasterModule.h</title>
<polygon fill="white" stroke="none" points="-4,4 -4,-80 270,-80 270,4 -4,4"/>
<!-- Node45 -->
<g id="node1" class="node"><title>Node45</title>
<polygon fill="#bfbfbf" stroke="black" points="76,-56.5 76,-75.5 182,-75.5 182,-56.5 76,-56.5"/>
<text text-anchor="middle" x="129" y="-63.5" font-family="Helvetica,sans-Serif" font-size="10.00">NFCMasterModule.h</text>
</g>
<!-- Node46 -->
<g id="node2" class="node"><title>Node46</title>
<g id="a_node2"><a xlink:href="_n_f_c_master_module_8cpp.html" target="_top" xlink:title="NFCMasterModule.cpp">
<polygon fill="white" stroke="black" points="0,-0.5 0,-19.5 116,-19.5 116,-0.5 0,-0.5"/>
<text text-anchor="middle" x="58" y="-7.5" font-family="Helvetica,sans-Serif" font-size="10.00">NFCMasterModule.cpp</text>
</a>
</g>
</g>
<!-- Node45&#45;&gt;Node46 -->
<g id="edge1" class="edge"><title>Node45&#45;&gt;Node46</title>
<path fill="none" stroke="midnightblue" d="M109.41,-50.1008C96.6324,-40.3824 80.3873,-28.0269 69.6149,-19.8339"/>
<polygon fill="midnightblue" stroke="midnightblue" points="107.514,-53.0561 117.593,-56.324 111.752,-47.4844 107.514,-53.0561"/>
</g>
<!-- Node47 -->
<g id="node3" class="node"><title>Node47</title>
<g id="a_node3"><a xlink:href="_n_f_master_server_plugin_8cpp.html" target="_top" xlink:title="NFMasterServerPlugin.cpp">
<polygon fill="white" stroke="black" points="134,-0.5 134,-19.5 266,-19.5 266,-0.5 134,-0.5"/>
<text text-anchor="middle" x="200" y="-7.5" font-family="Helvetica,sans-Serif" font-size="10.00">NFMasterServerPlugin.cpp</text>
</a>
</g>
</g>
<!-- Node45&#45;&gt;Node47 -->
<g id="edge2" class="edge"><title>Node45&#45;&gt;Node47</title>
<path fill="none" stroke="midnightblue" d="M148.59,-50.1008C161.368,-40.3824 177.613,-28.0269 188.385,-19.8339"/>
<polygon fill="midnightblue" stroke="midnightblue" points="146.248,-47.4844 140.407,-56.324 150.486,-53.0561 146.248,-47.4844"/>
</g>
</g>
</svg>
