<?xml version="1.0" encoding="UTF-8" standalone="no"?>
<!DOCTYPE svg PUBLIC "-//W3C//DTD SVG 1.1//EN"
 "http://www.w3.org/Graphics/SVG/1.1/DTD/svg11.dtd">
<!-- Generated by graphviz version 2.38.0 (20140413.2041)
 -->
<!-- Title: NFCMulNet.h Pages: 1 -->
<svg width="2172pt" height="274pt"
 viewBox="0.00 0.00 2172.00 274.00" xmlns="http://www.w3.org/2000/svg" xmlns:xlink="http://www.w3.org/1999/xlink">
<g id="graph0" class="graph" transform="scale(1 1) rotate(0) translate(4 270)">
<title>NFCMulNet.h</title>
<polygon fill="white" stroke="none" points="-4,4 -4,-270 2168,-270 2168,4 -4,4"/>
<!-- Node0 -->
<g id="node1" class="node"><title>Node0</title>
<polygon fill="#bfbfbf" stroke="black" points="219.5,-246.5 219.5,-265.5 294.5,-265.5 294.5,-246.5 219.5,-246.5"/>
<text text-anchor="middle" x="257" y="-253.5" font-family="Helvetica,sans-Serif" font-size="10.00">NFCMulNet.h</text>
</g>
<!-- Node1 -->
<g id="node2" class="node"><title>Node1</title>
<polygon fill="white" stroke="#bfbfbf" points="184,-118 184,-137 228,-137 228,-118 184,-118"/>
<text text-anchor="middle" x="206" y="-125" font-family="Helvetica,sans-Serif" font-size="10.00">thread</text>
</g>
<!-- Node0&#45;&gt;Node1 -->
<g id="edge1" class="edge"><title>Node0&#45;&gt;Node1</title>
<path fill="none" stroke="midnightblue" d="M249.259,-246.336C241.956,-237.713 231.226,-223.808 225,-210 215.878,-189.769 210.877,-164.665 208.327,-147.705"/>
<polygon fill="midnightblue" stroke="midnightblue" points="211.746,-146.864 206.933,-137.426 204.809,-147.805 211.746,-146.864"/>
</g>
<!-- Node2 -->
<g id="node3" class="node"><title>Node2</title>
<polygon fill="white" stroke="#bfbfbf" points="0,-118 0,-137 46,-137 46,-118 0,-118"/>
<text text-anchor="middle" x="23" y="-125" font-family="Helvetica,sans-Serif" font-size="10.00">atomic</text>
</g>
<!-- Node0&#45;&gt;Node2 -->
<g id="edge2" class="edge"><title>Node0&#45;&gt;Node2</title>
<path fill="none" stroke="midnightblue" d="M219.094,-253.372C159.323,-249.921 47.436,-239.583 23,-210 8.60498,-192.573 12.1756,-165.159 16.8954,-147.009"/>
<polygon fill="midnightblue" stroke="midnightblue" points="20.2848,-147.889 19.7561,-137.307 13.5706,-145.909 20.2848,-147.889"/>
</g>
<!-- Node3 -->
<g id="node4" class="node"><title>Node3</title>
<g id="a_node4"><a xlink:href="_n_f_i_net_8h.html" target="_top" xlink:title="NFINet.h">
<polygon fill="white" stroke="black" points="1092.5,-185 1092.5,-204 1147.5,-204 1147.5,-185 1092.5,-185"/>
<text text-anchor="middle" x="1120" y="-192" font-family="Helvetica,sans-Serif" font-size="10.00">NFINet.h</text>
</a>
</g>
</g>
<!-- Node0&#45;&gt;Node3 -->
<g id="edge3" class="edge"><title>Node0&#45;&gt;Node3</title>
<path fill="none" stroke="midnightblue" d="M294.637,-252.405C436.745,-242.607 939.822,-207.922 1082.2,-198.106"/>
<polygon fill="midnightblue" stroke="midnightblue" points="1082.47,-201.596 1092.2,-197.417 1081.99,-194.613 1082.47,-201.596"/>
</g>
<!-- Node32 -->
<g id="node33" class="node"><title>Node32</title>
<g id="a_node33"><a xlink:href="_n_f_queue_8h.html" target="_top" xlink:title="NFComm/NFCore/NFQueue.h">
<polygon fill="white" stroke="black" points="32,-185 32,-204 178,-204 178,-185 32,-185"/>
<text text-anchor="middle" x="105" y="-192" font-family="Helvetica,sans-Serif" font-size="10.00">NFComm/NFCore/NFQueue.h</text>
</a>
</g>
</g>
<!-- Node0&#45;&gt;Node32 -->
<g id="edge35" class="edge"><title>Node0&#45;&gt;Node32</title>
<path fill="none" stroke="midnightblue" d="M235.222,-246.475C209.262,-236.313 165.689,-219.256 136.165,-207.7"/>
<polygon fill="midnightblue" stroke="midnightblue" points="137.325,-204.395 126.737,-204.009 134.774,-210.913 137.325,-204.395"/>
</g>
<!-- Node34 -->
<g id="node35" class="node"><title>Node34</title>
<polygon fill="white" stroke="#bfbfbf" points="332,-118 332,-137 474,-137 474,-118 332,-118"/>
<text text-anchor="middle" x="403" y="-125" font-family="Helvetica,sans-Serif" font-size="10.00">common/readerwriterqueue.h</text>
</g>
<!-- Node0&#45;&gt;Node34 -->
<g id="edge41" class="edge"><title>Node0&#45;&gt;Node34</title>
<path fill="none" stroke="midnightblue" d="M294.543,-253.193C325.868,-249.549 369.113,-239.139 393,-210 407.37,-192.471 407.747,-165.277 405.97,-147.186"/>
<polygon fill="midnightblue" stroke="midnightblue" points="409.441,-146.736 404.691,-137.266 402.499,-147.631 409.441,-146.736"/>
</g>
<!-- Node35 -->
<g id="node36" class="node"><title>Node35</title>
<g id="a_node36"><a xlink:href="_n_f_lock_free_queue_8h.html" target="_top" xlink:title="NFComm/NFCore/NFLockFree\lQueue.h">
<polygon fill="white" stroke="black" points="234,-179.5 234,-209.5 384,-209.5 384,-179.5 234,-179.5"/>
<text text-anchor="start" x="242" y="-197.5" font-family="Helvetica,sans-Serif" font-size="10.00">NFComm/NFCore/NFLockFree</text>
<text text-anchor="middle" x="309" y="-186.5" font-family="Helvetica,sans-Serif" font-size="10.00">Queue.h</text>
</a>
</g>
</g>
<!-- Node0&#45;&gt;Node35 -->
<g id="edge42" class="edge"><title>Node0&#45;&gt;Node35</title>
<path fill="none" stroke="midnightblue" d="M264.45,-246.475C271.098,-238.869 281.122,-227.399 289.979,-217.265"/>
<polygon fill="midnightblue" stroke="midnightblue" points="292.799,-219.356 296.745,-209.523 287.529,-214.749 292.799,-219.356"/>
</g>
<!-- Node4 -->
<g id="node5" class="node"><title>Node4</title>
<polygon fill="white" stroke="#bfbfbf" points="760,-118 760,-137 806,-137 806,-118 760,-118"/>
<text text-anchor="middle" x="783" y="-125" font-family="Helvetica,sans-Serif" font-size="10.00">cstring</text>
</g>
<!-- Node3&#45;&gt;Node4 -->
<g id="edge4" class="edge"><title>Node3&#45;&gt;Node4</title>
<path fill="none" stroke="midnightblue" d="M1092.23,-191.221C1038.13,-186.273 915.222,-172.534 816,-143 813.856,-142.362 811.667,-141.619 809.488,-140.813"/>
<polygon fill="midnightblue" stroke="midnightblue" points="810.745,-137.546 800.163,-137.008 808.1,-144.027 810.745,-137.546"/>
</g>
<!-- Node5 -->
<g id="node6" class="node"><title>Node5</title>
<polygon fill="white" stroke="#bfbfbf" points="824.5,-118 824.5,-137 871.5,-137 871.5,-118 824.5,-118"/>
<text text-anchor="middle" x="848" y="-125" font-family="Helvetica,sans-Serif" font-size="10.00">errno.h</text>
</g>
<!-- Node3&#45;&gt;Node5 -->
<g id="edge5" class="edge"><title>Node3&#45;&gt;Node5</title>
<path fill="none" stroke="midnightblue" d="M1092.28,-188.927C1048.12,-181.328 959.31,-164.76 886,-143 883.423,-142.235 880.773,-141.377 878.128,-140.471"/>
<polygon fill="midnightblue" stroke="midnightblue" points="879.305,-137.175 868.71,-137.055 876.918,-143.755 879.305,-137.175"/>
</g>
<!-- Node6 -->
<g id="node7" class="node"><title>Node6</title>
<polygon fill="white" stroke="#bfbfbf" points="782,-56.5 782,-75.5 828,-75.5 828,-56.5 782,-56.5"/>
<text text-anchor="middle" x="805" y="-63.5" font-family="Helvetica,sans-Serif" font-size="10.00">stdio.h</text>
</g>
<!-- Node3&#45;&gt;Node6 -->
<g id="edge6" class="edge"><title>Node3&#45;&gt;Node6</title>
<path fill="none" stroke="midnightblue" d="M1092.46,-189.576C1053.7,-183.351 981.488,-169.152 925,-143 903.292,-132.95 901.086,-124.993 881,-112 863.941,-100.965 844.181,-89.2977 829.086,-80.6092"/>
<polygon fill="midnightblue" stroke="midnightblue" points="830.775,-77.5428 820.356,-75.6165 827.299,-83.6192 830.775,-77.5428"/>
</g>
<!-- Node7 -->
<g id="node8" class="node"><title>Node7</title>
<polygon fill="white" stroke="#bfbfbf" points="966,-118 966,-137 1016,-137 1016,-118 966,-118"/>
<text text-anchor="middle" x="991" y="-125" font-family="Helvetica,sans-Serif" font-size="10.00">signal.h</text>
</g>
<!-- Node3&#45;&gt;Node7 -->
<g id="edge7" class="edge"><title>Node3&#45;&gt;Node7</title>
<path fill="none" stroke="midnightblue" d="M1102.87,-184.869C1080.99,-173.845 1042.91,-154.655 1017.33,-141.768"/>
<polygon fill="midnightblue" stroke="midnightblue" points="1018.71,-138.541 1008.2,-137.167 1015.56,-144.793 1018.71,-138.541"/>
</g>
<!-- Node8 -->
<g id="node9" class="node"><title>Node8</title>
<polygon fill="white" stroke="#bfbfbf" points="521.5,-0.5 521.5,-19.5 570.5,-19.5 570.5,-0.5 521.5,-0.5"/>
<text text-anchor="middle" x="546" y="-7.5" font-family="Helvetica,sans-Serif" font-size="10.00">stdint.h</text>
</g>
<!-- Node3&#45;&gt;Node8 -->
<g id="edge8" class="edge"><title>Node3&#45;&gt;Node8</title>
<path fill="none" stroke="midnightblue" d="M1092.41,-192.459C990.737,-188.4 640.768,-172.393 601,-143 564.163,-115.773 551.855,-59.2246 547.854,-29.7638"/>
<polygon fill="midnightblue" stroke="midnightblue" points="551.302,-29.1198 546.661,-19.5955 544.35,-29.9351 551.302,-29.1198"/>
</g>
<!-- Node9 -->
<g id="node10" class="node"><title>Node9</title>
<polygon fill="white" stroke="#bfbfbf" points="878,-56.5 878,-75.5 932,-75.5 932,-56.5 878,-56.5"/>
<text text-anchor="middle" x="905" y="-63.5" font-family="Helvetica,sans-Serif" font-size="10.00">iostream</text>
</g>
<!-- Node3&#45;&gt;Node9 -->
<g id="edge9" class="edge"><title>Node3&#45;&gt;Node9</title>
<path fill="none" stroke="midnightblue" d="M1092.41,-190.57C1057.84,-185.72 998.125,-173.338 957,-143 936.651,-127.988 921.596,-102.514 913.062,-85.2363"/>
<polygon fill="midnightblue" stroke="midnightblue" points="916.011,-83.2787 908.602,-75.7047 909.67,-86.2456 916.011,-83.2787"/>
</g>
<!-- Node10 -->
<g id="node11" class="node"><title>Node10</title>
<polygon fill="white" stroke="#bfbfbf" points="1034.5,-118 1034.5,-137 1069.5,-137 1069.5,-118 1034.5,-118"/>
<text text-anchor="middle" x="1052" y="-125" font-family="Helvetica,sans-Serif" font-size="10.00">map</text>
</g>
<!-- Node3&#45;&gt;Node10 -->
<g id="edge10" class="edge"><title>Node3&#45;&gt;Node10</title>
<path fill="none" stroke="midnightblue" d="M1110.83,-184.734C1100.02,-174.403 1081.85,-157.037 1068.56,-144.332"/>
<polygon fill="midnightblue" stroke="midnightblue" points="1070.67,-141.507 1061.03,-137.127 1065.84,-146.567 1070.67,-141.507"/>
</g>
<!-- Node11 -->
<g id="node12" class="node"><title>Node11</title>
<g id="a_node12"><a xlink:href="_n_f_g_u_i_d_8h.html" target="_top" xlink:title="NFComm/NFPluginModule\l/NFGUID.h">
<polygon fill="white" stroke="black" points="610,-112.5 610,-142.5 742,-142.5 742,-112.5 610,-112.5"/>
<text text-anchor="start" x="618" y="-130.5" font-family="Helvetica,sans-Serif" font-size="10.00">NFComm/NFPluginModule</text>
<text text-anchor="middle" x="676" y="-119.5" font-family="Helvetica,sans-Serif" font-size="10.00">/NFGUID.h</text>
</a>
</g>
</g>
<!-- Node3&#45;&gt;Node11 -->
<g id="edge11" class="edge"><title>Node3&#45;&gt;Node11</title>
<path fill="none" stroke="midnightblue" d="M1092.15,-190.219C1032.01,-183.022 885.351,-164.86 752.188,-143.144"/>
<polygon fill="midnightblue" stroke="midnightblue" points="752.653,-139.673 742.218,-141.507 751.519,-146.581 752.653,-139.673"/>
</g>
<!-- Node18 -->
<g id="node19" class="node"><title>Node18</title>
<polygon fill="white" stroke="#bfbfbf" points="1087.5,-118 1087.5,-137 1152.5,-137 1152.5,-118 1087.5,-118"/>
<text text-anchor="middle" x="1120" y="-125" font-family="Helvetica,sans-Serif" font-size="10.00">netinet/in.h</text>
</g>
<!-- Node3&#45;&gt;Node18 -->
<g id="edge21" class="edge"><title>Node3&#45;&gt;Node18</title>
<path fill="none" stroke="midnightblue" d="M1120,-184.734C1120,-175.183 1120,-159.618 1120,-147.283"/>
<polygon fill="midnightblue" stroke="midnightblue" points="1123.5,-147.127 1120,-137.127 1116.5,-147.127 1123.5,-147.127"/>
</g>
<!-- Node19 -->
<g id="node20" class="node"><title>Node19</title>
<polygon fill="white" stroke="#bfbfbf" points="1170.5,-118 1170.5,-137 1243.5,-137 1243.5,-118 1170.5,-118"/>
<text text-anchor="middle" x="1207" y="-125" font-family="Helvetica,sans-Serif" font-size="10.00">sys/socket.h</text>
</g>
<!-- Node3&#45;&gt;Node19 -->
<g id="edge22" class="edge"><title>Node3&#45;&gt;Node19</title>
<path fill="none" stroke="midnightblue" d="M1131.73,-184.734C1145.95,-174.111 1170.13,-156.049 1187.24,-143.264"/>
<polygon fill="midnightblue" stroke="midnightblue" points="1189.54,-145.916 1195.45,-137.127 1185.35,-140.309 1189.54,-145.916"/>
</g>
<!-- Node20 -->
<g id="node21" class="node"><title>Node20</title>
<polygon fill="white" stroke="#bfbfbf" points="1262,-118 1262,-137 1304,-137 1304,-118 1262,-118"/>
<text text-anchor="middle" x="1283" y="-125" font-family="Helvetica,sans-Serif" font-size="10.00">vector</text>
</g>
<!-- Node3&#45;&gt;Node20 -->
<g id="edge23" class="edge"><title>Node3&#45;&gt;Node20</title>
<path fill="none" stroke="midnightblue" d="M1144.77,-184.828C1171.68,-175.238 1215.8,-159.018 1253,-143 1254.2,-142.485 1255.41,-141.949 1256.64,-141.399"/>
<polygon fill="midnightblue" stroke="midnightblue" points="1258.4,-144.439 1265.99,-137.042 1255.44,-138.095 1258.4,-144.439"/>
</g>
<!-- Node21 -->
<g id="node22" class="node"><title>Node21</title>
<polygon fill="white" stroke="#bfbfbf" points="1322,-118 1322,-137 1380,-137 1380,-118 1322,-118"/>
<text text-anchor="middle" x="1351" y="-125" font-family="Helvetica,sans-Serif" font-size="10.00">functional</text>
</g>
<!-- Node3&#45;&gt;Node21 -->
<g id="edge24" class="edge"><title>Node3&#45;&gt;Node21</title>
<path fill="none" stroke="midnightblue" d="M1147.76,-187.239C1185.5,-178.5 1254.95,-161.609 1313,-143 1315.41,-142.227 1317.89,-141.385 1320.38,-140.51"/>
<polygon fill="midnightblue" stroke="midnightblue" points="1321.66,-143.77 1329.84,-137.04 1319.25,-137.198 1321.66,-143.77"/>
</g>
<!-- Node22 -->
<g id="node23" class="node"><title>Node22</title>
<polygon fill="white" stroke="#bfbfbf" points="1398,-118 1398,-137 1450,-137 1450,-118 1398,-118"/>
<text text-anchor="middle" x="1424" y="-125" font-family="Helvetica,sans-Serif" font-size="10.00">memory</text>
</g>
<!-- Node3&#45;&gt;Node22 -->
<g id="edge25" class="edge"><title>Node3&#45;&gt;Node22</title>
<path fill="none" stroke="midnightblue" d="M1147.55,-190.245C1196.76,-184.011 1302.69,-168.677 1389,-143 1391.29,-142.32 1393.63,-141.541 1395.96,-140.705"/>
<polygon fill="midnightblue" stroke="midnightblue" points="1397.31,-143.937 1405.37,-137.056 1394.78,-137.411 1397.31,-143.937"/>
</g>
<!-- Node23 -->
<g id="node24" class="node"><title>Node23</title>
<polygon fill="white" stroke="#bfbfbf" points="246.5,-118 246.5,-137 275.5,-137 275.5,-118 246.5,-118"/>
<text text-anchor="middle" x="261" y="-125" font-family="Helvetica,sans-Serif" font-size="10.00">list</text>
</g>
<!-- Node3&#45;&gt;Node23 -->
<g id="edge26" class="edge"><title>Node3&#45;&gt;Node23</title>
<path fill="none" stroke="midnightblue" d="M1092.3,-193.409C989.72,-192.72 622.009,-187.124 323,-143 310.569,-141.166 296.953,-138.101 285.656,-135.261"/>
<polygon fill="midnightblue" stroke="midnightblue" points="286.209,-131.788 275.649,-132.654 284.444,-138.562 286.209,-131.788"/>
</g>
<!-- Node24 -->
<g id="node25" class="node"><title>Node24</title>
<polygon fill="white" stroke="#bfbfbf" points="1468.5,-118 1468.5,-137 1569.5,-137 1569.5,-118 1468.5,-118"/>
<text text-anchor="middle" x="1519" y="-125" font-family="Helvetica,sans-Serif" font-size="10.00">event2/bufferevent.h</text>
</g>
<!-- Node3&#45;&gt;Node24 -->
<g id="edge27" class="edge"><title>Node3&#45;&gt;Node24</title>
<path fill="none" stroke="midnightblue" d="M1147.83,-190.209C1205.92,-183.152 1344.24,-165.369 1459,-143 1464.52,-141.924 1470.3,-140.679 1476,-139.38"/>
<polygon fill="midnightblue" stroke="midnightblue" points="1477.17,-142.701 1486.11,-137.009 1475.57,-135.887 1477.17,-142.701"/>
</g>
<!-- Node25 -->
<g id="node26" class="node"><title>Node25</title>
<polygon fill="white" stroke="#bfbfbf" points="1587.5,-118 1587.5,-137 1666.5,-137 1666.5,-118 1587.5,-118"/>
<text text-anchor="middle" x="1627" y="-125" font-family="Helvetica,sans-Serif" font-size="10.00">event2/buffer.h</text>
</g>
<!-- Node3&#45;&gt;Node25 -->
<g id="edge28" class="edge"><title>Node3&#45;&gt;Node25</title>
<path fill="none" stroke="midnightblue" d="M1147.69,-192.229C1219.55,-188.548 1417.59,-175.968 1579,-143 1583.22,-142.138 1587.61,-141.067 1591.93,-139.9"/>
<polygon fill="midnightblue" stroke="midnightblue" points="1593.17,-143.185 1601.81,-137.057 1591.24,-136.458 1593.17,-143.185"/>
</g>
<!-- Node26 -->
<g id="node27" class="node"><title>Node26</title>
<polygon fill="white" stroke="#bfbfbf" points="1684.5,-118 1684.5,-137 1771.5,-137 1771.5,-118 1684.5,-118"/>
<text text-anchor="middle" x="1728" y="-125" font-family="Helvetica,sans-Serif" font-size="10.00">event2/listener.h</text>
</g>
<!-- Node3&#45;&gt;Node26 -->
<g id="edge29" class="edge"><title>Node3&#45;&gt;Node26</title>
<path fill="none" stroke="midnightblue" d="M1147.72,-192.758C1229.33,-190.193 1475.55,-179.736 1676,-143 1680.87,-142.107 1685.95,-140.965 1690.94,-139.715"/>
<polygon fill="midnightblue" stroke="midnightblue" points="1692.2,-143 1700.96,-137.041 1690.4,-136.237 1692.2,-143"/>
</g>
<!-- Node27 -->
<g id="node28" class="node"><title>Node27</title>
<polygon fill="white" stroke="#bfbfbf" points="1790,-118 1790,-137 1858,-137 1858,-118 1790,-118"/>
<text text-anchor="middle" x="1824" y="-125" font-family="Helvetica,sans-Serif" font-size="10.00">event2/util.h</text>
</g>
<!-- Node3&#45;&gt;Node27 -->
<g id="edge30" class="edge"><title>Node3&#45;&gt;Node27</title>
<path fill="none" stroke="midnightblue" d="M1147.73,-193.832C1239.21,-194.409 1539.37,-192.168 1781,-143 1784.69,-142.249 1788.5,-141.273 1792.26,-140.181"/>
<polygon fill="midnightblue" stroke="midnightblue" points="1793.5,-143.461 1801.97,-137.1 1791.38,-136.789 1793.5,-143.461"/>
</g>
<!-- Node28 -->
<g id="node29" class="node"><title>Node28</title>
<polygon fill="white" stroke="#bfbfbf" points="1876.5,-118 1876.5,-137 1959.5,-137 1959.5,-118 1876.5,-118"/>
<text text-anchor="middle" x="1918" y="-125" font-family="Helvetica,sans-Serif" font-size="10.00">event2/thread.h</text>
</g>
<!-- Node3&#45;&gt;Node28 -->
<g id="edge31" class="edge"><title>Node3&#45;&gt;Node28</title>
<path fill="none" stroke="midnightblue" d="M1147.72,-193.708C1246.39,-194.01 1589.43,-191.291 1867,-143 1871.9,-142.148 1877,-141.009 1882.01,-139.743"/>
<polygon fill="midnightblue" stroke="midnightblue" points="1883.3,-143.017 1892.04,-137.017 1881.47,-136.262 1883.3,-143.017"/>
</g>
<!-- Node29 -->
<g id="node30" class="node"><title>Node29</title>
<polygon fill="white" stroke="#bfbfbf" points="1978,-118 1978,-137 2094,-137 2094,-118 1978,-118"/>
<text text-anchor="middle" x="2036" y="-125" font-family="Helvetica,sans-Serif" font-size="10.00">event2/event_compat.h</text>
</g>
<!-- Node3&#45;&gt;Node29 -->
<g id="edge32" class="edge"><title>Node3&#45;&gt;Node29</title>
<path fill="none" stroke="midnightblue" d="M1147.64,-193.396C1254.17,-192.669 1648.26,-186.98 1969,-143 1976.3,-142 1983.98,-140.636 1991.44,-139.143"/>
<polygon fill="midnightblue" stroke="midnightblue" points="1992.34,-142.529 2001.41,-137.048 1990.9,-135.679 1992.34,-142.529"/>
</g>
<!-- Node30 -->
<g id="node31" class="node"><title>Node30</title>
<polygon fill="white" stroke="#bfbfbf" points="2112,-118 2112,-137 2164,-137 2164,-118 2112,-118"/>
<text text-anchor="middle" x="2138" y="-125" font-family="Helvetica,sans-Serif" font-size="10.00">assert.h</text>
</g>
<!-- Node3&#45;&gt;Node30 -->
<g id="edge33" class="edge"><title>Node3&#45;&gt;Node30</title>
<path fill="none" stroke="midnightblue" d="M1147.7,-193.347C1287.23,-192.384 1913.81,-185.713 2103,-143 2105.67,-142.396 2108.41,-141.604 2111.11,-140.702"/>
<polygon fill="midnightblue" stroke="midnightblue" points="2112.48,-143.922 2120.58,-137.087 2109.99,-137.382 2112.48,-143.922"/>
</g>
<!-- Node31 -->
<g id="node32" class="node"><title>Node31</title>
<polygon fill="white" stroke="#bfbfbf" points="492,-118 492,-137 554,-137 554,-118 492,-118"/>
<text text-anchor="middle" x="523" y="-125" font-family="Helvetica,sans-Serif" font-size="10.00">windows.h</text>
</g>
<!-- Node3&#45;&gt;Node31 -->
<g id="edge34" class="edge"><title>Node3&#45;&gt;Node31</title>
<path fill="none" stroke="midnightblue" d="M1092.41,-193.117C1011.19,-191.535 766.238,-183.489 568,-143 564.042,-142.192 559.942,-141.158 555.902,-140.016"/>
<polygon fill="midnightblue" stroke="midnightblue" points="556.682,-136.594 546.095,-137.019 554.636,-143.289 556.682,-136.594"/>
</g>
<!-- Node11&#45;&gt;Node6 -->
<g id="edge19" class="edge"><title>Node11&#45;&gt;Node6</title>
<path fill="none" stroke="midnightblue" d="M706.571,-112.399C727.925,-102.55 756.215,-89.5014 776.985,-79.9217"/>
<polygon fill="midnightblue" stroke="midnightblue" points="778.615,-83.0244 786.229,-75.6578 775.683,-76.668 778.615,-83.0244"/>
</g>
<!-- Node11&#45;&gt;Node9 -->
<g id="edge18" class="edge"><title>Node11&#45;&gt;Node9</title>
<path fill="none" stroke="midnightblue" d="M729.98,-112.475C772.404,-101.452 830.385,-86.387 867.766,-76.6742"/>
<polygon fill="midnightblue" stroke="midnightblue" points="868.935,-79.9868 877.734,-74.0845 867.175,-73.2118 868.935,-79.9868"/>
</g>
<!-- Node12 -->
<g id="node13" class="node"><title>Node12</title>
<g id="a_node13"><a xlink:href="_n_f_platform_8h.html" target="_top" xlink:title="NFPlatform.h">
<polygon fill="white" stroke="black" points="302,-56.5 302,-75.5 376,-75.5 376,-56.5 302,-56.5"/>
<text text-anchor="middle" x="339" y="-63.5" font-family="Helvetica,sans-Serif" font-size="10.00">NFPlatform.h</text>
</a>
</g>
</g>
<!-- Node11&#45;&gt;Node12 -->
<g id="edge12" class="edge"><title>Node11&#45;&gt;Node12</title>
<path fill="none" stroke="midnightblue" d="M609.822,-114.816C544,-103.194 444.653,-85.6538 386.355,-75.3609"/>
<polygon fill="midnightblue" stroke="midnightblue" points="386.771,-71.8802 376.315,-73.5882 385.554,-78.7736 386.771,-71.8802"/>
</g>
<!-- Node17 -->
<g id="node18" class="node"><title>Node17</title>
<polygon fill="white" stroke="#bfbfbf" points="652,-56.5 652,-75.5 700,-75.5 700,-56.5 652,-56.5"/>
<text text-anchor="middle" x="676" y="-63.5" font-family="Helvetica,sans-Serif" font-size="10.00">stdlib.h</text>
</g>
<!-- Node11&#45;&gt;Node17 -->
<g id="edge20" class="edge"><title>Node11&#45;&gt;Node17</title>
<path fill="none" stroke="midnightblue" d="M676,-112.399C676,-104.466 676,-94.458 676,-85.8583"/>
<polygon fill="midnightblue" stroke="midnightblue" points="679.5,-85.6577 676,-75.6578 672.5,-85.6578 679.5,-85.6577"/>
</g>
<!-- Node12&#45;&gt;Node8 -->
<g id="edge13" class="edge"><title>Node12&#45;&gt;Node8</title>
<path fill="none" stroke="midnightblue" d="M371.8,-56.4435C409.997,-46.4791 472.803,-30.095 511.651,-19.9607"/>
<polygon fill="midnightblue" stroke="midnightblue" points="512.664,-23.3136 521.457,-17.4026 510.897,-16.5402 512.664,-23.3136"/>
</g>
<!-- Node13 -->
<g id="node14" class="node"><title>Node13</title>
<polygon fill="white" stroke="#bfbfbf" points="348,-0.5 348,-19.5 392,-19.5 392,-0.5 348,-0.5"/>
<text text-anchor="middle" x="370" y="-7.5" font-family="Helvetica,sans-Serif" font-size="10.00">time.h</text>
</g>
<!-- Node12&#45;&gt;Node13 -->
<g id="edge14" class="edge"><title>Node12&#45;&gt;Node13</title>
<path fill="none" stroke="midnightblue" d="M344.119,-56.083C348.408,-48.6127 354.658,-37.7244 359.942,-28.5199"/>
<polygon fill="midnightblue" stroke="midnightblue" points="363.033,-30.1662 364.976,-19.7511 356.962,-26.6811 363.033,-30.1662"/>
</g>
<!-- Node14 -->
<g id="node15" class="node"><title>Node14</title>
<polygon fill="white" stroke="#bfbfbf" points="410,-0.5 410,-19.5 462,-19.5 462,-0.5 410,-0.5"/>
<text text-anchor="middle" x="436" y="-7.5" font-family="Helvetica,sans-Serif" font-size="10.00">sstream</text>
</g>
<!-- Node12&#45;&gt;Node14 -->
<g id="edge15" class="edge"><title>Node12&#45;&gt;Node14</title>
<path fill="none" stroke="midnightblue" d="M354.585,-56.324C369.999,-47.7428 393.812,-34.486 411.71,-24.5224"/>
<polygon fill="midnightblue" stroke="midnightblue" points="413.419,-27.5767 420.454,-19.6545 410.014,-21.4606 413.419,-27.5767"/>
</g>
<!-- Node15 -->
<g id="node16" class="node"><title>Node15</title>
<polygon fill="white" stroke="#bfbfbf" points="142,-0.5 142,-19.5 270,-19.5 270,-0.5 142,-0.5"/>
<text text-anchor="middle" x="206" y="-7.5" font-family="Helvetica,sans-Serif" font-size="10.00">common/lexical_cast.hpp</text>
</g>
<!-- Node12&#45;&gt;Node15 -->
<g id="edge16" class="edge"><title>Node12&#45;&gt;Node15</title>
<path fill="none" stroke="midnightblue" d="M317.926,-56.4435C295.94,-47.5171 261.266,-33.4387 236.336,-23.3168"/>
<polygon fill="midnightblue" stroke="midnightblue" points="237.558,-20.0355 226.976,-19.5164 234.924,-26.5213 237.558,-20.0355"/>
</g>
<!-- Node16 -->
<g id="node17" class="node"><title>Node16</title>
<polygon fill="white" stroke="#bfbfbf" points="288.5,-0.5 288.5,-19.5 329.5,-19.5 329.5,-0.5 288.5,-0.5"/>
<text text-anchor="middle" x="309" y="-7.5" font-family="Helvetica,sans-Serif" font-size="10.00">string</text>
</g>
<!-- Node12&#45;&gt;Node16 -->
<g id="edge17" class="edge"><title>Node12&#45;&gt;Node16</title>
<path fill="none" stroke="midnightblue" d="M334.046,-56.083C329.896,-48.6127 323.847,-37.7244 318.733,-28.5199"/>
<polygon fill="midnightblue" stroke="midnightblue" points="321.778,-26.7929 313.862,-19.7511 315.659,-30.1924 321.778,-26.7929"/>
</g>
<!-- Node32&#45;&gt;Node1 -->
<g id="edge37" class="edge"><title>Node32&#45;&gt;Node1</title>
<path fill="none" stroke="midnightblue" d="M118.621,-184.734C135.431,-173.916 164.228,-155.383 184.144,-142.566"/>
<polygon fill="midnightblue" stroke="midnightblue" points="186.08,-145.482 192.594,-137.127 182.291,-139.596 186.08,-145.482"/>
</g>
<!-- Node32&#45;&gt;Node2 -->
<g id="edge39" class="edge"><title>Node32&#45;&gt;Node2</title>
<path fill="none" stroke="midnightblue" d="M93.9411,-184.734C80.6624,-174.208 58.1708,-156.379 42.0712,-143.617"/>
<polygon fill="midnightblue" stroke="midnightblue" points="43.8945,-140.596 33.8837,-137.127 39.5461,-146.082 43.8945,-140.596"/>
</g>
<!-- Node32&#45;&gt;Node12 -->
<g id="edge40" class="edge"><title>Node32&#45;&gt;Node12</title>
<path fill="none" stroke="midnightblue" d="M102.814,-184.559C99.3368,-167.959 94.6736,-132.231 113,-112 136.374,-86.1973 232.431,-74.6794 291.535,-69.9494"/>
<polygon fill="midnightblue" stroke="midnightblue" points="292.053,-73.4201 301.758,-69.1692 291.52,-66.4404 292.053,-73.4201"/>
</g>
<!-- Node32&#45;&gt;Node23 -->
<g id="edge36" class="edge"><title>Node32&#45;&gt;Node23</title>
<path fill="none" stroke="midnightblue" d="M131.378,-184.962C158.447,-175.844 201.506,-160.34 237,-143 237.547,-142.733 238.097,-142.457 238.65,-142.175"/>
<polygon fill="midnightblue" stroke="midnightblue" points="240.506,-145.147 247.528,-137.213 237.091,-139.036 240.506,-145.147"/>
</g>
<!-- Node33 -->
<g id="node34" class="node"><title>Node33</title>
<polygon fill="white" stroke="#bfbfbf" points="122,-118 122,-137 166,-137 166,-118 122,-118"/>
<text text-anchor="middle" x="144" y="-125" font-family="Helvetica,sans-Serif" font-size="10.00">mutex</text>
</g>
<!-- Node32&#45;&gt;Node33 -->
<g id="edge38" class="edge"><title>Node32&#45;&gt;Node33</title>
<path fill="none" stroke="midnightblue" d="M110.26,-184.734C116.224,-174.793 126.097,-158.338 133.626,-145.789"/>
<polygon fill="midnightblue" stroke="midnightblue" points="136.68,-147.503 138.824,-137.127 130.677,-143.901 136.68,-147.503"/>
</g>
<!-- Node35&#45;&gt;Node1 -->
<g id="edge44" class="edge"><title>Node35&#45;&gt;Node1</title>
<path fill="none" stroke="midnightblue" d="M286.651,-179.396C269.378,-168.496 245.582,-153.479 228.317,-142.584"/>
<polygon fill="midnightblue" stroke="midnightblue" points="229.805,-139.384 219.48,-137.007 226.069,-145.304 229.805,-139.384"/>
</g>
<!-- Node35&#45;&gt;Node12 -->
<g id="edge45" class="edge"><title>Node35&#45;&gt;Node12</title>
<path fill="none" stroke="midnightblue" d="M310.7,-179.208C312.823,-162.81 316.932,-135.195 323,-112 325.335,-103.076 328.662,-93.4097 331.678,-85.3319"/>
<polygon fill="midnightblue" stroke="midnightblue" points="335.012,-86.413 335.354,-75.8236 328.483,-83.8886 335.012,-86.413"/>
</g>
<!-- Node35&#45;&gt;Node23 -->
<g id="edge43" class="edge"><title>Node35&#45;&gt;Node23</title>
<path fill="none" stroke="midnightblue" d="M298.585,-179.396C291.175,-169.361 281.188,-155.838 273.372,-145.253"/>
<polygon fill="midnightblue" stroke="midnightblue" points="276.177,-143.16 267.421,-137.195 270.546,-147.318 276.177,-143.16"/>
</g>
<!-- Node35&#45;&gt;Node34 -->
<g id="edge46" class="edge"><title>Node35&#45;&gt;Node34</title>
<path fill="none" stroke="midnightblue" d="M329.397,-179.396C345.014,-168.597 366.475,-153.756 382.194,-142.887"/>
<polygon fill="midnightblue" stroke="midnightblue" points="384.463,-145.573 390.698,-137.007 380.482,-139.816 384.463,-145.573"/>
</g>
</g>
</svg>
