<?xml version="1.0" encoding="UTF-8" standalone="no"?>
<!DOCTYPE svg PUBLIC "-//W3C//DTD SVG 1.1//EN"
 "http://www.w3.org/Graphics/SVG/1.1/DTD/svg11.dtd">
<!-- Generated by graphviz version 2.38.0 (20140413.2041)
 -->
<!-- Title: NFTime.cpp Pages: 1 -->
<svg width="478pt" height="151pt"
 viewBox="0.00 0.00 478.00 151.00" xmlns="http://www.w3.org/2000/svg" xmlns:xlink="http://www.w3.org/1999/xlink">
<g id="graph0" class="graph" transform="scale(1 1) rotate(0) translate(4 147)">
<title>NFTime.cpp</title>
<polygon fill="white" stroke="none" points="-4,4 -4,-147 474,-147 474,4 -4,4"/>
<!-- Node0 -->
<g id="node1" class="node"><title>Node0</title>
<polygon fill="#bfbfbf" stroke="black" points="117.5,-123.5 117.5,-142.5 186.5,-142.5 186.5,-123.5 117.5,-123.5"/>
<text text-anchor="middle" x="152" y="-130.5" font-family="Helvetica,sans-Serif" font-size="10.00">NFTime.cpp</text>
</g>
<!-- Node1 -->
<g id="node2" class="node"><title>Node1</title>
<polygon fill="white" stroke="#bfbfbf" points="0,-62 0,-81 46,-81 46,-62 0,-62"/>
<text text-anchor="middle" x="23" y="-69" font-family="Helvetica,sans-Serif" font-size="10.00">chrono</text>
</g>
<!-- Node0&#45;&gt;Node1 -->
<g id="edge1" class="edge"><title>Node0&#45;&gt;Node1</title>
<path fill="none" stroke="midnightblue" d="M133.517,-123.475C111.868,-113.49 75.7872,-96.8476 50.7675,-85.3075"/>
<polygon fill="midnightblue" stroke="midnightblue" points="51.9948,-82.0193 41.4483,-81.0091 49.063,-88.3757 51.9948,-82.0193"/>
</g>
<!-- Node2 -->
<g id="node3" class="node"><title>Node2</title>
<polygon fill="white" stroke="#bfbfbf" points="142,-0.5 142,-19.5 194,-19.5 194,-0.5 142,-0.5"/>
<text text-anchor="middle" x="168" y="-7.5" font-family="Helvetica,sans-Serif" font-size="10.00">sstream</text>
</g>
<!-- Node0&#45;&gt;Node2 -->
<g id="edge2" class="edge"><title>Node0&#45;&gt;Node2</title>
<path fill="none" stroke="midnightblue" d="M153.151,-123.298C155.734,-103.763 162.041,-56.0646 165.547,-29.5471"/>
<polygon fill="midnightblue" stroke="midnightblue" points="169.019,-29.9957 166.86,-19.6232 162.079,-29.078 169.019,-29.9957"/>
</g>
<!-- Node3 -->
<g id="node4" class="node"><title>Node3</title>
<g id="a_node4"><a xlink:href="_n_f_time_8h.html" target="_top" xlink:title="NFTime.h">
<polygon fill="white" stroke="black" points="64.5,-62 64.5,-81 123.5,-81 123.5,-62 64.5,-62"/>
<text text-anchor="middle" x="94" y="-69" font-family="Helvetica,sans-Serif" font-size="10.00">NFTime.h</text>
</a>
</g>
</g>
<!-- Node0&#45;&gt;Node3 -->
<g id="edge3" class="edge"><title>Node0&#45;&gt;Node3</title>
<path fill="none" stroke="midnightblue" d="M143.69,-123.475C134.818,-114.373 120.554,-99.741 109.58,-88.483"/>
<polygon fill="midnightblue" stroke="midnightblue" points="111.781,-85.7268 102.295,-81.0091 106.769,-90.613 111.781,-85.7268"/>
</g>
<!-- Node6 -->
<g id="node7" class="node"><title>Node6</title>
<g id="a_node7"><a xlink:href="_n_f_platform_8h.html" target="_top" xlink:title="NFComm/NFPluginModule\l/NFPlatform.h">
<polygon fill="white" stroke="black" points="180,-56.5 180,-86.5 312,-86.5 312,-56.5 180,-56.5"/>
<text text-anchor="start" x="188" y="-74.5" font-family="Helvetica,sans-Serif" font-size="10.00">NFComm/NFPluginModule</text>
<text text-anchor="middle" x="246" y="-63.5" font-family="Helvetica,sans-Serif" font-size="10.00">/NFPlatform.h</text>
</a>
</g>
</g>
<!-- Node0&#45;&gt;Node6 -->
<g id="edge6" class="edge"><title>Node0&#45;&gt;Node6</title>
<path fill="none" stroke="midnightblue" d="M165.468,-123.475C178.437,-115.266 198.513,-102.558 215.376,-91.8845"/>
<polygon fill="midnightblue" stroke="midnightblue" points="217.268,-94.8287 223.846,-86.523 213.525,-88.9141 217.268,-94.8287"/>
</g>
<!-- Node10 -->
<g id="node11" class="node"><title>Node10</title>
<polygon fill="white" stroke="#bfbfbf" points="330.5,-62 330.5,-81 379.5,-81 379.5,-62 330.5,-62"/>
<text text-anchor="middle" x="355" y="-69" font-family="Helvetica,sans-Serif" font-size="10.00">string.h</text>
</g>
<!-- Node0&#45;&gt;Node10 -->
<g id="edge12" class="edge"><title>Node0&#45;&gt;Node10</title>
<path fill="none" stroke="midnightblue" d="M186.743,-124.285C221.216,-116.272 275.355,-102.72 321,-87 322.866,-86.3574 324.774,-85.6601 326.687,-84.9303"/>
<polygon fill="midnightblue" stroke="midnightblue" points="328.166,-88.1076 336.126,-81.1152 325.543,-81.6177 328.166,-88.1076"/>
</g>
<!-- Node4 -->
<g id="node5" class="node"><title>Node4</title>
<polygon fill="white" stroke="#bfbfbf" points="22,-0.5 22,-19.5 64,-19.5 64,-0.5 22,-0.5"/>
<text text-anchor="middle" x="43" y="-7.5" font-family="Helvetica,sans-Serif" font-size="10.00">vector</text>
</g>
<!-- Node3&#45;&gt;Node4 -->
<g id="edge4" class="edge"><title>Node3&#45;&gt;Node4</title>
<path fill="none" stroke="midnightblue" d="M86.6929,-61.9751C78.9672,-52.9617 66.5925,-38.5246 56.9816,-27.3118"/>
<polygon fill="midnightblue" stroke="midnightblue" points="59.4589,-24.8239 50.2935,-19.5091 54.144,-29.3795 59.4589,-24.8239"/>
</g>
<!-- Node5 -->
<g id="node6" class="node"><title>Node5</title>
<polygon fill="white" stroke="#bfbfbf" points="82.5,-0.5 82.5,-19.5 123.5,-19.5 123.5,-0.5 82.5,-0.5"/>
<text text-anchor="middle" x="103" y="-7.5" font-family="Helvetica,sans-Serif" font-size="10.00">string</text>
</g>
<!-- Node3&#45;&gt;Node5 -->
<g id="edge5" class="edge"><title>Node3&#45;&gt;Node5</title>
<path fill="none" stroke="midnightblue" d="M95.2895,-61.9751C96.5593,-53.5803 98.5408,-40.4806 100.177,-29.6631"/>
<polygon fill="midnightblue" stroke="midnightblue" points="103.678,-29.9201 101.713,-19.5091 96.7566,-28.8731 103.678,-29.9201"/>
</g>
<!-- Node6&#45;&gt;Node2 -->
<g id="edge9" class="edge"><title>Node6&#45;&gt;Node2</title>
<path fill="none" stroke="midnightblue" d="M227.515,-56.3993C215.48,-47.2185 199.8,-35.2579 187.557,-25.9182"/>
<polygon fill="midnightblue" stroke="midnightblue" points="189.423,-22.9401 179.35,-19.6578 185.178,-28.5056 189.423,-22.9401"/>
</g>
<!-- Node6&#45;&gt;Node5 -->
<g id="edge11" class="edge"><title>Node6&#45;&gt;Node5</title>
<path fill="none" stroke="midnightblue" d="M212.111,-56.3993C188.118,-46.4163 156.226,-33.1465 133.123,-23.5335"/>
<polygon fill="midnightblue" stroke="midnightblue" points="134.385,-20.268 123.808,-19.6578 131.696,-26.7308 134.385,-20.268"/>
</g>
<!-- Node7 -->
<g id="node8" class="node"><title>Node7</title>
<polygon fill="white" stroke="#bfbfbf" points="212.5,-0.5 212.5,-19.5 261.5,-19.5 261.5,-0.5 212.5,-0.5"/>
<text text-anchor="middle" x="237" y="-7.5" font-family="Helvetica,sans-Serif" font-size="10.00">stdint.h</text>
</g>
<!-- Node6&#45;&gt;Node7 -->
<g id="edge7" class="edge"><title>Node6&#45;&gt;Node7</title>
<path fill="none" stroke="midnightblue" d="M243.867,-56.3993C242.654,-48.3772 241.119,-38.2328 239.809,-29.569"/>
<polygon fill="midnightblue" stroke="midnightblue" points="243.266,-29.0218 238.31,-19.6578 236.345,-30.0688 243.266,-29.0218"/>
</g>
<!-- Node8 -->
<g id="node9" class="node"><title>Node8</title>
<polygon fill="white" stroke="#bfbfbf" points="280,-0.5 280,-19.5 324,-19.5 324,-0.5 280,-0.5"/>
<text text-anchor="middle" x="302" y="-7.5" font-family="Helvetica,sans-Serif" font-size="10.00">time.h</text>
</g>
<!-- Node6&#45;&gt;Node8 -->
<g id="edge8" class="edge"><title>Node6&#45;&gt;Node8</title>
<path fill="none" stroke="midnightblue" d="M259.271,-56.3993C267.576,-47.575 278.299,-36.1827 286.924,-27.0178"/>
<polygon fill="midnightblue" stroke="midnightblue" points="289.547,-29.3386 293.852,-19.6578 284.449,-24.541 289.547,-29.3386"/>
</g>
<!-- Node9 -->
<g id="node10" class="node"><title>Node9</title>
<polygon fill="white" stroke="#bfbfbf" points="342,-0.5 342,-19.5 470,-19.5 470,-0.5 342,-0.5"/>
<text text-anchor="middle" x="406" y="-7.5" font-family="Helvetica,sans-Serif" font-size="10.00">common/lexical_cast.hpp</text>
</g>
<!-- Node6&#45;&gt;Node9 -->
<g id="edge10" class="edge"><title>Node6&#45;&gt;Node9</title>
<path fill="none" stroke="midnightblue" d="M283.918,-56.3993C311.123,-46.2826 347.404,-32.7905 373.33,-23.1493"/>
<polygon fill="midnightblue" stroke="midnightblue" points="374.566,-26.4239 382.719,-19.6578 372.126,-19.8629 374.566,-26.4239"/>
</g>
</g>
</svg>
