<?xml version="1.0" encoding="UTF-8" standalone="no"?>
<!DOCTYPE svg PUBLIC "-//W3C//DTD SVG 1.1//EN"
 "http://www.w3.org/Graphics/SVG/1.1/DTD/svg11.dtd">
<!-- Generated by graphviz version 2.38.0 (20140413.2041)
 -->
<!-- Title: NFCHeartBeatManager.cpp Pages: 1 -->
<svg width="1518pt" height="442pt"
 viewBox="0.00 0.00 1518.01 442.00" xmlns="http://www.w3.org/2000/svg" xmlns:xlink="http://www.w3.org/1999/xlink">
<g id="graph0" class="graph" transform="scale(1 1) rotate(0) translate(4 438)">
<title>NFCHeartBeatManager.cpp</title>
<polygon fill="white" stroke="none" points="-4,4 -4,-438 1514.01,-438 1514.01,4 -4,4"/>
<!-- Node0 -->
<g id="node1" class="node"><title>Node0</title>
<polygon fill="#bfbfbf" stroke="black" points="619.944,-414.5 619.944,-433.5 755.944,-433.5 755.944,-414.5 619.944,-414.5"/>
<text text-anchor="middle" x="687.944" y="-421.5" font-family="Helvetica,sans-Serif" font-size="10.00">NFCHeartBeatManager.cpp</text>
</g>
<!-- Node1 -->
<g id="node2" class="node"><title>Node1</title>
<g id="a_node2"><a xlink:href="_n_f_c_heart_beat_manager_8h.html" target="_top" xlink:title="NFCHeartBeatManager.h">
<polygon fill="white" stroke="black" points="505.444,-358.5 505.444,-377.5 630.444,-377.5 630.444,-358.5 505.444,-358.5"/>
<text text-anchor="middle" x="567.944" y="-365.5" font-family="Helvetica,sans-Serif" font-size="10.00">NFCHeartBeatManager.h</text>
</a>
</g>
</g>
<!-- Node0&#45;&gt;Node1 -->
<g id="edge1" class="edge"><title>Node0&#45;&gt;Node1</title>
<path fill="none" stroke="midnightblue" d="M668.929,-414.444C649.356,-405.636 618.636,-391.812 596.215,-381.722"/>
<polygon fill="midnightblue" stroke="midnightblue" points="597.425,-378.428 586.869,-377.516 594.552,-384.812 597.425,-378.428"/>
</g>
<!-- Node32 -->
<g id="node33" class="node"><title>Node32</title>
<g id="a_node33"><a xlink:href="_n_f_time_8h.html" target="_top" xlink:title="NFTime.h">
<polygon fill="white" stroke="black" points="1445.44,-190.5 1445.44,-209.5 1504.44,-209.5 1504.44,-190.5 1445.44,-190.5"/>
<text text-anchor="middle" x="1474.94" y="-197.5" font-family="Helvetica,sans-Serif" font-size="10.00">NFTime.h</text>
</a>
</g>
</g>
<!-- Node0&#45;&gt;Node32 -->
<g id="edge61" class="edge"><title>Node0&#45;&gt;Node32</title>
<path fill="none" stroke="midnightblue" d="M718.313,-414.433C840.674,-379.917 1297.55,-251.04 1435.35,-212.168"/>
<polygon fill="midnightblue" stroke="midnightblue" points="1436.41,-215.506 1445.09,-209.422 1434.51,-208.769 1436.41,-215.506"/>
</g>
<!-- Node2 -->
<g id="node3" class="node"><title>Node2</title>
<g id="a_node3"><a xlink:href="_n_f_map_8h.html" target="_top" xlink:title="NFMap.h">
<polygon fill="white" stroke="black" points="105.944,-246.5 105.944,-265.5 161.944,-265.5 161.944,-246.5 105.944,-246.5"/>
<text text-anchor="middle" x="133.944" y="-253.5" font-family="Helvetica,sans-Serif" font-size="10.00">NFMap.h</text>
</a>
</g>
</g>
<!-- Node1&#45;&gt;Node2 -->
<g id="edge2" class="edge"><title>Node1&#45;&gt;Node2</title>
<path fill="none" stroke="midnightblue" d="M534.25,-358.46C454.716,-338.302 255.724,-287.866 172.005,-266.647"/>
<polygon fill="midnightblue" stroke="midnightblue" points="172.701,-263.213 162.148,-264.149 170.981,-269.998 172.701,-263.213"/>
</g>
<!-- Node15 -->
<g id="node16" class="node"><title>Node15</title>
<g id="a_node16"><a xlink:href="_n_f_list_8h.html" target="_top" xlink:title="NFList.h">
<polygon fill="white" stroke="black" points="377.444,-190.5 377.444,-209.5 430.444,-209.5 430.444,-190.5 377.444,-190.5"/>
<text text-anchor="middle" x="403.944" y="-197.5" font-family="Helvetica,sans-Serif" font-size="10.00">NFList.h</text>
</a>
</g>
</g>
<!-- Node1&#45;&gt;Node15 -->
<g id="edge21" class="edge"><title>Node1&#45;&gt;Node15</title>
<path fill="none" stroke="midnightblue" d="M508.097,-358.44C483.708,-352.112 457.051,-341.113 438.944,-322 412.087,-293.651 405.668,-245.975 404.242,-219.73"/>
<polygon fill="midnightblue" stroke="midnightblue" points="407.736,-219.489 403.887,-209.618 400.74,-219.735 407.736,-219.489"/>
</g>
<!-- Node17 -->
<g id="node18" class="node"><title>Node17</title>
<g id="a_node18"><a xlink:href="_n_f_define_8h.html" target="_top" xlink:title="NFDefine.h">
<polygon fill="white" stroke="black" points="671.444,-246.5 671.444,-265.5 736.444,-265.5 736.444,-246.5 671.444,-246.5"/>
<text text-anchor="middle" x="703.944" y="-253.5" font-family="Helvetica,sans-Serif" font-size="10.00">NFDefine.h</text>
</a>
</g>
</g>
<!-- Node1&#45;&gt;Node17 -->
<g id="edge27" class="edge"><title>Node1&#45;&gt;Node17</title>
<path fill="none" stroke="midnightblue" d="M584.632,-358.497C600.189,-350.2 623.671,-336.707 641.944,-322 660.254,-307.263 678.495,-287.348 690.401,-273.461"/>
<polygon fill="midnightblue" stroke="midnightblue" points="693.178,-275.597 696.94,-265.693 687.822,-271.089 693.178,-275.597"/>
</g>
<!-- Node19 -->
<g id="node20" class="node"><title>Node19</title>
<g id="a_node20"><a xlink:href="_a_f_data_list_8hpp.html" target="_top" xlink:title="AFDataList.hpp">
<polygon fill="white" stroke="black" points="661.944,-190.5 661.944,-209.5 745.944,-209.5 745.944,-190.5 661.944,-190.5"/>
<text text-anchor="middle" x="703.944" y="-197.5" font-family="Helvetica,sans-Serif" font-size="10.00">AFDataList.hpp</text>
</a>
</g>
</g>
<!-- Node1&#45;&gt;Node19 -->
<g id="edge54" class="edge"><title>Node1&#45;&gt;Node19</title>
<path fill="none" stroke="midnightblue" d="M574.294,-358.28C589.095,-338.08 627.266,-286.698 661.944,-246 670.348,-236.137 680.212,-225.522 688.269,-217.08"/>
<polygon fill="midnightblue" stroke="midnightblue" points="690.916,-219.378 695.333,-209.748 685.875,-214.521 690.916,-219.378"/>
</g>
<!-- Node31 -->
<g id="node32" class="node"><title>Node31</title>
<g id="a_node32"><a xlink:href="_n_f_i_heart_beat_manager_8h.html" target="_top" xlink:title="NFIHeartBeatManager.h">
<polygon fill="white" stroke="black" points="448.444,-302.5 448.444,-321.5 569.444,-321.5 569.444,-302.5 448.444,-302.5"/>
<text text-anchor="middle" x="508.944" y="-309.5" font-family="Helvetica,sans-Serif" font-size="10.00">NFIHeartBeatManager.h</text>
</a>
</g>
</g>
<!-- Node1&#45;&gt;Node31 -->
<g id="edge55" class="edge"><title>Node1&#45;&gt;Node31</title>
<path fill="none" stroke="midnightblue" d="M558.464,-358.324C549.743,-350.341 536.6,-338.313 526.046,-328.653"/>
<polygon fill="midnightblue" stroke="midnightblue" points="528.335,-326.004 518.596,-321.834 523.609,-331.167 528.335,-326.004"/>
</g>
<!-- Node3 -->
<g id="node4" class="node"><title>Node3</title>
<polygon fill="white" stroke="#bfbfbf" points="232.444,-129 232.444,-148 267.444,-148 267.444,-129 232.444,-129"/>
<text text-anchor="middle" x="249.944" y="-136" font-family="Helvetica,sans-Serif" font-size="10.00">map</text>
</g>
<!-- Node2&#45;&gt;Node3 -->
<g id="edge3" class="edge"><title>Node2&#45;&gt;Node3</title>
<path fill="none" stroke="midnightblue" d="M143.038,-246.459C152.567,-237.471 167.932,-222.869 180.944,-210 199.469,-191.677 220.345,-170.233 234.235,-155.849"/>
<polygon fill="midnightblue" stroke="midnightblue" points="237.117,-157.902 241.536,-148.272 232.077,-153.045 237.117,-157.902"/>
</g>
<!-- Node4 -->
<g id="node5" class="node"><title>Node4</title>
<polygon fill="white" stroke="#bfbfbf" points="185.444,-129 185.444,-148 214.444,-148 214.444,-129 185.444,-129"/>
<text text-anchor="middle" x="199.944" y="-136" font-family="Helvetica,sans-Serif" font-size="10.00">list</text>
</g>
<!-- Node2&#45;&gt;Node4 -->
<g id="edge4" class="edge"><title>Node2&#45;&gt;Node4</title>
<path fill="none" stroke="midnightblue" d="M138.904,-246.319C149.702,-227.422 175.516,-182.248 189.875,-157.121"/>
<polygon fill="midnightblue" stroke="midnightblue" points="193.003,-158.701 194.925,-148.282 186.925,-155.228 193.003,-158.701"/>
</g>
<!-- Node5 -->
<g id="node6" class="node"><title>Node5</title>
<polygon fill="white" stroke="#bfbfbf" points="328.444,-0.5 328.444,-19.5 369.444,-19.5 369.444,-0.5 328.444,-0.5"/>
<text text-anchor="middle" x="348.944" y="-7.5" font-family="Helvetica,sans-Serif" font-size="10.00">string</text>
</g>
<!-- Node2&#45;&gt;Node5 -->
<g id="edge5" class="edge"><title>Node2&#45;&gt;Node5</title>
<path fill="none" stroke="midnightblue" d="M105.66,-248.332C83.6159,-241.84 53.5541,-229.966 33.9437,-210 -14.1394,-161.045 -10.9762,-95.7682 44.9437,-56 88.4848,-25.0351 249.972,-14.9777 318.201,-12.0666"/>
<polygon fill="midnightblue" stroke="midnightblue" points="318.467,-15.5588 328.318,-11.6586 318.185,-8.56447 318.467,-15.5588"/>
</g>
<!-- Node6 -->
<g id="node7" class="node"><title>Node6</title>
<polygon fill="white" stroke="#bfbfbf" points="338.944,-62 338.944,-81 392.944,-81 392.944,-62 338.944,-62"/>
<text text-anchor="middle" x="365.944" y="-69" font-family="Helvetica,sans-Serif" font-size="10.00">iostream</text>
</g>
<!-- Node2&#45;&gt;Node6 -->
<g id="edge6" class="edge"><title>Node2&#45;&gt;Node6</title>
<path fill="none" stroke="midnightblue" d="M116.829,-246.441C76.7505,-225.326 -16.8807,-169.117 22.9437,-123 62.1459,-77.6035 248.2,-72.2835 328.69,-72.1538"/>
<polygon fill="midnightblue" stroke="midnightblue" points="328.867,-75.6538 338.871,-72.1645 328.875,-68.6538 328.867,-75.6538"/>
</g>
<!-- Node7 -->
<g id="node8" class="node"><title>Node7</title>
<polygon fill="white" stroke="#bfbfbf" points="40.9437,-129 40.9437,-148 90.9437,-148 90.9437,-129 40.9437,-129"/>
<text text-anchor="middle" x="65.9437" y="-136" font-family="Helvetica,sans-Serif" font-size="10.00">typeinfo</text>
</g>
<!-- Node2&#45;&gt;Node7 -->
<g id="edge7" class="edge"><title>Node2&#45;&gt;Node7</title>
<path fill="none" stroke="midnightblue" d="M112.67,-246.483C97.5915,-239.215 78.4203,-227.188 68.9437,-210 60.2708,-194.27 60.5486,-173.432 62.3692,-158.497"/>
<polygon fill="midnightblue" stroke="midnightblue" points="65.8596,-158.828 63.9394,-148.409 58.9429,-157.751 65.8596,-158.828"/>
</g>
<!-- Node8 -->
<g id="node9" class="node"><title>Node8</title>
<g id="a_node9"><a xlink:href="_n_f_map_ex_8h.html" target="_top" xlink:title="NFMapEx.h">
<polygon fill="white" stroke="black" points="77.9437,-190.5 77.9437,-209.5 145.944,-209.5 145.944,-190.5 77.9437,-190.5"/>
<text text-anchor="middle" x="111.944" y="-197.5" font-family="Helvetica,sans-Serif" font-size="10.00">NFMapEx.h</text>
</a>
</g>
</g>
<!-- Node2&#45;&gt;Node8 -->
<g id="edge8" class="edge"><title>Node2&#45;&gt;Node8</title>
<path fill="none" stroke="midnightblue" d="M130.311,-246.083C127.331,-238.77 123.018,-228.181 119.319,-219.103"/>
<polygon fill="midnightblue" stroke="midnightblue" points="122.523,-217.691 115.509,-209.751 116.041,-220.333 122.523,-217.691"/>
</g>
<!-- Node8&#45;&gt;Node3 -->
<g id="edge9" class="edge"><title>Node8&#45;&gt;Node3</title>
<path fill="none" stroke="midnightblue" d="M135.215,-190.405C157.892,-181.833 193.204,-167.964 222.944,-154 223.787,-153.604 224.64,-153.195 225.5,-152.775"/>
<polygon fill="midnightblue" stroke="midnightblue" points="227.369,-155.75 234.669,-148.072 224.174,-149.522 227.369,-155.75"/>
</g>
<!-- Node8&#45;&gt;Node4 -->
<g id="edge10" class="edge"><title>Node8&#45;&gt;Node4</title>
<path fill="none" stroke="midnightblue" d="M124.552,-190.475C138.667,-180.931 161.775,-165.307 178.693,-153.868"/>
<polygon fill="midnightblue" stroke="midnightblue" points="181.035,-156.51 187.359,-148.009 177.114,-150.711 181.035,-156.51"/>
</g>
<!-- Node8&#45;&gt;Node5 -->
<g id="edge11" class="edge"><title>Node8&#45;&gt;Node5</title>
<path fill="none" stroke="midnightblue" d="M77.5059,-191.11C57.8516,-184.651 34.8248,-173.321 22.9437,-154 15.7266,-142.264 17.0395,-135.449 22.9437,-123 43.1116,-80.4774 62.2385,-75.7782 104.944,-56 176.531,-22.8456 270.575,-14.0977 318.302,-11.8038"/>
<polygon fill="midnightblue" stroke="midnightblue" points="318.461,-15.3003 328.307,-11.3863 318.17,-8.30634 318.461,-15.3003"/>
</g>
<!-- Node8&#45;&gt;Node6 -->
<g id="edge12" class="edge"><title>Node8&#45;&gt;Node6</title>
<path fill="none" stroke="midnightblue" d="M81.6964,-190.488C63.8185,-183.726 42.6435,-172.295 31.9437,-154 24.9881,-142.107 22.9591,-133.445 31.9437,-123 69.8387,-78.9447 249.223,-72.835 328.324,-72.3226"/>
<polygon fill="midnightblue" stroke="midnightblue" points="328.807,-75.8209 338.794,-72.284 328.781,-68.8209 328.807,-75.8209"/>
</g>
<!-- Node8&#45;&gt;Node7 -->
<g id="edge13" class="edge"><title>Node8&#45;&gt;Node7</title>
<path fill="none" stroke="midnightblue" d="M105.353,-190.475C98.453,-181.55 87.4417,-167.307 78.8102,-156.143"/>
<polygon fill="midnightblue" stroke="midnightblue" points="81.4076,-153.78 72.5222,-148.009 75.8696,-158.061 81.4076,-153.78"/>
</g>
<!-- Node9 -->
<g id="node10" class="node"><title>Node9</title>
<polygon fill="white" stroke="#bfbfbf" points="285.944,-129 285.944,-148 337.944,-148 337.944,-129 285.944,-129"/>
<text text-anchor="middle" x="311.944" y="-136" font-family="Helvetica,sans-Serif" font-size="10.00">memory</text>
</g>
<!-- Node8&#45;&gt;Node9 -->
<g id="edge14" class="edge"><title>Node8&#45;&gt;Node9</title>
<path fill="none" stroke="midnightblue" d="M146.211,-190.821C179.631,-182.558 231.742,-168.911 275.944,-154 278.071,-153.283 280.253,-152.506 282.442,-151.699"/>
<polygon fill="midnightblue" stroke="midnightblue" points="283.845,-154.909 291.914,-148.042 281.324,-148.378 283.845,-154.909"/>
</g>
<!-- Node10 -->
<g id="node11" class="node"><title>Node10</title>
<g id="a_node11"><a xlink:href="_n_f_platform_8h.html" target="_top" xlink:title="NFComm/NFPluginModule\l/NFPlatform.h">
<polygon fill="white" stroke="black" points="693.944,-56.5 693.944,-86.5 825.944,-86.5 825.944,-56.5 693.944,-56.5"/>
<text text-anchor="start" x="701.944" y="-74.5" font-family="Helvetica,sans-Serif" font-size="10.00">NFComm/NFPluginModule</text>
<text text-anchor="middle" x="759.944" y="-63.5" font-family="Helvetica,sans-Serif" font-size="10.00">/NFPlatform.h</text>
</a>
</g>
</g>
<!-- Node8&#45;&gt;Node10 -->
<g id="edge15" class="edge"><title>Node8&#45;&gt;Node10</title>
<path fill="none" stroke="midnightblue" d="M116.16,-190.498C124.802,-174.11 146.239,-138.411 175.944,-123 219.942,-100.173 535.207,-82.8423 683.371,-75.8627"/>
<polygon fill="midnightblue" stroke="midnightblue" points="683.918,-79.341 693.744,-75.3781 683.592,-72.3486 683.918,-79.341"/>
</g>
<!-- Node10&#45;&gt;Node5 -->
<g id="edge20" class="edge"><title>Node10&#45;&gt;Node5</title>
<path fill="none" stroke="midnightblue" d="M693.628,-58.2474C689.001,-57.4641 684.405,-56.7072 679.944,-56 569.672,-38.5196 438.061,-21.8813 379.569,-14.7044"/>
<polygon fill="midnightblue" stroke="midnightblue" points="379.87,-11.2153 369.52,-13.4763 379.021,-18.1636 379.87,-11.2153"/>
</g>
<!-- Node11 -->
<g id="node12" class="node"><title>Node11</title>
<polygon fill="white" stroke="#bfbfbf" points="896.444,-0.5 896.444,-19.5 945.444,-19.5 945.444,-0.5 896.444,-0.5"/>
<text text-anchor="middle" x="920.944" y="-7.5" font-family="Helvetica,sans-Serif" font-size="10.00">stdint.h</text>
</g>
<!-- Node10&#45;&gt;Node11 -->
<g id="edge16" class="edge"><title>Node10&#45;&gt;Node11</title>
<path fill="none" stroke="midnightblue" d="M798.098,-56.3993C825.473,-46.2826 861.981,-32.7905 888.069,-23.1493"/>
<polygon fill="midnightblue" stroke="midnightblue" points="889.35,-26.4073 897.517,-19.6578 886.924,-19.8414 889.35,-26.4073"/>
</g>
<!-- Node12 -->
<g id="node13" class="node"><title>Node12</title>
<polygon fill="white" stroke="#bfbfbf" points="617.944,-0.5 617.944,-19.5 661.944,-19.5 661.944,-0.5 617.944,-0.5"/>
<text text-anchor="middle" x="639.944" y="-7.5" font-family="Helvetica,sans-Serif" font-size="10.00">time.h</text>
</g>
<!-- Node10&#45;&gt;Node12 -->
<g id="edge17" class="edge"><title>Node10&#45;&gt;Node12</title>
<path fill="none" stroke="midnightblue" d="M731.505,-56.3993C711.821,-46.6391 685.8,-33.7373 666.531,-24.1826"/>
<polygon fill="midnightblue" stroke="midnightblue" points="667.919,-20.9644 657.405,-19.6578 664.809,-27.2358 667.919,-20.9644"/>
</g>
<!-- Node13 -->
<g id="node14" class="node"><title>Node13</title>
<polygon fill="white" stroke="#bfbfbf" points="679.944,-0.5 679.944,-19.5 731.944,-19.5 731.944,-0.5 679.944,-0.5"/>
<text text-anchor="middle" x="705.944" y="-7.5" font-family="Helvetica,sans-Serif" font-size="10.00">sstream</text>
</g>
<!-- Node10&#45;&gt;Node13 -->
<g id="edge18" class="edge"><title>Node10&#45;&gt;Node13</title>
<path fill="none" stroke="midnightblue" d="M747.146,-56.3993C739.219,-47.6641 729.007,-36.4126 720.734,-27.2962"/>
<polygon fill="midnightblue" stroke="midnightblue" points="723.114,-24.7106 713.801,-19.6578 717.93,-29.415 723.114,-24.7106"/>
</g>
<!-- Node14 -->
<g id="node15" class="node"><title>Node14</title>
<polygon fill="white" stroke="#bfbfbf" points="749.944,-0.5 749.944,-19.5 877.944,-19.5 877.944,-0.5 749.944,-0.5"/>
<text text-anchor="middle" x="813.944" y="-7.5" font-family="Helvetica,sans-Serif" font-size="10.00">common/lexical_cast.hpp</text>
</g>
<!-- Node10&#45;&gt;Node14 -->
<g id="edge19" class="edge"><title>Node10&#45;&gt;Node14</title>
<path fill="none" stroke="midnightblue" d="M772.741,-56.3993C780.669,-47.6641 790.88,-36.4126 799.154,-27.2962"/>
<polygon fill="midnightblue" stroke="midnightblue" points="801.957,-29.415 806.086,-19.6578 796.774,-24.7106 801.957,-29.415"/>
</g>
<!-- Node15&#45;&gt;Node3 -->
<g id="edge23" class="edge"><title>Node15&#45;&gt;Node3</title>
<path fill="none" stroke="midnightblue" d="M377.217,-190.842C351.196,-182.594 310.74,-168.958 276.944,-154 275.946,-153.559 274.936,-153.095 273.92,-152.615"/>
<polygon fill="midnightblue" stroke="midnightblue" points="275.382,-149.432 264.878,-148.043 272.223,-155.679 275.382,-149.432"/>
</g>
<!-- Node15&#45;&gt;Node4 -->
<g id="edge24" class="edge"><title>Node15&#45;&gt;Node4</title>
<path fill="none" stroke="midnightblue" d="M377.322,-195.112C341.258,-189.241 275.365,-176.355 222.944,-154 222.374,-153.757 221.802,-153.501 221.23,-153.233"/>
<polygon fill="midnightblue" stroke="midnightblue" points="222.645,-150.016 212.201,-148.235 219.254,-156.14 222.645,-150.016"/>
</g>
<!-- Node15&#45;&gt;Node6 -->
<g id="edge22" class="edge"><title>Node15&#45;&gt;Node6</title>
<path fill="none" stroke="midnightblue" d="M401.221,-190.385C398.371,-181.337 393.785,-166.686 389.944,-154 383.415,-132.436 376.132,-107.589 371.32,-91.055"/>
<polygon fill="midnightblue" stroke="midnightblue" points="374.573,-89.7056 368.423,-81.0784 367.851,-91.6578 374.573,-89.7056"/>
</g>
<!-- Node15&#45;&gt;Node10 -->
<g id="edge26" class="edge"><title>Node15&#45;&gt;Node10</title>
<path fill="none" stroke="midnightblue" d="M403.288,-190.417C402.591,-174.528 403.612,-140.555 422.944,-123 460.122,-89.2379 596.209,-78.0462 683.661,-74.3373"/>
<polygon fill="midnightblue" stroke="midnightblue" points="683.959,-77.8283 693.811,-73.931 683.679,-70.8339 683.959,-77.8283"/>
</g>
<!-- Node16 -->
<g id="node17" class="node"><title>Node16</title>
<polygon fill="white" stroke="#bfbfbf" points="431.944,-129 431.944,-148 487.944,-148 487.944,-129 431.944,-129"/>
<text text-anchor="middle" x="459.944" y="-136" font-family="Helvetica,sans-Serif" font-size="10.00">algorithm</text>
</g>
<!-- Node15&#45;&gt;Node16 -->
<g id="edge25" class="edge"><title>Node15&#45;&gt;Node16</title>
<path fill="none" stroke="midnightblue" d="M411.967,-190.475C420.534,-181.373 434.305,-166.741 444.901,-155.483"/>
<polygon fill="midnightblue" stroke="midnightblue" points="447.63,-157.69 451.935,-148.009 442.533,-152.892 447.63,-157.69"/>
</g>
<!-- Node18 -->
<g id="node19" class="node"><title>Node18</title>
<polygon fill="white" stroke="#bfbfbf" points="1377.94,-129 1377.94,-148 1435.94,-148 1435.94,-129 1377.94,-129"/>
<text text-anchor="middle" x="1406.94" y="-136" font-family="Helvetica,sans-Serif" font-size="10.00">functional</text>
</g>
<!-- Node17&#45;&gt;Node18 -->
<g id="edge28" class="edge"><title>Node17&#45;&gt;Node18</title>
<path fill="none" stroke="midnightblue" d="M736.628,-252.543C834.141,-244.681 1131.01,-216.884 1368.94,-154 1371.6,-153.297 1374.33,-152.472 1377.05,-151.578"/>
<polygon fill="midnightblue" stroke="midnightblue" points="1378.45,-154.795 1386.69,-148.138 1376.1,-148.202 1378.45,-154.795"/>
</g>
<!-- Node17&#45;&gt;Node19 -->
<g id="edge29" class="edge"><title>Node17&#45;&gt;Node19</title>
<path fill="none" stroke="midnightblue" d="M703.944,-246.083C703.944,-239.006 703.944,-228.861 703.944,-219.986"/>
<polygon fill="midnightblue" stroke="midnightblue" points="707.444,-219.751 703.944,-209.751 700.444,-219.751 707.444,-219.751"/>
</g>
<!-- Node28 -->
<g id="node29" class="node"><title>Node28</title>
<g id="a_node29"><a xlink:href="_n_f_g_u_i_d_8h.html" target="_top" xlink:title="NFComm/NFPluginModule\l/NFGUID.h">
<polygon fill="white" stroke="black" points="1227.94,-123.5 1227.94,-153.5 1359.94,-153.5 1359.94,-123.5 1227.94,-123.5"/>
<text text-anchor="start" x="1235.94" y="-141.5" font-family="Helvetica,sans-Serif" font-size="10.00">NFComm/NFPluginModule</text>
<text text-anchor="middle" x="1293.94" y="-130.5" font-family="Helvetica,sans-Serif" font-size="10.00">/NFGUID.h</text>
</a>
</g>
</g>
<!-- Node17&#45;&gt;Node28 -->
<g id="edge53" class="edge"><title>Node17&#45;&gt;Node28</title>
<path fill="none" stroke="midnightblue" d="M736.505,-248.626C827.739,-230.765 1087.67,-179.88 1217.8,-154.407"/>
<polygon fill="midnightblue" stroke="midnightblue" points="1218.56,-157.825 1227.7,-152.469 1217.21,-150.955 1218.56,-157.825"/>
</g>
<!-- Node19&#45;&gt;Node3 -->
<g id="edge37" class="edge"><title>Node19&#45;&gt;Node3</title>
<path fill="none" stroke="midnightblue" d="M661.654,-199.879C583.73,-200.341 413.006,-195.928 276.944,-154 275.514,-153.559 274.072,-153.04 272.638,-152.466"/>
<polygon fill="midnightblue" stroke="midnightblue" points="274.038,-149.256 263.506,-148.105 271.022,-155.573 274.038,-149.256"/>
</g>
<!-- Node19&#45;&gt;Node4 -->
<g id="edge35" class="edge"><title>Node19&#45;&gt;Node4</title>
<path fill="none" stroke="midnightblue" d="M661.746,-197.566C560.026,-193.708 303.737,-181.483 222.944,-154 222.044,-153.694 221.144,-153.347 220.249,-152.966"/>
<polygon fill="midnightblue" stroke="midnightblue" points="221.564,-149.698 211.105,-148.006 218.227,-155.851 221.564,-149.698"/>
</g>
<!-- Node19&#45;&gt;Node5 -->
<g id="edge30" class="edge"><title>Node19&#45;&gt;Node5</title>
<path fill="none" stroke="midnightblue" d="M699.531,-190.199C691.269,-174.558 672.015,-141.8 646.944,-123 562.023,-59.3226 436.807,-28.1538 379.545,-16.5549"/>
<polygon fill="midnightblue" stroke="midnightblue" points="380.157,-13.1081 369.669,-14.6134 378.806,-19.9767 380.157,-13.1081"/>
</g>
<!-- Node19&#45;&gt;Node6 -->
<g id="edge32" class="edge"><title>Node19&#45;&gt;Node6</title>
<path fill="none" stroke="midnightblue" d="M661.875,-192.9C626.553,-186.607 575.502,-174.718 534.944,-154 515.534,-144.085 515.792,-133.945 496.944,-123 467.039,-105.634 430.046,-92.006 403.006,-83.3066"/>
<polygon fill="midnightblue" stroke="midnightblue" points="403.755,-79.8733 393.165,-80.2163 401.657,-86.5517 403.755,-79.8733"/>
</g>
<!-- Node19&#45;&gt;Node7 -->
<g id="edge40" class="edge"><title>Node19&#45;&gt;Node7</title>
<path fill="none" stroke="midnightblue" d="M661.788,-196.07C572.213,-189.697 356.354,-173.568 175.944,-154 150.929,-151.287 122.802,-147.567 101.253,-144.575"/>
<polygon fill="midnightblue" stroke="midnightblue" points="101.633,-141.094 91.2443,-143.172 100.662,-148.026 101.633,-141.094"/>
</g>
<!-- Node19&#45;&gt;Node9 -->
<g id="edge44" class="edge"><title>Node19&#45;&gt;Node9</title>
<path fill="none" stroke="midnightblue" d="M661.62,-192.576C584.256,-180.833 421.286,-156.097 348.455,-145.042"/>
<polygon fill="midnightblue" stroke="midnightblue" points="348.796,-141.554 338.384,-143.513 347.745,-148.474 348.796,-141.554"/>
</g>
<!-- Node19&#45;&gt;Node10 -->
<g id="edge51" class="edge"><title>Node19&#45;&gt;Node10</title>
<path fill="none" stroke="midnightblue" d="M746.093,-198.193C857.268,-195.633 1151.94,-185.874 1180.94,-154 1190.22,-143.81 1190.09,-133.306 1180.94,-123 1158.51,-97.7103 951.477,-82.7114 836.337,-76.2569"/>
<polygon fill="midnightblue" stroke="midnightblue" points="836.348,-72.7523 826.17,-75.6958 835.962,-79.7416 836.348,-72.7523"/>
</g>
<!-- Node19&#45;&gt;Node16 -->
<g id="edge38" class="edge"><title>Node19&#45;&gt;Node16</title>
<path fill="none" stroke="midnightblue" d="M661.815,-191.062C620.71,-182.978 556.566,-169.459 501.944,-154 498.996,-153.166 495.951,-152.241 492.912,-151.275"/>
<polygon fill="midnightblue" stroke="midnightblue" points="493.935,-147.926 483.341,-148.103 491.732,-154.571 493.935,-147.926"/>
</g>
<!-- Node19&#45;&gt;Node18 -->
<g id="edge42" class="edge"><title>Node19&#45;&gt;Node18</title>
<path fill="none" stroke="midnightblue" d="M745.955,-197.785C872.599,-193.867 1249.28,-180.263 1368.94,-154 1372.02,-153.325 1375.17,-152.446 1378.29,-151.454"/>
<polygon fill="midnightblue" stroke="midnightblue" points="1379.71,-154.665 1387.95,-148.013 1377.36,-148.07 1379.71,-154.665"/>
</g>
<!-- Node20 -->
<g id="node21" class="node"><title>Node20</title>
<polygon fill="white" stroke="#bfbfbf" points="731.944,-129 731.944,-148 777.944,-148 777.944,-129 731.944,-129"/>
<text text-anchor="middle" x="754.944" y="-136" font-family="Helvetica,sans-Serif" font-size="10.00">cstring</text>
</g>
<!-- Node19&#45;&gt;Node20 -->
<g id="edge31" class="edge"><title>Node19&#45;&gt;Node20</title>
<path fill="none" stroke="midnightblue" d="M711.251,-190.475C718.977,-181.462 731.351,-167.025 740.962,-155.812"/>
<polygon fill="midnightblue" stroke="midnightblue" points="743.8,-157.879 747.65,-148.009 738.485,-153.324 743.8,-157.879"/>
</g>
<!-- Node21 -->
<g id="node22" class="node"><title>Node21</title>
<polygon fill="white" stroke="#bfbfbf" points="1024.94,-62 1024.94,-81 1072.94,-81 1072.94,-62 1024.94,-62"/>
<text text-anchor="middle" x="1048.94" y="-69" font-family="Helvetica,sans-Serif" font-size="10.00">stdlib.h</text>
</g>
<!-- Node19&#45;&gt;Node21 -->
<g id="edge33" class="edge"><title>Node19&#45;&gt;Node21</title>
<path fill="none" stroke="midnightblue" d="M703.296,-190.426C702.612,-174.551 703.656,-140.603 722.944,-123 765.079,-84.5463 939.032,-75.3595 1014.15,-73.1759"/>
<polygon fill="midnightblue" stroke="midnightblue" points="1014.58,-76.6657 1024.48,-72.9019 1014.39,-69.6682 1014.58,-76.6657"/>
</g>
<!-- Node22 -->
<g id="node23" class="node"><title>Node22</title>
<polygon fill="white" stroke="#bfbfbf" points="796.444,-129 796.444,-148 843.444,-148 843.444,-129 796.444,-129"/>
<text text-anchor="middle" x="819.944" y="-136" font-family="Helvetica,sans-Serif" font-size="10.00">math.h</text>
</g>
<!-- Node19&#45;&gt;Node22 -->
<g id="edge34" class="edge"><title>Node19&#45;&gt;Node22</title>
<path fill="none" stroke="midnightblue" d="M720.564,-190.475C739.859,-180.578 771.903,-164.142 794.375,-152.615"/>
<polygon fill="midnightblue" stroke="midnightblue" points="796.054,-155.687 803.355,-148.009 792.859,-149.459 796.054,-155.687"/>
</g>
<!-- Node23 -->
<g id="node24" class="node"><title>Node23</title>
<polygon fill="white" stroke="#bfbfbf" points="1453.94,-129 1453.94,-148 1495.94,-148 1495.94,-129 1453.94,-129"/>
<text text-anchor="middle" x="1474.94" y="-136" font-family="Helvetica,sans-Serif" font-size="10.00">vector</text>
</g>
<!-- Node19&#45;&gt;Node23 -->
<g id="edge36" class="edge"><title>Node19&#45;&gt;Node23</title>
<path fill="none" stroke="midnightblue" d="M745.982,-198.583C882.357,-196.898 1311.36,-188.885 1444.94,-154 1446.87,-153.496 1448.83,-152.864 1450.77,-152.148"/>
<polygon fill="midnightblue" stroke="midnightblue" points="1452.35,-155.276 1460.12,-148.072 1449.56,-148.859 1452.35,-155.276"/>
</g>
<!-- Node24 -->
<g id="node25" class="node"><title>Node24</title>
<polygon fill="white" stroke="#bfbfbf" points="861.944,-129 861.944,-148 913.944,-148 913.944,-129 861.944,-129"/>
<text text-anchor="middle" x="887.944" y="-136" font-family="Helvetica,sans-Serif" font-size="10.00">assert.h</text>
</g>
<!-- Node19&#45;&gt;Node24 -->
<g id="edge39" class="edge"><title>Node19&#45;&gt;Node24</title>
<path fill="none" stroke="midnightblue" d="M734.812,-190.469C764.93,-181.946 811.927,-168.112 851.944,-154 853.85,-153.328 855.804,-152.614 857.768,-151.877"/>
<polygon fill="midnightblue" stroke="midnightblue" points="859.448,-154.98 867.502,-148.095 856.913,-148.455 859.448,-154.98"/>
</g>
<!-- Node25 -->
<g id="node26" class="node"><title>Node25</title>
<polygon fill="white" stroke="#bfbfbf" points="931.944,-129 931.944,-148 981.944,-148 981.944,-129 931.944,-129"/>
<text text-anchor="middle" x="956.944" y="-136" font-family="Helvetica,sans-Serif" font-size="10.00">iomanip</text>
</g>
<!-- Node19&#45;&gt;Node25 -->
<g id="edge41" class="edge"><title>Node19&#45;&gt;Node25</title>
<path fill="none" stroke="midnightblue" d="M746.153,-192.905C790.726,-185.875 862.74,-172.814 922.944,-154 925.084,-153.331 927.273,-152.575 929.458,-151.768"/>
<polygon fill="midnightblue" stroke="midnightblue" points="930.86,-154.976 938.845,-148.013 928.261,-148.477 930.86,-154.976"/>
</g>
<!-- Node26 -->
<g id="node27" class="node"><title>Node26</title>
<polygon fill="white" stroke="#bfbfbf" points="1000.44,-129 1000.44,-148 1049.44,-148 1049.44,-129 1000.44,-129"/>
<text text-anchor="middle" x="1024.94" y="-136" font-family="Helvetica,sans-Serif" font-size="10.00">fstream</text>
</g>
<!-- Node19&#45;&gt;Node26 -->
<g id="edge43" class="edge"><title>Node19&#45;&gt;Node26</title>
<path fill="none" stroke="midnightblue" d="M745.993,-195.689C802.552,-190.496 905.861,-178.404 990.944,-154 993.234,-153.343 995.575,-152.572 997.903,-151.733"/>
<polygon fill="midnightblue" stroke="midnightblue" points="999.243,-154.967 1007.25,-148.026 996.662,-148.461 999.243,-154.967"/>
</g>
<!-- Node27 -->
<g id="node28" class="node"><title>Node27</title>
<polygon fill="white" stroke="#bfbfbf" points="1067.94,-129 1067.94,-148 1171.94,-148 1171.94,-129 1067.94,-129"/>
<text text-anchor="middle" x="1119.94" y="-136" font-family="Helvetica,sans-Serif" font-size="10.00">common/variant.hpp</text>
</g>
<!-- Node19&#45;&gt;Node27 -->
<g id="edge45" class="edge"><title>Node19&#45;&gt;Node27</title>
<path fill="none" stroke="midnightblue" d="M745.974,-195.147C812.651,-188.703 946.628,-174.407 1058.94,-154 1064.78,-152.94 1070.89,-151.676 1076.89,-150.341"/>
<polygon fill="midnightblue" stroke="midnightblue" points="1077.88,-153.706 1086.84,-148.052 1076.31,-146.884 1077.88,-153.706"/>
</g>
<!-- Node19&#45;&gt;Node28 -->
<g id="edge46" class="edge"><title>Node19&#45;&gt;Node28</title>
<path fill="none" stroke="midnightblue" d="M746.068,-196.589C833.527,-191.296 1041.06,-177.245 1213.94,-154 1215.2,-153.831 1216.47,-153.655 1217.75,-153.475"/>
<polygon fill="midnightblue" stroke="midnightblue" points="1218.29,-156.933 1227.66,-151.994 1217.26,-150.01 1218.29,-156.933"/>
</g>
<!-- Node30 -->
<g id="node31" class="node"><title>Node30</title>
<g id="a_node31"><a xlink:href="_vector3_8hpp.html" target="_top" xlink:title="Math/Vector3.hpp">
<polygon fill="white" stroke="black" points="543.944,-129 543.944,-148 637.944,-148 637.944,-129 543.944,-129"/>
<text text-anchor="middle" x="590.944" y="-136" font-family="Helvetica,sans-Serif" font-size="10.00">Math/Vector3.hpp</text>
</a>
</g>
</g>
<!-- Node19&#45;&gt;Node30 -->
<g id="edge52" class="edge"><title>Node19&#45;&gt;Node30</title>
<path fill="none" stroke="midnightblue" d="M687.754,-190.475C669.041,-180.622 638.021,-164.288 616.145,-152.77"/>
<polygon fill="midnightblue" stroke="midnightblue" points="617.583,-149.571 607.104,-148.009 614.321,-155.765 617.583,-149.571"/>
</g>
<!-- Node28&#45;&gt;Node6 -->
<g id="edge48" class="edge"><title>Node28&#45;&gt;Node6</title>
<path fill="none" stroke="midnightblue" d="M1227.7,-128.26C1212.37,-126.327 1196.11,-124.441 1180.94,-123 881.571,-94.5485 518.74,-78.574 403.171,-73.9343"/>
<polygon fill="midnightblue" stroke="midnightblue" points="403.211,-70.4332 393.08,-73.5329 402.933,-77.4277 403.211,-70.4332"/>
</g>
<!-- Node28&#45;&gt;Node10 -->
<g id="edge47" class="edge"><title>Node28&#45;&gt;Node10</title>
<path fill="none" stroke="midnightblue" d="M1227.65,-125.123C1223.02,-124.369 1218.41,-123.653 1213.94,-123 1081.71,-103.685 926.857,-87.9179 836.451,-79.3961"/>
<polygon fill="midnightblue" stroke="midnightblue" points="836.574,-75.8923 826.291,-78.4433 835.92,-82.8618 836.574,-75.8923"/>
</g>
<!-- Node28&#45;&gt;Node21 -->
<g id="edge50" class="edge"><title>Node28&#45;&gt;Node21</title>
<path fill="none" stroke="midnightblue" d="M1241.08,-123.476C1193.1,-110.746 1123.78,-92.3533 1082.84,-81.4926"/>
<polygon fill="midnightblue" stroke="midnightblue" points="1083.64,-78.0832 1073.07,-78.9017 1081.84,-84.8491 1083.64,-78.0832"/>
</g>
<!-- Node29 -->
<g id="node30" class="node"><title>Node29</title>
<polygon fill="white" stroke="#bfbfbf" points="1270.94,-62 1270.94,-81 1316.94,-81 1316.94,-62 1270.94,-62"/>
<text text-anchor="middle" x="1293.94" y="-69" font-family="Helvetica,sans-Serif" font-size="10.00">stdio.h</text>
</g>
<!-- Node28&#45;&gt;Node29 -->
<g id="edge49" class="edge"><title>Node28&#45;&gt;Node29</title>
<path fill="none" stroke="midnightblue" d="M1293.94,-123.396C1293.94,-114.064 1293.94,-101.714 1293.94,-91.5173"/>
<polygon fill="midnightblue" stroke="midnightblue" points="1297.44,-91.1945 1293.94,-81.1945 1290.44,-91.1946 1297.44,-91.1945"/>
</g>
<!-- Node31&#45;&gt;Node2 -->
<g id="edge57" class="edge"><title>Node31&#45;&gt;Node2</title>
<path fill="none" stroke="midnightblue" d="M449.524,-302.444C371.858,-291.26 238.031,-271.989 172.443,-262.544"/>
<polygon fill="midnightblue" stroke="midnightblue" points="172.542,-259.022 162.145,-261.061 171.544,-265.951 172.542,-259.022"/>
</g>
<!-- Node31&#45;&gt;Node5 -->
<g id="edge56" class="edge"><title>Node31&#45;&gt;Node5</title>
<path fill="none" stroke="midnightblue" d="M449.692,-302.482C371.372,-287.693 236.27,-249.137 175.944,-154 134.913,-89.2932 258.968,-39.6252 318.72,-20.0667"/>
<polygon fill="midnightblue" stroke="midnightblue" points="319.938,-23.3521 328.401,-16.9774 317.81,-16.6834 319.938,-23.3521"/>
</g>
<!-- Node31&#45;&gt;Node15 -->
<g id="edge58" class="edge"><title>Node31&#45;&gt;Node15</title>
<path fill="none" stroke="midnightblue" d="M500.705,-302.368C483.147,-283.974 441.812,-240.671 419.266,-217.052"/>
<polygon fill="midnightblue" stroke="midnightblue" points="421.581,-214.408 412.145,-209.591 416.518,-219.242 421.581,-214.408"/>
</g>
<!-- Node31&#45;&gt;Node17 -->
<g id="edge59" class="edge"><title>Node31&#45;&gt;Node17</title>
<path fill="none" stroke="midnightblue" d="M539.842,-302.444C573.217,-293.201 626.538,-278.436 663.293,-268.257"/>
<polygon fill="midnightblue" stroke="midnightblue" points="664.487,-271.558 673.19,-265.516 662.619,-264.812 664.487,-271.558"/>
</g>
<!-- Node31&#45;&gt;Node19 -->
<g id="edge60" class="edge"><title>Node31&#45;&gt;Node19</title>
<path fill="none" stroke="midnightblue" d="M521.974,-302.401C541.6,-289.573 580.057,-264.909 613.944,-246 634.409,-234.58 658.141,-222.771 676.096,-214.117"/>
<polygon fill="midnightblue" stroke="midnightblue" points="677.909,-217.13 685.419,-209.656 674.887,-210.815 677.909,-217.13"/>
</g>
<!-- Node32&#45;&gt;Node5 -->
<g id="edge63" class="edge"><title>Node32&#45;&gt;Node5</title>
<path fill="none" stroke="midnightblue" d="M1483.39,-190.4C1496.84,-175.629 1520.14,-144.915 1504.94,-123 1456.54,-53.1956 1409.16,-73.0503 1325.94,-56 1278.53,-46.2862 540.533,-18.1779 379.726,-12.1478"/>
<polygon fill="midnightblue" stroke="midnightblue" points="379.695,-8.64424 369.571,-11.7676 379.433,-15.6393 379.695,-8.64424"/>
</g>
<!-- Node32&#45;&gt;Node23 -->
<g id="edge62" class="edge"><title>Node32&#45;&gt;Node23</title>
<path fill="none" stroke="midnightblue" d="M1474.94,-190.475C1474.94,-182.08 1474.94,-168.981 1474.94,-158.163"/>
<polygon fill="midnightblue" stroke="midnightblue" points="1478.44,-158.009 1474.94,-148.009 1471.44,-158.009 1478.44,-158.009"/>
</g>
</g>
</svg>
