<?xml version="1.0" encoding="UTF-8" standalone="no"?>
<!DOCTYPE svg PUBLIC "-//W3C//DTD SVG 1.1//EN"
 "http://www.w3.org/Graphics/SVG/1.1/DTD/svg11.dtd">
<!-- Generated by graphviz version 2.38.0 (20140413.2041)
 -->
<!-- Title: NFISceneProcessModule.h Pages: 1 -->
<svg width="704pt" height="140pt"
 viewBox="0.00 0.00 703.50 140.00" xmlns="http://www.w3.org/2000/svg" xmlns:xlink="http://www.w3.org/1999/xlink">
<g id="graph0" class="graph" transform="scale(1 1) rotate(0) translate(4 136)">
<title>NFISceneProcessModule.h</title>
<polygon fill="white" stroke="none" points="-4,4 -4,-136 699.5,-136 699.5,4 -4,4"/>
<!-- Node33 -->
<g id="node1" class="node"><title>Node33</title>
<polygon fill="#bfbfbf" stroke="black" points="316,-112.5 316,-131.5 451,-131.5 451,-112.5 316,-112.5"/>
<text text-anchor="middle" x="383.5" y="-119.5" font-family="Helvetica,sans-Serif" font-size="10.00">NFISceneProcessModule.h</text>
</g>
<!-- Node34 -->
<g id="node2" class="node"><title>Node34</title>
<g id="a_node2"><a xlink:href="_n_f_c_game_server_net___server_module_8h.html" target="_top" xlink:title="NFCGameServerNet_ServerModule.h">
<polygon fill="white" stroke="black" points="205.5,-56.5 205.5,-75.5 381.5,-75.5 381.5,-56.5 205.5,-56.5"/>
<text text-anchor="middle" x="293.5" y="-63.5" font-family="Helvetica,sans-Serif" font-size="10.00">NFCGameServerNet_ServerModule.h</text>
</a>
</g>
</g>
<!-- Node33&#45;&gt;Node34 -->
<g id="edge1" class="edge"><title>Node33&#45;&gt;Node34</title>
<path fill="none" stroke="midnightblue" d="M360.462,-107.177C343.901,-97.2407 322.082,-84.1492 307.924,-75.6545"/>
<polygon fill="midnightblue" stroke="midnightblue" points="358.664,-110.18 369.04,-112.324 362.266,-104.178 358.664,-110.18"/>
</g>
<!-- Node37 -->
<g id="node5" class="node"><title>Node37</title>
<g id="a_node5"><a xlink:href="_n_f_c_scene_process_module_8h.html" target="_top" xlink:title="NFCSceneProcessModule.h">
<polygon fill="white" stroke="black" points="404.5,-56.5 404.5,-75.5 544.5,-75.5 544.5,-56.5 404.5,-56.5"/>
<text text-anchor="middle" x="474.5" y="-63.5" font-family="Helvetica,sans-Serif" font-size="10.00">NFCSceneProcessModule.h</text>
</a>
</g>
</g>
<!-- Node33&#45;&gt;Node37 -->
<g id="edge4" class="edge"><title>Node33&#45;&gt;Node37</title>
<path fill="none" stroke="midnightblue" d="M406.794,-107.177C423.539,-97.2407 445.6,-84.1492 459.916,-75.6545"/>
<polygon fill="midnightblue" stroke="midnightblue" points="404.934,-104.211 398.121,-112.324 408.507,-110.231 404.934,-104.211"/>
</g>
<!-- Node35 -->
<g id="node3" class="node"><title>Node35</title>
<g id="a_node3"><a xlink:href="_n_f_c_game_server_net___server_module_8cpp.html" target="_top" xlink:title="NFCGameServerNet_ServerModule.cpp">
<polygon fill="white" stroke="black" points="0,-0.5 0,-19.5 187,-19.5 187,-0.5 0,-0.5"/>
<text text-anchor="middle" x="93.5" y="-7.5" font-family="Helvetica,sans-Serif" font-size="10.00">NFCGameServerNet_ServerModule.cpp</text>
</a>
</g>
</g>
<!-- Node34&#45;&gt;Node35 -->
<g id="edge2" class="edge"><title>Node34&#45;&gt;Node35</title>
<path fill="none" stroke="midnightblue" d="M252.126,-53.8291C214.364,-43.6333 159.36,-28.7823 125.042,-19.5164"/>
<polygon fill="midnightblue" stroke="midnightblue" points="251.243,-57.2158 261.809,-56.4435 253.067,-50.4578 251.243,-57.2158"/>
</g>
<!-- Node36 -->
<g id="node4" class="node"><title>Node36</title>
<g id="a_node4"><a xlink:href="_n_f_game_server_net___server_plugin_8cpp.html" target="_top" xlink:title="NFGameServerNet_ServerPlugin.cpp">
<polygon fill="white" stroke="black" points="205.5,-0.5 205.5,-19.5 381.5,-19.5 381.5,-0.5 205.5,-0.5"/>
<text text-anchor="middle" x="293.5" y="-7.5" font-family="Helvetica,sans-Serif" font-size="10.00">NFGameServerNet_ServerPlugin.cpp</text>
</a>
</g>
</g>
<!-- Node34&#45;&gt;Node36 -->
<g id="edge3" class="edge"><title>Node34&#45;&gt;Node36</title>
<path fill="none" stroke="midnightblue" d="M293.5,-45.8045C293.5,-36.9102 293.5,-26.7798 293.5,-19.7511"/>
<polygon fill="midnightblue" stroke="midnightblue" points="290,-46.083 293.5,-56.083 297,-46.083 290,-46.083"/>
</g>
<!-- Node38 -->
<g id="node6" class="node"><title>Node38</title>
<g id="a_node6"><a xlink:href="_n_f_c_scene_process_module_8cpp.html" target="_top" xlink:title="NFCSceneProcessModule.cpp">
<polygon fill="white" stroke="black" points="399.5,-0.5 399.5,-19.5 549.5,-19.5 549.5,-0.5 399.5,-0.5"/>
<text text-anchor="middle" x="474.5" y="-7.5" font-family="Helvetica,sans-Serif" font-size="10.00">NFCSceneProcessModule.cpp</text>
</a>
</g>
</g>
<!-- Node37&#45;&gt;Node38 -->
<g id="edge5" class="edge"><title>Node37&#45;&gt;Node38</title>
<path fill="none" stroke="midnightblue" d="M474.5,-45.8045C474.5,-36.9102 474.5,-26.7798 474.5,-19.7511"/>
<polygon fill="midnightblue" stroke="midnightblue" points="471,-46.083 474.5,-56.083 478,-46.083 471,-46.083"/>
</g>
<!-- Node39 -->
<g id="node7" class="node"><title>Node39</title>
<g id="a_node7"><a xlink:href="_n_f_game_server_plugin_8cpp.html" target="_top" xlink:title="NFGameServerPlugin.cpp">
<polygon fill="white" stroke="black" points="567.5,-0.5 567.5,-19.5 695.5,-19.5 695.5,-0.5 567.5,-0.5"/>
<text text-anchor="middle" x="631.5" y="-7.5" font-family="Helvetica,sans-Serif" font-size="10.00">NFGameServerPlugin.cpp</text>
</a>
</g>
</g>
<!-- Node37&#45;&gt;Node39 -->
<g id="edge6" class="edge"><title>Node37&#45;&gt;Node39</title>
<path fill="none" stroke="midnightblue" d="M508.889,-53.172C538.452,-43.0039 580.373,-28.5852 606.739,-19.5164"/>
<polygon fill="midnightblue" stroke="midnightblue" points="507.695,-49.8813 499.377,-56.4435 509.972,-56.5007 507.695,-49.8813"/>
</g>
</g>
</svg>
