<?xml version="1.0" encoding="UTF-8" standalone="no"?>
<!DOCTYPE svg PUBLIC "-//W3C//DTD SVG 1.1//EN"
 "http://www.w3.org/Graphics/SVG/1.1/DTD/svg11.dtd">
<!-- Generated by graphviz version 2.38.0 (20140413.2041)
 -->
<!-- Title: NFIProxyLogicModule.h Pages: 1 -->
<!--zoomable 453 -->
<svg id="main" version="1.1" xmlns="http://www.w3.org/2000/svg" xmlns:xlink="http://www.w3.org/1999/xlink" xml:space="preserve" onload="init(evt)">
<style type="text/css"><![CDATA[
.edge:hover path { stroke: red; }
.edge:hover polygon { stroke: red; fill: red; }
]]></style>
<script type="text/javascript"><![CDATA[
var edges = document.getElementsByTagName('g');
if (edges && edges.length) {
  for (var i=0;i<edges.length;i++) {
    if (edges[i].id.substr(0,4)=='edge') {
      edges[i].setAttribute('class','edge');
    }
  }
}
]]></script>
        <defs>
                <circle id="rim" cx="0" cy="0" r="7"/>
                <circle id="rim2" cx="0" cy="0" r="3.5"/>
                <g id="zoomPlus">
                        <use xlink:href="#rim" fill="#404040">
                                <set attributeName="fill" to="#808080" begin="zoomplus.mouseover" end="zoomplus.mouseout"/>
                        </use>
                        <path d="M-4,0h8M0,-4v8" fill="none" stroke="white" stroke-width="1.5" pointer-events="none"/>
                </g>
                <g id="zoomMin">
                        <use xlink:href="#rim" fill="#404040">
                                <set attributeName="fill" to="#808080" begin="zoomminus.mouseover" end="zoomminus.mouseout"/>
                        </use>
                        <path d="M-4,0h8" fill="none" stroke="white" stroke-width="1.5" pointer-events="none"/>
                </g>
                <g id="dirArrow">
                        <path fill="none" stroke="white" stroke-width="1.5" d="M0,-3.0v7 M-2.5,-0.5L0,-3.0L2.5,-0.5"/>
                </g>
               <g id="resetDef">
                       <use xlink:href="#rim2" fill="#404040">
                               <set attributeName="fill" to="#808080" begin="reset.mouseover" end="reset.mouseout"/>
                       </use>
               </g>
        </defs>

<script type="text/javascript">
var viewWidth = 1622;
var viewHeight = 453;
var sectionId = 'dynsection-0';
</script>
<script xlink:href="svgpan.js"/>
<svg id="graph" class="graph">
<g id="viewport">
<title>NFIProxyLogicModule.h</title>
<polygon fill="white" stroke="none" points="-4,4 -4,-449 1617.5,-449 1617.5,4 -4,4"/>
<!-- Node0 -->
<g id="node1" class="node"><title>Node0</title>
<polygon fill="#bfbfbf" stroke="black" points="573.5,-425.5 573.5,-444.5 693.5,-444.5 693.5,-425.5 573.5,-425.5"/>
<text text-anchor="middle" x="633.5" y="-432.5" font-family="Helvetica,sans-Serif" font-size="10.00">NFIProxyLogicModule.h</text>
</g>
<!-- Node1 -->
<g id="node2" class="node"><title>Node1</title>
<g id="a_node2"><a xlink:href="_n_f_i_module_8h.html" target="_top" xlink:title="NFIModule.h">
<polygon fill="white" stroke="black" points="598,-369.5 598,-388.5 669,-388.5 669,-369.5 598,-369.5"/>
<text text-anchor="middle" x="633.5" y="-376.5" font-family="Helvetica,sans-Serif" font-size="10.00">NFIModule.h</text>
</a>
</g>
</g>
<!-- Node0&#45;&gt;Node1 -->
<g id="edge1" class="edge"><title>Node0&#45;&gt;Node1</title>
<path fill="none" stroke="midnightblue" d="M633.5,-425.083C633.5,-418.006 633.5,-407.861 633.5,-398.986"/>
<polygon fill="midnightblue" stroke="midnightblue" points="637,-398.751 633.5,-388.751 630,-398.751 637,-398.751"/>
</g>
<!-- Node2 -->
<g id="node3" class="node"><title>Node2</title>
<polygon fill="white" stroke="#bfbfbf" points="574,-0.5 574,-19.5 615,-19.5 615,-0.5 574,-0.5"/>
<text text-anchor="middle" x="594.5" y="-7.5" font-family="Helvetica,sans-Serif" font-size="10.00">string</text>
</g>
<!-- Node1&#45;&gt;Node2 -->
<g id="edge2" class="edge"><title>Node1&#45;&gt;Node2</title>
<path fill="none" stroke="midnightblue" d="M633.5,-369.491C633.5,-349.736 633.5,-299.224 633.5,-257 633.5,-257 633.5,-257 633.5,-137.5 633.5,-97.2611 615.257,-52.8904 603.725,-28.8626"/>
<polygon fill="midnightblue" stroke="midnightblue" points="606.712,-27.0087 599.127,-19.6114 600.443,-30.1241 606.712,-27.0087"/>
</g>
<!-- Node3 -->
<g id="node4" class="node"><title>Node3</title>
<g id="a_node4"><a xlink:href="_n_f_map_8h.html" target="_top" xlink:title="NFComm/NFCore/NFMap.h">
<polygon fill="white" stroke="black" points="151,-246.5 151,-265.5 288,-265.5 288,-246.5 151,-246.5"/>
<text text-anchor="middle" x="219.5" y="-253.5" font-family="Helvetica,sans-Serif" font-size="10.00">NFComm/NFCore/NFMap.h</text>
</a>
</g>
</g>
<!-- Node1&#45;&gt;Node3 -->
<g id="edge3" class="edge"><title>Node1&#45;&gt;Node3</title>
<path fill="none" stroke="midnightblue" d="M604.388,-369.492C531.506,-348.19 341.135,-292.55 258.604,-268.429"/>
<polygon fill="midnightblue" stroke="midnightblue" points="259.436,-265.026 248.856,-265.58 257.473,-271.745 259.436,-265.026"/>
</g>
<!-- Node15 -->
<g id="node16" class="node"><title>Node15</title>
<g id="a_node16"><a xlink:href="_n_f_list_8h.html" target="_top" xlink:title="NFComm/NFCore/NFList.h">
<polygon fill="white" stroke="black" points="397.5,-190.5 397.5,-209.5 531.5,-209.5 531.5,-190.5 397.5,-190.5"/>
<text text-anchor="middle" x="464.5" y="-197.5" font-family="Helvetica,sans-Serif" font-size="10.00">NFComm/NFCore/NFList.h</text>
</a>
</g>
</g>
<!-- Node1&#45;&gt;Node15 -->
<g id="edge22" class="edge"><title>Node1&#45;&gt;Node15</title>
<path fill="none" stroke="midnightblue" d="M625.349,-369.463C598.868,-341.729 514.958,-253.846 480.011,-217.245"/>
<polygon fill="midnightblue" stroke="midnightblue" points="482.405,-214.684 472.968,-209.868 477.342,-219.518 482.405,-214.684"/>
</g>
<!-- Node17 -->
<g id="node18" class="node"><title>Node17</title>
<g id="a_node18"><a xlink:href="_n_f_define_8h.html" target="_top" xlink:title="NFComm/NFCore/NFDefine.h">
<polygon fill="white" stroke="black" points="821,-246.5 821,-265.5 966,-265.5 966,-246.5 821,-246.5"/>
<text text-anchor="middle" x="893.5" y="-253.5" font-family="Helvetica,sans-Serif" font-size="10.00">NFComm/NFCore/NFDefine.h</text>
</a>
</g>
</g>
<!-- Node1&#45;&gt;Node17 -->
<g id="edge28" class="edge"><title>Node1&#45;&gt;Node17</title>
<path fill="none" stroke="midnightblue" d="M669.313,-375.966C729.051,-371.838 845.368,-360.424 874.5,-333 890.097,-318.317 893.694,-292.934 894.153,-275.575"/>
<polygon fill="midnightblue" stroke="midnightblue" points="897.653,-275.499 894.096,-265.519 890.653,-275.539 897.653,-275.499"/>
</g>
<!-- Node19 -->
<g id="node20" class="node"><title>Node19</title>
<g id="a_node20"><a xlink:href="_a_f_data_list_8hpp.html" target="_top" xlink:title="AFDataList.hpp">
<polygon fill="white" stroke="black" points="786.5,-190.5 786.5,-209.5 870.5,-209.5 870.5,-190.5 786.5,-190.5"/>
<text text-anchor="middle" x="828.5" y="-197.5" font-family="Helvetica,sans-Serif" font-size="10.00">AFDataList.hpp</text>
</a>
</g>
</g>
<!-- Node1&#45;&gt;Node19 -->
<g id="edge55" class="edge"><title>Node1&#45;&gt;Node19</title>
<path fill="none" stroke="midnightblue" d="M641.018,-369.203C653.599,-354.659 679.96,-324.929 704.5,-302 739.526,-269.274 783.705,-234.753 808.762,-215.742"/>
<polygon fill="midnightblue" stroke="midnightblue" points="810.906,-218.509 816.781,-209.693 806.69,-212.921 810.906,-218.509"/>
</g>
<!-- Node31 -->
<g id="node32" class="node"><title>Node31</title>
<g id="a_node32"><a xlink:href="_n_f_i_record_8h.html" target="_top" xlink:title="NFComm/NFCore/NFIRecord.h">
<polygon fill="white" stroke="black" points="714,-308 714,-327 865,-327 865,-308 714,-308"/>
<text text-anchor="middle" x="789.5" y="-315" font-family="Helvetica,sans-Serif" font-size="10.00">NFComm/NFCore/NFIRecord.h</text>
</a>
</g>
</g>
<!-- Node1&#45;&gt;Node31 -->
<g id="edge56" class="edge"><title>Node1&#45;&gt;Node31</title>
<path fill="none" stroke="midnightblue" d="M655.851,-369.475C682.495,-359.313 727.214,-342.256 757.514,-330.7"/>
<polygon fill="midnightblue" stroke="midnightblue" points="759.094,-333.843 767.19,-327.009 756.6,-327.303 759.094,-333.843"/>
</g>
<!-- Node32 -->
<g id="node33" class="node"><title>Node32</title>
<g id="a_node33"><a xlink:href="_n_f_event_define_8h.html" target="_top" xlink:title="NFComm/NFEventDefine\l/NFEventDefine.h">
<polygon fill="white" stroke="black" points="0,-302.5 0,-332.5 125,-332.5 125,-302.5 0,-302.5"/>
<text text-anchor="start" x="8" y="-320.5" font-family="Helvetica,sans-Serif" font-size="10.00">NFComm/NFEventDefine</text>
<text text-anchor="middle" x="62.5" y="-309.5" font-family="Helvetica,sans-Serif" font-size="10.00">/NFEventDefine.h</text>
</a>
</g>
</g>
<!-- Node1&#45;&gt;Node32 -->
<g id="edge59" class="edge"><title>Node1&#45;&gt;Node32</title>
<path fill="none" stroke="midnightblue" d="M597.781,-374.278C505.759,-364.689 259.149,-338.991 135.415,-326.098"/>
<polygon fill="midnightblue" stroke="midnightblue" points="135.586,-322.597 125.277,-325.042 134.86,-329.559 135.586,-322.597"/>
</g>
<!-- Node3&#45;&gt;Node2 -->
<g id="edge6" class="edge"><title>Node3&#45;&gt;Node2</title>
<path fill="none" stroke="midnightblue" d="M165.523,-246.494C139.503,-240.1 109.293,-229.031 87.5,-210 56.9042,-183.282 36.5425,-156.51 59.5,-123 117.386,-38.5059 458.036,-16.8721 563.436,-12.1652"/>
<polygon fill="midnightblue" stroke="midnightblue" points="563.877,-15.6497 573.719,-11.727 563.579,-8.656 563.877,-15.6497"/>
</g>
<!-- Node4 -->
<g id="node5" class="node"><title>Node4</title>
<polygon fill="white" stroke="#bfbfbf" points="264,-129 264,-148 299,-148 299,-129 264,-129"/>
<text text-anchor="middle" x="281.5" y="-136" font-family="Helvetica,sans-Serif" font-size="10.00">map</text>
</g>
<!-- Node3&#45;&gt;Node4 -->
<g id="edge4" class="edge"><title>Node3&#45;&gt;Node4</title>
<path fill="none" stroke="midnightblue" d="M230.271,-246.488C240.069,-238.185 254.227,-224.687 262.5,-210 271.622,-193.806 276.527,-173.035 279.054,-158.242"/>
<polygon fill="midnightblue" stroke="midnightblue" points="282.527,-158.68 280.553,-148.271 275.605,-157.639 282.527,-158.68"/>
</g>
<!-- Node5 -->
<g id="node6" class="node"><title>Node5</title>
<polygon fill="white" stroke="#bfbfbf" points="388,-129 388,-148 417,-148 417,-129 388,-129"/>
<text text-anchor="middle" x="402.5" y="-136" font-family="Helvetica,sans-Serif" font-size="10.00">list</text>
</g>
<!-- Node3&#45;&gt;Node5 -->
<g id="edge5" class="edge"><title>Node3&#45;&gt;Node5</title>
<path fill="none" stroke="midnightblue" d="M233.255,-246.319C264.519,-226.586 341.185,-178.199 379.674,-153.907"/>
<polygon fill="midnightblue" stroke="midnightblue" points="381.997,-156.579 388.586,-148.282 378.261,-150.66 381.997,-156.579"/>
</g>
<!-- Node6 -->
<g id="node7" class="node"><title>Node6</title>
<polygon fill="white" stroke="#bfbfbf" points="303.5,-62 303.5,-81 357.5,-81 357.5,-62 303.5,-62"/>
<text text-anchor="middle" x="330.5" y="-69" font-family="Helvetica,sans-Serif" font-size="10.00">iostream</text>
</g>
<!-- Node3&#45;&gt;Node6 -->
<g id="edge7" class="edge"><title>Node3&#45;&gt;Node6</title>
<path fill="none" stroke="midnightblue" d="M195.216,-246.417C143.147,-226.737 28.8997,-175.962 72.5,-123 100.048,-89.5376 228.728,-77.9307 293.317,-74.1684"/>
<polygon fill="midnightblue" stroke="midnightblue" points="293.687,-77.6534 303.48,-73.6105 293.303,-70.664 293.687,-77.6534"/>
</g>
<!-- Node7 -->
<g id="node8" class="node"><title>Node7</title>
<polygon fill="white" stroke="#bfbfbf" points="81.5,-129 81.5,-148 131.5,-148 131.5,-129 81.5,-129"/>
<text text-anchor="middle" x="106.5" y="-136" font-family="Helvetica,sans-Serif" font-size="10.00">typeinfo</text>
</g>
<!-- Node3&#45;&gt;Node7 -->
<g id="edge8" class="edge"><title>Node3&#45;&gt;Node7</title>
<path fill="none" stroke="midnightblue" d="M211.007,-246.319C192.11,-227.004 146.355,-180.237 122.137,-155.483"/>
<polygon fill="midnightblue" stroke="midnightblue" points="124.587,-152.982 115.092,-148.282 119.583,-157.878 124.587,-152.982"/>
</g>
<!-- Node8 -->
<g id="node9" class="node"><title>Node8</title>
<g id="a_node9"><a xlink:href="_n_f_map_ex_8h.html" target="_top" xlink:title="NFMapEx.h">
<polygon fill="white" stroke="black" points="185.5,-190.5 185.5,-209.5 253.5,-209.5 253.5,-190.5 185.5,-190.5"/>
<text text-anchor="middle" x="219.5" y="-197.5" font-family="Helvetica,sans-Serif" font-size="10.00">NFMapEx.h</text>
</a>
</g>
</g>
<!-- Node3&#45;&gt;Node8 -->
<g id="edge9" class="edge"><title>Node3&#45;&gt;Node8</title>
<path fill="none" stroke="midnightblue" d="M219.5,-246.083C219.5,-239.006 219.5,-228.861 219.5,-219.986"/>
<polygon fill="midnightblue" stroke="midnightblue" points="223,-219.751 219.5,-209.751 216,-219.751 223,-219.751"/>
</g>
<!-- Node8&#45;&gt;Node2 -->
<g id="edge12" class="edge"><title>Node8&#45;&gt;Node2</title>
<path fill="none" stroke="midnightblue" d="M215.243,-190.056C208.871,-175.299 198.697,-145.271 209.5,-123 230.494,-79.7203 250.35,-75.0951 294.5,-56 386.494,-16.2122 507.507,-10.712 563.551,-10.5091"/>
<polygon fill="midnightblue" stroke="midnightblue" points="563.859,-14.0096 573.866,-10.5305 563.874,-7.00962 563.859,-14.0096"/>
</g>
<!-- Node8&#45;&gt;Node4 -->
<g id="edge10" class="edge"><title>Node8&#45;&gt;Node4</title>
<path fill="none" stroke="midnightblue" d="M228.383,-190.475C237.959,-181.285 253.411,-166.456 265.186,-155.156"/>
<polygon fill="midnightblue" stroke="midnightblue" points="267.842,-157.458 272.633,-148.009 262.995,-152.408 267.842,-157.458"/>
</g>
<!-- Node8&#45;&gt;Node5 -->
<g id="edge11" class="edge"><title>Node8&#45;&gt;Node5</title>
<path fill="none" stroke="midnightblue" d="M253.596,-192.133C286.422,-184.882 337.054,-171.996 378.5,-154 379.203,-153.695 379.911,-153.372 380.62,-153.035"/>
<polygon fill="midnightblue" stroke="midnightblue" points="382.521,-155.986 389.636,-148.135 379.178,-149.835 382.521,-155.986"/>
</g>
<!-- Node8&#45;&gt;Node6 -->
<g id="edge13" class="edge"><title>Node8&#45;&gt;Node6</title>
<path fill="none" stroke="midnightblue" d="M216.963,-190.151C213.179,-175.002 207.868,-143.734 221.5,-123 237.512,-98.647 268.523,-85.8333 293.387,-79.2177"/>
<polygon fill="midnightblue" stroke="midnightblue" points="294.366,-82.5818 303.258,-76.8222 292.715,-75.7792 294.366,-82.5818"/>
</g>
<!-- Node8&#45;&gt;Node7 -->
<g id="edge14" class="edge"><title>Node8&#45;&gt;Node7</title>
<path fill="none" stroke="midnightblue" d="M203.31,-190.475C184.598,-180.622 153.577,-164.288 131.701,-152.77"/>
<polygon fill="midnightblue" stroke="midnightblue" points="133.139,-149.571 122.66,-148.009 129.878,-155.765 133.139,-149.571"/>
</g>
<!-- Node9 -->
<g id="node10" class="node"><title>Node9</title>
<polygon fill="white" stroke="#bfbfbf" points="317.5,-129 317.5,-148 369.5,-148 369.5,-129 317.5,-129"/>
<text text-anchor="middle" x="343.5" y="-136" font-family="Helvetica,sans-Serif" font-size="10.00">memory</text>
</g>
<!-- Node8&#45;&gt;Node9 -->
<g id="edge15" class="edge"><title>Node8&#45;&gt;Node9</title>
<path fill="none" stroke="midnightblue" d="M237.266,-190.475C257.984,-180.534 292.452,-163.995 316.489,-152.461"/>
<polygon fill="midnightblue" stroke="midnightblue" points="318.265,-155.491 325.767,-148.009 315.237,-149.18 318.265,-155.491"/>
</g>
<!-- Node10 -->
<g id="node11" class="node"><title>Node10</title>
<g id="a_node11"><a xlink:href="_n_f_platform_8h.html" target="_top" xlink:title="NFComm/NFPluginModule\l/NFPlatform.h">
<polygon fill="white" stroke="black" points="738.5,-56.5 738.5,-86.5 870.5,-86.5 870.5,-56.5 738.5,-56.5"/>
<text text-anchor="start" x="746.5" y="-74.5" font-family="Helvetica,sans-Serif" font-size="10.00">NFComm/NFPluginModule</text>
<text text-anchor="middle" x="804.5" y="-63.5" font-family="Helvetica,sans-Serif" font-size="10.00">/NFPlatform.h</text>
</a>
</g>
</g>
<!-- Node8&#45;&gt;Node10 -->
<g id="edge16" class="edge"><title>Node8&#45;&gt;Node10</title>
<path fill="none" stroke="midnightblue" d="M220.699,-190.144C223.425,-173.8 231.726,-139.101 254.5,-123 292.287,-96.2856 585.834,-81.1447 727.928,-75.3133"/>
<polygon fill="midnightblue" stroke="midnightblue" points="728.455,-78.795 738.305,-74.893 728.171,-71.8007 728.455,-78.795"/>
</g>
<!-- Node10&#45;&gt;Node2 -->
<g id="edge21" class="edge"><title>Node10&#45;&gt;Node2</title>
<path fill="none" stroke="midnightblue" d="M753.611,-56.4849C719.78,-47.1076 674.123,-34.3385 625.009,-20.1102"/>
<polygon fill="midnightblue" stroke="midnightblue" points="625.722,-16.6728 615.142,-17.2457 623.77,-23.3952 625.722,-16.6728"/>
</g>
<!-- Node11 -->
<g id="node12" class="node"><title>Node11</title>
<polygon fill="white" stroke="#bfbfbf" points="780,-0.5 780,-19.5 829,-19.5 829,-0.5 780,-0.5"/>
<text text-anchor="middle" x="804.5" y="-7.5" font-family="Helvetica,sans-Serif" font-size="10.00">stdint.h</text>
</g>
<!-- Node10&#45;&gt;Node11 -->
<g id="edge17" class="edge"><title>Node10&#45;&gt;Node11</title>
<path fill="none" stroke="midnightblue" d="M804.5,-56.3993C804.5,-48.4664 804.5,-38.458 804.5,-29.8583"/>
<polygon fill="midnightblue" stroke="midnightblue" points="808,-29.6577 804.5,-19.6578 801,-29.6578 808,-29.6577"/>
</g>
<!-- Node12 -->
<g id="node13" class="node"><title>Node12</title>
<polygon fill="white" stroke="#bfbfbf" points="847.5,-0.5 847.5,-19.5 891.5,-19.5 891.5,-0.5 847.5,-0.5"/>
<text text-anchor="middle" x="869.5" y="-7.5" font-family="Helvetica,sans-Serif" font-size="10.00">time.h</text>
</g>
<!-- Node10&#45;&gt;Node12 -->
<g id="edge18" class="edge"><title>Node10&#45;&gt;Node12</title>
<path fill="none" stroke="midnightblue" d="M819.904,-56.3993C829.739,-47.3967 842.493,-35.7214 852.605,-26.4652"/>
<polygon fill="midnightblue" stroke="midnightblue" points="855.029,-28.9916 860.042,-19.6578 850.302,-23.8282 855.029,-28.9916"/>
</g>
<!-- Node13 -->
<g id="node14" class="node"><title>Node13</title>
<polygon fill="white" stroke="#bfbfbf" points="909.5,-0.5 909.5,-19.5 961.5,-19.5 961.5,-0.5 909.5,-0.5"/>
<text text-anchor="middle" x="935.5" y="-7.5" font-family="Helvetica,sans-Serif" font-size="10.00">sstream</text>
</g>
<!-- Node10&#45;&gt;Node13 -->
<g id="edge19" class="edge"><title>Node10&#45;&gt;Node13</title>
<path fill="none" stroke="midnightblue" d="M835.545,-56.3993C857.23,-46.55 885.959,-33.5014 907.051,-23.9217"/>
<polygon fill="midnightblue" stroke="midnightblue" points="908.781,-26.9799 916.438,-19.6578 905.886,-20.6065 908.781,-26.9799"/>
</g>
<!-- Node14 -->
<g id="node15" class="node"><title>Node14</title>
<polygon fill="white" stroke="#bfbfbf" points="633.5,-0.5 633.5,-19.5 761.5,-19.5 761.5,-0.5 633.5,-0.5"/>
<text text-anchor="middle" x="697.5" y="-7.5" font-family="Helvetica,sans-Serif" font-size="10.00">common/lexical_cast.hpp</text>
</g>
<!-- Node10&#45;&gt;Node14 -->
<g id="edge20" class="edge"><title>Node10&#45;&gt;Node14</title>
<path fill="none" stroke="midnightblue" d="M779.142,-56.3993C761.831,-46.7728 739.024,-34.0902 721.916,-24.5772"/>
<polygon fill="midnightblue" stroke="midnightblue" points="723.51,-21.4588 713.069,-19.6578 720.108,-27.5766 723.51,-21.4588"/>
</g>
<!-- Node15&#45;&gt;Node4 -->
<g id="edge24" class="edge"><title>Node15&#45;&gt;Node4</title>
<path fill="none" stroke="midnightblue" d="M426.552,-190.448C394.485,-182.659 347.657,-169.951 308.5,-154 307.465,-153.578 306.419,-153.129 305.369,-152.658"/>
<polygon fill="midnightblue" stroke="midnightblue" points="306.596,-149.36 296.081,-148.058 303.489,-155.632 306.596,-149.36"/>
</g>
<!-- Node15&#45;&gt;Node5 -->
<g id="edge25" class="edge"><title>Node15&#45;&gt;Node5</title>
<path fill="none" stroke="midnightblue" d="M455.617,-190.475C446.041,-181.285 430.589,-166.456 418.814,-155.156"/>
<polygon fill="midnightblue" stroke="midnightblue" points="421.005,-152.408 411.367,-148.009 416.158,-157.458 421.005,-152.408"/>
</g>
<!-- Node15&#45;&gt;Node6 -->
<g id="edge23" class="edge"><title>Node15&#45;&gt;Node6</title>
<path fill="none" stroke="midnightblue" d="M462.004,-190.452C457.182,-175.212 445.28,-143.068 425.5,-123 408.675,-105.93 384.848,-93.2841 365.266,-84.9164"/>
<polygon fill="midnightblue" stroke="midnightblue" points="366.34,-81.5747 355.759,-81.0409 363.698,-88.0568 366.34,-81.5747"/>
</g>
<!-- Node15&#45;&gt;Node10 -->
<g id="edge27" class="edge"><title>Node15&#45;&gt;Node10</title>
<path fill="none" stroke="midnightblue" d="M466.167,-190.281C469.736,-174.167 479.721,-139.833 502.5,-123 537.431,-97.1864 650.822,-83.751 728.273,-77.4092"/>
<polygon fill="midnightblue" stroke="midnightblue" points="728.786,-80.8795 738.477,-76.5974 728.231,-73.9015 728.786,-80.8795"/>
</g>
<!-- Node16 -->
<g id="node17" class="node"><title>Node16</title>
<polygon fill="white" stroke="#bfbfbf" points="511.5,-129 511.5,-148 567.5,-148 567.5,-129 511.5,-129"/>
<text text-anchor="middle" x="539.5" y="-136" font-family="Helvetica,sans-Serif" font-size="10.00">algorithm</text>
</g>
<!-- Node15&#45;&gt;Node16 -->
<g id="edge26" class="edge"><title>Node15&#45;&gt;Node16</title>
<path fill="none" stroke="midnightblue" d="M475.246,-190.475C487.053,-181.108 506.243,-165.884 520.582,-154.508"/>
<polygon fill="midnightblue" stroke="midnightblue" points="523.115,-156.966 528.774,-148.009 518.765,-151.482 523.115,-156.966"/>
</g>
<!-- Node18 -->
<g id="node19" class="node"><title>Node18</title>
<polygon fill="white" stroke="#bfbfbf" points="1555.5,-129 1555.5,-148 1613.5,-148 1613.5,-129 1555.5,-129"/>
<text text-anchor="middle" x="1584.5" y="-136" font-family="Helvetica,sans-Serif" font-size="10.00">functional</text>
</g>
<!-- Node17&#45;&gt;Node18 -->
<g id="edge29" class="edge"><title>Node17&#45;&gt;Node18</title>
<path fill="none" stroke="midnightblue" d="M960.622,-246.474C1076.9,-231.225 1323.06,-196.834 1528.5,-154 1533.97,-152.86 1539.7,-151.531 1545.33,-150.148"/>
<polygon fill="midnightblue" stroke="midnightblue" points="1546.44,-153.48 1555.27,-147.632 1544.72,-146.694 1546.44,-153.48"/>
</g>
<!-- Node17&#45;&gt;Node19 -->
<g id="edge30" class="edge"><title>Node17&#45;&gt;Node19</title>
<path fill="none" stroke="midnightblue" d="M883.057,-246.324C873.354,-238.263 858.685,-226.077 847,-216.369"/>
<polygon fill="midnightblue" stroke="midnightblue" points="849.062,-213.532 839.133,-209.834 844.589,-218.916 849.062,-213.532"/>
</g>
<!-- Node28 -->
<g id="node29" class="node"><title>Node28</title>
<g id="a_node29"><a xlink:href="_n_f_g_u_i_d_8h.html" target="_top" xlink:title="NFComm/NFPluginModule\l/NFGUID.h">
<polygon fill="white" stroke="black" points="1367.5,-123.5 1367.5,-153.5 1499.5,-153.5 1499.5,-123.5 1367.5,-123.5"/>
<text text-anchor="start" x="1375.5" y="-141.5" font-family="Helvetica,sans-Serif" font-size="10.00">NFComm/NFPluginModule</text>
<text text-anchor="middle" x="1433.5" y="-130.5" font-family="Helvetica,sans-Serif" font-size="10.00">/NFGUID.h</text>
</a>
</g>
</g>
<!-- Node17&#45;&gt;Node28 -->
<g id="edge54" class="edge"><title>Node17&#45;&gt;Node28</title>
<path fill="none" stroke="midnightblue" d="M933.647,-246.413C1023.42,-227.211 1241.63,-180.539 1357.8,-155.691"/>
<polygon fill="midnightblue" stroke="midnightblue" points="1358.65,-159.09 1367.69,-153.575 1357.18,-152.245 1358.65,-159.09"/>
</g>
<!-- Node19&#45;&gt;Node2 -->
<g id="edge31" class="edge"><title>Node19&#45;&gt;Node2</title>
<path fill="none" stroke="midnightblue" d="M786.232,-194.417C756.296,-189.168 716.922,-177.945 690.5,-154 655.256,-122.06 675.911,-94.1461 647.5,-56 638.825,-44.353 626.598,-33.7142 616.073,-25.7085"/>
<polygon fill="midnightblue" stroke="midnightblue" points="617.891,-22.7021 607.749,-19.6387 613.767,-28.3583 617.891,-22.7021"/>
</g>
<!-- Node19&#45;&gt;Node4 -->
<g id="edge38" class="edge"><title>Node19&#45;&gt;Node4</title>
<path fill="none" stroke="midnightblue" d="M786.195,-197.541C678.783,-193.486 397.73,-180.587 308.5,-154 307.034,-153.563 305.557,-153.042 304.089,-152.46"/>
<polygon fill="midnightblue" stroke="midnightblue" points="305.301,-149.16 294.769,-148.007 302.283,-155.476 305.301,-149.16"/>
</g>
<!-- Node19&#45;&gt;Node5 -->
<g id="edge36" class="edge"><title>Node19&#45;&gt;Node5</title>
<path fill="none" stroke="midnightblue" d="M786.287,-193.267C724.129,-184.803 604.326,-168.41 502.5,-154 476.734,-150.354 447.252,-146.064 427.011,-143.102"/>
<polygon fill="midnightblue" stroke="midnightblue" points="427.471,-139.632 417.069,-141.644 426.456,-146.558 427.471,-139.632"/>
</g>
<!-- Node19&#45;&gt;Node6 -->
<g id="edge33" class="edge"><title>Node19&#45;&gt;Node6</title>
<path fill="none" stroke="midnightblue" d="M791.475,-190.482C756.613,-182.174 703.086,-168.674 657.5,-154 620.808,-142.189 613.502,-133.8 576.5,-123 503.781,-101.774 416.452,-86.098 367.843,-78.2159"/>
<polygon fill="midnightblue" stroke="midnightblue" points="368.217,-74.7312 357.79,-76.6076 367.111,-81.6434 368.217,-74.7312"/>
</g>
<!-- Node19&#45;&gt;Node7 -->
<g id="edge41" class="edge"><title>Node19&#45;&gt;Node7</title>
<path fill="none" stroke="midnightblue" d="M786.349,-195.977C691.372,-189.104 453.395,-171.538 254.5,-154 215.851,-150.592 171.576,-146.188 141.6,-143.133"/>
<polygon fill="midnightblue" stroke="midnightblue" points="141.93,-139.648 131.626,-142.112 141.217,-146.612 141.93,-139.648"/>
</g>
<!-- Node19&#45;&gt;Node9 -->
<g id="edge45" class="edge"><title>Node19&#45;&gt;Node9</title>
<path fill="none" stroke="midnightblue" d="M786.23,-198.867C705.664,-197.72 525.083,-190.838 378.5,-154 375.988,-153.369 373.421,-152.589 370.875,-151.721"/>
<polygon fill="midnightblue" stroke="midnightblue" points="371.913,-148.37 361.322,-148.064 369.41,-154.907 371.913,-148.37"/>
</g>
<!-- Node19&#45;&gt;Node10 -->
<g id="edge52" class="edge"><title>Node19&#45;&gt;Node10</title>
<path fill="none" stroke="midnightblue" d="M870.678,-196.905C962.361,-191.92 1173.32,-177.946 1194.5,-154 1203.63,-143.68 1203.6,-133.349 1194.5,-123 1174.17,-99.8676 988.766,-84.257 881.076,-77.0564"/>
<polygon fill="midnightblue" stroke="midnightblue" points="881.113,-73.5514 870.905,-76.3859 880.653,-80.5362 881.113,-73.5514"/>
</g>
<!-- Node19&#45;&gt;Node16 -->
<g id="edge39" class="edge"><title>Node19&#45;&gt;Node16</title>
<path fill="none" stroke="midnightblue" d="M786.117,-193.285C736.573,-186.143 652.335,-172.565 581.5,-154 578.464,-153.204 575.332,-152.295 572.211,-151.329"/>
<polygon fill="midnightblue" stroke="midnightblue" points="573.006,-147.906 562.413,-148.116 570.825,-154.558 573.006,-147.906"/>
</g>
<!-- Node19&#45;&gt;Node18 -->
<g id="edge43" class="edge"><title>Node19&#45;&gt;Node18</title>
<path fill="none" stroke="midnightblue" d="M870.652,-197.789C1003.41,-193.746 1411.74,-179.513 1541.5,-154 1545.39,-153.235 1549.41,-152.211 1553.36,-151.059"/>
<polygon fill="midnightblue" stroke="midnightblue" points="1554.46,-154.382 1562.92,-148.006 1552.33,-147.713 1554.46,-154.382"/>
</g>
<!-- Node20 -->
<g id="node21" class="node"><title>Node20</title>
<polygon fill="white" stroke="#bfbfbf" points="1139.5,-129 1139.5,-148 1185.5,-148 1185.5,-129 1139.5,-129"/>
<text text-anchor="middle" x="1162.5" y="-136" font-family="Helvetica,sans-Serif" font-size="10.00">cstring</text>
</g>
<!-- Node19&#45;&gt;Node20 -->
<g id="edge32" class="edge"><title>Node19&#45;&gt;Node20</title>
<path fill="none" stroke="midnightblue" d="M870.566,-196.425C929.654,-191.983 1040.12,-180.644 1130.5,-154 1132.43,-153.431 1134.4,-152.767 1136.35,-152.044"/>
<polygon fill="midnightblue" stroke="midnightblue" points="1138.01,-155.147 1145.9,-148.077 1135.32,-148.683 1138.01,-155.147"/>
</g>
<!-- Node21 -->
<g id="node22" class="node"><title>Node21</title>
<polygon fill="white" stroke="#bfbfbf" points="1488.5,-62 1488.5,-81 1536.5,-81 1536.5,-62 1488.5,-62"/>
<text text-anchor="middle" x="1512.5" y="-69" font-family="Helvetica,sans-Serif" font-size="10.00">stdlib.h</text>
</g>
<!-- Node19&#45;&gt;Node21 -->
<g id="edge34" class="edge"><title>Node19&#45;&gt;Node21</title>
<path fill="none" stroke="midnightblue" d="M870.817,-199.39C1012.5,-200.27 1463.81,-199.454 1508.5,-154 1524.53,-137.694 1521.94,-109.549 1517.83,-90.9779"/>
<polygon fill="midnightblue" stroke="midnightblue" points="1521.17,-89.8989 1515.3,-81.077 1514.39,-91.6323 1521.17,-89.8989"/>
</g>
<!-- Node22 -->
<g id="node23" class="node"><title>Node22</title>
<polygon fill="white" stroke="#bfbfbf" points="1242,-129 1242,-148 1289,-148 1289,-129 1242,-129"/>
<text text-anchor="middle" x="1265.5" y="-136" font-family="Helvetica,sans-Serif" font-size="10.00">math.h</text>
</g>
<!-- Node19&#45;&gt;Node22 -->
<g id="edge35" class="edge"><title>Node19&#45;&gt;Node22</title>
<path fill="none" stroke="midnightblue" d="M870.752,-197.725C944.25,-194.737 1099.98,-184.992 1227.5,-154 1230.33,-153.312 1233.24,-152.469 1236.12,-151.54"/>
<polygon fill="midnightblue" stroke="midnightblue" points="1237.43,-154.787 1245.68,-148.142 1235.09,-148.19 1237.43,-154.787"/>
</g>
<!-- Node23 -->
<g id="node24" class="node"><title>Node23</title>
<polygon fill="white" stroke="#bfbfbf" points="1307.5,-129 1307.5,-148 1349.5,-148 1349.5,-129 1307.5,-129"/>
<text text-anchor="middle" x="1328.5" y="-136" font-family="Helvetica,sans-Serif" font-size="10.00">vector</text>
</g>
<!-- Node19&#45;&gt;Node23 -->
<g id="edge37" class="edge"><title>Node19&#45;&gt;Node23</title>
<path fill="none" stroke="midnightblue" d="M870.581,-199.898C953.919,-200.608 1145.16,-196.907 1298.5,-154 1300.38,-153.474 1302.29,-152.834 1304.18,-152.121"/>
<polygon fill="midnightblue" stroke="midnightblue" points="1305.58,-155.327 1313.34,-148.114 1302.78,-148.914 1305.58,-155.327"/>
</g>
<!-- Node24 -->
<g id="node25" class="node"><title>Node24</title>
<polygon fill="white" stroke="#bfbfbf" points="699.5,-129 699.5,-148 751.5,-148 751.5,-129 699.5,-129"/>
<text text-anchor="middle" x="725.5" y="-136" font-family="Helvetica,sans-Serif" font-size="10.00">assert.h</text>
</g>
<!-- Node19&#45;&gt;Node24 -->
<g id="edge40" class="edge"><title>Node19&#45;&gt;Node24</title>
<path fill="none" stroke="midnightblue" d="M813.743,-190.475C796.839,-180.711 768.917,-164.581 749.01,-153.081"/>
<polygon fill="midnightblue" stroke="midnightblue" points="750.64,-149.981 740.23,-148.009 747.138,-156.042 750.64,-149.981"/>
</g>
<!-- Node25 -->
<g id="node26" class="node"><title>Node25</title>
<polygon fill="white" stroke="#bfbfbf" points="769.5,-129 769.5,-148 819.5,-148 819.5,-129 769.5,-129"/>
<text text-anchor="middle" x="794.5" y="-136" font-family="Helvetica,sans-Serif" font-size="10.00">iomanip</text>
</g>
<!-- Node19&#45;&gt;Node25 -->
<g id="edge42" class="edge"><title>Node19&#45;&gt;Node25</title>
<path fill="none" stroke="midnightblue" d="M823.629,-190.475C818.63,-181.727 810.711,-167.869 804.391,-156.809"/>
<polygon fill="midnightblue" stroke="midnightblue" points="807.363,-154.955 799.362,-148.009 801.285,-158.428 807.363,-154.955"/>
</g>
<!-- Node26 -->
<g id="node27" class="node"><title>Node26</title>
<polygon fill="white" stroke="#bfbfbf" points="838,-129 838,-148 887,-148 887,-129 838,-129"/>
<text text-anchor="middle" x="862.5" y="-136" font-family="Helvetica,sans-Serif" font-size="10.00">fstream</text>
</g>
<!-- Node19&#45;&gt;Node26 -->
<g id="edge44" class="edge"><title>Node19&#45;&gt;Node26</title>
<path fill="none" stroke="midnightblue" d="M833.371,-190.475C838.37,-181.727 846.289,-167.869 852.609,-156.809"/>
<polygon fill="midnightblue" stroke="midnightblue" points="855.715,-158.428 857.638,-148.009 849.637,-154.955 855.715,-158.428"/>
</g>
<!-- Node27 -->
<g id="node28" class="node"><title>Node27</title>
<polygon fill="white" stroke="#bfbfbf" points="905.5,-129 905.5,-148 1009.5,-148 1009.5,-129 905.5,-129"/>
<text text-anchor="middle" x="957.5" y="-136" font-family="Helvetica,sans-Serif" font-size="10.00">common/variant.hpp</text>
</g>
<!-- Node19&#45;&gt;Node27 -->
<g id="edge46" class="edge"><title>Node19&#45;&gt;Node27</title>
<path fill="none" stroke="midnightblue" d="M846.983,-190.475C868.632,-180.49 904.713,-163.848 929.732,-152.307"/>
<polygon fill="midnightblue" stroke="midnightblue" points="931.437,-155.376 939.052,-148.009 928.505,-149.019 931.437,-155.376"/>
</g>
<!-- Node19&#45;&gt;Node28 -->
<g id="edge47" class="edge"><title>Node19&#45;&gt;Node28</title>
<path fill="none" stroke="midnightblue" d="M870.579,-196.95C958.907,-192.319 1170.25,-179.521 1357.29,-154.071"/>
<polygon fill="midnightblue" stroke="midnightblue" points="1357.88,-157.523 1367.31,-152.692 1356.93,-150.588 1357.88,-157.523"/>
</g>
<!-- Node30 -->
<g id="node31" class="node"><title>Node30</title>
<g id="a_node31"><a xlink:href="_vector3_8hpp.html" target="_top" xlink:title="Math/Vector3.hpp">
<polygon fill="white" stroke="black" points="1027.5,-129 1027.5,-148 1121.5,-148 1121.5,-129 1027.5,-129"/>
<text text-anchor="middle" x="1074.5" y="-136" font-family="Helvetica,sans-Serif" font-size="10.00">Math/Vector3.hpp</text>
</a>
</g>
</g>
<!-- Node19&#45;&gt;Node30 -->
<g id="edge53" class="edge"><title>Node19&#45;&gt;Node30</title>
<path fill="none" stroke="midnightblue" d="M865.69,-190.433C904.034,-181.543 965.526,-167.13 1018.5,-154 1022.9,-152.91 1027.48,-151.755 1032.05,-150.59"/>
<polygon fill="midnightblue" stroke="midnightblue" points="1033.14,-153.924 1041.96,-148.049 1031.4,-147.144 1033.14,-153.924"/>
</g>
<!-- Node28&#45;&gt;Node6 -->
<g id="edge49" class="edge"><title>Node28&#45;&gt;Node6</title>
<path fill="none" stroke="midnightblue" d="M1367.33,-124.179C1364.35,-123.746 1361.4,-123.349 1358.5,-123 1258.8,-110.975 541.546,-81.1299 368.159,-74.0323"/>
<polygon fill="midnightblue" stroke="midnightblue" points="368.129,-70.5282 357.994,-73.6167 367.843,-77.5224 368.129,-70.5282"/>
</g>
<!-- Node28&#45;&gt;Node10 -->
<g id="edge48" class="edge"><title>Node28&#45;&gt;Node10</title>
<path fill="none" stroke="midnightblue" d="M1367.31,-124.33C1364.33,-123.856 1361.39,-123.41 1358.5,-123 1188.75,-98.9155 988.022,-83.9497 880.908,-77.0375"/>
<polygon fill="midnightblue" stroke="midnightblue" points="881.042,-73.5389 870.839,-76.3936 880.595,-80.5247 881.042,-73.5389"/>
</g>
<!-- Node28&#45;&gt;Node21 -->
<g id="edge51" class="edge"><title>Node28&#45;&gt;Node21</title>
<path fill="none" stroke="midnightblue" d="M1450.64,-123.396C1463.45,-112.86 1480.93,-98.4771 1494.04,-87.6886"/>
<polygon fill="midnightblue" stroke="midnightblue" points="1496.43,-90.251 1501.93,-81.1945 1491.99,-84.8455 1496.43,-90.251"/>
</g>
<!-- Node29 -->
<g id="node30" class="node"><title>Node29</title>
<polygon fill="white" stroke="#bfbfbf" points="1410.5,-62 1410.5,-81 1456.5,-81 1456.5,-62 1410.5,-62"/>
<text text-anchor="middle" x="1433.5" y="-69" font-family="Helvetica,sans-Serif" font-size="10.00">stdio.h</text>
</g>
<!-- Node28&#45;&gt;Node29 -->
<g id="edge50" class="edge"><title>Node28&#45;&gt;Node29</title>
<path fill="none" stroke="midnightblue" d="M1433.5,-123.396C1433.5,-114.064 1433.5,-101.714 1433.5,-91.5173"/>
<polygon fill="midnightblue" stroke="midnightblue" points="1437,-91.1945 1433.5,-81.1945 1430,-91.1946 1437,-91.1945"/>
</g>
<!-- Node31&#45;&gt;Node17 -->
<g id="edge57" class="edge"><title>Node31&#45;&gt;Node17</title>
<path fill="none" stroke="midnightblue" d="M804.401,-307.975C821.468,-298.211 849.661,-282.081 869.762,-270.581"/>
<polygon fill="midnightblue" stroke="midnightblue" points="871.685,-273.513 878.627,-265.509 868.209,-267.437 871.685,-273.513"/>
</g>
<!-- Node31&#45;&gt;Node19 -->
<g id="edge58" class="edge"><title>Node31&#45;&gt;Node19</title>
<path fill="none" stroke="midnightblue" d="M792.26,-307.793C796.505,-294.455 804.941,-268.179 812.5,-246 815.513,-237.16 818.972,-227.387 821.902,-219.213"/>
<polygon fill="midnightblue" stroke="midnightblue" points="825.267,-220.198 825.365,-209.603 818.682,-217.824 825.267,-220.198"/>
</g>
<!-- Node32&#45;&gt;Node6 -->
<g id="edge60" class="edge"><title>Node32&#45;&gt;Node6</title>
<path fill="none" stroke="midnightblue" d="M56.7573,-302.317C43.6108,-267.291 15.6989,-175.717 59.5,-123 88.7493,-87.7967 225.569,-77.007 292.891,-73.8012"/>
<polygon fill="midnightblue" stroke="midnightblue" points="293.237,-77.2894 303.072,-73.3493 292.927,-70.2963 293.237,-77.2894"/>
</g>
</g>
</svg>
        <g id="navigator" transform="translate(0 0)" fill="#404254">
                <rect fill="#f2f5e9" fill-opacity="0.5" stroke="#606060" stroke-width=".5" x="0" y="0" width="60" height="60"/>
                <use id="zoomplus" xlink:href="#zoomPlus" x="17" y="9" onmousedown="handleZoom(evt,'in')"/>
                <use id="zoomminus" xlink:href="#zoomMin" x="42" y="9" onmousedown="handleZoom(evt,'out')"/>
                <use id="reset" xlink:href="#resetDef" x="30" y="36" onmousedown="handleReset()"/>
                <g id="arrowUp" xlink:href="#dirArrow" transform="translate(30 24)" onmousedown="handlePan(0,-1)">
                  <use xlink:href="#rim" fill="#404040">
                        <set attributeName="fill" to="#808080" begin="arrowUp.mouseover" end="arrowUp.mouseout"/>
                  </use>
                  <path fill="none" stroke="white" stroke-width="1.5" d="M0,-3.0v7 M-2.5,-0.5L0,-3.0L2.5,-0.5"/>
                </g>
                <g id="arrowRight" xlink:href="#dirArrow" transform="rotate(90) translate(36 -43)" onmousedown="handlePan(1,0)">
                  <use xlink:href="#rim" fill="#404040">
                        <set attributeName="fill" to="#808080" begin="arrowRight.mouseover" end="arrowRight.mouseout"/>
                  </use>
                  <path fill="none" stroke="white" stroke-width="1.5" d="M0,-3.0v7 M-2.5,-0.5L0,-3.0L2.5,-0.5"/>
                </g>
                <g id="arrowDown" xlink:href="#dirArrow" transform="rotate(180) translate(-30 -48)" onmousedown="handlePan(0,1)">
                  <use xlink:href="#rim" fill="#404040">
                        <set attributeName="fill" to="#808080" begin="arrowDown.mouseover" end="arrowDown.mouseout"/>
                  </use>
                  <path fill="none" stroke="white" stroke-width="1.5" d="M0,-3.0v7 M-2.5,-0.5L0,-3.0L2.5,-0.5"/>
                </g>
                <g id="arrowLeft" xlink:href="#dirArrow" transform="rotate(270) translate(-36 17)" onmousedown="handlePan(-1,0)">
                  <use xlink:href="#rim" fill="#404040">
                        <set attributeName="fill" to="#808080" begin="arrowLeft.mouseover" end="arrowLeft.mouseout"/>
                  </use>
                  <path fill="none" stroke="white" stroke-width="1.5" d="M0,-3.0v7 M-2.5,-0.5L0,-3.0L2.5,-0.5"/>
                </g>
        </g>
        <svg viewBox="0 0 15 15" width="100%" height="30px" preserveAspectRatio="xMaxYMin meet">
         <g id="arrow_out" transform="scale(0.3 0.3)">
          <a xlink:href="_n_f_i_proxy_logic_module_8h__incl_org.svg" target="_base">
           <rect id="button" ry="5" rx="5" y="6" x="6" height="38" width="38"
                fill="#f2f5e9" fill-opacity="0.5" stroke="#606060" stroke-width="1.0"/>
           <path id="arrow"
             d="M 11.500037,31.436501 C 11.940474,20.09759 22.043105,11.32322 32.158766,21.979434 L 37.068811,17.246167 C 37.068811,17.246167 37.088388,32 37.088388,32 L 22.160133,31.978069 C 22.160133,31.978069 26.997745,27.140456 26.997745,27.140456 C 18.528582,18.264221 13.291696,25.230495 11.500037,31.436501 z"
             style="fill:#404040;"/>
          </a>
         </g>
        </svg>
</svg>
