<?xml version="1.0" encoding="UTF-8" standalone="no"?>
<!DOCTYPE svg PUBLIC "-//W3C//DTD SVG 1.1//EN"
 "http://www.w3.org/Graphics/SVG/1.1/DTD/svg11.dtd">
<!-- Generated by graphviz version 2.38.0 (20140413.2041)
 -->
<!-- Title: NFIProxyServerToGameModule.h Pages: 1 -->
<svg width="917pt" height="162pt"
 viewBox="0.00 0.00 916.50 162.00" xmlns="http://www.w3.org/2000/svg" xmlns:xlink="http://www.w3.org/1999/xlink">
<g id="graph0" class="graph" transform="scale(1 1) rotate(0) translate(4 158)">
<title>NFIProxyServerToGameModule.h</title>
<polygon fill="white" stroke="none" points="-4,4 -4,-158 912.5,-158 912.5,4 -4,4"/>
<!-- Node58 -->
<g id="node1" class="node"><title>Node58</title>
<polygon fill="#bfbfbf" stroke="black" points="387.5,-134.5 387.5,-153.5 548.5,-153.5 548.5,-134.5 387.5,-134.5"/>
<text text-anchor="middle" x="468" y="-141.5" font-family="Helvetica,sans-Serif" font-size="10.00">NFIProxyServerToGameModule.h</text>
</g>
<!-- Node59 -->
<g id="node2" class="node"><title>Node59</title>
<g id="a_node2"><a xlink:href="_n_f_c_proxy_server_to_game_module_8h.html" target="_top" xlink:title="NFCProxyServerToGameModule.h">
<polygon fill="white" stroke="black" points="198.5,-73 198.5,-92 363.5,-92 363.5,-73 198.5,-73"/>
<text text-anchor="middle" x="281" y="-80" font-family="Helvetica,sans-Serif" font-size="10.00">NFCProxyServerToGameModule.h</text>
</a>
</g>
</g>
<!-- Node58&#45;&gt;Node59 -->
<g id="edge1" class="edge"><title>Node58&#45;&gt;Node59</title>
<path fill="none" stroke="midnightblue" d="M431.482,-131.381C395.134,-119.815 340.214,-102.341 307.743,-92.0091"/>
<polygon fill="midnightblue" stroke="midnightblue" points="430.617,-134.778 441.207,-134.475 432.739,-128.108 430.617,-134.778"/>
</g>
<!-- Node62 -->
<g id="node5" class="node"><title>Node62</title>
<g id="a_node5"><a xlink:href="_n_f_c_proxy_server_to_world_module_8h.html" target="_top" xlink:title="NFCProxyServerToWorldModule.h">
<polygon fill="white" stroke="black" points="386,-73 386,-92 550,-92 550,-73 386,-73"/>
<text text-anchor="middle" x="468" y="-80" font-family="Helvetica,sans-Serif" font-size="10.00">NFCProxyServerToWorldModule.h</text>
</a>
</g>
</g>
<!-- Node58&#45;&gt;Node62 -->
<g id="edge4" class="edge"><title>Node58&#45;&gt;Node62</title>
<path fill="none" stroke="midnightblue" d="M468,-124.317C468,-113.496 468,-100.398 468,-92.0091"/>
<polygon fill="midnightblue" stroke="midnightblue" points="464.5,-124.475 468,-134.475 471.5,-124.475 464.5,-124.475"/>
</g>
<!-- Node64 -->
<g id="node7" class="node"><title>Node64</title>
<g id="a_node7"><a xlink:href="_n_f_c_proxy_server_net___server_module_8h.html" target="_top" xlink:title="NFCProxyServerNet_Server\lModule.h">
<polygon fill="white" stroke="black" points="579,-67.5 579,-97.5 715,-97.5 715,-67.5 579,-67.5"/>
<text text-anchor="start" x="587" y="-85.5" font-family="Helvetica,sans-Serif" font-size="10.00">NFCProxyServerNet_Server</text>
<text text-anchor="middle" x="647" y="-74.5" font-family="Helvetica,sans-Serif" font-size="10.00">Module.h</text>
</a>
</g>
</g>
<!-- Node58&#45;&gt;Node64 -->
<g id="edge7" class="edge"><title>Node58&#45;&gt;Node64</title>
<path fill="none" stroke="midnightblue" d="M503.408,-131.23C532.555,-121.542 573.951,-107.782 604.813,-97.523"/>
<polygon fill="midnightblue" stroke="midnightblue" points="502.032,-127.999 493.646,-134.475 504.24,-134.642 502.032,-127.999"/>
</g>
<!-- Node60 -->
<g id="node3" class="node"><title>Node60</title>
<g id="a_node3"><a xlink:href="_n_f_c_proxy_server_to_game_module_8cpp.html" target="_top" xlink:title="NFCProxyServerToGameModule.cpp">
<polygon fill="white" stroke="black" points="0,-6 0,-25 176,-25 176,-6 0,-6"/>
<text text-anchor="middle" x="88" y="-13" font-family="Helvetica,sans-Serif" font-size="10.00">NFCProxyServerToGameModule.cpp</text>
</a>
</g>
</g>
<!-- Node59&#45;&gt;Node60 -->
<g id="edge2" class="edge"><title>Node59&#45;&gt;Node60</title>
<path fill="none" stroke="midnightblue" d="M245.67,-69.6013C207.404,-56.7138 147.304,-36.4728 113.428,-25.0637"/>
<polygon fill="midnightblue" stroke="midnightblue" points="244.777,-72.9937 255.371,-72.8685 247.011,-66.3598 244.777,-72.9937"/>
</g>
<!-- Node61 -->
<g id="node4" class="node"><title>Node61</title>
<g id="a_node4"><a xlink:href="_n_f_proxy_server_net___client_plugin_8cpp.html" target="_top" xlink:title="NFProxyServerNet_ClientPlugin.cpp">
<polygon fill="white" stroke="black" points="194.5,-6 194.5,-25 367.5,-25 367.5,-6 194.5,-6"/>
<text text-anchor="middle" x="281" y="-13" font-family="Helvetica,sans-Serif" font-size="10.00">NFProxyServerNet_ClientPlugin.cpp</text>
</a>
</g>
</g>
<!-- Node59&#45;&gt;Node61 -->
<g id="edge3" class="edge"><title>Node59&#45;&gt;Node61</title>
<path fill="none" stroke="midnightblue" d="M281,-62.537C281,-50.1703 281,-34.6198 281,-25.1273"/>
<polygon fill="midnightblue" stroke="midnightblue" points="277.5,-62.7338 281,-72.7338 284.5,-62.7338 277.5,-62.7338"/>
</g>
<!-- Node62&#45;&gt;Node61 -->
<g id="edge6" class="edge"><title>Node62&#45;&gt;Node61</title>
<path fill="none" stroke="midnightblue" d="M433.294,-69.4363C396.197,-56.5417 338.321,-36.4243 305.637,-25.0637"/>
<polygon fill="midnightblue" stroke="midnightblue" points="432.573,-72.8912 443.168,-72.8685 434.871,-66.2792 432.573,-72.8912"/>
</g>
<!-- Node63 -->
<g id="node6" class="node"><title>Node63</title>
<g id="a_node6"><a xlink:href="_n_f_c_proxy_server_to_world_module_8cpp.html" target="_top" xlink:title="NFCProxyServerToWorldModule.cpp">
<polygon fill="white" stroke="black" points="385.5,-6 385.5,-25 560.5,-25 560.5,-6 385.5,-6"/>
<text text-anchor="middle" x="473" y="-13" font-family="Helvetica,sans-Serif" font-size="10.00">NFCProxyServerToWorldModule.cpp</text>
</a>
</g>
</g>
<!-- Node62&#45;&gt;Node63 -->
<g id="edge5" class="edge"><title>Node62&#45;&gt;Node63</title>
<path fill="none" stroke="midnightblue" d="M469.459,-62.537C470.41,-50.1703 471.606,-34.6198 472.336,-25.1273"/>
<polygon fill="midnightblue" stroke="midnightblue" points="465.952,-62.4948 468.674,-72.7338 472.931,-63.0317 465.952,-62.4948"/>
</g>
<!-- Node65 -->
<g id="node8" class="node"><title>Node65</title>
<g id="a_node8"><a xlink:href="_n_f_c_proxy_server_net___server_module_8cpp.html" target="_top" xlink:title="NFCProxyServerNet_Server\lModule.cpp">
<polygon fill="white" stroke="black" points="579,-0.5 579,-30.5 715,-30.5 715,-0.5 579,-0.5"/>
<text text-anchor="start" x="587" y="-18.5" font-family="Helvetica,sans-Serif" font-size="10.00">NFCProxyServerNet_Server</text>
<text text-anchor="middle" x="647" y="-7.5" font-family="Helvetica,sans-Serif" font-size="10.00">Module.cpp</text>
</a>
</g>
</g>
<!-- Node64&#45;&gt;Node65 -->
<g id="edge8" class="edge"><title>Node64&#45;&gt;Node65</title>
<path fill="none" stroke="midnightblue" d="M647,-57.1081C647,-48.1539 647,-38.3227 647,-30.5765"/>
<polygon fill="midnightblue" stroke="midnightblue" points="643.5,-57.3959 647,-67.396 650.5,-57.396 643.5,-57.3959"/>
</g>
<!-- Node66 -->
<g id="node9" class="node"><title>Node66</title>
<g id="a_node9"><a xlink:href="_n_f_proxy_server_net___server_plugin_8cpp.html" target="_top" xlink:title="NFProxyServerNet_ServerPlugin.cpp">
<polygon fill="white" stroke="black" points="733.5,-6 733.5,-25 908.5,-25 908.5,-6 733.5,-6"/>
<text text-anchor="middle" x="821" y="-13" font-family="Helvetica,sans-Serif" font-size="10.00">NFProxyServerNet_ServerPlugin.cpp</text>
</a>
</g>
</g>
<!-- Node64&#45;&gt;Node66 -->
<g id="edge9" class="edge"><title>Node64&#45;&gt;Node66</title>
<path fill="none" stroke="midnightblue" d="M694.425,-63.7838C728.163,-51.1807 771.99,-34.8082 798.227,-25.007"/>
<polygon fill="midnightblue" stroke="midnightblue" points="692.898,-60.6178 684.755,-67.396 695.348,-67.1752 692.898,-60.6178"/>
</g>
</g>
</svg>
