<?xml version="1.0" encoding="UTF-8" standalone="no"?>
<!DOCTYPE svg PUBLIC "-//W3C//DTD SVG 1.1//EN"
 "http://www.w3.org/Graphics/SVG/1.1/DTD/svg11.dtd">
<!-- Generated by graphviz version 2.38.0 (20140413.2041)
 -->
<!-- Title: NFCPluginManager.cpp Pages: 1 -->
<svg width="1968pt" height="587pt"
 viewBox="0.00 0.00 1968.00 587.00" xmlns="http://www.w3.org/2000/svg" xmlns:xlink="http://www.w3.org/1999/xlink">
<g id="graph0" class="graph" transform="scale(1 1) rotate(0) translate(4 583)">
<title>NFCPluginManager.cpp</title>
<polygon fill="white" stroke="none" points="-4,4 -4,-583 1964,-583 1964,4 -4,4"/>
<!-- Node0 -->
<g id="node1" class="node"><title>Node0</title>
<polygon fill="#bfbfbf" stroke="black" points="1332.5,-559.5 1332.5,-578.5 1451.5,-578.5 1451.5,-559.5 1332.5,-559.5"/>
<text text-anchor="middle" x="1392" y="-566.5" font-family="Helvetica,sans-Serif" font-size="10.00">NFCPluginManager.cpp</text>
</g>
<!-- Node1 -->
<g id="node2" class="node"><title>Node1</title>
<g id="a_node2"><a xlink:href="_n_f_c_plugin_manager_8h.html" target="_top" xlink:title="NFCPluginManager.h">
<polygon fill="white" stroke="black" points="339.5,-498 339.5,-517 448.5,-517 448.5,-498 339.5,-498"/>
<text text-anchor="middle" x="394" y="-505" font-family="Helvetica,sans-Serif" font-size="10.00">NFCPluginManager.h</text>
</a>
</g>
</g>
<!-- Node0&#45;&gt;Node1 -->
<g id="edge1" class="edge"><title>Node0&#45;&gt;Node1</title>
<path fill="none" stroke="midnightblue" d="M1332.19,-564.434C1156.25,-553.945 641.393,-523.249 458.988,-512.375"/>
<polygon fill="midnightblue" stroke="midnightblue" points="458.936,-508.865 448.745,-511.764 458.519,-515.853 458.936,-508.865"/>
</g>
<!-- Node8 -->
<g id="node9" class="node"><title>Node8</title>
<g id="a_node9"><a xlink:href="_n_f_platform_8h.html" target="_top" xlink:title="NFComm/NFPluginModule\l/NFPlatform.h">
<polygon fill="white" stroke="black" points="234,-56.5 234,-86.5 366,-86.5 366,-56.5 234,-56.5"/>
<text text-anchor="start" x="242" y="-74.5" font-family="Helvetica,sans-Serif" font-size="10.00">NFComm/NFPluginModule</text>
<text text-anchor="middle" x="300" y="-63.5" font-family="Helvetica,sans-Serif" font-size="10.00">/NFPlatform.h</text>
</a>
</g>
</g>
<!-- Node0&#45;&gt;Node8 -->
<g id="edge83" class="edge"><title>Node0&#45;&gt;Node8</title>
<path fill="none" stroke="midnightblue" d="M1332.39,-567.275C1138.25,-564.63 525.363,-553.98 330,-523 196.925,-501.898 38,-576.238 38,-441.5 38,-441.5 38,-441.5 38,-199 38,-156.778 59.7852,-146.294 95,-123 116.236,-108.953 174.798,-95.279 223.919,-85.7107"/>
<polygon fill="midnightblue" stroke="midnightblue" points="224.759,-89.1134 233.921,-83.7928 223.441,-82.2386 224.759,-89.1134"/>
</g>
<!-- Node37 -->
<g id="node38" class="node"><title>Node37</title>
<polygon fill="white" stroke="#bfbfbf" points="1310.5,-498 1310.5,-517 1473.5,-517 1473.5,-498 1310.5,-498"/>
<text text-anchor="middle" x="1392" y="-505" font-family="Helvetica,sans-Serif" font-size="10.00">NFComm/RapidXML/rapidxml.hpp</text>
</g>
<!-- Node0&#45;&gt;Node37 -->
<g id="edge72" class="edge"><title>Node0&#45;&gt;Node37</title>
<path fill="none" stroke="midnightblue" d="M1392,-559.475C1392,-551.08 1392,-537.981 1392,-527.163"/>
<polygon fill="midnightblue" stroke="midnightblue" points="1395.5,-527.009 1392,-517.009 1388.5,-527.009 1395.5,-527.009"/>
</g>
<!-- Node38 -->
<g id="node39" class="node"><title>Node38</title>
<polygon fill="white" stroke="#bfbfbf" points="1492,-492.5 1492,-522.5 1636,-522.5 1636,-492.5 1492,-492.5"/>
<text text-anchor="start" x="1500" y="-510.5" font-family="Helvetica,sans-Serif" font-size="10.00">NFComm/RapidXML/rapidxml</text>
<text text-anchor="middle" x="1564" y="-499.5" font-family="Helvetica,sans-Serif" font-size="10.00">_iterators.hpp</text>
</g>
<!-- Node0&#45;&gt;Node38 -->
<g id="edge73" class="edge"><title>Node0&#45;&gt;Node38</title>
<path fill="none" stroke="midnightblue" d="M1416.64,-559.475C1441.9,-550.739 1481.88,-536.907 1513.83,-525.855"/>
<polygon fill="midnightblue" stroke="midnightblue" points="1515.16,-529.1 1523.46,-522.523 1512.87,-522.485 1515.16,-529.1"/>
</g>
<!-- Node39 -->
<g id="node40" class="node"><title>Node39</title>
<polygon fill="white" stroke="#bfbfbf" points="1654,-492.5 1654,-522.5 1798,-522.5 1798,-492.5 1654,-492.5"/>
<text text-anchor="start" x="1662" y="-510.5" font-family="Helvetica,sans-Serif" font-size="10.00">NFComm/RapidXML/rapidxml</text>
<text text-anchor="middle" x="1726" y="-499.5" font-family="Helvetica,sans-Serif" font-size="10.00">_print.hpp</text>
</g>
<!-- Node0&#45;&gt;Node39 -->
<g id="edge74" class="edge"><title>Node0&#45;&gt;Node39</title>
<path fill="none" stroke="midnightblue" d="M1440.03,-559.473C1488.84,-550.805 1566.9,-536.931 1643.73,-523.226"/>
<polygon fill="midnightblue" stroke="midnightblue" points="1644.35,-526.671 1653.58,-521.469 1643.12,-519.78 1644.35,-526.671"/>
</g>
<!-- Node40 -->
<g id="node41" class="node"><title>Node40</title>
<polygon fill="white" stroke="#bfbfbf" points="1816,-492.5 1816,-522.5 1960,-522.5 1960,-492.5 1816,-492.5"/>
<text text-anchor="start" x="1824" y="-510.5" font-family="Helvetica,sans-Serif" font-size="10.00">NFComm/RapidXML/rapidxml</text>
<text text-anchor="middle" x="1888" y="-499.5" font-family="Helvetica,sans-Serif" font-size="10.00">_utils.hpp</text>
</g>
<!-- Node0&#45;&gt;Node40 -->
<g id="edge75" class="edge"><title>Node0&#45;&gt;Node40</title>
<path fill="none" stroke="midnightblue" d="M1451.61,-562.842C1530.31,-555.741 1673.42,-541.827 1805.33,-523.18"/>
<polygon fill="midnightblue" stroke="midnightblue" points="1806.21,-526.59 1815.62,-521.713 1805.22,-519.66 1806.21,-526.59"/>
</g>
<!-- Node41 -->
<g id="node42" class="node"><title>Node41</title>
<g id="a_node42"><a xlink:href="_n_f_i_plugin_8h.html" target="_top" xlink:title="NFComm/NFPluginModule\l/NFIPlugin.h">
<polygon fill="white" stroke="black" points="1160,-492.5 1160,-522.5 1292,-522.5 1292,-492.5 1160,-492.5"/>
<text text-anchor="start" x="1168" y="-510.5" font-family="Helvetica,sans-Serif" font-size="10.00">NFComm/NFPluginModule</text>
<text text-anchor="middle" x="1226" y="-499.5" font-family="Helvetica,sans-Serif" font-size="10.00">/NFIPlugin.h</text>
</a>
</g>
</g>
<!-- Node0&#45;&gt;Node41 -->
<g id="edge76" class="edge"><title>Node0&#45;&gt;Node41</title>
<path fill="none" stroke="midnightblue" d="M1368.22,-559.475C1343.95,-550.776 1305.59,-537.026 1274.82,-525.998"/>
<polygon fill="midnightblue" stroke="midnightblue" points="1275.72,-522.602 1265.12,-522.523 1273.36,-529.192 1275.72,-522.602"/>
</g>
<!-- Node2 -->
<g id="node3" class="node"><title>Node2</title>
<polygon fill="white" stroke="#bfbfbf" points="1477.5,-129 1477.5,-148 1512.5,-148 1512.5,-129 1477.5,-129"/>
<text text-anchor="middle" x="1495" y="-136" font-family="Helvetica,sans-Serif" font-size="10.00">map</text>
</g>
<!-- Node1&#45;&gt;Node2 -->
<g id="edge2" class="edge"><title>Node1&#45;&gt;Node2</title>
<path fill="none" stroke="midnightblue" d="M448.584,-499.881C576.502,-483.15 904.165,-433.192 1160,-333 1287.47,-283.081 1424.31,-189.997 1474.8,-154.121"/>
<polygon fill="midnightblue" stroke="midnightblue" points="1477.11,-156.776 1483.21,-148.111 1473.04,-151.083 1477.11,-156.776"/>
</g>
<!-- Node3 -->
<g id="node4" class="node"><title>Node3</title>
<polygon fill="white" stroke="#bfbfbf" points="1428.5,-0.5 1428.5,-19.5 1469.5,-19.5 1469.5,-0.5 1428.5,-0.5"/>
<text text-anchor="middle" x="1449" y="-7.5" font-family="Helvetica,sans-Serif" font-size="10.00">string</text>
</g>
<!-- Node1&#45;&gt;Node3 -->
<g id="edge3" class="edge"><title>Node1&#45;&gt;Node3</title>
<path fill="none" stroke="midnightblue" d="M347.078,-497.976C258.621,-480.563 76,-437.634 76,-380 76,-380 76,-380 76,-137.5 76,-92.7825 95.5277,-77.0141 135,-56 193.43,-24.8934 1225.1,-13.2098 1418.05,-11.2922"/>
<polygon fill="midnightblue" stroke="midnightblue" points="1418.36,-14.7895 1428.33,-11.1915 1418.29,-7.78981 1418.36,-14.7895"/>
</g>
<!-- Node4 -->
<g id="node5" class="node"><title>Node4</title>
<polygon fill="white" stroke="#bfbfbf" points="23,-0.5 23,-19.5 67,-19.5 67,-0.5 23,-0.5"/>
<text text-anchor="middle" x="45" y="-7.5" font-family="Helvetica,sans-Serif" font-size="10.00">time.h</text>
</g>
<!-- Node1&#45;&gt;Node4 -->
<g id="edge4" class="edge"><title>Node1&#45;&gt;Node4</title>
<path fill="none" stroke="midnightblue" d="M339.374,-502.95C257.665,-496.85 108.265,-482.412 62,-456 24.1426,-434.388 0,-423.592 0,-380 0,-380 0,-380 0,-137.5 0,-96.5035 21.2393,-52.1311 34.5347,-28.371"/>
<polygon fill="midnightblue" stroke="midnightblue" points="37.6778,-29.9276 39.6612,-19.5201 31.6204,-26.4191 37.6778,-29.9276"/>
</g>
<!-- Node5 -->
<g id="node6" class="node"><title>Node5</title>
<g id="a_node6"><a xlink:href="_n_f_c_dyn_lib_8h.html" target="_top" xlink:title="NFCDynLib.h">
<polygon fill="white" stroke="black" points="104,-129 104,-148 178,-148 178,-129 104,-129"/>
<text text-anchor="middle" x="141" y="-136" font-family="Helvetica,sans-Serif" font-size="10.00">NFCDynLib.h</text>
</a>
</g>
</g>
<!-- Node1&#45;&gt;Node5 -->
<g id="edge5" class="edge"><title>Node1&#45;&gt;Node5</title>
<path fill="none" stroke="midnightblue" d="M339.302,-499.079C274.436,-486.846 175,-455.741 175,-380 175,-380 175,-380 175,-255 175,-219.271 159.842,-179.762 149.768,-157.45"/>
<polygon fill="midnightblue" stroke="midnightblue" points="152.858,-155.795 145.445,-148.226 146.52,-158.766 152.858,-155.795"/>
</g>
<!-- Node12 -->
<g id="node13" class="node"><title>Node12</title>
<g id="a_node13"><a xlink:href="_n_f_singleton_8h.html" target="_top" xlink:title="NFComm/NFCore/NFSingleton.h">
<polygon fill="white" stroke="black" points="315,-369.5 315,-388.5 473,-388.5 473,-369.5 315,-369.5"/>
<text text-anchor="middle" x="394" y="-376.5" font-family="Helvetica,sans-Serif" font-size="10.00">NFComm/NFCore/NFSingleton.h</text>
</a>
</g>
</g>
<!-- Node1&#45;&gt;Node12 -->
<g id="edge14" class="edge"><title>Node1&#45;&gt;Node12</title>
<path fill="none" stroke="midnightblue" d="M394,-497.805C394,-477.494 394,-426.553 394,-398.777"/>
<polygon fill="midnightblue" stroke="midnightblue" points="397.5,-398.756 394,-388.756 390.5,-398.756 397.5,-398.756"/>
</g>
<!-- Node13 -->
<g id="node14" class="node"><title>Node13</title>
<g id="a_node14"><a xlink:href="_n_f_i_plugin_manager_8h.html" target="_top" xlink:title="NFComm/NFPluginModule\l/NFIPluginManager.h">
<polygon fill="white" stroke="black" points="1047,-425.5 1047,-455.5 1179,-455.5 1179,-425.5 1047,-425.5"/>
<text text-anchor="start" x="1055" y="-443.5" font-family="Helvetica,sans-Serif" font-size="10.00">NFComm/NFPluginModule</text>
<text text-anchor="middle" x="1113" y="-432.5" font-family="Helvetica,sans-Serif" font-size="10.00">/NFIPluginManager.h</text>
</a>
</g>
</g>
<!-- Node1&#45;&gt;Node13 -->
<g id="edge16" class="edge"><title>Node1&#45;&gt;Node13</title>
<path fill="none" stroke="midnightblue" d="M448.898,-504.023C559.687,-498.613 817.803,-483.934 1033,-456 1034.26,-455.836 1035.53,-455.667 1036.81,-455.491"/>
<polygon fill="midnightblue" stroke="midnightblue" points="1037.34,-458.951 1046.73,-454.041 1036.32,-452.024 1037.34,-458.951"/>
</g>
<!-- Node6 -->
<g id="node7" class="node"><title>Node6</title>
<polygon fill="white" stroke="#bfbfbf" points="144,-62 144,-81 190,-81 190,-62 144,-62"/>
<text text-anchor="middle" x="167" y="-69" font-family="Helvetica,sans-Serif" font-size="10.00">stdio.h</text>
</g>
<!-- Node5&#45;&gt;Node6 -->
<g id="edge6" class="edge"><title>Node5&#45;&gt;Node6</title>
<path fill="none" stroke="midnightblue" d="M144.506,-128.734C148.405,-118.988 154.808,-102.981 159.787,-90.5318"/>
<polygon fill="midnightblue" stroke="midnightblue" points="163.085,-91.712 163.549,-81.1273 156.585,-89.1122 163.085,-91.712"/>
</g>
<!-- Node7 -->
<g id="node8" class="node"><title>Node7</title>
<polygon fill="white" stroke="#bfbfbf" points="1305,-62 1305,-81 1359,-81 1359,-62 1305,-62"/>
<text text-anchor="middle" x="1332" y="-69" font-family="Helvetica,sans-Serif" font-size="10.00">iostream</text>
</g>
<!-- Node5&#45;&gt;Node7 -->
<g id="edge7" class="edge"><title>Node5&#45;&gt;Node7</title>
<path fill="none" stroke="midnightblue" d="M178.075,-130.069C192.645,-127.42 209.552,-124.679 225,-123 439.396,-99.6982 1127.28,-78.4792 1294.91,-73.5659"/>
<polygon fill="midnightblue" stroke="midnightblue" points="1295.07,-77.0627 1304.96,-73.2725 1294.87,-70.0657 1295.07,-77.0627"/>
</g>
<!-- Node5&#45;&gt;Node8 -->
<g id="edge8" class="edge"><title>Node5&#45;&gt;Node8</title>
<path fill="none" stroke="midnightblue" d="M162.114,-128.869C185.973,-119.115 225.467,-102.97 256.087,-90.452"/>
<polygon fill="midnightblue" stroke="midnightblue" points="257.753,-93.5519 265.685,-86.5281 255.104,-87.0724 257.753,-93.5519"/>
</g>
<!-- Node8&#45;&gt;Node3 -->
<g id="edge13" class="edge"><title>Node8&#45;&gt;Node3</title>
<path fill="none" stroke="midnightblue" d="M366.321,-67.0656C582.872,-55.8517 1264.12,-20.5737 1417.93,-12.6087"/>
<polygon fill="midnightblue" stroke="midnightblue" points="1418.28,-16.0957 1428.08,-12.0831 1417.92,-9.10505 1418.28,-16.0957"/>
</g>
<!-- Node8&#45;&gt;Node4 -->
<g id="edge10" class="edge"><title>Node8&#45;&gt;Node4</title>
<path fill="none" stroke="midnightblue" d="M239.891,-56.4747C188.961,-44.5909 117.898,-28.0095 77.1479,-18.5012"/>
<polygon fill="midnightblue" stroke="midnightblue" points="77.7624,-15.0506 67.2286,-16.1867 76.1717,-21.8675 77.7624,-15.0506"/>
</g>
<!-- Node9 -->
<g id="node10" class="node"><title>Node9</title>
<polygon fill="white" stroke="#bfbfbf" points="275.5,-0.5 275.5,-19.5 324.5,-19.5 324.5,-0.5 275.5,-0.5"/>
<text text-anchor="middle" x="300" y="-7.5" font-family="Helvetica,sans-Serif" font-size="10.00">stdint.h</text>
</g>
<!-- Node8&#45;&gt;Node9 -->
<g id="edge9" class="edge"><title>Node8&#45;&gt;Node9</title>
<path fill="none" stroke="midnightblue" d="M300,-56.3993C300,-48.4664 300,-38.458 300,-29.8583"/>
<polygon fill="midnightblue" stroke="midnightblue" points="303.5,-29.6577 300,-19.6578 296.5,-29.6578 303.5,-29.6577"/>
</g>
<!-- Node10 -->
<g id="node11" class="node"><title>Node10</title>
<polygon fill="white" stroke="#bfbfbf" points="343,-0.5 343,-19.5 395,-19.5 395,-0.5 343,-0.5"/>
<text text-anchor="middle" x="369" y="-7.5" font-family="Helvetica,sans-Serif" font-size="10.00">sstream</text>
</g>
<!-- Node8&#45;&gt;Node10 -->
<g id="edge11" class="edge"><title>Node8&#45;&gt;Node10</title>
<path fill="none" stroke="midnightblue" d="M316.352,-56.3993C326.895,-47.3076 340.6,-35.4899 351.384,-26.1909"/>
<polygon fill="midnightblue" stroke="midnightblue" points="353.672,-28.8389 358.96,-19.6578 349.101,-23.5377 353.672,-28.8389"/>
</g>
<!-- Node11 -->
<g id="node12" class="node"><title>Node11</title>
<polygon fill="white" stroke="#bfbfbf" points="129,-0.5 129,-19.5 257,-19.5 257,-0.5 129,-0.5"/>
<text text-anchor="middle" x="193" y="-7.5" font-family="Helvetica,sans-Serif" font-size="10.00">common/lexical_cast.hpp</text>
</g>
<!-- Node8&#45;&gt;Node11 -->
<g id="edge12" class="edge"><title>Node8&#45;&gt;Node11</title>
<path fill="none" stroke="midnightblue" d="M274.642,-56.3993C257.331,-46.7728 234.524,-34.0902 217.416,-24.5772"/>
<polygon fill="midnightblue" stroke="midnightblue" points="219.01,-21.4588 208.569,-19.6578 215.608,-27.5766 219.01,-21.4588"/>
</g>
<!-- Node12&#45;&gt;Node7 -->
<g id="edge15" class="edge"><title>Node12&#45;&gt;Node7</title>
<path fill="none" stroke="midnightblue" d="M394,-369.491C394,-349.736 394,-299.224 394,-257 394,-257 394,-257 394,-199 394,-164.183 386.155,-145.172 413,-123 447.526,-94.484 1126.4,-77.1834 1294.56,-73.3244"/>
<polygon fill="midnightblue" stroke="midnightblue" points="1294.75,-76.8212 1304.67,-73.0947 1294.59,-69.823 1294.75,-76.8212"/>
</g>
<!-- Node14 -->
<g id="node15" class="node"><title>Node14</title>
<g id="a_node15"><a xlink:href="_n_f_i_module_8h.html" target="_top" xlink:title="NFIModule.h">
<polygon fill="white" stroke="black" points="1209.5,-369.5 1209.5,-388.5 1280.5,-388.5 1280.5,-369.5 1209.5,-369.5"/>
<text text-anchor="middle" x="1245" y="-376.5" font-family="Helvetica,sans-Serif" font-size="10.00">NFIModule.h</text>
</a>
</g>
</g>
<!-- Node13&#45;&gt;Node14 -->
<g id="edge17" class="edge"><title>Node13&#45;&gt;Node14</title>
<path fill="none" stroke="midnightblue" d="M1144.28,-425.399C1166.23,-415.505 1195.34,-402.383 1216.62,-392.792"/>
<polygon fill="midnightblue" stroke="midnightblue" points="1218.11,-395.958 1225.79,-388.658 1215.24,-389.576 1218.11,-395.958"/>
</g>
<!-- Node14&#45;&gt;Node3 -->
<g id="edge18" class="edge"><title>Node14&#45;&gt;Node3</title>
<path fill="none" stroke="midnightblue" d="M1280.52,-378.648C1372.93,-379.675 1618.15,-377.981 1683,-333 1733.14,-298.224 1729.55,-269.284 1744,-210 1760.8,-141.074 1761.02,-95.3597 1702,-56 1666.01,-32.0001 1539.36,-18.538 1480.06,-13.4208"/>
<polygon fill="midnightblue" stroke="midnightblue" points="1480.07,-9.9091 1469.81,-12.5618 1479.48,-16.8847 1480.07,-9.9091"/>
</g>
<!-- Node15 -->
<g id="node16" class="node"><title>Node15</title>
<g id="a_node16"><a xlink:href="_n_f_map_8h.html" target="_top" xlink:title="NFComm/NFCore/NFMap.h">
<polygon fill="white" stroke="black" points="1430.5,-246.5 1430.5,-265.5 1567.5,-265.5 1567.5,-246.5 1430.5,-246.5"/>
<text text-anchor="middle" x="1499" y="-253.5" font-family="Helvetica,sans-Serif" font-size="10.00">NFComm/NFCore/NFMap.h</text>
</a>
</g>
</g>
<!-- Node14&#45;&gt;Node15 -->
<g id="edge19" class="edge"><title>Node14&#45;&gt;Node15</title>
<path fill="none" stroke="midnightblue" d="M1263.22,-369.392C1282.35,-360.349 1313.3,-345.703 1340,-333 1386.32,-310.96 1440.16,-285.192 1471.81,-270.031"/>
<polygon fill="midnightblue" stroke="midnightblue" points="1473.38,-273.16 1480.89,-265.683 1470.36,-266.847 1473.38,-273.16"/>
</g>
<!-- Node20 -->
<g id="node21" class="node"><title>Node20</title>
<g id="a_node21"><a xlink:href="_n_f_list_8h.html" target="_top" xlink:title="NFComm/NFCore/NFList.h">
<polygon fill="white" stroke="black" points="1227,-190.5 1227,-209.5 1361,-209.5 1361,-190.5 1227,-190.5"/>
<text text-anchor="middle" x="1294" y="-197.5" font-family="Helvetica,sans-Serif" font-size="10.00">NFComm/NFCore/NFList.h</text>
</a>
</g>
</g>
<!-- Node14&#45;&gt;Node20 -->
<g id="edge33" class="edge"><title>Node14&#45;&gt;Node20</title>
<path fill="none" stroke="midnightblue" d="M1247.36,-369.463C1254.88,-342.311 1278.36,-257.512 1288.85,-219.618"/>
<polygon fill="midnightblue" stroke="midnightblue" points="1292.25,-220.44 1291.54,-209.868 1285.5,-218.572 1292.25,-220.44"/>
</g>
<!-- Node22 -->
<g id="node23" class="node"><title>Node22</title>
<g id="a_node23"><a xlink:href="_n_f_define_8h.html" target="_top" xlink:title="NFComm/NFCore/NFDefine.h">
<polygon fill="white" stroke="black" points="898.5,-246.5 898.5,-265.5 1043.5,-265.5 1043.5,-246.5 898.5,-246.5"/>
<text text-anchor="middle" x="971" y="-253.5" font-family="Helvetica,sans-Serif" font-size="10.00">NFComm/NFCore/NFDefine.h</text>
</a>
</g>
</g>
<!-- Node14&#45;&gt;Node22 -->
<g id="edge39" class="edge"><title>Node14&#45;&gt;Node22</title>
<path fill="none" stroke="midnightblue" d="M1209.41,-373.883C1143.1,-365.903 1005.89,-347.808 990,-333 974.33,-318.395 970.75,-292.994 970.314,-275.609"/>
<polygon fill="midnightblue" stroke="midnightblue" points="973.815,-275.562 970.387,-265.537 966.815,-275.511 973.815,-275.562"/>
</g>
<!-- Node24 -->
<g id="node25" class="node"><title>Node24</title>
<g id="a_node25"><a xlink:href="_a_f_data_list_8hpp.html" target="_top" xlink:title="AFDataList.hpp">
<polygon fill="white" stroke="black" points="1026,-190.5 1026,-209.5 1110,-209.5 1110,-190.5 1026,-190.5"/>
<text text-anchor="middle" x="1068" y="-197.5" font-family="Helvetica,sans-Serif" font-size="10.00">AFDataList.hpp</text>
</a>
</g>
</g>
<!-- Node14&#45;&gt;Node24 -->
<g id="edge66" class="edge"><title>Node14&#45;&gt;Node24</title>
<path fill="none" stroke="midnightblue" d="M1236.46,-369.463C1208.73,-341.729 1120.85,-253.846 1084.24,-217.245"/>
<polygon fill="midnightblue" stroke="midnightblue" points="1086.41,-214.465 1076.87,-209.868 1081.46,-219.414 1086.41,-214.465"/>
</g>
<!-- Node35 -->
<g id="node36" class="node"><title>Node35</title>
<g id="a_node36"><a xlink:href="_n_f_i_record_8h.html" target="_top" xlink:title="NFComm/NFCore/NFIRecord.h">
<polygon fill="white" stroke="black" points="999.5,-308 999.5,-327 1150.5,-327 1150.5,-308 999.5,-308"/>
<text text-anchor="middle" x="1075" y="-315" font-family="Helvetica,sans-Serif" font-size="10.00">NFComm/NFCore/NFIRecord.h</text>
</a>
</g>
</g>
<!-- Node14&#45;&gt;Node35 -->
<g id="edge67" class="edge"><title>Node14&#45;&gt;Node35</title>
<path fill="none" stroke="midnightblue" d="M1220.64,-369.475C1191.36,-359.225 1142.03,-341.959 1109,-330.399"/>
<polygon fill="midnightblue" stroke="midnightblue" points="1109.91,-327.009 1099.31,-327.009 1107.59,-333.616 1109.91,-327.009"/>
</g>
<!-- Node36 -->
<g id="node37" class="node"><title>Node36</title>
<g id="a_node37"><a xlink:href="_n_f_event_define_8h.html" target="_top" xlink:title="NFComm/NFEventDefine\l/NFEventDefine.h">
<polygon fill="white" stroke="black" points="1548.5,-302.5 1548.5,-332.5 1673.5,-332.5 1673.5,-302.5 1548.5,-302.5"/>
<text text-anchor="start" x="1556.5" y="-320.5" font-family="Helvetica,sans-Serif" font-size="10.00">NFComm/NFEventDefine</text>
<text text-anchor="middle" x="1611" y="-309.5" font-family="Helvetica,sans-Serif" font-size="10.00">/NFEventDefine.h</text>
</a>
</g>
</g>
<!-- Node14&#45;&gt;Node36 -->
<g id="edge70" class="edge"><title>Node14&#45;&gt;Node36</title>
<path fill="none" stroke="midnightblue" d="M1280.76,-372.187C1340.15,-362.532 1460.28,-343.003 1538.11,-330.35"/>
<polygon fill="midnightblue" stroke="midnightblue" points="1539.02,-333.748 1548.32,-328.689 1537.89,-326.839 1539.02,-333.748"/>
</g>
<!-- Node15&#45;&gt;Node2 -->
<g id="edge20" class="edge"><title>Node15&#45;&gt;Node2</title>
<path fill="none" stroke="midnightblue" d="M1498.7,-246.319C1498.06,-227.757 1496.54,-183.839 1495.66,-158.473"/>
<polygon fill="midnightblue" stroke="midnightblue" points="1499.15,-158.155 1495.3,-148.282 1492.15,-158.397 1499.15,-158.155"/>
</g>
<!-- Node15&#45;&gt;Node3 -->
<g id="edge22" class="edge"><title>Node15&#45;&gt;Node3</title>
<path fill="none" stroke="midnightblue" d="M1567.89,-250.524C1606.22,-245.27 1653.26,-234.008 1689,-210 1724.33,-186.268 1744.52,-162.626 1729,-123 1691.27,-26.6856 1545.01,-12.3257 1480.2,-10.788"/>
<polygon fill="midnightblue" stroke="midnightblue" points="1479.86,-7.28276 1469.81,-10.6365 1479.76,-14.282 1479.86,-7.28276"/>
</g>
<!-- Node15&#45;&gt;Node7 -->
<g id="edge23" class="edge"><title>Node15&#45;&gt;Node7</title>
<path fill="none" stroke="midnightblue" d="M1540.44,-246.488C1616.34,-229.135 1765.07,-185.914 1710,-123 1687.72,-97.5414 1460.03,-80.5423 1369.16,-74.7245"/>
<polygon fill="midnightblue" stroke="midnightblue" points="1369.23,-71.2222 1359.03,-74.0862 1368.79,-78.2083 1369.23,-71.2222"/>
</g>
<!-- Node16 -->
<g id="node17" class="node"><title>Node16</title>
<polygon fill="white" stroke="#bfbfbf" points="1430.5,-129 1430.5,-148 1459.5,-148 1459.5,-129 1430.5,-129"/>
<text text-anchor="middle" x="1445" y="-136" font-family="Helvetica,sans-Serif" font-size="10.00">list</text>
</g>
<!-- Node15&#45;&gt;Node16 -->
<g id="edge21" class="edge"><title>Node15&#45;&gt;Node16</title>
<path fill="none" stroke="midnightblue" d="M1494.94,-246.319C1486.15,-227.506 1465.17,-182.648 1453.39,-157.455"/>
<polygon fill="midnightblue" stroke="midnightblue" points="1456.51,-155.858 1449.11,-148.282 1450.17,-158.823 1456.51,-155.858"/>
</g>
<!-- Node17 -->
<g id="node18" class="node"><title>Node17</title>
<polygon fill="white" stroke="#bfbfbf" points="1531,-129 1531,-148 1581,-148 1581,-129 1531,-129"/>
<text text-anchor="middle" x="1556" y="-136" font-family="Helvetica,sans-Serif" font-size="10.00">typeinfo</text>
</g>
<!-- Node15&#45;&gt;Node17 -->
<g id="edge24" class="edge"><title>Node15&#45;&gt;Node17</title>
<path fill="none" stroke="midnightblue" d="M1503.28,-246.319C1512.57,-227.506 1534.71,-182.648 1547.14,-157.455"/>
<polygon fill="midnightblue" stroke="midnightblue" points="1550.38,-158.798 1551.67,-148.282 1544.1,-155.701 1550.38,-158.798"/>
</g>
<!-- Node18 -->
<g id="node19" class="node"><title>Node18</title>
<g id="a_node19"><a xlink:href="_n_f_map_ex_8h.html" target="_top" xlink:title="NFMapEx.h">
<polygon fill="white" stroke="black" points="1546,-190.5 1546,-209.5 1614,-209.5 1614,-190.5 1546,-190.5"/>
<text text-anchor="middle" x="1580" y="-197.5" font-family="Helvetica,sans-Serif" font-size="10.00">NFMapEx.h</text>
</a>
</g>
</g>
<!-- Node15&#45;&gt;Node18 -->
<g id="edge25" class="edge"><title>Node15&#45;&gt;Node18</title>
<path fill="none" stroke="midnightblue" d="M1512.01,-246.324C1524.53,-237.979 1543.68,-225.212 1558.47,-215.352"/>
<polygon fill="midnightblue" stroke="midnightblue" points="1560.64,-218.114 1567.02,-209.655 1556.76,-212.289 1560.64,-218.114"/>
</g>
<!-- Node18&#45;&gt;Node2 -->
<g id="edge26" class="edge"><title>Node18&#45;&gt;Node2</title>
<path fill="none" stroke="midnightblue" d="M1567.82,-190.475C1554.19,-180.931 1531.87,-165.307 1515.53,-153.868"/>
<polygon fill="midnightblue" stroke="midnightblue" points="1517.36,-150.876 1507.16,-148.009 1513.34,-156.611 1517.36,-150.876"/>
</g>
<!-- Node18&#45;&gt;Node3 -->
<g id="edge28" class="edge"><title>Node18&#45;&gt;Node3</title>
<path fill="none" stroke="midnightblue" d="M1614.12,-197.658C1644.84,-194.421 1688.39,-184.35 1710,-154 1717.99,-142.777 1717.58,-134.504 1710,-123 1657.87,-43.9033 1536.99,-20.4471 1479.91,-13.666"/>
<polygon fill="midnightblue" stroke="midnightblue" points="1480.02,-10.1577 1469.7,-12.5522 1479.26,-17.1164 1480.02,-10.1577"/>
</g>
<!-- Node18&#45;&gt;Node7 -->
<g id="edge29" class="edge"><title>Node18&#45;&gt;Node7</title>
<path fill="none" stroke="midnightblue" d="M1614.27,-195.493C1640.67,-190.79 1675.52,-179.778 1693,-154 1700.73,-142.597 1702.04,-133.395 1693,-123 1651.28,-75.0357 1452.7,-71.2526 1369.16,-71.8457"/>
<polygon fill="midnightblue" stroke="midnightblue" points="1369.06,-68.3464 1359.1,-71.9427 1369.13,-75.346 1369.06,-68.3464"/>
</g>
<!-- Node18&#45;&gt;Node8 -->
<g id="edge32" class="edge"><title>Node18&#45;&gt;Node8</title>
<path fill="none" stroke="midnightblue" d="M1610.25,-190.488C1628.13,-183.726 1649.3,-172.295 1660,-154 1666.96,-142.107 1669.56,-132.921 1660,-123 1657.19,-120.088 663.514,-85.1875 376.671,-75.1714"/>
<polygon fill="midnightblue" stroke="midnightblue" points="376.48,-71.6627 366.364,-74.8116 376.236,-78.6585 376.48,-71.6627"/>
</g>
<!-- Node18&#45;&gt;Node16 -->
<g id="edge27" class="edge"><title>Node18&#45;&gt;Node16</title>
<path fill="none" stroke="midnightblue" d="M1555.7,-190.415C1532.88,-182.059 1498,-168.527 1469,-154 1468.46,-153.728 1467.91,-153.447 1467.36,-153.16"/>
<polygon fill="midnightblue" stroke="midnightblue" points="1468.93,-150.027 1458.5,-148.164 1465.49,-156.124 1468.93,-150.027"/>
</g>
<!-- Node18&#45;&gt;Node17 -->
<g id="edge30" class="edge"><title>Node18&#45;&gt;Node17</title>
<path fill="none" stroke="midnightblue" d="M1576.56,-190.475C1573.1,-181.904 1567.67,-168.427 1563.25,-157.483"/>
<polygon fill="midnightblue" stroke="midnightblue" points="1566.42,-155.974 1559.43,-148.009 1559.93,-158.592 1566.42,-155.974"/>
</g>
<!-- Node19 -->
<g id="node20" class="node"><title>Node19</title>
<polygon fill="white" stroke="#bfbfbf" points="1360,-129 1360,-148 1412,-148 1412,-129 1360,-129"/>
<text text-anchor="middle" x="1386" y="-136" font-family="Helvetica,sans-Serif" font-size="10.00">memory</text>
</g>
<!-- Node18&#45;&gt;Node19 -->
<g id="edge31" class="edge"><title>Node18&#45;&gt;Node19</title>
<path fill="none" stroke="midnightblue" d="M1546.08,-190.449C1513.87,-182.067 1464.22,-168.472 1422,-154 1419.88,-153.272 1417.7,-152.488 1415.51,-151.675"/>
<polygon fill="midnightblue" stroke="midnightblue" points="1416.63,-148.356 1406.04,-148.007 1414.1,-154.883 1416.63,-148.356"/>
</g>
<!-- Node20&#45;&gt;Node2 -->
<g id="edge35" class="edge"><title>Node20&#45;&gt;Node2</title>
<path fill="none" stroke="midnightblue" d="M1340.35,-190.477C1376.23,-183.076 1426.76,-170.881 1469,-154 1470.03,-153.588 1471.07,-153.142 1472.12,-152.672"/>
<polygon fill="midnightblue" stroke="midnightblue" points="1473.96,-155.66 1481.29,-148.008 1470.79,-149.42 1473.96,-155.66"/>
</g>
<!-- Node20&#45;&gt;Node7 -->
<g id="edge34" class="edge"><title>Node20&#45;&gt;Node7</title>
<path fill="none" stroke="midnightblue" d="M1296.72,-190.385C1299.57,-181.337 1304.16,-166.686 1308,-154 1314.53,-132.436 1321.81,-107.589 1326.62,-91.055"/>
<polygon fill="midnightblue" stroke="midnightblue" points="1330.09,-91.6578 1329.52,-81.0784 1323.37,-89.7056 1330.09,-91.6578"/>
</g>
<!-- Node20&#45;&gt;Node8 -->
<g id="edge38" class="edge"><title>Node20&#45;&gt;Node8</title>
<path fill="none" stroke="midnightblue" d="M1294.81,-190.237C1295.77,-174.049 1295.16,-139.597 1275,-123 1257.69,-108.751 602.732,-83.5506 376.178,-75.2419"/>
<polygon fill="midnightblue" stroke="midnightblue" points="376.161,-71.739 366.04,-74.8709 375.905,-78.7343 376.161,-71.739"/>
</g>
<!-- Node20&#45;&gt;Node16 -->
<g id="edge36" class="edge"><title>Node20&#45;&gt;Node16</title>
<path fill="none" stroke="midnightblue" d="M1323.42,-190.443C1349.6,-182.393 1388.65,-169.309 1421,-154 1421.55,-153.74 1422.1,-153.47 1422.66,-153.193"/>
<polygon fill="midnightblue" stroke="midnightblue" points="1424.5,-156.175 1431.56,-148.275 1421.11,-150.049 1424.5,-156.175"/>
</g>
<!-- Node21 -->
<g id="node22" class="node"><title>Node21</title>
<polygon fill="white" stroke="#bfbfbf" points="1210,-129 1210,-148 1266,-148 1266,-129 1210,-129"/>
<text text-anchor="middle" x="1238" y="-136" font-family="Helvetica,sans-Serif" font-size="10.00">algorithm</text>
</g>
<!-- Node20&#45;&gt;Node21 -->
<g id="edge37" class="edge"><title>Node20&#45;&gt;Node21</title>
<path fill="none" stroke="midnightblue" d="M1285.98,-190.475C1277.41,-181.373 1263.64,-166.741 1253.04,-155.483"/>
<polygon fill="midnightblue" stroke="midnightblue" points="1255.41,-152.892 1246.01,-148.009 1250.31,-157.69 1255.41,-152.892"/>
</g>
<!-- Node23 -->
<g id="node24" class="node"><title>Node23</title>
<polygon fill="white" stroke="#bfbfbf" points="422,-129 422,-148 480,-148 480,-129 422,-129"/>
<text text-anchor="middle" x="451" y="-136" font-family="Helvetica,sans-Serif" font-size="10.00">functional</text>
</g>
<!-- Node22&#45;&gt;Node23 -->
<g id="edge40" class="edge"><title>Node22&#45;&gt;Node23</title>
<path fill="none" stroke="midnightblue" d="M921.449,-246.478C834.276,-231.049 648.115,-196.146 494,-154 490.982,-153.175 487.865,-152.256 484.753,-151.294"/>
<polygon fill="midnightblue" stroke="midnightblue" points="485.546,-147.872 474.955,-148.128 483.394,-154.533 485.546,-147.872"/>
</g>
<!-- Node22&#45;&gt;Node24 -->
<g id="edge41" class="edge"><title>Node22&#45;&gt;Node24</title>
<path fill="none" stroke="midnightblue" d="M986.585,-246.324C1002,-237.743 1025.81,-224.486 1043.71,-214.522"/>
<polygon fill="midnightblue" stroke="midnightblue" points="1045.42,-217.577 1052.45,-209.655 1042.01,-211.461 1045.42,-217.577"/>
</g>
<!-- Node33 -->
<g id="node34" class="node"><title>Node33</title>
<g id="a_node34"><a xlink:href="_n_f_g_u_i_d_8h.html" target="_top" xlink:title="NFComm/NFPluginModule\l/NFGUID.h">
<polygon fill="white" stroke="black" points="234,-123.5 234,-153.5 366,-153.5 366,-123.5 234,-123.5"/>
<text text-anchor="start" x="242" y="-141.5" font-family="Helvetica,sans-Serif" font-size="10.00">NFComm/NFPluginModule</text>
<text text-anchor="middle" x="300" y="-130.5" font-family="Helvetica,sans-Serif" font-size="10.00">/NFGUID.h</text>
</a>
</g>
</g>
<!-- Node22&#45;&gt;Node33 -->
<g id="edge65" class="edge"><title>Node22&#45;&gt;Node33</title>
<path fill="none" stroke="midnightblue" d="M900.333,-246.476C834.565,-238.238 733.907,-224.849 647,-210 551.993,-193.767 443.2,-170.973 373.146,-155.744"/>
<polygon fill="midnightblue" stroke="midnightblue" points="373.613,-152.264 363.097,-153.554 372.122,-159.103 373.613,-152.264"/>
</g>
<!-- Node24&#45;&gt;Node2 -->
<g id="edge49" class="edge"><title>Node24&#45;&gt;Node2</title>
<path fill="none" stroke="midnightblue" d="M1110.25,-196.378C1199.19,-190.513 1402.96,-175.173 1469,-154 1470.25,-153.601 1471.5,-153.138 1472.75,-152.63"/>
<polygon fill="midnightblue" stroke="midnightblue" points="1474.54,-155.648 1481.97,-148.092 1471.45,-149.367 1474.54,-155.648"/>
</g>
<!-- Node24&#45;&gt;Node3 -->
<g id="edge42" class="edge"><title>Node24&#45;&gt;Node3</title>
<path fill="none" stroke="midnightblue" d="M1076.85,-190.199C1092.34,-175.123 1125.77,-143.961 1158,-123 1215.16,-85.8286 1232.41,-80.5925 1296,-56 1337.53,-39.939 1387.26,-26.2983 1418.5,-18.3754"/>
<polygon fill="midnightblue" stroke="midnightblue" points="1419.5,-21.7345 1428.35,-15.9125 1417.8,-14.9437 1419.5,-21.7345"/>
</g>
<!-- Node24&#45;&gt;Node7 -->
<g id="edge44" class="edge"><title>Node24&#45;&gt;Node7</title>
<path fill="none" stroke="midnightblue" d="M1087.44,-190.386C1106,-181.907 1134.53,-168.198 1158,-154 1178.16,-141.804 1180.28,-134.218 1201,-123 1231.31,-106.585 1268.12,-92.894 1294.99,-83.9272"/>
<polygon fill="midnightblue" stroke="midnightblue" points="1296.35,-87.1639 1304.76,-80.7261 1294.17,-80.5114 1296.35,-87.1639"/>
</g>
<!-- Node24&#45;&gt;Node8 -->
<g id="edge63" class="edge"><title>Node24&#45;&gt;Node8</title>
<path fill="none" stroke="midnightblue" d="M1025.67,-198.693C914.627,-197.383 617.347,-190.468 527,-154 506.788,-145.842 508.406,-132.923 489,-123 453.896,-105.049 411.766,-92.9944 376.199,-85.1793"/>
<polygon fill="midnightblue" stroke="midnightblue" points="376.862,-81.7421 366.353,-83.0861 375.406,-88.5891 376.862,-81.7421"/>
</g>
<!-- Node24&#45;&gt;Node16 -->
<g id="edge47" class="edge"><title>Node24&#45;&gt;Node16</title>
<path fill="none" stroke="midnightblue" d="M1110.13,-195.828C1190.87,-189.39 1364.41,-173.71 1421,-154 1421.88,-153.692 1422.77,-153.348 1423.66,-152.976"/>
<polygon fill="midnightblue" stroke="midnightblue" points="1425.54,-155.944 1432.78,-148.217 1422.3,-149.736 1425.54,-155.944"/>
</g>
<!-- Node24&#45;&gt;Node17 -->
<g id="edge52" class="edge"><title>Node24&#45;&gt;Node17</title>
<path fill="none" stroke="midnightblue" d="M1110.1,-196.467C1207.23,-190.358 1444.6,-173.841 1522,-154 1524.36,-153.395 1526.77,-152.65 1529.16,-151.821"/>
<polygon fill="midnightblue" stroke="midnightblue" points="1530.68,-154.985 1538.71,-148.075 1528.12,-148.468 1530.68,-154.985"/>
</g>
<!-- Node24&#45;&gt;Node19 -->
<g id="edge56" class="edge"><title>Node24&#45;&gt;Node19</title>
<path fill="none" stroke="midnightblue" d="M1110.23,-191.099C1173.18,-179.32 1290.57,-157.355 1349.82,-146.27"/>
<polygon fill="midnightblue" stroke="midnightblue" points="1350.65,-149.675 1359.83,-144.396 1349.36,-142.795 1350.65,-149.675"/>
</g>
<!-- Node24&#45;&gt;Node21 -->
<g id="edge50" class="edge"><title>Node24&#45;&gt;Node21</title>
<path fill="none" stroke="midnightblue" d="M1092.36,-190.475C1121.64,-180.225 1170.97,-162.959 1204,-151.399"/>
<polygon fill="midnightblue" stroke="midnightblue" points="1205.41,-154.616 1213.69,-148.009 1203.09,-148.009 1205.41,-154.616"/>
</g>
<!-- Node24&#45;&gt;Node23 -->
<g id="edge54" class="edge"><title>Node24&#45;&gt;Node23</title>
<path fill="none" stroke="midnightblue" d="M1025.73,-199.233C930.032,-198.991 689.863,-194.057 494,-154 490.31,-153.245 486.498,-152.267 482.739,-151.174"/>
<polygon fill="midnightblue" stroke="midnightblue" points="483.621,-147.782 473.03,-148.092 481.502,-154.454 483.621,-147.782"/>
</g>
<!-- Node25 -->
<g id="node26" class="node"><title>Node25</title>
<polygon fill="white" stroke="#bfbfbf" points="906,-129 906,-148 952,-148 952,-129 906,-129"/>
<text text-anchor="middle" x="929" y="-136" font-family="Helvetica,sans-Serif" font-size="10.00">cstring</text>
</g>
<!-- Node24&#45;&gt;Node25 -->
<g id="edge43" class="edge"><title>Node24&#45;&gt;Node25</title>
<path fill="none" stroke="midnightblue" d="M1047.01,-190.373C1025.39,-181.436 990.733,-166.986 961,-154 959.638,-153.405 958.244,-152.792 956.839,-152.169"/>
<polygon fill="midnightblue" stroke="midnightblue" points="958.132,-148.913 947.575,-148.02 955.271,-155.302 958.132,-148.913"/>
</g>
<!-- Node26 -->
<g id="node27" class="node"><title>Node26</title>
<polygon fill="white" stroke="#bfbfbf" points="726,-62 726,-81 774,-81 774,-62 726,-62"/>
<text text-anchor="middle" x="750" y="-69" font-family="Helvetica,sans-Serif" font-size="10.00">stdlib.h</text>
</g>
<!-- Node24&#45;&gt;Node26 -->
<g id="edge45" class="edge"><title>Node24&#45;&gt;Node26</title>
<path fill="none" stroke="midnightblue" d="M1074.5,-190.354C1085.23,-174.96 1103.86,-142.58 1087,-123 1048.19,-77.9408 862.496,-72.5087 784.558,-72.253"/>
<polygon fill="midnightblue" stroke="midnightblue" points="784.304,-68.753 774.302,-72.2477 784.3,-75.753 784.304,-68.753"/>
</g>
<!-- Node27 -->
<g id="node28" class="node"><title>Node27</title>
<polygon fill="white" stroke="#bfbfbf" points="970.5,-129 970.5,-148 1017.5,-148 1017.5,-129 970.5,-129"/>
<text text-anchor="middle" x="994" y="-136" font-family="Helvetica,sans-Serif" font-size="10.00">math.h</text>
</g>
<!-- Node24&#45;&gt;Node27 -->
<g id="edge46" class="edge"><title>Node24&#45;&gt;Node27</title>
<path fill="none" stroke="midnightblue" d="M1057.4,-190.475C1045.75,-181.108 1026.81,-165.884 1012.67,-154.508"/>
<polygon fill="midnightblue" stroke="midnightblue" points="1014.57,-151.548 1004.58,-148.009 1010.18,-157.003 1014.57,-151.548"/>
</g>
<!-- Node28 -->
<g id="node29" class="node"><title>Node28</title>
<polygon fill="white" stroke="#bfbfbf" points="1036,-129 1036,-148 1078,-148 1078,-129 1036,-129"/>
<text text-anchor="middle" x="1057" y="-136" font-family="Helvetica,sans-Serif" font-size="10.00">vector</text>
</g>
<!-- Node24&#45;&gt;Node28 -->
<g id="edge48" class="edge"><title>Node24&#45;&gt;Node28</title>
<path fill="none" stroke="midnightblue" d="M1066.42,-190.475C1064.87,-182.08 1062.45,-168.981 1060.45,-158.163"/>
<polygon fill="midnightblue" stroke="midnightblue" points="1063.83,-157.206 1058.57,-148.009 1056.95,-158.479 1063.83,-157.206"/>
</g>
<!-- Node29 -->
<g id="node30" class="node"><title>Node29</title>
<polygon fill="white" stroke="#bfbfbf" points="1599,-129 1599,-148 1651,-148 1651,-129 1599,-129"/>
<text text-anchor="middle" x="1625" y="-136" font-family="Helvetica,sans-Serif" font-size="10.00">assert.h</text>
</g>
<!-- Node24&#45;&gt;Node29 -->
<g id="edge51" class="edge"><title>Node24&#45;&gt;Node29</title>
<path fill="none" stroke="midnightblue" d="M1110.07,-196.117C1225.89,-188.076 1543.88,-165.255 1590,-154 1592.52,-153.386 1595.09,-152.618 1597.63,-151.757"/>
<polygon fill="midnightblue" stroke="midnightblue" points="1599.09,-154.947 1607.19,-148.113 1596.6,-148.406 1599.09,-154.947"/>
</g>
<!-- Node30 -->
<g id="node31" class="node"><title>Node30</title>
<polygon fill="white" stroke="#bfbfbf" points="536,-129 536,-148 586,-148 586,-129 536,-129"/>
<text text-anchor="middle" x="561" y="-136" font-family="Helvetica,sans-Serif" font-size="10.00">iomanip</text>
</g>
<!-- Node24&#45;&gt;Node30 -->
<g id="edge53" class="edge"><title>Node24&#45;&gt;Node30</title>
<path fill="none" stroke="midnightblue" d="M1025.82,-199.3C942.252,-198.958 750.293,-193.485 595,-154 592.639,-153.4 590.23,-152.658 587.84,-151.831"/>
<polygon fill="midnightblue" stroke="midnightblue" points="588.875,-148.478 578.287,-148.088 586.321,-154.995 588.875,-148.478"/>
</g>
<!-- Node31 -->
<g id="node32" class="node"><title>Node31</title>
<polygon fill="white" stroke="#bfbfbf" points="604.5,-129 604.5,-148 653.5,-148 653.5,-129 604.5,-129"/>
<text text-anchor="middle" x="629" y="-136" font-family="Helvetica,sans-Serif" font-size="10.00">fstream</text>
</g>
<!-- Node24&#45;&gt;Node31 -->
<g id="edge55" class="edge"><title>Node24&#45;&gt;Node31</title>
<path fill="none" stroke="midnightblue" d="M1025.87,-198.347C951.44,-196.31 792.321,-187.971 663,-154 660.643,-153.381 658.238,-152.627 655.85,-151.791"/>
<polygon fill="midnightblue" stroke="midnightblue" points="656.889,-148.438 646.302,-148.033 654.325,-154.952 656.889,-148.438"/>
</g>
<!-- Node32 -->
<g id="node33" class="node"><title>Node32</title>
<polygon fill="white" stroke="#bfbfbf" points="672,-129 672,-148 776,-148 776,-129 672,-129"/>
<text text-anchor="middle" x="724" y="-136" font-family="Helvetica,sans-Serif" font-size="10.00">common/variant.hpp</text>
</g>
<!-- Node24&#45;&gt;Node32 -->
<g id="edge57" class="edge"><title>Node24&#45;&gt;Node32</title>
<path fill="none" stroke="midnightblue" d="M1025.63,-193.283C970.137,-185.563 869.914,-170.818 785,-154 779.461,-152.903 773.662,-151.655 767.936,-150.363"/>
<polygon fill="midnightblue" stroke="midnightblue" points="768.311,-146.857 757.779,-148.011 766.732,-153.676 768.311,-146.857"/>
</g>
<!-- Node24&#45;&gt;Node33 -->
<g id="edge58" class="edge"><title>Node24&#45;&gt;Node33</title>
<path fill="none" stroke="midnightblue" d="M1025.78,-196.965C921.576,-191.754 643.841,-176.72 413,-154 401.159,-152.835 388.643,-151.416 376.424,-149.928"/>
<polygon fill="midnightblue" stroke="midnightblue" points="376.605,-146.424 366.25,-148.666 375.743,-153.371 376.605,-146.424"/>
</g>
<!-- Node34 -->
<g id="node35" class="node"><title>Node34</title>
<g id="a_node35"><a xlink:href="_vector3_8hpp.html" target="_top" xlink:title="Math/Vector3.hpp">
<polygon fill="white" stroke="black" points="794,-129 794,-148 888,-148 888,-129 794,-129"/>
<text text-anchor="middle" x="841" y="-136" font-family="Helvetica,sans-Serif" font-size="10.00">Math/Vector3.hpp</text>
</a>
</g>
</g>
<!-- Node24&#45;&gt;Node34 -->
<g id="edge64" class="edge"><title>Node24&#45;&gt;Node34</title>
<path fill="none" stroke="midnightblue" d="M1035.48,-190.475C995.442,-179.982 927.362,-162.137 883.298,-150.587"/>
<polygon fill="midnightblue" stroke="midnightblue" points="884.024,-147.159 873.463,-148.009 882.249,-153.93 884.024,-147.159"/>
</g>
<!-- Node33&#45;&gt;Node6 -->
<g id="edge61" class="edge"><title>Node33&#45;&gt;Node6</title>
<path fill="none" stroke="midnightblue" d="M271.141,-123.396C248.114,-112.142 216.11,-96.501 193.677,-85.5375"/>
<polygon fill="midnightblue" stroke="midnightblue" points="194.928,-82.2534 184.407,-81.007 191.854,-88.5425 194.928,-82.2534"/>
</g>
<!-- Node33&#45;&gt;Node7 -->
<g id="edge60" class="edge"><title>Node33&#45;&gt;Node7</title>
<path fill="none" stroke="midnightblue" d="M366.258,-124.825C370.899,-124.143 375.514,-123.523 380,-123 734.178,-81.6762 1166.47,-74.14 1294.56,-72.7893"/>
<polygon fill="midnightblue" stroke="midnightblue" points="1294.67,-76.2885 1304.63,-72.6895 1294.6,-69.2889 1294.67,-76.2885"/>
</g>
<!-- Node33&#45;&gt;Node8 -->
<g id="edge59" class="edge"><title>Node33&#45;&gt;Node8</title>
<path fill="none" stroke="midnightblue" d="M300,-123.396C300,-115.645 300,-105.812 300,-96.8601"/>
<polygon fill="midnightblue" stroke="midnightblue" points="303.5,-96.5765 300,-86.5765 296.5,-96.5765 303.5,-96.5765"/>
</g>
<!-- Node33&#45;&gt;Node26 -->
<g id="edge62" class="edge"><title>Node33&#45;&gt;Node26</title>
<path fill="none" stroke="midnightblue" d="M366.316,-125.25C370.943,-124.466 375.539,-123.708 380,-123 503.125,-103.449 650.044,-84.7759 715.54,-76.6931"/>
<polygon fill="midnightblue" stroke="midnightblue" points="716.205,-80.1378 725.703,-75.4434 715.351,-73.1901 716.205,-80.1378"/>
</g>
<!-- Node35&#45;&gt;Node22 -->
<g id="edge68" class="edge"><title>Node35&#45;&gt;Node22</title>
<path fill="none" stroke="midnightblue" d="M1060.1,-307.975C1043.03,-298.211 1014.84,-282.081 994.738,-270.581"/>
<polygon fill="midnightblue" stroke="midnightblue" points="996.291,-267.437 985.873,-265.509 992.815,-273.513 996.291,-267.437"/>
</g>
<!-- Node35&#45;&gt;Node24 -->
<g id="edge69" class="edge"><title>Node35&#45;&gt;Node24</title>
<path fill="none" stroke="midnightblue" d="M1074.47,-307.819C1073.35,-289.257 1070.69,-245.339 1069.15,-219.973"/>
<polygon fill="midnightblue" stroke="midnightblue" points="1072.63,-219.552 1068.53,-209.782 1065.64,-219.975 1072.63,-219.552"/>
</g>
<!-- Node36&#45;&gt;Node7 -->
<g id="edge71" class="edge"><title>Node36&#45;&gt;Node7</title>
<path fill="none" stroke="midnightblue" d="M1631.55,-302.264C1677.69,-268.639 1781.54,-182.643 1729,-123 1705.4,-96.2047 1463.69,-79.8788 1369.39,-74.4871"/>
<polygon fill="midnightblue" stroke="midnightblue" points="1369.35,-70.9792 1359.17,-73.9125 1368.95,-77.9681 1369.35,-70.9792"/>
</g>
<!-- Node41&#45;&gt;Node7 -->
<g id="edge77" class="edge"><title>Node41&#45;&gt;Node7</title>
<path fill="none" stroke="midnightblue" d="M1292.28,-493.642C1295.57,-493.072 1298.82,-492.521 1302,-492 1428.75,-471.249 1869,-508.435 1869,-380 1869,-380 1869,-380 1869,-199 1869,-96.2627 1491.9,-76.8793 1369.72,-73.2953"/>
<polygon fill="midnightblue" stroke="midnightblue" points="1369.46,-69.787 1359.37,-73.0121 1369.27,-76.7844 1369.46,-69.787"/>
</g>
<!-- Node41&#45;&gt;Node8 -->
<g id="edge81" class="edge"><title>Node41&#45;&gt;Node8</title>
<path fill="none" stroke="midnightblue" d="M1223.25,-492.499C1218.93,-474.281 1208.82,-442.692 1188,-425 1018.6,-281.034 359.229,-331.216 225,-154 216.681,-143.017 218.527,-135.162 225,-123 231.944,-109.954 243.924,-99.6733 256.297,-91.8887"/>
<polygon fill="midnightblue" stroke="midnightblue" points="258.418,-94.7046 265.31,-86.6576 254.904,-88.6505 258.418,-94.7046"/>
</g>
<!-- Node41&#45;&gt;Node13 -->
<g id="edge82" class="edge"><title>Node41&#45;&gt;Node13</title>
<path fill="none" stroke="midnightblue" d="M1201.48,-492.396C1185.34,-483.112 1164.01,-470.841 1146.33,-460.674"/>
<polygon fill="midnightblue" stroke="midnightblue" points="1147.88,-457.529 1137.47,-455.577 1144.39,-463.597 1147.88,-457.529"/>
</g>
<!-- Node41&#45;&gt;Node14 -->
<g id="edge80" class="edge"><title>Node41&#45;&gt;Node14</title>
<path fill="none" stroke="midnightblue" d="M1228.11,-492.479C1231.54,-469.616 1238.35,-424.296 1242.19,-398.713"/>
<polygon fill="midnightblue" stroke="midnightblue" points="1245.66,-399.198 1243.68,-388.789 1238.73,-398.158 1245.66,-399.198"/>
</g>
<!-- Node41&#45;&gt;Node15 -->
<g id="edge79" class="edge"><title>Node41&#45;&gt;Node15</title>
<path fill="none" stroke="midnightblue" d="M1241.46,-492.371C1288.91,-449.006 1432.24,-318.014 1481.87,-272.658"/>
<polygon fill="midnightblue" stroke="midnightblue" points="1484.48,-275.01 1489.5,-265.68 1479.76,-269.843 1484.48,-275.01"/>
</g>
<!-- Node41&#45;&gt;Node29 -->
<g id="edge78" class="edge"><title>Node41&#45;&gt;Node29</title>
<path fill="none" stroke="midnightblue" d="M1292.15,-493.468C1441.72,-463.78 1793,-392.702 1793,-380 1793,-380 1793,-380 1793,-255 1793,-191.555 1710.63,-160.331 1661.25,-147.312"/>
<polygon fill="midnightblue" stroke="midnightblue" points="1661.8,-143.842 1651.25,-144.805 1660.1,-150.632 1661.8,-143.842"/>
</g>
</g>
</svg>
