<?xml version="1.0" encoding="UTF-8" standalone="no"?>
<!DOCTYPE svg PUBLIC "-//W3C//DTD SVG 1.1//EN"
 "http://www.w3.org/Graphics/SVG/1.1/DTD/svg11.dtd">
<!-- Generated by graphviz version 2.38.0 (20140413.2041)
 -->
<!-- Title: NFCAOIModule.h Pages: 1 -->
<svg width="424pt" height="84pt"
 viewBox="0.00 0.00 424.00 84.00" xmlns="http://www.w3.org/2000/svg" xmlns:xlink="http://www.w3.org/1999/xlink">
<g id="graph0" class="graph" transform="scale(1 1) rotate(0) translate(4 80)">
<title>NFCAOIModule.h</title>
<polygon fill="white" stroke="none" points="-4,4 -4,-80 420,-80 420,4 -4,4"/>
<!-- Node0 -->
<g id="node1" class="node"><title>Node0</title>
<polygon fill="#bfbfbf" stroke="black" points="248.5,-56.5 248.5,-75.5 340.5,-75.5 340.5,-56.5 248.5,-56.5"/>
<text text-anchor="middle" x="294.5" y="-63.5" font-family="Helvetica,sans-Serif" font-size="10.00">NFCAOIModule.h</text>
</g>
<!-- Node1 -->
<g id="node2" class="node"><title>Node1</title>
<polygon fill="white" stroke="#bfbfbf" points="0,-0.5 0,-19.5 141,-19.5 141,-0.5 0,-0.5"/>
<text text-anchor="middle" x="70.5" y="-7.5" font-family="Helvetica,sans-Serif" font-size="10.00">NFComm/NFCore/NFGUID.h</text>
</g>
<!-- Node0&#45;&gt;Node1 -->
<g id="edge1" class="edge"><title>Node0&#45;&gt;Node1</title>
<path fill="none" stroke="midnightblue" d="M259.007,-56.4435C220.176,-47.0826 157.844,-32.0561 115.582,-21.868"/>
<polygon fill="midnightblue" stroke="midnightblue" points="116.369,-18.4576 105.827,-19.5164 114.729,-25.2626 116.369,-18.4576"/>
</g>
<!-- Node2 -->
<g id="node3" class="node"><title>Node2</title>
<polygon fill="white" stroke="#bfbfbf" points="159.5,-0.5 159.5,-19.5 315.5,-19.5 315.5,-0.5 159.5,-0.5"/>
<text text-anchor="middle" x="237.5" y="-7.5" font-family="Helvetica,sans-Serif" font-size="10.00">NFComm/NFCore/NFIDataList.h</text>
</g>
<!-- Node0&#45;&gt;Node2 -->
<g id="edge2" class="edge"><title>Node0&#45;&gt;Node2</title>
<path fill="none" stroke="midnightblue" d="M285.342,-56.324C276.999,-48.4196 264.468,-36.5482 254.323,-26.9377"/>
<polygon fill="midnightblue" stroke="midnightblue" points="256.491,-24.1705 246.825,-19.8339 251.677,-29.2522 256.491,-24.1705"/>
</g>
<!-- Node3 -->
<g id="node4" class="node"><title>Node3</title>
<polygon fill="white" stroke="#bfbfbf" points="334,-0.5 334,-19.5 369,-19.5 369,-0.5 334,-0.5"/>
<text text-anchor="middle" x="351.5" y="-7.5" font-family="Helvetica,sans-Serif" font-size="10.00">map</text>
</g>
<!-- Node0&#45;&gt;Node3 -->
<g id="edge3" class="edge"><title>Node0&#45;&gt;Node3</title>
<path fill="none" stroke="midnightblue" d="M303.658,-56.324C312.001,-48.4196 324.532,-36.5482 334.677,-26.9377"/>
<polygon fill="midnightblue" stroke="midnightblue" points="337.323,-29.2522 342.175,-19.8339 332.509,-24.1705 337.323,-29.2522"/>
</g>
<!-- Node4 -->
<g id="node5" class="node"><title>Node4</title>
<polygon fill="white" stroke="#bfbfbf" points="387,-0.5 387,-19.5 416,-19.5 416,-0.5 387,-0.5"/>
<text text-anchor="middle" x="401.5" y="-7.5" font-family="Helvetica,sans-Serif" font-size="10.00">list</text>
</g>
<!-- Node0&#45;&gt;Node4 -->
<g id="edge4" class="edge"><title>Node0&#45;&gt;Node4</title>
<path fill="none" stroke="midnightblue" d="M311.691,-56.324C329.562,-47.3054 357.665,-33.1223 377.672,-23.0255"/>
<polygon fill="midnightblue" stroke="midnightblue" points="379.412,-26.0678 386.762,-18.4376 376.258,-19.8185 379.412,-26.0678"/>
</g>
</g>
</svg>
