<?xml version="1.0" encoding="UTF-8" standalone="no"?>
<!DOCTYPE svg PUBLIC "-//W3C//DTD SVG 1.1//EN"
 "http://www.w3.org/Graphics/SVG/1.1/DTD/svg11.dtd">
<!-- Generated by graphviz version 2.38.0 (20140413.2041)
 -->
<!-- Title: NFCWorldLogicModule.h Pages: 1 -->
<svg width="286pt" height="84pt"
 viewBox="0.00 0.00 285.50 84.00" xmlns="http://www.w3.org/2000/svg" xmlns:xlink="http://www.w3.org/1999/xlink">
<g id="graph0" class="graph" transform="scale(1 1) rotate(0) translate(4 80)">
<title>NFCWorldLogicModule.h</title>
<polygon fill="white" stroke="none" points="-4,4 -4,-80 281.5,-80 281.5,4 -4,4"/>
<!-- Node44 -->
<g id="node1" class="node"><title>Node44</title>
<polygon fill="#bfbfbf" stroke="black" points="79,-56.5 79,-75.5 204,-75.5 204,-56.5 79,-56.5"/>
<text text-anchor="middle" x="141.5" y="-63.5" font-family="Helvetica,sans-Serif" font-size="10.00">NFCWorldLogicModule.h</text>
</g>
<!-- Node45 -->
<g id="node2" class="node"><title>Node45</title>
<g id="a_node2"><a xlink:href="_n_f_c_world_logic_module_8cpp.html" target="_top" xlink:title="NFCWorldLogicModule.cpp">
<polygon fill="white" stroke="black" points="0,-0.5 0,-19.5 135,-19.5 135,-0.5 0,-0.5"/>
<text text-anchor="middle" x="67.5" y="-7.5" font-family="Helvetica,sans-Serif" font-size="10.00">NFCWorldLogicModule.cpp</text>
</a>
</g>
</g>
<!-- Node44&#45;&gt;Node45 -->
<g id="edge1" class="edge"><title>Node44&#45;&gt;Node45</title>
<path fill="none" stroke="midnightblue" d="M121.466,-50.3804C108.091,-40.6204 90.9412,-28.1057 79.6057,-19.8339"/>
<polygon fill="midnightblue" stroke="midnightblue" points="119.47,-53.2565 129.611,-56.324 123.596,-47.602 119.47,-53.2565"/>
</g>
<!-- Node46 -->
<g id="node3" class="node"><title>Node46</title>
<g id="a_node3"><a xlink:href="_n_f_world_logic_plugin_8cpp.html" target="_top" xlink:title="NFWorldLogicPlugin.cpp">
<polygon fill="white" stroke="black" points="153.5,-0.5 153.5,-19.5 277.5,-19.5 277.5,-0.5 153.5,-0.5"/>
<text text-anchor="middle" x="215.5" y="-7.5" font-family="Helvetica,sans-Serif" font-size="10.00">NFWorldLogicPlugin.cpp</text>
</a>
</g>
</g>
<!-- Node44&#45;&gt;Node46 -->
<g id="edge2" class="edge"><title>Node44&#45;&gt;Node46</title>
<path fill="none" stroke="midnightblue" d="M161.534,-50.3804C174.909,-40.6204 192.059,-28.1057 203.394,-19.8339"/>
<polygon fill="midnightblue" stroke="midnightblue" points="159.404,-47.602 153.389,-56.324 163.53,-53.2565 159.404,-47.602"/>
</g>
</g>
</svg>
