<?xml version="1.0" encoding="UTF-8" standalone="no"?>
<!DOCTYPE svg PUBLIC "-//W3C//DTD SVG 1.1//EN"
 "http://www.w3.org/Graphics/SVG/1.1/DTD/svg11.dtd">
<!-- Generated by graphviz version 2.38.0 (20140413.2041)
 -->
<!-- Title: NFIEventManager.h Pages: 1 -->
<svg width="1912pt" height="330pt"
 viewBox="0.00 0.00 1911.50 330.00" xmlns="http://www.w3.org/2000/svg" xmlns:xlink="http://www.w3.org/1999/xlink">
<g id="graph0" class="graph" transform="scale(1 1) rotate(0) translate(4 326)">
<title>NFIEventManager.h</title>
<polygon fill="white" stroke="none" points="-4,4 -4,-326 1907.5,-326 1907.5,4 -4,4"/>
<!-- Node0 -->
<g id="node1" class="node"><title>Node0</title>
<polygon fill="#bfbfbf" stroke="black" points="311,-302.5 311,-321.5 412,-321.5 412,-302.5 311,-302.5"/>
<text text-anchor="middle" x="361.5" y="-309.5" font-family="Helvetica,sans-Serif" font-size="10.00">NFIEventManager.h</text>
</g>
<!-- Node1 -->
<g id="node2" class="node"><title>Node1</title>
<polygon fill="white" stroke="#bfbfbf" points="253.5,-56.5 253.5,-75.5 307.5,-75.5 307.5,-56.5 253.5,-56.5"/>
<text text-anchor="middle" x="280.5" y="-63.5" font-family="Helvetica,sans-Serif" font-size="10.00">iostream</text>
</g>
<!-- Node0&#45;&gt;Node1 -->
<g id="edge1" class="edge"><title>Node0&#45;&gt;Node1</title>
<path fill="none" stroke="midnightblue" d="M343.66,-302.396C303.233,-281.716 205.594,-224.802 172.5,-143 167.333,-130.228 164.857,-123.464 172.5,-112 188.176,-88.4865 218.711,-77.2396 243.324,-71.8711"/>
<polygon fill="midnightblue" stroke="midnightblue" points="244.297,-75.2479 253.45,-69.9117 242.967,-68.3754 244.297,-75.2479"/>
</g>
<!-- Node2 -->
<g id="node3" class="node"><title>Node2</title>
<polygon fill="white" stroke="#bfbfbf" points="181.5,-118 181.5,-137 239.5,-137 239.5,-118 181.5,-118"/>
<text text-anchor="middle" x="210.5" y="-125" font-family="Helvetica,sans-Serif" font-size="10.00">functional</text>
</g>
<!-- Node0&#45;&gt;Node2 -->
<g id="edge2" class="edge"><title>Node0&#45;&gt;Node2</title>
<path fill="none" stroke="midnightblue" d="M352.916,-302.229C344.271,-293.298 330.653,-278.96 319.5,-266 283.062,-223.659 242.897,-171.424 223.041,-145.195"/>
<polygon fill="midnightblue" stroke="midnightblue" points="225.721,-142.936 216.904,-137.061 220.133,-147.152 225.721,-142.936"/>
</g>
<!-- Node3 -->
<g id="node4" class="node"><title>Node3</title>
<g id="a_node4"><a xlink:href="_n_f_define_8h.html" target="_top" xlink:title="NFDefine.h">
<polygon fill="white" stroke="black" points="329,-241 329,-260 394,-260 394,-241 329,-241"/>
<text text-anchor="middle" x="361.5" y="-248" font-family="Helvetica,sans-Serif" font-size="10.00">NFDefine.h</text>
</a>
</g>
</g>
<!-- Node0&#45;&gt;Node3 -->
<g id="edge3" class="edge"><title>Node0&#45;&gt;Node3</title>
<path fill="none" stroke="midnightblue" d="M361.5,-302.475C361.5,-294.08 361.5,-280.981 361.5,-270.163"/>
<polygon fill="midnightblue" stroke="midnightblue" points="365,-270.009 361.5,-260.009 358,-270.009 365,-270.009"/>
</g>
<!-- Node4 -->
<g id="node5" class="node"><title>Node4</title>
<g id="a_node5"><a xlink:href="_a_f_data_list_8hpp.html" target="_top" xlink:title="AFDataList.hpp">
<polygon fill="white" stroke="black" points="838.5,-179.5 838.5,-198.5 922.5,-198.5 922.5,-179.5 838.5,-179.5"/>
<text text-anchor="middle" x="880.5" y="-186.5" font-family="Helvetica,sans-Serif" font-size="10.00">AFDataList.hpp</text>
</a>
</g>
</g>
<!-- Node0&#45;&gt;Node4 -->
<g id="edge49" class="edge"><title>Node0&#45;&gt;Node4</title>
<path fill="none" stroke="midnightblue" d="M397.995,-302.492C490.012,-281.039 731.421,-224.756 833.668,-200.918"/>
<polygon fill="midnightblue" stroke="midnightblue" points="834.754,-204.259 843.699,-198.58 833.165,-197.442 834.754,-204.259"/>
</g>
<!-- Node27 -->
<g id="node28" class="node"><title>Node27</title>
<g id="a_node28"><a xlink:href="_n_f_list_8h.html" target="_top" xlink:title="NFList.h">
<polygon fill="white" stroke="black" points="1398,-179.5 1398,-198.5 1451,-198.5 1451,-179.5 1398,-179.5"/>
<text text-anchor="middle" x="1424.5" y="-186.5" font-family="Helvetica,sans-Serif" font-size="10.00">NFList.h</text>
</a>
</g>
</g>
<!-- Node0&#45;&gt;Node27 -->
<g id="edge35" class="edge"><title>Node0&#45;&gt;Node27</title>
<path fill="none" stroke="midnightblue" d="M412.056,-305.245C595.976,-284.31 1227.06,-212.474 1387.28,-194.237"/>
<polygon fill="midnightblue" stroke="midnightblue" points="1388.03,-197.674 1397.57,-193.066 1387.23,-190.719 1388.03,-197.674"/>
</g>
<!-- Node28 -->
<g id="node29" class="node"><title>Node28</title>
<g id="a_node29"><a xlink:href="_n_f_map_ex_8h.html" target="_top" xlink:title="NFMapEx.h">
<polygon fill="white" stroke="black" points="1495.5,-179.5 1495.5,-198.5 1563.5,-198.5 1563.5,-179.5 1495.5,-179.5"/>
<text text-anchor="middle" x="1529.5" y="-186.5" font-family="Helvetica,sans-Serif" font-size="10.00">NFMapEx.h</text>
</a>
</g>
</g>
<!-- Node0&#45;&gt;Node28 -->
<g id="edge41" class="edge"><title>Node0&#45;&gt;Node28</title>
<path fill="none" stroke="midnightblue" d="M412.277,-307.454C508.701,-300.578 724.915,-284.47 906.5,-266 1153.24,-240.902 1214.42,-229.928 1460.5,-199 1468.6,-197.983 1477.22,-196.875 1485.54,-195.797"/>
<polygon fill="midnightblue" stroke="midnightblue" points="1486,-199.266 1495.47,-194.504 1485.1,-192.325 1486,-199.266"/>
</g>
<!-- Node29 -->
<g id="node30" class="node"><title>Node29</title>
<g id="a_node30"><a xlink:href="_n_f_event_define_8h.html" target="_top" xlink:title="NFComm/NFEventDefine\l/NFEventDefine.h">
<polygon fill="white" stroke="black" points="0,-235.5 0,-265.5 125,-265.5 125,-235.5 0,-235.5"/>
<text text-anchor="start" x="8" y="-253.5" font-family="Helvetica,sans-Serif" font-size="10.00">NFComm/NFEventDefine</text>
<text text-anchor="middle" x="62.5" y="-242.5" font-family="Helvetica,sans-Serif" font-size="10.00">/NFEventDefine.h</text>
</a>
</g>
</g>
<!-- Node0&#45;&gt;Node29 -->
<g id="edge50" class="edge"><title>Node0&#45;&gt;Node29</title>
<path fill="none" stroke="midnightblue" d="M318.661,-302.475C270.829,-292.957 192.602,-277.39 135.16,-265.959"/>
<polygon fill="midnightblue" stroke="midnightblue" points="135.54,-262.466 125.049,-263.947 134.174,-269.332 135.54,-262.466"/>
</g>
<!-- Node3&#45;&gt;Node2 -->
<g id="edge4" class="edge"><title>Node3&#45;&gt;Node2</title>
<path fill="none" stroke="midnightblue" d="M350.64,-240.798C325.174,-220.391 261.353,-169.25 229.377,-143.627"/>
<polygon fill="midnightblue" stroke="midnightblue" points="231.253,-140.645 221.261,-137.123 226.876,-146.108 231.253,-140.645"/>
</g>
<!-- Node3&#45;&gt;Node4 -->
<g id="edge5" class="edge"><title>Node3&#45;&gt;Node4</title>
<path fill="none" stroke="midnightblue" d="M394.36,-245.733C481.911,-235.696 721.386,-208.241 828.047,-196.013"/>
<polygon fill="midnightblue" stroke="midnightblue" points="828.714,-199.46 838.25,-194.844 827.916,-192.506 828.714,-199.46"/>
</g>
<!-- Node19 -->
<g id="node20" class="node"><title>Node19</title>
<g id="a_node20"><a xlink:href="_n_f_g_u_i_d_8h.html" target="_top" xlink:title="NFComm/NFPluginModule\l/NFGUID.h">
<polygon fill="white" stroke="black" points="295.5,-112.5 295.5,-142.5 427.5,-142.5 427.5,-112.5 295.5,-112.5"/>
<text text-anchor="start" x="303.5" y="-130.5" font-family="Helvetica,sans-Serif" font-size="10.00">NFComm/NFPluginModule</text>
<text text-anchor="middle" x="361.5" y="-119.5" font-family="Helvetica,sans-Serif" font-size="10.00">/NFGUID.h</text>
</a>
</g>
</g>
<!-- Node3&#45;&gt;Node19 -->
<g id="edge34" class="edge"><title>Node3&#45;&gt;Node19</title>
<path fill="none" stroke="midnightblue" d="M361.5,-240.798C361.5,-222.605 361.5,-179.983 361.5,-152.794"/>
<polygon fill="midnightblue" stroke="midnightblue" points="365,-152.539 361.5,-142.539 358,-152.539 365,-152.539"/>
</g>
<!-- Node4&#45;&gt;Node1 -->
<g id="edge8" class="edge"><title>Node4&#45;&gt;Node1</title>
<path fill="none" stroke="midnightblue" d="M838.247,-187.904C709.007,-187.188 325.412,-181.788 286.5,-143 271.736,-128.283 272.868,-102.908 275.924,-85.5596"/>
<polygon fill="midnightblue" stroke="midnightblue" points="279.404,-86.0207 278.063,-75.5111 272.558,-84.5634 279.404,-86.0207"/>
</g>
<!-- Node4&#45;&gt;Node2 -->
<g id="edge18" class="edge"><title>Node4&#45;&gt;Node2</title>
<path fill="none" stroke="midnightblue" d="M838.181,-188.634C736.374,-189.367 470.16,-186.568 253.5,-143 249.807,-142.257 245.994,-141.286 242.234,-140.198"/>
<polygon fill="midnightblue" stroke="midnightblue" points="243.115,-136.806 232.524,-137.12 240.999,-143.479 243.115,-136.806"/>
</g>
<!-- Node5 -->
<g id="node6" class="node"><title>Node5</title>
<polygon fill="white" stroke="#bfbfbf" points="1517,-0.5 1517,-19.5 1558,-19.5 1558,-0.5 1517,-0.5"/>
<text text-anchor="middle" x="1537.5" y="-7.5" font-family="Helvetica,sans-Serif" font-size="10.00">string</text>
</g>
<!-- Node4&#45;&gt;Node5 -->
<g id="edge6" class="edge"><title>Node4&#45;&gt;Node5</title>
<path fill="none" stroke="midnightblue" d="M922.815,-186.387C969.631,-183.084 1046.16,-173.093 1104.5,-143 1122.38,-133.775 1119.85,-121.661 1137.5,-112 1263.04,-43.2948 1436.29,-20.311 1506.29,-13.5315"/>
<polygon fill="midnightblue" stroke="midnightblue" points="1506.98,-16.9828 1516.62,-12.5781 1506.34,-10.0125 1506.98,-16.9828"/>
</g>
<!-- Node6 -->
<g id="node7" class="node"><title>Node6</title>
<polygon fill="white" stroke="#bfbfbf" points="983.5,-118 983.5,-137 1029.5,-137 1029.5,-118 983.5,-118"/>
<text text-anchor="middle" x="1006.5" y="-125" font-family="Helvetica,sans-Serif" font-size="10.00">cstring</text>
</g>
<!-- Node4&#45;&gt;Node6 -->
<g id="edge7" class="edge"><title>Node4&#45;&gt;Node6</title>
<path fill="none" stroke="midnightblue" d="M898.553,-179.475C919.698,-169.49 954.94,-152.848 979.378,-141.307"/>
<polygon fill="midnightblue" stroke="midnightblue" points="980.933,-144.444 988.481,-137.009 977.944,-138.114 980.933,-144.444"/>
</g>
<!-- Node7 -->
<g id="node8" class="node"><title>Node7</title>
<polygon fill="white" stroke="#bfbfbf" points="667.5,-56.5 667.5,-75.5 715.5,-75.5 715.5,-56.5 667.5,-56.5"/>
<text text-anchor="middle" x="691.5" y="-63.5" font-family="Helvetica,sans-Serif" font-size="10.00">stdlib.h</text>
</g>
<!-- Node4&#45;&gt;Node7 -->
<g id="edge9" class="edge"><title>Node4&#45;&gt;Node7</title>
<path fill="none" stroke="midnightblue" d="M898.002,-179.465C911.287,-171.917 928.576,-159.533 936.5,-143 942.455,-130.576 945.319,-122.586 936.5,-112 910.127,-80.3413 787.265,-70.8803 726.174,-68.112"/>
<polygon fill="midnightblue" stroke="midnightblue" points="726.01,-64.6022 715.873,-67.6824 725.718,-71.5961 726.01,-64.6022"/>
</g>
<!-- Node8 -->
<g id="node9" class="node"><title>Node8</title>
<polygon fill="white" stroke="#bfbfbf" points="1048,-118 1048,-137 1095,-137 1095,-118 1048,-118"/>
<text text-anchor="middle" x="1071.5" y="-125" font-family="Helvetica,sans-Serif" font-size="10.00">math.h</text>
</g>
<!-- Node4&#45;&gt;Node8 -->
<g id="edge10" class="edge"><title>Node4&#45;&gt;Node8</title>
<path fill="none" stroke="midnightblue" d="M915.766,-179.43C948.076,-171.232 997.042,-157.933 1038.5,-143 1040.16,-142.402 1041.85,-141.76 1043.55,-141.091"/>
<polygon fill="midnightblue" stroke="midnightblue" points="1045.3,-144.158 1053.18,-137.08 1042.6,-137.696 1045.3,-144.158"/>
</g>
<!-- Node9 -->
<g id="node10" class="node"><title>Node9</title>
<polygon fill="white" stroke="#bfbfbf" points="1440,-118 1440,-137 1469,-137 1469,-118 1440,-118"/>
<text text-anchor="middle" x="1454.5" y="-125" font-family="Helvetica,sans-Serif" font-size="10.00">list</text>
</g>
<!-- Node4&#45;&gt;Node9 -->
<g id="edge11" class="edge"><title>Node4&#45;&gt;Node9</title>
<path fill="none" stroke="midnightblue" d="M922.559,-186.328C1010.36,-182.394 1219.36,-170.71 1392.5,-143 1404.91,-141.014 1418.52,-137.933 1429.82,-135.121"/>
<polygon fill="midnightblue" stroke="midnightblue" points="1431.02,-138.427 1439.83,-132.551 1429.28,-131.647 1431.02,-138.427"/>
</g>
<!-- Node10 -->
<g id="node11" class="node"><title>Node10</title>
<polygon fill="white" stroke="#bfbfbf" points="445.5,-118 445.5,-137 487.5,-137 487.5,-118 445.5,-118"/>
<text text-anchor="middle" x="466.5" y="-125" font-family="Helvetica,sans-Serif" font-size="10.00">vector</text>
</g>
<!-- Node4&#45;&gt;Node10 -->
<g id="edge12" class="edge"><title>Node4&#45;&gt;Node10</title>
<path fill="none" stroke="midnightblue" d="M838.4,-187.612C766.759,-185.955 617.173,-178.15 496.5,-143 494.626,-142.454 492.724,-141.8 490.835,-141.076"/>
<polygon fill="midnightblue" stroke="midnightblue" points="492.241,-137.871 481.678,-137.047 489.422,-144.278 492.241,-137.871"/>
</g>
<!-- Node11 -->
<g id="node12" class="node"><title>Node11</title>
<polygon fill="white" stroke="#bfbfbf" points="1526,-118 1526,-137 1561,-137 1561,-118 1526,-118"/>
<text text-anchor="middle" x="1543.5" y="-125" font-family="Helvetica,sans-Serif" font-size="10.00">map</text>
</g>
<!-- Node4&#45;&gt;Node11 -->
<g id="edge13" class="edge"><title>Node4&#45;&gt;Node11</title>
<path fill="none" stroke="midnightblue" d="M922.783,-186.914C1020.9,-183.938 1271.5,-173.713 1478.5,-143 1490.93,-141.155 1504.53,-138.262 1516.06,-135.544"/>
<polygon fill="midnightblue" stroke="midnightblue" points="1517.08,-138.897 1525.97,-133.132 1515.43,-132.095 1517.08,-138.897"/>
</g>
<!-- Node12 -->
<g id="node13" class="node"><title>Node12</title>
<polygon fill="white" stroke="#bfbfbf" points="1189.5,-118 1189.5,-137 1245.5,-137 1245.5,-118 1189.5,-118"/>
<text text-anchor="middle" x="1217.5" y="-125" font-family="Helvetica,sans-Serif" font-size="10.00">algorithm</text>
</g>
<!-- Node4&#45;&gt;Node12 -->
<g id="edge14" class="edge"><title>Node4&#45;&gt;Node12</title>
<path fill="none" stroke="midnightblue" d="M922.985,-183.962C980.737,-177.921 1086.97,-164.842 1175.5,-143 1178.72,-142.205 1182.04,-141.269 1185.35,-140.26"/>
<polygon fill="midnightblue" stroke="midnightblue" points="1186.64,-143.52 1195.06,-137.088 1184.46,-136.866 1186.64,-143.52"/>
</g>
<!-- Node13 -->
<g id="node14" class="node"><title>Node13</title>
<polygon fill="white" stroke="#bfbfbf" points="505.5,-118 505.5,-137 557.5,-137 557.5,-118 505.5,-118"/>
<text text-anchor="middle" x="531.5" y="-125" font-family="Helvetica,sans-Serif" font-size="10.00">assert.h</text>
</g>
<!-- Node4&#45;&gt;Node13 -->
<g id="edge15" class="edge"><title>Node4&#45;&gt;Node13</title>
<path fill="none" stroke="midnightblue" d="M838.424,-185.328C777.53,-180.71 661.702,-169.097 566.5,-143 564.058,-142.331 561.559,-141.535 559.075,-140.665"/>
<polygon fill="midnightblue" stroke="midnightblue" points="560.314,-137.392 549.724,-137.061 557.796,-143.923 560.314,-137.392"/>
</g>
<!-- Node14 -->
<g id="node15" class="node"><title>Node14</title>
<polygon fill="white" stroke="#bfbfbf" points="1263.5,-118 1263.5,-137 1313.5,-137 1313.5,-118 1263.5,-118"/>
<text text-anchor="middle" x="1288.5" y="-125" font-family="Helvetica,sans-Serif" font-size="10.00">typeinfo</text>
</g>
<!-- Node4&#45;&gt;Node14 -->
<g id="edge16" class="edge"><title>Node4&#45;&gt;Node14</title>
<path fill="none" stroke="midnightblue" d="M922.74,-186.798C992.805,-183.949 1136.99,-174.44 1254.5,-143 1256.85,-142.37 1259.26,-141.608 1261.64,-140.767"/>
<polygon fill="midnightblue" stroke="midnightblue" points="1263.17,-143.927 1271.19,-137.001 1260.6,-137.415 1263.17,-143.927"/>
</g>
<!-- Node15 -->
<g id="node16" class="node"><title>Node15</title>
<polygon fill="white" stroke="#bfbfbf" points="575.5,-118 575.5,-137 625.5,-137 625.5,-118 575.5,-118"/>
<text text-anchor="middle" x="600.5" y="-125" font-family="Helvetica,sans-Serif" font-size="10.00">iomanip</text>
</g>
<!-- Node4&#45;&gt;Node15 -->
<g id="edge17" class="edge"><title>Node4&#45;&gt;Node15</title>
<path fill="none" stroke="midnightblue" d="M838.253,-182.999C788.916,-176.529 705.178,-163.581 635.5,-143 633.211,-142.324 630.869,-141.548 628.533,-140.715"/>
<polygon fill="midnightblue" stroke="midnightblue" points="629.717,-137.42 619.128,-137.071 627.187,-143.947 629.717,-137.42"/>
</g>
<!-- Node16 -->
<g id="node17" class="node"><title>Node16</title>
<polygon fill="white" stroke="#bfbfbf" points="644,-118 644,-137 693,-137 693,-118 644,-118"/>
<text text-anchor="middle" x="668.5" y="-125" font-family="Helvetica,sans-Serif" font-size="10.00">fstream</text>
</g>
<!-- Node4&#45;&gt;Node16 -->
<g id="edge19" class="edge"><title>Node4&#45;&gt;Node16</title>
<path fill="none" stroke="midnightblue" d="M838.968,-179.422C802.552,-171.448 748.408,-158.487 702.5,-143 700.585,-142.354 698.626,-141.647 696.663,-140.905"/>
<polygon fill="midnightblue" stroke="midnightblue" points="697.587,-137.503 687.003,-137.008 694.968,-143.995 697.587,-137.503"/>
</g>
<!-- Node17 -->
<g id="node18" class="node"><title>Node17</title>
<polygon fill="white" stroke="#bfbfbf" points="1331.5,-118 1331.5,-137 1383.5,-137 1383.5,-118 1331.5,-118"/>
<text text-anchor="middle" x="1357.5" y="-125" font-family="Helvetica,sans-Serif" font-size="10.00">memory</text>
</g>
<!-- Node4&#45;&gt;Node17 -->
<g id="edge20" class="edge"><title>Node4&#45;&gt;Node17</title>
<path fill="none" stroke="midnightblue" d="M922.638,-187.761C1002.08,-186.425 1178.9,-179.225 1322.5,-143 1325.01,-142.367 1327.58,-141.585 1330.12,-140.716"/>
<polygon fill="midnightblue" stroke="midnightblue" points="1331.59,-143.902 1339.68,-137.057 1329.09,-137.365 1331.59,-143.902"/>
</g>
<!-- Node18 -->
<g id="node19" class="node"><title>Node18</title>
<polygon fill="white" stroke="#bfbfbf" points="711.5,-118 711.5,-137 815.5,-137 815.5,-118 711.5,-118"/>
<text text-anchor="middle" x="763.5" y="-125" font-family="Helvetica,sans-Serif" font-size="10.00">common/variant.hpp</text>
</g>
<!-- Node4&#45;&gt;Node18 -->
<g id="edge21" class="edge"><title>Node4&#45;&gt;Node18</title>
<path fill="none" stroke="midnightblue" d="M863.737,-179.475C844.275,-169.578 811.955,-153.142 789.289,-141.615"/>
<polygon fill="midnightblue" stroke="midnightblue" points="790.732,-138.422 780.232,-137.009 787.559,-144.662 790.732,-138.422"/>
</g>
<!-- Node4&#45;&gt;Node19 -->
<g id="edge22" class="edge"><title>Node4&#45;&gt;Node19</title>
<path fill="none" stroke="midnightblue" d="M838.412,-185.003C761.077,-179.222 590.997,-165.231 437.766,-143.103"/>
<polygon fill="midnightblue" stroke="midnightblue" points="438.099,-139.614 427.698,-141.633 437.088,-146.541 438.099,-139.614"/>
</g>
<!-- Node20 -->
<g id="node21" class="node"><title>Node20</title>
<g id="a_node21"><a xlink:href="_n_f_platform_8h.html" target="_top" xlink:title="NFPlatform.h">
<polygon fill="white" stroke="black" points="1628.5,-56.5 1628.5,-75.5 1702.5,-75.5 1702.5,-56.5 1628.5,-56.5"/>
<text text-anchor="middle" x="1665.5" y="-63.5" font-family="Helvetica,sans-Serif" font-size="10.00">NFPlatform.h</text>
</a>
</g>
</g>
<!-- Node4&#45;&gt;Node20 -->
<g id="edge32" class="edge"><title>Node4&#45;&gt;Node20</title>
<path fill="none" stroke="midnightblue" d="M922.62,-186.392C974.904,-183.119 1065.92,-173.179 1137.5,-143 1159.21,-133.847 1158.44,-120.268 1180.5,-112 1259.91,-82.2385 1512.6,-71.4892 1618.3,-68.2296"/>
<polygon fill="midnightblue" stroke="midnightblue" points="1618.47,-71.7263 1628.36,-67.9285 1618.26,-64.7294 1618.47,-71.7263"/>
</g>
<!-- Node26 -->
<g id="node27" class="node"><title>Node26</title>
<g id="a_node27"><a xlink:href="_vector3_8hpp.html" target="_top" xlink:title="Math/Vector3.hpp">
<polygon fill="white" stroke="black" points="833.5,-118 833.5,-137 927.5,-137 927.5,-118 833.5,-118"/>
<text text-anchor="middle" x="880.5" y="-125" font-family="Helvetica,sans-Serif" font-size="10.00">Math/Vector3.hpp</text>
</a>
</g>
</g>
<!-- Node4&#45;&gt;Node26 -->
<g id="edge33" class="edge"><title>Node4&#45;&gt;Node26</title>
<path fill="none" stroke="midnightblue" d="M880.5,-179.475C880.5,-171.08 880.5,-157.981 880.5,-147.163"/>
<polygon fill="midnightblue" stroke="midnightblue" points="884,-147.009 880.5,-137.009 877,-147.009 884,-147.009"/>
</g>
<!-- Node19&#45;&gt;Node1 -->
<g id="edge29" class="edge"><title>Node19&#45;&gt;Node1</title>
<path fill="none" stroke="midnightblue" d="M342.304,-112.399C329.684,-103.129 313.207,-91.0254 300.439,-81.6469"/>
<polygon fill="midnightblue" stroke="midnightblue" points="302.418,-78.7572 292.286,-75.6578 298.273,-84.3987 302.418,-78.7572"/>
</g>
<!-- Node19&#45;&gt;Node7 -->
<g id="edge31" class="edge"><title>Node19&#45;&gt;Node7</title>
<path fill="none" stroke="midnightblue" d="M427.742,-113.632C430.701,-113.077 433.631,-112.53 436.5,-112 515.367,-97.4183 608.157,-81.3051 657.159,-72.8771"/>
<polygon fill="midnightblue" stroke="midnightblue" points="657.953,-76.2922 667.216,-71.1497 656.768,-69.3932 657.953,-76.2922"/>
</g>
<!-- Node19&#45;&gt;Node20 -->
<g id="edge23" class="edge"><title>Node19&#45;&gt;Node20</title>
<path fill="none" stroke="midnightblue" d="M427.668,-113.133C430.647,-112.713 433.601,-112.331 436.5,-112 671.746,-85.1157 1421.88,-71.0377 1618.14,-67.7556"/>
<polygon fill="midnightblue" stroke="midnightblue" points="1618.46,-71.2508 1628.4,-67.5854 1618.35,-64.2518 1618.46,-71.2508"/>
</g>
<!-- Node25 -->
<g id="node26" class="node"><title>Node25</title>
<polygon fill="white" stroke="#bfbfbf" points="338.5,-56.5 338.5,-75.5 384.5,-75.5 384.5,-56.5 338.5,-56.5"/>
<text text-anchor="middle" x="361.5" y="-63.5" font-family="Helvetica,sans-Serif" font-size="10.00">stdio.h</text>
</g>
<!-- Node19&#45;&gt;Node25 -->
<g id="edge30" class="edge"><title>Node19&#45;&gt;Node25</title>
<path fill="none" stroke="midnightblue" d="M361.5,-112.399C361.5,-104.466 361.5,-94.458 361.5,-85.8583"/>
<polygon fill="midnightblue" stroke="midnightblue" points="365,-85.6577 361.5,-75.6578 358,-85.6578 365,-85.6577"/>
</g>
<!-- Node20&#45;&gt;Node5 -->
<g id="edge28" class="edge"><title>Node20&#45;&gt;Node5</title>
<path fill="none" stroke="midnightblue" d="M1645.22,-56.4435C1624.15,-47.5566 1590.98,-33.5632 1567.01,-23.4514"/>
<polygon fill="midnightblue" stroke="midnightblue" points="1568.26,-20.1787 1557.69,-19.5164 1565.54,-26.6283 1568.26,-20.1787"/>
</g>
<!-- Node21 -->
<g id="node22" class="node"><title>Node21</title>
<polygon fill="white" stroke="#bfbfbf" points="1576,-0.5 1576,-19.5 1625,-19.5 1625,-0.5 1576,-0.5"/>
<text text-anchor="middle" x="1600.5" y="-7.5" font-family="Helvetica,sans-Serif" font-size="10.00">stdint.h</text>
</g>
<!-- Node20&#45;&gt;Node21 -->
<g id="edge24" class="edge"><title>Node20&#45;&gt;Node21</title>
<path fill="none" stroke="midnightblue" d="M1655.06,-56.324C1645.35,-48.2631 1630.68,-36.0765 1619,-26.3695"/>
<polygon fill="midnightblue" stroke="midnightblue" points="1621.06,-23.532 1611.13,-19.8339 1616.59,-28.9163 1621.06,-23.532"/>
</g>
<!-- Node22 -->
<g id="node23" class="node"><title>Node22</title>
<polygon fill="white" stroke="#bfbfbf" points="1643.5,-0.5 1643.5,-19.5 1687.5,-19.5 1687.5,-0.5 1643.5,-0.5"/>
<text text-anchor="middle" x="1665.5" y="-7.5" font-family="Helvetica,sans-Serif" font-size="10.00">time.h</text>
</g>
<!-- Node20&#45;&gt;Node22 -->
<g id="edge25" class="edge"><title>Node20&#45;&gt;Node22</title>
<path fill="none" stroke="midnightblue" d="M1665.5,-56.083C1665.5,-49.0059 1665.5,-38.8611 1665.5,-29.9865"/>
<polygon fill="midnightblue" stroke="midnightblue" points="1669,-29.751 1665.5,-19.7511 1662,-29.7511 1669,-29.751"/>
</g>
<!-- Node23 -->
<g id="node24" class="node"><title>Node23</title>
<polygon fill="white" stroke="#bfbfbf" points="1705.5,-0.5 1705.5,-19.5 1757.5,-19.5 1757.5,-0.5 1705.5,-0.5"/>
<text text-anchor="middle" x="1731.5" y="-7.5" font-family="Helvetica,sans-Serif" font-size="10.00">sstream</text>
</g>
<!-- Node20&#45;&gt;Node23 -->
<g id="edge26" class="edge"><title>Node20&#45;&gt;Node23</title>
<path fill="none" stroke="midnightblue" d="M1676.1,-56.324C1685.96,-48.2631 1700.85,-36.0765 1712.72,-26.3695"/>
<polygon fill="midnightblue" stroke="midnightblue" points="1715.18,-28.8752 1720.7,-19.8339 1710.75,-23.4575 1715.18,-28.8752"/>
</g>
<!-- Node24 -->
<g id="node25" class="node"><title>Node24</title>
<polygon fill="white" stroke="#bfbfbf" points="1775.5,-0.5 1775.5,-19.5 1903.5,-19.5 1903.5,-0.5 1775.5,-0.5"/>
<text text-anchor="middle" x="1839.5" y="-7.5" font-family="Helvetica,sans-Serif" font-size="10.00">common/lexical_cast.hpp</text>
</g>
<!-- Node20&#45;&gt;Node24 -->
<g id="edge27" class="edge"><title>Node20&#45;&gt;Node24</title>
<path fill="none" stroke="midnightblue" d="M1693.07,-56.4435C1722.6,-47.2801 1769.62,-32.6876 1802.38,-22.5192"/>
<polygon fill="midnightblue" stroke="midnightblue" points="1803.54,-25.8232 1812.06,-19.5164 1801.47,-19.1378 1803.54,-25.8232"/>
</g>
<!-- Node27&#45;&gt;Node1 -->
<g id="edge36" class="edge"><title>Node27&#45;&gt;Node1</title>
<path fill="none" stroke="midnightblue" d="M1423.74,-179.048C1421.82,-162.545 1415.14,-127.59 1392.5,-112 1343.83,-78.4864 388.247,-82.3546 329.5,-76 325.597,-75.5778 321.537,-75.0224 317.5,-74.3942"/>
<polygon fill="midnightblue" stroke="midnightblue" points="318.054,-70.9383 307.609,-72.7176 316.884,-77.8398 318.054,-70.9383"/>
</g>
<!-- Node27&#45;&gt;Node9 -->
<g id="edge38" class="edge"><title>Node27&#45;&gt;Node9</title>
<path fill="none" stroke="midnightblue" d="M1428.8,-179.475C1433.16,-170.815 1440.06,-157.149 1445.6,-146.145"/>
<polygon fill="midnightblue" stroke="midnightblue" points="1448.83,-147.514 1450.21,-137.009 1442.58,-144.363 1448.83,-147.514"/>
</g>
<!-- Node27&#45;&gt;Node11 -->
<g id="edge37" class="edge"><title>Node27&#45;&gt;Node11</title>
<path fill="none" stroke="midnightblue" d="M1441.55,-179.475C1461.34,-169.578 1494.22,-153.142 1517.27,-141.615"/>
<polygon fill="midnightblue" stroke="midnightblue" points="1519.1,-144.612 1526.48,-137.009 1515.97,-138.351 1519.1,-144.612"/>
</g>
<!-- Node27&#45;&gt;Node12 -->
<g id="edge39" class="edge"><title>Node27&#45;&gt;Node12</title>
<path fill="none" stroke="midnightblue" d="M1397.72,-181.918C1363.99,-174.028 1304.41,-159.326 1254.5,-143 1252.23,-142.258 1249.9,-141.452 1247.57,-140.612"/>
<polygon fill="midnightblue" stroke="midnightblue" points="1248.68,-137.293 1238.09,-137.052 1246.22,-143.846 1248.68,-137.293"/>
</g>
<!-- Node27&#45;&gt;Node20 -->
<g id="edge40" class="edge"><title>Node27&#45;&gt;Node20</title>
<path fill="none" stroke="midnightblue" d="M1434.89,-179.325C1458.18,-159.911 1512.88,-114.466 1517.5,-112 1549.32,-95.0186 1588.5,-83.4689 1618.54,-76.3258"/>
<polygon fill="midnightblue" stroke="midnightblue" points="1619.4,-79.7209 1628.36,-74.0708 1617.83,-72.8985 1619.4,-79.7209"/>
</g>
<!-- Node28&#45;&gt;Node1 -->
<g id="edge45" class="edge"><title>Node28&#45;&gt;Node1</title>
<path fill="none" stroke="midnightblue" d="M1540.51,-179.284C1558.49,-164.063 1590.24,-132.324 1570.5,-112 1522.44,-62.5264 398.091,-83.2512 329.5,-76 325.596,-75.5873 321.536,-75.038 317.498,-74.4135"/>
<polygon fill="midnightblue" stroke="midnightblue" points="318.05,-70.9573 307.607,-72.7413 316.883,-77.8594 318.05,-70.9573"/>
</g>
<!-- Node28&#45;&gt;Node5 -->
<g id="edge44" class="edge"><title>Node28&#45;&gt;Node5</title>
<path fill="none" stroke="midnightblue" d="M1547.89,-179.471C1561.6,-171.997 1579.31,-159.71 1587.5,-143 1607.17,-102.84 1573.39,-52.8619 1552.37,-27.4692"/>
<polygon fill="midnightblue" stroke="midnightblue" points="1554.75,-24.8678 1545.57,-19.5692 1549.44,-29.4328 1554.75,-24.8678"/>
</g>
<!-- Node28&#45;&gt;Node9 -->
<g id="edge43" class="edge"><title>Node28&#45;&gt;Node9</title>
<path fill="none" stroke="midnightblue" d="M1518.75,-179.475C1506.95,-170.108 1487.76,-154.884 1473.42,-143.508"/>
<polygon fill="midnightblue" stroke="midnightblue" points="1475.24,-140.482 1465.23,-137.009 1470.88,-145.966 1475.24,-140.482"/>
</g>
<!-- Node28&#45;&gt;Node11 -->
<g id="edge42" class="edge"><title>Node28&#45;&gt;Node11</title>
<path fill="none" stroke="midnightblue" d="M1531.51,-179.475C1533.5,-170.992 1536.63,-157.704 1539.19,-146.822"/>
<polygon fill="midnightblue" stroke="midnightblue" points="1542.61,-147.545 1541.5,-137.009 1535.8,-145.942 1542.61,-147.545"/>
</g>
<!-- Node28&#45;&gt;Node14 -->
<g id="edge46" class="edge"><title>Node28&#45;&gt;Node14</title>
<path fill="none" stroke="midnightblue" d="M1495.28,-182.606C1453.8,-175.602 1382.07,-161.988 1322.5,-143 1320.57,-142.386 1318.61,-141.704 1316.64,-140.979"/>
<polygon fill="midnightblue" stroke="midnightblue" points="1317.55,-137.575 1306.97,-137.124 1314.96,-144.077 1317.55,-137.575"/>
</g>
<!-- Node28&#45;&gt;Node17 -->
<g id="edge47" class="edge"><title>Node28&#45;&gt;Node17</title>
<path fill="none" stroke="midnightblue" d="M1504.86,-179.475C1475.22,-169.225 1425.32,-151.959 1391.9,-140.399"/>
<polygon fill="midnightblue" stroke="midnightblue" points="1392.69,-136.971 1382.1,-137.009 1390.4,-143.586 1392.69,-136.971"/>
</g>
<!-- Node28&#45;&gt;Node20 -->
<g id="edge48" class="edge"><title>Node28&#45;&gt;Node20</title>
<path fill="none" stroke="midnightblue" d="M1563.54,-182.346C1588.34,-176.526 1621.06,-165.057 1641.5,-143 1656.02,-127.332 1661.75,-102.924 1664.02,-86.0138"/>
<polygon fill="midnightblue" stroke="midnightblue" points="1667.54,-86.0148 1665.1,-75.7046 1660.58,-85.2856 1667.54,-86.0148"/>
</g>
<!-- Node29&#45;&gt;Node1 -->
<g id="edge51" class="edge"><title>Node29&#45;&gt;Node1</title>
<path fill="none" stroke="midnightblue" d="M66.6264,-235.118C75.3643,-207.222 98.3827,-145.565 139.5,-112 169.366,-87.6196 212.657,-76.3599 243.378,-71.2157"/>
<polygon fill="midnightblue" stroke="midnightblue" points="243.924,-74.673 253.277,-69.6955 242.862,-67.7541 243.924,-74.673"/>
</g>
</g>
</svg>
