<?xml version="1.0" encoding="UTF-8" standalone="no"?>
<!DOCTYPE svg PUBLIC "-//W3C//DTD SVG 1.1//EN"
 "http://www.w3.org/Graphics/SVG/1.1/DTD/svg11.dtd">
<!-- Generated by graphviz version 2.38.0 (20140413.2041)
 -->
<!-- Title: NFINetClientModule.hpp Pages: 1 -->
<svg width="3049pt" height="218pt"
 viewBox="0.00 0.00 3048.50 218.00" xmlns="http://www.w3.org/2000/svg" xmlns:xlink="http://www.w3.org/1999/xlink">
<g id="graph0" class="graph" transform="scale(1 1) rotate(0) translate(4 214)">
<title>NFINetClientModule.hpp</title>
<polygon fill="white" stroke="none" points="-4,4 -4,-214 3044.5,-214 3044.5,4 -4,4"/>
<!-- Node57 -->
<g id="node1" class="node"><title>Node57</title>
<polygon fill="#bfbfbf" stroke="black" points="1800,-190.5 1800,-209.5 1922,-209.5 1922,-190.5 1800,-190.5"/>
<text text-anchor="middle" x="1861" y="-197.5" font-family="Helvetica,sans-Serif" font-size="10.00">NFINetClientModule.hpp</text>
</g>
<!-- Node58 -->
<g id="node2" class="node"><title>Node58</title>
<g id="a_node2"><a xlink:href="_n_f_i_game_server_to_world_module_8h.html" target="_top" xlink:title="NFIGameServerToWorldModule.h">
<polygon fill="white" stroke="black" points="547.5,-134.5 547.5,-153.5 708.5,-153.5 708.5,-134.5 547.5,-134.5"/>
<text text-anchor="middle" x="628" y="-141.5" font-family="Helvetica,sans-Serif" font-size="10.00">NFIGameServerToWorldModule.h</text>
</a>
</g>
</g>
<!-- Node57&#45;&gt;Node58 -->
<g id="edge1" class="edge"><title>Node57&#45;&gt;Node58</title>
<path fill="none" stroke="midnightblue" d="M1789.65,-195.875C1574.82,-186.467 935.029,-158.447 708.554,-148.528"/>
<polygon fill="midnightblue" stroke="midnightblue" points="1789.71,-199.381 1799.86,-196.322 1790.02,-192.388 1789.71,-199.381"/>
</g>
<!-- Node59 -->
<g id="node3" class="node"><title>Node59</title>
<g id="a_node3"><a xlink:href="_n_f_c_game_server_to_world_module_8h.html" target="_top" xlink:title="NFCGameServerToWorldModule.h">
<polygon fill="white" stroke="black" points="254.5,-73 254.5,-92 419.5,-92 419.5,-73 254.5,-73"/>
<text text-anchor="middle" x="337" y="-80" font-family="Helvetica,sans-Serif" font-size="10.00">NFCGameServerToWorldModule.h</text>
</a>
</g>
</g>
<!-- Node57&#45;&gt;Node59 -->
<g id="edge35" class="edge"><title>Node57&#45;&gt;Node59</title>
<path fill="none" stroke="midnightblue" d="M1789.34,-199.414C1550.2,-200.35 781.01,-199.645 538,-154 468.219,-140.893 390.047,-107.79 355.322,-92.058"/>
<polygon fill="midnightblue" stroke="midnightblue" points="1789.66,-202.913 1799.65,-199.372 1789.63,-195.913 1789.66,-202.913"/>
</g>
<!-- Node60 -->
<g id="node4" class="node"><title>Node60</title>
<g id="a_node4"><a xlink:href="_n_f_c_game_server_to_world_module_8cpp.html" target="_top" xlink:title="NFCGameServerToWorldModule.cpp">
<polygon fill="white" stroke="black" points="0,-6 0,-25 176,-25 176,-6 0,-6"/>
<text text-anchor="middle" x="88" y="-13" font-family="Helvetica,sans-Serif" font-size="10.00">NFCGameServerToWorldModule.cpp</text>
</a>
</g>
</g>
<!-- Node57&#45;&gt;Node60 -->
<g id="edge36" class="edge"><title>Node57&#45;&gt;Node60</title>
<path fill="none" stroke="midnightblue" d="M1789.53,-198.793C1541.89,-197.748 721.43,-191.472 461,-154 362.837,-139.876 337.597,-133.515 245,-98 189.659,-76.7741 128.527,-41.2304 101.79,-25.0216"/>
<polygon fill="midnightblue" stroke="midnightblue" points="1789.83,-202.294 1799.85,-198.835 1789.86,-195.294 1789.83,-202.294"/>
</g>
<!-- Node65 -->
<g id="node9" class="node"><title>Node65</title>
<g id="a_node9"><a xlink:href="_n_f_i_login_to_master_module_8h.html" target="_top" xlink:title="NFILoginToMasterModule.h">
<polygon fill="white" stroke="black" points="1211.5,-134.5 1211.5,-153.5 1346.5,-153.5 1346.5,-134.5 1211.5,-134.5"/>
<text text-anchor="middle" x="1279" y="-141.5" font-family="Helvetica,sans-Serif" font-size="10.00">NFILoginToMasterModule.h</text>
</a>
</g>
</g>
<!-- Node57&#45;&gt;Node65 -->
<g id="edge8" class="edge"><title>Node57&#45;&gt;Node65</title>
<path fill="none" stroke="midnightblue" d="M1789.54,-192.37C1676.47,-181.878 1457.79,-161.589 1346.95,-151.304"/>
<polygon fill="midnightblue" stroke="midnightblue" points="1789.54,-195.884 1799.82,-193.323 1790.18,-188.914 1789.54,-195.884"/>
</g>
<!-- Node72 -->
<g id="node16" class="node"><title>Node72</title>
<g id="a_node16"><a xlink:href="_n_f_i_proxy_server_to_game_module_8h.html" target="_top" xlink:title="NFIProxyServerToGameModule.h">
<polygon fill="white" stroke="black" points="1726.5,-134.5 1726.5,-153.5 1887.5,-153.5 1887.5,-134.5 1726.5,-134.5"/>
<text text-anchor="middle" x="1807" y="-141.5" font-family="Helvetica,sans-Serif" font-size="10.00">NFIProxyServerToGameModule.h</text>
</a>
</g>
</g>
<!-- Node57&#45;&gt;Node72 -->
<g id="edge15" class="edge"><title>Node57&#45;&gt;Node72</title>
<path fill="none" stroke="midnightblue" d="M1845,-183.002C1835.43,-173.433 1823.64,-161.639 1815.75,-153.751"/>
<polygon fill="midnightblue" stroke="midnightblue" points="1842.54,-185.487 1852.08,-190.083 1847.49,-180.537 1842.54,-185.487"/>
</g>
<!-- Node73 -->
<g id="node17" class="node"><title>Node73</title>
<g id="a_node17"><a xlink:href="_n_f_c_proxy_server_to_game_module_8h.html" target="_top" xlink:title="NFCProxyServerToGameModule.h">
<polygon fill="white" stroke="black" points="1632.5,-73 1632.5,-92 1797.5,-92 1797.5,-73 1632.5,-73"/>
<text text-anchor="middle" x="1715" y="-80" font-family="Helvetica,sans-Serif" font-size="10.00">NFCProxyServerToGameModule.h</text>
</a>
</g>
</g>
<!-- Node57&#45;&gt;Node73 -->
<g id="edge37" class="edge"><title>Node57&#45;&gt;Node73</title>
<path fill="none" stroke="midnightblue" d="M1789.88,-193.986C1762.72,-188.224 1734.18,-176.688 1717,-154 1703.25,-135.844 1708.43,-106.854 1712.28,-92.3583"/>
<polygon fill="midnightblue" stroke="midnightblue" points="1789.32,-197.443 1799.8,-195.858 1790.62,-190.565 1789.32,-197.443"/>
</g>
<!-- Node76 -->
<g id="node20" class="node"><title>Node76</title>
<g id="a_node20"><a xlink:href="_n_f_c_proxy_server_to_world_module_8h.html" target="_top" xlink:title="NFCProxyServerToWorldModule.h">
<polygon fill="white" stroke="black" points="1834,-73 1834,-92 1998,-92 1998,-73 1834,-73"/>
<text text-anchor="middle" x="1916" y="-80" font-family="Helvetica,sans-Serif" font-size="10.00">NFCProxyServerToWorldModule.h</text>
</a>
</g>
</g>
<!-- Node57&#45;&gt;Node76 -->
<g id="edge38" class="edge"><title>Node57&#45;&gt;Node76</title>
<path fill="none" stroke="midnightblue" d="M1876.08,-182.799C1882.97,-174.665 1890.76,-164.354 1896,-154 1906.58,-133.115 1912.28,-105.832 1914.65,-92.1371"/>
<polygon fill="midnightblue" stroke="midnightblue" points="1873.36,-180.59 1869.35,-190.399 1878.6,-185.227 1873.36,-180.59"/>
</g>
<!-- Node78 -->
<g id="node22" class="node"><title>Node78</title>
<g id="a_node22"><a xlink:href="_n_f_c_proxy_server_net___server_module_8h.html" target="_top" xlink:title="NFCProxyServerNet_Server\lModule.h">
<polygon fill="white" stroke="black" points="2053,-67.5 2053,-97.5 2189,-97.5 2189,-67.5 2053,-67.5"/>
<text text-anchor="start" x="2061" y="-85.5" font-family="Helvetica,sans-Serif" font-size="10.00">NFCProxyServerNet_Server</text>
<text text-anchor="middle" x="2121" y="-74.5" font-family="Helvetica,sans-Serif" font-size="10.00">Module.h</text>
</a>
</g>
</g>
<!-- Node57&#45;&gt;Node78 -->
<g id="edge39" class="edge"><title>Node57&#45;&gt;Node78</title>
<path fill="none" stroke="midnightblue" d="M1932.6,-195.547C1998.29,-190.784 2088.93,-179.65 2113,-154 2127.08,-138.998 2126.19,-113.567 2123.88,-97.6985"/>
<polygon fill="midnightblue" stroke="midnightblue" points="1932.02,-192.079 1922.29,-196.258 1932.5,-199.062 1932.02,-192.079"/>
</g>
<!-- Node81 -->
<g id="node25" class="node"><title>Node81</title>
<g id="a_node25"><a xlink:href="_n_f_i_proxy_server_to_world_module_8h.html" target="_top" xlink:title="NFIProxyServerToWorldModule.h">
<polygon fill="white" stroke="black" points="1944,-134.5 1944,-153.5 2104,-153.5 2104,-134.5 1944,-134.5"/>
<text text-anchor="middle" x="2024" y="-141.5" font-family="Helvetica,sans-Serif" font-size="10.00">NFIProxyServerToWorldModule.h</text>
</a>
</g>
</g>
<!-- Node57&#45;&gt;Node81 -->
<g id="edge25" class="edge"><title>Node57&#45;&gt;Node81</title>
<path fill="none" stroke="midnightblue" d="M1896.7,-187.172C1927.4,-177.004 1970.92,-162.585 1998.29,-153.516"/>
<polygon fill="midnightblue" stroke="midnightblue" points="1895.22,-183.976 1886.83,-190.444 1897.42,-190.621 1895.22,-183.976"/>
</g>
<!-- Node82 -->
<g id="node26" class="node"><title>Node82</title>
<g id="a_node26"><a xlink:href="_n_f_i_world_to_master_module_8h.html" target="_top" xlink:title="NFIWorldToMasterModule.h">
<polygon fill="white" stroke="black" points="2388.5,-134.5 2388.5,-153.5 2525.5,-153.5 2525.5,-134.5 2388.5,-134.5"/>
<text text-anchor="middle" x="2457" y="-141.5" font-family="Helvetica,sans-Serif" font-size="10.00">NFIWorldToMasterModule.h</text>
</a>
</g>
</g>
<!-- Node57&#45;&gt;Node82 -->
<g id="edge28" class="edge"><title>Node57&#45;&gt;Node82</title>
<path fill="none" stroke="midnightblue" d="M1932.42,-192.529C2048.03,-182.054 2274.67,-161.519 2388.43,-151.213"/>
<polygon fill="midnightblue" stroke="midnightblue" points="1931.9,-189.062 1922.26,-193.45 1932.53,-196.033 1931.9,-189.062"/>
</g>
<!-- Node83 -->
<g id="node27" class="node"><title>Node83</title>
<g id="a_node27"><a xlink:href="_n_f_c_world_to_master_module_8h.html" target="_top" xlink:title="NFCWorldToMasterModule.h">
<polygon fill="white" stroke="black" points="2386,-73 2386,-92 2528,-92 2528,-73 2386,-73"/>
<text text-anchor="middle" x="2457" y="-80" font-family="Helvetica,sans-Serif" font-size="10.00">NFCWorldToMasterModule.h</text>
</a>
</g>
</g>
<!-- Node57&#45;&gt;Node83 -->
<g id="edge40" class="edge"><title>Node57&#45;&gt;Node83</title>
<path fill="none" stroke="midnightblue" d="M1932.73,-195.783C2012.88,-191.057 2146.09,-179.81 2258,-154 2325.86,-138.349 2402.61,-107.096 2437.67,-92.0209"/>
<polygon fill="midnightblue" stroke="midnightblue" points="1932.04,-192.316 1922.26,-196.381 1932.44,-199.305 1932.04,-192.316"/>
</g>
<!-- Node84 -->
<g id="node28" class="node"><title>Node84</title>
<g id="a_node28"><a xlink:href="_n_f_c_world_to_master_module_8cpp.html" target="_top" xlink:title="NFCWorldToMasterModule.cpp">
<polygon fill="white" stroke="black" points="2381,-6 2381,-25 2533,-25 2533,-6 2381,-6"/>
<text text-anchor="middle" x="2457" y="-13" font-family="Helvetica,sans-Serif" font-size="10.00">NFCWorldToMasterModule.cpp</text>
</a>
</g>
</g>
<!-- Node57&#45;&gt;Node84 -->
<g id="edge41" class="edge"><title>Node57&#45;&gt;Node84</title>
<path fill="none" stroke="midnightblue" d="M1932.23,-191.903C1987.71,-185.257 2066.25,-173.385 2133,-154 2255.64,-118.381 2393.99,-49.2748 2440.65,-25.1004"/>
<polygon fill="midnightblue" stroke="midnightblue" points="1931.67,-188.444 1922.15,-193.083 1932.49,-195.396 1931.67,-188.444"/>
</g>
<!-- Node58&#45;&gt;Node59 -->
<g id="edge2" class="edge"><title>Node58&#45;&gt;Node59</title>
<path fill="none" stroke="midnightblue" d="M576.169,-132.402C519.753,-120.867 430.657,-102.65 378.616,-92.0091"/>
<polygon fill="midnightblue" stroke="midnightblue" points="575.808,-135.901 586.307,-134.475 577.211,-129.043 575.808,-135.901"/>
</g>
<!-- Node62 -->
<g id="node6" class="node"><title>Node62</title>
<g id="a_node6"><a xlink:href="_n_f_c_game_server_net___server_module_8h.html" target="_top" xlink:title="NFCGameServerNet_ServerModule.h">
<polygon fill="white" stroke="black" points="540,-73 540,-92 716,-92 716,-73 540,-73"/>
<text text-anchor="middle" x="628" y="-80" font-family="Helvetica,sans-Serif" font-size="10.00">NFCGameServerNet_ServerModule.h</text>
</a>
</g>
</g>
<!-- Node58&#45;&gt;Node62 -->
<g id="edge5" class="edge"><title>Node58&#45;&gt;Node62</title>
<path fill="none" stroke="midnightblue" d="M628,-124.317C628,-113.496 628,-100.398 628,-92.0091"/>
<polygon fill="midnightblue" stroke="midnightblue" points="624.5,-124.475 628,-134.475 631.5,-124.475 624.5,-124.475"/>
</g>
<!-- Node59&#45;&gt;Node60 -->
<g id="edge3" class="edge"><title>Node59&#45;&gt;Node60</title>
<path fill="none" stroke="midnightblue" d="M294.493,-70.4039C245.351,-57.5757 165.52,-36.7361 120.881,-25.0834"/>
<polygon fill="midnightblue" stroke="midnightblue" points="293.632,-73.7962 304.192,-72.9355 295.4,-67.0232 293.632,-73.7962"/>
</g>
<!-- Node61 -->
<g id="node5" class="node"><title>Node61</title>
<g id="a_node5"><a xlink:href="_n_f_game_server_net___client_plugin_8cpp.html" target="_top" xlink:title="NFGameServerNet_ClientPlugin.cpp">
<polygon fill="white" stroke="black" points="194.5,-6 194.5,-25 367.5,-25 367.5,-6 194.5,-6"/>
<text text-anchor="middle" x="281" y="-13" font-family="Helvetica,sans-Serif" font-size="10.00">NFGameServerNet_ClientPlugin.cpp</text>
</a>
</g>
</g>
<!-- Node59&#45;&gt;Node61 -->
<g id="edge4" class="edge"><title>Node59&#45;&gt;Node61</title>
<path fill="none" stroke="midnightblue" d="M322.901,-65.1348C311.949,-52.4228 297.195,-35.2978 288.433,-25.1273"/>
<polygon fill="midnightblue" stroke="midnightblue" points="320.269,-67.4422 329.448,-72.7338 325.572,-62.8732 320.269,-67.4422"/>
</g>
<!-- Node63 -->
<g id="node7" class="node"><title>Node63</title>
<g id="a_node7"><a xlink:href="_n_f_c_game_server_net___server_module_8cpp.html" target="_top" xlink:title="NFCGameServerNet_ServerModule.cpp">
<polygon fill="white" stroke="black" points="580.5,-6 580.5,-25 767.5,-25 767.5,-6 580.5,-6"/>
<text text-anchor="middle" x="674" y="-13" font-family="Helvetica,sans-Serif" font-size="10.00">NFCGameServerNet_ServerModule.cpp</text>
</a>
</g>
</g>
<!-- Node62&#45;&gt;Node63 -->
<g id="edge6" class="edge"><title>Node62&#45;&gt;Node63</title>
<path fill="none" stroke="midnightblue" d="M640.099,-64.4037C649.038,-51.7729 660.834,-35.1041 667.895,-25.1273"/>
<polygon fill="midnightblue" stroke="midnightblue" points="637.124,-62.5492 634.204,-72.7338 642.837,-66.5929 637.124,-62.5492"/>
</g>
<!-- Node64 -->
<g id="node8" class="node"><title>Node64</title>
<g id="a_node8"><a xlink:href="_n_f_game_server_net___server_plugin_8cpp.html" target="_top" xlink:title="NFGameServerNet_ServerPlugin.cpp">
<polygon fill="white" stroke="black" points="386,-6 386,-25 562,-25 562,-6 386,-6"/>
<text text-anchor="middle" x="474" y="-13" font-family="Helvetica,sans-Serif" font-size="10.00">NFGameServerNet_ServerPlugin.cpp</text>
</a>
</g>
</g>
<!-- Node62&#45;&gt;Node64 -->
<g id="edge7" class="edge"><title>Node62&#45;&gt;Node64</title>
<path fill="none" stroke="midnightblue" d="M598.263,-68.9485C567.771,-56.0787 521.155,-36.4032 494.535,-25.1672"/>
<polygon fill="midnightblue" stroke="midnightblue" points="596.976,-72.2044 607.55,-72.8685 599.698,-65.7553 596.976,-72.2044"/>
</g>
<!-- Node66 -->
<g id="node10" class="node"><title>Node66</title>
<g id="a_node10"><a xlink:href="_n_f_c_login_to_master_module_8h.html" target="_top" xlink:title="NFCLoginToMasterModule.h">
<polygon fill="white" stroke="black" points="1209,-73 1209,-92 1349,-92 1349,-73 1209,-73"/>
<text text-anchor="middle" x="1279" y="-80" font-family="Helvetica,sans-Serif" font-size="10.00">NFCLoginToMasterModule.h</text>
</a>
</g>
</g>
<!-- Node65&#45;&gt;Node66 -->
<g id="edge9" class="edge"><title>Node65&#45;&gt;Node66</title>
<path fill="none" stroke="midnightblue" d="M1279,-124.317C1279,-113.496 1279,-100.398 1279,-92.0091"/>
<polygon fill="midnightblue" stroke="midnightblue" points="1275.5,-124.475 1279,-134.475 1282.5,-124.475 1275.5,-124.475"/>
</g>
<!-- Node69 -->
<g id="node13" class="node"><title>Node69</title>
<g id="a_node13"><a xlink:href="_n_f_c_login_net___server_module_8h.html" target="_top" xlink:title="NFCLoginNet_ServerModule.h">
<polygon fill="white" stroke="black" points="956,-73 956,-92 1102,-92 1102,-73 956,-73"/>
<text text-anchor="middle" x="1029" y="-80" font-family="Helvetica,sans-Serif" font-size="10.00">NFCLoginNet_ServerModule.h</text>
</a>
</g>
</g>
<!-- Node65&#45;&gt;Node69 -->
<g id="edge12" class="edge"><title>Node65&#45;&gt;Node69</title>
<path fill="none" stroke="midnightblue" d="M1233.26,-132.114C1184.74,-120.565 1109.09,-102.561 1064.75,-92.0091"/>
<polygon fill="midnightblue" stroke="midnightblue" points="1232.64,-135.565 1243.18,-134.475 1234.26,-128.755 1232.64,-135.565"/>
</g>
<!-- Node67 -->
<g id="node11" class="node"><title>Node67</title>
<g id="a_node11"><a xlink:href="_n_f_c_login_to_master_module_8cpp.html" target="_top" xlink:title="NFCLoginToMasterModule.cpp">
<polygon fill="white" stroke="black" points="1287,-6 1287,-25 1437,-25 1437,-6 1287,-6"/>
<text text-anchor="middle" x="1362" y="-13" font-family="Helvetica,sans-Serif" font-size="10.00">NFCLoginToMasterModule.cpp</text>
</a>
</g>
</g>
<!-- Node66&#45;&gt;Node67 -->
<g id="edge10" class="edge"><title>Node66&#45;&gt;Node67</title>
<path fill="none" stroke="midnightblue" d="M1298.07,-66.5678C1314.45,-53.7376 1337.5,-35.6853 1350.98,-25.1273"/>
<polygon fill="midnightblue" stroke="midnightblue" points="1295.91,-63.8126 1290.19,-72.7338 1300.22,-69.3237 1295.91,-63.8126"/>
</g>
<!-- Node68 -->
<g id="node12" class="node"><title>Node68</title>
<g id="a_node12"><a xlink:href="_n_f_login_net___client_plugin_8cpp.html" target="_top" xlink:title="NFLoginNet_ClientPlugin.cpp">
<polygon fill="white" stroke="black" points="1125.5,-6 1125.5,-25 1268.5,-25 1268.5,-6 1125.5,-6"/>
<text text-anchor="middle" x="1197" y="-13" font-family="Helvetica,sans-Serif" font-size="10.00">NFLoginNet_ClientPlugin.cpp</text>
</a>
</g>
</g>
<!-- Node66&#45;&gt;Node68 -->
<g id="edge11" class="edge"><title>Node66&#45;&gt;Node68</title>
<path fill="none" stroke="midnightblue" d="M1259.72,-66.2134C1243.56,-53.407 1221.08,-35.5884 1207.88,-25.1273"/>
<polygon fill="midnightblue" stroke="midnightblue" points="1257.93,-69.2647 1267.94,-72.7338 1262.28,-63.779 1257.93,-69.2647"/>
</g>
<!-- Node70 -->
<g id="node14" class="node"><title>Node70</title>
<g id="a_node14"><a xlink:href="_n_f_c_login_net___server_module_8cpp.html" target="_top" xlink:title="NFCLoginNet_ServerModule.cpp">
<polygon fill="white" stroke="black" points="950.5,-6 950.5,-25 1107.5,-25 1107.5,-6 950.5,-6"/>
<text text-anchor="middle" x="1029" y="-13" font-family="Helvetica,sans-Serif" font-size="10.00">NFCLoginNet_ServerModule.cpp</text>
</a>
</g>
</g>
<!-- Node69&#45;&gt;Node70 -->
<g id="edge13" class="edge"><title>Node69&#45;&gt;Node70</title>
<path fill="none" stroke="midnightblue" d="M1029,-62.537C1029,-50.1703 1029,-34.6198 1029,-25.1273"/>
<polygon fill="midnightblue" stroke="midnightblue" points="1025.5,-62.7338 1029,-72.7338 1032.5,-62.7338 1025.5,-62.7338"/>
</g>
<!-- Node71 -->
<g id="node15" class="node"><title>Node71</title>
<g id="a_node15"><a xlink:href="_n_f_login_net___server_plugin_8cpp.html" target="_top" xlink:title="NFLoginNet_ServerPlugin.cpp">
<polygon fill="white" stroke="black" points="786,-6 786,-25 932,-25 932,-6 786,-6"/>
<text text-anchor="middle" x="859" y="-13" font-family="Helvetica,sans-Serif" font-size="10.00">NFLoginNet_ServerPlugin.cpp</text>
</a>
</g>
</g>
<!-- Node69&#45;&gt;Node71 -->
<g id="edge14" class="edge"><title>Node69&#45;&gt;Node71</title>
<path fill="none" stroke="midnightblue" d="M997.016,-69.2706C963.275,-56.3699 910.983,-36.3757 881.397,-25.0637"/>
<polygon fill="midnightblue" stroke="midnightblue" points="995.835,-72.5662 1006.43,-72.8685 998.335,-66.0279 995.835,-72.5662"/>
</g>
<!-- Node72&#45;&gt;Node73 -->
<g id="edge16" class="edge"><title>Node72&#45;&gt;Node73</title>
<path fill="none" stroke="midnightblue" d="M1785.24,-128.93C1767.51,-117.459 1743.04,-101.634 1728.16,-92.0091"/>
<polygon fill="midnightblue" stroke="midnightblue" points="1783.52,-131.983 1793.82,-134.475 1787.32,-126.106 1783.52,-131.983"/>
</g>
<!-- Node72&#45;&gt;Node76 -->
<g id="edge19" class="edge"><title>Node72&#45;&gt;Node76</title>
<path fill="none" stroke="midnightblue" d="M1831.63,-129.556C1852.72,-118.042 1882.46,-101.811 1900.41,-92.0091"/>
<polygon fill="midnightblue" stroke="midnightblue" points="1829.72,-126.612 1822.62,-134.475 1833.07,-132.756 1829.72,-126.612"/>
</g>
<!-- Node72&#45;&gt;Node78 -->
<g id="edge22" class="edge"><title>Node72&#45;&gt;Node78</title>
<path fill="none" stroke="midnightblue" d="M1861.91,-132.595C1915.06,-122.524 1995.77,-107.229 2052.97,-96.3911"/>
<polygon fill="midnightblue" stroke="midnightblue" points="1861.16,-129.174 1851.99,-134.475 1862.47,-136.052 1861.16,-129.174"/>
</g>
<!-- Node74 -->
<g id="node18" class="node"><title>Node74</title>
<g id="a_node18"><a xlink:href="_n_f_c_proxy_server_to_game_module_8cpp.html" target="_top" xlink:title="NFCProxyServerToGameModule.cpp">
<polygon fill="white" stroke="black" points="1455,-6 1455,-25 1631,-25 1631,-6 1455,-6"/>
<text text-anchor="middle" x="1543" y="-13" font-family="Helvetica,sans-Serif" font-size="10.00">NFCProxyServerToGameModule.cpp</text>
</a>
</g>
</g>
<!-- Node73&#45;&gt;Node74 -->
<g id="edge17" class="edge"><title>Node73&#45;&gt;Node74</title>
<path fill="none" stroke="midnightblue" d="M1682.64,-69.2706C1648.5,-56.3699 1595.59,-36.3757 1565.66,-25.0637"/>
<polygon fill="midnightblue" stroke="midnightblue" points="1681.57,-72.6074 1692.16,-72.8685 1684.04,-66.0594 1681.57,-72.6074"/>
</g>
<!-- Node75 -->
<g id="node19" class="node"><title>Node75</title>
<g id="a_node19"><a xlink:href="_n_f_proxy_server_net___client_plugin_8cpp.html" target="_top" xlink:title="NFProxyServerNet_ClientPlugin.cpp">
<polygon fill="white" stroke="black" points="1649.5,-6 1649.5,-25 1822.5,-25 1822.5,-6 1649.5,-6"/>
<text text-anchor="middle" x="1736" y="-13" font-family="Helvetica,sans-Serif" font-size="10.00">NFProxyServerNet_ClientPlugin.cpp</text>
</a>
</g>
</g>
<!-- Node73&#45;&gt;Node75 -->
<g id="edge18" class="edge"><title>Node73&#45;&gt;Node75</title>
<path fill="none" stroke="midnightblue" d="M1721,-62.9145C1725.02,-50.4883 1730.11,-34.7166 1733.21,-25.1273"/>
<polygon fill="midnightblue" stroke="midnightblue" points="1717.58,-62.1421 1717.83,-72.7338 1724.24,-64.2941 1717.58,-62.1421"/>
</g>
<!-- Node76&#45;&gt;Node75 -->
<g id="edge21" class="edge"><title>Node76&#45;&gt;Node75</title>
<path fill="none" stroke="midnightblue" d="M1882.59,-69.4363C1846.88,-56.5417 1791.17,-36.4243 1759.71,-25.0637"/>
<polygon fill="midnightblue" stroke="midnightblue" points="1881.5,-72.7639 1892.1,-72.8685 1883.88,-66.1801 1881.5,-72.7639"/>
</g>
<!-- Node77 -->
<g id="node21" class="node"><title>Node77</title>
<g id="a_node21"><a xlink:href="_n_f_c_proxy_server_to_world_module_8cpp.html" target="_top" xlink:title="NFCProxyServerToWorldModule.cpp">
<polygon fill="white" stroke="black" points="1840.5,-6 1840.5,-25 2015.5,-25 2015.5,-6 1840.5,-6"/>
<text text-anchor="middle" x="1928" y="-13" font-family="Helvetica,sans-Serif" font-size="10.00">NFCProxyServerToWorldModule.cpp</text>
</a>
</g>
</g>
<!-- Node76&#45;&gt;Node77 -->
<g id="edge20" class="edge"><title>Node76&#45;&gt;Node77</title>
<path fill="none" stroke="midnightblue" d="M1919.5,-62.537C1921.78,-50.1703 1924.65,-34.6198 1926.41,-25.1273"/>
<polygon fill="midnightblue" stroke="midnightblue" points="1915.99,-62.2645 1917.62,-72.7338 1922.88,-63.5354 1915.99,-62.2645"/>
</g>
<!-- Node79 -->
<g id="node23" class="node"><title>Node79</title>
<g id="a_node23"><a xlink:href="_n_f_c_proxy_server_net___server_module_8cpp.html" target="_top" xlink:title="NFCProxyServerNet_Server\lModule.cpp">
<polygon fill="white" stroke="black" points="2227,-0.5 2227,-30.5 2363,-30.5 2363,-0.5 2227,-0.5"/>
<text text-anchor="start" x="2235" y="-18.5" font-family="Helvetica,sans-Serif" font-size="10.00">NFCProxyServerNet_Server</text>
<text text-anchor="middle" x="2295" y="-7.5" font-family="Helvetica,sans-Serif" font-size="10.00">Module.cpp</text>
</a>
</g>
</g>
<!-- Node78&#45;&gt;Node79 -->
<g id="edge23" class="edge"><title>Node78&#45;&gt;Node79</title>
<path fill="none" stroke="midnightblue" d="M2168.33,-63.8185C2196.3,-53.3707 2231.23,-40.3231 2257.32,-30.5765"/>
<polygon fill="midnightblue" stroke="midnightblue" points="2166.9,-60.6178 2158.76,-67.396 2169.35,-67.1752 2166.9,-60.6178"/>
</g>
<!-- Node80 -->
<g id="node24" class="node"><title>Node80</title>
<g id="a_node24"><a xlink:href="_n_f_proxy_server_net___server_plugin_8cpp.html" target="_top" xlink:title="NFProxyServerNet_ServerPlugin.cpp">
<polygon fill="white" stroke="black" points="2033.5,-6 2033.5,-25 2208.5,-25 2208.5,-6 2033.5,-6"/>
<text text-anchor="middle" x="2121" y="-13" font-family="Helvetica,sans-Serif" font-size="10.00">NFProxyServerNet_ServerPlugin.cpp</text>
</a>
</g>
</g>
<!-- Node78&#45;&gt;Node80 -->
<g id="edge24" class="edge"><title>Node78&#45;&gt;Node80</title>
<path fill="none" stroke="midnightblue" d="M2121,-57.2495C2121,-46.017 2121,-33.3767 2121,-25.1945"/>
<polygon fill="midnightblue" stroke="midnightblue" points="2117.5,-57.3959 2121,-67.396 2124.5,-57.396 2117.5,-57.3959"/>
</g>
<!-- Node81&#45;&gt;Node76 -->
<g id="edge26" class="edge"><title>Node81&#45;&gt;Node76</title>
<path fill="none" stroke="midnightblue" d="M1999.6,-129.556C1978.7,-118.042 1949.24,-101.811 1931.45,-92.0091"/>
<polygon fill="midnightblue" stroke="midnightblue" points="1998.08,-132.715 2008.53,-134.475 2001.46,-126.584 1998.08,-132.715"/>
</g>
<!-- Node81&#45;&gt;Node78 -->
<g id="edge27" class="edge"><title>Node81&#45;&gt;Node78</title>
<path fill="none" stroke="midnightblue" d="M2046.81,-129.008C2062.28,-119.518 2082.66,-107.02 2098.14,-97.523"/>
<polygon fill="midnightblue" stroke="midnightblue" points="2044.59,-126.263 2037.9,-134.475 2048.25,-132.23 2044.59,-126.263"/>
</g>
<!-- Node82&#45;&gt;Node83 -->
<g id="edge29" class="edge"><title>Node82&#45;&gt;Node83</title>
<path fill="none" stroke="midnightblue" d="M2457,-124.317C2457,-113.496 2457,-100.398 2457,-92.0091"/>
<polygon fill="midnightblue" stroke="midnightblue" points="2453.5,-124.475 2457,-134.475 2460.5,-124.475 2453.5,-124.475"/>
</g>
<!-- Node86 -->
<g id="node30" class="node"><title>Node86</title>
<g id="a_node30"><a xlink:href="_n_f_c_world_net___server_module_8h.html" target="_top" xlink:title="NFCWorldNet_ServerModule.h">
<polygon fill="white" stroke="black" points="2714.5,-73 2714.5,-92 2863.5,-92 2863.5,-73 2714.5,-73"/>
<text text-anchor="middle" x="2789" y="-80" font-family="Helvetica,sans-Serif" font-size="10.00">NFCWorldNet_ServerModule.h</text>
</a>
</g>
</g>
<!-- Node82&#45;&gt;Node86 -->
<g id="edge32" class="edge"><title>Node82&#45;&gt;Node86</title>
<path fill="none" stroke="midnightblue" d="M2514.54,-132.688C2578.81,-121.17 2681.65,-102.738 2741.52,-92.0091"/>
<polygon fill="midnightblue" stroke="midnightblue" points="2513.79,-129.266 2504.57,-134.475 2515.03,-136.156 2513.79,-129.266"/>
</g>
<!-- Node83&#45;&gt;Node84 -->
<g id="edge30" class="edge"><title>Node83&#45;&gt;Node84</title>
<path fill="none" stroke="midnightblue" d="M2457,-62.537C2457,-50.1703 2457,-34.6198 2457,-25.1273"/>
<polygon fill="midnightblue" stroke="midnightblue" points="2453.5,-62.7338 2457,-72.7338 2460.5,-62.7338 2453.5,-62.7338"/>
</g>
<!-- Node85 -->
<g id="node29" class="node"><title>Node85</title>
<g id="a_node29"><a xlink:href="_n_f_world_net___client_plugin_8cpp.html" target="_top" xlink:title="NFWorldNet_ClientPlugin.cpp">
<polygon fill="white" stroke="black" points="2551,-6 2551,-25 2697,-25 2697,-6 2551,-6"/>
<text text-anchor="middle" x="2624" y="-13" font-family="Helvetica,sans-Serif" font-size="10.00">NFWorldNet_ClientPlugin.cpp</text>
</a>
</g>
</g>
<!-- Node83&#45;&gt;Node85 -->
<g id="edge31" class="edge"><title>Node83&#45;&gt;Node85</title>
<path fill="none" stroke="midnightblue" d="M2488.85,-69.1041C2522.01,-56.1984 2573.06,-36.3272 2602,-25.0637"/>
<polygon fill="midnightblue" stroke="midnightblue" points="2487.23,-65.9796 2479.18,-72.8685 2489.76,-72.5029 2487.23,-65.9796"/>
</g>
<!-- Node87 -->
<g id="node31" class="node"><title>Node87</title>
<g id="a_node31"><a xlink:href="_n_f_c_world_net___server_module_8cpp.html" target="_top" xlink:title="NFCWorldNet_ServerModule.cpp">
<polygon fill="white" stroke="black" points="2881.5,-6 2881.5,-25 3040.5,-25 3040.5,-6 2881.5,-6"/>
<text text-anchor="middle" x="2961" y="-13" font-family="Helvetica,sans-Serif" font-size="10.00">NFCWorldNet_ServerModule.cpp</text>
</a>
</g>
</g>
<!-- Node86&#45;&gt;Node87 -->
<g id="edge33" class="edge"><title>Node86&#45;&gt;Node87</title>
<path fill="none" stroke="midnightblue" d="M2821.36,-69.2706C2855.5,-56.3699 2908.41,-36.3757 2938.34,-25.0637"/>
<polygon fill="midnightblue" stroke="midnightblue" points="2819.96,-66.0594 2811.84,-72.8685 2822.43,-72.6074 2819.96,-66.0594"/>
</g>
<!-- Node88 -->
<g id="node32" class="node"><title>Node88</title>
<g id="a_node32"><a xlink:href="_n_f_world_net___server_plugin_8cpp.html" target="_top" xlink:title="NFWorldNet_ServerPlugin.cpp">
<polygon fill="white" stroke="black" points="2715,-6 2715,-25 2863,-25 2863,-6 2715,-6"/>
<text text-anchor="middle" x="2789" y="-13" font-family="Helvetica,sans-Serif" font-size="10.00">NFWorldNet_ServerPlugin.cpp</text>
</a>
</g>
</g>
<!-- Node86&#45;&gt;Node88 -->
<g id="edge34" class="edge"><title>Node86&#45;&gt;Node88</title>
<path fill="none" stroke="midnightblue" d="M2789,-62.537C2789,-50.1703 2789,-34.6198 2789,-25.1273"/>
<polygon fill="midnightblue" stroke="midnightblue" points="2785.5,-62.7338 2789,-72.7338 2792.5,-62.7338 2785.5,-62.7338"/>
</g>
</g>
</svg>
