<?xml version="1.0" encoding="UTF-8" standalone="no"?>
<!DOCTYPE svg PUBLIC "-//W3C//DTD SVG 1.1//EN"
 "http://www.w3.org/Graphics/SVG/1.1/DTD/svg11.dtd">
<!-- Generated by graphviz version 2.38.0 (20140413.2041)
 -->
<!-- Title: NFCMulNet.cpp Pages: 1 -->
<!--zoomable 341 -->
<svg id="main" version="1.1" xmlns="http://www.w3.org/2000/svg" xmlns:xlink="http://www.w3.org/1999/xlink" xml:space="preserve" onload="init(evt)">
<style type="text/css"><![CDATA[
.edge:hover path { stroke: red; }
.edge:hover polygon { stroke: red; fill: red; }
]]></style>
<script type="text/javascript"><![CDATA[
var edges = document.getElementsByTagName('g');
if (edges && edges.length) {
  for (var i=0;i<edges.length;i++) {
    if (edges[i].id.substr(0,4)=='edge') {
      edges[i].setAttribute('class','edge');
    }
  }
}
]]></script>
        <defs>
                <circle id="rim" cx="0" cy="0" r="7"/>
                <circle id="rim2" cx="0" cy="0" r="3.5"/>
                <g id="zoomPlus">
                        <use xlink:href="#rim" fill="#404040">
                                <set attributeName="fill" to="#808080" begin="zoomplus.mouseover" end="zoomplus.mouseout"/>
                        </use>
                        <path d="M-4,0h8M0,-4v8" fill="none" stroke="white" stroke-width="1.5" pointer-events="none"/>
                </g>
                <g id="zoomMin">
                        <use xlink:href="#rim" fill="#404040">
                                <set attributeName="fill" to="#808080" begin="zoomminus.mouseover" end="zoomminus.mouseout"/>
                        </use>
                        <path d="M-4,0h8" fill="none" stroke="white" stroke-width="1.5" pointer-events="none"/>
                </g>
                <g id="dirArrow">
                        <path fill="none" stroke="white" stroke-width="1.5" d="M0,-3.0v7 M-2.5,-0.5L0,-3.0L2.5,-0.5"/>
                </g>
               <g id="resetDef">
                       <use xlink:href="#rim2" fill="#404040">
                               <set attributeName="fill" to="#808080" begin="reset.mouseover" end="reset.mouseout"/>
                       </use>
               </g>
        </defs>

<script type="text/javascript">
var viewWidth = 2192;
var viewHeight = 341;
var sectionId = 'dynsection-0';
</script>
<script xlink:href="svgpan.js"/>
<svg id="graph" class="graph">
<g id="viewport">
<title>NFCMulNet.cpp</title>
<polygon fill="white" stroke="none" points="-4,4 -4,-337 2188,-337 2188,4 -4,4"/>
<!-- Node0 -->
<g id="node1" class="node"><title>Node0</title>
<polygon fill="#bfbfbf" stroke="black" points="339,-313.5 339,-332.5 425,-332.5 425,-313.5 339,-313.5"/>
<text text-anchor="middle" x="382" y="-320.5" font-family="Helvetica,sans-Serif" font-size="10.00">NFCMulNet.cpp</text>
</g>
<!-- Node1 -->
<g id="node2" class="node"><title>Node1</title>
<g id="a_node2"><a xlink:href="_n_f_c_mul_net_8h.html" target="_top" xlink:title="NFCMulNet.h">
<polygon fill="white" stroke="black" points="187.5,-252 187.5,-271 262.5,-271 262.5,-252 187.5,-252"/>
<text text-anchor="middle" x="225" y="-259" font-family="Helvetica,sans-Serif" font-size="10.00">NFCMulNet.h</text>
</a>
</g>
</g>
<!-- Node0&#45;&gt;Node1 -->
<g id="edge1" class="edge"><title>Node0&#45;&gt;Node1</title>
<path fill="none" stroke="midnightblue" d="M359.506,-313.475C332.691,-303.313 287.685,-286.256 257.191,-274.7"/>
<polygon fill="midnightblue" stroke="midnightblue" points="258.044,-271.28 247.453,-271.009 255.563,-277.826 258.044,-271.28"/>
</g>
<!-- Node3 -->
<g id="node4" class="node"><title>Node3</title>
<polygon fill="white" stroke="#bfbfbf" points="0,-118 0,-137 46,-137 46,-118 0,-118"/>
<text text-anchor="middle" x="23" y="-125" font-family="Helvetica,sans-Serif" font-size="10.00">atomic</text>
</g>
<!-- Node0&#45;&gt;Node3 -->
<g id="edge53" class="edge"><title>Node0&#45;&gt;Node3</title>
<path fill="none" stroke="midnightblue" d="M338.879,-315.404C251.381,-301.001 58.2736,-263.675 23,-210 10.709,-191.297 13.6062,-164.593 17.6154,-146.915"/>
<polygon fill="midnightblue" stroke="midnightblue" points="21.0054,-147.785 20.1295,-137.226 14.2298,-146.027 21.0054,-147.785"/>
</g>
<!-- Node37 -->
<g id="node38" class="node"><title>Node37</title>
<polygon fill="white" stroke="#bfbfbf" points="280.5,-252 280.5,-271 329.5,-271 329.5,-252 280.5,-252"/>
<text text-anchor="middle" x="305" y="-259" font-family="Helvetica,sans-Serif" font-size="10.00">string.h</text>
</g>
<!-- Node0&#45;&gt;Node37 -->
<g id="edge48" class="edge"><title>Node0&#45;&gt;Node37</title>
<path fill="none" stroke="midnightblue" d="M370.968,-313.475C358.732,-304.02 338.771,-288.596 324.007,-277.187"/>
<polygon fill="midnightblue" stroke="midnightblue" points="326.065,-274.354 316.012,-271.009 321.785,-279.893 326.065,-274.354"/>
</g>
<!-- Node38 -->
<g id="node39" class="node"><title>Node38</title>
<polygon fill="white" stroke="#bfbfbf" points="348,-252 348,-271 416,-271 416,-252 348,-252"/>
<text text-anchor="middle" x="382" y="-259" font-family="Helvetica,sans-Serif" font-size="10.00">WS2tcpip.h</text>
</g>
<!-- Node0&#45;&gt;Node38 -->
<g id="edge49" class="edge"><title>Node0&#45;&gt;Node38</title>
<path fill="none" stroke="midnightblue" d="M382,-313.475C382,-305.08 382,-291.981 382,-281.163"/>
<polygon fill="midnightblue" stroke="midnightblue" points="385.5,-281.009 382,-271.009 378.5,-281.009 385.5,-281.009"/>
</g>
<!-- Node39 -->
<g id="node40" class="node"><title>Node39</title>
<polygon fill="white" stroke="#bfbfbf" points="434.5,-252 434.5,-271 499.5,-271 499.5,-252 434.5,-252"/>
<text text-anchor="middle" x="467" y="-259" font-family="Helvetica,sans-Serif" font-size="10.00">winsock2.h</text>
</g>
<!-- Node0&#45;&gt;Node39 -->
<g id="edge50" class="edge"><title>Node0&#45;&gt;Node39</title>
<path fill="none" stroke="midnightblue" d="M394.178,-313.475C407.812,-303.931 430.132,-288.307 446.474,-276.868"/>
<polygon fill="midnightblue" stroke="midnightblue" points="448.659,-279.611 454.844,-271.009 444.645,-273.876 448.659,-279.611"/>
</g>
<!-- Node40 -->
<g id="node41" class="node"><title>Node40</title>
<polygon fill="white" stroke="#bfbfbf" points="517.5,-246.5 517.5,-276.5 610.5,-276.5 610.5,-246.5 517.5,-246.5"/>
<text text-anchor="start" x="525.5" y="-264.5" font-family="Helvetica,sans-Serif" font-size="10.00">event2/bufferevent</text>
<text text-anchor="middle" x="564" y="-253.5" font-family="Helvetica,sans-Serif" font-size="10.00">_struct.h</text>
</g>
<!-- Node0&#45;&gt;Node40 -->
<g id="edge51" class="edge"><title>Node0&#45;&gt;Node40</title>
<path fill="none" stroke="midnightblue" d="M408.076,-313.475C434.914,-304.701 477.472,-290.788 511.351,-279.712"/>
<polygon fill="midnightblue" stroke="midnightblue" points="512.689,-282.957 521.106,-276.523 510.514,-276.304 512.689,-282.957"/>
</g>
<!-- Node41 -->
<g id="node42" class="node"><title>Node41</title>
<polygon fill="white" stroke="#bfbfbf" points="629,-252 629,-271 707,-271 707,-252 629,-252"/>
<text text-anchor="middle" x="668" y="-259" font-family="Helvetica,sans-Serif" font-size="10.00">event2/event.h</text>
</g>
<!-- Node0&#45;&gt;Node41 -->
<g id="edge52" class="edge"><title>Node0&#45;&gt;Node41</title>
<path fill="none" stroke="midnightblue" d="M425.292,-315.239C473.217,-307.425 552.606,-293.501 620,-277 623.838,-276.06 627.824,-274.998 631.785,-273.886"/>
<polygon fill="midnightblue" stroke="midnightblue" points="632.858,-277.219 641.48,-271.062 630.9,-270.498 632.858,-277.219"/>
</g>
<!-- Node2 -->
<g id="node3" class="node"><title>Node2</title>
<polygon fill="white" stroke="#bfbfbf" points="203,-118 203,-137 247,-137 247,-118 203,-118"/>
<text text-anchor="middle" x="225" y="-125" font-family="Helvetica,sans-Serif" font-size="10.00">thread</text>
</g>
<!-- Node1&#45;&gt;Node2 -->
<g id="edge2" class="edge"><title>Node1&#45;&gt;Node2</title>
<path fill="none" stroke="midnightblue" d="M225,-251.839C225,-230.674 225,-175.948 225,-147.033"/>
<polygon fill="midnightblue" stroke="midnightblue" points="228.5,-147.021 225,-137.021 221.5,-147.021 228.5,-147.021"/>
</g>
<!-- Node1&#45;&gt;Node3 -->
<g id="edge3" class="edge"><title>Node1&#45;&gt;Node3</title>
<path fill="none" stroke="midnightblue" d="M187.477,-260.81C145.991,-259.034 80.0149,-249.575 42,-210 25.9138,-193.253 22.5078,-165.65 22.219,-147.274"/>
<polygon fill="midnightblue" stroke="midnightblue" points="25.7195,-147.251 22.3565,-137.204 18.7202,-147.155 25.7195,-147.251"/>
</g>
<!-- Node4 -->
<g id="node5" class="node"><title>Node4</title>
<g id="a_node5"><a xlink:href="_n_f_i_net_8h.html" target="_top" xlink:title="NFINet.h">
<polygon fill="white" stroke="black" points="1119.5,-185 1119.5,-204 1174.5,-204 1174.5,-185 1119.5,-185"/>
<text text-anchor="middle" x="1147" y="-192" font-family="Helvetica,sans-Serif" font-size="10.00">NFINet.h</text>
</a>
</g>
</g>
<!-- Node1&#45;&gt;Node4 -->
<g id="edge4" class="edge"><title>Node1&#45;&gt;Node4</title>
<path fill="none" stroke="midnightblue" d="M248.118,-251.984C255.351,-249.654 263.423,-247.39 271,-246 435.631,-215.792 963.106,-200.234 1109.18,-196.434"/>
<polygon fill="midnightblue" stroke="midnightblue" points="1109.52,-199.927 1119.42,-196.171 1109.34,-192.929 1109.52,-199.927"/>
</g>
<!-- Node33 -->
<g id="node34" class="node"><title>Node33</title>
<g id="a_node34"><a xlink:href="_n_f_queue_8h.html" target="_top" xlink:title="NFComm/NFCore/NFQueue.h">
<polygon fill="white" stroke="black" points="51,-185 51,-204 197,-204 197,-185 51,-185"/>
<text text-anchor="middle" x="124" y="-192" font-family="Helvetica,sans-Serif" font-size="10.00">NFComm/NFCore/NFQueue.h</text>
</a>
</g>
</g>
<!-- Node1&#45;&gt;Node33 -->
<g id="edge36" class="edge"><title>Node1&#45;&gt;Node33</title>
<path fill="none" stroke="midnightblue" d="M211.379,-251.734C194.569,-240.916 165.772,-222.383 145.856,-209.566"/>
<polygon fill="midnightblue" stroke="midnightblue" points="147.709,-206.596 137.406,-204.127 143.92,-212.482 147.709,-206.596"/>
</g>
<!-- Node35 -->
<g id="node36" class="node"><title>Node35</title>
<polygon fill="white" stroke="#bfbfbf" points="351,-118 351,-137 493,-137 493,-118 351,-118"/>
<text text-anchor="middle" x="422" y="-125" font-family="Helvetica,sans-Serif" font-size="10.00">common/readerwriterqueue.h</text>
</g>
<!-- Node1&#45;&gt;Node35 -->
<g id="edge42" class="edge"><title>Node1&#45;&gt;Node35</title>
<path fill="none" stroke="midnightblue" d="M251.196,-251.967C257.65,-249.941 264.558,-247.836 271,-246 333.2,-228.271 369.282,-258.562 412,-210 426.97,-192.981 427.202,-165.664 425.229,-147.406"/>
<polygon fill="midnightblue" stroke="midnightblue" points="428.678,-146.8 423.827,-137.381 421.746,-147.769 428.678,-146.8"/>
</g>
<!-- Node36 -->
<g id="node37" class="node"><title>Node36</title>
<g id="a_node37"><a xlink:href="_n_f_lock_free_queue_8h.html" target="_top" xlink:title="NFComm/NFCore/NFLockFree\lQueue.h">
<polygon fill="white" stroke="black" points="253,-179.5 253,-209.5 403,-209.5 403,-179.5 253,-179.5"/>
<text text-anchor="start" x="261" y="-197.5" font-family="Helvetica,sans-Serif" font-size="10.00">NFComm/NFCore/NFLockFree</text>
<text text-anchor="middle" x="328" y="-186.5" font-family="Helvetica,sans-Serif" font-size="10.00">Queue.h</text>
</a>
</g>
</g>
<!-- Node1&#45;&gt;Node36 -->
<g id="edge43" class="edge"><title>Node1&#45;&gt;Node36</title>
<path fill="none" stroke="midnightblue" d="M238.891,-251.734C253.748,-242.358 277.787,-227.188 297.154,-214.966"/>
<polygon fill="midnightblue" stroke="midnightblue" points="299.085,-217.886 305.674,-209.589 295.35,-211.966 299.085,-217.886"/>
</g>
<!-- Node5 -->
<g id="node6" class="node"><title>Node5</title>
<polygon fill="white" stroke="#bfbfbf" points="511,-118 511,-137 557,-137 557,-118 511,-118"/>
<text text-anchor="middle" x="534" y="-125" font-family="Helvetica,sans-Serif" font-size="10.00">cstring</text>
</g>
<!-- Node4&#45;&gt;Node5 -->
<g id="edge5" class="edge"><title>Node4&#45;&gt;Node5</title>
<path fill="none" stroke="midnightblue" d="M1119.16,-192.281C1018.49,-187.686 673.613,-170.271 567,-143 564.698,-142.411 562.353,-141.678 560.028,-140.856"/>
<polygon fill="midnightblue" stroke="midnightblue" points="561.333,-137.609 550.749,-137.123 558.72,-144.103 561.333,-137.609"/>
</g>
<!-- Node6 -->
<g id="node7" class="node"><title>Node6</title>
<polygon fill="white" stroke="#bfbfbf" points="575.5,-118 575.5,-137 622.5,-137 622.5,-118 575.5,-118"/>
<text text-anchor="middle" x="599" y="-125" font-family="Helvetica,sans-Serif" font-size="10.00">errno.h</text>
</g>
<!-- Node4&#45;&gt;Node6 -->
<g id="edge6" class="edge"><title>Node4&#45;&gt;Node6</title>
<path fill="none" stroke="midnightblue" d="M1119.49,-193.328C1042.3,-192.301 817.559,-185.584 637,-143 634.004,-142.293 630.926,-141.407 627.882,-140.422"/>
<polygon fill="midnightblue" stroke="midnightblue" points="629.005,-137.107 618.41,-137.044 626.653,-143.7 629.005,-137.107"/>
</g>
<!-- Node7 -->
<g id="node8" class="node"><title>Node7</title>
<polygon fill="white" stroke="#bfbfbf" points="676,-56.5 676,-75.5 722,-75.5 722,-56.5 676,-56.5"/>
<text text-anchor="middle" x="699" y="-63.5" font-family="Helvetica,sans-Serif" font-size="10.00">stdio.h</text>
</g>
<!-- Node4&#45;&gt;Node7 -->
<g id="edge7" class="edge"><title>Node4&#45;&gt;Node7</title>
<path fill="none" stroke="midnightblue" d="M1119.27,-192.679C1021.94,-189.518 700.217,-176.584 670,-143 654.717,-126.014 670.336,-100.141 683.901,-83.3992"/>
<polygon fill="midnightblue" stroke="midnightblue" points="686.765,-85.4362 690.633,-75.5723 681.458,-80.8717 686.765,-85.4362"/>
</g>
<!-- Node8 -->
<g id="node9" class="node"><title>Node8</title>
<polygon fill="white" stroke="#bfbfbf" points="679,-118 679,-137 729,-137 729,-118 679,-118"/>
<text text-anchor="middle" x="704" y="-125" font-family="Helvetica,sans-Serif" font-size="10.00">signal.h</text>
</g>
<!-- Node4&#45;&gt;Node8 -->
<g id="edge8" class="edge"><title>Node4&#45;&gt;Node8</title>
<path fill="none" stroke="midnightblue" d="M1119.21,-192.74C1052.39,-190.34 877.9,-180.664 738,-143 735.7,-142.381 733.351,-141.636 731.017,-140.815"/>
<polygon fill="midnightblue" stroke="midnightblue" points="732.252,-137.54 721.664,-137.141 729.692,-144.055 732.252,-137.54"/>
</g>
<!-- Node9 -->
<g id="node10" class="node"><title>Node9</title>
<polygon fill="white" stroke="#bfbfbf" points="827.5,-0.5 827.5,-19.5 876.5,-19.5 876.5,-0.5 827.5,-0.5"/>
<text text-anchor="middle" x="852" y="-7.5" font-family="Helvetica,sans-Serif" font-size="10.00">stdint.h</text>
</g>
<!-- Node4&#45;&gt;Node9 -->
<g id="edge9" class="edge"><title>Node4&#45;&gt;Node9</title>
<path fill="none" stroke="midnightblue" d="M1119.24,-186.103C1092.23,-178.11 1050.72,-163.679 1019,-143 972.928,-112.964 974.825,-89.2286 931,-56 914.855,-43.759 895.04,-32.4801 879.293,-24.276"/>
<polygon fill="midnightblue" stroke="midnightblue" points="880.583,-21.005 870.084,-19.584 877.405,-27.2422 880.583,-21.005"/>
</g>
<!-- Node10 -->
<g id="node11" class="node"><title>Node10</title>
<polygon fill="white" stroke="#bfbfbf" points="868,-56.5 868,-75.5 922,-75.5 922,-56.5 868,-56.5"/>
<text text-anchor="middle" x="895" y="-63.5" font-family="Helvetica,sans-Serif" font-size="10.00">iostream</text>
</g>
<!-- Node4&#45;&gt;Node10 -->
<g id="edge10" class="edge"><title>Node4&#45;&gt;Node10</title>
<path fill="none" stroke="midnightblue" d="M1119.25,-190.302C1066.86,-183.763 956.024,-167.395 927,-143 909.739,-128.492 901.605,-103.069 897.9,-85.6524"/>
<polygon fill="midnightblue" stroke="midnightblue" points="901.297,-84.7661 896.055,-75.5589 894.411,-86.0254 901.297,-84.7661"/>
</g>
<!-- Node11 -->
<g id="node12" class="node"><title>Node11</title>
<polygon fill="white" stroke="#bfbfbf" points="935.5,-118 935.5,-137 970.5,-137 970.5,-118 935.5,-118"/>
<text text-anchor="middle" x="953" y="-125" font-family="Helvetica,sans-Serif" font-size="10.00">map</text>
</g>
<!-- Node4&#45;&gt;Node11 -->
<g id="edge11" class="edge"><title>Node4&#45;&gt;Node11</title>
<path fill="none" stroke="midnightblue" d="M1119.42,-186.025C1086.9,-176.953 1031.39,-160.664 985,-143 983.393,-142.388 981.752,-141.735 980.104,-141.058"/>
<polygon fill="midnightblue" stroke="midnightblue" points="981.344,-137.781 970.776,-137.023 978.565,-144.205 981.344,-137.781"/>
</g>
<!-- Node12 -->
<g id="node13" class="node"><title>Node12</title>
<g id="a_node13"><a xlink:href="_n_f_g_u_i_d_8h.html" target="_top" xlink:title="NFComm/NFPluginModule\l/NFGUID.h">
<polygon fill="white" stroke="black" points="747,-112.5 747,-142.5 879,-142.5 879,-112.5 747,-112.5"/>
<text text-anchor="start" x="755" y="-130.5" font-family="Helvetica,sans-Serif" font-size="10.00">NFComm/NFPluginModule</text>
<text text-anchor="middle" x="813" y="-119.5" font-family="Helvetica,sans-Serif" font-size="10.00">/NFGUID.h</text>
</a>
</g>
</g>
<!-- Node4&#45;&gt;Node12 -->
<g id="edge12" class="edge"><title>Node4&#45;&gt;Node12</title>
<path fill="none" stroke="midnightblue" d="M1119.38,-188.125C1069.45,-178.408 962.544,-157.603 889.204,-143.33"/>
<polygon fill="midnightblue" stroke="midnightblue" points="889.572,-139.836 879.088,-141.361 888.235,-146.707 889.572,-139.836"/>
</g>
<!-- Node19 -->
<g id="node20" class="node"><title>Node19</title>
<polygon fill="white" stroke="#bfbfbf" points="1027.5,-118 1027.5,-137 1092.5,-137 1092.5,-118 1027.5,-118"/>
<text text-anchor="middle" x="1060" y="-125" font-family="Helvetica,sans-Serif" font-size="10.00">netinet/in.h</text>
</g>
<!-- Node4&#45;&gt;Node19 -->
<g id="edge22" class="edge"><title>Node4&#45;&gt;Node19</title>
<path fill="none" stroke="midnightblue" d="M1135.27,-184.734C1121.05,-174.111 1096.87,-156.049 1079.76,-143.264"/>
<polygon fill="midnightblue" stroke="midnightblue" points="1081.65,-140.309 1071.55,-137.127 1077.46,-145.916 1081.65,-140.309"/>
</g>
<!-- Node20 -->
<g id="node21" class="node"><title>Node20</title>
<polygon fill="white" stroke="#bfbfbf" points="1110.5,-118 1110.5,-137 1183.5,-137 1183.5,-118 1110.5,-118"/>
<text text-anchor="middle" x="1147" y="-125" font-family="Helvetica,sans-Serif" font-size="10.00">sys/socket.h</text>
</g>
<!-- Node4&#45;&gt;Node20 -->
<g id="edge23" class="edge"><title>Node4&#45;&gt;Node20</title>
<path fill="none" stroke="midnightblue" d="M1147,-184.734C1147,-175.183 1147,-159.618 1147,-147.283"/>
<polygon fill="midnightblue" stroke="midnightblue" points="1150.5,-147.127 1147,-137.127 1143.5,-147.127 1150.5,-147.127"/>
</g>
<!-- Node21 -->
<g id="node22" class="node"><title>Node21</title>
<polygon fill="white" stroke="#bfbfbf" points="1202,-118 1202,-137 1244,-137 1244,-118 1202,-118"/>
<text text-anchor="middle" x="1223" y="-125" font-family="Helvetica,sans-Serif" font-size="10.00">vector</text>
</g>
<!-- Node4&#45;&gt;Node21 -->
<g id="edge24" class="edge"><title>Node4&#45;&gt;Node21</title>
<path fill="none" stroke="midnightblue" d="M1157.25,-184.734C1169.44,-174.305 1190.02,-156.709 1204.91,-143.973"/>
<polygon fill="midnightblue" stroke="midnightblue" points="1207.59,-146.287 1212.91,-137.127 1203.04,-140.967 1207.59,-146.287"/>
</g>
<!-- Node22 -->
<g id="node23" class="node"><title>Node22</title>
<polygon fill="white" stroke="#bfbfbf" points="1262,-118 1262,-137 1320,-137 1320,-118 1262,-118"/>
<text text-anchor="middle" x="1291" y="-125" font-family="Helvetica,sans-Serif" font-size="10.00">functional</text>
</g>
<!-- Node4&#45;&gt;Node22 -->
<g id="edge25" class="edge"><title>Node4&#45;&gt;Node22</title>
<path fill="none" stroke="midnightblue" d="M1166.12,-184.869C1190.76,-173.748 1233.81,-154.317 1262.36,-141.429"/>
<polygon fill="midnightblue" stroke="midnightblue" points="1264.12,-144.471 1271.8,-137.167 1261.24,-138.091 1264.12,-144.471"/>
</g>
<!-- Node23 -->
<g id="node24" class="node"><title>Node23</title>
<polygon fill="white" stroke="#bfbfbf" points="1338,-118 1338,-137 1390,-137 1390,-118 1338,-118"/>
<text text-anchor="middle" x="1364" y="-125" font-family="Helvetica,sans-Serif" font-size="10.00">memory</text>
</g>
<!-- Node4&#45;&gt;Node23 -->
<g id="edge26" class="edge"><title>Node4&#45;&gt;Node23</title>
<path fill="none" stroke="midnightblue" d="M1174.76,-186.919C1210.73,-178.138 1275.21,-161.528 1329,-143 1330.91,-142.341 1332.87,-141.632 1334.83,-140.893"/>
<polygon fill="midnightblue" stroke="midnightblue" points="1336.53,-143.987 1344.54,-137.056 1333.95,-137.478 1336.53,-143.987"/>
</g>
<!-- Node24 -->
<g id="node25" class="node"><title>Node24</title>
<polygon fill="white" stroke="#bfbfbf" points="303.5,-118 303.5,-137 332.5,-137 332.5,-118 303.5,-118"/>
<text text-anchor="middle" x="318" y="-125" font-family="Helvetica,sans-Serif" font-size="10.00">list</text>
</g>
<!-- Node4&#45;&gt;Node24 -->
<g id="edge27" class="edge"><title>Node4&#45;&gt;Node24</title>
<path fill="none" stroke="midnightblue" d="M1119.43,-193.524C995.75,-193.366 491.688,-189.807 342,-143 340.931,-142.666 339.861,-142.275 338.798,-141.839"/>
<polygon fill="midnightblue" stroke="midnightblue" points="340.152,-138.598 329.666,-137.082 336.918,-144.807 340.152,-138.598"/>
</g>
<!-- Node25 -->
<g id="node26" class="node"><title>Node25</title>
<polygon fill="white" stroke="#bfbfbf" points="1408.5,-118 1408.5,-137 1509.5,-137 1509.5,-118 1408.5,-118"/>
<text text-anchor="middle" x="1459" y="-125" font-family="Helvetica,sans-Serif" font-size="10.00">event2/bufferevent.h</text>
</g>
<!-- Node4&#45;&gt;Node25 -->
<g id="edge28" class="edge"><title>Node4&#45;&gt;Node25</title>
<path fill="none" stroke="midnightblue" d="M1174.67,-188.324C1221.14,-179.55 1317.74,-160.953 1399,-143 1404.1,-141.873 1409.44,-140.649 1414.73,-139.407"/>
<polygon fill="midnightblue" stroke="midnightblue" points="1415.87,-142.734 1424.79,-137.014 1414.25,-135.924 1415.87,-142.734"/>
</g>
<!-- Node26 -->
<g id="node27" class="node"><title>Node26</title>
<polygon fill="white" stroke="#bfbfbf" points="1527.5,-118 1527.5,-137 1606.5,-137 1606.5,-118 1527.5,-118"/>
<text text-anchor="middle" x="1567" y="-125" font-family="Helvetica,sans-Serif" font-size="10.00">event2/buffer.h</text>
</g>
<!-- Node4&#45;&gt;Node26 -->
<g id="edge29" class="edge"><title>Node4&#45;&gt;Node26</title>
<path fill="none" stroke="midnightblue" d="M1174.8,-191.244C1237,-185.866 1391.94,-170.632 1519,-143 1523.16,-142.095 1527.49,-141.006 1531.76,-139.836"/>
<polygon fill="midnightblue" stroke="midnightblue" points="1532.9,-143.149 1541.54,-137.01 1530.96,-136.425 1532.9,-143.149"/>
</g>
<!-- Node27 -->
<g id="node28" class="node"><title>Node27</title>
<polygon fill="white" stroke="#bfbfbf" points="1624.5,-118 1624.5,-137 1711.5,-137 1711.5,-118 1624.5,-118"/>
<text text-anchor="middle" x="1668" y="-125" font-family="Helvetica,sans-Serif" font-size="10.00">event2/listener.h</text>
</g>
<!-- Node4&#45;&gt;Node27 -->
<g id="edge30" class="edge"><title>Node4&#45;&gt;Node27</title>
<path fill="none" stroke="midnightblue" d="M1174.72,-192.112C1247.59,-188.12 1450.32,-174.795 1616,-143 1620.81,-142.077 1625.82,-140.927 1630.75,-139.681"/>
<polygon fill="midnightblue" stroke="midnightblue" points="1631.92,-142.993 1640.67,-137.03 1630.11,-136.23 1631.92,-142.993"/>
</g>
<!-- Node28 -->
<g id="node29" class="node"><title>Node28</title>
<polygon fill="white" stroke="#bfbfbf" points="1730,-118 1730,-137 1798,-137 1798,-118 1730,-118"/>
<text text-anchor="middle" x="1764" y="-125" font-family="Helvetica,sans-Serif" font-size="10.00">event2/util.h</text>
</g>
<!-- Node4&#45;&gt;Node28 -->
<g id="edge31" class="edge"><title>Node4&#45;&gt;Node28</title>
<path fill="none" stroke="midnightblue" d="M1174.53,-193.382C1257.82,-192.536 1514.16,-186.329 1721,-143 1724.69,-142.228 1728.5,-141.238 1732.25,-140.139"/>
<polygon fill="midnightblue" stroke="midnightblue" points="1733.49,-143.418 1741.96,-137.05 1731.37,-136.748 1733.49,-143.418"/>
</g>
<!-- Node29 -->
<g id="node30" class="node"><title>Node29</title>
<polygon fill="white" stroke="#bfbfbf" points="1816.5,-118 1816.5,-137 1899.5,-137 1899.5,-118 1816.5,-118"/>
<text text-anchor="middle" x="1858" y="-125" font-family="Helvetica,sans-Serif" font-size="10.00">event2/thread.h</text>
</g>
<!-- Node4&#45;&gt;Node29 -->
<g id="edge32" class="edge"><title>Node4&#45;&gt;Node29</title>
<path fill="none" stroke="midnightblue" d="M1174.6,-193.362C1265.66,-192.487 1564.62,-186.276 1807,-143 1811.84,-142.135 1816.89,-141 1821.83,-139.744"/>
<polygon fill="midnightblue" stroke="midnightblue" points="1823.03,-143.046 1831.77,-137.047 1821.2,-136.29 1823.03,-143.046"/>
</g>
<!-- Node30 -->
<g id="node31" class="node"><title>Node30</title>
<polygon fill="white" stroke="#bfbfbf" points="1918,-118 1918,-137 2034,-137 2034,-118 1918,-118"/>
<text text-anchor="middle" x="1976" y="-125" font-family="Helvetica,sans-Serif" font-size="10.00">event2/event_compat.h</text>
</g>
<!-- Node4&#45;&gt;Node30 -->
<g id="edge33" class="edge"><title>Node4&#45;&gt;Node30</title>
<path fill="none" stroke="midnightblue" d="M1174.83,-193.129C1274.68,-191.488 1624.1,-183.048 1909,-143 1916.29,-141.975 1923.97,-140.598 1931.43,-139.1"/>
<polygon fill="midnightblue" stroke="midnightblue" points="1932.33,-142.486 1941.4,-137.003 1930.89,-135.636 1932.33,-142.486"/>
</g>
<!-- Node31 -->
<g id="node32" class="node"><title>Node31</title>
<polygon fill="white" stroke="#bfbfbf" points="2052,-118 2052,-137 2104,-137 2104,-118 2052,-118"/>
<text text-anchor="middle" x="2078" y="-125" font-family="Helvetica,sans-Serif" font-size="10.00">assert.h</text>
</g>
<!-- Node4&#45;&gt;Node31 -->
<g id="edge34" class="edge"><title>Node4&#45;&gt;Node31</title>
<path fill="none" stroke="midnightblue" d="M1174.83,-193.186C1306.97,-191.503 1871.74,-182.112 2043,-143 2045.67,-142.39 2048.4,-141.593 2051.1,-140.688"/>
<polygon fill="midnightblue" stroke="midnightblue" points="2052.48,-143.908 2060.57,-137.069 2049.98,-137.369 2052.48,-143.908"/>
</g>
<!-- Node32 -->
<g id="node33" class="node"><title>Node32</title>
<polygon fill="white" stroke="#bfbfbf" points="2122,-118 2122,-137 2184,-137 2184,-118 2122,-118"/>
<text text-anchor="middle" x="2153" y="-125" font-family="Helvetica,sans-Serif" font-size="10.00">windows.h</text>
</g>
<!-- Node4&#45;&gt;Node32 -->
<g id="edge35" class="edge"><title>Node4&#45;&gt;Node32</title>
<path fill="none" stroke="midnightblue" d="M1174.64,-193.154C1312.49,-191.263 1926.4,-180.826 2113,-143 2116.43,-142.304 2119.97,-141.368 2123.45,-140.305"/>
<polygon fill="midnightblue" stroke="midnightblue" points="2124.64,-143.596 2132.99,-137.066 2122.39,-136.968 2124.64,-143.596"/>
</g>
<!-- Node12&#45;&gt;Node7 -->
<g id="edge20" class="edge"><title>Node12&#45;&gt;Node7</title>
<path fill="none" stroke="midnightblue" d="M785.984,-112.399C767.369,-102.684 742.79,-89.8551 724.509,-80.3137"/>
<polygon fill="midnightblue" stroke="midnightblue" points="726.073,-77.182 715.588,-75.6578 722.834,-83.3876 726.073,-77.182"/>
</g>
<!-- Node12&#45;&gt;Node10 -->
<g id="edge19" class="edge"><title>Node12&#45;&gt;Node10</title>
<path fill="none" stroke="midnightblue" d="M832.433,-112.399C845.208,-103.129 861.889,-91.0254 874.814,-81.6469"/>
<polygon fill="midnightblue" stroke="midnightblue" points="877.03,-84.3635 883.068,-75.6578 872.919,-78.6979 877.03,-84.3635"/>
</g>
<!-- Node13 -->
<g id="node14" class="node"><title>Node13</title>
<g id="a_node14"><a xlink:href="_n_f_platform_8h.html" target="_top" xlink:title="NFPlatform.h">
<polygon fill="white" stroke="black" points="385,-56.5 385,-75.5 459,-75.5 459,-56.5 385,-56.5"/>
<text text-anchor="middle" x="422" y="-63.5" font-family="Helvetica,sans-Serif" font-size="10.00">NFPlatform.h</text>
</a>
</g>
</g>
<!-- Node12&#45;&gt;Node13 -->
<g id="edge13" class="edge"><title>Node12&#45;&gt;Node13</title>
<path fill="none" stroke="midnightblue" d="M746.779,-113.513C743.814,-112.99 740.877,-112.483 738,-112 642.942,-96.0527 531.178,-81.002 469.292,-72.9915"/>
<polygon fill="midnightblue" stroke="midnightblue" points="469.431,-69.4805 459.065,-71.6732 468.536,-76.4231 469.431,-69.4805"/>
</g>
<!-- Node18 -->
<g id="node19" class="node"><title>Node18</title>
<polygon fill="white" stroke="#bfbfbf" points="789,-56.5 789,-75.5 837,-75.5 837,-56.5 789,-56.5"/>
<text text-anchor="middle" x="813" y="-63.5" font-family="Helvetica,sans-Serif" font-size="10.00">stdlib.h</text>
</g>
<!-- Node12&#45;&gt;Node18 -->
<g id="edge21" class="edge"><title>Node12&#45;&gt;Node18</title>
<path fill="none" stroke="midnightblue" d="M813,-112.399C813,-104.466 813,-94.458 813,-85.8583"/>
<polygon fill="midnightblue" stroke="midnightblue" points="816.5,-85.6577 813,-75.6578 809.5,-85.6578 816.5,-85.6577"/>
</g>
<!-- Node13&#45;&gt;Node9 -->
<g id="edge14" class="edge"><title>Node13&#45;&gt;Node9</title>
<path fill="none" stroke="midnightblue" d="M459.034,-60.3493C541.113,-50.0416 737.361,-25.3966 817.262,-15.3625"/>
<polygon fill="midnightblue" stroke="midnightblue" points="817.814,-18.8208 827.3,-14.1019 816.941,-11.8753 817.814,-18.8208"/>
</g>
<!-- Node14 -->
<g id="node15" class="node"><title>Node14</title>
<polygon fill="white" stroke="#bfbfbf" points="431,-0.5 431,-19.5 475,-19.5 475,-0.5 431,-0.5"/>
<text text-anchor="middle" x="453" y="-7.5" font-family="Helvetica,sans-Serif" font-size="10.00">time.h</text>
</g>
<!-- Node13&#45;&gt;Node14 -->
<g id="edge15" class="edge"><title>Node13&#45;&gt;Node14</title>
<path fill="none" stroke="midnightblue" d="M427.119,-56.083C431.408,-48.6127 437.658,-37.7244 442.942,-28.5199"/>
<polygon fill="midnightblue" stroke="midnightblue" points="446.033,-30.1662 447.976,-19.7511 439.962,-26.6811 446.033,-30.1662"/>
</g>
<!-- Node15 -->
<g id="node16" class="node"><title>Node15</title>
<polygon fill="white" stroke="#bfbfbf" points="493,-0.5 493,-19.5 545,-19.5 545,-0.5 493,-0.5"/>
<text text-anchor="middle" x="519" y="-7.5" font-family="Helvetica,sans-Serif" font-size="10.00">sstream</text>
</g>
<!-- Node13&#45;&gt;Node15 -->
<g id="edge16" class="edge"><title>Node13&#45;&gt;Node15</title>
<path fill="none" stroke="midnightblue" d="M437.585,-56.324C452.999,-47.7428 476.812,-34.486 494.71,-24.5224"/>
<polygon fill="midnightblue" stroke="midnightblue" points="496.419,-27.5767 503.454,-19.6545 493.014,-21.4606 496.419,-27.5767"/>
</g>
<!-- Node16 -->
<g id="node17" class="node"><title>Node16</title>
<polygon fill="white" stroke="#bfbfbf" points="225,-0.5 225,-19.5 353,-19.5 353,-0.5 225,-0.5"/>
<text text-anchor="middle" x="289" y="-7.5" font-family="Helvetica,sans-Serif" font-size="10.00">common/lexical_cast.hpp</text>
</g>
<!-- Node13&#45;&gt;Node16 -->
<g id="edge17" class="edge"><title>Node13&#45;&gt;Node16</title>
<path fill="none" stroke="midnightblue" d="M400.926,-56.4435C378.94,-47.5171 344.266,-33.4387 319.336,-23.3168"/>
<polygon fill="midnightblue" stroke="midnightblue" points="320.558,-20.0355 309.976,-19.5164 317.924,-26.5213 320.558,-20.0355"/>
</g>
<!-- Node17 -->
<g id="node18" class="node"><title>Node17</title>
<polygon fill="white" stroke="#bfbfbf" points="371.5,-0.5 371.5,-19.5 412.5,-19.5 412.5,-0.5 371.5,-0.5"/>
<text text-anchor="middle" x="392" y="-7.5" font-family="Helvetica,sans-Serif" font-size="10.00">string</text>
</g>
<!-- Node13&#45;&gt;Node17 -->
<g id="edge18" class="edge"><title>Node13&#45;&gt;Node17</title>
<path fill="none" stroke="midnightblue" d="M417.046,-56.083C412.896,-48.6127 406.847,-37.7244 401.733,-28.5199"/>
<polygon fill="midnightblue" stroke="midnightblue" points="404.778,-26.7929 396.862,-19.7511 398.659,-30.1924 404.778,-26.7929"/>
</g>
<!-- Node33&#45;&gt;Node2 -->
<g id="edge38" class="edge"><title>Node33&#45;&gt;Node2</title>
<path fill="none" stroke="midnightblue" d="M137.621,-184.734C154.431,-173.916 183.228,-155.383 203.144,-142.566"/>
<polygon fill="midnightblue" stroke="midnightblue" points="205.08,-145.482 211.594,-137.127 201.291,-139.596 205.08,-145.482"/>
</g>
<!-- Node33&#45;&gt;Node3 -->
<g id="edge40" class="edge"><title>Node33&#45;&gt;Node3</title>
<path fill="none" stroke="midnightblue" d="M110.379,-184.734C93.5689,-173.916 64.7723,-155.383 44.8563,-142.566"/>
<polygon fill="midnightblue" stroke="midnightblue" points="46.7087,-139.596 36.4055,-137.127 42.9205,-145.482 46.7087,-139.596"/>
</g>
<!-- Node33&#45;&gt;Node13 -->
<g id="edge41" class="edge"><title>Node33&#45;&gt;Node13</title>
<path fill="none" stroke="midnightblue" d="M121.79,-184.745C118.175,-168.136 113.149,-131.939 132,-112 164.319,-77.8151 300.915,-69.5332 374.528,-67.572"/>
<polygon fill="midnightblue" stroke="midnightblue" points="374.998,-71.062 384.912,-67.3262 374.832,-64.0639 374.998,-71.062"/>
</g>
<!-- Node33&#45;&gt;Node24 -->
<g id="edge37" class="edge"><title>Node33&#45;&gt;Node24</title>
<path fill="none" stroke="midnightblue" d="M149.762,-184.869C187.286,-172.296 256.508,-149.103 293.378,-136.75"/>
<polygon fill="midnightblue" stroke="midnightblue" points="294.919,-139.925 303.289,-133.429 292.695,-133.287 294.919,-139.925"/>
</g>
<!-- Node34 -->
<g id="node35" class="node"><title>Node34</title>
<polygon fill="white" stroke="#bfbfbf" points="141,-118 141,-137 185,-137 185,-118 141,-118"/>
<text text-anchor="middle" x="163" y="-125" font-family="Helvetica,sans-Serif" font-size="10.00">mutex</text>
</g>
<!-- Node33&#45;&gt;Node34 -->
<g id="edge39" class="edge"><title>Node33&#45;&gt;Node34</title>
<path fill="none" stroke="midnightblue" d="M129.26,-184.734C135.224,-174.793 145.097,-158.338 152.626,-145.789"/>
<polygon fill="midnightblue" stroke="midnightblue" points="155.68,-147.503 157.824,-137.127 149.677,-143.901 155.68,-147.503"/>
</g>
<!-- Node36&#45;&gt;Node2 -->
<g id="edge45" class="edge"><title>Node36&#45;&gt;Node2</title>
<path fill="none" stroke="midnightblue" d="M305.651,-179.396C288.378,-168.496 264.582,-153.479 247.317,-142.584"/>
<polygon fill="midnightblue" stroke="midnightblue" points="248.805,-139.384 238.48,-137.007 245.069,-145.304 248.805,-139.384"/>
</g>
<!-- Node36&#45;&gt;Node13 -->
<g id="edge46" class="edge"><title>Node36&#45;&gt;Node13</title>
<path fill="none" stroke="midnightblue" d="M313.966,-179.287C298.871,-162.229 278.934,-133.267 294,-112 312.191,-86.322 346.254,-75.1894 374.67,-70.414"/>
<polygon fill="midnightblue" stroke="midnightblue" points="375.454,-73.8366 384.843,-68.9271 374.442,-66.9102 375.454,-73.8366"/>
</g>
<!-- Node36&#45;&gt;Node24 -->
<g id="edge44" class="edge"><title>Node36&#45;&gt;Node24</title>
<path fill="none" stroke="midnightblue" d="M325.83,-179.396C324.379,-169.963 322.454,-157.448 320.875,-147.189"/>
<polygon fill="midnightblue" stroke="midnightblue" points="324.318,-146.546 319.338,-137.195 317.399,-147.61 324.318,-146.546"/>
</g>
<!-- Node36&#45;&gt;Node35 -->
<g id="edge47" class="edge"><title>Node36&#45;&gt;Node35</title>
<path fill="none" stroke="midnightblue" d="M348.397,-179.396C364.014,-168.597 385.475,-153.756 401.194,-142.887"/>
<polygon fill="midnightblue" stroke="midnightblue" points="403.463,-145.573 409.698,-137.007 399.482,-139.816 403.463,-145.573"/>
</g>
</g>
</svg>
        <g id="navigator" transform="translate(0 0)" fill="#404254">
                <rect fill="#f2f5e9" fill-opacity="0.5" stroke="#606060" stroke-width=".5" x="0" y="0" width="60" height="60"/>
                <use id="zoomplus" xlink:href="#zoomPlus" x="17" y="9" onmousedown="handleZoom(evt,'in')"/>
                <use id="zoomminus" xlink:href="#zoomMin" x="42" y="9" onmousedown="handleZoom(evt,'out')"/>
                <use id="reset" xlink:href="#resetDef" x="30" y="36" onmousedown="handleReset()"/>
                <g id="arrowUp" xlink:href="#dirArrow" transform="translate(30 24)" onmousedown="handlePan(0,-1)">
                  <use xlink:href="#rim" fill="#404040">
                        <set attributeName="fill" to="#808080" begin="arrowUp.mouseover" end="arrowUp.mouseout"/>
                  </use>
                  <path fill="none" stroke="white" stroke-width="1.5" d="M0,-3.0v7 M-2.5,-0.5L0,-3.0L2.5,-0.5"/>
                </g>
                <g id="arrowRight" xlink:href="#dirArrow" transform="rotate(90) translate(36 -43)" onmousedown="handlePan(1,0)">
                  <use xlink:href="#rim" fill="#404040">
                        <set attributeName="fill" to="#808080" begin="arrowRight.mouseover" end="arrowRight.mouseout"/>
                  </use>
                  <path fill="none" stroke="white" stroke-width="1.5" d="M0,-3.0v7 M-2.5,-0.5L0,-3.0L2.5,-0.5"/>
                </g>
                <g id="arrowDown" xlink:href="#dirArrow" transform="rotate(180) translate(-30 -48)" onmousedown="handlePan(0,1)">
                  <use xlink:href="#rim" fill="#404040">
                        <set attributeName="fill" to="#808080" begin="arrowDown.mouseover" end="arrowDown.mouseout"/>
                  </use>
                  <path fill="none" stroke="white" stroke-width="1.5" d="M0,-3.0v7 M-2.5,-0.5L0,-3.0L2.5,-0.5"/>
                </g>
                <g id="arrowLeft" xlink:href="#dirArrow" transform="rotate(270) translate(-36 17)" onmousedown="handlePan(-1,0)">
                  <use xlink:href="#rim" fill="#404040">
                        <set attributeName="fill" to="#808080" begin="arrowLeft.mouseover" end="arrowLeft.mouseout"/>
                  </use>
                  <path fill="none" stroke="white" stroke-width="1.5" d="M0,-3.0v7 M-2.5,-0.5L0,-3.0L2.5,-0.5"/>
                </g>
        </g>
        <svg viewBox="0 0 15 15" width="100%" height="30px" preserveAspectRatio="xMaxYMin meet">
         <g id="arrow_out" transform="scale(0.3 0.3)">
          <a xlink:href="_n_f_c_mul_net_8cpp__incl_org.svg" target="_base">
           <rect id="button" ry="5" rx="5" y="6" x="6" height="38" width="38"
                fill="#f2f5e9" fill-opacity="0.5" stroke="#606060" stroke-width="1.0"/>
           <path id="arrow"
             d="M 11.500037,31.436501 C 11.940474,20.09759 22.043105,11.32322 32.158766,21.979434 L 37.068811,17.246167 C 37.068811,17.246167 37.088388,32 37.088388,32 L 22.160133,31.978069 C 22.160133,31.978069 26.997745,27.140456 26.997745,27.140456 C 18.528582,18.264221 13.291696,25.230495 11.500037,31.436501 z"
             style="fill:#404040;"/>
          </a>
         </g>
        </svg>
</svg>
