<?xml version="1.0" encoding="UTF-8" standalone="no"?>
<!DOCTYPE svg PUBLIC "-//W3C//DTD SVG 1.1//EN"
 "http://www.w3.org/Graphics/SVG/1.1/DTD/svg11.dtd">
<!-- Generated by graphviz version 2.38.0 (20140413.2041)
 -->
<!-- Title: NFDefine.h Pages: 1 -->
<!--zoomable 263 -->
<svg id="main" version="1.1" xmlns="http://www.w3.org/2000/svg" xmlns:xlink="http://www.w3.org/1999/xlink" xml:space="preserve" onload="init(evt)">
<style type="text/css"><![CDATA[
.edge:hover path { stroke: red; }
.edge:hover polygon { stroke: red; fill: red; }
]]></style>
<script type="text/javascript"><![CDATA[
var edges = document.getElementsByTagName('g');
if (edges && edges.length) {
  for (var i=0;i<edges.length;i++) {
    if (edges[i].id.substr(0,4)=='edge') {
      edges[i].setAttribute('class','edge');
    }
  }
}
]]></script>
        <defs>
                <circle id="rim" cx="0" cy="0" r="7"/>
                <circle id="rim2" cx="0" cy="0" r="3.5"/>
                <g id="zoomPlus">
                        <use xlink:href="#rim" fill="#404040">
                                <set attributeName="fill" to="#808080" begin="zoomplus.mouseover" end="zoomplus.mouseout"/>
                        </use>
                        <path d="M-4,0h8M0,-4v8" fill="none" stroke="white" stroke-width="1.5" pointer-events="none"/>
                </g>
                <g id="zoomMin">
                        <use xlink:href="#rim" fill="#404040">
                                <set attributeName="fill" to="#808080" begin="zoomminus.mouseover" end="zoomminus.mouseout"/>
                        </use>
                        <path d="M-4,0h8" fill="none" stroke="white" stroke-width="1.5" pointer-events="none"/>
                </g>
                <g id="dirArrow">
                        <path fill="none" stroke="white" stroke-width="1.5" d="M0,-3.0v7 M-2.5,-0.5L0,-3.0L2.5,-0.5"/>
                </g>
               <g id="resetDef">
                       <use xlink:href="#rim2" fill="#404040">
                               <set attributeName="fill" to="#808080" begin="reset.mouseover" end="reset.mouseout"/>
                       </use>
               </g>
        </defs>

<script type="text/javascript">
var viewWidth = 1315;
var viewHeight = 263;
var sectionId = 'dynsection-0';
</script>
<script xlink:href="svgpan.js"/>
<svg id="graph" class="graph">
<g id="viewport">
<title>NFDefine.h</title>
<polygon fill="white" stroke="none" points="-4,4 -4,-259 1311,-259 1311,4 -4,4"/>
<!-- Node0 -->
<g id="node1" class="node"><title>Node0</title>
<polygon fill="#bfbfbf" stroke="black" points="627.5,-235.5 627.5,-254.5 692.5,-254.5 692.5,-235.5 627.5,-235.5"/>
<text text-anchor="middle" x="660" y="-242.5" font-family="Helvetica,sans-Serif" font-size="10.00">NFDefine.h</text>
</g>
<!-- Node1 -->
<g id="node2" class="node"><title>Node1</title>
<polygon fill="white" stroke="#bfbfbf" points="0,-118 0,-137 58,-137 58,-118 0,-118"/>
<text text-anchor="middle" x="29" y="-125" font-family="Helvetica,sans-Serif" font-size="10.00">functional</text>
</g>
<!-- Node0&#45;&gt;Node1 -->
<g id="edge1" class="edge"><title>Node0&#45;&gt;Node1</title>
<path fill="none" stroke="midnightblue" d="M627.376,-240.715C537.053,-231.137 276.548,-200.231 67,-143 64.3456,-142.275 61.6187,-141.435 58.9031,-140.531"/>
<polygon fill="midnightblue" stroke="midnightblue" points="59.8606,-137.156 49.2661,-137.074 57.4967,-143.745 59.8606,-137.156"/>
</g>
<!-- Node2 -->
<g id="node3" class="node"><title>Node2</title>
<g id="a_node3"><a xlink:href="_a_f_data_list_8hpp.html" target="_top" xlink:title="AFDataList.hpp">
<polygon fill="white" stroke="black" points="618,-179.5 618,-198.5 702,-198.5 702,-179.5 618,-179.5"/>
<text text-anchor="middle" x="660" y="-186.5" font-family="Helvetica,sans-Serif" font-size="10.00">AFDataList.hpp</text>
</a>
</g>
</g>
<!-- Node0&#45;&gt;Node2 -->
<g id="edge2" class="edge"><title>Node0&#45;&gt;Node2</title>
<path fill="none" stroke="midnightblue" d="M660,-235.083C660,-228.006 660,-217.861 660,-208.986"/>
<polygon fill="midnightblue" stroke="midnightblue" points="663.5,-208.751 660,-198.751 656.5,-208.751 663.5,-208.751"/>
</g>
<!-- Node18 -->
<g id="node19" class="node"><title>Node18</title>
<g id="a_node19"><a xlink:href="_n_f_g_u_i_d_8h.html" target="_top" xlink:title="NFComm/NFPluginModule\l/NFGUID.h">
<polygon fill="white" stroke="black" points="1133,-112.5 1133,-142.5 1265,-142.5 1265,-112.5 1133,-112.5"/>
<text text-anchor="start" x="1141" y="-130.5" font-family="Helvetica,sans-Serif" font-size="10.00">NFComm/NFPluginModule</text>
<text text-anchor="middle" x="1199" y="-119.5" font-family="Helvetica,sans-Serif" font-size="10.00">/NFGUID.h</text>
</a>
</g>
</g>
<!-- Node0&#45;&gt;Node18 -->
<g id="edge31" class="edge"><title>Node0&#45;&gt;Node18</title>
<path fill="none" stroke="midnightblue" d="M692.503,-237.035C776.848,-218.961 1004.44,-170.192 1123.73,-144.63"/>
<polygon fill="midnightblue" stroke="midnightblue" points="1124.48,-148.048 1133.53,-142.53 1123.01,-141.203 1124.48,-148.048"/>
</g>
<!-- Node2&#45;&gt;Node1 -->
<g id="edge15" class="edge"><title>Node2&#45;&gt;Node1</title>
<path fill="none" stroke="midnightblue" d="M617.601,-186.372C500.121,-181.608 172.164,-166.531 67,-143 63.996,-142.328 60.9132,-141.464 57.8655,-140.494"/>
<polygon fill="midnightblue" stroke="midnightblue" points="58.9842,-137.177 48.3894,-137.133 56.6446,-143.774 58.9842,-137.177"/>
</g>
<!-- Node3 -->
<g id="node4" class="node"><title>Node3</title>
<polygon fill="white" stroke="#bfbfbf" points="744.5,-0.5 744.5,-19.5 785.5,-19.5 785.5,-0.5 744.5,-0.5"/>
<text text-anchor="middle" x="765" y="-7.5" font-family="Helvetica,sans-Serif" font-size="10.00">string</text>
</g>
<!-- Node2&#45;&gt;Node3 -->
<g id="edge3" class="edge"><title>Node2&#45;&gt;Node3</title>
<path fill="none" stroke="midnightblue" d="M676.745,-179.457C690.446,-171.673 709.394,-158.968 721,-143 746.599,-107.778 757.963,-56.7156 762.446,-29.5809"/>
<polygon fill="midnightblue" stroke="midnightblue" points="765.931,-29.944 763.968,-19.5326 759.01,-28.8957 765.931,-29.944"/>
</g>
<!-- Node4 -->
<g id="node5" class="node"><title>Node4</title>
<polygon fill="white" stroke="#bfbfbf" points="880,-118 880,-137 926,-137 926,-118 880,-118"/>
<text text-anchor="middle" x="903" y="-125" font-family="Helvetica,sans-Serif" font-size="10.00">cstring</text>
</g>
<!-- Node2&#45;&gt;Node4 -->
<g id="edge4" class="edge"><title>Node2&#45;&gt;Node4</title>
<path fill="none" stroke="midnightblue" d="M702.341,-181.727C745.455,-174.703 813.894,-161.784 871,-143 872.869,-142.385 874.774,-141.695 876.678,-140.959"/>
<polygon fill="midnightblue" stroke="midnightblue" points="878.149,-144.137 885.999,-137.022 875.426,-137.689 878.149,-144.137"/>
</g>
<!-- Node5 -->
<g id="node6" class="node"><title>Node5</title>
<polygon fill="white" stroke="#bfbfbf" points="1253,-56.5 1253,-75.5 1307,-75.5 1307,-56.5 1253,-56.5"/>
<text text-anchor="middle" x="1280" y="-63.5" font-family="Helvetica,sans-Serif" font-size="10.00">iostream</text>
</g>
<!-- Node2&#45;&gt;Node5 -->
<g id="edge5" class="edge"><title>Node2&#45;&gt;Node5</title>
<path fill="none" stroke="midnightblue" d="M702.268,-188.016C834.449,-187.645 1233.59,-183.179 1274,-143 1288.78,-128.301 1287.65,-102.922 1284.58,-85.5677"/>
<polygon fill="midnightblue" stroke="midnightblue" points="1287.95,-84.5659 1282.44,-75.5153 1281.1,-86.0252 1287.95,-84.5659"/>
</g>
<!-- Node6 -->
<g id="node7" class="node"><title>Node6</title>
<polygon fill="white" stroke="#bfbfbf" points="930,-56.5 930,-75.5 978,-75.5 978,-56.5 930,-56.5"/>
<text text-anchor="middle" x="954" y="-63.5" font-family="Helvetica,sans-Serif" font-size="10.00">stdlib.h</text>
</g>
<!-- Node2&#45;&gt;Node6 -->
<g id="edge6" class="edge"><title>Node2&#45;&gt;Node6</title>
<path fill="none" stroke="midnightblue" d="M702.186,-186.619C770.675,-183.498 901.764,-173.593 935,-143 950.761,-128.493 954.32,-103.069 954.726,-85.6528"/>
<polygon fill="midnightblue" stroke="midnightblue" points="958.225,-85.5267 954.634,-75.5591 951.225,-85.5907 958.225,-85.5267"/>
</g>
<!-- Node7 -->
<g id="node8" class="node"><title>Node7</title>
<polygon fill="white" stroke="#bfbfbf" points="1020.5,-118 1020.5,-137 1067.5,-137 1067.5,-118 1020.5,-118"/>
<text text-anchor="middle" x="1044" y="-125" font-family="Helvetica,sans-Serif" font-size="10.00">math.h</text>
</g>
<!-- Node2&#45;&gt;Node7 -->
<g id="edge7" class="edge"><title>Node2&#45;&gt;Node7</title>
<path fill="none" stroke="midnightblue" d="M702.137,-185.719C767.89,-181.448 898.51,-170.095 1006,-143 1008.82,-142.288 1011.73,-141.429 1014.6,-140.489"/>
<polygon fill="midnightblue" stroke="midnightblue" points="1015.93,-143.733 1024.17,-137.075 1013.57,-137.141 1015.93,-143.733"/>
</g>
<!-- Node8 -->
<g id="node9" class="node"><title>Node8</title>
<polygon fill="white" stroke="#bfbfbf" points="1085.5,-118 1085.5,-137 1114.5,-137 1114.5,-118 1085.5,-118"/>
<text text-anchor="middle" x="1100" y="-125" font-family="Helvetica,sans-Serif" font-size="10.00">list</text>
</g>
<!-- Node2&#45;&gt;Node8 -->
<g id="edge8" class="edge"><title>Node2&#45;&gt;Node8</title>
<path fill="none" stroke="midnightblue" d="M702.291,-185.862C794.014,-180.834 1008.49,-166.85 1077,-143 1077.74,-142.744 1078.47,-142.461 1079.21,-142.155"/>
<polygon fill="midnightblue" stroke="midnightblue" points="1081.18,-145.069 1088.35,-137.273 1077.88,-138.893 1081.18,-145.069"/>
</g>
<!-- Node9 -->
<g id="node10" class="node"><title>Node9</title>
<polygon fill="white" stroke="#bfbfbf" points="76,-118 76,-137 118,-137 118,-118 76,-118"/>
<text text-anchor="middle" x="97" y="-125" font-family="Helvetica,sans-Serif" font-size="10.00">vector</text>
</g>
<!-- Node2&#45;&gt;Node9 -->
<g id="edge9" class="edge"><title>Node2&#45;&gt;Node9</title>
<path fill="none" stroke="midnightblue" d="M617.9,-186.427C508.868,-182.038 219.367,-168.288 127,-143 125.274,-142.527 123.527,-141.957 121.789,-141.32"/>
<polygon fill="midnightblue" stroke="midnightblue" points="122.717,-137.908 112.149,-137.15 119.937,-144.333 122.717,-137.908"/>
</g>
<!-- Node10 -->
<g id="node11" class="node"><title>Node10</title>
<polygon fill="white" stroke="#bfbfbf" points="136.5,-118 136.5,-137 171.5,-137 171.5,-118 136.5,-118"/>
<text text-anchor="middle" x="154" y="-125" font-family="Helvetica,sans-Serif" font-size="10.00">map</text>
</g>
<!-- Node2&#45;&gt;Node10 -->
<g id="edge10" class="edge"><title>Node2&#45;&gt;Node10</title>
<path fill="none" stroke="midnightblue" d="M617.719,-186.181C516.425,-181.478 262.259,-167.537 181,-143 179.567,-142.567 178.124,-142.055 176.689,-141.485"/>
<polygon fill="midnightblue" stroke="midnightblue" points="178.086,-138.274 167.553,-137.138 175.078,-144.595 178.086,-138.274"/>
</g>
<!-- Node11 -->
<g id="node12" class="node"><title>Node11</title>
<polygon fill="white" stroke="#bfbfbf" points="190,-118 190,-137 246,-137 246,-118 190,-118"/>
<text text-anchor="middle" x="218" y="-125" font-family="Helvetica,sans-Serif" font-size="10.00">algorithm</text>
</g>
<!-- Node2&#45;&gt;Node11 -->
<g id="edge11" class="edge"><title>Node2&#45;&gt;Node11</title>
<path fill="none" stroke="midnightblue" d="M617.972,-186.953C543.696,-184.305 384.81,-175.053 255,-143 252.174,-142.302 249.275,-141.441 246.403,-140.488"/>
<polygon fill="midnightblue" stroke="midnightblue" points="247.486,-137.158 236.892,-137.006 245.079,-143.731 247.486,-137.158"/>
</g>
<!-- Node12 -->
<g id="node13" class="node"><title>Node12</title>
<polygon fill="white" stroke="#bfbfbf" points="264,-118 264,-137 316,-137 316,-118 264,-118"/>
<text text-anchor="middle" x="290" y="-125" font-family="Helvetica,sans-Serif" font-size="10.00">assert.h</text>
</g>
<!-- Node2&#45;&gt;Node12 -->
<g id="edge12" class="edge"><title>Node2&#45;&gt;Node12</title>
<path fill="none" stroke="midnightblue" d="M617.794,-185.841C553.593,-181.775 427.983,-170.743 325,-143 322.555,-142.341 320.054,-141.553 317.568,-140.688"/>
<polygon fill="midnightblue" stroke="midnightblue" points="318.805,-137.414 308.216,-137.093 316.294,-143.948 318.805,-137.414"/>
</g>
<!-- Node13 -->
<g id="node14" class="node"><title>Node13</title>
<polygon fill="white" stroke="#bfbfbf" points="334,-118 334,-137 384,-137 384,-118 334,-118"/>
<text text-anchor="middle" x="359" y="-125" font-family="Helvetica,sans-Serif" font-size="10.00">typeinfo</text>
</g>
<!-- Node2&#45;&gt;Node13 -->
<g id="edge13" class="edge"><title>Node2&#45;&gt;Node13</title>
<path fill="none" stroke="midnightblue" d="M617.686,-183.988C564.447,-178.234 470.591,-165.736 393,-143 390.848,-142.37 388.651,-141.641 386.46,-140.853"/>
<polygon fill="midnightblue" stroke="midnightblue" points="387.647,-137.559 377.061,-137.137 385.073,-144.069 387.647,-137.559"/>
</g>
<!-- Node14 -->
<g id="node15" class="node"><title>Node14</title>
<polygon fill="white" stroke="#bfbfbf" points="402,-118 402,-137 452,-137 452,-118 402,-118"/>
<text text-anchor="middle" x="427" y="-125" font-family="Helvetica,sans-Serif" font-size="10.00">iomanip</text>
</g>
<!-- Node2&#45;&gt;Node14 -->
<g id="edge14" class="edge"><title>Node2&#45;&gt;Node14</title>
<path fill="none" stroke="midnightblue" d="M617.864,-180.764C577.172,-173.242 514.082,-160.165 461,-143 459.077,-142.378 457.112,-141.69 455.145,-140.961"/>
<polygon fill="midnightblue" stroke="midnightblue" points="456.059,-137.557 445.475,-137.095 453.461,-144.057 456.059,-137.557"/>
</g>
<!-- Node15 -->
<g id="node16" class="node"><title>Node15</title>
<polygon fill="white" stroke="#bfbfbf" points="470.5,-118 470.5,-137 519.5,-137 519.5,-118 470.5,-118"/>
<text text-anchor="middle" x="495" y="-125" font-family="Helvetica,sans-Serif" font-size="10.00">fstream</text>
</g>
<!-- Node2&#45;&gt;Node15 -->
<g id="edge16" class="edge"><title>Node2&#45;&gt;Node15</title>
<path fill="none" stroke="midnightblue" d="M633.201,-179.423C606.58,-170.756 564.689,-156.72 529,-143 527.353,-142.367 525.667,-141.702 523.97,-141.021"/>
<polygon fill="midnightblue" stroke="midnightblue" points="524.898,-137.617 514.32,-137.025 522.22,-144.084 524.898,-137.617"/>
</g>
<!-- Node16 -->
<g id="node17" class="node"><title>Node16</title>
<polygon fill="white" stroke="#bfbfbf" points="538,-118 538,-137 590,-137 590,-118 538,-118"/>
<text text-anchor="middle" x="564" y="-125" font-family="Helvetica,sans-Serif" font-size="10.00">memory</text>
</g>
<!-- Node2&#45;&gt;Node16 -->
<g id="edge17" class="edge"><title>Node2&#45;&gt;Node16</title>
<path fill="none" stroke="midnightblue" d="M646.246,-179.475C630.634,-169.799 604.937,-153.872 586.417,-142.394"/>
<polygon fill="midnightblue" stroke="midnightblue" points="588.073,-139.302 577.729,-137.009 584.385,-145.252 588.073,-139.302"/>
</g>
<!-- Node17 -->
<g id="node18" class="node"><title>Node17</title>
<polygon fill="white" stroke="#bfbfbf" points="608,-118 608,-137 712,-137 712,-118 608,-118"/>
<text text-anchor="middle" x="660" y="-125" font-family="Helvetica,sans-Serif" font-size="10.00">common/variant.hpp</text>
</g>
<!-- Node2&#45;&gt;Node17 -->
<g id="edge18" class="edge"><title>Node2&#45;&gt;Node17</title>
<path fill="none" stroke="midnightblue" d="M660,-179.475C660,-171.08 660,-157.981 660,-147.163"/>
<polygon fill="midnightblue" stroke="midnightblue" points="663.5,-147.009 660,-137.009 656.5,-147.009 663.5,-147.009"/>
</g>
<!-- Node2&#45;&gt;Node18 -->
<g id="edge19" class="edge"><title>Node2&#45;&gt;Node18</title>
<path fill="none" stroke="midnightblue" d="M702.068,-185.255C782.033,-179.748 961.646,-165.997 1122.71,-143.099"/>
<polygon fill="midnightblue" stroke="midnightblue" points="1123.4,-146.536 1132.8,-141.649 1122.41,-139.607 1123.4,-146.536"/>
</g>
<!-- Node19 -->
<g id="node20" class="node"><title>Node19</title>
<g id="a_node20"><a xlink:href="_n_f_platform_8h.html" target="_top" xlink:title="NFPlatform.h">
<polygon fill="white" stroke="black" points="996,-56.5 996,-75.5 1070,-75.5 1070,-56.5 996,-56.5"/>
<text text-anchor="middle" x="1033" y="-63.5" font-family="Helvetica,sans-Serif" font-size="10.00">NFPlatform.h</text>
</a>
</g>
</g>
<!-- Node2&#45;&gt;Node19 -->
<g id="edge29" class="edge"><title>Node2&#45;&gt;Node19</title>
<path fill="none" stroke="midnightblue" d="M702.062,-184.931C773.256,-179.198 914.054,-165.375 958,-143 985.009,-129.248 1008.11,-102.062 1021.28,-84.2104"/>
<polygon fill="midnightblue" stroke="midnightblue" points="1024.28,-86.0246 1027.23,-75.847 1018.58,-81.9672 1024.28,-86.0246"/>
</g>
<!-- Node25 -->
<g id="node26" class="node"><title>Node25</title>
<g id="a_node26"><a xlink:href="_vector3_8hpp.html" target="_top" xlink:title="Math/Vector3.hpp">
<polygon fill="white" stroke="black" points="768,-118 768,-137 862,-137 862,-118 768,-118"/>
<text text-anchor="middle" x="815" y="-125" font-family="Helvetica,sans-Serif" font-size="10.00">Math/Vector3.hpp</text>
</a>
</g>
</g>
<!-- Node2&#45;&gt;Node25 -->
<g id="edge30" class="edge"><title>Node2&#45;&gt;Node25</title>
<path fill="none" stroke="midnightblue" d="M682.208,-179.475C708.681,-169.313 753.114,-152.256 783.22,-140.7"/>
<polygon fill="midnightblue" stroke="midnightblue" points="784.752,-143.86 792.833,-137.009 782.243,-137.325 784.752,-143.86"/>
</g>
<!-- Node18&#45;&gt;Node5 -->
<g id="edge26" class="edge"><title>Node18&#45;&gt;Node5</title>
<path fill="none" stroke="midnightblue" d="M1218.2,-112.399C1230.82,-103.129 1247.29,-91.0254 1260.06,-81.6469"/>
<polygon fill="midnightblue" stroke="midnightblue" points="1262.23,-84.3987 1268.21,-75.6578 1258.08,-78.7572 1262.23,-84.3987"/>
</g>
<!-- Node18&#45;&gt;Node6 -->
<g id="edge28" class="edge"><title>Node18&#45;&gt;Node6</title>
<path fill="none" stroke="midnightblue" d="M1137.64,-112.438C1097.56,-103.124 1043.85,-90.4035 987.864,-76.1632"/>
<polygon fill="midnightblue" stroke="midnightblue" points="988.682,-72.7598 978.127,-73.6769 986.95,-79.5422 988.682,-72.7598"/>
</g>
<!-- Node18&#45;&gt;Node19 -->
<g id="edge20" class="edge"><title>Node18&#45;&gt;Node19</title>
<path fill="none" stroke="midnightblue" d="M1159.66,-112.399C1131.44,-102.283 1093.79,-88.7905 1066.9,-79.1493"/>
<polygon fill="midnightblue" stroke="midnightblue" points="1067.75,-75.7372 1057.15,-75.6578 1065.39,-82.3267 1067.75,-75.7372"/>
</g>
<!-- Node24 -->
<g id="node25" class="node"><title>Node24</title>
<polygon fill="white" stroke="#bfbfbf" points="1176,-56.5 1176,-75.5 1222,-75.5 1222,-56.5 1176,-56.5"/>
<text text-anchor="middle" x="1199" y="-63.5" font-family="Helvetica,sans-Serif" font-size="10.00">stdio.h</text>
</g>
<!-- Node18&#45;&gt;Node24 -->
<g id="edge27" class="edge"><title>Node18&#45;&gt;Node24</title>
<path fill="none" stroke="midnightblue" d="M1199,-112.399C1199,-104.466 1199,-94.458 1199,-85.8583"/>
<polygon fill="midnightblue" stroke="midnightblue" points="1202.5,-85.6577 1199,-75.6578 1195.5,-85.6578 1202.5,-85.6577"/>
</g>
<!-- Node19&#45;&gt;Node3 -->
<g id="edge25" class="edge"><title>Node19&#45;&gt;Node3</title>
<path fill="none" stroke="midnightblue" d="M995.736,-57.4915C942.406,-46.746 845.305,-27.1808 795.801,-17.2062"/>
<polygon fill="midnightblue" stroke="midnightblue" points="796.204,-13.717 785.709,-15.1728 794.821,-20.5791 796.204,-13.717"/>
</g>
<!-- Node20 -->
<g id="node21" class="node"><title>Node20</title>
<polygon fill="white" stroke="#bfbfbf" points="975.5,-0.5 975.5,-19.5 1024.5,-19.5 1024.5,-0.5 975.5,-0.5"/>
<text text-anchor="middle" x="1000" y="-7.5" font-family="Helvetica,sans-Serif" font-size="10.00">stdint.h</text>
</g>
<!-- Node19&#45;&gt;Node20 -->
<g id="edge21" class="edge"><title>Node19&#45;&gt;Node20</title>
<path fill="none" stroke="midnightblue" d="M1027.55,-56.083C1022.99,-48.6127 1016.33,-37.7244 1010.71,-28.5199"/>
<polygon fill="midnightblue" stroke="midnightblue" points="1013.55,-26.4588 1005.35,-19.7511 1007.58,-30.109 1013.55,-26.4588"/>
</g>
<!-- Node21 -->
<g id="node22" class="node"><title>Node21</title>
<polygon fill="white" stroke="#bfbfbf" points="1043,-0.5 1043,-19.5 1087,-19.5 1087,-0.5 1043,-0.5"/>
<text text-anchor="middle" x="1065" y="-7.5" font-family="Helvetica,sans-Serif" font-size="10.00">time.h</text>
</g>
<!-- Node19&#45;&gt;Node21 -->
<g id="edge22" class="edge"><title>Node19&#45;&gt;Node21</title>
<path fill="none" stroke="midnightblue" d="M1038.28,-56.083C1042.71,-48.6127 1049.16,-37.7244 1054.62,-28.5199"/>
<polygon fill="midnightblue" stroke="midnightblue" points="1057.73,-30.1383 1059.81,-19.7511 1051.71,-26.5697 1057.73,-30.1383"/>
</g>
<!-- Node22 -->
<g id="node23" class="node"><title>Node22</title>
<polygon fill="white" stroke="#bfbfbf" points="1105,-0.5 1105,-19.5 1157,-19.5 1157,-0.5 1105,-0.5"/>
<text text-anchor="middle" x="1131" y="-7.5" font-family="Helvetica,sans-Serif" font-size="10.00">sstream</text>
</g>
<!-- Node19&#45;&gt;Node22 -->
<g id="edge23" class="edge"><title>Node19&#45;&gt;Node22</title>
<path fill="none" stroke="midnightblue" d="M1048.75,-56.324C1064.32,-47.7428 1088.38,-34.486 1106.46,-24.5224"/>
<polygon fill="midnightblue" stroke="midnightblue" points="1108.22,-27.546 1115.29,-19.6545 1104.85,-21.4152 1108.22,-27.546"/>
</g>
<!-- Node23 -->
<g id="node24" class="node"><title>Node23</title>
<polygon fill="white" stroke="#bfbfbf" points="829,-0.5 829,-19.5 957,-19.5 957,-0.5 829,-0.5"/>
<text text-anchor="middle" x="893" y="-7.5" font-family="Helvetica,sans-Serif" font-size="10.00">common/lexical_cast.hpp</text>
</g>
<!-- Node19&#45;&gt;Node23 -->
<g id="edge24" class="edge"><title>Node19&#45;&gt;Node23</title>
<path fill="none" stroke="midnightblue" d="M1010.82,-56.4435C987.572,-47.4776 950.851,-33.314 924.585,-23.1827"/>
<polygon fill="midnightblue" stroke="midnightblue" points="925.669,-19.8497 915.08,-19.5164 923.15,-26.3807 925.669,-19.8497"/>
</g>
</g>
</svg>
        <g id="navigator" transform="translate(0 0)" fill="#404254">
                <rect fill="#f2f5e9" fill-opacity="0.5" stroke="#606060" stroke-width=".5" x="0" y="0" width="60" height="60"/>
                <use id="zoomplus" xlink:href="#zoomPlus" x="17" y="9" onmousedown="handleZoom(evt,'in')"/>
                <use id="zoomminus" xlink:href="#zoomMin" x="42" y="9" onmousedown="handleZoom(evt,'out')"/>
                <use id="reset" xlink:href="#resetDef" x="30" y="36" onmousedown="handleReset()"/>
                <g id="arrowUp" xlink:href="#dirArrow" transform="translate(30 24)" onmousedown="handlePan(0,-1)">
                  <use xlink:href="#rim" fill="#404040">
                        <set attributeName="fill" to="#808080" begin="arrowUp.mouseover" end="arrowUp.mouseout"/>
                  </use>
                  <path fill="none" stroke="white" stroke-width="1.5" d="M0,-3.0v7 M-2.5,-0.5L0,-3.0L2.5,-0.5"/>
                </g>
                <g id="arrowRight" xlink:href="#dirArrow" transform="rotate(90) translate(36 -43)" onmousedown="handlePan(1,0)">
                  <use xlink:href="#rim" fill="#404040">
                        <set attributeName="fill" to="#808080" begin="arrowRight.mouseover" end="arrowRight.mouseout"/>
                  </use>
                  <path fill="none" stroke="white" stroke-width="1.5" d="M0,-3.0v7 M-2.5,-0.5L0,-3.0L2.5,-0.5"/>
                </g>
                <g id="arrowDown" xlink:href="#dirArrow" transform="rotate(180) translate(-30 -48)" onmousedown="handlePan(0,1)">
                  <use xlink:href="#rim" fill="#404040">
                        <set attributeName="fill" to="#808080" begin="arrowDown.mouseover" end="arrowDown.mouseout"/>
                  </use>
                  <path fill="none" stroke="white" stroke-width="1.5" d="M0,-3.0v7 M-2.5,-0.5L0,-3.0L2.5,-0.5"/>
                </g>
                <g id="arrowLeft" xlink:href="#dirArrow" transform="rotate(270) translate(-36 17)" onmousedown="handlePan(-1,0)">
                  <use xlink:href="#rim" fill="#404040">
                        <set attributeName="fill" to="#808080" begin="arrowLeft.mouseover" end="arrowLeft.mouseout"/>
                  </use>
                  <path fill="none" stroke="white" stroke-width="1.5" d="M0,-3.0v7 M-2.5,-0.5L0,-3.0L2.5,-0.5"/>
                </g>
        </g>
        <svg viewBox="0 0 15 15" width="100%" height="30px" preserveAspectRatio="xMaxYMin meet">
         <g id="arrow_out" transform="scale(0.3 0.3)">
          <a xlink:href="_n_f_define_8h__incl_org.svg" target="_base">
           <rect id="button" ry="5" rx="5" y="6" x="6" height="38" width="38"
                fill="#f2f5e9" fill-opacity="0.5" stroke="#606060" stroke-width="1.0"/>
           <path id="arrow"
             d="M 11.500037,31.436501 C 11.940474,20.09759 22.043105,11.32322 32.158766,21.979434 L 37.068811,17.246167 C 37.068811,17.246167 37.088388,32 37.088388,32 L 22.160133,31.978069 C 22.160133,31.978069 26.997745,27.140456 26.997745,27.140456 C 18.528582,18.264221 13.291696,25.230495 11.500037,31.436501 z"
             style="fill:#404040;"/>
          </a>
         </g>
        </svg>
</svg>
