<?xml version="1.0" encoding="UTF-8" standalone="no"?>
<!DOCTYPE svg PUBLIC "-//W3C//DTD SVG 1.1//EN"
 "http://www.w3.org/Graphics/SVG/1.1/DTD/svg11.dtd">
<!-- Generated by graphviz version 2.38.0 (20140413.2041)
 -->
<!-- Title: NFMap.h Pages: 1 -->
<svg width="503pt" height="207pt"
 viewBox="0.00 0.00 503.34 207.00" xmlns="http://www.w3.org/2000/svg" xmlns:xlink="http://www.w3.org/1999/xlink">
<g id="graph0" class="graph" transform="scale(1 1) rotate(0) translate(4 203)">
<title>NFMap.h</title>
<polygon fill="white" stroke="none" points="-4,4 -4,-203 499.341,-203 499.341,4 -4,4"/>
<!-- Node0 -->
<g id="node1" class="node"><title>Node0</title>
<polygon fill="#bfbfbf" stroke="black" points="110.341,-179.5 110.341,-198.5 166.341,-198.5 166.341,-179.5 110.341,-179.5"/>
<text text-anchor="middle" x="138.341" y="-186.5" font-family="Helvetica,sans-Serif" font-size="10.00">NFMap.h</text>
</g>
<!-- Node1 -->
<g id="node2" class="node"><title>Node1</title>
<polygon fill="white" stroke="#bfbfbf" points="14.8409,-62 14.8409,-81 49.8409,-81 49.8409,-62 14.8409,-62"/>
<text text-anchor="middle" x="32.3409" y="-69" font-family="Helvetica,sans-Serif" font-size="10.00">map</text>
</g>
<!-- Node0&#45;&gt;Node1 -->
<g id="edge1" class="edge"><title>Node0&#45;&gt;Node1</title>
<path fill="none" stroke="midnightblue" d="M130.374,-179.319C112.725,-160.088 70.098,-113.641 47.3052,-88.8054"/>
<polygon fill="midnightblue" stroke="midnightblue" points="49.7409,-86.283 40.4006,-81.282 44.5836,-91.0162 49.7409,-86.283"/>
</g>
<!-- Node2 -->
<g id="node3" class="node"><title>Node2</title>
<polygon fill="white" stroke="#bfbfbf" points="67.8409,-62 67.8409,-81 96.8409,-81 96.8409,-62 67.8409,-62"/>
<text text-anchor="middle" x="82.3409" y="-69" font-family="Helvetica,sans-Serif" font-size="10.00">list</text>
</g>
<!-- Node0&#45;&gt;Node2 -->
<g id="edge2" class="edge"><title>Node0&#45;&gt;Node2</title>
<path fill="none" stroke="midnightblue" d="M134.132,-179.319C125.01,-160.506 103.261,-115.648 91.0465,-90.4553"/>
<polygon fill="midnightblue" stroke="midnightblue" points="94.111,-88.7532 86.5989,-81.282 87.8123,-91.8071 94.111,-88.7532"/>
</g>
<!-- Node3 -->
<g id="node4" class="node"><title>Node3</title>
<polygon fill="white" stroke="#bfbfbf" points="95.8409,-0.5 95.8409,-19.5 136.841,-19.5 136.841,-0.5 95.8409,-0.5"/>
<text text-anchor="middle" x="116.341" y="-7.5" font-family="Helvetica,sans-Serif" font-size="10.00">string</text>
</g>
<!-- Node0&#45;&gt;Node3 -->
<g id="edge3" class="edge"><title>Node0&#45;&gt;Node3</title>
<path fill="none" stroke="midnightblue" d="M117.156,-179.483C85.7785,-165.544 28.1996,-134.56 5.34093,-87 -0.627451,-74.582 -2.35674,-67.4269 5.34093,-56 23.1079,-29.6256 59.2596,-18.7035 85.4901,-14.1839"/>
<polygon fill="midnightblue" stroke="midnightblue" points="86.3214,-17.5985 95.6931,-12.6567 85.2851,-10.6756 86.3214,-17.5985"/>
</g>
<!-- Node4 -->
<g id="node5" class="node"><title>Node4</title>
<polygon fill="white" stroke="#bfbfbf" points="373.341,-62 373.341,-81 427.341,-81 427.341,-62 373.341,-62"/>
<text text-anchor="middle" x="400.341" y="-69" font-family="Helvetica,sans-Serif" font-size="10.00">iostream</text>
</g>
<!-- Node0&#45;&gt;Node4 -->
<g id="edge4" class="edge"><title>Node0&#45;&gt;Node4</title>
<path fill="none" stroke="midnightblue" d="M158.034,-179.319C203.855,-159.119 317.793,-108.891 371.483,-85.2216"/>
<polygon fill="midnightblue" stroke="midnightblue" points="373.039,-88.361 380.777,-81.1245 370.215,-81.9557 373.039,-88.361"/>
</g>
<!-- Node5 -->
<g id="node6" class="node"><title>Node5</title>
<polygon fill="white" stroke="#bfbfbf" points="445.341,-62 445.341,-81 495.341,-81 495.341,-62 445.341,-62"/>
<text text-anchor="middle" x="470.341" y="-69" font-family="Helvetica,sans-Serif" font-size="10.00">typeinfo</text>
</g>
<!-- Node0&#45;&gt;Node5 -->
<g id="edge5" class="edge"><title>Node0&#45;&gt;Node5</title>
<path fill="none" stroke="midnightblue" d="M166.464,-179.431C195.186,-170.599 241.017,-156.284 280.341,-143 350.132,-119.424 367.765,-113.905 436.341,-87 437.943,-86.3716 439.582,-85.7157 441.233,-85.0451"/>
<polygon fill="midnightblue" stroke="midnightblue" points="442.756,-88.2025 450.645,-81.1305 440.067,-81.7393 442.756,-88.2025"/>
</g>
<!-- Node6 -->
<g id="node7" class="node"><title>Node6</title>
<g id="a_node7"><a xlink:href="_n_f_map_ex_8h.html" target="_top" xlink:title="NFMapEx.h">
<polygon fill="white" stroke="black" points="148.341,-123.5 148.341,-142.5 216.341,-142.5 216.341,-123.5 148.341,-123.5"/>
<text text-anchor="middle" x="182.341" y="-130.5" font-family="Helvetica,sans-Serif" font-size="10.00">NFMapEx.h</text>
</a>
</g>
</g>
<!-- Node0&#45;&gt;Node6 -->
<g id="edge6" class="edge"><title>Node0&#45;&gt;Node6</title>
<path fill="none" stroke="midnightblue" d="M145.607,-179.083C151.886,-171.377 161.129,-160.033 168.772,-150.653"/>
<polygon fill="midnightblue" stroke="midnightblue" points="171.607,-152.714 175.21,-142.751 166.18,-148.293 171.607,-152.714"/>
</g>
<!-- Node6&#45;&gt;Node1 -->
<g id="edge7" class="edge"><title>Node6&#45;&gt;Node1</title>
<path fill="none" stroke="midnightblue" d="M154.745,-123.4C129.277,-115.133 90.6301,-101.747 58.3409,-87 57.4976,-86.6149 56.6449,-86.2125 55.7881,-85.7972"/>
<polygon fill="midnightblue" stroke="midnightblue" points="57.188,-82.5797 46.7042,-81.0498 53.9457,-88.7836 57.188,-82.5797"/>
</g>
<!-- Node6&#45;&gt;Node2 -->
<g id="edge8" class="edge"><title>Node6&#45;&gt;Node2</title>
<path fill="none" stroke="midnightblue" d="M167.748,-123.412C152.431,-114.384 127.66,-99.7511 106.341,-87 105.944,-86.7626 105.544,-86.5229 105.14,-86.2813"/>
<polygon fill="midnightblue" stroke="midnightblue" points="106.915,-83.2645 96.5419,-81.1082 103.306,-89.2626 106.915,-83.2645"/>
</g>
<!-- Node6&#45;&gt;Node3 -->
<g id="edge9" class="edge"><title>Node6&#45;&gt;Node3</title>
<path fill="none" stroke="midnightblue" d="M183.835,-123.376C185.95,-108.569 188.337,-77.8003 176.341,-56 169.038,-42.7277 155.98,-32.2247 143.907,-24.7152"/>
<polygon fill="midnightblue" stroke="midnightblue" points="145.388,-21.529 134.978,-19.5598 141.888,-27.5911 145.388,-21.529"/>
</g>
<!-- Node6&#45;&gt;Node4 -->
<g id="edge10" class="edge"><title>Node6&#45;&gt;Node4</title>
<path fill="none" stroke="midnightblue" d="M216.621,-125.031C253.509,-117.184 313.704,-103.368 364.341,-87 366.477,-86.3096 368.666,-85.5534 370.859,-84.7601"/>
<polygon fill="midnightblue" stroke="midnightblue" points="372.251,-87.9752 380.342,-81.1347 369.751,-81.4368 372.251,-87.9752"/>
</g>
<!-- Node6&#45;&gt;Node5 -->
<g id="edge11" class="edge"><title>Node6&#45;&gt;Node5</title>
<path fill="none" stroke="midnightblue" d="M216.602,-128.441C265.938,-122.755 359.507,-109.864 436.341,-87 438.49,-86.3605 440.685,-85.6256 442.875,-84.833"/>
<polygon fill="midnightblue" stroke="midnightblue" points="444.265,-88.0469 452.272,-81.108 441.686,-81.5396 444.265,-88.0469"/>
</g>
<!-- Node7 -->
<g id="node8" class="node"><title>Node7</title>
<polygon fill="white" stroke="#bfbfbf" points="115.341,-62 115.341,-81 167.341,-81 167.341,-62 115.341,-62"/>
<text text-anchor="middle" x="141.341" y="-69" font-family="Helvetica,sans-Serif" font-size="10.00">memory</text>
</g>
<!-- Node6&#45;&gt;Node7 -->
<g id="edge12" class="edge"><title>Node6&#45;&gt;Node7</title>
<path fill="none" stroke="midnightblue" d="M176.467,-123.475C170.377,-114.638 160.696,-100.589 153.038,-89.475"/>
<polygon fill="midnightblue" stroke="midnightblue" points="155.76,-87.2575 147.204,-81.0091 149.996,-91.2294 155.76,-87.2575"/>
</g>
<!-- Node8 -->
<g id="node9" class="node"><title>Node8</title>
<g id="a_node9"><a xlink:href="_n_f_platform_8h.html" target="_top" xlink:title="NFComm/NFPluginModule\l/NFPlatform.h">
<polygon fill="white" stroke="black" points="223.341,-56.5 223.341,-86.5 355.341,-86.5 355.341,-56.5 223.341,-56.5"/>
<text text-anchor="start" x="231.341" y="-74.5" font-family="Helvetica,sans-Serif" font-size="10.00">NFComm/NFPluginModule</text>
<text text-anchor="middle" x="289.341" y="-63.5" font-family="Helvetica,sans-Serif" font-size="10.00">/NFPlatform.h</text>
</a>
</g>
</g>
<!-- Node6&#45;&gt;Node8 -->
<g id="edge13" class="edge"><title>Node6&#45;&gt;Node8</title>
<path fill="none" stroke="midnightblue" d="M197.671,-123.475C212.637,-115.153 235.917,-102.207 255.272,-91.445"/>
<polygon fill="midnightblue" stroke="midnightblue" points="257.084,-94.4418 264.123,-86.523 253.683,-88.324 257.084,-94.4418"/>
</g>
<!-- Node8&#45;&gt;Node3 -->
<g id="edge18" class="edge"><title>Node8&#45;&gt;Node3</title>
<path fill="none" stroke="midnightblue" d="M248.342,-56.3993C217.196,-45.6871 175.046,-31.1905 146.836,-21.4883"/>
<polygon fill="midnightblue" stroke="midnightblue" points="147.715,-18.0893 137.12,-18.1466 145.438,-24.7087 147.715,-18.0893"/>
</g>
<!-- Node9 -->
<g id="node10" class="node"><title>Node9</title>
<polygon fill="white" stroke="#bfbfbf" points="371.841,-0.5 371.841,-19.5 420.841,-19.5 420.841,-0.5 371.841,-0.5"/>
<text text-anchor="middle" x="396.341" y="-7.5" font-family="Helvetica,sans-Serif" font-size="10.00">stdint.h</text>
</g>
<!-- Node8&#45;&gt;Node9 -->
<g id="edge14" class="edge"><title>Node8&#45;&gt;Node9</title>
<path fill="none" stroke="midnightblue" d="M314.698,-56.3993C332.01,-46.7728 354.817,-34.0902 371.925,-24.5772"/>
<polygon fill="midnightblue" stroke="midnightblue" points="373.733,-27.5766 380.771,-19.6578 370.331,-21.4588 373.733,-27.5766"/>
</g>
<!-- Node10 -->
<g id="node11" class="node"><title>Node10</title>
<polygon fill="white" stroke="#bfbfbf" points="439.341,-0.5 439.341,-19.5 483.341,-19.5 483.341,-0.5 439.341,-0.5"/>
<text text-anchor="middle" x="461.341" y="-7.5" font-family="Helvetica,sans-Serif" font-size="10.00">time.h</text>
</g>
<!-- Node8&#45;&gt;Node10 -->
<g id="edge15" class="edge"><title>Node8&#45;&gt;Node10</title>
<path fill="none" stroke="midnightblue" d="M330.103,-56.3993C360.538,-45.8707 401.542,-31.6864 429.567,-21.9914"/>
<polygon fill="midnightblue" stroke="midnightblue" points="430.956,-25.2148 439.262,-18.6378 428.667,-18.5994 430.956,-25.2148"/>
</g>
<!-- Node11 -->
<g id="node12" class="node"><title>Node11</title>
<polygon fill="white" stroke="#bfbfbf" points="155.341,-0.5 155.341,-19.5 207.341,-19.5 207.341,-0.5 155.341,-0.5"/>
<text text-anchor="middle" x="181.341" y="-7.5" font-family="Helvetica,sans-Serif" font-size="10.00">sstream</text>
</g>
<!-- Node8&#45;&gt;Node11 -->
<g id="edge16" class="edge"><title>Node8&#45;&gt;Node11</title>
<path fill="none" stroke="midnightblue" d="M263.746,-56.3993C246.273,-46.7728 223.253,-34.0902 205.985,-24.5772"/>
<polygon fill="midnightblue" stroke="midnightblue" points="207.504,-21.4177 197.056,-19.6578 204.126,-27.5488 207.504,-21.4177"/>
</g>
<!-- Node12 -->
<g id="node13" class="node"><title>Node12</title>
<polygon fill="white" stroke="#bfbfbf" points="225.341,-0.5 225.341,-19.5 353.341,-19.5 353.341,-0.5 225.341,-0.5"/>
<text text-anchor="middle" x="289.341" y="-7.5" font-family="Helvetica,sans-Serif" font-size="10.00">common/lexical_cast.hpp</text>
</g>
<!-- Node8&#45;&gt;Node12 -->
<g id="edge17" class="edge"><title>Node8&#45;&gt;Node12</title>
<path fill="none" stroke="midnightblue" d="M289.341,-56.3993C289.341,-48.4664 289.341,-38.458 289.341,-29.8583"/>
<polygon fill="midnightblue" stroke="midnightblue" points="292.841,-29.6577 289.341,-19.6578 285.841,-29.6578 292.841,-29.6577"/>
</g>
</g>
</svg>
