<?xml version="1.0" encoding="UTF-8" standalone="no"?>
<!DOCTYPE svg PUBLIC "-//W3C//DTD SVG 1.1//EN"
 "http://www.w3.org/Graphics/SVG/1.1/DTD/svg11.dtd">
<!-- Generated by graphviz version 2.38.0 (20140413.2041)
 -->
<!-- Title: NFCKernelModule.h Pages: 1 -->
<svg width="244pt" height="84pt"
 viewBox="0.00 0.00 243.50 84.00" xmlns="http://www.w3.org/2000/svg" xmlns:xlink="http://www.w3.org/1999/xlink">
<g id="graph0" class="graph" transform="scale(1 1) rotate(0) translate(4 80)">
<title>NFCKernelModule.h</title>
<polygon fill="white" stroke="none" points="-4,4 -4,-80 239.5,-80 239.5,4 -4,4"/>
<!-- Node49 -->
<g id="node1" class="node"><title>Node49</title>
<polygon fill="#bfbfbf" stroke="black" points="68,-56.5 68,-75.5 172,-75.5 172,-56.5 68,-56.5"/>
<text text-anchor="middle" x="120" y="-63.5" font-family="Helvetica,sans-Serif" font-size="10.00">NFCKernelModule.h</text>
</g>
<!-- Node50 -->
<g id="node2" class="node"><title>Node50</title>
<g id="a_node2"><a xlink:href="_n_f_c_kernel_module_8cpp.html" target="_top" xlink:title="NFCKernelModule.cpp">
<polygon fill="white" stroke="black" points="0,-0.5 0,-19.5 114,-19.5 114,-0.5 0,-0.5"/>
<text text-anchor="middle" x="57" y="-7.5" font-family="Helvetica,sans-Serif" font-size="10.00">NFCKernelModule.cpp</text>
</a>
</g>
</g>
<!-- Node49&#45;&gt;Node50 -->
<g id="edge1" class="edge"><title>Node49&#45;&gt;Node50</title>
<path fill="none" stroke="midnightblue" d="M101.96,-49.5372C90.7269,-39.9087 76.6809,-27.8694 67.3062,-19.8339"/>
<polygon fill="midnightblue" stroke="midnightblue" points="100.008,-52.4734 109.878,-56.324 104.563,-47.1586 100.008,-52.4734"/>
</g>
<!-- Node51 -->
<g id="node3" class="node"><title>Node51</title>
<g id="a_node3"><a xlink:href="_n_f_kernel_plugin_8cpp.html" target="_top" xlink:title="NFKernelPlugin.cpp">
<polygon fill="white" stroke="black" points="132.5,-0.5 132.5,-19.5 235.5,-19.5 235.5,-0.5 132.5,-0.5"/>
<text text-anchor="middle" x="184" y="-7.5" font-family="Helvetica,sans-Serif" font-size="10.00">NFKernelPlugin.cpp</text>
</a>
</g>
</g>
<!-- Node49&#45;&gt;Node51 -->
<g id="edge2" class="edge"><title>Node49&#45;&gt;Node51</title>
<path fill="none" stroke="midnightblue" d="M137.991,-49.8197C149.458,-40.1452 163.913,-27.9481 173.53,-19.8339"/>
<polygon fill="midnightblue" stroke="midnightblue" points="135.669,-47.2002 130.283,-56.324 140.183,-52.5502 135.669,-47.2002"/>
</g>
</g>
</svg>
