<?xml version="1.0" encoding="UTF-8" standalone="no"?>
<!DOCTYPE svg PUBLIC "-//W3C//DTD SVG 1.1//EN"
 "http://www.w3.org/Graphics/SVG/1.1/DTD/svg11.dtd">
<!-- Generated by graphviz version 2.38.0 (20140413.2041)
 -->
<!-- Title: NFCPropertyModule.h Pages: 1 -->
<svg width="278pt" height="84pt"
 viewBox="0.00 0.00 277.50 84.00" xmlns="http://www.w3.org/2000/svg" xmlns:xlink="http://www.w3.org/1999/xlink">
<g id="graph0" class="graph" transform="scale(1 1) rotate(0) translate(4 80)">
<title>NFCPropertyModule.h</title>
<polygon fill="white" stroke="none" points="-4,4 -4,-80 273.5,-80 273.5,4 -4,4"/>
<!-- Node50 -->
<g id="node1" class="node"><title>Node50</title>
<polygon fill="#bfbfbf" stroke="black" points="77,-56.5 77,-75.5 190,-75.5 190,-56.5 77,-56.5"/>
<text text-anchor="middle" x="133.5" y="-63.5" font-family="Helvetica,sans-Serif" font-size="10.00">NFCPropertyModule.h</text>
</g>
<!-- Node51 -->
<g id="node2" class="node"><title>Node51</title>
<g id="a_node2"><a xlink:href="_n_f_c_property_module_8cpp.html" target="_top" xlink:title="NFCPropertyModule.cpp">
<polygon fill="white" stroke="black" points="0,-0.5 0,-19.5 123,-19.5 123,-0.5 0,-0.5"/>
<text text-anchor="middle" x="61.5" y="-7.5" font-family="Helvetica,sans-Serif" font-size="10.00">NFCPropertyModule.cpp</text>
</a>
</g>
</g>
<!-- Node50&#45;&gt;Node51 -->
<g id="edge1" class="edge"><title>Node50&#45;&gt;Node51</title>
<path fill="none" stroke="midnightblue" d="M113.634,-50.1008C100.677,-40.3824 84.2026,-28.0269 73.2785,-19.8339"/>
<polygon fill="midnightblue" stroke="midnightblue" points="111.832,-53.1239 121.932,-56.324 116.032,-47.5239 111.832,-53.1239"/>
</g>
<!-- Node52 -->
<g id="node3" class="node"><title>Node52</title>
<g id="a_node3"><a xlink:href="_n_f_game_server_plugin_8cpp.html" target="_top" xlink:title="NFGameServerPlugin.cpp">
<polygon fill="white" stroke="black" points="141.5,-0.5 141.5,-19.5 269.5,-19.5 269.5,-0.5 141.5,-0.5"/>
<text text-anchor="middle" x="205.5" y="-7.5" font-family="Helvetica,sans-Serif" font-size="10.00">NFGameServerPlugin.cpp</text>
</a>
</g>
</g>
<!-- Node50&#45;&gt;Node52 -->
<g id="edge2" class="edge"><title>Node50&#45;&gt;Node52</title>
<path fill="none" stroke="midnightblue" d="M153.366,-50.1008C166.323,-40.3824 182.797,-28.0269 193.721,-19.8339"/>
<polygon fill="midnightblue" stroke="midnightblue" points="150.968,-47.5239 145.068,-56.324 155.168,-53.1239 150.968,-47.5239"/>
</g>
</g>
</svg>
