<?xml version="1.0" encoding="UTF-8" standalone="no"?>
<!DOCTYPE svg PUBLIC "-//W3C//DTD SVG 1.1//EN"
 "http://www.w3.org/Graphics/SVG/1.1/DTD/svg11.dtd">
<!-- Generated by graphviz version 2.38.0 (20140413.2041)
 -->
<!-- Title: NFIMasterNet_ServerModule.h Pages: 1 -->
<svg width="626pt" height="140pt"
 viewBox="0.00 0.00 626.00 140.00" xmlns="http://www.w3.org/2000/svg" xmlns:xlink="http://www.w3.org/1999/xlink">
<g id="graph0" class="graph" transform="scale(1 1) rotate(0) translate(4 136)">
<title>NFIMasterNet_ServerModule.h</title>
<polygon fill="white" stroke="none" points="-4,4 -4,-136 622,-136 622,4 -4,4"/>
<!-- Node33 -->
<g id="node1" class="node"><title>Node33</title>
<polygon fill="#bfbfbf" stroke="black" points="259.5,-112.5 259.5,-131.5 408.5,-131.5 408.5,-112.5 259.5,-112.5"/>
<text text-anchor="middle" x="334" y="-119.5" font-family="Helvetica,sans-Serif" font-size="10.00">NFIMasterNet_ServerModule.h</text>
</g>
<!-- Node34 -->
<g id="node2" class="node"><title>Node34</title>
<g id="a_node2"><a xlink:href="_n_f_c_master_net___server_module_8h.html" target="_top" xlink:title="NFCMasterNet_ServerModule.h">
<polygon fill="white" stroke="black" points="181.5,-56.5 181.5,-75.5 334.5,-75.5 334.5,-56.5 181.5,-56.5"/>
<text text-anchor="middle" x="258" y="-63.5" font-family="Helvetica,sans-Serif" font-size="10.00">NFCMasterNet_ServerModule.h</text>
</a>
</g>
</g>
<!-- Node33&#45;&gt;Node34 -->
<g id="edge1" class="edge"><title>Node33&#45;&gt;Node34</title>
<path fill="none" stroke="midnightblue" d="M313.424,-106.38C299.688,-96.6204 282.075,-84.1057 270.433,-75.8339"/>
<polygon fill="midnightblue" stroke="midnightblue" points="311.61,-109.385 321.789,-112.324 315.665,-103.679 311.61,-109.385"/>
</g>
<!-- Node37 -->
<g id="node5" class="node"><title>Node37</title>
<g id="a_node5"><a xlink:href="_n_f_c_master_module_8h.html" target="_top" xlink:title="NFCMasterModule.h">
<polygon fill="white" stroke="black" points="357,-56.5 357,-75.5 463,-75.5 463,-56.5 357,-56.5"/>
<text text-anchor="middle" x="410" y="-63.5" font-family="Helvetica,sans-Serif" font-size="10.00">NFCMasterModule.h</text>
</a>
</g>
</g>
<!-- Node33&#45;&gt;Node37 -->
<g id="edge4" class="edge"><title>Node33&#45;&gt;Node37</title>
<path fill="none" stroke="midnightblue" d="M354.576,-106.38C368.312,-96.6204 385.925,-84.1057 397.567,-75.8339"/>
<polygon fill="midnightblue" stroke="midnightblue" points="352.335,-103.679 346.211,-112.324 356.39,-109.385 352.335,-103.679"/>
</g>
<!-- Node35 -->
<g id="node3" class="node"><title>Node35</title>
<g id="a_node3"><a xlink:href="_n_f_c_master_net___server_module_8cpp.html" target="_top" xlink:title="NFCMasterNet_ServerModule.cpp">
<polygon fill="white" stroke="black" points="0,-0.5 0,-19.5 164,-19.5 164,-0.5 0,-0.5"/>
<text text-anchor="middle" x="82" y="-7.5" font-family="Helvetica,sans-Serif" font-size="10.00">NFCMasterNet_ServerModule.cpp</text>
</a>
</g>
</g>
<!-- Node34&#45;&gt;Node35 -->
<g id="edge2" class="edge"><title>Node34&#45;&gt;Node35</title>
<path fill="none" stroke="midnightblue" d="M220.311,-53.4363C187.128,-43.2551 139.572,-28.664 109.757,-19.5164"/>
<polygon fill="midnightblue" stroke="midnightblue" points="219.525,-56.8563 230.112,-56.4435 221.579,-50.1642 219.525,-56.8563"/>
</g>
<!-- Node36 -->
<g id="node4" class="node"><title>Node36</title>
<g id="a_node4"><a xlink:href="_n_f_master_net___server_plugin_8cpp.html" target="_top" xlink:title="NFMasterNet_ServerPlugin.cpp">
<polygon fill="white" stroke="black" points="182,-0.5 182,-19.5 334,-19.5 334,-0.5 182,-0.5"/>
<text text-anchor="middle" x="258" y="-7.5" font-family="Helvetica,sans-Serif" font-size="10.00">NFMasterNet_ServerPlugin.cpp</text>
</a>
</g>
</g>
<!-- Node34&#45;&gt;Node36 -->
<g id="edge3" class="edge"><title>Node34&#45;&gt;Node36</title>
<path fill="none" stroke="midnightblue" d="M258,-45.8045C258,-36.9102 258,-26.7798 258,-19.7511"/>
<polygon fill="midnightblue" stroke="midnightblue" points="254.5,-46.083 258,-56.083 261.5,-46.083 254.5,-46.083"/>
</g>
<!-- Node38 -->
<g id="node6" class="node"><title>Node38</title>
<g id="a_node6"><a xlink:href="_n_f_c_master_module_8cpp.html" target="_top" xlink:title="NFCMasterModule.cpp">
<polygon fill="white" stroke="black" points="352,-0.5 352,-19.5 468,-19.5 468,-0.5 352,-0.5"/>
<text text-anchor="middle" x="410" y="-7.5" font-family="Helvetica,sans-Serif" font-size="10.00">NFCMasterModule.cpp</text>
</a>
</g>
</g>
<!-- Node37&#45;&gt;Node38 -->
<g id="edge5" class="edge"><title>Node37&#45;&gt;Node38</title>
<path fill="none" stroke="midnightblue" d="M410,-45.8045C410,-36.9102 410,-26.7798 410,-19.7511"/>
<polygon fill="midnightblue" stroke="midnightblue" points="406.5,-46.083 410,-56.083 413.5,-46.083 406.5,-46.083"/>
</g>
<!-- Node39 -->
<g id="node7" class="node"><title>Node39</title>
<g id="a_node7"><a xlink:href="_n_f_master_server_plugin_8cpp.html" target="_top" xlink:title="NFMasterServerPlugin.cpp">
<polygon fill="white" stroke="black" points="486,-0.5 486,-19.5 618,-19.5 618,-0.5 486,-0.5"/>
<text text-anchor="middle" x="552" y="-7.5" font-family="Helvetica,sans-Serif" font-size="10.00">NFMasterServerPlugin.cpp</text>
</a>
</g>
</g>
<!-- Node37&#45;&gt;Node39 -->
<g id="edge6" class="edge"><title>Node37&#45;&gt;Node39</title>
<path fill="none" stroke="midnightblue" d="M442.155,-52.772C468.828,-42.6287 506.069,-28.4669 529.605,-19.5164"/>
<polygon fill="midnightblue" stroke="midnightblue" points="440.603,-49.6176 432.5,-56.4435 443.091,-56.1604 440.603,-49.6176"/>
</g>
</g>
</svg>
