<?xml version="1.0" encoding="UTF-8" standalone="no"?>
<!DOCTYPE svg PUBLIC "-//W3C//DTD SVG 1.1//EN"
 "http://www.w3.org/Graphics/SVG/1.1/DTD/svg11.dtd">
<!-- Generated by graphviz version 2.38.0 (20140413.2041)
 -->
<!-- Title: NFIEventManager.h Pages: 1 -->
<svg width="4486pt" height="274pt"
 viewBox="0.00 0.00 4485.50 274.00" xmlns="http://www.w3.org/2000/svg" xmlns:xlink="http://www.w3.org/1999/xlink">
<g id="graph0" class="graph" transform="scale(1 1) rotate(0) translate(4 270)">
<title>NFIEventManager.h</title>
<polygon fill="white" stroke="none" points="-4,4 -4,-270 4481.5,-270 4481.5,4 -4,4"/>
<!-- Node30 -->
<g id="node1" class="node"><title>Node30</title>
<polygon fill="#bfbfbf" stroke="black" points="207.5,-246.5 207.5,-265.5 308.5,-265.5 308.5,-246.5 207.5,-246.5"/>
<text text-anchor="middle" x="258" y="-253.5" font-family="Helvetica,sans-Serif" font-size="10.00">NFIEventManager.h</text>
</g>
<!-- Node31 -->
<g id="node2" class="node"><title>Node31</title>
<g id="a_node2"><a xlink:href="_n_f_c_event_manager_8h.html" target="_top" xlink:title="NFCEventManager.h">
<polygon fill="white" stroke="black" points="91,-190.5 91,-209.5 197,-209.5 197,-190.5 91,-190.5"/>
<text text-anchor="middle" x="144" y="-197.5" font-family="Helvetica,sans-Serif" font-size="10.00">NFCEventManager.h</text>
</a>
</g>
</g>
<!-- Node30&#45;&gt;Node31 -->
<g id="edge1" class="edge"><title>Node30&#45;&gt;Node31</title>
<path fill="none" stroke="midnightblue" d="M230.758,-242.096C209.46,-232.007 180.458,-218.27 161.979,-209.516"/>
<polygon fill="midnightblue" stroke="midnightblue" points="229.401,-245.326 239.936,-246.444 232.397,-239 229.401,-245.326"/>
</g>
<!-- Node34 -->
<g id="node5" class="node"><title>Node34</title>
<g id="a_node5"><a xlink:href="_n_f_i_object_8h.html" target="_top" xlink:title="NFIObject.h">
<polygon fill="white" stroke="black" points="338,-190.5 338,-209.5 406,-209.5 406,-190.5 338,-190.5"/>
<text text-anchor="middle" x="372" y="-197.5" font-family="Helvetica,sans-Serif" font-size="10.00">NFIObject.h</text>
</a>
</g>
</g>
<!-- Node30&#45;&gt;Node34 -->
<g id="edge4" class="edge"><title>Node30&#45;&gt;Node34</title>
<path fill="none" stroke="midnightblue" d="M285.242,-242.096C306.54,-232.007 335.542,-218.27 354.021,-209.516"/>
<polygon fill="midnightblue" stroke="midnightblue" points="283.603,-239 276.064,-246.444 286.599,-245.326 283.603,-239"/>
</g>
<!-- Node32 -->
<g id="node3" class="node"><title>Node32</title>
<g id="a_node3"><a xlink:href="_n_f_c_event_manager_8cpp.html" target="_top" xlink:title="NFCEventManager.cpp">
<polygon fill="white" stroke="black" points="0,-134.5 0,-153.5 116,-153.5 116,-134.5 0,-134.5"/>
<text text-anchor="middle" x="58" y="-141.5" font-family="Helvetica,sans-Serif" font-size="10.00">NFCEventManager.cpp</text>
</a>
</g>
</g>
<!-- Node31&#45;&gt;Node32 -->
<g id="edge2" class="edge"><title>Node31&#45;&gt;Node32</title>
<path fill="none" stroke="midnightblue" d="M121.545,-184.901C105.776,-174.999 85.1864,-162.071 71.7831,-153.655"/>
<polygon fill="midnightblue" stroke="midnightblue" points="119.852,-187.97 130.183,-190.324 123.575,-182.042 119.852,-187.97"/>
</g>
<!-- Node33 -->
<g id="node4" class="node"><title>Node33</title>
<g id="a_node4"><a xlink:href="_n_f_c_object_8cpp.html" target="_top" xlink:title="NFCObject.cpp">
<polygon fill="white" stroke="black" points="69.5,-73 69.5,-92 152.5,-92 152.5,-73 69.5,-73"/>
<text text-anchor="middle" x="111" y="-80" font-family="Helvetica,sans-Serif" font-size="10.00">NFCObject.cpp</text>
</a>
</g>
</g>
<!-- Node31&#45;&gt;Node33 -->
<g id="edge3" class="edge"><title>Node31&#45;&gt;Node33</title>
<path fill="none" stroke="midnightblue" d="M138.716,-180.505C131.503,-155.261 118.863,-111.019 113.509,-92.282"/>
<polygon fill="midnightblue" stroke="midnightblue" points="135.407,-181.665 141.52,-190.319 142.138,-179.742 135.407,-181.665"/>
</g>
<!-- Node35 -->
<g id="node6" class="node"><title>Node35</title>
<g id="a_node6"><a xlink:href="_n_f_c_object_8h.html" target="_top" xlink:title="NFCObject.h">
<polygon fill="white" stroke="black" points="205.5,-134.5 205.5,-153.5 278.5,-153.5 278.5,-134.5 205.5,-134.5"/>
<text text-anchor="middle" x="242" y="-141.5" font-family="Helvetica,sans-Serif" font-size="10.00">NFCObject.h</text>
</a>
</g>
</g>
<!-- Node34&#45;&gt;Node35 -->
<g id="edge5" class="edge"><title>Node34&#45;&gt;Node35</title>
<path fill="none" stroke="midnightblue" d="M341.915,-186.503C317.543,-176.38 283.86,-162.388 262.503,-153.516"/>
<polygon fill="midnightblue" stroke="midnightblue" points="340.823,-189.84 351.401,-190.444 343.509,-183.375 340.823,-189.84"/>
</g>
<!-- Node38 -->
<g id="node9" class="node"><title>Node38</title>
<g id="a_node9"><a xlink:href="_n_f_c_kernel_module_8h.html" target="_top" xlink:title="NFCKernelModule.h">
<polygon fill="white" stroke="black" points="315,-73 315,-92 419,-92 419,-73 315,-73"/>
<text text-anchor="middle" x="367" y="-80" font-family="Helvetica,sans-Serif" font-size="10.00">NFCKernelModule.h</text>
</a>
</g>
</g>
<!-- Node34&#45;&gt;Node38 -->
<g id="edge9" class="edge"><title>Node34&#45;&gt;Node38</title>
<path fill="none" stroke="midnightblue" d="M362.075,-181.302C358.101,-173.238 353.997,-163.409 352,-154 347.272,-131.721 356.848,-105.487 362.779,-92.1821"/>
<polygon fill="midnightblue" stroke="midnightblue" points="359.113,-183.19 366.87,-190.407 365.307,-179.928 359.113,-183.19"/>
</g>
<!-- Node40 -->
<g id="node11" class="node"><title>Node40</title>
<g id="a_node11"><a xlink:href="_n_f_c_scene_module_8h.html" target="_top" xlink:title="NFCSceneModule.h">
<polygon fill="white" stroke="black" points="437,-73 437,-92 541,-92 541,-73 437,-73"/>
<text text-anchor="middle" x="489" y="-80" font-family="Helvetica,sans-Serif" font-size="10.00">NFCSceneModule.h</text>
</a>
</g>
</g>
<!-- Node34&#45;&gt;Node40 -->
<g id="edge12" class="edge"><title>Node34&#45;&gt;Node40</title>
<path fill="none" stroke="midnightblue" d="M415.691,-187.703C434.485,-180.803 455.249,-170.114 469,-154 484.361,-135.999 487.958,-106.939 488.777,-92.3931"/>
<polygon fill="midnightblue" stroke="midnightblue" points="414.427,-184.436 406.09,-190.974 416.685,-191.062 414.427,-184.436"/>
</g>
<!-- Node42 -->
<g id="node13" class="node"><title>Node42</title>
<g id="a_node13"><a xlink:href="_n_f_i_kernel_module_8h.html" target="_top" xlink:title="NFIKernelModule.h">
<polygon fill="white" stroke="black" points="2522.5,-134.5 2522.5,-153.5 2621.5,-153.5 2621.5,-134.5 2522.5,-134.5"/>
<text text-anchor="middle" x="2572" y="-141.5" font-family="Helvetica,sans-Serif" font-size="10.00">NFIKernelModule.h</text>
</a>
</g>
</g>
<!-- Node34&#45;&gt;Node42 -->
<g id="edge15" class="edge"><title>Node34&#45;&gt;Node42</title>
<path fill="none" stroke="midnightblue" d="M416.321,-197.912C697.065,-191.021 2225.88,-153.496 2522.23,-146.222"/>
<polygon fill="midnightblue" stroke="midnightblue" points="416.026,-194.418 406.115,-198.163 416.198,-201.416 416.026,-194.418"/>
</g>
<!-- Node101 -->
<g id="node50" class="node"><title>Node101</title>
<g id="a_node50"><a xlink:href="_n_f_i_scene_module_8h.html" target="_top" xlink:title="NFISceneModule.h">
<polygon fill="white" stroke="black" points="361.5,-134.5 361.5,-153.5 460.5,-153.5 460.5,-134.5 361.5,-134.5"/>
<text text-anchor="middle" x="411" y="-141.5" font-family="Helvetica,sans-Serif" font-size="10.00">NFISceneModule.h</text>
</a>
</g>
</g>
<!-- Node34&#45;&gt;Node101 -->
<g id="edge59" class="edge"><title>Node34&#45;&gt;Node101</title>
<path fill="none" stroke="midnightblue" d="M384.382,-181.855C391.135,-172.505 399.209,-161.327 404.68,-153.751"/>
<polygon fill="midnightblue" stroke="midnightblue" points="381.458,-179.927 378.44,-190.083 387.132,-184.025 381.458,-179.927"/>
</g>
<!-- Node35&#45;&gt;Node33 -->
<g id="edge7" class="edge"><title>Node35&#45;&gt;Node33</title>
<path fill="none" stroke="midnightblue" d="M214.098,-130.327C188.667,-118.776 151.801,-102.032 129.734,-92.0091"/>
<polygon fill="midnightblue" stroke="midnightblue" points="212.679,-133.526 223.231,-134.475 215.573,-127.153 212.679,-133.526"/>
</g>
<!-- Node36 -->
<g id="node7" class="node"><title>Node36</title>
<g id="a_node7"><a xlink:href="_hello_world2_8cpp.html" target="_top" xlink:title="HelloWorld2.cpp">
<polygon fill="white" stroke="black" points="171,-73 171,-92 259,-92 259,-73 171,-73"/>
<text text-anchor="middle" x="215" y="-80" font-family="Helvetica,sans-Serif" font-size="10.00">HelloWorld2.cpp</text>
</a>
</g>
</g>
<!-- Node35&#45;&gt;Node36 -->
<g id="edge6" class="edge"><title>Node35&#45;&gt;Node36</title>
<path fill="none" stroke="midnightblue" d="M233.984,-125.335C228.989,-114.328 222.788,-100.663 218.861,-92.0091"/>
<polygon fill="midnightblue" stroke="midnightblue" points="230.812,-126.815 238.132,-134.475 237.186,-123.922 230.812,-126.815"/>
</g>
<!-- Node37 -->
<g id="node8" class="node"><title>Node37</title>
<g id="a_node8"><a xlink:href="_n_f_c_kernel_module_8cpp.html" target="_top" xlink:title="NFCKernelModule.cpp">
<polygon fill="white" stroke="black" points="183,-6 183,-25 297,-25 297,-6 183,-6"/>
<text text-anchor="middle" x="240" y="-13" font-family="Helvetica,sans-Serif" font-size="10.00">NFCKernelModule.cpp</text>
</a>
</g>
</g>
<!-- Node35&#45;&gt;Node37 -->
<g id="edge8" class="edge"><title>Node35&#45;&gt;Node37</title>
<path fill="none" stroke="midnightblue" d="M254.726,-125.901C259.931,-117.869 265.346,-107.897 268,-98 271.568,-84.6923 271.45,-80.3387 268,-67 263.883,-51.0832 253.549,-34.8346 246.654,-25.2115"/>
<polygon fill="midnightblue" stroke="midnightblue" points="251.711,-124.106 248.89,-134.319 257.464,-128.094 251.711,-124.106"/>
</g>
<!-- Node38&#45;&gt;Node37 -->
<g id="edge10" class="edge"><title>Node38&#45;&gt;Node37</title>
<path fill="none" stroke="midnightblue" d="M341.158,-68.2739C316.004,-55.3999 278.508,-36.2086 256.934,-25.1672"/>
<polygon fill="midnightblue" stroke="midnightblue" points="339.639,-71.428 350.135,-72.8685 342.828,-65.1968 339.639,-71.428"/>
</g>
<!-- Node39 -->
<g id="node10" class="node"><title>Node39</title>
<g id="a_node10"><a xlink:href="_n_f_kernel_plugin_8cpp.html" target="_top" xlink:title="NFKernelPlugin.cpp">
<polygon fill="white" stroke="black" points="315.5,-6 315.5,-25 418.5,-25 418.5,-6 315.5,-6"/>
<text text-anchor="middle" x="367" y="-13" font-family="Helvetica,sans-Serif" font-size="10.00">NFKernelPlugin.cpp</text>
</a>
</g>
</g>
<!-- Node38&#45;&gt;Node39 -->
<g id="edge11" class="edge"><title>Node38&#45;&gt;Node39</title>
<path fill="none" stroke="midnightblue" d="M367,-62.537C367,-50.1703 367,-34.6198 367,-25.1273"/>
<polygon fill="midnightblue" stroke="midnightblue" points="363.5,-62.7338 367,-72.7338 370.5,-62.7338 363.5,-62.7338"/>
</g>
<!-- Node40&#45;&gt;Node39 -->
<g id="edge13" class="edge"><title>Node40&#45;&gt;Node39</title>
<path fill="none" stroke="midnightblue" d="M463.856,-68.1034C439.695,-55.2309 403.9,-36.16 383.268,-25.1672"/>
<polygon fill="midnightblue" stroke="midnightblue" points="462.328,-71.2553 472.799,-72.8685 465.62,-65.0774 462.328,-71.2553"/>
</g>
<!-- Node41 -->
<g id="node12" class="node"><title>Node41</title>
<g id="a_node12"><a xlink:href="_n_f_c_scene_module_8cpp.html" target="_top" xlink:title="NFCSceneModule.cpp">
<polygon fill="white" stroke="black" points="437,-6 437,-25 551,-25 551,-6 437,-6"/>
<text text-anchor="middle" x="494" y="-13" font-family="Helvetica,sans-Serif" font-size="10.00">NFCSceneModule.cpp</text>
</a>
</g>
</g>
<!-- Node40&#45;&gt;Node41 -->
<g id="edge14" class="edge"><title>Node40&#45;&gt;Node41</title>
<path fill="none" stroke="midnightblue" d="M490.459,-62.537C491.41,-50.1703 492.606,-34.6198 493.336,-25.1273"/>
<polygon fill="midnightblue" stroke="midnightblue" points="486.952,-62.4948 489.674,-72.7338 493.931,-63.0317 486.952,-62.4948"/>
</g>
<!-- Node42&#45;&gt;Node38 -->
<g id="edge19" class="edge"><title>Node42&#45;&gt;Node38</title>
<path fill="none" stroke="midnightblue" d="M2512.07,-142.502C2186.7,-139.697 639.321,-125.022 428,-98 417.85,-96.7022 406.93,-94.4024 397.173,-92.0116"/>
<polygon fill="midnightblue" stroke="midnightblue" points="2512.2,-146.003 2522.23,-142.589 2512.26,-139.003 2512.2,-146.003"/>
</g>
<!-- Node43 -->
<g id="node14" class="node"><title>Node43</title>
<g id="a_node14"><a xlink:href="_hello_world3_module_8h.html" target="_top" xlink:title="HelloWorld3Module.h">
<polygon fill="white" stroke="black" points="823.5,-73 823.5,-92 932.5,-92 932.5,-73 823.5,-73"/>
<text text-anchor="middle" x="878" y="-80" font-family="Helvetica,sans-Serif" font-size="10.00">HelloWorld3Module.h</text>
</a>
</g>
</g>
<!-- Node42&#45;&gt;Node43 -->
<g id="edge16" class="edge"><title>Node42&#45;&gt;Node43</title>
<path fill="none" stroke="midnightblue" d="M2512.28,-142.017C2311.32,-138.532 1641.21,-125.476 1088,-98 1035.26,-95.3804 975.149,-91.0983 932.794,-87.8651"/>
<polygon fill="midnightblue" stroke="midnightblue" points="2512.27,-145.517 2522.33,-142.19 2512.39,-138.518 2512.27,-145.517"/>
</g>
<!-- Node46 -->
<g id="node17" class="node"><title>Node46</title>
<g id="a_node17"><a xlink:href="_n_f_c_u_u_i_d_module_8h.html" target="_top" xlink:title="NFCUUIDModule.h">
<polygon fill="white" stroke="black" points="707,-73 707,-92 805,-92 805,-73 707,-73"/>
<text text-anchor="middle" x="756" y="-80" font-family="Helvetica,sans-Serif" font-size="10.00">NFCUUIDModule.h</text>
</a>
</g>
</g>
<!-- Node42&#45;&gt;Node46 -->
<g id="edge20" class="edge"><title>Node42&#45;&gt;Node46</title>
<path fill="none" stroke="midnightblue" d="M2511.97,-143.196C2243.75,-143.808 1153.54,-143.396 815,-98 805.278,-96.6963 794.833,-94.4262 785.473,-92.0639"/>
<polygon fill="midnightblue" stroke="midnightblue" points="2512.28,-146.696 2522.27,-143.171 2512.26,-139.696 2512.28,-146.696"/>
</g>
<!-- Node47 -->
<g id="node18" class="node"><title>Node47</title>
<g id="a_node18"><a xlink:href="_n_f_c_u_u_i_d_module_8cpp.html" target="_top" xlink:title="NFCUUIDModule.cpp">
<polygon fill="white" stroke="black" points="823.5,-6 823.5,-25 932.5,-25 932.5,-6 823.5,-6"/>
<text text-anchor="middle" x="878" y="-13" font-family="Helvetica,sans-Serif" font-size="10.00">NFCUUIDModule.cpp</text>
</a>
</g>
</g>
<!-- Node42&#45;&gt;Node47 -->
<g id="edge23" class="edge"><title>Node42&#45;&gt;Node47</title>
<path fill="none" stroke="midnightblue" d="M2512.19,-143.257C2276.41,-143.94 1411.09,-143.242 1141,-98 1048.12,-82.4424 942.447,-42.5664 898.67,-25.0124"/>
<polygon fill="midnightblue" stroke="midnightblue" points="2512.29,-146.757 2522.28,-143.226 2512.27,-139.757 2512.29,-146.757"/>
</g>
<!-- Node48 -->
<g id="node19" class="node"><title>Node48</title>
<g id="a_node19"><a xlink:href="_n_f_c_game_server_to_world_module_8h.html" target="_top" xlink:title="NFCGameServerToWorldModule.h">
<polygon fill="white" stroke="black" points="1149.5,-73 1149.5,-92 1314.5,-92 1314.5,-73 1149.5,-73"/>
<text text-anchor="middle" x="1232" y="-80" font-family="Helvetica,sans-Serif" font-size="10.00">NFCGameServerToWorldModule.h</text>
</a>
</g>
</g>
<!-- Node42&#45;&gt;Node48 -->
<g id="edge24" class="edge"><title>Node42&#45;&gt;Node48</title>
<path fill="none" stroke="midnightblue" d="M2512.18,-140.511C2352.93,-133.862 1905.39,-115.034 1533,-98 1459.18,-94.6233 1375.18,-90.5585 1314.72,-87.5929"/>
<polygon fill="midnightblue" stroke="midnightblue" points="2512.11,-144.011 2522.25,-140.931 2512.41,-137.017 2512.11,-144.011"/>
</g>
<!-- Node51 -->
<g id="node22" class="node"><title>Node51</title>
<g id="a_node22"><a xlink:href="_n_f_c_game_server_net___server_module_8h.html" target="_top" xlink:title="NFCGameServerNet_ServerModule.h">
<polygon fill="white" stroke="black" points="1542,-73 1542,-92 1718,-92 1718,-73 1542,-73"/>
<text text-anchor="middle" x="1630" y="-80" font-family="Helvetica,sans-Serif" font-size="10.00">NFCGameServerNet_ServerModule.h</text>
</a>
</g>
</g>
<!-- Node42&#45;&gt;Node51 -->
<g id="edge27" class="edge"><title>Node42&#45;&gt;Node51</title>
<path fill="none" stroke="midnightblue" d="M2512.1,-141.697C2373.83,-138.275 2021.8,-127.195 1729,-98 1713.62,-96.4661 1696.96,-94.2462 1681.78,-92.0027"/>
<polygon fill="midnightblue" stroke="midnightblue" points="2512.39,-145.205 2522.47,-141.949 2512.56,-138.207 2512.39,-145.205"/>
</g>
<!-- Node54 -->
<g id="node25" class="node"><title>Node54</title>
<g id="a_node25"><a xlink:href="_n_f_c_create_role_module_8h.html" target="_top" xlink:title="NFCCreateRoleModule.h">
<polygon fill="white" stroke="black" points="1738,-73 1738,-92 1862,-92 1862,-73 1738,-73"/>
<text text-anchor="middle" x="1800" y="-80" font-family="Helvetica,sans-Serif" font-size="10.00">NFCCreateRoleModule.h</text>
</a>
</g>
</g>
<!-- Node42&#45;&gt;Node54 -->
<g id="edge30" class="edge"><title>Node42&#45;&gt;Node54</title>
<path fill="none" stroke="midnightblue" d="M2511.93,-141.858C2390.53,-138.951 2107.5,-129.139 1872,-98 1860.75,-96.5124 1848.62,-94.3066 1837.58,-92.0618"/>
<polygon fill="midnightblue" stroke="midnightblue" points="2512.05,-145.361 2522.13,-142.095 2512.21,-138.363 2512.05,-145.361"/>
</g>
<!-- Node56 -->
<g id="node27" class="node"><title>Node56</title>
<g id="a_node27"><a xlink:href="_n_f_c_event_route_module_8h.html" target="_top" xlink:title="NFCEventRouteModule.h">
<polygon fill="white" stroke="black" points="1880.5,-73 1880.5,-92 2005.5,-92 2005.5,-73 1880.5,-73"/>
<text text-anchor="middle" x="1943" y="-80" font-family="Helvetica,sans-Serif" font-size="10.00">NFCEventRouteModule.h</text>
</a>
</g>
</g>
<!-- Node42&#45;&gt;Node56 -->
<g id="edge32" class="edge"><title>Node42&#45;&gt;Node56</title>
<path fill="none" stroke="midnightblue" d="M2512.09,-140.484C2409.78,-135.668 2194.96,-123.3 2015,-98 2003.89,-96.4378 1991.91,-94.2363 1980.97,-92.0195"/>
<polygon fill="midnightblue" stroke="midnightblue" points="2512.08,-143.987 2522.23,-140.954 2512.4,-136.995 2512.08,-143.987"/>
</g>
<!-- Node58 -->
<g id="node29" class="node"><title>Node58</title>
<g id="a_node29"><a xlink:href="_n_f_c_game_server_module_8h.html" target="_top" xlink:title="NFCGameServerModule.h">
<polygon fill="white" stroke="black" points="2023.5,-73 2023.5,-92 2152.5,-92 2152.5,-73 2023.5,-73"/>
<text text-anchor="middle" x="2088" y="-80" font-family="Helvetica,sans-Serif" font-size="10.00">NFCGameServerModule.h</text>
</a>
</g>
</g>
<!-- Node42&#45;&gt;Node58 -->
<g id="edge34" class="edge"><title>Node42&#45;&gt;Node58</title>
<path fill="none" stroke="midnightblue" d="M2511.9,-138C2431.82,-130.973 2285.81,-116.89 2162,-98 2151,-96.3216 2139.15,-94.1592 2128.22,-92.0193"/>
<polygon fill="midnightblue" stroke="midnightblue" points="2512.02,-141.523 2522.28,-138.904 2512.62,-134.549 2512.02,-141.523"/>
</g>
<!-- Node61 -->
<g id="node32" class="node"><title>Node61</title>
<g id="a_node32"><a xlink:href="_n_f_c_level_module_8h.html" target="_top" xlink:title="NFCLevelModule.h">
<polygon fill="white" stroke="black" points="2171,-73 2171,-92 2269,-92 2269,-73 2171,-73"/>
<text text-anchor="middle" x="2220" y="-80" font-family="Helvetica,sans-Serif" font-size="10.00">NFCLevelModule.h</text>
</a>
</g>
</g>
<!-- Node42&#45;&gt;Node61 -->
<g id="edge37" class="edge"><title>Node42&#45;&gt;Node61</title>
<path fill="none" stroke="midnightblue" d="M2512.35,-135.527C2452.75,-127.672 2358.63,-114.214 2278,-98 2269.45,-96.2813 2260.27,-94.1293 2251.79,-92.0135"/>
<polygon fill="midnightblue" stroke="midnightblue" points="2511.97,-139.007 2522.33,-136.834 2512.87,-132.066 2511.97,-139.007"/>
</g>
<!-- Node63 -->
<g id="node34" class="node"><title>Node63</title>
<g id="a_node34"><a xlink:href="_n_f_c_property_module_8h.html" target="_top" xlink:title="NFCPropertyModule.h">
<polygon fill="white" stroke="black" points="2445.5,-73 2445.5,-92 2558.5,-92 2558.5,-73 2445.5,-73"/>
<text text-anchor="middle" x="2502" y="-80" font-family="Helvetica,sans-Serif" font-size="10.00">NFCPropertyModule.h</text>
</a>
</g>
</g>
<!-- Node42&#45;&gt;Node63 -->
<g id="edge40" class="edge"><title>Node42&#45;&gt;Node63</title>
<path fill="none" stroke="midnightblue" d="M2554.32,-127.973C2540.93,-116.593 2523.02,-101.369 2512.01,-92.0091"/>
<polygon fill="midnightblue" stroke="midnightblue" points="2552.08,-130.665 2561.97,-134.475 2556.62,-125.332 2552.08,-130.665"/>
</g>
<!-- Node65 -->
<g id="node36" class="node"><title>Node65</title>
<g id="a_node36"><a xlink:href="_n_f_c_property_trail_module_8h.html" target="_top" xlink:title="NFCPropertyTrailModule.h">
<polygon fill="white" stroke="red" points="2576.5,-73 2576.5,-92 2707.5,-92 2707.5,-73 2576.5,-73"/>
<text text-anchor="middle" x="2642" y="-80" font-family="Helvetica,sans-Serif" font-size="10.00">NFCPropertyTrailModule.h</text>
</a>
</g>
</g>
<!-- Node42&#45;&gt;Node65 -->
<g id="edge43" class="edge"><title>Node42&#45;&gt;Node65</title>
<path fill="none" stroke="midnightblue" d="M2589.68,-127.973C2603.07,-116.593 2620.98,-101.369 2631.99,-92.0091"/>
<polygon fill="midnightblue" stroke="midnightblue" points="2587.38,-125.332 2582.03,-134.475 2591.92,-130.665 2587.38,-125.332"/>
</g>
<!-- Node67 -->
<g id="node37" class="node"><title>Node67</title>
<g id="a_node37"><a xlink:href="_n_f_c_scene_process_module_8h.html" target="_top" xlink:title="NFCSceneProcessModule.h">
<polygon fill="white" stroke="red" points="2287,-73 2287,-92 2427,-92 2427,-73 2287,-73"/>
<text text-anchor="middle" x="2357" y="-80" font-family="Helvetica,sans-Serif" font-size="10.00">NFCSceneProcessModule.h</text>
</a>
</g>
</g>
<!-- Node42&#45;&gt;Node67 -->
<g id="edge44" class="edge"><title>Node42&#45;&gt;Node67</title>
<path fill="none" stroke="midnightblue" d="M2531.35,-131.749C2489.58,-120.189 2425.48,-102.451 2387.75,-92.0091"/>
<polygon fill="midnightblue" stroke="midnightblue" points="2530.62,-135.181 2541.2,-134.475 2532.49,-128.435 2530.62,-135.181"/>
</g>
<!-- Node69 -->
<g id="node38" class="node"><title>Node69</title>
<g id="a_node38"><a xlink:href="_n_f_c_login_logic_module_8h.html" target="_top" xlink:title="NFCLoginLogicModule.h">
<polygon fill="white" stroke="red" points="2726,-73 2726,-92 2848,-92 2848,-73 2726,-73"/>
<text text-anchor="middle" x="2787" y="-80" font-family="Helvetica,sans-Serif" font-size="10.00">NFCLoginLogicModule.h</text>
</a>
</g>
</g>
<!-- Node42&#45;&gt;Node69 -->
<g id="edge46" class="edge"><title>Node42&#45;&gt;Node69</title>
<path fill="none" stroke="midnightblue" d="M2612.65,-131.749C2654.42,-120.189 2718.52,-102.451 2756.25,-92.0091"/>
<polygon fill="midnightblue" stroke="midnightblue" points="2611.51,-128.435 2602.8,-134.475 2613.38,-135.181 2611.51,-128.435"/>
</g>
<!-- Node72 -->
<g id="node39" class="node"><title>Node72</title>
<g id="a_node39"><a xlink:href="_n_f_c_login_to_master_module_8h.html" target="_top" xlink:title="NFCLoginToMasterModule.h">
<polygon fill="white" stroke="red" points="2866,-73 2866,-92 3006,-92 3006,-73 2866,-73"/>
<text text-anchor="middle" x="2936" y="-80" font-family="Helvetica,sans-Serif" font-size="10.00">NFCLoginToMasterModule.h</text>
</a>
</g>
</g>
<!-- Node42&#45;&gt;Node72 -->
<g id="edge47" class="edge"><title>Node42&#45;&gt;Node72</title>
<path fill="none" stroke="midnightblue" d="M2631.78,-134.004C2689.5,-125.214 2779.33,-111.258 2857,-98 2867.86,-96.1465 2879.54,-94.0561 2890.5,-92.0515"/>
<polygon fill="midnightblue" stroke="midnightblue" points="2631.1,-130.567 2621.74,-135.53 2632.16,-137.487 2631.1,-130.567"/>
</g>
<!-- Node75 -->
<g id="node40" class="node"><title>Node75</title>
<g id="a_node40"><a xlink:href="_n_f_c_login_net___server_module_8h.html" target="_top" xlink:title="NFCLoginNet_ServerModule.h">
<polygon fill="white" stroke="red" points="3024,-73 3024,-92 3170,-92 3170,-73 3024,-73"/>
<text text-anchor="middle" x="3097" y="-80" font-family="Helvetica,sans-Serif" font-size="10.00">NFCLoginNet_ServerModule.h</text>
</a>
</g>
</g>
<!-- Node42&#45;&gt;Node75 -->
<g id="edge48" class="edge"><title>Node42&#45;&gt;Node75</title>
<path fill="none" stroke="midnightblue" d="M2631.65,-138.348C2716.88,-131.381 2878.33,-116.999 3015,-98 3027.17,-96.308 3040.3,-94.1411 3052.41,-92.0011"/>
<polygon fill="midnightblue" stroke="midnightblue" points="2631.32,-134.863 2621.64,-139.16 2631.89,-141.84 2631.32,-134.863"/>
</g>
<!-- Node78 -->
<g id="node41" class="node"><title>Node78</title>
<g id="a_node41"><a xlink:href="_n_f_c_master_net___server_module_8h.html" target="_top" xlink:title="NFCMasterNet_ServerModule.h">
<polygon fill="white" stroke="red" points="3188.5,-73 3188.5,-92 3341.5,-92 3341.5,-73 3188.5,-73"/>
<text text-anchor="middle" x="3265" y="-80" font-family="Helvetica,sans-Serif" font-size="10.00">NFCMasterNet_ServerModule.h</text>
</a>
</g>
</g>
<!-- Node42&#45;&gt;Node78 -->
<g id="edge49" class="edge"><title>Node42&#45;&gt;Node78</title>
<path fill="none" stroke="midnightblue" d="M2631.87,-140.412C2740.97,-135.284 2979.3,-122.184 3179,-98 3192.08,-96.4163 3206.2,-94.2343 3219.14,-92.0437"/>
<polygon fill="midnightblue" stroke="midnightblue" points="2631.55,-136.923 2621.72,-140.883 2631.87,-143.915 2631.55,-136.923"/>
</g>
<!-- Node81 -->
<g id="node42" class="node"><title>Node81</title>
<g id="a_node42"><a xlink:href="_n_f_c_master_module_8h.html" target="_top" xlink:title="NFCMasterModule.h">
<polygon fill="white" stroke="red" points="3360,-73 3360,-92 3466,-92 3466,-73 3360,-73"/>
<text text-anchor="middle" x="3413" y="-80" font-family="Helvetica,sans-Serif" font-size="10.00">NFCMasterModule.h</text>
</a>
</g>
</g>
<!-- Node42&#45;&gt;Node81 -->
<g id="edge50" class="edge"><title>Node42&#45;&gt;Node81</title>
<path fill="none" stroke="midnightblue" d="M2631.73,-143.04C2762.7,-142.364 3084.71,-136.538 3351,-98 3360.96,-96.5592 3371.67,-94.3105 3381.34,-92.0104"/>
<polygon fill="midnightblue" stroke="midnightblue" points="2631.5,-139.54 2621.51,-143.084 2631.53,-146.54 2631.5,-139.54"/>
</g>
<!-- Node84 -->
<g id="node43" class="node"><title>Node84</title>
<g id="a_node43"><a xlink:href="_n_f_c_proxy_logic_module_8h.html" target="_top" xlink:title="NFCProxyLogicModule.h">
<polygon fill="white" stroke="red" points="3484.5,-73 3484.5,-92 3609.5,-92 3609.5,-73 3484.5,-73"/>
<text text-anchor="middle" x="3547" y="-80" font-family="Helvetica,sans-Serif" font-size="10.00">NFCProxyLogicModule.h</text>
</a>
</g>
</g>
<!-- Node42&#45;&gt;Node84 -->
<g id="edge51" class="edge"><title>Node42&#45;&gt;Node84</title>
<path fill="none" stroke="midnightblue" d="M2631.69,-143.09C2776.72,-142.642 3159,-137.47 3475,-98 3486.51,-96.5619 3498.94,-94.3139 3510.17,-92.0137"/>
<polygon fill="midnightblue" stroke="midnightblue" points="2631.65,-139.59 2621.66,-143.114 2631.67,-146.59 2631.65,-139.59"/>
</g>
<!-- Node87 -->
<g id="node44" class="node"><title>Node87</title>
<g id="a_node44"><a xlink:href="_n_f_c_proxy_server_to_game_module_8h.html" target="_top" xlink:title="NFCProxyServerToGameModule.h">
<polygon fill="white" stroke="red" points="3627.5,-73 3627.5,-92 3792.5,-92 3792.5,-73 3627.5,-73"/>
<text text-anchor="middle" x="3710" y="-80" font-family="Helvetica,sans-Serif" font-size="10.00">NFCProxyServerToGameModule.h</text>
</a>
</g>
</g>
<!-- Node42&#45;&gt;Node87 -->
<g id="edge52" class="edge"><title>Node42&#45;&gt;Node87</title>
<path fill="none" stroke="midnightblue" d="M2631.88,-142.834C2792.27,-141.867 3244.81,-135.727 3619,-98 3633.33,-96.5557 3648.83,-94.3347 3662.9,-92.0618"/>
<polygon fill="midnightblue" stroke="midnightblue" points="2631.72,-139.334 2621.74,-142.89 2631.76,-146.334 2631.72,-139.334"/>
</g>
<!-- Node90 -->
<g id="node45" class="node"><title>Node90</title>
<g id="a_node45"><a xlink:href="_n_f_c_proxy_server_to_world_module_8h.html" target="_top" xlink:title="NFCProxyServerToWorldModule.h">
<polygon fill="white" stroke="red" points="3811,-73 3811,-92 3975,-92 3975,-73 3811,-73"/>
<text text-anchor="middle" x="3893" y="-80" font-family="Helvetica,sans-Serif" font-size="10.00">NFCProxyServerToWorldModule.h</text>
</a>
</g>
</g>
<!-- Node42&#45;&gt;Node90 -->
<g id="edge53" class="edge"><title>Node42&#45;&gt;Node90</title>
<path fill="none" stroke="midnightblue" d="M2631.87,-143.38C2810.32,-143.961 3353.94,-141.73 3802,-98 3816.49,-96.5859 3832.18,-94.3449 3846.38,-92.0436"/>
<polygon fill="midnightblue" stroke="midnightblue" points="2631.66,-139.879 2621.65,-143.342 2631.64,-146.879 2631.66,-139.879"/>
</g>
<!-- Node92 -->
<g id="node46" class="node"><title>Node92</title>
<g id="a_node46"><a xlink:href="_n_f_c_proxy_server_net___server_module_8h.html" target="_top" xlink:title="NFCProxyServerNet_Server\lModule.h">
<polygon fill="white" stroke="red" points="4031,-67.5 4031,-97.5 4167,-97.5 4167,-67.5 4031,-67.5"/>
<text text-anchor="start" x="4039" y="-85.5" font-family="Helvetica,sans-Serif" font-size="10.00">NFCProxyServerNet_Server</text>
<text text-anchor="middle" x="4099" y="-74.5" font-family="Helvetica,sans-Serif" font-size="10.00">Module.h</text>
</a>
</g>
</g>
<!-- Node42&#45;&gt;Node92 -->
<g id="edge54" class="edge"><title>Node42&#45;&gt;Node92</title>
<path fill="none" stroke="midnightblue" d="M2631.86,-142.285C2868.85,-139.278 3741.79,-126.469 4017,-98 4021.46,-97.5389 4026.04,-96.9768 4030.65,-96.345"/>
<polygon fill="midnightblue" stroke="midnightblue" points="2631.68,-138.787 2621.72,-142.413 2631.76,-145.787 2631.68,-138.787"/>
</g>
<!-- Node93 -->
<g id="node47" class="node"><title>Node93</title>
<g id="a_node47"><a xlink:href="_n_f_c_proxy_server_net___server_module_8cpp.html" target="_top" xlink:title="NFCProxyServerNet_Server\lModule.cpp">
<polygon fill="white" stroke="black" points="3983,-0.5 3983,-30.5 4119,-30.5 4119,-0.5 3983,-0.5"/>
<text text-anchor="start" x="3991" y="-18.5" font-family="Helvetica,sans-Serif" font-size="10.00">NFCProxyServerNet_Server</text>
<text text-anchor="middle" x="4051" y="-7.5" font-family="Helvetica,sans-Serif" font-size="10.00">Module.cpp</text>
</a>
</g>
</g>
<!-- Node42&#45;&gt;Node93 -->
<g id="edge56" class="edge"><title>Node42&#45;&gt;Node93</title>
<path fill="none" stroke="midnightblue" d="M2631.9,-142.467C2893.16,-139.97 3922.55,-128.239 3984,-98 4013.25,-83.6046 4034.22,-49.8259 4044.28,-30.5783"/>
<polygon fill="midnightblue" stroke="midnightblue" points="2631.82,-138.968 2621.85,-142.563 2631.88,-145.968 2631.82,-138.968"/>
</g>
<!-- Node95 -->
<g id="node48" class="node"><title>Node95</title>
<g id="a_node48"><a xlink:href="_n_f_c_world_logic_module_8h.html" target="_top" xlink:title="NFCWorldLogicModule.h">
<polygon fill="white" stroke="red" points="4185.5,-73 4185.5,-92 4310.5,-92 4310.5,-73 4185.5,-73"/>
<text text-anchor="middle" x="4248" y="-80" font-family="Helvetica,sans-Serif" font-size="10.00">NFCWorldLogicModule.h</text>
</a>
</g>
</g>
<!-- Node42&#45;&gt;Node95 -->
<g id="edge57" class="edge"><title>Node42&#45;&gt;Node95</title>
<path fill="none" stroke="midnightblue" d="M2631.68,-142.69C2884.47,-141.165 3868.18,-133.053 4176,-98 4187.78,-96.6583 4200.51,-94.3778 4211.93,-92.0177"/>
<polygon fill="midnightblue" stroke="midnightblue" points="2631.57,-139.19 2621.59,-142.749 2631.61,-146.19 2631.57,-139.19"/>
</g>
<!-- Node98 -->
<g id="node49" class="node"><title>Node98</title>
<g id="a_node49"><a xlink:href="_n_f_c_world_net___server_module_8h.html" target="_top" xlink:title="NFCWorldNet_ServerModule.h">
<polygon fill="white" stroke="red" points="4328.5,-73 4328.5,-92 4477.5,-92 4477.5,-73 4328.5,-73"/>
<text text-anchor="middle" x="4403" y="-80" font-family="Helvetica,sans-Serif" font-size="10.00">NFCWorldNet_ServerModule.h</text>
</a>
</g>
</g>
<!-- Node42&#45;&gt;Node98 -->
<g id="edge58" class="edge"><title>Node42&#45;&gt;Node98</title>
<path fill="none" stroke="midnightblue" d="M2632.11,-142.641C2899.42,-140.864 3982.04,-131.686 4320,-98 4333.54,-96.6507 4348.19,-94.3682 4361.37,-92.0085"/>
<polygon fill="midnightblue" stroke="midnightblue" points="2631.81,-139.143 2621.83,-142.709 2631.85,-146.143 2631.81,-139.143"/>
</g>
<!-- Node44 -->
<g id="node15" class="node"><title>Node44</title>
<g id="a_node15"><a xlink:href="_hello_world3_module_8cpp.html" target="_top" xlink:title="HelloWorld3Module.cpp">
<polygon fill="white" stroke="black" points="569.5,-6 569.5,-25 688.5,-25 688.5,-6 569.5,-6"/>
<text text-anchor="middle" x="629" y="-13" font-family="Helvetica,sans-Serif" font-size="10.00">HelloWorld3Module.cpp</text>
</a>
</g>
</g>
<!-- Node43&#45;&gt;Node44 -->
<g id="edge17" class="edge"><title>Node43&#45;&gt;Node44</title>
<path fill="none" stroke="midnightblue" d="M835.493,-70.4039C786.351,-57.5757 706.52,-36.7361 661.881,-25.0834"/>
<polygon fill="midnightblue" stroke="midnightblue" points="834.632,-73.7962 845.192,-72.9355 836.4,-67.0232 834.632,-73.7962"/>
</g>
<!-- Node45 -->
<g id="node16" class="node"><title>Node45</title>
<g id="a_node16"><a xlink:href="_tutorial3_plugin_8cpp.html" target="_top" xlink:title="Tutorial3Plugin.cpp">
<polygon fill="white" stroke="black" points="706.5,-6 706.5,-25 805.5,-25 805.5,-6 706.5,-6"/>
<text text-anchor="middle" x="756" y="-13" font-family="Helvetica,sans-Serif" font-size="10.00">Tutorial3Plugin.cpp</text>
</a>
</g>
</g>
<!-- Node43&#45;&gt;Node45 -->
<g id="edge18" class="edge"><title>Node43&#45;&gt;Node45</title>
<path fill="none" stroke="midnightblue" d="M852.856,-68.1034C828.695,-55.2309 792.9,-36.16 772.268,-25.1672"/>
<polygon fill="midnightblue" stroke="midnightblue" points="851.328,-71.2553 861.799,-72.8685 854.62,-65.0774 851.328,-71.2553"/>
</g>
<!-- Node46&#45;&gt;Node39 -->
<g id="edge22" class="edge"><title>Node46&#45;&gt;Node39</title>
<path fill="none" stroke="midnightblue" d="M696.693,-73.8342C630.805,-64.9777 521.392,-49.2585 428,-31 419.133,-29.2665 409.604,-27.1328 400.773,-25.0407"/>
<polygon fill="midnightblue" stroke="midnightblue" points="696.509,-77.3406 706.884,-75.196 697.436,-70.4023 696.509,-77.3406"/>
</g>
<!-- Node46&#45;&gt;Node47 -->
<g id="edge21" class="edge"><title>Node46&#45;&gt;Node47</title>
<path fill="none" stroke="midnightblue" d="M781.144,-68.1034C805.305,-55.2309 841.1,-36.16 861.732,-25.1672"/>
<polygon fill="midnightblue" stroke="midnightblue" points="779.38,-65.0774 772.201,-72.8685 782.672,-71.2553 779.38,-65.0774"/>
</g>
<!-- Node49 -->
<g id="node20" class="node"><title>Node49</title>
<g id="a_node20"><a xlink:href="_n_f_c_game_server_to_world_module_8cpp.html" target="_top" xlink:title="NFCGameServerToWorldModule.cpp">
<polygon fill="white" stroke="black" points="951,-6 951,-25 1127,-25 1127,-6 951,-6"/>
<text text-anchor="middle" x="1039" y="-13" font-family="Helvetica,sans-Serif" font-size="10.00">NFCGameServerToWorldModule.cpp</text>
</a>
</g>
</g>
<!-- Node48&#45;&gt;Node49 -->
<g id="edge25" class="edge"><title>Node48&#45;&gt;Node49</title>
<path fill="none" stroke="midnightblue" d="M1196.67,-69.6013C1158.4,-56.7138 1098.3,-36.4728 1064.43,-25.0637"/>
<polygon fill="midnightblue" stroke="midnightblue" points="1195.78,-72.9937 1206.37,-72.8685 1198.01,-66.3598 1195.78,-72.9937"/>
</g>
<!-- Node50 -->
<g id="node21" class="node"><title>Node50</title>
<g id="a_node21"><a xlink:href="_n_f_game_server_net___client_plugin_8cpp.html" target="_top" xlink:title="NFGameServerNet_ClientPlugin.cpp">
<polygon fill="white" stroke="black" points="1145.5,-6 1145.5,-25 1318.5,-25 1318.5,-6 1145.5,-6"/>
<text text-anchor="middle" x="1232" y="-13" font-family="Helvetica,sans-Serif" font-size="10.00">NFGameServerNet_ClientPlugin.cpp</text>
</a>
</g>
</g>
<!-- Node48&#45;&gt;Node50 -->
<g id="edge26" class="edge"><title>Node48&#45;&gt;Node50</title>
<path fill="none" stroke="midnightblue" d="M1232,-62.537C1232,-50.1703 1232,-34.6198 1232,-25.1273"/>
<polygon fill="midnightblue" stroke="midnightblue" points="1228.5,-62.7338 1232,-72.7338 1235.5,-62.7338 1228.5,-62.7338"/>
</g>
<!-- Node52 -->
<g id="node23" class="node"><title>Node52</title>
<g id="a_node23"><a xlink:href="_n_f_c_game_server_net___server_module_8cpp.html" target="_top" xlink:title="NFCGameServerNet_ServerModule.cpp">
<polygon fill="white" stroke="black" points="1336.5,-6 1336.5,-25 1523.5,-25 1523.5,-6 1336.5,-6"/>
<text text-anchor="middle" x="1430" y="-13" font-family="Helvetica,sans-Serif" font-size="10.00">NFCGameServerNet_ServerModule.cpp</text>
</a>
</g>
</g>
<!-- Node51&#45;&gt;Node52 -->
<g id="edge28" class="edge"><title>Node51&#45;&gt;Node52</title>
<path fill="none" stroke="midnightblue" d="M1593.89,-69.7654C1554.27,-56.8862 1491.6,-36.5214 1456.35,-25.0637"/>
<polygon fill="midnightblue" stroke="midnightblue" points="1592.85,-73.1062 1603.44,-72.8685 1595.01,-66.449 1592.85,-73.1062"/>
</g>
<!-- Node53 -->
<g id="node24" class="node"><title>Node53</title>
<g id="a_node24"><a xlink:href="_n_f_game_server_net___server_plugin_8cpp.html" target="_top" xlink:title="NFGameServerNet_ServerPlugin.cpp">
<polygon fill="white" stroke="black" points="1542,-6 1542,-25 1718,-25 1718,-6 1542,-6"/>
<text text-anchor="middle" x="1630" y="-13" font-family="Helvetica,sans-Serif" font-size="10.00">NFGameServerNet_ServerPlugin.cpp</text>
</a>
</g>
</g>
<!-- Node51&#45;&gt;Node53 -->
<g id="edge29" class="edge"><title>Node51&#45;&gt;Node53</title>
<path fill="none" stroke="midnightblue" d="M1630,-62.537C1630,-50.1703 1630,-34.6198 1630,-25.1273"/>
<polygon fill="midnightblue" stroke="midnightblue" points="1626.5,-62.7338 1630,-72.7338 1633.5,-62.7338 1626.5,-62.7338"/>
</g>
<!-- Node55 -->
<g id="node26" class="node"><title>Node55</title>
<g id="a_node26"><a xlink:href="_n_f_c_create_role_module_8cpp.html" target="_top" xlink:title="NFCCreateRoleModule.cpp">
<polygon fill="white" stroke="black" points="1736,-6 1736,-25 1870,-25 1870,-6 1736,-6"/>
<text text-anchor="middle" x="1803" y="-13" font-family="Helvetica,sans-Serif" font-size="10.00">NFCCreateRoleModule.cpp</text>
</a>
</g>
</g>
<!-- Node54&#45;&gt;Node55 -->
<g id="edge31" class="edge"><title>Node54&#45;&gt;Node55</title>
<path fill="none" stroke="midnightblue" d="M1800.88,-62.537C1801.45,-50.1703 1802.16,-34.6198 1802.6,-25.1273"/>
<polygon fill="midnightblue" stroke="midnightblue" points="1797.37,-62.583 1800.4,-72.7338 1804.36,-62.9058 1797.37,-62.583"/>
</g>
<!-- Node57 -->
<g id="node28" class="node"><title>Node57</title>
<g id="a_node28"><a xlink:href="_n_f_c_event_route_module_8cpp.html" target="_top" xlink:title="NFCEventRouteModule.cpp">
<polygon fill="white" stroke="black" points="1888,-6 1888,-25 2024,-25 2024,-6 1888,-6"/>
<text text-anchor="middle" x="1956" y="-13" font-family="Helvetica,sans-Serif" font-size="10.00">NFCEventRouteModule.cpp</text>
</a>
</g>
</g>
<!-- Node56&#45;&gt;Node57 -->
<g id="edge33" class="edge"><title>Node56&#45;&gt;Node57</title>
<path fill="none" stroke="midnightblue" d="M1946.72,-62.9145C1949.2,-50.4883 1952.36,-34.7166 1954.27,-25.1273"/>
<polygon fill="midnightblue" stroke="midnightblue" points="1943.28,-62.2416 1944.75,-72.7338 1950.15,-63.6144 1943.28,-62.2416"/>
</g>
<!-- Node59 -->
<g id="node30" class="node"><title>Node59</title>
<g id="a_node30"><a xlink:href="_n_f_c_game_server_module_8cpp.html" target="_top" xlink:title="NFCGameServerModule.cpp">
<polygon fill="white" stroke="black" points="2042,-6 2042,-25 2182,-25 2182,-6 2042,-6"/>
<text text-anchor="middle" x="2112" y="-13" font-family="Helvetica,sans-Serif" font-size="10.00">NFCGameServerModule.cpp</text>
</a>
</g>
</g>
<!-- Node58&#45;&gt;Node59 -->
<g id="edge35" class="edge"><title>Node58&#45;&gt;Node59</title>
<path fill="none" stroke="midnightblue" d="M2094.72,-63.29C2099.33,-50.8076 2105.24,-34.8135 2108.81,-25.1273"/>
<polygon fill="midnightblue" stroke="midnightblue" points="2091.42,-62.1405 2091.24,-72.7338 2097.98,-64.5652 2091.42,-62.1405"/>
</g>
<!-- Node60 -->
<g id="node31" class="node"><title>Node60</title>
<g id="a_node31"><a xlink:href="_n_f_game_server_plugin_8cpp.html" target="_top" xlink:title="NFGameServerPlugin.cpp">
<polygon fill="white" stroke="black" points="2326,-6 2326,-25 2454,-25 2454,-6 2326,-6"/>
<text text-anchor="middle" x="2390" y="-13" font-family="Helvetica,sans-Serif" font-size="10.00">NFGameServerPlugin.cpp</text>
</a>
</g>
</g>
<!-- Node58&#45;&gt;Node60 -->
<g id="edge36" class="edge"><title>Node58&#45;&gt;Node60</title>
<path fill="none" stroke="midnightblue" d="M2137.7,-70.803C2197.13,-58.0117 2295.41,-36.8578 2350.12,-25.0834"/>
<polygon fill="midnightblue" stroke="midnightblue" points="2136.83,-67.4097 2127.79,-72.9355 2138.3,-74.253 2136.83,-67.4097"/>
</g>
<!-- Node61&#45;&gt;Node60 -->
<g id="edge39" class="edge"><title>Node61&#45;&gt;Node60</title>
<path fill="none" stroke="midnightblue" d="M2251.98,-69.2706C2285.72,-56.3699 2338.02,-36.3757 2367.6,-25.0637"/>
<polygon fill="midnightblue" stroke="midnightblue" points="2250.67,-66.0279 2242.57,-72.8685 2253.17,-72.5662 2250.67,-66.0279"/>
</g>
<!-- Node62 -->
<g id="node33" class="node"><title>Node62</title>
<g id="a_node33"><a xlink:href="_n_f_c_level_module_8cpp.html" target="_top" xlink:title="NFCLevelModule.cpp">
<polygon fill="white" stroke="black" points="2200,-6 2200,-25 2308,-25 2308,-6 2200,-6"/>
<text text-anchor="middle" x="2254" y="-13" font-family="Helvetica,sans-Serif" font-size="10.00">NFCLevelModule.cpp</text>
</a>
</g>
</g>
<!-- Node61&#45;&gt;Node62 -->
<g id="edge38" class="edge"><title>Node61&#45;&gt;Node62</title>
<path fill="none" stroke="midnightblue" d="M2229.33,-63.6635C2235.89,-51.1281 2244.37,-34.9104 2249.49,-25.1273"/>
<polygon fill="midnightblue" stroke="midnightblue" points="2226.12,-62.2506 2224.59,-72.7338 2232.32,-65.4951 2226.12,-62.2506"/>
</g>
<!-- Node63&#45;&gt;Node60 -->
<g id="edge42" class="edge"><title>Node63&#45;&gt;Node60</title>
<path fill="none" stroke="midnightblue" d="M2478.08,-67.6151C2455.89,-54.737 2423.56,-35.9758 2404.87,-25.1273"/>
<polygon fill="midnightblue" stroke="midnightblue" points="2476.49,-70.7414 2486.9,-72.7338 2480,-64.6871 2476.49,-70.7414"/>
</g>
<!-- Node64 -->
<g id="node35" class="node"><title>Node64</title>
<g id="a_node35"><a xlink:href="_n_f_c_property_module_8cpp.html" target="_top" xlink:title="NFCPropertyModule.cpp">
<polygon fill="white" stroke="black" points="2472.5,-6 2472.5,-25 2595.5,-25 2595.5,-6 2472.5,-6"/>
<text text-anchor="middle" x="2534" y="-13" font-family="Helvetica,sans-Serif" font-size="10.00">NFCPropertyModule.cpp</text>
</a>
</g>
</g>
<!-- Node63&#45;&gt;Node64 -->
<g id="edge41" class="edge"><title>Node63&#45;&gt;Node64</title>
<path fill="none" stroke="midnightblue" d="M2510.78,-63.6635C2516.95,-51.1281 2524.94,-34.9104 2529.75,-25.1273"/>
<polygon fill="midnightblue" stroke="midnightblue" points="2507.59,-62.2162 2506.32,-72.7338 2513.87,-65.308 2507.59,-62.2162"/>
</g>
<!-- Node67&#45;&gt;Node60 -->
<g id="edge45" class="edge"><title>Node67&#45;&gt;Node60</title>
<path fill="none" stroke="midnightblue" d="M2366.06,-63.6635C2372.42,-51.1281 2380.65,-34.9104 2385.62,-25.1273"/>
<polygon fill="midnightblue" stroke="midnightblue" points="2362.86,-62.2327 2361.45,-72.7338 2369.1,-65.4016 2362.86,-62.2327"/>
</g>
<!-- Node92&#45;&gt;Node93 -->
<g id="edge55" class="edge"><title>Node92&#45;&gt;Node93</title>
<path fill="none" stroke="midnightblue" d="M4082.5,-59.1575C4075.5,-49.6788 4067.56,-38.9186 4061.39,-30.5765"/>
<polygon fill="midnightblue" stroke="midnightblue" points="4079.83,-61.4308 4088.58,-67.396 4085.46,-57.2725 4079.83,-61.4308"/>
</g>
<!-- Node101&#45;&gt;Node38 -->
<g id="edge60" class="edge"><title>Node101&#45;&gt;Node38</title>
<path fill="none" stroke="midnightblue" d="M398.678,-126.338C390.419,-115.169 379.888,-100.928 373.292,-92.0091"/>
<polygon fill="midnightblue" stroke="midnightblue" points="395.936,-128.516 404.696,-134.475 401.564,-124.354 395.936,-128.516"/>
</g>
<!-- Node101&#45;&gt;Node40 -->
<g id="edge61" class="edge"><title>Node101&#45;&gt;Node40</title>
<path fill="none" stroke="midnightblue" d="M430.279,-128.294C445.241,-116.88 465.459,-101.458 477.845,-92.0091"/>
<polygon fill="midnightblue" stroke="midnightblue" points="428.004,-125.627 422.175,-134.475 432.249,-131.193 428.004,-125.627"/>
</g>
</g>
</svg>
