<?xml version="1.0" encoding="UTF-8" standalone="no"?>
<!DOCTYPE svg PUBLIC "-//W3C//DTD SVG 1.1//EN"
 "http://www.w3.org/Graphics/SVG/1.1/DTD/svg11.dtd">
<!-- Generated by graphviz version 2.38.0 (20140413.2041)
 -->
<!-- Title: NFTime.h Pages: 1 -->
<svg width="541pt" height="84pt"
 viewBox="0.00 0.00 541.00 84.00" xmlns="http://www.w3.org/2000/svg" xmlns:xlink="http://www.w3.org/1999/xlink">
<g id="graph0" class="graph" transform="scale(1 1) rotate(0) translate(4 80)">
<title>NFTime.h</title>
<polygon fill="white" stroke="none" points="-4,4 -4,-80 537,-80 537,4 -4,4"/>
<!-- Node3 -->
<g id="node1" class="node"><title>Node3</title>
<polygon fill="#bfbfbf" stroke="black" points="216.5,-56.5 216.5,-75.5 275.5,-75.5 275.5,-56.5 216.5,-56.5"/>
<text text-anchor="middle" x="246" y="-63.5" font-family="Helvetica,sans-Serif" font-size="10.00">NFTime.h</text>
</g>
<!-- Node4 -->
<g id="node2" class="node"><title>Node4</title>
<g id="a_node2"><a xlink:href="_n_f_c_heart_beat_manager_8cpp.html" target="_top" xlink:title="NFCHeartBeatManager.cpp">
<polygon fill="white" stroke="black" points="0,-0.5 0,-19.5 136,-19.5 136,-0.5 0,-0.5"/>
<text text-anchor="middle" x="68" y="-7.5" font-family="Helvetica,sans-Serif" font-size="10.00">NFCHeartBeatManager.cpp</text>
</a>
</g>
</g>
<!-- Node3&#45;&gt;Node4 -->
<g id="edge1" class="edge"><title>Node3&#45;&gt;Node4</title>
<path fill="none" stroke="midnightblue" d="M207.883,-53.4363C174.322,-43.2551 126.226,-28.664 96.0727,-19.5164"/>
<polygon fill="midnightblue" stroke="midnightblue" points="207.21,-56.8897 217.795,-56.4435 209.242,-50.1911 207.21,-56.8897"/>
</g>
<!-- Node5 -->
<g id="node3" class="node"><title>Node5</title>
<g id="a_node3"><a xlink:href="_n_f_time_8cpp.html" target="_top" xlink:title="NFTime.cpp">
<polygon fill="white" stroke="black" points="154.5,-0.5 154.5,-19.5 223.5,-19.5 223.5,-0.5 154.5,-0.5"/>
<text text-anchor="middle" x="189" y="-7.5" font-family="Helvetica,sans-Serif" font-size="10.00">NFTime.cpp</text>
</a>
</g>
</g>
<!-- Node3&#45;&gt;Node5 -->
<g id="edge2" class="edge"><title>Node3&#45;&gt;Node5</title>
<path fill="none" stroke="midnightblue" d="M229.379,-49.2533C219.266,-39.6731 206.723,-27.7906 198.325,-19.8339"/>
<polygon fill="midnightblue" stroke="midnightblue" points="227.175,-51.9873 236.842,-56.324 231.99,-46.9056 227.175,-51.9873"/>
</g>
<!-- Node6 -->
<g id="node4" class="node"><title>Node6</title>
<g id="a_node4"><a xlink:href="_n_f_c_property_module_8cpp.html" target="_top" xlink:title="NFCPropertyModule.cpp">
<polygon fill="white" stroke="black" points="241.5,-0.5 241.5,-19.5 364.5,-19.5 364.5,-0.5 241.5,-0.5"/>
<text text-anchor="middle" x="303" y="-7.5" font-family="Helvetica,sans-Serif" font-size="10.00">NFCPropertyModule.cpp</text>
</a>
</g>
</g>
<!-- Node3&#45;&gt;Node6 -->
<g id="edge3" class="edge"><title>Node3&#45;&gt;Node6</title>
<path fill="none" stroke="midnightblue" d="M262.621,-49.2533C272.734,-39.6731 285.277,-27.7906 293.675,-19.8339"/>
<polygon fill="midnightblue" stroke="midnightblue" points="260.01,-46.9056 255.158,-56.324 264.825,-51.9873 260.01,-46.9056"/>
</g>
<!-- Node7 -->
<g id="node5" class="node"><title>Node7</title>
<g id="a_node5"><a xlink:href="_n_f_c_scene_process_module_8cpp.html" target="_top" xlink:title="NFCSceneProcessModule.cpp">
<polygon fill="white" stroke="black" points="383,-0.5 383,-19.5 533,-19.5 533,-0.5 383,-0.5"/>
<text text-anchor="middle" x="458" y="-7.5" font-family="Helvetica,sans-Serif" font-size="10.00">NFCSceneProcessModule.cpp</text>
</a>
</g>
</g>
<!-- Node3&#45;&gt;Node7 -->
<g id="edge4" class="edge"><title>Node3&#45;&gt;Node7</title>
<path fill="none" stroke="midnightblue" d="M285.863,-54.8461C325.853,-44.66 386.759,-29.1464 424.38,-19.5637"/>
<polygon fill="midnightblue" stroke="midnightblue" points="284.751,-51.5175 275.925,-57.3776 286.479,-58.3009 284.751,-51.5175"/>
</g>
</g>
</svg>
