<?xml version="1.0" encoding="UTF-8" standalone="no"?>
<!DOCTYPE svg PUBLIC "-//W3C//DTD SVG 1.1//EN"
 "http://www.w3.org/Graphics/SVG/1.1/DTD/svg11.dtd">
<!-- Generated by graphviz version 2.38.0 (20140413.2041)
 -->
<!-- Title: NFProxyServerNet_ClientPlugin.h Pages: 1 -->
<svg width="569pt" height="84pt"
 viewBox="0.00 0.00 568.50 84.00" xmlns="http://www.w3.org/2000/svg" xmlns:xlink="http://www.w3.org/1999/xlink">
<g id="graph0" class="graph" transform="scale(1 1) rotate(0) translate(4 80)">
<title>NFProxyServerNet_ClientPlugin.h</title>
<polygon fill="white" stroke="none" points="-4,4 -4,-80 564.5,-80 564.5,4 -4,4"/>
<!-- Node35 -->
<g id="node1" class="node"><title>Node35</title>
<polygon fill="#bfbfbf" stroke="black" points="201,-56.5 201,-75.5 363,-75.5 363,-56.5 201,-56.5"/>
<text text-anchor="middle" x="282" y="-63.5" font-family="Helvetica,sans-Serif" font-size="10.00">NFProxyServerNet_ClientPlugin.h</text>
</g>
<!-- Node36 -->
<g id="node2" class="node"><title>Node36</title>
<g id="a_node2"><a xlink:href="_n_f_c_proxy_server_to_game_module_8cpp.html" target="_top" xlink:title="NFCProxyServerToGameModule.cpp">
<polygon fill="white" stroke="black" points="0,-0.5 0,-19.5 176,-19.5 176,-0.5 0,-0.5"/>
<text text-anchor="middle" x="88" y="-7.5" font-family="Helvetica,sans-Serif" font-size="10.00">NFCProxyServerToGameModule.cpp</text>
</a>
</g>
</g>
<!-- Node35&#45;&gt;Node36 -->
<g id="edge1" class="edge"><title>Node35&#45;&gt;Node36</title>
<path fill="none" stroke="midnightblue" d="M241.399,-53.6986C204.785,-43.507 151.743,-28.7429 118.596,-19.5164"/>
<polygon fill="midnightblue" stroke="midnightblue" points="240.688,-57.1337 251.26,-56.4435 242.565,-50.3901 240.688,-57.1337"/>
</g>
<!-- Node37 -->
<g id="node3" class="node"><title>Node37</title>
<g id="a_node3"><a xlink:href="_n_f_c_proxy_server_to_world_module_8cpp.html" target="_top" xlink:title="NFCProxyServerToWorldModule.cpp">
<polygon fill="white" stroke="black" points="194.5,-0.5 194.5,-19.5 369.5,-19.5 369.5,-0.5 194.5,-0.5"/>
<text text-anchor="middle" x="282" y="-7.5" font-family="Helvetica,sans-Serif" font-size="10.00">NFCProxyServerToWorldModule.cpp</text>
</a>
</g>
</g>
<!-- Node35&#45;&gt;Node37 -->
<g id="edge2" class="edge"><title>Node35&#45;&gt;Node37</title>
<path fill="none" stroke="midnightblue" d="M282,-45.8045C282,-36.9102 282,-26.7798 282,-19.7511"/>
<polygon fill="midnightblue" stroke="midnightblue" points="278.5,-46.083 282,-56.083 285.5,-46.083 278.5,-46.083"/>
</g>
<!-- Node38 -->
<g id="node4" class="node"><title>Node38</title>
<g id="a_node4"><a xlink:href="_n_f_proxy_server_net___client_plugin_8cpp.html" target="_top" xlink:title="NFProxyServerNet_ClientPlugin.cpp">
<polygon fill="white" stroke="black" points="387.5,-0.5 387.5,-19.5 560.5,-19.5 560.5,-0.5 387.5,-0.5"/>
<text text-anchor="middle" x="474" y="-7.5" font-family="Helvetica,sans-Serif" font-size="10.00">NFProxyServerNet_ClientPlugin.cpp</text>
</a>
</g>
</g>
<!-- Node35&#45;&gt;Node38 -->
<g id="edge3" class="edge"><title>Node35&#45;&gt;Node38</title>
<path fill="none" stroke="midnightblue" d="M322.183,-53.6986C358.419,-43.507 410.914,-28.7429 443.719,-19.5164"/>
<polygon fill="midnightblue" stroke="midnightblue" points="321.102,-50.3667 312.423,-56.4435 322.997,-57.1053 321.102,-50.3667"/>
</g>
</g>
</svg>
