<?xml version="1.0" encoding="UTF-8" standalone="no"?>
<!DOCTYPE svg PUBLIC "-//W3C//DTD SVG 1.1//EN"
 "http://www.w3.org/Graphics/SVG/1.1/DTD/svg11.dtd">
<!-- Generated by graphviz version 2.38.0 (20140413.2041)
 -->
<!-- Title: NFIClassModule.h Pages: 1 -->
<!--zoomable 218 -->
<svg id="main" version="1.1" xmlns="http://www.w3.org/2000/svg" xmlns:xlink="http://www.w3.org/1999/xlink" xml:space="preserve" onload="init(evt)">
<style type="text/css"><![CDATA[
.edge:hover path { stroke: red; }
.edge:hover polygon { stroke: red; fill: red; }
]]></style>
<script type="text/javascript"><![CDATA[
var edges = document.getElementsByTagName('g');
if (edges && edges.length) {
  for (var i=0;i<edges.length;i++) {
    if (edges[i].id.substr(0,4)=='edge') {
      edges[i].setAttribute('class','edge');
    }
  }
}
]]></script>
        <defs>
                <circle id="rim" cx="0" cy="0" r="7"/>
                <circle id="rim2" cx="0" cy="0" r="3.5"/>
                <g id="zoomPlus">
                        <use xlink:href="#rim" fill="#404040">
                                <set attributeName="fill" to="#808080" begin="zoomplus.mouseover" end="zoomplus.mouseout"/>
                        </use>
                        <path d="M-4,0h8M0,-4v8" fill="none" stroke="white" stroke-width="1.5" pointer-events="none"/>
                </g>
                <g id="zoomMin">
                        <use xlink:href="#rim" fill="#404040">
                                <set attributeName="fill" to="#808080" begin="zoomminus.mouseover" end="zoomminus.mouseout"/>
                        </use>
                        <path d="M-4,0h8" fill="none" stroke="white" stroke-width="1.5" pointer-events="none"/>
                </g>
                <g id="dirArrow">
                        <path fill="none" stroke="white" stroke-width="1.5" d="M0,-3.0v7 M-2.5,-0.5L0,-3.0L2.5,-0.5"/>
                </g>
               <g id="resetDef">
                       <use xlink:href="#rim2" fill="#404040">
                               <set attributeName="fill" to="#808080" begin="reset.mouseover" end="reset.mouseout"/>
                       </use>
               </g>
        </defs>

<script type="text/javascript">
var viewWidth = 4892;
var viewHeight = 218;
var sectionId = 'dynsection-1';
</script>
<script xlink:href="svgpan.js"/>
<svg id="graph" class="graph">
<g id="viewport">
<title>NFIClassModule.h</title>
<polygon fill="white" stroke="none" points="-4,4 -4,-214 4887.5,-214 4887.5,4 -4,4"/>
<!-- Node38 -->
<g id="node1" class="node"><title>Node38</title>
<polygon fill="#bfbfbf" stroke="black" points="2425.5,-190.5 2425.5,-209.5 2521.5,-209.5 2521.5,-190.5 2425.5,-190.5"/>
<text text-anchor="middle" x="2473.5" y="-197.5" font-family="Helvetica,sans-Serif" font-size="10.00">NFIClassModule.h</text>
</g>
<!-- Node39 -->
<g id="node2" class="node"><title>Node39</title>
<g id="a_node2"><a xlink:href="_n_f_c_element_module_8h.html" target="_top" xlink:title="NFCElementModule.h">
<polygon fill="white" stroke="black" points="243.5,-129 243.5,-148 355.5,-148 355.5,-129 243.5,-129"/>
<text text-anchor="middle" x="299.5" y="-136" font-family="Helvetica,sans-Serif" font-size="10.00">NFCElementModule.h</text>
</a>
</g>
</g>
<!-- Node38&#45;&gt;Node39 -->
<g id="edge1" class="edge"><title>Node38&#45;&gt;Node39</title>
<path fill="none" stroke="midnightblue" d="M2415.2,-199.16C2174.15,-199.511 1231.74,-197.84 458.5,-154 424.322,-152.062 386.117,-148.62 355.723,-145.575"/>
<polygon fill="midnightblue" stroke="midnightblue" points="2415.49,-202.659 2425.48,-199.143 2415.48,-195.659 2415.49,-202.659"/>
</g>
<!-- Node40 -->
<g id="node3" class="node"><title>Node40</title>
<g id="a_node3"><a xlink:href="_n_f_c_class_module_8h.html" target="_top" xlink:title="NFCClassModule.h">
<polygon fill="white" stroke="black" points="140,-62 140,-81 241,-81 241,-62 140,-62"/>
<text text-anchor="middle" x="190.5" y="-69" font-family="Helvetica,sans-Serif" font-size="10.00">NFCClassModule.h</text>
</a>
</g>
</g>
<!-- Node38&#45;&gt;Node40 -->
<g id="edge8" class="edge"><title>Node38&#45;&gt;Node40</title>
<path fill="none" stroke="midnightblue" d="M2415.16,-198.634C2067.51,-196.356 282.423,-183.245 234.5,-154 207.598,-137.583 196.098,-98.5306 192.185,-81.1267"/>
<polygon fill="midnightblue" stroke="midnightblue" points="2415.24,-202.135 2425.26,-198.7 2415.28,-195.135 2415.24,-202.135"/>
</g>
<!-- Node44 -->
<g id="node7" class="node"><title>Node44</title>
<g id="a_node7"><a xlink:href="_n_f_c_kernel_module_8h.html" target="_top" xlink:title="NFCKernelModule.h">
<polygon fill="white" stroke="black" points="467.5,-129 467.5,-148 571.5,-148 571.5,-129 467.5,-129"/>
<text text-anchor="middle" x="519.5" y="-136" font-family="Helvetica,sans-Serif" font-size="10.00">NFCKernelModule.h</text>
</a>
</g>
</g>
<!-- Node38&#45;&gt;Node44 -->
<g id="edge9" class="edge"><title>Node38&#45;&gt;Node44</title>
<path fill="none" stroke="midnightblue" d="M2415.09,-198.071C2198.38,-194.493 1419.85,-180.461 778.5,-154 706.729,-151.039 623.851,-146.139 571.567,-142.865"/>
<polygon fill="midnightblue" stroke="midnightblue" points="2415.23,-201.574 2425.28,-198.239 2415.34,-194.575 2415.23,-201.574"/>
</g>
<!-- Node47 -->
<g id="node10" class="node"><title>Node47</title>
<g id="a_node10"><a xlink:href="_n_f_c_game_server_to_world_module_8h.html" target="_top" xlink:title="NFCGameServerToWorldModule.h">
<polygon fill="white" stroke="black" points="788,-129 788,-148 953,-148 953,-129 788,-129"/>
<text text-anchor="middle" x="870.5" y="-136" font-family="Helvetica,sans-Serif" font-size="10.00">NFCGameServerToWorldModule.h</text>
</a>
</g>
</g>
<!-- Node38&#45;&gt;Node47 -->
<g id="edge12" class="edge"><title>Node38&#45;&gt;Node47</title>
<path fill="none" stroke="midnightblue" d="M2415.09,-197.264C2231.81,-191.757 1651.71,-173.864 1171.5,-154 1097.66,-150.946 1013.67,-146.848 953.21,-143.787"/>
<polygon fill="midnightblue" stroke="midnightblue" points="2415.21,-200.769 2425.31,-197.571 2415.42,-193.773 2415.21,-200.769"/>
</g>
<!-- Node50 -->
<g id="node13" class="node"><title>Node50</title>
<g id="a_node13"><a xlink:href="_n_f_c_game_server_net___server_module_8h.html" target="_top" xlink:title="NFCGameServerNet_ServerModule.h">
<polygon fill="white" stroke="black" points="1180.5,-129 1180.5,-148 1356.5,-148 1356.5,-129 1180.5,-129"/>
<text text-anchor="middle" x="1268.5" y="-136" font-family="Helvetica,sans-Serif" font-size="10.00">NFCGameServerNet_ServerModule.h</text>
</a>
</g>
</g>
<!-- Node38&#45;&gt;Node50 -->
<g id="edge15" class="edge"><title>Node38&#45;&gt;Node50</title>
<path fill="none" stroke="midnightblue" d="M2415.11,-196.311C2267.87,-189.504 1869.51,-170.929 1537.5,-154 1477.13,-150.922 1409.15,-147.256 1356.63,-144.38"/>
<polygon fill="midnightblue" stroke="midnightblue" points="2415.12,-199.815 2425.27,-196.78 2415.44,-192.822 2415.12,-199.815"/>
</g>
<!-- Node53 -->
<g id="node16" class="node"><title>Node53</title>
<g id="a_node16"><a xlink:href="_n_f_c_game_server_module_8h.html" target="_top" xlink:title="NFCGameServerModule.h">
<polygon fill="white" stroke="black" points="1547,-129 1547,-148 1676,-148 1676,-129 1547,-129"/>
<text text-anchor="middle" x="1611.5" y="-136" font-family="Helvetica,sans-Serif" font-size="10.00">NFCGameServerModule.h</text>
</a>
</g>
</g>
<!-- Node38&#45;&gt;Node53 -->
<g id="edge18" class="edge"><title>Node38&#45;&gt;Node53</title>
<path fill="none" stroke="midnightblue" d="M2415.11,-198.386C2284.09,-196.413 1956.86,-188.172 1685.5,-154 1673.81,-152.528 1661.19,-150.299 1649.75,-148.027"/>
<polygon fill="midnightblue" stroke="midnightblue" points="2415.27,-201.888 2425.32,-198.533 2415.37,-194.889 2415.27,-201.888"/>
</g>
<!-- Node56 -->
<g id="node19" class="node"><title>Node56</title>
<g id="a_node19"><a xlink:href="_n_f_c_property_config_module_8h.html" target="_top" xlink:title="NFCPropertyConfigModule.h">
<polygon fill="white" stroke="black" points="1694.5,-129 1694.5,-148 1834.5,-148 1834.5,-129 1694.5,-129"/>
<text text-anchor="middle" x="1764.5" y="-136" font-family="Helvetica,sans-Serif" font-size="10.00">NFCPropertyConfigModule.h</text>
</a>
</g>
</g>
<!-- Node38&#45;&gt;Node56 -->
<g id="edge21" class="edge"><title>Node38&#45;&gt;Node56</title>
<path fill="none" stroke="midnightblue" d="M2415.08,-196.979C2303.58,-192.646 2052.89,-180.612 1843.5,-154 1831.33,-152.453 1818.19,-150.256 1806.19,-148.039"/>
<polygon fill="midnightblue" stroke="midnightblue" points="2414.98,-200.478 2425.11,-197.363 2415.25,-193.483 2414.98,-200.478"/>
</g>
<!-- Node58 -->
<g id="node21" class="node"><title>Node58</title>
<g id="a_node21"><a xlink:href="_n_f_c_property_module_8h.html" target="_top" xlink:title="NFCPropertyModule.h">
<polygon fill="white" stroke="black" points="1853,-129 1853,-148 1966,-148 1966,-129 1853,-129"/>
<text text-anchor="middle" x="1909.5" y="-136" font-family="Helvetica,sans-Serif" font-size="10.00">NFCPropertyModule.h</text>
</a>
</g>
</g>
<!-- Node38&#45;&gt;Node58 -->
<g id="edge24" class="edge"><title>Node38&#45;&gt;Node58</title>
<path fill="none" stroke="midnightblue" d="M2415.22,-195.514C2323.33,-189.596 2139.32,-176.035 1984.5,-154 1973.21,-152.393 1961.04,-150.229 1949.86,-148.064"/>
<polygon fill="midnightblue" stroke="midnightblue" points="2415.22,-199.021 2425.42,-196.164 2415.67,-192.035 2415.22,-199.021"/>
</g>
<!-- Node60 -->
<g id="node23" class="node"><title>Node60</title>
<g id="a_node23"><a xlink:href="_n_f_c_property_trail_module_8h.html" target="_top" xlink:title="NFCPropertyTrailModule.h">
<polygon fill="white" stroke="black" points="2167,-129 2167,-148 2298,-148 2298,-129 2167,-129"/>
<text text-anchor="middle" x="2232.5" y="-136" font-family="Helvetica,sans-Serif" font-size="10.00">NFCPropertyTrailModule.h</text>
</a>
</g>
</g>
<!-- Node38&#45;&gt;Node60 -->
<g id="edge27" class="edge"><title>Node38&#45;&gt;Node60</title>
<path fill="none" stroke="midnightblue" d="M2429.11,-188.041C2382.32,-176.49 2309.62,-158.539 2266.97,-148.009"/>
<polygon fill="midnightblue" stroke="midnightblue" points="2428.42,-191.476 2438.97,-190.475 2430.1,-184.68 2428.42,-191.476"/>
</g>
<!-- Node62 -->
<g id="node25" class="node"><title>Node62</title>
<g id="a_node25"><a xlink:href="_n_f_c_scene_process_module_8h.html" target="_top" xlink:title="NFCSceneProcessModule.h">
<polygon fill="white" stroke="black" points="1993.5,-129 1993.5,-148 2133.5,-148 2133.5,-129 1993.5,-129"/>
<text text-anchor="middle" x="2063.5" y="-136" font-family="Helvetica,sans-Serif" font-size="10.00">NFCSceneProcessModule.h</text>
</a>
</g>
</g>
<!-- Node38&#45;&gt;Node62 -->
<g id="edge29" class="edge"><title>Node38&#45;&gt;Node62</title>
<path fill="none" stroke="midnightblue" d="M2415.09,-190.888C2351.64,-182.03 2247.33,-167.324 2157.5,-154 2144.76,-152.11 2131.06,-150.026 2118.16,-148.041"/>
<polygon fill="midnightblue" stroke="midnightblue" points="2414.9,-194.397 2425.29,-192.312 2415.87,-187.464 2414.9,-194.397"/>
</g>
<!-- Node64 -->
<g id="node27" class="node"><title>Node64</title>
<g id="a_node27"><a xlink:href="_n_f_c_login_to_master_module_8h.html" target="_top" xlink:title="NFCLoginToMasterModule.h">
<polygon fill="white" stroke="black" points="2403.5,-129 2403.5,-148 2543.5,-148 2543.5,-129 2403.5,-129"/>
<text text-anchor="middle" x="2473.5" y="-136" font-family="Helvetica,sans-Serif" font-size="10.00">NFCLoginToMasterModule.h</text>
</a>
</g>
</g>
<!-- Node38&#45;&gt;Node64 -->
<g id="edge32" class="edge"><title>Node38&#45;&gt;Node64</title>
<path fill="none" stroke="midnightblue" d="M2473.5,-180.317C2473.5,-169.496 2473.5,-156.398 2473.5,-148.009"/>
<polygon fill="midnightblue" stroke="midnightblue" points="2470,-180.475 2473.5,-190.475 2477,-180.475 2470,-180.475"/>
</g>
<!-- Node67 -->
<g id="node30" class="node"><title>Node67</title>
<g id="a_node30"><a xlink:href="_n_f_c_login_net___server_module_8h.html" target="_top" xlink:title="NFCLoginNet_ServerModule.h">
<polygon fill="white" stroke="black" points="2651.5,-129 2651.5,-148 2797.5,-148 2797.5,-129 2651.5,-129"/>
<text text-anchor="middle" x="2724.5" y="-136" font-family="Helvetica,sans-Serif" font-size="10.00">NFCLoginNet_ServerModule.h</text>
</a>
</g>
</g>
<!-- Node38&#45;&gt;Node67 -->
<g id="edge35" class="edge"><title>Node38&#45;&gt;Node67</title>
<path fill="none" stroke="midnightblue" d="M2519.42,-188.114C2568.14,-176.565 2644.09,-158.561 2688.6,-148.009"/>
<polygon fill="midnightblue" stroke="midnightblue" points="2518.39,-184.763 2509.46,-190.475 2520,-191.574 2518.39,-184.763"/>
</g>
<!-- Node70 -->
<g id="node33" class="node"><title>Node70</title>
<g id="a_node33"><a xlink:href="_n_f_c_master_net___server_module_8h.html" target="_top" xlink:title="NFCMasterNet_ServerModule.h">
<polygon fill="white" stroke="black" points="2991,-129 2991,-148 3144,-148 3144,-129 2991,-129"/>
<text text-anchor="middle" x="3067.5" y="-136" font-family="Helvetica,sans-Serif" font-size="10.00">NFCMasterNet_ServerModule.h</text>
</a>
</g>
</g>
<!-- Node38&#45;&gt;Node70 -->
<g id="edge38" class="edge"><title>Node38&#45;&gt;Node70</title>
<path fill="none" stroke="midnightblue" d="M2531.65,-193.175C2639.51,-182.371 2870.5,-159.233 2990.92,-147.171"/>
<polygon fill="midnightblue" stroke="midnightblue" points="2531.21,-189.702 2521.61,-194.181 2531.91,-196.667 2531.21,-189.702"/>
</g>
<!-- Node73 -->
<g id="node36" class="node"><title>Node73</title>
<g id="a_node36"><a xlink:href="_n_f_c_proxy_logic_module_8h.html" target="_top" xlink:title="NFCProxyLogicModule.h">
<polygon fill="white" stroke="black" points="3343,-129 3343,-148 3468,-148 3468,-129 3343,-129"/>
<text text-anchor="middle" x="3405.5" y="-136" font-family="Helvetica,sans-Serif" font-size="10.00">NFCProxyLogicModule.h</text>
</a>
</g>
</g>
<!-- Node38&#45;&gt;Node73 -->
<g id="edge41" class="edge"><title>Node38&#45;&gt;Node73</title>
<path fill="none" stroke="midnightblue" d="M2531.65,-195.288C2697.44,-184.703 3171.55,-154.436 3342.82,-143.502"/>
<polygon fill="midnightblue" stroke="midnightblue" points="2531.4,-191.796 2521.65,-195.926 2531.85,-198.782 2531.4,-191.796"/>
</g>
<!-- Node76 -->
<g id="node39" class="node"><title>Node76</title>
<g id="a_node39"><a xlink:href="_n_f_c_proxy_server_to_game_module_8h.html" target="_top" xlink:title="NFCProxyServerToGameModule.h">
<polygon fill="white" stroke="black" points="3646,-129 3646,-148 3811,-148 3811,-129 3646,-129"/>
<text text-anchor="middle" x="3728.5" y="-136" font-family="Helvetica,sans-Serif" font-size="10.00">NFCProxyServerToGameModule.h</text>
</a>
</g>
</g>
<!-- Node38&#45;&gt;Node76 -->
<g id="edge44" class="edge"><title>Node38&#45;&gt;Node76</title>
<path fill="none" stroke="midnightblue" d="M2532.01,-197.64C2696.01,-193.605 3174.09,-180.303 3570.5,-154 3594.96,-152.377 3621.51,-150.13 3645.74,-147.889"/>
<polygon fill="midnightblue" stroke="midnightblue" points="2531.58,-194.15 2521.66,-197.893 2531.75,-201.148 2531.58,-194.15"/>
</g>
<!-- Node77 -->
<g id="node40" class="node"><title>Node77</title>
<g id="a_node40"><a xlink:href="_n_f_c_proxy_server_to_game_module_8cpp.html" target="_top" xlink:title="NFCProxyServerToGameModule.cpp">
<polygon fill="white" stroke="black" points="3640.5,-62 3640.5,-81 3816.5,-81 3816.5,-62 3640.5,-62"/>
<text text-anchor="middle" x="3728.5" y="-69" font-family="Helvetica,sans-Serif" font-size="10.00">NFCProxyServerToGameModule.cpp</text>
</a>
</g>
</g>
<!-- Node38&#45;&gt;Node77 -->
<g id="edge47" class="edge"><title>Node38&#45;&gt;Node77</title>
<path fill="none" stroke="midnightblue" d="M2531.89,-198.43C2717.62,-196.295 3293.32,-187.109 3476.5,-154 3565.41,-137.929 3666.3,-98.5119 3708.4,-81.057"/>
<polygon fill="midnightblue" stroke="midnightblue" points="2531.74,-194.931 2521.78,-198.544 2531.81,-201.931 2531.74,-194.931"/>
</g>
<!-- Node79 -->
<g id="node42" class="node"><title>Node79</title>
<g id="a_node42"><a xlink:href="_n_f_c_proxy_server_to_world_module_8h.html" target="_top" xlink:title="NFCProxyServerToWorldModule.h">
<polygon fill="white" stroke="black" points="3839.5,-129 3839.5,-148 4003.5,-148 4003.5,-129 3839.5,-129"/>
<text text-anchor="middle" x="3921.5" y="-136" font-family="Helvetica,sans-Serif" font-size="10.00">NFCProxyServerToWorldModule.h</text>
</a>
</g>
</g>
<!-- Node38&#45;&gt;Node79 -->
<g id="edge48" class="edge"><title>Node38&#45;&gt;Node79</title>
<path fill="none" stroke="midnightblue" d="M2531.77,-199.291C2719.1,-199.749 3322.58,-197.499 3819.5,-154 3835.71,-152.581 3853.29,-150.338 3869.21,-148.037"/>
<polygon fill="midnightblue" stroke="midnightblue" points="2531.61,-195.791 2521.6,-199.263 2531.59,-202.791 2531.61,-195.791"/>
</g>
<!-- Node80 -->
<g id="node43" class="node"><title>Node80</title>
<g id="a_node43"><a xlink:href="_n_f_c_proxy_server_to_world_module_8cpp.html" target="_top" xlink:title="NFCProxyServerToWorldModule.cpp">
<polygon fill="white" stroke="black" points="4026,-62 4026,-81 4201,-81 4201,-62 4026,-62"/>
<text text-anchor="middle" x="4113.5" y="-69" font-family="Helvetica,sans-Serif" font-size="10.00">NFCProxyServerToWorldModule.cpp</text>
</a>
</g>
</g>
<!-- Node38&#45;&gt;Node80 -->
<g id="edge51" class="edge"><title>Node38&#45;&gt;Node80</title>
<path fill="none" stroke="midnightblue" d="M2531.8,-198.337C2804.27,-195.105 3941.91,-180.094 4012.5,-154 4054.13,-138.609 4091.5,-98.6433 4106.51,-81.039"/>
<polygon fill="midnightblue" stroke="midnightblue" points="2531.68,-194.838 2521.72,-198.456 2531.76,-201.837 2531.68,-194.838"/>
</g>
<!-- Node81 -->
<g id="node44" class="node"><title>Node81</title>
<g id="a_node44"><a xlink:href="_n_f_c_proxy_server_net___server_module_8h.html" target="_top" xlink:title="NFCProxyServerNet_Server\lModule.h">
<polygon fill="white" stroke="black" points="4219.5,-123.5 4219.5,-153.5 4355.5,-153.5 4355.5,-123.5 4219.5,-123.5"/>
<text text-anchor="start" x="4227.5" y="-141.5" font-family="Helvetica,sans-Serif" font-size="10.00">NFCProxyServerNet_Server</text>
<text text-anchor="middle" x="4287.5" y="-130.5" font-family="Helvetica,sans-Serif" font-size="10.00">Module.h</text>
</a>
</g>
</g>
<!-- Node38&#45;&gt;Node81 -->
<g id="edge52" class="edge"><title>Node38&#45;&gt;Node81</title>
<path fill="none" stroke="midnightblue" d="M2531.88,-198.302C2741.95,-195.591 3479.11,-184.366 4086.5,-154 4130.7,-151.79 4180.3,-148.224 4219.17,-145.181"/>
<polygon fill="midnightblue" stroke="midnightblue" points="2531.65,-194.804 2521.69,-198.432 2531.74,-201.804 2531.65,-194.804"/>
</g>
<!-- Node84 -->
<g id="node47" class="node"><title>Node84</title>
<g id="a_node47"><a xlink:href="_n_f_c_world_to_master_module_8h.html" target="_top" xlink:title="NFCWorldToMasterModule.h">
<polygon fill="white" stroke="black" points="4472.5,-129 4472.5,-148 4614.5,-148 4614.5,-129 4472.5,-129"/>
<text text-anchor="middle" x="4543.5" y="-136" font-family="Helvetica,sans-Serif" font-size="10.00">NFCWorldToMasterModule.h</text>
</a>
</g>
</g>
<!-- Node38&#45;&gt;Node84 -->
<g id="edge55" class="edge"><title>Node38&#45;&gt;Node84</title>
<path fill="none" stroke="midnightblue" d="M2532,-198.823C2764.1,-197.864 3642.64,-191.795 4364.5,-154 4399.99,-152.142 4439.37,-149.063 4472.14,-146.219"/>
<polygon fill="midnightblue" stroke="midnightblue" points="2531.74,-195.324 2521.75,-198.864 2531.77,-202.324 2531.74,-195.324"/>
</g>
<!-- Node87 -->
<g id="node50" class="node"><title>Node87</title>
<g id="a_node50"><a xlink:href="_n_f_c_world_net___server_module_8h.html" target="_top" xlink:title="NFCWorldNet_ServerModule.h">
<polygon fill="white" stroke="red" points="4633,-129 4633,-148 4782,-148 4782,-129 4633,-129"/>
<text text-anchor="middle" x="4707.5" y="-136" font-family="Helvetica,sans-Serif" font-size="10.00">NFCWorldNet_ServerModule.h</text>
</a>
</g>
</g>
<!-- Node38&#45;&gt;Node87 -->
<g id="edge58" class="edge"><title>Node38&#45;&gt;Node87</title>
<path fill="none" stroke="midnightblue" d="M2532.07,-198.963C2832.3,-198.593 4200.91,-194.665 4623.5,-154 4637.2,-152.682 4652.03,-150.408 4665.36,-148.046"/>
<polygon fill="midnightblue" stroke="midnightblue" points="2531.84,-195.463 2521.85,-198.975 2531.85,-202.463 2531.84,-195.463"/>
</g>
<!-- Node39&#45;&gt;Node40 -->
<g id="edge2" class="edge"><title>Node39&#45;&gt;Node40</title>
<path fill="none" stroke="midnightblue" d="M275.926,-123.442C254.34,-110.57 223.078,-91.9274 204.967,-81.1273"/>
<polygon fill="midnightblue" stroke="midnightblue" points="274.418,-126.618 284.8,-128.734 278.004,-120.606 274.418,-126.618"/>
</g>
<!-- Node42 -->
<g id="node5" class="node"><title>Node42</title>
<g id="a_node5"><a xlink:href="_n_f_c_element_module_8cpp.html" target="_top" xlink:title="NFCElementModule.cpp">
<polygon fill="white" stroke="black" points="129.5,-0.5 129.5,-19.5 251.5,-19.5 251.5,-0.5 129.5,-0.5"/>
<text text-anchor="middle" x="190.5" y="-7.5" font-family="Helvetica,sans-Serif" font-size="10.00">NFCElementModule.cpp</text>
</a>
</g>
</g>
<!-- Node39&#45;&gt;Node42 -->
<g id="edge6" class="edge"><title>Node39&#45;&gt;Node42</title>
<path fill="none" stroke="midnightblue" d="M291.136,-119.917C282.322,-102.503 267.268,-75.666 249.5,-56 236.2,-41.2796 217.551,-27.9852 204.801,-19.7281"/>
<polygon fill="midnightblue" stroke="midnightblue" points="288.026,-121.524 295.578,-128.956 294.308,-118.437 288.026,-121.524"/>
</g>
<!-- Node43 -->
<g id="node6" class="node"><title>Node43</title>
<g id="a_node6"><a xlink:href="_n_f_config_plugin_8cpp.html" target="_top" xlink:title="NFConfigPlugin.cpp">
<polygon fill="white" stroke="black" points="269.5,-0.5 269.5,-19.5 371.5,-19.5 371.5,-0.5 269.5,-0.5"/>
<text text-anchor="middle" x="320.5" y="-7.5" font-family="Helvetica,sans-Serif" font-size="10.00">NFConfigPlugin.cpp</text>
</a>
</g>
</g>
<!-- Node39&#45;&gt;Node43 -->
<g id="edge7" class="edge"><title>Node39&#45;&gt;Node43</title>
<path fill="none" stroke="midnightblue" d="M302.603,-118.806C307.207,-91.0761 315.665,-40.1279 319.046,-19.7557"/>
<polygon fill="midnightblue" stroke="midnightblue" points="299.128,-118.367 300.943,-128.805 306.034,-119.513 299.128,-118.367"/>
</g>
<!-- Node41 -->
<g id="node4" class="node"><title>Node41</title>
<g id="a_node4"><a xlink:href="_n_f_c_class_module_8cpp.html" target="_top" xlink:title="NFCClassModule.cpp">
<polygon fill="white" stroke="black" points="0,-0.5 0,-19.5 111,-19.5 111,-0.5 0,-0.5"/>
<text text-anchor="middle" x="55.5" y="-7.5" font-family="Helvetica,sans-Serif" font-size="10.00">NFCClassModule.cpp</text>
</a>
</g>
</g>
<!-- Node40&#45;&gt;Node41 -->
<g id="edge3" class="edge"><title>Node40&#45;&gt;Node41</title>
<path fill="none" stroke="midnightblue" d="M161.747,-57.8272C135.538,-46.2761 97.5466,-29.5316 74.8063,-19.5091"/>
<polygon fill="midnightblue" stroke="midnightblue" points="160.596,-61.1447 171.158,-61.9751 163.419,-54.7392 160.596,-61.1447"/>
</g>
<!-- Node40&#45;&gt;Node42 -->
<g id="edge4" class="edge"><title>Node40&#45;&gt;Node42</title>
<path fill="none" stroke="midnightblue" d="M190.5,-51.8165C190.5,-40.9962 190.5,-27.898 190.5,-19.5091"/>
<polygon fill="midnightblue" stroke="midnightblue" points="187,-51.9751 190.5,-61.9751 194,-51.9751 187,-51.9751"/>
</g>
<!-- Node40&#45;&gt;Node43 -->
<g id="edge5" class="edge"><title>Node40&#45;&gt;Node43</title>
<path fill="none" stroke="midnightblue" d="M218.523,-57.6742C243.748,-46.1287 280.107,-29.4875 301.909,-19.5091"/>
<polygon fill="midnightblue" stroke="midnightblue" points="216.762,-54.6308 209.126,-61.9751 219.675,-60.9958 216.762,-54.6308"/>
</g>
<!-- Node45 -->
<g id="node8" class="node"><title>Node45</title>
<g id="a_node8"><a xlink:href="_n_f_c_kernel_module_8cpp.html" target="_top" xlink:title="NFCKernelModule.cpp">
<polygon fill="white" stroke="black" points="335.5,-62 335.5,-81 449.5,-81 449.5,-62 335.5,-62"/>
<text text-anchor="middle" x="392.5" y="-69" font-family="Helvetica,sans-Serif" font-size="10.00">NFCKernelModule.cpp</text>
</a>
</g>
</g>
<!-- Node44&#45;&gt;Node45 -->
<g id="edge10" class="edge"><title>Node44&#45;&gt;Node45</title>
<path fill="none" stroke="midnightblue" d="M493.658,-124.274C468.504,-111.4 431.008,-92.2086 409.434,-81.1672"/>
<polygon fill="midnightblue" stroke="midnightblue" points="492.139,-127.428 502.635,-128.869 495.328,-121.197 492.139,-127.428"/>
</g>
<!-- Node46 -->
<g id="node9" class="node"><title>Node46</title>
<g id="a_node9"><a xlink:href="_n_f_kernel_plugin_8cpp.html" target="_top" xlink:title="NFKernelPlugin.cpp">
<polygon fill="white" stroke="black" points="468,-62 468,-81 571,-81 571,-62 468,-62"/>
<text text-anchor="middle" x="519.5" y="-69" font-family="Helvetica,sans-Serif" font-size="10.00">NFKernelPlugin.cpp</text>
</a>
</g>
</g>
<!-- Node44&#45;&gt;Node46 -->
<g id="edge11" class="edge"><title>Node44&#45;&gt;Node46</title>
<path fill="none" stroke="midnightblue" d="M519.5,-118.537C519.5,-106.17 519.5,-90.6198 519.5,-81.1273"/>
<polygon fill="midnightblue" stroke="midnightblue" points="516,-118.734 519.5,-128.734 523,-118.734 516,-118.734"/>
</g>
<!-- Node48 -->
<g id="node11" class="node"><title>Node48</title>
<g id="a_node11"><a xlink:href="_n_f_c_game_server_to_world_module_8cpp.html" target="_top" xlink:title="NFCGameServerToWorldModule.cpp">
<polygon fill="white" stroke="black" points="589.5,-62 589.5,-81 765.5,-81 765.5,-62 589.5,-62"/>
<text text-anchor="middle" x="677.5" y="-69" font-family="Helvetica,sans-Serif" font-size="10.00">NFCGameServerToWorldModule.cpp</text>
</a>
</g>
</g>
<!-- Node47&#45;&gt;Node48 -->
<g id="edge13" class="edge"><title>Node47&#45;&gt;Node48</title>
<path fill="none" stroke="midnightblue" d="M835.17,-125.601C796.904,-112.714 736.804,-92.4728 702.928,-81.0637"/>
<polygon fill="midnightblue" stroke="midnightblue" points="834.277,-128.994 844.871,-128.869 836.511,-122.36 834.277,-128.994"/>
</g>
<!-- Node49 -->
<g id="node12" class="node"><title>Node49</title>
<g id="a_node12"><a xlink:href="_n_f_game_server_net___client_plugin_8cpp.html" target="_top" xlink:title="NFGameServerNet_ClientPlugin.cpp">
<polygon fill="white" stroke="black" points="784,-62 784,-81 957,-81 957,-62 784,-62"/>
<text text-anchor="middle" x="870.5" y="-69" font-family="Helvetica,sans-Serif" font-size="10.00">NFGameServerNet_ClientPlugin.cpp</text>
</a>
</g>
</g>
<!-- Node47&#45;&gt;Node49 -->
<g id="edge14" class="edge"><title>Node47&#45;&gt;Node49</title>
<path fill="none" stroke="midnightblue" d="M870.5,-118.537C870.5,-106.17 870.5,-90.6198 870.5,-81.1273"/>
<polygon fill="midnightblue" stroke="midnightblue" points="867,-118.734 870.5,-128.734 874,-118.734 867,-118.734"/>
</g>
<!-- Node51 -->
<g id="node14" class="node"><title>Node51</title>
<g id="a_node14"><a xlink:href="_n_f_c_game_server_net___server_module_8cpp.html" target="_top" xlink:title="NFCGameServerNet_ServerModule.cpp">
<polygon fill="white" stroke="black" points="975,-62 975,-81 1162,-81 1162,-62 975,-62"/>
<text text-anchor="middle" x="1068.5" y="-69" font-family="Helvetica,sans-Serif" font-size="10.00">NFCGameServerNet_ServerModule.cpp</text>
</a>
</g>
</g>
<!-- Node50&#45;&gt;Node51 -->
<g id="edge16" class="edge"><title>Node50&#45;&gt;Node51</title>
<path fill="none" stroke="midnightblue" d="M1232.39,-125.765C1192.77,-112.886 1130.1,-92.5214 1094.85,-81.0637"/>
<polygon fill="midnightblue" stroke="midnightblue" points="1231.35,-129.106 1241.94,-128.869 1233.51,-122.449 1231.35,-129.106"/>
</g>
<!-- Node52 -->
<g id="node15" class="node"><title>Node52</title>
<g id="a_node15"><a xlink:href="_n_f_game_server_net___server_plugin_8cpp.html" target="_top" xlink:title="NFGameServerNet_ServerPlugin.cpp">
<polygon fill="white" stroke="black" points="1180.5,-62 1180.5,-81 1356.5,-81 1356.5,-62 1180.5,-62"/>
<text text-anchor="middle" x="1268.5" y="-69" font-family="Helvetica,sans-Serif" font-size="10.00">NFGameServerNet_ServerPlugin.cpp</text>
</a>
</g>
</g>
<!-- Node50&#45;&gt;Node52 -->
<g id="edge17" class="edge"><title>Node50&#45;&gt;Node52</title>
<path fill="none" stroke="midnightblue" d="M1268.5,-118.537C1268.5,-106.17 1268.5,-90.6198 1268.5,-81.1273"/>
<polygon fill="midnightblue" stroke="midnightblue" points="1265,-118.734 1268.5,-128.734 1272,-118.734 1265,-118.734"/>
</g>
<!-- Node54 -->
<g id="node17" class="node"><title>Node54</title>
<g id="a_node17"><a xlink:href="_n_f_c_game_server_module_8cpp.html" target="_top" xlink:title="NFCGameServerModule.cpp">
<polygon fill="white" stroke="black" points="1374.5,-62 1374.5,-81 1514.5,-81 1514.5,-62 1374.5,-62"/>
<text text-anchor="middle" x="1444.5" y="-69" font-family="Helvetica,sans-Serif" font-size="10.00">NFCGameServerModule.cpp</text>
</a>
</g>
</g>
<!-- Node53&#45;&gt;Node54 -->
<g id="edge19" class="edge"><title>Node53&#45;&gt;Node54</title>
<path fill="none" stroke="midnightblue" d="M1579.65,-125.104C1546.49,-112.198 1495.44,-92.3272 1466.5,-81.0637"/>
<polygon fill="midnightblue" stroke="midnightblue" points="1578.74,-128.503 1589.32,-128.869 1581.27,-121.98 1578.74,-128.503"/>
</g>
<!-- Node55 -->
<g id="node18" class="node"><title>Node55</title>
<g id="a_node18"><a xlink:href="_n_f_game_server_plugin_8cpp.html" target="_top" xlink:title="NFGameServerPlugin.cpp">
<polygon fill="white" stroke="black" points="1700.5,-62 1700.5,-81 1828.5,-81 1828.5,-62 1700.5,-62"/>
<text text-anchor="middle" x="1764.5" y="-69" font-family="Helvetica,sans-Serif" font-size="10.00">NFGameServerPlugin.cpp</text>
</a>
</g>
</g>
<!-- Node53&#45;&gt;Node55 -->
<g id="edge20" class="edge"><title>Node53&#45;&gt;Node55</title>
<path fill="none" stroke="midnightblue" d="M1641.04,-124.948C1671.34,-112.079 1717.65,-92.4032 1744.1,-81.1672"/>
<polygon fill="midnightblue" stroke="midnightblue" points="1639.65,-121.737 1631.82,-128.869 1642.39,-128.18 1639.65,-121.737"/>
</g>
<!-- Node56&#45;&gt;Node55 -->
<g id="edge23" class="edge"><title>Node56&#45;&gt;Node55</title>
<path fill="none" stroke="midnightblue" d="M1764.5,-118.537C1764.5,-106.17 1764.5,-90.6198 1764.5,-81.1273"/>
<polygon fill="midnightblue" stroke="midnightblue" points="1761,-118.734 1764.5,-128.734 1768,-118.734 1761,-118.734"/>
</g>
<!-- Node57 -->
<g id="node20" class="node"><title>Node57</title>
<g id="a_node20"><a xlink:href="_n_f_c_property_config_module_8cpp.html" target="_top" xlink:title="NFCPropertyConfigModule.cpp">
<polygon fill="white" stroke="black" points="1532.5,-62 1532.5,-81 1682.5,-81 1682.5,-62 1532.5,-62"/>
<text text-anchor="middle" x="1607.5" y="-69" font-family="Helvetica,sans-Serif" font-size="10.00">NFCPropertyConfigModule.cpp</text>
</a>
</g>
</g>
<!-- Node56&#45;&gt;Node57 -->
<g id="edge22" class="edge"><title>Node56&#45;&gt;Node57</title>
<path fill="none" stroke="midnightblue" d="M1734.18,-124.948C1703.1,-112.079 1655.57,-92.4032 1628.43,-81.1672"/>
<polygon fill="midnightblue" stroke="midnightblue" points="1733.07,-128.277 1743.65,-128.869 1735.75,-121.809 1733.07,-128.277"/>
</g>
<!-- Node58&#45;&gt;Node55 -->
<g id="edge26" class="edge"><title>Node58&#45;&gt;Node55</title>
<path fill="none" stroke="midnightblue" d="M1880.75,-124.613C1852.03,-111.739 1808.68,-92.3059 1783.83,-81.1672"/>
<polygon fill="midnightblue" stroke="midnightblue" points="1879.69,-127.972 1890.25,-128.869 1882.55,-121.584 1879.69,-127.972"/>
</g>
<!-- Node59 -->
<g id="node22" class="node"><title>Node59</title>
<g id="a_node22"><a xlink:href="_n_f_c_property_module_8cpp.html" target="_top" xlink:title="NFCPropertyModule.cpp">
<polygon fill="white" stroke="black" points="1847,-62 1847,-81 1970,-81 1970,-62 1847,-62"/>
<text text-anchor="middle" x="1908.5" y="-69" font-family="Helvetica,sans-Serif" font-size="10.00">NFCPropertyModule.cpp</text>
</a>
</g>
</g>
<!-- Node58&#45;&gt;Node59 -->
<g id="edge25" class="edge"><title>Node58&#45;&gt;Node59</title>
<path fill="none" stroke="midnightblue" d="M1909.21,-118.537C1909.02,-106.17 1908.78,-90.6198 1908.63,-81.1273"/>
<polygon fill="midnightblue" stroke="midnightblue" points="1905.71,-118.789 1909.37,-128.734 1912.71,-118.681 1905.71,-118.789"/>
</g>
<!-- Node61 -->
<g id="node24" class="node"><title>Node61</title>
<g id="a_node24"><a xlink:href="_n_f_c_property_trail_module_8cpp.html" target="_top" xlink:title="NFCPropertyTrailModule.cpp">
<polygon fill="white" stroke="black" points="2157,-62 2157,-81 2298,-81 2298,-62 2157,-62"/>
<text text-anchor="middle" x="2227.5" y="-69" font-family="Helvetica,sans-Serif" font-size="10.00">NFCPropertyTrailModule.cpp</text>
</a>
</g>
</g>
<!-- Node60&#45;&gt;Node61 -->
<g id="edge28" class="edge"><title>Node60&#45;&gt;Node61</title>
<path fill="none" stroke="midnightblue" d="M2231.04,-118.537C2230.09,-106.17 2228.89,-90.6198 2228.16,-81.1273"/>
<polygon fill="midnightblue" stroke="midnightblue" points="2227.57,-119.032 2231.83,-128.734 2234.55,-118.495 2227.57,-119.032"/>
</g>
<!-- Node62&#45;&gt;Node55 -->
<g id="edge31" class="edge"><title>Node62&#45;&gt;Node55</title>
<path fill="none" stroke="midnightblue" d="M2014.29,-126.803C1955.45,-114.012 1858.15,-92.8578 1803.98,-81.0834"/>
<polygon fill="midnightblue" stroke="midnightblue" points="2013.59,-130.231 2024.1,-128.936 2015.08,-123.391 2013.59,-130.231"/>
</g>
<!-- Node63 -->
<g id="node26" class="node"><title>Node63</title>
<g id="a_node26"><a xlink:href="_n_f_c_scene_process_module_8cpp.html" target="_top" xlink:title="NFCSceneProcessModule.cpp">
<polygon fill="white" stroke="black" points="1988.5,-62 1988.5,-81 2138.5,-81 2138.5,-62 1988.5,-62"/>
<text text-anchor="middle" x="2063.5" y="-69" font-family="Helvetica,sans-Serif" font-size="10.00">NFCSceneProcessModule.cpp</text>
</a>
</g>
</g>
<!-- Node62&#45;&gt;Node63 -->
<g id="edge30" class="edge"><title>Node62&#45;&gt;Node63</title>
<path fill="none" stroke="midnightblue" d="M2063.5,-118.537C2063.5,-106.17 2063.5,-90.6198 2063.5,-81.1273"/>
<polygon fill="midnightblue" stroke="midnightblue" points="2060,-118.734 2063.5,-128.734 2067,-118.734 2060,-118.734"/>
</g>
<!-- Node65 -->
<g id="node28" class="node"><title>Node65</title>
<g id="a_node28"><a xlink:href="_n_f_c_login_to_master_module_8cpp.html" target="_top" xlink:title="NFCLoginToMasterModule.cpp">
<polygon fill="white" stroke="black" points="2316.5,-62 2316.5,-81 2466.5,-81 2466.5,-62 2316.5,-62"/>
<text text-anchor="middle" x="2391.5" y="-69" font-family="Helvetica,sans-Serif" font-size="10.00">NFCLoginToMasterModule.cpp</text>
</a>
</g>
</g>
<!-- Node64&#45;&gt;Node65 -->
<g id="edge33" class="edge"><title>Node64&#45;&gt;Node65</title>
<path fill="none" stroke="midnightblue" d="M2454.22,-122.213C2438.06,-109.407 2415.58,-91.5884 2402.38,-81.1273"/>
<polygon fill="midnightblue" stroke="midnightblue" points="2452.43,-125.265 2462.44,-128.734 2456.78,-119.779 2452.43,-125.265"/>
</g>
<!-- Node66 -->
<g id="node29" class="node"><title>Node66</title>
<g id="a_node29"><a xlink:href="_n_f_login_net___client_plugin_8cpp.html" target="_top" xlink:title="NFLoginNet_ClientPlugin.cpp">
<polygon fill="white" stroke="black" points="2485,-62 2485,-81 2628,-81 2628,-62 2485,-62"/>
<text text-anchor="middle" x="2556.5" y="-69" font-family="Helvetica,sans-Serif" font-size="10.00">NFLoginNet_ClientPlugin.cpp</text>
</a>
</g>
</g>
<!-- Node64&#45;&gt;Node66 -->
<g id="edge34" class="edge"><title>Node64&#45;&gt;Node66</title>
<path fill="none" stroke="midnightblue" d="M2492.57,-122.568C2508.95,-109.738 2532,-91.6853 2545.48,-81.1273"/>
<polygon fill="midnightblue" stroke="midnightblue" points="2490.41,-119.813 2484.69,-128.734 2494.72,-125.324 2490.41,-119.813"/>
</g>
<!-- Node68 -->
<g id="node31" class="node"><title>Node68</title>
<g id="a_node31"><a xlink:href="_n_f_c_login_net___server_module_8cpp.html" target="_top" xlink:title="NFCLoginNet_ServerModule.cpp">
<polygon fill="white" stroke="black" points="2646,-62 2646,-81 2803,-81 2803,-62 2646,-62"/>
<text text-anchor="middle" x="2724.5" y="-69" font-family="Helvetica,sans-Serif" font-size="10.00">NFCLoginNet_ServerModule.cpp</text>
</a>
</g>
</g>
<!-- Node67&#45;&gt;Node68 -->
<g id="edge36" class="edge"><title>Node67&#45;&gt;Node68</title>
<path fill="none" stroke="midnightblue" d="M2724.5,-118.537C2724.5,-106.17 2724.5,-90.6198 2724.5,-81.1273"/>
<polygon fill="midnightblue" stroke="midnightblue" points="2721,-118.734 2724.5,-128.734 2728,-118.734 2721,-118.734"/>
</g>
<!-- Node69 -->
<g id="node32" class="node"><title>Node69</title>
<g id="a_node32"><a xlink:href="_n_f_login_net___server_plugin_8cpp.html" target="_top" xlink:title="NFLoginNet_ServerPlugin.cpp">
<polygon fill="white" stroke="black" points="2821.5,-62 2821.5,-81 2967.5,-81 2967.5,-62 2821.5,-62"/>
<text text-anchor="middle" x="2894.5" y="-69" font-family="Helvetica,sans-Serif" font-size="10.00">NFLoginNet_ServerPlugin.cpp</text>
</a>
</g>
</g>
<!-- Node67&#45;&gt;Node69 -->
<g id="edge37" class="edge"><title>Node67&#45;&gt;Node69</title>
<path fill="none" stroke="midnightblue" d="M2756.48,-125.271C2790.22,-112.37 2842.52,-92.3757 2872.1,-81.0637"/>
<polygon fill="midnightblue" stroke="midnightblue" points="2755.17,-122.028 2747.07,-128.869 2757.67,-128.566 2755.17,-122.028"/>
</g>
<!-- Node71 -->
<g id="node34" class="node"><title>Node71</title>
<g id="a_node34"><a xlink:href="_n_f_c_master_net___server_module_8cpp.html" target="_top" xlink:title="NFCMasterNet_ServerModule.cpp">
<polygon fill="white" stroke="black" points="2985.5,-62 2985.5,-81 3149.5,-81 3149.5,-62 2985.5,-62"/>
<text text-anchor="middle" x="3067.5" y="-69" font-family="Helvetica,sans-Serif" font-size="10.00">NFCMasterNet_ServerModule.cpp</text>
</a>
</g>
</g>
<!-- Node70&#45;&gt;Node71 -->
<g id="edge39" class="edge"><title>Node70&#45;&gt;Node71</title>
<path fill="none" stroke="midnightblue" d="M3067.5,-118.537C3067.5,-106.17 3067.5,-90.6198 3067.5,-81.1273"/>
<polygon fill="midnightblue" stroke="midnightblue" points="3064,-118.734 3067.5,-128.734 3071,-118.734 3064,-118.734"/>
</g>
<!-- Node72 -->
<g id="node35" class="node"><title>Node72</title>
<g id="a_node35"><a xlink:href="_n_f_master_net___server_plugin_8cpp.html" target="_top" xlink:title="NFMasterNet_ServerPlugin.cpp">
<polygon fill="white" stroke="black" points="3167.5,-62 3167.5,-81 3319.5,-81 3319.5,-62 3167.5,-62"/>
<text text-anchor="middle" x="3243.5" y="-69" font-family="Helvetica,sans-Serif" font-size="10.00">NFMasterNet_ServerPlugin.cpp</text>
</a>
</g>
</g>
<!-- Node70&#45;&gt;Node72 -->
<g id="edge40" class="edge"><title>Node70&#45;&gt;Node72</title>
<path fill="none" stroke="midnightblue" d="M3100.61,-125.271C3135.54,-112.37 3189.68,-92.3757 3220.31,-81.0637"/>
<polygon fill="midnightblue" stroke="midnightblue" points="3099.04,-122.121 3090.87,-128.869 3101.46,-128.687 3099.04,-122.121"/>
</g>
<!-- Node74 -->
<g id="node37" class="node"><title>Node74</title>
<g id="a_node37"><a xlink:href="_n_f_c_proxy_logic_module_8cpp.html" target="_top" xlink:title="NFCProxyLogicModule.cpp">
<polygon fill="white" stroke="black" points="3338,-62 3338,-81 3473,-81 3473,-62 3338,-62"/>
<text text-anchor="middle" x="3405.5" y="-69" font-family="Helvetica,sans-Serif" font-size="10.00">NFCProxyLogicModule.cpp</text>
</a>
</g>
</g>
<!-- Node73&#45;&gt;Node74 -->
<g id="edge42" class="edge"><title>Node73&#45;&gt;Node74</title>
<path fill="none" stroke="midnightblue" d="M3405.5,-118.537C3405.5,-106.17 3405.5,-90.6198 3405.5,-81.1273"/>
<polygon fill="midnightblue" stroke="midnightblue" points="3402,-118.734 3405.5,-128.734 3409,-118.734 3402,-118.734"/>
</g>
<!-- Node75 -->
<g id="node38" class="node"><title>Node75</title>
<g id="a_node38"><a xlink:href="_n_f_c_proxy_logic_plugin_8cpp.html" target="_top" xlink:title="NFCProxyLogicPlugin.cpp">
<polygon fill="white" stroke="black" points="3491,-62 3491,-81 3622,-81 3622,-62 3491,-62"/>
<text text-anchor="middle" x="3556.5" y="-69" font-family="Helvetica,sans-Serif" font-size="10.00">NFCProxyLogicPlugin.cpp</text>
</a>
</g>
</g>
<!-- Node73&#45;&gt;Node75 -->
<g id="edge43" class="edge"><title>Node73&#45;&gt;Node75</title>
<path fill="none" stroke="midnightblue" d="M3435.05,-124.781C3464.95,-111.909 3510.38,-92.3545 3536.37,-81.1672"/>
<polygon fill="midnightblue" stroke="midnightblue" points="3433.35,-121.7 3425.55,-128.869 3436.12,-128.129 3433.35,-121.7"/>
</g>
<!-- Node76&#45;&gt;Node77 -->
<g id="edge45" class="edge"><title>Node76&#45;&gt;Node77</title>
<path fill="none" stroke="midnightblue" d="M3728.5,-118.537C3728.5,-106.17 3728.5,-90.6198 3728.5,-81.1273"/>
<polygon fill="midnightblue" stroke="midnightblue" points="3725,-118.734 3728.5,-128.734 3732,-118.734 3725,-118.734"/>
</g>
<!-- Node78 -->
<g id="node41" class="node"><title>Node78</title>
<g id="a_node41"><a xlink:href="_n_f_proxy_server_net___client_plugin_8cpp.html" target="_top" xlink:title="NFProxyServerNet_ClientPlugin.cpp">
<polygon fill="white" stroke="black" points="3835,-62 3835,-81 4008,-81 4008,-62 3835,-62"/>
<text text-anchor="middle" x="3921.5" y="-69" font-family="Helvetica,sans-Serif" font-size="10.00">NFProxyServerNet_ClientPlugin.cpp</text>
</a>
</g>
</g>
<!-- Node76&#45;&gt;Node78 -->
<g id="edge46" class="edge"><title>Node76&#45;&gt;Node78</title>
<path fill="none" stroke="midnightblue" d="M3763.83,-125.601C3802.1,-112.714 3862.2,-92.4728 3896.07,-81.0637"/>
<polygon fill="midnightblue" stroke="midnightblue" points="3762.49,-122.36 3754.13,-128.869 3764.72,-128.994 3762.49,-122.36"/>
</g>
<!-- Node79&#45;&gt;Node78 -->
<g id="edge50" class="edge"><title>Node79&#45;&gt;Node78</title>
<path fill="none" stroke="midnightblue" d="M3921.5,-118.537C3921.5,-106.17 3921.5,-90.6198 3921.5,-81.1273"/>
<polygon fill="midnightblue" stroke="midnightblue" points="3918,-118.734 3921.5,-128.734 3925,-118.734 3918,-118.734"/>
</g>
<!-- Node79&#45;&gt;Node80 -->
<g id="edge49" class="edge"><title>Node79&#45;&gt;Node80</title>
<path fill="none" stroke="midnightblue" d="M3956.65,-125.601C3994.71,-112.714 4054.5,-92.4728 4088.2,-81.0637"/>
<polygon fill="midnightblue" stroke="midnightblue" points="3955.35,-122.347 3947,-128.869 3957.59,-128.977 3955.35,-122.347"/>
</g>
<!-- Node82 -->
<g id="node45" class="node"><title>Node82</title>
<g id="a_node45"><a xlink:href="_n_f_c_proxy_server_net___server_module_8cpp.html" target="_top" xlink:title="NFCProxyServerNet_Server\lModule.cpp">
<polygon fill="white" stroke="black" points="4219.5,-56.5 4219.5,-86.5 4355.5,-86.5 4355.5,-56.5 4219.5,-56.5"/>
<text text-anchor="start" x="4227.5" y="-74.5" font-family="Helvetica,sans-Serif" font-size="10.00">NFCProxyServerNet_Server</text>
<text text-anchor="middle" x="4287.5" y="-63.5" font-family="Helvetica,sans-Serif" font-size="10.00">Module.cpp</text>
</a>
</g>
</g>
<!-- Node81&#45;&gt;Node82 -->
<g id="edge53" class="edge"><title>Node81&#45;&gt;Node82</title>
<path fill="none" stroke="midnightblue" d="M4287.5,-113.108C4287.5,-104.154 4287.5,-94.3227 4287.5,-86.5765"/>
<polygon fill="midnightblue" stroke="midnightblue" points="4284,-113.396 4287.5,-123.396 4291,-113.396 4284,-113.396"/>
</g>
<!-- Node83 -->
<g id="node46" class="node"><title>Node83</title>
<g id="a_node46"><a xlink:href="_n_f_proxy_server_net___server_plugin_8cpp.html" target="_top" xlink:title="NFProxyServerNet_ServerPlugin.cpp">
<polygon fill="white" stroke="black" points="4374,-62 4374,-81 4549,-81 4549,-62 4374,-62"/>
<text text-anchor="middle" x="4461.5" y="-69" font-family="Helvetica,sans-Serif" font-size="10.00">NFProxyServerNet_ServerPlugin.cpp</text>
</a>
</g>
</g>
<!-- Node81&#45;&gt;Node83 -->
<g id="edge54" class="edge"><title>Node81&#45;&gt;Node83</title>
<path fill="none" stroke="midnightblue" d="M4334.92,-119.784C4368.66,-107.181 4412.49,-90.8082 4438.73,-81.007"/>
<polygon fill="midnightblue" stroke="midnightblue" points="4333.4,-116.618 4325.26,-123.396 4335.85,-123.175 4333.4,-116.618"/>
</g>
<!-- Node85 -->
<g id="node48" class="node"><title>Node85</title>
<g id="a_node48"><a xlink:href="_n_f_c_world_to_master_module_8cpp.html" target="_top" xlink:title="NFCWorldToMasterModule.cpp">
<polygon fill="white" stroke="black" points="4567.5,-62 4567.5,-81 4719.5,-81 4719.5,-62 4567.5,-62"/>
<text text-anchor="middle" x="4643.5" y="-69" font-family="Helvetica,sans-Serif" font-size="10.00">NFCWorldToMasterModule.cpp</text>
</a>
</g>
</g>
<!-- Node84&#45;&gt;Node85 -->
<g id="edge56" class="edge"><title>Node84&#45;&gt;Node85</title>
<path fill="none" stroke="midnightblue" d="M4565.39,-123.269C4585.19,-110.403 4613.69,-91.879 4630.23,-81.1273"/>
<polygon fill="midnightblue" stroke="midnightblue" points="4563.46,-120.349 4556.99,-128.734 4567.28,-126.218 4563.46,-120.349"/>
</g>
<!-- Node86 -->
<g id="node49" class="node"><title>Node86</title>
<g id="a_node49"><a xlink:href="_n_f_world_net___client_plugin_8cpp.html" target="_top" xlink:title="NFWorldNet_ClientPlugin.cpp">
<polygon fill="white" stroke="black" points="4737.5,-62 4737.5,-81 4883.5,-81 4883.5,-62 4737.5,-62"/>
<text text-anchor="middle" x="4810.5" y="-69" font-family="Helvetica,sans-Serif" font-size="10.00">NFWorldNet_ClientPlugin.cpp</text>
</a>
</g>
</g>
<!-- Node84&#45;&gt;Node86 -->
<g id="edge57" class="edge"><title>Node84&#45;&gt;Node86</title>
<path fill="none" stroke="midnightblue" d="M4588.42,-126.564C4641.06,-113.75 4727.18,-92.7848 4775.24,-81.0834"/>
<polygon fill="midnightblue" stroke="midnightblue" points="4587.57,-123.169 4578.68,-128.936 4589.22,-129.971 4587.57,-123.169"/>
</g>
</g>
</svg>
        <g id="navigator" transform="translate(0 0)" fill="#404254">
                <rect fill="#f2f5e9" fill-opacity="0.5" stroke="#606060" stroke-width=".5" x="0" y="0" width="60" height="60"/>
                <use id="zoomplus" xlink:href="#zoomPlus" x="17" y="9" onmousedown="handleZoom(evt,'in')"/>
                <use id="zoomminus" xlink:href="#zoomMin" x="42" y="9" onmousedown="handleZoom(evt,'out')"/>
                <use id="reset" xlink:href="#resetDef" x="30" y="36" onmousedown="handleReset()"/>
                <g id="arrowUp" xlink:href="#dirArrow" transform="translate(30 24)" onmousedown="handlePan(0,-1)">
                  <use xlink:href="#rim" fill="#404040">
                        <set attributeName="fill" to="#808080" begin="arrowUp.mouseover" end="arrowUp.mouseout"/>
                  </use>
                  <path fill="none" stroke="white" stroke-width="1.5" d="M0,-3.0v7 M-2.5,-0.5L0,-3.0L2.5,-0.5"/>
                </g>
                <g id="arrowRight" xlink:href="#dirArrow" transform="rotate(90) translate(36 -43)" onmousedown="handlePan(1,0)">
                  <use xlink:href="#rim" fill="#404040">
                        <set attributeName="fill" to="#808080" begin="arrowRight.mouseover" end="arrowRight.mouseout"/>
                  </use>
                  <path fill="none" stroke="white" stroke-width="1.5" d="M0,-3.0v7 M-2.5,-0.5L0,-3.0L2.5,-0.5"/>
                </g>
                <g id="arrowDown" xlink:href="#dirArrow" transform="rotate(180) translate(-30 -48)" onmousedown="handlePan(0,1)">
                  <use xlink:href="#rim" fill="#404040">
                        <set attributeName="fill" to="#808080" begin="arrowDown.mouseover" end="arrowDown.mouseout"/>
                  </use>
                  <path fill="none" stroke="white" stroke-width="1.5" d="M0,-3.0v7 M-2.5,-0.5L0,-3.0L2.5,-0.5"/>
                </g>
                <g id="arrowLeft" xlink:href="#dirArrow" transform="rotate(270) translate(-36 17)" onmousedown="handlePan(-1,0)">
                  <use xlink:href="#rim" fill="#404040">
                        <set attributeName="fill" to="#808080" begin="arrowLeft.mouseover" end="arrowLeft.mouseout"/>
                  </use>
                  <path fill="none" stroke="white" stroke-width="1.5" d="M0,-3.0v7 M-2.5,-0.5L0,-3.0L2.5,-0.5"/>
                </g>
        </g>
        <svg viewBox="0 0 15 15" width="100%" height="30px" preserveAspectRatio="xMaxYMin meet">
         <g id="arrow_out" transform="scale(0.3 0.3)">
          <a xlink:href="_n_f_i_class_module_8h__dep__incl_org.svg" target="_base">
           <rect id="button" ry="5" rx="5" y="6" x="6" height="38" width="38"
                fill="#f2f5e9" fill-opacity="0.5" stroke="#606060" stroke-width="1.0"/>
           <path id="arrow"
             d="M 11.500037,31.436501 C 11.940474,20.09759 22.043105,11.32322 32.158766,21.979434 L 37.068811,17.246167 C 37.068811,17.246167 37.088388,32 37.088388,32 L 22.160133,31.978069 C 22.160133,31.978069 26.997745,27.140456 26.997745,27.140456 C 18.528582,18.264221 13.291696,25.230495 11.500037,31.436501 z"
             style="fill:#404040;"/>
          </a>
         </g>
        </svg>
</svg>
