<?xml version="1.0" encoding="UTF-8" standalone="no"?>
<!DOCTYPE svg PUBLIC "-//W3C//DTD SVG 1.1//EN"
 "http://www.w3.org/Graphics/SVG/1.1/DTD/svg11.dtd">
<!-- Generated by graphviz version 2.38.0 (20140413.2041)
 -->
<!-- Title: NFCRecord.cpp Pages: 1 -->
<svg width="1376pt" height="431pt"
 viewBox="0.00 0.00 1376.01 431.00" xmlns="http://www.w3.org/2000/svg" xmlns:xlink="http://www.w3.org/1999/xlink">
<g id="graph0" class="graph" transform="scale(1 1) rotate(0) translate(4 427)">
<title>NFCRecord.cpp</title>
<polygon fill="white" stroke="none" points="-4,4 -4,-427 1372.01,-427 1372.01,4 -4,4"/>
<!-- Node0 -->
<g id="node1" class="node"><title>Node0</title>
<polygon fill="#bfbfbf" stroke="black" points="542,-403.5 542,-422.5 628,-422.5 628,-403.5 542,-403.5"/>
<text text-anchor="middle" x="585" y="-410.5" font-family="Helvetica,sans-Serif" font-size="10.00">NFCRecord.cpp</text>
</g>
<!-- Node1 -->
<g id="node2" class="node"><title>Node1</title>
<polygon fill="white" stroke="#bfbfbf" points="470.5,-347.5 470.5,-366.5 529.5,-366.5 529.5,-347.5 470.5,-347.5"/>
<text text-anchor="middle" x="500" y="-354.5" font-family="Helvetica,sans-Serif" font-size="10.00">exception</text>
</g>
<!-- Node0&#45;&gt;Node1 -->
<g id="edge1" class="edge"><title>Node0&#45;&gt;Node1</title>
<path fill="none" stroke="midnightblue" d="M571.343,-403.324C558.084,-394.9 537.732,-381.971 522.154,-372.074"/>
<polygon fill="midnightblue" stroke="midnightblue" points="523.94,-369.063 513.623,-366.655 520.187,-374.971 523.94,-369.063"/>
</g>
<!-- Node2 -->
<g id="node3" class="node"><title>Node2</title>
<g id="a_node3"><a xlink:href="_a_f_data_list_8hpp.html" target="_top" xlink:title="AFDataList.hpp">
<polygon fill="white" stroke="black" points="590,-179.5 590,-198.5 674,-198.5 674,-179.5 590,-179.5"/>
<text text-anchor="middle" x="632" y="-186.5" font-family="Helvetica,sans-Serif" font-size="10.00">AFDataList.hpp</text>
</a>
</g>
</g>
<!-- Node0&#45;&gt;Node2 -->
<g id="edge2" class="edge"><title>Node0&#45;&gt;Node2</title>
<path fill="none" stroke="midnightblue" d="M599.078,-403.259C610.353,-395.355 625.346,-382.584 632,-367 654.885,-313.406 643.864,-242.085 636.613,-208.71"/>
<polygon fill="midnightblue" stroke="midnightblue" points="639.933,-207.532 634.267,-198.579 633.113,-209.111 639.933,-207.532"/>
</g>
<!-- Node27 -->
<g id="node28" class="node"><title>Node27</title>
<g id="a_node28"><a xlink:href="_n_f_c_record_8h.html" target="_top" xlink:title="NFCRecord.h">
<polygon fill="white" stroke="black" points="547.5,-347.5 547.5,-366.5 622.5,-366.5 622.5,-347.5 547.5,-347.5"/>
<text text-anchor="middle" x="585" y="-354.5" font-family="Helvetica,sans-Serif" font-size="10.00">NFCRecord.h</text>
</a>
</g>
</g>
<!-- Node0&#45;&gt;Node27 -->
<g id="edge31" class="edge"><title>Node0&#45;&gt;Node27</title>
<path fill="none" stroke="midnightblue" d="M585,-403.083C585,-396.006 585,-385.861 585,-376.986"/>
<polygon fill="midnightblue" stroke="midnightblue" points="588.5,-376.751 585,-366.751 581.5,-376.751 588.5,-376.751"/>
</g>
<!-- Node3 -->
<g id="node4" class="node"><title>Node3</title>
<polygon fill="white" stroke="#bfbfbf" points="995.5,-0.5 995.5,-19.5 1036.5,-19.5 1036.5,-0.5 995.5,-0.5"/>
<text text-anchor="middle" x="1016" y="-7.5" font-family="Helvetica,sans-Serif" font-size="10.00">string</text>
</g>
<!-- Node2&#45;&gt;Node3 -->
<g id="edge3" class="edge"><title>Node2&#45;&gt;Node3</title>
<path fill="none" stroke="midnightblue" d="M674.166,-185.649C765.295,-180.167 974.256,-165.288 997,-143 1027.37,-113.244 1023.95,-58.2615 1019.58,-29.5509"/>
<polygon fill="midnightblue" stroke="midnightblue" points="1023.02,-28.8874 1017.87,-19.6268 1016.12,-30.0758 1023.02,-28.8874"/>
</g>
<!-- Node4 -->
<g id="node5" class="node"><title>Node4</title>
<polygon fill="white" stroke="#bfbfbf" points="474,-118 474,-137 520,-137 520,-118 474,-118"/>
<text text-anchor="middle" x="497" y="-125" font-family="Helvetica,sans-Serif" font-size="10.00">cstring</text>
</g>
<!-- Node2&#45;&gt;Node4 -->
<g id="edge4" class="edge"><title>Node2&#45;&gt;Node4</title>
<path fill="none" stroke="midnightblue" d="M612.658,-179.475C589.901,-169.445 551.908,-152.7 525.712,-141.155"/>
<polygon fill="midnightblue" stroke="midnightblue" points="526.869,-137.839 516.306,-137.009 524.045,-144.245 526.869,-137.839"/>
</g>
<!-- Node5 -->
<g id="node6" class="node"><title>Node5</title>
<polygon fill="white" stroke="#bfbfbf" points="1044,-56.5 1044,-75.5 1098,-75.5 1098,-56.5 1044,-56.5"/>
<text text-anchor="middle" x="1071" y="-63.5" font-family="Helvetica,sans-Serif" font-size="10.00">iostream</text>
</g>
<!-- Node2&#45;&gt;Node5 -->
<g id="edge5" class="edge"><title>Node2&#45;&gt;Node5</title>
<path fill="none" stroke="midnightblue" d="M674.221,-188.061C764.5,-187.43 972.747,-181.694 1030,-143 1049.75,-129.652 1060.78,-103.567 1066.31,-85.7162"/>
<polygon fill="midnightblue" stroke="midnightblue" points="1069.74,-86.426 1069.07,-75.8529 1063,-84.5413 1069.74,-86.426"/>
</g>
<!-- Node6 -->
<g id="node7" class="node"><title>Node6</title>
<polygon fill="white" stroke="#bfbfbf" points="137,-56.5 137,-75.5 185,-75.5 185,-56.5 137,-56.5"/>
<text text-anchor="middle" x="161" y="-63.5" font-family="Helvetica,sans-Serif" font-size="10.00">stdlib.h</text>
</g>
<!-- Node2&#45;&gt;Node6 -->
<g id="edge6" class="edge"><title>Node2&#45;&gt;Node6</title>
<path fill="none" stroke="midnightblue" d="M589.634,-187.01C480.108,-184.026 194.08,-173.373 165,-143 150.683,-128.047 152.393,-102.929 155.874,-85.6901"/>
<polygon fill="midnightblue" stroke="midnightblue" points="159.345,-86.2251 158.267,-75.6852 152.537,-84.5967 159.345,-86.2251"/>
</g>
<!-- Node7 -->
<g id="node8" class="node"><title>Node7</title>
<polygon fill="white" stroke="#bfbfbf" points="538.5,-118 538.5,-137 585.5,-137 585.5,-118 538.5,-118"/>
<text text-anchor="middle" x="562" y="-125" font-family="Helvetica,sans-Serif" font-size="10.00">math.h</text>
</g>
<!-- Node2&#45;&gt;Node7 -->
<g id="edge7" class="edge"><title>Node2&#45;&gt;Node7</title>
<path fill="none" stroke="midnightblue" d="M621.971,-179.475C610.951,-170.108 593.04,-154.884 579.657,-143.508"/>
<polygon fill="midnightblue" stroke="midnightblue" points="581.897,-140.819 572.011,-137.009 577.363,-146.152 581.897,-140.819"/>
</g>
<!-- Node8 -->
<g id="node9" class="node"><title>Node8</title>
<polygon fill="white" stroke="#bfbfbf" points="1220.5,-118 1220.5,-137 1249.5,-137 1249.5,-118 1220.5,-118"/>
<text text-anchor="middle" x="1235" y="-125" font-family="Helvetica,sans-Serif" font-size="10.00">list</text>
</g>
<!-- Node2&#45;&gt;Node8 -->
<g id="edge8" class="edge"><title>Node2&#45;&gt;Node8</title>
<path fill="none" stroke="midnightblue" d="M674.067,-187.244C789.79,-184.768 1110.92,-175.117 1211,-143 1212.07,-142.658 1213.13,-142.26 1214.2,-141.82"/>
<polygon fill="midnightblue" stroke="midnightblue" points="1216.08,-144.781 1223.32,-137.043 1212.84,-138.58 1216.08,-144.781"/>
</g>
<!-- Node9 -->
<g id="node10" class="node"><title>Node9</title>
<polygon fill="white" stroke="#bfbfbf" points="0,-118 0,-137 42,-137 42,-118 0,-118"/>
<text text-anchor="middle" x="21" y="-125" font-family="Helvetica,sans-Serif" font-size="10.00">vector</text>
</g>
<!-- Node2&#45;&gt;Node9 -->
<g id="edge9" class="edge"><title>Node2&#45;&gt;Node9</title>
<path fill="none" stroke="midnightblue" d="M589.932,-186.767C474.183,-183.054 152.822,-170.498 51,-143 49.0733,-142.48 47.121,-141.836 45.1851,-141.112"/>
<polygon fill="midnightblue" stroke="midnightblue" points="46.3997,-137.823 35.8354,-137.02 43.5926,-144.236 46.3997,-137.823"/>
</g>
<!-- Node10 -->
<g id="node11" class="node"><title>Node10</title>
<polygon fill="white" stroke="#bfbfbf" points="1267.5,-118 1267.5,-137 1302.5,-137 1302.5,-118 1267.5,-118"/>
<text text-anchor="middle" x="1285" y="-125" font-family="Helvetica,sans-Serif" font-size="10.00">map</text>
</g>
<!-- Node2&#45;&gt;Node10 -->
<g id="edge10" class="edge"><title>Node2&#45;&gt;Node10</title>
<path fill="none" stroke="midnightblue" d="M674.385,-187.347C796.787,-185.086 1149.07,-175.827 1259,-143 1260.42,-142.575 1261.86,-142.062 1263.28,-141.487"/>
<polygon fill="midnightblue" stroke="midnightblue" points="1264.85,-144.614 1272.27,-137.053 1261.75,-138.336 1264.85,-144.614"/>
</g>
<!-- Node11 -->
<g id="node12" class="node"><title>Node11</title>
<polygon fill="white" stroke="#bfbfbf" points="604,-118 604,-137 660,-137 660,-118 604,-118"/>
<text text-anchor="middle" x="632" y="-125" font-family="Helvetica,sans-Serif" font-size="10.00">algorithm</text>
</g>
<!-- Node2&#45;&gt;Node11 -->
<g id="edge11" class="edge"><title>Node2&#45;&gt;Node11</title>
<path fill="none" stroke="midnightblue" d="M632,-179.475C632,-171.08 632,-157.981 632,-147.163"/>
<polygon fill="midnightblue" stroke="midnightblue" points="635.5,-147.009 632,-137.009 628.5,-147.009 635.5,-147.009"/>
</g>
<!-- Node12 -->
<g id="node13" class="node"><title>Node12</title>
<polygon fill="white" stroke="#bfbfbf" points="678,-118 678,-137 730,-137 730,-118 678,-118"/>
<text text-anchor="middle" x="704" y="-125" font-family="Helvetica,sans-Serif" font-size="10.00">assert.h</text>
</g>
<!-- Node2&#45;&gt;Node12 -->
<g id="edge12" class="edge"><title>Node2&#45;&gt;Node12</title>
<path fill="none" stroke="midnightblue" d="M642.316,-179.475C653.651,-170.108 672.073,-154.884 685.839,-143.508"/>
<polygon fill="midnightblue" stroke="midnightblue" points="688.224,-146.077 693.703,-137.009 683.765,-140.681 688.224,-146.077"/>
</g>
<!-- Node13 -->
<g id="node14" class="node"><title>Node13</title>
<polygon fill="white" stroke="#bfbfbf" points="1082,-118 1082,-137 1132,-137 1132,-118 1082,-118"/>
<text text-anchor="middle" x="1107" y="-125" font-family="Helvetica,sans-Serif" font-size="10.00">typeinfo</text>
</g>
<!-- Node2&#45;&gt;Node13 -->
<g id="edge13" class="edge"><title>Node2&#45;&gt;Node13</title>
<path fill="none" stroke="midnightblue" d="M674.061,-187.18C752.518,-184.879 926.093,-176.137 1068,-143 1071.07,-142.284 1074.22,-141.391 1077.34,-140.403"/>
<polygon fill="midnightblue" stroke="midnightblue" points="1078.77,-143.613 1087.06,-137.019 1076.46,-137.003 1078.77,-143.613"/>
</g>
<!-- Node14 -->
<g id="node15" class="node"><title>Node14</title>
<polygon fill="white" stroke="#bfbfbf" points="748,-118 748,-137 798,-137 798,-118 748,-118"/>
<text text-anchor="middle" x="773" y="-125" font-family="Helvetica,sans-Serif" font-size="10.00">iomanip</text>
</g>
<!-- Node2&#45;&gt;Node14 -->
<g id="edge14" class="edge"><title>Node2&#45;&gt;Node14</title>
<path fill="none" stroke="midnightblue" d="M652.525,-179.404C674.075,-170.37 708.938,-155.732 739,-143 740.403,-142.406 741.839,-141.797 743.289,-141.181"/>
<polygon fill="midnightblue" stroke="midnightblue" points="745.04,-144.24 752.871,-137.104 742.299,-137.799 745.04,-144.24"/>
</g>
<!-- Node15 -->
<g id="node16" class="node"><title>Node15</title>
<polygon fill="white" stroke="#bfbfbf" points="60,-118 60,-137 118,-137 118,-118 60,-118"/>
<text text-anchor="middle" x="89" y="-125" font-family="Helvetica,sans-Serif" font-size="10.00">functional</text>
</g>
<!-- Node2&#45;&gt;Node15 -->
<g id="edge15" class="edge"><title>Node2&#45;&gt;Node15</title>
<path fill="none" stroke="midnightblue" d="M589.693,-187.536C502.927,-185.855 298.949,-178.147 132,-143 128.314,-142.224 124.505,-141.232 120.747,-140.132"/>
<polygon fill="midnightblue" stroke="midnightblue" points="121.631,-136.74 111.041,-137.041 119.507,-143.41 121.631,-136.74"/>
</g>
<!-- Node16 -->
<g id="node17" class="node"><title>Node16</title>
<polygon fill="white" stroke="#bfbfbf" points="816.5,-118 816.5,-137 865.5,-137 865.5,-118 816.5,-118"/>
<text text-anchor="middle" x="841" y="-125" font-family="Helvetica,sans-Serif" font-size="10.00">fstream</text>
</g>
<!-- Node2&#45;&gt;Node16 -->
<g id="edge16" class="edge"><title>Node2&#45;&gt;Node16</title>
<path fill="none" stroke="midnightblue" d="M672.472,-179.425C708.271,-171.409 761.701,-158.385 807,-143 808.868,-142.365 810.779,-141.674 812.693,-140.949"/>
<polygon fill="midnightblue" stroke="midnightblue" points="814.168,-144.128 822.136,-137.145 811.552,-137.635 814.168,-144.128"/>
</g>
<!-- Node17 -->
<g id="node18" class="node"><title>Node17</title>
<polygon fill="white" stroke="#bfbfbf" points="1150,-118 1150,-137 1202,-137 1202,-118 1150,-118"/>
<text text-anchor="middle" x="1176" y="-125" font-family="Helvetica,sans-Serif" font-size="10.00">memory</text>
</g>
<!-- Node2&#45;&gt;Node17 -->
<g id="edge17" class="edge"><title>Node2&#45;&gt;Node17</title>
<path fill="none" stroke="midnightblue" d="M674.27,-188.565C762.409,-188.811 971.695,-184.516 1141,-143 1143.52,-142.383 1146.08,-141.613 1148.63,-140.752"/>
<polygon fill="midnightblue" stroke="midnightblue" points="1150.09,-143.94 1158.19,-137.105 1147.6,-137.4 1150.09,-143.94"/>
</g>
<!-- Node18 -->
<g id="node19" class="node"><title>Node18</title>
<polygon fill="white" stroke="#bfbfbf" points="884,-118 884,-137 988,-137 988,-118 884,-118"/>
<text text-anchor="middle" x="936" y="-125" font-family="Helvetica,sans-Serif" font-size="10.00">common/variant.hpp</text>
</g>
<!-- Node2&#45;&gt;Node18 -->
<g id="edge18" class="edge"><title>Node2&#45;&gt;Node18</title>
<path fill="none" stroke="midnightblue" d="M674.27,-180.836C722.847,-172.45 804.897,-157.813 875,-143 880.392,-141.861 886.036,-140.605 891.623,-139.323"/>
<polygon fill="midnightblue" stroke="midnightblue" points="892.606,-142.688 901.55,-137.008 891.016,-135.871 892.606,-142.688"/>
</g>
<!-- Node19 -->
<g id="node20" class="node"><title>Node19</title>
<g id="a_node20"><a xlink:href="_n_f_g_u_i_d_8h.html" target="_top" xlink:title="NFComm/NFPluginModule\l/NFGUID.h">
<polygon fill="white" stroke="black" points="174,-112.5 174,-142.5 306,-142.5 306,-112.5 174,-112.5"/>
<text text-anchor="start" x="182" y="-130.5" font-family="Helvetica,sans-Serif" font-size="10.00">NFComm/NFPluginModule</text>
<text text-anchor="middle" x="240" y="-119.5" font-family="Helvetica,sans-Serif" font-size="10.00">/NFGUID.h</text>
</a>
</g>
</g>
<!-- Node2&#45;&gt;Node19 -->
<g id="edge19" class="edge"><title>Node2&#45;&gt;Node19</title>
<path fill="none" stroke="midnightblue" d="M589.85,-182.698C530.917,-175.135 420.321,-160.399 316.268,-143.164"/>
<polygon fill="midnightblue" stroke="midnightblue" points="316.66,-139.681 306.221,-141.489 315.509,-146.586 316.66,-139.681"/>
</g>
<!-- Node20 -->
<g id="node21" class="node"><title>Node20</title>
<g id="a_node21"><a xlink:href="_n_f_platform_8h.html" target="_top" xlink:title="NFPlatform.h">
<polygon fill="white" stroke="black" points="572,-56.5 572,-75.5 646,-75.5 646,-56.5 572,-56.5"/>
<text text-anchor="middle" x="609" y="-63.5" font-family="Helvetica,sans-Serif" font-size="10.00">NFPlatform.h</text>
</a>
</g>
</g>
<!-- Node2&#45;&gt;Node20 -->
<g id="edge29" class="edge"><title>Node2&#45;&gt;Node20</title>
<path fill="none" stroke="midnightblue" d="M589.81,-182.5C545.481,-175.753 480.112,-162.724 465,-143 435.745,-104.819 508.998,-83.8177 561.415,-74.0263"/>
<polygon fill="midnightblue" stroke="midnightblue" points="562.352,-77.4145 571.584,-72.2157 561.125,-70.5229 562.352,-77.4145"/>
</g>
<!-- Node26 -->
<g id="node27" class="node"><title>Node26</title>
<g id="a_node27"><a xlink:href="_vector3_8hpp.html" target="_top" xlink:title="Math/Vector3.hpp">
<polygon fill="white" stroke="black" points="324,-118 324,-137 418,-137 418,-118 324,-118"/>
<text text-anchor="middle" x="371" y="-125" font-family="Helvetica,sans-Serif" font-size="10.00">Math/Vector3.hpp</text>
</a>
</g>
</g>
<!-- Node2&#45;&gt;Node26 -->
<g id="edge30" class="edge"><title>Node2&#45;&gt;Node26</title>
<path fill="none" stroke="midnightblue" d="M593.254,-179.427C552.94,-170.474 487.999,-155.955 432,-143 426.959,-141.834 421.687,-140.601 416.444,-139.366"/>
<polygon fill="midnightblue" stroke="midnightblue" points="417.001,-135.901 406.464,-137.006 415.391,-142.714 417.001,-135.901"/>
</g>
<!-- Node19&#45;&gt;Node5 -->
<g id="edge26" class="edge"><title>Node19&#45;&gt;Node5</title>
<path fill="none" stroke="midnightblue" d="M306.178,-113.216C309.154,-112.773 312.105,-112.364 315,-112 589.276,-77.4758 922.963,-69.3071 1033.47,-67.49"/>
<polygon fill="midnightblue" stroke="midnightblue" points="1033.82,-70.9852 1043.76,-67.3289 1033.71,-63.9861 1033.82,-70.9852"/>
</g>
<!-- Node19&#45;&gt;Node6 -->
<g id="edge28" class="edge"><title>Node19&#45;&gt;Node6</title>
<path fill="none" stroke="midnightblue" d="M221.278,-112.399C209.088,-103.218 193.208,-91.2579 180.807,-81.9182"/>
<polygon fill="midnightblue" stroke="midnightblue" points="182.589,-78.8782 172.495,-75.6578 178.377,-84.4697 182.589,-78.8782"/>
</g>
<!-- Node19&#45;&gt;Node20 -->
<g id="edge20" class="edge"><title>Node19&#45;&gt;Node20</title>
<path fill="none" stroke="midnightblue" d="M306.228,-113.55C309.191,-113.017 312.125,-112.498 315,-112 401.875,-96.9594 503.653,-81.9634 561.806,-73.6436"/>
<polygon fill="midnightblue" stroke="midnightblue" points="562.39,-77.0957 571.796,-72.2187 561.402,-70.1659 562.39,-77.0957"/>
</g>
<!-- Node25 -->
<g id="node26" class="node"><title>Node25</title>
<polygon fill="white" stroke="#bfbfbf" points="217,-56.5 217,-75.5 263,-75.5 263,-56.5 217,-56.5"/>
<text text-anchor="middle" x="240" y="-63.5" font-family="Helvetica,sans-Serif" font-size="10.00">stdio.h</text>
</g>
<!-- Node19&#45;&gt;Node25 -->
<g id="edge27" class="edge"><title>Node19&#45;&gt;Node25</title>
<path fill="none" stroke="midnightblue" d="M240,-112.399C240,-104.466 240,-94.458 240,-85.8583"/>
<polygon fill="midnightblue" stroke="midnightblue" points="243.5,-85.6577 240,-75.6578 236.5,-85.6578 243.5,-85.6577"/>
</g>
<!-- Node20&#45;&gt;Node3 -->
<g id="edge25" class="edge"><title>Node20&#45;&gt;Node3</title>
<path fill="none" stroke="midnightblue" d="M646.197,-60.0647C725.875,-49.4932 911.747,-24.8321 985.273,-15.0768"/>
<polygon fill="midnightblue" stroke="midnightblue" points="985.828,-18.534 995.28,-13.749 984.907,-11.5948 985.828,-18.534"/>
</g>
<!-- Node21 -->
<g id="node22" class="node"><title>Node21</title>
<polygon fill="white" stroke="#bfbfbf" points="486.5,-0.5 486.5,-19.5 535.5,-19.5 535.5,-0.5 486.5,-0.5"/>
<text text-anchor="middle" x="511" y="-7.5" font-family="Helvetica,sans-Serif" font-size="10.00">stdint.h</text>
</g>
<!-- Node20&#45;&gt;Node21 -->
<g id="edge21" class="edge"><title>Node20&#45;&gt;Node21</title>
<path fill="none" stroke="midnightblue" d="M593.255,-56.324C577.681,-47.7428 553.623,-34.486 535.541,-24.5224"/>
<polygon fill="midnightblue" stroke="midnightblue" points="537.154,-21.4152 526.706,-19.6545 533.776,-27.546 537.154,-21.4152"/>
</g>
<!-- Node22 -->
<g id="node23" class="node"><title>Node22</title>
<polygon fill="white" stroke="#bfbfbf" points="554,-0.5 554,-19.5 598,-19.5 598,-0.5 554,-0.5"/>
<text text-anchor="middle" x="576" y="-7.5" font-family="Helvetica,sans-Serif" font-size="10.00">time.h</text>
</g>
<!-- Node20&#45;&gt;Node22 -->
<g id="edge22" class="edge"><title>Node20&#45;&gt;Node22</title>
<path fill="none" stroke="midnightblue" d="M603.551,-56.083C598.986,-48.6127 592.332,-37.7244 586.707,-28.5199"/>
<polygon fill="midnightblue" stroke="midnightblue" points="589.549,-26.4588 581.348,-19.7511 583.576,-30.109 589.549,-26.4588"/>
</g>
<!-- Node23 -->
<g id="node24" class="node"><title>Node23</title>
<polygon fill="white" stroke="#bfbfbf" points="616,-0.5 616,-19.5 668,-19.5 668,-0.5 616,-0.5"/>
<text text-anchor="middle" x="642" y="-7.5" font-family="Helvetica,sans-Serif" font-size="10.00">sstream</text>
</g>
<!-- Node20&#45;&gt;Node23 -->
<g id="edge23" class="edge"><title>Node20&#45;&gt;Node23</title>
<path fill="none" stroke="midnightblue" d="M614.449,-56.083C619.014,-48.6127 625.668,-37.7244 631.293,-28.5199"/>
<polygon fill="midnightblue" stroke="midnightblue" points="634.424,-30.109 636.652,-19.7511 628.451,-26.4588 634.424,-30.109"/>
</g>
<!-- Node24 -->
<g id="node25" class="node"><title>Node24</title>
<polygon fill="white" stroke="#bfbfbf" points="686,-0.5 686,-19.5 814,-19.5 814,-0.5 686,-0.5"/>
<text text-anchor="middle" x="750" y="-7.5" font-family="Helvetica,sans-Serif" font-size="10.00">common/lexical_cast.hpp</text>
</g>
<!-- Node20&#45;&gt;Node24 -->
<g id="edge24" class="edge"><title>Node20&#45;&gt;Node24</title>
<path fill="none" stroke="midnightblue" d="M631.342,-56.4435C654.753,-47.4776 691.736,-33.314 718.19,-23.1827"/>
<polygon fill="midnightblue" stroke="midnightblue" points="719.676,-26.3615 727.763,-19.5164 717.172,-19.8245 719.676,-26.3615"/>
</g>
<!-- Node27&#45;&gt;Node2 -->
<g id="edge39" class="edge"><title>Node27&#45;&gt;Node2</title>
<path fill="none" stroke="midnightblue" d="M587.527,-347.075C594.925,-320.945 616.651,-244.211 626.74,-208.577"/>
<polygon fill="midnightblue" stroke="midnightblue" points="630.217,-209.143 629.574,-198.568 623.482,-207.236 630.217,-209.143"/>
</g>
<!-- Node27&#45;&gt;Node9 -->
<g id="edge32" class="edge"><title>Node27&#45;&gt;Node9</title>
<path fill="none" stroke="midnightblue" d="M561.859,-347.44C487.165,-319.668 246.019,-228.895 51,-143 49.8386,-142.488 48.656,-141.958 47.4643,-141.416"/>
<polygon fill="midnightblue" stroke="midnightblue" points="48.893,-138.22 38.3529,-137.144 45.9213,-144.558 48.893,-138.22"/>
</g>
<!-- Node28 -->
<g id="node29" class="node"><title>Node28</title>
<g id="a_node29"><a xlink:href="_n_f_i_record_8h.html" target="_top" xlink:title="NFIRecord.h">
<polygon fill="white" stroke="black" points="513.5,-291.5 513.5,-310.5 584.5,-310.5 584.5,-291.5 513.5,-291.5"/>
<text text-anchor="middle" x="549" y="-298.5" font-family="Helvetica,sans-Serif" font-size="10.00">NFIRecord.h</text>
</a>
</g>
</g>
<!-- Node27&#45;&gt;Node28 -->
<g id="edge33" class="edge"><title>Node27&#45;&gt;Node28</title>
<path fill="none" stroke="midnightblue" d="M579.055,-347.083C574.023,-339.534 566.663,-328.495 560.487,-319.23"/>
<polygon fill="midnightblue" stroke="midnightblue" points="563.293,-317.13 554.834,-310.751 557.469,-321.013 563.293,-317.13"/>
</g>
<!-- Node30 -->
<g id="node31" class="node"><title>Node30</title>
<g id="a_node31"><a xlink:href="_n_f_map_ex_8h.html" target="_top" xlink:title="NFMapEx.h">
<polygon fill="white" stroke="black" points="1226,-179.5 1226,-198.5 1294,-198.5 1294,-179.5 1226,-179.5"/>
<text text-anchor="middle" x="1260" y="-186.5" font-family="Helvetica,sans-Serif" font-size="10.00">NFMapEx.h</text>
</a>
</g>
</g>
<!-- Node27&#45;&gt;Node30 -->
<g id="edge40" class="edge"><title>Node27&#45;&gt;Node30</title>
<path fill="none" stroke="midnightblue" d="M619.87,-347.425C733.042,-319.593 1090.03,-231.8 1215.7,-200.894"/>
<polygon fill="midnightblue" stroke="midnightblue" points="1216.87,-204.212 1225.74,-198.425 1215.2,-197.414 1216.87,-204.212"/>
</g>
<!-- Node28&#45;&gt;Node2 -->
<g id="edge38" class="edge"><title>Node28&#45;&gt;Node2</title>
<path fill="none" stroke="midnightblue" d="M555.513,-291.368C569.271,-273.135 601.497,-230.426 619.418,-206.675"/>
<polygon fill="midnightblue" stroke="midnightblue" points="622.288,-208.682 625.517,-198.591 616.7,-204.466 622.288,-208.682"/>
</g>
<!-- Node29 -->
<g id="node30" class="node"><title>Node29</title>
<g id="a_node30"><a xlink:href="_n_f_define_8h.html" target="_top" xlink:title="NFDefine.h">
<polygon fill="white" stroke="black" points="409.5,-235.5 409.5,-254.5 474.5,-254.5 474.5,-235.5 409.5,-235.5"/>
<text text-anchor="middle" x="442" y="-242.5" font-family="Helvetica,sans-Serif" font-size="10.00">NFDefine.h</text>
</a>
</g>
</g>
<!-- Node28&#45;&gt;Node29 -->
<g id="edge34" class="edge"><title>Node28&#45;&gt;Node29</title>
<path fill="none" stroke="midnightblue" d="M531.809,-291.324C514.649,-282.664 488.054,-269.242 468.253,-259.249"/>
<polygon fill="midnightblue" stroke="midnightblue" points="469.653,-256.035 459.149,-254.655 466.499,-262.285 469.653,-256.035"/>
</g>
<!-- Node29&#45;&gt;Node2 -->
<g id="edge36" class="edge"><title>Node29&#45;&gt;Node2</title>
<path fill="none" stroke="midnightblue" d="M472.106,-235.444C504.626,-226.201 556.579,-211.436 592.391,-201.257"/>
<polygon fill="midnightblue" stroke="midnightblue" points="593.373,-204.617 602.035,-198.516 591.459,-197.884 593.373,-204.617"/>
</g>
<!-- Node29&#45;&gt;Node15 -->
<g id="edge35" class="edge"><title>Node29&#45;&gt;Node15</title>
<path fill="none" stroke="midnightblue" d="M415.431,-235.445C361.797,-218.153 236.771,-177.731 132,-143 129.425,-142.146 126.764,-141.26 124.088,-140.365"/>
<polygon fill="midnightblue" stroke="midnightblue" points="125.045,-136.995 114.452,-137.131 122.818,-143.631 125.045,-136.995"/>
</g>
<!-- Node29&#45;&gt;Node19 -->
<g id="edge37" class="edge"><title>Node29&#45;&gt;Node19</title>
<path fill="none" stroke="midnightblue" d="M426.817,-235.319C394.37,-216.766 317.622,-172.883 273.249,-147.511"/>
<polygon fill="midnightblue" stroke="midnightblue" points="274.983,-144.471 264.564,-142.545 271.508,-150.547 274.983,-144.471"/>
</g>
<!-- Node30&#45;&gt;Node3 -->
<g id="edge43" class="edge"><title>Node30&#45;&gt;Node3</title>
<path fill="none" stroke="midnightblue" d="M1294.24,-182.757C1317.67,-177.192 1347.1,-165.863 1362,-143 1369.52,-131.458 1370.27,-123.023 1362,-112 1323.46,-60.5975 1124.13,-26.6741 1046.76,-15.2612"/>
<polygon fill="midnightblue" stroke="midnightblue" points="1047.08,-11.7709 1036.68,-13.8007 1046.07,-18.6986 1047.08,-11.7709"/>
</g>
<!-- Node30&#45;&gt;Node5 -->
<g id="edge44" class="edge"><title>Node30&#45;&gt;Node5</title>
<path fill="none" stroke="midnightblue" d="M1293.8,-179.388C1312.39,-172.735 1333.89,-161.453 1345,-143 1352.11,-131.197 1353.92,-122.502 1345,-112 1315.09,-76.7714 1176.27,-69.0702 1108.47,-67.4236"/>
<polygon fill="midnightblue" stroke="midnightblue" points="1108.3,-63.9193 1098.22,-67.2081 1108.15,-70.9178 1108.3,-63.9193"/>
</g>
<!-- Node30&#45;&gt;Node8 -->
<g id="edge42" class="edge"><title>Node30&#45;&gt;Node8</title>
<path fill="none" stroke="midnightblue" d="M1256.42,-179.475C1252.82,-170.904 1247.15,-157.427 1242.56,-146.483"/>
<polygon fill="midnightblue" stroke="midnightblue" points="1245.68,-144.873 1238.58,-137.009 1239.22,-147.584 1245.68,-144.873"/>
</g>
<!-- Node30&#45;&gt;Node10 -->
<g id="edge41" class="edge"><title>Node30&#45;&gt;Node10</title>
<path fill="none" stroke="midnightblue" d="M1263.58,-179.475C1267.18,-170.904 1272.85,-157.427 1277.44,-146.483"/>
<polygon fill="midnightblue" stroke="midnightblue" points="1280.78,-147.584 1281.42,-137.009 1274.32,-144.873 1280.78,-147.584"/>
</g>
<!-- Node30&#45;&gt;Node13 -->
<g id="edge45" class="edge"><title>Node30&#45;&gt;Node13</title>
<path fill="none" stroke="midnightblue" d="M1236.63,-179.489C1212.55,-170.645 1173.99,-156.267 1141,-143 1139.4,-142.358 1137.77,-141.692 1136.12,-141.013"/>
<polygon fill="midnightblue" stroke="midnightblue" points="1137.29,-137.71 1126.72,-137.074 1134.59,-144.166 1137.29,-137.71"/>
</g>
<!-- Node30&#45;&gt;Node17 -->
<g id="edge46" class="edge"><title>Node30&#45;&gt;Node17</title>
<path fill="none" stroke="midnightblue" d="M1247.96,-179.475C1234.49,-169.931 1212.43,-154.307 1196.28,-142.868"/>
<polygon fill="midnightblue" stroke="midnightblue" points="1198.2,-139.933 1188.01,-137.009 1194.15,-145.645 1198.2,-139.933"/>
</g>
<!-- Node30&#45;&gt;Node20 -->
<g id="edge47" class="edge"><title>Node30&#45;&gt;Node20</title>
<path fill="none" stroke="midnightblue" d="M1273.41,-179.402C1294.88,-164.633 1332.56,-133.921 1312,-112 1289.56,-88.0762 810.866,-72.6432 656.514,-68.2745"/>
<polygon fill="midnightblue" stroke="midnightblue" points="656.492,-64.7726 646.398,-67.991 656.296,-71.7699 656.492,-64.7726"/>
</g>
</g>
</svg>
