<?xml version="1.0" encoding="UTF-8" standalone="no"?>
<!DOCTYPE svg PUBLIC "-//W3C//DTD SVG 1.1//EN"
 "http://www.w3.org/Graphics/SVG/1.1/DTD/svg11.dtd">
<!-- Generated by graphviz version 2.38.0 (20140413.2041)
 -->
<!-- Title: NFCNet.cpp Pages: 1 -->
<!--zoomable 330 -->
<svg id="main" version="1.1" xmlns="http://www.w3.org/2000/svg" xmlns:xlink="http://www.w3.org/1999/xlink" xml:space="preserve" onload="init(evt)">
<style type="text/css"><![CDATA[
.edge:hover path { stroke: red; }
.edge:hover polygon { stroke: red; fill: red; }
]]></style>
<script type="text/javascript"><![CDATA[
var edges = document.getElementsByTagName('g');
if (edges && edges.length) {
  for (var i=0;i<edges.length;i++) {
    if (edges[i].id.substr(0,4)=='edge') {
      edges[i].setAttribute('class','edge');
    }
  }
}
]]></script>
        <defs>
                <circle id="rim" cx="0" cy="0" r="7"/>
                <circle id="rim2" cx="0" cy="0" r="3.5"/>
                <g id="zoomPlus">
                        <use xlink:href="#rim" fill="#404040">
                                <set attributeName="fill" to="#808080" begin="zoomplus.mouseover" end="zoomplus.mouseout"/>
                        </use>
                        <path d="M-4,0h8M0,-4v8" fill="none" stroke="white" stroke-width="1.5" pointer-events="none"/>
                </g>
                <g id="zoomMin">
                        <use xlink:href="#rim" fill="#404040">
                                <set attributeName="fill" to="#808080" begin="zoomminus.mouseover" end="zoomminus.mouseout"/>
                        </use>
                        <path d="M-4,0h8" fill="none" stroke="white" stroke-width="1.5" pointer-events="none"/>
                </g>
                <g id="dirArrow">
                        <path fill="none" stroke="white" stroke-width="1.5" d="M0,-3.0v7 M-2.5,-0.5L0,-3.0L2.5,-0.5"/>
                </g>
               <g id="resetDef">
                       <use xlink:href="#rim2" fill="#404040">
                               <set attributeName="fill" to="#808080" begin="reset.mouseover" end="reset.mouseout"/>
                       </use>
               </g>
        </defs>

<script type="text/javascript">
var viewWidth = 1727;
var viewHeight = 330;
var sectionId = 'dynsection-0';
</script>
<script xlink:href="svgpan.js"/>
<svg id="graph" class="graph">
<g id="viewport">
<title>NFCNet.cpp</title>
<polygon fill="white" stroke="none" points="-4,4 -4,-326 1723,-326 1723,4 -4,4"/>
<!-- Node0 -->
<g id="node1" class="node"><title>Node0</title>
<polygon fill="#bfbfbf" stroke="black" points="935,-302.5 935,-321.5 1005,-321.5 1005,-302.5 935,-302.5"/>
<text text-anchor="middle" x="970" y="-309.5" font-family="Helvetica,sans-Serif" font-size="10.00">NFCNet.cpp</text>
</g>
<!-- Node1 -->
<g id="node2" class="node"><title>Node1</title>
<g id="a_node2"><a xlink:href="_n_f_c_net_8h.html" target="_top" xlink:title="NFCNet.h">
<polygon fill="white" stroke="black" points="749.5,-241 749.5,-260 808.5,-260 808.5,-241 749.5,-241"/>
<text text-anchor="middle" x="779" y="-248" font-family="Helvetica,sans-Serif" font-size="10.00">NFCNet.h</text>
</a>
</g>
</g>
<!-- Node0&#45;&gt;Node1 -->
<g id="edge1" class="edge"><title>Node0&#45;&gt;Node1</title>
<path fill="none" stroke="midnightblue" d="M938.949,-302.477C908.093,-293.85 859.511,-279.844 818,-266 815.602,-265.2 813.13,-264.348 810.65,-263.473"/>
<polygon fill="midnightblue" stroke="midnightblue" points="811.775,-260.158 801.181,-260.045 809.392,-266.74 811.775,-260.158"/>
</g>
<!-- Node32 -->
<g id="node33" class="node"><title>Node32</title>
<polygon fill="white" stroke="#bfbfbf" points="826.5,-241 826.5,-260 875.5,-260 875.5,-241 826.5,-241"/>
<text text-anchor="middle" x="851" y="-248" font-family="Helvetica,sans-Serif" font-size="10.00">string.h</text>
</g>
<!-- Node0&#45;&gt;Node32 -->
<g id="edge35" class="edge"><title>Node0&#45;&gt;Node32</title>
<path fill="none" stroke="midnightblue" d="M952.95,-302.475C933.156,-292.578 900.283,-276.142 877.23,-264.615"/>
<polygon fill="midnightblue" stroke="midnightblue" points="878.528,-261.351 868.018,-260.009 875.397,-267.612 878.528,-261.351"/>
</g>
<!-- Node33 -->
<g id="node34" class="node"><title>Node33</title>
<polygon fill="white" stroke="#bfbfbf" points="894,-241 894,-260 962,-260 962,-241 894,-241"/>
<text text-anchor="middle" x="928" y="-248" font-family="Helvetica,sans-Serif" font-size="10.00">WS2tcpip.h</text>
</g>
<!-- Node0&#45;&gt;Node33 -->
<g id="edge36" class="edge"><title>Node0&#45;&gt;Node33</title>
<path fill="none" stroke="midnightblue" d="M963.982,-302.475C957.745,-293.638 947.827,-279.589 939.982,-268.475"/>
<polygon fill="midnightblue" stroke="midnightblue" points="942.633,-266.16 934.006,-260.009 936.914,-270.197 942.633,-266.16"/>
</g>
<!-- Node34 -->
<g id="node35" class="node"><title>Node34</title>
<polygon fill="white" stroke="#bfbfbf" points="980.5,-241 980.5,-260 1045.5,-260 1045.5,-241 980.5,-241"/>
<text text-anchor="middle" x="1013" y="-248" font-family="Helvetica,sans-Serif" font-size="10.00">winsock2.h</text>
</g>
<!-- Node0&#45;&gt;Node34 -->
<g id="edge37" class="edge"><title>Node0&#45;&gt;Node34</title>
<path fill="none" stroke="midnightblue" d="M976.161,-302.475C982.611,-293.55 992.904,-279.307 1000.97,-268.143"/>
<polygon fill="midnightblue" stroke="midnightblue" points="1003.83,-270.164 1006.85,-260.009 998.156,-266.064 1003.83,-270.164"/>
</g>
<!-- Node35 -->
<g id="node36" class="node"><title>Node35</title>
<polygon fill="white" stroke="#bfbfbf" points="1063.5,-235.5 1063.5,-265.5 1156.5,-265.5 1156.5,-235.5 1063.5,-235.5"/>
<text text-anchor="start" x="1071.5" y="-253.5" font-family="Helvetica,sans-Serif" font-size="10.00">event2/bufferevent</text>
<text text-anchor="middle" x="1110" y="-242.5" font-family="Helvetica,sans-Serif" font-size="10.00">_struct.h</text>
</g>
<!-- Node0&#45;&gt;Node35 -->
<g id="edge38" class="edge"><title>Node0&#45;&gt;Node35</title>
<path fill="none" stroke="midnightblue" d="M990.059,-302.475C1010.17,-293.927 1041.76,-280.501 1067.47,-269.573"/>
<polygon fill="midnightblue" stroke="midnightblue" points="1069.17,-272.656 1077,-265.523 1066.43,-266.213 1069.17,-272.656"/>
</g>
<!-- Node36 -->
<g id="node37" class="node"><title>Node36</title>
<polygon fill="white" stroke="#bfbfbf" points="1175,-241 1175,-260 1253,-260 1253,-241 1175,-241"/>
<text text-anchor="middle" x="1214" y="-248" font-family="Helvetica,sans-Serif" font-size="10.00">event2/event.h</text>
</g>
<!-- Node0&#45;&gt;Node36 -->
<g id="edge39" class="edge"><title>Node0&#45;&gt;Node36</title>
<path fill="none" stroke="midnightblue" d="M1005.23,-303.664C1044.6,-295.291 1110.15,-280.828 1166,-266 1169.62,-265.039 1173.38,-263.991 1177.13,-262.913"/>
<polygon fill="midnightblue" stroke="midnightblue" points="1178.33,-266.209 1186.93,-260.027 1176.35,-259.494 1178.33,-266.209"/>
</g>
<!-- Node2 -->
<g id="node3" class="node"><title>Node2</title>
<g id="a_node3"><a xlink:href="_n_f_i_net_8h.html" target="_top" xlink:title="NFINet.h">
<polygon fill="white" stroke="black" points="717.5,-179.5 717.5,-198.5 772.5,-198.5 772.5,-179.5 717.5,-179.5"/>
<text text-anchor="middle" x="745" y="-186.5" font-family="Helvetica,sans-Serif" font-size="10.00">NFINet.h</text>
</a>
</g>
</g>
<!-- Node1&#45;&gt;Node2 -->
<g id="edge2" class="edge"><title>Node1&#45;&gt;Node2</title>
<path fill="none" stroke="midnightblue" d="M774.129,-240.975C769.13,-232.227 761.211,-218.369 754.891,-207.309"/>
<polygon fill="midnightblue" stroke="midnightblue" points="757.863,-205.455 749.862,-198.509 751.785,-208.928 757.863,-205.455"/>
</g>
<!-- Node31 -->
<g id="node32" class="node"><title>Node31</title>
<polygon fill="white" stroke="#bfbfbf" points="791,-179.5 791,-198.5 835,-198.5 835,-179.5 791,-179.5"/>
<text text-anchor="middle" x="813" y="-186.5" font-family="Helvetica,sans-Serif" font-size="10.00">thread</text>
</g>
<!-- Node1&#45;&gt;Node31 -->
<g id="edge34" class="edge"><title>Node1&#45;&gt;Node31</title>
<path fill="none" stroke="midnightblue" d="M783.871,-240.975C788.87,-232.227 796.789,-218.369 803.109,-207.309"/>
<polygon fill="midnightblue" stroke="midnightblue" points="806.215,-208.928 808.138,-198.509 800.137,-205.455 806.215,-208.928"/>
</g>
<!-- Node3 -->
<g id="node4" class="node"><title>Node3</title>
<polygon fill="white" stroke="#bfbfbf" points="0,-118 0,-137 46,-137 46,-118 0,-118"/>
<text text-anchor="middle" x="23" y="-125" font-family="Helvetica,sans-Serif" font-size="10.00">cstring</text>
</g>
<!-- Node2&#45;&gt;Node3 -->
<g id="edge3" class="edge"><title>Node2&#45;&gt;Node3</title>
<path fill="none" stroke="midnightblue" d="M717.431,-187.52C605.364,-185.367 183.826,-175.249 55,-143 52.7886,-142.446 50.5409,-141.745 48.3145,-140.952"/>
<polygon fill="midnightblue" stroke="midnightblue" points="49.4489,-137.634 38.8701,-137.05 46.7762,-144.103 49.4489,-137.634"/>
</g>
<!-- Node4 -->
<g id="node5" class="node"><title>Node4</title>
<polygon fill="white" stroke="#bfbfbf" points="64.5,-118 64.5,-137 111.5,-137 111.5,-118 64.5,-118"/>
<text text-anchor="middle" x="88" y="-125" font-family="Helvetica,sans-Serif" font-size="10.00">errno.h</text>
</g>
<!-- Node2&#45;&gt;Node4 -->
<g id="edge4" class="edge"><title>Node2&#45;&gt;Node4</title>
<path fill="none" stroke="midnightblue" d="M717.164,-187.055C612.295,-183.327 241.179,-168.581 126,-143 122.995,-142.333 119.911,-141.472 116.863,-140.503"/>
<polygon fill="midnightblue" stroke="midnightblue" points="117.981,-137.186 107.387,-137.146 115.644,-143.785 117.981,-137.186"/>
</g>
<!-- Node5 -->
<g id="node6" class="node"><title>Node5</title>
<polygon fill="white" stroke="#bfbfbf" points="74,-56.5 74,-75.5 120,-75.5 120,-56.5 74,-56.5"/>
<text text-anchor="middle" x="97" y="-63.5" font-family="Helvetica,sans-Serif" font-size="10.00">stdio.h</text>
</g>
<!-- Node2&#45;&gt;Node5 -->
<g id="edge5" class="edge"><title>Node2&#45;&gt;Node5</title>
<path fill="none" stroke="midnightblue" d="M717.333,-188.378C616.527,-189.365 269.647,-189.259 171,-143 143.455,-130.083 120.644,-102.188 107.928,-84.0249"/>
<polygon fill="midnightblue" stroke="midnightblue" points="110.711,-81.8911 102.227,-75.545 104.902,-85.7966 110.711,-81.8911"/>
</g>
<!-- Node6 -->
<g id="node7" class="node"><title>Node6</title>
<polygon fill="white" stroke="#bfbfbf" points="394,-118 394,-137 444,-137 444,-118 394,-118"/>
<text text-anchor="middle" x="419" y="-125" font-family="Helvetica,sans-Serif" font-size="10.00">signal.h</text>
</g>
<!-- Node2&#45;&gt;Node6 -->
<g id="edge6" class="edge"><title>Node2&#45;&gt;Node6</title>
<path fill="none" stroke="midnightblue" d="M717.253,-185.932C664.945,-181.549 548.516,-169.473 454,-143 451.562,-142.317 449.065,-141.512 446.583,-140.636"/>
<polygon fill="midnightblue" stroke="midnightblue" points="447.825,-137.363 437.235,-137.021 445.3,-143.892 447.825,-137.363"/>
</g>
<!-- Node7 -->
<g id="node8" class="node"><title>Node7</title>
<polygon fill="white" stroke="#bfbfbf" points="355.5,-0.5 355.5,-19.5 404.5,-19.5 404.5,-0.5 355.5,-0.5"/>
<text text-anchor="middle" x="380" y="-7.5" font-family="Helvetica,sans-Serif" font-size="10.00">stdint.h</text>
</g>
<!-- Node2&#45;&gt;Node7 -->
<g id="edge7" class="edge"><title>Node2&#45;&gt;Node7</title>
<path fill="none" stroke="midnightblue" d="M717.336,-186.572C636.911,-182.144 407.43,-167.459 385,-143 356.675,-112.113 366.241,-58.0601 374.035,-29.6537"/>
<polygon fill="midnightblue" stroke="midnightblue" points="377.467,-30.3937 376.953,-19.8113 370.755,-28.4042 377.467,-30.3937"/>
</g>
<!-- Node8 -->
<g id="node9" class="node"><title>Node8</title>
<polygon fill="white" stroke="#bfbfbf" points="138,-56.5 138,-75.5 192,-75.5 192,-56.5 138,-56.5"/>
<text text-anchor="middle" x="165" y="-63.5" font-family="Helvetica,sans-Serif" font-size="10.00">iostream</text>
</g>
<!-- Node2&#45;&gt;Node8 -->
<g id="edge8" class="edge"><title>Node2&#45;&gt;Node8</title>
<path fill="none" stroke="midnightblue" d="M717.343,-187.391C611.97,-184.848 239.416,-173.739 197,-143 178.655,-129.706 170.762,-103.806 167.41,-85.9652"/>
<polygon fill="midnightblue" stroke="midnightblue" points="170.831,-85.1892 165.827,-75.8507 163.915,-86.2716 170.831,-85.1892"/>
</g>
<!-- Node9 -->
<g id="node10" class="node"><title>Node9</title>
<polygon fill="white" stroke="#bfbfbf" points="462.5,-118 462.5,-137 497.5,-137 497.5,-118 462.5,-118"/>
<text text-anchor="middle" x="480" y="-125" font-family="Helvetica,sans-Serif" font-size="10.00">map</text>
</g>
<!-- Node2&#45;&gt;Node9 -->
<g id="edge9" class="edge"><title>Node2&#45;&gt;Node9</title>
<path fill="none" stroke="midnightblue" d="M717.159,-185.52C671.975,-180.885 580.346,-168.933 507,-143 505.758,-142.561 504.505,-142.071 503.252,-141.545"/>
<polygon fill="midnightblue" stroke="midnightblue" points="504.444,-138.233 493.919,-137.021 501.391,-144.532 504.444,-138.233"/>
</g>
<!-- Node10 -->
<g id="node11" class="node"><title>Node10</title>
<g id="a_node11"><a xlink:href="_n_f_g_u_i_d_8h.html" target="_top" xlink:title="NFComm/NFPluginModule\l/NFGUID.h">
<polygon fill="white" stroke="black" points="206,-112.5 206,-142.5 338,-142.5 338,-112.5 206,-112.5"/>
<text text-anchor="start" x="214" y="-130.5" font-family="Helvetica,sans-Serif" font-size="10.00">NFComm/NFPluginModule</text>
<text text-anchor="middle" x="272" y="-119.5" font-family="Helvetica,sans-Serif" font-size="10.00">/NFGUID.h</text>
</a>
</g>
</g>
<!-- Node2&#45;&gt;Node10 -->
<g id="edge10" class="edge"><title>Node2&#45;&gt;Node10</title>
<path fill="none" stroke="midnightblue" d="M717.284,-185.454C652.949,-179.409 488.555,-163.171 352,-143 350.743,-142.814 349.476,-142.624 348.201,-142.429"/>
<polygon fill="midnightblue" stroke="midnightblue" points="348.724,-138.968 338.299,-140.861 347.629,-145.882 348.724,-138.968"/>
</g>
<!-- Node17 -->
<g id="node18" class="node"><title>Node17</title>
<polygon fill="white" stroke="#bfbfbf" points="515.5,-118 515.5,-137 580.5,-137 580.5,-118 515.5,-118"/>
<text text-anchor="middle" x="548" y="-125" font-family="Helvetica,sans-Serif" font-size="10.00">netinet/in.h</text>
</g>
<!-- Node2&#45;&gt;Node17 -->
<g id="edge20" class="edge"><title>Node2&#45;&gt;Node17</title>
<path fill="none" stroke="midnightblue" d="M717.436,-180.445C686.345,-171.82 634.333,-157.078 590,-143 587.401,-142.175 584.72,-141.301 582.028,-140.408"/>
<polygon fill="midnightblue" stroke="midnightblue" points="582.956,-137.027 572.361,-137.141 580.714,-143.659 582.956,-137.027"/>
</g>
<!-- Node18 -->
<g id="node19" class="node"><title>Node18</title>
<polygon fill="white" stroke="#bfbfbf" points="598.5,-118 598.5,-137 671.5,-137 671.5,-118 598.5,-118"/>
<text text-anchor="middle" x="635" y="-125" font-family="Helvetica,sans-Serif" font-size="10.00">sys/socket.h</text>
</g>
<!-- Node2&#45;&gt;Node18 -->
<g id="edge21" class="edge"><title>Node2&#45;&gt;Node18</title>
<path fill="none" stroke="midnightblue" d="M729.24,-179.475C711.024,-169.622 680.827,-153.288 659.532,-141.77"/>
<polygon fill="midnightblue" stroke="midnightblue" points="661.192,-138.688 650.731,-137.009 657.862,-144.845 661.192,-138.688"/>
</g>
<!-- Node19 -->
<g id="node20" class="node"><title>Node19</title>
<polygon fill="white" stroke="#bfbfbf" points="690,-118 690,-137 732,-137 732,-118 690,-118"/>
<text text-anchor="middle" x="711" y="-125" font-family="Helvetica,sans-Serif" font-size="10.00">vector</text>
</g>
<!-- Node2&#45;&gt;Node19 -->
<g id="edge22" class="edge"><title>Node2&#45;&gt;Node19</title>
<path fill="none" stroke="midnightblue" d="M740.129,-179.475C735.13,-170.727 727.211,-156.869 720.891,-145.809"/>
<polygon fill="midnightblue" stroke="midnightblue" points="723.863,-143.955 715.862,-137.009 717.785,-147.428 723.863,-143.955"/>
</g>
<!-- Node20 -->
<g id="node21" class="node"><title>Node20</title>
<polygon fill="white" stroke="#bfbfbf" points="750,-118 750,-137 808,-137 808,-118 750,-118"/>
<text text-anchor="middle" x="779" y="-125" font-family="Helvetica,sans-Serif" font-size="10.00">functional</text>
</g>
<!-- Node2&#45;&gt;Node20 -->
<g id="edge23" class="edge"><title>Node2&#45;&gt;Node20</title>
<path fill="none" stroke="midnightblue" d="M749.871,-179.475C754.87,-170.727 762.789,-156.869 769.109,-145.809"/>
<polygon fill="midnightblue" stroke="midnightblue" points="772.215,-147.428 774.138,-137.009 766.137,-143.955 772.215,-147.428"/>
</g>
<!-- Node21 -->
<g id="node22" class="node"><title>Node21</title>
<polygon fill="white" stroke="#bfbfbf" points="826,-118 826,-137 878,-137 878,-118 826,-118"/>
<text text-anchor="middle" x="852" y="-125" font-family="Helvetica,sans-Serif" font-size="10.00">memory</text>
</g>
<!-- Node2&#45;&gt;Node21 -->
<g id="edge24" class="edge"><title>Node2&#45;&gt;Node21</title>
<path fill="none" stroke="midnightblue" d="M760.33,-179.475C777.97,-169.666 807.16,-153.435 827.858,-141.925"/>
<polygon fill="midnightblue" stroke="midnightblue" points="829.659,-144.928 836.698,-137.009 826.257,-138.81 829.659,-144.928"/>
</g>
<!-- Node22 -->
<g id="node23" class="node"><title>Node22</title>
<polygon fill="white" stroke="#bfbfbf" points="896.5,-118 896.5,-137 925.5,-137 925.5,-118 896.5,-118"/>
<text text-anchor="middle" x="911" y="-125" font-family="Helvetica,sans-Serif" font-size="10.00">list</text>
</g>
<!-- Node2&#45;&gt;Node22 -->
<g id="edge25" class="edge"><title>Node2&#45;&gt;Node22</title>
<path fill="none" stroke="midnightblue" d="M772.67,-181.313C801.82,-173.794 848.717,-160.334 887,-143 887.698,-142.684 888.402,-142.352 889.107,-142.006"/>
<polygon fill="midnightblue" stroke="midnightblue" points="891.027,-144.945 898.101,-137.057 887.652,-138.812 891.027,-144.945"/>
</g>
<!-- Node23 -->
<g id="node24" class="node"><title>Node23</title>
<polygon fill="white" stroke="#bfbfbf" points="943.5,-118 943.5,-137 1044.5,-137 1044.5,-118 943.5,-118"/>
<text text-anchor="middle" x="994" y="-125" font-family="Helvetica,sans-Serif" font-size="10.00">event2/bufferevent.h</text>
</g>
<!-- Node2&#45;&gt;Node23 -->
<g id="edge26" class="edge"><title>Node2&#45;&gt;Node23</title>
<path fill="none" stroke="midnightblue" d="M772.875,-181.196C775.953,-180.452 779.042,-179.708 782,-179 849.939,-162.744 867.08,-159.336 935,-143 939.689,-141.872 944.584,-140.685 949.464,-139.495"/>
<polygon fill="midnightblue" stroke="midnightblue" points="950.503,-142.844 959.384,-137.068 948.839,-136.045 950.503,-142.844"/>
</g>
<!-- Node24 -->
<g id="node25" class="node"><title>Node24</title>
<polygon fill="white" stroke="#bfbfbf" points="1062.5,-118 1062.5,-137 1141.5,-137 1141.5,-118 1062.5,-118"/>
<text text-anchor="middle" x="1102" y="-125" font-family="Helvetica,sans-Serif" font-size="10.00">event2/buffer.h</text>
</g>
<!-- Node2&#45;&gt;Node24 -->
<g id="edge27" class="edge"><title>Node2&#45;&gt;Node24</title>
<path fill="none" stroke="midnightblue" d="M772.811,-180.897C775.901,-180.209 779.011,-179.56 782,-179 901.86,-156.557 934.799,-168.716 1054,-143 1058.16,-142.102 1062.49,-141.017 1066.76,-139.85"/>
<polygon fill="midnightblue" stroke="midnightblue" points="1067.91,-143.163 1076.54,-137.026 1065.96,-136.438 1067.91,-143.163"/>
</g>
<!-- Node25 -->
<g id="node26" class="node"><title>Node25</title>
<polygon fill="white" stroke="#bfbfbf" points="1159.5,-118 1159.5,-137 1246.5,-137 1246.5,-118 1159.5,-118"/>
<text text-anchor="middle" x="1203" y="-125" font-family="Helvetica,sans-Serif" font-size="10.00">event2/listener.h</text>
</g>
<!-- Node2&#45;&gt;Node25 -->
<g id="edge28" class="edge"><title>Node2&#45;&gt;Node25</title>
<path fill="none" stroke="midnightblue" d="M772.793,-180.793C775.886,-180.124 779.002,-179.508 782,-179 944.461,-151.458 989.021,-173.245 1151,-143 1155.87,-142.091 1160.94,-140.939 1165.93,-139.684"/>
<polygon fill="midnightblue" stroke="midnightblue" points="1167.2,-142.969 1175.95,-137.006 1165.39,-136.206 1167.2,-142.969"/>
</g>
<!-- Node26 -->
<g id="node27" class="node"><title>Node26</title>
<polygon fill="white" stroke="#bfbfbf" points="1265,-118 1265,-137 1333,-137 1333,-118 1265,-118"/>
<text text-anchor="middle" x="1299" y="-125" font-family="Helvetica,sans-Serif" font-size="10.00">event2/util.h</text>
</g>
<!-- Node2&#45;&gt;Node26 -->
<g id="edge29" class="edge"><title>Node2&#45;&gt;Node26</title>
<path fill="none" stroke="midnightblue" d="M772.782,-180.728C775.878,-180.072 778.996,-179.476 782,-179 990.668,-145.923 1048.96,-185.081 1256,-143 1259.69,-142.25 1263.5,-141.274 1267.26,-140.183"/>
<polygon fill="midnightblue" stroke="midnightblue" points="1268.5,-143.463 1276.97,-137.102 1266.38,-136.791 1268.5,-143.463"/>
</g>
<!-- Node27 -->
<g id="node28" class="node"><title>Node27</title>
<polygon fill="white" stroke="#bfbfbf" points="1351.5,-118 1351.5,-137 1434.5,-137 1434.5,-118 1351.5,-118"/>
<text text-anchor="middle" x="1393" y="-125" font-family="Helvetica,sans-Serif" font-size="10.00">event2/thread.h</text>
</g>
<!-- Node2&#45;&gt;Node27 -->
<g id="edge30" class="edge"><title>Node2&#45;&gt;Node27</title>
<path fill="none" stroke="midnightblue" d="M772.777,-180.693C775.873,-180.043 778.994,-179.459 782,-179 1028.55,-141.384 1096.22,-185.342 1342,-143 1346.9,-142.156 1352.01,-141.022 1357.01,-139.758"/>
<polygon fill="midnightblue" stroke="midnightblue" points="1358.31,-143.033 1367.04,-137.034 1356.47,-136.277 1358.31,-143.033"/>
</g>
<!-- Node28 -->
<g id="node29" class="node"><title>Node28</title>
<polygon fill="white" stroke="#bfbfbf" points="1453,-118 1453,-137 1569,-137 1569,-118 1453,-118"/>
<text text-anchor="middle" x="1511" y="-125" font-family="Helvetica,sans-Serif" font-size="10.00">event2/event_compat.h</text>
</g>
<!-- Node2&#45;&gt;Node28 -->
<g id="edge31" class="edge"><title>Node2&#45;&gt;Node28</title>
<path fill="none" stroke="midnightblue" d="M772.772,-180.663C775.87,-180.019 778.992,-179.444 782,-179 1073.5,-135.996 1151.97,-182.287 1444,-143 1451.46,-141.996 1459.33,-140.602 1466.95,-139.073"/>
<polygon fill="midnightblue" stroke="midnightblue" points="1467.69,-142.493 1476.76,-137.006 1466.25,-135.643 1467.69,-142.493"/>
</g>
<!-- Node29 -->
<g id="node30" class="node"><title>Node29</title>
<polygon fill="white" stroke="#bfbfbf" points="1587,-118 1587,-137 1639,-137 1639,-118 1587,-118"/>
<text text-anchor="middle" x="1613" y="-125" font-family="Helvetica,sans-Serif" font-size="10.00">assert.h</text>
</g>
<!-- Node2&#45;&gt;Node29 -->
<g id="edge32" class="edge"><title>Node2&#45;&gt;Node29</title>
<path fill="none" stroke="midnightblue" d="M772.768,-180.636C775.866,-179.996 778.99,-179.43 782,-179 1132.58,-128.915 1232.32,-219.93 1578,-143 1580.68,-142.404 1583.41,-141.618 1586.11,-140.719"/>
<polygon fill="midnightblue" stroke="midnightblue" points="1587.49,-143.941 1595.58,-137.11 1584.99,-137.399 1587.49,-143.941"/>
</g>
<!-- Node30 -->
<g id="node31" class="node"><title>Node30</title>
<polygon fill="white" stroke="#bfbfbf" points="1657,-118 1657,-137 1719,-137 1719,-118 1657,-118"/>
<text text-anchor="middle" x="1688" y="-125" font-family="Helvetica,sans-Serif" font-size="10.00">windows.h</text>
</g>
<!-- Node2&#45;&gt;Node30 -->
<g id="edge33" class="edge"><title>Node2&#45;&gt;Node30</title>
<path fill="none" stroke="midnightblue" d="M772.767,-180.624C775.865,-179.987 778.989,-179.425 782,-179 1163.45,-125.215 1270.05,-217.513 1648,-143 1651.44,-142.322 1654.98,-141.398 1658.46,-140.341"/>
<polygon fill="midnightblue" stroke="midnightblue" points="1659.65,-143.634 1667.99,-137.11 1657.4,-137.004 1659.65,-143.634"/>
</g>
<!-- Node10&#45;&gt;Node5 -->
<g id="edge18" class="edge"><title>Node10&#45;&gt;Node5</title>
<path fill="none" stroke="midnightblue" d="M230.527,-112.399C199.787,-101.947 158.45,-87.8931 129.954,-78.2043"/>
<polygon fill="midnightblue" stroke="midnightblue" points="131.042,-74.8777 120.448,-74.9723 128.789,-81.5051 131.042,-74.8777"/>
</g>
<!-- Node10&#45;&gt;Node8 -->
<g id="edge17" class="edge"><title>Node10&#45;&gt;Node8</title>
<path fill="none" stroke="midnightblue" d="M246.642,-112.399C229.331,-102.773 206.524,-90.0902 189.416,-80.5772"/>
<polygon fill="midnightblue" stroke="midnightblue" points="191.01,-77.4588 180.569,-75.6578 187.608,-83.5766 191.01,-77.4588"/>
</g>
<!-- Node11 -->
<g id="node12" class="node"><title>Node11</title>
<g id="a_node12"><a xlink:href="_n_f_platform_8h.html" target="_top" xlink:title="NFPlatform.h">
<polygon fill="white" stroke="black" points="210,-56.5 210,-75.5 284,-75.5 284,-56.5 210,-56.5"/>
<text text-anchor="middle" x="247" y="-63.5" font-family="Helvetica,sans-Serif" font-size="10.00">NFPlatform.h</text>
</a>
</g>
</g>
<!-- Node10&#45;&gt;Node11 -->
<g id="edge11" class="edge"><title>Node10&#45;&gt;Node11</title>
<path fill="none" stroke="midnightblue" d="M266.075,-112.399C262.63,-104.199 258.252,-93.7809 254.56,-84.9936"/>
<polygon fill="midnightblue" stroke="midnightblue" points="257.738,-83.5213 250.638,-75.6578 251.285,-86.2328 257.738,-83.5213"/>
</g>
<!-- Node16 -->
<g id="node17" class="node"><title>Node16</title>
<polygon fill="white" stroke="#bfbfbf" points="302,-56.5 302,-75.5 350,-75.5 350,-56.5 302,-56.5"/>
<text text-anchor="middle" x="326" y="-63.5" font-family="Helvetica,sans-Serif" font-size="10.00">stdlib.h</text>
</g>
<!-- Node10&#45;&gt;Node16 -->
<g id="edge19" class="edge"><title>Node10&#45;&gt;Node16</title>
<path fill="none" stroke="midnightblue" d="M284.797,-112.399C292.725,-103.664 302.936,-92.4126 311.21,-83.2962"/>
<polygon fill="midnightblue" stroke="midnightblue" points="314.014,-85.415 318.143,-75.6578 308.83,-80.7106 314.014,-85.415"/>
</g>
<!-- Node11&#45;&gt;Node7 -->
<g id="edge12" class="edge"><title>Node11&#45;&gt;Node7</title>
<path fill="none" stroke="midnightblue" d="M268.074,-56.4435C290.06,-47.5171 324.734,-33.4387 349.664,-23.3168"/>
<polygon fill="midnightblue" stroke="midnightblue" points="351.076,-26.5213 359.024,-19.5164 348.442,-20.0355 351.076,-26.5213"/>
</g>
<!-- Node12 -->
<g id="node13" class="node"><title>Node12</title>
<polygon fill="white" stroke="#bfbfbf" points="223,-0.5 223,-19.5 267,-19.5 267,-0.5 223,-0.5"/>
<text text-anchor="middle" x="245" y="-7.5" font-family="Helvetica,sans-Serif" font-size="10.00">time.h</text>
</g>
<!-- Node11&#45;&gt;Node12 -->
<g id="edge13" class="edge"><title>Node11&#45;&gt;Node12</title>
<path fill="none" stroke="midnightblue" d="M246.67,-56.083C246.408,-49.0059 246.032,-38.8611 245.703,-29.9865"/>
<polygon fill="midnightblue" stroke="midnightblue" points="249.192,-29.6147 245.324,-19.7511 242.197,-29.8738 249.192,-29.6147"/>
</g>
<!-- Node13 -->
<g id="node14" class="node"><title>Node13</title>
<polygon fill="white" stroke="#bfbfbf" points="285,-0.5 285,-19.5 337,-19.5 337,-0.5 285,-0.5"/>
<text text-anchor="middle" x="311" y="-7.5" font-family="Helvetica,sans-Serif" font-size="10.00">sstream</text>
</g>
<!-- Node11&#45;&gt;Node13 -->
<g id="edge14" class="edge"><title>Node11&#45;&gt;Node13</title>
<path fill="none" stroke="midnightblue" d="M257.283,-56.324C266.836,-48.2631 281.28,-36.0765 292.784,-26.3695"/>
<polygon fill="midnightblue" stroke="midnightblue" points="295.144,-28.9577 300.53,-19.8339 290.63,-23.6076 295.144,-28.9577"/>
</g>
<!-- Node14 -->
<g id="node15" class="node"><title>Node14</title>
<polygon fill="white" stroke="#bfbfbf" points="17,-0.5 17,-19.5 145,-19.5 145,-0.5 17,-0.5"/>
<text text-anchor="middle" x="81" y="-7.5" font-family="Helvetica,sans-Serif" font-size="10.00">common/lexical_cast.hpp</text>
</g>
<!-- Node11&#45;&gt;Node14 -->
<g id="edge15" class="edge"><title>Node11&#45;&gt;Node14</title>
<path fill="none" stroke="midnightblue" d="M220.697,-56.4435C192.649,-47.3196 148.056,-32.8133 116.816,-22.6509"/>
<polygon fill="midnightblue" stroke="midnightblue" points="117.772,-19.2816 107.18,-19.5164 115.607,-25.9383 117.772,-19.2816"/>
</g>
<!-- Node15 -->
<g id="node16" class="node"><title>Node15</title>
<polygon fill="white" stroke="#bfbfbf" points="163.5,-0.5 163.5,-19.5 204.5,-19.5 204.5,-0.5 163.5,-0.5"/>
<text text-anchor="middle" x="184" y="-7.5" font-family="Helvetica,sans-Serif" font-size="10.00">string</text>
</g>
<!-- Node11&#45;&gt;Node15 -->
<g id="edge16" class="edge"><title>Node11&#45;&gt;Node15</title>
<path fill="none" stroke="midnightblue" d="M236.878,-56.324C227.474,-48.2631 213.256,-36.0765 201.931,-26.3695"/>
<polygon fill="midnightblue" stroke="midnightblue" points="204.177,-23.6844 194.306,-19.8339 199.621,-28.9993 204.177,-23.6844"/>
</g>
</g>
</svg>
        <g id="navigator" transform="translate(0 0)" fill="#404254">
                <rect fill="#f2f5e9" fill-opacity="0.5" stroke="#606060" stroke-width=".5" x="0" y="0" width="60" height="60"/>
                <use id="zoomplus" xlink:href="#zoomPlus" x="17" y="9" onmousedown="handleZoom(evt,'in')"/>
                <use id="zoomminus" xlink:href="#zoomMin" x="42" y="9" onmousedown="handleZoom(evt,'out')"/>
                <use id="reset" xlink:href="#resetDef" x="30" y="36" onmousedown="handleReset()"/>
                <g id="arrowUp" xlink:href="#dirArrow" transform="translate(30 24)" onmousedown="handlePan(0,-1)">
                  <use xlink:href="#rim" fill="#404040">
                        <set attributeName="fill" to="#808080" begin="arrowUp.mouseover" end="arrowUp.mouseout"/>
                  </use>
                  <path fill="none" stroke="white" stroke-width="1.5" d="M0,-3.0v7 M-2.5,-0.5L0,-3.0L2.5,-0.5"/>
                </g>
                <g id="arrowRight" xlink:href="#dirArrow" transform="rotate(90) translate(36 -43)" onmousedown="handlePan(1,0)">
                  <use xlink:href="#rim" fill="#404040">
                        <set attributeName="fill" to="#808080" begin="arrowRight.mouseover" end="arrowRight.mouseout"/>
                  </use>
                  <path fill="none" stroke="white" stroke-width="1.5" d="M0,-3.0v7 M-2.5,-0.5L0,-3.0L2.5,-0.5"/>
                </g>
                <g id="arrowDown" xlink:href="#dirArrow" transform="rotate(180) translate(-30 -48)" onmousedown="handlePan(0,1)">
                  <use xlink:href="#rim" fill="#404040">
                        <set attributeName="fill" to="#808080" begin="arrowDown.mouseover" end="arrowDown.mouseout"/>
                  </use>
                  <path fill="none" stroke="white" stroke-width="1.5" d="M0,-3.0v7 M-2.5,-0.5L0,-3.0L2.5,-0.5"/>
                </g>
                <g id="arrowLeft" xlink:href="#dirArrow" transform="rotate(270) translate(-36 17)" onmousedown="handlePan(-1,0)">
                  <use xlink:href="#rim" fill="#404040">
                        <set attributeName="fill" to="#808080" begin="arrowLeft.mouseover" end="arrowLeft.mouseout"/>
                  </use>
                  <path fill="none" stroke="white" stroke-width="1.5" d="M0,-3.0v7 M-2.5,-0.5L0,-3.0L2.5,-0.5"/>
                </g>
        </g>
        <svg viewBox="0 0 15 15" width="100%" height="30px" preserveAspectRatio="xMaxYMin meet">
         <g id="arrow_out" transform="scale(0.3 0.3)">
          <a xlink:href="_n_f_c_net_8cpp__incl_org.svg" target="_base">
           <rect id="button" ry="5" rx="5" y="6" x="6" height="38" width="38"
                fill="#f2f5e9" fill-opacity="0.5" stroke="#606060" stroke-width="1.0"/>
           <path id="arrow"
             d="M 11.500037,31.436501 C 11.940474,20.09759 22.043105,11.32322 32.158766,21.979434 L 37.068811,17.246167 C 37.068811,17.246167 37.088388,32 37.088388,32 L 22.160133,31.978069 C 22.160133,31.978069 26.997745,27.140456 26.997745,27.140456 C 18.528582,18.264221 13.291696,25.230495 11.500037,31.436501 z"
             style="fill:#404040;"/>
          </a>
         </g>
        </svg>
</svg>
