<?xml version="1.0" encoding="UTF-8" standalone="no"?>
<!DOCTYPE svg PUBLIC "-//W3C//DTD SVG 1.1//EN"
 "http://www.w3.org/Graphics/SVG/1.1/DTD/svg11.dtd">
<!-- Generated by graphviz version 2.38.0 (20140413.2041)
 -->
<!-- Title: NFCWorldNet_ServerModule.h Pages: 1 -->
<svg width="334pt" height="84pt"
 viewBox="0.00 0.00 333.50 84.00" xmlns="http://www.w3.org/2000/svg" xmlns:xlink="http://www.w3.org/1999/xlink">
<g id="graph0" class="graph" transform="scale(1 1) rotate(0) translate(4 80)">
<title>NFCWorldNet_ServerModule.h</title>
<polygon fill="white" stroke="none" points="-4,4 -4,-80 329.5,-80 329.5,4 -4,4"/>
<!-- Node74 -->
<g id="node1" class="node"><title>Node74</title>
<polygon fill="#bfbfbf" stroke="black" points="91,-56.5 91,-75.5 240,-75.5 240,-56.5 91,-56.5"/>
<text text-anchor="middle" x="165.5" y="-63.5" font-family="Helvetica,sans-Serif" font-size="10.00">NFCWorldNet_ServerModule.h</text>
</g>
<!-- Node75 -->
<g id="node2" class="node"><title>Node75</title>
<g id="a_node2"><a xlink:href="_n_f_c_world_net___server_module_8cpp.html" target="_top" xlink:title="NFCWorldNet_ServerModule.cpp">
<polygon fill="white" stroke="black" points="0,-0.5 0,-19.5 159,-19.5 159,-0.5 0,-0.5"/>
<text text-anchor="middle" x="79.5" y="-7.5" font-family="Helvetica,sans-Serif" font-size="10.00">NFCWorldNet_ServerModule.cpp</text>
</a>
</g>
</g>
<!-- Node74&#45;&gt;Node75 -->
<g id="edge1" class="edge"><title>Node74&#45;&gt;Node75</title>
<path fill="none" stroke="midnightblue" d="M143.045,-50.9005C127.276,-40.9986 106.686,-28.0705 93.2831,-19.6545"/>
<polygon fill="midnightblue" stroke="midnightblue" points="141.352,-53.9704 151.683,-56.324 145.075,-48.0421 141.352,-53.9704"/>
</g>
<!-- Node76 -->
<g id="node3" class="node"><title>Node76</title>
<g id="a_node3"><a xlink:href="_n_f_world_net___server_plugin_8cpp.html" target="_top" xlink:title="NFWorldNet_ServerPlugin.cpp">
<polygon fill="white" stroke="black" points="177.5,-0.5 177.5,-19.5 325.5,-19.5 325.5,-0.5 177.5,-0.5"/>
<text text-anchor="middle" x="251.5" y="-7.5" font-family="Helvetica,sans-Serif" font-size="10.00">NFWorldNet_ServerPlugin.cpp</text>
</a>
</g>
</g>
<!-- Node74&#45;&gt;Node76 -->
<g id="edge2" class="edge"><title>Node74&#45;&gt;Node76</title>
<path fill="none" stroke="midnightblue" d="M187.955,-50.9005C203.724,-40.9986 224.314,-28.0705 237.717,-19.6545"/>
<polygon fill="midnightblue" stroke="midnightblue" points="185.925,-48.0421 179.317,-56.324 189.648,-53.9704 185.925,-48.0421"/>
</g>
</g>
</svg>
