<?xml version="1.0" encoding="UTF-8" standalone="no"?>
<!DOCTYPE svg PUBLIC "-//W3C//DTD SVG 1.1//EN"
 "http://www.w3.org/Graphics/SVG/1.1/DTD/svg11.dtd">
<!-- Generated by graphviz version 2.38.0 (20140413.2041)
 -->
<!-- Title: NFCRecordManager.h Pages: 1 -->
<!--zoomable 431 -->
<svg id="main" version="1.1" xmlns="http://www.w3.org/2000/svg" xmlns:xlink="http://www.w3.org/1999/xlink" xml:space="preserve" onload="init(evt)">
<style type="text/css"><![CDATA[
.edge:hover path { stroke: red; }
.edge:hover polygon { stroke: red; fill: red; }
]]></style>
<script type="text/javascript"><![CDATA[
var edges = document.getElementsByTagName('g');
if (edges && edges.length) {
  for (var i=0;i<edges.length;i++) {
    if (edges[i].id.substr(0,4)=='edge') {
      edges[i].setAttribute('class','edge');
    }
  }
}
]]></script>
        <defs>
                <circle id="rim" cx="0" cy="0" r="7"/>
                <circle id="rim2" cx="0" cy="0" r="3.5"/>
                <g id="zoomPlus">
                        <use xlink:href="#rim" fill="#404040">
                                <set attributeName="fill" to="#808080" begin="zoomplus.mouseover" end="zoomplus.mouseout"/>
                        </use>
                        <path d="M-4,0h8M0,-4v8" fill="none" stroke="white" stroke-width="1.5" pointer-events="none"/>
                </g>
                <g id="zoomMin">
                        <use xlink:href="#rim" fill="#404040">
                                <set attributeName="fill" to="#808080" begin="zoomminus.mouseover" end="zoomminus.mouseout"/>
                        </use>
                        <path d="M-4,0h8" fill="none" stroke="white" stroke-width="1.5" pointer-events="none"/>
                </g>
                <g id="dirArrow">
                        <path fill="none" stroke="white" stroke-width="1.5" d="M0,-3.0v7 M-2.5,-0.5L0,-3.0L2.5,-0.5"/>
                </g>
               <g id="resetDef">
                       <use xlink:href="#rim2" fill="#404040">
                               <set attributeName="fill" to="#808080" begin="reset.mouseover" end="reset.mouseout"/>
                       </use>
               </g>
        </defs>

<script type="text/javascript">
var viewWidth = 1567;
var viewHeight = 431;
var sectionId = 'dynsection-0';
</script>
<script xlink:href="svgpan.js"/>
<svg id="graph" class="graph">
<g id="viewport">
<title>NFCRecordManager.h</title>
<polygon fill="white" stroke="none" points="-4,4 -4,-427 1563,-427 1563,4 -4,4"/>
<!-- Node0 -->
<g id="node1" class="node"><title>Node0</title>
<polygon fill="#bfbfbf" stroke="black" points="1308.5,-403.5 1308.5,-422.5 1421.5,-422.5 1421.5,-403.5 1308.5,-403.5"/>
<text text-anchor="middle" x="1365" y="-410.5" font-family="Helvetica,sans-Serif" font-size="10.00">NFCRecordManager.h</text>
</g>
<!-- Node1 -->
<g id="node2" class="node"><title>Node1</title>
<polygon fill="white" stroke="#bfbfbf" points="1381.5,-118 1381.5,-137 1416.5,-137 1416.5,-118 1381.5,-118"/>
<text text-anchor="middle" x="1399" y="-125" font-family="Helvetica,sans-Serif" font-size="10.00">map</text>
</g>
<!-- Node0&#45;&gt;Node1 -->
<g id="edge1" class="edge"><title>Node0&#45;&gt;Node1</title>
<path fill="none" stroke="midnightblue" d="M1401.58,-403.462C1447.68,-390.274 1521,-360.159 1521,-302 1521,-302 1521,-302 1521,-244 1521,-192.146 1462.16,-156.609 1426.21,-139.735"/>
<polygon fill="midnightblue" stroke="midnightblue" points="1427.3,-136.387 1416.74,-135.473 1424.42,-142.77 1427.3,-136.387"/>
</g>
<!-- Node2 -->
<g id="node3" class="node"><title>Node2</title>
<polygon fill="white" stroke="#bfbfbf" points="1334.5,-118 1334.5,-137 1363.5,-137 1363.5,-118 1334.5,-118"/>
<text text-anchor="middle" x="1349" y="-125" font-family="Helvetica,sans-Serif" font-size="10.00">list</text>
</g>
<!-- Node0&#45;&gt;Node2 -->
<g id="edge2" class="edge"><title>Node0&#45;&gt;Node2</title>
<path fill="none" stroke="midnightblue" d="M1370.7,-403.288C1381.97,-385.205 1406,-341.946 1406,-302 1406,-302 1406,-302 1406,-244 1406,-205.283 1379.93,-166.104 1363.05,-144.798"/>
<polygon fill="midnightblue" stroke="midnightblue" points="1365.74,-142.562 1356.69,-137.057 1360.33,-147.006 1365.74,-142.562"/>
</g>
<!-- Node3 -->
<g id="node4" class="node"><title>Node3</title>
<polygon fill="white" stroke="#bfbfbf" points="1285.5,-0.5 1285.5,-19.5 1326.5,-19.5 1326.5,-0.5 1285.5,-0.5"/>
<text text-anchor="middle" x="1306" y="-7.5" font-family="Helvetica,sans-Serif" font-size="10.00">string</text>
</g>
<!-- Node0&#45;&gt;Node3 -->
<g id="edge3" class="edge"><title>Node0&#45;&gt;Node3</title>
<path fill="none" stroke="midnightblue" d="M1421.63,-404.297C1478.9,-392.949 1559,-365.691 1559,-302 1559,-302 1559,-302 1559,-126.5 1559,-29.7938 1404.14,-13.7097 1336.73,-11.2893"/>
<polygon fill="midnightblue" stroke="midnightblue" points="1336.8,-7.7898 1326.7,-11.0079 1336.6,-14.787 1336.8,-7.7898"/>
</g>
<!-- Node4 -->
<g id="node5" class="node"><title>Node4</title>
<polygon fill="white" stroke="#bfbfbf" points="0,-118 0,-137 42,-137 42,-118 0,-118"/>
<text text-anchor="middle" x="21" y="-125" font-family="Helvetica,sans-Serif" font-size="10.00">vector</text>
</g>
<!-- Node0&#45;&gt;Node4 -->
<g id="edge4" class="edge"><title>Node0&#45;&gt;Node4</title>
<path fill="none" stroke="midnightblue" d="M1308.21,-409.784C1070.93,-400.157 171,-359.832 171,-302 171,-302 171,-302 171,-244 171,-212.985 89.4775,-164.927 46.6314,-141.811"/>
<polygon fill="midnightblue" stroke="midnightblue" points="48.097,-138.626 37.6257,-137.012 44.8051,-144.804 48.097,-138.626"/>
</g>
<!-- Node5 -->
<g id="node6" class="node"><title>Node5</title>
<g id="a_node6"><a xlink:href="_n_f_c_record_8h.html" target="_top" xlink:title="NFCRecord.h">
<polygon fill="white" stroke="black" points="809.5,-347.5 809.5,-366.5 884.5,-366.5 884.5,-347.5 809.5,-347.5"/>
<text text-anchor="middle" x="847" y="-354.5" font-family="Helvetica,sans-Serif" font-size="10.00">NFCRecord.h</text>
</a>
</g>
</g>
<!-- Node0&#45;&gt;Node5 -->
<g id="edge5" class="edge"><title>Node0&#45;&gt;Node5</title>
<path fill="none" stroke="midnightblue" d="M1308.08,-406.067C1205.26,-395.347 990.343,-372.943 894.687,-362.971"/>
<polygon fill="midnightblue" stroke="midnightblue" points="895.026,-359.488 884.717,-361.932 894.3,-366.45 895.026,-359.488"/>
</g>
<!-- Node30 -->
<g id="node31" class="node"><title>Node30</title>
<g id="a_node31"><a xlink:href="_n_f_i_record_manager_8h.html" target="_top" xlink:title="NFIRecordManager.h">
<polygon fill="white" stroke="black" points="1270,-347.5 1270,-366.5 1378,-366.5 1378,-347.5 1270,-347.5"/>
<text text-anchor="middle" x="1324" y="-354.5" font-family="Helvetica,sans-Serif" font-size="10.00">NFIRecordManager.h</text>
</a>
</g>
</g>
<!-- Node0&#45;&gt;Node30 -->
<g id="edge50" class="edge"><title>Node0&#45;&gt;Node30</title>
<path fill="none" stroke="midnightblue" d="M1358.23,-403.083C1352.44,-395.455 1343.94,-384.264 1336.86,-374.941"/>
<polygon fill="midnightblue" stroke="midnightblue" points="1339.48,-372.599 1330.64,-366.751 1333.9,-376.832 1339.48,-372.599"/>
</g>
<!-- Node5&#45;&gt;Node4 -->
<g id="edge6" class="edge"><title>Node5&#45;&gt;Node4</title>
<path fill="none" stroke="midnightblue" d="M814.914,-347.425C666.462,-307.75 53.3571,-143.876 51,-143 49.5766,-142.471 48.1297,-141.898 46.6791,-141.296"/>
<polygon fill="midnightblue" stroke="midnightblue" points="47.8162,-137.969 37.2614,-137.048 44.9384,-144.35 47.8162,-137.969"/>
</g>
<!-- Node6 -->
<g id="node7" class="node"><title>Node6</title>
<g id="a_node7"><a xlink:href="_n_f_i_record_8h.html" target="_top" xlink:title="NFIRecord.h">
<polygon fill="white" stroke="black" points="811.5,-291.5 811.5,-310.5 882.5,-310.5 882.5,-291.5 811.5,-291.5"/>
<text text-anchor="middle" x="847" y="-298.5" font-family="Helvetica,sans-Serif" font-size="10.00">NFIRecord.h</text>
</a>
</g>
</g>
<!-- Node5&#45;&gt;Node6 -->
<g id="edge7" class="edge"><title>Node5&#45;&gt;Node6</title>
<path fill="none" stroke="midnightblue" d="M847,-347.083C847,-340.006 847,-329.861 847,-320.986"/>
<polygon fill="midnightblue" stroke="midnightblue" points="850.5,-320.751 847,-310.751 843.5,-320.751 850.5,-320.751"/>
</g>
<!-- Node9 -->
<g id="node10" class="node"><title>Node9</title>
<g id="a_node10"><a xlink:href="_a_f_data_list_8hpp.html" target="_top" xlink:title="AFDataList.hpp">
<polygon fill="white" stroke="black" points="696,-179.5 696,-198.5 780,-198.5 780,-179.5 696,-179.5"/>
<text text-anchor="middle" x="738" y="-186.5" font-family="Helvetica,sans-Serif" font-size="10.00">AFDataList.hpp</text>
</a>
</g>
</g>
<!-- Node5&#45;&gt;Node9 -->
<g id="edge41" class="edge"><title>Node5&#45;&gt;Node9</title>
<path fill="none" stroke="midnightblue" d="M836.824,-347.44C827.08,-338.894 812.368,-325.044 802,-311 777.163,-277.359 756.233,-232.798 745.573,-208.222"/>
<polygon fill="midnightblue" stroke="midnightblue" points="748.669,-206.559 741.536,-198.725 742.227,-209.297 748.669,-206.559"/>
</g>
<!-- Node29 -->
<g id="node30" class="node"><title>Node29</title>
<g id="a_node30"><a xlink:href="_n_f_map_ex_8h.html" target="_top" xlink:title="NFMapEx.h">
<polygon fill="white" stroke="black" points="1234,-179.5 1234,-198.5 1302,-198.5 1302,-179.5 1234,-179.5"/>
<text text-anchor="middle" x="1268" y="-186.5" font-family="Helvetica,sans-Serif" font-size="10.00">NFMapEx.h</text>
</a>
</g>
</g>
<!-- Node5&#45;&gt;Node29 -->
<g id="edge42" class="edge"><title>Node5&#45;&gt;Node29</title>
<path fill="none" stroke="midnightblue" d="M868.748,-347.425C938.261,-320.016 1155.26,-234.455 1236.7,-202.342"/>
<polygon fill="midnightblue" stroke="midnightblue" points="1238.36,-205.448 1246.38,-198.524 1235.79,-198.936 1238.36,-205.448"/>
</g>
<!-- Node7 -->
<g id="node8" class="node"><title>Node7</title>
<g id="a_node8"><a xlink:href="_n_f_define_8h.html" target="_top" xlink:title="NFDefine.h">
<polygon fill="white" stroke="black" points="814.5,-235.5 814.5,-254.5 879.5,-254.5 879.5,-235.5 814.5,-235.5"/>
<text text-anchor="middle" x="847" y="-242.5" font-family="Helvetica,sans-Serif" font-size="10.00">NFDefine.h</text>
</a>
</g>
</g>
<!-- Node6&#45;&gt;Node7 -->
<g id="edge8" class="edge"><title>Node6&#45;&gt;Node7</title>
<path fill="none" stroke="midnightblue" d="M847,-291.083C847,-284.006 847,-273.861 847,-264.986"/>
<polygon fill="midnightblue" stroke="midnightblue" points="850.5,-264.751 847,-254.751 843.5,-264.751 850.5,-264.751"/>
</g>
<!-- Node6&#45;&gt;Node9 -->
<g id="edge40" class="edge"><title>Node6&#45;&gt;Node9</title>
<path fill="none" stroke="midnightblue" d="M838.447,-291.368C820.14,-272.894 776.935,-229.293 753.6,-205.744"/>
<polygon fill="midnightblue" stroke="midnightblue" points="756.038,-203.231 746.513,-198.591 751.066,-208.158 756.038,-203.231"/>
</g>
<!-- Node8 -->
<g id="node9" class="node"><title>Node8</title>
<polygon fill="white" stroke="#bfbfbf" points="818,-118 818,-137 876,-137 876,-118 818,-118"/>
<text text-anchor="middle" x="847" y="-125" font-family="Helvetica,sans-Serif" font-size="10.00">functional</text>
</g>
<!-- Node7&#45;&gt;Node8 -->
<g id="edge9" class="edge"><title>Node7&#45;&gt;Node8</title>
<path fill="none" stroke="midnightblue" d="M847,-235.319C847,-216.757 847,-172.839 847,-147.473"/>
<polygon fill="midnightblue" stroke="midnightblue" points="850.5,-147.282 847,-137.282 843.5,-147.282 850.5,-147.282"/>
</g>
<!-- Node7&#45;&gt;Node9 -->
<g id="edge10" class="edge"><title>Node7&#45;&gt;Node9</title>
<path fill="none" stroke="midnightblue" d="M829.487,-235.324C811.928,-226.625 784.669,-213.12 764.469,-203.113"/>
<polygon fill="midnightblue" stroke="midnightblue" points="765.984,-199.958 755.469,-198.655 762.876,-206.23 765.984,-199.958"/>
</g>
<!-- Node21 -->
<g id="node22" class="node"><title>Node21</title>
<g id="a_node22"><a xlink:href="_n_f_g_u_i_d_8h.html" target="_top" xlink:title="NFComm/NFPluginModule\l/NFGUID.h">
<polygon fill="white" stroke="black" points="894,-112.5 894,-142.5 1026,-142.5 1026,-112.5 894,-112.5"/>
<text text-anchor="start" x="902" y="-130.5" font-family="Helvetica,sans-Serif" font-size="10.00">NFComm/NFPluginModule</text>
<text text-anchor="middle" x="960" y="-119.5" font-family="Helvetica,sans-Serif" font-size="10.00">/NFGUID.h</text>
</a>
</g>
</g>
<!-- Node7&#45;&gt;Node21 -->
<g id="edge39" class="edge"><title>Node7&#45;&gt;Node21</title>
<path fill="none" stroke="midnightblue" d="M855.493,-235.319C873.076,-217.347 913.913,-175.606 939.016,-149.948"/>
<polygon fill="midnightblue" stroke="midnightblue" points="941.767,-152.141 946.259,-142.545 936.764,-147.246 941.767,-152.141"/>
</g>
<!-- Node9&#45;&gt;Node1 -->
<g id="edge18" class="edge"><title>Node9&#45;&gt;Node1</title>
<path fill="none" stroke="midnightblue" d="M780.044,-187.398C903.189,-185.26 1261.39,-176.273 1373,-143 1374.42,-142.575 1375.86,-142.063 1377.28,-141.489"/>
<polygon fill="midnightblue" stroke="midnightblue" points="1378.85,-144.616 1386.27,-137.055 1375.75,-138.337 1378.85,-144.616"/>
</g>
<!-- Node9&#45;&gt;Node2 -->
<g id="edge16" class="edge"><title>Node9&#45;&gt;Node2</title>
<path fill="none" stroke="midnightblue" d="M780.093,-184.135C862.726,-176.518 1051.97,-158.919 1211,-143 1250.57,-139.039 1296.49,-134.157 1324.12,-131.189"/>
<polygon fill="midnightblue" stroke="midnightblue" points="1324.53,-134.665 1334.1,-130.114 1323.78,-127.705 1324.53,-134.665"/>
</g>
<!-- Node9&#45;&gt;Node3 -->
<g id="edge11" class="edge"><title>Node9&#45;&gt;Node3</title>
<path fill="none" stroke="midnightblue" d="M744.195,-179.478C755.593,-164.28 781.271,-132.201 809,-112 856.244,-77.581 871.81,-72.1068 928,-56 1053.47,-20.0325 1210.33,-12.7783 1275.47,-11.3411"/>
<polygon fill="midnightblue" stroke="midnightblue" points="1275.54,-14.8404 1285.47,-11.1512 1275.4,-7.84171 1275.54,-14.8404"/>
</g>
<!-- Node9&#45;&gt;Node4 -->
<g id="edge17" class="edge"><title>Node9&#45;&gt;Node4</title>
<path fill="none" stroke="midnightblue" d="M695.87,-187.348C566.096,-185.011 173.799,-175.38 51,-143 49.0702,-142.491 47.1157,-141.856 45.1782,-141.138"/>
<polygon fill="midnightblue" stroke="midnightblue" points="46.3906,-137.849 35.8254,-137.057 43.5912,-144.264 46.3906,-137.849"/>
</g>
<!-- Node9&#45;&gt;Node8 -->
<g id="edge23" class="edge"><title>Node9&#45;&gt;Node8</title>
<path fill="none" stroke="midnightblue" d="M753.617,-179.475C771.586,-169.666 801.321,-153.435 822.406,-141.925"/>
<polygon fill="midnightblue" stroke="midnightblue" points="824.311,-144.873 831.412,-137.009 820.958,-138.728 824.311,-144.873"/>
</g>
<!-- Node10 -->
<g id="node11" class="node"><title>Node10</title>
<polygon fill="white" stroke="#bfbfbf" points="506,-118 506,-137 552,-137 552,-118 506,-118"/>
<text text-anchor="middle" x="529" y="-125" font-family="Helvetica,sans-Serif" font-size="10.00">cstring</text>
</g>
<!-- Node9&#45;&gt;Node10 -->
<g id="edge12" class="edge"><title>Node9&#45;&gt;Node10</title>
<path fill="none" stroke="midnightblue" d="M695.899,-179.494C659.643,-171.65 606.181,-158.84 561,-143 559.338,-142.417 557.644,-141.782 555.946,-141.112"/>
<polygon fill="midnightblue" stroke="midnightblue" points="556.95,-137.736 546.377,-137.045 554.212,-144.178 556.95,-137.736"/>
</g>
<!-- Node11 -->
<g id="node12" class="node"><title>Node11</title>
<polygon fill="white" stroke="#bfbfbf" points="1125,-56.5 1125,-75.5 1179,-75.5 1179,-56.5 1125,-56.5"/>
<text text-anchor="middle" x="1152" y="-63.5" font-family="Helvetica,sans-Serif" font-size="10.00">iostream</text>
</g>
<!-- Node9&#45;&gt;Node11 -->
<g id="edge13" class="edge"><title>Node9&#45;&gt;Node11</title>
<path fill="none" stroke="midnightblue" d="M780.28,-188.492C839.7,-187.684 950.138,-180.626 1035,-143 1054.93,-134.166 1055.02,-124.326 1073,-112 1090.03,-100.321 1110.29,-88.8249 1126.03,-80.3759"/>
<polygon fill="midnightblue" stroke="midnightblue" points="1127.97,-83.3065 1135.18,-75.5345 1124.7,-77.1199 1127.97,-83.3065"/>
</g>
<!-- Node12 -->
<g id="node13" class="node"><title>Node12</title>
<polygon fill="white" stroke="#bfbfbf" points="402,-56.5 402,-75.5 450,-75.5 450,-56.5 402,-56.5"/>
<text text-anchor="middle" x="426" y="-63.5" font-family="Helvetica,sans-Serif" font-size="10.00">stdlib.h</text>
</g>
<!-- Node9&#45;&gt;Node12 -->
<g id="edge14" class="edge"><title>Node9&#45;&gt;Node12</title>
<path fill="none" stroke="midnightblue" d="M695.961,-187.266C583.559,-184.871 282.587,-175.459 253,-143 210.383,-96.2458 330.142,-76.8045 391.826,-70.0577"/>
<polygon fill="midnightblue" stroke="midnightblue" points="392.321,-73.5252 401.906,-69.0113 391.598,-66.5626 392.321,-73.5252"/>
</g>
<!-- Node13 -->
<g id="node14" class="node"><title>Node13</title>
<polygon fill="white" stroke="#bfbfbf" points="570.5,-118 570.5,-137 617.5,-137 617.5,-118 570.5,-118"/>
<text text-anchor="middle" x="594" y="-125" font-family="Helvetica,sans-Serif" font-size="10.00">math.h</text>
</g>
<!-- Node9&#45;&gt;Node13 -->
<g id="edge15" class="edge"><title>Node9&#45;&gt;Node13</title>
<path fill="none" stroke="midnightblue" d="M716.229,-179.389C693.793,-170.465 657.841,-156.024 627,-143 625.595,-142.407 624.158,-141.795 622.708,-141.173"/>
<polygon fill="midnightblue" stroke="midnightblue" points="623.721,-137.798 613.154,-137.028 620.935,-144.219 623.721,-137.798"/>
</g>
<!-- Node14 -->
<g id="node15" class="node"><title>Node14</title>
<polygon fill="white" stroke="#bfbfbf" points="636,-118 636,-137 692,-137 692,-118 636,-118"/>
<text text-anchor="middle" x="664" y="-125" font-family="Helvetica,sans-Serif" font-size="10.00">algorithm</text>
</g>
<!-- Node9&#45;&gt;Node14 -->
<g id="edge19" class="edge"><title>Node9&#45;&gt;Node14</title>
<path fill="none" stroke="midnightblue" d="M727.398,-179.475C715.748,-170.108 696.814,-154.884 682.665,-143.508"/>
<polygon fill="midnightblue" stroke="midnightblue" points="684.569,-140.548 674.583,-137.009 680.183,-146.003 684.569,-140.548"/>
</g>
<!-- Node15 -->
<g id="node16" class="node"><title>Node15</title>
<polygon fill="white" stroke="#bfbfbf" points="710,-118 710,-137 762,-137 762,-118 710,-118"/>
<text text-anchor="middle" x="736" y="-125" font-family="Helvetica,sans-Serif" font-size="10.00">assert.h</text>
</g>
<!-- Node9&#45;&gt;Node15 -->
<g id="edge20" class="edge"><title>Node9&#45;&gt;Node15</title>
<path fill="none" stroke="midnightblue" d="M737.713,-179.475C737.431,-171.08 736.991,-157.981 736.627,-147.163"/>
<polygon fill="midnightblue" stroke="midnightblue" points="740.12,-146.886 736.286,-137.009 733.124,-147.121 740.12,-146.886"/>
</g>
<!-- Node16 -->
<g id="node17" class="node"><title>Node16</title>
<polygon fill="white" stroke="#bfbfbf" points="1082,-118 1082,-137 1132,-137 1132,-118 1082,-118"/>
<text text-anchor="middle" x="1107" y="-125" font-family="Helvetica,sans-Serif" font-size="10.00">typeinfo</text>
</g>
<!-- Node9&#45;&gt;Node16 -->
<g id="edge21" class="edge"><title>Node9&#45;&gt;Node16</title>
<path fill="none" stroke="midnightblue" d="M780.237,-185.232C843.555,-180.414 966.487,-168.461 1068,-143 1070.99,-142.251 1074.06,-141.349 1077.11,-140.367"/>
<polygon fill="midnightblue" stroke="midnightblue" points="1078.34,-143.644 1086.62,-137.04 1076.03,-137.037 1078.34,-143.644"/>
</g>
<!-- Node17 -->
<g id="node18" class="node"><title>Node17</title>
<polygon fill="white" stroke="#bfbfbf" points="60,-118 60,-137 110,-137 110,-118 60,-118"/>
<text text-anchor="middle" x="85" y="-125" font-family="Helvetica,sans-Serif" font-size="10.00">iomanip</text>
</g>
<!-- Node9&#45;&gt;Node17 -->
<g id="edge22" class="edge"><title>Node9&#45;&gt;Node17</title>
<path fill="none" stroke="midnightblue" d="M695.875,-186.745C575.047,-182.86 228.951,-169.656 119,-143 116.49,-142.391 113.928,-141.616 111.394,-140.741"/>
<polygon fill="midnightblue" stroke="midnightblue" points="112.506,-137.417 101.919,-137.015 109.945,-143.932 112.506,-137.417"/>
</g>
<!-- Node18 -->
<g id="node19" class="node"><title>Node18</title>
<polygon fill="white" stroke="#bfbfbf" points="128.5,-118 128.5,-137 177.5,-137 177.5,-118 128.5,-118"/>
<text text-anchor="middle" x="153" y="-125" font-family="Helvetica,sans-Serif" font-size="10.00">fstream</text>
</g>
<!-- Node9&#45;&gt;Node18 -->
<g id="edge24" class="edge"><title>Node9&#45;&gt;Node18</title>
<path fill="none" stroke="midnightblue" d="M695.978,-188.419C603.628,-188.5 376.518,-184.086 192,-143 188.926,-142.316 185.768,-141.444 182.644,-140.468"/>
<polygon fill="midnightblue" stroke="midnightblue" points="183.518,-137.067 172.924,-137.101 181.227,-143.682 183.518,-137.067"/>
</g>
<!-- Node19 -->
<g id="node20" class="node"><title>Node19</title>
<polygon fill="white" stroke="#bfbfbf" points="1150,-118 1150,-137 1202,-137 1202,-118 1150,-118"/>
<text text-anchor="middle" x="1176" y="-125" font-family="Helvetica,sans-Serif" font-size="10.00">memory</text>
</g>
<!-- Node9&#45;&gt;Node19 -->
<g id="edge25" class="edge"><title>Node9&#45;&gt;Node19</title>
<path fill="none" stroke="midnightblue" d="M780.179,-187.174C854.313,-184.869 1012.32,-176.13 1141,-143 1143.51,-142.354 1146.07,-141.564 1148.62,-140.689"/>
<polygon fill="midnightblue" stroke="midnightblue" points="1150.09,-143.874 1158.17,-137.022 1147.58,-137.34 1150.09,-143.874"/>
</g>
<!-- Node20 -->
<g id="node21" class="node"><title>Node20</title>
<polygon fill="white" stroke="#bfbfbf" points="272,-118 272,-137 376,-137 376,-118 272,-118"/>
<text text-anchor="middle" x="324" y="-125" font-family="Helvetica,sans-Serif" font-size="10.00">common/variant.hpp</text>
</g>
<!-- Node9&#45;&gt;Node20 -->
<g id="edge26" class="edge"><title>Node9&#45;&gt;Node20</title>
<path fill="none" stroke="midnightblue" d="M695.937,-184.102C629.544,-177.622 496.534,-163.306 385,-143 379.168,-141.938 373.058,-140.672 367.051,-139.337"/>
<polygon fill="midnightblue" stroke="midnightblue" points="367.637,-135.88 357.106,-137.048 366.066,-142.702 367.637,-135.88"/>
</g>
<!-- Node9&#45;&gt;Node21 -->
<g id="edge27" class="edge"><title>Node9&#45;&gt;Node21</title>
<path fill="none" stroke="midnightblue" d="M769.807,-179.475C803.105,-170.551 856.243,-156.309 897.898,-145.144"/>
<polygon fill="midnightblue" stroke="midnightblue" points="898.926,-148.493 907.679,-142.523 897.114,-141.731 898.926,-148.493"/>
</g>
<!-- Node22 -->
<g id="node23" class="node"><title>Node22</title>
<g id="a_node23"><a xlink:href="_n_f_platform_8h.html" target="_top" xlink:title="NFPlatform.h">
<polygon fill="white" stroke="black" points="688,-56.5 688,-75.5 762,-75.5 762,-56.5 688,-56.5"/>
<text text-anchor="middle" x="725" y="-63.5" font-family="Helvetica,sans-Serif" font-size="10.00">NFPlatform.h</text>
</a>
</g>
</g>
<!-- Node9&#45;&gt;Node22 -->
<g id="edge37" class="edge"><title>Node9&#45;&gt;Node22</title>
<path fill="none" stroke="midnightblue" d="M695.626,-187.17C584.609,-184.561 291.847,-174.709 263,-143 253.728,-132.809 253.742,-122.204 263,-112 290.536,-81.6514 565.967,-71.121 677.99,-68.0749"/>
<polygon fill="midnightblue" stroke="midnightblue" points="678.087,-71.5737 687.991,-67.8112 677.902,-64.5761 678.087,-71.5737"/>
</g>
<!-- Node28 -->
<g id="node29" class="node"><title>Node28</title>
<g id="a_node29"><a xlink:href="_vector3_8hpp.html" target="_top" xlink:title="Math/Vector3.hpp">
<polygon fill="white" stroke="black" points="394,-118 394,-137 488,-137 488,-118 394,-118"/>
<text text-anchor="middle" x="441" y="-125" font-family="Helvetica,sans-Serif" font-size="10.00">Math/Vector3.hpp</text>
</a>
</g>
</g>
<!-- Node9&#45;&gt;Node28 -->
<g id="edge38" class="edge"><title>Node9&#45;&gt;Node28</title>
<path fill="none" stroke="midnightblue" d="M695.592,-180.99C647.314,-172.8 566.176,-158.395 497,-143 492.227,-141.938 487.244,-140.755 482.304,-139.536"/>
<polygon fill="midnightblue" stroke="midnightblue" points="482.856,-136.066 472.303,-137.011 481.142,-142.853 482.856,-136.066"/>
</g>
<!-- Node21&#45;&gt;Node11 -->
<g id="edge34" class="edge"><title>Node21&#45;&gt;Node11</title>
<path fill="none" stroke="midnightblue" d="M1005.5,-112.399C1039.02,-102.011 1084.03,-88.0645 1115.27,-78.3821"/>
<polygon fill="midnightblue" stroke="midnightblue" points="1116.38,-81.7015 1124.9,-75.3982 1114.31,-75.0152 1116.38,-81.7015"/>
</g>
<!-- Node21&#45;&gt;Node12 -->
<g id="edge36" class="edge"><title>Node21&#45;&gt;Node12</title>
<path fill="none" stroke="midnightblue" d="M893.804,-113.355C890.832,-112.874 887.887,-112.42 885,-112 727.213,-89.0636 537.17,-74.5817 460.527,-69.2796"/>
<polygon fill="midnightblue" stroke="midnightblue" points="460.695,-65.783 450.479,-68.5925 460.217,-72.7667 460.695,-65.783"/>
</g>
<!-- Node21&#45;&gt;Node22 -->
<g id="edge28" class="edge"><title>Node21&#45;&gt;Node22</title>
<path fill="none" stroke="midnightblue" d="M904.606,-112.475C863.001,-101.941 806.819,-87.7158 768.437,-77.9978"/>
<polygon fill="midnightblue" stroke="midnightblue" points="769.15,-74.568 758.597,-75.5064 767.432,-81.3538 769.15,-74.568"/>
</g>
<!-- Node27 -->
<g id="node28" class="node"><title>Node27</title>
<polygon fill="white" stroke="#bfbfbf" points="937,-56.5 937,-75.5 983,-75.5 983,-56.5 937,-56.5"/>
<text text-anchor="middle" x="960" y="-63.5" font-family="Helvetica,sans-Serif" font-size="10.00">stdio.h</text>
</g>
<!-- Node21&#45;&gt;Node27 -->
<g id="edge35" class="edge"><title>Node21&#45;&gt;Node27</title>
<path fill="none" stroke="midnightblue" d="M960,-112.399C960,-104.466 960,-94.458 960,-85.8583"/>
<polygon fill="midnightblue" stroke="midnightblue" points="963.5,-85.6577 960,-75.6578 956.5,-85.6578 963.5,-85.6577"/>
</g>
<!-- Node22&#45;&gt;Node3 -->
<g id="edge33" class="edge"><title>Node22&#45;&gt;Node3</title>
<path fill="none" stroke="midnightblue" d="M762.264,-58.0252C766.88,-57.279 771.542,-56.5814 776,-56 964.853,-31.3699 1193.4,-17.2186 1275.12,-12.6479"/>
<polygon fill="midnightblue" stroke="midnightblue" points="1275.43,-16.1362 1285.22,-12.0901 1275.04,-9.14685 1275.43,-16.1362"/>
</g>
<!-- Node23 -->
<g id="node24" class="node"><title>Node23</title>
<polygon fill="white" stroke="#bfbfbf" points="754.5,-0.5 754.5,-19.5 803.5,-19.5 803.5,-0.5 754.5,-0.5"/>
<text text-anchor="middle" x="779" y="-7.5" font-family="Helvetica,sans-Serif" font-size="10.00">stdint.h</text>
</g>
<!-- Node22&#45;&gt;Node23 -->
<g id="edge29" class="edge"><title>Node22&#45;&gt;Node23</title>
<path fill="none" stroke="midnightblue" d="M733.917,-56.083C741.78,-48.2195 753.431,-36.5688 762.919,-27.0813"/>
<polygon fill="midnightblue" stroke="midnightblue" points="765.653,-29.2971 770.249,-19.7511 760.703,-24.3473 765.653,-29.2971"/>
</g>
<!-- Node24 -->
<g id="node25" class="node"><title>Node24</title>
<polygon fill="white" stroke="#bfbfbf" points="822,-0.5 822,-19.5 866,-19.5 866,-0.5 822,-0.5"/>
<text text-anchor="middle" x="844" y="-7.5" font-family="Helvetica,sans-Serif" font-size="10.00">time.h</text>
</g>
<!-- Node22&#45;&gt;Node24 -->
<g id="edge30" class="edge"><title>Node22&#45;&gt;Node24</title>
<path fill="none" stroke="midnightblue" d="M743.856,-56.4435C763.266,-47.6356 793.73,-33.8116 815.965,-23.722"/>
<polygon fill="midnightblue" stroke="midnightblue" points="817.572,-26.836 825.232,-19.5164 814.68,-20.4615 817.572,-26.836"/>
</g>
<!-- Node25 -->
<g id="node26" class="node"><title>Node25</title>
<polygon fill="white" stroke="#bfbfbf" points="538,-0.5 538,-19.5 590,-19.5 590,-0.5 538,-0.5"/>
<text text-anchor="middle" x="564" y="-7.5" font-family="Helvetica,sans-Serif" font-size="10.00">sstream</text>
</g>
<!-- Node22&#45;&gt;Node25 -->
<g id="edge31" class="edge"><title>Node22&#45;&gt;Node25</title>
<path fill="none" stroke="midnightblue" d="M699.489,-56.4435C672.404,-47.3591 629.41,-32.9388 599.131,-22.7831"/>
<polygon fill="midnightblue" stroke="midnightblue" points="599.986,-19.3781 589.392,-19.5164 597.76,-26.0148 599.986,-19.3781"/>
</g>
<!-- Node26 -->
<g id="node27" class="node"><title>Node26</title>
<polygon fill="white" stroke="#bfbfbf" points="608,-0.5 608,-19.5 736,-19.5 736,-0.5 608,-0.5"/>
<text text-anchor="middle" x="672" y="-7.5" font-family="Helvetica,sans-Serif" font-size="10.00">common/lexical_cast.hpp</text>
</g>
<!-- Node22&#45;&gt;Node26 -->
<g id="edge32" class="edge"><title>Node22&#45;&gt;Node26</title>
<path fill="none" stroke="midnightblue" d="M716.248,-56.083C708.53,-48.2195 697.095,-36.5688 687.783,-27.0813"/>
<polygon fill="midnightblue" stroke="midnightblue" points="690.092,-24.4363 680.589,-19.7511 685.096,-29.3396 690.092,-24.4363"/>
</g>
<!-- Node29&#45;&gt;Node1 -->
<g id="edge43" class="edge"><title>Node29&#45;&gt;Node1</title>
<path fill="none" stroke="midnightblue" d="M1290.02,-179.342C1311.47,-170.724 1344.88,-156.822 1373,-143 1373.81,-142.601 1374.63,-142.189 1375.46,-141.767"/>
<polygon fill="midnightblue" stroke="midnightblue" points="1377.12,-144.849 1384.29,-137.051 1373.82,-138.675 1377.12,-144.849"/>
</g>
<!-- Node29&#45;&gt;Node2 -->
<g id="edge44" class="edge"><title>Node29&#45;&gt;Node2</title>
<path fill="none" stroke="midnightblue" d="M1279.61,-179.475C1292.48,-170.02 1313.47,-154.596 1329.01,-143.187"/>
<polygon fill="midnightblue" stroke="midnightblue" points="1331.43,-145.75 1337.42,-137.009 1327.28,-140.108 1331.43,-145.75"/>
</g>
<!-- Node29&#45;&gt;Node3 -->
<g id="edge45" class="edge"><title>Node29&#45;&gt;Node3</title>
<path fill="none" stroke="midnightblue" d="M1269.83,-179.463C1275.64,-152.428 1293.71,-68.2392 1301.9,-30.109"/>
<polygon fill="midnightblue" stroke="midnightblue" points="1305.42,-30.3803 1304.1,-19.8684 1298.57,-28.9109 1305.42,-30.3803"/>
</g>
<!-- Node29&#45;&gt;Node11 -->
<g id="edge46" class="edge"><title>Node29&#45;&gt;Node11</title>
<path fill="none" stroke="midnightblue" d="M1267.46,-179.423C1266.07,-164.136 1261.15,-131.922 1244,-112 1229.67,-95.3629 1207.77,-84.3061 1188.92,-77.3169"/>
<polygon fill="midnightblue" stroke="midnightblue" points="1190,-73.9857 1179.4,-74.0248 1187.71,-80.6012 1190,-73.9857"/>
</g>
<!-- Node29&#45;&gt;Node16 -->
<g id="edge47" class="edge"><title>Node29&#45;&gt;Node16</title>
<path fill="none" stroke="midnightblue" d="M1242.53,-179.498C1216.76,-170.776 1175.87,-156.598 1141,-143 1139.4,-142.375 1137.76,-141.722 1136.1,-141.053"/>
<polygon fill="midnightblue" stroke="midnightblue" points="1137.27,-137.747 1126.69,-137.144 1134.58,-144.211 1137.27,-137.747"/>
</g>
<!-- Node29&#45;&gt;Node19 -->
<g id="edge48" class="edge"><title>Node29&#45;&gt;Node19</title>
<path fill="none" stroke="midnightblue" d="M1254.82,-179.475C1239.93,-169.843 1215.46,-154.017 1197.73,-142.552"/>
<polygon fill="midnightblue" stroke="midnightblue" points="1199.45,-139.501 1189.16,-137.009 1195.65,-145.379 1199.45,-139.501"/>
</g>
<!-- Node29&#45;&gt;Node22 -->
<g id="edge49" class="edge"><title>Node29&#45;&gt;Node22</title>
<path fill="none" stroke="midnightblue" d="M1264.28,-179.023C1256.88,-162.477 1238.64,-127.454 1211,-112 1173.3,-90.9222 887.384,-74.875 772.536,-69.2149"/>
<polygon fill="midnightblue" stroke="midnightblue" points="772.451,-65.7067 762.292,-68.7153 772.11,-72.6984 772.451,-65.7067"/>
</g>
<!-- Node30&#45;&gt;Node6 -->
<g id="edge51" class="edge"><title>Node30&#45;&gt;Node6</title>
<path fill="none" stroke="midnightblue" d="M1269.75,-349.858C1174.97,-339.129 980.948,-317.164 892.616,-307.164"/>
<polygon fill="midnightblue" stroke="midnightblue" points="892.964,-303.681 882.633,-306.034 892.176,-310.637 892.964,-303.681"/>
</g>
<!-- Node31 -->
<g id="node32" class="node"><title>Node31</title>
<g id="a_node32"><a xlink:href="_n_f_map_8h.html" target="_top" xlink:title="NFMap.h">
<polygon fill="white" stroke="black" points="1302,-235.5 1302,-254.5 1358,-254.5 1358,-235.5 1302,-235.5"/>
<text text-anchor="middle" x="1330" y="-242.5" font-family="Helvetica,sans-Serif" font-size="10.00">NFMap.h</text>
</a>
</g>
</g>
<!-- Node30&#45;&gt;Node31 -->
<g id="edge52" class="edge"><title>Node30&#45;&gt;Node31</title>
<path fill="none" stroke="midnightblue" d="M1324.47,-347.368C1325.44,-329.617 1327.67,-288.666 1328.99,-264.597"/>
<polygon fill="midnightblue" stroke="midnightblue" points="1332.48,-264.767 1329.53,-254.591 1325.49,-264.386 1332.48,-264.767"/>
</g>
<!-- Node31&#45;&gt;Node1 -->
<g id="edge53" class="edge"><title>Node31&#45;&gt;Node1</title>
<path fill="none" stroke="midnightblue" d="M1335.19,-235.319C1346.47,-216.422 1373.46,-171.248 1388.47,-146.121"/>
<polygon fill="midnightblue" stroke="midnightblue" points="1391.63,-147.662 1393.75,-137.282 1385.62,-144.072 1391.63,-147.662"/>
</g>
<!-- Node31&#45;&gt;Node2 -->
<g id="edge54" class="edge"><title>Node31&#45;&gt;Node2</title>
<path fill="none" stroke="midnightblue" d="M1331.43,-235.319C1334.48,-216.757 1341.71,-172.839 1345.88,-147.473"/>
<polygon fill="midnightblue" stroke="midnightblue" points="1349.39,-147.718 1347.56,-137.282 1342.48,-146.581 1349.39,-147.718"/>
</g>
<!-- Node31&#45;&gt;Node3 -->
<g id="edge55" class="edge"><title>Node31&#45;&gt;Node3</title>
<path fill="none" stroke="midnightblue" d="M1357.96,-235.464C1377.23,-228.362 1402.28,-216.549 1419,-199 1446.75,-169.874 1462.2,-147.878 1444,-112 1421.5,-67.6593 1369.38,-38.1093 1336.03,-22.974"/>
<polygon fill="midnightblue" stroke="midnightblue" points="1337.31,-19.7141 1326.74,-18.9129 1334.5,-26.1273 1337.31,-19.7141"/>
</g>
<!-- Node31&#45;&gt;Node11 -->
<g id="edge56" class="edge"><title>Node31&#45;&gt;Node11</title>
<path fill="none" stroke="midnightblue" d="M1344.65,-235.486C1379.83,-214.005 1463.51,-156.171 1426,-112 1396.09,-76.7714 1257.27,-69.0702 1189.47,-67.4236"/>
<polygon fill="midnightblue" stroke="midnightblue" points="1189.3,-63.9193 1179.22,-67.2081 1189.15,-70.9178 1189.3,-63.9193"/>
</g>
<!-- Node31&#45;&gt;Node16 -->
<g id="edge57" class="edge"><title>Node31&#45;&gt;Node16</title>
<path fill="none" stroke="midnightblue" d="M1307.48,-235.364C1285.94,-226.869 1252.74,-213.149 1225,-199 1190.28,-181.289 1151.84,-157.482 1128.55,-142.566"/>
<polygon fill="midnightblue" stroke="midnightblue" points="1130.42,-139.609 1120.12,-137.131 1126.63,-145.492 1130.42,-139.609"/>
</g>
<!-- Node31&#45;&gt;Node29 -->
<g id="edge58" class="edge"><title>Node31&#45;&gt;Node29</title>
<path fill="none" stroke="midnightblue" d="M1320.04,-235.324C1310.87,-227.341 1297.06,-215.313 1285.97,-205.653"/>
<polygon fill="midnightblue" stroke="midnightblue" points="1287.98,-202.762 1278.14,-198.834 1283.38,-208.041 1287.98,-202.762"/>
</g>
</g>
</svg>
        <g id="navigator" transform="translate(0 0)" fill="#404254">
                <rect fill="#f2f5e9" fill-opacity="0.5" stroke="#606060" stroke-width=".5" x="0" y="0" width="60" height="60"/>
                <use id="zoomplus" xlink:href="#zoomPlus" x="17" y="9" onmousedown="handleZoom(evt,'in')"/>
                <use id="zoomminus" xlink:href="#zoomMin" x="42" y="9" onmousedown="handleZoom(evt,'out')"/>
                <use id="reset" xlink:href="#resetDef" x="30" y="36" onmousedown="handleReset()"/>
                <g id="arrowUp" xlink:href="#dirArrow" transform="translate(30 24)" onmousedown="handlePan(0,-1)">
                  <use xlink:href="#rim" fill="#404040">
                        <set attributeName="fill" to="#808080" begin="arrowUp.mouseover" end="arrowUp.mouseout"/>
                  </use>
                  <path fill="none" stroke="white" stroke-width="1.5" d="M0,-3.0v7 M-2.5,-0.5L0,-3.0L2.5,-0.5"/>
                </g>
                <g id="arrowRight" xlink:href="#dirArrow" transform="rotate(90) translate(36 -43)" onmousedown="handlePan(1,0)">
                  <use xlink:href="#rim" fill="#404040">
                        <set attributeName="fill" to="#808080" begin="arrowRight.mouseover" end="arrowRight.mouseout"/>
                  </use>
                  <path fill="none" stroke="white" stroke-width="1.5" d="M0,-3.0v7 M-2.5,-0.5L0,-3.0L2.5,-0.5"/>
                </g>
                <g id="arrowDown" xlink:href="#dirArrow" transform="rotate(180) translate(-30 -48)" onmousedown="handlePan(0,1)">
                  <use xlink:href="#rim" fill="#404040">
                        <set attributeName="fill" to="#808080" begin="arrowDown.mouseover" end="arrowDown.mouseout"/>
                  </use>
                  <path fill="none" stroke="white" stroke-width="1.5" d="M0,-3.0v7 M-2.5,-0.5L0,-3.0L2.5,-0.5"/>
                </g>
                <g id="arrowLeft" xlink:href="#dirArrow" transform="rotate(270) translate(-36 17)" onmousedown="handlePan(-1,0)">
                  <use xlink:href="#rim" fill="#404040">
                        <set attributeName="fill" to="#808080" begin="arrowLeft.mouseover" end="arrowLeft.mouseout"/>
                  </use>
                  <path fill="none" stroke="white" stroke-width="1.5" d="M0,-3.0v7 M-2.5,-0.5L0,-3.0L2.5,-0.5"/>
                </g>
        </g>
        <svg viewBox="0 0 15 15" width="100%" height="30px" preserveAspectRatio="xMaxYMin meet">
         <g id="arrow_out" transform="scale(0.3 0.3)">
          <a xlink:href="_n_f_c_record_manager_8h__incl_org.svg" target="_base">
           <rect id="button" ry="5" rx="5" y="6" x="6" height="38" width="38"
                fill="#f2f5e9" fill-opacity="0.5" stroke="#606060" stroke-width="1.0"/>
           <path id="arrow"
             d="M 11.500037,31.436501 C 11.940474,20.09759 22.043105,11.32322 32.158766,21.979434 L 37.068811,17.246167 C 37.068811,17.246167 37.088388,32 37.088388,32 L 22.160133,31.978069 C 22.160133,31.978069 26.997745,27.140456 26.997745,27.140456 C 18.528582,18.264221 13.291696,25.230495 11.500037,31.436501 z"
             style="fill:#404040;"/>
          </a>
         </g>
        </svg>
</svg>
