<?xml version="1.0" encoding="UTF-8" standalone="no"?>
<!DOCTYPE svg PUBLIC "-//W3C//DTD SVG 1.1//EN"
 "http://www.w3.org/Graphics/SVG/1.1/DTD/svg11.dtd">
<!-- Generated by graphviz version 2.38.0 (20140413.2041)
 -->
<!-- Title: NFMapEx.h Pages: 1 -->
<svg width="628pt" height="151pt"
 viewBox="0.00 0.00 627.50 151.00" xmlns="http://www.w3.org/2000/svg" xmlns:xlink="http://www.w3.org/1999/xlink">
<g id="graph0" class="graph" transform="scale(1 1) rotate(0) translate(4 147)">
<title>NFMapEx.h</title>
<polygon fill="white" stroke="none" points="-4,4 -4,-147 623.5,-147 623.5,4 -4,4"/>
<!-- Node0 -->
<g id="node1" class="node"><title>Node0</title>
<polygon fill="#bfbfbf" stroke="black" points="131.5,-123.5 131.5,-142.5 199.5,-142.5 199.5,-123.5 131.5,-123.5"/>
<text text-anchor="middle" x="165.5" y="-130.5" font-family="Helvetica,sans-Serif" font-size="10.00">NFMapEx.h</text>
</g>
<!-- Node1 -->
<g id="node2" class="node"><title>Node1</title>
<polygon fill="white" stroke="#bfbfbf" points="0,-62 0,-81 35,-81 35,-62 0,-62"/>
<text text-anchor="middle" x="17.5" y="-69" font-family="Helvetica,sans-Serif" font-size="10.00">map</text>
</g>
<!-- Node0&#45;&gt;Node1 -->
<g id="edge1" class="edge"><title>Node0&#45;&gt;Node1</title>
<path fill="none" stroke="midnightblue" d="M139.12,-123.356C114.324,-114.959 76.3613,-101.399 44.5,-87 43.6515,-86.6166 42.7928,-86.2178 41.9294,-85.8075"/>
<polygon fill="midnightblue" stroke="midnightblue" points="43.2401,-82.5481 32.7377,-81.1514 40.0768,-88.7926 43.2401,-82.5481"/>
</g>
<!-- Node2 -->
<g id="node3" class="node"><title>Node2</title>
<polygon fill="white" stroke="#bfbfbf" points="53,-62 53,-81 82,-81 82,-62 53,-62"/>
<text text-anchor="middle" x="67.5" y="-69" font-family="Helvetica,sans-Serif" font-size="10.00">list</text>
</g>
<!-- Node0&#45;&gt;Node2 -->
<g id="edge2" class="edge"><title>Node0&#45;&gt;Node2</title>
<path fill="none" stroke="midnightblue" d="M151.459,-123.475C135.449,-113.755 109.05,-97.7266 90.126,-86.2372"/>
<polygon fill="midnightblue" stroke="midnightblue" points="91.8793,-83.2072 81.515,-81.0091 88.2464,-89.1907 91.8793,-83.2072"/>
</g>
<!-- Node3 -->
<g id="node4" class="node"><title>Node3</title>
<polygon fill="white" stroke="#bfbfbf" points="145,-0.5 145,-19.5 186,-19.5 186,-0.5 145,-0.5"/>
<text text-anchor="middle" x="165.5" y="-7.5" font-family="Helvetica,sans-Serif" font-size="10.00">string</text>
</g>
<!-- Node0&#45;&gt;Node3 -->
<g id="edge3" class="edge"><title>Node0&#45;&gt;Node3</title>
<path fill="none" stroke="midnightblue" d="M155.338,-123.185C146.592,-114.87 134.6,-101.539 129.5,-87 124.939,-73.9989 124.939,-69.0011 129.5,-56 133.285,-45.2094 140.867,-35.084 148.1,-27.1808"/>
<polygon fill="midnightblue" stroke="midnightblue" points="150.826,-29.4005 155.338,-19.8145 145.833,-24.4943 150.826,-29.4005"/>
</g>
<!-- Node4 -->
<g id="node5" class="node"><title>Node4</title>
<polygon fill="white" stroke="#bfbfbf" points="138.5,-62 138.5,-81 192.5,-81 192.5,-62 138.5,-62"/>
<text text-anchor="middle" x="165.5" y="-69" font-family="Helvetica,sans-Serif" font-size="10.00">iostream</text>
</g>
<!-- Node0&#45;&gt;Node4 -->
<g id="edge4" class="edge"><title>Node0&#45;&gt;Node4</title>
<path fill="none" stroke="midnightblue" d="M165.5,-123.475C165.5,-115.08 165.5,-101.981 165.5,-91.1631"/>
<polygon fill="midnightblue" stroke="midnightblue" points="169,-91.0091 165.5,-81.0091 162,-91.0091 169,-91.0091"/>
</g>
<!-- Node5 -->
<g id="node6" class="node"><title>Node5</title>
<polygon fill="white" stroke="#bfbfbf" points="210.5,-62 210.5,-81 260.5,-81 260.5,-62 210.5,-62"/>
<text text-anchor="middle" x="235.5" y="-69" font-family="Helvetica,sans-Serif" font-size="10.00">typeinfo</text>
</g>
<!-- Node0&#45;&gt;Node5 -->
<g id="edge5" class="edge"><title>Node0&#45;&gt;Node5</title>
<path fill="none" stroke="midnightblue" d="M175.529,-123.475C186.549,-114.108 204.46,-98.8839 217.843,-87.5081"/>
<polygon fill="midnightblue" stroke="midnightblue" points="220.137,-90.1524 225.489,-81.0091 215.603,-84.8188 220.137,-90.1524"/>
</g>
<!-- Node6 -->
<g id="node7" class="node"><title>Node6</title>
<polygon fill="white" stroke="#bfbfbf" points="278.5,-62 278.5,-81 330.5,-81 330.5,-62 278.5,-62"/>
<text text-anchor="middle" x="304.5" y="-69" font-family="Helvetica,sans-Serif" font-size="10.00">memory</text>
</g>
<!-- Node0&#45;&gt;Node6 -->
<g id="edge6" class="edge"><title>Node0&#45;&gt;Node6</title>
<path fill="none" stroke="midnightblue" d="M185.415,-123.475C208.949,-113.401 248.31,-96.5525 275.293,-85.0023"/>
<polygon fill="midnightblue" stroke="midnightblue" points="276.806,-88.162 284.622,-81.0091 274.051,-81.7267 276.806,-88.162"/>
</g>
<!-- Node7 -->
<g id="node8" class="node"><title>Node7</title>
<g id="a_node8"><a xlink:href="_n_f_platform_8h.html" target="_top" xlink:title="NFComm/NFPluginModule\l/NFPlatform.h">
<polygon fill="white" stroke="black" points="348.5,-56.5 348.5,-86.5 480.5,-86.5 480.5,-56.5 348.5,-56.5"/>
<text text-anchor="start" x="356.5" y="-74.5" font-family="Helvetica,sans-Serif" font-size="10.00">NFComm/NFPluginModule</text>
<text text-anchor="middle" x="414.5" y="-63.5" font-family="Helvetica,sans-Serif" font-size="10.00">/NFPlatform.h</text>
</a>
</g>
</g>
<!-- Node0&#45;&gt;Node7 -->
<g id="edge7" class="edge"><title>Node0&#45;&gt;Node7</title>
<path fill="none" stroke="midnightblue" d="M199.6,-123.852C237.029,-114.908 298.108,-100.313 345.601,-88.9637"/>
<polygon fill="midnightblue" stroke="midnightblue" points="346.604,-92.3228 355.516,-86.5945 344.977,-85.5145 346.604,-92.3228"/>
</g>
<!-- Node7&#45;&gt;Node3 -->
<g id="edge12" class="edge"><title>Node7&#45;&gt;Node3</title>
<path fill="none" stroke="midnightblue" d="M355.806,-56.4747C305.651,-44.49 235.502,-27.7275 195.884,-18.2605"/>
<polygon fill="midnightblue" stroke="midnightblue" points="196.57,-14.8259 186.031,-15.9059 194.943,-21.6343 196.57,-14.8259"/>
</g>
<!-- Node8 -->
<g id="node9" class="node"><title>Node8</title>
<polygon fill="white" stroke="#bfbfbf" points="292,-0.5 292,-19.5 341,-19.5 341,-0.5 292,-0.5"/>
<text text-anchor="middle" x="316.5" y="-7.5" font-family="Helvetica,sans-Serif" font-size="10.00">stdint.h</text>
</g>
<!-- Node7&#45;&gt;Node8 -->
<g id="edge8" class="edge"><title>Node7&#45;&gt;Node8</title>
<path fill="none" stroke="midnightblue" d="M391.275,-56.3993C375.714,-46.9511 355.303,-34.5589 339.738,-25.1089"/>
<polygon fill="midnightblue" stroke="midnightblue" points="341.124,-21.8558 330.76,-19.6578 337.491,-27.8394 341.124,-21.8558"/>
</g>
<!-- Node9 -->
<g id="node10" class="node"><title>Node9</title>
<polygon fill="white" stroke="#bfbfbf" points="359.5,-0.5 359.5,-19.5 403.5,-19.5 403.5,-0.5 359.5,-0.5"/>
<text text-anchor="middle" x="381.5" y="-7.5" font-family="Helvetica,sans-Serif" font-size="10.00">time.h</text>
</g>
<!-- Node7&#45;&gt;Node9 -->
<g id="edge9" class="edge"><title>Node7&#45;&gt;Node9</title>
<path fill="none" stroke="midnightblue" d="M406.679,-56.3993C402.032,-48.0207 396.101,-37.3269 391.163,-28.4229"/>
<polygon fill="midnightblue" stroke="midnightblue" points="394.213,-26.7052 386.302,-19.6578 388.091,-30.1004 394.213,-26.7052"/>
</g>
<!-- Node10 -->
<g id="node11" class="node"><title>Node10</title>
<polygon fill="white" stroke="#bfbfbf" points="421.5,-0.5 421.5,-19.5 473.5,-19.5 473.5,-0.5 421.5,-0.5"/>
<text text-anchor="middle" x="447.5" y="-7.5" font-family="Helvetica,sans-Serif" font-size="10.00">sstream</text>
</g>
<!-- Node7&#45;&gt;Node10 -->
<g id="edge10" class="edge"><title>Node7&#45;&gt;Node10</title>
<path fill="none" stroke="midnightblue" d="M422.321,-56.3993C426.968,-48.0207 432.899,-37.3269 437.837,-28.4229"/>
<polygon fill="midnightblue" stroke="midnightblue" points="440.909,-30.1004 442.698,-19.6578 434.787,-26.7052 440.909,-30.1004"/>
</g>
<!-- Node11 -->
<g id="node12" class="node"><title>Node11</title>
<polygon fill="white" stroke="#bfbfbf" points="491.5,-0.5 491.5,-19.5 619.5,-19.5 619.5,-0.5 491.5,-0.5"/>
<text text-anchor="middle" x="555.5" y="-7.5" font-family="Helvetica,sans-Serif" font-size="10.00">common/lexical_cast.hpp</text>
</g>
<!-- Node7&#45;&gt;Node11 -->
<g id="edge11" class="edge"><title>Node7&#45;&gt;Node11</title>
<path fill="none" stroke="midnightblue" d="M447.915,-56.3993C471.467,-46.4608 502.738,-33.2649 525.493,-23.6625"/>
<polygon fill="midnightblue" stroke="midnightblue" points="527.131,-26.7704 534.983,-19.6578 524.409,-20.3211 527.131,-26.7704"/>
</g>
</g>
</svg>
