<?xml version="1.0" encoding="UTF-8" standalone="no"?>
<!DOCTYPE svg PUBLIC "-//W3C//DTD SVG 1.1//EN"
 "http://www.w3.org/Graphics/SVG/1.1/DTD/svg11.dtd">
<!-- Generated by graphviz version 2.38.0 (20140413.2041)
 -->
<!-- Title: NFCPropertyConfigModule.h Pages: 1 -->
<svg width="304pt" height="84pt"
 viewBox="0.00 0.00 304.00 84.00" xmlns="http://www.w3.org/2000/svg" xmlns:xlink="http://www.w3.org/1999/xlink">
<g id="graph0" class="graph" transform="scale(1 1) rotate(0) translate(4 80)">
<title>NFCPropertyConfigModule.h</title>
<polygon fill="white" stroke="none" points="-4,4 -4,-80 300,-80 300,4 -4,4"/>
<!-- Node46 -->
<g id="node1" class="node"><title>Node46</title>
<polygon fill="#bfbfbf" stroke="black" points="83,-56.5 83,-75.5 223,-75.5 223,-56.5 83,-56.5"/>
<text text-anchor="middle" x="153" y="-63.5" font-family="Helvetica,sans-Serif" font-size="10.00">NFCPropertyConfigModule.h</text>
</g>
<!-- Node47 -->
<g id="node2" class="node"><title>Node47</title>
<g id="a_node2"><a xlink:href="_n_f_c_property_config_module_8cpp.html" target="_top" xlink:title="NFCPropertyConfigModule.cpp">
<polygon fill="white" stroke="black" points="0,-0.5 0,-19.5 150,-19.5 150,-0.5 0,-0.5"/>
<text text-anchor="middle" x="75" y="-7.5" font-family="Helvetica,sans-Serif" font-size="10.00">NFCPropertyConfigModule.cpp</text>
</a>
</g>
</g>
<!-- Node46&#45;&gt;Node47 -->
<g id="edge1" class="edge"><title>Node46&#45;&gt;Node47</title>
<path fill="none" stroke="midnightblue" d="M132.232,-50.6221C117.983,-40.7574 99.5438,-27.9919 87.5009,-19.6545"/>
<polygon fill="midnightblue" stroke="midnightblue" points="130.254,-53.5095 140.468,-56.324 134.238,-47.7541 130.254,-53.5095"/>
</g>
<!-- Node48 -->
<g id="node3" class="node"><title>Node48</title>
<g id="a_node3"><a xlink:href="_n_f_game_server_plugin_8cpp.html" target="_top" xlink:title="NFGameServerPlugin.cpp">
<polygon fill="white" stroke="black" points="168,-0.5 168,-19.5 296,-19.5 296,-0.5 168,-0.5"/>
<text text-anchor="middle" x="232" y="-7.5" font-family="Helvetica,sans-Serif" font-size="10.00">NFGameServerPlugin.cpp</text>
</a>
</g>
</g>
<!-- Node46&#45;&gt;Node48 -->
<g id="edge2" class="edge"><title>Node46&#45;&gt;Node48</title>
<path fill="none" stroke="midnightblue" d="M174.034,-50.6221C188.466,-40.7574 207.141,-27.9919 219.339,-19.6545"/>
<polygon fill="midnightblue" stroke="midnightblue" points="171.973,-47.7914 165.693,-56.324 175.923,-53.5703 171.973,-47.7914"/>
</g>
</g>
</svg>
