<?xml version="1.0" encoding="UTF-8" standalone="no"?>
<!DOCTYPE svg PUBLIC "-//W3C//DTD SVG 1.1//EN"
 "http://www.w3.org/Graphics/SVG/1.1/DTD/svg11.dtd">
<!-- Generated by graphviz version 2.38.0 (20140413.2041)
 -->
<!-- Title: NFCGameServerNet_ServerModule.h Pages: 1 -->
<svg width="390pt" height="84pt"
 viewBox="0.00 0.00 389.50 84.00" xmlns="http://www.w3.org/2000/svg" xmlns:xlink="http://www.w3.org/1999/xlink">
<g id="graph0" class="graph" transform="scale(1 1) rotate(0) translate(4 80)">
<title>NFCGameServerNet_ServerModule.h</title>
<polygon fill="white" stroke="none" points="-4,4 -4,-80 385.5,-80 385.5,4 -4,4"/>
<!-- Node75 -->
<g id="node1" class="node"><title>Node75</title>
<polygon fill="#bfbfbf" stroke="black" points="105.5,-56.5 105.5,-75.5 281.5,-75.5 281.5,-56.5 105.5,-56.5"/>
<text text-anchor="middle" x="193.5" y="-63.5" font-family="Helvetica,sans-Serif" font-size="10.00">NFCGameServerNet_ServerModule.h</text>
</g>
<!-- Node76 -->
<g id="node2" class="node"><title>Node76</title>
<g id="a_node2"><a xlink:href="_n_f_c_game_server_net___server_module_8cpp.html" target="_top" xlink:title="NFCGameServerNet_ServerModule.cpp">
<polygon fill="white" stroke="black" points="0,-0.5 0,-19.5 187,-19.5 187,-0.5 0,-0.5"/>
<text text-anchor="middle" x="93.5" y="-7.5" font-family="Helvetica,sans-Serif" font-size="10.00">NFCGameServerNet_ServerModule.cpp</text>
</a>
</g>
</g>
<!-- Node75&#45;&gt;Node76 -->
<g id="edge1" class="edge"><title>Node75&#45;&gt;Node76</title>
<path fill="none" stroke="midnightblue" d="M168.412,-51.4526C149.951,-41.4835 125.403,-28.2279 109.527,-19.6545"/>
<polygon fill="midnightblue" stroke="midnightblue" points="166.971,-54.6521 177.433,-56.324 170.297,-48.4928 166.971,-54.6521"/>
</g>
<!-- Node77 -->
<g id="node3" class="node"><title>Node77</title>
<g id="a_node3"><a xlink:href="_n_f_game_server_net___server_plugin_8cpp.html" target="_top" xlink:title="NFGameServerNet_ServerPlugin.cpp">
<polygon fill="white" stroke="black" points="205.5,-0.5 205.5,-19.5 381.5,-19.5 381.5,-0.5 205.5,-0.5"/>
<text text-anchor="middle" x="293.5" y="-7.5" font-family="Helvetica,sans-Serif" font-size="10.00">NFGameServerNet_ServerPlugin.cpp</text>
</a>
</g>
</g>
<!-- Node75&#45;&gt;Node77 -->
<g id="edge2" class="edge"><title>Node75&#45;&gt;Node77</title>
<path fill="none" stroke="midnightblue" d="M218.588,-51.4526C237.049,-41.4835 261.597,-28.2279 277.473,-19.6545"/>
<polygon fill="midnightblue" stroke="midnightblue" points="216.703,-48.4928 209.567,-56.324 220.029,-54.6521 216.703,-48.4928"/>
</g>
</g>
</svg>
