<?xml version="1.0" encoding="UTF-8" standalone="no"?>
<!DOCTYPE svg PUBLIC "-//W3C//DTD SVG 1.1//EN"
 "http://www.w3.org/Graphics/SVG/1.1/DTD/svg11.dtd">
<!-- Generated by graphviz version 2.38.0 (20140413.2041)
 -->
<!-- Title: NFCUUIDModule.h Pages: 1 -->
<svg width="238pt" height="84pt"
 viewBox="0.00 0.00 238.00 84.00" xmlns="http://www.w3.org/2000/svg" xmlns:xlink="http://www.w3.org/1999/xlink">
<g id="graph0" class="graph" transform="scale(1 1) rotate(0) translate(4 80)">
<title>NFCUUIDModule.h</title>
<polygon fill="white" stroke="none" points="-4,4 -4,-80 234,-80 234,4 -4,4"/>
<!-- Node44 -->
<g id="node1" class="node"><title>Node44</title>
<polygon fill="#bfbfbf" stroke="black" points="67.5,-56.5 67.5,-75.5 165.5,-75.5 165.5,-56.5 67.5,-56.5"/>
<text text-anchor="middle" x="116.5" y="-63.5" font-family="Helvetica,sans-Serif" font-size="10.00">NFCUUIDModule.h</text>
</g>
<!-- Node45 -->
<g id="node2" class="node"><title>Node45</title>
<g id="a_node2"><a xlink:href="_n_f_c_u_u_i_d_module_8cpp.html" target="_top" xlink:title="NFCUUIDModule.cpp">
<polygon fill="white" stroke="black" points="0,-0.5 0,-19.5 109,-19.5 109,-0.5 0,-0.5"/>
<text text-anchor="middle" x="54.5" y="-7.5" font-family="Helvetica,sans-Serif" font-size="10.00">NFCUUIDModule.cpp</text>
</a>
</g>
</g>
<!-- Node44&#45;&gt;Node45 -->
<g id="edge1" class="edge"><title>Node44&#45;&gt;Node45</title>
<path fill="none" stroke="midnightblue" d="M98.7464,-49.5372C87.6915,-39.9087 73.8685,-27.8694 64.6426,-19.8339"/>
<polygon fill="midnightblue" stroke="midnightblue" points="96.699,-52.3954 106.539,-56.324 101.297,-47.1168 96.699,-52.3954"/>
</g>
<!-- Node46 -->
<g id="node3" class="node"><title>Node46</title>
<g id="a_node3"><a xlink:href="_n_f_kernel_plugin_8cpp.html" target="_top" xlink:title="NFKernelPlugin.cpp">
<polygon fill="white" stroke="black" points="127,-0.5 127,-19.5 230,-19.5 230,-0.5 127,-0.5"/>
<text text-anchor="middle" x="178.5" y="-7.5" font-family="Helvetica,sans-Serif" font-size="10.00">NFKernelPlugin.cpp</text>
</a>
</g>
</g>
<!-- Node44&#45;&gt;Node46 -->
<g id="edge2" class="edge"><title>Node44&#45;&gt;Node46</title>
<path fill="none" stroke="midnightblue" d="M134.254,-49.5372C145.308,-39.9087 159.131,-27.8694 168.357,-19.8339"/>
<polygon fill="midnightblue" stroke="midnightblue" points="131.703,-47.1168 126.461,-56.324 136.301,-52.3954 131.703,-47.1168"/>
</g>
</g>
</svg>
