<?xml version="1.0" encoding="UTF-8" standalone="no"?>
<!DOCTYPE svg PUBLIC "-//W3C//DTD SVG 1.1//EN"
 "http://www.w3.org/Graphics/SVG/1.1/DTD/svg11.dtd">
<!-- Generated by graphviz version 2.38.0 (20140413.2041)
 -->
<!-- Title: NFIWorldGuildDataModule.h Pages: 1 -->
<svg width="420pt" height="95pt"
 viewBox="0.00 0.00 419.50 95.00" xmlns="http://www.w3.org/2000/svg" xmlns:xlink="http://www.w3.org/1999/xlink">
<g id="graph0" class="graph" transform="scale(1 1) rotate(0) translate(4 91)">
<title>NFIWorldGuildDataModule.h</title>
<polygon fill="white" stroke="none" points="-4,4 -4,-91 415.5,-91 415.5,4 -4,4"/>
<!-- Node0 -->
<g id="node1" class="node"><title>Node0</title>
<polygon fill="#bfbfbf" stroke="black" points="113.5,-67.5 113.5,-86.5 253.5,-86.5 253.5,-67.5 113.5,-67.5"/>
<text text-anchor="middle" x="183.5" y="-74.5" font-family="Helvetica,sans-Serif" font-size="10.00">NFIWorldGuildDataModule.h</text>
</g>
<!-- Node1 -->
<g id="node2" class="node"><title>Node1</title>
<polygon fill="white" stroke="#bfbfbf" points="0,-6 0,-25 95,-25 95,-6 0,-6"/>
<text text-anchor="middle" x="47.5" y="-13" font-family="Helvetica,sans-Serif" font-size="10.00">NFILogicModule.h</text>
</g>
<!-- Node0&#45;&gt;Node1 -->
<g id="edge1" class="edge"><title>Node0&#45;&gt;Node1</title>
<path fill="none" stroke="midnightblue" d="M164.015,-67.4751C141.09,-57.4455 102.815,-40.7002 76.4248,-29.1546"/>
<polygon fill="midnightblue" stroke="midnightblue" points="77.5138,-25.8108 66.9493,-25.0091 74.708,-32.2239 77.5138,-25.8108"/>
</g>
<!-- Node2 -->
<g id="node3" class="node"><title>Node2</title>
<polygon fill="white" stroke="#bfbfbf" points="113.5,-0.5 113.5,-30.5 253.5,-30.5 253.5,-0.5 113.5,-0.5"/>
<text text-anchor="start" x="121.5" y="-18.5" font-family="Helvetica,sans-Serif" font-size="10.00">NFComm/NFMessageDefine</text>
<text text-anchor="middle" x="183.5" y="-7.5" font-family="Helvetica,sans-Serif" font-size="10.00">/NFProtocolDefine.hpp</text>
</g>
<!-- Node0&#45;&gt;Node2 -->
<g id="edge2" class="edge"><title>Node0&#45;&gt;Node2</title>
<path fill="none" stroke="midnightblue" d="M183.5,-67.4751C183.5,-60.471 183.5,-50.1919 183.5,-40.6956"/>
<polygon fill="midnightblue" stroke="midnightblue" points="187,-40.5229 183.5,-30.523 180,-40.523 187,-40.5229"/>
</g>
<!-- Node3 -->
<g id="node4" class="node"><title>Node3</title>
<polygon fill="white" stroke="#bfbfbf" points="271.5,-0.5 271.5,-30.5 411.5,-30.5 411.5,-0.5 271.5,-0.5"/>
<text text-anchor="start" x="279.5" y="-18.5" font-family="Helvetica,sans-Serif" font-size="10.00">NFComm/NFMessageDefine</text>
<text text-anchor="middle" x="341.5" y="-7.5" font-family="Helvetica,sans-Serif" font-size="10.00">/NFDefine.pb.h</text>
</g>
<!-- Node0&#45;&gt;Node3 -->
<g id="edge3" class="edge"><title>Node0&#45;&gt;Node3</title>
<path fill="none" stroke="midnightblue" d="M206.138,-67.4751C229.136,-58.8142 265.433,-45.1454 294.654,-34.1415"/>
<polygon fill="midnightblue" stroke="midnightblue" points="296.138,-37.3227 304.263,-30.523 293.671,-30.7718 296.138,-37.3227"/>
</g>
</g>
</svg>
