<?xml version="1.0" encoding="UTF-8" standalone="no"?>
<!DOCTYPE svg PUBLIC "-//W3C//DTD SVG 1.1//EN"
 "http://www.w3.org/Graphics/SVG/1.1/DTD/svg11.dtd">
<!-- Generated by graphviz version 2.38.0 (20140413.2041)
 -->
<!-- Title: NFCComponentManager.h Pages: 1 -->
<!--zoomable 576 -->
<svg id="main" version="1.1" xmlns="http://www.w3.org/2000/svg" xmlns:xlink="http://www.w3.org/1999/xlink" xml:space="preserve" onload="init(evt)">
<style type="text/css"><![CDATA[
.edge:hover path { stroke: red; }
.edge:hover polygon { stroke: red; fill: red; }
]]></style>
<script type="text/javascript"><![CDATA[
var edges = document.getElementsByTagName('g');
if (edges && edges.length) {
  for (var i=0;i<edges.length;i++) {
    if (edges[i].id.substr(0,4)=='edge') {
      edges[i].setAttribute('class','edge');
    }
  }
}
]]></script>
        <defs>
                <circle id="rim" cx="0" cy="0" r="7"/>
                <circle id="rim2" cx="0" cy="0" r="3.5"/>
                <g id="zoomPlus">
                        <use xlink:href="#rim" fill="#404040">
                                <set attributeName="fill" to="#808080" begin="zoomplus.mouseover" end="zoomplus.mouseout"/>
                        </use>
                        <path d="M-4,0h8M0,-4v8" fill="none" stroke="white" stroke-width="1.5" pointer-events="none"/>
                </g>
                <g id="zoomMin">
                        <use xlink:href="#rim" fill="#404040">
                                <set attributeName="fill" to="#808080" begin="zoomminus.mouseover" end="zoomminus.mouseout"/>
                        </use>
                        <path d="M-4,0h8" fill="none" stroke="white" stroke-width="1.5" pointer-events="none"/>
                </g>
                <g id="dirArrow">
                        <path fill="none" stroke="white" stroke-width="1.5" d="M0,-3.0v7 M-2.5,-0.5L0,-3.0L2.5,-0.5"/>
                </g>
               <g id="resetDef">
                       <use xlink:href="#rim2" fill="#404040">
                               <set attributeName="fill" to="#808080" begin="reset.mouseover" end="reset.mouseout"/>
                       </use>
               </g>
        </defs>

<script type="text/javascript">
var viewWidth = 1811;
var viewHeight = 576;
var sectionId = 'dynsection-0';
</script>
<script xlink:href="svgpan.js"/>
<svg id="graph" class="graph">
<g id="viewport">
<title>NFCComponentManager.h</title>
<polygon fill="white" stroke="none" points="-4,4 -4,-572 1806.61,-572 1806.61,4 -4,4"/>
<!-- Node0 -->
<g id="node1" class="node"><title>Node0</title>
<polygon fill="#bfbfbf" stroke="black" points="1040,-548.5 1040,-567.5 1171,-567.5 1171,-548.5 1040,-548.5"/>
<text text-anchor="middle" x="1105.5" y="-555.5" font-family="Helvetica,sans-Serif" font-size="10.00">NFCComponentManager.h</text>
</g>
<!-- Node1 -->
<g id="node2" class="node"><title>Node1</title>
<g id="a_node2"><a xlink:href="_n_f_i_component_manager_8h.html" target="_top" xlink:title="NFIComponentManager.h">
<polygon fill="white" stroke="black" points="277,-492.5 277,-511.5 404,-511.5 404,-492.5 277,-492.5"/>
<text text-anchor="middle" x="340.5" y="-499.5" font-family="Helvetica,sans-Serif" font-size="10.00">NFIComponentManager.h</text>
</a>
</g>
</g>
<!-- Node0&#45;&gt;Node1 -->
<g id="edge1" class="edge"><title>Node0&#45;&gt;Node1</title>
<path fill="none" stroke="midnightblue" d="M1039.95,-552.373C898.146,-542.363 563.712,-518.756 414.554,-508.227"/>
<polygon fill="midnightblue" stroke="midnightblue" points="414.362,-504.705 404.14,-507.492 413.869,-511.688 414.362,-504.705"/>
</g>
<!-- Node16 -->
<g id="node17" class="node"><title>Node16</title>
<g id="a_node17"><a xlink:href="_n_f_g_u_i_d_8h.html" target="_top" xlink:title="NFComm/NFPluginModule\l/NFGUID.h">
<polygon fill="white" stroke="black" points="1658.5,-123.5 1658.5,-153.5 1790.5,-153.5 1790.5,-123.5 1658.5,-123.5"/>
<text text-anchor="start" x="1666.5" y="-141.5" font-family="Helvetica,sans-Serif" font-size="10.00">NFComm/NFPluginModule</text>
<text text-anchor="middle" x="1724.5" y="-130.5" font-family="Helvetica,sans-Serif" font-size="10.00">/NFGUID.h</text>
</a>
</g>
</g>
<!-- Node0&#45;&gt;Node16 -->
<g id="edge69" class="edge"><title>Node0&#45;&gt;Node16</title>
<path fill="none" stroke="midnightblue" d="M1171.2,-552.846C1337.59,-541.451 1762.5,-506.524 1762.5,-447 1762.5,-447 1762.5,-447 1762.5,-255 1762.5,-221.717 1748.09,-185.62 1737.01,-162.8"/>
<polygon fill="midnightblue" stroke="midnightblue" points="1740,-160.949 1732.37,-153.593 1733.75,-164.099 1740,-160.949"/>
</g>
<!-- Node2 -->
<g id="node3" class="node"><title>Node2</title>
<polygon fill="white" stroke="#bfbfbf" points="221.5,-129 221.5,-148 273.5,-148 273.5,-129 221.5,-129"/>
<text text-anchor="middle" x="247.5" y="-136" font-family="Helvetica,sans-Serif" font-size="10.00">memory</text>
</g>
<!-- Node1&#45;&gt;Node2 -->
<g id="edge2" class="edge"><title>Node1&#45;&gt;Node2</title>
<path fill="none" stroke="midnightblue" d="M278.74,-492.5C218.697,-480.349 136.5,-451.636 136.5,-385.5 136.5,-385.5 136.5,-385.5 136.5,-255 136.5,-206.907 187.15,-171.084 220.022,-152.9"/>
<polygon fill="midnightblue" stroke="midnightblue" points="221.984,-155.821 229.171,-148.036 218.698,-149.64 221.984,-155.821"/>
</g>
<!-- Node3 -->
<g id="node4" class="node"><title>Node3</title>
<g id="a_node4"><a xlink:href="_n_f_map_8h.html" target="_top" xlink:title="NFMap.h">
<polygon fill="white" stroke="black" points="430.5,-246.5 430.5,-265.5 486.5,-265.5 486.5,-246.5 430.5,-246.5"/>
<text text-anchor="middle" x="458.5" y="-253.5" font-family="Helvetica,sans-Serif" font-size="10.00">NFMap.h</text>
</a>
</g>
</g>
<!-- Node1&#45;&gt;Node3 -->
<g id="edge3" class="edge"><title>Node1&#45;&gt;Node3</title>
<path fill="none" stroke="midnightblue" d="M344.324,-492.115C349.764,-479.549 360.121,-455.895 369.5,-436 397.677,-376.231 433.171,-306.355 449.512,-274.466"/>
<polygon fill="midnightblue" stroke="midnightblue" points="452.657,-276.003 454.111,-265.508 446.43,-272.806 452.657,-276.003"/>
</g>
<!-- Node10 -->
<g id="node11" class="node"><title>Node10</title>
<g id="a_node11"><a xlink:href="_n_f_platform_8h.html" target="_top" xlink:title="NFComm/NFPluginModule\l/NFPlatform.h">
<polygon fill="white" stroke="black" points="89.5,-56.5 89.5,-86.5 221.5,-86.5 221.5,-56.5 89.5,-56.5"/>
<text text-anchor="start" x="97.5" y="-74.5" font-family="Helvetica,sans-Serif" font-size="10.00">NFComm/NFPluginModule</text>
<text text-anchor="middle" x="155.5" y="-63.5" font-family="Helvetica,sans-Serif" font-size="10.00">/NFPlatform.h</text>
</a>
</g>
</g>
<!-- Node1&#45;&gt;Node10 -->
<g id="edge67" class="edge"><title>Node1&#45;&gt;Node10</title>
<path fill="none" stroke="midnightblue" d="M276.917,-497.448C205.217,-489.606 98.5,-464.641 98.5,-385.5 98.5,-385.5 98.5,-385.5 98.5,-199 98.5,-159.74 121.604,-119.196 138.393,-94.9158"/>
<polygon fill="midnightblue" stroke="midnightblue" points="141.27,-96.9095 144.239,-86.7389 135.576,-92.8386 141.27,-96.9095"/>
</g>
<!-- Node15 -->
<g id="node16" class="node"><title>Node15</title>
<g id="a_node16"><a xlink:href="_n_f_i_component_8h.html" target="_top" xlink:title="NFIComponent.h">
<polygon fill="white" stroke="black" points="379,-436.5 379,-455.5 468,-455.5 468,-436.5 379,-436.5"/>
<text text-anchor="middle" x="423.5" y="-443.5" font-family="Helvetica,sans-Serif" font-size="10.00">NFIComponent.h</text>
</a>
</g>
</g>
<!-- Node1&#45;&gt;Node15 -->
<g id="edge22" class="edge"><title>Node1&#45;&gt;Node15</title>
<path fill="none" stroke="midnightblue" d="M353.835,-492.324C366.662,-483.979 386.285,-471.212 401.44,-461.352"/>
<polygon fill="midnightblue" stroke="midnightblue" points="403.724,-464.042 410.198,-455.655 399.907,-458.174 403.724,-464.042"/>
</g>
<!-- Node19 -->
<g id="node20" class="node"><title>Node19</title>
<g id="a_node20"><a xlink:href="_n_f_i_module_8h.html" target="_top" xlink:title="NFComm/NFPluginModule\l/NFIModule.h">
<polygon fill="white" stroke="black" points="677.5,-369.5 677.5,-399.5 809.5,-399.5 809.5,-369.5 677.5,-369.5"/>
<text text-anchor="start" x="685.5" y="-387.5" font-family="Helvetica,sans-Serif" font-size="10.00">NFComm/NFPluginModule</text>
<text text-anchor="middle" x="743.5" y="-376.5" font-family="Helvetica,sans-Serif" font-size="10.00">/NFIModule.h</text>
</a>
</g>
</g>
<!-- Node1&#45;&gt;Node19 -->
<g id="edge68" class="edge"><title>Node1&#45;&gt;Node19</title>
<path fill="none" stroke="midnightblue" d="M370.461,-492.413C436.855,-473.385 597.37,-427.381 684.635,-402.371"/>
<polygon fill="midnightblue" stroke="midnightblue" points="685.739,-405.695 694.388,-399.575 683.811,-398.966 685.739,-405.695"/>
</g>
<!-- Node4 -->
<g id="node5" class="node"><title>Node4</title>
<polygon fill="white" stroke="#bfbfbf" points="512,-129 512,-148 547,-148 547,-129 512,-129"/>
<text text-anchor="middle" x="529.5" y="-136" font-family="Helvetica,sans-Serif" font-size="10.00">map</text>
</g>
<!-- Node3&#45;&gt;Node4 -->
<g id="edge4" class="edge"><title>Node3&#45;&gt;Node4</title>
<path fill="none" stroke="midnightblue" d="M465.448,-246.29C472.399,-237.406 483.219,-223.104 491.5,-210 502.378,-192.786 513.246,-172.194 520.556,-157.724"/>
<polygon fill="midnightblue" stroke="midnightblue" points="523.872,-158.916 525.199,-148.404 517.607,-155.794 523.872,-158.916"/>
</g>
<!-- Node5 -->
<g id="node6" class="node"><title>Node5</title>
<polygon fill="white" stroke="#bfbfbf" points="565,-129 565,-148 594,-148 594,-129 565,-129"/>
<text text-anchor="middle" x="579.5" y="-136" font-family="Helvetica,sans-Serif" font-size="10.00">list</text>
</g>
<!-- Node3&#45;&gt;Node5 -->
<g id="edge5" class="edge"><title>Node3&#45;&gt;Node5</title>
<path fill="none" stroke="midnightblue" d="M469.329,-246.338C480.235,-237.491 497.418,-223.217 511.5,-210 530.572,-192.1 551.274,-170.26 564.762,-155.676"/>
<polygon fill="midnightblue" stroke="midnightblue" points="567.615,-157.744 571.803,-148.012 562.46,-153.008 567.615,-157.744"/>
</g>
<!-- Node6 -->
<g id="node7" class="node"><title>Node6</title>
<polygon fill="white" stroke="#bfbfbf" points="346,-0.5 346,-19.5 387,-19.5 387,-0.5 346,-0.5"/>
<text text-anchor="middle" x="366.5" y="-7.5" font-family="Helvetica,sans-Serif" font-size="10.00">string</text>
</g>
<!-- Node3&#45;&gt;Node6 -->
<g id="edge6" class="edge"><title>Node3&#45;&gt;Node6</title>
<path fill="none" stroke="midnightblue" d="M430.295,-253.326C376.593,-248.422 260.726,-229.2 212.5,-154 205.062,-142.402 206.248,-135.278 212.5,-123 238.458,-72.0242 299.684,-38.79 336.641,-22.603"/>
<polygon fill="midnightblue" stroke="midnightblue" points="338.081,-25.7941 345.924,-18.6714 335.351,-19.3482 338.081,-25.7941"/>
</g>
<!-- Node7 -->
<g id="node8" class="node"><title>Node7</title>
<polygon fill="white" stroke="#bfbfbf" points="652.5,-62 652.5,-81 706.5,-81 706.5,-62 652.5,-62"/>
<text text-anchor="middle" x="679.5" y="-69" font-family="Helvetica,sans-Serif" font-size="10.00">iostream</text>
</g>
<!-- Node3&#45;&gt;Node7 -->
<g id="edge7" class="edge"><title>Node3&#45;&gt;Node7</title>
<path fill="none" stroke="midnightblue" d="M458.732,-246.483C459.841,-223.169 466.201,-157.742 502.5,-123 540.433,-86.6937 602.592,-76.1893 642.25,-73.322"/>
<polygon fill="midnightblue" stroke="midnightblue" points="642.535,-76.8114 652.309,-72.7234 642.119,-69.8237 642.535,-76.8114"/>
</g>
<!-- Node8 -->
<g id="node9" class="node"><title>Node8</title>
<polygon fill="white" stroke="#bfbfbf" points="405.5,-129 405.5,-148 455.5,-148 455.5,-129 405.5,-129"/>
<text text-anchor="middle" x="430.5" y="-136" font-family="Helvetica,sans-Serif" font-size="10.00">typeinfo</text>
</g>
<!-- Node3&#45;&gt;Node8 -->
<g id="edge8" class="edge"><title>Node3&#45;&gt;Node8</title>
<path fill="none" stroke="midnightblue" d="M456.395,-246.319C451.875,-227.673 441.153,-183.443 435.017,-158.132"/>
<polygon fill="midnightblue" stroke="midnightblue" points="438.387,-157.176 432.629,-148.282 431.584,-158.825 438.387,-157.176"/>
</g>
<!-- Node9 -->
<g id="node10" class="node"><title>Node9</title>
<g id="a_node10"><a xlink:href="_n_f_map_ex_8h.html" target="_top" xlink:title="NFMapEx.h">
<polygon fill="white" stroke="black" points="343.5,-190.5 343.5,-209.5 411.5,-209.5 411.5,-190.5 343.5,-190.5"/>
<text text-anchor="middle" x="377.5" y="-197.5" font-family="Helvetica,sans-Serif" font-size="10.00">NFMapEx.h</text>
</a>
</g>
</g>
<!-- Node3&#45;&gt;Node9 -->
<g id="edge9" class="edge"><title>Node3&#45;&gt;Node9</title>
<path fill="none" stroke="midnightblue" d="M445.486,-246.324C432.968,-237.979 413.818,-225.212 399.029,-215.352"/>
<polygon fill="midnightblue" stroke="midnightblue" points="400.744,-212.289 390.482,-209.655 396.861,-218.114 400.744,-212.289"/>
</g>
<!-- Node9&#45;&gt;Node2 -->
<g id="edge15" class="edge"><title>Node9&#45;&gt;Node2</title>
<path fill="none" stroke="midnightblue" d="M358.874,-190.475C337.057,-180.49 300.696,-163.848 275.483,-152.307"/>
<polygon fill="midnightblue" stroke="midnightblue" points="276.641,-148.988 266.091,-148.009 273.728,-155.353 276.641,-148.988"/>
</g>
<!-- Node9&#45;&gt;Node4 -->
<g id="edge10" class="edge"><title>Node9&#45;&gt;Node4</title>
<path fill="none" stroke="midnightblue" d="M399.278,-190.475C426.3,-179.897 472.406,-161.849 501.885,-150.31"/>
<polygon fill="midnightblue" stroke="midnightblue" points="503.524,-153.427 511.561,-146.522 500.973,-146.908 503.524,-153.427"/>
</g>
<!-- Node9&#45;&gt;Node5 -->
<g id="edge11" class="edge"><title>Node9&#45;&gt;Node5</title>
<path fill="none" stroke="midnightblue" d="M411.588,-193.486C448.14,-186.867 507.408,-174.081 555.5,-154 556.208,-153.705 556.919,-153.391 557.631,-153.062"/>
<polygon fill="midnightblue" stroke="midnightblue" points="559.514,-156.023 566.666,-148.207 556.201,-149.857 559.514,-156.023"/>
</g>
<!-- Node9&#45;&gt;Node6 -->
<g id="edge12" class="edge"><title>Node9&#45;&gt;Node6</title>
<path fill="none" stroke="midnightblue" d="M376.999,-190.434C375.331,-161.928 369.942,-69.8218 367.602,-29.8263"/>
<polygon fill="midnightblue" stroke="midnightblue" points="371.082,-29.3953 367.004,-19.6168 364.094,-29.8042 371.082,-29.3953"/>
</g>
<!-- Node9&#45;&gt;Node7 -->
<g id="edge13" class="edge"><title>Node9&#45;&gt;Node7</title>
<path fill="none" stroke="midnightblue" d="M376.89,-190.467C376.27,-174.661 377.415,-140.823 396.5,-123 431.557,-90.2625 573.516,-78.2162 642.079,-74.2458"/>
<polygon fill="midnightblue" stroke="midnightblue" points="642.633,-77.7207 652.425,-73.676 642.248,-70.7313 642.633,-77.7207"/>
</g>
<!-- Node9&#45;&gt;Node8 -->
<g id="edge14" class="edge"><title>Node9&#45;&gt;Node8</title>
<path fill="none" stroke="midnightblue" d="M385.094,-190.475C393.201,-181.373 406.235,-166.741 416.263,-155.483"/>
<polygon fill="midnightblue" stroke="midnightblue" points="418.883,-157.804 422.92,-148.009 413.656,-153.148 418.883,-157.804"/>
</g>
<!-- Node9&#45;&gt;Node10 -->
<g id="edge16" class="edge"><title>Node9&#45;&gt;Node10</title>
<path fill="none" stroke="midnightblue" d="M367.554,-190.417C347.047,-172.825 300.486,-133.456 282.5,-123 259.705,-109.748 232.769,-98.485 209.583,-89.9817"/>
<polygon fill="midnightblue" stroke="midnightblue" points="210.493,-86.5899 199.899,-86.5086 208.13,-93.179 210.493,-86.5899"/>
</g>
<!-- Node10&#45;&gt;Node6 -->
<g id="edge21" class="edge"><title>Node10&#45;&gt;Node6</title>
<path fill="none" stroke="midnightblue" d="M207.067,-56.3981C241.057,-47.0377 286.791,-34.3197 335.978,-20.1107"/>
<polygon fill="midnightblue" stroke="midnightblue" points="337.227,-23.3929 345.859,-17.2496 335.28,-16.6691 337.227,-23.3929"/>
</g>
<!-- Node11 -->
<g id="node12" class="node"><title>Node11</title>
<polygon fill="white" stroke="#bfbfbf" points="0,-0.5 0,-19.5 49,-19.5 49,-0.5 0,-0.5"/>
<text text-anchor="middle" x="24.5" y="-7.5" font-family="Helvetica,sans-Serif" font-size="10.00">stdint.h</text>
</g>
<!-- Node10&#45;&gt;Node11 -->
<g id="edge17" class="edge"><title>Node10&#45;&gt;Node11</title>
<path fill="none" stroke="midnightblue" d="M124.455,-56.3993C102.77,-46.55 74.0409,-33.5014 52.9495,-23.9217"/>
<polygon fill="midnightblue" stroke="midnightblue" points="54.1139,-20.6065 43.5617,-19.6578 51.2191,-26.9799 54.1139,-20.6065"/>
</g>
<!-- Node12 -->
<g id="node13" class="node"><title>Node12</title>
<polygon fill="white" stroke="#bfbfbf" points="67.5,-0.5 67.5,-19.5 111.5,-19.5 111.5,-0.5 67.5,-0.5"/>
<text text-anchor="middle" x="89.5" y="-7.5" font-family="Helvetica,sans-Serif" font-size="10.00">time.h</text>
</g>
<!-- Node10&#45;&gt;Node12 -->
<g id="edge18" class="edge"><title>Node10&#45;&gt;Node12</title>
<path fill="none" stroke="midnightblue" d="M139.859,-56.3993C129.873,-47.3967 116.922,-35.7214 106.655,-26.4652"/>
<polygon fill="midnightblue" stroke="midnightblue" points="108.875,-23.7541 99.1036,-19.6578 104.187,-28.9533 108.875,-23.7541"/>
</g>
<!-- Node13 -->
<g id="node14" class="node"><title>Node13</title>
<polygon fill="white" stroke="#bfbfbf" points="129.5,-0.5 129.5,-19.5 181.5,-19.5 181.5,-0.5 129.5,-0.5"/>
<text text-anchor="middle" x="155.5" y="-7.5" font-family="Helvetica,sans-Serif" font-size="10.00">sstream</text>
</g>
<!-- Node10&#45;&gt;Node13 -->
<g id="edge19" class="edge"><title>Node10&#45;&gt;Node13</title>
<path fill="none" stroke="midnightblue" d="M155.5,-56.3993C155.5,-48.4664 155.5,-38.458 155.5,-29.8583"/>
<polygon fill="midnightblue" stroke="midnightblue" points="159,-29.6577 155.5,-19.6578 152,-29.6578 159,-29.6577"/>
</g>
<!-- Node14 -->
<g id="node15" class="node"><title>Node14</title>
<polygon fill="white" stroke="#bfbfbf" points="199.5,-0.5 199.5,-19.5 327.5,-19.5 327.5,-0.5 199.5,-0.5"/>
<text text-anchor="middle" x="263.5" y="-7.5" font-family="Helvetica,sans-Serif" font-size="10.00">common/lexical_cast.hpp</text>
</g>
<!-- Node10&#45;&gt;Node14 -->
<g id="edge20" class="edge"><title>Node10&#45;&gt;Node14</title>
<path fill="none" stroke="midnightblue" d="M181.094,-56.3993C198.568,-46.7728 221.588,-34.0902 238.856,-24.5772"/>
<polygon fill="midnightblue" stroke="midnightblue" points="240.715,-27.5488 247.785,-19.6578 237.337,-21.4177 240.715,-27.5488"/>
</g>
<!-- Node15&#45;&gt;Node10 -->
<g id="edge23" class="edge"><title>Node15&#45;&gt;Node10</title>
<path fill="none" stroke="midnightblue" d="M416.176,-436.286C387.329,-401.77 279.422,-270.833 203.5,-154 190.934,-134.663 177.71,-112.015 168.331,-95.508"/>
<polygon fill="midnightblue" stroke="midnightblue" points="171.25,-93.5591 163.288,-86.5701 165.154,-96.9992 171.25,-93.5591"/>
</g>
<!-- Node15&#45;&gt;Node16 -->
<g id="edge24" class="edge"><title>Node15&#45;&gt;Node16</title>
<path fill="none" stroke="midnightblue" d="M468.283,-445.445C697.051,-447.14 1724.5,-447.568 1724.5,-318.5 1724.5,-318.5 1724.5,-318.5 1724.5,-255 1724.5,-223.495 1724.5,-187.155 1724.5,-163.783"/>
<polygon fill="midnightblue" stroke="midnightblue" points="1728,-163.725 1724.5,-153.725 1721,-163.725 1728,-163.725"/>
</g>
<!-- Node15&#45;&gt;Node19 -->
<g id="edge29" class="edge"><title>Node15&#45;&gt;Node19</title>
<path fill="none" stroke="midnightblue" d="M468.332,-436.664C519.82,-427.091 605.158,-411.223 667.167,-399.693"/>
<polygon fill="midnightblue" stroke="midnightblue" points="668.104,-403.079 677.296,-397.81 666.825,-396.197 668.104,-403.079"/>
</g>
<!-- Node16&#45;&gt;Node7 -->
<g id="edge26" class="edge"><title>Node16&#45;&gt;Node7</title>
<path fill="none" stroke="midnightblue" d="M1658.33,-124.189C1655.35,-123.754 1652.4,-123.354 1649.5,-123 1288.06,-78.8691 846.244,-73.2566 716.79,-72.5808"/>
<polygon fill="midnightblue" stroke="midnightblue" points="716.637,-69.0802 706.621,-72.5348 716.605,-76.0801 716.637,-69.0802"/>
</g>
<!-- Node16&#45;&gt;Node10 -->
<g id="edge25" class="edge"><title>Node16&#45;&gt;Node10</title>
<path fill="none" stroke="midnightblue" d="M1658.33,-124.123C1655.35,-123.705 1652.4,-123.327 1649.5,-123 1578.62,-115 527.225,-83.4842 232.049,-74.753"/>
<polygon fill="midnightblue" stroke="midnightblue" points="231.969,-71.2493 221.87,-74.4521 231.762,-78.2462 231.969,-71.2493"/>
</g>
<!-- Node17 -->
<g id="node18" class="node"><title>Node17</title>
<polygon fill="white" stroke="#bfbfbf" points="1701.5,-62 1701.5,-81 1747.5,-81 1747.5,-62 1701.5,-62"/>
<text text-anchor="middle" x="1724.5" y="-69" font-family="Helvetica,sans-Serif" font-size="10.00">stdio.h</text>
</g>
<!-- Node16&#45;&gt;Node17 -->
<g id="edge27" class="edge"><title>Node16&#45;&gt;Node17</title>
<path fill="none" stroke="midnightblue" d="M1724.5,-123.396C1724.5,-114.064 1724.5,-101.714 1724.5,-91.5173"/>
<polygon fill="midnightblue" stroke="midnightblue" points="1728,-91.1945 1724.5,-81.1945 1721,-91.1946 1728,-91.1945"/>
</g>
<!-- Node18 -->
<g id="node19" class="node"><title>Node18</title>
<polygon fill="white" stroke="#bfbfbf" points="1590.5,-62 1590.5,-81 1638.5,-81 1638.5,-62 1590.5,-62"/>
<text text-anchor="middle" x="1614.5" y="-69" font-family="Helvetica,sans-Serif" font-size="10.00">stdlib.h</text>
</g>
<!-- Node16&#45;&gt;Node18 -->
<g id="edge28" class="edge"><title>Node16&#45;&gt;Node18</title>
<path fill="none" stroke="midnightblue" d="M1700.63,-123.396C1681.93,-112.344 1656.06,-97.0607 1637.57,-86.1319"/>
<polygon fill="midnightblue" stroke="midnightblue" points="1639.29,-83.0811 1628.9,-81.007 1635.73,-89.1076 1639.29,-83.0811"/>
</g>
<!-- Node19&#45;&gt;Node3 -->
<g id="edge31" class="edge"><title>Node19&#45;&gt;Node3</title>
<path fill="none" stroke="midnightblue" d="M711.911,-369.479C656.109,-344.71 540.922,-293.584 487.226,-269.75"/>
<polygon fill="midnightblue" stroke="midnightblue" points="488.504,-266.488 477.944,-265.63 485.664,-272.886 488.504,-266.488"/>
</g>
<!-- Node19&#45;&gt;Node6 -->
<g id="edge30" class="edge"><title>Node19&#45;&gt;Node6</title>
<path fill="none" stroke="midnightblue" d="M809.811,-381.058C1050,-370.595 1857.46,-320.618 1799.5,-123 1789.54,-89.0473 1787.27,-73.467 1756.5,-56 1695.39,-21.3093 595.559,-12.497 397.068,-11.1865"/>
<polygon fill="midnightblue" stroke="midnightblue" points="397.062,-7.68646 387.04,-11.1216 397.017,-14.6863 397.062,-7.68646"/>
</g>
<!-- Node20 -->
<g id="node21" class="node"><title>Node20</title>
<g id="a_node21"><a xlink:href="_n_f_list_8h.html" target="_top" xlink:title="NFComm/NFCore/NFList.h">
<polygon fill="white" stroke="black" points="581.5,-190.5 581.5,-209.5 715.5,-209.5 715.5,-190.5 581.5,-190.5"/>
<text text-anchor="middle" x="648.5" y="-197.5" font-family="Helvetica,sans-Serif" font-size="10.00">NFComm/NFCore/NFList.h</text>
</a>
</g>
</g>
<!-- Node19&#45;&gt;Node20 -->
<g id="edge32" class="edge"><title>Node19&#45;&gt;Node20</title>
<path fill="none" stroke="midnightblue" d="M713.179,-369.4C698.306,-360.93 681.486,-348.724 671.5,-333 649.021,-297.605 646.795,-246.613 647.445,-219.535"/>
<polygon fill="midnightblue" stroke="midnightblue" points="650.944,-219.643 647.849,-209.51 643.949,-219.361 650.944,-219.643"/>
</g>
<!-- Node22 -->
<g id="node23" class="node"><title>Node22</title>
<g id="a_node23"><a xlink:href="_n_f_define_8h.html" target="_top" xlink:title="NFComm/NFCore/NFDefine.h">
<polygon fill="white" stroke="black" points="1092,-246.5 1092,-265.5 1237,-265.5 1237,-246.5 1092,-246.5"/>
<text text-anchor="middle" x="1164.5" y="-253.5" font-family="Helvetica,sans-Serif" font-size="10.00">NFComm/NFCore/NFDefine.h</text>
</a>
</g>
</g>
<!-- Node19&#45;&gt;Node22 -->
<g id="edge38" class="edge"><title>Node19&#45;&gt;Node22</title>
<path fill="none" stroke="midnightblue" d="M809.519,-383.951C910.589,-383.238 1097.08,-375.932 1145.5,-333 1161.53,-318.789 1165.03,-293.297 1165.34,-275.784"/>
<polygon fill="midnightblue" stroke="midnightblue" points="1168.84,-275.574 1165.19,-265.627 1161.84,-275.677 1168.84,-275.574"/>
</g>
<!-- Node24 -->
<g id="node25" class="node"><title>Node24</title>
<g id="a_node25"><a xlink:href="_a_f_data_list_8hpp.html" target="_top" xlink:title="AFDataList.hpp">
<polygon fill="white" stroke="black" points="1067.5,-190.5 1067.5,-209.5 1151.5,-209.5 1151.5,-190.5 1067.5,-190.5"/>
<text text-anchor="middle" x="1109.5" y="-197.5" font-family="Helvetica,sans-Serif" font-size="10.00">AFDataList.hpp</text>
</a>
</g>
</g>
<!-- Node19&#45;&gt;Node24 -->
<g id="edge61" class="edge"><title>Node19&#45;&gt;Node24</title>
<path fill="none" stroke="midnightblue" d="M771.612,-369.483C840.375,-335.195 1016.31,-247.468 1083.17,-214.127"/>
<polygon fill="midnightblue" stroke="midnightblue" points="1084.84,-217.21 1092.22,-209.615 1081.71,-210.945 1084.84,-217.21"/>
</g>
<!-- Node33 -->
<g id="node34" class="node"><title>Node33</title>
<g id="a_node34"><a xlink:href="_n_f_i_record_8h.html" target="_top" xlink:title="NFComm/NFCore/NFIRecord.h">
<polygon fill="white" stroke="black" points="985,-308 985,-327 1136,-327 1136,-308 985,-308"/>
<text text-anchor="middle" x="1060.5" y="-315" font-family="Helvetica,sans-Serif" font-size="10.00">NFComm/NFCore/NFIRecord.h</text>
</a>
</g>
</g>
<!-- Node19&#45;&gt;Node33 -->
<g id="edge62" class="edge"><title>Node19&#45;&gt;Node33</title>
<path fill="none" stroke="midnightblue" d="M809.568,-369.953C868.719,-357.824 954.272,-340.282 1008.63,-329.136"/>
<polygon fill="midnightblue" stroke="midnightblue" points="1009.64,-332.502 1018.73,-327.064 1008.23,-325.644 1009.64,-332.502"/>
</g>
<!-- Node34 -->
<g id="node35" class="node"><title>Node34</title>
<g id="a_node35"><a xlink:href="_n_f_event_define_8h.html" target="_top" xlink:title="NFComm/NFEventDefine\l/NFEventDefine.h">
<polygon fill="white" stroke="black" points="681,-302.5 681,-332.5 806,-332.5 806,-302.5 681,-302.5"/>
<text text-anchor="start" x="689" y="-320.5" font-family="Helvetica,sans-Serif" font-size="10.00">NFComm/NFEventDefine</text>
<text text-anchor="middle" x="743.5" y="-309.5" font-family="Helvetica,sans-Serif" font-size="10.00">/NFEventDefine.h</text>
</a>
</g>
</g>
<!-- Node19&#45;&gt;Node34 -->
<g id="edge65" class="edge"><title>Node19&#45;&gt;Node34</title>
<path fill="none" stroke="midnightblue" d="M743.5,-369.396C743.5,-361.645 743.5,-351.812 743.5,-342.86"/>
<polygon fill="midnightblue" stroke="midnightblue" points="747,-342.576 743.5,-332.577 740,-342.577 747,-342.576"/>
</g>
<!-- Node20&#45;&gt;Node4 -->
<g id="edge34" class="edge"><title>Node20&#45;&gt;Node4</title>
<path fill="none" stroke="midnightblue" d="M629.815,-190.349C610.923,-181.512 580.96,-167.245 555.5,-154 554.829,-153.651 554.151,-153.295 553.467,-152.933"/>
<polygon fill="midnightblue" stroke="midnightblue" points="555,-149.783 544.543,-148.084 551.658,-155.934 555,-149.783"/>
</g>
<!-- Node20&#45;&gt;Node5 -->
<g id="edge35" class="edge"><title>Node20&#45;&gt;Node5</title>
<path fill="none" stroke="midnightblue" d="M638.614,-190.475C627.854,-181.197 610.429,-166.171 597.279,-154.831"/>
<polygon fill="midnightblue" stroke="midnightblue" points="599.227,-151.889 589.368,-148.009 594.655,-157.19 599.227,-151.889"/>
</g>
<!-- Node20&#45;&gt;Node7 -->
<g id="edge33" class="edge"><title>Node20&#45;&gt;Node7</title>
<path fill="none" stroke="midnightblue" d="M650.631,-190.305C655.608,-169.994 668.092,-119.053 674.899,-91.2768"/>
<polygon fill="midnightblue" stroke="midnightblue" points="678.374,-91.8014 677.354,-81.2557 671.575,-90.1352 678.374,-91.8014"/>
</g>
<!-- Node20&#45;&gt;Node10 -->
<g id="edge37" class="edge"><title>Node20&#45;&gt;Node10</title>
<path fill="none" stroke="midnightblue" d="M645.988,-190.119C640.844,-173.734 627.439,-138.967 602.5,-123 542.786,-84.7665 342.893,-75.3642 231.722,-73.1286"/>
<polygon fill="midnightblue" stroke="midnightblue" points="231.64,-69.6266 221.576,-72.9396 231.509,-76.6254 231.64,-69.6266"/>
</g>
<!-- Node21 -->
<g id="node22" class="node"><title>Node21</title>
<polygon fill="white" stroke="#bfbfbf" points="726.5,-129 726.5,-148 782.5,-148 782.5,-129 726.5,-129"/>
<text text-anchor="middle" x="754.5" y="-136" font-family="Helvetica,sans-Serif" font-size="10.00">algorithm</text>
</g>
<!-- Node20&#45;&gt;Node21 -->
<g id="edge36" class="edge"><title>Node20&#45;&gt;Node21</title>
<path fill="none" stroke="midnightblue" d="M663.687,-190.475C681.162,-180.666 710.079,-164.435 730.583,-152.925"/>
<polygon fill="midnightblue" stroke="midnightblue" points="732.334,-155.956 739.341,-148.009 728.908,-149.852 732.334,-155.956"/>
</g>
<!-- Node22&#45;&gt;Node16 -->
<g id="edge60" class="edge"><title>Node22&#45;&gt;Node16</title>
<path fill="none" stroke="midnightblue" d="M1214.76,-246.47C1264.75,-237.838 1343.59,-223.828 1411.5,-210 1495.82,-192.83 1592.36,-170.71 1655.66,-155.866"/>
<polygon fill="midnightblue" stroke="midnightblue" points="1656.59,-159.242 1665.52,-153.548 1654.99,-152.428 1656.59,-159.242"/>
</g>
<!-- Node23 -->
<g id="node24" class="node"><title>Node23</title>
<polygon fill="white" stroke="#bfbfbf" points="1582.5,-129 1582.5,-148 1640.5,-148 1640.5,-129 1582.5,-129"/>
<text text-anchor="middle" x="1611.5" y="-136" font-family="Helvetica,sans-Serif" font-size="10.00">functional</text>
</g>
<!-- Node22&#45;&gt;Node23 -->
<g id="edge39" class="edge"><title>Node22&#45;&gt;Node23</title>
<path fill="none" stroke="midnightblue" d="M1202.93,-246.476C1275.06,-230.236 1435.47,-192.991 1568.5,-154 1571.43,-153.141 1574.46,-152.21 1577.49,-151.249"/>
<polygon fill="midnightblue" stroke="midnightblue" points="1578.63,-154.557 1587.05,-148.123 1576.46,-147.903 1578.63,-154.557"/>
</g>
<!-- Node22&#45;&gt;Node24 -->
<g id="edge40" class="edge"><title>Node22&#45;&gt;Node24</title>
<path fill="none" stroke="midnightblue" d="M1155.42,-246.083C1147.33,-238.141 1135.3,-226.335 1125.59,-216.797"/>
<polygon fill="midnightblue" stroke="midnightblue" points="1128,-214.26 1118.41,-209.751 1123.1,-219.254 1128,-214.26"/>
</g>
<!-- Node24&#45;&gt;Node2 -->
<g id="edge55" class="edge"><title>Node24&#45;&gt;Node2</title>
<path fill="none" stroke="midnightblue" d="M1067.27,-196.837C956.926,-191.076 650.877,-174.399 396.5,-154 357.914,-150.906 313.792,-146.504 283.636,-143.363"/>
<polygon fill="midnightblue" stroke="midnightblue" points="283.895,-139.871 273.584,-142.309 283.165,-146.833 283.895,-139.871"/>
</g>
<!-- Node24&#45;&gt;Node4 -->
<g id="edge48" class="edge"><title>Node24&#45;&gt;Node4</title>
<path fill="none" stroke="midnightblue" d="M1067.29,-197.888C955.034,-194.562 651.179,-183.062 555.5,-154 554.078,-153.568 552.648,-153.05 551.229,-152.472"/>
<polygon fill="midnightblue" stroke="midnightblue" points="552.754,-149.321 542.238,-148.026 549.651,-155.596 552.754,-149.321"/>
</g>
<!-- Node24&#45;&gt;Node5 -->
<g id="edge46" class="edge"><title>Node24&#45;&gt;Node5</title>
<path fill="none" stroke="midnightblue" d="M1067.47,-194.281C962.027,-182.444 688.721,-151.762 604.548,-142.312"/>
<polygon fill="midnightblue" stroke="midnightblue" points="604.715,-138.809 594.387,-141.171 603.934,-145.765 604.715,-138.809"/>
</g>
<!-- Node24&#45;&gt;Node6 -->
<g id="edge41" class="edge"><title>Node24&#45;&gt;Node6</title>
<path fill="none" stroke="midnightblue" d="M1151.68,-197.218C1247.44,-192.74 1474.78,-179.509 1497.5,-154 1506.66,-143.712 1506.75,-133.211 1497.5,-123 1421.43,-39.0275 571.385,-15.5779 397.47,-11.6449"/>
<polygon fill="midnightblue" stroke="midnightblue" points="397.524,-8.14534 387.449,-11.4232 397.369,-15.1436 397.524,-8.14534"/>
</g>
<!-- Node24&#45;&gt;Node7 -->
<g id="edge43" class="edge"><title>Node24&#45;&gt;Node7</title>
<path fill="none" stroke="midnightblue" d="M1106.96,-190.161C1101.77,-173.847 1088.29,-139.195 1063.5,-123 1006.82,-85.9722 801.678,-75.9498 716.733,-73.3588"/>
<polygon fill="midnightblue" stroke="midnightblue" points="716.61,-69.8539 706.514,-73.0656 716.41,-76.851 716.61,-69.8539"/>
</g>
<!-- Node24&#45;&gt;Node8 -->
<g id="edge51" class="edge"><title>Node24&#45;&gt;Node8</title>
<path fill="none" stroke="midnightblue" d="M1067.36,-197.686C968.38,-194.204 713.451,-182.946 502.5,-154 490.385,-152.338 477.242,-149.886 465.541,-147.469"/>
<polygon fill="midnightblue" stroke="midnightblue" points="466.202,-144.031 455.693,-145.375 464.746,-150.878 466.202,-144.031"/>
</g>
<!-- Node24&#45;&gt;Node10 -->
<g id="edge58" class="edge"><title>Node24&#45;&gt;Node10</title>
<path fill="none" stroke="midnightblue" d="M1067.24,-198.944C1010.67,-197.398 908.333,-189.377 829.5,-154 809.615,-145.076 811.727,-131.12 791.5,-123 691.809,-82.978 378.061,-74.6128 231.868,-72.9087"/>
<polygon fill="midnightblue" stroke="midnightblue" points="231.674,-69.4065 221.637,-72.7972 231.598,-76.4061 231.674,-69.4065"/>
</g>
<!-- Node24&#45;&gt;Node16 -->
<g id="edge57" class="edge"><title>Node24&#45;&gt;Node16</title>
<path fill="none" stroke="midnightblue" d="M1151.68,-197.036C1241.3,-192.53 1457.42,-179.892 1648.37,-154.057"/>
<polygon fill="midnightblue" stroke="midnightblue" points="1648.88,-157.521 1658.31,-152.698 1647.93,-150.586 1648.88,-157.521"/>
</g>
<!-- Node24&#45;&gt;Node18 -->
<g id="edge44" class="edge"><title>Node24&#45;&gt;Node18</title>
<path fill="none" stroke="midnightblue" d="M1151.57,-197.961C1244.42,-195.117 1463.94,-185.202 1530.5,-154 1561.63,-139.406 1588.3,-108.5 1602.81,-89.2205"/>
<polygon fill="midnightblue" stroke="midnightblue" points="1605.71,-91.1916 1608.76,-81.0463 1600.05,-87.073 1605.71,-91.1916"/>
</g>
<!-- Node24&#45;&gt;Node21 -->
<g id="edge49" class="edge"><title>Node24&#45;&gt;Node21</title>
<path fill="none" stroke="midnightblue" d="M1067.25,-195.49C1006.66,-189.88 891.875,-177.098 796.5,-154 793.276,-153.219 789.95,-152.292 786.648,-151.289"/>
<polygon fill="midnightblue" stroke="midnightblue" points="787.528,-147.894 776.935,-148.125 785.359,-154.55 787.528,-147.894"/>
</g>
<!-- Node24&#45;&gt;Node23 -->
<g id="edge53" class="edge"><title>Node24&#45;&gt;Node23</title>
<path fill="none" stroke="midnightblue" d="M1151.76,-198.059C1233.25,-195.542 1417.41,-186.438 1568.5,-154 1572.18,-153.209 1575.99,-152.208 1579.75,-151.103"/>
<polygon fill="midnightblue" stroke="midnightblue" points="1580.99,-154.38 1589.45,-148.006 1578.86,-147.712 1580.99,-154.38"/>
</g>
<!-- Node25 -->
<g id="node26" class="node"><title>Node25</title>
<polygon fill="white" stroke="#bfbfbf" points="1110.5,-129 1110.5,-148 1156.5,-148 1156.5,-129 1110.5,-129"/>
<text text-anchor="middle" x="1133.5" y="-136" font-family="Helvetica,sans-Serif" font-size="10.00">cstring</text>
</g>
<!-- Node24&#45;&gt;Node25 -->
<g id="edge42" class="edge"><title>Node24&#45;&gt;Node25</title>
<path fill="none" stroke="midnightblue" d="M1112.94,-190.475C1116.4,-181.904 1121.83,-168.427 1126.25,-157.483"/>
<polygon fill="midnightblue" stroke="midnightblue" points="1129.57,-158.592 1130.07,-148.009 1123.08,-155.974 1129.57,-158.592"/>
</g>
<!-- Node26 -->
<g id="node27" class="node"><title>Node26</title>
<polygon fill="white" stroke="#bfbfbf" points="1175,-129 1175,-148 1222,-148 1222,-129 1175,-129"/>
<text text-anchor="middle" x="1198.5" y="-136" font-family="Helvetica,sans-Serif" font-size="10.00">math.h</text>
</g>
<!-- Node24&#45;&gt;Node26 -->
<g id="edge45" class="edge"><title>Node24&#45;&gt;Node26</title>
<path fill="none" stroke="midnightblue" d="M1122.25,-190.475C1136.53,-180.931 1159.9,-165.307 1177.01,-153.868"/>
<polygon fill="midnightblue" stroke="midnightblue" points="1179.4,-156.477 1185.77,-148.009 1175.51,-150.657 1179.4,-156.477"/>
</g>
<!-- Node27 -->
<g id="node28" class="node"><title>Node27</title>
<polygon fill="white" stroke="#bfbfbf" points="1240.5,-129 1240.5,-148 1282.5,-148 1282.5,-129 1240.5,-129"/>
<text text-anchor="middle" x="1261.5" y="-136" font-family="Helvetica,sans-Serif" font-size="10.00">vector</text>
</g>
<!-- Node24&#45;&gt;Node27 -->
<g id="edge47" class="edge"><title>Node24&#45;&gt;Node27</title>
<path fill="none" stroke="midnightblue" d="M1135.01,-190.398C1159.89,-181.821 1198.67,-167.949 1231.5,-154 1232.7,-153.491 1233.92,-152.959 1235.14,-152.413"/>
<polygon fill="midnightblue" stroke="midnightblue" points="1236.9,-155.456 1244.5,-148.071 1233.95,-149.107 1236.9,-155.456"/>
</g>
<!-- Node28 -->
<g id="node29" class="node"><title>Node28</title>
<polygon fill="white" stroke="#bfbfbf" points="1300.5,-129 1300.5,-148 1352.5,-148 1352.5,-129 1300.5,-129"/>
<text text-anchor="middle" x="1326.5" y="-136" font-family="Helvetica,sans-Serif" font-size="10.00">assert.h</text>
</g>
<!-- Node24&#45;&gt;Node28 -->
<g id="edge50" class="edge"><title>Node24&#45;&gt;Node28</title>
<path fill="none" stroke="midnightblue" d="M1151.57,-190.482C1188.79,-182.502 1244.35,-169.5 1291.5,-154 1293.63,-153.299 1295.82,-152.527 1298,-151.716"/>
<polygon fill="midnightblue" stroke="midnightblue" points="1299.42,-154.923 1307.44,-148.005 1296.85,-148.409 1299.42,-154.923"/>
</g>
<!-- Node29 -->
<g id="node30" class="node"><title>Node29</title>
<polygon fill="white" stroke="#bfbfbf" points="1370.5,-129 1370.5,-148 1420.5,-148 1420.5,-129 1370.5,-129"/>
<text text-anchor="middle" x="1395.5" y="-136" font-family="Helvetica,sans-Serif" font-size="10.00">iomanip</text>
</g>
<!-- Node24&#45;&gt;Node29 -->
<g id="edge52" class="edge"><title>Node24&#45;&gt;Node29</title>
<path fill="none" stroke="midnightblue" d="M1151.65,-194.435C1202.24,-188.28 1289.31,-175.534 1361.5,-154 1363.65,-153.359 1365.84,-152.623 1368.03,-151.83"/>
<polygon fill="midnightblue" stroke="midnightblue" points="1369.42,-155.043 1377.43,-148.103 1366.84,-148.536 1369.42,-155.043"/>
</g>
<!-- Node30 -->
<g id="node31" class="node"><title>Node30</title>
<polygon fill="white" stroke="#bfbfbf" points="1439,-129 1439,-148 1488,-148 1488,-129 1439,-129"/>
<text text-anchor="middle" x="1463.5" y="-136" font-family="Helvetica,sans-Serif" font-size="10.00">fstream</text>
</g>
<!-- Node24&#45;&gt;Node30 -->
<g id="edge54" class="edge"><title>Node24&#45;&gt;Node30</title>
<path fill="none" stroke="midnightblue" d="M1151.64,-196.615C1213.53,-192.322 1332.21,-181.073 1429.5,-154 1431.8,-153.361 1434.14,-152.603 1436.47,-151.773"/>
<polygon fill="midnightblue" stroke="midnightblue" points="1437.8,-155.01 1445.82,-148.082 1435.23,-148.499 1437.8,-155.01"/>
</g>
<!-- Node31 -->
<g id="node32" class="node"><title>Node31</title>
<polygon fill="white" stroke="#bfbfbf" points="838.5,-129 838.5,-148 942.5,-148 942.5,-129 838.5,-129"/>
<text text-anchor="middle" x="890.5" y="-136" font-family="Helvetica,sans-Serif" font-size="10.00">common/variant.hpp</text>
</g>
<!-- Node24&#45;&gt;Node31 -->
<g id="edge56" class="edge"><title>Node24&#45;&gt;Node31</title>
<path fill="none" stroke="midnightblue" d="M1078.12,-190.475C1039.58,-180.004 974.095,-162.212 931.576,-150.66"/>
<polygon fill="midnightblue" stroke="midnightblue" points="932.387,-147.253 921.819,-148.009 930.552,-154.009 932.387,-147.253"/>
</g>
<!-- Node32 -->
<g id="node33" class="node"><title>Node32</title>
<g id="a_node33"><a xlink:href="_vector3_8hpp.html" target="_top" xlink:title="Math/Vector3.hpp">
<polygon fill="white" stroke="black" points="960.5,-129 960.5,-148 1054.5,-148 1054.5,-129 960.5,-129"/>
<text text-anchor="middle" x="1007.5" y="-136" font-family="Helvetica,sans-Serif" font-size="10.00">Math/Vector3.hpp</text>
</a>
</g>
</g>
<!-- Node24&#45;&gt;Node32 -->
<g id="edge59" class="edge"><title>Node24&#45;&gt;Node32</title>
<path fill="none" stroke="midnightblue" d="M1094.89,-190.475C1078.15,-180.711 1050.5,-164.581 1030.78,-153.081"/>
<polygon fill="midnightblue" stroke="midnightblue" points="1032.49,-150.025 1022.09,-148.009 1028.96,-156.071 1032.49,-150.025"/>
</g>
<!-- Node33&#45;&gt;Node22 -->
<g id="edge63" class="edge"><title>Node33&#45;&gt;Node22</title>
<path fill="none" stroke="midnightblue" d="M1075.4,-307.975C1092.47,-298.211 1120.66,-282.081 1140.76,-270.581"/>
<polygon fill="midnightblue" stroke="midnightblue" points="1142.69,-273.513 1149.63,-265.509 1139.21,-267.437 1142.69,-273.513"/>
</g>
<!-- Node33&#45;&gt;Node24 -->
<g id="edge64" class="edge"><title>Node33&#45;&gt;Node24</title>
<path fill="none" stroke="midnightblue" d="M1062.76,-307.597C1066.36,-294.004 1073.95,-267.399 1083.5,-246 1087.73,-236.524 1093.4,-226.481 1098.37,-218.292"/>
<polygon fill="midnightblue" stroke="midnightblue" points="1101.43,-220.012 1103.75,-209.676 1095.49,-216.304 1101.43,-220.012"/>
</g>
<!-- Node34&#45;&gt;Node7 -->
<g id="edge66" class="edge"><title>Node34&#45;&gt;Node7</title>
<path fill="none" stroke="midnightblue" d="M742.374,-302.258C740.281,-278.624 735.016,-229.946 724.5,-190 714.946,-153.71 697.95,-113.212 687.803,-90.4965"/>
<polygon fill="midnightblue" stroke="midnightblue" points="690.872,-88.7902 683.553,-81.1293 684.497,-91.682 690.872,-88.7902"/>
</g>
</g>
</svg>
        <g id="navigator" transform="translate(0 0)" fill="#404254">
                <rect fill="#f2f5e9" fill-opacity="0.5" stroke="#606060" stroke-width=".5" x="0" y="0" width="60" height="60"/>
                <use id="zoomplus" xlink:href="#zoomPlus" x="17" y="9" onmousedown="handleZoom(evt,'in')"/>
                <use id="zoomminus" xlink:href="#zoomMin" x="42" y="9" onmousedown="handleZoom(evt,'out')"/>
                <use id="reset" xlink:href="#resetDef" x="30" y="36" onmousedown="handleReset()"/>
                <g id="arrowUp" xlink:href="#dirArrow" transform="translate(30 24)" onmousedown="handlePan(0,-1)">
                  <use xlink:href="#rim" fill="#404040">
                        <set attributeName="fill" to="#808080" begin="arrowUp.mouseover" end="arrowUp.mouseout"/>
                  </use>
                  <path fill="none" stroke="white" stroke-width="1.5" d="M0,-3.0v7 M-2.5,-0.5L0,-3.0L2.5,-0.5"/>
                </g>
                <g id="arrowRight" xlink:href="#dirArrow" transform="rotate(90) translate(36 -43)" onmousedown="handlePan(1,0)">
                  <use xlink:href="#rim" fill="#404040">
                        <set attributeName="fill" to="#808080" begin="arrowRight.mouseover" end="arrowRight.mouseout"/>
                  </use>
                  <path fill="none" stroke="white" stroke-width="1.5" d="M0,-3.0v7 M-2.5,-0.5L0,-3.0L2.5,-0.5"/>
                </g>
                <g id="arrowDown" xlink:href="#dirArrow" transform="rotate(180) translate(-30 -48)" onmousedown="handlePan(0,1)">
                  <use xlink:href="#rim" fill="#404040">
                        <set attributeName="fill" to="#808080" begin="arrowDown.mouseover" end="arrowDown.mouseout"/>
                  </use>
                  <path fill="none" stroke="white" stroke-width="1.5" d="M0,-3.0v7 M-2.5,-0.5L0,-3.0L2.5,-0.5"/>
                </g>
                <g id="arrowLeft" xlink:href="#dirArrow" transform="rotate(270) translate(-36 17)" onmousedown="handlePan(-1,0)">
                  <use xlink:href="#rim" fill="#404040">
                        <set attributeName="fill" to="#808080" begin="arrowLeft.mouseover" end="arrowLeft.mouseout"/>
                  </use>
                  <path fill="none" stroke="white" stroke-width="1.5" d="M0,-3.0v7 M-2.5,-0.5L0,-3.0L2.5,-0.5"/>
                </g>
        </g>
        <svg viewBox="0 0 15 15" width="100%" height="30px" preserveAspectRatio="xMaxYMin meet">
         <g id="arrow_out" transform="scale(0.3 0.3)">
          <a xlink:href="_n_f_c_component_manager_8h__incl_org.svg" target="_base">
           <rect id="button" ry="5" rx="5" y="6" x="6" height="38" width="38"
                fill="#f2f5e9" fill-opacity="0.5" stroke="#606060" stroke-width="1.0"/>
           <path id="arrow"
             d="M 11.500037,31.436501 C 11.940474,20.09759 22.043105,11.32322 32.158766,21.979434 L 37.068811,17.246167 C 37.068811,17.246167 37.088388,32 37.088388,32 L 22.160133,31.978069 C 22.160133,31.978069 26.997745,27.140456 26.997745,27.140456 C 18.528582,18.264221 13.291696,25.230495 11.500037,31.436501 z"
             style="fill:#404040;"/>
          </a>
         </g>
        </svg>
</svg>
