<?xml version="1.0" encoding="UTF-8" standalone="no"?>
<!DOCTYPE svg PUBLIC "-//W3C//DTD SVG 1.1//EN"
 "http://www.w3.org/Graphics/SVG/1.1/DTD/svg11.dtd">
<!-- Generated by graphviz version 2.38.0 (20140413.2041)
 -->
<!-- Title: NFWorldLogicPlugin.h Pages: 1 -->
<svg width="1709pt" height="598pt"
 viewBox="0.00 0.00 1709.00 598.00" xmlns="http://www.w3.org/2000/svg" xmlns:xlink="http://www.w3.org/1999/xlink">
<g id="graph0" class="graph" transform="scale(1 1) rotate(0) translate(4 594)">
<title>NFWorldLogicPlugin.h</title>
<polygon fill="white" stroke="none" points="-4,4 -4,-594 1705,-594 1705,4 -4,4"/>
<!-- Node0 -->
<g id="node1" class="node"><title>Node0</title>
<polygon fill="#bfbfbf" stroke="black" points="75.5,-570.5 75.5,-589.5 188.5,-589.5 188.5,-570.5 75.5,-570.5"/>
<text text-anchor="middle" x="132" y="-577.5" font-family="Helvetica,sans-Serif" font-size="10.00">NFWorldLogicPlugin.h</text>
</g>
<!-- Node1 -->
<g id="node2" class="node"><title>Node1</title>
<g id="a_node2"><a xlink:href="_n_f_platform_8h.html" target="_top" xlink:title="NFComm/NFPluginModule\l/NFPlatform.h">
<polygon fill="white" stroke="black" points="128,-56.5 128,-86.5 260,-86.5 260,-56.5 128,-56.5"/>
<text text-anchor="start" x="136" y="-74.5" font-family="Helvetica,sans-Serif" font-size="10.00">NFComm/NFPluginModule</text>
<text text-anchor="middle" x="194" y="-63.5" font-family="Helvetica,sans-Serif" font-size="10.00">/NFPlatform.h</text>
</a>
</g>
</g>
<!-- Node0&#45;&gt;Node1 -->
<g id="edge1" class="edge"><title>Node0&#45;&gt;Node1</title>
<path fill="none" stroke="midnightblue" d="M118.93,-570.248C93.1011,-551.79 38,-506.128 38,-452.5 38,-452.5 38,-452.5 38,-199 38,-144.636 95.862,-109.57 141.107,-90.46"/>
<polygon fill="midnightblue" stroke="midnightblue" points="142.6,-93.6315 150.545,-86.6231 139.963,-87.1469 142.6,-93.6315"/>
</g>
<!-- Node7 -->
<g id="node8" class="node"><title>Node7</title>
<g id="a_node8"><a xlink:href="_n_f_i_plugin_8h.html" target="_top" xlink:title="NFComm/NFPluginModule\l/NFIPlugin.h">
<polygon fill="white" stroke="black" points="654,-503.5 654,-533.5 786,-533.5 786,-503.5 654,-503.5"/>
<text text-anchor="start" x="662" y="-521.5" font-family="Helvetica,sans-Serif" font-size="10.00">NFComm/NFPluginModule</text>
<text text-anchor="middle" x="720" y="-510.5" font-family="Helvetica,sans-Serif" font-size="10.00">/NFIPlugin.h</text>
</a>
</g>
</g>
<!-- Node0&#45;&gt;Node7 -->
<g id="edge7" class="edge"><title>Node0&#45;&gt;Node7</title>
<path fill="none" stroke="midnightblue" d="M188.647,-573.268C294.785,-562.528 523.659,-539.368 643.42,-527.249"/>
<polygon fill="midnightblue" stroke="midnightblue" points="644.011,-530.707 653.608,-526.218 643.306,-523.743 644.011,-530.707"/>
</g>
<!-- Node34 -->
<g id="node35" class="node"><title>Node34</title>
<g id="a_node35"><a xlink:href="_n_f_i_plugin_manager_8h.html" target="_top" xlink:title="NFComm/NFPluginModule\l/NFIPluginManager.h">
<polygon fill="white" stroke="black" points="66,-436.5 66,-466.5 198,-466.5 198,-436.5 66,-436.5"/>
<text text-anchor="start" x="74" y="-454.5" font-family="Helvetica,sans-Serif" font-size="10.00">NFComm/NFPluginModule</text>
<text text-anchor="middle" x="132" y="-443.5" font-family="Helvetica,sans-Serif" font-size="10.00">/NFIPluginManager.h</text>
</a>
</g>
</g>
<!-- Node0&#45;&gt;Node34 -->
<g id="edge69" class="edge"><title>Node0&#45;&gt;Node34</title>
<path fill="none" stroke="midnightblue" d="M132,-570.305C132,-551.298 132,-505.47 132,-476.9"/>
<polygon fill="midnightblue" stroke="midnightblue" points="135.5,-476.888 132,-466.888 128.5,-476.888 135.5,-476.888"/>
</g>
<!-- Node2 -->
<g id="node3" class="node"><title>Node2</title>
<polygon fill="white" stroke="#bfbfbf" points="330.5,-0.5 330.5,-19.5 379.5,-19.5 379.5,-0.5 330.5,-0.5"/>
<text text-anchor="middle" x="355" y="-7.5" font-family="Helvetica,sans-Serif" font-size="10.00">stdint.h</text>
</g>
<!-- Node1&#45;&gt;Node2 -->
<g id="edge2" class="edge"><title>Node1&#45;&gt;Node2</title>
<path fill="none" stroke="midnightblue" d="M232.155,-56.3993C259.53,-46.2826 296.037,-32.7905 322.126,-23.1493"/>
<polygon fill="midnightblue" stroke="midnightblue" points="323.406,-26.4073 331.573,-19.6578 320.98,-19.8414 323.406,-26.4073"/>
</g>
<!-- Node3 -->
<g id="node4" class="node"><title>Node3</title>
<polygon fill="white" stroke="#bfbfbf" points="52,-0.5 52,-19.5 96,-19.5 96,-0.5 52,-0.5"/>
<text text-anchor="middle" x="74" y="-7.5" font-family="Helvetica,sans-Serif" font-size="10.00">time.h</text>
</g>
<!-- Node1&#45;&gt;Node3 -->
<g id="edge3" class="edge"><title>Node1&#45;&gt;Node3</title>
<path fill="none" stroke="midnightblue" d="M165.562,-56.3993C145.877,-46.6391 119.857,-33.7373 100.587,-24.1826"/>
<polygon fill="midnightblue" stroke="midnightblue" points="101.975,-20.9644 91.4611,-19.6578 98.8654,-27.2358 101.975,-20.9644"/>
</g>
<!-- Node4 -->
<g id="node5" class="node"><title>Node4</title>
<polygon fill="white" stroke="#bfbfbf" points="114,-0.5 114,-19.5 166,-19.5 166,-0.5 114,-0.5"/>
<text text-anchor="middle" x="140" y="-7.5" font-family="Helvetica,sans-Serif" font-size="10.00">sstream</text>
</g>
<!-- Node1&#45;&gt;Node4 -->
<g id="edge4" class="edge"><title>Node1&#45;&gt;Node4</title>
<path fill="none" stroke="midnightblue" d="M181.203,-56.3993C173.275,-47.6641 163.064,-36.4126 154.79,-27.2962"/>
<polygon fill="midnightblue" stroke="midnightblue" points="157.17,-24.7106 147.857,-19.6578 151.986,-29.415 157.17,-24.7106"/>
</g>
<!-- Node5 -->
<g id="node6" class="node"><title>Node5</title>
<polygon fill="white" stroke="#bfbfbf" points="184,-0.5 184,-19.5 312,-19.5 312,-0.5 184,-0.5"/>
<text text-anchor="middle" x="248" y="-7.5" font-family="Helvetica,sans-Serif" font-size="10.00">common/lexical_cast.hpp</text>
</g>
<!-- Node1&#45;&gt;Node5 -->
<g id="edge5" class="edge"><title>Node1&#45;&gt;Node5</title>
<path fill="none" stroke="midnightblue" d="M206.797,-56.3993C214.725,-47.6641 224.936,-36.4126 233.21,-27.2962"/>
<polygon fill="midnightblue" stroke="midnightblue" points="236.014,-29.415 240.143,-19.6578 230.83,-24.7106 236.014,-29.415"/>
</g>
<!-- Node6 -->
<g id="node7" class="node"><title>Node6</title>
<polygon fill="white" stroke="#bfbfbf" points="955.5,-0.5 955.5,-19.5 996.5,-19.5 996.5,-0.5 955.5,-0.5"/>
<text text-anchor="middle" x="976" y="-7.5" font-family="Helvetica,sans-Serif" font-size="10.00">string</text>
</g>
<!-- Node1&#45;&gt;Node6 -->
<g id="edge6" class="edge"><title>Node1&#45;&gt;Node6</title>
<path fill="none" stroke="midnightblue" d="M260.18,-57.2311C263.155,-56.7841 266.106,-56.3703 269,-56 529.165,-22.7088 846.494,-13.6555 945.21,-11.5603"/>
<polygon fill="midnightblue" stroke="midnightblue" points="945.449,-15.0563 955.376,-11.3531 945.306,-8.05775 945.449,-15.0563"/>
</g>
<!-- Node7&#45;&gt;Node1 -->
<g id="edge66" class="edge"><title>Node7&#45;&gt;Node1</title>
<path fill="none" stroke="midnightblue" d="M658.375,-503.411C526.58,-469.57 219.239,-369.982 95,-154 88.1301,-142.057 87.8038,-134.749 95,-123 103.721,-108.761 117.859,-98.3783 132.755,-90.8715"/>
<polygon fill="midnightblue" stroke="midnightblue" points="134.476,-93.9318 142.086,-86.5603 131.54,-87.5773 134.476,-93.9318"/>
</g>
<!-- Node8 -->
<g id="node9" class="node"><title>Node8</title>
<polygon fill="white" stroke="#bfbfbf" points="1416,-62 1416,-81 1470,-81 1470,-62 1416,-62"/>
<text text-anchor="middle" x="1443" y="-69" font-family="Helvetica,sans-Serif" font-size="10.00">iostream</text>
</g>
<!-- Node7&#45;&gt;Node8 -->
<g id="edge8" class="edge"><title>Node7&#45;&gt;Node8</title>
<path fill="none" stroke="midnightblue" d="M786.273,-515.573C1006.65,-508.297 1701,-478.029 1701,-385.5 1701,-385.5 1701,-385.5 1701,-199 1701,-101.964 1552.05,-79.3562 1480.5,-74.0937"/>
<polygon fill="midnightblue" stroke="midnightblue" points="1480.33,-70.5752 1470.12,-73.4127 1479.87,-77.5602 1480.33,-70.5752"/>
</g>
<!-- Node9 -->
<g id="node10" class="node"><title>Node9</title>
<polygon fill="white" stroke="#bfbfbf" points="1042,-129 1042,-148 1094,-148 1094,-129 1042,-129"/>
<text text-anchor="middle" x="1068" y="-136" font-family="Helvetica,sans-Serif" font-size="10.00">assert.h</text>
</g>
<!-- Node7&#45;&gt;Node9 -->
<g id="edge9" class="edge"><title>Node7&#45;&gt;Node9</title>
<path fill="none" stroke="midnightblue" d="M786.002,-507.13C851.76,-492.602 943,-459.17 943,-385.5 943,-385.5 943,-385.5 943,-255 943,-204.279 999.204,-169.647 1036.24,-152.333"/>
<polygon fill="midnightblue" stroke="midnightblue" points="1037.96,-155.395 1045.65,-148.107 1035.1,-149.009 1037.96,-155.395"/>
</g>
<!-- Node10 -->
<g id="node11" class="node"><title>Node10</title>
<g id="a_node11"><a xlink:href="_n_f_map_8h.html" target="_top" xlink:title="NFComm/NFCore/NFMap.h">
<polygon fill="white" stroke="black" points="1421.5,-246.5 1421.5,-265.5 1558.5,-265.5 1558.5,-246.5 1421.5,-246.5"/>
<text text-anchor="middle" x="1490" y="-253.5" font-family="Helvetica,sans-Serif" font-size="10.00">NFComm/NFCore/NFMap.h</text>
</a>
</g>
</g>
<!-- Node7&#45;&gt;Node10 -->
<g id="edge10" class="edge"><title>Node7&#45;&gt;Node10</title>
<path fill="none" stroke="midnightblue" d="M786.259,-508.247C910.029,-489.049 1182.41,-437.666 1388,-333 1420.74,-316.331 1454.01,-289.227 1473.29,-272.293"/>
<polygon fill="midnightblue" stroke="midnightblue" points="1475.76,-274.782 1480.88,-265.51 1471.09,-269.562 1475.76,-274.782"/>
</g>
<!-- Node16 -->
<g id="node17" class="node"><title>Node16</title>
<g id="a_node17"><a xlink:href="_n_f_i_module_8h.html" target="_top" xlink:title="NFComm/NFPluginModule\l/NFIModule.h">
<polygon fill="white" stroke="black" points="654,-369.5 654,-399.5 786,-399.5 786,-369.5 654,-369.5"/>
<text text-anchor="start" x="662" y="-387.5" font-family="Helvetica,sans-Serif" font-size="10.00">NFComm/NFPluginModule</text>
<text text-anchor="middle" x="720" y="-376.5" font-family="Helvetica,sans-Serif" font-size="10.00">/NFIModule.h</text>
</a>
</g>
</g>
<!-- Node7&#45;&gt;Node16 -->
<g id="edge24" class="edge"><title>Node7&#45;&gt;Node16</title>
<path fill="none" stroke="midnightblue" d="M720,-503.374C720,-481.044 720,-437.313 720,-409.851"/>
<polygon fill="midnightblue" stroke="midnightblue" points="723.5,-409.525 720,-399.525 716.5,-409.525 723.5,-409.525"/>
</g>
<!-- Node7&#45;&gt;Node34 -->
<g id="edge67" class="edge"><title>Node7&#45;&gt;Node34</title>
<path fill="none" stroke="midnightblue" d="M653.634,-512.611C556.434,-505.064 369.77,-489.104 212,-467 210.742,-466.824 209.473,-466.642 208.197,-466.455"/>
<polygon fill="midnightblue" stroke="midnightblue" points="208.703,-462.992 198.288,-464.938 207.643,-469.911 208.703,-462.992"/>
</g>
<!-- Node10&#45;&gt;Node6 -->
<g id="edge13" class="edge"><title>Node10&#45;&gt;Node6</title>
<path fill="none" stroke="midnightblue" d="M1526.82,-246.448C1549.1,-239.691 1576.83,-228.278 1596,-210 1616,-190.935 1616.85,-180.937 1623,-154 1635.65,-98.6352 1593.69,-77.1849 1541,-56 1442.68,-16.4713 1109.88,-11.6033 1006.74,-11.0537"/>
<polygon fill="midnightblue" stroke="midnightblue" points="1006.69,-7.55354 996.67,-11.0102 1006.66,-14.5535 1006.69,-7.55354"/>
</g>
<!-- Node10&#45;&gt;Node8 -->
<g id="edge14" class="edge"><title>Node10&#45;&gt;Node8</title>
<path fill="none" stroke="midnightblue" d="M1512.56,-246.45C1530.28,-238.894 1554.76,-226.506 1572,-210 1601.99,-181.294 1630.63,-156.418 1606,-123 1577.32,-84.0902 1518.99,-74.2648 1480.45,-72.2557"/>
<polygon fill="midnightblue" stroke="midnightblue" points="1480.27,-68.7468 1470.14,-71.8786 1480.01,-75.7421 1480.27,-68.7468"/>
</g>
<!-- Node11 -->
<g id="node12" class="node"><title>Node11</title>
<polygon fill="white" stroke="#bfbfbf" points="1332.5,-129 1332.5,-148 1367.5,-148 1367.5,-129 1332.5,-129"/>
<text text-anchor="middle" x="1350" y="-136" font-family="Helvetica,sans-Serif" font-size="10.00">map</text>
</g>
<!-- Node10&#45;&gt;Node11 -->
<g id="edge11" class="edge"><title>Node10&#45;&gt;Node11</title>
<path fill="none" stroke="midnightblue" d="M1479.48,-246.319C1455.86,-226.837 1398.39,-179.425 1368.6,-154.845"/>
<polygon fill="midnightblue" stroke="midnightblue" points="1370.59,-151.946 1360.64,-148.282 1366.13,-157.346 1370.59,-151.946"/>
</g>
<!-- Node12 -->
<g id="node13" class="node"><title>Node12</title>
<polygon fill="white" stroke="#bfbfbf" points="1385.5,-129 1385.5,-148 1414.5,-148 1414.5,-129 1385.5,-129"/>
<text text-anchor="middle" x="1400" y="-136" font-family="Helvetica,sans-Serif" font-size="10.00">list</text>
</g>
<!-- Node10&#45;&gt;Node12 -->
<g id="edge12" class="edge"><title>Node10&#45;&gt;Node12</title>
<path fill="none" stroke="midnightblue" d="M1483.24,-246.319C1468.38,-227.255 1432.69,-181.447 1413.21,-156.458"/>
<polygon fill="midnightblue" stroke="midnightblue" points="1415.75,-154.019 1406.84,-148.282 1410.23,-158.321 1415.75,-154.019"/>
</g>
<!-- Node13 -->
<g id="node14" class="node"><title>Node13</title>
<polygon fill="white" stroke="#bfbfbf" points="1547,-129 1547,-148 1597,-148 1597,-129 1547,-129"/>
<text text-anchor="middle" x="1572" y="-136" font-family="Helvetica,sans-Serif" font-size="10.00">typeinfo</text>
</g>
<!-- Node10&#45;&gt;Node13 -->
<g id="edge15" class="edge"><title>Node10&#45;&gt;Node13</title>
<path fill="none" stroke="midnightblue" d="M1508.12,-246.455C1522.37,-238.828 1541.65,-226.34 1553,-210 1563.72,-194.567 1568.39,-173.372 1570.43,-158.26"/>
<polygon fill="midnightblue" stroke="midnightblue" points="1573.94,-158.405 1571.53,-148.087 1566.98,-157.652 1573.94,-158.405"/>
</g>
<!-- Node14 -->
<g id="node15" class="node"><title>Node14</title>
<g id="a_node15"><a xlink:href="_n_f_map_ex_8h.html" target="_top" xlink:title="NFMapEx.h">
<polygon fill="white" stroke="black" points="1476,-190.5 1476,-209.5 1544,-209.5 1544,-190.5 1476,-190.5"/>
<text text-anchor="middle" x="1510" y="-197.5" font-family="Helvetica,sans-Serif" font-size="10.00">NFMapEx.h</text>
</a>
</g>
</g>
<!-- Node10&#45;&gt;Node14 -->
<g id="edge16" class="edge"><title>Node10&#45;&gt;Node14</title>
<path fill="none" stroke="midnightblue" d="M1493.3,-246.083C1495.98,-238.849 1499.85,-228.409 1503.19,-219.397"/>
<polygon fill="midnightblue" stroke="midnightblue" points="1506.57,-220.344 1506.76,-209.751 1500,-217.913 1506.57,-220.344"/>
</g>
<!-- Node14&#45;&gt;Node1 -->
<g id="edge23" class="edge"><title>Node14&#45;&gt;Node1</title>
<path fill="none" stroke="midnightblue" d="M1503.53,-190.291C1490.5,-173.541 1459.21,-137.236 1423,-123 1306.29,-77.1148 436.846,-100.127 270.501,-86.8597"/>
<polygon fill="midnightblue" stroke="midnightblue" points="270.45,-83.3395 260.165,-85.8865 269.793,-90.3087 270.45,-83.3395"/>
</g>
<!-- Node14&#45;&gt;Node6 -->
<g id="edge19" class="edge"><title>Node14&#45;&gt;Node6</title>
<path fill="none" stroke="midnightblue" d="M1544.18,-192.665C1565.93,-186.673 1592.47,-175.282 1606,-154 1613.39,-142.373 1613.12,-134.798 1606,-123 1573.04,-68.3509 1540.2,-74.086 1479,-56 1389.64,-29.5926 1101.9,-16.0143 1006.82,-12.1664"/>
<polygon fill="midnightblue" stroke="midnightblue" points="1006.84,-8.66448 996.706,-11.7647 1006.56,-15.659 1006.84,-8.66448"/>
</g>
<!-- Node14&#45;&gt;Node8 -->
<g id="edge20" class="edge"><title>Node14&#45;&gt;Node8</title>
<path fill="none" stroke="midnightblue" d="M1509.94,-190.465C1509.5,-175.792 1507.07,-145.22 1495,-123 1487.34,-108.899 1474.41,-96.3179 1463.37,-87.2398"/>
<polygon fill="midnightblue" stroke="midnightblue" points="1465.43,-84.4145 1455.4,-81.0135 1461.12,-89.9296 1465.43,-84.4145"/>
</g>
<!-- Node14&#45;&gt;Node11 -->
<g id="edge17" class="edge"><title>Node14&#45;&gt;Node11</title>
<path fill="none" stroke="midnightblue" d="M1479.33,-190.462C1451.77,-182.379 1410.45,-169.235 1376,-154 1375.15,-153.625 1374.3,-153.231 1373.44,-152.824"/>
<polygon fill="midnightblue" stroke="midnightblue" points="1374.82,-149.602 1364.33,-148.114 1371.61,-155.819 1374.82,-149.602"/>
</g>
<!-- Node14&#45;&gt;Node12 -->
<g id="edge18" class="edge"><title>Node14&#45;&gt;Node12</title>
<path fill="none" stroke="midnightblue" d="M1494.24,-190.475C1475.8,-180.499 1445.07,-163.879 1423.74,-152.341"/>
<polygon fill="midnightblue" stroke="midnightblue" points="1425.14,-149.118 1414.68,-147.439 1421.81,-155.275 1425.14,-149.118"/>
</g>
<!-- Node14&#45;&gt;Node13 -->
<g id="edge21" class="edge"><title>Node14&#45;&gt;Node13</title>
<path fill="none" stroke="midnightblue" d="M1518.88,-190.475C1528.46,-181.285 1543.91,-166.456 1555.69,-155.156"/>
<polygon fill="midnightblue" stroke="midnightblue" points="1558.34,-157.458 1563.13,-148.009 1553.49,-152.408 1558.34,-157.458"/>
</g>
<!-- Node15 -->
<g id="node16" class="node"><title>Node15</title>
<polygon fill="white" stroke="#bfbfbf" points="1224,-129 1224,-148 1276,-148 1276,-129 1224,-129"/>
<text text-anchor="middle" x="1250" y="-136" font-family="Helvetica,sans-Serif" font-size="10.00">memory</text>
</g>
<!-- Node14&#45;&gt;Node15 -->
<g id="edge22" class="edge"><title>Node14&#45;&gt;Node15</title>
<path fill="none" stroke="midnightblue" d="M1475.74,-191.16C1426.46,-179.883 1335.99,-159.179 1285.85,-147.703"/>
<polygon fill="midnightblue" stroke="midnightblue" points="1286.61,-144.288 1276.08,-145.469 1285.05,-151.111 1286.61,-144.288"/>
</g>
<!-- Node16&#45;&gt;Node6 -->
<g id="edge25" class="edge"><title>Node16&#45;&gt;Node6</title>
<path fill="none" stroke="midnightblue" d="M653.876,-380.819C475.884,-371.814 0,-335.192 0,-201 0,-201 0,-201 0,-137.5 0,-73.3963 58.2825,-76.5588 119,-56 198.427,-29.1061 800.958,-14.7119 945.094,-11.6319"/>
<polygon fill="midnightblue" stroke="midnightblue" points="945.485,-15.1245 955.409,-11.4142 945.337,-8.12605 945.485,-15.1245"/>
</g>
<!-- Node16&#45;&gt;Node10 -->
<g id="edge26" class="edge"><title>Node16&#45;&gt;Node10</title>
<path fill="none" stroke="midnightblue" d="M786.175,-381.241C923.432,-376.04 1234.82,-361.429 1337,-333 1386.8,-319.144 1439.71,-288.926 1468.41,-271.048"/>
<polygon fill="midnightblue" stroke="midnightblue" points="1470.6,-273.806 1477.18,-265.5 1466.86,-267.891 1470.6,-273.806"/>
</g>
<!-- Node17 -->
<g id="node18" class="node"><title>Node17</title>
<g id="a_node18"><a xlink:href="_n_f_list_8h.html" target="_top" xlink:title="NFComm/NFCore/NFList.h">
<polygon fill="white" stroke="black" points="1169,-190.5 1169,-209.5 1303,-209.5 1303,-190.5 1169,-190.5"/>
<text text-anchor="middle" x="1236" y="-197.5" font-family="Helvetica,sans-Serif" font-size="10.00">NFComm/NFCore/NFList.h</text>
</a>
</g>
</g>
<!-- Node16&#45;&gt;Node17 -->
<g id="edge27" class="edge"><title>Node16&#45;&gt;Node17</title>
<path fill="none" stroke="midnightblue" d="M759.633,-369.483C857.784,-334.768 1110.81,-245.276 1202.33,-212.908"/>
<polygon fill="midnightblue" stroke="midnightblue" points="1203.67,-216.148 1211.93,-209.514 1201.33,-209.549 1203.67,-216.148"/>
</g>
<!-- Node19 -->
<g id="node20" class="node"><title>Node19</title>
<g id="a_node20"><a xlink:href="_n_f_define_8h.html" target="_top" xlink:title="NFComm/NFCore/NFDefine.h">
<polygon fill="white" stroke="black" points="491.5,-246.5 491.5,-265.5 636.5,-265.5 636.5,-246.5 491.5,-246.5"/>
<text text-anchor="middle" x="564" y="-253.5" font-family="Helvetica,sans-Serif" font-size="10.00">NFComm/NFCore/NFDefine.h</text>
</a>
</g>
</g>
<!-- Node16&#45;&gt;Node19 -->
<g id="edge33" class="edge"><title>Node16&#45;&gt;Node19</title>
<path fill="none" stroke="midnightblue" d="M653.909,-372.812C628.523,-365.549 601.284,-353.377 583,-333 568.978,-317.373 564.958,-292.956 563.976,-276.033"/>
<polygon fill="midnightblue" stroke="midnightblue" points="567.466,-275.616 563.696,-265.715 560.469,-275.806 567.466,-275.616"/>
</g>
<!-- Node21 -->
<g id="node22" class="node"><title>Node21</title>
<g id="a_node22"><a xlink:href="_a_f_data_list_8hpp.html" target="_top" xlink:title="AFDataList.hpp">
<polygon fill="white" stroke="black" points="678,-190.5 678,-209.5 762,-209.5 762,-190.5 678,-190.5"/>
<text text-anchor="middle" x="720" y="-197.5" font-family="Helvetica,sans-Serif" font-size="10.00">AFDataList.hpp</text>
</a>
</g>
</g>
<!-- Node16&#45;&gt;Node21 -->
<g id="edge60" class="edge"><title>Node16&#45;&gt;Node21</title>
<path fill="none" stroke="midnightblue" d="M732.235,-369.125C739.538,-359.568 748.124,-346.357 752,-333 763.776,-292.415 743.383,-243.965 730.089,-218.55"/>
<polygon fill="midnightblue" stroke="midnightblue" points="733.129,-216.815 725.262,-209.719 726.987,-220.173 733.129,-216.815"/>
</g>
<!-- Node32 -->
<g id="node33" class="node"><title>Node32</title>
<g id="a_node33"><a xlink:href="_n_f_i_record_8h.html" target="_top" xlink:title="NFComm/NFCore/NFIRecord.h">
<polygon fill="white" stroke="black" points="592.5,-308 592.5,-327 743.5,-327 743.5,-308 592.5,-308"/>
<text text-anchor="middle" x="668" y="-315" font-family="Helvetica,sans-Serif" font-size="10.00">NFComm/NFCore/NFIRecord.h</text>
</a>
</g>
</g>
<!-- Node16&#45;&gt;Node32 -->
<g id="edge61" class="edge"><title>Node16&#45;&gt;Node32</title>
<path fill="none" stroke="midnightblue" d="M708.717,-369.396C700.689,-359.361 689.871,-345.838 681.403,-335.253"/>
<polygon fill="midnightblue" stroke="midnightblue" points="683.936,-332.817 674.956,-327.195 678.47,-337.19 683.936,-332.817"/>
</g>
<!-- Node33 -->
<g id="node34" class="node"><title>Node33</title>
<g id="a_node34"><a xlink:href="_n_f_event_define_8h.html" target="_top" xlink:title="NFComm/NFEventDefine\l/NFEventDefine.h">
<polygon fill="white" stroke="black" points="1203.5,-302.5 1203.5,-332.5 1328.5,-332.5 1328.5,-302.5 1203.5,-302.5"/>
<text text-anchor="start" x="1211.5" y="-320.5" font-family="Helvetica,sans-Serif" font-size="10.00">NFComm/NFEventDefine</text>
<text text-anchor="middle" x="1266" y="-309.5" font-family="Helvetica,sans-Serif" font-size="10.00">/NFEventDefine.h</text>
</a>
</g>
</g>
<!-- Node16&#45;&gt;Node33 -->
<g id="edge64" class="edge"><title>Node16&#45;&gt;Node33</title>
<path fill="none" stroke="midnightblue" d="M786.132,-375.627C888.999,-363.381 1086.58,-339.86 1193.31,-327.153"/>
<polygon fill="midnightblue" stroke="midnightblue" points="1193.84,-330.616 1203.35,-325.958 1193.01,-323.665 1193.84,-330.616"/>
</g>
<!-- Node17&#45;&gt;Node1 -->
<g id="edge32" class="edge"><title>Node17&#45;&gt;Node1</title>
<path fill="none" stroke="midnightblue" d="M1232.36,-190.394C1224.84,-173.826 1205.82,-137.824 1177,-123 1089.67,-78.0733 408.089,-97.4744 270.461,-86.8271"/>
<polygon fill="midnightblue" stroke="midnightblue" points="270.454,-83.3109 260.169,-85.8558 269.796,-90.28 270.454,-83.3109"/>
</g>
<!-- Node17&#45;&gt;Node8 -->
<g id="edge28" class="edge"><title>Node17&#45;&gt;Node8</title>
<path fill="none" stroke="midnightblue" d="M1245.45,-190.443C1266.18,-171.71 1314.49,-128.311 1323,-123 1349.29,-106.586 1381.84,-93.2683 1406.4,-84.4385"/>
<polygon fill="midnightblue" stroke="midnightblue" points="1407.79,-87.6619 1416.06,-81.0481 1405.47,-81.0568 1407.79,-87.6619"/>
</g>
<!-- Node17&#45;&gt;Node11 -->
<g id="edge29" class="edge"><title>Node17&#45;&gt;Node11</title>
<path fill="none" stroke="midnightblue" d="M1252.33,-190.475C1271.21,-180.622 1302.51,-164.288 1324.58,-152.77"/>
<polygon fill="midnightblue" stroke="midnightblue" points="1326.45,-155.739 1333.7,-148.009 1323.21,-149.533 1326.45,-155.739"/>
</g>
<!-- Node17&#45;&gt;Node12 -->
<g id="edge30" class="edge"><title>Node17&#45;&gt;Node12</title>
<path fill="none" stroke="midnightblue" d="M1269.92,-190.483C1298.79,-182.675 1341.03,-169.921 1376,-154 1376.7,-153.682 1377.4,-153.349 1378.11,-153.003"/>
<polygon fill="midnightblue" stroke="midnightblue" points="1380.03,-155.939 1387.1,-148.046 1376.65,-149.809 1380.03,-155.939"/>
</g>
<!-- Node18 -->
<g id="node19" class="node"><title>Node18</title>
<polygon fill="white" stroke="#bfbfbf" points="1112,-129 1112,-148 1168,-148 1168,-129 1112,-129"/>
<text text-anchor="middle" x="1140" y="-136" font-family="Helvetica,sans-Serif" font-size="10.00">algorithm</text>
</g>
<!-- Node17&#45;&gt;Node18 -->
<g id="edge31" class="edge"><title>Node17&#45;&gt;Node18</title>
<path fill="none" stroke="midnightblue" d="M1222.25,-190.475C1206.63,-180.799 1180.94,-164.872 1162.42,-153.394"/>
<polygon fill="midnightblue" stroke="midnightblue" points="1164.07,-150.302 1153.73,-148.009 1160.38,-156.252 1164.07,-150.302"/>
</g>
<!-- Node20 -->
<g id="node21" class="node"><title>Node20</title>
<polygon fill="white" stroke="#bfbfbf" points="104,-129 104,-148 162,-148 162,-129 104,-129"/>
<text text-anchor="middle" x="133" y="-136" font-family="Helvetica,sans-Serif" font-size="10.00">functional</text>
</g>
<!-- Node19&#45;&gt;Node20 -->
<g id="edge34" class="edge"><title>Node19&#45;&gt;Node20</title>
<path fill="none" stroke="midnightblue" d="M527.657,-246.447C458.684,-230.015 304.232,-192.258 176,-154 173.075,-153.127 170.05,-152.186 167.022,-151.218"/>
<polygon fill="midnightblue" stroke="midnightblue" points="168.056,-147.874 157.463,-148.082 165.874,-154.525 168.056,-147.874"/>
</g>
<!-- Node19&#45;&gt;Node21 -->
<g id="edge35" class="edge"><title>Node19&#45;&gt;Node21</title>
<path fill="none" stroke="midnightblue" d="M588.719,-246.444C614.848,-237.399 656.259,-223.064 685.576,-212.916"/>
<polygon fill="midnightblue" stroke="midnightblue" points="687.092,-216.095 695.397,-209.516 684.802,-209.48 687.092,-216.095"/>
</g>
<!-- Node29 -->
<g id="node30" class="node"><title>Node29</title>
<g id="a_node30"><a xlink:href="_n_f_g_u_i_d_8h.html" target="_top" xlink:title="NFComm/NFPluginModule\l/NFGUID.h">
<polygon fill="white" stroke="black" points="218,-123.5 218,-153.5 350,-153.5 350,-123.5 218,-123.5"/>
<text text-anchor="start" x="226" y="-141.5" font-family="Helvetica,sans-Serif" font-size="10.00">NFComm/NFPluginModule</text>
<text text-anchor="middle" x="284" y="-130.5" font-family="Helvetica,sans-Serif" font-size="10.00">/NFGUID.h</text>
</a>
</g>
</g>
<!-- Node19&#45;&gt;Node29 -->
<g id="edge59" class="edge"><title>Node19&#45;&gt;Node29</title>
<path fill="none" stroke="midnightblue" d="M542.954,-246.319C497.321,-227.495 388.472,-182.595 327.42,-157.411"/>
<polygon fill="midnightblue" stroke="midnightblue" points="328.628,-154.123 318.049,-153.545 325.959,-160.594 328.628,-154.123"/>
</g>
<!-- Node21&#45;&gt;Node1 -->
<g id="edge57" class="edge"><title>Node21&#45;&gt;Node1</title>
<path fill="none" stroke="midnightblue" d="M677.716,-198.164C561.466,-195.469 243.375,-185.281 209,-154 193.434,-139.835 190.76,-115.245 191.327,-96.7709"/>
<polygon fill="midnightblue" stroke="midnightblue" points="194.824,-96.9261 191.962,-86.7251 187.838,-96.4842 194.824,-96.9261"/>
</g>
<!-- Node21&#45;&gt;Node6 -->
<g id="edge36" class="edge"><title>Node21&#45;&gt;Node6</title>
<path fill="none" stroke="midnightblue" d="M762.148,-196.783C822.966,-192.66 930.918,-181.573 957,-154 988.895,-120.282 984.568,-60.4412 979.748,-29.9699"/>
<polygon fill="midnightblue" stroke="midnightblue" points="983.145,-29.0796 977.951,-19.8451 976.253,-30.3029 983.145,-29.0796"/>
</g>
<!-- Node21&#45;&gt;Node8 -->
<g id="edge38" class="edge"><title>Node21&#45;&gt;Node8</title>
<path fill="none" stroke="midnightblue" d="M762.338,-197.874C816.931,-195.114 913.896,-185.719 990,-154 1011.75,-144.936 1011.07,-131.598 1033,-123 1100.69,-96.4644 1318.35,-80.2837 1405.96,-74.7011"/>
<polygon fill="midnightblue" stroke="midnightblue" points="1406.22,-78.1918 1415.98,-74.0729 1405.78,-71.2056 1406.22,-78.1918"/>
</g>
<!-- Node21&#45;&gt;Node9 -->
<g id="edge45" class="edge"><title>Node21&#45;&gt;Node9</title>
<path fill="none" stroke="midnightblue" d="M762.123,-195.571C821.933,-190.09 934.584,-177.497 1028,-154 1030.98,-153.249 1034.06,-152.359 1037.11,-151.395"/>
<polygon fill="midnightblue" stroke="midnightblue" points="1038.32,-154.678 1046.66,-148.14 1036.07,-148.053 1038.32,-154.678"/>
</g>
<!-- Node21&#45;&gt;Node11 -->
<g id="edge43" class="edge"><title>Node21&#45;&gt;Node11</title>
<path fill="none" stroke="midnightblue" d="M762.048,-197.664C856.187,-194.233 1090.88,-183.235 1285,-154 1297.43,-152.128 1311.03,-149.231 1322.55,-146.517"/>
<polygon fill="midnightblue" stroke="midnightblue" points="1323.58,-149.871 1332.47,-144.111 1321.93,-143.068 1323.58,-149.871"/>
</g>
<!-- Node21&#45;&gt;Node12 -->
<g id="edge41" class="edge"><title>Node21&#45;&gt;Node12</title>
<path fill="none" stroke="midnightblue" d="M762.139,-198.69C888.221,-197.358 1260.89,-190.365 1376,-154 1377.07,-153.663 1378.14,-153.269 1379.2,-152.832"/>
<polygon fill="midnightblue" stroke="midnightblue" points="1381.08,-155.797 1388.33,-148.067 1377.84,-149.591 1381.08,-155.797"/>
</g>
<!-- Node21&#45;&gt;Node13 -->
<g id="edge46" class="edge"><title>Node21&#45;&gt;Node13</title>
<path fill="none" stroke="midnightblue" d="M762.031,-196.796C871.165,-190.967 1172.49,-174.201 1423,-154 1462.05,-150.851 1506.77,-146.384 1536.94,-143.242"/>
<polygon fill="midnightblue" stroke="midnightblue" points="1537.4,-146.714 1546.98,-142.19 1536.67,-139.752 1537.4,-146.714"/>
</g>
<!-- Node21&#45;&gt;Node15 -->
<g id="edge50" class="edge"><title>Node21&#45;&gt;Node15</title>
<path fill="none" stroke="midnightblue" d="M762.069,-196.242C842.812,-190.641 1024.99,-176.525 1177,-154 1189.06,-152.213 1202.15,-149.773 1213.87,-147.405"/>
<polygon fill="midnightblue" stroke="midnightblue" points="1214.67,-150.813 1223.75,-145.36 1213.25,-143.958 1214.67,-150.813"/>
</g>
<!-- Node21&#45;&gt;Node18 -->
<g id="edge44" class="edge"><title>Node21&#45;&gt;Node18</title>
<path fill="none" stroke="midnightblue" d="M762.003,-197.579C833.167,-194.396 981.548,-184.395 1103,-154 1105.67,-153.332 1108.4,-152.52 1111.12,-151.626"/>
<polygon fill="midnightblue" stroke="midnightblue" points="1112.52,-154.842 1120.72,-148.133 1110.13,-148.263 1112.52,-154.842"/>
</g>
<!-- Node21&#45;&gt;Node20 -->
<g id="edge48" class="edge"><title>Node21&#45;&gt;Node20</title>
<path fill="none" stroke="midnightblue" d="M677.876,-198.974C585.823,-198.165 360.216,-192.088 176,-154 172.311,-153.237 168.5,-152.254 164.742,-151.158"/>
<polygon fill="midnightblue" stroke="midnightblue" points="165.625,-147.766 155.034,-148.073 163.504,-154.438 165.625,-147.766"/>
</g>
<!-- Node22 -->
<g id="node23" class="node"><title>Node22</title>
<polygon fill="white" stroke="#bfbfbf" points="406,-129 406,-148 452,-148 452,-129 406,-129"/>
<text text-anchor="middle" x="429" y="-136" font-family="Helvetica,sans-Serif" font-size="10.00">cstring</text>
</g>
<!-- Node21&#45;&gt;Node22 -->
<g id="edge37" class="edge"><title>Node21&#45;&gt;Node22</title>
<path fill="none" stroke="midnightblue" d="M677.969,-195.008C626.091,-189.331 535.586,-176.969 461,-154 459.12,-153.421 457.206,-152.758 455.296,-152.041"/>
<polygon fill="midnightblue" stroke="midnightblue" points="456.537,-148.766 445.96,-148.148 453.843,-155.227 456.537,-148.766"/>
</g>
<!-- Node23 -->
<g id="node24" class="node"><title>Node23</title>
<polygon fill="white" stroke="#bfbfbf" points="350,-62 350,-81 398,-81 398,-62 350,-62"/>
<text text-anchor="middle" x="374" y="-69" font-family="Helvetica,sans-Serif" font-size="10.00">stdlib.h</text>
</g>
<!-- Node21&#45;&gt;Node23 -->
<g id="edge39" class="edge"><title>Node21&#45;&gt;Node23</title>
<path fill="none" stroke="midnightblue" d="M677.821,-198.678C600.012,-197.211 438.074,-189.813 397,-154 379.113,-138.404 374.639,-110.074 373.774,-91.2689"/>
<polygon fill="midnightblue" stroke="midnightblue" points="377.273,-91.1691 373.611,-81.2273 370.274,-91.2828 377.273,-91.1691"/>
</g>
<!-- Node24 -->
<g id="node25" class="node"><title>Node24</title>
<polygon fill="white" stroke="#bfbfbf" points="470.5,-129 470.5,-148 517.5,-148 517.5,-129 470.5,-129"/>
<text text-anchor="middle" x="494" y="-136" font-family="Helvetica,sans-Serif" font-size="10.00">math.h</text>
</g>
<!-- Node21&#45;&gt;Node24 -->
<g id="edge40" class="edge"><title>Node21&#45;&gt;Node24</title>
<path fill="none" stroke="midnightblue" d="M677.969,-191.53C638.451,-183.962 577.922,-170.962 527,-154 525.13,-153.377 523.22,-152.688 521.309,-151.958"/>
<polygon fill="midnightblue" stroke="midnightblue" points="522.498,-148.663 511.919,-148.091 519.833,-155.135 522.498,-148.663"/>
</g>
<!-- Node25 -->
<g id="node26" class="node"><title>Node25</title>
<polygon fill="white" stroke="#bfbfbf" points="536,-129 536,-148 578,-148 578,-129 536,-129"/>
<text text-anchor="middle" x="557" y="-136" font-family="Helvetica,sans-Serif" font-size="10.00">vector</text>
</g>
<!-- Node21&#45;&gt;Node25 -->
<g id="edge42" class="edge"><title>Node21&#45;&gt;Node25</title>
<path fill="none" stroke="midnightblue" d="M691.345,-190.435C664.153,-182.044 622.31,-168.442 587,-154 585.628,-153.439 584.23,-152.845 582.825,-152.23"/>
<polygon fill="midnightblue" stroke="midnightblue" points="584.2,-149.01 573.653,-148.001 581.269,-155.367 584.2,-149.01"/>
</g>
<!-- Node26 -->
<g id="node27" class="node"><title>Node26</title>
<polygon fill="white" stroke="#bfbfbf" points="596,-129 596,-148 646,-148 646,-129 596,-129"/>
<text text-anchor="middle" x="621" y="-136" font-family="Helvetica,sans-Serif" font-size="10.00">iomanip</text>
</g>
<!-- Node21&#45;&gt;Node26 -->
<g id="edge47" class="edge"><title>Node21&#45;&gt;Node26</title>
<path fill="none" stroke="midnightblue" d="M705.816,-190.475C689.642,-180.755 662.974,-164.727 643.857,-153.237"/>
<polygon fill="midnightblue" stroke="midnightblue" points="645.532,-150.161 635.158,-148.009 641.926,-156.16 645.532,-150.161"/>
</g>
<!-- Node27 -->
<g id="node28" class="node"><title>Node27</title>
<polygon fill="white" stroke="#bfbfbf" points="664.5,-129 664.5,-148 713.5,-148 713.5,-129 664.5,-129"/>
<text text-anchor="middle" x="689" y="-136" font-family="Helvetica,sans-Serif" font-size="10.00">fstream</text>
</g>
<!-- Node21&#45;&gt;Node27 -->
<g id="edge49" class="edge"><title>Node21&#45;&gt;Node27</title>
<path fill="none" stroke="midnightblue" d="M715.558,-190.475C711.047,-181.815 703.926,-168.149 698.193,-157.145"/>
<polygon fill="midnightblue" stroke="midnightblue" points="701.158,-155.26 693.433,-148.009 694.95,-158.495 701.158,-155.26"/>
</g>
<!-- Node28 -->
<g id="node29" class="node"><title>Node28</title>
<polygon fill="white" stroke="#bfbfbf" points="732,-129 732,-148 836,-148 836,-129 732,-129"/>
<text text-anchor="middle" x="784" y="-136" font-family="Helvetica,sans-Serif" font-size="10.00">common/variant.hpp</text>
</g>
<!-- Node21&#45;&gt;Node28 -->
<g id="edge51" class="edge"><title>Node21&#45;&gt;Node28</title>
<path fill="none" stroke="midnightblue" d="M729.17,-190.475C739.15,-181.197 755.312,-166.171 767.509,-154.831"/>
<polygon fill="midnightblue" stroke="midnightblue" points="769.907,-157.381 774.847,-148.009 765.14,-152.255 769.907,-157.381"/>
</g>
<!-- Node21&#45;&gt;Node29 -->
<g id="edge52" class="edge"><title>Node21&#45;&gt;Node29</title>
<path fill="none" stroke="midnightblue" d="M677.974,-194.426C611.274,-187.001 477.143,-171.392 364,-154 362.744,-153.807 361.478,-153.61 360.204,-153.408"/>
<polygon fill="midnightblue" stroke="midnightblue" points="360.74,-149.95 350.308,-151.801 359.618,-156.859 360.74,-149.95"/>
</g>
<!-- Node31 -->
<g id="node32" class="node"><title>Node31</title>
<g id="a_node32"><a xlink:href="_vector3_8hpp.html" target="_top" xlink:title="Math/Vector3.hpp">
<polygon fill="white" stroke="black" points="854,-129 854,-148 948,-148 948,-129 854,-129"/>
<text text-anchor="middle" x="901" y="-136" font-family="Helvetica,sans-Serif" font-size="10.00">Math/Vector3.hpp</text>
</a>
</g>
</g>
<!-- Node21&#45;&gt;Node31 -->
<g id="edge58" class="edge"><title>Node21&#45;&gt;Node31</title>
<path fill="none" stroke="midnightblue" d="M745.933,-190.475C777.25,-180.18 830.09,-162.81 865.256,-151.25"/>
<polygon fill="midnightblue" stroke="midnightblue" points="866.708,-154.457 875.115,-148.009 864.522,-147.807 866.708,-154.457"/>
</g>
<!-- Node29&#45;&gt;Node1 -->
<g id="edge53" class="edge"><title>Node29&#45;&gt;Node1</title>
<path fill="none" stroke="midnightblue" d="M264.471,-123.396C251.97,-114.367 235.558,-102.514 221.718,-92.5184"/>
<polygon fill="midnightblue" stroke="midnightblue" points="223.647,-89.5941 213.491,-86.5765 219.548,-95.2688 223.647,-89.5941"/>
</g>
<!-- Node29&#45;&gt;Node8 -->
<g id="edge54" class="edge"><title>Node29&#45;&gt;Node8</title>
<path fill="none" stroke="midnightblue" d="M350.229,-128.108C365.561,-126.182 381.829,-124.337 397,-123 790.659,-88.2955 1269.92,-76.1175 1405.61,-73.2322"/>
<polygon fill="midnightblue" stroke="midnightblue" points="1405.95,-76.726 1415.87,-73.0179 1405.8,-69.7275 1405.95,-76.726"/>
</g>
<!-- Node29&#45;&gt;Node23 -->
<g id="edge56" class="edge"><title>Node29&#45;&gt;Node23</title>
<path fill="none" stroke="midnightblue" d="M303.529,-123.396C318.482,-112.597 339.03,-97.7564 354.079,-86.8872"/>
<polygon fill="midnightblue" stroke="midnightblue" points="356.163,-89.6993 362.221,-81.007 352.065,-84.0246 356.163,-89.6993"/>
</g>
<!-- Node30 -->
<g id="node31" class="node"><title>Node30</title>
<polygon fill="white" stroke="#bfbfbf" points="278,-62 278,-81 324,-81 324,-62 278,-62"/>
<text text-anchor="middle" x="301" y="-69" font-family="Helvetica,sans-Serif" font-size="10.00">stdio.h</text>
</g>
<!-- Node29&#45;&gt;Node30 -->
<g id="edge55" class="edge"><title>Node29&#45;&gt;Node30</title>
<path fill="none" stroke="midnightblue" d="M287.689,-123.396C290.156,-113.963 293.429,-101.448 296.112,-91.1891"/>
<polygon fill="midnightblue" stroke="midnightblue" points="299.582,-91.7548 298.726,-81.1945 292.81,-89.9835 299.582,-91.7548"/>
</g>
<!-- Node32&#45;&gt;Node19 -->
<g id="edge62" class="edge"><title>Node32&#45;&gt;Node19</title>
<path fill="none" stroke="midnightblue" d="M653.099,-307.975C636.032,-298.211 607.839,-282.081 587.738,-270.581"/>
<polygon fill="midnightblue" stroke="midnightblue" points="589.291,-267.437 578.873,-265.509 585.815,-273.513 589.291,-267.437"/>
</g>
<!-- Node32&#45;&gt;Node21 -->
<g id="edge63" class="edge"><title>Node32&#45;&gt;Node21</title>
<path fill="none" stroke="midnightblue" d="M671.908,-307.819C680.378,-289.006 700.574,-244.148 711.916,-218.955"/>
<polygon fill="midnightblue" stroke="midnightblue" points="715.132,-220.337 716.046,-209.782 708.749,-217.464 715.132,-220.337"/>
</g>
<!-- Node33&#45;&gt;Node8 -->
<g id="edge65" class="edge"><title>Node33&#45;&gt;Node8</title>
<path fill="none" stroke="midnightblue" d="M1285.01,-302.475C1318.31,-276.852 1387.07,-219.079 1423,-154 1433.87,-134.31 1438.9,-108.73 1441.19,-91.5245"/>
<polygon fill="midnightblue" stroke="midnightblue" points="1444.72,-91.4565 1442.37,-81.1258 1437.76,-90.6677 1444.72,-91.4565"/>
</g>
<!-- Node34&#45;&gt;Node16 -->
<g id="edge68" class="edge"><title>Node34&#45;&gt;Node16</title>
<path fill="none" stroke="midnightblue" d="M198.024,-443.201C307.815,-431.065 527.324,-406.799 643.618,-393.944"/>
<polygon fill="midnightblue" stroke="midnightblue" points="644.304,-397.389 653.859,-392.811 643.535,-390.432 644.304,-397.389"/>
</g>
</g>
</svg>
