<?xml version="1.0" encoding="UTF-8" standalone="no"?>
<!DOCTYPE svg PUBLIC "-//W3C//DTD SVG 1.1//EN"
 "http://www.w3.org/Graphics/SVG/1.1/DTD/svg11.dtd">
<!-- Generated by graphviz version 2.38.0 (20140413.2041)
 -->
<!-- Title: NFCRecordManager.h Pages: 1 -->
<svg width="569pt" height="196pt"
 viewBox="0.00 0.00 569.00 196.00" xmlns="http://www.w3.org/2000/svg" xmlns:xlink="http://www.w3.org/1999/xlink">
<g id="graph0" class="graph" transform="scale(1 1) rotate(0) translate(4 192)">
<title>NFCRecordManager.h</title>
<polygon fill="white" stroke="none" points="-4,4 -4,-192 565,-192 565,4 -4,4"/>
<!-- Node32 -->
<g id="node1" class="node"><title>Node32</title>
<polygon fill="#bfbfbf" stroke="black" points="264,-168.5 264,-187.5 377,-187.5 377,-168.5 264,-168.5"/>
<text text-anchor="middle" x="320.5" y="-175.5" font-family="Helvetica,sans-Serif" font-size="10.00">NFCRecordManager.h</text>
</g>
<!-- Node33 -->
<g id="node2" class="node"><title>Node33</title>
<g id="a_node2"><a xlink:href="_n_f_c_element_module_8h.html" target="_top" xlink:title="NFCElementModule.h">
<polygon fill="white" stroke="black" points="206.5,-112.5 206.5,-131.5 318.5,-131.5 318.5,-112.5 206.5,-112.5"/>
<text text-anchor="middle" x="262.5" y="-119.5" font-family="Helvetica,sans-Serif" font-size="10.00">NFCElementModule.h</text>
</a>
</g>
</g>
<!-- Node32&#45;&gt;Node33 -->
<g id="edge1" class="edge"><title>Node32&#45;&gt;Node33</title>
<path fill="none" stroke="midnightblue" d="M303.587,-161.253C293.297,-151.673 280.534,-139.791 271.988,-131.834"/>
<polygon fill="midnightblue" stroke="midnightblue" points="301.477,-164.071 311.181,-168.324 306.247,-158.948 301.477,-164.071"/>
</g>
<!-- Node34 -->
<g id="node3" class="node"><title>Node34</title>
<g id="a_node3"><a xlink:href="_n_f_c_class_module_8h.html" target="_top" xlink:title="NFCClassModule.h">
<polygon fill="white" stroke="black" points="130,-56.5 130,-75.5 231,-75.5 231,-56.5 130,-56.5"/>
<text text-anchor="middle" x="180.5" y="-63.5" font-family="Helvetica,sans-Serif" font-size="10.00">NFCClassModule.h</text>
</a>
</g>
</g>
<!-- Node32&#45;&gt;Node34 -->
<g id="edge8" class="edge"><title>Node32&#45;&gt;Node34</title>
<path fill="none" stroke="midnightblue" d="M254.895,-165.571C234.023,-158.942 212.489,-148.484 197.5,-132 183.061,-116.121 180.596,-89.4889 180.351,-75.7645"/>
<polygon fill="midnightblue" stroke="midnightblue" points="254.154,-169.001 264.734,-168.442 256.115,-162.281 254.154,-169.001"/>
</g>
<!-- Node38 -->
<g id="node7" class="node"><title>Node38</title>
<g id="a_node7"><a xlink:href="_n_f_c_object_8cpp.html" target="_top" xlink:title="NFCObject.cpp">
<polygon fill="white" stroke="black" points="337,-112.5 337,-131.5 420,-131.5 420,-112.5 337,-112.5"/>
<text text-anchor="middle" x="378.5" y="-119.5" font-family="Helvetica,sans-Serif" font-size="10.00">NFCObject.cpp</text>
</a>
</g>
</g>
<!-- Node32&#45;&gt;Node38 -->
<g id="edge9" class="edge"><title>Node32&#45;&gt;Node38</title>
<path fill="none" stroke="midnightblue" d="M337.413,-161.253C347.703,-151.673 360.466,-139.791 369.012,-131.834"/>
<polygon fill="midnightblue" stroke="midnightblue" points="334.753,-158.948 329.819,-168.324 339.523,-164.071 334.753,-158.948"/>
</g>
<!-- Node39 -->
<g id="node8" class="node"><title>Node39</title>
<g id="a_node8"><a xlink:href="_n_f_c_record_manager_8cpp.html" target="_top" xlink:title="NFCRecordManager.cpp">
<polygon fill="white" stroke="black" points="438,-112.5 438,-131.5 561,-131.5 561,-112.5 438,-112.5"/>
<text text-anchor="middle" x="499.5" y="-119.5" font-family="Helvetica,sans-Serif" font-size="10.00">NFCRecordManager.cpp</text>
</a>
</g>
</g>
<!-- Node32&#45;&gt;Node39 -->
<g id="edge10" class="edge"><title>Node32&#45;&gt;Node39</title>
<path fill="none" stroke="midnightblue" d="M358.831,-165.436C392.58,-155.255 440.947,-140.664 471.27,-131.516"/>
<polygon fill="midnightblue" stroke="midnightblue" points="357.426,-162.204 348.863,-168.444 359.448,-168.906 357.426,-162.204"/>
</g>
<!-- Node33&#45;&gt;Node34 -->
<g id="edge2" class="edge"><title>Node33&#45;&gt;Node34</title>
<path fill="none" stroke="midnightblue" d="M240.667,-106.622C225.687,-96.7574 206.303,-83.9919 193.642,-75.6545"/>
<polygon fill="midnightblue" stroke="midnightblue" points="239.049,-109.747 249.325,-112.324 242.899,-103.901 239.049,-109.747"/>
</g>
<!-- Node36 -->
<g id="node5" class="node"><title>Node36</title>
<g id="a_node5"><a xlink:href="_n_f_c_element_module_8cpp.html" target="_top" xlink:title="NFCElementModule.cpp">
<polygon fill="white" stroke="black" points="249.5,-0.5 249.5,-19.5 371.5,-19.5 371.5,-0.5 249.5,-0.5"/>
<text text-anchor="middle" x="310.5" y="-7.5" font-family="Helvetica,sans-Serif" font-size="10.00">NFCElementModule.cpp</text>
</a>
</g>
</g>
<!-- Node33&#45;&gt;Node36 -->
<g id="edge6" class="edge"><title>Node33&#45;&gt;Node36</title>
<path fill="none" stroke="midnightblue" d="M270.355,-102.998C280.829,-78.9968 298.95,-37.4683 306.751,-19.5914"/>
<polygon fill="midnightblue" stroke="midnightblue" points="267.058,-101.803 266.266,-112.368 273.474,-104.603 267.058,-101.803"/>
</g>
<!-- Node37 -->
<g id="node6" class="node"><title>Node37</title>
<g id="a_node6"><a xlink:href="_n_f_config_plugin_8cpp.html" target="_top" xlink:title="NFConfigPlugin.cpp">
<polygon fill="white" stroke="black" points="129.5,-0.5 129.5,-19.5 231.5,-19.5 231.5,-0.5 129.5,-0.5"/>
<text text-anchor="middle" x="180.5" y="-7.5" font-family="Helvetica,sans-Serif" font-size="10.00">NFConfigPlugin.cpp</text>
</a>
</g>
</g>
<!-- Node33&#45;&gt;Node37 -->
<g id="edge7" class="edge"><title>Node33&#45;&gt;Node37</title>
<path fill="none" stroke="midnightblue" d="M258.947,-102.449C255.626,-88.6546 249.623,-69.894 239.5,-56 228.045,-40.278 209.576,-27.4468 196.353,-19.5662"/>
<polygon fill="midnightblue" stroke="midnightblue" points="255.533,-103.222 261.061,-112.26 262.375,-101.747 255.533,-103.222"/>
</g>
<!-- Node35 -->
<g id="node4" class="node"><title>Node35</title>
<g id="a_node4"><a xlink:href="_n_f_c_class_module_8cpp.html" target="_top" xlink:title="NFCClassModule.cpp">
<polygon fill="white" stroke="black" points="0,-0.5 0,-19.5 111,-19.5 111,-0.5 0,-0.5"/>
<text text-anchor="middle" x="55.5" y="-7.5" font-family="Helvetica,sans-Serif" font-size="10.00">NFCClassModule.cpp</text>
</a>
</g>
</g>
<!-- Node34&#45;&gt;Node35 -->
<g id="edge3" class="edge"><title>Node34&#45;&gt;Node35</title>
<path fill="none" stroke="midnightblue" d="M151.259,-52.3678C127.85,-42.2553 95.6587,-28.3486 75.214,-19.5164"/>
<polygon fill="midnightblue" stroke="midnightblue" points="150.125,-55.6907 160.693,-56.4435 152.901,-49.2647 150.125,-55.6907"/>
</g>
<!-- Node34&#45;&gt;Node36 -->
<g id="edge4" class="edge"><title>Node34&#45;&gt;Node36</title>
<path fill="none" stroke="midnightblue" d="M210.585,-52.503C234.957,-42.3795 268.64,-28.388 289.997,-19.5164"/>
<polygon fill="midnightblue" stroke="midnightblue" points="208.991,-49.3752 201.099,-56.4435 211.677,-55.8397 208.991,-49.3752"/>
</g>
<!-- Node34&#45;&gt;Node37 -->
<g id="edge5" class="edge"><title>Node34&#45;&gt;Node37</title>
<path fill="none" stroke="midnightblue" d="M180.5,-45.8045C180.5,-36.9102 180.5,-26.7798 180.5,-19.7511"/>
<polygon fill="midnightblue" stroke="midnightblue" points="177,-46.083 180.5,-56.083 184,-46.083 177,-46.083"/>
</g>
</g>
</svg>
