<?xml version="1.0" encoding="UTF-8" standalone="no"?>
<!DOCTYPE svg PUBLIC "-//W3C//DTD SVG 1.1//EN"
 "http://www.w3.org/Graphics/SVG/1.1/DTD/svg11.dtd">
<!-- Generated by graphviz version 2.38.0 (20140413.2041)
 -->
<!-- Title: NFCRecord.h Pages: 1 -->
<svg width="1377pt" height="375pt"
 viewBox="0.00 0.00 1376.94 375.00" xmlns="http://www.w3.org/2000/svg" xmlns:xlink="http://www.w3.org/1999/xlink">
<g id="graph0" class="graph" transform="scale(1 1) rotate(0) translate(4 371)">
<title>NFCRecord.h</title>
<polygon fill="white" stroke="none" points="-4,4 -4,-371 1372.94,-371 1372.94,4 -4,4"/>
<!-- Node0 -->
<g id="node1" class="node"><title>Node0</title>
<polygon fill="#bfbfbf" stroke="black" points="550.5,-347.5 550.5,-366.5 625.5,-366.5 625.5,-347.5 550.5,-347.5"/>
<text text-anchor="middle" x="588" y="-354.5" font-family="Helvetica,sans-Serif" font-size="10.00">NFCRecord.h</text>
</g>
<!-- Node1 -->
<g id="node2" class="node"><title>Node1</title>
<polygon fill="white" stroke="#bfbfbf" points="0,-118 0,-137 42,-137 42,-118 0,-118"/>
<text text-anchor="middle" x="21" y="-125" font-family="Helvetica,sans-Serif" font-size="10.00">vector</text>
</g>
<!-- Node0&#45;&gt;Node1 -->
<g id="edge1" class="edge"><title>Node0&#45;&gt;Node1</title>
<path fill="none" stroke="midnightblue" d="M564.425,-347.436C488.893,-319.83 246.422,-229.917 51,-143 49.8405,-142.484 48.6594,-141.95 47.4689,-141.405"/>
<polygon fill="midnightblue" stroke="midnightblue" points="48.9012,-138.211 38.3625,-137.122 45.922,-144.546 48.9012,-138.211"/>
</g>
<!-- Node2 -->
<g id="node3" class="node"><title>Node2</title>
<g id="a_node3"><a xlink:href="_n_f_i_record_8h.html" target="_top" xlink:title="NFIRecord.h">
<polygon fill="white" stroke="black" points="520.5,-291.5 520.5,-310.5 591.5,-310.5 591.5,-291.5 520.5,-291.5"/>
<text text-anchor="middle" x="556" y="-298.5" font-family="Helvetica,sans-Serif" font-size="10.00">NFIRecord.h</text>
</a>
</g>
</g>
<!-- Node0&#45;&gt;Node2 -->
<g id="edge2" class="edge"><title>Node0&#45;&gt;Node2</title>
<path fill="none" stroke="midnightblue" d="M582.716,-347.083C578.289,-339.613 571.837,-328.724 566.382,-319.52"/>
<polygon fill="midnightblue" stroke="midnightblue" points="569.295,-317.57 561.186,-310.751 563.273,-321.138 569.295,-317.57"/>
</g>
<!-- Node5 -->
<g id="node6" class="node"><title>Node5</title>
<g id="a_node6"><a xlink:href="_a_f_data_list_8hpp.html" target="_top" xlink:title="AFDataList.hpp">
<polygon fill="white" stroke="black" points="578,-179.5 578,-198.5 662,-198.5 662,-179.5 578,-179.5"/>
<text text-anchor="middle" x="620" y="-186.5" font-family="Helvetica,sans-Serif" font-size="10.00">AFDataList.hpp</text>
</a>
</g>
</g>
<!-- Node0&#45;&gt;Node5 -->
<g id="edge36" class="edge"><title>Node0&#45;&gt;Node5</title>
<path fill="none" stroke="midnightblue" d="M590.55,-347.433C593.169,-338.424 597.241,-323.805 600,-311 607.746,-275.046 614.145,-232.523 617.487,-208.665"/>
<polygon fill="midnightblue" stroke="midnightblue" points="620.982,-208.946 618.875,-198.562 614.047,-207.993 620.982,-208.946"/>
</g>
<!-- Node28 -->
<g id="node29" class="node"><title>Node28</title>
<g id="a_node29"><a xlink:href="_n_f_map_ex_8h.html" target="_top" xlink:title="NFMapEx.h">
<polygon fill="white" stroke="black" points="1225,-179.5 1225,-198.5 1293,-198.5 1293,-179.5 1225,-179.5"/>
<text text-anchor="middle" x="1259" y="-186.5" font-family="Helvetica,sans-Serif" font-size="10.00">NFMapEx.h</text>
</a>
</g>
</g>
<!-- Node0&#45;&gt;Node28 -->
<g id="edge37" class="edge"><title>Node0&#45;&gt;Node28</title>
<path fill="none" stroke="midnightblue" d="M622.663,-347.425C735.165,-319.593 1090.04,-231.8 1214.96,-200.894"/>
<polygon fill="midnightblue" stroke="midnightblue" points="1216.08,-204.224 1224.94,-198.425 1214.4,-197.429 1216.08,-204.224"/>
</g>
<!-- Node3 -->
<g id="node4" class="node"><title>Node3</title>
<g id="a_node4"><a xlink:href="_n_f_define_8h.html" target="_top" xlink:title="NFDefine.h">
<polygon fill="white" stroke="black" points="335.5,-235.5 335.5,-254.5 400.5,-254.5 400.5,-235.5 335.5,-235.5"/>
<text text-anchor="middle" x="368" y="-242.5" font-family="Helvetica,sans-Serif" font-size="10.00">NFDefine.h</text>
</a>
</g>
</g>
<!-- Node2&#45;&gt;Node3 -->
<g id="edge3" class="edge"><title>Node2&#45;&gt;Node3</title>
<path fill="none" stroke="midnightblue" d="M526.211,-291.444C494.171,-282.241 443.067,-267.562 407.647,-257.388"/>
<polygon fill="midnightblue" stroke="midnightblue" points="408.227,-253.913 397.65,-254.516 406.295,-260.641 408.227,-253.913"/>
</g>
<!-- Node2&#45;&gt;Node5 -->
<g id="edge35" class="edge"><title>Node2&#45;&gt;Node5</title>
<path fill="none" stroke="midnightblue" d="M561.022,-291.368C571.537,-273.296 596.043,-231.176 609.93,-207.307"/>
<polygon fill="midnightblue" stroke="midnightblue" points="612.998,-208.995 615.001,-198.591 606.947,-205.475 612.998,-208.995"/>
</g>
<!-- Node4 -->
<g id="node5" class="node"><title>Node4</title>
<polygon fill="white" stroke="#bfbfbf" points="60,-118 60,-137 118,-137 118,-118 60,-118"/>
<text text-anchor="middle" x="89" y="-125" font-family="Helvetica,sans-Serif" font-size="10.00">functional</text>
</g>
<!-- Node3&#45;&gt;Node4 -->
<g id="edge4" class="edge"><title>Node3&#45;&gt;Node4</title>
<path fill="none" stroke="midnightblue" d="M347.03,-235.319C298.134,-215.077 176.401,-164.682 119.375,-141.075"/>
<polygon fill="midnightblue" stroke="midnightblue" points="120.411,-137.716 109.833,-137.124 117.734,-144.183 120.411,-137.716"/>
</g>
<!-- Node3&#45;&gt;Node5 -->
<g id="edge5" class="edge"><title>Node3&#45;&gt;Node5</title>
<path fill="none" stroke="midnightblue" d="M400.686,-236.996C443.795,-227.758 520.056,-211.417 570.32,-200.646"/>
<polygon fill="midnightblue" stroke="midnightblue" points="571.274,-204.021 580.319,-198.503 569.807,-197.176 571.274,-204.021"/>
</g>
<!-- Node20 -->
<g id="node21" class="node"><title>Node20</title>
<g id="a_node21"><a xlink:href="_n_f_g_u_i_d_8h.html" target="_top" xlink:title="NFComm/NFPluginModule\l/NFGUID.h">
<polygon fill="white" stroke="black" points="174,-112.5 174,-142.5 306,-142.5 306,-112.5 174,-112.5"/>
<text text-anchor="start" x="182" y="-130.5" font-family="Helvetica,sans-Serif" font-size="10.00">NFComm/NFPluginModule</text>
<text text-anchor="middle" x="240" y="-119.5" font-family="Helvetica,sans-Serif" font-size="10.00">/NFGUID.h</text>
</a>
</g>
</g>
<!-- Node3&#45;&gt;Node20 -->
<g id="edge34" class="edge"><title>Node3&#45;&gt;Node20</title>
<path fill="none" stroke="midnightblue" d="M358.379,-235.319C338.291,-217.192 291.405,-174.885 263.038,-149.288"/>
<polygon fill="midnightblue" stroke="midnightblue" points="265.334,-146.646 255.565,-142.545 260.645,-151.843 265.334,-146.646"/>
</g>
<!-- Node5&#45;&gt;Node1 -->
<g id="edge12" class="edge"><title>Node5&#45;&gt;Node1</title>
<path fill="none" stroke="midnightblue" d="M577.981,-186.689C463.931,-182.813 150.471,-169.949 51,-143 49.0737,-142.478 47.1217,-141.834 45.186,-141.109"/>
<polygon fill="midnightblue" stroke="midnightblue" points="46.401,-137.82 35.8368,-137.014 43.5929,-144.232 46.401,-137.82"/>
</g>
<!-- Node5&#45;&gt;Node4 -->
<g id="edge18" class="edge"><title>Node5&#45;&gt;Node4</title>
<path fill="none" stroke="midnightblue" d="M577.729,-187.405C492.497,-185.483 294.313,-177.357 132,-143 128.315,-142.22 124.506,-141.225 120.749,-140.124"/>
<polygon fill="midnightblue" stroke="midnightblue" points="121.633,-136.732 111.043,-137.032 119.508,-143.402 121.633,-136.732"/>
</g>
<!-- Node6 -->
<g id="node7" class="node"><title>Node6</title>
<polygon fill="white" stroke="#bfbfbf" points="1033.5,-0.5 1033.5,-19.5 1074.5,-19.5 1074.5,-0.5 1033.5,-0.5"/>
<text text-anchor="middle" x="1054" y="-7.5" font-family="Helvetica,sans-Serif" font-size="10.00">string</text>
</g>
<!-- Node5&#45;&gt;Node6 -->
<g id="edge6" class="edge"><title>Node5&#45;&gt;Node6</title>
<path fill="none" stroke="midnightblue" d="M662.223,-185.829C758.757,-180.498 989.349,-165.531 1016,-143 1049.44,-114.729 1054.46,-59.1009 1054.62,-29.9069"/>
<polygon fill="midnightblue" stroke="midnightblue" points="1058.12,-29.7561 1054.49,-19.8041 1051.12,-29.8503 1058.12,-29.7561"/>
</g>
<!-- Node7 -->
<g id="node8" class="node"><title>Node7</title>
<polygon fill="white" stroke="#bfbfbf" points="802,-118 802,-137 848,-137 848,-118 802,-118"/>
<text text-anchor="middle" x="825" y="-125" font-family="Helvetica,sans-Serif" font-size="10.00">cstring</text>
</g>
<!-- Node5&#45;&gt;Node7 -->
<g id="edge7" class="edge"><title>Node5&#45;&gt;Node7</title>
<path fill="none" stroke="midnightblue" d="M660.788,-179.464C696.223,-171.56 748.674,-158.678 793,-143 794.66,-142.413 796.353,-141.773 798.05,-141.101"/>
<polygon fill="midnightblue" stroke="midnightblue" points="799.787,-144.166 807.616,-137.027 797.044,-137.726 799.787,-144.166"/>
</g>
<!-- Node8 -->
<g id="node9" class="node"><title>Node8</title>
<polygon fill="white" stroke="#bfbfbf" points="972,-56.5 972,-75.5 1026,-75.5 1026,-56.5 972,-56.5"/>
<text text-anchor="middle" x="999" y="-63.5" font-family="Helvetica,sans-Serif" font-size="10.00">iostream</text>
</g>
<!-- Node5&#45;&gt;Node8 -->
<g id="edge8" class="edge"><title>Node5&#45;&gt;Node8</title>
<path fill="none" stroke="midnightblue" d="M662.337,-186.015C756.095,-181.191 974.742,-167.418 997,-143 1010.93,-127.717 1008.56,-102.673 1004.62,-85.5409"/>
<polygon fill="midnightblue" stroke="midnightblue" points="1007.93,-84.3627 1001.96,-75.6073 1001.17,-86.1722 1007.93,-84.3627"/>
</g>
<!-- Node9 -->
<g id="node10" class="node"><title>Node9</title>
<polygon fill="white" stroke="#bfbfbf" points="136,-56.5 136,-75.5 184,-75.5 184,-56.5 136,-56.5"/>
<text text-anchor="middle" x="160" y="-63.5" font-family="Helvetica,sans-Serif" font-size="10.00">stdlib.h</text>
</g>
<!-- Node5&#45;&gt;Node9 -->
<g id="edge9" class="edge"><title>Node5&#45;&gt;Node9</title>
<path fill="none" stroke="midnightblue" d="M577.963,-186.883C470.727,-183.614 193.427,-172.378 165,-143 150.593,-128.111 151.948,-102.979 155.168,-85.7192"/>
<polygon fill="midnightblue" stroke="midnightblue" points="158.642,-86.223 157.407,-75.7004 151.81,-84.6967 158.642,-86.223"/>
</g>
<!-- Node10 -->
<g id="node11" class="node"><title>Node10</title>
<polygon fill="white" stroke="#bfbfbf" points="866.5,-118 866.5,-137 913.5,-137 913.5,-118 866.5,-118"/>
<text text-anchor="middle" x="890" y="-125" font-family="Helvetica,sans-Serif" font-size="10.00">math.h</text>
</g>
<!-- Node5&#45;&gt;Node10 -->
<g id="edge10" class="edge"><title>Node5&#45;&gt;Node10</title>
<path fill="none" stroke="midnightblue" d="M662.227,-182.921C710.179,-176.482 790.4,-163.662 857,-143 858.928,-142.402 860.893,-141.725 862.857,-140.997"/>
<polygon fill="midnightblue" stroke="midnightblue" points="864.53,-144.095 872.47,-137.081 861.889,-137.612 864.53,-144.095"/>
</g>
<!-- Node11 -->
<g id="node12" class="node"><title>Node11</title>
<polygon fill="white" stroke="#bfbfbf" points="1274.5,-118 1274.5,-137 1303.5,-137 1303.5,-118 1274.5,-118"/>
<text text-anchor="middle" x="1289" y="-125" font-family="Helvetica,sans-Serif" font-size="10.00">list</text>
</g>
<!-- Node5&#45;&gt;Node11 -->
<g id="edge11" class="edge"><title>Node5&#45;&gt;Node11</title>
<path fill="none" stroke="midnightblue" d="M662.317,-187.63C787.135,-186.135 1152.1,-178.739 1265,-143 1266.07,-142.662 1267.14,-142.268 1268.2,-141.83"/>
<polygon fill="midnightblue" stroke="midnightblue" points="1270.08,-144.795 1277.33,-137.064 1266.84,-138.59 1270.08,-144.795"/>
</g>
<!-- Node12 -->
<g id="node13" class="node"><title>Node12</title>
<polygon fill="white" stroke="#bfbfbf" points="1082.5,-118 1082.5,-137 1117.5,-137 1117.5,-118 1082.5,-118"/>
<text text-anchor="middle" x="1100" y="-125" font-family="Helvetica,sans-Serif" font-size="10.00">map</text>
</g>
<!-- Node5&#45;&gt;Node12 -->
<g id="edge13" class="edge"><title>Node5&#45;&gt;Node12</title>
<path fill="none" stroke="midnightblue" d="M662.197,-188.282C742.598,-187.836 922.69,-182.088 1068,-143 1070.15,-142.421 1072.34,-141.711 1074.52,-140.92"/>
<polygon fill="midnightblue" stroke="midnightblue" points="1075.87,-144.148 1083.77,-137.085 1073.19,-137.681 1075.87,-144.148"/>
</g>
<!-- Node13 -->
<g id="node14" class="node"><title>Node13</title>
<polygon fill="white" stroke="#bfbfbf" points="932,-118 932,-137 988,-137 988,-118 932,-118"/>
<text text-anchor="middle" x="960" y="-125" font-family="Helvetica,sans-Serif" font-size="10.00">algorithm</text>
</g>
<!-- Node5&#45;&gt;Node13 -->
<g id="edge14" class="edge"><title>Node5&#45;&gt;Node13</title>
<path fill="none" stroke="midnightblue" d="M662.02,-184.781C721.084,-179.577 831.659,-167.344 923,-143 925.658,-142.292 928.386,-141.452 931.097,-140.539"/>
<polygon fill="midnightblue" stroke="midnightblue" points="932.509,-143.75 940.69,-137.018 930.096,-137.178 932.509,-143.75"/>
</g>
<!-- Node14 -->
<g id="node15" class="node"><title>Node14</title>
<polygon fill="white" stroke="#bfbfbf" points="324,-118 324,-137 376,-137 376,-118 324,-118"/>
<text text-anchor="middle" x="350" y="-125" font-family="Helvetica,sans-Serif" font-size="10.00">assert.h</text>
</g>
<!-- Node5&#45;&gt;Node14 -->
<g id="edge15" class="edge"><title>Node5&#45;&gt;Node14</title>
<path fill="none" stroke="midnightblue" d="M577.78,-182.56C530.257,-175.831 451.058,-162.783 385,-143 382.714,-142.315 380.373,-141.534 378.038,-140.696"/>
<polygon fill="midnightblue" stroke="midnightblue" points="379.224,-137.402 368.636,-137.043 376.69,-143.927 379.224,-137.402"/>
</g>
<!-- Node15 -->
<g id="node16" class="node"><title>Node15</title>
<polygon fill="white" stroke="#bfbfbf" points="1136,-118 1136,-137 1186,-137 1186,-118 1136,-118"/>
<text text-anchor="middle" x="1161" y="-125" font-family="Helvetica,sans-Serif" font-size="10.00">typeinfo</text>
</g>
<!-- Node5&#45;&gt;Node15 -->
<g id="edge16" class="edge"><title>Node5&#45;&gt;Node15</title>
<path fill="none" stroke="midnightblue" d="M662.139,-188.685C749.998,-189.155 958.579,-185.256 1127,-143 1129.36,-142.407 1131.77,-141.671 1134.16,-140.847"/>
<polygon fill="midnightblue" stroke="midnightblue" points="1135.68,-144.013 1143.72,-137.111 1133.13,-137.494 1135.68,-144.013"/>
</g>
<!-- Node16 -->
<g id="node17" class="node"><title>Node16</title>
<polygon fill="white" stroke="#bfbfbf" points="394,-118 394,-137 444,-137 444,-118 394,-118"/>
<text text-anchor="middle" x="419" y="-125" font-family="Helvetica,sans-Serif" font-size="10.00">iomanip</text>
</g>
<!-- Node5&#45;&gt;Node16 -->
<g id="edge17" class="edge"><title>Node5&#45;&gt;Node16</title>
<path fill="none" stroke="midnightblue" d="M585.93,-179.437C552.974,-170.942 501.734,-157.176 458,-143 455.595,-142.22 453.118,-141.383 450.635,-140.518"/>
<polygon fill="midnightblue" stroke="midnightblue" points="451.754,-137.201 441.16,-137.11 449.385,-143.788 451.754,-137.201"/>
</g>
<!-- Node17 -->
<g id="node18" class="node"><title>Node17</title>
<polygon fill="white" stroke="#bfbfbf" points="500.5,-118 500.5,-137 549.5,-137 549.5,-118 500.5,-118"/>
<text text-anchor="middle" x="525" y="-125" font-family="Helvetica,sans-Serif" font-size="10.00">fstream</text>
</g>
<!-- Node5&#45;&gt;Node17 -->
<g id="edge19" class="edge"><title>Node5&#45;&gt;Node17</title>
<path fill="none" stroke="midnightblue" d="M606.389,-179.475C590.939,-169.799 565.51,-153.872 547.184,-142.394"/>
<polygon fill="midnightblue" stroke="midnightblue" points="548.919,-139.351 538.586,-137.009 545.203,-145.283 548.919,-139.351"/>
</g>
<!-- Node18 -->
<g id="node19" class="node"><title>Node18</title>
<polygon fill="white" stroke="#bfbfbf" points="1204,-118 1204,-137 1256,-137 1256,-118 1204,-118"/>
<text text-anchor="middle" x="1230" y="-125" font-family="Helvetica,sans-Serif" font-size="10.00">memory</text>
</g>
<!-- Node5&#45;&gt;Node18 -->
<g id="edge20" class="edge"><title>Node5&#45;&gt;Node18</title>
<path fill="none" stroke="midnightblue" d="M662.384,-186.409C777.436,-181.816 1093.74,-167.291 1195,-143 1197.52,-142.396 1200.09,-141.635 1202.64,-140.779"/>
<polygon fill="midnightblue" stroke="midnightblue" points="1204.1,-143.969 1212.2,-137.142 1201.61,-137.427 1204.1,-143.969"/>
</g>
<!-- Node19 -->
<g id="node20" class="node"><title>Node19</title>
<polygon fill="white" stroke="#bfbfbf" points="568,-118 568,-137 672,-137 672,-118 568,-118"/>
<text text-anchor="middle" x="620" y="-125" font-family="Helvetica,sans-Serif" font-size="10.00">common/variant.hpp</text>
</g>
<!-- Node5&#45;&gt;Node19 -->
<g id="edge21" class="edge"><title>Node5&#45;&gt;Node19</title>
<path fill="none" stroke="midnightblue" d="M620,-179.475C620,-171.08 620,-157.981 620,-147.163"/>
<polygon fill="midnightblue" stroke="midnightblue" points="623.5,-147.009 620,-137.009 616.5,-147.009 623.5,-147.009"/>
</g>
<!-- Node5&#45;&gt;Node20 -->
<g id="edge22" class="edge"><title>Node5&#45;&gt;Node20</title>
<path fill="none" stroke="midnightblue" d="M577.971,-182.402C520.964,-174.676 415.72,-159.943 316.15,-143.153"/>
<polygon fill="midnightblue" stroke="midnightblue" points="316.669,-139.691 306.224,-141.469 315.498,-146.592 316.669,-139.691"/>
</g>
<!-- Node21 -->
<g id="node22" class="node"><title>Node21</title>
<g id="a_node22"><a xlink:href="_n_f_platform_8h.html" target="_top" xlink:title="NFPlatform.h">
<polygon fill="white" stroke="black" points="604,-56.5 604,-75.5 678,-75.5 678,-56.5 604,-56.5"/>
<text text-anchor="middle" x="641" y="-63.5" font-family="Helvetica,sans-Serif" font-size="10.00">NFPlatform.h</text>
</a>
</g>
</g>
<!-- Node5&#45;&gt;Node21 -->
<g id="edge32" class="edge"><title>Node5&#45;&gt;Node21</title>
<path fill="none" stroke="midnightblue" d="M577.955,-185.557C548.326,-181.378 510.572,-170.557 491,-143 483.022,-131.767 482.776,-123.054 491,-112 514.386,-80.5689 558.968,-70.2639 593.476,-67.2607"/>
<polygon fill="midnightblue" stroke="midnightblue" points="594.092,-70.7267 603.828,-66.5478 593.611,-63.7433 594.092,-70.7267"/>
</g>
<!-- Node27 -->
<g id="node28" class="node"><title>Node27</title>
<g id="a_node28"><a xlink:href="_vector3_8hpp.html" target="_top" xlink:title="Math/Vector3.hpp">
<polygon fill="white" stroke="black" points="690,-118 690,-137 784,-137 784,-118 690,-118"/>
<text text-anchor="middle" x="737" y="-125" font-family="Helvetica,sans-Serif" font-size="10.00">Math/Vector3.hpp</text>
</a>
</g>
</g>
<!-- Node5&#45;&gt;Node27 -->
<g id="edge33" class="edge"><title>Node5&#45;&gt;Node27</title>
<path fill="none" stroke="midnightblue" d="M636.763,-179.475C656.225,-169.578 688.545,-153.142 711.211,-141.615"/>
<polygon fill="midnightblue" stroke="midnightblue" points="712.941,-144.662 720.268,-137.009 709.768,-138.422 712.941,-144.662"/>
</g>
<!-- Node20&#45;&gt;Node8 -->
<g id="edge29" class="edge"><title>Node20&#45;&gt;Node8</title>
<path fill="none" stroke="midnightblue" d="M306.181,-113.239C309.156,-112.79 312.106,-112.373 315,-112 560.372,-80.3359 858.302,-70.423 961.61,-67.8156"/>
<polygon fill="midnightblue" stroke="midnightblue" points="961.924,-71.309 971.836,-67.5655 961.753,-64.3111 961.924,-71.309"/>
</g>
<!-- Node20&#45;&gt;Node9 -->
<g id="edge31" class="edge"><title>Node20&#45;&gt;Node9</title>
<path fill="none" stroke="midnightblue" d="M221.041,-112.399C208.577,-103.129 192.303,-91.0254 179.693,-81.6469"/>
<polygon fill="midnightblue" stroke="midnightblue" points="181.753,-78.8173 171.641,-75.6578 177.576,-84.4341 181.753,-78.8173"/>
</g>
<!-- Node20&#45;&gt;Node21 -->
<g id="edge23" class="edge"><title>Node20&#45;&gt;Node21</title>
<path fill="none" stroke="midnightblue" d="M306.219,-113.497C309.184,-112.978 312.122,-112.477 315,-112 413.779,-95.6459 530.086,-80.5949 593.634,-72.7265"/>
<polygon fill="midnightblue" stroke="midnightblue" points="594.248,-76.1774 603.745,-71.4802 593.392,-69.23 594.248,-76.1774"/>
</g>
<!-- Node26 -->
<g id="node27" class="node"><title>Node26</title>
<polygon fill="white" stroke="#bfbfbf" points="217,-56.5 217,-75.5 263,-75.5 263,-56.5 217,-56.5"/>
<text text-anchor="middle" x="240" y="-63.5" font-family="Helvetica,sans-Serif" font-size="10.00">stdio.h</text>
</g>
<!-- Node20&#45;&gt;Node26 -->
<g id="edge30" class="edge"><title>Node20&#45;&gt;Node26</title>
<path fill="none" stroke="midnightblue" d="M240,-112.399C240,-104.466 240,-94.458 240,-85.8583"/>
<polygon fill="midnightblue" stroke="midnightblue" points="243.5,-85.6577 240,-75.6578 236.5,-85.6578 243.5,-85.6577"/>
</g>
<!-- Node21&#45;&gt;Node6 -->
<g id="edge28" class="edge"><title>Node21&#45;&gt;Node6</title>
<path fill="none" stroke="midnightblue" d="M678.014,-60.1603C758.594,-49.6246 948.637,-24.7763 1023.21,-15.0264"/>
<polygon fill="midnightblue" stroke="midnightblue" points="1023.88,-18.4679 1033.34,-13.7009 1022.97,-11.527 1023.88,-18.4679"/>
</g>
<!-- Node22 -->
<g id="node23" class="node"><title>Node22</title>
<polygon fill="white" stroke="#bfbfbf" points="518.5,-0.5 518.5,-19.5 567.5,-19.5 567.5,-0.5 518.5,-0.5"/>
<text text-anchor="middle" x="543" y="-7.5" font-family="Helvetica,sans-Serif" font-size="10.00">stdint.h</text>
</g>
<!-- Node21&#45;&gt;Node22 -->
<g id="edge24" class="edge"><title>Node21&#45;&gt;Node22</title>
<path fill="none" stroke="midnightblue" d="M625.255,-56.324C609.681,-47.7428 585.623,-34.486 567.541,-24.5224"/>
<polygon fill="midnightblue" stroke="midnightblue" points="569.154,-21.4152 558.706,-19.6545 565.776,-27.546 569.154,-21.4152"/>
</g>
<!-- Node23 -->
<g id="node24" class="node"><title>Node23</title>
<polygon fill="white" stroke="#bfbfbf" points="586,-0.5 586,-19.5 630,-19.5 630,-0.5 586,-0.5"/>
<text text-anchor="middle" x="608" y="-7.5" font-family="Helvetica,sans-Serif" font-size="10.00">time.h</text>
</g>
<!-- Node21&#45;&gt;Node23 -->
<g id="edge25" class="edge"><title>Node21&#45;&gt;Node23</title>
<path fill="none" stroke="midnightblue" d="M635.551,-56.083C630.986,-48.6127 624.332,-37.7244 618.707,-28.5199"/>
<polygon fill="midnightblue" stroke="midnightblue" points="621.549,-26.4588 613.348,-19.7511 615.576,-30.109 621.549,-26.4588"/>
</g>
<!-- Node24 -->
<g id="node25" class="node"><title>Node24</title>
<polygon fill="white" stroke="#bfbfbf" points="648,-0.5 648,-19.5 700,-19.5 700,-0.5 648,-0.5"/>
<text text-anchor="middle" x="674" y="-7.5" font-family="Helvetica,sans-Serif" font-size="10.00">sstream</text>
</g>
<!-- Node21&#45;&gt;Node24 -->
<g id="edge26" class="edge"><title>Node21&#45;&gt;Node24</title>
<path fill="none" stroke="midnightblue" d="M646.449,-56.083C651.014,-48.6127 657.668,-37.7244 663.293,-28.5199"/>
<polygon fill="midnightblue" stroke="midnightblue" points="666.424,-30.109 668.652,-19.7511 660.451,-26.4588 666.424,-30.109"/>
</g>
<!-- Node25 -->
<g id="node26" class="node"><title>Node25</title>
<polygon fill="white" stroke="#bfbfbf" points="718,-0.5 718,-19.5 846,-19.5 846,-0.5 718,-0.5"/>
<text text-anchor="middle" x="782" y="-7.5" font-family="Helvetica,sans-Serif" font-size="10.00">common/lexical_cast.hpp</text>
</g>
<!-- Node21&#45;&gt;Node25 -->
<g id="edge27" class="edge"><title>Node21&#45;&gt;Node25</title>
<path fill="none" stroke="midnightblue" d="M663.342,-56.4435C686.753,-47.4776 723.736,-33.314 750.19,-23.1827"/>
<polygon fill="midnightblue" stroke="midnightblue" points="751.676,-26.3615 759.763,-19.5164 749.172,-19.8245 751.676,-26.3615"/>
</g>
<!-- Node28&#45;&gt;Node6 -->
<g id="edge40" class="edge"><title>Node28&#45;&gt;Node6</title>
<path fill="none" stroke="midnightblue" d="M1293.13,-183.124C1317.13,-177.72 1347.61,-166.431 1363,-143 1370.56,-131.485 1371.09,-123.154 1363,-112 1297.69,-21.9479 1149.78,-10.691 1085.18,-10.2782"/>
<polygon fill="midnightblue" stroke="midnightblue" points="1084.82,-6.77894 1074.83,-10.3023 1084.84,-13.7789 1084.82,-6.77894"/>
</g>
<!-- Node28&#45;&gt;Node8 -->
<g id="edge41" class="edge"><title>Node28&#45;&gt;Node8</title>
<path fill="none" stroke="midnightblue" d="M1293.13,-179.751C1312.25,-173.193 1334.51,-161.884 1346,-143 1353.16,-131.231 1355.09,-122.35 1346,-112 1325.77,-88.9742 1121.75,-74.2845 1036.32,-69.0989"/>
<polygon fill="midnightblue" stroke="midnightblue" points="1036.46,-65.6012 1026.27,-68.4997 1036.04,-72.5888 1036.46,-65.6012"/>
</g>
<!-- Node28&#45;&gt;Node11 -->
<g id="edge39" class="edge"><title>Node28&#45;&gt;Node11</title>
<path fill="none" stroke="midnightblue" d="M1263.3,-179.475C1267.66,-170.815 1274.56,-157.149 1280.1,-146.145"/>
<polygon fill="midnightblue" stroke="midnightblue" points="1283.33,-147.514 1284.71,-137.009 1277.08,-144.363 1283.33,-147.514"/>
</g>
<!-- Node28&#45;&gt;Node12 -->
<g id="edge38" class="edge"><title>Node28&#45;&gt;Node12</title>
<path fill="none" stroke="midnightblue" d="M1229.38,-179.431C1202.27,-171.233 1161.3,-157.935 1127,-143 1126,-142.565 1124.99,-142.106 1123.97,-141.63"/>
<polygon fill="midnightblue" stroke="midnightblue" points="1125.43,-138.445 1114.92,-137.076 1122.28,-144.698 1125.43,-138.445"/>
</g>
<!-- Node28&#45;&gt;Node15 -->
<g id="edge42" class="edge"><title>Node28&#45;&gt;Node15</title>
<path fill="none" stroke="midnightblue" d="M1244.96,-179.475C1228.95,-169.755 1202.55,-153.727 1183.63,-142.237"/>
<polygon fill="midnightblue" stroke="midnightblue" points="1185.38,-139.207 1175.01,-137.009 1181.75,-145.191 1185.38,-139.207"/>
</g>
<!-- Node28&#45;&gt;Node18 -->
<g id="edge43" class="edge"><title>Node28&#45;&gt;Node18</title>
<path fill="none" stroke="midnightblue" d="M1254.85,-179.475C1250.62,-170.815 1243.96,-157.149 1238.6,-146.145"/>
<polygon fill="midnightblue" stroke="midnightblue" points="1241.67,-144.465 1234.15,-137.009 1235.38,-147.532 1241.67,-144.465"/>
</g>
<!-- Node28&#45;&gt;Node21 -->
<g id="edge44" class="edge"><title>Node28&#45;&gt;Node21</title>
<path fill="none" stroke="midnightblue" d="M1272.81,-179.466C1294.92,-164.794 1333.79,-134.224 1313,-112 1291.67,-89.1963 838.004,-73.1154 688.392,-68.4164"/>
<polygon fill="midnightblue" stroke="midnightblue" points="688.26,-64.9107 678.156,-68.0978 688.042,-71.9073 688.26,-64.9107"/>
</g>
</g>
</svg>
