<?xml version="1.0" encoding="UTF-8" standalone="no"?>
<!DOCTYPE svg PUBLIC "-//W3C//DTD SVG 1.1//EN"
 "http://www.w3.org/Graphics/SVG/1.1/DTD/svg11.dtd">
<!-- Generated by graphviz version 2.38.0 (20140413.2041)
 -->
<!-- Title: Tutorial2.cpp Pages: 1 -->
<!--zoomable 654 -->
<svg id="main" version="1.1" xmlns="http://www.w3.org/2000/svg" xmlns:xlink="http://www.w3.org/1999/xlink" xml:space="preserve" onload="init(evt)">
<style type="text/css"><![CDATA[
.edge:hover path { stroke: red; }
.edge:hover polygon { stroke: red; fill: red; }
]]></style>
<script type="text/javascript"><![CDATA[
var edges = document.getElementsByTagName('g');
if (edges && edges.length) {
  for (var i=0;i<edges.length;i++) {
    if (edges[i].id.substr(0,4)=='edge') {
      edges[i].setAttribute('class','edge');
    }
  }
}
]]></script>
        <defs>
                <circle id="rim" cx="0" cy="0" r="7"/>
                <circle id="rim2" cx="0" cy="0" r="3.5"/>
                <g id="zoomPlus">
                        <use xlink:href="#rim" fill="#404040">
                                <set attributeName="fill" to="#808080" begin="zoomplus.mouseover" end="zoomplus.mouseout"/>
                        </use>
                        <path d="M-4,0h8M0,-4v8" fill="none" stroke="white" stroke-width="1.5" pointer-events="none"/>
                </g>
                <g id="zoomMin">
                        <use xlink:href="#rim" fill="#404040">
                                <set attributeName="fill" to="#808080" begin="zoomminus.mouseover" end="zoomminus.mouseout"/>
                        </use>
                        <path d="M-4,0h8" fill="none" stroke="white" stroke-width="1.5" pointer-events="none"/>
                </g>
                <g id="dirArrow">
                        <path fill="none" stroke="white" stroke-width="1.5" d="M0,-3.0v7 M-2.5,-0.5L0,-3.0L2.5,-0.5"/>
                </g>
               <g id="resetDef">
                       <use xlink:href="#rim2" fill="#404040">
                               <set attributeName="fill" to="#808080" begin="reset.mouseover" end="reset.mouseout"/>
                       </use>
               </g>
        </defs>

<script type="text/javascript">
var viewWidth = 1697;
var viewHeight = 654;
var sectionId = 'dynsection-0';
</script>
<script xlink:href="svgpan.js"/>
<svg id="graph" class="graph">
<g id="viewport">
<title>Tutorial2.cpp</title>
<polygon fill="white" stroke="none" points="-4,4 -4,-650 1692.65,-650 1692.65,4 -4,4"/>
<!-- Node0 -->
<g id="node1" class="node"><title>Node0</title>
<polygon fill="#bfbfbf" stroke="black" points="683,-626.5 683,-645.5 755,-645.5 755,-626.5 683,-626.5"/>
<text text-anchor="middle" x="719" y="-633.5" font-family="Helvetica,sans-Serif" font-size="10.00">Tutorial2.cpp</text>
</g>
<!-- Node1 -->
<g id="node2" class="node"><title>Node1</title>
<g id="a_node2"><a xlink:href="_tutorial2_8h.html" target="_top" xlink:title="Tutorial2.h">
<polygon fill="white" stroke="black" points="732,-570.5 732,-589.5 794,-589.5 794,-570.5 732,-570.5"/>
<text text-anchor="middle" x="763" y="-577.5" font-family="Helvetica,sans-Serif" font-size="10.00">Tutorial2.h</text>
</a>
</g>
</g>
<!-- Node0&#45;&gt;Node1 -->
<g id="edge1" class="edge"><title>Node0&#45;&gt;Node1</title>
<path fill="none" stroke="midnightblue" d="M726.266,-626.083C732.545,-618.377 741.788,-607.033 749.431,-597.653"/>
<polygon fill="midnightblue" stroke="midnightblue" points="752.266,-599.714 755.869,-589.751 746.839,-595.293 752.266,-599.714"/>
</g>
<!-- Node36 -->
<g id="node37" class="node"><title>Node36</title>
<g id="a_node37"><a xlink:href="_hello_world2_8h.html" target="_top" xlink:title="HelloWorld2.h">
<polygon fill="white" stroke="black" points="636.5,-570.5 636.5,-589.5 713.5,-589.5 713.5,-570.5 636.5,-570.5"/>
<text text-anchor="middle" x="675" y="-577.5" font-family="Helvetica,sans-Serif" font-size="10.00">HelloWorld2.h</text>
</a>
</g>
</g>
<!-- Node0&#45;&gt;Node36 -->
<g id="edge70" class="edge"><title>Node0&#45;&gt;Node36</title>
<path fill="none" stroke="midnightblue" d="M711.734,-626.083C705.455,-618.377 696.212,-607.033 688.569,-597.653"/>
<polygon fill="midnightblue" stroke="midnightblue" points="691.161,-595.293 682.131,-589.751 685.734,-599.714 691.161,-595.293"/>
</g>
<!-- Node2 -->
<g id="node3" class="node"><title>Node2</title>
<g id="a_node3"><a xlink:href="_n_f_i_plugin_8h.html" target="_top" xlink:title="NFComm/NFPluginModule\l/NFIPlugin.h">
<polygon fill="white" stroke="black" points="587,-503.5 587,-533.5 719,-533.5 719,-503.5 587,-503.5"/>
<text text-anchor="start" x="595" y="-521.5" font-family="Helvetica,sans-Serif" font-size="10.00">NFComm/NFPluginModule</text>
<text text-anchor="middle" x="653" y="-510.5" font-family="Helvetica,sans-Serif" font-size="10.00">/NFIPlugin.h</text>
</a>
</g>
</g>
<!-- Node1&#45;&gt;Node2 -->
<g id="edge2" class="edge"><title>Node1&#45;&gt;Node2</title>
<path fill="none" stroke="midnightblue" d="M747.24,-570.475C731.785,-562.115 707.705,-549.09 687.755,-538.299"/>
<polygon fill="midnightblue" stroke="midnightblue" points="689.386,-535.202 678.925,-533.523 686.055,-541.359 689.386,-535.202"/>
</g>
<!-- Node35 -->
<g id="node36" class="node"><title>Node35</title>
<g id="a_node36"><a xlink:href="_n_f_i_plugin_manager_8h.html" target="_top" xlink:title="NFComm/NFPluginModule\l/NFIPluginManager.h">
<polygon fill="white" stroke="black" points="719,-436.5 719,-466.5 851,-466.5 851,-436.5 719,-436.5"/>
<text text-anchor="start" x="727" y="-454.5" font-family="Helvetica,sans-Serif" font-size="10.00">NFComm/NFPluginModule</text>
<text text-anchor="middle" x="785" y="-443.5" font-family="Helvetica,sans-Serif" font-size="10.00">/NFIPluginManager.h</text>
</a>
</g>
</g>
<!-- Node1&#45;&gt;Node35 -->
<g id="edge69" class="edge"><title>Node1&#45;&gt;Node35</title>
<path fill="none" stroke="midnightblue" d="M764.512,-570.305C767.818,-551.298 775.788,-505.47 780.756,-476.9"/>
<polygon fill="midnightblue" stroke="midnightblue" points="784.232,-477.34 782.498,-466.888 777.336,-476.14 784.232,-477.34"/>
</g>
<!-- Node3 -->
<g id="node4" class="node"><title>Node3</title>
<polygon fill="white" stroke="#bfbfbf" points="271,-62 271,-81 325,-81 325,-62 271,-62"/>
<text text-anchor="middle" x="298" y="-69" font-family="Helvetica,sans-Serif" font-size="10.00">iostream</text>
</g>
<!-- Node2&#45;&gt;Node3 -->
<g id="edge3" class="edge"><title>Node2&#45;&gt;Node3</title>
<path fill="none" stroke="midnightblue" d="M586.892,-517.156C428.053,-514.55 38,-496.818 38,-385.5 38,-385.5 38,-385.5 38,-255 38,-147.507 188.723,-97.9047 260.653,-80.3532"/>
<polygon fill="midnightblue" stroke="midnightblue" points="261.736,-83.6939 270.667,-77.9932 260.131,-76.8806 261.736,-83.6939"/>
</g>
<!-- Node4 -->
<g id="node5" class="node"><title>Node4</title>
<polygon fill="white" stroke="#bfbfbf" points="218,-129 218,-148 270,-148 270,-129 218,-129"/>
<text text-anchor="middle" x="244" y="-136" font-family="Helvetica,sans-Serif" font-size="10.00">assert.h</text>
</g>
<!-- Node2&#45;&gt;Node4 -->
<g id="edge4" class="edge"><title>Node2&#45;&gt;Node4</title>
<path fill="none" stroke="midnightblue" d="M586.908,-515.145C442.979,-508.216 114,-481.842 114,-385.5 114,-385.5 114,-385.5 114,-255 114,-203.233 172.322,-168.996 210.838,-152.03"/>
<polygon fill="midnightblue" stroke="midnightblue" points="212.31,-155.208 220.156,-148.089 209.583,-148.761 212.31,-155.208"/>
</g>
<!-- Node5 -->
<g id="node6" class="node"><title>Node5</title>
<g id="a_node6"><a xlink:href="_n_f_map_8h.html" target="_top" xlink:title="NFComm/NFCore/NFMap.h">
<polygon fill="white" stroke="black" points="258.5,-246.5 258.5,-265.5 395.5,-265.5 395.5,-246.5 258.5,-246.5"/>
<text text-anchor="middle" x="327" y="-253.5" font-family="Helvetica,sans-Serif" font-size="10.00">NFComm/NFCore/NFMap.h</text>
</a>
</g>
</g>
<!-- Node2&#45;&gt;Node5 -->
<g id="edge5" class="edge"><title>Node2&#45;&gt;Node5</title>
<path fill="none" stroke="midnightblue" d="M630.428,-503.298C584.58,-474.003 478.111,-403.671 398,-333 376.75,-314.254 354.871,-289.93 341.121,-273.912"/>
<polygon fill="midnightblue" stroke="midnightblue" points="343.511,-271.319 334.373,-265.956 338.172,-275.847 343.511,-271.319"/>
</g>
<!-- Node12 -->
<g id="node13" class="node"><title>Node12</title>
<g id="a_node13"><a xlink:href="_n_f_platform_8h.html" target="_top" xlink:title="NFComm/NFPluginModule\l/NFPlatform.h">
<polygon fill="white" stroke="black" points="1075,-56.5 1075,-86.5 1207,-86.5 1207,-56.5 1075,-56.5"/>
<text text-anchor="start" x="1083" y="-74.5" font-family="Helvetica,sans-Serif" font-size="10.00">NFComm/NFPluginModule</text>
<text text-anchor="middle" x="1141" y="-63.5" font-family="Helvetica,sans-Serif" font-size="10.00">/NFPlatform.h</text>
</a>
</g>
</g>
<!-- Node2&#45;&gt;Node12 -->
<g id="edge66" class="edge"><title>Node2&#45;&gt;Node12</title>
<path fill="none" stroke="midnightblue" d="M659.13,-503.469C667.817,-485.217 685.433,-453.592 710,-436 1075.72,-174.12 1411.86,-513.659 1682,-154 1690.27,-142.984 1691.28,-133.185 1682,-123 1666.57,-106.06 1362.8,-85.7376 1217.36,-76.93"/>
<polygon fill="midnightblue" stroke="midnightblue" points="1217.36,-73.4238 1207.17,-76.316 1216.94,-80.4111 1217.36,-73.4238"/>
</g>
<!-- Node17 -->
<g id="node18" class="node"><title>Node17</title>
<g id="a_node18"><a xlink:href="_n_f_i_module_8h.html" target="_top" xlink:title="NFComm/NFPluginModule\l/NFIModule.h">
<polygon fill="white" stroke="black" points="587,-369.5 587,-399.5 719,-399.5 719,-369.5 587,-369.5"/>
<text text-anchor="start" x="595" y="-387.5" font-family="Helvetica,sans-Serif" font-size="10.00">NFComm/NFPluginModule</text>
<text text-anchor="middle" x="653" y="-376.5" font-family="Helvetica,sans-Serif" font-size="10.00">/NFIModule.h</text>
</a>
</g>
</g>
<!-- Node2&#45;&gt;Node17 -->
<g id="edge24" class="edge"><title>Node2&#45;&gt;Node17</title>
<path fill="none" stroke="midnightblue" d="M653,-503.374C653,-481.044 653,-437.313 653,-409.851"/>
<polygon fill="midnightblue" stroke="midnightblue" points="656.5,-409.525 653,-399.525 649.5,-409.525 656.5,-409.525"/>
</g>
<!-- Node2&#45;&gt;Node35 -->
<g id="edge67" class="edge"><title>Node2&#45;&gt;Node35</title>
<path fill="none" stroke="midnightblue" d="M681.642,-503.396C700.842,-493.941 726.332,-481.39 747.194,-471.117"/>
<polygon fill="midnightblue" stroke="midnightblue" points="748.989,-474.134 756.414,-466.577 745.896,-467.854 748.989,-474.134"/>
</g>
<!-- Node5&#45;&gt;Node3 -->
<g id="edge9" class="edge"><title>Node5&#45;&gt;Node3</title>
<path fill="none" stroke="midnightblue" d="M296.796,-246.443C258.649,-233.669 195.615,-205.421 176,-154 171.089,-141.127 168.344,-134.455 176,-123 194.775,-94.9079 232.375,-82.4237 260.898,-76.8871"/>
<polygon fill="midnightblue" stroke="midnightblue" points="261.688,-80.3023 270.943,-75.1456 260.493,-73.4051 261.688,-80.3023"/>
</g>
<!-- Node6 -->
<g id="node7" class="node"><title>Node6</title>
<polygon fill="white" stroke="#bfbfbf" points="502.5,-129 502.5,-148 537.5,-148 537.5,-129 502.5,-129"/>
<text text-anchor="middle" x="520" y="-136" font-family="Helvetica,sans-Serif" font-size="10.00">map</text>
</g>
<!-- Node5&#45;&gt;Node6 -->
<g id="edge6" class="edge"><title>Node5&#45;&gt;Node6</title>
<path fill="none" stroke="midnightblue" d="M352.107,-246.43C373.977,-238.461 406.146,-225.503 432,-210 458.836,-193.908 486.468,-170.426 503.439,-155.056"/>
<polygon fill="midnightblue" stroke="midnightblue" points="505.871,-157.575 510.864,-148.231 501.133,-152.422 505.871,-157.575"/>
</g>
<!-- Node7 -->
<g id="node8" class="node"><title>Node7</title>
<polygon fill="white" stroke="#bfbfbf" points="555.5,-129 555.5,-148 584.5,-148 584.5,-129 555.5,-129"/>
<text text-anchor="middle" x="570" y="-136" font-family="Helvetica,sans-Serif" font-size="10.00">list</text>
</g>
<!-- Node5&#45;&gt;Node7 -->
<g id="edge7" class="edge"><title>Node5&#45;&gt;Node7</title>
<path fill="none" stroke="midnightblue" d="M359.84,-246.463C387.533,-238.683 427.838,-225.98 461,-210 494.22,-193.992 529.504,-169.646 550.641,-154.161"/>
<polygon fill="midnightblue" stroke="midnightblue" points="552.842,-156.886 558.787,-148.117 548.671,-151.265 552.842,-156.886"/>
</g>
<!-- Node8 -->
<g id="node9" class="node"><title>Node8</title>
<polygon fill="white" stroke="#bfbfbf" points="93.5,-0.5 93.5,-19.5 134.5,-19.5 134.5,-0.5 93.5,-0.5"/>
<text text-anchor="middle" x="114" y="-7.5" font-family="Helvetica,sans-Serif" font-size="10.00">string</text>
</g>
<!-- Node5&#45;&gt;Node8 -->
<g id="edge8" class="edge"><title>Node5&#45;&gt;Node8</title>
<path fill="none" stroke="midnightblue" d="M275.662,-246.454C249.741,-240.005 219.177,-228.899 197,-210 140.73,-162.046 121.882,-69.6377 116.206,-29.911"/>
<polygon fill="midnightblue" stroke="midnightblue" points="119.649,-29.2443 114.887,-19.7799 112.708,-30.1481 119.649,-29.2443"/>
</g>
<!-- Node9 -->
<g id="node10" class="node"><title>Node9</title>
<polygon fill="white" stroke="#bfbfbf" points="364,-129 364,-148 414,-148 414,-129 364,-129"/>
<text text-anchor="middle" x="389" y="-136" font-family="Helvetica,sans-Serif" font-size="10.00">typeinfo</text>
</g>
<!-- Node5&#45;&gt;Node9 -->
<g id="edge10" class="edge"><title>Node5&#45;&gt;Node9</title>
<path fill="none" stroke="midnightblue" d="M328.372,-246.139C330.639,-233.193 335.95,-208.624 346,-190 352.852,-177.303 363.298,-164.937 372.177,-155.62"/>
<polygon fill="midnightblue" stroke="midnightblue" points="374.894,-157.852 379.448,-148.286 369.922,-152.924 374.894,-157.852"/>
</g>
<!-- Node10 -->
<g id="node11" class="node"><title>Node10</title>
<g id="a_node11"><a xlink:href="_n_f_map_ex_8h.html" target="_top" xlink:title="NFMapEx.h">
<polygon fill="white" stroke="black" points="355,-190.5 355,-209.5 423,-209.5 423,-190.5 355,-190.5"/>
<text text-anchor="middle" x="389" y="-197.5" font-family="Helvetica,sans-Serif" font-size="10.00">NFMapEx.h</text>
</a>
</g>
</g>
<!-- Node5&#45;&gt;Node10 -->
<g id="edge11" class="edge"><title>Node5&#45;&gt;Node10</title>
<path fill="none" stroke="midnightblue" d="M336.961,-246.324C346.127,-238.341 359.937,-226.313 371.028,-216.653"/>
<polygon fill="midnightblue" stroke="midnightblue" points="373.615,-219.041 378.857,-209.834 369.018,-213.762 373.615,-219.041"/>
</g>
<!-- Node10&#45;&gt;Node3 -->
<g id="edge15" class="edge"><title>Node10&#45;&gt;Node3</title>
<path fill="none" stroke="midnightblue" d="M369.222,-190.352C354.191,-182.812 334.1,-170.496 322,-154 308.331,-135.365 302.404,-109.012 299.862,-91.3688"/>
<polygon fill="midnightblue" stroke="midnightblue" points="303.308,-90.7087 298.633,-81.2009 296.358,-91.5486 303.308,-90.7087"/>
</g>
<!-- Node10&#45;&gt;Node6 -->
<g id="edge12" class="edge"><title>Node10&#45;&gt;Node6</title>
<path fill="none" stroke="midnightblue" d="M410.351,-190.382C431.543,-181.683 464.842,-167.623 493,-154 493.838,-153.594 494.688,-153.177 495.544,-152.75"/>
<polygon fill="midnightblue" stroke="midnightblue" points="497.427,-155.717 504.695,-148.008 494.206,-149.501 497.427,-155.717"/>
</g>
<!-- Node10&#45;&gt;Node7 -->
<g id="edge13" class="edge"><title>Node10&#45;&gt;Node7</title>
<path fill="none" stroke="midnightblue" d="M423.282,-191.931C455.708,-184.609 505.326,-171.741 546,-154 546.703,-153.693 547.41,-153.37 548.118,-153.032"/>
<polygon fill="midnightblue" stroke="midnightblue" points="550.021,-155.981 557.132,-148.127 546.675,-149.833 550.021,-155.981"/>
</g>
<!-- Node10&#45;&gt;Node8 -->
<g id="edge14" class="edge"><title>Node10&#45;&gt;Node8</title>
<path fill="none" stroke="midnightblue" d="M354.795,-197.714C316.156,-194.721 252.947,-185.023 209,-154 163.259,-121.71 133.494,-59.8094 120.888,-29.1411"/>
<polygon fill="midnightblue" stroke="midnightblue" points="124.083,-27.704 117.147,-19.6956 117.575,-30.2818 124.083,-27.704"/>
</g>
<!-- Node10&#45;&gt;Node9 -->
<g id="edge16" class="edge"><title>Node10&#45;&gt;Node9</title>
<path fill="none" stroke="midnightblue" d="M389,-190.475C389,-182.08 389,-168.981 389,-158.163"/>
<polygon fill="midnightblue" stroke="midnightblue" points="392.5,-158.009 389,-148.009 385.5,-158.009 392.5,-158.009"/>
</g>
<!-- Node11 -->
<g id="node12" class="node"><title>Node11</title>
<polygon fill="white" stroke="#bfbfbf" points="432,-129 432,-148 484,-148 484,-129 432,-129"/>
<text text-anchor="middle" x="458" y="-136" font-family="Helvetica,sans-Serif" font-size="10.00">memory</text>
</g>
<!-- Node10&#45;&gt;Node11 -->
<g id="edge17" class="edge"><title>Node10&#45;&gt;Node11</title>
<path fill="none" stroke="midnightblue" d="M398.886,-190.475C409.646,-181.197 427.071,-166.171 440.221,-154.831"/>
<polygon fill="midnightblue" stroke="midnightblue" points="442.845,-157.19 448.132,-148.009 438.273,-151.889 442.845,-157.19"/>
</g>
<!-- Node10&#45;&gt;Node12 -->
<g id="edge18" class="edge"><title>Node10&#45;&gt;Node12</title>
<path fill="none" stroke="midnightblue" d="M379.639,-190.445C364.042,-175.193 336.213,-143.033 355,-123 379.05,-97.3547 871.896,-80.3182 1064.66,-74.6129"/>
<polygon fill="midnightblue" stroke="midnightblue" points="1064.82,-78.1097 1074.72,-74.3175 1064.62,-71.1127 1064.82,-78.1097"/>
</g>
<!-- Node12&#45;&gt;Node8 -->
<g id="edge23" class="edge"><title>Node12&#45;&gt;Node8</title>
<path fill="none" stroke="midnightblue" d="M1074.8,-66.6647C875.493,-55.1176 286.11,-20.9713 144.735,-12.7807"/>
<polygon fill="midnightblue" stroke="midnightblue" points="144.799,-9.27856 134.613,-12.1942 144.394,-16.2668 144.799,-9.27856"/>
</g>
<!-- Node13 -->
<g id="node14" class="node"><title>Node13</title>
<polygon fill="white" stroke="#bfbfbf" points="1277.5,-0.5 1277.5,-19.5 1326.5,-19.5 1326.5,-0.5 1277.5,-0.5"/>
<text text-anchor="middle" x="1302" y="-7.5" font-family="Helvetica,sans-Serif" font-size="10.00">stdint.h</text>
</g>
<!-- Node12&#45;&gt;Node13 -->
<g id="edge19" class="edge"><title>Node12&#45;&gt;Node13</title>
<path fill="none" stroke="midnightblue" d="M1179.15,-56.3993C1206.53,-46.2826 1243.04,-32.7905 1269.13,-23.1493"/>
<polygon fill="midnightblue" stroke="midnightblue" points="1270.41,-26.4073 1278.57,-19.6578 1267.98,-19.8414 1270.41,-26.4073"/>
</g>
<!-- Node14 -->
<g id="node15" class="node"><title>Node14</title>
<polygon fill="white" stroke="#bfbfbf" points="999,-0.5 999,-19.5 1043,-19.5 1043,-0.5 999,-0.5"/>
<text text-anchor="middle" x="1021" y="-7.5" font-family="Helvetica,sans-Serif" font-size="10.00">time.h</text>
</g>
<!-- Node12&#45;&gt;Node14 -->
<g id="edge20" class="edge"><title>Node12&#45;&gt;Node14</title>
<path fill="none" stroke="midnightblue" d="M1112.56,-56.3993C1092.88,-46.6391 1066.86,-33.7373 1047.59,-24.1826"/>
<polygon fill="midnightblue" stroke="midnightblue" points="1048.98,-20.9644 1038.46,-19.6578 1045.87,-27.2358 1048.98,-20.9644"/>
</g>
<!-- Node15 -->
<g id="node16" class="node"><title>Node15</title>
<polygon fill="white" stroke="#bfbfbf" points="1061,-0.5 1061,-19.5 1113,-19.5 1113,-0.5 1061,-0.5"/>
<text text-anchor="middle" x="1087" y="-7.5" font-family="Helvetica,sans-Serif" font-size="10.00">sstream</text>
</g>
<!-- Node12&#45;&gt;Node15 -->
<g id="edge21" class="edge"><title>Node12&#45;&gt;Node15</title>
<path fill="none" stroke="midnightblue" d="M1128.2,-56.3993C1120.28,-47.6641 1110.06,-36.4126 1101.79,-27.2962"/>
<polygon fill="midnightblue" stroke="midnightblue" points="1104.17,-24.7106 1094.86,-19.6578 1098.99,-29.415 1104.17,-24.7106"/>
</g>
<!-- Node16 -->
<g id="node17" class="node"><title>Node16</title>
<polygon fill="white" stroke="#bfbfbf" points="1131,-0.5 1131,-19.5 1259,-19.5 1259,-0.5 1131,-0.5"/>
<text text-anchor="middle" x="1195" y="-7.5" font-family="Helvetica,sans-Serif" font-size="10.00">common/lexical_cast.hpp</text>
</g>
<!-- Node12&#45;&gt;Node16 -->
<g id="edge22" class="edge"><title>Node12&#45;&gt;Node16</title>
<path fill="none" stroke="midnightblue" d="M1153.8,-56.3993C1161.72,-47.6641 1171.94,-36.4126 1180.21,-27.2962"/>
<polygon fill="midnightblue" stroke="midnightblue" points="1183.01,-29.415 1187.14,-19.6578 1177.83,-24.7106 1183.01,-29.415"/>
</g>
<!-- Node17&#45;&gt;Node5 -->
<g id="edge26" class="edge"><title>Node17&#45;&gt;Node5</title>
<path fill="none" stroke="midnightblue" d="M586.612,-370.143C549.513,-361.624 502.862,-349.139 463,-333 420.575,-315.824 374.814,-288.148 348.664,-271.358"/>
<polygon fill="midnightblue" stroke="midnightblue" points="350.252,-268.216 339.959,-265.704 346.439,-274.087 350.252,-268.216"/>
</g>
<!-- Node17&#45;&gt;Node8 -->
<g id="edge25" class="edge"><title>Node17&#45;&gt;Node8</title>
<path fill="none" stroke="midnightblue" d="M586.793,-379.116C420.782,-366.318 0,-321.949 0,-201 0,-201 0,-201 0,-137.5 0,-85.0747 54.6991,-44.5813 88.3185,-24.6442"/>
<polygon fill="midnightblue" stroke="midnightblue" points="90.2384,-27.5782 97.1789,-19.5732 86.7613,-21.5028 90.2384,-27.5782"/>
</g>
<!-- Node18 -->
<g id="node19" class="node"><title>Node18</title>
<g id="a_node19"><a xlink:href="_n_f_list_8h.html" target="_top" xlink:title="NFComm/NFCore/NFList.h">
<polygon fill="white" stroke="black" points="565,-190.5 565,-209.5 699,-209.5 699,-190.5 565,-190.5"/>
<text text-anchor="middle" x="632" y="-197.5" font-family="Helvetica,sans-Serif" font-size="10.00">NFComm/NFCore/NFList.h</text>
</a>
</g>
</g>
<!-- Node17&#45;&gt;Node18 -->
<g id="edge27" class="edge"><title>Node17&#45;&gt;Node18</title>
<path fill="none" stroke="midnightblue" d="M651.387,-369.483C647.66,-337.097 638.448,-257.037 634.205,-220.159"/>
<polygon fill="midnightblue" stroke="midnightblue" points="637.635,-219.353 633.015,-209.819 630.681,-220.153 637.635,-219.353"/>
</g>
<!-- Node20 -->
<g id="node21" class="node"><title>Node20</title>
<g id="a_node21"><a xlink:href="_n_f_define_8h.html" target="_top" xlink:title="NFComm/NFCore/NFDefine.h">
<polygon fill="white" stroke="black" points="835.5,-246.5 835.5,-265.5 980.5,-265.5 980.5,-246.5 835.5,-246.5"/>
<text text-anchor="middle" x="908" y="-253.5" font-family="Helvetica,sans-Serif" font-size="10.00">NFComm/NFCore/NFDefine.h</text>
</a>
</g>
</g>
<!-- Node17&#45;&gt;Node20 -->
<g id="edge33" class="edge"><title>Node17&#45;&gt;Node20</title>
<path fill="none" stroke="midnightblue" d="M719.18,-377.011C779.968,-369.716 864.125,-355.809 888,-333 903.457,-318.233 907.485,-293.074 908.284,-275.774"/>
<polygon fill="midnightblue" stroke="midnightblue" points="911.785,-275.779 908.431,-265.729 904.785,-275.677 911.785,-275.779"/>
</g>
<!-- Node22 -->
<g id="node23" class="node"><title>Node22</title>
<g id="a_node23"><a xlink:href="_a_f_data_list_8hpp.html" target="_top" xlink:title="AFDataList.hpp">
<polygon fill="white" stroke="black" points="828,-190.5 828,-209.5 912,-209.5 912,-190.5 828,-190.5"/>
<text text-anchor="middle" x="870" y="-197.5" font-family="Helvetica,sans-Serif" font-size="10.00">AFDataList.hpp</text>
</a>
</g>
</g>
<!-- Node17&#45;&gt;Node22 -->
<g id="edge60" class="edge"><title>Node17&#45;&gt;Node22</title>
<path fill="none" stroke="midnightblue" d="M662.391,-369.454C674.282,-352.302 696.005,-322.989 719,-302 759.11,-265.389 813.576,-232.335 844.94,-214.616"/>
<polygon fill="midnightblue" stroke="midnightblue" points="846.863,-217.551 853.891,-209.623 843.453,-211.438 846.863,-217.551"/>
</g>
<!-- Node33 -->
<g id="node34" class="node"><title>Node33</title>
<g id="a_node34"><a xlink:href="_n_f_i_record_8h.html" target="_top" xlink:title="NFComm/NFCore/NFIRecord.h">
<polygon fill="white" stroke="black" points="728.5,-308 728.5,-327 879.5,-327 879.5,-308 728.5,-308"/>
<text text-anchor="middle" x="804" y="-315" font-family="Helvetica,sans-Serif" font-size="10.00">NFComm/NFCore/NFIRecord.h</text>
</a>
</g>
</g>
<!-- Node17&#45;&gt;Node33 -->
<g id="edge61" class="edge"><title>Node17&#45;&gt;Node33</title>
<path fill="none" stroke="midnightblue" d="M685.765,-369.396C712.259,-357.991 749.223,-342.079 774.735,-331.098"/>
<polygon fill="midnightblue" stroke="midnightblue" points="776.436,-334.176 784.238,-327.007 773.669,-327.746 776.436,-334.176"/>
</g>
<!-- Node34 -->
<g id="node35" class="node"><title>Node34</title>
<g id="a_node35"><a xlink:href="_n_f_event_define_8h.html" target="_top" xlink:title="NFComm/NFEventDefine\l/NFEventDefine.h">
<polygon fill="white" stroke="black" points="472.5,-302.5 472.5,-332.5 597.5,-332.5 597.5,-302.5 472.5,-302.5"/>
<text text-anchor="start" x="480.5" y="-320.5" font-family="Helvetica,sans-Serif" font-size="10.00">NFComm/NFEventDefine</text>
<text text-anchor="middle" x="535" y="-309.5" font-family="Helvetica,sans-Serif" font-size="10.00">/NFEventDefine.h</text>
</a>
</g>
</g>
<!-- Node17&#45;&gt;Node34 -->
<g id="edge64" class="edge"><title>Node17&#45;&gt;Node34</title>
<path fill="none" stroke="midnightblue" d="M627.396,-369.396C610.464,-360.069 588.06,-347.728 569.555,-337.534"/>
<polygon fill="midnightblue" stroke="midnightblue" points="571.002,-334.336 560.554,-332.577 567.625,-340.467 571.002,-334.336"/>
</g>
<!-- Node18&#45;&gt;Node3 -->
<g id="edge28" class="edge"><title>Node18&#45;&gt;Node3</title>
<path fill="none" stroke="midnightblue" d="M630.21,-190.284C626.415,-174.173 615.956,-139.847 593,-123 552.558,-93.3199 405.299,-79.6831 335.364,-74.7731"/>
<polygon fill="midnightblue" stroke="midnightblue" points="335.444,-71.2706 325.23,-74.085 334.97,-78.2545 335.444,-71.2706"/>
</g>
<!-- Node18&#45;&gt;Node6 -->
<g id="edge29" class="edge"><title>Node18&#45;&gt;Node6</title>
<path fill="none" stroke="midnightblue" d="M615.121,-190.337C597.73,-181.371 569.868,-166.897 546,-154 545.335,-153.641 544.661,-153.275 543.982,-152.905"/>
<polygon fill="midnightblue" stroke="midnightblue" points="545.533,-149.764 535.086,-148.002 542.154,-155.894 545.533,-149.764"/>
</g>
<!-- Node18&#45;&gt;Node7 -->
<g id="edge30" class="edge"><title>Node18&#45;&gt;Node7</title>
<path fill="none" stroke="midnightblue" d="M623.117,-190.475C613.541,-181.285 598.089,-166.456 586.314,-155.156"/>
<polygon fill="midnightblue" stroke="midnightblue" points="588.505,-152.408 578.867,-148.009 583.658,-157.458 588.505,-152.408"/>
</g>
<!-- Node18&#45;&gt;Node12 -->
<g id="edge32" class="edge"><title>Node18&#45;&gt;Node12</title>
<path fill="none" stroke="midnightblue" d="M633.575,-190.154C636.993,-173.828 646.736,-139.155 670,-123 732.046,-79.9132 947.585,-72.6596 1064.37,-71.9989"/>
<polygon fill="midnightblue" stroke="midnightblue" points="1064.69,-75.4978 1074.67,-71.9563 1064.66,-68.4978 1064.69,-75.4978"/>
</g>
<!-- Node19 -->
<g id="node20" class="node"><title>Node19</title>
<polygon fill="white" stroke="#bfbfbf" points="679,-129 679,-148 735,-148 735,-129 679,-129"/>
<text text-anchor="middle" x="707" y="-136" font-family="Helvetica,sans-Serif" font-size="10.00">algorithm</text>
</g>
<!-- Node18&#45;&gt;Node19 -->
<g id="edge31" class="edge"><title>Node18&#45;&gt;Node19</title>
<path fill="none" stroke="midnightblue" d="M642.746,-190.475C654.553,-181.108 673.743,-165.884 688.082,-154.508"/>
<polygon fill="midnightblue" stroke="midnightblue" points="690.615,-156.966 696.274,-148.009 686.265,-151.482 690.615,-156.966"/>
</g>
<!-- Node21 -->
<g id="node22" class="node"><title>Node21</title>
<polygon fill="white" stroke="#bfbfbf" points="1615,-129 1615,-148 1673,-148 1673,-129 1615,-129"/>
<text text-anchor="middle" x="1644" y="-136" font-family="Helvetica,sans-Serif" font-size="10.00">functional</text>
</g>
<!-- Node20&#45;&gt;Node21 -->
<g id="edge34" class="edge"><title>Node20&#45;&gt;Node21</title>
<path fill="none" stroke="midnightblue" d="M980.9,-246.744C1105.86,-232.021 1368.7,-198.548 1588,-154 1593.47,-152.888 1599.21,-151.575 1604.84,-150.2"/>
<polygon fill="midnightblue" stroke="midnightblue" points="1605.94,-153.532 1614.78,-147.689 1604.23,-146.745 1605.94,-153.532"/>
</g>
<!-- Node20&#45;&gt;Node22 -->
<g id="edge35" class="edge"><title>Node20&#45;&gt;Node22</title>
<path fill="none" stroke="midnightblue" d="M901.725,-246.083C896.358,-238.455 888.482,-227.264 881.921,-217.941"/>
<polygon fill="midnightblue" stroke="midnightblue" points="884.775,-215.915 876.158,-209.751 879.051,-219.943 884.775,-215.915"/>
</g>
<!-- Node30 -->
<g id="node31" class="node"><title>Node30</title>
<g id="a_node31"><a xlink:href="_n_f_g_u_i_d_8h.html" target="_top" xlink:title="NFComm/NFPluginModule\l/NFGUID.h">
<polygon fill="white" stroke="black" points="1427,-123.5 1427,-153.5 1559,-153.5 1559,-123.5 1427,-123.5"/>
<text text-anchor="start" x="1435" y="-141.5" font-family="Helvetica,sans-Serif" font-size="10.00">NFComm/NFPluginModule</text>
<text text-anchor="middle" x="1493" y="-130.5" font-family="Helvetica,sans-Serif" font-size="10.00">/NFGUID.h</text>
</a>
</g>
</g>
<!-- Node20&#45;&gt;Node30 -->
<g id="edge59" class="edge"><title>Node20&#45;&gt;Node30</title>
<path fill="none" stroke="midnightblue" d="M951.492,-246.413C1050.36,-226.892 1293.02,-178.983 1417.16,-154.473"/>
<polygon fill="midnightblue" stroke="midnightblue" points="1417.85,-157.905 1426.98,-152.534 1416.49,-151.037 1417.85,-157.905"/>
</g>
<!-- Node22&#45;&gt;Node3 -->
<g id="edge38" class="edge"><title>Node22&#45;&gt;Node3</title>
<path fill="none" stroke="midnightblue" d="M852.788,-190.484C835.744,-181.862 809.071,-167.86 787,-154 767.048,-141.471 765.977,-131.491 744,-123 669.547,-94.2343 428.657,-79.1687 335.377,-74.2971"/>
<polygon fill="midnightblue" stroke="midnightblue" points="335.434,-70.7955 325.268,-73.7791 335.075,-77.7864 335.434,-70.7955"/>
</g>
<!-- Node22&#45;&gt;Node4 -->
<g id="edge45" class="edge"><title>Node22&#45;&gt;Node4</title>
<path fill="none" stroke="midnightblue" d="M827.884,-195.933C739.923,-189.392 530.322,-173.102 355,-154 330.095,-151.286 302.127,-147.629 280.495,-144.667"/>
<polygon fill="midnightblue" stroke="midnightblue" points="280.811,-141.177 270.426,-143.275 279.853,-148.111 280.811,-141.177"/>
</g>
<!-- Node22&#45;&gt;Node6 -->
<g id="edge43" class="edge"><title>Node22&#45;&gt;Node6</title>
<path fill="none" stroke="midnightblue" d="M827.963,-198.086C765.072,-195.633 643.462,-186.663 546,-154 544.76,-153.584 543.51,-153.109 542.266,-152.59"/>
<polygon fill="midnightblue" stroke="midnightblue" points="543.569,-149.33 533.056,-148.019 540.457,-155.6 543.569,-149.33"/>
</g>
<!-- Node22&#45;&gt;Node7 -->
<g id="edge41" class="edge"><title>Node22&#45;&gt;Node7</title>
<path fill="none" stroke="midnightblue" d="M827.97,-190.664C764.438,-178.064 645.934,-154.56 594.676,-144.394"/>
<polygon fill="midnightblue" stroke="midnightblue" points="595.293,-140.948 584.803,-142.436 593.931,-147.815 595.293,-140.948"/>
</g>
<!-- Node22&#45;&gt;Node8 -->
<g id="edge36" class="edge"><title>Node22&#45;&gt;Node8</title>
<path fill="none" stroke="midnightblue" d="M860.296,-190.298C838.991,-171.268 789.278,-127.299 780,-123 553.391,-17.9913 242.78,-10.1901 144.859,-10.5309"/>
<polygon fill="midnightblue" stroke="midnightblue" points="144.735,-7.03155 134.759,-10.5989 144.782,-14.0314 144.735,-7.03155"/>
</g>
<!-- Node22&#45;&gt;Node9 -->
<g id="edge46" class="edge"><title>Node22&#45;&gt;Node9</title>
<path fill="none" stroke="midnightblue" d="M827.839,-196.388C731.76,-190.172 499.01,-173.548 423,-154 420.64,-153.393 418.233,-152.647 415.843,-151.817"/>
<polygon fill="midnightblue" stroke="midnightblue" points="416.88,-148.464 406.292,-148.069 414.323,-154.98 416.88,-148.464"/>
</g>
<!-- Node22&#45;&gt;Node11 -->
<g id="edge50" class="edge"><title>Node22&#45;&gt;Node11</title>
<path fill="none" stroke="midnightblue" d="M827.742,-197.716C757.274,-194.745 611.774,-185.061 493,-154 490.55,-153.359 488.046,-152.583 485.558,-151.727"/>
<polygon fill="midnightblue" stroke="midnightblue" points="486.792,-148.452 476.201,-148.146 484.289,-154.99 486.792,-148.452"/>
</g>
<!-- Node22&#45;&gt;Node12 -->
<g id="edge57" class="edge"><title>Node22&#45;&gt;Node12</title>
<path fill="none" stroke="midnightblue" d="M912.088,-198.47C1028.56,-196.571 1348.64,-188.253 1380,-154 1430.98,-98.3288 1305.26,-80.6767 1217.48,-75.0855"/>
<polygon fill="midnightblue" stroke="midnightblue" points="1217.43,-71.5767 1207.24,-74.4764 1217.02,-78.5643 1217.43,-71.5767"/>
</g>
<!-- Node22&#45;&gt;Node19 -->
<g id="edge44" class="edge"><title>Node22&#45;&gt;Node19</title>
<path fill="none" stroke="midnightblue" d="M846.646,-190.475C818.686,-180.269 771.674,-163.108 740.009,-151.549"/>
<polygon fill="midnightblue" stroke="midnightblue" points="740.905,-148.15 730.311,-148.009 738.504,-154.726 740.905,-148.15"/>
</g>
<!-- Node22&#45;&gt;Node21 -->
<g id="edge48" class="edge"><title>Node22&#45;&gt;Node21</title>
<path fill="none" stroke="midnightblue" d="M912.263,-197.861C1047.36,-193.991 1467.64,-180.112 1601,-154 1604.89,-153.238 1608.91,-152.216 1612.86,-151.065"/>
<polygon fill="midnightblue" stroke="midnightblue" points="1613.96,-154.388 1622.43,-148.013 1611.84,-147.719 1613.96,-154.388"/>
</g>
<!-- Node23 -->
<g id="node24" class="node"><title>Node23</title>
<polygon fill="white" stroke="#bfbfbf" points="829,-129 829,-148 875,-148 875,-129 829,-129"/>
<text text-anchor="middle" x="852" y="-136" font-family="Helvetica,sans-Serif" font-size="10.00">cstring</text>
</g>
<!-- Node22&#45;&gt;Node23 -->
<g id="edge37" class="edge"><title>Node22&#45;&gt;Node23</title>
<path fill="none" stroke="midnightblue" d="M867.421,-190.475C864.855,-181.992 860.835,-168.704 857.543,-157.822"/>
<polygon fill="midnightblue" stroke="midnightblue" points="860.82,-156.567 854.574,-148.009 854.12,-158.594 860.82,-156.567"/>
</g>
<!-- Node24 -->
<g id="node25" class="node"><title>Node24</title>
<polygon fill="white" stroke="#bfbfbf" points="1548,-62 1548,-81 1596,-81 1596,-62 1548,-62"/>
<text text-anchor="middle" x="1572" y="-69" font-family="Helvetica,sans-Serif" font-size="10.00">stdlib.h</text>
</g>
<!-- Node22&#45;&gt;Node24 -->
<g id="edge39" class="edge"><title>Node22&#45;&gt;Node24</title>
<path fill="none" stroke="midnightblue" d="M912.428,-199.469C1056.71,-200.637 1521.99,-200.722 1568,-154 1584.04,-137.707 1581.45,-109.559 1577.34,-90.9835"/>
<polygon fill="midnightblue" stroke="midnightblue" points="1580.67,-89.9007 1574.8,-81.0799 1573.89,-91.6354 1580.67,-89.9007"/>
</g>
<!-- Node25 -->
<g id="node26" class="node"><title>Node25</title>
<polygon fill="white" stroke="#bfbfbf" points="893.5,-129 893.5,-148 940.5,-148 940.5,-129 893.5,-129"/>
<text text-anchor="middle" x="917" y="-136" font-family="Helvetica,sans-Serif" font-size="10.00">math.h</text>
</g>
<!-- Node22&#45;&gt;Node25 -->
<g id="edge40" class="edge"><title>Node22&#45;&gt;Node25</title>
<path fill="none" stroke="midnightblue" d="M876.734,-190.475C883.784,-181.55 895.035,-167.307 903.854,-156.143"/>
<polygon fill="midnightblue" stroke="midnightblue" points="906.826,-158.026 910.279,-148.009 901.333,-153.687 906.826,-158.026"/>
</g>
<!-- Node26 -->
<g id="node27" class="node"><title>Node26</title>
<polygon fill="white" stroke="#bfbfbf" points="959,-129 959,-148 1001,-148 1001,-129 959,-129"/>
<text text-anchor="middle" x="980" y="-136" font-family="Helvetica,sans-Serif" font-size="10.00">vector</text>
</g>
<!-- Node22&#45;&gt;Node26 -->
<g id="edge42" class="edge"><title>Node22&#45;&gt;Node26</title>
<path fill="none" stroke="midnightblue" d="M885.76,-190.475C903.976,-180.622 934.173,-164.288 955.468,-152.77"/>
<polygon fill="midnightblue" stroke="midnightblue" points="957.138,-155.845 964.269,-148.009 953.808,-149.688 957.138,-155.845"/>
</g>
<!-- Node27 -->
<g id="node28" class="node"><title>Node27</title>
<polygon fill="white" stroke="#bfbfbf" points="1019,-129 1019,-148 1069,-148 1069,-129 1019,-129"/>
<text text-anchor="middle" x="1044" y="-136" font-family="Helvetica,sans-Serif" font-size="10.00">iomanip</text>
</g>
<!-- Node22&#45;&gt;Node27 -->
<g id="edge47" class="edge"><title>Node22&#45;&gt;Node27</title>
<path fill="none" stroke="midnightblue" d="M899.226,-190.464C927.735,-181.936 972.206,-168.099 1010,-154 1011.65,-153.383 1013.34,-152.732 1015.04,-152.06"/>
<polygon fill="midnightblue" stroke="midnightblue" points="1016.78,-155.129 1024.71,-148.093 1014.13,-148.653 1016.78,-155.129"/>
</g>
<!-- Node28 -->
<g id="node29" class="node"><title>Node28</title>
<polygon fill="white" stroke="#bfbfbf" points="1087.5,-129 1087.5,-148 1136.5,-148 1136.5,-129 1087.5,-129"/>
<text text-anchor="middle" x="1112" y="-136" font-family="Helvetica,sans-Serif" font-size="10.00">fstream</text>
</g>
<!-- Node22&#45;&gt;Node28 -->
<g id="edge49" class="edge"><title>Node22&#45;&gt;Node28</title>
<path fill="none" stroke="midnightblue" d="M912.048,-192.324C954.502,-185.022 1021.67,-171.926 1078,-154 1079.93,-153.387 1081.89,-152.705 1083.86,-151.981"/>
<polygon fill="midnightblue" stroke="midnightblue" points="1085.54,-155.08 1093.54,-148.127 1082.95,-148.577 1085.54,-155.08"/>
</g>
<!-- Node29 -->
<g id="node30" class="node"><title>Node29</title>
<polygon fill="white" stroke="#bfbfbf" points="1155,-129 1155,-148 1259,-148 1259,-129 1155,-129"/>
<text text-anchor="middle" x="1207" y="-136" font-family="Helvetica,sans-Serif" font-size="10.00">common/variant.hpp</text>
</g>
<!-- Node22&#45;&gt;Node29 -->
<g id="edge51" class="edge"><title>Node22&#45;&gt;Node29</title>
<path fill="none" stroke="midnightblue" d="M912.253,-193.074C966.552,-185.237 1063.64,-170.48 1146,-154 1151.47,-152.905 1157.2,-151.668 1162.85,-150.389"/>
<polygon fill="midnightblue" stroke="midnightblue" points="1163.94,-153.729 1172.9,-148.063 1162.36,-146.909 1163.94,-153.729"/>
</g>
<!-- Node22&#45;&gt;Node30 -->
<g id="edge52" class="edge"><title>Node22&#45;&gt;Node30</title>
<path fill="none" stroke="midnightblue" d="M912.046,-196.903C1003.47,-192.039 1227.07,-178.495 1413,-154 1414.26,-153.834 1415.53,-153.662 1416.81,-153.484"/>
<polygon fill="midnightblue" stroke="midnightblue" points="1417.34,-156.943 1426.72,-152.022 1416.32,-150.018 1417.34,-156.943"/>
</g>
<!-- Node32 -->
<g id="node33" class="node"><title>Node32</title>
<g id="a_node33"><a xlink:href="_vector3_8hpp.html" target="_top" xlink:title="Math/Vector3.hpp">
<polygon fill="white" stroke="black" points="1277,-129 1277,-148 1371,-148 1371,-129 1277,-129"/>
<text text-anchor="middle" x="1324" y="-136" font-family="Helvetica,sans-Serif" font-size="10.00">Math/Vector3.hpp</text>
</a>
</g>
</g>
<!-- Node22&#45;&gt;Node32 -->
<g id="edge58" class="edge"><title>Node22&#45;&gt;Node32</title>
<path fill="none" stroke="midnightblue" d="M912.117,-196.197C985.065,-190.906 1139.45,-177.787 1268,-154 1273.37,-153.006 1278.98,-151.781 1284.5,-150.466"/>
<polygon fill="midnightblue" stroke="midnightblue" points="1285.38,-153.853 1294.24,-148.036 1283.69,-147.061 1285.38,-153.853"/>
</g>
<!-- Node30&#45;&gt;Node3 -->
<g id="edge54" class="edge"><title>Node30&#45;&gt;Node3</title>
<path fill="none" stroke="midnightblue" d="M1426.77,-128.09C1411.44,-126.165 1395.17,-124.325 1380,-123 971.473,-87.3147 473.821,-75.7815 335.317,-73.1472"/>
<polygon fill="midnightblue" stroke="midnightblue" points="335.295,-69.6463 325.231,-72.9591 335.164,-76.645 335.295,-69.6463"/>
</g>
<!-- Node30&#45;&gt;Node12 -->
<g id="edge53" class="edge"><title>Node30&#45;&gt;Node12</title>
<path fill="none" stroke="midnightblue" d="M1426.79,-125.274C1367.27,-114.283 1279.86,-98.1421 1217.4,-86.6081"/>
<polygon fill="midnightblue" stroke="midnightblue" points="1217.68,-83.1005 1207.21,-84.7263 1216.41,-89.9841 1217.68,-83.1005"/>
</g>
<!-- Node30&#45;&gt;Node24 -->
<g id="edge56" class="edge"><title>Node30&#45;&gt;Node24</title>
<path fill="none" stroke="midnightblue" d="M1510.14,-123.396C1522.95,-112.86 1540.43,-98.4771 1553.54,-87.6886"/>
<polygon fill="midnightblue" stroke="midnightblue" points="1555.93,-90.251 1561.43,-81.1945 1551.49,-84.8455 1555.93,-90.251"/>
</g>
<!-- Node31 -->
<g id="node32" class="node"><title>Node31</title>
<polygon fill="white" stroke="#bfbfbf" points="1470,-62 1470,-81 1516,-81 1516,-62 1470,-62"/>
<text text-anchor="middle" x="1493" y="-69" font-family="Helvetica,sans-Serif" font-size="10.00">stdio.h</text>
</g>
<!-- Node30&#45;&gt;Node31 -->
<g id="edge55" class="edge"><title>Node30&#45;&gt;Node31</title>
<path fill="none" stroke="midnightblue" d="M1493,-123.396C1493,-114.064 1493,-101.714 1493,-91.5173"/>
<polygon fill="midnightblue" stroke="midnightblue" points="1496.5,-91.1945 1493,-81.1945 1489.5,-91.1946 1496.5,-91.1945"/>
</g>
<!-- Node33&#45;&gt;Node20 -->
<g id="edge62" class="edge"><title>Node33&#45;&gt;Node20</title>
<path fill="none" stroke="midnightblue" d="M818.901,-307.975C835.968,-298.211 864.161,-282.081 884.262,-270.581"/>
<polygon fill="midnightblue" stroke="midnightblue" points="886.185,-273.513 893.127,-265.509 882.709,-267.437 886.185,-273.513"/>
</g>
<!-- Node33&#45;&gt;Node22 -->
<g id="edge63" class="edge"><title>Node33&#45;&gt;Node22</title>
<path fill="none" stroke="midnightblue" d="M805.372,-307.714C807.831,-293.814 813.905,-266.255 826,-246 832.691,-234.795 842.716,-224.251 851.508,-216.189"/>
<polygon fill="midnightblue" stroke="midnightblue" points="853.887,-218.757 859.104,-209.536 849.275,-213.492 853.887,-218.757"/>
</g>
<!-- Node34&#45;&gt;Node3 -->
<g id="edge65" class="edge"><title>Node34&#45;&gt;Node3</title>
<path fill="none" stroke="midnightblue" d="M509.606,-302.318C483.367,-287.786 441.125,-264.731 404,-246 318.445,-202.834 260.306,-234.936 209,-154 201.623,-142.363 202.067,-134.906 209,-123 220.319,-103.563 242.211,-90.9996 261.45,-83.2652"/>
<polygon fill="midnightblue" stroke="midnightblue" points="262.756,-86.5137 270.91,-79.7487 260.317,-79.9524 262.756,-86.5137"/>
</g>
<!-- Node35&#45;&gt;Node17 -->
<g id="edge68" class="edge"><title>Node35&#45;&gt;Node17</title>
<path fill="none" stroke="midnightblue" d="M756.358,-436.396C737.158,-426.941 711.668,-414.39 690.806,-404.117"/>
<polygon fill="midnightblue" stroke="midnightblue" points="692.104,-400.854 681.586,-399.577 689.011,-407.134 692.104,-400.854"/>
</g>
<!-- Node36&#45;&gt;Node2 -->
<g id="edge71" class="edge"><title>Node36&#45;&gt;Node2</title>
<path fill="none" stroke="midnightblue" d="M671.848,-570.475C669.203,-563.32 665.293,-552.748 661.72,-543.084"/>
<polygon fill="midnightblue" stroke="midnightblue" points="664.936,-541.689 658.185,-533.523 658.37,-544.116 664.936,-541.689"/>
</g>
<!-- Node36&#45;&gt;Node35 -->
<g id="edge72" class="edge"><title>Node36&#45;&gt;Node35</title>
<path fill="none" stroke="midnightblue" d="M686.709,-570.465C697.981,-561.938 715.16,-548.102 728,-534 744.674,-515.687 760.557,-492.31 771.302,-475.292"/>
<polygon fill="midnightblue" stroke="midnightblue" points="774.418,-476.908 776.714,-466.565 768.469,-473.218 774.418,-476.908"/>
</g>
</g>
</svg>
        <g id="navigator" transform="translate(0 0)" fill="#404254">
                <rect fill="#f2f5e9" fill-opacity="0.5" stroke="#606060" stroke-width=".5" x="0" y="0" width="60" height="60"/>
                <use id="zoomplus" xlink:href="#zoomPlus" x="17" y="9" onmousedown="handleZoom(evt,'in')"/>
                <use id="zoomminus" xlink:href="#zoomMin" x="42" y="9" onmousedown="handleZoom(evt,'out')"/>
                <use id="reset" xlink:href="#resetDef" x="30" y="36" onmousedown="handleReset()"/>
                <g id="arrowUp" xlink:href="#dirArrow" transform="translate(30 24)" onmousedown="handlePan(0,-1)">
                  <use xlink:href="#rim" fill="#404040">
                        <set attributeName="fill" to="#808080" begin="arrowUp.mouseover" end="arrowUp.mouseout"/>
                  </use>
                  <path fill="none" stroke="white" stroke-width="1.5" d="M0,-3.0v7 M-2.5,-0.5L0,-3.0L2.5,-0.5"/>
                </g>
                <g id="arrowRight" xlink:href="#dirArrow" transform="rotate(90) translate(36 -43)" onmousedown="handlePan(1,0)">
                  <use xlink:href="#rim" fill="#404040">
                        <set attributeName="fill" to="#808080" begin="arrowRight.mouseover" end="arrowRight.mouseout"/>
                  </use>
                  <path fill="none" stroke="white" stroke-width="1.5" d="M0,-3.0v7 M-2.5,-0.5L0,-3.0L2.5,-0.5"/>
                </g>
                <g id="arrowDown" xlink:href="#dirArrow" transform="rotate(180) translate(-30 -48)" onmousedown="handlePan(0,1)">
                  <use xlink:href="#rim" fill="#404040">
                        <set attributeName="fill" to="#808080" begin="arrowDown.mouseover" end="arrowDown.mouseout"/>
                  </use>
                  <path fill="none" stroke="white" stroke-width="1.5" d="M0,-3.0v7 M-2.5,-0.5L0,-3.0L2.5,-0.5"/>
                </g>
                <g id="arrowLeft" xlink:href="#dirArrow" transform="rotate(270) translate(-36 17)" onmousedown="handlePan(-1,0)">
                  <use xlink:href="#rim" fill="#404040">
                        <set attributeName="fill" to="#808080" begin="arrowLeft.mouseover" end="arrowLeft.mouseout"/>
                  </use>
                  <path fill="none" stroke="white" stroke-width="1.5" d="M0,-3.0v7 M-2.5,-0.5L0,-3.0L2.5,-0.5"/>
                </g>
        </g>
        <svg viewBox="0 0 15 15" width="100%" height="30px" preserveAspectRatio="xMaxYMin meet">
         <g id="arrow_out" transform="scale(0.3 0.3)">
          <a xlink:href="_tutorial2_8cpp__incl_org.svg" target="_base">
           <rect id="button" ry="5" rx="5" y="6" x="6" height="38" width="38"
                fill="#f2f5e9" fill-opacity="0.5" stroke="#606060" stroke-width="1.0"/>
           <path id="arrow"
             d="M 11.500037,31.436501 C 11.940474,20.09759 22.043105,11.32322 32.158766,21.979434 L 37.068811,17.246167 C 37.068811,17.246167 37.088388,32 37.088388,32 L 22.160133,31.978069 C 22.160133,31.978069 26.997745,27.140456 26.997745,27.140456 C 18.528582,18.264221 13.291696,25.230495 11.500037,31.436501 z"
             style="fill:#404040;"/>
          </a>
         </g>
        </svg>
</svg>
