<?xml version="1.0" encoding="UTF-8" standalone="no"?>
<!DOCTYPE svg PUBLIC "-//W3C//DTD SVG 1.1//EN"
 "http://www.w3.org/Graphics/SVG/1.1/DTD/svg11.dtd">
<!-- Generated by graphviz version 2.38.0 (20140413.2041)
 -->
<!-- Title: NFCWorldToMasterModule Pages: 1 -->
<svg width="1151pt" height="964pt"
 viewBox="0.00 0.00 1151.00 964.00" xmlns="http://www.w3.org/2000/svg" xmlns:xlink="http://www.w3.org/1999/xlink">
<g id="graph0" class="graph" transform="scale(1 1) rotate(0) translate(4 960)">
<title>NFCWorldToMasterModule</title>
<polygon fill="white" stroke="none" points="-4,4 -4,-960 1147,-960 1147,4 -4,4"/>
<!-- Node3 -->
<g id="node1" class="node"><title>Node3</title>
<polygon fill="#bfbfbf" stroke="black" points="573,-0.5 573,-211.5 722,-211.5 722,-0.5 573,-0.5"/>
<text text-anchor="middle" x="647.5" y="-199.5" font-family="Helvetica,sans-Serif" font-size="10.00">NFCWorldToMasterModule</text>
<polyline fill="none" stroke="black" points="573,-192.5 722,-192.5 "/>
<text text-anchor="middle" x="647.5" y="-180.5" font-family="Helvetica,sans-Serif" font-size="10.00"> </text>
<polyline fill="none" stroke="black" points="573,-173.5 722,-173.5 "/>
<text text-anchor="start" x="581" y="-161.5" font-family="Helvetica,sans-Serif" font-size="10.00">+ NFCWorldToMasterModule()</text>
<text text-anchor="start" x="581" y="-150.5" font-family="Helvetica,sans-Serif" font-size="10.00">+ Init()</text>
<text text-anchor="start" x="581" y="-139.5" font-family="Helvetica,sans-Serif" font-size="10.00">+ BeforeShut()</text>
<text text-anchor="start" x="581" y="-128.5" font-family="Helvetica,sans-Serif" font-size="10.00">+ Shut()</text>
<text text-anchor="start" x="581" y="-117.5" font-family="Helvetica,sans-Serif" font-size="10.00">+ Execute()</text>
<text text-anchor="start" x="581" y="-106.5" font-family="Helvetica,sans-Serif" font-size="10.00">+ AfterInit()</text>
<text text-anchor="start" x="581" y="-95.5" font-family="Helvetica,sans-Serif" font-size="10.00"># OnSocketMSEvent()</text>
<text text-anchor="start" x="581" y="-84.5" font-family="Helvetica,sans-Serif" font-size="10.00"># OnClientDisconnect()</text>
<text text-anchor="start" x="581" y="-73.5" font-family="Helvetica,sans-Serif" font-size="10.00"># OnClientConnected()</text>
<text text-anchor="start" x="581" y="-62.5" font-family="Helvetica,sans-Serif" font-size="10.00"># LogServerInfo()</text>
<text text-anchor="start" x="581" y="-51.5" font-family="Helvetica,sans-Serif" font-size="10.00"># Register()</text>
<text text-anchor="start" x="581" y="-40.5" font-family="Helvetica,sans-Serif" font-size="10.00"># RefreshWorldInfo()</text>
<text text-anchor="start" x="581" y="-29.5" font-family="Helvetica,sans-Serif" font-size="10.00"># OnSelectServerProcess()</text>
<text text-anchor="start" x="581" y="-18.5" font-family="Helvetica,sans-Serif" font-size="10.00"># OnKickClientProcess()</text>
<text text-anchor="start" x="581" y="-7.5" font-family="Helvetica,sans-Serif" font-size="10.00"># InvalidMessage()</text>
</g>
<!-- Node4 -->
<g id="node2" class="node"><title>Node4</title>
<g id="a_node2"><a xlink:href="class_n_f_i_world_to_master_module.html" target="_top" xlink:title="{NFIWorldToMasterModule\n||}">
<polygon fill="white" stroke="black" points="583,-408 583,-465 712,-465 712,-408 583,-408"/>
<text text-anchor="middle" x="647.5" y="-453" font-family="Helvetica,sans-Serif" font-size="10.00">NFIWorldToMasterModule</text>
<polyline fill="none" stroke="black" points="583,-446 712,-446 "/>
<text text-anchor="middle" x="647.5" y="-434" font-family="Helvetica,sans-Serif" font-size="10.00"> </text>
<polyline fill="none" stroke="black" points="583,-427 712,-427 "/>
<text text-anchor="middle" x="647.5" y="-415" font-family="Helvetica,sans-Serif" font-size="10.00"> </text>
</a>
</g>
</g>
<!-- Node4&#45;&gt;Node3 -->
<g id="edge1" class="edge"><title>Node4&#45;&gt;Node3</title>
<path fill="none" stroke="midnightblue" d="M647.5,-397.57C647.5,-352.47 647.5,-275.318 647.5,-211.845"/>
<polygon fill="none" stroke="midnightblue" points="644,-397.775 647.5,-407.775 651,-397.775 644,-397.775"/>
</g>
<!-- Node5 -->
<g id="node3" class="node"><title>Node5</title>
<g id="a_node3"><a xlink:href="class_n_f_i_module.html" target="_top" xlink:title="{NFIModule\n|+ strName\l# mbReloading\l|+ NFIModule()\l+ ~NFIModule()\l+ Init()\l+ AfterInit()\l+ CheckConfig()\l+ BeforeShut()\l+ Shut()\l+ Execute()\l+ StartReLoadState()\l+ EndReLoadState()\l+ GetPluginManager()\l+ Loading()\l}">
<polygon fill="white" stroke="black" points="452.5,-661.5 452.5,-850.5 564.5,-850.5 564.5,-661.5 452.5,-661.5"/>
<text text-anchor="middle" x="508.5" y="-838.5" font-family="Helvetica,sans-Serif" font-size="10.00">NFIModule</text>
<polyline fill="none" stroke="black" points="452.5,-831.5 564.5,-831.5 "/>
<text text-anchor="start" x="460.5" y="-819.5" font-family="Helvetica,sans-Serif" font-size="10.00">+ strName</text>
<text text-anchor="start" x="460.5" y="-808.5" font-family="Helvetica,sans-Serif" font-size="10.00"># mbReloading</text>
<polyline fill="none" stroke="black" points="452.5,-801.5 564.5,-801.5 "/>
<text text-anchor="start" x="460.5" y="-789.5" font-family="Helvetica,sans-Serif" font-size="10.00">+ NFIModule()</text>
<text text-anchor="start" x="460.5" y="-778.5" font-family="Helvetica,sans-Serif" font-size="10.00">+ ~NFIModule()</text>
<text text-anchor="start" x="460.5" y="-767.5" font-family="Helvetica,sans-Serif" font-size="10.00">+ Init()</text>
<text text-anchor="start" x="460.5" y="-756.5" font-family="Helvetica,sans-Serif" font-size="10.00">+ AfterInit()</text>
<text text-anchor="start" x="460.5" y="-745.5" font-family="Helvetica,sans-Serif" font-size="10.00">+ CheckConfig()</text>
<text text-anchor="start" x="460.5" y="-734.5" font-family="Helvetica,sans-Serif" font-size="10.00">+ BeforeShut()</text>
<text text-anchor="start" x="460.5" y="-723.5" font-family="Helvetica,sans-Serif" font-size="10.00">+ Shut()</text>
<text text-anchor="start" x="460.5" y="-712.5" font-family="Helvetica,sans-Serif" font-size="10.00">+ Execute()</text>
<text text-anchor="start" x="460.5" y="-701.5" font-family="Helvetica,sans-Serif" font-size="10.00">+ StartReLoadState()</text>
<text text-anchor="start" x="460.5" y="-690.5" font-family="Helvetica,sans-Serif" font-size="10.00">+ EndReLoadState()</text>
<text text-anchor="start" x="460.5" y="-679.5" font-family="Helvetica,sans-Serif" font-size="10.00">+ GetPluginManager()</text>
<text text-anchor="start" x="460.5" y="-668.5" font-family="Helvetica,sans-Serif" font-size="10.00">+ Loading()</text>
</a>
</g>
</g>
<!-- Node5&#45;&gt;Node4 -->
<g id="edge2" class="edge"><title>Node5&#45;&gt;Node4</title>
<path fill="none" stroke="midnightblue" d="M556.525,-651.915C562.311,-639.176 568.084,-626.309 573.5,-614 596.515,-561.689 622.008,-499.996 636.26,-465.142"/>
<polygon fill="none" stroke="midnightblue" points="553.274,-650.608 552.314,-661.159 559.644,-653.51 553.274,-650.608"/>
</g>
<!-- Node6 -->
<g id="node4" class="node"><title>Node6</title>
<g id="a_node4"><a xlink:href="class_n_f_i_plugin_manager.html" target="_top" xlink:title="{NFIPluginManager\n||+ NFIPluginManager()\l+ FindModule()\l+ Registered()\l+ UnRegistered()\l+ FindPlugin()\l+ AddModule()\l+ RemoveModule()\l+ FindModule()\l+ AppID()\l+ GetInitTime()\l+ GetNowTime()\l+ GetConfigPath()\l+ SetConfigName()\l}">
<polygon fill="white" stroke="black" points="169,-342 169,-531 280,-531 280,-342 169,-342"/>
<text text-anchor="middle" x="224.5" y="-519" font-family="Helvetica,sans-Serif" font-size="10.00">NFIPluginManager</text>
<polyline fill="none" stroke="black" points="169,-512 280,-512 "/>
<text text-anchor="middle" x="224.5" y="-500" font-family="Helvetica,sans-Serif" font-size="10.00"> </text>
<polyline fill="none" stroke="black" points="169,-493 280,-493 "/>
<text text-anchor="start" x="177" y="-481" font-family="Helvetica,sans-Serif" font-size="10.00">+ NFIPluginManager()</text>
<text text-anchor="start" x="177" y="-470" font-family="Helvetica,sans-Serif" font-size="10.00">+ FindModule()</text>
<text text-anchor="start" x="177" y="-459" font-family="Helvetica,sans-Serif" font-size="10.00">+ Registered()</text>
<text text-anchor="start" x="177" y="-448" font-family="Helvetica,sans-Serif" font-size="10.00">+ UnRegistered()</text>
<text text-anchor="start" x="177" y="-437" font-family="Helvetica,sans-Serif" font-size="10.00">+ FindPlugin()</text>
<text text-anchor="start" x="177" y="-426" font-family="Helvetica,sans-Serif" font-size="10.00">+ AddModule()</text>
<text text-anchor="start" x="177" y="-415" font-family="Helvetica,sans-Serif" font-size="10.00">+ RemoveModule()</text>
<text text-anchor="start" x="177" y="-404" font-family="Helvetica,sans-Serif" font-size="10.00">+ FindModule()</text>
<text text-anchor="start" x="177" y="-393" font-family="Helvetica,sans-Serif" font-size="10.00">+ AppID()</text>
<text text-anchor="start" x="177" y="-382" font-family="Helvetica,sans-Serif" font-size="10.00">+ GetInitTime()</text>
<text text-anchor="start" x="177" y="-371" font-family="Helvetica,sans-Serif" font-size="10.00">+ GetNowTime()</text>
<text text-anchor="start" x="177" y="-360" font-family="Helvetica,sans-Serif" font-size="10.00">+ GetConfigPath()</text>
<text text-anchor="start" x="177" y="-349" font-family="Helvetica,sans-Serif" font-size="10.00">+ SetConfigName()</text>
</a>
</g>
</g>
<!-- Node5&#45;&gt;Node6 -->
<g id="edge4" class="edge"><title>Node5&#45;&gt;Node6</title>
<path fill="none" stroke="midnightblue" d="M443.468,-713.823C379.95,-673.5 292.375,-617.585 289.5,-614 270.299,-590.052 256.435,-559.894 246.578,-531.315"/>
<polygon fill="none" stroke="midnightblue" points="441.941,-716.999 452.259,-719.402 445.691,-711.088 441.941,-716.999"/>
</g>
<!-- Node7 -->
<g id="node5" class="node"><title>Node7</title>
<g id="a_node5"><a xlink:href="class_n_f_i_net_client_module.html" target="_top" xlink:title="{NFINetClientModule\n|&#45; mxTempNetList\l&#45; mxReceiveCallBack\l&#45; mxEventCallBack\l&#45; mxCallBackList\l|+ NFINetClientModule()\l+ Init()\l+ AfterInit()\l+ BeforeShut()\l+ Shut()\l+ Execute()\l+ AddReceiveCallBack()\l+ AddReceiveCallBack()\l+ AddEventCallBack()\l+ AddServer()\land 14 more...\l# NFINetClientModule()\l# ProcessExecute()\l# KeepReport()\l# LogServerInfo()\l&#45; LogServerInfo()\l&#45; KeepState()\l&#45; OnSocketEvent()\l&#45; OnConnected()\l&#45; OnDisConnected()\l&#45; ProcessAddNetConnect()\l&#45; InitNetCallback()\l&#45; GetServerMachineData()\l&#45; AddServerWeightData()\l&#45; RemoveServerWeightData()\l}">
<polygon fill="white" stroke="black" points="10,-259.5 10,-613.5 151,-613.5 151,-259.5 10,-259.5"/>
<text text-anchor="middle" x="80.5" y="-601.5" font-family="Helvetica,sans-Serif" font-size="10.00">NFINetClientModule</text>
<polyline fill="none" stroke="black" points="10,-594.5 151,-594.5 "/>
<text text-anchor="start" x="18" y="-582.5" font-family="Helvetica,sans-Serif" font-size="10.00">&#45; mxTempNetList</text>
<text text-anchor="start" x="18" y="-571.5" font-family="Helvetica,sans-Serif" font-size="10.00">&#45; mxReceiveCallBack</text>
<text text-anchor="start" x="18" y="-560.5" font-family="Helvetica,sans-Serif" font-size="10.00">&#45; mxEventCallBack</text>
<text text-anchor="start" x="18" y="-549.5" font-family="Helvetica,sans-Serif" font-size="10.00">&#45; mxCallBackList</text>
<polyline fill="none" stroke="black" points="10,-542.5 151,-542.5 "/>
<text text-anchor="start" x="18" y="-530.5" font-family="Helvetica,sans-Serif" font-size="10.00">+ NFINetClientModule()</text>
<text text-anchor="start" x="18" y="-519.5" font-family="Helvetica,sans-Serif" font-size="10.00">+ Init()</text>
<text text-anchor="start" x="18" y="-508.5" font-family="Helvetica,sans-Serif" font-size="10.00">+ AfterInit()</text>
<text text-anchor="start" x="18" y="-497.5" font-family="Helvetica,sans-Serif" font-size="10.00">+ BeforeShut()</text>
<text text-anchor="start" x="18" y="-486.5" font-family="Helvetica,sans-Serif" font-size="10.00">+ Shut()</text>
<text text-anchor="start" x="18" y="-475.5" font-family="Helvetica,sans-Serif" font-size="10.00">+ Execute()</text>
<text text-anchor="start" x="18" y="-464.5" font-family="Helvetica,sans-Serif" font-size="10.00">+ AddReceiveCallBack()</text>
<text text-anchor="start" x="18" y="-453.5" font-family="Helvetica,sans-Serif" font-size="10.00">+ AddReceiveCallBack()</text>
<text text-anchor="start" x="18" y="-442.5" font-family="Helvetica,sans-Serif" font-size="10.00">+ AddEventCallBack()</text>
<text text-anchor="start" x="18" y="-431.5" font-family="Helvetica,sans-Serif" font-size="10.00">+ AddServer()</text>
<text text-anchor="start" x="18" y="-420.5" font-family="Helvetica,sans-Serif" font-size="10.00">and 14 more...</text>
<text text-anchor="start" x="18" y="-409.5" font-family="Helvetica,sans-Serif" font-size="10.00"># NFINetClientModule()</text>
<text text-anchor="start" x="18" y="-398.5" font-family="Helvetica,sans-Serif" font-size="10.00"># ProcessExecute()</text>
<text text-anchor="start" x="18" y="-387.5" font-family="Helvetica,sans-Serif" font-size="10.00"># KeepReport()</text>
<text text-anchor="start" x="18" y="-376.5" font-family="Helvetica,sans-Serif" font-size="10.00"># LogServerInfo()</text>
<text text-anchor="start" x="18" y="-365.5" font-family="Helvetica,sans-Serif" font-size="10.00">&#45; LogServerInfo()</text>
<text text-anchor="start" x="18" y="-354.5" font-family="Helvetica,sans-Serif" font-size="10.00">&#45; KeepState()</text>
<text text-anchor="start" x="18" y="-343.5" font-family="Helvetica,sans-Serif" font-size="10.00">&#45; OnSocketEvent()</text>
<text text-anchor="start" x="18" y="-332.5" font-family="Helvetica,sans-Serif" font-size="10.00">&#45; OnConnected()</text>
<text text-anchor="start" x="18" y="-321.5" font-family="Helvetica,sans-Serif" font-size="10.00">&#45; OnDisConnected()</text>
<text text-anchor="start" x="18" y="-310.5" font-family="Helvetica,sans-Serif" font-size="10.00">&#45; ProcessAddNetConnect()</text>
<text text-anchor="start" x="18" y="-299.5" font-family="Helvetica,sans-Serif" font-size="10.00">&#45; InitNetCallback()</text>
<text text-anchor="start" x="18" y="-288.5" font-family="Helvetica,sans-Serif" font-size="10.00">&#45; GetServerMachineData()</text>
<text text-anchor="start" x="18" y="-277.5" font-family="Helvetica,sans-Serif" font-size="10.00">&#45; AddServerWeightData()</text>
<text text-anchor="start" x="18" y="-266.5" font-family="Helvetica,sans-Serif" font-size="10.00">&#45; RemoveServerWeightData()</text>
</a>
</g>
</g>
<!-- Node5&#45;&gt;Node7 -->
<g id="edge6" class="edge"><title>Node5&#45;&gt;Node7</title>
<path fill="none" stroke="midnightblue" d="M443.519,-715.11C396.09,-687.731 329.364,-652.724 266.5,-632 220.701,-616.901 197.646,-643.502 159.5,-614 156.579,-611.741 153.763,-609.35 151.048,-606.843"/>
<polygon fill="none" stroke="midnightblue" points="442.039,-718.299 452.443,-720.303 445.56,-712.248 442.039,-718.299"/>
</g>
<!-- Node11 -->
<g id="node9" class="node"><title>Node11</title>
<g id="a_node9"><a xlink:href="class_n_f_i_world_net___server_module.html" target="_top" xlink:title="{NFIWorldNet_ServerModule\n||+ SendMsgToGame()\l+ OnObjectListEnter()\l+ OnObjectListLeave()\l+ OnPropertyEnter()\l+ OnRecordEnter()\l+ SendMsgToGame()\l+ OnRecordEnterPack()\l+ GetSuitProxyForEnter()\l+ GetNetModule()\l}">
<polygon fill="white" stroke="black" points="298.5,-364 298.5,-509 434.5,-509 434.5,-364 298.5,-364"/>
<text text-anchor="middle" x="366.5" y="-497" font-family="Helvetica,sans-Serif" font-size="10.00">NFIWorldNet_ServerModule</text>
<polyline fill="none" stroke="black" points="298.5,-490 434.5,-490 "/>
<text text-anchor="middle" x="366.5" y="-478" font-family="Helvetica,sans-Serif" font-size="10.00"> </text>
<polyline fill="none" stroke="black" points="298.5,-471 434.5,-471 "/>
<text text-anchor="start" x="306.5" y="-459" font-family="Helvetica,sans-Serif" font-size="10.00">+ SendMsgToGame()</text>
<text text-anchor="start" x="306.5" y="-448" font-family="Helvetica,sans-Serif" font-size="10.00">+ OnObjectListEnter()</text>
<text text-anchor="start" x="306.5" y="-437" font-family="Helvetica,sans-Serif" font-size="10.00">+ OnObjectListLeave()</text>
<text text-anchor="start" x="306.5" y="-426" font-family="Helvetica,sans-Serif" font-size="10.00">+ OnPropertyEnter()</text>
<text text-anchor="start" x="306.5" y="-415" font-family="Helvetica,sans-Serif" font-size="10.00">+ OnRecordEnter()</text>
<text text-anchor="start" x="306.5" y="-404" font-family="Helvetica,sans-Serif" font-size="10.00">+ SendMsgToGame()</text>
<text text-anchor="start" x="306.5" y="-393" font-family="Helvetica,sans-Serif" font-size="10.00">+ OnRecordEnterPack()</text>
<text text-anchor="start" x="306.5" y="-382" font-family="Helvetica,sans-Serif" font-size="10.00">+ GetSuitProxyForEnter()</text>
<text text-anchor="start" x="306.5" y="-371" font-family="Helvetica,sans-Serif" font-size="10.00">+ GetNetModule()</text>
</a>
</g>
</g>
<!-- Node5&#45;&gt;Node11 -->
<g id="edge11" class="edge"><title>Node5&#45;&gt;Node11</title>
<path fill="none" stroke="midnightblue" d="M478.697,-652.322C475.056,-645.196 471.004,-638.337 466.5,-632 458.98,-621.42 451.449,-624.262 443.5,-614 419.445,-582.945 401.25,-543.215 388.604,-509.315"/>
<polygon fill="none" stroke="midnightblue" points="475.607,-653.972 483.091,-661.471 481.917,-650.942 475.607,-653.972"/>
</g>
<!-- Node12 -->
<g id="node10" class="node"><title>Node12</title>
<g id="a_node10"><a xlink:href="class_n_f_i_world_logic_module.html" target="_top" xlink:title="{NFIWorldLogicModule\n||}">
<polygon fill="white" stroke="black" points="452.5,-408 452.5,-465 564.5,-465 564.5,-408 452.5,-408"/>
<text text-anchor="middle" x="508.5" y="-453" font-family="Helvetica,sans-Serif" font-size="10.00">NFIWorldLogicModule</text>
<polyline fill="none" stroke="black" points="452.5,-446 564.5,-446 "/>
<text text-anchor="middle" x="508.5" y="-434" font-family="Helvetica,sans-Serif" font-size="10.00"> </text>
<polyline fill="none" stroke="black" points="452.5,-427 564.5,-427 "/>
<text text-anchor="middle" x="508.5" y="-415" font-family="Helvetica,sans-Serif" font-size="10.00"> </text>
</a>
</g>
</g>
<!-- Node5&#45;&gt;Node12 -->
<g id="edge13" class="edge"><title>Node5&#45;&gt;Node12</title>
<path fill="none" stroke="midnightblue" d="M508.5,-651.092C508.5,-585.705 508.5,-506.166 508.5,-465.06"/>
<polygon fill="none" stroke="midnightblue" points="505,-651.457 508.5,-661.457 512,-651.457 505,-651.457"/>
</g>
<!-- Node13 -->
<g id="node11" class="node"><title>Node13</title>
<g id="a_node11"><a xlink:href="class_n_f_i_class_module.html" target="_top" xlink:title="{NFIClassModule\n||+ ~NFIClassModule()\l+ Load()\l+ Save()\l+ Clear()\l+ AddClassCallBack()\l+ DoEvent()\l+ AddClassCallBack()\l+ GetClassPropertyManager()\l+ GetClassRecordManager()\l+ GetClassComponentManager()\l}">
<polygon fill="white" stroke="black" points="883,-358.5 883,-514.5 1042,-514.5 1042,-358.5 883,-358.5"/>
<text text-anchor="middle" x="962.5" y="-502.5" font-family="Helvetica,sans-Serif" font-size="10.00">NFIClassModule</text>
<polyline fill="none" stroke="black" points="883,-495.5 1042,-495.5 "/>
<text text-anchor="middle" x="962.5" y="-483.5" font-family="Helvetica,sans-Serif" font-size="10.00"> </text>
<polyline fill="none" stroke="black" points="883,-476.5 1042,-476.5 "/>
<text text-anchor="start" x="891" y="-464.5" font-family="Helvetica,sans-Serif" font-size="10.00">+ ~NFIClassModule()</text>
<text text-anchor="start" x="891" y="-453.5" font-family="Helvetica,sans-Serif" font-size="10.00">+ Load()</text>
<text text-anchor="start" x="891" y="-442.5" font-family="Helvetica,sans-Serif" font-size="10.00">+ Save()</text>
<text text-anchor="start" x="891" y="-431.5" font-family="Helvetica,sans-Serif" font-size="10.00">+ Clear()</text>
<text text-anchor="start" x="891" y="-420.5" font-family="Helvetica,sans-Serif" font-size="10.00">+ AddClassCallBack()</text>
<text text-anchor="start" x="891" y="-409.5" font-family="Helvetica,sans-Serif" font-size="10.00">+ DoEvent()</text>
<text text-anchor="start" x="891" y="-398.5" font-family="Helvetica,sans-Serif" font-size="10.00">+ AddClassCallBack()</text>
<text text-anchor="start" x="891" y="-387.5" font-family="Helvetica,sans-Serif" font-size="10.00">+ GetClassPropertyManager()</text>
<text text-anchor="start" x="891" y="-376.5" font-family="Helvetica,sans-Serif" font-size="10.00">+ GetClassRecordManager()</text>
<text text-anchor="start" x="891" y="-365.5" font-family="Helvetica,sans-Serif" font-size="10.00">+ GetClassComponentManager()</text>
</a>
</g>
</g>
<!-- Node5&#45;&gt;Node13 -->
<g id="edge15" class="edge"><title>Node5&#45;&gt;Node13</title>
<path fill="none" stroke="midnightblue" d="M574.447,-744.403C653.952,-728.58 787.571,-691.864 873.5,-614 902.872,-587.385 923.857,-548.858 938.044,-514.586"/>
<polygon fill="none" stroke="midnightblue" points="573.702,-740.982 564.55,-746.32 575.033,-747.854 573.702,-740.982"/>
</g>
<!-- Node15 -->
<g id="node13" class="node"><title>Node15</title>
<g id="a_node13"><a xlink:href="class_n_f_i_element_module.html" target="_top" xlink:title="{NFIElementModule\n||+ Load()\l+ Save()\l+ Clear()\l+ ExistElement()\l+ ExistElement()\l+ GetPropertyManager()\l+ GetRecordManager()\l+ GetComponentManager()\l+ GetPropertyInt()\l+ GetPropertyFloat()\l+ GetPropertyString()\l}">
<polygon fill="white" stroke="black" points="730.5,-353 730.5,-520 864.5,-520 864.5,-353 730.5,-353"/>
<text text-anchor="middle" x="797.5" y="-508" font-family="Helvetica,sans-Serif" font-size="10.00">NFIElementModule</text>
<polyline fill="none" stroke="black" points="730.5,-501 864.5,-501 "/>
<text text-anchor="middle" x="797.5" y="-489" font-family="Helvetica,sans-Serif" font-size="10.00"> </text>
<polyline fill="none" stroke="black" points="730.5,-482 864.5,-482 "/>
<text text-anchor="start" x="738.5" y="-470" font-family="Helvetica,sans-Serif" font-size="10.00">+ Load()</text>
<text text-anchor="start" x="738.5" y="-459" font-family="Helvetica,sans-Serif" font-size="10.00">+ Save()</text>
<text text-anchor="start" x="738.5" y="-448" font-family="Helvetica,sans-Serif" font-size="10.00">+ Clear()</text>
<text text-anchor="start" x="738.5" y="-437" font-family="Helvetica,sans-Serif" font-size="10.00">+ ExistElement()</text>
<text text-anchor="start" x="738.5" y="-426" font-family="Helvetica,sans-Serif" font-size="10.00">+ ExistElement()</text>
<text text-anchor="start" x="738.5" y="-415" font-family="Helvetica,sans-Serif" font-size="10.00">+ GetPropertyManager()</text>
<text text-anchor="start" x="738.5" y="-404" font-family="Helvetica,sans-Serif" font-size="10.00">+ GetRecordManager()</text>
<text text-anchor="start" x="738.5" y="-393" font-family="Helvetica,sans-Serif" font-size="10.00">+ GetComponentManager()</text>
<text text-anchor="start" x="738.5" y="-382" font-family="Helvetica,sans-Serif" font-size="10.00">+ GetPropertyInt()</text>
<text text-anchor="start" x="738.5" y="-371" font-family="Helvetica,sans-Serif" font-size="10.00">+ GetPropertyFloat()</text>
<text text-anchor="start" x="738.5" y="-360" font-family="Helvetica,sans-Serif" font-size="10.00">+ GetPropertyString()</text>
</a>
</g>
</g>
<!-- Node5&#45;&gt;Node15 -->
<g id="edge18" class="edge"><title>Node5&#45;&gt;Node15</title>
<path fill="none" stroke="midnightblue" d="M573.618,-724.411C619.735,-699.99 680.302,-661.955 720.5,-614 743.265,-586.842 760.379,-551.914 772.619,-520.306"/>
<polygon fill="none" stroke="midnightblue" points="571.847,-721.387 564.597,-729.113 575.083,-727.595 571.847,-721.387"/>
</g>
<!-- Node16 -->
<g id="node14" class="node"><title>Node16</title>
<g id="a_node14"><a xlink:href="class_n_f_i_log_module.html" target="_top" xlink:title="{NFILogModule\n||+ LogDebug()\l+ LogInfo()\l+ LogWarning()\l+ LogError()\l+ LogFatal()\l+ LogDebug()\l+ LogInfo()\l+ LogWarning()\l+ LogError()\l+ LogFatal()\land 8 more...\l}">
<polygon fill="white" stroke="black" points="1060,-353 1060,-520 1143,-520 1143,-353 1060,-353"/>
<text text-anchor="middle" x="1101.5" y="-508" font-family="Helvetica,sans-Serif" font-size="10.00">NFILogModule</text>
<polyline fill="none" stroke="black" points="1060,-501 1143,-501 "/>
<text text-anchor="middle" x="1101.5" y="-489" font-family="Helvetica,sans-Serif" font-size="10.00"> </text>
<polyline fill="none" stroke="black" points="1060,-482 1143,-482 "/>
<text text-anchor="start" x="1068" y="-470" font-family="Helvetica,sans-Serif" font-size="10.00">+ LogDebug()</text>
<text text-anchor="start" x="1068" y="-459" font-family="Helvetica,sans-Serif" font-size="10.00">+ LogInfo()</text>
<text text-anchor="start" x="1068" y="-448" font-family="Helvetica,sans-Serif" font-size="10.00">+ LogWarning()</text>
<text text-anchor="start" x="1068" y="-437" font-family="Helvetica,sans-Serif" font-size="10.00">+ LogError()</text>
<text text-anchor="start" x="1068" y="-426" font-family="Helvetica,sans-Serif" font-size="10.00">+ LogFatal()</text>
<text text-anchor="start" x="1068" y="-415" font-family="Helvetica,sans-Serif" font-size="10.00">+ LogDebug()</text>
<text text-anchor="start" x="1068" y="-404" font-family="Helvetica,sans-Serif" font-size="10.00">+ LogInfo()</text>
<text text-anchor="start" x="1068" y="-393" font-family="Helvetica,sans-Serif" font-size="10.00">+ LogWarning()</text>
<text text-anchor="start" x="1068" y="-382" font-family="Helvetica,sans-Serif" font-size="10.00">+ LogError()</text>
<text text-anchor="start" x="1068" y="-371" font-family="Helvetica,sans-Serif" font-size="10.00">+ LogFatal()</text>
<text text-anchor="start" x="1068" y="-360" font-family="Helvetica,sans-Serif" font-size="10.00">and 8 more...</text>
</a>
</g>
</g>
<!-- Node5&#45;&gt;Node16 -->
<g id="edge20" class="edge"><title>Node5&#45;&gt;Node16</title>
<path fill="none" stroke="midnightblue" d="M574.597,-738.708C717.231,-703.432 1041.81,-622.46 1050.5,-614 1075.64,-589.525 1088.59,-553.496 1095.19,-520.361"/>
<polygon fill="none" stroke="midnightblue" points="573.517,-735.37 564.649,-741.168 575.197,-742.165 573.517,-735.37"/>
</g>
<!-- Node6&#45;&gt;Node5 -->
<g id="edge3" class="edge"><title>Node6&#45;&gt;Node5</title>
<path fill="none" stroke="#404040" d="M241.069,-531.085C250.656,-561.178 265.752,-592.307 289.5,-614 312.266,-634.795 329.029,-617.997 356.5,-632 387.342,-647.721 417.732,-670.435 443.136,-692.076"/>
<polygon fill="none" stroke="#404040" points="443.193,-692.125 450.347,-693.033 452.261,-699.985 445.107,-699.078 443.193,-692.125"/>
<text text-anchor="middle" x="415" y="-635" font-family="Helvetica,sans-Serif" font-size="10.00"> #pPluginManager</text>
</g>
<!-- Node7&#45;&gt;Node3 -->
<g id="edge5" class="edge"><title>Node7&#45;&gt;Node3</title>
<path fill="none" stroke="#404040" d="M151.135,-267.05C153.825,-264.252 156.613,-261.563 159.5,-259 273.563,-157.752 454.438,-123.942 560.995,-112.654"/>
<polygon fill="none" stroke="#404040" points="561.036,-112.65 566.605,-108.068 572.976,-111.447 567.407,-116.028 561.036,-112.65"/>
<text text-anchor="middle" x="241" y="-233" font-family="Helvetica,sans-Serif" font-size="10.00"> &#45;m_pNetClientModule</text>
</g>
<!-- Node8 -->
<g id="node6" class="node"><title>Node8</title>
<g id="a_node6"><a xlink:href="class_n_f_map_ex.html" target="_top" xlink:title="{NFMapEx\&lt; int, ConnectData \&gt;\n|&#45; mObjectList\l&#45; mObjectCurIter\l|+ NFMapEx()\l+ ~NFMapEx()\l+ AddElement()\l+ SetElement()\l+ RemoveElement()\l+ GetElementNude()\l+ GetElement()\l+ FirstNude()\l+ FirstNude()\l+ NextNude()\land 7 more...\l}">
<polygon fill="white" stroke="black" points="0,-667 0,-845 151,-845 151,-667 0,-667"/>
<text text-anchor="middle" x="75.5" y="-833" font-family="Helvetica,sans-Serif" font-size="10.00">NFMapEx&lt; int, ConnectData &gt;</text>
<polyline fill="none" stroke="black" points="0,-826 151,-826 "/>
<text text-anchor="start" x="8" y="-814" font-family="Helvetica,sans-Serif" font-size="10.00">&#45; mObjectList</text>
<text text-anchor="start" x="8" y="-803" font-family="Helvetica,sans-Serif" font-size="10.00">&#45; mObjectCurIter</text>
<polyline fill="none" stroke="black" points="0,-796 151,-796 "/>
<text text-anchor="start" x="8" y="-784" font-family="Helvetica,sans-Serif" font-size="10.00">+ NFMapEx()</text>
<text text-anchor="start" x="8" y="-773" font-family="Helvetica,sans-Serif" font-size="10.00">+ ~NFMapEx()</text>
<text text-anchor="start" x="8" y="-762" font-family="Helvetica,sans-Serif" font-size="10.00">+ AddElement()</text>
<text text-anchor="start" x="8" y="-751" font-family="Helvetica,sans-Serif" font-size="10.00">+ SetElement()</text>
<text text-anchor="start" x="8" y="-740" font-family="Helvetica,sans-Serif" font-size="10.00">+ RemoveElement()</text>
<text text-anchor="start" x="8" y="-729" font-family="Helvetica,sans-Serif" font-size="10.00">+ GetElementNude()</text>
<text text-anchor="start" x="8" y="-718" font-family="Helvetica,sans-Serif" font-size="10.00">+ GetElement()</text>
<text text-anchor="start" x="8" y="-707" font-family="Helvetica,sans-Serif" font-size="10.00">+ FirstNude()</text>
<text text-anchor="start" x="8" y="-696" font-family="Helvetica,sans-Serif" font-size="10.00">+ FirstNude()</text>
<text text-anchor="start" x="8" y="-685" font-family="Helvetica,sans-Serif" font-size="10.00">+ NextNude()</text>
<text text-anchor="start" x="8" y="-674" font-family="Helvetica,sans-Serif" font-size="10.00">and 7 more...</text>
</a>
</g>
</g>
<!-- Node8&#45;&gt;Node7 -->
<g id="edge7" class="edge"><title>Node8&#45;&gt;Node7</title>
<path fill="none" stroke="#404040" d="M76.8861,-666.98C77.0927,-653.861 77.3121,-639.932 77.5366,-625.675"/>
<polygon fill="none" stroke="#404040" points="77.5372,-625.631 73.6322,-619.569 77.7263,-613.633 81.6312,-619.695 77.5372,-625.631"/>
<text text-anchor="middle" x="110.5" y="-635" font-family="Helvetica,sans-Serif" font-size="10.00"> &#45;mxServerMap</text>
</g>
<!-- Node9 -->
<g id="node7" class="node"><title>Node9</title>
<g id="a_node7"><a xlink:href="class_n_f_c_consistent_hash.html" target="_top" xlink:title="A nfc consistent hash. ">
<polygon fill="white" stroke="black" points="169.5,-667 169.5,-845 295.5,-845 295.5,-667 169.5,-667"/>
<text text-anchor="middle" x="232.5" y="-833" font-family="Helvetica,sans-Serif" font-size="10.00">NFCConsistentHash</text>
<polyline fill="none" stroke="black" points="169.5,-826 295.5,-826 "/>
<text text-anchor="start" x="177.5" y="-814" font-family="Helvetica,sans-Serif" font-size="10.00">&#45; mxNodes</text>
<polyline fill="none" stroke="black" points="169.5,-807 295.5,-807 "/>
<text text-anchor="start" x="177.5" y="-795" font-family="Helvetica,sans-Serif" font-size="10.00">+ NFCConsistentHash()</text>
<text text-anchor="start" x="177.5" y="-784" font-family="Helvetica,sans-Serif" font-size="10.00">+ ~NFCConsistentHash()</text>
<text text-anchor="start" x="177.5" y="-773" font-family="Helvetica,sans-Serif" font-size="10.00">+ Size()</text>
<text text-anchor="start" x="177.5" y="-762" font-family="Helvetica,sans-Serif" font-size="10.00">+ Empty()</text>
<text text-anchor="start" x="177.5" y="-751" font-family="Helvetica,sans-Serif" font-size="10.00">+ Insert()</text>
<text text-anchor="start" x="177.5" y="-740" font-family="Helvetica,sans-Serif" font-size="10.00">+ Insert()</text>
<text text-anchor="start" x="177.5" y="-729" font-family="Helvetica,sans-Serif" font-size="10.00">+ Exist()</text>
<text text-anchor="start" x="177.5" y="-718" font-family="Helvetica,sans-Serif" font-size="10.00">+ Erase()</text>
<text text-anchor="start" x="177.5" y="-707" font-family="Helvetica,sans-Serif" font-size="10.00">+ GetSuitNode()</text>
<text text-anchor="start" x="177.5" y="-696" font-family="Helvetica,sans-Serif" font-size="10.00">+ GetSuitNode()</text>
<text text-anchor="start" x="177.5" y="-685" font-family="Helvetica,sans-Serif" font-size="10.00">+ GetSuitNode()</text>
<text text-anchor="start" x="177.5" y="-674" font-family="Helvetica,sans-Serif" font-size="10.00">+ GetNodeList()</text>
</a>
</g>
</g>
<!-- Node9&#45;&gt;Node7 -->
<g id="edge8" class="edge"><title>Node9&#45;&gt;Node7</title>
<path fill="none" stroke="#404040" d="M185.775,-666.633C176.872,-649.273 167.761,-631.132 159.5,-614 158.461,-611.845 157.419,-609.674 156.374,-607.488"/>
<polygon fill="none" stroke="#404040" points="156.282,-607.295 150.096,-603.59 151.136,-596.454 157.323,-600.159 156.282,-607.295"/>
<text text-anchor="middle" x="218" y="-635" font-family="Helvetica,sans-Serif" font-size="10.00"> &#45;mxConsistentHash</text>
</g>
<!-- Node10 -->
<g id="node8" class="node"><title>Node10</title>
<g id="a_node8"><a xlink:href="class_n_f_i_hasher.html" target="_top" xlink:title="A nfi hasher. ">
<polygon fill="white" stroke="black" points="185,-898.5 185,-955.5 280,-955.5 280,-898.5 185,-898.5"/>
<text text-anchor="middle" x="232.5" y="-943.5" font-family="Helvetica,sans-Serif" font-size="10.00">NFIHasher</text>
<polyline fill="none" stroke="black" points="185,-936.5 280,-936.5 "/>
<text text-anchor="middle" x="232.5" y="-924.5" font-family="Helvetica,sans-Serif" font-size="10.00"> </text>
<polyline fill="none" stroke="black" points="185,-917.5 280,-917.5 "/>
<text text-anchor="start" x="193" y="-905.5" font-family="Helvetica,sans-Serif" font-size="10.00">+ GetHashValue()</text>
</a>
</g>
</g>
<!-- Node10&#45;&gt;Node9 -->
<g id="edge9" class="edge"><title>Node10&#45;&gt;Node9</title>
<path fill="none" stroke="#404040" d="M232.5,-898.471C232.5,-886.81 232.5,-872.44 232.5,-857.372"/>
<polygon fill="none" stroke="#404040" points="232.5,-857.176 228.5,-851.176 232.5,-845.176 236.5,-851.176 232.5,-857.176"/>
<text text-anchor="middle" x="260.5" y="-872" font-family="Helvetica,sans-Serif" font-size="10.00"> &#45;m_pHasher</text>
</g>
<!-- Node11&#45;&gt;Node3 -->
<g id="edge10" class="edge"><title>Node11&#45;&gt;Node3</title>
<path fill="none" stroke="#404040" d="M362.342,-363.623C363.446,-321.032 371.429,-268.114 399.5,-230 438.414,-177.163 506.366,-145.698 561.31,-127.838"/>
<polygon fill="none" stroke="#404040" points="561.372,-127.819 565.901,-122.208 572.822,-124.231 568.293,-129.842 561.372,-127.819"/>
<text text-anchor="middle" x="464.5" y="-233" font-family="Helvetica,sans-Serif" font-size="10.00"> &#45;m_pWorldNet_ServerModule</text>
</g>
<!-- Node12&#45;&gt;Node3 -->
<g id="edge12" class="edge"><title>Node12&#45;&gt;Node3</title>
<path fill="none" stroke="#404040" d="M507.429,-407.811C506.92,-366.951 510.098,-288.98 537.5,-230 544.659,-214.59 554.406,-199.718 565.157,-185.962"/>
<polygon fill="none" stroke="#404040" points="565.176,-185.939 565.853,-178.76 572.741,-176.624 572.063,-183.803 565.176,-185.939"/>
<text text-anchor="middle" x="590.5" y="-233" font-family="Helvetica,sans-Serif" font-size="10.00"> &#45;m_pWorldLogicModule</text>
</g>
<!-- Node13&#45;&gt;Node3 -->
<g id="edge14" class="edge"><title>Node13&#45;&gt;Node3</title>
<path fill="none" stroke="#404040" d="M933.836,-358.149C919.141,-325.209 898.927,-287.823 873.5,-259 834.105,-214.343 778.775,-176.838 732.722,-150.255"/>
<polygon fill="none" stroke="#404040" points="732.575,-150.172 725.383,-150.686 722.142,-144.244 729.334,-143.73 732.575,-150.172"/>
<text text-anchor="middle" x="894.5" y="-233" font-family="Helvetica,sans-Serif" font-size="10.00"> &#45;m_pClassModule</text>
</g>
<!-- Node14 -->
<g id="node12" class="node"><title>Node14</title>
<g id="a_node12"><a xlink:href="class_n_f_map_ex.html" target="_top" xlink:title="{NFMapEx\&lt; std::string,\l NFIClass \&gt;\n|&#45; mObjectList\l&#45; mObjectCurIter\l|+ NFMapEx()\l+ ~NFMapEx()\l+ AddElement()\l+ SetElement()\l+ RemoveElement()\l+ GetElementNude()\l+ GetElement()\l+ FirstNude()\l+ FirstNude()\l+ NextNude()\land 7 more...\l}">
<polygon fill="white" stroke="black" points="904.5,-661.5 904.5,-850.5 1020.5,-850.5 1020.5,-661.5 904.5,-661.5"/>
<text text-anchor="start" x="912.5" y="-838.5" font-family="Helvetica,sans-Serif" font-size="10.00">NFMapEx&lt; std::string,</text>
<text text-anchor="middle" x="962.5" y="-827.5" font-family="Helvetica,sans-Serif" font-size="10.00"> NFIClass &gt;</text>
<polyline fill="none" stroke="black" points="904.5,-820.5 1020.5,-820.5 "/>
<text text-anchor="start" x="912.5" y="-808.5" font-family="Helvetica,sans-Serif" font-size="10.00">&#45; mObjectList</text>
<text text-anchor="start" x="912.5" y="-797.5" font-family="Helvetica,sans-Serif" font-size="10.00">&#45; mObjectCurIter</text>
<polyline fill="none" stroke="black" points="904.5,-790.5 1020.5,-790.5 "/>
<text text-anchor="start" x="912.5" y="-778.5" font-family="Helvetica,sans-Serif" font-size="10.00">+ NFMapEx()</text>
<text text-anchor="start" x="912.5" y="-767.5" font-family="Helvetica,sans-Serif" font-size="10.00">+ ~NFMapEx()</text>
<text text-anchor="start" x="912.5" y="-756.5" font-family="Helvetica,sans-Serif" font-size="10.00">+ AddElement()</text>
<text text-anchor="start" x="912.5" y="-745.5" font-family="Helvetica,sans-Serif" font-size="10.00">+ SetElement()</text>
<text text-anchor="start" x="912.5" y="-734.5" font-family="Helvetica,sans-Serif" font-size="10.00">+ RemoveElement()</text>
<text text-anchor="start" x="912.5" y="-723.5" font-family="Helvetica,sans-Serif" font-size="10.00">+ GetElementNude()</text>
<text text-anchor="start" x="912.5" y="-712.5" font-family="Helvetica,sans-Serif" font-size="10.00">+ GetElement()</text>
<text text-anchor="start" x="912.5" y="-701.5" font-family="Helvetica,sans-Serif" font-size="10.00">+ FirstNude()</text>
<text text-anchor="start" x="912.5" y="-690.5" font-family="Helvetica,sans-Serif" font-size="10.00">+ FirstNude()</text>
<text text-anchor="start" x="912.5" y="-679.5" font-family="Helvetica,sans-Serif" font-size="10.00">+ NextNude()</text>
<text text-anchor="start" x="912.5" y="-668.5" font-family="Helvetica,sans-Serif" font-size="10.00">and 7 more...</text>
</a>
</g>
</g>
<!-- Node14&#45;&gt;Node13 -->
<g id="edge16" class="edge"><title>Node14&#45;&gt;Node13</title>
<path fill="none" stroke="midnightblue" d="M962.5,-651.189C962.5,-606.708 962.5,-555.662 962.5,-514.617"/>
<polygon fill="none" stroke="midnightblue" points="959,-651.457 962.5,-661.457 966,-651.457 959,-651.457"/>
</g>
<!-- Node15&#45;&gt;Node3 -->
<g id="edge17" class="edge"><title>Node15&#45;&gt;Node3</title>
<path fill="none" stroke="#404040" d="M762.079,-352.614C749.218,-322.975 734.423,-289.394 720.5,-259 715.133,-247.283 709.453,-235.101 703.726,-222.96"/>
<polygon fill="none" stroke="#404040" points="703.595,-222.683 697.413,-218.971 698.462,-211.837 704.644,-215.549 703.595,-222.683"/>
<text text-anchor="middle" x="758" y="-233" font-family="Helvetica,sans-Serif" font-size="10.00"> &#45;m_pElementModule</text>
</g>
<!-- Node16&#45;&gt;Node3 -->
<g id="edge19" class="edge"><title>Node16&#45;&gt;Node3</title>
<path fill="none" stroke="#404040" d="M1093.6,-352.558C1086.72,-320 1073.98,-284.423 1050.5,-259 967.349,-168.972 825.492,-131.918 734.177,-116.908"/>
<polygon fill="none" stroke="#404040" points="734.046,-116.888 727.496,-119.903 722.192,-115.017 728.743,-112.001 734.046,-116.888"/>
<text text-anchor="middle" x="1063" y="-233" font-family="Helvetica,sans-Serif" font-size="10.00"> &#45;m_pLogModule</text>
</g>
</g>
</svg>
