<?xml version="1.0" encoding="UTF-8" standalone="no"?>
<!DOCTYPE svg PUBLIC "-//W3C//DTD SVG 1.1//EN"
 "http://www.w3.org/Graphics/SVG/1.1/DTD/svg11.dtd">
<!-- Generated by graphviz version 2.38.0 (20140413.2041)
 -->
<!-- Title: NFIComponentManager Pages: 1 -->
<svg width="282pt" height="435pt"
 viewBox="0.00 0.00 281.50 435.00" xmlns="http://www.w3.org/2000/svg" xmlns:xlink="http://www.w3.org/1999/xlink">
<g id="graph0" class="graph" transform="scale(1 1) rotate(0) translate(4 431)">
<title>NFIComponentManager</title>
<polygon fill="white" stroke="none" points="-4,4 -4,-431 277.5,-431 277.5,4 -4,4"/>
<!-- Node4 -->
<g id="node1" class="node"><title>Node4</title>
<polygon fill="#bfbfbf" stroke="black" points="133.5,-44.5 133.5,-145.5 273.5,-145.5 273.5,-44.5 133.5,-44.5"/>
<text text-anchor="middle" x="203.5" y="-133.5" font-family="Helvetica,sans-Serif" font-size="10.00">NFIComponentManager</text>
<polyline fill="none" stroke="black" points="133.5,-126.5 273.5,-126.5 "/>
<text text-anchor="middle" x="203.5" y="-114.5" font-family="Helvetica,sans-Serif" font-size="10.00"> </text>
<polyline fill="none" stroke="black" points="133.5,-107.5 273.5,-107.5 "/>
<text text-anchor="start" x="141.5" y="-95.5" font-family="Helvetica,sans-Serif" font-size="10.00">+ ~NFIComponentManager()</text>
<text text-anchor="start" x="141.5" y="-84.5" font-family="Helvetica,sans-Serif" font-size="10.00">+ AddComponent()</text>
<text text-anchor="start" x="141.5" y="-73.5" font-family="Helvetica,sans-Serif" font-size="10.00">+ FindComponent()</text>
<text text-anchor="start" x="141.5" y="-62.5" font-family="Helvetica,sans-Serif" font-size="10.00">+ Self()</text>
<text text-anchor="start" x="141.5" y="-51.5" font-family="Helvetica,sans-Serif" font-size="10.00">+ AddComponent()</text>
</g>
<!-- Node5 -->
<g id="node2" class="node"><title>Node5</title>
<g id="a_node2"><a xlink:href="class_n_f_i_module.html" target="_top" xlink:title="{NFIModule\n|+ strName\l# mbReloading\l|+ NFIModule()\l+ ~NFIModule()\l+ Init()\l+ AfterInit()\l+ CheckConfig()\l+ BeforeShut()\l+ Shut()\l+ Execute()\l+ StartReLoadState()\l+ EndReLoadState()\l+ GetPluginManager()\l+ Loading()\l}">
<polygon fill="white" stroke="black" points="20.5,-237.5 20.5,-426.5 132.5,-426.5 132.5,-237.5 20.5,-237.5"/>
<text text-anchor="middle" x="76.5" y="-414.5" font-family="Helvetica,sans-Serif" font-size="10.00">NFIModule</text>
<polyline fill="none" stroke="black" points="20.5,-407.5 132.5,-407.5 "/>
<text text-anchor="start" x="28.5" y="-395.5" font-family="Helvetica,sans-Serif" font-size="10.00">+ strName</text>
<text text-anchor="start" x="28.5" y="-384.5" font-family="Helvetica,sans-Serif" font-size="10.00"># mbReloading</text>
<polyline fill="none" stroke="black" points="20.5,-377.5 132.5,-377.5 "/>
<text text-anchor="start" x="28.5" y="-365.5" font-family="Helvetica,sans-Serif" font-size="10.00">+ NFIModule()</text>
<text text-anchor="start" x="28.5" y="-354.5" font-family="Helvetica,sans-Serif" font-size="10.00">+ ~NFIModule()</text>
<text text-anchor="start" x="28.5" y="-343.5" font-family="Helvetica,sans-Serif" font-size="10.00">+ Init()</text>
<text text-anchor="start" x="28.5" y="-332.5" font-family="Helvetica,sans-Serif" font-size="10.00">+ AfterInit()</text>
<text text-anchor="start" x="28.5" y="-321.5" font-family="Helvetica,sans-Serif" font-size="10.00">+ CheckConfig()</text>
<text text-anchor="start" x="28.5" y="-310.5" font-family="Helvetica,sans-Serif" font-size="10.00">+ BeforeShut()</text>
<text text-anchor="start" x="28.5" y="-299.5" font-family="Helvetica,sans-Serif" font-size="10.00">+ Shut()</text>
<text text-anchor="start" x="28.5" y="-288.5" font-family="Helvetica,sans-Serif" font-size="10.00">+ Execute()</text>
<text text-anchor="start" x="28.5" y="-277.5" font-family="Helvetica,sans-Serif" font-size="10.00">+ StartReLoadState()</text>
<text text-anchor="start" x="28.5" y="-266.5" font-family="Helvetica,sans-Serif" font-size="10.00">+ EndReLoadState()</text>
<text text-anchor="start" x="28.5" y="-255.5" font-family="Helvetica,sans-Serif" font-size="10.00">+ GetPluginManager()</text>
<text text-anchor="start" x="28.5" y="-244.5" font-family="Helvetica,sans-Serif" font-size="10.00">+ Loading()</text>
</a>
</g>
</g>
<!-- Node5&#45;&gt;Node4 -->
<g id="edge1" class="edge"><title>Node5&#45;&gt;Node4</title>
<path fill="none" stroke="midnightblue" d="M137.864,-239.47C141.929,-232.619 145.852,-225.747 149.5,-219 162.2,-195.51 174.342,-168.427 183.885,-145.664"/>
<polygon fill="none" stroke="midnightblue" points="134.811,-237.755 132.647,-248.127 140.806,-241.368 134.811,-237.755"/>
</g>
<!-- Node6 -->
<g id="node3" class="node"><title>Node6</title>
<g id="a_node3"><a xlink:href="class_n_f_i_plugin_manager.html" target="_top" xlink:title="{NFIPluginManager\n||+ NFIPluginManager()\l+ FindModule()\l+ Registered()\l+ UnRegistered()\l+ FindPlugin()\l+ AddModule()\l+ RemoveModule()\l+ FindModule()\l+ AppID()\l+ GetInitTime()\l+ GetNowTime()\l+ GetConfigPath()\l+ SetConfigName()\l}">
<polygon fill="white" stroke="black" points="0,-0.5 0,-189.5 111,-189.5 111,-0.5 0,-0.5"/>
<text text-anchor="middle" x="55.5" y="-177.5" font-family="Helvetica,sans-Serif" font-size="10.00">NFIPluginManager</text>
<polyline fill="none" stroke="black" points="0,-170.5 111,-170.5 "/>
<text text-anchor="middle" x="55.5" y="-158.5" font-family="Helvetica,sans-Serif" font-size="10.00"> </text>
<polyline fill="none" stroke="black" points="0,-151.5 111,-151.5 "/>
<text text-anchor="start" x="8" y="-139.5" font-family="Helvetica,sans-Serif" font-size="10.00">+ NFIPluginManager()</text>
<text text-anchor="start" x="8" y="-128.5" font-family="Helvetica,sans-Serif" font-size="10.00">+ FindModule()</text>
<text text-anchor="start" x="8" y="-117.5" font-family="Helvetica,sans-Serif" font-size="10.00">+ Registered()</text>
<text text-anchor="start" x="8" y="-106.5" font-family="Helvetica,sans-Serif" font-size="10.00">+ UnRegistered()</text>
<text text-anchor="start" x="8" y="-95.5" font-family="Helvetica,sans-Serif" font-size="10.00">+ FindPlugin()</text>
<text text-anchor="start" x="8" y="-84.5" font-family="Helvetica,sans-Serif" font-size="10.00">+ AddModule()</text>
<text text-anchor="start" x="8" y="-73.5" font-family="Helvetica,sans-Serif" font-size="10.00">+ RemoveModule()</text>
<text text-anchor="start" x="8" y="-62.5" font-family="Helvetica,sans-Serif" font-size="10.00">+ FindModule()</text>
<text text-anchor="start" x="8" y="-51.5" font-family="Helvetica,sans-Serif" font-size="10.00">+ AppID()</text>
<text text-anchor="start" x="8" y="-40.5" font-family="Helvetica,sans-Serif" font-size="10.00">+ GetInitTime()</text>
<text text-anchor="start" x="8" y="-29.5" font-family="Helvetica,sans-Serif" font-size="10.00">+ GetNowTime()</text>
<text text-anchor="start" x="8" y="-18.5" font-family="Helvetica,sans-Serif" font-size="10.00">+ GetConfigPath()</text>
<text text-anchor="start" x="8" y="-7.5" font-family="Helvetica,sans-Serif" font-size="10.00">+ SetConfigName()</text>
</a>
</g>
</g>
<!-- Node5&#45;&gt;Node6 -->
<g id="edge3" class="edge"><title>Node5&#45;&gt;Node6</title>
<path fill="none" stroke="midnightblue" d="M63.2759,-227.185C63.0044,-224.429 62.745,-221.697 62.5,-219 61.6388,-209.521 60.8655,-199.621 60.1756,-189.732"/>
<polygon fill="none" stroke="midnightblue" points="59.8056,-227.655 64.3076,-237.246 66.7691,-226.941 59.8056,-227.655"/>
</g>
<!-- Node6&#45;&gt;Node5 -->
<g id="edge2" class="edge"><title>Node6&#45;&gt;Node5</title>
<path fill="none" stroke="#404040" d="M63.8656,-189.615C64.9099,-201.301 65.9836,-213.316 67.0429,-225.171"/>
<polygon fill="none" stroke="#404040" points="67.0717,-225.494 71.5899,-231.114 68.1399,-237.447 63.6217,-231.826 67.0717,-225.494"/>
<text text-anchor="middle" x="106" y="-211" font-family="Helvetica,sans-Serif" font-size="10.00"> #pPluginManager</text>
</g>
<!-- Node7 -->
<g id="node4" class="node"><title>Node7</title>
<g id="a_node4"><a xlink:href="class_n_f_map_ex.html" target="_top" xlink:title="{NFMapEx\&lt; std::string,\l NFIComponent \&gt;\n|&#45; mObjectList\l&#45; mObjectCurIter\l|+ NFMapEx()\l+ ~NFMapEx()\l+ AddElement()\l+ SetElement()\l+ RemoveElement()\l+ GetElementNude()\l+ GetElement()\l+ FirstNude()\l+ FirstNude()\l+ NextNude()\land 7 more...\l}">
<polygon fill="white" stroke="black" points="150.5,-237.5 150.5,-426.5 266.5,-426.5 266.5,-237.5 150.5,-237.5"/>
<text text-anchor="start" x="158.5" y="-414.5" font-family="Helvetica,sans-Serif" font-size="10.00">NFMapEx&lt; std::string,</text>
<text text-anchor="middle" x="208.5" y="-403.5" font-family="Helvetica,sans-Serif" font-size="10.00"> NFIComponent &gt;</text>
<polyline fill="none" stroke="black" points="150.5,-396.5 266.5,-396.5 "/>
<text text-anchor="start" x="158.5" y="-384.5" font-family="Helvetica,sans-Serif" font-size="10.00">&#45; mObjectList</text>
<text text-anchor="start" x="158.5" y="-373.5" font-family="Helvetica,sans-Serif" font-size="10.00">&#45; mObjectCurIter</text>
<polyline fill="none" stroke="black" points="150.5,-366.5 266.5,-366.5 "/>
<text text-anchor="start" x="158.5" y="-354.5" font-family="Helvetica,sans-Serif" font-size="10.00">+ NFMapEx()</text>
<text text-anchor="start" x="158.5" y="-343.5" font-family="Helvetica,sans-Serif" font-size="10.00">+ ~NFMapEx()</text>
<text text-anchor="start" x="158.5" y="-332.5" font-family="Helvetica,sans-Serif" font-size="10.00">+ AddElement()</text>
<text text-anchor="start" x="158.5" y="-321.5" font-family="Helvetica,sans-Serif" font-size="10.00">+ SetElement()</text>
<text text-anchor="start" x="158.5" y="-310.5" font-family="Helvetica,sans-Serif" font-size="10.00">+ RemoveElement()</text>
<text text-anchor="start" x="158.5" y="-299.5" font-family="Helvetica,sans-Serif" font-size="10.00">+ GetElementNude()</text>
<text text-anchor="start" x="158.5" y="-288.5" font-family="Helvetica,sans-Serif" font-size="10.00">+ GetElement()</text>
<text text-anchor="start" x="158.5" y="-277.5" font-family="Helvetica,sans-Serif" font-size="10.00">+ FirstNude()</text>
<text text-anchor="start" x="158.5" y="-266.5" font-family="Helvetica,sans-Serif" font-size="10.00">+ FirstNude()</text>
<text text-anchor="start" x="158.5" y="-255.5" font-family="Helvetica,sans-Serif" font-size="10.00">+ NextNude()</text>
<text text-anchor="start" x="158.5" y="-244.5" font-family="Helvetica,sans-Serif" font-size="10.00">and 7 more...</text>
</a>
</g>
</g>
<!-- Node7&#45;&gt;Node4 -->
<g id="edge4" class="edge"><title>Node7&#45;&gt;Node4</title>
<path fill="none" stroke="midnightblue" d="M206.289,-227.084C205.687,-198.793 205.062,-169.436 204.557,-145.695"/>
<polygon fill="none" stroke="midnightblue" points="202.797,-227.523 206.51,-237.447 209.796,-227.374 202.797,-227.523"/>
</g>
</g>
</svg>
