<?xml version="1.0" encoding="UTF-8" standalone="no"?>
<!DOCTYPE svg PUBLIC "-//W3C//DTD SVG 1.1//EN"
 "http://www.w3.org/Graphics/SVG/1.1/DTD/svg11.dtd">
<!-- Generated by graphviz version 2.38.0 (20140413.2041)
 -->
<!-- Title: NFIWorldGuildEctypeModule Pages: 1 -->
<svg width="150pt" height="160pt"
 viewBox="0.00 0.00 150.00 160.00" xmlns="http://www.w3.org/2000/svg" xmlns:xlink="http://www.w3.org/1999/xlink">
<g id="graph0" class="graph" transform="scale(1 1) rotate(0) translate(4 156)">
<title>NFIWorldGuildEctypeModule</title>
<polygon fill="white" stroke="none" points="-4,4 -4,-156 146,-156 146,4 -4,4"/>
<!-- Node2 -->
<g id="node1" class="node"><title>Node2</title>
<polygon fill="#bfbfbf" stroke="black" points="0,-0.5 0,-57.5 142,-57.5 142,-0.5 0,-0.5"/>
<text text-anchor="middle" x="71" y="-45.5" font-family="Helvetica,sans-Serif" font-size="10.00">NFIWorldGuildEctypeModule</text>
<polyline fill="none" stroke="black" points="0,-38.5 142,-38.5 "/>
<text text-anchor="middle" x="71" y="-26.5" font-family="Helvetica,sans-Serif" font-size="10.00"> </text>
<polyline fill="none" stroke="black" points="0,-19.5 142,-19.5 "/>
<text text-anchor="middle" x="71" y="-7.5" font-family="Helvetica,sans-Serif" font-size="10.00"> </text>
</g>
<!-- Node3 -->
<g id="node2" class="node"><title>Node3</title>
<polygon fill="white" stroke="#bfbfbf" points="28,-94.5 28,-151.5 114,-151.5 114,-94.5 28,-94.5"/>
<text text-anchor="middle" x="71" y="-139.5" font-family="Helvetica,sans-Serif" font-size="10.00">NFILogicModule</text>
<polyline fill="none" stroke="#bfbfbf" points="28,-132.5 114,-132.5 "/>
<text text-anchor="middle" x="71" y="-120.5" font-family="Helvetica,sans-Serif" font-size="10.00"> </text>
<polyline fill="none" stroke="#bfbfbf" points="28,-113.5 114,-113.5 "/>
<text text-anchor="middle" x="71" y="-101.5" font-family="Helvetica,sans-Serif" font-size="10.00"> </text>
</g>
<!-- Node3&#45;&gt;Node2 -->
<g id="edge1" class="edge"><title>Node3&#45;&gt;Node2</title>
<path fill="none" stroke="midnightblue" d="M71,-84.2092C71,-75.2929 71,-65.9513 71,-57.5836"/>
<polygon fill="none" stroke="midnightblue" points="67.5001,-84.3969 71,-94.397 74.5001,-84.397 67.5001,-84.3969"/>
</g>
</g>
</svg>
