<?xml version="1.0" encoding="UTF-8" standalone="no"?>
<!DOCTYPE svg PUBLIC "-//W3C//DTD SVG 1.1//EN"
 "http://www.w3.org/Graphics/SVG/1.1/DTD/svg11.dtd">
<!-- Generated by graphviz version 2.38.0 (20140413.2041)
 -->
<!-- Title: NFIGameServerConfigModule Pages: 1 -->
<svg width="151pt" height="314pt"
 viewBox="0.00 0.00 151.00 314.00" xmlns="http://www.w3.org/2000/svg" xmlns:xlink="http://www.w3.org/1999/xlink">
<g id="graph0" class="graph" transform="scale(1 1) rotate(0) translate(4 310)">
<title>NFIGameServerConfigModule</title>
<polygon fill="white" stroke="none" points="-4,4 -4,-310 147,-310 147,4 -4,4"/>
<!-- Node0 -->
<g id="node1" class="node"><title>Node0</title>
<polygon fill="#bfbfbf" stroke="black" points="0,-0.5 0,-68.5 143,-68.5 143,-0.5 0,-0.5"/>
<text text-anchor="middle" x="71.5" y="-56.5" font-family="Helvetica,sans-Serif" font-size="10.00">NFIGameServerConfigModule</text>
<polyline fill="none" stroke="black" points="0,-49.5 143,-49.5 "/>
<text text-anchor="middle" x="71.5" y="-37.5" font-family="Helvetica,sans-Serif" font-size="10.00"> </text>
<polyline fill="none" stroke="black" points="0,-30.5 143,-30.5 "/>
<text text-anchor="start" x="8" y="-18.5" font-family="Helvetica,sans-Serif" font-size="10.00">+ AddSceneToActor()</text>
<text text-anchor="start" x="8" y="-7.5" font-family="Helvetica,sans-Serif" font-size="10.00">+ GetActorID()</text>
</g>
<!-- Node1 -->
<g id="node2" class="node"><title>Node1</title>
<g id="a_node2"><a xlink:href="class_n_f_i_module.html" target="_top" xlink:title="{NFIModule\n|+ strName\l# pPluginManager\l# mbReloading\l|+ NFIModule()\l+ ~NFIModule()\l+ Init()\l+ AfterInit()\l+ CheckConfig()\l+ BeforeShut()\l+ Shut()\l+ Execute()\l+ StartReLoadState()\l+ EndReLoadState()\l+ GetPluginManager()\l+ Loading()\l}">
<polygon fill="white" stroke="black" points="15.5,-105.5 15.5,-305.5 127.5,-305.5 127.5,-105.5 15.5,-105.5"/>
<text text-anchor="middle" x="71.5" y="-293.5" font-family="Helvetica,sans-Serif" font-size="10.00">NFIModule</text>
<polyline fill="none" stroke="black" points="15.5,-286.5 127.5,-286.5 "/>
<text text-anchor="start" x="23.5" y="-274.5" font-family="Helvetica,sans-Serif" font-size="10.00">+ strName</text>
<text text-anchor="start" x="23.5" y="-263.5" font-family="Helvetica,sans-Serif" font-size="10.00"># pPluginManager</text>
<text text-anchor="start" x="23.5" y="-252.5" font-family="Helvetica,sans-Serif" font-size="10.00"># mbReloading</text>
<polyline fill="none" stroke="black" points="15.5,-245.5 127.5,-245.5 "/>
<text text-anchor="start" x="23.5" y="-233.5" font-family="Helvetica,sans-Serif" font-size="10.00">+ NFIModule()</text>
<text text-anchor="start" x="23.5" y="-222.5" font-family="Helvetica,sans-Serif" font-size="10.00">+ ~NFIModule()</text>
<text text-anchor="start" x="23.5" y="-211.5" font-family="Helvetica,sans-Serif" font-size="10.00">+ Init()</text>
<text text-anchor="start" x="23.5" y="-200.5" font-family="Helvetica,sans-Serif" font-size="10.00">+ AfterInit()</text>
<text text-anchor="start" x="23.5" y="-189.5" font-family="Helvetica,sans-Serif" font-size="10.00">+ CheckConfig()</text>
<text text-anchor="start" x="23.5" y="-178.5" font-family="Helvetica,sans-Serif" font-size="10.00">+ BeforeShut()</text>
<text text-anchor="start" x="23.5" y="-167.5" font-family="Helvetica,sans-Serif" font-size="10.00">+ Shut()</text>
<text text-anchor="start" x="23.5" y="-156.5" font-family="Helvetica,sans-Serif" font-size="10.00">+ Execute()</text>
<text text-anchor="start" x="23.5" y="-145.5" font-family="Helvetica,sans-Serif" font-size="10.00">+ StartReLoadState()</text>
<text text-anchor="start" x="23.5" y="-134.5" font-family="Helvetica,sans-Serif" font-size="10.00">+ EndReLoadState()</text>
<text text-anchor="start" x="23.5" y="-123.5" font-family="Helvetica,sans-Serif" font-size="10.00">+ GetPluginManager()</text>
<text text-anchor="start" x="23.5" y="-112.5" font-family="Helvetica,sans-Serif" font-size="10.00">+ Loading()</text>
</a>
</g>
</g>
<!-- Node1&#45;&gt;Node0 -->
<g id="edge1" class="edge"><title>Node1&#45;&gt;Node0</title>
<path fill="none" stroke="midnightblue" d="M71.5,-94.9218C71.5,-85.5767 71.5,-76.6815 71.5,-68.7534"/>
<polygon fill="none" stroke="midnightblue" points="68.0001,-95.2144 71.5,-105.214 75.0001,-95.2145 68.0001,-95.2144"/>
</g>
</g>
</svg>
