<?xml version="1.0" encoding="UTF-8" standalone="no"?>
<!DOCTYPE svg PUBLIC "-//W3C//DTD SVG 1.1//EN"
 "http://www.w3.org/Graphics/SVG/1.1/DTD/svg11.dtd">
<!-- Generated by graphviz version 2.38.0 (20140413.2041)
 -->
<!-- Title: NFCGameServerModule Pages: 1 -->
<svg width="721pt" height="639pt"
 viewBox="0.00 0.00 721.00 639.00" xmlns="http://www.w3.org/2000/svg" xmlns:xlink="http://www.w3.org/1999/xlink">
<g id="graph0" class="graph" transform="scale(1 1) rotate(0) translate(4 635)">
<title>NFCGameServerModule</title>
<polygon fill="white" stroke="none" points="-4,4 -4,-635 717,-635 717,4 -4,4"/>
<!-- Node3 -->
<g id="node1" class="node"><title>Node3</title>
<polygon fill="#bfbfbf" stroke="black" points="243.5,-0.5 243.5,-123.5 385.5,-123.5 385.5,-0.5 243.5,-0.5"/>
<text text-anchor="middle" x="314.5" y="-111.5" font-family="Helvetica,sans-Serif" font-size="10.00">NFCGameServerModule</text>
<polyline fill="none" stroke="black" points="243.5,-104.5 385.5,-104.5 "/>
<text text-anchor="middle" x="314.5" y="-92.5" font-family="Helvetica,sans-Serif" font-size="10.00"> </text>
<polyline fill="none" stroke="black" points="243.5,-85.5 385.5,-85.5 "/>
<text text-anchor="start" x="251.5" y="-73.5" font-family="Helvetica,sans-Serif" font-size="10.00">+ NFCGameServerModule()</text>
<text text-anchor="start" x="251.5" y="-62.5" font-family="Helvetica,sans-Serif" font-size="10.00">+ ~NFCGameServerModule()</text>
<text text-anchor="start" x="251.5" y="-51.5" font-family="Helvetica,sans-Serif" font-size="10.00">+ Init()</text>
<text text-anchor="start" x="251.5" y="-40.5" font-family="Helvetica,sans-Serif" font-size="10.00">+ Shut()</text>
<text text-anchor="start" x="251.5" y="-29.5" font-family="Helvetica,sans-Serif" font-size="10.00">+ Execute()</text>
<text text-anchor="start" x="251.5" y="-18.5" font-family="Helvetica,sans-Serif" font-size="10.00">+ AfterInit()</text>
<text text-anchor="start" x="251.5" y="-7.5" font-family="Helvetica,sans-Serif" font-size="10.00">+ BeforeShut()</text>
</g>
<!-- Node4 -->
<g id="node2" class="node"><title>Node4</title>
<g id="a_node2"><a xlink:href="class_n_f_i_game_server_module.html" target="_top" xlink:title="{NFIGameServerModule\n||}">
<polygon fill="white" stroke="black" points="419.5,-254 419.5,-311 535.5,-311 535.5,-254 419.5,-254"/>
<text text-anchor="middle" x="477.5" y="-299" font-family="Helvetica,sans-Serif" font-size="10.00">NFIGameServerModule</text>
<polyline fill="none" stroke="black" points="419.5,-292 535.5,-292 "/>
<text text-anchor="middle" x="477.5" y="-280" font-family="Helvetica,sans-Serif" font-size="10.00"> </text>
<polyline fill="none" stroke="black" points="419.5,-273 535.5,-273 "/>
<text text-anchor="middle" x="477.5" y="-261" font-family="Helvetica,sans-Serif" font-size="10.00"> </text>
</a>
</g>
</g>
<!-- Node4&#45;&gt;Node3 -->
<g id="edge1" class="edge"><title>Node4&#45;&gt;Node3</title>
<path fill="none" stroke="midnightblue" d="M457.228,-245.143C444.424,-223.09 427.035,-194.721 409.5,-171 397.773,-155.136 384.237,-138.778 371.126,-123.742"/>
<polygon fill="none" stroke="midnightblue" points="454.228,-246.947 462.248,-253.87 460.296,-243.456 454.228,-246.947"/>
</g>
<!-- Node5 -->
<g id="node3" class="node"><title>Node5</title>
<g id="a_node3"><a xlink:href="class_n_f_i_module.html" target="_top" xlink:title="{NFIModule\n|+ strName\l# mbReloading\l|+ NFIModule()\l+ ~NFIModule()\l+ Init()\l+ AfterInit()\l+ CheckConfig()\l+ BeforeShut()\l+ Shut()\l+ Execute()\l+ StartReLoadState()\l+ EndReLoadState()\l+ GetPluginManager()\l+ Loading()\l}">
<polygon fill="white" stroke="black" points="281.5,-441.5 281.5,-630.5 393.5,-630.5 393.5,-441.5 281.5,-441.5"/>
<text text-anchor="middle" x="337.5" y="-618.5" font-family="Helvetica,sans-Serif" font-size="10.00">NFIModule</text>
<polyline fill="none" stroke="black" points="281.5,-611.5 393.5,-611.5 "/>
<text text-anchor="start" x="289.5" y="-599.5" font-family="Helvetica,sans-Serif" font-size="10.00">+ strName</text>
<text text-anchor="start" x="289.5" y="-588.5" font-family="Helvetica,sans-Serif" font-size="10.00"># mbReloading</text>
<polyline fill="none" stroke="black" points="281.5,-581.5 393.5,-581.5 "/>
<text text-anchor="start" x="289.5" y="-569.5" font-family="Helvetica,sans-Serif" font-size="10.00">+ NFIModule()</text>
<text text-anchor="start" x="289.5" y="-558.5" font-family="Helvetica,sans-Serif" font-size="10.00">+ ~NFIModule()</text>
<text text-anchor="start" x="289.5" y="-547.5" font-family="Helvetica,sans-Serif" font-size="10.00">+ Init()</text>
<text text-anchor="start" x="289.5" y="-536.5" font-family="Helvetica,sans-Serif" font-size="10.00">+ AfterInit()</text>
<text text-anchor="start" x="289.5" y="-525.5" font-family="Helvetica,sans-Serif" font-size="10.00">+ CheckConfig()</text>
<text text-anchor="start" x="289.5" y="-514.5" font-family="Helvetica,sans-Serif" font-size="10.00">+ BeforeShut()</text>
<text text-anchor="start" x="289.5" y="-503.5" font-family="Helvetica,sans-Serif" font-size="10.00">+ Shut()</text>
<text text-anchor="start" x="289.5" y="-492.5" font-family="Helvetica,sans-Serif" font-size="10.00">+ Execute()</text>
<text text-anchor="start" x="289.5" y="-481.5" font-family="Helvetica,sans-Serif" font-size="10.00">+ StartReLoadState()</text>
<text text-anchor="start" x="289.5" y="-470.5" font-family="Helvetica,sans-Serif" font-size="10.00">+ EndReLoadState()</text>
<text text-anchor="start" x="289.5" y="-459.5" font-family="Helvetica,sans-Serif" font-size="10.00">+ GetPluginManager()</text>
<text text-anchor="start" x="289.5" y="-448.5" font-family="Helvetica,sans-Serif" font-size="10.00">+ Loading()</text>
</a>
</g>
</g>
<!-- Node5&#45;&gt;Node4 -->
<g id="edge2" class="edge"><title>Node5&#45;&gt;Node4</title>
<path fill="none" stroke="midnightblue" d="M399.55,-461.405C408.559,-449.002 417.23,-435.943 424.5,-423 445.117,-386.293 460.915,-339.979 469.705,-311.044"/>
<polygon fill="none" stroke="midnightblue" points="396.729,-459.332 393.592,-469.452 402.355,-463.498 396.729,-459.332"/>
</g>
<!-- Node6 -->
<g id="node4" class="node"><title>Node6</title>
<g id="a_node4"><a xlink:href="class_n_f_i_plugin_manager.html" target="_top" xlink:title="{NFIPluginManager\n||+ NFIPluginManager()\l+ FindModule()\l+ Registered()\l+ UnRegistered()\l+ FindPlugin()\l+ AddModule()\l+ RemoveModule()\l+ FindModule()\l+ AppID()\l+ GetInitTime()\l+ GetNowTime()\l+ GetConfigPath()\l+ SetConfigName()\l}">
<polygon fill="white" stroke="black" points="290,-188 290,-377 401,-377 401,-188 290,-188"/>
<text text-anchor="middle" x="345.5" y="-365" font-family="Helvetica,sans-Serif" font-size="10.00">NFIPluginManager</text>
<polyline fill="none" stroke="black" points="290,-358 401,-358 "/>
<text text-anchor="middle" x="345.5" y="-346" font-family="Helvetica,sans-Serif" font-size="10.00"> </text>
<polyline fill="none" stroke="black" points="290,-339 401,-339 "/>
<text text-anchor="start" x="298" y="-327" font-family="Helvetica,sans-Serif" font-size="10.00">+ NFIPluginManager()</text>
<text text-anchor="start" x="298" y="-316" font-family="Helvetica,sans-Serif" font-size="10.00">+ FindModule()</text>
<text text-anchor="start" x="298" y="-305" font-family="Helvetica,sans-Serif" font-size="10.00">+ Registered()</text>
<text text-anchor="start" x="298" y="-294" font-family="Helvetica,sans-Serif" font-size="10.00">+ UnRegistered()</text>
<text text-anchor="start" x="298" y="-283" font-family="Helvetica,sans-Serif" font-size="10.00">+ FindPlugin()</text>
<text text-anchor="start" x="298" y="-272" font-family="Helvetica,sans-Serif" font-size="10.00">+ AddModule()</text>
<text text-anchor="start" x="298" y="-261" font-family="Helvetica,sans-Serif" font-size="10.00">+ RemoveModule()</text>
<text text-anchor="start" x="298" y="-250" font-family="Helvetica,sans-Serif" font-size="10.00">+ FindModule()</text>
<text text-anchor="start" x="298" y="-239" font-family="Helvetica,sans-Serif" font-size="10.00">+ AppID()</text>
<text text-anchor="start" x="298" y="-228" font-family="Helvetica,sans-Serif" font-size="10.00">+ GetInitTime()</text>
<text text-anchor="start" x="298" y="-217" font-family="Helvetica,sans-Serif" font-size="10.00">+ GetNowTime()</text>
<text text-anchor="start" x="298" y="-206" font-family="Helvetica,sans-Serif" font-size="10.00">+ GetConfigPath()</text>
<text text-anchor="start" x="298" y="-195" font-family="Helvetica,sans-Serif" font-size="10.00">+ SetConfigName()</text>
</a>
</g>
</g>
<!-- Node5&#45;&gt;Node6 -->
<g id="edge4" class="edge"><title>Node5&#45;&gt;Node6</title>
<path fill="none" stroke="midnightblue" d="M337.044,-431.113C337.157,-424.645 337.306,-418.233 337.5,-412 337.851,-400.718 338.375,-388.886 338.989,-377.161"/>
<polygon fill="none" stroke="midnightblue" points="333.541,-431.257 336.895,-441.307 340.54,-431.359 333.541,-431.257"/>
</g>
<!-- Node7 -->
<g id="node5" class="node"><title>Node7</title>
<g id="a_node5"><a xlink:href="class_n_f_i_kernel_module.html" target="_top" xlink:title="{NFIKernelModule\n||+ AddHeartBeat()\l+ FindHeartBeat()\l+ RemoveHeartBeat()\l+ AddRecordCallBack()\l+ AddPropertyCallBack()\l+ AddEventCallBack()\l+ AddClassCallBack()\l+ DoEvent()\l+ DoEvent()\l+ RegisterCommonClassEvent()\land 56 more...\l# AddEventCallBack()\l# AddClassCallBack()\l# RegisterCommonClassEvent()\l# RegisterCommonPropertyEvent()\l# RegisterCommonRecordEvent()\l}">
<polygon fill="white" stroke="black" points="0,-171.5 0,-393.5 167,-393.5 167,-171.5 0,-171.5"/>
<text text-anchor="middle" x="83.5" y="-381.5" font-family="Helvetica,sans-Serif" font-size="10.00">NFIKernelModule</text>
<polyline fill="none" stroke="black" points="0,-374.5 167,-374.5 "/>
<text text-anchor="middle" x="83.5" y="-362.5" font-family="Helvetica,sans-Serif" font-size="10.00"> </text>
<polyline fill="none" stroke="black" points="0,-355.5 167,-355.5 "/>
<text text-anchor="start" x="8" y="-343.5" font-family="Helvetica,sans-Serif" font-size="10.00">+ AddHeartBeat()</text>
<text text-anchor="start" x="8" y="-332.5" font-family="Helvetica,sans-Serif" font-size="10.00">+ FindHeartBeat()</text>
<text text-anchor="start" x="8" y="-321.5" font-family="Helvetica,sans-Serif" font-size="10.00">+ RemoveHeartBeat()</text>
<text text-anchor="start" x="8" y="-310.5" font-family="Helvetica,sans-Serif" font-size="10.00">+ AddRecordCallBack()</text>
<text text-anchor="start" x="8" y="-299.5" font-family="Helvetica,sans-Serif" font-size="10.00">+ AddPropertyCallBack()</text>
<text text-anchor="start" x="8" y="-288.5" font-family="Helvetica,sans-Serif" font-size="10.00">+ AddEventCallBack()</text>
<text text-anchor="start" x="8" y="-277.5" font-family="Helvetica,sans-Serif" font-size="10.00">+ AddClassCallBack()</text>
<text text-anchor="start" x="8" y="-266.5" font-family="Helvetica,sans-Serif" font-size="10.00">+ DoEvent()</text>
<text text-anchor="start" x="8" y="-255.5" font-family="Helvetica,sans-Serif" font-size="10.00">+ DoEvent()</text>
<text text-anchor="start" x="8" y="-244.5" font-family="Helvetica,sans-Serif" font-size="10.00">+ RegisterCommonClassEvent()</text>
<text text-anchor="start" x="8" y="-233.5" font-family="Helvetica,sans-Serif" font-size="10.00">and 56 more...</text>
<text text-anchor="start" x="8" y="-222.5" font-family="Helvetica,sans-Serif" font-size="10.00"># AddEventCallBack()</text>
<text text-anchor="start" x="8" y="-211.5" font-family="Helvetica,sans-Serif" font-size="10.00"># AddClassCallBack()</text>
<text text-anchor="start" x="8" y="-200.5" font-family="Helvetica,sans-Serif" font-size="10.00"># RegisterCommonClassEvent()</text>
<text text-anchor="start" x="8" y="-189.5" font-family="Helvetica,sans-Serif" font-size="10.00"># RegisterCommonPropertyEvent()</text>
<text text-anchor="start" x="8" y="-178.5" font-family="Helvetica,sans-Serif" font-size="10.00"># RegisterCommonRecordEvent()</text>
</a>
</g>
</g>
<!-- Node5&#45;&gt;Node7 -->
<g id="edge6" class="edge"><title>Node5&#45;&gt;Node7</title>
<path fill="none" stroke="midnightblue" d="M273.241,-482.611C242.921,-456.929 206.827,-424.929 176.5,-394 173.428,-390.867 170.341,-387.646 167.256,-384.363"/>
<polygon fill="none" stroke="midnightblue" points="271.321,-485.571 281.223,-489.34 275.833,-480.218 271.321,-485.571"/>
</g>
<!-- Node8 -->
<g id="node6" class="node"><title>Node8</title>
<g id="a_node6"><a xlink:href="class_n_f_i_class_module.html" target="_top" xlink:title="{NFIClassModule\n||+ ~NFIClassModule()\l+ Load()\l+ Save()\l+ Clear()\l+ AddClassCallBack()\l+ DoEvent()\l+ AddClassCallBack()\l+ GetClassPropertyManager()\l+ GetClassRecordManager()\l+ GetClassComponentManager()\l}">
<polygon fill="white" stroke="black" points="554,-204.5 554,-360.5 713,-360.5 713,-204.5 554,-204.5"/>
<text text-anchor="middle" x="633.5" y="-348.5" font-family="Helvetica,sans-Serif" font-size="10.00">NFIClassModule</text>
<polyline fill="none" stroke="black" points="554,-341.5 713,-341.5 "/>
<text text-anchor="middle" x="633.5" y="-329.5" font-family="Helvetica,sans-Serif" font-size="10.00"> </text>
<polyline fill="none" stroke="black" points="554,-322.5 713,-322.5 "/>
<text text-anchor="start" x="562" y="-310.5" font-family="Helvetica,sans-Serif" font-size="10.00">+ ~NFIClassModule()</text>
<text text-anchor="start" x="562" y="-299.5" font-family="Helvetica,sans-Serif" font-size="10.00">+ Load()</text>
<text text-anchor="start" x="562" y="-288.5" font-family="Helvetica,sans-Serif" font-size="10.00">+ Save()</text>
<text text-anchor="start" x="562" y="-277.5" font-family="Helvetica,sans-Serif" font-size="10.00">+ Clear()</text>
<text text-anchor="start" x="562" y="-266.5" font-family="Helvetica,sans-Serif" font-size="10.00">+ AddClassCallBack()</text>
<text text-anchor="start" x="562" y="-255.5" font-family="Helvetica,sans-Serif" font-size="10.00">+ DoEvent()</text>
<text text-anchor="start" x="562" y="-244.5" font-family="Helvetica,sans-Serif" font-size="10.00">+ AddClassCallBack()</text>
<text text-anchor="start" x="562" y="-233.5" font-family="Helvetica,sans-Serif" font-size="10.00">+ GetClassPropertyManager()</text>
<text text-anchor="start" x="562" y="-222.5" font-family="Helvetica,sans-Serif" font-size="10.00">+ GetClassRecordManager()</text>
<text text-anchor="start" x="562" y="-211.5" font-family="Helvetica,sans-Serif" font-size="10.00">+ GetClassComponentManager()</text>
</a>
</g>
</g>
<!-- Node5&#45;&gt;Node8 -->
<g id="edge8" class="edge"><title>Node5&#45;&gt;Node8</title>
<path fill="none" stroke="midnightblue" d="M402.549,-497.61C445.239,-471.463 501.005,-434.144 544.5,-394 555.451,-383.892 566.197,-372.391 576.223,-360.718"/>
<polygon fill="none" stroke="midnightblue" points="400.65,-494.669 393.921,-502.852 404.284,-500.651 400.65,-494.669"/>
</g>
<!-- Node10 -->
<g id="node8" class="node"><title>Node10</title>
<g id="a_node8"><a xlink:href="class_n_f_i_u_u_i_d_module.html" target="_top" xlink:title="{NFIUUIDModule\n||+ CreateGUID()\l+ GetIdentID()\l+ SetIdentID()\l}">
<polygon fill="white" stroke="black" points="185.5,-243 185.5,-322 271.5,-322 271.5,-243 185.5,-243"/>
<text text-anchor="middle" x="228.5" y="-310" font-family="Helvetica,sans-Serif" font-size="10.00">NFIUUIDModule</text>
<polyline fill="none" stroke="black" points="185.5,-303 271.5,-303 "/>
<text text-anchor="middle" x="228.5" y="-291" font-family="Helvetica,sans-Serif" font-size="10.00"> </text>
<polyline fill="none" stroke="black" points="185.5,-284 271.5,-284 "/>
<text text-anchor="start" x="193.5" y="-272" font-family="Helvetica,sans-Serif" font-size="10.00">+ CreateGUID()</text>
<text text-anchor="start" x="193.5" y="-261" font-family="Helvetica,sans-Serif" font-size="10.00">+ GetIdentID()</text>
<text text-anchor="start" x="193.5" y="-250" font-family="Helvetica,sans-Serif" font-size="10.00">+ SetIdentID()</text>
</a>
</g>
</g>
<!-- Node5&#45;&gt;Node10 -->
<g id="edge11" class="edge"><title>Node5&#45;&gt;Node10</title>
<path fill="none" stroke="midnightblue" d="M292.891,-432.072C276.052,-393.22 257.91,-351.36 245.188,-322.005"/>
<polygon fill="none" stroke="midnightblue" points="289.724,-433.567 296.912,-441.351 296.147,-430.784 289.724,-433.567"/>
</g>
<!-- Node6&#45;&gt;Node5 -->
<g id="edge3" class="edge"><title>Node6&#45;&gt;Node5</title>
<path fill="none" stroke="#404040" d="M342.519,-377.228C341.98,-394.169 341.414,-411.941 340.865,-429.199"/>
<polygon fill="none" stroke="#404040" points="340.861,-429.357 344.668,-435.481 340.479,-441.351 336.672,-435.227 340.861,-429.357"/>
<text text-anchor="middle" x="381" y="-415" font-family="Helvetica,sans-Serif" font-size="10.00"> #pPluginManager</text>
</g>
<!-- Node7&#45;&gt;Node3 -->
<g id="edge5" class="edge"><title>Node7&#45;&gt;Node3</title>
<path fill="none" stroke="#404040" d="M160.359,-171.15C169.344,-160.834 178.788,-150.918 188.5,-142 201.916,-129.681 217.507,-118.152 233.055,-107.913"/>
<polygon fill="none" stroke="#404040" points="233.142,-107.857 236.032,-101.25 243.242,-101.376 240.352,-107.983 233.142,-107.857"/>
<text text-anchor="middle" x="232" y="-145" font-family="Helvetica,sans-Serif" font-size="10.00"> #m_pKernelModule</text>
</g>
<!-- Node8&#45;&gt;Node3 -->
<g id="edge7" class="edge"><title>Node8&#45;&gt;Node3</title>
<path fill="none" stroke="#404040" d="M579.076,-204.414C568.474,-192.331 556.8,-180.663 544.5,-171 500.275,-136.258 443.057,-109.334 396.755,-91.0585"/>
<polygon fill="none" stroke="#404040" points="396.728,-91.0482 389.688,-92.6115 385.538,-86.7146 392.577,-85.1513 396.728,-91.0482"/>
<text text-anchor="middle" x="557.5" y="-145" font-family="Helvetica,sans-Serif" font-size="10.00"> #m_pClassModule</text>
</g>
<!-- Node9 -->
<g id="node7" class="node"><title>Node9</title>
<g id="a_node7"><a xlink:href="class_n_f_map_ex.html" target="_top" xlink:title="{NFMapEx\&lt; std::string,\l NFIClass \&gt;\n|&#45; mObjectList\l&#45; mObjectCurIter\l|+ NFMapEx()\l+ ~NFMapEx()\l+ AddElement()\l+ SetElement()\l+ RemoveElement()\l+ GetElementNude()\l+ GetElement()\l+ FirstNude()\l+ FirstNude()\l+ NextNude()\land 7 more...\l}">
<polygon fill="white" stroke="black" points="575.5,-441.5 575.5,-630.5 691.5,-630.5 691.5,-441.5 575.5,-441.5"/>
<text text-anchor="start" x="583.5" y="-618.5" font-family="Helvetica,sans-Serif" font-size="10.00">NFMapEx&lt; std::string,</text>
<text text-anchor="middle" x="633.5" y="-607.5" font-family="Helvetica,sans-Serif" font-size="10.00"> NFIClass &gt;</text>
<polyline fill="none" stroke="black" points="575.5,-600.5 691.5,-600.5 "/>
<text text-anchor="start" x="583.5" y="-588.5" font-family="Helvetica,sans-Serif" font-size="10.00">&#45; mObjectList</text>
<text text-anchor="start" x="583.5" y="-577.5" font-family="Helvetica,sans-Serif" font-size="10.00">&#45; mObjectCurIter</text>
<polyline fill="none" stroke="black" points="575.5,-570.5 691.5,-570.5 "/>
<text text-anchor="start" x="583.5" y="-558.5" font-family="Helvetica,sans-Serif" font-size="10.00">+ NFMapEx()</text>
<text text-anchor="start" x="583.5" y="-547.5" font-family="Helvetica,sans-Serif" font-size="10.00">+ ~NFMapEx()</text>
<text text-anchor="start" x="583.5" y="-536.5" font-family="Helvetica,sans-Serif" font-size="10.00">+ AddElement()</text>
<text text-anchor="start" x="583.5" y="-525.5" font-family="Helvetica,sans-Serif" font-size="10.00">+ SetElement()</text>
<text text-anchor="start" x="583.5" y="-514.5" font-family="Helvetica,sans-Serif" font-size="10.00">+ RemoveElement()</text>
<text text-anchor="start" x="583.5" y="-503.5" font-family="Helvetica,sans-Serif" font-size="10.00">+ GetElementNude()</text>
<text text-anchor="start" x="583.5" y="-492.5" font-family="Helvetica,sans-Serif" font-size="10.00">+ GetElement()</text>
<text text-anchor="start" x="583.5" y="-481.5" font-family="Helvetica,sans-Serif" font-size="10.00">+ FirstNude()</text>
<text text-anchor="start" x="583.5" y="-470.5" font-family="Helvetica,sans-Serif" font-size="10.00">+ FirstNude()</text>
<text text-anchor="start" x="583.5" y="-459.5" font-family="Helvetica,sans-Serif" font-size="10.00">+ NextNude()</text>
<text text-anchor="start" x="583.5" y="-448.5" font-family="Helvetica,sans-Serif" font-size="10.00">and 7 more...</text>
</a>
</g>
</g>
<!-- Node9&#45;&gt;Node8 -->
<g id="edge9" class="edge"><title>Node9&#45;&gt;Node8</title>
<path fill="none" stroke="midnightblue" d="M633.5,-431.314C633.5,-407.72 633.5,-383.055 633.5,-360.785"/>
<polygon fill="none" stroke="midnightblue" points="630,-431.351 633.5,-441.351 637,-431.351 630,-431.351"/>
</g>
<!-- Node10&#45;&gt;Node3 -->
<g id="edge10" class="edge"><title>Node10&#45;&gt;Node3</title>
<path fill="none" stroke="#404040" d="M243.677,-242.94C255.382,-213.202 271.906,-171.218 286.05,-135.283"/>
<polygon fill="none" stroke="#404040" points="286.154,-135.018 284.63,-127.97 290.549,-123.852 292.074,-130.9 286.154,-135.018"/>
<text text-anchor="middle" x="323.5" y="-145" font-family="Helvetica,sans-Serif" font-size="10.00"> #m_pUUIDModule</text>
</g>
</g>
</svg>
