<?xml version="1.0" encoding="UTF-8" standalone="no"?>
<!DOCTYPE svg PUBLIC "-//W3C//DTD SVG 1.1//EN"
 "http://www.w3.org/Graphics/SVG/1.1/DTD/svg11.dtd">
<!-- Generated by graphviz version 2.38.0 (20140413.2041)
 -->
<!-- Title: NFCAddConsistentHash Pages: 1 -->
<svg width="151pt" height="420pt"
 viewBox="0.00 0.00 151.00 420.00" xmlns="http://www.w3.org/2000/svg" xmlns:xlink="http://www.w3.org/1999/xlink">
<g id="graph0" class="graph" transform="scale(1 1) rotate(0) translate(4 416)">
<title>NFCAddConsistentHash</title>
<polygon fill="white" stroke="none" points="-4,4 -4,-416 147,-416 147,4 -4,4"/>
<!-- Node2 -->
<g id="node1" class="node"><title>Node2</title>
<polygon fill="#bfbfbf" stroke="black" points="0,-0.5 0,-90.5 143,-90.5 143,-0.5 0,-0.5"/>
<text text-anchor="middle" x="71.5" y="-78.5" font-family="Helvetica,sans-Serif" font-size="10.00">NFCAddConsistentHash</text>
<polyline fill="none" stroke="black" points="0,-71.5 143,-71.5 "/>
<text text-anchor="middle" x="71.5" y="-59.5" font-family="Helvetica,sans-Serif" font-size="10.00"> </text>
<polyline fill="none" stroke="black" points="0,-52.5 143,-52.5 "/>
<text text-anchor="start" x="8" y="-40.5" font-family="Helvetica,sans-Serif" font-size="10.00">+ NFCAddConsistentHash()</text>
<text text-anchor="start" x="8" y="-29.5" font-family="Helvetica,sans-Serif" font-size="10.00">+ ~NFCAddConsistentHash()</text>
<text text-anchor="start" x="8" y="-18.5" font-family="Helvetica,sans-Serif" font-size="10.00">+ AddCandidateMachine()</text>
<text text-anchor="start" x="8" y="-7.5" font-family="Helvetica,sans-Serif" font-size="10.00">+ IntanceCandidateMachine()</text>
</g>
<!-- Node3 -->
<g id="node2" class="node"><title>Node3</title>
<g id="a_node2"><a xlink:href="class_n_f_c_consistent_hash.html" target="_top" xlink:title="A nfc consistent hash. ">
<polygon fill="white" stroke="black" points="8.5,-128.5 8.5,-306.5 134.5,-306.5 134.5,-128.5 8.5,-128.5"/>
<text text-anchor="middle" x="71.5" y="-294.5" font-family="Helvetica,sans-Serif" font-size="10.00">NFCConsistentHash</text>
<polyline fill="none" stroke="black" points="8.5,-287.5 134.5,-287.5 "/>
<text text-anchor="start" x="16.5" y="-275.5" font-family="Helvetica,sans-Serif" font-size="10.00">&#45; mxNodes</text>
<polyline fill="none" stroke="black" points="8.5,-268.5 134.5,-268.5 "/>
<text text-anchor="start" x="16.5" y="-256.5" font-family="Helvetica,sans-Serif" font-size="10.00">+ NFCConsistentHash()</text>
<text text-anchor="start" x="16.5" y="-245.5" font-family="Helvetica,sans-Serif" font-size="10.00">+ ~NFCConsistentHash()</text>
<text text-anchor="start" x="16.5" y="-234.5" font-family="Helvetica,sans-Serif" font-size="10.00">+ Size()</text>
<text text-anchor="start" x="16.5" y="-223.5" font-family="Helvetica,sans-Serif" font-size="10.00">+ Empty()</text>
<text text-anchor="start" x="16.5" y="-212.5" font-family="Helvetica,sans-Serif" font-size="10.00">+ Insert()</text>
<text text-anchor="start" x="16.5" y="-201.5" font-family="Helvetica,sans-Serif" font-size="10.00">+ Insert()</text>
<text text-anchor="start" x="16.5" y="-190.5" font-family="Helvetica,sans-Serif" font-size="10.00">+ Exist()</text>
<text text-anchor="start" x="16.5" y="-179.5" font-family="Helvetica,sans-Serif" font-size="10.00">+ Erase()</text>
<text text-anchor="start" x="16.5" y="-168.5" font-family="Helvetica,sans-Serif" font-size="10.00">+ GetSuitNode()</text>
<text text-anchor="start" x="16.5" y="-157.5" font-family="Helvetica,sans-Serif" font-size="10.00">+ GetSuitNode()</text>
<text text-anchor="start" x="16.5" y="-146.5" font-family="Helvetica,sans-Serif" font-size="10.00">+ GetSuitNode()</text>
<text text-anchor="start" x="16.5" y="-135.5" font-family="Helvetica,sans-Serif" font-size="10.00">+ GetNodeList()</text>
</a>
</g>
</g>
<!-- Node3&#45;&gt;Node2 -->
<g id="edge1" class="edge"><title>Node3&#45;&gt;Node2</title>
<path fill="none" stroke="midnightblue" d="M71.5,-117.773C71.5,-108.397 71.5,-99.2503 71.5,-90.8048"/>
<polygon fill="none" stroke="midnightblue" points="68.0001,-118.015 71.5,-128.015 75.0001,-118.015 68.0001,-118.015"/>
</g>
<!-- Node4 -->
<g id="node3" class="node"><title>Node4</title>
<g id="a_node3"><a xlink:href="class_n_f_i_hasher.html" target="_top" xlink:title="A nfi hasher. ">
<polygon fill="white" stroke="black" points="24,-354.5 24,-411.5 119,-411.5 119,-354.5 24,-354.5"/>
<text text-anchor="middle" x="71.5" y="-399.5" font-family="Helvetica,sans-Serif" font-size="10.00">NFIHasher</text>
<polyline fill="none" stroke="black" points="24,-392.5 119,-392.5 "/>
<text text-anchor="middle" x="71.5" y="-380.5" font-family="Helvetica,sans-Serif" font-size="10.00"> </text>
<polyline fill="none" stroke="black" points="24,-373.5 119,-373.5 "/>
<text text-anchor="start" x="32" y="-361.5" font-family="Helvetica,sans-Serif" font-size="10.00">+ GetHashValue()</text>
</a>
</g>
</g>
<!-- Node4&#45;&gt;Node3 -->
<g id="edge2" class="edge"><title>Node4&#45;&gt;Node3</title>
<path fill="none" stroke="#404040" d="M71.5,-354.264C71.5,-344.011 71.5,-331.704 71.5,-318.744"/>
<polygon fill="none" stroke="#404040" points="71.5001,-318.697 67.5,-312.698 71.5,-306.697 75.5,-312.697 71.5001,-318.697"/>
<text text-anchor="middle" x="99.5" y="-328" font-family="Helvetica,sans-Serif" font-size="10.00"> &#45;m_pHasher</text>
</g>
</g>
</svg>
