<?xml version="1.0" encoding="UTF-8" standalone="no"?>
<!DOCTYPE svg PUBLIC "-//W3C//DTD SVG 1.1//EN"
 "http://www.w3.org/Graphics/SVG/1.1/DTD/svg11.dtd">
<!-- Generated by graphviz version 2.38.0 (20140413.2041)
 -->
<!-- Title: NFCUUIDModule Pages: 1 -->
<!--zoomable 672 -->
<svg id="main" version="1.1" xmlns="http://www.w3.org/2000/svg" xmlns:xlink="http://www.w3.org/1999/xlink" xml:space="preserve" onload="init(evt)">
<style type="text/css"><![CDATA[
.edge:hover path { stroke: red; }
.edge:hover polygon { stroke: red; fill: red; }
]]></style>
<script type="text/javascript"><![CDATA[
var edges = document.getElementsByTagName('g');
if (edges && edges.length) {
  for (var i=0;i<edges.length;i++) {
    if (edges[i].id.substr(0,4)=='edge') {
      edges[i].setAttribute('class','edge');
    }
  }
}
]]></script>
        <defs>
                <circle id="rim" cx="0" cy="0" r="7"/>
                <circle id="rim2" cx="0" cy="0" r="3.5"/>
                <g id="zoomPlus">
                        <use xlink:href="#rim" fill="#404040">
                                <set attributeName="fill" to="#808080" begin="zoomplus.mouseover" end="zoomplus.mouseout"/>
                        </use>
                        <path d="M-4,0h8M0,-4v8" fill="none" stroke="white" stroke-width="1.5" pointer-events="none"/>
                </g>
                <g id="zoomMin">
                        <use xlink:href="#rim" fill="#404040">
                                <set attributeName="fill" to="#808080" begin="zoomminus.mouseover" end="zoomminus.mouseout"/>
                        </use>
                        <path d="M-4,0h8" fill="none" stroke="white" stroke-width="1.5" pointer-events="none"/>
                </g>
                <g id="dirArrow">
                        <path fill="none" stroke="white" stroke-width="1.5" d="M0,-3.0v7 M-2.5,-0.5L0,-3.0L2.5,-0.5"/>
                </g>
               <g id="resetDef">
                       <use xlink:href="#rim2" fill="#404040">
                               <set attributeName="fill" to="#808080" begin="reset.mouseover" end="reset.mouseout"/>
                       </use>
               </g>
        </defs>

<script type="text/javascript">
var viewWidth = 526;
var viewHeight = 672;
var sectionId = 'dynsection-1';
</script>
<script xlink:href="svgpan.js"/>
<svg id="graph" class="graph">
<g id="viewport">
<title>NFCUUIDModule</title>
<polygon fill="white" stroke="none" points="-4,4 -4,-668 521.5,-668 521.5,4 -4,4"/>
<!-- Node3 -->
<g id="node1" class="node"><title>Node3</title>
<polygon fill="#bfbfbf" stroke="black" points="261.5,-0.5 261.5,-156.5 372.5,-156.5 372.5,-0.5 261.5,-0.5"/>
<text text-anchor="middle" x="317" y="-144.5" font-family="Helvetica,sans-Serif" font-size="10.00">NFCUUIDModule</text>
<polyline fill="none" stroke="black" points="261.5,-137.5 372.5,-137.5 "/>
<text text-anchor="start" x="269.5" y="-125.5" font-family="Helvetica,sans-Serif" font-size="10.00">&#45; mnIdent</text>
<polyline fill="none" stroke="black" points="261.5,-118.5 372.5,-118.5 "/>
<text text-anchor="start" x="269.5" y="-106.5" font-family="Helvetica,sans-Serif" font-size="10.00">+ NFCUUIDModule()</text>
<text text-anchor="start" x="269.5" y="-95.5" font-family="Helvetica,sans-Serif" font-size="10.00">+ ~NFCUUIDModule()</text>
<text text-anchor="start" x="269.5" y="-84.5" font-family="Helvetica,sans-Serif" font-size="10.00">+ Init()</text>
<text text-anchor="start" x="269.5" y="-73.5" font-family="Helvetica,sans-Serif" font-size="10.00">+ Shut()</text>
<text text-anchor="start" x="269.5" y="-62.5" font-family="Helvetica,sans-Serif" font-size="10.00">+ BeforeShut()</text>
<text text-anchor="start" x="269.5" y="-51.5" font-family="Helvetica,sans-Serif" font-size="10.00">+ AfterInit()</text>
<text text-anchor="start" x="269.5" y="-40.5" font-family="Helvetica,sans-Serif" font-size="10.00">+ Execute()</text>
<text text-anchor="start" x="269.5" y="-29.5" font-family="Helvetica,sans-Serif" font-size="10.00">+ CreateGUID()</text>
<text text-anchor="start" x="269.5" y="-18.5" font-family="Helvetica,sans-Serif" font-size="10.00">+ GetIdentID()</text>
<text text-anchor="start" x="269.5" y="-7.5" font-family="Helvetica,sans-Serif" font-size="10.00">+ SetIdentID()</text>
</g>
<!-- Node4 -->
<g id="node2" class="node"><title>Node4</title>
<g id="a_node2"><a xlink:href="class_n_f_i_u_u_i_d_module.html" target="_top" xlink:title="{NFIUUIDModule\n||+ CreateGUID()\l+ GetIdentID()\l+ SetIdentID()\l}">
<polygon fill="white" stroke="black" points="0,-276 0,-355 86,-355 86,-276 0,-276"/>
<text text-anchor="middle" x="43" y="-343" font-family="Helvetica,sans-Serif" font-size="10.00">NFIUUIDModule</text>
<polyline fill="none" stroke="black" points="0,-336 86,-336 "/>
<text text-anchor="middle" x="43" y="-324" font-family="Helvetica,sans-Serif" font-size="10.00"> </text>
<polyline fill="none" stroke="black" points="0,-317 86,-317 "/>
<text text-anchor="start" x="8" y="-305" font-family="Helvetica,sans-Serif" font-size="10.00">+ CreateGUID()</text>
<text text-anchor="start" x="8" y="-294" font-family="Helvetica,sans-Serif" font-size="10.00">+ GetIdentID()</text>
<text text-anchor="start" x="8" y="-283" font-family="Helvetica,sans-Serif" font-size="10.00">+ SetIdentID()</text>
</a>
</g>
</g>
<!-- Node4&#45;&gt;Node3 -->
<g id="edge1" class="edge"><title>Node4&#45;&gt;Node3</title>
<path fill="none" stroke="midnightblue" d="M58.0373,-266.569C66.4079,-245.551 78.5236,-221.694 95,-204 141.374,-154.197 212.291,-119.26 261.441,-99.3251"/>
<polygon fill="none" stroke="midnightblue" points="54.7363,-265.402 54.4526,-275.993 61.2791,-267.891 54.7363,-265.402"/>
</g>
<!-- Node5 -->
<g id="node3" class="node"><title>Node5</title>
<g id="a_node3"><a xlink:href="class_n_f_i_module.html" target="_top" xlink:title="{NFIModule\n|+ strName\l# mbReloading\l|+ NFIModule()\l+ ~NFIModule()\l+ Init()\l+ AfterInit()\l+ CheckConfig()\l+ BeforeShut()\l+ Shut()\l+ Execute()\l+ StartReLoadState()\l+ EndReLoadState()\l+ GetPluginManager()\l+ Loading()\l}">
<polygon fill="white" stroke="black" points="103,-474.5 103,-663.5 215,-663.5 215,-474.5 103,-474.5"/>
<text text-anchor="middle" x="159" y="-651.5" font-family="Helvetica,sans-Serif" font-size="10.00">NFIModule</text>
<polyline fill="none" stroke="black" points="103,-644.5 215,-644.5 "/>
<text text-anchor="start" x="111" y="-632.5" font-family="Helvetica,sans-Serif" font-size="10.00">+ strName</text>
<text text-anchor="start" x="111" y="-621.5" font-family="Helvetica,sans-Serif" font-size="10.00"># mbReloading</text>
<polyline fill="none" stroke="black" points="103,-614.5 215,-614.5 "/>
<text text-anchor="start" x="111" y="-602.5" font-family="Helvetica,sans-Serif" font-size="10.00">+ NFIModule()</text>
<text text-anchor="start" x="111" y="-591.5" font-family="Helvetica,sans-Serif" font-size="10.00">+ ~NFIModule()</text>
<text text-anchor="start" x="111" y="-580.5" font-family="Helvetica,sans-Serif" font-size="10.00">+ Init()</text>
<text text-anchor="start" x="111" y="-569.5" font-family="Helvetica,sans-Serif" font-size="10.00">+ AfterInit()</text>
<text text-anchor="start" x="111" y="-558.5" font-family="Helvetica,sans-Serif" font-size="10.00">+ CheckConfig()</text>
<text text-anchor="start" x="111" y="-547.5" font-family="Helvetica,sans-Serif" font-size="10.00">+ BeforeShut()</text>
<text text-anchor="start" x="111" y="-536.5" font-family="Helvetica,sans-Serif" font-size="10.00">+ Shut()</text>
<text text-anchor="start" x="111" y="-525.5" font-family="Helvetica,sans-Serif" font-size="10.00">+ Execute()</text>
<text text-anchor="start" x="111" y="-514.5" font-family="Helvetica,sans-Serif" font-size="10.00">+ StartReLoadState()</text>
<text text-anchor="start" x="111" y="-503.5" font-family="Helvetica,sans-Serif" font-size="10.00">+ EndReLoadState()</text>
<text text-anchor="start" x="111" y="-492.5" font-family="Helvetica,sans-Serif" font-size="10.00">+ GetPluginManager()</text>
<text text-anchor="start" x="111" y="-481.5" font-family="Helvetica,sans-Serif" font-size="10.00">+ Loading()</text>
</a>
</g>
</g>
<!-- Node5&#45;&gt;Node4 -->
<g id="edge2" class="edge"><title>Node5&#45;&gt;Node4</title>
<path fill="none" stroke="midnightblue" d="M111.526,-465.072C93.6063,-426.22 74.299,-384.36 60.76,-355.005"/>
<polygon fill="none" stroke="midnightblue" points="108.439,-466.736 115.806,-474.351 114.796,-463.804 108.439,-466.736"/>
</g>
<!-- Node6 -->
<g id="node4" class="node"><title>Node6</title>
<g id="a_node4"><a xlink:href="class_n_f_i_plugin_manager.html" target="_top" xlink:title="{NFIPluginManager\n||+ NFIPluginManager()\l+ FindModule()\l+ Registered()\l+ UnRegistered()\l+ FindPlugin()\l+ AddModule()\l+ RemoveModule()\l+ FindModule()\l+ AppID()\l+ GetInitTime()\l+ GetNowTime()\l+ GetConfigPath()\l+ SetConfigName()\l}">
<polygon fill="white" stroke="black" points="104.5,-221 104.5,-410 215.5,-410 215.5,-221 104.5,-221"/>
<text text-anchor="middle" x="160" y="-398" font-family="Helvetica,sans-Serif" font-size="10.00">NFIPluginManager</text>
<polyline fill="none" stroke="black" points="104.5,-391 215.5,-391 "/>
<text text-anchor="middle" x="160" y="-379" font-family="Helvetica,sans-Serif" font-size="10.00"> </text>
<polyline fill="none" stroke="black" points="104.5,-372 215.5,-372 "/>
<text text-anchor="start" x="112.5" y="-360" font-family="Helvetica,sans-Serif" font-size="10.00">+ NFIPluginManager()</text>
<text text-anchor="start" x="112.5" y="-349" font-family="Helvetica,sans-Serif" font-size="10.00">+ FindModule()</text>
<text text-anchor="start" x="112.5" y="-338" font-family="Helvetica,sans-Serif" font-size="10.00">+ Registered()</text>
<text text-anchor="start" x="112.5" y="-327" font-family="Helvetica,sans-Serif" font-size="10.00">+ UnRegistered()</text>
<text text-anchor="start" x="112.5" y="-316" font-family="Helvetica,sans-Serif" font-size="10.00">+ FindPlugin()</text>
<text text-anchor="start" x="112.5" y="-305" font-family="Helvetica,sans-Serif" font-size="10.00">+ AddModule()</text>
<text text-anchor="start" x="112.5" y="-294" font-family="Helvetica,sans-Serif" font-size="10.00">+ RemoveModule()</text>
<text text-anchor="start" x="112.5" y="-283" font-family="Helvetica,sans-Serif" font-size="10.00">+ FindModule()</text>
<text text-anchor="start" x="112.5" y="-272" font-family="Helvetica,sans-Serif" font-size="10.00">+ AppID()</text>
<text text-anchor="start" x="112.5" y="-261" font-family="Helvetica,sans-Serif" font-size="10.00">+ GetInitTime()</text>
<text text-anchor="start" x="112.5" y="-250" font-family="Helvetica,sans-Serif" font-size="10.00">+ GetNowTime()</text>
<text text-anchor="start" x="112.5" y="-239" font-family="Helvetica,sans-Serif" font-size="10.00">+ GetConfigPath()</text>
<text text-anchor="start" x="112.5" y="-228" font-family="Helvetica,sans-Serif" font-size="10.00">+ SetConfigName()</text>
</a>
</g>
</g>
<!-- Node5&#45;&gt;Node6 -->
<g id="edge4" class="edge"><title>Node5&#45;&gt;Node6</title>
<path fill="none" stroke="midnightblue" d="M157.083,-464.295C157.052,-461.501 157.024,-458.732 157,-456 156.868,-441.224 156.969,-425.569 157.2,-410.293"/>
<polygon fill="none" stroke="midnightblue" points="153.585,-464.543 157.206,-474.5 160.585,-464.458 153.585,-464.543"/>
</g>
<!-- Node7 -->
<g id="node5" class="node"><title>Node7</title>
<g id="a_node5"><a xlink:href="class_n_f_i_kernel_module.html" target="_top" xlink:title="{NFIKernelModule\n||+ AddHeartBeat()\l+ FindHeartBeat()\l+ RemoveHeartBeat()\l+ AddRecordCallBack()\l+ AddPropertyCallBack()\l+ AddEventCallBack()\l+ AddClassCallBack()\l+ DoEvent()\l+ DoEvent()\l+ RegisterCommonClassEvent()\land 56 more...\l# AddEventCallBack()\l# AddClassCallBack()\l# RegisterCommonClassEvent()\l# RegisterCommonPropertyEvent()\l# RegisterCommonRecordEvent()\l}">
<polygon fill="white" stroke="black" points="233.5,-204.5 233.5,-426.5 400.5,-426.5 400.5,-204.5 233.5,-204.5"/>
<text text-anchor="middle" x="317" y="-414.5" font-family="Helvetica,sans-Serif" font-size="10.00">NFIKernelModule</text>
<polyline fill="none" stroke="black" points="233.5,-407.5 400.5,-407.5 "/>
<text text-anchor="middle" x="317" y="-395.5" font-family="Helvetica,sans-Serif" font-size="10.00"> </text>
<polyline fill="none" stroke="black" points="233.5,-388.5 400.5,-388.5 "/>
<text text-anchor="start" x="241.5" y="-376.5" font-family="Helvetica,sans-Serif" font-size="10.00">+ AddHeartBeat()</text>
<text text-anchor="start" x="241.5" y="-365.5" font-family="Helvetica,sans-Serif" font-size="10.00">+ FindHeartBeat()</text>
<text text-anchor="start" x="241.5" y="-354.5" font-family="Helvetica,sans-Serif" font-size="10.00">+ RemoveHeartBeat()</text>
<text text-anchor="start" x="241.5" y="-343.5" font-family="Helvetica,sans-Serif" font-size="10.00">+ AddRecordCallBack()</text>
<text text-anchor="start" x="241.5" y="-332.5" font-family="Helvetica,sans-Serif" font-size="10.00">+ AddPropertyCallBack()</text>
<text text-anchor="start" x="241.5" y="-321.5" font-family="Helvetica,sans-Serif" font-size="10.00">+ AddEventCallBack()</text>
<text text-anchor="start" x="241.5" y="-310.5" font-family="Helvetica,sans-Serif" font-size="10.00">+ AddClassCallBack()</text>
<text text-anchor="start" x="241.5" y="-299.5" font-family="Helvetica,sans-Serif" font-size="10.00">+ DoEvent()</text>
<text text-anchor="start" x="241.5" y="-288.5" font-family="Helvetica,sans-Serif" font-size="10.00">+ DoEvent()</text>
<text text-anchor="start" x="241.5" y="-277.5" font-family="Helvetica,sans-Serif" font-size="10.00">+ RegisterCommonClassEvent()</text>
<text text-anchor="start" x="241.5" y="-266.5" font-family="Helvetica,sans-Serif" font-size="10.00">and 56 more...</text>
<text text-anchor="start" x="241.5" y="-255.5" font-family="Helvetica,sans-Serif" font-size="10.00"># AddEventCallBack()</text>
<text text-anchor="start" x="241.5" y="-244.5" font-family="Helvetica,sans-Serif" font-size="10.00"># AddClassCallBack()</text>
<text text-anchor="start" x="241.5" y="-233.5" font-family="Helvetica,sans-Serif" font-size="10.00"># RegisterCommonClassEvent()</text>
<text text-anchor="start" x="241.5" y="-222.5" font-family="Helvetica,sans-Serif" font-size="10.00"># RegisterCommonPropertyEvent()</text>
<text text-anchor="start" x="241.5" y="-211.5" font-family="Helvetica,sans-Serif" font-size="10.00"># RegisterCommonRecordEvent()</text>
</a>
</g>
</g>
<!-- Node5&#45;&gt;Node7 -->
<g id="edge6" class="edge"><title>Node5&#45;&gt;Node7</title>
<path fill="none" stroke="midnightblue" d="M221.021,-488.434C228.683,-477.71 236.201,-466.711 243,-456 248.951,-446.626 254.87,-436.727 260.62,-426.703"/>
<polygon fill="none" stroke="midnightblue" points="218.161,-486.416 215.143,-496.572 223.835,-490.515 218.161,-486.416"/>
</g>
<!-- Node6&#45;&gt;Node5 -->
<g id="edge3" class="edge"><title>Node6&#45;&gt;Node5</title>
<path fill="none" stroke="#404040" d="M159.627,-410.228C159.56,-427.169 159.489,-444.941 159.421,-462.199"/>
<polygon fill="none" stroke="#404040" points="159.42,-462.351 163.396,-468.367 159.372,-474.351 155.396,-468.335 159.42,-462.351"/>
<text text-anchor="middle" x="199.5" y="-448" font-family="Helvetica,sans-Serif" font-size="10.00"> #pPluginManager</text>
</g>
<!-- Node7&#45;&gt;Node3 -->
<g id="edge5" class="edge"><title>Node7&#45;&gt;Node3</title>
<path fill="none" stroke="#404040" d="M317,-204.225C317,-192.402 317,-180.482 317,-168.944"/>
<polygon fill="none" stroke="#404040" points="317,-168.598 313,-162.598 317,-156.598 321,-162.598 317,-168.598"/>
<text text-anchor="middle" x="359.5" y="-178" font-family="Helvetica,sans-Serif" font-size="10.00"> &#45;m_pKernelModule</text>
</g>
<!-- Node8 -->
<g id="node6" class="node"><title>Node8</title>
<g id="a_node6"><a xlink:href="class_u_u_i_d_module_1_1_u_u_i_d.html" target="_top" xlink:title="{UUIDModule::UUID\n|&#45; epoch_\l&#45; time_\l&#45; machine_\l&#45; sequence_\l|+ UUID()\l+ ~UUID()\l+ set_epoch()\l+ set_machine()\l+ generate()\l}">
<polygon fill="white" stroke="black" points="418.5,-248.5 418.5,-382.5 517.5,-382.5 517.5,-248.5 418.5,-248.5"/>
<text text-anchor="middle" x="468" y="-370.5" font-family="Helvetica,sans-Serif" font-size="10.00">UUIDModule::UUID</text>
<polyline fill="none" stroke="black" points="418.5,-363.5 517.5,-363.5 "/>
<text text-anchor="start" x="426.5" y="-351.5" font-family="Helvetica,sans-Serif" font-size="10.00">&#45; epoch_</text>
<text text-anchor="start" x="426.5" y="-340.5" font-family="Helvetica,sans-Serif" font-size="10.00">&#45; time_</text>
<text text-anchor="start" x="426.5" y="-329.5" font-family="Helvetica,sans-Serif" font-size="10.00">&#45; machine_</text>
<text text-anchor="start" x="426.5" y="-318.5" font-family="Helvetica,sans-Serif" font-size="10.00">&#45; sequence_</text>
<polyline fill="none" stroke="black" points="418.5,-311.5 517.5,-311.5 "/>
<text text-anchor="start" x="426.5" y="-299.5" font-family="Helvetica,sans-Serif" font-size="10.00">+ UUID()</text>
<text text-anchor="start" x="426.5" y="-288.5" font-family="Helvetica,sans-Serif" font-size="10.00">+ ~UUID()</text>
<text text-anchor="start" x="426.5" y="-277.5" font-family="Helvetica,sans-Serif" font-size="10.00">+ set_epoch()</text>
<text text-anchor="start" x="426.5" y="-266.5" font-family="Helvetica,sans-Serif" font-size="10.00">+ set_machine()</text>
<text text-anchor="start" x="426.5" y="-255.5" font-family="Helvetica,sans-Serif" font-size="10.00">+ generate()</text>
</a>
</g>
</g>
<!-- Node8&#45;&gt;Node3 -->
<g id="edge7" class="edge"><title>Node8&#45;&gt;Node3</title>
<path fill="none" stroke="#404040" d="M443.871,-248.271C433.781,-224.276 420.91,-197.55 406,-175 398.556,-163.741 389.759,-152.553 380.641,-142.01"/>
<polygon fill="none" stroke="#404040" points="380.541,-141.899 373.566,-140.069 372.571,-132.927 379.547,-134.756 380.541,-141.899"/>
<text text-anchor="middle" x="437" y="-178" font-family="Helvetica,sans-Serif" font-size="10.00"> &#45;m_pUUID</text>
</g>
</g>
</svg>
        <g id="navigator" transform="translate(0 0)" fill="#404254">
                <rect fill="#f2f5e9" fill-opacity="0.5" stroke="#606060" stroke-width=".5" x="0" y="0" width="60" height="60"/>
                <use id="zoomplus" xlink:href="#zoomPlus" x="17" y="9" onmousedown="handleZoom(evt,'in')"/>
                <use id="zoomminus" xlink:href="#zoomMin" x="42" y="9" onmousedown="handleZoom(evt,'out')"/>
                <use id="reset" xlink:href="#resetDef" x="30" y="36" onmousedown="handleReset()"/>
                <g id="arrowUp" xlink:href="#dirArrow" transform="translate(30 24)" onmousedown="handlePan(0,-1)">
                  <use xlink:href="#rim" fill="#404040">
                        <set attributeName="fill" to="#808080" begin="arrowUp.mouseover" end="arrowUp.mouseout"/>
                  </use>
                  <path fill="none" stroke="white" stroke-width="1.5" d="M0,-3.0v7 M-2.5,-0.5L0,-3.0L2.5,-0.5"/>
                </g>
                <g id="arrowRight" xlink:href="#dirArrow" transform="rotate(90) translate(36 -43)" onmousedown="handlePan(1,0)">
                  <use xlink:href="#rim" fill="#404040">
                        <set attributeName="fill" to="#808080" begin="arrowRight.mouseover" end="arrowRight.mouseout"/>
                  </use>
                  <path fill="none" stroke="white" stroke-width="1.5" d="M0,-3.0v7 M-2.5,-0.5L0,-3.0L2.5,-0.5"/>
                </g>
                <g id="arrowDown" xlink:href="#dirArrow" transform="rotate(180) translate(-30 -48)" onmousedown="handlePan(0,1)">
                  <use xlink:href="#rim" fill="#404040">
                        <set attributeName="fill" to="#808080" begin="arrowDown.mouseover" end="arrowDown.mouseout"/>
                  </use>
                  <path fill="none" stroke="white" stroke-width="1.5" d="M0,-3.0v7 M-2.5,-0.5L0,-3.0L2.5,-0.5"/>
                </g>
                <g id="arrowLeft" xlink:href="#dirArrow" transform="rotate(270) translate(-36 17)" onmousedown="handlePan(-1,0)">
                  <use xlink:href="#rim" fill="#404040">
                        <set attributeName="fill" to="#808080" begin="arrowLeft.mouseover" end="arrowLeft.mouseout"/>
                  </use>
                  <path fill="none" stroke="white" stroke-width="1.5" d="M0,-3.0v7 M-2.5,-0.5L0,-3.0L2.5,-0.5"/>
                </g>
        </g>
        <svg viewBox="0 0 15 15" width="100%" height="30px" preserveAspectRatio="xMaxYMin meet">
         <g id="arrow_out" transform="scale(0.3 0.3)">
          <a xlink:href="class_n_f_c_u_u_i_d_module__coll__graph_org.svg" target="_base">
           <rect id="button" ry="5" rx="5" y="6" x="6" height="38" width="38"
                fill="#f2f5e9" fill-opacity="0.5" stroke="#606060" stroke-width="1.0"/>
           <path id="arrow"
             d="M 11.500037,31.436501 C 11.940474,20.09759 22.043105,11.32322 32.158766,21.979434 L 37.068811,17.246167 C 37.068811,17.246167 37.088388,32 37.088388,32 L 22.160133,31.978069 C 22.160133,31.978069 26.997745,27.140456 26.997745,27.140456 C 18.528582,18.264221 13.291696,25.230495 11.500037,31.436501 z"
             style="fill:#404040;"/>
          </a>
         </g>
        </svg>
</svg>
