<?xml version="1.0" encoding="UTF-8" standalone="no"?>
<!DOCTYPE svg PUBLIC "-//W3C//DTD SVG 1.1//EN"
 "http://www.w3.org/Graphics/SVG/1.1/DTD/svg11.dtd">
<!-- Generated by graphviz version 2.38.0 (20140413.2041)
 -->
<!-- Title: NFCLoginToMasterModule Pages: 1 -->
<svg width="1581pt" height="953pt"
 viewBox="0.00 0.00 1580.50 953.00" xmlns="http://www.w3.org/2000/svg" xmlns:xlink="http://www.w3.org/1999/xlink">
<g id="graph0" class="graph" transform="scale(1 1) rotate(0) translate(4 949)">
<title>NFCLoginToMasterModule</title>
<polygon fill="white" stroke="none" points="-4,4 -4,-949 1576.5,-949 1576.5,4 -4,4"/>
<!-- Node3 -->
<g id="node1" class="node"><title>Node3</title>
<polygon fill="#bfbfbf" stroke="black" points="817,-0.5 817,-200.5 979,-200.5 979,-0.5 817,-0.5"/>
<text text-anchor="middle" x="898" y="-188.5" font-family="Helvetica,sans-Serif" font-size="10.00">NFCLoginToMasterModule</text>
<polyline fill="none" stroke="black" points="817,-181.5 979,-181.5 "/>
<text text-anchor="middle" x="898" y="-169.5" font-family="Helvetica,sans-Serif" font-size="10.00"> </text>
<polyline fill="none" stroke="black" points="817,-162.5 979,-162.5 "/>
<text text-anchor="start" x="825" y="-150.5" font-family="Helvetica,sans-Serif" font-size="10.00">+ NFCLoginToMasterModule()</text>
<text text-anchor="start" x="825" y="-139.5" font-family="Helvetica,sans-Serif" font-size="10.00">+ Init()</text>
<text text-anchor="start" x="825" y="-128.5" font-family="Helvetica,sans-Serif" font-size="10.00">+ Shut()</text>
<text text-anchor="start" x="825" y="-117.5" font-family="Helvetica,sans-Serif" font-size="10.00">+ Execute()</text>
<text text-anchor="start" x="825" y="-106.5" font-family="Helvetica,sans-Serif" font-size="10.00">+ AfterInit()</text>
<text text-anchor="start" x="825" y="-95.5" font-family="Helvetica,sans-Serif" font-size="10.00">+ BeforeShut()</text>
<text text-anchor="start" x="825" y="-84.5" font-family="Helvetica,sans-Serif" font-size="10.00">+ LogReceive()</text>
<text text-anchor="start" x="825" y="-73.5" font-family="Helvetica,sans-Serif" font-size="10.00">+ LogSend()</text>
<text text-anchor="start" x="825" y="-62.5" font-family="Helvetica,sans-Serif" font-size="10.00">+ GetClusterModule()</text>
<text text-anchor="start" x="825" y="-51.5" font-family="Helvetica,sans-Serif" font-size="10.00">+ GetWorldMap()</text>
<text text-anchor="start" x="825" y="-40.5" font-family="Helvetica,sans-Serif" font-size="10.00"># OnSocketMSEvent()</text>
<text text-anchor="start" x="825" y="-29.5" font-family="Helvetica,sans-Serif" font-size="10.00"># OnSelectServerResultProcess()</text>
<text text-anchor="start" x="825" y="-18.5" font-family="Helvetica,sans-Serif" font-size="10.00"># OnWorldInfoProcess()</text>
<text text-anchor="start" x="825" y="-7.5" font-family="Helvetica,sans-Serif" font-size="10.00"># Register()</text>
</g>
<!-- Node4 -->
<g id="node2" class="node"><title>Node4</title>
<g id="a_node2"><a xlink:href="class_n_f_i_login_to_master_module.html" target="_top" xlink:title="{NFILoginToMasterModule\n||+ GetClusterModule()\l+ GetWorldMap()\l}">
<polygon fill="white" stroke="black" points="509.5,-391.5 509.5,-459.5 636.5,-459.5 636.5,-391.5 509.5,-391.5"/>
<text text-anchor="middle" x="573" y="-447.5" font-family="Helvetica,sans-Serif" font-size="10.00">NFILoginToMasterModule</text>
<polyline fill="none" stroke="black" points="509.5,-440.5 636.5,-440.5 "/>
<text text-anchor="middle" x="573" y="-428.5" font-family="Helvetica,sans-Serif" font-size="10.00"> </text>
<polyline fill="none" stroke="black" points="509.5,-421.5 636.5,-421.5 "/>
<text text-anchor="start" x="517.5" y="-409.5" font-family="Helvetica,sans-Serif" font-size="10.00">+ GetClusterModule()</text>
<text text-anchor="start" x="517.5" y="-398.5" font-family="Helvetica,sans-Serif" font-size="10.00">+ GetWorldMap()</text>
</a>
</g>
</g>
<!-- Node4&#45;&gt;Node3 -->
<g id="edge1" class="edge"><title>Node4&#45;&gt;Node3</title>
<path fill="none" stroke="midnightblue" d="M582.107,-381.579C592.1,-342.988 611.377,-286.598 645,-248 691.341,-194.803 761.947,-156.184 816.805,-131.996"/>
<polygon fill="none" stroke="midnightblue" points="578.664,-380.924 579.647,-391.473 585.457,-382.613 578.664,-380.924"/>
</g>
<!-- Node5 -->
<g id="node3" class="node"><title>Node5</title>
<g id="a_node3"><a xlink:href="class_n_f_i_module.html" target="_top" xlink:title="{NFIModule\n|+ strName\l# mbReloading\l|+ NFIModule()\l+ ~NFIModule()\l+ Init()\l+ AfterInit()\l+ CheckConfig()\l+ BeforeShut()\l+ Shut()\l+ Execute()\l+ StartReLoadState()\l+ EndReLoadState()\l+ GetPluginManager()\l+ Loading()\l}">
<polygon fill="white" stroke="black" points="597,-650.5 597,-839.5 709,-839.5 709,-650.5 597,-650.5"/>
<text text-anchor="middle" x="653" y="-827.5" font-family="Helvetica,sans-Serif" font-size="10.00">NFIModule</text>
<polyline fill="none" stroke="black" points="597,-820.5 709,-820.5 "/>
<text text-anchor="start" x="605" y="-808.5" font-family="Helvetica,sans-Serif" font-size="10.00">+ strName</text>
<text text-anchor="start" x="605" y="-797.5" font-family="Helvetica,sans-Serif" font-size="10.00"># mbReloading</text>
<polyline fill="none" stroke="black" points="597,-790.5 709,-790.5 "/>
<text text-anchor="start" x="605" y="-778.5" font-family="Helvetica,sans-Serif" font-size="10.00">+ NFIModule()</text>
<text text-anchor="start" x="605" y="-767.5" font-family="Helvetica,sans-Serif" font-size="10.00">+ ~NFIModule()</text>
<text text-anchor="start" x="605" y="-756.5" font-family="Helvetica,sans-Serif" font-size="10.00">+ Init()</text>
<text text-anchor="start" x="605" y="-745.5" font-family="Helvetica,sans-Serif" font-size="10.00">+ AfterInit()</text>
<text text-anchor="start" x="605" y="-734.5" font-family="Helvetica,sans-Serif" font-size="10.00">+ CheckConfig()</text>
<text text-anchor="start" x="605" y="-723.5" font-family="Helvetica,sans-Serif" font-size="10.00">+ BeforeShut()</text>
<text text-anchor="start" x="605" y="-712.5" font-family="Helvetica,sans-Serif" font-size="10.00">+ Shut()</text>
<text text-anchor="start" x="605" y="-701.5" font-family="Helvetica,sans-Serif" font-size="10.00">+ Execute()</text>
<text text-anchor="start" x="605" y="-690.5" font-family="Helvetica,sans-Serif" font-size="10.00">+ StartReLoadState()</text>
<text text-anchor="start" x="605" y="-679.5" font-family="Helvetica,sans-Serif" font-size="10.00">+ EndReLoadState()</text>
<text text-anchor="start" x="605" y="-668.5" font-family="Helvetica,sans-Serif" font-size="10.00">+ GetPluginManager()</text>
<text text-anchor="start" x="605" y="-657.5" font-family="Helvetica,sans-Serif" font-size="10.00">+ Loading()</text>
</a>
</g>
</g>
<!-- Node5&#45;&gt;Node4 -->
<g id="edge2" class="edge"><title>Node5&#45;&gt;Node4</title>
<path fill="none" stroke="midnightblue" d="M626.927,-640.521C611.139,-577.866 592.045,-502.086 581.335,-459.58"/>
<polygon fill="none" stroke="midnightblue" points="623.593,-641.615 629.43,-650.457 630.381,-639.905 623.593,-641.615"/>
</g>
<!-- Node6 -->
<g id="node4" class="node"><title>Node6</title>
<g id="a_node4"><a xlink:href="class_n_f_i_plugin_manager.html" target="_top" xlink:title="{NFIPluginManager\n||+ NFIPluginManager()\l+ FindModule()\l+ Registered()\l+ UnRegistered()\l+ FindPlugin()\l+ AddModule()\l+ RemoveModule()\l+ FindModule()\l+ AppID()\l+ GetInitTime()\l+ GetNowTime()\l+ GetConfigPath()\l+ SetConfigName()\l}">
<polygon fill="white" stroke="black" points="380.5,-331 380.5,-520 491.5,-520 491.5,-331 380.5,-331"/>
<text text-anchor="middle" x="436" y="-508" font-family="Helvetica,sans-Serif" font-size="10.00">NFIPluginManager</text>
<polyline fill="none" stroke="black" points="380.5,-501 491.5,-501 "/>
<text text-anchor="middle" x="436" y="-489" font-family="Helvetica,sans-Serif" font-size="10.00"> </text>
<polyline fill="none" stroke="black" points="380.5,-482 491.5,-482 "/>
<text text-anchor="start" x="388.5" y="-470" font-family="Helvetica,sans-Serif" font-size="10.00">+ NFIPluginManager()</text>
<text text-anchor="start" x="388.5" y="-459" font-family="Helvetica,sans-Serif" font-size="10.00">+ FindModule()</text>
<text text-anchor="start" x="388.5" y="-448" font-family="Helvetica,sans-Serif" font-size="10.00">+ Registered()</text>
<text text-anchor="start" x="388.5" y="-437" font-family="Helvetica,sans-Serif" font-size="10.00">+ UnRegistered()</text>
<text text-anchor="start" x="388.5" y="-426" font-family="Helvetica,sans-Serif" font-size="10.00">+ FindPlugin()</text>
<text text-anchor="start" x="388.5" y="-415" font-family="Helvetica,sans-Serif" font-size="10.00">+ AddModule()</text>
<text text-anchor="start" x="388.5" y="-404" font-family="Helvetica,sans-Serif" font-size="10.00">+ RemoveModule()</text>
<text text-anchor="start" x="388.5" y="-393" font-family="Helvetica,sans-Serif" font-size="10.00">+ FindModule()</text>
<text text-anchor="start" x="388.5" y="-382" font-family="Helvetica,sans-Serif" font-size="10.00">+ AppID()</text>
<text text-anchor="start" x="388.5" y="-371" font-family="Helvetica,sans-Serif" font-size="10.00">+ GetInitTime()</text>
<text text-anchor="start" x="388.5" y="-360" font-family="Helvetica,sans-Serif" font-size="10.00">+ GetNowTime()</text>
<text text-anchor="start" x="388.5" y="-349" font-family="Helvetica,sans-Serif" font-size="10.00">+ GetConfigPath()</text>
<text text-anchor="start" x="388.5" y="-338" font-family="Helvetica,sans-Serif" font-size="10.00">+ SetConfigName()</text>
</a>
</g>
</g>
<!-- Node5&#45;&gt;Node6 -->
<g id="edge4" class="edge"><title>Node5&#45;&gt;Node6</title>
<path fill="none" stroke="midnightblue" d="M588.408,-705.145C561.095,-686.006 530.847,-660.833 510,-632 486.06,-598.889 469.164,-557.246 457.622,-520.118"/>
<polygon fill="none" stroke="midnightblue" points="586.551,-708.116 596.777,-710.888 590.512,-702.344 586.551,-708.116"/>
</g>
<!-- Node7 -->
<g id="node5" class="node"><title>Node7</title>
<g id="a_node5"><a xlink:href="class_n_f_i_net_client_module.html" target="_top" xlink:title="{NFINetClientModule\n|&#45; mxTempNetList\l&#45; mxReceiveCallBack\l&#45; mxEventCallBack\l&#45; mxCallBackList\l|+ NFINetClientModule()\l+ Init()\l+ AfterInit()\l+ BeforeShut()\l+ Shut()\l+ Execute()\l+ AddReceiveCallBack()\l+ AddReceiveCallBack()\l+ AddEventCallBack()\l+ AddServer()\land 14 more...\l# NFINetClientModule()\l# ProcessExecute()\l# KeepReport()\l# LogServerInfo()\l&#45; LogServerInfo()\l&#45; KeepState()\l&#45; OnSocketEvent()\l&#45; OnConnected()\l&#45; OnDisConnected()\l&#45; ProcessAddNetConnect()\l&#45; InitNetCallback()\l&#45; GetServerMachineData()\l&#45; AddServerWeightData()\l&#45; RemoveServerWeightData()\l}">
<polygon fill="white" stroke="black" points="92.5,-248.5 92.5,-602.5 233.5,-602.5 233.5,-248.5 92.5,-248.5"/>
<text text-anchor="middle" x="163" y="-590.5" font-family="Helvetica,sans-Serif" font-size="10.00">NFINetClientModule</text>
<polyline fill="none" stroke="black" points="92.5,-583.5 233.5,-583.5 "/>
<text text-anchor="start" x="100.5" y="-571.5" font-family="Helvetica,sans-Serif" font-size="10.00">&#45; mxTempNetList</text>
<text text-anchor="start" x="100.5" y="-560.5" font-family="Helvetica,sans-Serif" font-size="10.00">&#45; mxReceiveCallBack</text>
<text text-anchor="start" x="100.5" y="-549.5" font-family="Helvetica,sans-Serif" font-size="10.00">&#45; mxEventCallBack</text>
<text text-anchor="start" x="100.5" y="-538.5" font-family="Helvetica,sans-Serif" font-size="10.00">&#45; mxCallBackList</text>
<polyline fill="none" stroke="black" points="92.5,-531.5 233.5,-531.5 "/>
<text text-anchor="start" x="100.5" y="-519.5" font-family="Helvetica,sans-Serif" font-size="10.00">+ NFINetClientModule()</text>
<text text-anchor="start" x="100.5" y="-508.5" font-family="Helvetica,sans-Serif" font-size="10.00">+ Init()</text>
<text text-anchor="start" x="100.5" y="-497.5" font-family="Helvetica,sans-Serif" font-size="10.00">+ AfterInit()</text>
<text text-anchor="start" x="100.5" y="-486.5" font-family="Helvetica,sans-Serif" font-size="10.00">+ BeforeShut()</text>
<text text-anchor="start" x="100.5" y="-475.5" font-family="Helvetica,sans-Serif" font-size="10.00">+ Shut()</text>
<text text-anchor="start" x="100.5" y="-464.5" font-family="Helvetica,sans-Serif" font-size="10.00">+ Execute()</text>
<text text-anchor="start" x="100.5" y="-453.5" font-family="Helvetica,sans-Serif" font-size="10.00">+ AddReceiveCallBack()</text>
<text text-anchor="start" x="100.5" y="-442.5" font-family="Helvetica,sans-Serif" font-size="10.00">+ AddReceiveCallBack()</text>
<text text-anchor="start" x="100.5" y="-431.5" font-family="Helvetica,sans-Serif" font-size="10.00">+ AddEventCallBack()</text>
<text text-anchor="start" x="100.5" y="-420.5" font-family="Helvetica,sans-Serif" font-size="10.00">+ AddServer()</text>
<text text-anchor="start" x="100.5" y="-409.5" font-family="Helvetica,sans-Serif" font-size="10.00">and 14 more...</text>
<text text-anchor="start" x="100.5" y="-398.5" font-family="Helvetica,sans-Serif" font-size="10.00"># NFINetClientModule()</text>
<text text-anchor="start" x="100.5" y="-387.5" font-family="Helvetica,sans-Serif" font-size="10.00"># ProcessExecute()</text>
<text text-anchor="start" x="100.5" y="-376.5" font-family="Helvetica,sans-Serif" font-size="10.00"># KeepReport()</text>
<text text-anchor="start" x="100.5" y="-365.5" font-family="Helvetica,sans-Serif" font-size="10.00"># LogServerInfo()</text>
<text text-anchor="start" x="100.5" y="-354.5" font-family="Helvetica,sans-Serif" font-size="10.00">&#45; LogServerInfo()</text>
<text text-anchor="start" x="100.5" y="-343.5" font-family="Helvetica,sans-Serif" font-size="10.00">&#45; KeepState()</text>
<text text-anchor="start" x="100.5" y="-332.5" font-family="Helvetica,sans-Serif" font-size="10.00">&#45; OnSocketEvent()</text>
<text text-anchor="start" x="100.5" y="-321.5" font-family="Helvetica,sans-Serif" font-size="10.00">&#45; OnConnected()</text>
<text text-anchor="start" x="100.5" y="-310.5" font-family="Helvetica,sans-Serif" font-size="10.00">&#45; OnDisConnected()</text>
<text text-anchor="start" x="100.5" y="-299.5" font-family="Helvetica,sans-Serif" font-size="10.00">&#45; ProcessAddNetConnect()</text>
<text text-anchor="start" x="100.5" y="-288.5" font-family="Helvetica,sans-Serif" font-size="10.00">&#45; InitNetCallback()</text>
<text text-anchor="start" x="100.5" y="-277.5" font-family="Helvetica,sans-Serif" font-size="10.00">&#45; GetServerMachineData()</text>
<text text-anchor="start" x="100.5" y="-266.5" font-family="Helvetica,sans-Serif" font-size="10.00">&#45; AddServerWeightData()</text>
<text text-anchor="start" x="100.5" y="-255.5" font-family="Helvetica,sans-Serif" font-size="10.00">&#45; RemoveServerWeightData()</text>
</a>
</g>
</g>
<!-- Node5&#45;&gt;Node7 -->
<g id="edge6" class="edge"><title>Node5&#45;&gt;Node7</title>
<path fill="none" stroke="midnightblue" d="M587.251,-724.518C478.181,-691.742 269.178,-626.818 243,-603 239.765,-600.057 236.652,-596.957 233.658,-593.725"/>
<polygon fill="none" stroke="midnightblue" points="586.261,-727.875 596.845,-727.396 588.272,-721.17 586.261,-727.875"/>
</g>
<!-- Node11 -->
<g id="node9" class="node"><title>Node11</title>
<g id="a_node9"><a xlink:href="class_n_f_i_kernel_module.html" target="_top" xlink:title="{NFIKernelModule\n||+ AddHeartBeat()\l+ FindHeartBeat()\l+ RemoveHeartBeat()\l+ AddRecordCallBack()\l+ AddPropertyCallBack()\l+ AddEventCallBack()\l+ AddClassCallBack()\l+ DoEvent()\l+ DoEvent()\l+ RegisterCommonClassEvent()\land 56 more...\l# AddEventCallBack()\l# AddClassCallBack()\l# RegisterCommonClassEvent()\l# RegisterCommonPropertyEvent()\l# RegisterCommonRecordEvent()\l}">
<polygon fill="white" stroke="black" points="654.5,-314.5 654.5,-536.5 821.5,-536.5 821.5,-314.5 654.5,-314.5"/>
<text text-anchor="middle" x="738" y="-524.5" font-family="Helvetica,sans-Serif" font-size="10.00">NFIKernelModule</text>
<polyline fill="none" stroke="black" points="654.5,-517.5 821.5,-517.5 "/>
<text text-anchor="middle" x="738" y="-505.5" font-family="Helvetica,sans-Serif" font-size="10.00"> </text>
<polyline fill="none" stroke="black" points="654.5,-498.5 821.5,-498.5 "/>
<text text-anchor="start" x="662.5" y="-486.5" font-family="Helvetica,sans-Serif" font-size="10.00">+ AddHeartBeat()</text>
<text text-anchor="start" x="662.5" y="-475.5" font-family="Helvetica,sans-Serif" font-size="10.00">+ FindHeartBeat()</text>
<text text-anchor="start" x="662.5" y="-464.5" font-family="Helvetica,sans-Serif" font-size="10.00">+ RemoveHeartBeat()</text>
<text text-anchor="start" x="662.5" y="-453.5" font-family="Helvetica,sans-Serif" font-size="10.00">+ AddRecordCallBack()</text>
<text text-anchor="start" x="662.5" y="-442.5" font-family="Helvetica,sans-Serif" font-size="10.00">+ AddPropertyCallBack()</text>
<text text-anchor="start" x="662.5" y="-431.5" font-family="Helvetica,sans-Serif" font-size="10.00">+ AddEventCallBack()</text>
<text text-anchor="start" x="662.5" y="-420.5" font-family="Helvetica,sans-Serif" font-size="10.00">+ AddClassCallBack()</text>
<text text-anchor="start" x="662.5" y="-409.5" font-family="Helvetica,sans-Serif" font-size="10.00">+ DoEvent()</text>
<text text-anchor="start" x="662.5" y="-398.5" font-family="Helvetica,sans-Serif" font-size="10.00">+ DoEvent()</text>
<text text-anchor="start" x="662.5" y="-387.5" font-family="Helvetica,sans-Serif" font-size="10.00">+ RegisterCommonClassEvent()</text>
<text text-anchor="start" x="662.5" y="-376.5" font-family="Helvetica,sans-Serif" font-size="10.00">and 56 more...</text>
<text text-anchor="start" x="662.5" y="-365.5" font-family="Helvetica,sans-Serif" font-size="10.00"># AddEventCallBack()</text>
<text text-anchor="start" x="662.5" y="-354.5" font-family="Helvetica,sans-Serif" font-size="10.00"># AddClassCallBack()</text>
<text text-anchor="start" x="662.5" y="-343.5" font-family="Helvetica,sans-Serif" font-size="10.00"># RegisterCommonClassEvent()</text>
<text text-anchor="start" x="662.5" y="-332.5" font-family="Helvetica,sans-Serif" font-size="10.00"># RegisterCommonPropertyEvent()</text>
<text text-anchor="start" x="662.5" y="-321.5" font-family="Helvetica,sans-Serif" font-size="10.00"># RegisterCommonRecordEvent()</text>
</a>
</g>
</g>
<!-- Node5&#45;&gt;Node11 -->
<g id="edge11" class="edge"><title>Node5&#45;&gt;Node11</title>
<path fill="none" stroke="midnightblue" d="M680.65,-640.721C689.555,-607.455 699.457,-570.471 708.491,-536.725"/>
<polygon fill="none" stroke="midnightblue" points="677.248,-639.892 678.043,-650.457 684.01,-641.702 677.248,-639.892"/>
</g>
<!-- Node12 -->
<g id="node10" class="node"><title>Node12</title>
<g id="a_node10"><a xlink:href="class_n_f_i_class_module.html" target="_top" xlink:title="{NFIClassModule\n||+ ~NFIClassModule()\l+ Load()\l+ Save()\l+ Clear()\l+ AddClassCallBack()\l+ DoEvent()\l+ AddClassCallBack()\l+ GetClassPropertyManager()\l+ GetClassRecordManager()\l+ GetClassComponentManager()\l}">
<polygon fill="white" stroke="black" points="1312.5,-347.5 1312.5,-503.5 1471.5,-503.5 1471.5,-347.5 1312.5,-347.5"/>
<text text-anchor="middle" x="1392" y="-491.5" font-family="Helvetica,sans-Serif" font-size="10.00">NFIClassModule</text>
<polyline fill="none" stroke="black" points="1312.5,-484.5 1471.5,-484.5 "/>
<text text-anchor="middle" x="1392" y="-472.5" font-family="Helvetica,sans-Serif" font-size="10.00"> </text>
<polyline fill="none" stroke="black" points="1312.5,-465.5 1471.5,-465.5 "/>
<text text-anchor="start" x="1320.5" y="-453.5" font-family="Helvetica,sans-Serif" font-size="10.00">+ ~NFIClassModule()</text>
<text text-anchor="start" x="1320.5" y="-442.5" font-family="Helvetica,sans-Serif" font-size="10.00">+ Load()</text>
<text text-anchor="start" x="1320.5" y="-431.5" font-family="Helvetica,sans-Serif" font-size="10.00">+ Save()</text>
<text text-anchor="start" x="1320.5" y="-420.5" font-family="Helvetica,sans-Serif" font-size="10.00">+ Clear()</text>
<text text-anchor="start" x="1320.5" y="-409.5" font-family="Helvetica,sans-Serif" font-size="10.00">+ AddClassCallBack()</text>
<text text-anchor="start" x="1320.5" y="-398.5" font-family="Helvetica,sans-Serif" font-size="10.00">+ DoEvent()</text>
<text text-anchor="start" x="1320.5" y="-387.5" font-family="Helvetica,sans-Serif" font-size="10.00">+ AddClassCallBack()</text>
<text text-anchor="start" x="1320.5" y="-376.5" font-family="Helvetica,sans-Serif" font-size="10.00">+ GetClassPropertyManager()</text>
<text text-anchor="start" x="1320.5" y="-365.5" font-family="Helvetica,sans-Serif" font-size="10.00">+ GetClassRecordManager()</text>
<text text-anchor="start" x="1320.5" y="-354.5" font-family="Helvetica,sans-Serif" font-size="10.00">+ GetClassComponentManager()</text>
</a>
</g>
</g>
<!-- Node5&#45;&gt;Node12 -->
<g id="edge13" class="edge"><title>Node5&#45;&gt;Node12</title>
<path fill="none" stroke="midnightblue" d="M719.433,-736.875C866.068,-720.015 1211.65,-673.703 1303,-603 1334.89,-578.319 1356.25,-539.112 1370.04,-503.912"/>
<polygon fill="none" stroke="midnightblue" points="718.765,-733.429 709.225,-738.038 719.557,-740.384 718.765,-733.429"/>
</g>
<!-- Node14 -->
<g id="node12" class="node"><title>Node14</title>
<g id="a_node12"><a xlink:href="class_n_f_i_element_module.html" target="_top" xlink:title="{NFIElementModule\n||+ Load()\l+ Save()\l+ Clear()\l+ ExistElement()\l+ ExistElement()\l+ GetPropertyManager()\l+ GetRecordManager()\l+ GetComponentManager()\l+ GetPropertyInt()\l+ GetPropertyFloat()\l+ GetPropertyString()\l}">
<polygon fill="white" stroke="black" points="975,-342 975,-509 1109,-509 1109,-342 975,-342"/>
<text text-anchor="middle" x="1042" y="-497" font-family="Helvetica,sans-Serif" font-size="10.00">NFIElementModule</text>
<polyline fill="none" stroke="black" points="975,-490 1109,-490 "/>
<text text-anchor="middle" x="1042" y="-478" font-family="Helvetica,sans-Serif" font-size="10.00"> </text>
<polyline fill="none" stroke="black" points="975,-471 1109,-471 "/>
<text text-anchor="start" x="983" y="-459" font-family="Helvetica,sans-Serif" font-size="10.00">+ Load()</text>
<text text-anchor="start" x="983" y="-448" font-family="Helvetica,sans-Serif" font-size="10.00">+ Save()</text>
<text text-anchor="start" x="983" y="-437" font-family="Helvetica,sans-Serif" font-size="10.00">+ Clear()</text>
<text text-anchor="start" x="983" y="-426" font-family="Helvetica,sans-Serif" font-size="10.00">+ ExistElement()</text>
<text text-anchor="start" x="983" y="-415" font-family="Helvetica,sans-Serif" font-size="10.00">+ ExistElement()</text>
<text text-anchor="start" x="983" y="-404" font-family="Helvetica,sans-Serif" font-size="10.00">+ GetPropertyManager()</text>
<text text-anchor="start" x="983" y="-393" font-family="Helvetica,sans-Serif" font-size="10.00">+ GetRecordManager()</text>
<text text-anchor="start" x="983" y="-382" font-family="Helvetica,sans-Serif" font-size="10.00">+ GetComponentManager()</text>
<text text-anchor="start" x="983" y="-371" font-family="Helvetica,sans-Serif" font-size="10.00">+ GetPropertyInt()</text>
<text text-anchor="start" x="983" y="-360" font-family="Helvetica,sans-Serif" font-size="10.00">+ GetPropertyFloat()</text>
<text text-anchor="start" x="983" y="-349" font-family="Helvetica,sans-Serif" font-size="10.00">+ GetPropertyString()</text>
</a>
</g>
</g>
<!-- Node5&#45;&gt;Node14 -->
<g id="edge16" class="edge"><title>Node5&#45;&gt;Node14</title>
<path fill="none" stroke="midnightblue" d="M719.076,-729.155C788.451,-710.481 896.746,-672.153 965,-603 990.481,-577.184 1008.19,-541.546 1020.15,-509.05"/>
<polygon fill="none" stroke="midnightblue" points="717.913,-725.842 709.132,-731.769 719.693,-732.612 717.913,-725.842"/>
</g>
<!-- Node16 -->
<g id="node14" class="node"><title>Node16</title>
<g id="a_node14"><a xlink:href="class_n_f_i_login_net___server_module.html" target="_top" xlink:title="{NFILoginNet_ServerModule\n||+ OnSelectWorldResultsProcess()\l}">
<polygon fill="white" stroke="black" points="1127.5,-397 1127.5,-454 1294.5,-454 1294.5,-397 1127.5,-397"/>
<text text-anchor="middle" x="1211" y="-442" font-family="Helvetica,sans-Serif" font-size="10.00">NFILoginNet_ServerModule</text>
<polyline fill="none" stroke="black" points="1127.5,-435 1294.5,-435 "/>
<text text-anchor="middle" x="1211" y="-423" font-family="Helvetica,sans-Serif" font-size="10.00"> </text>
<polyline fill="none" stroke="black" points="1127.5,-416 1294.5,-416 "/>
<text text-anchor="start" x="1135.5" y="-404" font-family="Helvetica,sans-Serif" font-size="10.00">+ OnSelectWorldResultsProcess()</text>
</a>
</g>
</g>
<!-- Node5&#45;&gt;Node16 -->
<g id="edge19" class="edge"><title>Node5&#45;&gt;Node16</title>
<path fill="none" stroke="midnightblue" d="M719.272,-739.792C816.861,-730.393 1000.35,-700.128 1118,-603 1165.81,-563.53 1192.23,-492.964 1203.8,-454.085"/>
<polygon fill="none" stroke="midnightblue" points="718.878,-736.313 709.241,-740.713 719.519,-743.284 718.878,-736.313"/>
</g>
<!-- Node17 -->
<g id="node15" class="node"><title>Node17</title>
<g id="a_node15"><a xlink:href="class_n_f_i_log_module.html" target="_top" xlink:title="{NFILogModule\n||+ LogDebug()\l+ LogInfo()\l+ LogWarning()\l+ LogError()\l+ LogFatal()\l+ LogDebug()\l+ LogInfo()\l+ LogWarning()\l+ LogError()\l+ LogFatal()\land 8 more...\l}">
<polygon fill="white" stroke="black" points="1489.5,-342 1489.5,-509 1572.5,-509 1572.5,-342 1489.5,-342"/>
<text text-anchor="middle" x="1531" y="-497" font-family="Helvetica,sans-Serif" font-size="10.00">NFILogModule</text>
<polyline fill="none" stroke="black" points="1489.5,-490 1572.5,-490 "/>
<text text-anchor="middle" x="1531" y="-478" font-family="Helvetica,sans-Serif" font-size="10.00"> </text>
<polyline fill="none" stroke="black" points="1489.5,-471 1572.5,-471 "/>
<text text-anchor="start" x="1497.5" y="-459" font-family="Helvetica,sans-Serif" font-size="10.00">+ LogDebug()</text>
<text text-anchor="start" x="1497.5" y="-448" font-family="Helvetica,sans-Serif" font-size="10.00">+ LogInfo()</text>
<text text-anchor="start" x="1497.5" y="-437" font-family="Helvetica,sans-Serif" font-size="10.00">+ LogWarning()</text>
<text text-anchor="start" x="1497.5" y="-426" font-family="Helvetica,sans-Serif" font-size="10.00">+ LogError()</text>
<text text-anchor="start" x="1497.5" y="-415" font-family="Helvetica,sans-Serif" font-size="10.00">+ LogFatal()</text>
<text text-anchor="start" x="1497.5" y="-404" font-family="Helvetica,sans-Serif" font-size="10.00">+ LogDebug()</text>
<text text-anchor="start" x="1497.5" y="-393" font-family="Helvetica,sans-Serif" font-size="10.00">+ LogInfo()</text>
<text text-anchor="start" x="1497.5" y="-382" font-family="Helvetica,sans-Serif" font-size="10.00">+ LogWarning()</text>
<text text-anchor="start" x="1497.5" y="-371" font-family="Helvetica,sans-Serif" font-size="10.00">+ LogError()</text>
<text text-anchor="start" x="1497.5" y="-360" font-family="Helvetica,sans-Serif" font-size="10.00">+ LogFatal()</text>
<text text-anchor="start" x="1497.5" y="-349" font-family="Helvetica,sans-Serif" font-size="10.00">and 8 more...</text>
</a>
</g>
</g>
<!-- Node5&#45;&gt;Node17 -->
<g id="edge21" class="edge"><title>Node5&#45;&gt;Node17</title>
<path fill="none" stroke="midnightblue" d="M719.174,-734.692C910.475,-707.526 1452.44,-628.649 1481,-603 1507.42,-579.274 1520.31,-542.733 1526.45,-509.041"/>
<polygon fill="none" stroke="midnightblue" points="718.657,-731.23 709.247,-736.1 719.64,-738.161 718.657,-731.23"/>
</g>
<!-- Node18 -->
<g id="node16" class="node"><title>Node18</title>
<g id="a_node16"><a xlink:href="class_n_f_i_login_logic_module.html" target="_top" xlink:title="{NFILoginLogicModule\n||+ OnLoginProcess()\l}">
<polygon fill="white" stroke="black" points="252,-397 252,-454 362,-454 362,-397 252,-397"/>
<text text-anchor="middle" x="307" y="-442" font-family="Helvetica,sans-Serif" font-size="10.00">NFILoginLogicModule</text>
<polyline fill="none" stroke="black" points="252,-435 362,-435 "/>
<text text-anchor="middle" x="307" y="-423" font-family="Helvetica,sans-Serif" font-size="10.00"> </text>
<polyline fill="none" stroke="black" points="252,-416 362,-416 "/>
<text text-anchor="start" x="260" y="-404" font-family="Helvetica,sans-Serif" font-size="10.00">+ OnLoginProcess()</text>
</a>
</g>
</g>
<!-- Node5&#45;&gt;Node18 -->
<g id="edge23" class="edge"><title>Node5&#45;&gt;Node18</title>
<path fill="none" stroke="midnightblue" d="M586.858,-726.514C523.354,-706.53 428.788,-667.899 371,-603 332.634,-559.913 316.726,-492.033 310.562,-454.241"/>
<polygon fill="none" stroke="midnightblue" points="586.186,-729.969 596.773,-729.563 588.243,-723.279 586.186,-729.969"/>
</g>
<!-- Node6&#45;&gt;Node5 -->
<g id="edge3" class="edge"><title>Node6&#45;&gt;Node5</title>
<path fill="none" stroke="#404040" d="M460.694,-520.259C470.453,-548.216 483.391,-578.033 500,-603 523.379,-638.144 557.294,-670.582 587.254,-695.462"/>
<polygon fill="none" stroke="#404040" points="587.525,-695.684 594.703,-696.377 596.824,-703.269 589.646,-702.576 587.525,-695.684"/>
<text text-anchor="middle" x="560.5" y="-624" font-family="Helvetica,sans-Serif" font-size="10.00"> #pPluginManager</text>
</g>
<!-- Node7&#45;&gt;Node3 -->
<g id="edge5" class="edge"><title>Node7&#45;&gt;Node3</title>
<path fill="none" stroke="#404040" d="M233.522,-259.293C236.569,-255.392 239.727,-251.618 243,-248 260.234,-228.949 268.946,-228.019 293,-219 467.107,-153.723 683.628,-122.925 804.748,-109.875"/>
<polygon fill="none" stroke="#404040" points="804.95,-109.854 810.497,-105.245 816.884,-108.593 811.337,-113.201 804.95,-109.854"/>
<text text-anchor="middle" x="341.5" y="-222" font-family="Helvetica,sans-Serif" font-size="10.00"> &#45;m_pNetClientModule</text>
</g>
<!-- Node8 -->
<g id="node6" class="node"><title>Node8</title>
<g id="a_node6"><a xlink:href="class_n_f_map_ex.html" target="_top" xlink:title="{NFMapEx\&lt; int, ConnectData \&gt;\n|&#45; mObjectList\l&#45; mObjectCurIter\l|+ NFMapEx()\l+ ~NFMapEx()\l+ AddElement()\l+ SetElement()\l+ RemoveElement()\l+ GetElementNude()\l+ GetElement()\l+ FirstNude()\l+ FirstNude()\l+ NextNude()\land 7 more...\l}">
<polygon fill="white" stroke="black" points="144.5,-656 144.5,-834 295.5,-834 295.5,-656 144.5,-656"/>
<text text-anchor="middle" x="220" y="-822" font-family="Helvetica,sans-Serif" font-size="10.00">NFMapEx&lt; int, ConnectData &gt;</text>
<polyline fill="none" stroke="black" points="144.5,-815 295.5,-815 "/>
<text text-anchor="start" x="152.5" y="-803" font-family="Helvetica,sans-Serif" font-size="10.00">&#45; mObjectList</text>
<text text-anchor="start" x="152.5" y="-792" font-family="Helvetica,sans-Serif" font-size="10.00">&#45; mObjectCurIter</text>
<polyline fill="none" stroke="black" points="144.5,-785 295.5,-785 "/>
<text text-anchor="start" x="152.5" y="-773" font-family="Helvetica,sans-Serif" font-size="10.00">+ NFMapEx()</text>
<text text-anchor="start" x="152.5" y="-762" font-family="Helvetica,sans-Serif" font-size="10.00">+ ~NFMapEx()</text>
<text text-anchor="start" x="152.5" y="-751" font-family="Helvetica,sans-Serif" font-size="10.00">+ AddElement()</text>
<text text-anchor="start" x="152.5" y="-740" font-family="Helvetica,sans-Serif" font-size="10.00">+ SetElement()</text>
<text text-anchor="start" x="152.5" y="-729" font-family="Helvetica,sans-Serif" font-size="10.00">+ RemoveElement()</text>
<text text-anchor="start" x="152.5" y="-718" font-family="Helvetica,sans-Serif" font-size="10.00">+ GetElementNude()</text>
<text text-anchor="start" x="152.5" y="-707" font-family="Helvetica,sans-Serif" font-size="10.00">+ GetElement()</text>
<text text-anchor="start" x="152.5" y="-696" font-family="Helvetica,sans-Serif" font-size="10.00">+ FirstNude()</text>
<text text-anchor="start" x="152.5" y="-685" font-family="Helvetica,sans-Serif" font-size="10.00">+ FirstNude()</text>
<text text-anchor="start" x="152.5" y="-674" font-family="Helvetica,sans-Serif" font-size="10.00">+ NextNude()</text>
<text text-anchor="start" x="152.5" y="-663" font-family="Helvetica,sans-Serif" font-size="10.00">and 7 more...</text>
</a>
</g>
</g>
<!-- Node8&#45;&gt;Node7 -->
<g id="edge7" class="edge"><title>Node8&#45;&gt;Node7</title>
<path fill="none" stroke="#404040" d="M204.198,-655.98C201.843,-642.861 199.342,-628.932 196.783,-614.675"/>
<polygon fill="none" stroke="#404040" points="196.741,-614.444 191.744,-609.245 194.621,-602.633 199.618,-607.832 196.741,-614.444"/>
<text text-anchor="middle" x="232" y="-624" font-family="Helvetica,sans-Serif" font-size="10.00"> &#45;mxServerMap</text>
</g>
<!-- Node9 -->
<g id="node7" class="node"><title>Node9</title>
<g id="a_node7"><a xlink:href="class_n_f_c_consistent_hash.html" target="_top" xlink:title="A nfc consistent hash. ">
<polygon fill="white" stroke="black" points="0,-656 0,-834 126,-834 126,-656 0,-656"/>
<text text-anchor="middle" x="63" y="-822" font-family="Helvetica,sans-Serif" font-size="10.00">NFCConsistentHash</text>
<polyline fill="none" stroke="black" points="0,-815 126,-815 "/>
<text text-anchor="start" x="8" y="-803" font-family="Helvetica,sans-Serif" font-size="10.00">&#45; mxNodes</text>
<polyline fill="none" stroke="black" points="0,-796 126,-796 "/>
<text text-anchor="start" x="8" y="-784" font-family="Helvetica,sans-Serif" font-size="10.00">+ NFCConsistentHash()</text>
<text text-anchor="start" x="8" y="-773" font-family="Helvetica,sans-Serif" font-size="10.00">+ ~NFCConsistentHash()</text>
<text text-anchor="start" x="8" y="-762" font-family="Helvetica,sans-Serif" font-size="10.00">+ Size()</text>
<text text-anchor="start" x="8" y="-751" font-family="Helvetica,sans-Serif" font-size="10.00">+ Empty()</text>
<text text-anchor="start" x="8" y="-740" font-family="Helvetica,sans-Serif" font-size="10.00">+ Insert()</text>
<text text-anchor="start" x="8" y="-729" font-family="Helvetica,sans-Serif" font-size="10.00">+ Insert()</text>
<text text-anchor="start" x="8" y="-718" font-family="Helvetica,sans-Serif" font-size="10.00">+ Exist()</text>
<text text-anchor="start" x="8" y="-707" font-family="Helvetica,sans-Serif" font-size="10.00">+ Erase()</text>
<text text-anchor="start" x="8" y="-696" font-family="Helvetica,sans-Serif" font-size="10.00">+ GetSuitNode()</text>
<text text-anchor="start" x="8" y="-685" font-family="Helvetica,sans-Serif" font-size="10.00">+ GetSuitNode()</text>
<text text-anchor="start" x="8" y="-674" font-family="Helvetica,sans-Serif" font-size="10.00">+ GetSuitNode()</text>
<text text-anchor="start" x="8" y="-663" font-family="Helvetica,sans-Serif" font-size="10.00">+ GetNodeList()</text>
</a>
</g>
</g>
<!-- Node9&#45;&gt;Node7 -->
<g id="edge8" class="edge"><title>Node9&#45;&gt;Node7</title>
<path fill="none" stroke="#404040" d="M90.7228,-655.98C94.896,-642.73 99.3295,-628.654 103.867,-614.248"/>
<polygon fill="none" stroke="#404040" points="103.92,-614.079 101.907,-607.154 107.525,-602.633 109.538,-609.557 103.92,-614.079"/>
<text text-anchor="middle" x="146.5" y="-624" font-family="Helvetica,sans-Serif" font-size="10.00"> &#45;mxConsistentHash</text>
</g>
<!-- Node10 -->
<g id="node8" class="node"><title>Node10</title>
<g id="a_node8"><a xlink:href="class_n_f_i_hasher.html" target="_top" xlink:title="A nfi hasher. ">
<polygon fill="white" stroke="black" points="15.5,-887.5 15.5,-944.5 110.5,-944.5 110.5,-887.5 15.5,-887.5"/>
<text text-anchor="middle" x="63" y="-932.5" font-family="Helvetica,sans-Serif" font-size="10.00">NFIHasher</text>
<polyline fill="none" stroke="black" points="15.5,-925.5 110.5,-925.5 "/>
<text text-anchor="middle" x="63" y="-913.5" font-family="Helvetica,sans-Serif" font-size="10.00"> </text>
<polyline fill="none" stroke="black" points="15.5,-906.5 110.5,-906.5 "/>
<text text-anchor="start" x="23.5" y="-894.5" font-family="Helvetica,sans-Serif" font-size="10.00">+ GetHashValue()</text>
</a>
</g>
</g>
<!-- Node10&#45;&gt;Node9 -->
<g id="edge9" class="edge"><title>Node10&#45;&gt;Node9</title>
<path fill="none" stroke="#404040" d="M63,-887.471C63,-875.81 63,-861.44 63,-846.372"/>
<polygon fill="none" stroke="#404040" points="63.0001,-846.176 59,-840.176 63,-834.176 67,-840.176 63.0001,-846.176"/>
<text text-anchor="middle" x="91" y="-861" font-family="Helvetica,sans-Serif" font-size="10.00"> &#45;m_pHasher</text>
</g>
<!-- Node11&#45;&gt;Node3 -->
<g id="edge10" class="edge"><title>Node11&#45;&gt;Node3</title>
<path fill="none" stroke="#404040" d="M768.93,-314.342C779.698,-282.691 793.132,-248.717 809,-219 810.373,-216.429 811.8,-213.854 813.274,-211.28"/>
<polygon fill="none" stroke="#404040" points="813.424,-211.028 813.064,-203.826 819.574,-200.723 819.934,-207.925 813.424,-211.028"/>
<text text-anchor="middle" x="851.5" y="-222" font-family="Helvetica,sans-Serif" font-size="10.00"> &#45;m_pKernelModule</text>
</g>
<!-- Node12&#45;&gt;Node3 -->
<g id="edge12" class="edge"><title>Node12&#45;&gt;Node3</title>
<path fill="none" stroke="#404040" d="M1367.24,-347.095C1353.04,-312.961 1332.12,-274.639 1303,-248 1215.45,-167.902 1080.8,-130.812 991.093,-114.189"/>
<polygon fill="none" stroke="#404040" points="990.829,-114.142 984.217,-117.021 979.017,-112.025 985.628,-109.146 990.829,-114.142"/>
<text text-anchor="middle" x="1318" y="-222" font-family="Helvetica,sans-Serif" font-size="10.00"> &#45;m_pClassModule</text>
</g>
<!-- Node13 -->
<g id="node11" class="node"><title>Node13</title>
<g id="a_node11"><a xlink:href="class_n_f_map_ex.html" target="_top" xlink:title="{NFMapEx\&lt; std::string,\l NFIClass \&gt;\n|&#45; mObjectList\l&#45; mObjectCurIter\l|+ NFMapEx()\l+ ~NFMapEx()\l+ AddElement()\l+ SetElement()\l+ RemoveElement()\l+ GetElementNude()\l+ GetElement()\l+ FirstNude()\l+ FirstNude()\l+ NextNude()\land 7 more...\l}">
<polygon fill="white" stroke="black" points="1334,-650.5 1334,-839.5 1450,-839.5 1450,-650.5 1334,-650.5"/>
<text text-anchor="start" x="1342" y="-827.5" font-family="Helvetica,sans-Serif" font-size="10.00">NFMapEx&lt; std::string,</text>
<text text-anchor="middle" x="1392" y="-816.5" font-family="Helvetica,sans-Serif" font-size="10.00"> NFIClass &gt;</text>
<polyline fill="none" stroke="black" points="1334,-809.5 1450,-809.5 "/>
<text text-anchor="start" x="1342" y="-797.5" font-family="Helvetica,sans-Serif" font-size="10.00">&#45; mObjectList</text>
<text text-anchor="start" x="1342" y="-786.5" font-family="Helvetica,sans-Serif" font-size="10.00">&#45; mObjectCurIter</text>
<polyline fill="none" stroke="black" points="1334,-779.5 1450,-779.5 "/>
<text text-anchor="start" x="1342" y="-767.5" font-family="Helvetica,sans-Serif" font-size="10.00">+ NFMapEx()</text>
<text text-anchor="start" x="1342" y="-756.5" font-family="Helvetica,sans-Serif" font-size="10.00">+ ~NFMapEx()</text>
<text text-anchor="start" x="1342" y="-745.5" font-family="Helvetica,sans-Serif" font-size="10.00">+ AddElement()</text>
<text text-anchor="start" x="1342" y="-734.5" font-family="Helvetica,sans-Serif" font-size="10.00">+ SetElement()</text>
<text text-anchor="start" x="1342" y="-723.5" font-family="Helvetica,sans-Serif" font-size="10.00">+ RemoveElement()</text>
<text text-anchor="start" x="1342" y="-712.5" font-family="Helvetica,sans-Serif" font-size="10.00">+ GetElementNude()</text>
<text text-anchor="start" x="1342" y="-701.5" font-family="Helvetica,sans-Serif" font-size="10.00">+ GetElement()</text>
<text text-anchor="start" x="1342" y="-690.5" font-family="Helvetica,sans-Serif" font-size="10.00">+ FirstNude()</text>
<text text-anchor="start" x="1342" y="-679.5" font-family="Helvetica,sans-Serif" font-size="10.00">+ FirstNude()</text>
<text text-anchor="start" x="1342" y="-668.5" font-family="Helvetica,sans-Serif" font-size="10.00">+ NextNude()</text>
<text text-anchor="start" x="1342" y="-657.5" font-family="Helvetica,sans-Serif" font-size="10.00">and 7 more...</text>
</a>
</g>
</g>
<!-- Node13&#45;&gt;Node12 -->
<g id="edge14" class="edge"><title>Node13&#45;&gt;Node12</title>
<path fill="none" stroke="midnightblue" d="M1392,-640.189C1392,-595.708 1392,-544.662 1392,-503.617"/>
<polygon fill="none" stroke="midnightblue" points="1388.5,-640.457 1392,-650.457 1395.5,-640.457 1388.5,-640.457"/>
</g>
<!-- Node14&#45;&gt;Node3 -->
<g id="edge15" class="edge"><title>Node14&#45;&gt;Node3</title>
<path fill="none" stroke="#404040" d="M1011.84,-341.575C997.448,-303.758 979.376,-258.668 961,-219 959.874,-216.568 958.72,-214.116 957.544,-211.651"/>
<polygon fill="none" stroke="#404040" points="957.505,-211.568 951.285,-207.919 952.262,-200.774 958.481,-204.424 957.505,-211.568"/>
<text text-anchor="middle" x="1012.5" y="-222" font-family="Helvetica,sans-Serif" font-size="10.00"> &#45;m_pElementModule</text>
</g>
<!-- Node15 -->
<g id="node13" class="node"><title>Node15</title>
<g id="a_node13"><a xlink:href="class_n_f_map_ex.html" target="_top" xlink:title="{NFMapEx\&lt; int, NFMsg\l::ServerInfoReport \&gt;\n|&#45; mObjectList\l&#45; mObjectCurIter\l|+ NFMapEx()\l+ ~NFMapEx()\l+ AddElement()\l+ SetElement()\l+ RemoveElement()\l+ GetElementNude()\l+ GetElement()\l+ FirstNude()\l+ FirstNude()\l+ NextNude()\land 7 more...\l}">
<polygon fill="white" stroke="black" points="839.5,-331 839.5,-520 956.5,-520 956.5,-331 839.5,-331"/>
<text text-anchor="start" x="847.5" y="-508" font-family="Helvetica,sans-Serif" font-size="10.00">NFMapEx&lt; int, NFMsg</text>
<text text-anchor="middle" x="898" y="-497" font-family="Helvetica,sans-Serif" font-size="10.00">::ServerInfoReport &gt;</text>
<polyline fill="none" stroke="black" points="839.5,-490 956.5,-490 "/>
<text text-anchor="start" x="847.5" y="-478" font-family="Helvetica,sans-Serif" font-size="10.00">&#45; mObjectList</text>
<text text-anchor="start" x="847.5" y="-467" font-family="Helvetica,sans-Serif" font-size="10.00">&#45; mObjectCurIter</text>
<polyline fill="none" stroke="black" points="839.5,-460 956.5,-460 "/>
<text text-anchor="start" x="847.5" y="-448" font-family="Helvetica,sans-Serif" font-size="10.00">+ NFMapEx()</text>
<text text-anchor="start" x="847.5" y="-437" font-family="Helvetica,sans-Serif" font-size="10.00">+ ~NFMapEx()</text>
<text text-anchor="start" x="847.5" y="-426" font-family="Helvetica,sans-Serif" font-size="10.00">+ AddElement()</text>
<text text-anchor="start" x="847.5" y="-415" font-family="Helvetica,sans-Serif" font-size="10.00">+ SetElement()</text>
<text text-anchor="start" x="847.5" y="-404" font-family="Helvetica,sans-Serif" font-size="10.00">+ RemoveElement()</text>
<text text-anchor="start" x="847.5" y="-393" font-family="Helvetica,sans-Serif" font-size="10.00">+ GetElementNude()</text>
<text text-anchor="start" x="847.5" y="-382" font-family="Helvetica,sans-Serif" font-size="10.00">+ GetElement()</text>
<text text-anchor="start" x="847.5" y="-371" font-family="Helvetica,sans-Serif" font-size="10.00">+ FirstNude()</text>
<text text-anchor="start" x="847.5" y="-360" font-family="Helvetica,sans-Serif" font-size="10.00">+ FirstNude()</text>
<text text-anchor="start" x="847.5" y="-349" font-family="Helvetica,sans-Serif" font-size="10.00">+ NextNude()</text>
<text text-anchor="start" x="847.5" y="-338" font-family="Helvetica,sans-Serif" font-size="10.00">and 7 more...</text>
</a>
</g>
</g>
<!-- Node15&#45;&gt;Node3 -->
<g id="edge17" class="edge"><title>Node15&#45;&gt;Node3</title>
<path fill="none" stroke="#404040" d="M898,-330.641C898,-293.833 898,-251.304 898,-212.952"/>
<polygon fill="none" stroke="#404040" points="898,-212.66 894,-206.66 898,-200.66 902,-206.66 898,-212.66"/>
<text text-anchor="middle" x="927.5" y="-222" font-family="Helvetica,sans-Serif" font-size="10.00"> &#45;mWorldMap</text>
</g>
<!-- Node16&#45;&gt;Node3 -->
<g id="edge18" class="edge"><title>Node16&#45;&gt;Node3</title>
<path fill="none" stroke="#404040" d="M1201.39,-396.823C1187.48,-359.709 1158.84,-293.257 1118,-248 1081.79,-207.872 1032.33,-173.657 989.472,-148.408"/>
<polygon fill="none" stroke="#404040" points="989.399,-148.366 982.202,-148.817 979.017,-142.347 986.214,-141.896 989.399,-148.366"/>
<text text-anchor="middle" x="1162.5" y="-222" font-family="Helvetica,sans-Serif" font-size="10.00"> &#45;m_pLoginNet_ServerModule</text>
</g>
<!-- Node17&#45;&gt;Node3 -->
<g id="edge20" class="edge"><title>Node17&#45;&gt;Node3</title>
<path fill="none" stroke="#404040" d="M1525.29,-341.566C1518.91,-308.418 1506.14,-272.399 1481,-248 1411.66,-180.705 1137.61,-134.114 991.271,-113.484"/>
<polygon fill="none" stroke="#404040" points="991.124,-113.464 984.629,-116.596 979.239,-111.806 985.734,-108.673 991.124,-113.464"/>
<text text-anchor="middle" x="1486.5" y="-222" font-family="Helvetica,sans-Serif" font-size="10.00"> &#45;m_pLogModule</text>
</g>
<!-- Node18&#45;&gt;Node3 -->
<g id="edge22" class="edge"><title>Node18&#45;&gt;Node3</title>
<path fill="none" stroke="#404040" d="M309.269,-396.962C313.959,-358.14 328.192,-287.643 371,-248 491.118,-136.761 688.454,-108.907 804.531,-102.577"/>
<polygon fill="none" stroke="#404040" points="804.557,-102.576 810.352,-98.2844 816.542,-101.983 810.747,-106.275 804.557,-102.576"/>
<text text-anchor="middle" x="456.5" y="-222" font-family="Helvetica,sans-Serif" font-size="10.00"> &#45;m_pLoginLogicModule</text>
</g>
</g>
</svg>
