<?xml version="1.0" encoding="UTF-8" standalone="no"?>
<!DOCTYPE svg PUBLIC "-//W3C//DTD SVG 1.1//EN"
 "http://www.w3.org/Graphics/SVG/1.1/DTD/svg11.dtd">
<!-- Generated by graphviz version 2.38.0 (20140413.2041)
 -->
<!-- Title: NFCEventRouteModule Pages: 1 -->
<!--zoomable 650 -->
<svg id="main" version="1.1" xmlns="http://www.w3.org/2000/svg" xmlns:xlink="http://www.w3.org/1999/xlink" xml:space="preserve" onload="init(evt)">
<style type="text/css"><![CDATA[
.edge:hover path { stroke: red; }
.edge:hover polygon { stroke: red; fill: red; }
]]></style>
<script type="text/javascript"><![CDATA[
var edges = document.getElementsByTagName('g');
if (edges && edges.length) {
  for (var i=0;i<edges.length;i++) {
    if (edges[i].id.substr(0,4)=='edge') {
      edges[i].setAttribute('class','edge');
    }
  }
}
]]></script>
        <defs>
                <circle id="rim" cx="0" cy="0" r="7"/>
                <circle id="rim2" cx="0" cy="0" r="3.5"/>
                <g id="zoomPlus">
                        <use xlink:href="#rim" fill="#404040">
                                <set attributeName="fill" to="#808080" begin="zoomplus.mouseover" end="zoomplus.mouseout"/>
                        </use>
                        <path d="M-4,0h8M0,-4v8" fill="none" stroke="white" stroke-width="1.5" pointer-events="none"/>
                </g>
                <g id="zoomMin">
                        <use xlink:href="#rim" fill="#404040">
                                <set attributeName="fill" to="#808080" begin="zoomminus.mouseover" end="zoomminus.mouseout"/>
                        </use>
                        <path d="M-4,0h8" fill="none" stroke="white" stroke-width="1.5" pointer-events="none"/>
                </g>
                <g id="dirArrow">
                        <path fill="none" stroke="white" stroke-width="1.5" d="M0,-3.0v7 M-2.5,-0.5L0,-3.0L2.5,-0.5"/>
                </g>
               <g id="resetDef">
                       <use xlink:href="#rim2" fill="#404040">
                               <set attributeName="fill" to="#808080" begin="reset.mouseover" end="reset.mouseout"/>
                       </use>
               </g>
        </defs>

<script type="text/javascript">
var viewWidth = 536;
var viewHeight = 650;
var sectionId = 'dynsection-1';
</script>
<script xlink:href="svgpan.js"/>
<svg id="graph" class="graph">
<g id="viewport">
<title>NFCEventRouteModule</title>
<polygon fill="white" stroke="none" points="-4,4 -4,-646 532,-646 532,4 -4,4"/>
<!-- Node2 -->
<g id="node1" class="node"><title>Node2</title>
<polygon fill="#bfbfbf" stroke="black" points="145.5,-0.5 145.5,-134.5 283.5,-134.5 283.5,-0.5 145.5,-0.5"/>
<text text-anchor="middle" x="214.5" y="-122.5" font-family="Helvetica,sans-Serif" font-size="10.00">NFCEventRouteModule</text>
<polyline fill="none" stroke="black" points="145.5,-115.5 283.5,-115.5 "/>
<text text-anchor="start" x="153.5" y="-103.5" font-family="Helvetica,sans-Serif" font-size="10.00">&#45; m_pEventProcessModule</text>
<polyline fill="none" stroke="black" points="145.5,-96.5 283.5,-96.5 "/>
<text text-anchor="start" x="153.5" y="-84.5" font-family="Helvetica,sans-Serif" font-size="10.00">+ NFCEventRouteModule()</text>
<text text-anchor="start" x="153.5" y="-73.5" font-family="Helvetica,sans-Serif" font-size="10.00">+ ~NFCEventRouteModule()</text>
<text text-anchor="start" x="153.5" y="-62.5" font-family="Helvetica,sans-Serif" font-size="10.00">+ Init()</text>
<text text-anchor="start" x="153.5" y="-51.5" font-family="Helvetica,sans-Serif" font-size="10.00">+ Shut()</text>
<text text-anchor="start" x="153.5" y="-40.5" font-family="Helvetica,sans-Serif" font-size="10.00">+ Execute()</text>
<text text-anchor="start" x="153.5" y="-29.5" font-family="Helvetica,sans-Serif" font-size="10.00">+ AfterInit()</text>
<text text-anchor="start" x="153.5" y="-18.5" font-family="Helvetica,sans-Serif" font-size="10.00">+ StartRouteEvent()</text>
<text text-anchor="start" x="153.5" y="-7.5" font-family="Helvetica,sans-Serif" font-size="10.00">+ ReceiveRouteEvent()</text>
</g>
<!-- Node3 -->
<g id="node2" class="node"><title>Node3</title>
<polygon fill="white" stroke="#bfbfbf" points="0,-265 0,-322 113,-322 113,-265 0,-265"/>
<text text-anchor="middle" x="56.5" y="-310" font-family="Helvetica,sans-Serif" font-size="10.00">NFIEventRouteModule</text>
<polyline fill="none" stroke="#bfbfbf" points="0,-303 113,-303 "/>
<text text-anchor="middle" x="56.5" y="-291" font-family="Helvetica,sans-Serif" font-size="10.00"> </text>
<polyline fill="none" stroke="#bfbfbf" points="0,-284 113,-284 "/>
<text text-anchor="middle" x="56.5" y="-272" font-family="Helvetica,sans-Serif" font-size="10.00"> </text>
</g>
<!-- Node3&#45;&gt;Node2 -->
<g id="edge1" class="edge"><title>Node3&#45;&gt;Node2</title>
<path fill="none" stroke="midnightblue" d="M76.1022,-255.981C88.348,-234.017 104.899,-205.799 121.5,-182 132.504,-166.225 145.106,-149.883 157.407,-134.68"/>
<polygon fill="none" stroke="midnightblue" points="72.9029,-254.534 71.13,-264.98 79.0298,-257.92 72.9029,-254.534"/>
</g>
<!-- Node4 -->
<g id="node3" class="node"><title>Node4</title>
<g id="a_node3"><a xlink:href="class_n_f_i_kernel_module.html" target="_top" xlink:title="{NFIKernelModule\n||+ AddHeartBeat()\l+ FindHeartBeat()\l+ RemoveHeartBeat()\l+ AddRecordCallBack()\l+ AddPropertyCallBack()\l+ AddEventCallBack()\l+ AddClassCallBack()\l+ DoEvent()\l+ DoEvent()\l+ RegisterCommonClassEvent()\land 56 more...\l# AddEventCallBack()\l# AddClassCallBack()\l# RegisterCommonClassEvent()\l# RegisterCommonPropertyEvent()\l# RegisterCommonRecordEvent()\l}">
<polygon fill="white" stroke="black" points="131,-182.5 131,-404.5 298,-404.5 298,-182.5 131,-182.5"/>
<text text-anchor="middle" x="214.5" y="-392.5" font-family="Helvetica,sans-Serif" font-size="10.00">NFIKernelModule</text>
<polyline fill="none" stroke="black" points="131,-385.5 298,-385.5 "/>
<text text-anchor="middle" x="214.5" y="-373.5" font-family="Helvetica,sans-Serif" font-size="10.00"> </text>
<polyline fill="none" stroke="black" points="131,-366.5 298,-366.5 "/>
<text text-anchor="start" x="139" y="-354.5" font-family="Helvetica,sans-Serif" font-size="10.00">+ AddHeartBeat()</text>
<text text-anchor="start" x="139" y="-343.5" font-family="Helvetica,sans-Serif" font-size="10.00">+ FindHeartBeat()</text>
<text text-anchor="start" x="139" y="-332.5" font-family="Helvetica,sans-Serif" font-size="10.00">+ RemoveHeartBeat()</text>
<text text-anchor="start" x="139" y="-321.5" font-family="Helvetica,sans-Serif" font-size="10.00">+ AddRecordCallBack()</text>
<text text-anchor="start" x="139" y="-310.5" font-family="Helvetica,sans-Serif" font-size="10.00">+ AddPropertyCallBack()</text>
<text text-anchor="start" x="139" y="-299.5" font-family="Helvetica,sans-Serif" font-size="10.00">+ AddEventCallBack()</text>
<text text-anchor="start" x="139" y="-288.5" font-family="Helvetica,sans-Serif" font-size="10.00">+ AddClassCallBack()</text>
<text text-anchor="start" x="139" y="-277.5" font-family="Helvetica,sans-Serif" font-size="10.00">+ DoEvent()</text>
<text text-anchor="start" x="139" y="-266.5" font-family="Helvetica,sans-Serif" font-size="10.00">+ DoEvent()</text>
<text text-anchor="start" x="139" y="-255.5" font-family="Helvetica,sans-Serif" font-size="10.00">+ RegisterCommonClassEvent()</text>
<text text-anchor="start" x="139" y="-244.5" font-family="Helvetica,sans-Serif" font-size="10.00">and 56 more...</text>
<text text-anchor="start" x="139" y="-233.5" font-family="Helvetica,sans-Serif" font-size="10.00"># AddEventCallBack()</text>
<text text-anchor="start" x="139" y="-222.5" font-family="Helvetica,sans-Serif" font-size="10.00"># AddClassCallBack()</text>
<text text-anchor="start" x="139" y="-211.5" font-family="Helvetica,sans-Serif" font-size="10.00"># RegisterCommonClassEvent()</text>
<text text-anchor="start" x="139" y="-200.5" font-family="Helvetica,sans-Serif" font-size="10.00"># RegisterCommonPropertyEvent()</text>
<text text-anchor="start" x="139" y="-189.5" font-family="Helvetica,sans-Serif" font-size="10.00"># RegisterCommonRecordEvent()</text>
</a>
</g>
</g>
<!-- Node4&#45;&gt;Node2 -->
<g id="edge2" class="edge"><title>Node4&#45;&gt;Node2</title>
<path fill="none" stroke="#404040" d="M214.5,-182.469C214.5,-170.443 214.5,-158.388 214.5,-146.857"/>
<polygon fill="none" stroke="#404040" points="214.5,-146.576 210.5,-140.576 214.5,-134.576 218.5,-140.576 214.5,-146.576"/>
<text text-anchor="middle" x="257" y="-156" font-family="Helvetica,sans-Serif" font-size="10.00"> &#45;m_pKernelModule</text>
</g>
<!-- Node5 -->
<g id="node4" class="node"><title>Node5</title>
<g id="a_node4"><a xlink:href="class_n_f_i_module.html" target="_top" xlink:title="{NFIModule\n|+ strName\l# mbReloading\l|+ NFIModule()\l+ ~NFIModule()\l+ Init()\l+ AfterInit()\l+ CheckConfig()\l+ BeforeShut()\l+ Shut()\l+ Execute()\l+ StartReLoadState()\l+ EndReLoadState()\l+ GetPluginManager()\l+ Loading()\l}">
<polygon fill="white" stroke="black" points="303.5,-452.5 303.5,-641.5 415.5,-641.5 415.5,-452.5 303.5,-452.5"/>
<text text-anchor="middle" x="359.5" y="-629.5" font-family="Helvetica,sans-Serif" font-size="10.00">NFIModule</text>
<polyline fill="none" stroke="black" points="303.5,-622.5 415.5,-622.5 "/>
<text text-anchor="start" x="311.5" y="-610.5" font-family="Helvetica,sans-Serif" font-size="10.00">+ strName</text>
<text text-anchor="start" x="311.5" y="-599.5" font-family="Helvetica,sans-Serif" font-size="10.00"># mbReloading</text>
<polyline fill="none" stroke="black" points="303.5,-592.5 415.5,-592.5 "/>
<text text-anchor="start" x="311.5" y="-580.5" font-family="Helvetica,sans-Serif" font-size="10.00">+ NFIModule()</text>
<text text-anchor="start" x="311.5" y="-569.5" font-family="Helvetica,sans-Serif" font-size="10.00">+ ~NFIModule()</text>
<text text-anchor="start" x="311.5" y="-558.5" font-family="Helvetica,sans-Serif" font-size="10.00">+ Init()</text>
<text text-anchor="start" x="311.5" y="-547.5" font-family="Helvetica,sans-Serif" font-size="10.00">+ AfterInit()</text>
<text text-anchor="start" x="311.5" y="-536.5" font-family="Helvetica,sans-Serif" font-size="10.00">+ CheckConfig()</text>
<text text-anchor="start" x="311.5" y="-525.5" font-family="Helvetica,sans-Serif" font-size="10.00">+ BeforeShut()</text>
<text text-anchor="start" x="311.5" y="-514.5" font-family="Helvetica,sans-Serif" font-size="10.00">+ Shut()</text>
<text text-anchor="start" x="311.5" y="-503.5" font-family="Helvetica,sans-Serif" font-size="10.00">+ Execute()</text>
<text text-anchor="start" x="311.5" y="-492.5" font-family="Helvetica,sans-Serif" font-size="10.00">+ StartReLoadState()</text>
<text text-anchor="start" x="311.5" y="-481.5" font-family="Helvetica,sans-Serif" font-size="10.00">+ EndReLoadState()</text>
<text text-anchor="start" x="311.5" y="-470.5" font-family="Helvetica,sans-Serif" font-size="10.00">+ GetPluginManager()</text>
<text text-anchor="start" x="311.5" y="-459.5" font-family="Helvetica,sans-Serif" font-size="10.00">+ Loading()</text>
</a>
</g>
</g>
<!-- Node5&#45;&gt;Node4 -->
<g id="edge3" class="edge"><title>Node5&#45;&gt;Node4</title>
<path fill="none" stroke="midnightblue" d="M300.441,-443.564C293.074,-430.786 285.515,-417.674 278.083,-404.783"/>
<polygon fill="none" stroke="midnightblue" points="297.48,-445.436 305.507,-452.351 303.545,-441.939 297.48,-445.436"/>
</g>
<!-- Node6 -->
<g id="node5" class="node"><title>Node6</title>
<g id="a_node5"><a xlink:href="class_n_f_i_plugin_manager.html" target="_top" xlink:title="{NFIPluginManager\n||+ NFIPluginManager()\l+ FindModule()\l+ Registered()\l+ UnRegistered()\l+ FindPlugin()\l+ AddModule()\l+ RemoveModule()\l+ FindModule()\l+ AppID()\l+ GetInitTime()\l+ GetNowTime()\l+ GetConfigPath()\l+ SetConfigName()\l}">
<polygon fill="white" stroke="black" points="316,-199 316,-388 427,-388 427,-199 316,-199"/>
<text text-anchor="middle" x="371.5" y="-376" font-family="Helvetica,sans-Serif" font-size="10.00">NFIPluginManager</text>
<polyline fill="none" stroke="black" points="316,-369 427,-369 "/>
<text text-anchor="middle" x="371.5" y="-357" font-family="Helvetica,sans-Serif" font-size="10.00"> </text>
<polyline fill="none" stroke="black" points="316,-350 427,-350 "/>
<text text-anchor="start" x="324" y="-338" font-family="Helvetica,sans-Serif" font-size="10.00">+ NFIPluginManager()</text>
<text text-anchor="start" x="324" y="-327" font-family="Helvetica,sans-Serif" font-size="10.00">+ FindModule()</text>
<text text-anchor="start" x="324" y="-316" font-family="Helvetica,sans-Serif" font-size="10.00">+ Registered()</text>
<text text-anchor="start" x="324" y="-305" font-family="Helvetica,sans-Serif" font-size="10.00">+ UnRegistered()</text>
<text text-anchor="start" x="324" y="-294" font-family="Helvetica,sans-Serif" font-size="10.00">+ FindPlugin()</text>
<text text-anchor="start" x="324" y="-283" font-family="Helvetica,sans-Serif" font-size="10.00">+ AddModule()</text>
<text text-anchor="start" x="324" y="-272" font-family="Helvetica,sans-Serif" font-size="10.00">+ RemoveModule()</text>
<text text-anchor="start" x="324" y="-261" font-family="Helvetica,sans-Serif" font-size="10.00">+ FindModule()</text>
<text text-anchor="start" x="324" y="-250" font-family="Helvetica,sans-Serif" font-size="10.00">+ AppID()</text>
<text text-anchor="start" x="324" y="-239" font-family="Helvetica,sans-Serif" font-size="10.00">+ GetInitTime()</text>
<text text-anchor="start" x="324" y="-228" font-family="Helvetica,sans-Serif" font-size="10.00">+ GetNowTime()</text>
<text text-anchor="start" x="324" y="-217" font-family="Helvetica,sans-Serif" font-size="10.00">+ GetConfigPath()</text>
<text text-anchor="start" x="324" y="-206" font-family="Helvetica,sans-Serif" font-size="10.00">+ SetConfigName()</text>
</a>
</g>
</g>
<!-- Node5&#45;&gt;Node6 -->
<g id="edge5" class="edge"><title>Node5&#45;&gt;Node6</title>
<path fill="none" stroke="midnightblue" d="M360.738,-442.106C360.955,-435.639 361.207,-429.23 361.5,-423 362.03,-411.712 362.741,-399.878 363.539,-388.151"/>
<polygon fill="none" stroke="midnightblue" points="357.234,-442.195 360.426,-452.297 364.231,-442.409 357.234,-442.195"/>
</g>
<!-- Node7 -->
<g id="node6" class="node"><title>Node7</title>
<g id="a_node6"><a xlink:href="class_n_f_i_log_module.html" target="_top" xlink:title="{NFILogModule\n||+ LogDebug()\l+ LogInfo()\l+ LogWarning()\l+ LogError()\l+ LogFatal()\l+ LogDebug()\l+ LogInfo()\l+ LogWarning()\l+ LogError()\l+ LogFatal()\land 8 more...\l}">
<polygon fill="white" stroke="black" points="445,-210 445,-377 528,-377 528,-210 445,-210"/>
<text text-anchor="middle" x="486.5" y="-365" font-family="Helvetica,sans-Serif" font-size="10.00">NFILogModule</text>
<polyline fill="none" stroke="black" points="445,-358 528,-358 "/>
<text text-anchor="middle" x="486.5" y="-346" font-family="Helvetica,sans-Serif" font-size="10.00"> </text>
<polyline fill="none" stroke="black" points="445,-339 528,-339 "/>
<text text-anchor="start" x="453" y="-327" font-family="Helvetica,sans-Serif" font-size="10.00">+ LogDebug()</text>
<text text-anchor="start" x="453" y="-316" font-family="Helvetica,sans-Serif" font-size="10.00">+ LogInfo()</text>
<text text-anchor="start" x="453" y="-305" font-family="Helvetica,sans-Serif" font-size="10.00">+ LogWarning()</text>
<text text-anchor="start" x="453" y="-294" font-family="Helvetica,sans-Serif" font-size="10.00">+ LogError()</text>
<text text-anchor="start" x="453" y="-283" font-family="Helvetica,sans-Serif" font-size="10.00">+ LogFatal()</text>
<text text-anchor="start" x="453" y="-272" font-family="Helvetica,sans-Serif" font-size="10.00">+ LogDebug()</text>
<text text-anchor="start" x="453" y="-261" font-family="Helvetica,sans-Serif" font-size="10.00">+ LogInfo()</text>
<text text-anchor="start" x="453" y="-250" font-family="Helvetica,sans-Serif" font-size="10.00">+ LogWarning()</text>
<text text-anchor="start" x="453" y="-239" font-family="Helvetica,sans-Serif" font-size="10.00">+ LogError()</text>
<text text-anchor="start" x="453" y="-228" font-family="Helvetica,sans-Serif" font-size="10.00">+ LogFatal()</text>
<text text-anchor="start" x="453" y="-217" font-family="Helvetica,sans-Serif" font-size="10.00">and 8 more...</text>
</a>
</g>
</g>
<!-- Node5&#45;&gt;Node7 -->
<g id="edge7" class="edge"><title>Node5&#45;&gt;Node7</title>
<path fill="none" stroke="midnightblue" d="M421.83,-476.306C431.759,-462.897 441.16,-448.496 448.5,-434 457.401,-416.421 464.416,-396.505 469.866,-377.34"/>
<polygon fill="none" stroke="midnightblue" points="418.854,-474.438 415.593,-484.518 424.429,-478.671 418.854,-474.438"/>
</g>
<!-- Node6&#45;&gt;Node5 -->
<g id="edge4" class="edge"><title>Node6&#45;&gt;Node5</title>
<path fill="none" stroke="#404040" d="M367.028,-388.228C366.22,-405.169 365.372,-422.941 364.548,-440.199"/>
<polygon fill="none" stroke="#404040" points="364.54,-440.364 368.25,-446.548 363.968,-452.351 360.259,-446.167 364.54,-440.364"/>
<text text-anchor="middle" x="405" y="-426" font-family="Helvetica,sans-Serif" font-size="10.00"> #pPluginManager</text>
</g>
<!-- Node7&#45;&gt;Node2 -->
<g id="edge6" class="edge"><title>Node7&#45;&gt;Node2</title>
<path fill="none" stroke="#404040" d="M456.73,-209.766C450.982,-199.725 444.274,-190.153 436.5,-182 397.73,-141.335 341.204,-112.728 294.895,-94.4064"/>
<polygon fill="none" stroke="#404040" points="294.863,-94.3942 287.826,-95.9716 283.664,-90.0831 290.7,-88.5057 294.863,-94.3942"/>
<text text-anchor="middle" x="453" y="-156" font-family="Helvetica,sans-Serif" font-size="10.00"> &#45;m_pLogModule</text>
</g>
</g>
</svg>
        <g id="navigator" transform="translate(0 0)" fill="#404254">
                <rect fill="#f2f5e9" fill-opacity="0.5" stroke="#606060" stroke-width=".5" x="0" y="0" width="60" height="60"/>
                <use id="zoomplus" xlink:href="#zoomPlus" x="17" y="9" onmousedown="handleZoom(evt,'in')"/>
                <use id="zoomminus" xlink:href="#zoomMin" x="42" y="9" onmousedown="handleZoom(evt,'out')"/>
                <use id="reset" xlink:href="#resetDef" x="30" y="36" onmousedown="handleReset()"/>
                <g id="arrowUp" xlink:href="#dirArrow" transform="translate(30 24)" onmousedown="handlePan(0,-1)">
                  <use xlink:href="#rim" fill="#404040">
                        <set attributeName="fill" to="#808080" begin="arrowUp.mouseover" end="arrowUp.mouseout"/>
                  </use>
                  <path fill="none" stroke="white" stroke-width="1.5" d="M0,-3.0v7 M-2.5,-0.5L0,-3.0L2.5,-0.5"/>
                </g>
                <g id="arrowRight" xlink:href="#dirArrow" transform="rotate(90) translate(36 -43)" onmousedown="handlePan(1,0)">
                  <use xlink:href="#rim" fill="#404040">
                        <set attributeName="fill" to="#808080" begin="arrowRight.mouseover" end="arrowRight.mouseout"/>
                  </use>
                  <path fill="none" stroke="white" stroke-width="1.5" d="M0,-3.0v7 M-2.5,-0.5L0,-3.0L2.5,-0.5"/>
                </g>
                <g id="arrowDown" xlink:href="#dirArrow" transform="rotate(180) translate(-30 -48)" onmousedown="handlePan(0,1)">
                  <use xlink:href="#rim" fill="#404040">
                        <set attributeName="fill" to="#808080" begin="arrowDown.mouseover" end="arrowDown.mouseout"/>
                  </use>
                  <path fill="none" stroke="white" stroke-width="1.5" d="M0,-3.0v7 M-2.5,-0.5L0,-3.0L2.5,-0.5"/>
                </g>
                <g id="arrowLeft" xlink:href="#dirArrow" transform="rotate(270) translate(-36 17)" onmousedown="handlePan(-1,0)">
                  <use xlink:href="#rim" fill="#404040">
                        <set attributeName="fill" to="#808080" begin="arrowLeft.mouseover" end="arrowLeft.mouseout"/>
                  </use>
                  <path fill="none" stroke="white" stroke-width="1.5" d="M0,-3.0v7 M-2.5,-0.5L0,-3.0L2.5,-0.5"/>
                </g>
        </g>
        <svg viewBox="0 0 15 15" width="100%" height="30px" preserveAspectRatio="xMaxYMin meet">
         <g id="arrow_out" transform="scale(0.3 0.3)">
          <a xlink:href="class_n_f_c_event_route_module__coll__graph_org.svg" target="_base">
           <rect id="button" ry="5" rx="5" y="6" x="6" height="38" width="38"
                fill="#f2f5e9" fill-opacity="0.5" stroke="#606060" stroke-width="1.0"/>
           <path id="arrow"
             d="M 11.500037,31.436501 C 11.940474,20.09759 22.043105,11.32322 32.158766,21.979434 L 37.068811,17.246167 C 37.068811,17.246167 37.088388,32 37.088388,32 L 22.160133,31.978069 C 22.160133,31.978069 26.997745,27.140456 26.997745,27.140456 C 18.528582,18.264221 13.291696,25.230495 11.500037,31.436501 z"
             style="fill:#404040;"/>
          </a>
         </g>
        </svg>
</svg>
