<?xml version="1.0" encoding="UTF-8" standalone="no"?>
<!DOCTYPE svg PUBLIC "-//W3C//DTD SVG 1.1//EN"
 "http://www.w3.org/Graphics/SVG/1.1/DTD/svg11.dtd">
<!-- Generated by graphviz version 2.38.0 (20140413.2041)
 -->
<!-- Title: NFCPropertyTrailModule Pages: 1 -->
<!--zoomable 694 -->
<svg id="main" version="1.1" xmlns="http://www.w3.org/2000/svg" xmlns:xlink="http://www.w3.org/1999/xlink" xml:space="preserve" onload="init(evt)">
<style type="text/css"><![CDATA[
.edge:hover path { stroke: red; }
.edge:hover polygon { stroke: red; fill: red; }
]]></style>
<script type="text/javascript"><![CDATA[
var edges = document.getElementsByTagName('g');
if (edges && edges.length) {
  for (var i=0;i<edges.length;i++) {
    if (edges[i].id.substr(0,4)=='edge') {
      edges[i].setAttribute('class','edge');
    }
  }
}
]]></script>
        <defs>
                <circle id="rim" cx="0" cy="0" r="7"/>
                <circle id="rim2" cx="0" cy="0" r="3.5"/>
                <g id="zoomPlus">
                        <use xlink:href="#rim" fill="#404040">
                                <set attributeName="fill" to="#808080" begin="zoomplus.mouseover" end="zoomplus.mouseout"/>
                        </use>
                        <path d="M-4,0h8M0,-4v8" fill="none" stroke="white" stroke-width="1.5" pointer-events="none"/>
                </g>
                <g id="zoomMin">
                        <use xlink:href="#rim" fill="#404040">
                                <set attributeName="fill" to="#808080" begin="zoomminus.mouseover" end="zoomminus.mouseout"/>
                        </use>
                        <path d="M-4,0h8" fill="none" stroke="white" stroke-width="1.5" pointer-events="none"/>
                </g>
                <g id="dirArrow">
                        <path fill="none" stroke="white" stroke-width="1.5" d="M0,-3.0v7 M-2.5,-0.5L0,-3.0L2.5,-0.5"/>
                </g>
               <g id="resetDef">
                       <use xlink:href="#rim2" fill="#404040">
                               <set attributeName="fill" to="#808080" begin="reset.mouseover" end="reset.mouseout"/>
                       </use>
               </g>
        </defs>

<script type="text/javascript">
var viewWidth = 872;
var viewHeight = 694;
var sectionId = 'dynsection-1';
</script>
<script xlink:href="svgpan.js"/>
<svg id="graph" class="graph">
<g id="viewport">
<title>NFCPropertyTrailModule</title>
<polygon fill="white" stroke="none" points="-4,4 -4,-690 867.5,-690 867.5,4 -4,4"/>
<!-- Node3 -->
<g id="node1" class="node"><title>Node3</title>
<polygon fill="#bfbfbf" stroke="black" points="358,-0.5 358,-178.5 501,-178.5 501,-0.5 358,-0.5"/>
<text text-anchor="middle" x="429.5" y="-166.5" font-family="Helvetica,sans-Serif" font-size="10.00">NFCPropertyTrailModule</text>
<polyline fill="none" stroke="black" points="358,-159.5 501,-159.5 "/>
<text text-anchor="middle" x="429.5" y="-147.5" font-family="Helvetica,sans-Serif" font-size="10.00"> </text>
<polyline fill="none" stroke="black" points="358,-140.5 501,-140.5 "/>
<text text-anchor="start" x="366" y="-128.5" font-family="Helvetica,sans-Serif" font-size="10.00">+ NFCPropertyTrailModule()</text>
<text text-anchor="start" x="366" y="-117.5" font-family="Helvetica,sans-Serif" font-size="10.00">+ ~NFCPropertyTrailModule()</text>
<text text-anchor="start" x="366" y="-106.5" font-family="Helvetica,sans-Serif" font-size="10.00">+ Init()</text>
<text text-anchor="start" x="366" y="-95.5" font-family="Helvetica,sans-Serif" font-size="10.00">+ Shut()</text>
<text text-anchor="start" x="366" y="-84.5" font-family="Helvetica,sans-Serif" font-size="10.00">+ Execute()</text>
<text text-anchor="start" x="366" y="-73.5" font-family="Helvetica,sans-Serif" font-size="10.00">+ AfterInit()</text>
<text text-anchor="start" x="366" y="-62.5" font-family="Helvetica,sans-Serif" font-size="10.00">+ StartTrail()</text>
<text text-anchor="start" x="366" y="-51.5" font-family="Helvetica,sans-Serif" font-size="10.00">+ EndTrail()</text>
<text text-anchor="start" x="366" y="-40.5" font-family="Helvetica,sans-Serif" font-size="10.00"># LogObjectData()</text>
<text text-anchor="start" x="366" y="-29.5" font-family="Helvetica,sans-Serif" font-size="10.00"># TrailObjectData()</text>
<text text-anchor="start" x="366" y="-18.5" font-family="Helvetica,sans-Serif" font-size="10.00"># OnObjectPropertyEvent()</text>
<text text-anchor="start" x="366" y="-7.5" font-family="Helvetica,sans-Serif" font-size="10.00"># OnObjectRecordEvent()</text>
</g>
<!-- Node4 -->
<g id="node2" class="node"><title>Node4</title>
<g id="a_node2"><a xlink:href="class_n_f_i_property_trail_module.html" target="_top" xlink:title="{NFIPropertyTrailModule\n||+ StartTrail()\l+ EndTrail()\l}">
<polygon fill="white" stroke="black" points="745.5,-303.5 745.5,-371.5 863.5,-371.5 863.5,-303.5 745.5,-303.5"/>
<text text-anchor="middle" x="804.5" y="-359.5" font-family="Helvetica,sans-Serif" font-size="10.00">NFIPropertyTrailModule</text>
<polyline fill="none" stroke="black" points="745.5,-352.5 863.5,-352.5 "/>
<text text-anchor="middle" x="804.5" y="-340.5" font-family="Helvetica,sans-Serif" font-size="10.00"> </text>
<polyline fill="none" stroke="black" points="745.5,-333.5 863.5,-333.5 "/>
<text text-anchor="start" x="753.5" y="-321.5" font-family="Helvetica,sans-Serif" font-size="10.00">+ StartTrail()</text>
<text text-anchor="start" x="753.5" y="-310.5" font-family="Helvetica,sans-Serif" font-size="10.00">+ EndTrail()</text>
</a>
</g>
</g>
<!-- Node4&#45;&gt;Node3 -->
<g id="edge1" class="edge"><title>Node4&#45;&gt;Node3</title>
<path fill="none" stroke="midnightblue" d="M785.754,-294.234C773.989,-271.602 756.969,-244.631 735.5,-226 666.826,-166.405 567.757,-129.035 501.122,-108.988"/>
<polygon fill="none" stroke="midnightblue" points="782.696,-295.945 790.315,-303.308 788.951,-292.801 782.696,-295.945"/>
</g>
<!-- Node5 -->
<g id="node3" class="node"><title>Node5</title>
<g id="a_node3"><a xlink:href="class_n_f_i_module.html" target="_top" xlink:title="{NFIModule\n|+ strName\l# mbReloading\l|+ NFIModule()\l+ ~NFIModule()\l+ Init()\l+ AfterInit()\l+ CheckConfig()\l+ BeforeShut()\l+ Shut()\l+ Execute()\l+ StartReLoadState()\l+ EndReLoadState()\l+ GetPluginManager()\l+ Loading()\l}">
<polygon fill="white" stroke="black" points="500.5,-496.5 500.5,-685.5 612.5,-685.5 612.5,-496.5 500.5,-496.5"/>
<text text-anchor="middle" x="556.5" y="-673.5" font-family="Helvetica,sans-Serif" font-size="10.00">NFIModule</text>
<polyline fill="none" stroke="black" points="500.5,-666.5 612.5,-666.5 "/>
<text text-anchor="start" x="508.5" y="-654.5" font-family="Helvetica,sans-Serif" font-size="10.00">+ strName</text>
<text text-anchor="start" x="508.5" y="-643.5" font-family="Helvetica,sans-Serif" font-size="10.00"># mbReloading</text>
<polyline fill="none" stroke="black" points="500.5,-636.5 612.5,-636.5 "/>
<text text-anchor="start" x="508.5" y="-624.5" font-family="Helvetica,sans-Serif" font-size="10.00">+ NFIModule()</text>
<text text-anchor="start" x="508.5" y="-613.5" font-family="Helvetica,sans-Serif" font-size="10.00">+ ~NFIModule()</text>
<text text-anchor="start" x="508.5" y="-602.5" font-family="Helvetica,sans-Serif" font-size="10.00">+ Init()</text>
<text text-anchor="start" x="508.5" y="-591.5" font-family="Helvetica,sans-Serif" font-size="10.00">+ AfterInit()</text>
<text text-anchor="start" x="508.5" y="-580.5" font-family="Helvetica,sans-Serif" font-size="10.00">+ CheckConfig()</text>
<text text-anchor="start" x="508.5" y="-569.5" font-family="Helvetica,sans-Serif" font-size="10.00">+ BeforeShut()</text>
<text text-anchor="start" x="508.5" y="-558.5" font-family="Helvetica,sans-Serif" font-size="10.00">+ Shut()</text>
<text text-anchor="start" x="508.5" y="-547.5" font-family="Helvetica,sans-Serif" font-size="10.00">+ Execute()</text>
<text text-anchor="start" x="508.5" y="-536.5" font-family="Helvetica,sans-Serif" font-size="10.00">+ StartReLoadState()</text>
<text text-anchor="start" x="508.5" y="-525.5" font-family="Helvetica,sans-Serif" font-size="10.00">+ EndReLoadState()</text>
<text text-anchor="start" x="508.5" y="-514.5" font-family="Helvetica,sans-Serif" font-size="10.00">+ GetPluginManager()</text>
<text text-anchor="start" x="508.5" y="-503.5" font-family="Helvetica,sans-Serif" font-size="10.00">+ Loading()</text>
</a>
</g>
</g>
<!-- Node5&#45;&gt;Node4 -->
<g id="edge2" class="edge"><title>Node5&#45;&gt;Node4</title>
<path fill="none" stroke="midnightblue" d="M620.994,-548.845C649.983,-529.008 683.82,-503.921 711.5,-478 723.712,-466.564 725.714,-462.57 735.5,-449 753.623,-423.868 772.11,-393.989 785.381,-371.641"/>
<polygon fill="none" stroke="midnightblue" points="618.874,-546.053 612.561,-554.562 622.802,-551.847 618.874,-546.053"/>
</g>
<!-- Node6 -->
<g id="node4" class="node"><title>Node6</title>
<g id="a_node4"><a xlink:href="class_n_f_i_plugin_manager.html" target="_top" xlink:title="{NFIPluginManager\n||+ NFIPluginManager()\l+ FindModule()\l+ Registered()\l+ UnRegistered()\l+ FindPlugin()\l+ AddModule()\l+ RemoveModule()\l+ FindModule()\l+ AppID()\l+ GetInitTime()\l+ GetNowTime()\l+ GetConfigPath()\l+ SetConfigName()\l}">
<polygon fill="white" stroke="black" points="616,-243 616,-432 727,-432 727,-243 616,-243"/>
<text text-anchor="middle" x="671.5" y="-420" font-family="Helvetica,sans-Serif" font-size="10.00">NFIPluginManager</text>
<polyline fill="none" stroke="black" points="616,-413 727,-413 "/>
<text text-anchor="middle" x="671.5" y="-401" font-family="Helvetica,sans-Serif" font-size="10.00"> </text>
<polyline fill="none" stroke="black" points="616,-394 727,-394 "/>
<text text-anchor="start" x="624" y="-382" font-family="Helvetica,sans-Serif" font-size="10.00">+ NFIPluginManager()</text>
<text text-anchor="start" x="624" y="-371" font-family="Helvetica,sans-Serif" font-size="10.00">+ FindModule()</text>
<text text-anchor="start" x="624" y="-360" font-family="Helvetica,sans-Serif" font-size="10.00">+ Registered()</text>
<text text-anchor="start" x="624" y="-349" font-family="Helvetica,sans-Serif" font-size="10.00">+ UnRegistered()</text>
<text text-anchor="start" x="624" y="-338" font-family="Helvetica,sans-Serif" font-size="10.00">+ FindPlugin()</text>
<text text-anchor="start" x="624" y="-327" font-family="Helvetica,sans-Serif" font-size="10.00">+ AddModule()</text>
<text text-anchor="start" x="624" y="-316" font-family="Helvetica,sans-Serif" font-size="10.00">+ RemoveModule()</text>
<text text-anchor="start" x="624" y="-305" font-family="Helvetica,sans-Serif" font-size="10.00">+ FindModule()</text>
<text text-anchor="start" x="624" y="-294" font-family="Helvetica,sans-Serif" font-size="10.00">+ AppID()</text>
<text text-anchor="start" x="624" y="-283" font-family="Helvetica,sans-Serif" font-size="10.00">+ GetInitTime()</text>
<text text-anchor="start" x="624" y="-272" font-family="Helvetica,sans-Serif" font-size="10.00">+ GetNowTime()</text>
<text text-anchor="start" x="624" y="-261" font-family="Helvetica,sans-Serif" font-size="10.00">+ GetConfigPath()</text>
<text text-anchor="start" x="624" y="-250" font-family="Helvetica,sans-Serif" font-size="10.00">+ SetConfigName()</text>
</a>
</g>
</g>
<!-- Node5&#45;&gt;Node6 -->
<g id="edge4" class="edge"><title>Node5&#45;&gt;Node6</title>
<path fill="none" stroke="midnightblue" d="M603.622,-486.946C611.905,-468.833 620.484,-450.069 628.642,-432.228"/>
<polygon fill="none" stroke="midnightblue" points="600.297,-485.801 599.322,-496.351 606.663,-488.712 600.297,-485.801"/>
</g>
<!-- Node7 -->
<g id="node5" class="node"><title>Node7</title>
<g id="a_node5"><a xlink:href="class_n_f_i_kernel_module.html" target="_top" xlink:title="{NFIKernelModule\n||+ AddHeartBeat()\l+ FindHeartBeat()\l+ RemoveHeartBeat()\l+ AddRecordCallBack()\l+ AddPropertyCallBack()\l+ AddEventCallBack()\l+ AddClassCallBack()\l+ DoEvent()\l+ DoEvent()\l+ RegisterCommonClassEvent()\land 56 more...\l# AddEventCallBack()\l# AddClassCallBack()\l# RegisterCommonClassEvent()\l# RegisterCommonPropertyEvent()\l# RegisterCommonRecordEvent()\l}">
<polygon fill="white" stroke="black" points="177,-226.5 177,-448.5 344,-448.5 344,-226.5 177,-226.5"/>
<text text-anchor="middle" x="260.5" y="-436.5" font-family="Helvetica,sans-Serif" font-size="10.00">NFIKernelModule</text>
<polyline fill="none" stroke="black" points="177,-429.5 344,-429.5 "/>
<text text-anchor="middle" x="260.5" y="-417.5" font-family="Helvetica,sans-Serif" font-size="10.00"> </text>
<polyline fill="none" stroke="black" points="177,-410.5 344,-410.5 "/>
<text text-anchor="start" x="185" y="-398.5" font-family="Helvetica,sans-Serif" font-size="10.00">+ AddHeartBeat()</text>
<text text-anchor="start" x="185" y="-387.5" font-family="Helvetica,sans-Serif" font-size="10.00">+ FindHeartBeat()</text>
<text text-anchor="start" x="185" y="-376.5" font-family="Helvetica,sans-Serif" font-size="10.00">+ RemoveHeartBeat()</text>
<text text-anchor="start" x="185" y="-365.5" font-family="Helvetica,sans-Serif" font-size="10.00">+ AddRecordCallBack()</text>
<text text-anchor="start" x="185" y="-354.5" font-family="Helvetica,sans-Serif" font-size="10.00">+ AddPropertyCallBack()</text>
<text text-anchor="start" x="185" y="-343.5" font-family="Helvetica,sans-Serif" font-size="10.00">+ AddEventCallBack()</text>
<text text-anchor="start" x="185" y="-332.5" font-family="Helvetica,sans-Serif" font-size="10.00">+ AddClassCallBack()</text>
<text text-anchor="start" x="185" y="-321.5" font-family="Helvetica,sans-Serif" font-size="10.00">+ DoEvent()</text>
<text text-anchor="start" x="185" y="-310.5" font-family="Helvetica,sans-Serif" font-size="10.00">+ DoEvent()</text>
<text text-anchor="start" x="185" y="-299.5" font-family="Helvetica,sans-Serif" font-size="10.00">+ RegisterCommonClassEvent()</text>
<text text-anchor="start" x="185" y="-288.5" font-family="Helvetica,sans-Serif" font-size="10.00">and 56 more...</text>
<text text-anchor="start" x="185" y="-277.5" font-family="Helvetica,sans-Serif" font-size="10.00"># AddEventCallBack()</text>
<text text-anchor="start" x="185" y="-266.5" font-family="Helvetica,sans-Serif" font-size="10.00"># AddClassCallBack()</text>
<text text-anchor="start" x="185" y="-255.5" font-family="Helvetica,sans-Serif" font-size="10.00"># RegisterCommonClassEvent()</text>
<text text-anchor="start" x="185" y="-244.5" font-family="Helvetica,sans-Serif" font-size="10.00"># RegisterCommonPropertyEvent()</text>
<text text-anchor="start" x="185" y="-233.5" font-family="Helvetica,sans-Serif" font-size="10.00"># RegisterCommonRecordEvent()</text>
</a>
</g>
</g>
<!-- Node5&#45;&gt;Node7 -->
<g id="edge6" class="edge"><title>Node5&#45;&gt;Node7</title>
<path fill="none" stroke="midnightblue" d="M491.491,-551.102C449.973,-524.791 396.134,-487.861 353.5,-449 350.35,-446.129 347.208,-443.151 344.087,-440.095"/>
<polygon fill="none" stroke="midnightblue" points="489.827,-554.19 500.155,-556.552 493.554,-548.265 489.827,-554.19"/>
</g>
<!-- Node8 -->
<g id="node6" class="node"><title>Node8</title>
<g id="a_node6"><a xlink:href="class_n_f_i_class_module.html" target="_top" xlink:title="{NFIClassModule\n||+ ~NFIClassModule()\l+ Load()\l+ Save()\l+ Clear()\l+ AddClassCallBack()\l+ DoEvent()\l+ AddClassCallBack()\l+ GetClassPropertyManager()\l+ GetClassRecordManager()\l+ GetClassComponentManager()\l}">
<polygon fill="white" stroke="black" points="0,-259.5 0,-415.5 159,-415.5 159,-259.5 0,-259.5"/>
<text text-anchor="middle" x="79.5" y="-403.5" font-family="Helvetica,sans-Serif" font-size="10.00">NFIClassModule</text>
<polyline fill="none" stroke="black" points="0,-396.5 159,-396.5 "/>
<text text-anchor="middle" x="79.5" y="-384.5" font-family="Helvetica,sans-Serif" font-size="10.00"> </text>
<polyline fill="none" stroke="black" points="0,-377.5 159,-377.5 "/>
<text text-anchor="start" x="8" y="-365.5" font-family="Helvetica,sans-Serif" font-size="10.00">+ ~NFIClassModule()</text>
<text text-anchor="start" x="8" y="-354.5" font-family="Helvetica,sans-Serif" font-size="10.00">+ Load()</text>
<text text-anchor="start" x="8" y="-343.5" font-family="Helvetica,sans-Serif" font-size="10.00">+ Save()</text>
<text text-anchor="start" x="8" y="-332.5" font-family="Helvetica,sans-Serif" font-size="10.00">+ Clear()</text>
<text text-anchor="start" x="8" y="-321.5" font-family="Helvetica,sans-Serif" font-size="10.00">+ AddClassCallBack()</text>
<text text-anchor="start" x="8" y="-310.5" font-family="Helvetica,sans-Serif" font-size="10.00">+ DoEvent()</text>
<text text-anchor="start" x="8" y="-299.5" font-family="Helvetica,sans-Serif" font-size="10.00">+ AddClassCallBack()</text>
<text text-anchor="start" x="8" y="-288.5" font-family="Helvetica,sans-Serif" font-size="10.00">+ GetClassPropertyManager()</text>
<text text-anchor="start" x="8" y="-277.5" font-family="Helvetica,sans-Serif" font-size="10.00">+ GetClassRecordManager()</text>
<text text-anchor="start" x="8" y="-266.5" font-family="Helvetica,sans-Serif" font-size="10.00">+ GetClassComponentManager()</text>
</a>
</g>
</g>
<!-- Node5&#45;&gt;Node8 -->
<g id="edge8" class="edge"><title>Node5&#45;&gt;Node8</title>
<path fill="none" stroke="midnightblue" d="M490.511,-577.653C408.677,-559.884 267.745,-521.021 167.5,-449 154.554,-439.699 142.509,-427.997 131.742,-415.714"/>
<polygon fill="none" stroke="midnightblue" points="489.925,-581.107 500.435,-579.768 491.384,-574.261 489.925,-581.107"/>
</g>
<!-- Node10 -->
<g id="node8" class="node"><title>Node10</title>
<g id="a_node8"><a xlink:href="class_n_f_i_element_module.html" target="_top" xlink:title="{NFIElementModule\n||+ Load()\l+ Save()\l+ Clear()\l+ ExistElement()\l+ ExistElement()\l+ GetPropertyManager()\l+ GetRecordManager()\l+ GetComponentManager()\l+ GetPropertyInt()\l+ GetPropertyFloat()\l+ GetPropertyString()\l}">
<polygon fill="white" stroke="black" points="362.5,-254 362.5,-421 496.5,-421 496.5,-254 362.5,-254"/>
<text text-anchor="middle" x="429.5" y="-409" font-family="Helvetica,sans-Serif" font-size="10.00">NFIElementModule</text>
<polyline fill="none" stroke="black" points="362.5,-402 496.5,-402 "/>
<text text-anchor="middle" x="429.5" y="-390" font-family="Helvetica,sans-Serif" font-size="10.00"> </text>
<polyline fill="none" stroke="black" points="362.5,-383 496.5,-383 "/>
<text text-anchor="start" x="370.5" y="-371" font-family="Helvetica,sans-Serif" font-size="10.00">+ Load()</text>
<text text-anchor="start" x="370.5" y="-360" font-family="Helvetica,sans-Serif" font-size="10.00">+ Save()</text>
<text text-anchor="start" x="370.5" y="-349" font-family="Helvetica,sans-Serif" font-size="10.00">+ Clear()</text>
<text text-anchor="start" x="370.5" y="-338" font-family="Helvetica,sans-Serif" font-size="10.00">+ ExistElement()</text>
<text text-anchor="start" x="370.5" y="-327" font-family="Helvetica,sans-Serif" font-size="10.00">+ ExistElement()</text>
<text text-anchor="start" x="370.5" y="-316" font-family="Helvetica,sans-Serif" font-size="10.00">+ GetPropertyManager()</text>
<text text-anchor="start" x="370.5" y="-305" font-family="Helvetica,sans-Serif" font-size="10.00">+ GetRecordManager()</text>
<text text-anchor="start" x="370.5" y="-294" font-family="Helvetica,sans-Serif" font-size="10.00">+ GetComponentManager()</text>
<text text-anchor="start" x="370.5" y="-283" font-family="Helvetica,sans-Serif" font-size="10.00">+ GetPropertyInt()</text>
<text text-anchor="start" x="370.5" y="-272" font-family="Helvetica,sans-Serif" font-size="10.00">+ GetPropertyFloat()</text>
<text text-anchor="start" x="370.5" y="-261" font-family="Helvetica,sans-Serif" font-size="10.00">+ GetPropertyString()</text>
</a>
</g>
</g>
<!-- Node5&#45;&gt;Node10 -->
<g id="edge11" class="edge"><title>Node5&#45;&gt;Node10</title>
<path fill="none" stroke="midnightblue" d="M504.64,-487.3C493.505,-465.25 481.876,-442.221 471.186,-421.052"/>
<polygon fill="none" stroke="midnightblue" points="501.578,-489.002 509.21,-496.351 507.827,-485.847 501.578,-489.002"/>
</g>
<!-- Node11 -->
<g id="node9" class="node"><title>Node11</title>
<g id="a_node9"><a xlink:href="class_n_f_i_log_module.html" target="_top" xlink:title="{NFILogModule\n||+ LogDebug()\l+ LogInfo()\l+ LogWarning()\l+ LogError()\l+ LogFatal()\l+ LogDebug()\l+ LogInfo()\l+ LogWarning()\l+ LogError()\l+ LogFatal()\land 8 more...\l}">
<polygon fill="white" stroke="black" points="515,-254 515,-421 598,-421 598,-254 515,-254"/>
<text text-anchor="middle" x="556.5" y="-409" font-family="Helvetica,sans-Serif" font-size="10.00">NFILogModule</text>
<polyline fill="none" stroke="black" points="515,-402 598,-402 "/>
<text text-anchor="middle" x="556.5" y="-390" font-family="Helvetica,sans-Serif" font-size="10.00"> </text>
<polyline fill="none" stroke="black" points="515,-383 598,-383 "/>
<text text-anchor="start" x="523" y="-371" font-family="Helvetica,sans-Serif" font-size="10.00">+ LogDebug()</text>
<text text-anchor="start" x="523" y="-360" font-family="Helvetica,sans-Serif" font-size="10.00">+ LogInfo()</text>
<text text-anchor="start" x="523" y="-349" font-family="Helvetica,sans-Serif" font-size="10.00">+ LogWarning()</text>
<text text-anchor="start" x="523" y="-338" font-family="Helvetica,sans-Serif" font-size="10.00">+ LogError()</text>
<text text-anchor="start" x="523" y="-327" font-family="Helvetica,sans-Serif" font-size="10.00">+ LogFatal()</text>
<text text-anchor="start" x="523" y="-316" font-family="Helvetica,sans-Serif" font-size="10.00">+ LogDebug()</text>
<text text-anchor="start" x="523" y="-305" font-family="Helvetica,sans-Serif" font-size="10.00">+ LogInfo()</text>
<text text-anchor="start" x="523" y="-294" font-family="Helvetica,sans-Serif" font-size="10.00">+ LogWarning()</text>
<text text-anchor="start" x="523" y="-283" font-family="Helvetica,sans-Serif" font-size="10.00">+ LogError()</text>
<text text-anchor="start" x="523" y="-272" font-family="Helvetica,sans-Serif" font-size="10.00">+ LogFatal()</text>
<text text-anchor="start" x="523" y="-261" font-family="Helvetica,sans-Serif" font-size="10.00">and 8 more...</text>
</a>
</g>
</g>
<!-- Node5&#45;&gt;Node11 -->
<g id="edge13" class="edge"><title>Node5&#45;&gt;Node11</title>
<path fill="none" stroke="midnightblue" d="M556.5,-486.123C556.5,-464.432 556.5,-441.845 556.5,-421.052"/>
<polygon fill="none" stroke="midnightblue" points="553,-486.351 556.5,-496.351 560,-486.351 553,-486.351"/>
</g>
<!-- Node6&#45;&gt;Node5 -->
<g id="edge3" class="edge"><title>Node6&#45;&gt;Node5</title>
<path fill="none" stroke="#404040" d="M642.254,-432.237C636.564,-447.742 630.249,-463.485 623.5,-478 621.828,-481.595 620.072,-485.223 618.25,-488.861"/>
<polygon fill="none" stroke="#404040" points="618.115,-489.123 618.916,-496.289 612.61,-499.785 611.808,-492.619 618.115,-489.123"/>
<text text-anchor="middle" x="668" y="-470" font-family="Helvetica,sans-Serif" font-size="10.00"> #pPluginManager</text>
</g>
<!-- Node7&#45;&gt;Node3 -->
<g id="edge5" class="edge"><title>Node7&#45;&gt;Node3</title>
<path fill="none" stroke="#404040" d="M321.157,-226.463C327.459,-216.355 333.958,-206.393 340.5,-197 343.73,-192.363 347.115,-187.681 350.6,-183.003"/>
<polygon fill="none" stroke="#404040" points="350.62,-182.977 351.061,-175.779 357.875,-173.419 357.434,-180.616 350.62,-182.977"/>
<text text-anchor="middle" x="383" y="-200" font-family="Helvetica,sans-Serif" font-size="10.00"> &#45;m_pKernelModule</text>
</g>
<!-- Node8&#45;&gt;Node3 -->
<g id="edge7" class="edge"><title>Node8&#45;&gt;Node3</title>
<path fill="none" stroke="#404040" d="M134.027,-259.22C144.351,-247.296 155.657,-235.73 167.5,-226 221.432,-181.689 292.208,-146.151 346.602,-122.605"/>
<polygon fill="none" stroke="#404040" points="346.911,-122.473 350.86,-116.439 357.948,-117.764 353.999,-123.798 346.911,-122.473"/>
<text text-anchor="middle" x="247.5" y="-200" font-family="Helvetica,sans-Serif" font-size="10.00"> &#45;m_pClassModule</text>
</g>
<!-- Node9 -->
<g id="node7" class="node"><title>Node9</title>
<g id="a_node7"><a xlink:href="class_n_f_map_ex.html" target="_top" xlink:title="{NFMapEx\&lt; std::string,\l NFIClass \&gt;\n|&#45; mObjectList\l&#45; mObjectCurIter\l|+ NFMapEx()\l+ ~NFMapEx()\l+ AddElement()\l+ SetElement()\l+ RemoveElement()\l+ GetElementNude()\l+ GetElement()\l+ FirstNude()\l+ FirstNude()\l+ NextNude()\land 7 more...\l}">
<polygon fill="white" stroke="black" points="21.5,-496.5 21.5,-685.5 137.5,-685.5 137.5,-496.5 21.5,-496.5"/>
<text text-anchor="start" x="29.5" y="-673.5" font-family="Helvetica,sans-Serif" font-size="10.00">NFMapEx&lt; std::string,</text>
<text text-anchor="middle" x="79.5" y="-662.5" font-family="Helvetica,sans-Serif" font-size="10.00"> NFIClass &gt;</text>
<polyline fill="none" stroke="black" points="21.5,-655.5 137.5,-655.5 "/>
<text text-anchor="start" x="29.5" y="-643.5" font-family="Helvetica,sans-Serif" font-size="10.00">&#45; mObjectList</text>
<text text-anchor="start" x="29.5" y="-632.5" font-family="Helvetica,sans-Serif" font-size="10.00">&#45; mObjectCurIter</text>
<polyline fill="none" stroke="black" points="21.5,-625.5 137.5,-625.5 "/>
<text text-anchor="start" x="29.5" y="-613.5" font-family="Helvetica,sans-Serif" font-size="10.00">+ NFMapEx()</text>
<text text-anchor="start" x="29.5" y="-602.5" font-family="Helvetica,sans-Serif" font-size="10.00">+ ~NFMapEx()</text>
<text text-anchor="start" x="29.5" y="-591.5" font-family="Helvetica,sans-Serif" font-size="10.00">+ AddElement()</text>
<text text-anchor="start" x="29.5" y="-580.5" font-family="Helvetica,sans-Serif" font-size="10.00">+ SetElement()</text>
<text text-anchor="start" x="29.5" y="-569.5" font-family="Helvetica,sans-Serif" font-size="10.00">+ RemoveElement()</text>
<text text-anchor="start" x="29.5" y="-558.5" font-family="Helvetica,sans-Serif" font-size="10.00">+ GetElementNude()</text>
<text text-anchor="start" x="29.5" y="-547.5" font-family="Helvetica,sans-Serif" font-size="10.00">+ GetElement()</text>
<text text-anchor="start" x="29.5" y="-536.5" font-family="Helvetica,sans-Serif" font-size="10.00">+ FirstNude()</text>
<text text-anchor="start" x="29.5" y="-525.5" font-family="Helvetica,sans-Serif" font-size="10.00">+ FirstNude()</text>
<text text-anchor="start" x="29.5" y="-514.5" font-family="Helvetica,sans-Serif" font-size="10.00">+ NextNude()</text>
<text text-anchor="start" x="29.5" y="-503.5" font-family="Helvetica,sans-Serif" font-size="10.00">and 7 more...</text>
</a>
</g>
</g>
<!-- Node9&#45;&gt;Node8 -->
<g id="edge9" class="edge"><title>Node9&#45;&gt;Node8</title>
<path fill="none" stroke="midnightblue" d="M79.5,-486.314C79.5,-462.72 79.5,-438.055 79.5,-415.785"/>
<polygon fill="none" stroke="midnightblue" points="76.0001,-486.351 79.5,-496.351 83.0001,-486.351 76.0001,-486.351"/>
</g>
<!-- Node10&#45;&gt;Node3 -->
<g id="edge10" class="edge"><title>Node10&#45;&gt;Node3</title>
<path fill="none" stroke="#404040" d="M429.5,-253.901C429.5,-233.715 429.5,-211.896 429.5,-190.977"/>
<polygon fill="none" stroke="#404040" points="429.5,-190.784 425.5,-184.784 429.5,-178.784 433.5,-184.784 429.5,-190.784"/>
<text text-anchor="middle" x="476" y="-200" font-family="Helvetica,sans-Serif" font-size="10.00"> &#45;m_pElementModule</text>
</g>
<!-- Node11&#45;&gt;Node3 -->
<g id="edge12" class="edge"><title>Node11&#45;&gt;Node3</title>
<path fill="none" stroke="#404040" d="M546.234,-253.976C541.82,-234.6 535.512,-214.511 526.5,-197 521.499,-187.283 515.38,-177.781 508.669,-168.703"/>
<polygon fill="none" stroke="#404040" points="508.526,-168.518 501.69,-166.222 501.18,-159.029 508.016,-161.325 508.526,-168.518"/>
<text text-anchor="middle" x="568" y="-200" font-family="Helvetica,sans-Serif" font-size="10.00"> &#45;m_pLogModule</text>
</g>
</g>
</svg>
        <g id="navigator" transform="translate(0 0)" fill="#404254">
                <rect fill="#f2f5e9" fill-opacity="0.5" stroke="#606060" stroke-width=".5" x="0" y="0" width="60" height="60"/>
                <use id="zoomplus" xlink:href="#zoomPlus" x="17" y="9" onmousedown="handleZoom(evt,'in')"/>
                <use id="zoomminus" xlink:href="#zoomMin" x="42" y="9" onmousedown="handleZoom(evt,'out')"/>
                <use id="reset" xlink:href="#resetDef" x="30" y="36" onmousedown="handleReset()"/>
                <g id="arrowUp" xlink:href="#dirArrow" transform="translate(30 24)" onmousedown="handlePan(0,-1)">
                  <use xlink:href="#rim" fill="#404040">
                        <set attributeName="fill" to="#808080" begin="arrowUp.mouseover" end="arrowUp.mouseout"/>
                  </use>
                  <path fill="none" stroke="white" stroke-width="1.5" d="M0,-3.0v7 M-2.5,-0.5L0,-3.0L2.5,-0.5"/>
                </g>
                <g id="arrowRight" xlink:href="#dirArrow" transform="rotate(90) translate(36 -43)" onmousedown="handlePan(1,0)">
                  <use xlink:href="#rim" fill="#404040">
                        <set attributeName="fill" to="#808080" begin="arrowRight.mouseover" end="arrowRight.mouseout"/>
                  </use>
                  <path fill="none" stroke="white" stroke-width="1.5" d="M0,-3.0v7 M-2.5,-0.5L0,-3.0L2.5,-0.5"/>
                </g>
                <g id="arrowDown" xlink:href="#dirArrow" transform="rotate(180) translate(-30 -48)" onmousedown="handlePan(0,1)">
                  <use xlink:href="#rim" fill="#404040">
                        <set attributeName="fill" to="#808080" begin="arrowDown.mouseover" end="arrowDown.mouseout"/>
                  </use>
                  <path fill="none" stroke="white" stroke-width="1.5" d="M0,-3.0v7 M-2.5,-0.5L0,-3.0L2.5,-0.5"/>
                </g>
                <g id="arrowLeft" xlink:href="#dirArrow" transform="rotate(270) translate(-36 17)" onmousedown="handlePan(-1,0)">
                  <use xlink:href="#rim" fill="#404040">
                        <set attributeName="fill" to="#808080" begin="arrowLeft.mouseover" end="arrowLeft.mouseout"/>
                  </use>
                  <path fill="none" stroke="white" stroke-width="1.5" d="M0,-3.0v7 M-2.5,-0.5L0,-3.0L2.5,-0.5"/>
                </g>
        </g>
        <svg viewBox="0 0 15 15" width="100%" height="30px" preserveAspectRatio="xMaxYMin meet">
         <g id="arrow_out" transform="scale(0.3 0.3)">
          <a xlink:href="class_n_f_c_property_trail_module__coll__graph_org.svg" target="_base">
           <rect id="button" ry="5" rx="5" y="6" x="6" height="38" width="38"
                fill="#f2f5e9" fill-opacity="0.5" stroke="#606060" stroke-width="1.0"/>
           <path id="arrow"
             d="M 11.500037,31.436501 C 11.940474,20.09759 22.043105,11.32322 32.158766,21.979434 L 37.068811,17.246167 C 37.068811,17.246167 37.088388,32 37.088388,32 L 22.160133,31.978069 C 22.160133,31.978069 26.997745,27.140456 26.997745,27.140456 C 18.528582,18.264221 13.291696,25.230495 11.500037,31.436501 z"
             style="fill:#404040;"/>
          </a>
         </g>
        </svg>
</svg>
