<?xml version="1.0" encoding="UTF-8" standalone="no"?>
<!DOCTYPE svg PUBLIC "-//W3C//DTD SVG 1.1//EN"
 "http://www.w3.org/Graphics/SVG/1.1/DTD/svg11.dtd">
<!-- Generated by graphviz version 2.38.0 (20140413.2041)
 -->
<!-- Title: NFCWorldLogicModule Pages: 1 -->
<!--zoomable 617 -->
<svg id="main" version="1.1" xmlns="http://www.w3.org/2000/svg" xmlns:xlink="http://www.w3.org/1999/xlink" xml:space="preserve" onload="init(evt)">
<style type="text/css"><![CDATA[
.edge:hover path { stroke: red; }
.edge:hover polygon { stroke: red; fill: red; }
]]></style>
<script type="text/javascript"><![CDATA[
var edges = document.getElementsByTagName('g');
if (edges && edges.length) {
  for (var i=0;i<edges.length;i++) {
    if (edges[i].id.substr(0,4)=='edge') {
      edges[i].setAttribute('class','edge');
    }
  }
}
]]></script>
        <defs>
                <circle id="rim" cx="0" cy="0" r="7"/>
                <circle id="rim2" cx="0" cy="0" r="3.5"/>
                <g id="zoomPlus">
                        <use xlink:href="#rim" fill="#404040">
                                <set attributeName="fill" to="#808080" begin="zoomplus.mouseover" end="zoomplus.mouseout"/>
                        </use>
                        <path d="M-4,0h8M0,-4v8" fill="none" stroke="white" stroke-width="1.5" pointer-events="none"/>
                </g>
                <g id="zoomMin">
                        <use xlink:href="#rim" fill="#404040">
                                <set attributeName="fill" to="#808080" begin="zoomminus.mouseover" end="zoomminus.mouseout"/>
                        </use>
                        <path d="M-4,0h8" fill="none" stroke="white" stroke-width="1.5" pointer-events="none"/>
                </g>
                <g id="dirArrow">
                        <path fill="none" stroke="white" stroke-width="1.5" d="M0,-3.0v7 M-2.5,-0.5L0,-3.0L2.5,-0.5"/>
                </g>
               <g id="resetDef">
                       <use xlink:href="#rim2" fill="#404040">
                               <set attributeName="fill" to="#808080" begin="reset.mouseover" end="reset.mouseout"/>
                       </use>
               </g>
        </defs>

<script type="text/javascript">
var viewWidth = 435;
var viewHeight = 617;
var sectionId = 'dynsection-1';
</script>
<script xlink:href="svgpan.js"/>
<svg id="graph" class="graph">
<g id="viewport">
<title>NFCWorldLogicModule</title>
<polygon fill="white" stroke="none" points="-4,4 -4,-613 430.5,-613 430.5,4 -4,4"/>
<!-- Node3 -->
<g id="node1" class="node"><title>Node3</title>
<polygon fill="#bfbfbf" stroke="black" points="69.5,-0.5 69.5,-101.5 200.5,-101.5 200.5,-0.5 69.5,-0.5"/>
<text text-anchor="middle" x="135" y="-89.5" font-family="Helvetica,sans-Serif" font-size="10.00">NFCWorldLogicModule</text>
<polyline fill="none" stroke="black" points="69.5,-82.5 200.5,-82.5 "/>
<text text-anchor="middle" x="135" y="-70.5" font-family="Helvetica,sans-Serif" font-size="10.00"> </text>
<polyline fill="none" stroke="black" points="69.5,-63.5 200.5,-63.5 "/>
<text text-anchor="start" x="77.5" y="-51.5" font-family="Helvetica,sans-Serif" font-size="10.00">+ NFCWorldLogicModule()</text>
<text text-anchor="start" x="77.5" y="-40.5" font-family="Helvetica,sans-Serif" font-size="10.00">+ Init()</text>
<text text-anchor="start" x="77.5" y="-29.5" font-family="Helvetica,sans-Serif" font-size="10.00">+ Shut()</text>
<text text-anchor="start" x="77.5" y="-18.5" font-family="Helvetica,sans-Serif" font-size="10.00">+ Execute()</text>
<text text-anchor="start" x="77.5" y="-7.5" font-family="Helvetica,sans-Serif" font-size="10.00">+ AfterInit()</text>
</g>
<!-- Node4 -->
<g id="node2" class="node"><title>Node4</title>
<g id="a_node2"><a xlink:href="class_n_f_i_world_logic_module.html" target="_top" xlink:title="{NFIWorldLogicModule\n||}">
<polygon fill="white" stroke="black" points="0,-232 0,-289 112,-289 112,-232 0,-232"/>
<text text-anchor="middle" x="56" y="-277" font-family="Helvetica,sans-Serif" font-size="10.00">NFIWorldLogicModule</text>
<polyline fill="none" stroke="black" points="0,-270 112,-270 "/>
<text text-anchor="middle" x="56" y="-258" font-family="Helvetica,sans-Serif" font-size="10.00"> </text>
<polyline fill="none" stroke="black" points="0,-251 112,-251 "/>
<text text-anchor="middle" x="56" y="-239" font-family="Helvetica,sans-Serif" font-size="10.00"> </text>
</a>
</g>
</g>
<!-- Node4&#45;&gt;Node3 -->
<g id="edge1" class="edge"><title>Node4&#45;&gt;Node3</title>
<path fill="none" stroke="midnightblue" d="M70.0987,-222.469C82.9319,-188.761 101.977,-138.737 116.121,-101.587"/>
<polygon fill="none" stroke="midnightblue" points="66.7778,-221.355 66.4906,-231.946 73.3197,-223.845 66.7778,-221.355"/>
</g>
<!-- Node5 -->
<g id="node3" class="node"><title>Node5</title>
<g id="a_node3"><a xlink:href="class_n_f_i_module.html" target="_top" xlink:title="{NFIModule\n|+ strName\l# mbReloading\l|+ NFIModule()\l+ ~NFIModule()\l+ Init()\l+ AfterInit()\l+ CheckConfig()\l+ BeforeShut()\l+ Shut()\l+ Execute()\l+ StartReLoadState()\l+ EndReLoadState()\l+ GetPluginManager()\l+ Loading()\l}">
<polygon fill="white" stroke="black" points="129,-419.5 129,-608.5 241,-608.5 241,-419.5 129,-419.5"/>
<text text-anchor="middle" x="185" y="-596.5" font-family="Helvetica,sans-Serif" font-size="10.00">NFIModule</text>
<polyline fill="none" stroke="black" points="129,-589.5 241,-589.5 "/>
<text text-anchor="start" x="137" y="-577.5" font-family="Helvetica,sans-Serif" font-size="10.00">+ strName</text>
<text text-anchor="start" x="137" y="-566.5" font-family="Helvetica,sans-Serif" font-size="10.00"># mbReloading</text>
<polyline fill="none" stroke="black" points="129,-559.5 241,-559.5 "/>
<text text-anchor="start" x="137" y="-547.5" font-family="Helvetica,sans-Serif" font-size="10.00">+ NFIModule()</text>
<text text-anchor="start" x="137" y="-536.5" font-family="Helvetica,sans-Serif" font-size="10.00">+ ~NFIModule()</text>
<text text-anchor="start" x="137" y="-525.5" font-family="Helvetica,sans-Serif" font-size="10.00">+ Init()</text>
<text text-anchor="start" x="137" y="-514.5" font-family="Helvetica,sans-Serif" font-size="10.00">+ AfterInit()</text>
<text text-anchor="start" x="137" y="-503.5" font-family="Helvetica,sans-Serif" font-size="10.00">+ CheckConfig()</text>
<text text-anchor="start" x="137" y="-492.5" font-family="Helvetica,sans-Serif" font-size="10.00">+ BeforeShut()</text>
<text text-anchor="start" x="137" y="-481.5" font-family="Helvetica,sans-Serif" font-size="10.00">+ Shut()</text>
<text text-anchor="start" x="137" y="-470.5" font-family="Helvetica,sans-Serif" font-size="10.00">+ Execute()</text>
<text text-anchor="start" x="137" y="-459.5" font-family="Helvetica,sans-Serif" font-size="10.00">+ StartReLoadState()</text>
<text text-anchor="start" x="137" y="-448.5" font-family="Helvetica,sans-Serif" font-size="10.00">+ EndReLoadState()</text>
<text text-anchor="start" x="137" y="-437.5" font-family="Helvetica,sans-Serif" font-size="10.00">+ GetPluginManager()</text>
<text text-anchor="start" x="137" y="-426.5" font-family="Helvetica,sans-Serif" font-size="10.00">+ Loading()</text>
</a>
</g>
</g>
<!-- Node5&#45;&gt;Node4 -->
<g id="edge2" class="edge"><title>Node5&#45;&gt;Node4</title>
<path fill="none" stroke="midnightblue" d="M132.331,-410.315C109.75,-366.292 85.1662,-318.363 70.1665,-289.119"/>
<polygon fill="none" stroke="midnightblue" points="129.287,-412.05 136.965,-419.351 135.515,-408.855 129.287,-412.05"/>
</g>
<!-- Node6 -->
<g id="node4" class="node"><title>Node6</title>
<g id="a_node4"><a xlink:href="class_n_f_i_plugin_manager.html" target="_top" xlink:title="{NFIPluginManager\n||+ NFIPluginManager()\l+ FindModule()\l+ Registered()\l+ UnRegistered()\l+ FindPlugin()\l+ AddModule()\l+ RemoveModule()\l+ FindModule()\l+ AppID()\l+ GetInitTime()\l+ GetNowTime()\l+ GetConfigPath()\l+ SetConfigName()\l}">
<polygon fill="white" stroke="black" points="130.5,-166 130.5,-355 241.5,-355 241.5,-166 130.5,-166"/>
<text text-anchor="middle" x="186" y="-343" font-family="Helvetica,sans-Serif" font-size="10.00">NFIPluginManager</text>
<polyline fill="none" stroke="black" points="130.5,-336 241.5,-336 "/>
<text text-anchor="middle" x="186" y="-324" font-family="Helvetica,sans-Serif" font-size="10.00"> </text>
<polyline fill="none" stroke="black" points="130.5,-317 241.5,-317 "/>
<text text-anchor="start" x="138.5" y="-305" font-family="Helvetica,sans-Serif" font-size="10.00">+ NFIPluginManager()</text>
<text text-anchor="start" x="138.5" y="-294" font-family="Helvetica,sans-Serif" font-size="10.00">+ FindModule()</text>
<text text-anchor="start" x="138.5" y="-283" font-family="Helvetica,sans-Serif" font-size="10.00">+ Registered()</text>
<text text-anchor="start" x="138.5" y="-272" font-family="Helvetica,sans-Serif" font-size="10.00">+ UnRegistered()</text>
<text text-anchor="start" x="138.5" y="-261" font-family="Helvetica,sans-Serif" font-size="10.00">+ FindPlugin()</text>
<text text-anchor="start" x="138.5" y="-250" font-family="Helvetica,sans-Serif" font-size="10.00">+ AddModule()</text>
<text text-anchor="start" x="138.5" y="-239" font-family="Helvetica,sans-Serif" font-size="10.00">+ RemoveModule()</text>
<text text-anchor="start" x="138.5" y="-228" font-family="Helvetica,sans-Serif" font-size="10.00">+ FindModule()</text>
<text text-anchor="start" x="138.5" y="-217" font-family="Helvetica,sans-Serif" font-size="10.00">+ AppID()</text>
<text text-anchor="start" x="138.5" y="-206" font-family="Helvetica,sans-Serif" font-size="10.00">+ GetInitTime()</text>
<text text-anchor="start" x="138.5" y="-195" font-family="Helvetica,sans-Serif" font-size="10.00">+ GetNowTime()</text>
<text text-anchor="start" x="138.5" y="-184" font-family="Helvetica,sans-Serif" font-size="10.00">+ GetConfigPath()</text>
<text text-anchor="start" x="138.5" y="-173" font-family="Helvetica,sans-Serif" font-size="10.00">+ SetConfigName()</text>
</a>
</g>
</g>
<!-- Node5&#45;&gt;Node6 -->
<g id="edge4" class="edge"><title>Node5&#45;&gt;Node6</title>
<path fill="none" stroke="midnightblue" d="M183.083,-409.295C183.052,-406.501 183.024,-403.732 183,-401 182.868,-386.224 182.969,-370.569 183.2,-355.293"/>
<polygon fill="none" stroke="midnightblue" points="179.585,-409.543 183.206,-419.5 186.585,-409.458 179.585,-409.543"/>
</g>
<!-- Node7 -->
<g id="node5" class="node"><title>Node7</title>
<g id="a_node5"><a xlink:href="class_n_f_i_kernel_module.html" target="_top" xlink:title="{NFIKernelModule\n||+ AddHeartBeat()\l+ FindHeartBeat()\l+ RemoveHeartBeat()\l+ AddRecordCallBack()\l+ AddPropertyCallBack()\l+ AddEventCallBack()\l+ AddClassCallBack()\l+ DoEvent()\l+ DoEvent()\l+ RegisterCommonClassEvent()\land 56 more...\l# AddEventCallBack()\l# AddClassCallBack()\l# RegisterCommonClassEvent()\l# RegisterCommonPropertyEvent()\l# RegisterCommonRecordEvent()\l}">
<polygon fill="white" stroke="black" points="259.5,-149.5 259.5,-371.5 426.5,-371.5 426.5,-149.5 259.5,-149.5"/>
<text text-anchor="middle" x="343" y="-359.5" font-family="Helvetica,sans-Serif" font-size="10.00">NFIKernelModule</text>
<polyline fill="none" stroke="black" points="259.5,-352.5 426.5,-352.5 "/>
<text text-anchor="middle" x="343" y="-340.5" font-family="Helvetica,sans-Serif" font-size="10.00"> </text>
<polyline fill="none" stroke="black" points="259.5,-333.5 426.5,-333.5 "/>
<text text-anchor="start" x="267.5" y="-321.5" font-family="Helvetica,sans-Serif" font-size="10.00">+ AddHeartBeat()</text>
<text text-anchor="start" x="267.5" y="-310.5" font-family="Helvetica,sans-Serif" font-size="10.00">+ FindHeartBeat()</text>
<text text-anchor="start" x="267.5" y="-299.5" font-family="Helvetica,sans-Serif" font-size="10.00">+ RemoveHeartBeat()</text>
<text text-anchor="start" x="267.5" y="-288.5" font-family="Helvetica,sans-Serif" font-size="10.00">+ AddRecordCallBack()</text>
<text text-anchor="start" x="267.5" y="-277.5" font-family="Helvetica,sans-Serif" font-size="10.00">+ AddPropertyCallBack()</text>
<text text-anchor="start" x="267.5" y="-266.5" font-family="Helvetica,sans-Serif" font-size="10.00">+ AddEventCallBack()</text>
<text text-anchor="start" x="267.5" y="-255.5" font-family="Helvetica,sans-Serif" font-size="10.00">+ AddClassCallBack()</text>
<text text-anchor="start" x="267.5" y="-244.5" font-family="Helvetica,sans-Serif" font-size="10.00">+ DoEvent()</text>
<text text-anchor="start" x="267.5" y="-233.5" font-family="Helvetica,sans-Serif" font-size="10.00">+ DoEvent()</text>
<text text-anchor="start" x="267.5" y="-222.5" font-family="Helvetica,sans-Serif" font-size="10.00">+ RegisterCommonClassEvent()</text>
<text text-anchor="start" x="267.5" y="-211.5" font-family="Helvetica,sans-Serif" font-size="10.00">and 56 more...</text>
<text text-anchor="start" x="267.5" y="-200.5" font-family="Helvetica,sans-Serif" font-size="10.00"># AddEventCallBack()</text>
<text text-anchor="start" x="267.5" y="-189.5" font-family="Helvetica,sans-Serif" font-size="10.00"># AddClassCallBack()</text>
<text text-anchor="start" x="267.5" y="-178.5" font-family="Helvetica,sans-Serif" font-size="10.00"># RegisterCommonClassEvent()</text>
<text text-anchor="start" x="267.5" y="-167.5" font-family="Helvetica,sans-Serif" font-size="10.00"># RegisterCommonPropertyEvent()</text>
<text text-anchor="start" x="267.5" y="-156.5" font-family="Helvetica,sans-Serif" font-size="10.00"># RegisterCommonRecordEvent()</text>
</a>
</g>
</g>
<!-- Node5&#45;&gt;Node7 -->
<g id="edge6" class="edge"><title>Node5&#45;&gt;Node7</title>
<path fill="none" stroke="midnightblue" d="M247.021,-433.434C254.683,-422.71 262.201,-411.711 269,-401 274.951,-391.626 280.87,-381.727 286.62,-371.703"/>
<polygon fill="none" stroke="midnightblue" points="244.161,-431.416 241.143,-441.572 249.835,-435.515 244.161,-431.416"/>
</g>
<!-- Node6&#45;&gt;Node5 -->
<g id="edge3" class="edge"><title>Node6&#45;&gt;Node5</title>
<path fill="none" stroke="#404040" d="M185.627,-355.228C185.56,-372.169 185.489,-389.941 185.421,-407.199"/>
<polygon fill="none" stroke="#404040" points="185.42,-407.351 189.396,-413.367 185.372,-419.351 181.396,-413.335 185.42,-407.351"/>
<text text-anchor="middle" x="225.5" y="-393" font-family="Helvetica,sans-Serif" font-size="10.00"> #pPluginManager</text>
</g>
<!-- Node7&#45;&gt;Node3 -->
<g id="edge5" class="edge"><title>Node7&#45;&gt;Node3</title>
<path fill="none" stroke="#404040" d="M259.319,-158.562C256.213,-155.301 253.101,-152.104 250,-149 236.751,-135.736 221.89,-122.285 207.364,-109.794"/>
<polygon fill="none" stroke="#404040" points="207.029,-109.509 199.867,-108.669 197.887,-101.736 205.049,-102.575 207.029,-109.509"/>
<text text-anchor="middle" x="273.5" y="-123" font-family="Helvetica,sans-Serif" font-size="10.00"> #m_pKernelModule</text>
</g>
</g>
</svg>
        <g id="navigator" transform="translate(0 0)" fill="#404254">
                <rect fill="#f2f5e9" fill-opacity="0.5" stroke="#606060" stroke-width=".5" x="0" y="0" width="60" height="60"/>
                <use id="zoomplus" xlink:href="#zoomPlus" x="17" y="9" onmousedown="handleZoom(evt,'in')"/>
                <use id="zoomminus" xlink:href="#zoomMin" x="42" y="9" onmousedown="handleZoom(evt,'out')"/>
                <use id="reset" xlink:href="#resetDef" x="30" y="36" onmousedown="handleReset()"/>
                <g id="arrowUp" xlink:href="#dirArrow" transform="translate(30 24)" onmousedown="handlePan(0,-1)">
                  <use xlink:href="#rim" fill="#404040">
                        <set attributeName="fill" to="#808080" begin="arrowUp.mouseover" end="arrowUp.mouseout"/>
                  </use>
                  <path fill="none" stroke="white" stroke-width="1.5" d="M0,-3.0v7 M-2.5,-0.5L0,-3.0L2.5,-0.5"/>
                </g>
                <g id="arrowRight" xlink:href="#dirArrow" transform="rotate(90) translate(36 -43)" onmousedown="handlePan(1,0)">
                  <use xlink:href="#rim" fill="#404040">
                        <set attributeName="fill" to="#808080" begin="arrowRight.mouseover" end="arrowRight.mouseout"/>
                  </use>
                  <path fill="none" stroke="white" stroke-width="1.5" d="M0,-3.0v7 M-2.5,-0.5L0,-3.0L2.5,-0.5"/>
                </g>
                <g id="arrowDown" xlink:href="#dirArrow" transform="rotate(180) translate(-30 -48)" onmousedown="handlePan(0,1)">
                  <use xlink:href="#rim" fill="#404040">
                        <set attributeName="fill" to="#808080" begin="arrowDown.mouseover" end="arrowDown.mouseout"/>
                  </use>
                  <path fill="none" stroke="white" stroke-width="1.5" d="M0,-3.0v7 M-2.5,-0.5L0,-3.0L2.5,-0.5"/>
                </g>
                <g id="arrowLeft" xlink:href="#dirArrow" transform="rotate(270) translate(-36 17)" onmousedown="handlePan(-1,0)">
                  <use xlink:href="#rim" fill="#404040">
                        <set attributeName="fill" to="#808080" begin="arrowLeft.mouseover" end="arrowLeft.mouseout"/>
                  </use>
                  <path fill="none" stroke="white" stroke-width="1.5" d="M0,-3.0v7 M-2.5,-0.5L0,-3.0L2.5,-0.5"/>
                </g>
        </g>
        <svg viewBox="0 0 15 15" width="100%" height="30px" preserveAspectRatio="xMaxYMin meet">
         <g id="arrow_out" transform="scale(0.3 0.3)">
          <a xlink:href="class_n_f_c_world_logic_module__coll__graph_org.svg" target="_base">
           <rect id="button" ry="5" rx="5" y="6" x="6" height="38" width="38"
                fill="#f2f5e9" fill-opacity="0.5" stroke="#606060" stroke-width="1.0"/>
           <path id="arrow"
             d="M 11.500037,31.436501 C 11.940474,20.09759 22.043105,11.32322 32.158766,21.979434 L 37.068811,17.246167 C 37.068811,17.246167 37.088388,32 37.088388,32 L 22.160133,31.978069 C 22.160133,31.978069 26.997745,27.140456 26.997745,27.140456 C 18.528582,18.264221 13.291696,25.230495 11.500037,31.436501 z"
             style="fill:#404040;"/>
          </a>
         </g>
        </svg>
</svg>
