<?xml version="1.0" encoding="UTF-8" standalone="no"?>
<!DOCTYPE svg PUBLIC "-//W3C//DTD SVG 1.1//EN"
 "http://www.w3.org/Graphics/SVG/1.1/DTD/svg11.dtd">
<!-- Generated by graphviz version 2.38.0 (20140413.2041)
 -->
<!-- Title: NFLoginNet_ClientPlugin Pages: 1 -->
<!--zoomable 574 -->
<svg id="main" version="1.1" xmlns="http://www.w3.org/2000/svg" xmlns:xlink="http://www.w3.org/1999/xlink" xml:space="preserve" onload="init(evt)">
<style type="text/css"><![CDATA[
.edge:hover path { stroke: red; }
.edge:hover polygon { stroke: red; fill: red; }
]]></style>
<script type="text/javascript"><![CDATA[
var edges = document.getElementsByTagName('g');
if (edges && edges.length) {
  for (var i=0;i<edges.length;i++) {
    if (edges[i].id.substr(0,4)=='edge') {
      edges[i].setAttribute('class','edge');
    }
  }
}
]]></script>
        <defs>
                <circle id="rim" cx="0" cy="0" r="7"/>
                <circle id="rim2" cx="0" cy="0" r="3.5"/>
                <g id="zoomPlus">
                        <use xlink:href="#rim" fill="#404040">
                                <set attributeName="fill" to="#808080" begin="zoomplus.mouseover" end="zoomplus.mouseout"/>
                        </use>
                        <path d="M-4,0h8M0,-4v8" fill="none" stroke="white" stroke-width="1.5" pointer-events="none"/>
                </g>
                <g id="zoomMin">
                        <use xlink:href="#rim" fill="#404040">
                                <set attributeName="fill" to="#808080" begin="zoomminus.mouseover" end="zoomminus.mouseout"/>
                        </use>
                        <path d="M-4,0h8" fill="none" stroke="white" stroke-width="1.5" pointer-events="none"/>
                </g>
                <g id="dirArrow">
                        <path fill="none" stroke="white" stroke-width="1.5" d="M0,-3.0v7 M-2.5,-0.5L0,-3.0L2.5,-0.5"/>
                </g>
               <g id="resetDef">
                       <use xlink:href="#rim2" fill="#404040">
                               <set attributeName="fill" to="#808080" begin="reset.mouseover" end="reset.mouseout"/>
                       </use>
               </g>
        </defs>

<script type="text/javascript">
var viewWidth = 273;
var viewHeight = 574;
var sectionId = 'dynsection-1';
</script>
<script xlink:href="svgpan.js"/>
<svg id="graph" class="graph">
<g id="viewport">
<title>NFLoginNet_ClientPlugin</title>
<polygon fill="white" stroke="none" points="-4,4 -4,-570 268.5,-570 268.5,4 -4,4"/>
<!-- Node4 -->
<g id="node1" class="node"><title>Node4</title>
<polygon fill="#bfbfbf" stroke="black" points="114.5,-0.5 114.5,-101.5 254.5,-101.5 254.5,-0.5 114.5,-0.5"/>
<text text-anchor="middle" x="184.5" y="-89.5" font-family="Helvetica,sans-Serif" font-size="10.00">NFLoginNet_ClientPlugin</text>
<polyline fill="none" stroke="black" points="114.5,-82.5 254.5,-82.5 "/>
<text text-anchor="middle" x="184.5" y="-70.5" font-family="Helvetica,sans-Serif" font-size="10.00"> </text>
<polyline fill="none" stroke="black" points="114.5,-63.5 254.5,-63.5 "/>
<text text-anchor="start" x="122.5" y="-51.5" font-family="Helvetica,sans-Serif" font-size="10.00">+ NFLoginNet_ClientPlugin()</text>
<text text-anchor="start" x="122.5" y="-40.5" font-family="Helvetica,sans-Serif" font-size="10.00">+ GetPluginVersion()</text>
<text text-anchor="start" x="122.5" y="-29.5" font-family="Helvetica,sans-Serif" font-size="10.00">+ GetPluginName()</text>
<text text-anchor="start" x="122.5" y="-18.5" font-family="Helvetica,sans-Serif" font-size="10.00">+ Install()</text>
<text text-anchor="start" x="122.5" y="-7.5" font-family="Helvetica,sans-Serif" font-size="10.00">+ Uninstall()</text>
</g>
<!-- Node5 -->
<g id="node2" class="node"><title>Node5</title>
<g id="a_node2"><a xlink:href="class_n_f_i_plugin.html" target="_top" xlink:title="{NFIPlugin\n||+ GetPluginVersion()\l+ GetPluginName()\l+ Install()\l+ Init()\l+ AfterInit()\l+ CheckConfig()\l+ Execute()\l+ BeforeShut()\l+ Shut()\l+ Uninstall()\l}">
<polygon fill="white" stroke="black" points="131,-156 131,-312 238,-312 238,-156 131,-156"/>
<text text-anchor="middle" x="184.5" y="-300" font-family="Helvetica,sans-Serif" font-size="10.00">NFIPlugin</text>
<polyline fill="none" stroke="black" points="131,-293 238,-293 "/>
<text text-anchor="middle" x="184.5" y="-281" font-family="Helvetica,sans-Serif" font-size="10.00"> </text>
<polyline fill="none" stroke="black" points="131,-274 238,-274 "/>
<text text-anchor="start" x="139" y="-262" font-family="Helvetica,sans-Serif" font-size="10.00">+ GetPluginVersion()</text>
<text text-anchor="start" x="139" y="-251" font-family="Helvetica,sans-Serif" font-size="10.00">+ GetPluginName()</text>
<text text-anchor="start" x="139" y="-240" font-family="Helvetica,sans-Serif" font-size="10.00">+ Install()</text>
<text text-anchor="start" x="139" y="-229" font-family="Helvetica,sans-Serif" font-size="10.00">+ Init()</text>
<text text-anchor="start" x="139" y="-218" font-family="Helvetica,sans-Serif" font-size="10.00">+ AfterInit()</text>
<text text-anchor="start" x="139" y="-207" font-family="Helvetica,sans-Serif" font-size="10.00">+ CheckConfig()</text>
<text text-anchor="start" x="139" y="-196" font-family="Helvetica,sans-Serif" font-size="10.00">+ Execute()</text>
<text text-anchor="start" x="139" y="-185" font-family="Helvetica,sans-Serif" font-size="10.00">+ BeforeShut()</text>
<text text-anchor="start" x="139" y="-174" font-family="Helvetica,sans-Serif" font-size="10.00">+ Shut()</text>
<text text-anchor="start" x="139" y="-163" font-family="Helvetica,sans-Serif" font-size="10.00">+ Uninstall()</text>
</a>
</g>
</g>
<!-- Node5&#45;&gt;Node4 -->
<g id="edge1" class="edge"><title>Node5&#45;&gt;Node4</title>
<path fill="none" stroke="midnightblue" d="M184.5,-145.58C184.5,-130.507 184.5,-115.319 184.5,-101.692"/>
<polygon fill="none" stroke="midnightblue" points="181,-145.977 184.5,-155.977 188,-145.977 181,-145.977"/>
</g>
<!-- Node6 -->
<g id="node3" class="node"><title>Node6</title>
<g id="a_node3"><a xlink:href="class_n_f_i_module.html" target="_top" xlink:title="{NFIModule\n|+ strName\l# mbReloading\l|+ NFIModule()\l+ ~NFIModule()\l+ Init()\l+ AfterInit()\l+ CheckConfig()\l+ BeforeShut()\l+ Shut()\l+ Execute()\l+ StartReLoadState()\l+ EndReLoadState()\l+ GetPluginManager()\l+ Loading()\l}">
<polygon fill="white" stroke="black" points="30.5,-376.5 30.5,-565.5 142.5,-565.5 142.5,-376.5 30.5,-376.5"/>
<text text-anchor="middle" x="86.5" y="-553.5" font-family="Helvetica,sans-Serif" font-size="10.00">NFIModule</text>
<polyline fill="none" stroke="black" points="30.5,-546.5 142.5,-546.5 "/>
<text text-anchor="start" x="38.5" y="-534.5" font-family="Helvetica,sans-Serif" font-size="10.00">+ strName</text>
<text text-anchor="start" x="38.5" y="-523.5" font-family="Helvetica,sans-Serif" font-size="10.00"># mbReloading</text>
<polyline fill="none" stroke="black" points="30.5,-516.5 142.5,-516.5 "/>
<text text-anchor="start" x="38.5" y="-504.5" font-family="Helvetica,sans-Serif" font-size="10.00">+ NFIModule()</text>
<text text-anchor="start" x="38.5" y="-493.5" font-family="Helvetica,sans-Serif" font-size="10.00">+ ~NFIModule()</text>
<text text-anchor="start" x="38.5" y="-482.5" font-family="Helvetica,sans-Serif" font-size="10.00">+ Init()</text>
<text text-anchor="start" x="38.5" y="-471.5" font-family="Helvetica,sans-Serif" font-size="10.00">+ AfterInit()</text>
<text text-anchor="start" x="38.5" y="-460.5" font-family="Helvetica,sans-Serif" font-size="10.00">+ CheckConfig()</text>
<text text-anchor="start" x="38.5" y="-449.5" font-family="Helvetica,sans-Serif" font-size="10.00">+ BeforeShut()</text>
<text text-anchor="start" x="38.5" y="-438.5" font-family="Helvetica,sans-Serif" font-size="10.00">+ Shut()</text>
<text text-anchor="start" x="38.5" y="-427.5" font-family="Helvetica,sans-Serif" font-size="10.00">+ Execute()</text>
<text text-anchor="start" x="38.5" y="-416.5" font-family="Helvetica,sans-Serif" font-size="10.00">+ StartReLoadState()</text>
<text text-anchor="start" x="38.5" y="-405.5" font-family="Helvetica,sans-Serif" font-size="10.00">+ EndReLoadState()</text>
<text text-anchor="start" x="38.5" y="-394.5" font-family="Helvetica,sans-Serif" font-size="10.00">+ GetPluginManager()</text>
<text text-anchor="start" x="38.5" y="-383.5" font-family="Helvetica,sans-Serif" font-size="10.00">+ Loading()</text>
</a>
</g>
</g>
<!-- Node6&#45;&gt;Node5 -->
<g id="edge2" class="edge"><title>Node6&#45;&gt;Node5</title>
<path fill="none" stroke="midnightblue" d="M147.176,-374.227C149.806,-368.816 152.271,-363.386 154.5,-358 160.468,-343.58 165.434,-327.698 169.493,-312.274"/>
<polygon fill="none" stroke="midnightblue" points="143.977,-372.799 142.606,-383.305 150.229,-375.947 143.977,-372.799"/>
</g>
<!-- Node7 -->
<g id="node4" class="node"><title>Node7</title>
<g id="a_node4"><a xlink:href="class_n_f_i_plugin_manager.html" target="_top" xlink:title="{NFIPluginManager\n||+ NFIPluginManager()\l+ FindModule()\l+ Registered()\l+ UnRegistered()\l+ FindPlugin()\l+ AddModule()\l+ RemoveModule()\l+ FindModule()\l+ AppID()\l+ GetInitTime()\l+ GetNowTime()\l+ GetConfigPath()\l+ SetConfigName()\l}">
<polygon fill="white" stroke="black" points="0,-139.5 0,-328.5 111,-328.5 111,-139.5 0,-139.5"/>
<text text-anchor="middle" x="55.5" y="-316.5" font-family="Helvetica,sans-Serif" font-size="10.00">NFIPluginManager</text>
<polyline fill="none" stroke="black" points="0,-309.5 111,-309.5 "/>
<text text-anchor="middle" x="55.5" y="-297.5" font-family="Helvetica,sans-Serif" font-size="10.00"> </text>
<polyline fill="none" stroke="black" points="0,-290.5 111,-290.5 "/>
<text text-anchor="start" x="8" y="-278.5" font-family="Helvetica,sans-Serif" font-size="10.00">+ NFIPluginManager()</text>
<text text-anchor="start" x="8" y="-267.5" font-family="Helvetica,sans-Serif" font-size="10.00">+ FindModule()</text>
<text text-anchor="start" x="8" y="-256.5" font-family="Helvetica,sans-Serif" font-size="10.00">+ Registered()</text>
<text text-anchor="start" x="8" y="-245.5" font-family="Helvetica,sans-Serif" font-size="10.00">+ UnRegistered()</text>
<text text-anchor="start" x="8" y="-234.5" font-family="Helvetica,sans-Serif" font-size="10.00">+ FindPlugin()</text>
<text text-anchor="start" x="8" y="-223.5" font-family="Helvetica,sans-Serif" font-size="10.00">+ AddModule()</text>
<text text-anchor="start" x="8" y="-212.5" font-family="Helvetica,sans-Serif" font-size="10.00">+ RemoveModule()</text>
<text text-anchor="start" x="8" y="-201.5" font-family="Helvetica,sans-Serif" font-size="10.00">+ FindModule()</text>
<text text-anchor="start" x="8" y="-190.5" font-family="Helvetica,sans-Serif" font-size="10.00">+ AppID()</text>
<text text-anchor="start" x="8" y="-179.5" font-family="Helvetica,sans-Serif" font-size="10.00">+ GetInitTime()</text>
<text text-anchor="start" x="8" y="-168.5" font-family="Helvetica,sans-Serif" font-size="10.00">+ GetNowTime()</text>
<text text-anchor="start" x="8" y="-157.5" font-family="Helvetica,sans-Serif" font-size="10.00">+ GetConfigPath()</text>
<text text-anchor="start" x="8" y="-146.5" font-family="Helvetica,sans-Serif" font-size="10.00">+ SetConfigName()</text>
</a>
</g>
</g>
<!-- Node6&#45;&gt;Node7 -->
<g id="edge4" class="edge"><title>Node6&#45;&gt;Node7</title>
<path fill="none" stroke="midnightblue" d="M69.6159,-366.188C69.2319,-363.431 68.8591,-360.698 68.5,-358 67.2392,-348.528 66.024,-338.632 64.8765,-328.747"/>
<polygon fill="none" stroke="midnightblue" points="66.174,-366.844 71.0504,-376.25 73.1039,-365.856 66.174,-366.844"/>
</g>
<!-- Node7&#45;&gt;Node6 -->
<g id="edge3" class="edge"><title>Node7&#45;&gt;Node6</title>
<path fill="none" stroke="#404040" d="M67.8493,-328.615C69.407,-340.424 71.0091,-352.569 72.589,-364.545"/>
<polygon fill="none" stroke="#404040" points="72.5894,-364.55 77.3398,-369.975 74.1589,-376.447 69.4085,-371.021 72.5894,-364.55"/>
<text text-anchor="middle" x="111" y="-350" font-family="Helvetica,sans-Serif" font-size="10.00"> #pPluginManager</text>
</g>
<!-- Node8 -->
<g id="node5" class="node"><title>Node8</title>
<g id="a_node5"><a xlink:href="class_n_f_map.html" target="_top" xlink:title="{NFMap\&lt; std::string,\l NFIModule \&gt;\n|&#45; mObjectList\l&#45; mObjectCurIter\l|+ NFMap()\l+ ~NFMap()\l+ AddElement()\l+ RemoveElement()\l+ GetElement()\l+ First()\l+ First()\l+ Next()\l+ Next()\l+ Count()\l+ ClearAll()\l}">
<polygon fill="white" stroke="black" points="160.5,-376.5 160.5,-565.5 264.5,-565.5 264.5,-376.5 160.5,-376.5"/>
<text text-anchor="start" x="168.5" y="-553.5" font-family="Helvetica,sans-Serif" font-size="10.00">NFMap&lt; std::string,</text>
<text text-anchor="middle" x="212.5" y="-542.5" font-family="Helvetica,sans-Serif" font-size="10.00"> NFIModule &gt;</text>
<polyline fill="none" stroke="black" points="160.5,-535.5 264.5,-535.5 "/>
<text text-anchor="start" x="168.5" y="-523.5" font-family="Helvetica,sans-Serif" font-size="10.00">&#45; mObjectList</text>
<text text-anchor="start" x="168.5" y="-512.5" font-family="Helvetica,sans-Serif" font-size="10.00">&#45; mObjectCurIter</text>
<polyline fill="none" stroke="black" points="160.5,-505.5 264.5,-505.5 "/>
<text text-anchor="start" x="168.5" y="-493.5" font-family="Helvetica,sans-Serif" font-size="10.00">+ NFMap()</text>
<text text-anchor="start" x="168.5" y="-482.5" font-family="Helvetica,sans-Serif" font-size="10.00">+ ~NFMap()</text>
<text text-anchor="start" x="168.5" y="-471.5" font-family="Helvetica,sans-Serif" font-size="10.00">+ AddElement()</text>
<text text-anchor="start" x="168.5" y="-460.5" font-family="Helvetica,sans-Serif" font-size="10.00">+ RemoveElement()</text>
<text text-anchor="start" x="168.5" y="-449.5" font-family="Helvetica,sans-Serif" font-size="10.00">+ GetElement()</text>
<text text-anchor="start" x="168.5" y="-438.5" font-family="Helvetica,sans-Serif" font-size="10.00">+ First()</text>
<text text-anchor="start" x="168.5" y="-427.5" font-family="Helvetica,sans-Serif" font-size="10.00">+ First()</text>
<text text-anchor="start" x="168.5" y="-416.5" font-family="Helvetica,sans-Serif" font-size="10.00">+ Next()</text>
<text text-anchor="start" x="168.5" y="-405.5" font-family="Helvetica,sans-Serif" font-size="10.00">+ Next()</text>
<text text-anchor="start" x="168.5" y="-394.5" font-family="Helvetica,sans-Serif" font-size="10.00">+ Count()</text>
<text text-anchor="start" x="168.5" y="-383.5" font-family="Helvetica,sans-Serif" font-size="10.00">+ ClearAll()</text>
</a>
</g>
</g>
<!-- Node8&#45;&gt;Node5 -->
<g id="edge5" class="edge"><title>Node8&#45;&gt;Node5</title>
<path fill="none" stroke="midnightblue" d="M200.757,-366.111C200.001,-359.643 199.244,-353.232 198.5,-347 197.152,-335.715 195.697,-323.794 194.251,-312.105"/>
<polygon fill="none" stroke="midnightblue" points="197.311,-366.775 201.944,-376.303 204.264,-365.966 197.311,-366.775"/>
</g>
</g>
</svg>
        <g id="navigator" transform="translate(0 0)" fill="#404254">
                <rect fill="#f2f5e9" fill-opacity="0.5" stroke="#606060" stroke-width=".5" x="0" y="0" width="60" height="60"/>
                <use id="zoomplus" xlink:href="#zoomPlus" x="17" y="9" onmousedown="handleZoom(evt,'in')"/>
                <use id="zoomminus" xlink:href="#zoomMin" x="42" y="9" onmousedown="handleZoom(evt,'out')"/>
                <use id="reset" xlink:href="#resetDef" x="30" y="36" onmousedown="handleReset()"/>
                <g id="arrowUp" xlink:href="#dirArrow" transform="translate(30 24)" onmousedown="handlePan(0,-1)">
                  <use xlink:href="#rim" fill="#404040">
                        <set attributeName="fill" to="#808080" begin="arrowUp.mouseover" end="arrowUp.mouseout"/>
                  </use>
                  <path fill="none" stroke="white" stroke-width="1.5" d="M0,-3.0v7 M-2.5,-0.5L0,-3.0L2.5,-0.5"/>
                </g>
                <g id="arrowRight" xlink:href="#dirArrow" transform="rotate(90) translate(36 -43)" onmousedown="handlePan(1,0)">
                  <use xlink:href="#rim" fill="#404040">
                        <set attributeName="fill" to="#808080" begin="arrowRight.mouseover" end="arrowRight.mouseout"/>
                  </use>
                  <path fill="none" stroke="white" stroke-width="1.5" d="M0,-3.0v7 M-2.5,-0.5L0,-3.0L2.5,-0.5"/>
                </g>
                <g id="arrowDown" xlink:href="#dirArrow" transform="rotate(180) translate(-30 -48)" onmousedown="handlePan(0,1)">
                  <use xlink:href="#rim" fill="#404040">
                        <set attributeName="fill" to="#808080" begin="arrowDown.mouseover" end="arrowDown.mouseout"/>
                  </use>
                  <path fill="none" stroke="white" stroke-width="1.5" d="M0,-3.0v7 M-2.5,-0.5L0,-3.0L2.5,-0.5"/>
                </g>
                <g id="arrowLeft" xlink:href="#dirArrow" transform="rotate(270) translate(-36 17)" onmousedown="handlePan(-1,0)">
                  <use xlink:href="#rim" fill="#404040">
                        <set attributeName="fill" to="#808080" begin="arrowLeft.mouseover" end="arrowLeft.mouseout"/>
                  </use>
                  <path fill="none" stroke="white" stroke-width="1.5" d="M0,-3.0v7 M-2.5,-0.5L0,-3.0L2.5,-0.5"/>
                </g>
        </g>
        <svg viewBox="0 0 15 15" width="100%" height="30px" preserveAspectRatio="xMaxYMin meet">
         <g id="arrow_out" transform="scale(0.3 0.3)">
          <a xlink:href="class_n_f_login_net___client_plugin__coll__graph_org.svg" target="_base">
           <rect id="button" ry="5" rx="5" y="6" x="6" height="38" width="38"
                fill="#f2f5e9" fill-opacity="0.5" stroke="#606060" stroke-width="1.0"/>
           <path id="arrow"
             d="M 11.500037,31.436501 C 11.940474,20.09759 22.043105,11.32322 32.158766,21.979434 L 37.068811,17.246167 C 37.068811,17.246167 37.088388,32 37.088388,32 L 22.160133,31.978069 C 22.160133,31.978069 26.997745,27.140456 26.997745,27.140456 C 18.528582,18.264221 13.291696,25.230495 11.500037,31.436501 z"
             style="fill:#404040;"/>
          </a>
         </g>
        </svg>
</svg>
