<?xml version="1.0" encoding="UTF-8" standalone="no"?>
<!DOCTYPE svg PUBLIC "-//W3C//DTD SVG 1.1//EN"
 "http://www.w3.org/Graphics/SVG/1.1/DTD/svg11.dtd">
<!-- Generated by graphviz version 2.38.0 (20140413.2041)
 -->
<!-- Title: NFCMemManger Pages: 1 -->
<svg width="169pt" height="259pt"
 viewBox="0.00 0.00 169.00 259.00" xmlns="http://www.w3.org/2000/svg" xmlns:xlink="http://www.w3.org/1999/xlink">
<g id="graph0" class="graph" transform="scale(1 1) rotate(0) translate(4 255)">
<title>NFCMemManger</title>
<polygon fill="white" stroke="none" points="-4,4 -4,-255 165,-255 165,4 -4,4"/>
<!-- Node2 -->
<g id="node1" class="node"><title>Node2</title>
<polygon fill="#bfbfbf" stroke="black" points="25,-171.5 25,-250.5 136,-250.5 136,-171.5 25,-171.5"/>
<text text-anchor="middle" x="80.5" y="-238.5" font-family="Helvetica,sans-Serif" font-size="10.00">NFCMemManger</text>
<polyline fill="none" stroke="black" points="25,-231.5 136,-231.5 "/>
<text text-anchor="middle" x="80.5" y="-219.5" font-family="Helvetica,sans-Serif" font-size="10.00"> </text>
<polyline fill="none" stroke="black" points="25,-212.5 136,-212.5 "/>
<text text-anchor="start" x="33" y="-200.5" font-family="Helvetica,sans-Serif" font-size="10.00">+ NFCMemManger()</text>
<text text-anchor="start" x="33" y="-189.5" font-family="Helvetica,sans-Serif" font-size="10.00">+ ~NFCMemManger()</text>
<text text-anchor="start" x="33" y="-178.5" font-family="Helvetica,sans-Serif" font-size="10.00">+ FreeMem()</text>
</g>
<!-- Node3 -->
<g id="node2" class="node"><title>Node3</title>
<g id="a_node2"><a xlink:href="class_n_f_singleton.html" target="_top" xlink:title="{NFSingleton\&lt; NFCMemManger \&gt;\n||+ NFSingleton()\l+ ~NFSingleton()\l+ GetSingletonPtr()\l+ GetSingletonRef()\l+ Instance()\l+ InstanceRef()\l+ ReleaseInstance()\l}">
<polygon fill="white" stroke="black" points="0,-0.5 0,-123.5 161,-123.5 161,-0.5 0,-0.5"/>
<text text-anchor="middle" x="80.5" y="-111.5" font-family="Helvetica,sans-Serif" font-size="10.00">NFSingleton&lt; NFCMemManger &gt;</text>
<polyline fill="none" stroke="black" points="0,-104.5 161,-104.5 "/>
<text text-anchor="middle" x="80.5" y="-92.5" font-family="Helvetica,sans-Serif" font-size="10.00"> </text>
<polyline fill="none" stroke="black" points="0,-85.5 161,-85.5 "/>
<text text-anchor="start" x="8" y="-73.5" font-family="Helvetica,sans-Serif" font-size="10.00">+ NFSingleton()</text>
<text text-anchor="start" x="8" y="-62.5" font-family="Helvetica,sans-Serif" font-size="10.00">+ ~NFSingleton()</text>
<text text-anchor="start" x="8" y="-51.5" font-family="Helvetica,sans-Serif" font-size="10.00">+ GetSingletonPtr()</text>
<text text-anchor="start" x="8" y="-40.5" font-family="Helvetica,sans-Serif" font-size="10.00">+ GetSingletonRef()</text>
<text text-anchor="start" x="8" y="-29.5" font-family="Helvetica,sans-Serif" font-size="10.00">+ Instance()</text>
<text text-anchor="start" x="8" y="-18.5" font-family="Helvetica,sans-Serif" font-size="10.00">+ InstanceRef()</text>
<text text-anchor="start" x="8" y="-7.5" font-family="Helvetica,sans-Serif" font-size="10.00">+ ReleaseInstance()</text>
</a>
</g>
</g>
<!-- Node2&#45;&gt;Node3 -->
<g id="edge2" class="edge"><title>Node2&#45;&gt;Node3</title>
<path fill="none" stroke="#404040" d="M47.9748,-171.241C44.5109,-165.423 41.5192,-159.265 39.5,-153 37.6549,-147.275 37.0826,-141.432 37.4691,-135.61"/>
<polygon fill="none" stroke="#404040" points="37.4776,-135.56 34.5509,-128.969 39.5089,-123.733 42.4355,-130.324 37.4776,-135.56"/>
<text text-anchor="middle" x="70.5" y="-145" font-family="Helvetica,sans-Serif" font-size="10.00"> &#45;m_pInstance</text>
</g>
<!-- Node3&#45;&gt;Node2 -->
<g id="edge1" class="edge"><title>Node3&#45;&gt;Node2</title>
<path fill="none" stroke="midnightblue" d="M106.722,-133.843C107.126,-140.294 106.81,-146.751 105.5,-153 104.214,-159.134 102.227,-165.414 99.9237,-171.46"/>
<polygon fill="none" stroke="midnightblue" points="110.178,-133.263 105.535,-123.739 103.226,-134.08 110.178,-133.263"/>
</g>
</g>
</svg>
