<?xml version="1.0" encoding="UTF-8" standalone="no"?>
<!DOCTYPE svg PUBLIC "-//W3C//DTD SVG 1.1//EN"
 "http://www.w3.org/Graphics/SVG/1.1/DTD/svg11.dtd">
<!-- Generated by graphviz version 2.38.0 (20140413.2041)
 -->
<!-- Title: NFIPlugin Pages: 1 -->
<svg width="3006pt" height="540pt"
 viewBox="0.00 0.00 3006.00 540.00" xmlns="http://www.w3.org/2000/svg" xmlns:xlink="http://www.w3.org/1999/xlink">
<g id="graph0" class="graph" transform="scale(1 1) rotate(0) translate(4 536)">
<title>NFIPlugin</title>
<polygon fill="white" stroke="none" points="-4,4 -4,-536 3002,-536 3002,4 -4,4"/>
<!-- Node0 -->
<g id="node1" class="node"><title>Node0</title>
<polygon fill="#bfbfbf" stroke="black" points="1451,-138.5 1451,-294.5 1558,-294.5 1558,-138.5 1451,-138.5"/>
<text text-anchor="middle" x="1504.5" y="-282.5" font-family="Helvetica,sans-Serif" font-size="10.00">NFIPlugin</text>
<polyline fill="none" stroke="black" points="1451,-275.5 1558,-275.5 "/>
<text text-anchor="middle" x="1504.5" y="-263.5" font-family="Helvetica,sans-Serif" font-size="10.00"> </text>
<polyline fill="none" stroke="black" points="1451,-256.5 1558,-256.5 "/>
<text text-anchor="start" x="1459" y="-244.5" font-family="Helvetica,sans-Serif" font-size="10.00">+ GetPluginVersion()</text>
<text text-anchor="start" x="1459" y="-233.5" font-family="Helvetica,sans-Serif" font-size="10.00">+ GetPluginName()</text>
<text text-anchor="start" x="1459" y="-222.5" font-family="Helvetica,sans-Serif" font-size="10.00">+ Install()</text>
<text text-anchor="start" x="1459" y="-211.5" font-family="Helvetica,sans-Serif" font-size="10.00">+ Init()</text>
<text text-anchor="start" x="1459" y="-200.5" font-family="Helvetica,sans-Serif" font-size="10.00">+ AfterInit()</text>
<text text-anchor="start" x="1459" y="-189.5" font-family="Helvetica,sans-Serif" font-size="10.00">+ CheckConfig()</text>
<text text-anchor="start" x="1459" y="-178.5" font-family="Helvetica,sans-Serif" font-size="10.00">+ Execute()</text>
<text text-anchor="start" x="1459" y="-167.5" font-family="Helvetica,sans-Serif" font-size="10.00">+ BeforeShut()</text>
<text text-anchor="start" x="1459" y="-156.5" font-family="Helvetica,sans-Serif" font-size="10.00">+ Shut()</text>
<text text-anchor="start" x="1459" y="-145.5" font-family="Helvetica,sans-Serif" font-size="10.00">+ Uninstall()</text>
</g>
<!-- Node3 -->
<g id="node4" class="node"><title>Node3</title>
<g id="a_node4"><a xlink:href="class_n_f_config_plugin.html" target="_top" xlink:title="///////////////////////////////////////////////////////////////////////. ">
<polygon fill="white" stroke="black" points="0,-0.5 0,-101.5 107,-101.5 107,-0.5 0,-0.5"/>
<text text-anchor="middle" x="53.5" y="-89.5" font-family="Helvetica,sans-Serif" font-size="10.00">NFConfigPlugin</text>
<polyline fill="none" stroke="black" points="0,-82.5 107,-82.5 "/>
<text text-anchor="middle" x="53.5" y="-70.5" font-family="Helvetica,sans-Serif" font-size="10.00"> </text>
<polyline fill="none" stroke="black" points="0,-63.5 107,-63.5 "/>
<text text-anchor="start" x="8" y="-51.5" font-family="Helvetica,sans-Serif" font-size="10.00">+ NFConfigPlugin()</text>
<text text-anchor="start" x="8" y="-40.5" font-family="Helvetica,sans-Serif" font-size="10.00">+ GetPluginVersion()</text>
<text text-anchor="start" x="8" y="-29.5" font-family="Helvetica,sans-Serif" font-size="10.00">+ GetPluginName()</text>
<text text-anchor="start" x="8" y="-18.5" font-family="Helvetica,sans-Serif" font-size="10.00">+ Install()</text>
<text text-anchor="start" x="8" y="-7.5" font-family="Helvetica,sans-Serif" font-size="10.00">+ Uninstall()</text>
</a>
</g>
</g>
<!-- Node0&#45;&gt;Node3 -->
<g id="edge3" class="edge"><title>Node0&#45;&gt;Node3</title>
<path fill="none" stroke="midnightblue" d="M1440.51,-215.161C1201.52,-213.147 362.445,-199.159 116.5,-102 113.383,-100.769 110.297,-99.3288 107.263,-97.7303"/>
<polygon fill="none" stroke="midnightblue" points="1440.73,-218.663 1450.76,-215.243 1440.79,-211.663 1440.73,-218.663"/>
</g>
<!-- Node4 -->
<g id="node5" class="node"><title>Node4</title>
<g id="a_node5"><a xlink:href="class_n_f_game_server_net___client_plugin.html" target="_top" xlink:title="{NFGameServerNet_ClientPlugin\n||+ NFGameServerNet_ClientPlugin()\l+ GetPluginVersion()\l+ GetPluginName()\l+ Install()\l+ Uninstall()\l}">
<polygon fill="white" stroke="black" points="125.5,-0.5 125.5,-101.5 295.5,-101.5 295.5,-0.5 125.5,-0.5"/>
<text text-anchor="middle" x="210.5" y="-89.5" font-family="Helvetica,sans-Serif" font-size="10.00">NFGameServerNet_ClientPlugin</text>
<polyline fill="none" stroke="black" points="125.5,-82.5 295.5,-82.5 "/>
<text text-anchor="middle" x="210.5" y="-70.5" font-family="Helvetica,sans-Serif" font-size="10.00"> </text>
<polyline fill="none" stroke="black" points="125.5,-63.5 295.5,-63.5 "/>
<text text-anchor="start" x="133.5" y="-51.5" font-family="Helvetica,sans-Serif" font-size="10.00">+ NFGameServerNet_ClientPlugin()</text>
<text text-anchor="start" x="133.5" y="-40.5" font-family="Helvetica,sans-Serif" font-size="10.00">+ GetPluginVersion()</text>
<text text-anchor="start" x="133.5" y="-29.5" font-family="Helvetica,sans-Serif" font-size="10.00">+ GetPluginName()</text>
<text text-anchor="start" x="133.5" y="-18.5" font-family="Helvetica,sans-Serif" font-size="10.00">+ Install()</text>
<text text-anchor="start" x="133.5" y="-7.5" font-family="Helvetica,sans-Serif" font-size="10.00">+ Uninstall()</text>
</a>
</g>
</g>
<!-- Node0&#45;&gt;Node4 -->
<g id="edge4" class="edge"><title>Node0&#45;&gt;Node4</title>
<path fill="none" stroke="midnightblue" d="M1440.77,-212.773C1224.6,-203.01 520.681,-166.883 304.5,-102 301.579,-101.123 298.644,-100.152 295.709,-99.1015"/>
<polygon fill="none" stroke="midnightblue" points="1440.85,-216.28 1451,-213.232 1441.16,-209.287 1440.85,-216.28"/>
</g>
<!-- Node5 -->
<g id="node6" class="node"><title>Node5</title>
<g id="a_node6"><a xlink:href="class_n_f_game_server_net___server_plugin.html" target="_top" xlink:title="{NFGameServerNet_ServerPlugin\n||+ NFGameServerNet_ServerPlugin()\l+ GetPluginVersion()\l+ GetPluginName()\l+ Install()\l+ Uninstall()\l}">
<polygon fill="white" stroke="black" points="313.5,-0.5 313.5,-101.5 485.5,-101.5 485.5,-0.5 313.5,-0.5"/>
<text text-anchor="middle" x="399.5" y="-89.5" font-family="Helvetica,sans-Serif" font-size="10.00">NFGameServerNet_ServerPlugin</text>
<polyline fill="none" stroke="black" points="313.5,-82.5 485.5,-82.5 "/>
<text text-anchor="middle" x="399.5" y="-70.5" font-family="Helvetica,sans-Serif" font-size="10.00"> </text>
<polyline fill="none" stroke="black" points="313.5,-63.5 485.5,-63.5 "/>
<text text-anchor="start" x="321.5" y="-51.5" font-family="Helvetica,sans-Serif" font-size="10.00">+ NFGameServerNet_ServerPlugin()</text>
<text text-anchor="start" x="321.5" y="-40.5" font-family="Helvetica,sans-Serif" font-size="10.00">+ GetPluginVersion()</text>
<text text-anchor="start" x="321.5" y="-29.5" font-family="Helvetica,sans-Serif" font-size="10.00">+ GetPluginName()</text>
<text text-anchor="start" x="321.5" y="-18.5" font-family="Helvetica,sans-Serif" font-size="10.00">+ Install()</text>
<text text-anchor="start" x="321.5" y="-7.5" font-family="Helvetica,sans-Serif" font-size="10.00">+ Uninstall()</text>
</a>
</g>
</g>
<!-- Node0&#45;&gt;Node5 -->
<g id="edge5" class="edge"><title>Node0&#45;&gt;Node5</title>
<path fill="none" stroke="midnightblue" d="M1440.51,-216.438C1278.35,-217.093 839.641,-208.081 494.5,-102 491.56,-101.097 488.605,-100.102 485.648,-99.0313"/>
<polygon fill="none" stroke="midnightblue" points="1440.81,-219.936 1450.79,-216.382 1440.77,-212.936 1440.81,-219.936"/>
</g>
<!-- Node6 -->
<g id="node7" class="node"><title>Node6</title>
<g id="a_node7"><a xlink:href="class_n_f_game_server_plugin.html" target="_top" xlink:title="{NFGameServerPlugin\n||+ NFGameServerPlugin()\l+ GetPluginVersion()\l+ GetPluginName()\l+ Install()\l+ Uninstall()\l}">
<polygon fill="white" stroke="black" points="504,-0.5 504,-101.5 629,-101.5 629,-0.5 504,-0.5"/>
<text text-anchor="middle" x="566.5" y="-89.5" font-family="Helvetica,sans-Serif" font-size="10.00">NFGameServerPlugin</text>
<polyline fill="none" stroke="black" points="504,-82.5 629,-82.5 "/>
<text text-anchor="middle" x="566.5" y="-70.5" font-family="Helvetica,sans-Serif" font-size="10.00"> </text>
<polyline fill="none" stroke="black" points="504,-63.5 629,-63.5 "/>
<text text-anchor="start" x="512" y="-51.5" font-family="Helvetica,sans-Serif" font-size="10.00">+ NFGameServerPlugin()</text>
<text text-anchor="start" x="512" y="-40.5" font-family="Helvetica,sans-Serif" font-size="10.00">+ GetPluginVersion()</text>
<text text-anchor="start" x="512" y="-29.5" font-family="Helvetica,sans-Serif" font-size="10.00">+ GetPluginName()</text>
<text text-anchor="start" x="512" y="-18.5" font-family="Helvetica,sans-Serif" font-size="10.00">+ Install()</text>
<text text-anchor="start" x="512" y="-7.5" font-family="Helvetica,sans-Serif" font-size="10.00">+ Uninstall()</text>
</a>
</g>
</g>
<!-- Node0&#45;&gt;Node6 -->
<g id="edge6" class="edge"><title>Node0&#45;&gt;Node6</title>
<path fill="none" stroke="midnightblue" d="M1440.88,-211.139C1266.63,-198.571 784.834,-159.462 637.5,-102 634.691,-100.904 631.887,-99.6748 629.106,-98.3389"/>
<polygon fill="none" stroke="midnightblue" points="1440.7,-214.635 1450.92,-211.859 1441.2,-207.653 1440.7,-214.635"/>
</g>
<!-- Node7 -->
<g id="node8" class="node"><title>Node7</title>
<g id="a_node8"><a xlink:href="class_n_f_kernel_plugin.html" target="_top" xlink:title="{NFKernelPlugin\n||+ NFKernelPlugin()\l+ GetPluginVersion()\l+ GetPluginName()\l+ Install()\l+ Uninstall()\l}">
<polygon fill="white" stroke="black" points="647,-0.5 647,-101.5 754,-101.5 754,-0.5 647,-0.5"/>
<text text-anchor="middle" x="700.5" y="-89.5" font-family="Helvetica,sans-Serif" font-size="10.00">NFKernelPlugin</text>
<polyline fill="none" stroke="black" points="647,-82.5 754,-82.5 "/>
<text text-anchor="middle" x="700.5" y="-70.5" font-family="Helvetica,sans-Serif" font-size="10.00"> </text>
<polyline fill="none" stroke="black" points="647,-63.5 754,-63.5 "/>
<text text-anchor="start" x="655" y="-51.5" font-family="Helvetica,sans-Serif" font-size="10.00">+ NFKernelPlugin()</text>
<text text-anchor="start" x="655" y="-40.5" font-family="Helvetica,sans-Serif" font-size="10.00">+ GetPluginVersion()</text>
<text text-anchor="start" x="655" y="-29.5" font-family="Helvetica,sans-Serif" font-size="10.00">+ GetPluginName()</text>
<text text-anchor="start" x="655" y="-18.5" font-family="Helvetica,sans-Serif" font-size="10.00">+ Install()</text>
<text text-anchor="start" x="655" y="-7.5" font-family="Helvetica,sans-Serif" font-size="10.00">+ Uninstall()</text>
</a>
</g>
</g>
<!-- Node0&#45;&gt;Node7 -->
<g id="edge7" class="edge"><title>Node0&#45;&gt;Node7</title>
<path fill="none" stroke="midnightblue" d="M1440.4,-209.938C1283.71,-195.665 885.208,-155.104 763.5,-102 760.428,-100.66 757.379,-99.1314 754.375,-97.4619"/>
<polygon fill="none" stroke="midnightblue" points="1440.54,-213.464 1450.81,-210.88 1441.17,-206.493 1440.54,-213.464"/>
</g>
<!-- Node8 -->
<g id="node9" class="node"><title>Node8</title>
<g id="a_node9"><a xlink:href="class_n_f_login_logic_plugin.html" target="_top" xlink:title="{NFLoginLogicPlugin\n||+ NFLoginLogicPlugin()\l+ GetPluginVersion()\l+ GetPluginName()\l+ Install()\l+ Uninstall()\l}">
<polygon fill="white" stroke="black" points="772.5,-0.5 772.5,-101.5 890.5,-101.5 890.5,-0.5 772.5,-0.5"/>
<text text-anchor="middle" x="831.5" y="-89.5" font-family="Helvetica,sans-Serif" font-size="10.00">NFLoginLogicPlugin</text>
<polyline fill="none" stroke="black" points="772.5,-82.5 890.5,-82.5 "/>
<text text-anchor="middle" x="831.5" y="-70.5" font-family="Helvetica,sans-Serif" font-size="10.00"> </text>
<polyline fill="none" stroke="black" points="772.5,-63.5 890.5,-63.5 "/>
<text text-anchor="start" x="780.5" y="-51.5" font-family="Helvetica,sans-Serif" font-size="10.00">+ NFLoginLogicPlugin()</text>
<text text-anchor="start" x="780.5" y="-40.5" font-family="Helvetica,sans-Serif" font-size="10.00">+ GetPluginVersion()</text>
<text text-anchor="start" x="780.5" y="-29.5" font-family="Helvetica,sans-Serif" font-size="10.00">+ GetPluginName()</text>
<text text-anchor="start" x="780.5" y="-18.5" font-family="Helvetica,sans-Serif" font-size="10.00">+ Install()</text>
<text text-anchor="start" x="780.5" y="-7.5" font-family="Helvetica,sans-Serif" font-size="10.00">+ Uninstall()</text>
</a>
</g>
</g>
<!-- Node0&#45;&gt;Node8 -->
<g id="edge8" class="edge"><title>Node0&#45;&gt;Node8</title>
<path fill="none" stroke="midnightblue" d="M1440.55,-212.817C1327.1,-206.065 1085.09,-182.606 899.5,-102 896.543,-100.716 893.592,-99.283 890.668,-97.7367"/>
<polygon fill="none" stroke="midnightblue" points="1440.61,-216.326 1450.79,-213.401 1441.01,-209.337 1440.61,-216.326"/>
</g>
<!-- Node9 -->
<g id="node10" class="node"><title>Node9</title>
<g id="a_node10"><a xlink:href="class_n_f_login_net___client_plugin.html" target="_top" xlink:title="{NFLoginNet_ClientPlugin\n||+ NFLoginNet_ClientPlugin()\l+ GetPluginVersion()\l+ GetPluginName()\l+ Install()\l+ Uninstall()\l}">
<polygon fill="white" stroke="black" points="908.5,-0.5 908.5,-101.5 1048.5,-101.5 1048.5,-0.5 908.5,-0.5"/>
<text text-anchor="middle" x="978.5" y="-89.5" font-family="Helvetica,sans-Serif" font-size="10.00">NFLoginNet_ClientPlugin</text>
<polyline fill="none" stroke="black" points="908.5,-82.5 1048.5,-82.5 "/>
<text text-anchor="middle" x="978.5" y="-70.5" font-family="Helvetica,sans-Serif" font-size="10.00"> </text>
<polyline fill="none" stroke="black" points="908.5,-63.5 1048.5,-63.5 "/>
<text text-anchor="start" x="916.5" y="-51.5" font-family="Helvetica,sans-Serif" font-size="10.00">+ NFLoginNet_ClientPlugin()</text>
<text text-anchor="start" x="916.5" y="-40.5" font-family="Helvetica,sans-Serif" font-size="10.00">+ GetPluginVersion()</text>
<text text-anchor="start" x="916.5" y="-29.5" font-family="Helvetica,sans-Serif" font-size="10.00">+ GetPluginName()</text>
<text text-anchor="start" x="916.5" y="-18.5" font-family="Helvetica,sans-Serif" font-size="10.00">+ Install()</text>
<text text-anchor="start" x="916.5" y="-7.5" font-family="Helvetica,sans-Serif" font-size="10.00">+ Uninstall()</text>
</a>
</g>
</g>
<!-- Node0&#45;&gt;Node9 -->
<g id="edge9" class="edge"><title>Node0&#45;&gt;Node9</title>
<path fill="none" stroke="midnightblue" d="M1440.88,-205.856C1352.29,-190.992 1187.98,-158.161 1057.5,-102 1054.52,-100.717 1051.52,-99.3284 1048.53,-97.8599"/>
<polygon fill="none" stroke="midnightblue" points="1440.34,-209.315 1450.78,-207.495 1441.48,-202.409 1440.34,-209.315"/>
</g>
<!-- Node10 -->
<g id="node11" class="node"><title>Node10</title>
<g id="a_node11"><a xlink:href="class_n_f_login_net___server_plugin.html" target="_top" xlink:title="{NFLoginNet_ServerPlugin\n||+ NFLoginNet_ServerPlugin()\l+ GetPluginVersion()\l+ GetPluginName()\l+ Install()\l+ Uninstall()\l}">
<polygon fill="white" stroke="black" points="1066.5,-0.5 1066.5,-101.5 1208.5,-101.5 1208.5,-0.5 1066.5,-0.5"/>
<text text-anchor="middle" x="1137.5" y="-89.5" font-family="Helvetica,sans-Serif" font-size="10.00">NFLoginNet_ServerPlugin</text>
<polyline fill="none" stroke="black" points="1066.5,-82.5 1208.5,-82.5 "/>
<text text-anchor="middle" x="1137.5" y="-70.5" font-family="Helvetica,sans-Serif" font-size="10.00"> </text>
<polyline fill="none" stroke="black" points="1066.5,-63.5 1208.5,-63.5 "/>
<text text-anchor="start" x="1074.5" y="-51.5" font-family="Helvetica,sans-Serif" font-size="10.00">+ NFLoginNet_ServerPlugin()</text>
<text text-anchor="start" x="1074.5" y="-40.5" font-family="Helvetica,sans-Serif" font-size="10.00">+ GetPluginVersion()</text>
<text text-anchor="start" x="1074.5" y="-29.5" font-family="Helvetica,sans-Serif" font-size="10.00">+ GetPluginName()</text>
<text text-anchor="start" x="1074.5" y="-18.5" font-family="Helvetica,sans-Serif" font-size="10.00">+ Install()</text>
<text text-anchor="start" x="1074.5" y="-7.5" font-family="Helvetica,sans-Serif" font-size="10.00">+ Uninstall()</text>
</a>
</g>
</g>
<!-- Node0&#45;&gt;Node10 -->
<g id="edge10" class="edge"><title>Node0&#45;&gt;Node10</title>
<path fill="none" stroke="midnightblue" d="M1441.29,-194.251C1382.16,-173.505 1292.03,-139.634 1217.5,-102 1214.58,-100.524 1211.62,-98.9725 1208.66,-97.3677"/>
<polygon fill="none" stroke="midnightblue" points="1440.28,-197.603 1450.87,-197.592 1442.58,-190.994 1440.28,-197.603"/>
</g>
<!-- Node11 -->
<g id="node12" class="node"><title>Node11</title>
<g id="a_node12"><a xlink:href="class_n_f_log_plugin.html" target="_top" xlink:title="{NFLogPlugin\n||+ NFLogPlugin()\l+ GetPluginVersion()\l+ GetPluginName()\l+ Install()\l+ Uninstall()\l}">
<polygon fill="white" stroke="black" points="1227,-0.5 1227,-101.5 1334,-101.5 1334,-0.5 1227,-0.5"/>
<text text-anchor="middle" x="1280.5" y="-89.5" font-family="Helvetica,sans-Serif" font-size="10.00">NFLogPlugin</text>
<polyline fill="none" stroke="black" points="1227,-82.5 1334,-82.5 "/>
<text text-anchor="middle" x="1280.5" y="-70.5" font-family="Helvetica,sans-Serif" font-size="10.00"> </text>
<polyline fill="none" stroke="black" points="1227,-63.5 1334,-63.5 "/>
<text text-anchor="start" x="1235" y="-51.5" font-family="Helvetica,sans-Serif" font-size="10.00">+ NFLogPlugin()</text>
<text text-anchor="start" x="1235" y="-40.5" font-family="Helvetica,sans-Serif" font-size="10.00">+ GetPluginVersion()</text>
<text text-anchor="start" x="1235" y="-29.5" font-family="Helvetica,sans-Serif" font-size="10.00">+ GetPluginName()</text>
<text text-anchor="start" x="1235" y="-18.5" font-family="Helvetica,sans-Serif" font-size="10.00">+ Install()</text>
<text text-anchor="start" x="1235" y="-7.5" font-family="Helvetica,sans-Serif" font-size="10.00">+ Uninstall()</text>
</a>
</g>
</g>
<!-- Node0&#45;&gt;Node11 -->
<g id="edge11" class="edge"><title>Node0&#45;&gt;Node11</title>
<path fill="none" stroke="midnightblue" d="M1442.54,-173.546C1412.07,-152.54 1374.99,-126.435 1342.5,-102 1339.74,-99.9219 1336.92,-97.7729 1334.09,-95.5866"/>
<polygon fill="none" stroke="midnightblue" points="1440.73,-176.548 1450.96,-179.33 1444.7,-170.78 1440.73,-176.548"/>
</g>
<!-- Node12 -->
<g id="node13" class="node"><title>Node12</title>
<g id="a_node13"><a xlink:href="class_n_f_master_net___server_plugin.html" target="_top" xlink:title="{NFMasterNet_ServerPlugin\n||+ NFMasterNet_ServerPlugin()\l+ GetPluginVersion()\l+ GetPluginName()\l+ Install()\l+ Uninstall()\l}">
<polygon fill="white" stroke="black" points="1352,-0.5 1352,-101.5 1501,-101.5 1501,-0.5 1352,-0.5"/>
<text text-anchor="middle" x="1426.5" y="-89.5" font-family="Helvetica,sans-Serif" font-size="10.00">NFMasterNet_ServerPlugin</text>
<polyline fill="none" stroke="black" points="1352,-82.5 1501,-82.5 "/>
<text text-anchor="middle" x="1426.5" y="-70.5" font-family="Helvetica,sans-Serif" font-size="10.00"> </text>
<polyline fill="none" stroke="black" points="1352,-63.5 1501,-63.5 "/>
<text text-anchor="start" x="1360" y="-51.5" font-family="Helvetica,sans-Serif" font-size="10.00">+ NFMasterNet_ServerPlugin()</text>
<text text-anchor="start" x="1360" y="-40.5" font-family="Helvetica,sans-Serif" font-size="10.00">+ GetPluginVersion()</text>
<text text-anchor="start" x="1360" y="-29.5" font-family="Helvetica,sans-Serif" font-size="10.00">+ GetPluginName()</text>
<text text-anchor="start" x="1360" y="-18.5" font-family="Helvetica,sans-Serif" font-size="10.00">+ Install()</text>
<text text-anchor="start" x="1360" y="-7.5" font-family="Helvetica,sans-Serif" font-size="10.00">+ Uninstall()</text>
</a>
</g>
</g>
<!-- Node0&#45;&gt;Node12 -->
<g id="edge12" class="edge"><title>Node0&#45;&gt;Node12</title>
<path fill="none" stroke="midnightblue" d="M1463.12,-128.767C1458.69,-119.485 1454.31,-110.289 1450.19,-101.661"/>
<polygon fill="none" stroke="midnightblue" points="1460.09,-130.541 1467.56,-138.059 1466.41,-127.527 1460.09,-130.541"/>
</g>
<!-- Node13 -->
<g id="node14" class="node"><title>Node13</title>
<g id="a_node14"><a xlink:href="class_n_f_master_server_plugin.html" target="_top" xlink:title="{NFMasterServerPlugin\n||+ NFMasterServerPlugin()\l+ GetPluginVersion()\l+ GetPluginName()\l+ Install()\l+ Uninstall()\l}">
<polygon fill="white" stroke="black" points="1519.5,-0.5 1519.5,-101.5 1647.5,-101.5 1647.5,-0.5 1519.5,-0.5"/>
<text text-anchor="middle" x="1583.5" y="-89.5" font-family="Helvetica,sans-Serif" font-size="10.00">NFMasterServerPlugin</text>
<polyline fill="none" stroke="black" points="1519.5,-82.5 1647.5,-82.5 "/>
<text text-anchor="middle" x="1583.5" y="-70.5" font-family="Helvetica,sans-Serif" font-size="10.00"> </text>
<polyline fill="none" stroke="black" points="1519.5,-63.5 1647.5,-63.5 "/>
<text text-anchor="start" x="1527.5" y="-51.5" font-family="Helvetica,sans-Serif" font-size="10.00">+ NFMasterServerPlugin()</text>
<text text-anchor="start" x="1527.5" y="-40.5" font-family="Helvetica,sans-Serif" font-size="10.00">+ GetPluginVersion()</text>
<text text-anchor="start" x="1527.5" y="-29.5" font-family="Helvetica,sans-Serif" font-size="10.00">+ GetPluginName()</text>
<text text-anchor="start" x="1527.5" y="-18.5" font-family="Helvetica,sans-Serif" font-size="10.00">+ Install()</text>
<text text-anchor="start" x="1527.5" y="-7.5" font-family="Helvetica,sans-Serif" font-size="10.00">+ Uninstall()</text>
</a>
</g>
</g>
<!-- Node0&#45;&gt;Node13 -->
<g id="edge13" class="edge"><title>Node0&#45;&gt;Node13</title>
<path fill="none" stroke="midnightblue" d="M1546.41,-128.767C1550.89,-119.485 1555.34,-110.289 1559.51,-101.661"/>
<polygon fill="none" stroke="midnightblue" points="1543.12,-127.533 1541.92,-138.059 1549.42,-130.578 1543.12,-127.533"/>
</g>
<!-- Node14 -->
<g id="node15" class="node"><title>Node14</title>
<g id="a_node15"><a xlink:href="class_n_f_proxy_logic_plugin.html" target="_top" xlink:title="{NFProxyLogicPlugin\n||+ NFProxyLogicPlugin()\l+ GetPluginVersion()\l+ GetPluginName()\l+ Install()\l+ Uninstall()\l}">
<polygon fill="white" stroke="black" points="1665.5,-0.5 1665.5,-101.5 1785.5,-101.5 1785.5,-0.5 1665.5,-0.5"/>
<text text-anchor="middle" x="1725.5" y="-89.5" font-family="Helvetica,sans-Serif" font-size="10.00">NFProxyLogicPlugin</text>
<polyline fill="none" stroke="black" points="1665.5,-82.5 1785.5,-82.5 "/>
<text text-anchor="middle" x="1725.5" y="-70.5" font-family="Helvetica,sans-Serif" font-size="10.00"> </text>
<polyline fill="none" stroke="black" points="1665.5,-63.5 1785.5,-63.5 "/>
<text text-anchor="start" x="1673.5" y="-51.5" font-family="Helvetica,sans-Serif" font-size="10.00">+ NFProxyLogicPlugin()</text>
<text text-anchor="start" x="1673.5" y="-40.5" font-family="Helvetica,sans-Serif" font-size="10.00">+ GetPluginVersion()</text>
<text text-anchor="start" x="1673.5" y="-29.5" font-family="Helvetica,sans-Serif" font-size="10.00">+ GetPluginName()</text>
<text text-anchor="start" x="1673.5" y="-18.5" font-family="Helvetica,sans-Serif" font-size="10.00">+ Install()</text>
<text text-anchor="start" x="1673.5" y="-7.5" font-family="Helvetica,sans-Serif" font-size="10.00">+ Uninstall()</text>
</a>
</g>
</g>
<!-- Node0&#45;&gt;Node14 -->
<g id="edge14" class="edge"><title>Node0&#45;&gt;Node14</title>
<path fill="none" stroke="midnightblue" d="M1566.41,-169.701C1597.31,-146.835 1634.56,-119.282 1665.24,-96.5847"/>
<polygon fill="none" stroke="midnightblue" points="1564.24,-166.951 1558.28,-175.712 1568.4,-172.579 1564.24,-166.951"/>
</g>
<!-- Node15 -->
<g id="node16" class="node"><title>Node15</title>
<g id="a_node16"><a xlink:href="class_n_f_proxy_server_net___client_plugin.html" target="_top" xlink:title="{NFProxyServerNet_ClientPlugin\n||+ NFProxyServerNet_ClientPlugin()\l+ GetPluginVersion()\l+ GetPluginName()\l+ Install()\l+ Uninstall()\l}">
<polygon fill="white" stroke="black" points="1804,-0.5 1804,-101.5 1973,-101.5 1973,-0.5 1804,-0.5"/>
<text text-anchor="middle" x="1888.5" y="-89.5" font-family="Helvetica,sans-Serif" font-size="10.00">NFProxyServerNet_ClientPlugin</text>
<polyline fill="none" stroke="black" points="1804,-82.5 1973,-82.5 "/>
<text text-anchor="middle" x="1888.5" y="-70.5" font-family="Helvetica,sans-Serif" font-size="10.00"> </text>
<polyline fill="none" stroke="black" points="1804,-63.5 1973,-63.5 "/>
<text text-anchor="start" x="1812" y="-51.5" font-family="Helvetica,sans-Serif" font-size="10.00">+ NFProxyServerNet_ClientPlugin()</text>
<text text-anchor="start" x="1812" y="-40.5" font-family="Helvetica,sans-Serif" font-size="10.00">+ GetPluginVersion()</text>
<text text-anchor="start" x="1812" y="-29.5" font-family="Helvetica,sans-Serif" font-size="10.00">+ GetPluginName()</text>
<text text-anchor="start" x="1812" y="-18.5" font-family="Helvetica,sans-Serif" font-size="10.00">+ Install()</text>
<text text-anchor="start" x="1812" y="-7.5" font-family="Helvetica,sans-Serif" font-size="10.00">+ Uninstall()</text>
</a>
</g>
</g>
<!-- Node0&#45;&gt;Node15 -->
<g id="edge15" class="edge"><title>Node0&#45;&gt;Node15</title>
<path fill="none" stroke="midnightblue" d="M1567.8,-193.13C1627.15,-171.596 1717.95,-137.194 1794.5,-102 1797.61,-100.571 1800.76,-99.0883 1803.92,-97.5659"/>
<polygon fill="none" stroke="midnightblue" points="1566.4,-189.913 1558.19,-196.605 1568.78,-196.496 1566.4,-189.913"/>
</g>
<!-- Node16 -->
<g id="node17" class="node"><title>Node16</title>
<g id="a_node17"><a xlink:href="class_n_f_proxy_server_net___server_plugin.html" target="_top" xlink:title="{NFProxyServerNet_ServerPlugin\n||+ NFProxyServerNet_ServerPlugin()\l+ GetPluginVersion()\l+ GetPluginName()\l+ Install()\l+ Uninstall()\l}">
<polygon fill="white" stroke="black" points="1991,-0.5 1991,-101.5 2162,-101.5 2162,-0.5 1991,-0.5"/>
<text text-anchor="middle" x="2076.5" y="-89.5" font-family="Helvetica,sans-Serif" font-size="10.00">NFProxyServerNet_ServerPlugin</text>
<polyline fill="none" stroke="black" points="1991,-82.5 2162,-82.5 "/>
<text text-anchor="middle" x="2076.5" y="-70.5" font-family="Helvetica,sans-Serif" font-size="10.00"> </text>
<polyline fill="none" stroke="black" points="1991,-63.5 2162,-63.5 "/>
<text text-anchor="start" x="1999" y="-51.5" font-family="Helvetica,sans-Serif" font-size="10.00">+ NFProxyServerNet_ServerPlugin()</text>
<text text-anchor="start" x="1999" y="-40.5" font-family="Helvetica,sans-Serif" font-size="10.00">+ GetPluginVersion()</text>
<text text-anchor="start" x="1999" y="-29.5" font-family="Helvetica,sans-Serif" font-size="10.00">+ GetPluginName()</text>
<text text-anchor="start" x="1999" y="-18.5" font-family="Helvetica,sans-Serif" font-size="10.00">+ Install()</text>
<text text-anchor="start" x="1999" y="-7.5" font-family="Helvetica,sans-Serif" font-size="10.00">+ Uninstall()</text>
</a>
</g>
</g>
<!-- Node0&#45;&gt;Node16 -->
<g id="edge16" class="edge"><title>Node0&#45;&gt;Node16</title>
<path fill="none" stroke="midnightblue" d="M1568.26,-205.706C1661.37,-190.219 1839.06,-156.155 1982.5,-102 1985.27,-100.955 1988.06,-99.8461 1990.85,-98.6842"/>
<polygon fill="none" stroke="midnightblue" points="1567.46,-202.292 1558.16,-207.369 1568.59,-209.199 1567.46,-202.292"/>
</g>
<!-- Node17 -->
<g id="node18" class="node"><title>Node17</title>
<g id="a_node18"><a xlink:href="class_n_f_world_logic_plugin.html" target="_top" xlink:title="{NFWorldLogicPlugin\n||+ NFWorldLogicPlugin()\l+ GetPluginVersion()\l+ GetPluginName()\l+ Install()\l+ Uninstall()\l}">
<polygon fill="white" stroke="black" points="2180.5,-0.5 2180.5,-101.5 2300.5,-101.5 2300.5,-0.5 2180.5,-0.5"/>
<text text-anchor="middle" x="2240.5" y="-89.5" font-family="Helvetica,sans-Serif" font-size="10.00">NFWorldLogicPlugin</text>
<polyline fill="none" stroke="black" points="2180.5,-82.5 2300.5,-82.5 "/>
<text text-anchor="middle" x="2240.5" y="-70.5" font-family="Helvetica,sans-Serif" font-size="10.00"> </text>
<polyline fill="none" stroke="black" points="2180.5,-63.5 2300.5,-63.5 "/>
<text text-anchor="start" x="2188.5" y="-51.5" font-family="Helvetica,sans-Serif" font-size="10.00">+ NFWorldLogicPlugin()</text>
<text text-anchor="start" x="2188.5" y="-40.5" font-family="Helvetica,sans-Serif" font-size="10.00">+ GetPluginVersion()</text>
<text text-anchor="start" x="2188.5" y="-29.5" font-family="Helvetica,sans-Serif" font-size="10.00">+ GetPluginName()</text>
<text text-anchor="start" x="2188.5" y="-18.5" font-family="Helvetica,sans-Serif" font-size="10.00">+ Install()</text>
<text text-anchor="start" x="2188.5" y="-7.5" font-family="Helvetica,sans-Serif" font-size="10.00">+ Uninstall()</text>
</a>
</g>
</g>
<!-- Node0&#45;&gt;Node17 -->
<g id="edge17" class="edge"><title>Node0&#45;&gt;Node17</title>
<path fill="none" stroke="midnightblue" d="M1568.52,-214.193C1690.56,-209.662 1962.89,-189.659 2171.5,-102 2174.5,-100.739 2177.49,-99.3258 2180.46,-97.7954"/>
<polygon fill="none" stroke="midnightblue" points="1568.11,-210.705 1558.24,-214.551 1568.36,-217.701 1568.11,-210.705"/>
</g>
<!-- Node18 -->
<g id="node19" class="node"><title>Node18</title>
<g id="a_node19"><a xlink:href="class_n_f_world_net___client_plugin.html" target="_top" xlink:title="{NFWorldNet_ClientPlugin\n||+ NFWorldNet_ClientPlugin()\l+ GetPluginVersion()\l+ GetPluginName()\l+ Install()\l+ Uninstall()\l}">
<polygon fill="white" stroke="black" points="2318.5,-0.5 2318.5,-101.5 2460.5,-101.5 2460.5,-0.5 2318.5,-0.5"/>
<text text-anchor="middle" x="2389.5" y="-89.5" font-family="Helvetica,sans-Serif" font-size="10.00">NFWorldNet_ClientPlugin</text>
<polyline fill="none" stroke="black" points="2318.5,-82.5 2460.5,-82.5 "/>
<text text-anchor="middle" x="2389.5" y="-70.5" font-family="Helvetica,sans-Serif" font-size="10.00"> </text>
<polyline fill="none" stroke="black" points="2318.5,-63.5 2460.5,-63.5 "/>
<text text-anchor="start" x="2326.5" y="-51.5" font-family="Helvetica,sans-Serif" font-size="10.00">+ NFWorldNet_ClientPlugin()</text>
<text text-anchor="start" x="2326.5" y="-40.5" font-family="Helvetica,sans-Serif" font-size="10.00">+ GetPluginVersion()</text>
<text text-anchor="start" x="2326.5" y="-29.5" font-family="Helvetica,sans-Serif" font-size="10.00">+ GetPluginName()</text>
<text text-anchor="start" x="2326.5" y="-18.5" font-family="Helvetica,sans-Serif" font-size="10.00">+ Install()</text>
<text text-anchor="start" x="2326.5" y="-7.5" font-family="Helvetica,sans-Serif" font-size="10.00">+ Uninstall()</text>
</a>
</g>
</g>
<!-- Node0&#45;&gt;Node18 -->
<g id="edge18" class="edge"><title>Node0&#45;&gt;Node18</title>
<path fill="none" stroke="midnightblue" d="M1568.18,-215.408C1707.15,-213.321 2046.22,-197.907 2309.5,-102 2312.42,-100.935 2315.35,-99.7524 2318.27,-98.476"/>
<polygon fill="none" stroke="midnightblue" points="1568.08,-211.909 1558.13,-215.541 1568.18,-218.909 1568.08,-211.909"/>
</g>
<!-- Node19 -->
<g id="node20" class="node"><title>Node19</title>
<g id="a_node20"><a xlink:href="class_n_f_world_net___server_plugin.html" target="_top" xlink:title="{NFWorldNet_ServerPlugin\n||+ NFWorldNet_ServerPlugin()\l+ GetPluginVersion()\l+ GetPluginName()\l+ Install()\l+ Uninstall()\l}">
<polygon fill="white" stroke="black" points="2478.5,-0.5 2478.5,-101.5 2622.5,-101.5 2622.5,-0.5 2478.5,-0.5"/>
<text text-anchor="middle" x="2550.5" y="-89.5" font-family="Helvetica,sans-Serif" font-size="10.00">NFWorldNet_ServerPlugin</text>
<polyline fill="none" stroke="black" points="2478.5,-82.5 2622.5,-82.5 "/>
<text text-anchor="middle" x="2550.5" y="-70.5" font-family="Helvetica,sans-Serif" font-size="10.00"> </text>
<polyline fill="none" stroke="black" points="2478.5,-63.5 2622.5,-63.5 "/>
<text text-anchor="start" x="2486.5" y="-51.5" font-family="Helvetica,sans-Serif" font-size="10.00">+ NFWorldNet_ServerPlugin()</text>
<text text-anchor="start" x="2486.5" y="-40.5" font-family="Helvetica,sans-Serif" font-size="10.00">+ GetPluginVersion()</text>
<text text-anchor="start" x="2486.5" y="-29.5" font-family="Helvetica,sans-Serif" font-size="10.00">+ GetPluginName()</text>
<text text-anchor="start" x="2486.5" y="-18.5" font-family="Helvetica,sans-Serif" font-size="10.00">+ Install()</text>
<text text-anchor="start" x="2486.5" y="-7.5" font-family="Helvetica,sans-Serif" font-size="10.00">+ Uninstall()</text>
</a>
</g>
</g>
<!-- Node0&#45;&gt;Node19 -->
<g id="edge19" class="edge"><title>Node0&#45;&gt;Node19</title>
<path fill="none" stroke="midnightblue" d="M1568.52,-211.596C1756.07,-199.591 2301.62,-160.454 2469.5,-102 2472.47,-100.968 2475.44,-99.8129 2478.4,-98.5599"/>
<polygon fill="none" stroke="midnightblue" points="1568.02,-208.12 1558.27,-212.248 1568.47,-215.106 1568.02,-208.12"/>
</g>
<!-- Node20 -->
<g id="node21" class="node"><title>Node20</title>
<g id="a_node21"><a xlink:href="class_tutorial1.html" target="_top" xlink:title="{Tutorial1\n||+ Tutorial1()\l+ GetPluginVersion()\l+ GetPluginName()\l+ Install()\l+ Uninstall()\l}">
<polygon fill="white" stroke="black" points="2641,-0.5 2641,-101.5 2748,-101.5 2748,-0.5 2641,-0.5"/>
<text text-anchor="middle" x="2694.5" y="-89.5" font-family="Helvetica,sans-Serif" font-size="10.00">Tutorial1</text>
<polyline fill="none" stroke="black" points="2641,-82.5 2748,-82.5 "/>
<text text-anchor="middle" x="2694.5" y="-70.5" font-family="Helvetica,sans-Serif" font-size="10.00"> </text>
<polyline fill="none" stroke="black" points="2641,-63.5 2748,-63.5 "/>
<text text-anchor="start" x="2649" y="-51.5" font-family="Helvetica,sans-Serif" font-size="10.00">+ Tutorial1()</text>
<text text-anchor="start" x="2649" y="-40.5" font-family="Helvetica,sans-Serif" font-size="10.00">+ GetPluginVersion()</text>
<text text-anchor="start" x="2649" y="-29.5" font-family="Helvetica,sans-Serif" font-size="10.00">+ GetPluginName()</text>
<text text-anchor="start" x="2649" y="-18.5" font-family="Helvetica,sans-Serif" font-size="10.00">+ Install()</text>
<text text-anchor="start" x="2649" y="-7.5" font-family="Helvetica,sans-Serif" font-size="10.00">+ Uninstall()</text>
</a>
</g>
</g>
<!-- Node0&#45;&gt;Node20 -->
<g id="edge20" class="edge"><title>Node0&#45;&gt;Node20</title>
<path fill="none" stroke="midnightblue" d="M1568.33,-213.773C1776.9,-207.404 2436.08,-181.329 2631.5,-102 2634.61,-100.739 2637.68,-99.2759 2640.71,-97.6583"/>
<polygon fill="none" stroke="midnightblue" points="1568.05,-210.28 1558.16,-214.079 1568.26,-217.277 1568.05,-210.28"/>
</g>
<!-- Node21 -->
<g id="node22" class="node"><title>Node21</title>
<g id="a_node22"><a xlink:href="class_tutorial2.html" target="_top" xlink:title="{Tutorial2\n||+ Tutorial2()\l+ GetPluginVersion()\l+ GetPluginName()\l+ Install()\l+ Uninstall()\l}">
<polygon fill="white" stroke="black" points="2766,-0.5 2766,-101.5 2873,-101.5 2873,-0.5 2766,-0.5"/>
<text text-anchor="middle" x="2819.5" y="-89.5" font-family="Helvetica,sans-Serif" font-size="10.00">Tutorial2</text>
<polyline fill="none" stroke="black" points="2766,-82.5 2873,-82.5 "/>
<text text-anchor="middle" x="2819.5" y="-70.5" font-family="Helvetica,sans-Serif" font-size="10.00"> </text>
<polyline fill="none" stroke="black" points="2766,-63.5 2873,-63.5 "/>
<text text-anchor="start" x="2774" y="-51.5" font-family="Helvetica,sans-Serif" font-size="10.00">+ Tutorial2()</text>
<text text-anchor="start" x="2774" y="-40.5" font-family="Helvetica,sans-Serif" font-size="10.00">+ GetPluginVersion()</text>
<text text-anchor="start" x="2774" y="-29.5" font-family="Helvetica,sans-Serif" font-size="10.00">+ GetPluginName()</text>
<text text-anchor="start" x="2774" y="-18.5" font-family="Helvetica,sans-Serif" font-size="10.00">+ Install()</text>
<text text-anchor="start" x="2774" y="-7.5" font-family="Helvetica,sans-Serif" font-size="10.00">+ Uninstall()</text>
</a>
</g>
</g>
<!-- Node0&#45;&gt;Node21 -->
<g id="edge21" class="edge"><title>Node0&#45;&gt;Node21</title>
<path fill="none" stroke="midnightblue" d="M1568.56,-214.572C1792.42,-210.58 2538.13,-190.766 2757.5,-102 2760.32,-100.859 2763.11,-99.5447 2765.86,-98.0955"/>
<polygon fill="none" stroke="midnightblue" points="1568.23,-211.077 1558.29,-214.75 1568.35,-218.076 1568.23,-211.077"/>
</g>
<!-- Node22 -->
<g id="node23" class="node"><title>Node22</title>
<g id="a_node23"><a xlink:href="class_tutorial3_plugin.html" target="_top" xlink:title="{Tutorial3Plugin\n||+ Tutorial3Plugin()\l+ GetPluginVersion()\l+ GetPluginName()\l+ Install()\l+ Uninstall()\l}">
<polygon fill="white" stroke="black" points="2891,-0.5 2891,-101.5 2998,-101.5 2998,-0.5 2891,-0.5"/>
<text text-anchor="middle" x="2944.5" y="-89.5" font-family="Helvetica,sans-Serif" font-size="10.00">Tutorial3Plugin</text>
<polyline fill="none" stroke="black" points="2891,-82.5 2998,-82.5 "/>
<text text-anchor="middle" x="2944.5" y="-70.5" font-family="Helvetica,sans-Serif" font-size="10.00"> </text>
<polyline fill="none" stroke="black" points="2891,-63.5 2998,-63.5 "/>
<text text-anchor="start" x="2899" y="-51.5" font-family="Helvetica,sans-Serif" font-size="10.00">+ Tutorial3Plugin()</text>
<text text-anchor="start" x="2899" y="-40.5" font-family="Helvetica,sans-Serif" font-size="10.00">+ GetPluginVersion()</text>
<text text-anchor="start" x="2899" y="-29.5" font-family="Helvetica,sans-Serif" font-size="10.00">+ GetPluginName()</text>
<text text-anchor="start" x="2899" y="-18.5" font-family="Helvetica,sans-Serif" font-size="10.00">+ Install()</text>
<text text-anchor="start" x="2899" y="-7.5" font-family="Helvetica,sans-Serif" font-size="10.00">+ Uninstall()</text>
</a>
</g>
</g>
<!-- Node0&#45;&gt;Node22 -->
<g id="edge22" class="edge"><title>Node0&#45;&gt;Node22</title>
<path fill="none" stroke="midnightblue" d="M1568.46,-215.179C1806.35,-213.228 2638.86,-199.432 2882.5,-102 2885.32,-100.87 2888.12,-99.5657 2890.88,-98.1243"/>
<polygon fill="none" stroke="midnightblue" points="1568.22,-211.681 1558.25,-215.258 1568.28,-218.68 1568.22,-211.681"/>
</g>
<!-- Node1 -->
<g id="node2" class="node"><title>Node1</title>
<g id="a_node2"><a xlink:href="class_n_f_i_module.html" target="_top" xlink:title="{NFIModule\n|+ strName\l# pPluginManager\l# mbReloading\l|+ NFIModule()\l+ ~NFIModule()\l+ Init()\l+ AfterInit()\l+ CheckConfig()\l+ BeforeShut()\l+ Shut()\l+ Execute()\l+ StartReLoadState()\l+ EndReLoadState()\l+ GetPluginManager()\l+ Loading()\l}">
<polygon fill="white" stroke="black" points="1385.5,-331.5 1385.5,-531.5 1497.5,-531.5 1497.5,-331.5 1385.5,-331.5"/>
<text text-anchor="middle" x="1441.5" y="-519.5" font-family="Helvetica,sans-Serif" font-size="10.00">NFIModule</text>
<polyline fill="none" stroke="black" points="1385.5,-512.5 1497.5,-512.5 "/>
<text text-anchor="start" x="1393.5" y="-500.5" font-family="Helvetica,sans-Serif" font-size="10.00">+ strName</text>
<text text-anchor="start" x="1393.5" y="-489.5" font-family="Helvetica,sans-Serif" font-size="10.00"># pPluginManager</text>
<text text-anchor="start" x="1393.5" y="-478.5" font-family="Helvetica,sans-Serif" font-size="10.00"># mbReloading</text>
<polyline fill="none" stroke="black" points="1385.5,-471.5 1497.5,-471.5 "/>
<text text-anchor="start" x="1393.5" y="-459.5" font-family="Helvetica,sans-Serif" font-size="10.00">+ NFIModule()</text>
<text text-anchor="start" x="1393.5" y="-448.5" font-family="Helvetica,sans-Serif" font-size="10.00">+ ~NFIModule()</text>
<text text-anchor="start" x="1393.5" y="-437.5" font-family="Helvetica,sans-Serif" font-size="10.00">+ Init()</text>
<text text-anchor="start" x="1393.5" y="-426.5" font-family="Helvetica,sans-Serif" font-size="10.00">+ AfterInit()</text>
<text text-anchor="start" x="1393.5" y="-415.5" font-family="Helvetica,sans-Serif" font-size="10.00">+ CheckConfig()</text>
<text text-anchor="start" x="1393.5" y="-404.5" font-family="Helvetica,sans-Serif" font-size="10.00">+ BeforeShut()</text>
<text text-anchor="start" x="1393.5" y="-393.5" font-family="Helvetica,sans-Serif" font-size="10.00">+ Shut()</text>
<text text-anchor="start" x="1393.5" y="-382.5" font-family="Helvetica,sans-Serif" font-size="10.00">+ Execute()</text>
<text text-anchor="start" x="1393.5" y="-371.5" font-family="Helvetica,sans-Serif" font-size="10.00">+ StartReLoadState()</text>
<text text-anchor="start" x="1393.5" y="-360.5" font-family="Helvetica,sans-Serif" font-size="10.00">+ EndReLoadState()</text>
<text text-anchor="start" x="1393.5" y="-349.5" font-family="Helvetica,sans-Serif" font-size="10.00">+ GetPluginManager()</text>
<text text-anchor="start" x="1393.5" y="-338.5" font-family="Helvetica,sans-Serif" font-size="10.00">+ Loading()</text>
</a>
</g>
</g>
<!-- Node1&#45;&gt;Node0 -->
<g id="edge1" class="edge"><title>Node1&#45;&gt;Node0</title>
<path fill="none" stroke="midnightblue" d="M1473.62,-321.888C1476.35,-312.678 1479.07,-303.488 1481.7,-294.595"/>
<polygon fill="none" stroke="midnightblue" points="1470.27,-320.901 1470.79,-331.483 1476.98,-322.886 1470.27,-320.901"/>
</g>
<!-- Node2 -->
<g id="node3" class="node"><title>Node2</title>
<g id="a_node3"><a xlink:href="class_n_f_map.html" target="_top" xlink:title="{NFMap\&lt; std::string,\l NFIModule \&gt;\n|&#45; mObjectList\l&#45; mObjectCurIter\l|+ NFMap()\l+ ~NFMap()\l+ AddElement()\l+ RemoveElement()\l+ GetElement()\l+ First()\l+ First()\l+ Next()\l+ Next()\l+ Count()\l+ ClearAll()\l}">
<polygon fill="white" stroke="black" points="1515.5,-337 1515.5,-526 1619.5,-526 1619.5,-337 1515.5,-337"/>
<text text-anchor="start" x="1523.5" y="-514" font-family="Helvetica,sans-Serif" font-size="10.00">NFMap&lt; std::string,</text>
<text text-anchor="middle" x="1567.5" y="-503" font-family="Helvetica,sans-Serif" font-size="10.00"> NFIModule &gt;</text>
<polyline fill="none" stroke="black" points="1515.5,-496 1619.5,-496 "/>
<text text-anchor="start" x="1523.5" y="-484" font-family="Helvetica,sans-Serif" font-size="10.00">&#45; mObjectList</text>
<text text-anchor="start" x="1523.5" y="-473" font-family="Helvetica,sans-Serif" font-size="10.00">&#45; mObjectCurIter</text>
<polyline fill="none" stroke="black" points="1515.5,-466 1619.5,-466 "/>
<text text-anchor="start" x="1523.5" y="-454" font-family="Helvetica,sans-Serif" font-size="10.00">+ NFMap()</text>
<text text-anchor="start" x="1523.5" y="-443" font-family="Helvetica,sans-Serif" font-size="10.00">+ ~NFMap()</text>
<text text-anchor="start" x="1523.5" y="-432" font-family="Helvetica,sans-Serif" font-size="10.00">+ AddElement()</text>
<text text-anchor="start" x="1523.5" y="-421" font-family="Helvetica,sans-Serif" font-size="10.00">+ RemoveElement()</text>
<text text-anchor="start" x="1523.5" y="-410" font-family="Helvetica,sans-Serif" font-size="10.00">+ GetElement()</text>
<text text-anchor="start" x="1523.5" y="-399" font-family="Helvetica,sans-Serif" font-size="10.00">+ First()</text>
<text text-anchor="start" x="1523.5" y="-388" font-family="Helvetica,sans-Serif" font-size="10.00">+ First()</text>
<text text-anchor="start" x="1523.5" y="-377" font-family="Helvetica,sans-Serif" font-size="10.00">+ Next()</text>
<text text-anchor="start" x="1523.5" y="-366" font-family="Helvetica,sans-Serif" font-size="10.00">+ Next()</text>
<text text-anchor="start" x="1523.5" y="-355" font-family="Helvetica,sans-Serif" font-size="10.00">+ Count()</text>
<text text-anchor="start" x="1523.5" y="-344" font-family="Helvetica,sans-Serif" font-size="10.00">+ ClearAll()</text>
</a>
</g>
</g>
<!-- Node2&#45;&gt;Node0 -->
<g id="edge2" class="edge"><title>Node2&#45;&gt;Node0</title>
<path fill="none" stroke="midnightblue" d="M1536.94,-327.172C1533.7,-316.229 1530.45,-305.242 1527.33,-294.672"/>
<polygon fill="none" stroke="midnightblue" points="1533.58,-328.169 1539.78,-336.765 1540.3,-326.183 1533.58,-328.169"/>
</g>
</g>
</svg>
