<?xml version="1.0" encoding="UTF-8" standalone="no"?>
<!DOCTYPE svg PUBLIC "-//W3C//DTD SVG 1.1//EN"
 "http://www.w3.org/Graphics/SVG/1.1/DTD/svg11.dtd">
<!-- Generated by graphviz version 2.38.0 (20140413.2041)
 -->
<!-- Title: NFCLoginNet_ServerModule Pages: 1 -->
<svg width="1603pt" height="859pt"
 viewBox="0.00 0.00 1603.00 859.00" xmlns="http://www.w3.org/2000/svg" xmlns:xlink="http://www.w3.org/1999/xlink">
<g id="graph0" class="graph" transform="scale(1 1) rotate(0) translate(4 855)">
<title>NFCLoginNet_ServerModule</title>
<polygon fill="white" stroke="none" points="-4,4 -4,-855 1599,-855 1599,4 -4,4"/>
<!-- Node3 -->
<g id="node1" class="node"><title>Node3</title>
<polygon fill="#bfbfbf" stroke="black" points="678,-0.5 678,-255.5 845,-255.5 845,-0.5 678,-0.5"/>
<text text-anchor="middle" x="761.5" y="-243.5" font-family="Helvetica,sans-Serif" font-size="10.00">NFCLoginNet_ServerModule</text>
<polyline fill="none" stroke="black" points="678,-236.5 845,-236.5 "/>
<text text-anchor="middle" x="761.5" y="-224.5" font-family="Helvetica,sans-Serif" font-size="10.00"> </text>
<polyline fill="none" stroke="black" points="678,-217.5 845,-217.5 "/>
<text text-anchor="start" x="686" y="-205.5" font-family="Helvetica,sans-Serif" font-size="10.00">+ NFCLoginNet_ServerModule()</text>
<text text-anchor="start" x="686" y="-194.5" font-family="Helvetica,sans-Serif" font-size="10.00">+ Init()</text>
<text text-anchor="start" x="686" y="-183.5" font-family="Helvetica,sans-Serif" font-size="10.00">+ Shut()</text>
<text text-anchor="start" x="686" y="-172.5" font-family="Helvetica,sans-Serif" font-size="10.00">+ Execute()</text>
<text text-anchor="start" x="686" y="-161.5" font-family="Helvetica,sans-Serif" font-size="10.00">+ BeforeShut()</text>
<text text-anchor="start" x="686" y="-150.5" font-family="Helvetica,sans-Serif" font-size="10.00">+ AfterInit()</text>
<text text-anchor="start" x="686" y="-139.5" font-family="Helvetica,sans-Serif" font-size="10.00">+ LogReceive()</text>
<text text-anchor="start" x="686" y="-128.5" font-family="Helvetica,sans-Serif" font-size="10.00">+ LogSend()</text>
<text text-anchor="start" x="686" y="-117.5" font-family="Helvetica,sans-Serif" font-size="10.00">+ OnSelectWorldResultsProcess()</text>
<text text-anchor="start" x="686" y="-106.5" font-family="Helvetica,sans-Serif" font-size="10.00"># OnSocketClientEvent()</text>
<text text-anchor="start" x="686" y="-95.5" font-family="Helvetica,sans-Serif" font-size="10.00"># OnClientDisconnect()</text>
<text text-anchor="start" x="686" y="-84.5" font-family="Helvetica,sans-Serif" font-size="10.00"># OnClientConnected()</text>
<text text-anchor="start" x="686" y="-73.5" font-family="Helvetica,sans-Serif" font-size="10.00"># OnLoginProcess()</text>
<text text-anchor="start" x="686" y="-62.5" font-family="Helvetica,sans-Serif" font-size="10.00"># OnSelectWorldProcess()</text>
<text text-anchor="start" x="686" y="-51.5" font-family="Helvetica,sans-Serif" font-size="10.00"># OnViewWorldProcess()</text>
<text text-anchor="start" x="686" y="-40.5" font-family="Helvetica,sans-Serif" font-size="10.00"># OnHeartBeat()</text>
<text text-anchor="start" x="686" y="-29.5" font-family="Helvetica,sans-Serif" font-size="10.00"># OnLogOut()</text>
<text text-anchor="start" x="686" y="-18.5" font-family="Helvetica,sans-Serif" font-size="10.00"># InvalidMessage()</text>
<text text-anchor="start" x="686" y="-7.5" font-family="Helvetica,sans-Serif" font-size="10.00"># SynWorldToClient()</text>
</g>
<!-- Node4 -->
<g id="node2" class="node"><title>Node4</title>
<g id="a_node2"><a xlink:href="class_n_f_i_login_net___server_module.html" target="_top" xlink:title="{NFILoginNet_ServerModule\n||+ OnSelectWorldResultsProcess()\l}">
<polygon fill="white" stroke="black" points="1428,-430 1428,-487 1595,-487 1595,-430 1428,-430"/>
<text text-anchor="middle" x="1511.5" y="-475" font-family="Helvetica,sans-Serif" font-size="10.00">NFILoginNet_ServerModule</text>
<polyline fill="none" stroke="black" points="1428,-468 1595,-468 "/>
<text text-anchor="middle" x="1511.5" y="-456" font-family="Helvetica,sans-Serif" font-size="10.00"> </text>
<polyline fill="none" stroke="black" points="1428,-449 1595,-449 "/>
<text text-anchor="start" x="1436" y="-437" font-family="Helvetica,sans-Serif" font-size="10.00">+ OnSelectWorldResultsProcess()</text>
</a>
</g>
</g>
<!-- Node4&#45;&gt;Node3 -->
<g id="edge1" class="edge"><title>Node4&#45;&gt;Node3</title>
<path fill="none" stroke="midnightblue" d="M1498.06,-420.595C1483.53,-385.616 1457.14,-333.951 1418.5,-303 1247.9,-166.347 980.167,-136.353 845.215,-130.212"/>
<polygon fill="none" stroke="midnightblue" points="1494.86,-422.019 1501.84,-429.987 1501.35,-419.404 1494.86,-422.019"/>
</g>
<!-- Node5 -->
<g id="node3" class="node"><title>Node5</title>
<g id="a_node3"><a xlink:href="class_n_f_i_module.html" target="_top" xlink:title="{NFIModule\n|+ strName\l# mbReloading\l|+ NFIModule()\l+ ~NFIModule()\l+ Init()\l+ AfterInit()\l+ CheckConfig()\l+ BeforeShut()\l+ Shut()\l+ Execute()\l+ StartReLoadState()\l+ EndReLoadState()\l+ GetPluginManager()\l+ Loading()\l}">
<polygon fill="white" stroke="black" points="810.5,-661.5 810.5,-850.5 922.5,-850.5 922.5,-661.5 810.5,-661.5"/>
<text text-anchor="middle" x="866.5" y="-838.5" font-family="Helvetica,sans-Serif" font-size="10.00">NFIModule</text>
<polyline fill="none" stroke="black" points="810.5,-831.5 922.5,-831.5 "/>
<text text-anchor="start" x="818.5" y="-819.5" font-family="Helvetica,sans-Serif" font-size="10.00">+ strName</text>
<text text-anchor="start" x="818.5" y="-808.5" font-family="Helvetica,sans-Serif" font-size="10.00"># mbReloading</text>
<polyline fill="none" stroke="black" points="810.5,-801.5 922.5,-801.5 "/>
<text text-anchor="start" x="818.5" y="-789.5" font-family="Helvetica,sans-Serif" font-size="10.00">+ NFIModule()</text>
<text text-anchor="start" x="818.5" y="-778.5" font-family="Helvetica,sans-Serif" font-size="10.00">+ ~NFIModule()</text>
<text text-anchor="start" x="818.5" y="-767.5" font-family="Helvetica,sans-Serif" font-size="10.00">+ Init()</text>
<text text-anchor="start" x="818.5" y="-756.5" font-family="Helvetica,sans-Serif" font-size="10.00">+ AfterInit()</text>
<text text-anchor="start" x="818.5" y="-745.5" font-family="Helvetica,sans-Serif" font-size="10.00">+ CheckConfig()</text>
<text text-anchor="start" x="818.5" y="-734.5" font-family="Helvetica,sans-Serif" font-size="10.00">+ BeforeShut()</text>
<text text-anchor="start" x="818.5" y="-723.5" font-family="Helvetica,sans-Serif" font-size="10.00">+ Shut()</text>
<text text-anchor="start" x="818.5" y="-712.5" font-family="Helvetica,sans-Serif" font-size="10.00">+ Execute()</text>
<text text-anchor="start" x="818.5" y="-701.5" font-family="Helvetica,sans-Serif" font-size="10.00">+ StartReLoadState()</text>
<text text-anchor="start" x="818.5" y="-690.5" font-family="Helvetica,sans-Serif" font-size="10.00">+ EndReLoadState()</text>
<text text-anchor="start" x="818.5" y="-679.5" font-family="Helvetica,sans-Serif" font-size="10.00">+ GetPluginManager()</text>
<text text-anchor="start" x="818.5" y="-668.5" font-family="Helvetica,sans-Serif" font-size="10.00">+ Loading()</text>
</a>
</g>
</g>
<!-- Node5&#45;&gt;Node4 -->
<g id="edge2" class="edge"><title>Node5&#45;&gt;Node4</title>
<path fill="none" stroke="midnightblue" d="M932.478,-737.728C1024.62,-713.672 1197.13,-668.883 1344.5,-632 1377.34,-623.782 1391.23,-634.045 1418.5,-614 1462.27,-581.833 1489.43,-522.302 1502.39,-487.273"/>
<polygon fill="none" stroke="midnightblue" points="931.522,-734.36 922.731,-740.273 933.291,-741.133 931.522,-734.36"/>
</g>
<!-- Node6 -->
<g id="node4" class="node"><title>Node6</title>
<g id="a_node4"><a xlink:href="class_n_f_i_plugin_manager.html" target="_top" xlink:title="{NFIPluginManager\n||+ NFIPluginManager()\l+ FindModule()\l+ Registered()\l+ UnRegistered()\l+ FindPlugin()\l+ AddModule()\l+ RemoveModule()\l+ FindModule()\l+ AppID()\l+ GetInitTime()\l+ GetNowTime()\l+ GetConfigPath()\l+ SetConfigName()\l}">
<polygon fill="white" stroke="black" points="717,-364 717,-553 828,-553 828,-364 717,-364"/>
<text text-anchor="middle" x="772.5" y="-541" font-family="Helvetica,sans-Serif" font-size="10.00">NFIPluginManager</text>
<polyline fill="none" stroke="black" points="717,-534 828,-534 "/>
<text text-anchor="middle" x="772.5" y="-522" font-family="Helvetica,sans-Serif" font-size="10.00"> </text>
<polyline fill="none" stroke="black" points="717,-515 828,-515 "/>
<text text-anchor="start" x="725" y="-503" font-family="Helvetica,sans-Serif" font-size="10.00">+ NFIPluginManager()</text>
<text text-anchor="start" x="725" y="-492" font-family="Helvetica,sans-Serif" font-size="10.00">+ FindModule()</text>
<text text-anchor="start" x="725" y="-481" font-family="Helvetica,sans-Serif" font-size="10.00">+ Registered()</text>
<text text-anchor="start" x="725" y="-470" font-family="Helvetica,sans-Serif" font-size="10.00">+ UnRegistered()</text>
<text text-anchor="start" x="725" y="-459" font-family="Helvetica,sans-Serif" font-size="10.00">+ FindPlugin()</text>
<text text-anchor="start" x="725" y="-448" font-family="Helvetica,sans-Serif" font-size="10.00">+ AddModule()</text>
<text text-anchor="start" x="725" y="-437" font-family="Helvetica,sans-Serif" font-size="10.00">+ RemoveModule()</text>
<text text-anchor="start" x="725" y="-426" font-family="Helvetica,sans-Serif" font-size="10.00">+ FindModule()</text>
<text text-anchor="start" x="725" y="-415" font-family="Helvetica,sans-Serif" font-size="10.00">+ AppID()</text>
<text text-anchor="start" x="725" y="-404" font-family="Helvetica,sans-Serif" font-size="10.00">+ GetInitTime()</text>
<text text-anchor="start" x="725" y="-393" font-family="Helvetica,sans-Serif" font-size="10.00">+ GetNowTime()</text>
<text text-anchor="start" x="725" y="-382" font-family="Helvetica,sans-Serif" font-size="10.00">+ GetConfigPath()</text>
<text text-anchor="start" x="725" y="-371" font-family="Helvetica,sans-Serif" font-size="10.00">+ SetConfigName()</text>
</a>
</g>
</g>
<!-- Node5&#45;&gt;Node6 -->
<g id="edge4" class="edge"><title>Node5&#45;&gt;Node6</title>
<path fill="none" stroke="midnightblue" d="M859.467,-651.44C857.565,-644.737 855.267,-638.197 852.5,-632 848.136,-622.227 842.183,-623.071 836.5,-614 824.708,-595.178 814.249,-573.809 805.378,-553.095"/>
<polygon fill="none" stroke="midnightblue" points="856.13,-652.523 861.978,-661.358 862.916,-650.805 856.13,-652.523"/>
</g>
<!-- Node7 -->
<g id="node5" class="node"><title>Node7</title>
<g id="a_node5"><a xlink:href="class_n_f_i_kernel_module.html" target="_top" xlink:title="{NFIKernelModule\n||+ AddHeartBeat()\l+ FindHeartBeat()\l+ RemoveHeartBeat()\l+ AddRecordCallBack()\l+ AddPropertyCallBack()\l+ AddEventCallBack()\l+ AddClassCallBack()\l+ DoEvent()\l+ DoEvent()\l+ RegisterCommonClassEvent()\land 56 more...\l# AddEventCallBack()\l# AddClassCallBack()\l# RegisterCommonClassEvent()\l# RegisterCommonPropertyEvent()\l# RegisterCommonRecordEvent()\l}">
<polygon fill="white" stroke="black" points="846,-347.5 846,-569.5 1013,-569.5 1013,-347.5 846,-347.5"/>
<text text-anchor="middle" x="929.5" y="-557.5" font-family="Helvetica,sans-Serif" font-size="10.00">NFIKernelModule</text>
<polyline fill="none" stroke="black" points="846,-550.5 1013,-550.5 "/>
<text text-anchor="middle" x="929.5" y="-538.5" font-family="Helvetica,sans-Serif" font-size="10.00"> </text>
<polyline fill="none" stroke="black" points="846,-531.5 1013,-531.5 "/>
<text text-anchor="start" x="854" y="-519.5" font-family="Helvetica,sans-Serif" font-size="10.00">+ AddHeartBeat()</text>
<text text-anchor="start" x="854" y="-508.5" font-family="Helvetica,sans-Serif" font-size="10.00">+ FindHeartBeat()</text>
<text text-anchor="start" x="854" y="-497.5" font-family="Helvetica,sans-Serif" font-size="10.00">+ RemoveHeartBeat()</text>
<text text-anchor="start" x="854" y="-486.5" font-family="Helvetica,sans-Serif" font-size="10.00">+ AddRecordCallBack()</text>
<text text-anchor="start" x="854" y="-475.5" font-family="Helvetica,sans-Serif" font-size="10.00">+ AddPropertyCallBack()</text>
<text text-anchor="start" x="854" y="-464.5" font-family="Helvetica,sans-Serif" font-size="10.00">+ AddEventCallBack()</text>
<text text-anchor="start" x="854" y="-453.5" font-family="Helvetica,sans-Serif" font-size="10.00">+ AddClassCallBack()</text>
<text text-anchor="start" x="854" y="-442.5" font-family="Helvetica,sans-Serif" font-size="10.00">+ DoEvent()</text>
<text text-anchor="start" x="854" y="-431.5" font-family="Helvetica,sans-Serif" font-size="10.00">+ DoEvent()</text>
<text text-anchor="start" x="854" y="-420.5" font-family="Helvetica,sans-Serif" font-size="10.00">+ RegisterCommonClassEvent()</text>
<text text-anchor="start" x="854" y="-409.5" font-family="Helvetica,sans-Serif" font-size="10.00">and 56 more...</text>
<text text-anchor="start" x="854" y="-398.5" font-family="Helvetica,sans-Serif" font-size="10.00"># AddEventCallBack()</text>
<text text-anchor="start" x="854" y="-387.5" font-family="Helvetica,sans-Serif" font-size="10.00"># AddClassCallBack()</text>
<text text-anchor="start" x="854" y="-376.5" font-family="Helvetica,sans-Serif" font-size="10.00"># RegisterCommonClassEvent()</text>
<text text-anchor="start" x="854" y="-365.5" font-family="Helvetica,sans-Serif" font-size="10.00"># RegisterCommonPropertyEvent()</text>
<text text-anchor="start" x="854" y="-354.5" font-family="Helvetica,sans-Serif" font-size="10.00"># RegisterCommonRecordEvent()</text>
</a>
</g>
</g>
<!-- Node5&#45;&gt;Node7 -->
<g id="edge6" class="edge"><title>Node5&#45;&gt;Node7</title>
<path fill="none" stroke="midnightblue" d="M888.651,-651.101C894.271,-624.742 900.327,-596.334 906.011,-569.674"/>
<polygon fill="none" stroke="midnightblue" points="885.182,-650.586 886.52,-661.096 892.028,-652.046 885.182,-650.586"/>
</g>
<!-- Node9 -->
<g id="node7" class="node"><title>Node9</title>
<g id="a_node7"><a xlink:href="class_n_f_i_class_module.html" target="_top" xlink:title="{NFIClassModule\n||+ ~NFIClassModule()\l+ Load()\l+ Save()\l+ Clear()\l+ AddClassCallBack()\l+ DoEvent()\l+ AddClassCallBack()\l+ GetClassPropertyManager()\l+ GetClassRecordManager()\l+ GetClassComponentManager()\l}">
<polygon fill="white" stroke="black" points="0,-380.5 0,-536.5 159,-536.5 159,-380.5 0,-380.5"/>
<text text-anchor="middle" x="79.5" y="-524.5" font-family="Helvetica,sans-Serif" font-size="10.00">NFIClassModule</text>
<polyline fill="none" stroke="black" points="0,-517.5 159,-517.5 "/>
<text text-anchor="middle" x="79.5" y="-505.5" font-family="Helvetica,sans-Serif" font-size="10.00"> </text>
<polyline fill="none" stroke="black" points="0,-498.5 159,-498.5 "/>
<text text-anchor="start" x="8" y="-486.5" font-family="Helvetica,sans-Serif" font-size="10.00">+ ~NFIClassModule()</text>
<text text-anchor="start" x="8" y="-475.5" font-family="Helvetica,sans-Serif" font-size="10.00">+ Load()</text>
<text text-anchor="start" x="8" y="-464.5" font-family="Helvetica,sans-Serif" font-size="10.00">+ Save()</text>
<text text-anchor="start" x="8" y="-453.5" font-family="Helvetica,sans-Serif" font-size="10.00">+ Clear()</text>
<text text-anchor="start" x="8" y="-442.5" font-family="Helvetica,sans-Serif" font-size="10.00">+ AddClassCallBack()</text>
<text text-anchor="start" x="8" y="-431.5" font-family="Helvetica,sans-Serif" font-size="10.00">+ DoEvent()</text>
<text text-anchor="start" x="8" y="-420.5" font-family="Helvetica,sans-Serif" font-size="10.00">+ AddClassCallBack()</text>
<text text-anchor="start" x="8" y="-409.5" font-family="Helvetica,sans-Serif" font-size="10.00">+ GetClassPropertyManager()</text>
<text text-anchor="start" x="8" y="-398.5" font-family="Helvetica,sans-Serif" font-size="10.00">+ GetClassRecordManager()</text>
<text text-anchor="start" x="8" y="-387.5" font-family="Helvetica,sans-Serif" font-size="10.00">+ GetClassComponentManager()</text>
</a>
</g>
</g>
<!-- Node5&#45;&gt;Node9 -->
<g id="edge9" class="edge"><title>Node5&#45;&gt;Node9</title>
<path fill="none" stroke="midnightblue" d="M800.084,-748.63C645.853,-732.746 268.877,-687.303 167.5,-614 140.985,-594.827 121.34,-565.043 107.422,-536.723"/>
<polygon fill="none" stroke="midnightblue" points="800.053,-752.145 810.357,-749.678 800.764,-745.181 800.053,-752.145"/>
</g>
<!-- Node11 -->
<g id="node9" class="node"><title>Node11</title>
<g id="a_node9"><a xlink:href="class_n_f_i_element_module.html" target="_top" xlink:title="{NFIElementModule\n||+ Load()\l+ Save()\l+ Clear()\l+ ExistElement()\l+ ExistElement()\l+ GetPropertyManager()\l+ GetRecordManager()\l+ GetComponentManager()\l+ GetPropertyInt()\l+ GetPropertyFloat()\l+ GetPropertyString()\l}">
<polygon fill="white" stroke="black" points="1031.5,-375 1031.5,-542 1165.5,-542 1165.5,-375 1031.5,-375"/>
<text text-anchor="middle" x="1098.5" y="-530" font-family="Helvetica,sans-Serif" font-size="10.00">NFIElementModule</text>
<polyline fill="none" stroke="black" points="1031.5,-523 1165.5,-523 "/>
<text text-anchor="middle" x="1098.5" y="-511" font-family="Helvetica,sans-Serif" font-size="10.00"> </text>
<polyline fill="none" stroke="black" points="1031.5,-504 1165.5,-504 "/>
<text text-anchor="start" x="1039.5" y="-492" font-family="Helvetica,sans-Serif" font-size="10.00">+ Load()</text>
<text text-anchor="start" x="1039.5" y="-481" font-family="Helvetica,sans-Serif" font-size="10.00">+ Save()</text>
<text text-anchor="start" x="1039.5" y="-470" font-family="Helvetica,sans-Serif" font-size="10.00">+ Clear()</text>
<text text-anchor="start" x="1039.5" y="-459" font-family="Helvetica,sans-Serif" font-size="10.00">+ ExistElement()</text>
<text text-anchor="start" x="1039.5" y="-448" font-family="Helvetica,sans-Serif" font-size="10.00">+ ExistElement()</text>
<text text-anchor="start" x="1039.5" y="-437" font-family="Helvetica,sans-Serif" font-size="10.00">+ GetPropertyManager()</text>
<text text-anchor="start" x="1039.5" y="-426" font-family="Helvetica,sans-Serif" font-size="10.00">+ GetRecordManager()</text>
<text text-anchor="start" x="1039.5" y="-415" font-family="Helvetica,sans-Serif" font-size="10.00">+ GetComponentManager()</text>
<text text-anchor="start" x="1039.5" y="-404" font-family="Helvetica,sans-Serif" font-size="10.00">+ GetPropertyInt()</text>
<text text-anchor="start" x="1039.5" y="-393" font-family="Helvetica,sans-Serif" font-size="10.00">+ GetPropertyFloat()</text>
<text text-anchor="start" x="1039.5" y="-382" font-family="Helvetica,sans-Serif" font-size="10.00">+ GetPropertyString()</text>
</a>
</g>
</g>
<!-- Node5&#45;&gt;Node11 -->
<g id="edge12" class="edge"><title>Node5&#45;&gt;Node11</title>
<path fill="none" stroke="midnightblue" d="M930.522,-706.076C960.677,-680.847 995.616,-648.226 1021.5,-614 1037.95,-592.248 1052.44,-566.438 1064.27,-542.203"/>
<polygon fill="none" stroke="midnightblue" points="928.039,-703.588 922.563,-712.658 932.5,-708.982 928.039,-703.588"/>
</g>
<!-- Node12 -->
<g id="node10" class="node"><title>Node12</title>
<g id="a_node10"><a xlink:href="class_n_f_i_u_u_i_d_module.html" target="_top" xlink:title="{NFIUUIDModule\n||+ CreateGUID()\l+ GetIdentID()\l+ SetIdentID()\l}">
<polygon fill="white" stroke="black" points="1183.5,-419 1183.5,-498 1269.5,-498 1269.5,-419 1183.5,-419"/>
<text text-anchor="middle" x="1226.5" y="-486" font-family="Helvetica,sans-Serif" font-size="10.00">NFIUUIDModule</text>
<polyline fill="none" stroke="black" points="1183.5,-479 1269.5,-479 "/>
<text text-anchor="middle" x="1226.5" y="-467" font-family="Helvetica,sans-Serif" font-size="10.00"> </text>
<polyline fill="none" stroke="black" points="1183.5,-460 1269.5,-460 "/>
<text text-anchor="start" x="1191.5" y="-448" font-family="Helvetica,sans-Serif" font-size="10.00">+ CreateGUID()</text>
<text text-anchor="start" x="1191.5" y="-437" font-family="Helvetica,sans-Serif" font-size="10.00">+ GetIdentID()</text>
<text text-anchor="start" x="1191.5" y="-426" font-family="Helvetica,sans-Serif" font-size="10.00">+ SetIdentID()</text>
</a>
</g>
</g>
<!-- Node5&#45;&gt;Node12 -->
<g id="edge14" class="edge"><title>Node5&#45;&gt;Node12</title>
<path fill="none" stroke="midnightblue" d="M932.622,-741.129C1002.11,-723.242 1110.08,-685.54 1174.5,-614 1203.66,-581.612 1216.56,-532.28 1222.2,-498.111"/>
<polygon fill="none" stroke="midnightblue" points="931.508,-737.8 922.659,-743.626 933.21,-744.59 931.508,-737.8"/>
</g>
<!-- Node13 -->
<g id="node11" class="node"><title>Node13</title>
<g id="a_node11"><a xlink:href="class_n_f_i_net_module.html" target="_top" xlink:title="{NFINetModule\n|&#45; nLastTime\l&#45; mxReceiveCallBack\l&#45; mxEventCallBackList\l&#45; mxCallBackList\l|+ NFINetModule()\l+ NFINetModule()\l+ ~NFINetModule()\l+ Initialization()\l+ Initialization()\l+ AddReceiveCallBack()\l+ AddReceiveCallBack()\l+ AddReceiveCallBack()\l+ AddReceiveCallBack()\l+ AddEventCallBack()\land 10 more...\l+ PBToNF()\l+ NFToPB()\l+ PBToNF()\l+ NFToPB()\l+ ReceivePB()\l+ ReceivePB()\l# NFINetModule()\l# OnReceiveNetPack()\l# OnSocketNetEvent()\l# KeepAlive()\l}">
<polygon fill="white" stroke="black" points="1287.5,-303.5 1287.5,-613.5 1409.5,-613.5 1409.5,-303.5 1287.5,-303.5"/>
<text text-anchor="middle" x="1348.5" y="-601.5" font-family="Helvetica,sans-Serif" font-size="10.00">NFINetModule</text>
<polyline fill="none" stroke="black" points="1287.5,-594.5 1409.5,-594.5 "/>
<text text-anchor="start" x="1295.5" y="-582.5" font-family="Helvetica,sans-Serif" font-size="10.00">&#45; nLastTime</text>
<text text-anchor="start" x="1295.5" y="-571.5" font-family="Helvetica,sans-Serif" font-size="10.00">&#45; mxReceiveCallBack</text>
<text text-anchor="start" x="1295.5" y="-560.5" font-family="Helvetica,sans-Serif" font-size="10.00">&#45; mxEventCallBackList</text>
<text text-anchor="start" x="1295.5" y="-549.5" font-family="Helvetica,sans-Serif" font-size="10.00">&#45; mxCallBackList</text>
<polyline fill="none" stroke="black" points="1287.5,-542.5 1409.5,-542.5 "/>
<text text-anchor="start" x="1295.5" y="-530.5" font-family="Helvetica,sans-Serif" font-size="10.00">+ NFINetModule()</text>
<text text-anchor="start" x="1295.5" y="-519.5" font-family="Helvetica,sans-Serif" font-size="10.00">+ NFINetModule()</text>
<text text-anchor="start" x="1295.5" y="-508.5" font-family="Helvetica,sans-Serif" font-size="10.00">+ ~NFINetModule()</text>
<text text-anchor="start" x="1295.5" y="-497.5" font-family="Helvetica,sans-Serif" font-size="10.00">+ Initialization()</text>
<text text-anchor="start" x="1295.5" y="-486.5" font-family="Helvetica,sans-Serif" font-size="10.00">+ Initialization()</text>
<text text-anchor="start" x="1295.5" y="-475.5" font-family="Helvetica,sans-Serif" font-size="10.00">+ AddReceiveCallBack()</text>
<text text-anchor="start" x="1295.5" y="-464.5" font-family="Helvetica,sans-Serif" font-size="10.00">+ AddReceiveCallBack()</text>
<text text-anchor="start" x="1295.5" y="-453.5" font-family="Helvetica,sans-Serif" font-size="10.00">+ AddReceiveCallBack()</text>
<text text-anchor="start" x="1295.5" y="-442.5" font-family="Helvetica,sans-Serif" font-size="10.00">+ AddReceiveCallBack()</text>
<text text-anchor="start" x="1295.5" y="-431.5" font-family="Helvetica,sans-Serif" font-size="10.00">+ AddEventCallBack()</text>
<text text-anchor="start" x="1295.5" y="-420.5" font-family="Helvetica,sans-Serif" font-size="10.00">and 10 more...</text>
<text text-anchor="start" x="1295.5" y="-409.5" font-family="Helvetica,sans-Serif" font-size="10.00">+ PBToNF()</text>
<text text-anchor="start" x="1295.5" y="-398.5" font-family="Helvetica,sans-Serif" font-size="10.00">+ NFToPB()</text>
<text text-anchor="start" x="1295.5" y="-387.5" font-family="Helvetica,sans-Serif" font-size="10.00">+ PBToNF()</text>
<text text-anchor="start" x="1295.5" y="-376.5" font-family="Helvetica,sans-Serif" font-size="10.00">+ NFToPB()</text>
<text text-anchor="start" x="1295.5" y="-365.5" font-family="Helvetica,sans-Serif" font-size="10.00">+ ReceivePB()</text>
<text text-anchor="start" x="1295.5" y="-354.5" font-family="Helvetica,sans-Serif" font-size="10.00">+ ReceivePB()</text>
<text text-anchor="start" x="1295.5" y="-343.5" font-family="Helvetica,sans-Serif" font-size="10.00"># NFINetModule()</text>
<text text-anchor="start" x="1295.5" y="-332.5" font-family="Helvetica,sans-Serif" font-size="10.00"># OnReceiveNetPack()</text>
<text text-anchor="start" x="1295.5" y="-321.5" font-family="Helvetica,sans-Serif" font-size="10.00"># OnSocketNetEvent()</text>
<text text-anchor="start" x="1295.5" y="-310.5" font-family="Helvetica,sans-Serif" font-size="10.00"># KeepAlive()</text>
</a>
</g>
</g>
<!-- Node5&#45;&gt;Node13 -->
<g id="edge16" class="edge"><title>Node5&#45;&gt;Node13</title>
<path fill="none" stroke="midnightblue" d="M932.525,-748.603C1021.41,-736.738 1179.77,-703.708 1278.5,-614 1281.55,-611.228 1284.48,-608.296 1287.29,-605.232"/>
<polygon fill="none" stroke="midnightblue" points="932.038,-745.137 922.565,-749.883 932.93,-752.08 932.038,-745.137"/>
</g>
<!-- Node15 -->
<g id="node13" class="node"><title>Node15</title>
<g id="a_node13"><a xlink:href="class_n_f_i_login_to_master_module.html" target="_top" xlink:title="{NFILoginToMasterModule\n||+ GetClusterModule()\l+ GetWorldMap()\l}">
<polygon fill="white" stroke="black" points="177,-424.5 177,-492.5 304,-492.5 304,-424.5 177,-424.5"/>
<text text-anchor="middle" x="240.5" y="-480.5" font-family="Helvetica,sans-Serif" font-size="10.00">NFILoginToMasterModule</text>
<polyline fill="none" stroke="black" points="177,-473.5 304,-473.5 "/>
<text text-anchor="middle" x="240.5" y="-461.5" font-family="Helvetica,sans-Serif" font-size="10.00"> </text>
<polyline fill="none" stroke="black" points="177,-454.5 304,-454.5 "/>
<text text-anchor="start" x="185" y="-442.5" font-family="Helvetica,sans-Serif" font-size="10.00">+ GetClusterModule()</text>
<text text-anchor="start" x="185" y="-431.5" font-family="Helvetica,sans-Serif" font-size="10.00">+ GetWorldMap()</text>
</a>
</g>
</g>
<!-- Node5&#45;&gt;Node15 -->
<g id="edge19" class="edge"><title>Node5&#45;&gt;Node15</title>
<path fill="none" stroke="midnightblue" d="M799.951,-755.508C687.206,-752.916 456.941,-732.272 313.5,-614 275.848,-582.954 256.442,-528.013 247.381,-492.705"/>
<polygon fill="none" stroke="midnightblue" points="800.096,-759.011 810.16,-755.7 800.228,-752.012 800.096,-759.011"/>
</g>
<!-- Node16 -->
<g id="node14" class="node"><title>Node16</title>
<g id="a_node14"><a xlink:href="class_n_f_i_log_module.html" target="_top" xlink:title="{NFILogModule\n||+ LogDebug()\l+ LogInfo()\l+ LogWarning()\l+ LogError()\l+ LogFatal()\l+ LogDebug()\l+ LogInfo()\l+ LogWarning()\l+ LogError()\l+ LogFatal()\land 8 more...\l}">
<polygon fill="white" stroke="black" points="487,-375 487,-542 570,-542 570,-375 487,-375"/>
<text text-anchor="middle" x="528.5" y="-530" font-family="Helvetica,sans-Serif" font-size="10.00">NFILogModule</text>
<polyline fill="none" stroke="black" points="487,-523 570,-523 "/>
<text text-anchor="middle" x="528.5" y="-511" font-family="Helvetica,sans-Serif" font-size="10.00"> </text>
<polyline fill="none" stroke="black" points="487,-504 570,-504 "/>
<text text-anchor="start" x="495" y="-492" font-family="Helvetica,sans-Serif" font-size="10.00">+ LogDebug()</text>
<text text-anchor="start" x="495" y="-481" font-family="Helvetica,sans-Serif" font-size="10.00">+ LogInfo()</text>
<text text-anchor="start" x="495" y="-470" font-family="Helvetica,sans-Serif" font-size="10.00">+ LogWarning()</text>
<text text-anchor="start" x="495" y="-459" font-family="Helvetica,sans-Serif" font-size="10.00">+ LogError()</text>
<text text-anchor="start" x="495" y="-448" font-family="Helvetica,sans-Serif" font-size="10.00">+ LogFatal()</text>
<text text-anchor="start" x="495" y="-437" font-family="Helvetica,sans-Serif" font-size="10.00">+ LogDebug()</text>
<text text-anchor="start" x="495" y="-426" font-family="Helvetica,sans-Serif" font-size="10.00">+ LogInfo()</text>
<text text-anchor="start" x="495" y="-415" font-family="Helvetica,sans-Serif" font-size="10.00">+ LogWarning()</text>
<text text-anchor="start" x="495" y="-404" font-family="Helvetica,sans-Serif" font-size="10.00">+ LogError()</text>
<text text-anchor="start" x="495" y="-393" font-family="Helvetica,sans-Serif" font-size="10.00">+ LogFatal()</text>
<text text-anchor="start" x="495" y="-382" font-family="Helvetica,sans-Serif" font-size="10.00">and 8 more...</text>
</a>
</g>
</g>
<!-- Node5&#45;&gt;Node16 -->
<g id="edge21" class="edge"><title>Node5&#45;&gt;Node16</title>
<path fill="none" stroke="midnightblue" d="M800.633,-738.744C735.692,-719.446 637.934,-681.098 579.5,-614 561.97,-593.87 550.432,-567.549 542.852,-542.35"/>
<polygon fill="none" stroke="midnightblue" points="799.785,-742.142 810.364,-741.567 801.735,-735.419 799.785,-742.142"/>
</g>
<!-- Node17 -->
<g id="node15" class="node"><title>Node17</title>
<g id="a_node15"><a xlink:href="class_n_f_i_login_logic_module.html" target="_top" xlink:title="{NFILoginLogicModule\n||+ OnLoginProcess()\l}">
<polygon fill="white" stroke="black" points="588.5,-430 588.5,-487 698.5,-487 698.5,-430 588.5,-430"/>
<text text-anchor="middle" x="643.5" y="-475" font-family="Helvetica,sans-Serif" font-size="10.00">NFILoginLogicModule</text>
<polyline fill="none" stroke="black" points="588.5,-468 698.5,-468 "/>
<text text-anchor="middle" x="643.5" y="-456" font-family="Helvetica,sans-Serif" font-size="10.00"> </text>
<polyline fill="none" stroke="black" points="588.5,-449 698.5,-449 "/>
<text text-anchor="start" x="596.5" y="-437" font-family="Helvetica,sans-Serif" font-size="10.00">+ OnLoginProcess()</text>
</a>
</g>
</g>
<!-- Node5&#45;&gt;Node17 -->
<g id="edge23" class="edge"><title>Node5&#45;&gt;Node17</title>
<path fill="none" stroke="midnightblue" d="M802.274,-709.197C770.48,-683.973 733.452,-650.427 707.5,-614 679.03,-574.038 660.258,-519.507 650.786,-487.057"/>
<polygon fill="none" stroke="midnightblue" points="800.202,-712.021 810.235,-715.428 804.517,-706.508 800.202,-712.021"/>
</g>
<!-- Node6&#45;&gt;Node5 -->
<g id="edge3" class="edge"><title>Node6&#45;&gt;Node5</title>
<path fill="none" stroke="#404040" d="M760.885,-553.142C760.397,-582.646 763.253,-614.861 773.5,-643 779.991,-660.825 790.67,-677.826 802.524,-692.953"/>
<polygon fill="none" stroke="#404040" points="802.839,-693.337 809.737,-695.438 810.451,-702.613 803.553,-700.512 802.839,-693.337"/>
<text text-anchor="middle" x="813" y="-635" font-family="Helvetica,sans-Serif" font-size="10.00"> #pPluginManager</text>
</g>
<!-- Node7&#45;&gt;Node3 -->
<g id="edge5" class="edge"><title>Node7&#45;&gt;Node3</title>
<path fill="none" stroke="#404040" d="M873.091,-347.2C859.896,-321.399 845.678,-293.599 831.956,-266.767"/>
<polygon fill="none" stroke="#404040" points="831.781,-266.423 825.487,-262.903 826.317,-255.74 832.61,-259.26 831.781,-266.423"/>
<text text-anchor="middle" x="883" y="-277" font-family="Helvetica,sans-Serif" font-size="10.00"> &#45;m_pKernelModule</text>
</g>
<!-- Node8 -->
<g id="node6" class="node"><title>Node8</title>
<g id="a_node6"><a xlink:href="class_n_f_map_ex.html" target="_top" xlink:title="{NFMapEx\&lt; NFGUID, Session\lData \&gt;\n|&#45; mObjectList\l&#45; mObjectCurIter\l|+ NFMapEx()\l+ ~NFMapEx()\l+ AddElement()\l+ SetElement()\l+ RemoveElement()\l+ GetElementNude()\l+ GetElement()\l+ FirstNude()\l+ FirstNude()\l+ NextNude()\land 7 more...\l}">
<polygon fill="white" stroke="black" points="322.5,-364 322.5,-553 468.5,-553 468.5,-364 322.5,-364"/>
<text text-anchor="start" x="330.5" y="-541" font-family="Helvetica,sans-Serif" font-size="10.00">NFMapEx&lt; NFGUID, Session</text>
<text text-anchor="middle" x="395.5" y="-530" font-family="Helvetica,sans-Serif" font-size="10.00">Data &gt;</text>
<polyline fill="none" stroke="black" points="322.5,-523 468.5,-523 "/>
<text text-anchor="start" x="330.5" y="-511" font-family="Helvetica,sans-Serif" font-size="10.00">&#45; mObjectList</text>
<text text-anchor="start" x="330.5" y="-500" font-family="Helvetica,sans-Serif" font-size="10.00">&#45; mObjectCurIter</text>
<polyline fill="none" stroke="black" points="322.5,-493 468.5,-493 "/>
<text text-anchor="start" x="330.5" y="-481" font-family="Helvetica,sans-Serif" font-size="10.00">+ NFMapEx()</text>
<text text-anchor="start" x="330.5" y="-470" font-family="Helvetica,sans-Serif" font-size="10.00">+ ~NFMapEx()</text>
<text text-anchor="start" x="330.5" y="-459" font-family="Helvetica,sans-Serif" font-size="10.00">+ AddElement()</text>
<text text-anchor="start" x="330.5" y="-448" font-family="Helvetica,sans-Serif" font-size="10.00">+ SetElement()</text>
<text text-anchor="start" x="330.5" y="-437" font-family="Helvetica,sans-Serif" font-size="10.00">+ RemoveElement()</text>
<text text-anchor="start" x="330.5" y="-426" font-family="Helvetica,sans-Serif" font-size="10.00">+ GetElementNude()</text>
<text text-anchor="start" x="330.5" y="-415" font-family="Helvetica,sans-Serif" font-size="10.00">+ GetElement()</text>
<text text-anchor="start" x="330.5" y="-404" font-family="Helvetica,sans-Serif" font-size="10.00">+ FirstNude()</text>
<text text-anchor="start" x="330.5" y="-393" font-family="Helvetica,sans-Serif" font-size="10.00">+ FirstNude()</text>
<text text-anchor="start" x="330.5" y="-382" font-family="Helvetica,sans-Serif" font-size="10.00">+ NextNude()</text>
<text text-anchor="start" x="330.5" y="-371" font-family="Helvetica,sans-Serif" font-size="10.00">and 7 more...</text>
</a>
</g>
</g>
<!-- Node8&#45;&gt;Node3 -->
<g id="edge7" class="edge"><title>Node8&#45;&gt;Node3</title>
<path fill="none" stroke="#404040" d="M427.682,-363.989C441.807,-332.664 460.884,-299.309 485.5,-274 535.74,-222.347 608.364,-185.204 666.507,-161.448"/>
<polygon fill="none" stroke="#404040" points="666.79,-161.335 670.874,-155.391 677.931,-156.875 673.847,-162.818 666.79,-161.335"/>
<text text-anchor="middle" x="538.5" y="-277" font-family="Helvetica,sans-Serif" font-size="10.00"> #mmClientSessionData</text>
</g>
<!-- Node9&#45;&gt;Node3 -->
<g id="edge8" class="edge"><title>Node9&#45;&gt;Node3</title>
<path fill="none" stroke="#404040" d="M110.063,-380.37C124.113,-352.907 143.157,-323.692 167.5,-303 311.561,-180.547 538.191,-144.223 665.838,-133.48"/>
<polygon fill="none" stroke="#404040" points="665.914,-133.474 671.577,-129.009 677.876,-132.519 672.214,-136.984 665.914,-133.474"/>
<text text-anchor="middle" x="234.5" y="-277" font-family="Helvetica,sans-Serif" font-size="10.00"> &#45;m_pClassModule</text>
</g>
<!-- Node10 -->
<g id="node8" class="node"><title>Node10</title>
<g id="a_node8"><a xlink:href="class_n_f_map_ex.html" target="_top" xlink:title="{NFMapEx\&lt; std::string,\l NFIClass \&gt;\n|&#45; mObjectList\l&#45; mObjectCurIter\l|+ NFMapEx()\l+ ~NFMapEx()\l+ AddElement()\l+ SetElement()\l+ RemoveElement()\l+ GetElementNude()\l+ GetElement()\l+ FirstNude()\l+ FirstNude()\l+ NextNude()\land 7 more...\l}">
<polygon fill="white" stroke="black" points="21.5,-661.5 21.5,-850.5 137.5,-850.5 137.5,-661.5 21.5,-661.5"/>
<text text-anchor="start" x="29.5" y="-838.5" font-family="Helvetica,sans-Serif" font-size="10.00">NFMapEx&lt; std::string,</text>
<text text-anchor="middle" x="79.5" y="-827.5" font-family="Helvetica,sans-Serif" font-size="10.00"> NFIClass &gt;</text>
<polyline fill="none" stroke="black" points="21.5,-820.5 137.5,-820.5 "/>
<text text-anchor="start" x="29.5" y="-808.5" font-family="Helvetica,sans-Serif" font-size="10.00">&#45; mObjectList</text>
<text text-anchor="start" x="29.5" y="-797.5" font-family="Helvetica,sans-Serif" font-size="10.00">&#45; mObjectCurIter</text>
<polyline fill="none" stroke="black" points="21.5,-790.5 137.5,-790.5 "/>
<text text-anchor="start" x="29.5" y="-778.5" font-family="Helvetica,sans-Serif" font-size="10.00">+ NFMapEx()</text>
<text text-anchor="start" x="29.5" y="-767.5" font-family="Helvetica,sans-Serif" font-size="10.00">+ ~NFMapEx()</text>
<text text-anchor="start" x="29.5" y="-756.5" font-family="Helvetica,sans-Serif" font-size="10.00">+ AddElement()</text>
<text text-anchor="start" x="29.5" y="-745.5" font-family="Helvetica,sans-Serif" font-size="10.00">+ SetElement()</text>
<text text-anchor="start" x="29.5" y="-734.5" font-family="Helvetica,sans-Serif" font-size="10.00">+ RemoveElement()</text>
<text text-anchor="start" x="29.5" y="-723.5" font-family="Helvetica,sans-Serif" font-size="10.00">+ GetElementNude()</text>
<text text-anchor="start" x="29.5" y="-712.5" font-family="Helvetica,sans-Serif" font-size="10.00">+ GetElement()</text>
<text text-anchor="start" x="29.5" y="-701.5" font-family="Helvetica,sans-Serif" font-size="10.00">+ FirstNude()</text>
<text text-anchor="start" x="29.5" y="-690.5" font-family="Helvetica,sans-Serif" font-size="10.00">+ FirstNude()</text>
<text text-anchor="start" x="29.5" y="-679.5" font-family="Helvetica,sans-Serif" font-size="10.00">+ NextNude()</text>
<text text-anchor="start" x="29.5" y="-668.5" font-family="Helvetica,sans-Serif" font-size="10.00">and 7 more...</text>
</a>
</g>
</g>
<!-- Node10&#45;&gt;Node9 -->
<g id="edge10" class="edge"><title>Node10&#45;&gt;Node9</title>
<path fill="none" stroke="midnightblue" d="M79.5,-650.643C79.5,-613.168 79.5,-571.606 79.5,-536.835"/>
<polygon fill="none" stroke="midnightblue" points="76.0001,-651.096 79.5,-661.096 83.0001,-651.096 76.0001,-651.096"/>
</g>
<!-- Node11&#45;&gt;Node3 -->
<g id="edge11" class="edge"><title>Node11&#45;&gt;Node3</title>
<path fill="none" stroke="#404040" d="M1067,-374.802C1055.11,-350.034 1039.91,-323.923 1021.5,-303 975.161,-250.345 909.41,-206.535 855.624,-176.046"/>
<polygon fill="none" stroke="#404040" points="855.511,-175.983 848.322,-176.547 845.036,-170.128 852.225,-169.564 855.511,-175.983"/>
<text text-anchor="middle" x="1051" y="-277" font-family="Helvetica,sans-Serif" font-size="10.00"> &#45;m_pElementModule</text>
</g>
<!-- Node12&#45;&gt;Node3 -->
<g id="edge13" class="edge"><title>Node12&#45;&gt;Node3</title>
<path fill="none" stroke="#404040" d="M1222.44,-418.674C1216.95,-384.361 1204.16,-334.939 1174.5,-303 1090.05,-212.055 950.503,-166.89 857.301,-145.764"/>
<polygon fill="none" stroke="#404040" points="857.039,-145.706 850.319,-148.32 845.321,-143.122 852.041,-140.508 857.039,-145.706"/>
<text text-anchor="middle" x="1189" y="-277" font-family="Helvetica,sans-Serif" font-size="10.00"> &#45;m_pUUIDModule</text>
</g>
<!-- Node13&#45;&gt;Node3 -->
<g id="edge15" class="edge"><title>Node13&#45;&gt;Node3</title>
<path fill="none" stroke="#404040" d="M1287.45,-314.101C1284.58,-310.263 1281.6,-306.552 1278.5,-303 1262.62,-284.78 1254.46,-284.088 1232.5,-274 1107.67,-216.664 954.159,-174.213 857.04,-150.528"/>
<polygon fill="none" stroke="#404040" points="856.853,-150.483 850.081,-152.961 845.189,-147.663 851.961,-145.185 856.853,-150.483"/>
<text text-anchor="middle" x="1291.5" y="-277" font-family="Helvetica,sans-Serif" font-size="10.00"> &#45;m_pNetModule</text>
</g>
<!-- Node14 -->
<g id="node12" class="node"><title>Node14</title>
<g id="a_node12"><a xlink:href="class_n_f_i_net.html" target="_top" xlink:title="{NFINet\n||+ Execute()\l+ Initialization()\l+ Initialization()\l+ Final()\l+ SendMsgWithOutHead()\l+ SendMsgWithOutHead()\l+ SendMsgToAllClient()\l+ SendMsgToAllClientWithOutHead()\l+ CloseNetObject()\l+ CloseNetObject()\l+ IsServer()\l+ Log()\l}">
<polygon fill="white" stroke="black" points="1259.5,-667 1259.5,-845 1437.5,-845 1437.5,-667 1259.5,-667"/>
<text text-anchor="middle" x="1348.5" y="-833" font-family="Helvetica,sans-Serif" font-size="10.00">NFINet</text>
<polyline fill="none" stroke="black" points="1259.5,-826 1437.5,-826 "/>
<text text-anchor="middle" x="1348.5" y="-814" font-family="Helvetica,sans-Serif" font-size="10.00"> </text>
<polyline fill="none" stroke="black" points="1259.5,-807 1437.5,-807 "/>
<text text-anchor="start" x="1267.5" y="-795" font-family="Helvetica,sans-Serif" font-size="10.00">+ Execute()</text>
<text text-anchor="start" x="1267.5" y="-784" font-family="Helvetica,sans-Serif" font-size="10.00">+ Initialization()</text>
<text text-anchor="start" x="1267.5" y="-773" font-family="Helvetica,sans-Serif" font-size="10.00">+ Initialization()</text>
<text text-anchor="start" x="1267.5" y="-762" font-family="Helvetica,sans-Serif" font-size="10.00">+ Final()</text>
<text text-anchor="start" x="1267.5" y="-751" font-family="Helvetica,sans-Serif" font-size="10.00">+ SendMsgWithOutHead()</text>
<text text-anchor="start" x="1267.5" y="-740" font-family="Helvetica,sans-Serif" font-size="10.00">+ SendMsgWithOutHead()</text>
<text text-anchor="start" x="1267.5" y="-729" font-family="Helvetica,sans-Serif" font-size="10.00">+ SendMsgToAllClient()</text>
<text text-anchor="start" x="1267.5" y="-718" font-family="Helvetica,sans-Serif" font-size="10.00">+ SendMsgToAllClientWithOutHead()</text>
<text text-anchor="start" x="1267.5" y="-707" font-family="Helvetica,sans-Serif" font-size="10.00">+ CloseNetObject()</text>
<text text-anchor="start" x="1267.5" y="-696" font-family="Helvetica,sans-Serif" font-size="10.00">+ CloseNetObject()</text>
<text text-anchor="start" x="1267.5" y="-685" font-family="Helvetica,sans-Serif" font-size="10.00">+ IsServer()</text>
<text text-anchor="start" x="1267.5" y="-674" font-family="Helvetica,sans-Serif" font-size="10.00">+ Log()</text>
</a>
</g>
</g>
<!-- Node14&#45;&gt;Node13 -->
<g id="edge17" class="edge"><title>Node14&#45;&gt;Node13</title>
<path fill="none" stroke="#404040" d="M1348.5,-666.741C1348.5,-653.719 1348.5,-639.956 1348.5,-625.967"/>
<polygon fill="none" stroke="#404040" points="1348.5,-625.627 1344.5,-619.627 1348.5,-613.627 1352.5,-619.627 1348.5,-625.627"/>
<text text-anchor="middle" x="1368.5" y="-635" font-family="Helvetica,sans-Serif" font-size="10.00"> &#45;m_pNet</text>
</g>
<!-- Node15&#45;&gt;Node3 -->
<g id="edge18" class="edge"><title>Node15&#45;&gt;Node3</title>
<path fill="none" stroke="#404040" d="M250.706,-424.339C262.126,-391.072 283.102,-339.648 313.5,-303 401.504,-196.901 562.502,-155.277 665.629,-139.098"/>
<polygon fill="none" stroke="#404040" points="665.733,-139.082 671.069,-134.233 677.598,-137.293 672.262,-142.143 665.733,-139.082"/>
<text text-anchor="middle" x="401" y="-277" font-family="Helvetica,sans-Serif" font-size="10.00"> &#45;m_pLoginToMasterModule</text>
</g>
<!-- Node16&#45;&gt;Node3 -->
<g id="edge20" class="edge"><title>Node16&#45;&gt;Node3</title>
<path fill="none" stroke="#404040" d="M547.642,-374.772C555.361,-350.537 565.773,-324.732 579.5,-303 603.19,-265.493 636.699,-230.38 668.518,-201.656"/>
<polygon fill="none" stroke="#404040" points="668.909,-201.309 670.738,-194.334 677.881,-193.34 676.051,-200.315 668.909,-201.309"/>
<text text-anchor="middle" x="636" y="-277" font-family="Helvetica,sans-Serif" font-size="10.00"> &#45;m_pLogModule</text>
</g>
<!-- Node17&#45;&gt;Node3 -->
<g id="edge22" class="edge"><title>Node17&#45;&gt;Node3</title>
<path fill="none" stroke="#404040" d="M653.459,-429.775C666.404,-393.737 689.94,-328.216 711.747,-267.507"/>
<polygon fill="none" stroke="#404040" points="711.882,-267.131 710.146,-260.132 715.939,-255.838 717.675,-262.837 711.882,-267.131"/>
<text text-anchor="middle" x="758" y="-277" font-family="Helvetica,sans-Serif" font-size="10.00"> &#45;m_pLoginLogicModule</text>
</g>
</g>
</svg>
