<?xml version="1.0" encoding="UTF-8" standalone="no"?>
<!DOCTYPE svg PUBLIC "-//W3C//DTD SVG 1.1//EN"
 "http://www.w3.org/Graphics/SVG/1.1/DTD/svg11.dtd">
<!-- Generated by graphviz version 2.38.0 (20140413.2041)
 -->
<!-- Title: NFIHeartBeatManager Pages: 1 -->
<svg width="151pt" height="336pt"
 viewBox="0.00 0.00 151.00 336.00" xmlns="http://www.w3.org/2000/svg" xmlns:xlink="http://www.w3.org/1999/xlink">
<g id="graph0" class="graph" transform="scale(1 1) rotate(0) translate(4 332)">
<title>NFIHeartBeatManager</title>
<polygon fill="white" stroke="none" points="-4,4 -4,-332 147,-332 147,4 -4,4"/>
<!-- Node0 -->
<g id="node1" class="node"><title>Node0</title>
<polygon fill="#bfbfbf" stroke="black" points="4.5,-204.5 4.5,-327.5 138.5,-327.5 138.5,-204.5 4.5,-204.5"/>
<text text-anchor="middle" x="71.5" y="-315.5" font-family="Helvetica,sans-Serif" font-size="10.00">NFIHeartBeatManager</text>
<polyline fill="none" stroke="black" points="4.5,-308.5 138.5,-308.5 "/>
<text text-anchor="middle" x="71.5" y="-296.5" font-family="Helvetica,sans-Serif" font-size="10.00"> </text>
<polyline fill="none" stroke="black" points="4.5,-289.5 138.5,-289.5 "/>
<text text-anchor="start" x="12.5" y="-277.5" font-family="Helvetica,sans-Serif" font-size="10.00">+ ~NFIHeartBeatManager()</text>
<text text-anchor="start" x="12.5" y="-266.5" font-family="Helvetica,sans-Serif" font-size="10.00">+ Self()</text>
<text text-anchor="start" x="12.5" y="-255.5" font-family="Helvetica,sans-Serif" font-size="10.00">+ Execute()</text>
<text text-anchor="start" x="12.5" y="-244.5" font-family="Helvetica,sans-Serif" font-size="10.00">+ Exist()</text>
<text text-anchor="start" x="12.5" y="-233.5" font-family="Helvetica,sans-Serif" font-size="10.00">+ AddHeartBeat()</text>
<text text-anchor="start" x="12.5" y="-222.5" font-family="Helvetica,sans-Serif" font-size="10.00">+ RemoveHeartBeat()</text>
<text text-anchor="start" x="12.5" y="-211.5" font-family="Helvetica,sans-Serif" font-size="10.00">+ AddHeartBeat()</text>
</g>
<!-- Node1 -->
<g id="node2" class="node"><title>Node1</title>
<g id="a_node2"><a xlink:href="class_n_f_c_heart_beat_manager.html" target="_top" xlink:title="Manager for nfc heart beats. ">
<polygon fill="white" stroke="black" points="0,-0.5 0,-167.5 143,-167.5 143,-0.5 0,-0.5"/>
<text text-anchor="middle" x="71.5" y="-155.5" font-family="Helvetica,sans-Serif" font-size="10.00">NFCHeartBeatManager</text>
<polyline fill="none" stroke="black" points="0,-148.5 143,-148.5 "/>
<text text-anchor="start" x="8" y="-136.5" font-family="Helvetica,sans-Serif" font-size="10.00"># mSelf</text>
<text text-anchor="start" x="8" y="-125.5" font-family="Helvetica,sans-Serif" font-size="10.00"># mRemoveListEx</text>
<text text-anchor="start" x="8" y="-114.5" font-family="Helvetica,sans-Serif" font-size="10.00"># mAddListEx</text>
<text text-anchor="start" x="8" y="-103.5" font-family="Helvetica,sans-Serif" font-size="10.00"># mHeartBeatElementMapEx</text>
<polyline fill="none" stroke="black" points="0,-96.5 143,-96.5 "/>
<text text-anchor="start" x="8" y="-84.5" font-family="Helvetica,sans-Serif" font-size="10.00">+ NFCHeartBeatManager()</text>
<text text-anchor="start" x="8" y="-73.5" font-family="Helvetica,sans-Serif" font-size="10.00">+ NFCHeartBeatManager()</text>
<text text-anchor="start" x="8" y="-62.5" font-family="Helvetica,sans-Serif" font-size="10.00">+ ~NFCHeartBeatManager()</text>
<text text-anchor="start" x="8" y="-51.5" font-family="Helvetica,sans-Serif" font-size="10.00">+ Self()</text>
<text text-anchor="start" x="8" y="-40.5" font-family="Helvetica,sans-Serif" font-size="10.00">+ Execute()</text>
<text text-anchor="start" x="8" y="-29.5" font-family="Helvetica,sans-Serif" font-size="10.00">+ Exist()</text>
<text text-anchor="start" x="8" y="-18.5" font-family="Helvetica,sans-Serif" font-size="10.00">+ AddHeartBeat()</text>
<text text-anchor="start" x="8" y="-7.5" font-family="Helvetica,sans-Serif" font-size="10.00">+ RemoveHeartBeat()</text>
</a>
</g>
</g>
<!-- Node0&#45;&gt;Node1 -->
<g id="edge1" class="edge"><title>Node0&#45;&gt;Node1</title>
<path fill="none" stroke="midnightblue" d="M71.5,-194.251C71.5,-185.566 71.5,-176.63 71.5,-167.787"/>
<polygon fill="none" stroke="midnightblue" points="68.0001,-194.311 71.5,-204.311 75.0001,-194.311 68.0001,-194.311"/>
</g>
</g>
</svg>
