<?xml version="1.0" encoding="UTF-8" standalone="no"?>
<!DOCTYPE svg PUBLIC "-//W3C//DTD SVG 1.1//EN"
 "http://www.w3.org/Graphics/SVG/1.1/DTD/svg11.dtd">
<!-- Generated by graphviz version 2.38.0 (20140413.2041)
 -->
<!-- Title: NFIProxyLogicModule Pages: 1 -->
<svg width="139pt" height="452pt"
 viewBox="0.00 0.00 139.00 452.00" xmlns="http://www.w3.org/2000/svg" xmlns:xlink="http://www.w3.org/1999/xlink">
<g id="graph0" class="graph" transform="scale(1 1) rotate(0) translate(4 448)">
<title>NFIProxyLogicModule</title>
<polygon fill="white" stroke="none" points="-4,4 -4,-448 135,-448 135,4 -4,4"/>
<!-- Node0 -->
<g id="node1" class="node"><title>Node0</title>
<polygon fill="#bfbfbf" stroke="black" points="9.5,-149.5 9.5,-206.5 121.5,-206.5 121.5,-149.5 9.5,-149.5"/>
<text text-anchor="middle" x="65.5" y="-194.5" font-family="Helvetica,sans-Serif" font-size="10.00">NFIProxyLogicModule</text>
<polyline fill="none" stroke="black" points="9.5,-187.5 121.5,-187.5 "/>
<text text-anchor="middle" x="65.5" y="-175.5" font-family="Helvetica,sans-Serif" font-size="10.00"> </text>
<polyline fill="none" stroke="black" points="9.5,-168.5 121.5,-168.5 "/>
<text text-anchor="middle" x="65.5" y="-156.5" font-family="Helvetica,sans-Serif" font-size="10.00"> </text>
</g>
<!-- Node2 -->
<g id="node3" class="node"><title>Node2</title>
<g id="a_node3"><a xlink:href="class_n_f_c_proxy_logic_module.html" target="_top" xlink:title="{NFCProxyLogicModule\n|# m_pClassModule\l# m_pKernelModule\l|+ NFCProxyLogicModule()\l+ Init()\l+ Shut()\l+ Execute()\l+ AfterInit()\l}">
<polygon fill="white" stroke="black" points="0,-0.5 0,-112.5 131,-112.5 131,-0.5 0,-0.5"/>
<text text-anchor="middle" x="65.5" y="-100.5" font-family="Helvetica,sans-Serif" font-size="10.00">NFCProxyLogicModule</text>
<polyline fill="none" stroke="black" points="0,-93.5 131,-93.5 "/>
<text text-anchor="start" x="8" y="-81.5" font-family="Helvetica,sans-Serif" font-size="10.00"># m_pClassModule</text>
<text text-anchor="start" x="8" y="-70.5" font-family="Helvetica,sans-Serif" font-size="10.00"># m_pKernelModule</text>
<polyline fill="none" stroke="black" points="0,-63.5 131,-63.5 "/>
<text text-anchor="start" x="8" y="-51.5" font-family="Helvetica,sans-Serif" font-size="10.00">+ NFCProxyLogicModule()</text>
<text text-anchor="start" x="8" y="-40.5" font-family="Helvetica,sans-Serif" font-size="10.00">+ Init()</text>
<text text-anchor="start" x="8" y="-29.5" font-family="Helvetica,sans-Serif" font-size="10.00">+ Shut()</text>
<text text-anchor="start" x="8" y="-18.5" font-family="Helvetica,sans-Serif" font-size="10.00">+ Execute()</text>
<text text-anchor="start" x="8" y="-7.5" font-family="Helvetica,sans-Serif" font-size="10.00">+ AfterInit()</text>
</a>
</g>
</g>
<!-- Node0&#45;&gt;Node2 -->
<g id="edge2" class="edge"><title>Node0&#45;&gt;Node2</title>
<path fill="none" stroke="midnightblue" d="M65.5,-139.108C65.5,-130.748 65.5,-121.725 65.5,-112.834"/>
<polygon fill="none" stroke="midnightblue" points="62.0001,-139.284 65.5,-149.284 69.0001,-139.284 62.0001,-139.284"/>
</g>
<!-- Node1 -->
<g id="node2" class="node"><title>Node1</title>
<g id="a_node2"><a xlink:href="class_n_f_i_module.html" target="_top" xlink:title="{NFIModule\n|+ strName\l# pPluginManager\l# mbReloading\l|+ NFIModule()\l+ ~NFIModule()\l+ Init()\l+ AfterInit()\l+ CheckConfig()\l+ BeforeShut()\l+ Shut()\l+ Execute()\l+ StartReLoadState()\l+ EndReLoadState()\l+ GetPluginManager()\l+ Loading()\l}">
<polygon fill="white" stroke="black" points="9.5,-243.5 9.5,-443.5 121.5,-443.5 121.5,-243.5 9.5,-243.5"/>
<text text-anchor="middle" x="65.5" y="-431.5" font-family="Helvetica,sans-Serif" font-size="10.00">NFIModule</text>
<polyline fill="none" stroke="black" points="9.5,-424.5 121.5,-424.5 "/>
<text text-anchor="start" x="17.5" y="-412.5" font-family="Helvetica,sans-Serif" font-size="10.00">+ strName</text>
<text text-anchor="start" x="17.5" y="-401.5" font-family="Helvetica,sans-Serif" font-size="10.00"># pPluginManager</text>
<text text-anchor="start" x="17.5" y="-390.5" font-family="Helvetica,sans-Serif" font-size="10.00"># mbReloading</text>
<polyline fill="none" stroke="black" points="9.5,-383.5 121.5,-383.5 "/>
<text text-anchor="start" x="17.5" y="-371.5" font-family="Helvetica,sans-Serif" font-size="10.00">+ NFIModule()</text>
<text text-anchor="start" x="17.5" y="-360.5" font-family="Helvetica,sans-Serif" font-size="10.00">+ ~NFIModule()</text>
<text text-anchor="start" x="17.5" y="-349.5" font-family="Helvetica,sans-Serif" font-size="10.00">+ Init()</text>
<text text-anchor="start" x="17.5" y="-338.5" font-family="Helvetica,sans-Serif" font-size="10.00">+ AfterInit()</text>
<text text-anchor="start" x="17.5" y="-327.5" font-family="Helvetica,sans-Serif" font-size="10.00">+ CheckConfig()</text>
<text text-anchor="start" x="17.5" y="-316.5" font-family="Helvetica,sans-Serif" font-size="10.00">+ BeforeShut()</text>
<text text-anchor="start" x="17.5" y="-305.5" font-family="Helvetica,sans-Serif" font-size="10.00">+ Shut()</text>
<text text-anchor="start" x="17.5" y="-294.5" font-family="Helvetica,sans-Serif" font-size="10.00">+ Execute()</text>
<text text-anchor="start" x="17.5" y="-283.5" font-family="Helvetica,sans-Serif" font-size="10.00">+ StartReLoadState()</text>
<text text-anchor="start" x="17.5" y="-272.5" font-family="Helvetica,sans-Serif" font-size="10.00">+ EndReLoadState()</text>
<text text-anchor="start" x="17.5" y="-261.5" font-family="Helvetica,sans-Serif" font-size="10.00">+ GetPluginManager()</text>
<text text-anchor="start" x="17.5" y="-250.5" font-family="Helvetica,sans-Serif" font-size="10.00">+ Loading()</text>
</a>
</g>
</g>
<!-- Node1&#45;&gt;Node0 -->
<g id="edge1" class="edge"><title>Node1&#45;&gt;Node0</title>
<path fill="none" stroke="midnightblue" d="M65.5,-232.964C65.5,-223.366 65.5,-214.348 65.5,-206.533"/>
<polygon fill="none" stroke="midnightblue" points="62.0001,-233.15 65.5,-243.15 69.0001,-233.15 62.0001,-233.15"/>
</g>
</g>
</svg>
