<?xml version="1.0" encoding="UTF-8" standalone="no"?>
<!DOCTYPE svg PUBLIC "-//W3C//DTD SVG 1.1//EN"
 "http://www.w3.org/Graphics/SVG/1.1/DTD/svg11.dtd">
<!-- Generated by graphviz version 2.38.0 (20140413.2041)
 -->
<!-- Title: NFCWorldNet_ServerModule Pages: 1 -->
<!--zoomable 980 -->
<svg id="main" version="1.1" xmlns="http://www.w3.org/2000/svg" xmlns:xlink="http://www.w3.org/1999/xlink" xml:space="preserve" onload="init(evt)">
<style type="text/css"><![CDATA[
.edge:hover path { stroke: red; }
.edge:hover polygon { stroke: red; fill: red; }
]]></style>
<script type="text/javascript"><![CDATA[
var edges = document.getElementsByTagName('g');
if (edges && edges.length) {
  for (var i=0;i<edges.length;i++) {
    if (edges[i].id.substr(0,4)=='edge') {
      edges[i].setAttribute('class','edge');
    }
  }
}
]]></script>
        <defs>
                <circle id="rim" cx="0" cy="0" r="7"/>
                <circle id="rim2" cx="0" cy="0" r="3.5"/>
                <g id="zoomPlus">
                        <use xlink:href="#rim" fill="#404040">
                                <set attributeName="fill" to="#808080" begin="zoomplus.mouseover" end="zoomplus.mouseout"/>
                        </use>
                        <path d="M-4,0h8M0,-4v8" fill="none" stroke="white" stroke-width="1.5" pointer-events="none"/>
                </g>
                <g id="zoomMin">
                        <use xlink:href="#rim" fill="#404040">
                                <set attributeName="fill" to="#808080" begin="zoomminus.mouseover" end="zoomminus.mouseout"/>
                        </use>
                        <path d="M-4,0h8" fill="none" stroke="white" stroke-width="1.5" pointer-events="none"/>
                </g>
                <g id="dirArrow">
                        <path fill="none" stroke="white" stroke-width="1.5" d="M0,-3.0v7 M-2.5,-0.5L0,-3.0L2.5,-0.5"/>
                </g>
               <g id="resetDef">
                       <use xlink:href="#rim2" fill="#404040">
                               <set attributeName="fill" to="#808080" begin="reset.mouseover" end="reset.mouseout"/>
                       </use>
               </g>
        </defs>

<script type="text/javascript">
var viewWidth = 1319;
var viewHeight = 980;
var sectionId = 'dynsection-1';
</script>
<script xlink:href="svgpan.js"/>
<svg id="graph" class="graph">
<g id="viewport">
<title>NFCWorldNet_ServerModule</title>
<polygon fill="white" stroke="none" points="-4,4 -4,-976 1314.5,-976 1314.5,4 -4,4"/>
<!-- Node3 -->
<g id="node1" class="node"><title>Node3</title>
<polygon fill="#bfbfbf" stroke="black" points="628,-0.5 628,-365.5 809,-365.5 809,-0.5 628,-0.5"/>
<text text-anchor="middle" x="718.5" y="-353.5" font-family="Helvetica,sans-Serif" font-size="10.00">NFCWorldNet_ServerModule</text>
<polyline fill="none" stroke="black" points="628,-346.5 809,-346.5 "/>
<text text-anchor="start" x="636" y="-334.5" font-family="Helvetica,sans-Serif" font-size="10.00">&#45; mnLastCheckTime</text>
<polyline fill="none" stroke="black" points="628,-327.5 809,-327.5 "/>
<text text-anchor="start" x="636" y="-315.5" font-family="Helvetica,sans-Serif" font-size="10.00">+ NFCWorldNet_ServerModule()</text>
<text text-anchor="start" x="636" y="-304.5" font-family="Helvetica,sans-Serif" font-size="10.00">+ Init()</text>
<text text-anchor="start" x="636" y="-293.5" font-family="Helvetica,sans-Serif" font-size="10.00">+ Shut()</text>
<text text-anchor="start" x="636" y="-282.5" font-family="Helvetica,sans-Serif" font-size="10.00">+ Execute()</text>
<text text-anchor="start" x="636" y="-271.5" font-family="Helvetica,sans-Serif" font-size="10.00">+ AfterInit()</text>
<text text-anchor="start" x="636" y="-260.5" font-family="Helvetica,sans-Serif" font-size="10.00">+ LogReceive()</text>
<text text-anchor="start" x="636" y="-249.5" font-family="Helvetica,sans-Serif" font-size="10.00">+ LogSend()</text>
<text text-anchor="start" x="636" y="-238.5" font-family="Helvetica,sans-Serif" font-size="10.00">+ SendMsgToGame()</text>
<text text-anchor="start" x="636" y="-227.5" font-family="Helvetica,sans-Serif" font-size="10.00">+ SendMsgToGame()</text>
<text text-anchor="start" x="636" y="-216.5" font-family="Helvetica,sans-Serif" font-size="10.00">+ SendMsgToPlayer()</text>
<text text-anchor="start" x="636" y="-205.5" font-family="Helvetica,sans-Serif" font-size="10.00">and 8 more...</text>
<text text-anchor="start" x="636" y="-194.5" font-family="Helvetica,sans-Serif" font-size="10.00"># OnSocketEvent()</text>
<text text-anchor="start" x="636" y="-183.5" font-family="Helvetica,sans-Serif" font-size="10.00"># OnClientDisconnect()</text>
<text text-anchor="start" x="636" y="-172.5" font-family="Helvetica,sans-Serif" font-size="10.00"># OnClientConnected()</text>
<text text-anchor="start" x="636" y="-161.5" font-family="Helvetica,sans-Serif" font-size="10.00"># OnGameServerRegisteredProcess()</text>
<text text-anchor="start" x="636" y="-150.5" font-family="Helvetica,sans-Serif" font-size="10.00"># OnGameServerUnRegistered</text>
<text text-anchor="start" x="636" y="-139.5" font-family="Helvetica,sans-Serif" font-size="10.00">Process()</text>
<text text-anchor="start" x="636" y="-128.5" font-family="Helvetica,sans-Serif" font-size="10.00"># OnRefreshGameServerInfoProcess()</text>
<text text-anchor="start" x="636" y="-117.5" font-family="Helvetica,sans-Serif" font-size="10.00"># OnProxyServerRegisteredProcess()</text>
<text text-anchor="start" x="636" y="-106.5" font-family="Helvetica,sans-Serif" font-size="10.00"># OnProxyServerUnRegistered</text>
<text text-anchor="start" x="636" y="-95.5" font-family="Helvetica,sans-Serif" font-size="10.00">Process()</text>
<text text-anchor="start" x="636" y="-84.5" font-family="Helvetica,sans-Serif" font-size="10.00"># OnRefreshProxyServerInfo</text>
<text text-anchor="start" x="636" y="-73.5" font-family="Helvetica,sans-Serif" font-size="10.00">Process()</text>
<text text-anchor="start" x="636" y="-62.5" font-family="Helvetica,sans-Serif" font-size="10.00"># OnLeaveGameProcess()</text>
<text text-anchor="start" x="636" y="-51.5" font-family="Helvetica,sans-Serif" font-size="10.00"># SynGameToProxy()</text>
<text text-anchor="start" x="636" y="-40.5" font-family="Helvetica,sans-Serif" font-size="10.00"># SynGameToProxy()</text>
<text text-anchor="start" x="636" y="-29.5" font-family="Helvetica,sans-Serif" font-size="10.00"># LogGameServer()</text>
<text text-anchor="start" x="636" y="-18.5" font-family="Helvetica,sans-Serif" font-size="10.00"># OnOnlineProcess()</text>
<text text-anchor="start" x="636" y="-7.5" font-family="Helvetica,sans-Serif" font-size="10.00"># OnOfflineProcess()</text>
</g>
<!-- Node4 -->
<g id="node2" class="node"><title>Node4</title>
<g id="a_node2"><a xlink:href="class_n_f_i_world_net___server_module.html" target="_top" xlink:title="{NFIWorldNet_ServerModule\n||+ SendMsgToGame()\l+ OnObjectListEnter()\l+ OnObjectListLeave()\l+ OnPropertyEnter()\l+ OnRecordEnter()\l+ SendMsgToGame()\l+ OnRecordEnterPack()\l+ GetSuitProxyForEnter()\l+ GetNetModule()\l}">
<polygon fill="white" stroke="black" points="1174.5,-507 1174.5,-652 1310.5,-652 1310.5,-507 1174.5,-507"/>
<text text-anchor="middle" x="1242.5" y="-640" font-family="Helvetica,sans-Serif" font-size="10.00">NFIWorldNet_ServerModule</text>
<polyline fill="none" stroke="black" points="1174.5,-633 1310.5,-633 "/>
<text text-anchor="middle" x="1242.5" y="-621" font-family="Helvetica,sans-Serif" font-size="10.00"> </text>
<polyline fill="none" stroke="black" points="1174.5,-614 1310.5,-614 "/>
<text text-anchor="start" x="1182.5" y="-602" font-family="Helvetica,sans-Serif" font-size="10.00">+ SendMsgToGame()</text>
<text text-anchor="start" x="1182.5" y="-591" font-family="Helvetica,sans-Serif" font-size="10.00">+ OnObjectListEnter()</text>
<text text-anchor="start" x="1182.5" y="-580" font-family="Helvetica,sans-Serif" font-size="10.00">+ OnObjectListLeave()</text>
<text text-anchor="start" x="1182.5" y="-569" font-family="Helvetica,sans-Serif" font-size="10.00">+ OnPropertyEnter()</text>
<text text-anchor="start" x="1182.5" y="-558" font-family="Helvetica,sans-Serif" font-size="10.00">+ OnRecordEnter()</text>
<text text-anchor="start" x="1182.5" y="-547" font-family="Helvetica,sans-Serif" font-size="10.00">+ SendMsgToGame()</text>
<text text-anchor="start" x="1182.5" y="-536" font-family="Helvetica,sans-Serif" font-size="10.00">+ OnRecordEnterPack()</text>
<text text-anchor="start" x="1182.5" y="-525" font-family="Helvetica,sans-Serif" font-size="10.00">+ GetSuitProxyForEnter()</text>
<text text-anchor="start" x="1182.5" y="-514" font-family="Helvetica,sans-Serif" font-size="10.00">+ GetNetModule()</text>
</a>
</g>
</g>
<!-- Node4&#45;&gt;Node3 -->
<g id="edge1" class="edge"><title>Node4&#45;&gt;Node3</title>
<path fill="none" stroke="midnightblue" d="M1213.58,-497.59C1201.58,-471.895 1185.66,-444.787 1165.5,-424 1064.31,-319.682 907.864,-250.136 809.431,-213.874"/>
<polygon fill="none" stroke="midnightblue" points="1210.51,-499.308 1217.82,-506.978 1216.89,-496.424 1210.51,-499.308"/>
</g>
<!-- Node5 -->
<g id="node3" class="node"><title>Node5</title>
<g id="a_node3"><a xlink:href="class_n_f_i_module.html" target="_top" xlink:title="{NFIModule\n|+ strName\l# mbReloading\l|+ NFIModule()\l+ ~NFIModule()\l+ Init()\l+ AfterInit()\l+ CheckConfig()\l+ BeforeShut()\l+ Shut()\l+ Execute()\l+ StartReLoadState()\l+ EndReLoadState()\l+ GetPluginManager()\l+ Loading()\l}">
<polygon fill="white" stroke="black" points="434.5,-782.5 434.5,-971.5 546.5,-971.5 546.5,-782.5 434.5,-782.5"/>
<text text-anchor="middle" x="490.5" y="-959.5" font-family="Helvetica,sans-Serif" font-size="10.00">NFIModule</text>
<polyline fill="none" stroke="black" points="434.5,-952.5 546.5,-952.5 "/>
<text text-anchor="start" x="442.5" y="-940.5" font-family="Helvetica,sans-Serif" font-size="10.00">+ strName</text>
<text text-anchor="start" x="442.5" y="-929.5" font-family="Helvetica,sans-Serif" font-size="10.00"># mbReloading</text>
<polyline fill="none" stroke="black" points="434.5,-922.5 546.5,-922.5 "/>
<text text-anchor="start" x="442.5" y="-910.5" font-family="Helvetica,sans-Serif" font-size="10.00">+ NFIModule()</text>
<text text-anchor="start" x="442.5" y="-899.5" font-family="Helvetica,sans-Serif" font-size="10.00">+ ~NFIModule()</text>
<text text-anchor="start" x="442.5" y="-888.5" font-family="Helvetica,sans-Serif" font-size="10.00">+ Init()</text>
<text text-anchor="start" x="442.5" y="-877.5" font-family="Helvetica,sans-Serif" font-size="10.00">+ AfterInit()</text>
<text text-anchor="start" x="442.5" y="-866.5" font-family="Helvetica,sans-Serif" font-size="10.00">+ CheckConfig()</text>
<text text-anchor="start" x="442.5" y="-855.5" font-family="Helvetica,sans-Serif" font-size="10.00">+ BeforeShut()</text>
<text text-anchor="start" x="442.5" y="-844.5" font-family="Helvetica,sans-Serif" font-size="10.00">+ Shut()</text>
<text text-anchor="start" x="442.5" y="-833.5" font-family="Helvetica,sans-Serif" font-size="10.00">+ Execute()</text>
<text text-anchor="start" x="442.5" y="-822.5" font-family="Helvetica,sans-Serif" font-size="10.00">+ StartReLoadState()</text>
<text text-anchor="start" x="442.5" y="-811.5" font-family="Helvetica,sans-Serif" font-size="10.00">+ EndReLoadState()</text>
<text text-anchor="start" x="442.5" y="-800.5" font-family="Helvetica,sans-Serif" font-size="10.00">+ GetPluginManager()</text>
<text text-anchor="start" x="442.5" y="-789.5" font-family="Helvetica,sans-Serif" font-size="10.00">+ Loading()</text>
</a>
</g>
</g>
<!-- Node5&#45;&gt;Node4 -->
<g id="edge2" class="edge"><title>Node5&#45;&gt;Node4</title>
<path fill="none" stroke="midnightblue" d="M556.331,-853.277C641.721,-824.819 795.826,-776.902 931.5,-753 982.863,-743.951 1122.24,-764.129 1165.5,-735 1193.96,-715.834 1212.37,-682.906 1224.02,-652.359"/>
<polygon fill="none" stroke="midnightblue" points="555.141,-849.985 546.77,-856.478 557.363,-856.622 555.141,-849.985"/>
</g>
<!-- Node6 -->
<g id="node4" class="node"><title>Node6</title>
<g id="a_node4"><a xlink:href="class_n_f_i_plugin_manager.html" target="_top" xlink:title="{NFIPluginManager\n||+ NFIPluginManager()\l+ FindModule()\l+ Registered()\l+ UnRegistered()\l+ FindPlugin()\l+ AddModule()\l+ RemoveModule()\l+ FindModule()\l+ AppID()\l+ GetInitTime()\l+ GetNowTime()\l+ GetConfigPath()\l+ SetConfigName()\l}">
<polygon fill="white" stroke="black" points="278,-485 278,-674 389,-674 389,-485 278,-485"/>
<text text-anchor="middle" x="333.5" y="-662" font-family="Helvetica,sans-Serif" font-size="10.00">NFIPluginManager</text>
<polyline fill="none" stroke="black" points="278,-655 389,-655 "/>
<text text-anchor="middle" x="333.5" y="-643" font-family="Helvetica,sans-Serif" font-size="10.00"> </text>
<polyline fill="none" stroke="black" points="278,-636 389,-636 "/>
<text text-anchor="start" x="286" y="-624" font-family="Helvetica,sans-Serif" font-size="10.00">+ NFIPluginManager()</text>
<text text-anchor="start" x="286" y="-613" font-family="Helvetica,sans-Serif" font-size="10.00">+ FindModule()</text>
<text text-anchor="start" x="286" y="-602" font-family="Helvetica,sans-Serif" font-size="10.00">+ Registered()</text>
<text text-anchor="start" x="286" y="-591" font-family="Helvetica,sans-Serif" font-size="10.00">+ UnRegistered()</text>
<text text-anchor="start" x="286" y="-580" font-family="Helvetica,sans-Serif" font-size="10.00">+ FindPlugin()</text>
<text text-anchor="start" x="286" y="-569" font-family="Helvetica,sans-Serif" font-size="10.00">+ AddModule()</text>
<text text-anchor="start" x="286" y="-558" font-family="Helvetica,sans-Serif" font-size="10.00">+ RemoveModule()</text>
<text text-anchor="start" x="286" y="-547" font-family="Helvetica,sans-Serif" font-size="10.00">+ FindModule()</text>
<text text-anchor="start" x="286" y="-536" font-family="Helvetica,sans-Serif" font-size="10.00">+ AppID()</text>
<text text-anchor="start" x="286" y="-525" font-family="Helvetica,sans-Serif" font-size="10.00">+ GetInitTime()</text>
<text text-anchor="start" x="286" y="-514" font-family="Helvetica,sans-Serif" font-size="10.00">+ GetNowTime()</text>
<text text-anchor="start" x="286" y="-503" font-family="Helvetica,sans-Serif" font-size="10.00">+ GetConfigPath()</text>
<text text-anchor="start" x="286" y="-492" font-family="Helvetica,sans-Serif" font-size="10.00">+ SetConfigName()</text>
</a>
</g>
</g>
<!-- Node5&#45;&gt;Node6 -->
<g id="edge4" class="edge"><title>Node5&#45;&gt;Node6</title>
<path fill="none" stroke="midnightblue" d="M448.971,-773.55C443.994,-766.187 438.513,-759.224 432.5,-753 420.346,-740.42 409.35,-747.867 397.5,-735 381.569,-717.701 369.312,-695.882 359.999,-674.134"/>
<polygon fill="none" stroke="midnightblue" points="446.258,-775.806 454.583,-782.358 452.161,-772.044 446.258,-775.806"/>
</g>
<!-- Node7 -->
<g id="node5" class="node"><title>Node7</title>
<g id="a_node5"><a xlink:href="class_n_f_i_kernel_module.html" target="_top" xlink:title="{NFIKernelModule\n||+ AddHeartBeat()\l+ FindHeartBeat()\l+ RemoveHeartBeat()\l+ AddRecordCallBack()\l+ AddPropertyCallBack()\l+ AddEventCallBack()\l+ AddClassCallBack()\l+ DoEvent()\l+ DoEvent()\l+ RegisterCommonClassEvent()\land 56 more...\l# AddEventCallBack()\l# AddClassCallBack()\l# RegisterCommonClassEvent()\l# RegisterCommonPropertyEvent()\l# RegisterCommonRecordEvent()\l}">
<polygon fill="white" stroke="black" points="407,-468.5 407,-690.5 574,-690.5 574,-468.5 407,-468.5"/>
<text text-anchor="middle" x="490.5" y="-678.5" font-family="Helvetica,sans-Serif" font-size="10.00">NFIKernelModule</text>
<polyline fill="none" stroke="black" points="407,-671.5 574,-671.5 "/>
<text text-anchor="middle" x="490.5" y="-659.5" font-family="Helvetica,sans-Serif" font-size="10.00"> </text>
<polyline fill="none" stroke="black" points="407,-652.5 574,-652.5 "/>
<text text-anchor="start" x="415" y="-640.5" font-family="Helvetica,sans-Serif" font-size="10.00">+ AddHeartBeat()</text>
<text text-anchor="start" x="415" y="-629.5" font-family="Helvetica,sans-Serif" font-size="10.00">+ FindHeartBeat()</text>
<text text-anchor="start" x="415" y="-618.5" font-family="Helvetica,sans-Serif" font-size="10.00">+ RemoveHeartBeat()</text>
<text text-anchor="start" x="415" y="-607.5" font-family="Helvetica,sans-Serif" font-size="10.00">+ AddRecordCallBack()</text>
<text text-anchor="start" x="415" y="-596.5" font-family="Helvetica,sans-Serif" font-size="10.00">+ AddPropertyCallBack()</text>
<text text-anchor="start" x="415" y="-585.5" font-family="Helvetica,sans-Serif" font-size="10.00">+ AddEventCallBack()</text>
<text text-anchor="start" x="415" y="-574.5" font-family="Helvetica,sans-Serif" font-size="10.00">+ AddClassCallBack()</text>
<text text-anchor="start" x="415" y="-563.5" font-family="Helvetica,sans-Serif" font-size="10.00">+ DoEvent()</text>
<text text-anchor="start" x="415" y="-552.5" font-family="Helvetica,sans-Serif" font-size="10.00">+ DoEvent()</text>
<text text-anchor="start" x="415" y="-541.5" font-family="Helvetica,sans-Serif" font-size="10.00">+ RegisterCommonClassEvent()</text>
<text text-anchor="start" x="415" y="-530.5" font-family="Helvetica,sans-Serif" font-size="10.00">and 56 more...</text>
<text text-anchor="start" x="415" y="-519.5" font-family="Helvetica,sans-Serif" font-size="10.00"># AddEventCallBack()</text>
<text text-anchor="start" x="415" y="-508.5" font-family="Helvetica,sans-Serif" font-size="10.00"># AddClassCallBack()</text>
<text text-anchor="start" x="415" y="-497.5" font-family="Helvetica,sans-Serif" font-size="10.00"># RegisterCommonClassEvent()</text>
<text text-anchor="start" x="415" y="-486.5" font-family="Helvetica,sans-Serif" font-size="10.00"># RegisterCommonPropertyEvent()</text>
<text text-anchor="start" x="415" y="-475.5" font-family="Helvetica,sans-Serif" font-size="10.00"># RegisterCommonRecordEvent()</text>
</a>
</g>
</g>
<!-- Node5&#45;&gt;Node7 -->
<g id="edge6" class="edge"><title>Node5&#45;&gt;Node7</title>
<path fill="none" stroke="midnightblue" d="M490.5,-771.753C490.5,-745.491 490.5,-717.216 490.5,-690.674"/>
<polygon fill="none" stroke="midnightblue" points="487,-772.096 490.5,-782.096 494,-772.096 487,-772.096"/>
</g>
<!-- Node8 -->
<g id="node6" class="node"><title>Node8</title>
<g id="a_node6"><a xlink:href="class_n_f_i_world_logic_module.html" target="_top" xlink:title="{NFIWorldLogicModule\n||}">
<polygon fill="white" stroke="black" points="592.5,-551 592.5,-608 704.5,-608 704.5,-551 592.5,-551"/>
<text text-anchor="middle" x="648.5" y="-596" font-family="Helvetica,sans-Serif" font-size="10.00">NFIWorldLogicModule</text>
<polyline fill="none" stroke="black" points="592.5,-589 704.5,-589 "/>
<text text-anchor="middle" x="648.5" y="-577" font-family="Helvetica,sans-Serif" font-size="10.00"> </text>
<polyline fill="none" stroke="black" points="592.5,-570 704.5,-570 "/>
<text text-anchor="middle" x="648.5" y="-558" font-family="Helvetica,sans-Serif" font-size="10.00"> </text>
</a>
</g>
</g>
<!-- Node5&#45;&gt;Node8 -->
<g id="edge8" class="edge"><title>Node5&#45;&gt;Node8</title>
<path fill="none" stroke="midnightblue" d="M552.281,-786.395C562.886,-769.623 573.406,-752.012 582.5,-735 605.395,-692.171 626.427,-639.698 638.335,-608.243"/>
<polygon fill="none" stroke="midnightblue" points="549.166,-784.769 546.734,-795.081 555.066,-788.536 549.166,-784.769"/>
</g>
<!-- Node9 -->
<g id="node7" class="node"><title>Node9</title>
<g id="a_node7"><a xlink:href="class_n_f_i_class_module.html" target="_top" xlink:title="{NFIClassModule\n||+ ~NFIClassModule()\l+ Load()\l+ Save()\l+ Clear()\l+ AddClassCallBack()\l+ DoEvent()\l+ AddClassCallBack()\l+ GetClassPropertyManager()\l+ GetClassRecordManager()\l+ GetClassComponentManager()\l}">
<polygon fill="white" stroke="black" points="0,-501.5 0,-657.5 159,-657.5 159,-501.5 0,-501.5"/>
<text text-anchor="middle" x="79.5" y="-645.5" font-family="Helvetica,sans-Serif" font-size="10.00">NFIClassModule</text>
<polyline fill="none" stroke="black" points="0,-638.5 159,-638.5 "/>
<text text-anchor="middle" x="79.5" y="-626.5" font-family="Helvetica,sans-Serif" font-size="10.00"> </text>
<polyline fill="none" stroke="black" points="0,-619.5 159,-619.5 "/>
<text text-anchor="start" x="8" y="-607.5" font-family="Helvetica,sans-Serif" font-size="10.00">+ ~NFIClassModule()</text>
<text text-anchor="start" x="8" y="-596.5" font-family="Helvetica,sans-Serif" font-size="10.00">+ Load()</text>
<text text-anchor="start" x="8" y="-585.5" font-family="Helvetica,sans-Serif" font-size="10.00">+ Save()</text>
<text text-anchor="start" x="8" y="-574.5" font-family="Helvetica,sans-Serif" font-size="10.00">+ Clear()</text>
<text text-anchor="start" x="8" y="-563.5" font-family="Helvetica,sans-Serif" font-size="10.00">+ AddClassCallBack()</text>
<text text-anchor="start" x="8" y="-552.5" font-family="Helvetica,sans-Serif" font-size="10.00">+ DoEvent()</text>
<text text-anchor="start" x="8" y="-541.5" font-family="Helvetica,sans-Serif" font-size="10.00">+ AddClassCallBack()</text>
<text text-anchor="start" x="8" y="-530.5" font-family="Helvetica,sans-Serif" font-size="10.00">+ GetClassPropertyManager()</text>
<text text-anchor="start" x="8" y="-519.5" font-family="Helvetica,sans-Serif" font-size="10.00">+ GetClassRecordManager()</text>
<text text-anchor="start" x="8" y="-508.5" font-family="Helvetica,sans-Serif" font-size="10.00">+ GetClassComponentManager()</text>
</a>
</g>
</g>
<!-- Node5&#45;&gt;Node9 -->
<g id="edge10" class="edge"><title>Node5&#45;&gt;Node9</title>
<path fill="none" stroke="midnightblue" d="M424.6,-860.549C354.064,-841.218 242.244,-802.203 167.5,-735 143.971,-713.845 125.177,-684.863 111.097,-657.712"/>
<polygon fill="none" stroke="midnightblue" points="423.706,-863.933 434.271,-863.147 425.522,-857.172 423.706,-863.933"/>
</g>
<!-- Node11 -->
<g id="node9" class="node"><title>Node11</title>
<g id="a_node9"><a xlink:href="class_n_f_i_element_module.html" target="_top" xlink:title="{NFIElementModule\n||+ Load()\l+ Save()\l+ Clear()\l+ ExistElement()\l+ ExistElement()\l+ GetPropertyManager()\l+ GetRecordManager()\l+ GetComponentManager()\l+ GetPropertyInt()\l+ GetPropertyFloat()\l+ GetPropertyString()\l}">
<polygon fill="white" stroke="black" points="722.5,-496 722.5,-663 856.5,-663 856.5,-496 722.5,-496"/>
<text text-anchor="middle" x="789.5" y="-651" font-family="Helvetica,sans-Serif" font-size="10.00">NFIElementModule</text>
<polyline fill="none" stroke="black" points="722.5,-644 856.5,-644 "/>
<text text-anchor="middle" x="789.5" y="-632" font-family="Helvetica,sans-Serif" font-size="10.00"> </text>
<polyline fill="none" stroke="black" points="722.5,-625 856.5,-625 "/>
<text text-anchor="start" x="730.5" y="-613" font-family="Helvetica,sans-Serif" font-size="10.00">+ Load()</text>
<text text-anchor="start" x="730.5" y="-602" font-family="Helvetica,sans-Serif" font-size="10.00">+ Save()</text>
<text text-anchor="start" x="730.5" y="-591" font-family="Helvetica,sans-Serif" font-size="10.00">+ Clear()</text>
<text text-anchor="start" x="730.5" y="-580" font-family="Helvetica,sans-Serif" font-size="10.00">+ ExistElement()</text>
<text text-anchor="start" x="730.5" y="-569" font-family="Helvetica,sans-Serif" font-size="10.00">+ ExistElement()</text>
<text text-anchor="start" x="730.5" y="-558" font-family="Helvetica,sans-Serif" font-size="10.00">+ GetPropertyManager()</text>
<text text-anchor="start" x="730.5" y="-547" font-family="Helvetica,sans-Serif" font-size="10.00">+ GetRecordManager()</text>
<text text-anchor="start" x="730.5" y="-536" font-family="Helvetica,sans-Serif" font-size="10.00">+ GetComponentManager()</text>
<text text-anchor="start" x="730.5" y="-525" font-family="Helvetica,sans-Serif" font-size="10.00">+ GetPropertyInt()</text>
<text text-anchor="start" x="730.5" y="-514" font-family="Helvetica,sans-Serif" font-size="10.00">+ GetPropertyFloat()</text>
<text text-anchor="start" x="730.5" y="-503" font-family="Helvetica,sans-Serif" font-size="10.00">+ GetPropertyString()</text>
</a>
</g>
</g>
<!-- Node5&#45;&gt;Node11 -->
<g id="edge13" class="edge"><title>Node5&#45;&gt;Node11</title>
<path fill="none" stroke="midnightblue" d="M555.679,-846.925C604.179,-822.651 669.349,-784.13 713.5,-735 732.182,-714.211 747.355,-687.998 759.091,-663.097"/>
<polygon fill="none" stroke="midnightblue" points="553.941,-843.88 546.519,-851.44 557.036,-850.158 553.941,-843.88"/>
</g>
<!-- Node12 -->
<g id="node10" class="node"><title>Node12</title>
<g id="a_node10"><a xlink:href="class_n_f_i_net_module.html" target="_top" xlink:title="{NFINetModule\n|&#45; nLastTime\l&#45; mxReceiveCallBack\l&#45; mxEventCallBackList\l&#45; mxCallBackList\l|+ NFINetModule()\l+ NFINetModule()\l+ ~NFINetModule()\l+ Initialization()\l+ Initialization()\l+ AddReceiveCallBack()\l+ AddReceiveCallBack()\l+ AddReceiveCallBack()\l+ AddReceiveCallBack()\l+ AddEventCallBack()\land 10 more...\l+ PBToNF()\l+ NFToPB()\l+ PBToNF()\l+ NFToPB()\l+ ReceivePB()\l+ ReceivePB()\l# NFINetModule()\l# OnReceiveNetPack()\l# OnSocketNetEvent()\l# KeepAlive()\l}">
<polygon fill="white" stroke="black" points="874.5,-424.5 874.5,-734.5 996.5,-734.5 996.5,-424.5 874.5,-424.5"/>
<text text-anchor="middle" x="935.5" y="-722.5" font-family="Helvetica,sans-Serif" font-size="10.00">NFINetModule</text>
<polyline fill="none" stroke="black" points="874.5,-715.5 996.5,-715.5 "/>
<text text-anchor="start" x="882.5" y="-703.5" font-family="Helvetica,sans-Serif" font-size="10.00">&#45; nLastTime</text>
<text text-anchor="start" x="882.5" y="-692.5" font-family="Helvetica,sans-Serif" font-size="10.00">&#45; mxReceiveCallBack</text>
<text text-anchor="start" x="882.5" y="-681.5" font-family="Helvetica,sans-Serif" font-size="10.00">&#45; mxEventCallBackList</text>
<text text-anchor="start" x="882.5" y="-670.5" font-family="Helvetica,sans-Serif" font-size="10.00">&#45; mxCallBackList</text>
<polyline fill="none" stroke="black" points="874.5,-663.5 996.5,-663.5 "/>
<text text-anchor="start" x="882.5" y="-651.5" font-family="Helvetica,sans-Serif" font-size="10.00">+ NFINetModule()</text>
<text text-anchor="start" x="882.5" y="-640.5" font-family="Helvetica,sans-Serif" font-size="10.00">+ NFINetModule()</text>
<text text-anchor="start" x="882.5" y="-629.5" font-family="Helvetica,sans-Serif" font-size="10.00">+ ~NFINetModule()</text>
<text text-anchor="start" x="882.5" y="-618.5" font-family="Helvetica,sans-Serif" font-size="10.00">+ Initialization()</text>
<text text-anchor="start" x="882.5" y="-607.5" font-family="Helvetica,sans-Serif" font-size="10.00">+ Initialization()</text>
<text text-anchor="start" x="882.5" y="-596.5" font-family="Helvetica,sans-Serif" font-size="10.00">+ AddReceiveCallBack()</text>
<text text-anchor="start" x="882.5" y="-585.5" font-family="Helvetica,sans-Serif" font-size="10.00">+ AddReceiveCallBack()</text>
<text text-anchor="start" x="882.5" y="-574.5" font-family="Helvetica,sans-Serif" font-size="10.00">+ AddReceiveCallBack()</text>
<text text-anchor="start" x="882.5" y="-563.5" font-family="Helvetica,sans-Serif" font-size="10.00">+ AddReceiveCallBack()</text>
<text text-anchor="start" x="882.5" y="-552.5" font-family="Helvetica,sans-Serif" font-size="10.00">+ AddEventCallBack()</text>
<text text-anchor="start" x="882.5" y="-541.5" font-family="Helvetica,sans-Serif" font-size="10.00">and 10 more...</text>
<text text-anchor="start" x="882.5" y="-530.5" font-family="Helvetica,sans-Serif" font-size="10.00">+ PBToNF()</text>
<text text-anchor="start" x="882.5" y="-519.5" font-family="Helvetica,sans-Serif" font-size="10.00">+ NFToPB()</text>
<text text-anchor="start" x="882.5" y="-508.5" font-family="Helvetica,sans-Serif" font-size="10.00">+ PBToNF()</text>
<text text-anchor="start" x="882.5" y="-497.5" font-family="Helvetica,sans-Serif" font-size="10.00">+ NFToPB()</text>
<text text-anchor="start" x="882.5" y="-486.5" font-family="Helvetica,sans-Serif" font-size="10.00">+ ReceivePB()</text>
<text text-anchor="start" x="882.5" y="-475.5" font-family="Helvetica,sans-Serif" font-size="10.00">+ ReceivePB()</text>
<text text-anchor="start" x="882.5" y="-464.5" font-family="Helvetica,sans-Serif" font-size="10.00"># NFINetModule()</text>
<text text-anchor="start" x="882.5" y="-453.5" font-family="Helvetica,sans-Serif" font-size="10.00"># OnReceiveNetPack()</text>
<text text-anchor="start" x="882.5" y="-442.5" font-family="Helvetica,sans-Serif" font-size="10.00"># OnSocketNetEvent()</text>
<text text-anchor="start" x="882.5" y="-431.5" font-family="Helvetica,sans-Serif" font-size="10.00"># KeepAlive()</text>
</a>
</g>
</g>
<!-- Node5&#45;&gt;Node12 -->
<g id="edge15" class="edge"><title>Node5&#45;&gt;Node12</title>
<path fill="none" stroke="midnightblue" d="M556.474,-866.909C638.403,-852.438 778.012,-816.916 865.5,-735 868.617,-732.082 871.605,-728.998 874.47,-725.778"/>
<polygon fill="none" stroke="midnightblue" points="555.798,-863.474 546.532,-868.612 556.979,-870.374 555.798,-863.474"/>
</g>
<!-- Node14 -->
<g id="node12" class="node"><title>Node14</title>
<g id="a_node12"><a xlink:href="class_n_f_i_log_module.html" target="_top" xlink:title="{NFILogModule\n||+ LogDebug()\l+ LogInfo()\l+ LogWarning()\l+ LogError()\l+ LogFatal()\l+ LogDebug()\l+ LogInfo()\l+ LogWarning()\l+ LogError()\l+ LogFatal()\land 8 more...\l}">
<polygon fill="white" stroke="black" points="177,-496 177,-663 260,-663 260,-496 177,-496"/>
<text text-anchor="middle" x="218.5" y="-651" font-family="Helvetica,sans-Serif" font-size="10.00">NFILogModule</text>
<polyline fill="none" stroke="black" points="177,-644 260,-644 "/>
<text text-anchor="middle" x="218.5" y="-632" font-family="Helvetica,sans-Serif" font-size="10.00"> </text>
<polyline fill="none" stroke="black" points="177,-625 260,-625 "/>
<text text-anchor="start" x="185" y="-613" font-family="Helvetica,sans-Serif" font-size="10.00">+ LogDebug()</text>
<text text-anchor="start" x="185" y="-602" font-family="Helvetica,sans-Serif" font-size="10.00">+ LogInfo()</text>
<text text-anchor="start" x="185" y="-591" font-family="Helvetica,sans-Serif" font-size="10.00">+ LogWarning()</text>
<text text-anchor="start" x="185" y="-580" font-family="Helvetica,sans-Serif" font-size="10.00">+ LogError()</text>
<text text-anchor="start" x="185" y="-569" font-family="Helvetica,sans-Serif" font-size="10.00">+ LogFatal()</text>
<text text-anchor="start" x="185" y="-558" font-family="Helvetica,sans-Serif" font-size="10.00">+ LogDebug()</text>
<text text-anchor="start" x="185" y="-547" font-family="Helvetica,sans-Serif" font-size="10.00">+ LogInfo()</text>
<text text-anchor="start" x="185" y="-536" font-family="Helvetica,sans-Serif" font-size="10.00">+ LogWarning()</text>
<text text-anchor="start" x="185" y="-525" font-family="Helvetica,sans-Serif" font-size="10.00">+ LogError()</text>
<text text-anchor="start" x="185" y="-514" font-family="Helvetica,sans-Serif" font-size="10.00">+ LogFatal()</text>
<text text-anchor="start" x="185" y="-503" font-family="Helvetica,sans-Serif" font-size="10.00">and 8 more...</text>
</a>
</g>
</g>
<!-- Node5&#45;&gt;Node14 -->
<g id="edge18" class="edge"><title>Node5&#45;&gt;Node14</title>
<path fill="none" stroke="midnightblue" d="M424.975,-849.281C375.434,-825.951 309.209,-787.565 268.5,-735 252.36,-714.159 241.34,-687.932 233.853,-663.033"/>
<polygon fill="none" stroke="midnightblue" points="423.789,-852.588 434.335,-853.604 426.724,-846.233 423.789,-852.588"/>
</g>
<!-- Node6&#45;&gt;Node5 -->
<g id="edge3" class="edge"><title>Node6&#45;&gt;Node5</title>
<path fill="none" stroke="#404040" d="M329.982,-674.249C332.352,-704.392 338.831,-736.958 353.5,-764 369.801,-794.051 397.818,-819.14 424.285,-837.902"/>
<polygon fill="none" stroke="#404040" points="424.425,-837.998 431.635,-838.089 434.325,-844.78 427.114,-844.689 424.425,-837.998"/>
<text text-anchor="middle" x="393" y="-756" font-family="Helvetica,sans-Serif" font-size="10.00"> #pPluginManager</text>
</g>
<!-- Node7&#45;&gt;Node3 -->
<g id="edge5" class="edge"><title>Node7&#45;&gt;Node3</title>
<path fill="none" stroke="#404040" d="M527.446,-468.288C538.536,-440.094 551.735,-410.323 566.5,-384 582.108,-356.174 601.208,-327.92 620.529,-301.754"/>
<polygon fill="none" stroke="#404040" points="620.758,-301.448 621.143,-294.247 627.938,-291.833 627.553,-299.034 620.758,-301.448"/>
<text text-anchor="middle" x="609" y="-392.5" font-family="Helvetica,sans-Serif" font-size="10.00"> &#45;m_pKernelModule</text>
</g>
<!-- Node8&#45;&gt;Node3 -->
<g id="edge7" class="edge"><title>Node8&#45;&gt;Node3</title>
<path fill="none" stroke="#404040" d="M647.849,-550.891C647.424,-512.977 648.32,-442.804 658.5,-384 658.878,-381.818 659.272,-379.626 659.681,-377.426"/>
<polygon fill="none" stroke="#404040" points="659.692,-377.368 656.925,-370.709 662.007,-365.593 664.775,-372.252 659.692,-377.368"/>
<text text-anchor="middle" x="711.5" y="-392.5" font-family="Helvetica,sans-Serif" font-size="10.00"> &#45;m_pWorldLogicModule</text>
</g>
<!-- Node9&#45;&gt;Node3 -->
<g id="edge9" class="edge"><title>Node9&#45;&gt;Node3</title>
<path fill="none" stroke="#404040" d="M110.255,-501.474C130.363,-460.66 160.557,-413.088 201.5,-384 330.184,-292.576 506.206,-236.202 616.078,-207.495"/>
<polygon fill="none" stroke="#404040" points="616.2,-207.464 621.011,-202.092 627.819,-204.467 623.008,-209.839 616.2,-207.464"/>
<text text-anchor="middle" x="242.5" y="-392.5" font-family="Helvetica,sans-Serif" font-size="10.00"> &#45;m_pClassModule</text>
</g>
<!-- Node10 -->
<g id="node8" class="node"><title>Node10</title>
<g id="a_node8"><a xlink:href="class_n_f_map_ex.html" target="_top" xlink:title="{NFMapEx\&lt; std::string,\l NFIClass \&gt;\n|&#45; mObjectList\l&#45; mObjectCurIter\l|+ NFMapEx()\l+ ~NFMapEx()\l+ AddElement()\l+ SetElement()\l+ RemoveElement()\l+ GetElementNude()\l+ GetElement()\l+ FirstNude()\l+ FirstNude()\l+ NextNude()\land 7 more...\l}">
<polygon fill="white" stroke="black" points="21.5,-782.5 21.5,-971.5 137.5,-971.5 137.5,-782.5 21.5,-782.5"/>
<text text-anchor="start" x="29.5" y="-959.5" font-family="Helvetica,sans-Serif" font-size="10.00">NFMapEx&lt; std::string,</text>
<text text-anchor="middle" x="79.5" y="-948.5" font-family="Helvetica,sans-Serif" font-size="10.00"> NFIClass &gt;</text>
<polyline fill="none" stroke="black" points="21.5,-941.5 137.5,-941.5 "/>
<text text-anchor="start" x="29.5" y="-929.5" font-family="Helvetica,sans-Serif" font-size="10.00">&#45; mObjectList</text>
<text text-anchor="start" x="29.5" y="-918.5" font-family="Helvetica,sans-Serif" font-size="10.00">&#45; mObjectCurIter</text>
<polyline fill="none" stroke="black" points="21.5,-911.5 137.5,-911.5 "/>
<text text-anchor="start" x="29.5" y="-899.5" font-family="Helvetica,sans-Serif" font-size="10.00">+ NFMapEx()</text>
<text text-anchor="start" x="29.5" y="-888.5" font-family="Helvetica,sans-Serif" font-size="10.00">+ ~NFMapEx()</text>
<text text-anchor="start" x="29.5" y="-877.5" font-family="Helvetica,sans-Serif" font-size="10.00">+ AddElement()</text>
<text text-anchor="start" x="29.5" y="-866.5" font-family="Helvetica,sans-Serif" font-size="10.00">+ SetElement()</text>
<text text-anchor="start" x="29.5" y="-855.5" font-family="Helvetica,sans-Serif" font-size="10.00">+ RemoveElement()</text>
<text text-anchor="start" x="29.5" y="-844.5" font-family="Helvetica,sans-Serif" font-size="10.00">+ GetElementNude()</text>
<text text-anchor="start" x="29.5" y="-833.5" font-family="Helvetica,sans-Serif" font-size="10.00">+ GetElement()</text>
<text text-anchor="start" x="29.5" y="-822.5" font-family="Helvetica,sans-Serif" font-size="10.00">+ FirstNude()</text>
<text text-anchor="start" x="29.5" y="-811.5" font-family="Helvetica,sans-Serif" font-size="10.00">+ FirstNude()</text>
<text text-anchor="start" x="29.5" y="-800.5" font-family="Helvetica,sans-Serif" font-size="10.00">+ NextNude()</text>
<text text-anchor="start" x="29.5" y="-789.5" font-family="Helvetica,sans-Serif" font-size="10.00">and 7 more...</text>
</a>
</g>
</g>
<!-- Node10&#45;&gt;Node9 -->
<g id="edge11" class="edge"><title>Node10&#45;&gt;Node9</title>
<path fill="none" stroke="midnightblue" d="M79.5,-771.643C79.5,-734.168 79.5,-692.606 79.5,-657.835"/>
<polygon fill="none" stroke="midnightblue" points="76.0001,-772.096 79.5,-782.096 83.0001,-772.096 76.0001,-772.096"/>
</g>
<!-- Node11&#45;&gt;Node3 -->
<g id="edge12" class="edge"><title>Node11&#45;&gt;Node3</title>
<path fill="none" stroke="#404040" d="M780.699,-495.89C776.534,-461.213 771.032,-420.53 764.5,-384 764.111,-381.826 763.714,-379.64 763.31,-377.443"/>
<polygon fill="none" stroke="#404040" points="763.302,-377.404 758.26,-372.249 761.079,-365.612 766.121,-370.767 763.302,-377.404"/>
<text text-anchor="middle" x="815" y="-392.5" font-family="Helvetica,sans-Serif" font-size="10.00"> &#45;m_pElementModule</text>
</g>
<!-- Node12&#45;&gt;Node3 -->
<g id="edge14" class="edge"><title>Node12&#45;&gt;Node3</title>
<path fill="none" stroke="#404040" d="M884.734,-424.332C878.761,-410.463 872.336,-396.827 865.5,-384 851.365,-357.478 834.022,-330.563 816.267,-305.438"/>
<polygon fill="none" stroke="#404040" points="816.163,-305.292 809.419,-302.739 809.182,-295.532 815.926,-298.085 816.163,-305.292"/>
<text text-anchor="middle" x="912.5" y="-392.5" font-family="Helvetica,sans-Serif" font-size="10.00"> &#45;m_pNetModule</text>
</g>
<!-- Node13 -->
<g id="node11" class="node"><title>Node13</title>
<g id="a_node11"><a xlink:href="class_n_f_i_net.html" target="_top" xlink:title="{NFINet\n||+ Execute()\l+ Initialization()\l+ Initialization()\l+ Final()\l+ SendMsgWithOutHead()\l+ SendMsgWithOutHead()\l+ SendMsgToAllClient()\l+ SendMsgToAllClientWithOutHead()\l+ CloseNetObject()\l+ CloseNetObject()\l+ IsServer()\l+ Log()\l}">
<polygon fill="white" stroke="black" points="846.5,-788 846.5,-966 1024.5,-966 1024.5,-788 846.5,-788"/>
<text text-anchor="middle" x="935.5" y="-954" font-family="Helvetica,sans-Serif" font-size="10.00">NFINet</text>
<polyline fill="none" stroke="black" points="846.5,-947 1024.5,-947 "/>
<text text-anchor="middle" x="935.5" y="-935" font-family="Helvetica,sans-Serif" font-size="10.00"> </text>
<polyline fill="none" stroke="black" points="846.5,-928 1024.5,-928 "/>
<text text-anchor="start" x="854.5" y="-916" font-family="Helvetica,sans-Serif" font-size="10.00">+ Execute()</text>
<text text-anchor="start" x="854.5" y="-905" font-family="Helvetica,sans-Serif" font-size="10.00">+ Initialization()</text>
<text text-anchor="start" x="854.5" y="-894" font-family="Helvetica,sans-Serif" font-size="10.00">+ Initialization()</text>
<text text-anchor="start" x="854.5" y="-883" font-family="Helvetica,sans-Serif" font-size="10.00">+ Final()</text>
<text text-anchor="start" x="854.5" y="-872" font-family="Helvetica,sans-Serif" font-size="10.00">+ SendMsgWithOutHead()</text>
<text text-anchor="start" x="854.5" y="-861" font-family="Helvetica,sans-Serif" font-size="10.00">+ SendMsgWithOutHead()</text>
<text text-anchor="start" x="854.5" y="-850" font-family="Helvetica,sans-Serif" font-size="10.00">+ SendMsgToAllClient()</text>
<text text-anchor="start" x="854.5" y="-839" font-family="Helvetica,sans-Serif" font-size="10.00">+ SendMsgToAllClientWithOutHead()</text>
<text text-anchor="start" x="854.5" y="-828" font-family="Helvetica,sans-Serif" font-size="10.00">+ CloseNetObject()</text>
<text text-anchor="start" x="854.5" y="-817" font-family="Helvetica,sans-Serif" font-size="10.00">+ CloseNetObject()</text>
<text text-anchor="start" x="854.5" y="-806" font-family="Helvetica,sans-Serif" font-size="10.00">+ IsServer()</text>
<text text-anchor="start" x="854.5" y="-795" font-family="Helvetica,sans-Serif" font-size="10.00">+ Log()</text>
</a>
</g>
</g>
<!-- Node13&#45;&gt;Node12 -->
<g id="edge16" class="edge"><title>Node13&#45;&gt;Node12</title>
<path fill="none" stroke="#404040" d="M935.5,-787.741C935.5,-774.719 935.5,-760.956 935.5,-746.967"/>
<polygon fill="none" stroke="#404040" points="935.5,-746.627 931.5,-740.627 935.5,-734.627 939.5,-740.627 935.5,-746.627"/>
<text text-anchor="middle" x="955.5" y="-756" font-family="Helvetica,sans-Serif" font-size="10.00"> &#45;m_pNet</text>
</g>
<!-- Node14&#45;&gt;Node3 -->
<g id="edge17" class="edge"><title>Node14&#45;&gt;Node3</title>
<path fill="none" stroke="#404040" d="M232.792,-495.608C240.231,-470.55 251.49,-444.322 268.5,-424 359.885,-314.821 514.015,-248.107 616.009,-213.588"/>
<polygon fill="none" stroke="#404040" points="616.178,-213.532 620.606,-207.841 627.563,-209.74 623.134,-215.431 616.178,-213.532"/>
<text text-anchor="middle" x="343" y="-392.5" font-family="Helvetica,sans-Serif" font-size="10.00"> &#45;m_pLogModule</text>
</g>
<!-- Node15 -->
<g id="node13" class="node"><title>Node15</title>
<g id="a_node13"><a xlink:href="class_n_f_map_ex.html" target="_top" xlink:title="{NFMapEx\&lt; int, ServerData \&gt;\n|&#45; mObjectList\l&#45; mObjectCurIter\l|+ NFMapEx()\l+ ~NFMapEx()\l+ AddElement()\l+ SetElement()\l+ RemoveElement()\l+ GetElementNude()\l+ GetElement()\l+ FirstNude()\l+ FirstNude()\l+ NextNude()\land 7 more...\l}">
<polygon fill="white" stroke="black" points="1014.5,-490.5 1014.5,-668.5 1156.5,-668.5 1156.5,-490.5 1014.5,-490.5"/>
<text text-anchor="middle" x="1085.5" y="-656.5" font-family="Helvetica,sans-Serif" font-size="10.00">NFMapEx&lt; int, ServerData &gt;</text>
<polyline fill="none" stroke="black" points="1014.5,-649.5 1156.5,-649.5 "/>
<text text-anchor="start" x="1022.5" y="-637.5" font-family="Helvetica,sans-Serif" font-size="10.00">&#45; mObjectList</text>
<text text-anchor="start" x="1022.5" y="-626.5" font-family="Helvetica,sans-Serif" font-size="10.00">&#45; mObjectCurIter</text>
<polyline fill="none" stroke="black" points="1014.5,-619.5 1156.5,-619.5 "/>
<text text-anchor="start" x="1022.5" y="-607.5" font-family="Helvetica,sans-Serif" font-size="10.00">+ NFMapEx()</text>
<text text-anchor="start" x="1022.5" y="-596.5" font-family="Helvetica,sans-Serif" font-size="10.00">+ ~NFMapEx()</text>
<text text-anchor="start" x="1022.5" y="-585.5" font-family="Helvetica,sans-Serif" font-size="10.00">+ AddElement()</text>
<text text-anchor="start" x="1022.5" y="-574.5" font-family="Helvetica,sans-Serif" font-size="10.00">+ SetElement()</text>
<text text-anchor="start" x="1022.5" y="-563.5" font-family="Helvetica,sans-Serif" font-size="10.00">+ RemoveElement()</text>
<text text-anchor="start" x="1022.5" y="-552.5" font-family="Helvetica,sans-Serif" font-size="10.00">+ GetElementNude()</text>
<text text-anchor="start" x="1022.5" y="-541.5" font-family="Helvetica,sans-Serif" font-size="10.00">+ GetElement()</text>
<text text-anchor="start" x="1022.5" y="-530.5" font-family="Helvetica,sans-Serif" font-size="10.00">+ FirstNude()</text>
<text text-anchor="start" x="1022.5" y="-519.5" font-family="Helvetica,sans-Serif" font-size="10.00">+ FirstNude()</text>
<text text-anchor="start" x="1022.5" y="-508.5" font-family="Helvetica,sans-Serif" font-size="10.00">+ NextNude()</text>
<text text-anchor="start" x="1022.5" y="-497.5" font-family="Helvetica,sans-Serif" font-size="10.00">and 7 more...</text>
</a>
</g>
</g>
<!-- Node15&#45;&gt;Node3 -->
<g id="edge19" class="edge"><title>Node15&#45;&gt;Node3</title>
<path fill="none" stroke="#404040" d="M1047.4,-490.192C1035.61,-467.509 1021.47,-443.909 1005.5,-424 952.275,-357.649 878.399,-296.377 818.93,-252.35"/>
<polygon fill="none" stroke="#404040" points="818.81,-252.262 811.606,-251.935 809.138,-245.16 816.342,-245.487 818.81,-252.262"/>
<text text-anchor="middle" x="1016" y="-398" font-family="Helvetica,sans-Serif" font-size="10.00"> &#45;mProxyMap</text>
<text text-anchor="middle" x="1016" y="-387" font-family="Helvetica,sans-Serif" font-size="10.00">&#45;mGameMap</text>
</g>
</g>
</svg>
        <g id="navigator" transform="translate(0 0)" fill="#404254">
                <rect fill="#f2f5e9" fill-opacity="0.5" stroke="#606060" stroke-width=".5" x="0" y="0" width="60" height="60"/>
                <use id="zoomplus" xlink:href="#zoomPlus" x="17" y="9" onmousedown="handleZoom(evt,'in')"/>
                <use id="zoomminus" xlink:href="#zoomMin" x="42" y="9" onmousedown="handleZoom(evt,'out')"/>
                <use id="reset" xlink:href="#resetDef" x="30" y="36" onmousedown="handleReset()"/>
                <g id="arrowUp" xlink:href="#dirArrow" transform="translate(30 24)" onmousedown="handlePan(0,-1)">
                  <use xlink:href="#rim" fill="#404040">
                        <set attributeName="fill" to="#808080" begin="arrowUp.mouseover" end="arrowUp.mouseout"/>
                  </use>
                  <path fill="none" stroke="white" stroke-width="1.5" d="M0,-3.0v7 M-2.5,-0.5L0,-3.0L2.5,-0.5"/>
                </g>
                <g id="arrowRight" xlink:href="#dirArrow" transform="rotate(90) translate(36 -43)" onmousedown="handlePan(1,0)">
                  <use xlink:href="#rim" fill="#404040">
                        <set attributeName="fill" to="#808080" begin="arrowRight.mouseover" end="arrowRight.mouseout"/>
                  </use>
                  <path fill="none" stroke="white" stroke-width="1.5" d="M0,-3.0v7 M-2.5,-0.5L0,-3.0L2.5,-0.5"/>
                </g>
                <g id="arrowDown" xlink:href="#dirArrow" transform="rotate(180) translate(-30 -48)" onmousedown="handlePan(0,1)">
                  <use xlink:href="#rim" fill="#404040">
                        <set attributeName="fill" to="#808080" begin="arrowDown.mouseover" end="arrowDown.mouseout"/>
                  </use>
                  <path fill="none" stroke="white" stroke-width="1.5" d="M0,-3.0v7 M-2.5,-0.5L0,-3.0L2.5,-0.5"/>
                </g>
                <g id="arrowLeft" xlink:href="#dirArrow" transform="rotate(270) translate(-36 17)" onmousedown="handlePan(-1,0)">
                  <use xlink:href="#rim" fill="#404040">
                        <set attributeName="fill" to="#808080" begin="arrowLeft.mouseover" end="arrowLeft.mouseout"/>
                  </use>
                  <path fill="none" stroke="white" stroke-width="1.5" d="M0,-3.0v7 M-2.5,-0.5L0,-3.0L2.5,-0.5"/>
                </g>
        </g>
        <svg viewBox="0 0 15 15" width="100%" height="30px" preserveAspectRatio="xMaxYMin meet">
         <g id="arrow_out" transform="scale(0.3 0.3)">
          <a xlink:href="class_n_f_c_world_net___server_module__coll__graph_org.svg" target="_base">
           <rect id="button" ry="5" rx="5" y="6" x="6" height="38" width="38"
                fill="#f2f5e9" fill-opacity="0.5" stroke="#606060" stroke-width="1.0"/>
           <path id="arrow"
             d="M 11.500037,31.436501 C 11.940474,20.09759 22.043105,11.32322 32.158766,21.979434 L 37.068811,17.246167 C 37.068811,17.246167 37.088388,32 37.088388,32 L 22.160133,31.978069 C 22.160133,31.978069 26.997745,27.140456 26.997745,27.140456 C 18.528582,18.264221 13.291696,25.230495 11.500037,31.436501 z"
             style="fill:#404040;"/>
          </a>
         </g>
        </svg>
</svg>
