<?xml version="1.0" encoding="UTF-8" standalone="no"?>
<!DOCTYPE svg PUBLIC "-//W3C//DTD SVG 1.1//EN"
 "http://www.w3.org/Graphics/SVG/1.1/DTD/svg11.dtd">
<!-- Generated by graphviz version 2.38.0 (20140413.2041)
 -->
<!-- Title: NFCMemManger Pages: 1 -->
<svg width="169pt" height="248pt"
 viewBox="0.00 0.00 169.00 248.00" xmlns="http://www.w3.org/2000/svg" xmlns:xlink="http://www.w3.org/1999/xlink">
<g id="graph0" class="graph" transform="scale(1 1) rotate(0) translate(4 244)">
<title>NFCMemManger</title>
<polygon fill="white" stroke="none" points="-4,4 -4,-244 165,-244 165,4 -4,4"/>
<!-- Node0 -->
<g id="node1" class="node"><title>Node0</title>
<polygon fill="#bfbfbf" stroke="black" points="25,-0.5 25,-79.5 136,-79.5 136,-0.5 25,-0.5"/>
<text text-anchor="middle" x="80.5" y="-67.5" font-family="Helvetica,sans-Serif" font-size="10.00">NFCMemManger</text>
<polyline fill="none" stroke="black" points="25,-60.5 136,-60.5 "/>
<text text-anchor="middle" x="80.5" y="-48.5" font-family="Helvetica,sans-Serif" font-size="10.00"> </text>
<polyline fill="none" stroke="black" points="25,-41.5 136,-41.5 "/>
<text text-anchor="start" x="33" y="-29.5" font-family="Helvetica,sans-Serif" font-size="10.00">+ NFCMemManger()</text>
<text text-anchor="start" x="33" y="-18.5" font-family="Helvetica,sans-Serif" font-size="10.00">+ ~NFCMemManger()</text>
<text text-anchor="start" x="33" y="-7.5" font-family="Helvetica,sans-Serif" font-size="10.00">+ FreeMem()</text>
</g>
<!-- Node1 -->
<g id="node2" class="node"><title>Node1</title>
<g id="a_node2"><a xlink:href="class_n_f_singleton.html" target="_top" xlink:title="{NFSingleton\&lt; NFCMemManger \&gt;\n|&#45; m_pInstance\l|+ NFSingleton()\l+ ~NFSingleton()\l+ GetSingletonPtr()\l+ GetSingletonRef()\l+ Instance()\l+ InstanceRef()\l+ ReleaseInstance()\l}">
<polygon fill="white" stroke="black" points="0,-116.5 0,-239.5 161,-239.5 161,-116.5 0,-116.5"/>
<text text-anchor="middle" x="80.5" y="-227.5" font-family="Helvetica,sans-Serif" font-size="10.00">NFSingleton&lt; NFCMemManger &gt;</text>
<polyline fill="none" stroke="black" points="0,-220.5 161,-220.5 "/>
<text text-anchor="start" x="8" y="-208.5" font-family="Helvetica,sans-Serif" font-size="10.00">&#45; m_pInstance</text>
<polyline fill="none" stroke="black" points="0,-201.5 161,-201.5 "/>
<text text-anchor="start" x="8" y="-189.5" font-family="Helvetica,sans-Serif" font-size="10.00">+ NFSingleton()</text>
<text text-anchor="start" x="8" y="-178.5" font-family="Helvetica,sans-Serif" font-size="10.00">+ ~NFSingleton()</text>
<text text-anchor="start" x="8" y="-167.5" font-family="Helvetica,sans-Serif" font-size="10.00">+ GetSingletonPtr()</text>
<text text-anchor="start" x="8" y="-156.5" font-family="Helvetica,sans-Serif" font-size="10.00">+ GetSingletonRef()</text>
<text text-anchor="start" x="8" y="-145.5" font-family="Helvetica,sans-Serif" font-size="10.00">+ Instance()</text>
<text text-anchor="start" x="8" y="-134.5" font-family="Helvetica,sans-Serif" font-size="10.00">+ InstanceRef()</text>
<text text-anchor="start" x="8" y="-123.5" font-family="Helvetica,sans-Serif" font-size="10.00">+ ReleaseInstance()</text>
</a>
</g>
</g>
<!-- Node1&#45;&gt;Node0 -->
<g id="edge1" class="edge"><title>Node1&#45;&gt;Node0</title>
<path fill="none" stroke="midnightblue" d="M80.5,-105.911C80.5,-96.8309 80.5,-87.824 80.5,-79.5403"/>
<polygon fill="none" stroke="midnightblue" points="77.0001,-106.16 80.5,-116.16 84.0001,-106.16 77.0001,-106.16"/>
</g>
</g>
</svg>
