<?xml version="1.0" encoding="UTF-8" standalone="no"?>
<!DOCTYPE svg PUBLIC "-//W3C//DTD SVG 1.1//EN"
 "http://www.w3.org/Graphics/SVG/1.1/DTD/svg11.dtd">
<!-- Generated by graphviz version 2.38.0 (20140413.2041)
 -->
<!-- Title: NFCMasterNet_ServerModule Pages: 1 -->
<!--zoomable 903 -->
<svg id="main" version="1.1" xmlns="http://www.w3.org/2000/svg" xmlns:xlink="http://www.w3.org/1999/xlink" xml:space="preserve" onload="init(evt)">
<style type="text/css"><![CDATA[
.edge:hover path { stroke: red; }
.edge:hover polygon { stroke: red; fill: red; }
]]></style>
<script type="text/javascript"><![CDATA[
var edges = document.getElementsByTagName('g');
if (edges && edges.length) {
  for (var i=0;i<edges.length;i++) {
    if (edges[i].id.substr(0,4)=='edge') {
      edges[i].setAttribute('class','edge');
    }
  }
}
]]></script>
        <defs>
                <circle id="rim" cx="0" cy="0" r="7"/>
                <circle id="rim2" cx="0" cy="0" r="3.5"/>
                <g id="zoomPlus">
                        <use xlink:href="#rim" fill="#404040">
                                <set attributeName="fill" to="#808080" begin="zoomplus.mouseover" end="zoomplus.mouseout"/>
                        </use>
                        <path d="M-4,0h8M0,-4v8" fill="none" stroke="white" stroke-width="1.5" pointer-events="none"/>
                </g>
                <g id="zoomMin">
                        <use xlink:href="#rim" fill="#404040">
                                <set attributeName="fill" to="#808080" begin="zoomminus.mouseover" end="zoomminus.mouseout"/>
                        </use>
                        <path d="M-4,0h8" fill="none" stroke="white" stroke-width="1.5" pointer-events="none"/>
                </g>
                <g id="dirArrow">
                        <path fill="none" stroke="white" stroke-width="1.5" d="M0,-3.0v7 M-2.5,-0.5L0,-3.0L2.5,-0.5"/>
                </g>
               <g id="resetDef">
                       <use xlink:href="#rim2" fill="#404040">
                               <set attributeName="fill" to="#808080" begin="reset.mouseover" end="reset.mouseout"/>
                       </use>
               </g>
        </defs>

<script type="text/javascript">
var viewWidth = 1194;
var viewHeight = 903;
var sectionId = 'dynsection-1';
</script>
<script xlink:href="svgpan.js"/>
<svg id="graph" class="graph">
<g id="viewport">
<title>NFCMasterNet_ServerModule</title>
<polygon fill="white" stroke="none" points="-4,4 -4,-899 1189.5,-899 1189.5,4 -4,4"/>
<!-- Node3 -->
<g id="node1" class="node"><title>Node3</title>
<polygon fill="#bfbfbf" stroke="black" points="549.5,-0.5 549.5,-288.5 713.5,-288.5 713.5,-0.5 549.5,-0.5"/>
<text text-anchor="middle" x="631.5" y="-276.5" font-family="Helvetica,sans-Serif" font-size="10.00">NFCMasterNet_ServerModule</text>
<polyline fill="none" stroke="black" points="549.5,-269.5 713.5,-269.5 "/>
<text text-anchor="start" x="557.5" y="-257.5" font-family="Helvetica,sans-Serif" font-size="10.00">&#45; mnLastLogTime</text>
<polyline fill="none" stroke="black" points="549.5,-250.5 713.5,-250.5 "/>
<text text-anchor="start" x="557.5" y="-238.5" font-family="Helvetica,sans-Serif" font-size="10.00">+ NFCMasterNet_ServerModule()</text>
<text text-anchor="start" x="557.5" y="-227.5" font-family="Helvetica,sans-Serif" font-size="10.00">+ Init()</text>
<text text-anchor="start" x="557.5" y="-216.5" font-family="Helvetica,sans-Serif" font-size="10.00">+ Shut()</text>
<text text-anchor="start" x="557.5" y="-205.5" font-family="Helvetica,sans-Serif" font-size="10.00">+ AfterInit()</text>
<text text-anchor="start" x="557.5" y="-194.5" font-family="Helvetica,sans-Serif" font-size="10.00">+ Execute()</text>
<text text-anchor="start" x="557.5" y="-183.5" font-family="Helvetica,sans-Serif" font-size="10.00">+ LogReceive()</text>
<text text-anchor="start" x="557.5" y="-172.5" font-family="Helvetica,sans-Serif" font-size="10.00">+ LogSend()</text>
<text text-anchor="start" x="557.5" y="-161.5" font-family="Helvetica,sans-Serif" font-size="10.00"># OnSocketEvent()</text>
<text text-anchor="start" x="557.5" y="-150.5" font-family="Helvetica,sans-Serif" font-size="10.00"># OnClientDisconnect()</text>
<text text-anchor="start" x="557.5" y="-139.5" font-family="Helvetica,sans-Serif" font-size="10.00"># OnClientConnected()</text>
<text text-anchor="start" x="557.5" y="-128.5" font-family="Helvetica,sans-Serif" font-size="10.00"># OnWorldRegisteredProcess()</text>
<text text-anchor="start" x="557.5" y="-117.5" font-family="Helvetica,sans-Serif" font-size="10.00"># OnWorldUnRegisteredProcess()</text>
<text text-anchor="start" x="557.5" y="-106.5" font-family="Helvetica,sans-Serif" font-size="10.00"># OnRefreshWorldInfoProcess()</text>
<text text-anchor="start" x="557.5" y="-95.5" font-family="Helvetica,sans-Serif" font-size="10.00"># OnLoginRegisteredProcess()</text>
<text text-anchor="start" x="557.5" y="-84.5" font-family="Helvetica,sans-Serif" font-size="10.00"># OnLoginUnRegisteredProcess()</text>
<text text-anchor="start" x="557.5" y="-73.5" font-family="Helvetica,sans-Serif" font-size="10.00"># OnRefreshLoginInfoProcess()</text>
<text text-anchor="start" x="557.5" y="-62.5" font-family="Helvetica,sans-Serif" font-size="10.00"># OnSelectWorldProcess()</text>
<text text-anchor="start" x="557.5" y="-51.5" font-family="Helvetica,sans-Serif" font-size="10.00"># OnSelectServerResultProcess()</text>
<text text-anchor="start" x="557.5" y="-40.5" font-family="Helvetica,sans-Serif" font-size="10.00"># SynWorldToLogin()</text>
<text text-anchor="start" x="557.5" y="-29.5" font-family="Helvetica,sans-Serif" font-size="10.00"># LogGameServer()</text>
<text text-anchor="start" x="557.5" y="-18.5" font-family="Helvetica,sans-Serif" font-size="10.00"># OnHeartBeat()</text>
<text text-anchor="start" x="557.5" y="-7.5" font-family="Helvetica,sans-Serif" font-size="10.00"># InvalidMessage()</text>
</g>
<!-- Node4 -->
<g id="node2" class="node"><title>Node4</title>
<g id="a_node2"><a xlink:href="class_n_f_i_master_net___server_module.html" target="_top" xlink:title="{NFIMasterNet_ServerModule\n||}">
<polygon fill="white" stroke="black" points="1045.5,-474 1045.5,-531 1185.5,-531 1185.5,-474 1045.5,-474"/>
<text text-anchor="middle" x="1115.5" y="-519" font-family="Helvetica,sans-Serif" font-size="10.00">NFIMasterNet_ServerModule</text>
<polyline fill="none" stroke="black" points="1045.5,-512 1185.5,-512 "/>
<text text-anchor="middle" x="1115.5" y="-500" font-family="Helvetica,sans-Serif" font-size="10.00"> </text>
<polyline fill="none" stroke="black" points="1045.5,-493 1185.5,-493 "/>
<text text-anchor="middle" x="1115.5" y="-481" font-family="Helvetica,sans-Serif" font-size="10.00"> </text>
</a>
</g>
</g>
<!-- Node4&#45;&gt;Node3 -->
<g id="edge1" class="edge"><title>Node4&#45;&gt;Node3</title>
<path fill="none" stroke="midnightblue" d="M1104.07,-464.382C1091.97,-430.25 1069.93,-380.068 1036.5,-347 944.37,-255.877 802.756,-198.51 713.719,-169.24"/>
<polygon fill="none" stroke="midnightblue" points="1100.81,-465.666 1107.37,-473.989 1107.43,-463.394 1100.81,-465.666"/>
</g>
<!-- Node5 -->
<g id="node3" class="node"><title>Node5</title>
<g id="a_node3"><a xlink:href="class_n_f_i_module.html" target="_top" xlink:title="{NFIModule\n|+ strName\l# mbReloading\l|+ NFIModule()\l+ ~NFIModule()\l+ Init()\l+ AfterInit()\l+ CheckConfig()\l+ BeforeShut()\l+ Shut()\l+ Execute()\l+ StartReLoadState()\l+ EndReLoadState()\l+ GetPluginManager()\l+ Loading()\l}">
<polygon fill="white" stroke="black" points="417.5,-705.5 417.5,-894.5 529.5,-894.5 529.5,-705.5 417.5,-705.5"/>
<text text-anchor="middle" x="473.5" y="-882.5" font-family="Helvetica,sans-Serif" font-size="10.00">NFIModule</text>
<polyline fill="none" stroke="black" points="417.5,-875.5 529.5,-875.5 "/>
<text text-anchor="start" x="425.5" y="-863.5" font-family="Helvetica,sans-Serif" font-size="10.00">+ strName</text>
<text text-anchor="start" x="425.5" y="-852.5" font-family="Helvetica,sans-Serif" font-size="10.00"># mbReloading</text>
<polyline fill="none" stroke="black" points="417.5,-845.5 529.5,-845.5 "/>
<text text-anchor="start" x="425.5" y="-833.5" font-family="Helvetica,sans-Serif" font-size="10.00">+ NFIModule()</text>
<text text-anchor="start" x="425.5" y="-822.5" font-family="Helvetica,sans-Serif" font-size="10.00">+ ~NFIModule()</text>
<text text-anchor="start" x="425.5" y="-811.5" font-family="Helvetica,sans-Serif" font-size="10.00">+ Init()</text>
<text text-anchor="start" x="425.5" y="-800.5" font-family="Helvetica,sans-Serif" font-size="10.00">+ AfterInit()</text>
<text text-anchor="start" x="425.5" y="-789.5" font-family="Helvetica,sans-Serif" font-size="10.00">+ CheckConfig()</text>
<text text-anchor="start" x="425.5" y="-778.5" font-family="Helvetica,sans-Serif" font-size="10.00">+ BeforeShut()</text>
<text text-anchor="start" x="425.5" y="-767.5" font-family="Helvetica,sans-Serif" font-size="10.00">+ Shut()</text>
<text text-anchor="start" x="425.5" y="-756.5" font-family="Helvetica,sans-Serif" font-size="10.00">+ Execute()</text>
<text text-anchor="start" x="425.5" y="-745.5" font-family="Helvetica,sans-Serif" font-size="10.00">+ StartReLoadState()</text>
<text text-anchor="start" x="425.5" y="-734.5" font-family="Helvetica,sans-Serif" font-size="10.00">+ EndReLoadState()</text>
<text text-anchor="start" x="425.5" y="-723.5" font-family="Helvetica,sans-Serif" font-size="10.00">+ GetPluginManager()</text>
<text text-anchor="start" x="425.5" y="-712.5" font-family="Helvetica,sans-Serif" font-size="10.00">+ Loading()</text>
</a>
</g>
</g>
<!-- Node5&#45;&gt;Node4 -->
<g id="edge2" class="edge"><title>Node5&#45;&gt;Node4</title>
<path fill="none" stroke="midnightblue" d="M539.951,-799.4C653.784,-796.703 888.126,-775.976 1036.5,-658 1077.41,-625.47 1099.16,-566.068 1108.92,-531.16"/>
<polygon fill="none" stroke="midnightblue" points="539.578,-795.907 529.649,-799.603 539.716,-802.905 539.578,-795.907"/>
</g>
<!-- Node6 -->
<g id="node4" class="node"><title>Node6</title>
<g id="a_node4"><a xlink:href="class_n_f_i_plugin_manager.html" target="_top" xlink:title="{NFIPluginManager\n||+ NFIPluginManager()\l+ FindModule()\l+ Registered()\l+ UnRegistered()\l+ FindPlugin()\l+ AddModule()\l+ RemoveModule()\l+ FindModule()\l+ AppID()\l+ GetInitTime()\l+ GetNowTime()\l+ GetConfigPath()\l+ SetConfigName()\l}">
<polygon fill="white" stroke="black" points="419,-408 419,-597 530,-597 530,-408 419,-408"/>
<text text-anchor="middle" x="474.5" y="-585" font-family="Helvetica,sans-Serif" font-size="10.00">NFIPluginManager</text>
<polyline fill="none" stroke="black" points="419,-578 530,-578 "/>
<text text-anchor="middle" x="474.5" y="-566" font-family="Helvetica,sans-Serif" font-size="10.00"> </text>
<polyline fill="none" stroke="black" points="419,-559 530,-559 "/>
<text text-anchor="start" x="427" y="-547" font-family="Helvetica,sans-Serif" font-size="10.00">+ NFIPluginManager()</text>
<text text-anchor="start" x="427" y="-536" font-family="Helvetica,sans-Serif" font-size="10.00">+ FindModule()</text>
<text text-anchor="start" x="427" y="-525" font-family="Helvetica,sans-Serif" font-size="10.00">+ Registered()</text>
<text text-anchor="start" x="427" y="-514" font-family="Helvetica,sans-Serif" font-size="10.00">+ UnRegistered()</text>
<text text-anchor="start" x="427" y="-503" font-family="Helvetica,sans-Serif" font-size="10.00">+ FindPlugin()</text>
<text text-anchor="start" x="427" y="-492" font-family="Helvetica,sans-Serif" font-size="10.00">+ AddModule()</text>
<text text-anchor="start" x="427" y="-481" font-family="Helvetica,sans-Serif" font-size="10.00">+ RemoveModule()</text>
<text text-anchor="start" x="427" y="-470" font-family="Helvetica,sans-Serif" font-size="10.00">+ FindModule()</text>
<text text-anchor="start" x="427" y="-459" font-family="Helvetica,sans-Serif" font-size="10.00">+ AppID()</text>
<text text-anchor="start" x="427" y="-448" font-family="Helvetica,sans-Serif" font-size="10.00">+ GetInitTime()</text>
<text text-anchor="start" x="427" y="-437" font-family="Helvetica,sans-Serif" font-size="10.00">+ GetNowTime()</text>
<text text-anchor="start" x="427" y="-426" font-family="Helvetica,sans-Serif" font-size="10.00">+ GetConfigPath()</text>
<text text-anchor="start" x="427" y="-415" font-family="Helvetica,sans-Serif" font-size="10.00">+ SetConfigName()</text>
</a>
</g>
</g>
<!-- Node5&#45;&gt;Node6 -->
<g id="edge4" class="edge"><title>Node5&#45;&gt;Node6</title>
<path fill="none" stroke="midnightblue" d="M471.583,-695.295C471.552,-692.501 471.524,-689.732 471.5,-687 471.24,-657.848 471.549,-626.092 472.053,-597.319"/>
<polygon fill="none" stroke="midnightblue" points="468.085,-695.543 471.706,-705.5 475.085,-695.458 468.085,-695.543"/>
</g>
<!-- Node7 -->
<g id="node5" class="node"><title>Node7</title>
<g id="a_node5"><a xlink:href="class_n_f_i_kernel_module.html" target="_top" xlink:title="{NFIKernelModule\n||+ AddHeartBeat()\l+ FindHeartBeat()\l+ RemoveHeartBeat()\l+ AddRecordCallBack()\l+ AddPropertyCallBack()\l+ AddEventCallBack()\l+ AddClassCallBack()\l+ DoEvent()\l+ DoEvent()\l+ RegisterCommonClassEvent()\land 56 more...\l# AddEventCallBack()\l# AddClassCallBack()\l# RegisterCommonClassEvent()\l# RegisterCommonPropertyEvent()\l# RegisterCommonRecordEvent()\l}">
<polygon fill="white" stroke="black" points="548,-391.5 548,-613.5 715,-613.5 715,-391.5 548,-391.5"/>
<text text-anchor="middle" x="631.5" y="-601.5" font-family="Helvetica,sans-Serif" font-size="10.00">NFIKernelModule</text>
<polyline fill="none" stroke="black" points="548,-594.5 715,-594.5 "/>
<text text-anchor="middle" x="631.5" y="-582.5" font-family="Helvetica,sans-Serif" font-size="10.00"> </text>
<polyline fill="none" stroke="black" points="548,-575.5 715,-575.5 "/>
<text text-anchor="start" x="556" y="-563.5" font-family="Helvetica,sans-Serif" font-size="10.00">+ AddHeartBeat()</text>
<text text-anchor="start" x="556" y="-552.5" font-family="Helvetica,sans-Serif" font-size="10.00">+ FindHeartBeat()</text>
<text text-anchor="start" x="556" y="-541.5" font-family="Helvetica,sans-Serif" font-size="10.00">+ RemoveHeartBeat()</text>
<text text-anchor="start" x="556" y="-530.5" font-family="Helvetica,sans-Serif" font-size="10.00">+ AddRecordCallBack()</text>
<text text-anchor="start" x="556" y="-519.5" font-family="Helvetica,sans-Serif" font-size="10.00">+ AddPropertyCallBack()</text>
<text text-anchor="start" x="556" y="-508.5" font-family="Helvetica,sans-Serif" font-size="10.00">+ AddEventCallBack()</text>
<text text-anchor="start" x="556" y="-497.5" font-family="Helvetica,sans-Serif" font-size="10.00">+ AddClassCallBack()</text>
<text text-anchor="start" x="556" y="-486.5" font-family="Helvetica,sans-Serif" font-size="10.00">+ DoEvent()</text>
<text text-anchor="start" x="556" y="-475.5" font-family="Helvetica,sans-Serif" font-size="10.00">+ DoEvent()</text>
<text text-anchor="start" x="556" y="-464.5" font-family="Helvetica,sans-Serif" font-size="10.00">+ RegisterCommonClassEvent()</text>
<text text-anchor="start" x="556" y="-453.5" font-family="Helvetica,sans-Serif" font-size="10.00">and 56 more...</text>
<text text-anchor="start" x="556" y="-442.5" font-family="Helvetica,sans-Serif" font-size="10.00"># AddEventCallBack()</text>
<text text-anchor="start" x="556" y="-431.5" font-family="Helvetica,sans-Serif" font-size="10.00"># AddClassCallBack()</text>
<text text-anchor="start" x="556" y="-420.5" font-family="Helvetica,sans-Serif" font-size="10.00"># RegisterCommonClassEvent()</text>
<text text-anchor="start" x="556" y="-409.5" font-family="Helvetica,sans-Serif" font-size="10.00"># RegisterCommonPropertyEvent()</text>
<text text-anchor="start" x="556" y="-398.5" font-family="Helvetica,sans-Serif" font-size="10.00"># RegisterCommonRecordEvent()</text>
</a>
</g>
</g>
<!-- Node5&#45;&gt;Node7 -->
<g id="edge6" class="edge"><title>Node5&#45;&gt;Node7</title>
<path fill="none" stroke="midnightblue" d="M535.339,-721.898C543.279,-710.507 550.92,-698.67 557.5,-687 570.407,-664.11 582.208,-638.514 592.411,-613.873"/>
<polygon fill="none" stroke="midnightblue" points="532.448,-719.924 529.516,-730.105 538.157,-723.975 532.448,-719.924"/>
</g>
<!-- Node8 -->
<g id="node6" class="node"><title>Node8</title>
<g id="a_node6"><a xlink:href="class_n_f_i_class_module.html" target="_top" xlink:title="{NFIClassModule\n||+ ~NFIClassModule()\l+ Load()\l+ Save()\l+ Clear()\l+ AddClassCallBack()\l+ DoEvent()\l+ AddClassCallBack()\l+ GetClassPropertyManager()\l+ GetClassRecordManager()\l+ GetClassComponentManager()\l}">
<polygon fill="white" stroke="black" points="0,-424.5 0,-580.5 159,-580.5 159,-424.5 0,-424.5"/>
<text text-anchor="middle" x="79.5" y="-568.5" font-family="Helvetica,sans-Serif" font-size="10.00">NFIClassModule</text>
<polyline fill="none" stroke="black" points="0,-561.5 159,-561.5 "/>
<text text-anchor="middle" x="79.5" y="-549.5" font-family="Helvetica,sans-Serif" font-size="10.00"> </text>
<polyline fill="none" stroke="black" points="0,-542.5 159,-542.5 "/>
<text text-anchor="start" x="8" y="-530.5" font-family="Helvetica,sans-Serif" font-size="10.00">+ ~NFIClassModule()</text>
<text text-anchor="start" x="8" y="-519.5" font-family="Helvetica,sans-Serif" font-size="10.00">+ Load()</text>
<text text-anchor="start" x="8" y="-508.5" font-family="Helvetica,sans-Serif" font-size="10.00">+ Save()</text>
<text text-anchor="start" x="8" y="-497.5" font-family="Helvetica,sans-Serif" font-size="10.00">+ Clear()</text>
<text text-anchor="start" x="8" y="-486.5" font-family="Helvetica,sans-Serif" font-size="10.00">+ AddClassCallBack()</text>
<text text-anchor="start" x="8" y="-475.5" font-family="Helvetica,sans-Serif" font-size="10.00">+ DoEvent()</text>
<text text-anchor="start" x="8" y="-464.5" font-family="Helvetica,sans-Serif" font-size="10.00">+ AddClassCallBack()</text>
<text text-anchor="start" x="8" y="-453.5" font-family="Helvetica,sans-Serif" font-size="10.00">+ GetClassPropertyManager()</text>
<text text-anchor="start" x="8" y="-442.5" font-family="Helvetica,sans-Serif" font-size="10.00">+ GetClassRecordManager()</text>
<text text-anchor="start" x="8" y="-431.5" font-family="Helvetica,sans-Serif" font-size="10.00">+ GetClassComponentManager()</text>
</a>
</g>
</g>
<!-- Node5&#45;&gt;Node8 -->
<g id="edge8" class="edge"><title>Node5&#45;&gt;Node8</title>
<path fill="none" stroke="midnightblue" d="M409.019,-751.298C387.322,-735.916 362.722,-719.189 339.5,-705 315.919,-690.592 310.735,-684.682 284.5,-676 234.969,-659.609 211.529,-687.504 168.5,-658 141.183,-639.269 121.153,-609.205 107.091,-580.554"/>
<polygon fill="none" stroke="midnightblue" points="407.009,-754.163 417.184,-757.119 411.073,-748.464 407.009,-754.163"/>
</g>
<!-- Node10 -->
<g id="node8" class="node"><title>Node10</title>
<g id="a_node8"><a xlink:href="class_n_f_i_element_module.html" target="_top" xlink:title="{NFIElementModule\n||+ Load()\l+ Save()\l+ Clear()\l+ ExistElement()\l+ ExistElement()\l+ GetPropertyManager()\l+ GetRecordManager()\l+ GetComponentManager()\l+ GetPropertyInt()\l+ GetPropertyFloat()\l+ GetPropertyString()\l}">
<polygon fill="white" stroke="black" points="733.5,-419 733.5,-586 867.5,-586 867.5,-419 733.5,-419"/>
<text text-anchor="middle" x="800.5" y="-574" font-family="Helvetica,sans-Serif" font-size="10.00">NFIElementModule</text>
<polyline fill="none" stroke="black" points="733.5,-567 867.5,-567 "/>
<text text-anchor="middle" x="800.5" y="-555" font-family="Helvetica,sans-Serif" font-size="10.00"> </text>
<polyline fill="none" stroke="black" points="733.5,-548 867.5,-548 "/>
<text text-anchor="start" x="741.5" y="-536" font-family="Helvetica,sans-Serif" font-size="10.00">+ Load()</text>
<text text-anchor="start" x="741.5" y="-525" font-family="Helvetica,sans-Serif" font-size="10.00">+ Save()</text>
<text text-anchor="start" x="741.5" y="-514" font-family="Helvetica,sans-Serif" font-size="10.00">+ Clear()</text>
<text text-anchor="start" x="741.5" y="-503" font-family="Helvetica,sans-Serif" font-size="10.00">+ ExistElement()</text>
<text text-anchor="start" x="741.5" y="-492" font-family="Helvetica,sans-Serif" font-size="10.00">+ ExistElement()</text>
<text text-anchor="start" x="741.5" y="-481" font-family="Helvetica,sans-Serif" font-size="10.00">+ GetPropertyManager()</text>
<text text-anchor="start" x="741.5" y="-470" font-family="Helvetica,sans-Serif" font-size="10.00">+ GetRecordManager()</text>
<text text-anchor="start" x="741.5" y="-459" font-family="Helvetica,sans-Serif" font-size="10.00">+ GetComponentManager()</text>
<text text-anchor="start" x="741.5" y="-448" font-family="Helvetica,sans-Serif" font-size="10.00">+ GetPropertyInt()</text>
<text text-anchor="start" x="741.5" y="-437" font-family="Helvetica,sans-Serif" font-size="10.00">+ GetPropertyFloat()</text>
<text text-anchor="start" x="741.5" y="-426" font-family="Helvetica,sans-Serif" font-size="10.00">+ GetPropertyString()</text>
</a>
</g>
</g>
<!-- Node5&#45;&gt;Node10 -->
<g id="edge11" class="edge"><title>Node5&#45;&gt;Node10</title>
<path fill="none" stroke="midnightblue" d="M539,-774.834C593.993,-751.81 671.669,-712.554 723.5,-658 742.904,-637.577 758.44,-611.321 770.332,-586.27"/>
<polygon fill="none" stroke="midnightblue" points="537.607,-771.622 529.693,-778.666 540.273,-778.095 537.607,-771.622"/>
</g>
<!-- Node11 -->
<g id="node9" class="node"><title>Node11</title>
<g id="a_node9"><a xlink:href="class_n_f_i_net_module.html" target="_top" xlink:title="{NFINetModule\n|&#45; nLastTime\l&#45; mxReceiveCallBack\l&#45; mxEventCallBackList\l&#45; mxCallBackList\l|+ NFINetModule()\l+ NFINetModule()\l+ ~NFINetModule()\l+ Initialization()\l+ Initialization()\l+ AddReceiveCallBack()\l+ AddReceiveCallBack()\l+ AddReceiveCallBack()\l+ AddReceiveCallBack()\l+ AddEventCallBack()\land 10 more...\l+ PBToNF()\l+ NFToPB()\l+ PBToNF()\l+ NFToPB()\l+ ReceivePB()\l+ ReceivePB()\l# NFINetModule()\l# OnReceiveNetPack()\l# OnSocketNetEvent()\l# KeepAlive()\l}">
<polygon fill="white" stroke="black" points="177.5,-347.5 177.5,-657.5 299.5,-657.5 299.5,-347.5 177.5,-347.5"/>
<text text-anchor="middle" x="238.5" y="-645.5" font-family="Helvetica,sans-Serif" font-size="10.00">NFINetModule</text>
<polyline fill="none" stroke="black" points="177.5,-638.5 299.5,-638.5 "/>
<text text-anchor="start" x="185.5" y="-626.5" font-family="Helvetica,sans-Serif" font-size="10.00">&#45; nLastTime</text>
<text text-anchor="start" x="185.5" y="-615.5" font-family="Helvetica,sans-Serif" font-size="10.00">&#45; mxReceiveCallBack</text>
<text text-anchor="start" x="185.5" y="-604.5" font-family="Helvetica,sans-Serif" font-size="10.00">&#45; mxEventCallBackList</text>
<text text-anchor="start" x="185.5" y="-593.5" font-family="Helvetica,sans-Serif" font-size="10.00">&#45; mxCallBackList</text>
<polyline fill="none" stroke="black" points="177.5,-586.5 299.5,-586.5 "/>
<text text-anchor="start" x="185.5" y="-574.5" font-family="Helvetica,sans-Serif" font-size="10.00">+ NFINetModule()</text>
<text text-anchor="start" x="185.5" y="-563.5" font-family="Helvetica,sans-Serif" font-size="10.00">+ NFINetModule()</text>
<text text-anchor="start" x="185.5" y="-552.5" font-family="Helvetica,sans-Serif" font-size="10.00">+ ~NFINetModule()</text>
<text text-anchor="start" x="185.5" y="-541.5" font-family="Helvetica,sans-Serif" font-size="10.00">+ Initialization()</text>
<text text-anchor="start" x="185.5" y="-530.5" font-family="Helvetica,sans-Serif" font-size="10.00">+ Initialization()</text>
<text text-anchor="start" x="185.5" y="-519.5" font-family="Helvetica,sans-Serif" font-size="10.00">+ AddReceiveCallBack()</text>
<text text-anchor="start" x="185.5" y="-508.5" font-family="Helvetica,sans-Serif" font-size="10.00">+ AddReceiveCallBack()</text>
<text text-anchor="start" x="185.5" y="-497.5" font-family="Helvetica,sans-Serif" font-size="10.00">+ AddReceiveCallBack()</text>
<text text-anchor="start" x="185.5" y="-486.5" font-family="Helvetica,sans-Serif" font-size="10.00">+ AddReceiveCallBack()</text>
<text text-anchor="start" x="185.5" y="-475.5" font-family="Helvetica,sans-Serif" font-size="10.00">+ AddEventCallBack()</text>
<text text-anchor="start" x="185.5" y="-464.5" font-family="Helvetica,sans-Serif" font-size="10.00">and 10 more...</text>
<text text-anchor="start" x="185.5" y="-453.5" font-family="Helvetica,sans-Serif" font-size="10.00">+ PBToNF()</text>
<text text-anchor="start" x="185.5" y="-442.5" font-family="Helvetica,sans-Serif" font-size="10.00">+ NFToPB()</text>
<text text-anchor="start" x="185.5" y="-431.5" font-family="Helvetica,sans-Serif" font-size="10.00">+ PBToNF()</text>
<text text-anchor="start" x="185.5" y="-420.5" font-family="Helvetica,sans-Serif" font-size="10.00">+ NFToPB()</text>
<text text-anchor="start" x="185.5" y="-409.5" font-family="Helvetica,sans-Serif" font-size="10.00">+ ReceivePB()</text>
<text text-anchor="start" x="185.5" y="-398.5" font-family="Helvetica,sans-Serif" font-size="10.00">+ ReceivePB()</text>
<text text-anchor="start" x="185.5" y="-387.5" font-family="Helvetica,sans-Serif" font-size="10.00"># NFINetModule()</text>
<text text-anchor="start" x="185.5" y="-376.5" font-family="Helvetica,sans-Serif" font-size="10.00"># OnReceiveNetPack()</text>
<text text-anchor="start" x="185.5" y="-365.5" font-family="Helvetica,sans-Serif" font-size="10.00"># OnSocketNetEvent()</text>
<text text-anchor="start" x="185.5" y="-354.5" font-family="Helvetica,sans-Serif" font-size="10.00"># KeepAlive()</text>
</a>
</g>
</g>
<!-- Node5&#45;&gt;Node11 -->
<g id="edge13" class="edge"><title>Node5&#45;&gt;Node11</title>
<path fill="none" stroke="midnightblue" d="M410.184,-726.496C392.12,-708.487 371.583,-690.274 350.5,-676 333.683,-664.614 323.007,-672.212 308.5,-658 305.45,-655.012 302.521,-651.867 299.709,-648.591"/>
<polygon fill="none" stroke="midnightblue" points="407.726,-728.988 417.242,-733.647 412.708,-724.071 407.726,-728.988"/>
</g>
<!-- Node13 -->
<g id="node11" class="node"><title>Node13</title>
<g id="a_node11"><a xlink:href="class_n_f_i_log_module.html" target="_top" xlink:title="{NFILogModule\n||+ LogDebug()\l+ LogInfo()\l+ LogWarning()\l+ LogError()\l+ LogFatal()\l+ LogDebug()\l+ LogInfo()\l+ LogWarning()\l+ LogError()\l+ LogFatal()\land 8 more...\l}">
<polygon fill="white" stroke="black" points="318,-419 318,-586 401,-586 401,-419 318,-419"/>
<text text-anchor="middle" x="359.5" y="-574" font-family="Helvetica,sans-Serif" font-size="10.00">NFILogModule</text>
<polyline fill="none" stroke="black" points="318,-567 401,-567 "/>
<text text-anchor="middle" x="359.5" y="-555" font-family="Helvetica,sans-Serif" font-size="10.00"> </text>
<polyline fill="none" stroke="black" points="318,-548 401,-548 "/>
<text text-anchor="start" x="326" y="-536" font-family="Helvetica,sans-Serif" font-size="10.00">+ LogDebug()</text>
<text text-anchor="start" x="326" y="-525" font-family="Helvetica,sans-Serif" font-size="10.00">+ LogInfo()</text>
<text text-anchor="start" x="326" y="-514" font-family="Helvetica,sans-Serif" font-size="10.00">+ LogWarning()</text>
<text text-anchor="start" x="326" y="-503" font-family="Helvetica,sans-Serif" font-size="10.00">+ LogError()</text>
<text text-anchor="start" x="326" y="-492" font-family="Helvetica,sans-Serif" font-size="10.00">+ LogFatal()</text>
<text text-anchor="start" x="326" y="-481" font-family="Helvetica,sans-Serif" font-size="10.00">+ LogDebug()</text>
<text text-anchor="start" x="326" y="-470" font-family="Helvetica,sans-Serif" font-size="10.00">+ LogInfo()</text>
<text text-anchor="start" x="326" y="-459" font-family="Helvetica,sans-Serif" font-size="10.00">+ LogWarning()</text>
<text text-anchor="start" x="326" y="-448" font-family="Helvetica,sans-Serif" font-size="10.00">+ LogError()</text>
<text text-anchor="start" x="326" y="-437" font-family="Helvetica,sans-Serif" font-size="10.00">+ LogFatal()</text>
<text text-anchor="start" x="326" y="-426" font-family="Helvetica,sans-Serif" font-size="10.00">and 8 more...</text>
</a>
</g>
</g>
<!-- Node5&#45;&gt;Node13 -->
<g id="edge16" class="edge"><title>Node5&#45;&gt;Node13</title>
<path fill="none" stroke="midnightblue" d="M425.131,-695.989C419.644,-683.284 414.305,-670.406 409.5,-658 400.59,-634.997 391.93,-609.669 384.389,-586.293"/>
<polygon fill="none" stroke="midnightblue" points="421.942,-697.433 429.147,-705.2 428.359,-694.635 421.942,-697.433"/>
</g>
<!-- Node6&#45;&gt;Node5 -->
<g id="edge3" class="edge"><title>Node6&#45;&gt;Node5</title>
<path fill="none" stroke="#404040" d="M474.183,-597.16C474.08,-627.576 473.965,-661.541 473.859,-692.804"/>
<polygon fill="none" stroke="#404040" points="473.858,-693.096 477.838,-699.11 473.818,-705.096 469.838,-699.082 473.858,-693.096"/>
<text text-anchor="middle" x="514" y="-679" font-family="Helvetica,sans-Serif" font-size="10.00"> #pPluginManager</text>
</g>
<!-- Node7&#45;&gt;Node3 -->
<g id="edge5" class="edge"><title>Node7&#45;&gt;Node3</title>
<path fill="none" stroke="#404040" d="M631.5,-391.297C631.5,-362.634 631.5,-331.212 631.5,-300.699"/>
<polygon fill="none" stroke="#404040" points="631.5,-300.605 627.5,-294.605 631.5,-288.605 635.5,-294.605 631.5,-300.605"/>
<text text-anchor="middle" x="674" y="-315.5" font-family="Helvetica,sans-Serif" font-size="10.00"> &#45;m_pKernelModule</text>
</g>
<!-- Node8&#45;&gt;Node3 -->
<g id="edge7" class="edge"><title>Node8&#45;&gt;Node3</title>
<path fill="none" stroke="#404040" d="M113.3,-424.222C127.592,-397.532 146.158,-368.87 168.5,-347 272.148,-245.542 435.212,-191.062 537.6,-165.215"/>
<polygon fill="none" stroke="#404040" points="537.821,-165.161 542.684,-159.837 549.469,-162.279 544.606,-167.603 537.821,-165.161"/>
<text text-anchor="middle" x="250.5" y="-315.5" font-family="Helvetica,sans-Serif" font-size="10.00"> &#45;m_pClassModule</text>
</g>
<!-- Node9 -->
<g id="node7" class="node"><title>Node9</title>
<g id="a_node7"><a xlink:href="class_n_f_map_ex.html" target="_top" xlink:title="{NFMapEx\&lt; std::string,\l NFIClass \&gt;\n|&#45; mObjectList\l&#45; mObjectCurIter\l|+ NFMapEx()\l+ ~NFMapEx()\l+ AddElement()\l+ SetElement()\l+ RemoveElement()\l+ GetElementNude()\l+ GetElement()\l+ FirstNude()\l+ FirstNude()\l+ NextNude()\land 7 more...\l}">
<polygon fill="white" stroke="black" points="18.5,-705.5 18.5,-894.5 134.5,-894.5 134.5,-705.5 18.5,-705.5"/>
<text text-anchor="start" x="26.5" y="-882.5" font-family="Helvetica,sans-Serif" font-size="10.00">NFMapEx&lt; std::string,</text>
<text text-anchor="middle" x="76.5" y="-871.5" font-family="Helvetica,sans-Serif" font-size="10.00"> NFIClass &gt;</text>
<polyline fill="none" stroke="black" points="18.5,-864.5 134.5,-864.5 "/>
<text text-anchor="start" x="26.5" y="-852.5" font-family="Helvetica,sans-Serif" font-size="10.00">&#45; mObjectList</text>
<text text-anchor="start" x="26.5" y="-841.5" font-family="Helvetica,sans-Serif" font-size="10.00">&#45; mObjectCurIter</text>
<polyline fill="none" stroke="black" points="18.5,-834.5 134.5,-834.5 "/>
<text text-anchor="start" x="26.5" y="-822.5" font-family="Helvetica,sans-Serif" font-size="10.00">+ NFMapEx()</text>
<text text-anchor="start" x="26.5" y="-811.5" font-family="Helvetica,sans-Serif" font-size="10.00">+ ~NFMapEx()</text>
<text text-anchor="start" x="26.5" y="-800.5" font-family="Helvetica,sans-Serif" font-size="10.00">+ AddElement()</text>
<text text-anchor="start" x="26.5" y="-789.5" font-family="Helvetica,sans-Serif" font-size="10.00">+ SetElement()</text>
<text text-anchor="start" x="26.5" y="-778.5" font-family="Helvetica,sans-Serif" font-size="10.00">+ RemoveElement()</text>
<text text-anchor="start" x="26.5" y="-767.5" font-family="Helvetica,sans-Serif" font-size="10.00">+ GetElementNude()</text>
<text text-anchor="start" x="26.5" y="-756.5" font-family="Helvetica,sans-Serif" font-size="10.00">+ GetElement()</text>
<text text-anchor="start" x="26.5" y="-745.5" font-family="Helvetica,sans-Serif" font-size="10.00">+ FirstNude()</text>
<text text-anchor="start" x="26.5" y="-734.5" font-family="Helvetica,sans-Serif" font-size="10.00">+ FirstNude()</text>
<text text-anchor="start" x="26.5" y="-723.5" font-family="Helvetica,sans-Serif" font-size="10.00">+ NextNude()</text>
<text text-anchor="start" x="26.5" y="-712.5" font-family="Helvetica,sans-Serif" font-size="10.00">and 7 more...</text>
</a>
</g>
</g>
<!-- Node9&#45;&gt;Node8 -->
<g id="edge9" class="edge"><title>Node9&#45;&gt;Node8</title>
<path fill="none" stroke="midnightblue" d="M77.5595,-694.643C77.9399,-657.168 78.3619,-615.606 78.7149,-580.835"/>
<polygon fill="none" stroke="midnightblue" points="74.0551,-695.061 77.4533,-705.096 81.0548,-695.132 74.0551,-695.061"/>
</g>
<!-- Node10&#45;&gt;Node3 -->
<g id="edge10" class="edge"><title>Node10&#45;&gt;Node3</title>
<path fill="none" stroke="#404040" d="M768.866,-418.735C754.914,-383.849 737.78,-343.054 720.5,-307 719.32,-304.537 718.119,-302.059 716.901,-299.569"/>
<polygon fill="none" stroke="#404040" points="716.788,-299.342 710.539,-295.745 711.456,-288.592 717.705,-292.19 716.788,-299.342"/>
<text text-anchor="middle" x="777" y="-315.5" font-family="Helvetica,sans-Serif" font-size="10.00"> &#45;m_pElementModule</text>
</g>
<!-- Node11&#45;&gt;Node3 -->
<g id="edge12" class="edge"><title>Node11&#45;&gt;Node3</title>
<path fill="none" stroke="#404040" d="M299.524,-360.921C302.435,-356.155 305.428,-351.499 308.5,-347 363.978,-265.747 464.149,-210.857 538.279,-179.144"/>
<polygon fill="none" stroke="#404040" points="538.415,-179.087 542.4,-173.077 549.48,-174.443 545.496,-180.454 538.415,-179.087"/>
<text text-anchor="middle" x="377.5" y="-315.5" font-family="Helvetica,sans-Serif" font-size="10.00"> &#45;m_pNetModule</text>
</g>
<!-- Node12 -->
<g id="node10" class="node"><title>Node12</title>
<g id="a_node10"><a xlink:href="class_n_f_i_net.html" target="_top" xlink:title="{NFINet\n||+ Execute()\l+ Initialization()\l+ Initialization()\l+ Final()\l+ SendMsgWithOutHead()\l+ SendMsgWithOutHead()\l+ SendMsgToAllClient()\l+ SendMsgToAllClientWithOutHead()\l+ CloseNetObject()\l+ CloseNetObject()\l+ IsServer()\l+ Log()\l}">
<polygon fill="white" stroke="black" points="152.5,-711 152.5,-889 330.5,-889 330.5,-711 152.5,-711"/>
<text text-anchor="middle" x="241.5" y="-877" font-family="Helvetica,sans-Serif" font-size="10.00">NFINet</text>
<polyline fill="none" stroke="black" points="152.5,-870 330.5,-870 "/>
<text text-anchor="middle" x="241.5" y="-858" font-family="Helvetica,sans-Serif" font-size="10.00"> </text>
<polyline fill="none" stroke="black" points="152.5,-851 330.5,-851 "/>
<text text-anchor="start" x="160.5" y="-839" font-family="Helvetica,sans-Serif" font-size="10.00">+ Execute()</text>
<text text-anchor="start" x="160.5" y="-828" font-family="Helvetica,sans-Serif" font-size="10.00">+ Initialization()</text>
<text text-anchor="start" x="160.5" y="-817" font-family="Helvetica,sans-Serif" font-size="10.00">+ Initialization()</text>
<text text-anchor="start" x="160.5" y="-806" font-family="Helvetica,sans-Serif" font-size="10.00">+ Final()</text>
<text text-anchor="start" x="160.5" y="-795" font-family="Helvetica,sans-Serif" font-size="10.00">+ SendMsgWithOutHead()</text>
<text text-anchor="start" x="160.5" y="-784" font-family="Helvetica,sans-Serif" font-size="10.00">+ SendMsgWithOutHead()</text>
<text text-anchor="start" x="160.5" y="-773" font-family="Helvetica,sans-Serif" font-size="10.00">+ SendMsgToAllClient()</text>
<text text-anchor="start" x="160.5" y="-762" font-family="Helvetica,sans-Serif" font-size="10.00">+ SendMsgToAllClientWithOutHead()</text>
<text text-anchor="start" x="160.5" y="-751" font-family="Helvetica,sans-Serif" font-size="10.00">+ CloseNetObject()</text>
<text text-anchor="start" x="160.5" y="-740" font-family="Helvetica,sans-Serif" font-size="10.00">+ CloseNetObject()</text>
<text text-anchor="start" x="160.5" y="-729" font-family="Helvetica,sans-Serif" font-size="10.00">+ IsServer()</text>
<text text-anchor="start" x="160.5" y="-718" font-family="Helvetica,sans-Serif" font-size="10.00">+ Log()</text>
</a>
</g>
</g>
<!-- Node12&#45;&gt;Node11 -->
<g id="edge14" class="edge"><title>Node12&#45;&gt;Node11</title>
<path fill="none" stroke="#404040" d="M240.604,-710.741C240.472,-697.719 240.332,-683.956 240.19,-669.967"/>
<polygon fill="none" stroke="#404040" points="240.187,-669.626 236.126,-663.667 240.065,-657.627 244.125,-663.586 240.187,-669.626"/>
<text text-anchor="middle" x="260.5" y="-679" font-family="Helvetica,sans-Serif" font-size="10.00"> &#45;m_pNet</text>
</g>
<!-- Node13&#45;&gt;Node3 -->
<g id="edge15" class="edge"><title>Node13&#45;&gt;Node3</title>
<path fill="none" stroke="#404040" d="M377.569,-418.947C385.128,-394.588 395.506,-368.671 409.5,-347 443.637,-294.135 495.045,-246.261 539.796,-210.455"/>
<polygon fill="none" stroke="#404040" points="539.819,-210.437 542.048,-203.579 549.236,-203 547.007,-209.857 539.819,-210.437"/>
<text text-anchor="middle" x="475" y="-315.5" font-family="Helvetica,sans-Serif" font-size="10.00"> &#45;m_pLogModule</text>
</g>
<!-- Node14 -->
<g id="node12" class="node"><title>Node14</title>
<g id="a_node12"><a xlink:href="class_n_f_map_ex.html" target="_top" xlink:title="{NFMapEx\&lt; int, ServerData \&gt;\n|&#45; mObjectList\l&#45; mObjectCurIter\l|+ NFMapEx()\l+ ~NFMapEx()\l+ AddElement()\l+ SetElement()\l+ RemoveElement()\l+ GetElementNude()\l+ GetElement()\l+ FirstNude()\l+ FirstNude()\l+ NextNude()\land 7 more...\l}">
<polygon fill="white" stroke="black" points="885.5,-413.5 885.5,-591.5 1027.5,-591.5 1027.5,-413.5 885.5,-413.5"/>
<text text-anchor="middle" x="956.5" y="-579.5" font-family="Helvetica,sans-Serif" font-size="10.00">NFMapEx&lt; int, ServerData &gt;</text>
<polyline fill="none" stroke="black" points="885.5,-572.5 1027.5,-572.5 "/>
<text text-anchor="start" x="893.5" y="-560.5" font-family="Helvetica,sans-Serif" font-size="10.00">&#45; mObjectList</text>
<text text-anchor="start" x="893.5" y="-549.5" font-family="Helvetica,sans-Serif" font-size="10.00">&#45; mObjectCurIter</text>
<polyline fill="none" stroke="black" points="885.5,-542.5 1027.5,-542.5 "/>
<text text-anchor="start" x="893.5" y="-530.5" font-family="Helvetica,sans-Serif" font-size="10.00">+ NFMapEx()</text>
<text text-anchor="start" x="893.5" y="-519.5" font-family="Helvetica,sans-Serif" font-size="10.00">+ ~NFMapEx()</text>
<text text-anchor="start" x="893.5" y="-508.5" font-family="Helvetica,sans-Serif" font-size="10.00">+ AddElement()</text>
<text text-anchor="start" x="893.5" y="-497.5" font-family="Helvetica,sans-Serif" font-size="10.00">+ SetElement()</text>
<text text-anchor="start" x="893.5" y="-486.5" font-family="Helvetica,sans-Serif" font-size="10.00">+ RemoveElement()</text>
<text text-anchor="start" x="893.5" y="-475.5" font-family="Helvetica,sans-Serif" font-size="10.00">+ GetElementNude()</text>
<text text-anchor="start" x="893.5" y="-464.5" font-family="Helvetica,sans-Serif" font-size="10.00">+ GetElement()</text>
<text text-anchor="start" x="893.5" y="-453.5" font-family="Helvetica,sans-Serif" font-size="10.00">+ FirstNude()</text>
<text text-anchor="start" x="893.5" y="-442.5" font-family="Helvetica,sans-Serif" font-size="10.00">+ FirstNude()</text>
<text text-anchor="start" x="893.5" y="-431.5" font-family="Helvetica,sans-Serif" font-size="10.00">+ NextNude()</text>
<text text-anchor="start" x="893.5" y="-420.5" font-family="Helvetica,sans-Serif" font-size="10.00">and 7 more...</text>
</a>
</g>
</g>
<!-- Node14&#45;&gt;Node3 -->
<g id="edge17" class="edge"><title>Node14&#45;&gt;Node3</title>
<path fill="none" stroke="#404040" d="M918.507,-413.104C906.723,-390.421 892.552,-366.844 876.5,-347 832.989,-293.21 773.183,-243.689 723.553,-207.2"/>
<polygon fill="none" stroke="#404040" points="723.473,-207.142 716.268,-206.844 713.771,-200.079 720.976,-200.376 723.473,-207.142"/>
<text text-anchor="middle" x="889" y="-321" font-family="Helvetica,sans-Serif" font-size="10.00"> &#45;mLoginMap</text>
<text text-anchor="middle" x="889" y="-310" font-family="Helvetica,sans-Serif" font-size="10.00">&#45;mWorldMap</text>
</g>
</g>
</svg>
        <g id="navigator" transform="translate(0 0)" fill="#404254">
                <rect fill="#f2f5e9" fill-opacity="0.5" stroke="#606060" stroke-width=".5" x="0" y="0" width="60" height="60"/>
                <use id="zoomplus" xlink:href="#zoomPlus" x="17" y="9" onmousedown="handleZoom(evt,'in')"/>
                <use id="zoomminus" xlink:href="#zoomMin" x="42" y="9" onmousedown="handleZoom(evt,'out')"/>
                <use id="reset" xlink:href="#resetDef" x="30" y="36" onmousedown="handleReset()"/>
                <g id="arrowUp" xlink:href="#dirArrow" transform="translate(30 24)" onmousedown="handlePan(0,-1)">
                  <use xlink:href="#rim" fill="#404040">
                        <set attributeName="fill" to="#808080" begin="arrowUp.mouseover" end="arrowUp.mouseout"/>
                  </use>
                  <path fill="none" stroke="white" stroke-width="1.5" d="M0,-3.0v7 M-2.5,-0.5L0,-3.0L2.5,-0.5"/>
                </g>
                <g id="arrowRight" xlink:href="#dirArrow" transform="rotate(90) translate(36 -43)" onmousedown="handlePan(1,0)">
                  <use xlink:href="#rim" fill="#404040">
                        <set attributeName="fill" to="#808080" begin="arrowRight.mouseover" end="arrowRight.mouseout"/>
                  </use>
                  <path fill="none" stroke="white" stroke-width="1.5" d="M0,-3.0v7 M-2.5,-0.5L0,-3.0L2.5,-0.5"/>
                </g>
                <g id="arrowDown" xlink:href="#dirArrow" transform="rotate(180) translate(-30 -48)" onmousedown="handlePan(0,1)">
                  <use xlink:href="#rim" fill="#404040">
                        <set attributeName="fill" to="#808080" begin="arrowDown.mouseover" end="arrowDown.mouseout"/>
                  </use>
                  <path fill="none" stroke="white" stroke-width="1.5" d="M0,-3.0v7 M-2.5,-0.5L0,-3.0L2.5,-0.5"/>
                </g>
                <g id="arrowLeft" xlink:href="#dirArrow" transform="rotate(270) translate(-36 17)" onmousedown="handlePan(-1,0)">
                  <use xlink:href="#rim" fill="#404040">
                        <set attributeName="fill" to="#808080" begin="arrowLeft.mouseover" end="arrowLeft.mouseout"/>
                  </use>
                  <path fill="none" stroke="white" stroke-width="1.5" d="M0,-3.0v7 M-2.5,-0.5L0,-3.0L2.5,-0.5"/>
                </g>
        </g>
        <svg viewBox="0 0 15 15" width="100%" height="30px" preserveAspectRatio="xMaxYMin meet">
         <g id="arrow_out" transform="scale(0.3 0.3)">
          <a xlink:href="class_n_f_c_master_net___server_module__coll__graph_org.svg" target="_base">
           <rect id="button" ry="5" rx="5" y="6" x="6" height="38" width="38"
                fill="#f2f5e9" fill-opacity="0.5" stroke="#606060" stroke-width="1.0"/>
           <path id="arrow"
             d="M 11.500037,31.436501 C 11.940474,20.09759 22.043105,11.32322 32.158766,21.979434 L 37.068811,17.246167 C 37.068811,17.246167 37.088388,32 37.088388,32 L 22.160133,31.978069 C 22.160133,31.978069 26.997745,27.140456 26.997745,27.140456 C 18.528582,18.264221 13.291696,25.230495 11.500037,31.436501 z"
             style="fill:#404040;"/>
          </a>
         </g>
        </svg>
</svg>
