<?xml version="1.0" encoding="UTF-8" standalone="no"?>
<!DOCTYPE svg PUBLIC "-//W3C//DTD SVG 1.1//EN"
 "http://www.w3.org/Graphics/SVG/1.1/DTD/svg11.dtd">
<!-- Generated by graphviz version 2.38.0 (20140413.2041)
 -->
<!-- Title: NFCUUIDModule Pages: 1 -->
<svg width="120pt" height="540pt"
 viewBox="0.00 0.00 120.00 540.00" xmlns="http://www.w3.org/2000/svg" xmlns:xlink="http://www.w3.org/1999/xlink">
<g id="graph0" class="graph" transform="scale(1 1) rotate(0) translate(4 536)">
<title>NFCUUIDModule</title>
<polygon fill="white" stroke="none" points="-4,4 -4,-536 116,-536 116,4 -4,4"/>
<!-- Node0 -->
<g id="node1" class="node"><title>Node0</title>
<polygon fill="#bfbfbf" stroke="black" points="0.5,-0.5 0.5,-178.5 111.5,-178.5 111.5,-0.5 0.5,-0.5"/>
<text text-anchor="middle" x="56" y="-166.5" font-family="Helvetica,sans-Serif" font-size="10.00">NFCUUIDModule</text>
<polyline fill="none" stroke="black" points="0.5,-159.5 111.5,-159.5 "/>
<text text-anchor="start" x="8.5" y="-147.5" font-family="Helvetica,sans-Serif" font-size="10.00">&#45; mnIdent</text>
<text text-anchor="start" x="8.5" y="-136.5" font-family="Helvetica,sans-Serif" font-size="10.00">&#45; m_pUUID</text>
<text text-anchor="start" x="8.5" y="-125.5" font-family="Helvetica,sans-Serif" font-size="10.00">&#45; m_pKernelModule</text>
<polyline fill="none" stroke="black" points="0.5,-118.5 111.5,-118.5 "/>
<text text-anchor="start" x="8.5" y="-106.5" font-family="Helvetica,sans-Serif" font-size="10.00">+ NFCUUIDModule()</text>
<text text-anchor="start" x="8.5" y="-95.5" font-family="Helvetica,sans-Serif" font-size="10.00">+ ~NFCUUIDModule()</text>
<text text-anchor="start" x="8.5" y="-84.5" font-family="Helvetica,sans-Serif" font-size="10.00">+ Init()</text>
<text text-anchor="start" x="8.5" y="-73.5" font-family="Helvetica,sans-Serif" font-size="10.00">+ Shut()</text>
<text text-anchor="start" x="8.5" y="-62.5" font-family="Helvetica,sans-Serif" font-size="10.00">+ BeforeShut()</text>
<text text-anchor="start" x="8.5" y="-51.5" font-family="Helvetica,sans-Serif" font-size="10.00">+ AfterInit()</text>
<text text-anchor="start" x="8.5" y="-40.5" font-family="Helvetica,sans-Serif" font-size="10.00">+ Execute()</text>
<text text-anchor="start" x="8.5" y="-29.5" font-family="Helvetica,sans-Serif" font-size="10.00">+ CreateGUID()</text>
<text text-anchor="start" x="8.5" y="-18.5" font-family="Helvetica,sans-Serif" font-size="10.00">+ GetIdentID()</text>
<text text-anchor="start" x="8.5" y="-7.5" font-family="Helvetica,sans-Serif" font-size="10.00">+ SetIdentID()</text>
</g>
<!-- Node1 -->
<g id="node2" class="node"><title>Node1</title>
<g id="a_node2"><a xlink:href="class_n_f_i_u_u_i_d_module.html" target="_top" xlink:title="{NFIUUIDModule\n||+ CreateGUID()\l+ GetIdentID()\l+ SetIdentID()\l}">
<polygon fill="white" stroke="black" points="13,-215.5 13,-294.5 99,-294.5 99,-215.5 13,-215.5"/>
<text text-anchor="middle" x="56" y="-282.5" font-family="Helvetica,sans-Serif" font-size="10.00">NFIUUIDModule</text>
<polyline fill="none" stroke="black" points="13,-275.5 99,-275.5 "/>
<text text-anchor="middle" x="56" y="-263.5" font-family="Helvetica,sans-Serif" font-size="10.00"> </text>
<polyline fill="none" stroke="black" points="13,-256.5 99,-256.5 "/>
<text text-anchor="start" x="21" y="-244.5" font-family="Helvetica,sans-Serif" font-size="10.00">+ CreateGUID()</text>
<text text-anchor="start" x="21" y="-233.5" font-family="Helvetica,sans-Serif" font-size="10.00">+ GetIdentID()</text>
<text text-anchor="start" x="21" y="-222.5" font-family="Helvetica,sans-Serif" font-size="10.00">+ SetIdentID()</text>
</a>
</g>
</g>
<!-- Node1&#45;&gt;Node0 -->
<g id="edge1" class="edge"><title>Node1&#45;&gt;Node0</title>
<path fill="none" stroke="midnightblue" d="M56,-205.247C56,-196.789 56,-187.764 56,-178.632"/>
<polygon fill="none" stroke="midnightblue" points="52.5001,-205.253 56,-215.253 59.5001,-205.253 52.5001,-205.253"/>
</g>
<!-- Node2 -->
<g id="node3" class="node"><title>Node2</title>
<g id="a_node3"><a xlink:href="class_n_f_i_module.html" target="_top" xlink:title="{NFIModule\n|+ strName\l# pPluginManager\l# mbReloading\l|+ NFIModule()\l+ ~NFIModule()\l+ Init()\l+ AfterInit()\l+ CheckConfig()\l+ BeforeShut()\l+ Shut()\l+ Execute()\l+ StartReLoadState()\l+ EndReLoadState()\l+ GetPluginManager()\l+ Loading()\l}">
<polygon fill="white" stroke="black" points="0,-331.5 0,-531.5 112,-531.5 112,-331.5 0,-331.5"/>
<text text-anchor="middle" x="56" y="-519.5" font-family="Helvetica,sans-Serif" font-size="10.00">NFIModule</text>
<polyline fill="none" stroke="black" points="0,-512.5 112,-512.5 "/>
<text text-anchor="start" x="8" y="-500.5" font-family="Helvetica,sans-Serif" font-size="10.00">+ strName</text>
<text text-anchor="start" x="8" y="-489.5" font-family="Helvetica,sans-Serif" font-size="10.00"># pPluginManager</text>
<text text-anchor="start" x="8" y="-478.5" font-family="Helvetica,sans-Serif" font-size="10.00"># mbReloading</text>
<polyline fill="none" stroke="black" points="0,-471.5 112,-471.5 "/>
<text text-anchor="start" x="8" y="-459.5" font-family="Helvetica,sans-Serif" font-size="10.00">+ NFIModule()</text>
<text text-anchor="start" x="8" y="-448.5" font-family="Helvetica,sans-Serif" font-size="10.00">+ ~NFIModule()</text>
<text text-anchor="start" x="8" y="-437.5" font-family="Helvetica,sans-Serif" font-size="10.00">+ Init()</text>
<text text-anchor="start" x="8" y="-426.5" font-family="Helvetica,sans-Serif" font-size="10.00">+ AfterInit()</text>
<text text-anchor="start" x="8" y="-415.5" font-family="Helvetica,sans-Serif" font-size="10.00">+ CheckConfig()</text>
<text text-anchor="start" x="8" y="-404.5" font-family="Helvetica,sans-Serif" font-size="10.00">+ BeforeShut()</text>
<text text-anchor="start" x="8" y="-393.5" font-family="Helvetica,sans-Serif" font-size="10.00">+ Shut()</text>
<text text-anchor="start" x="8" y="-382.5" font-family="Helvetica,sans-Serif" font-size="10.00">+ Execute()</text>
<text text-anchor="start" x="8" y="-371.5" font-family="Helvetica,sans-Serif" font-size="10.00">+ StartReLoadState()</text>
<text text-anchor="start" x="8" y="-360.5" font-family="Helvetica,sans-Serif" font-size="10.00">+ EndReLoadState()</text>
<text text-anchor="start" x="8" y="-349.5" font-family="Helvetica,sans-Serif" font-size="10.00">+ GetPluginManager()</text>
<text text-anchor="start" x="8" y="-338.5" font-family="Helvetica,sans-Serif" font-size="10.00">+ Loading()</text>
</a>
</g>
</g>
<!-- Node2&#45;&gt;Node1 -->
<g id="edge2" class="edge"><title>Node2&#45;&gt;Node1</title>
<path fill="none" stroke="midnightblue" d="M56,-321.094C56,-311.826 56,-302.915 56,-294.819"/>
<polygon fill="none" stroke="midnightblue" points="52.5001,-321.27 56,-331.27 59.5001,-321.27 52.5001,-321.27"/>
</g>
</g>
</svg>
