<?xml version="1.0" encoding="UTF-8" standalone="no"?>
<!DOCTYPE svg PUBLIC "-//W3C//DTD SVG 1.1//EN"
 "http://www.w3.org/Graphics/SVG/1.1/DTD/svg11.dtd">
<!-- Generated by graphviz version 2.38.0 (20140413.2041)
 -->
<!-- Title: NFQueue&lt; T &gt; Pages: 1 -->
<svg width="89pt" height="248pt"
 viewBox="0.00 0.00 89.00 248.00" xmlns="http://www.w3.org/2000/svg" xmlns:xlink="http://www.w3.org/1999/xlink">
<g id="graph0" class="graph" transform="scale(1 1) rotate(0) translate(4 244)">
<title>NFQueue&lt; T &gt;</title>
<polygon fill="white" stroke="none" points="-4,4 -4,-244 85,-244 85,4 -4,4"/>
<!-- Node0 -->
<g id="node1" class="node"><title>Node0</title>
<polygon fill="#bfbfbf" stroke="black" points="0,-0.5 0,-101.5 81,-101.5 81,-0.5 0,-0.5"/>
<text text-anchor="middle" x="40.5" y="-89.5" font-family="Helvetica,sans-Serif" font-size="10.00">NFQueue&lt; T &gt;</text>
<polyline fill="none" stroke="black" points="0,-82.5 81,-82.5 "/>
<text text-anchor="start" x="8" y="-70.5" font-family="Helvetica,sans-Serif" font-size="10.00">&#45; mList</text>
<polyline fill="none" stroke="black" points="0,-63.5 81,-63.5 "/>
<text text-anchor="start" x="8" y="-51.5" font-family="Helvetica,sans-Serif" font-size="10.00">+ NFQueue()</text>
<text text-anchor="start" x="8" y="-40.5" font-family="Helvetica,sans-Serif" font-size="10.00">+ ~NFQueue()</text>
<text text-anchor="start" x="8" y="-29.5" font-family="Helvetica,sans-Serif" font-size="10.00">+ Push()</text>
<text text-anchor="start" x="8" y="-18.5" font-family="Helvetica,sans-Serif" font-size="10.00">+ Pop()</text>
<text text-anchor="start" x="8" y="-7.5" font-family="Helvetica,sans-Serif" font-size="10.00">+ Count()</text>
</g>
<!-- Node1 -->
<g id="node2" class="node"><title>Node1</title>
<g id="a_node2"><a xlink:href="class_n_f_lock.html" target="_top" xlink:title="{NFLock\n|# flag\l|+ NFLock()\l+ ~NFLock()\l+ lock()\l+ unlock()\l&#45; operator=()\l}">
<polygon fill="white" stroke="black" points="5,-138.5 5,-239.5 76,-239.5 76,-138.5 5,-138.5"/>
<text text-anchor="middle" x="40.5" y="-227.5" font-family="Helvetica,sans-Serif" font-size="10.00">NFLock</text>
<polyline fill="none" stroke="black" points="5,-220.5 76,-220.5 "/>
<text text-anchor="start" x="13" y="-208.5" font-family="Helvetica,sans-Serif" font-size="10.00"># flag</text>
<polyline fill="none" stroke="black" points="5,-201.5 76,-201.5 "/>
<text text-anchor="start" x="13" y="-189.5" font-family="Helvetica,sans-Serif" font-size="10.00">+ NFLock()</text>
<text text-anchor="start" x="13" y="-178.5" font-family="Helvetica,sans-Serif" font-size="10.00">+ ~NFLock()</text>
<text text-anchor="start" x="13" y="-167.5" font-family="Helvetica,sans-Serif" font-size="10.00">+ lock()</text>
<text text-anchor="start" x="13" y="-156.5" font-family="Helvetica,sans-Serif" font-size="10.00">+ unlock()</text>
<text text-anchor="start" x="13" y="-145.5" font-family="Helvetica,sans-Serif" font-size="10.00">&#45; operator=()</text>
</a>
</g>
</g>
<!-- Node1&#45;&gt;Node0 -->
<g id="edge1" class="edge"><title>Node1&#45;&gt;Node0</title>
<path fill="none" stroke="midnightblue" d="M40.5,-128C40.5,-119.271 40.5,-110.363 40.5,-101.863"/>
<polygon fill="none" stroke="midnightblue" points="37.0001,-128.131 40.5,-138.131 44.0001,-128.131 37.0001,-128.131"/>
</g>
</g>
</svg>
