<?xml version="1.0" encoding="UTF-8" standalone="no"?>
<!DOCTYPE svg PUBLIC "-//W3C//DTD SVG 1.1//EN"
 "http://www.w3.org/Graphics/SVG/1.1/DTD/svg11.dtd">
<!-- Generated by graphviz version 2.38.0 (20140413.2041)
 -->
<!-- Title: NFCSceneProcessModule Pages: 1 -->
<!--zoomable 760 -->
<svg id="main" version="1.1" xmlns="http://www.w3.org/2000/svg" xmlns:xlink="http://www.w3.org/1999/xlink" xml:space="preserve" onload="init(evt)">
<style type="text/css"><![CDATA[
.edge:hover path { stroke: red; }
.edge:hover polygon { stroke: red; fill: red; }
]]></style>
<script type="text/javascript"><![CDATA[
var edges = document.getElementsByTagName('g');
if (edges && edges.length) {
  for (var i=0;i<edges.length;i++) {
    if (edges[i].id.substr(0,4)=='edge') {
      edges[i].setAttribute('class','edge');
    }
  }
}
]]></script>
        <defs>
                <circle id="rim" cx="0" cy="0" r="7"/>
                <circle id="rim2" cx="0" cy="0" r="3.5"/>
                <g id="zoomPlus">
                        <use xlink:href="#rim" fill="#404040">
                                <set attributeName="fill" to="#808080" begin="zoomplus.mouseover" end="zoomplus.mouseout"/>
                        </use>
                        <path d="M-4,0h8M0,-4v8" fill="none" stroke="white" stroke-width="1.5" pointer-events="none"/>
                </g>
                <g id="zoomMin">
                        <use xlink:href="#rim" fill="#404040">
                                <set attributeName="fill" to="#808080" begin="zoomminus.mouseover" end="zoomminus.mouseout"/>
                        </use>
                        <path d="M-4,0h8" fill="none" stroke="white" stroke-width="1.5" pointer-events="none"/>
                </g>
                <g id="dirArrow">
                        <path fill="none" stroke="white" stroke-width="1.5" d="M0,-3.0v7 M-2.5,-0.5L0,-3.0L2.5,-0.5"/>
                </g>
               <g id="resetDef">
                       <use xlink:href="#rim2" fill="#404040">
                               <set attributeName="fill" to="#808080" begin="reset.mouseover" end="reset.mouseout"/>
                       </use>
               </g>
        </defs>

<script type="text/javascript">
var viewWidth = 1245;
var viewHeight = 760;
var sectionId = 'dynsection-1';
</script>
<script xlink:href="svgpan.js"/>
<svg id="graph" class="graph">
<g id="viewport">
<title>NFCSceneProcessModule</title>
<polygon fill="white" stroke="none" points="-4,4 -4,-756 1240.5,-756 1240.5,4 -4,4"/>
<!-- Node3 -->
<g id="node1" class="node"><title>Node3</title>
<polygon fill="#bfbfbf" stroke="black" points="614,-0.5 614,-233.5 767,-233.5 767,-0.5 614,-0.5"/>
<text text-anchor="middle" x="690.5" y="-221.5" font-family="Helvetica,sans-Serif" font-size="10.00">NFCSceneProcessModule</text>
<polyline fill="none" stroke="black" points="614,-214.5 767,-214.5 "/>
<text text-anchor="middle" x="690.5" y="-202.5" font-family="Helvetica,sans-Serif" font-size="10.00"> </text>
<polyline fill="none" stroke="black" points="614,-195.5 767,-195.5 "/>
<text text-anchor="start" x="622" y="-183.5" font-family="Helvetica,sans-Serif" font-size="10.00">+ NFCSceneProcessModule()</text>
<text text-anchor="start" x="622" y="-172.5" font-family="Helvetica,sans-Serif" font-size="10.00">+ ~NFCSceneProcessModule()</text>
<text text-anchor="start" x="622" y="-161.5" font-family="Helvetica,sans-Serif" font-size="10.00">+ Init()</text>
<text text-anchor="start" x="622" y="-150.5" font-family="Helvetica,sans-Serif" font-size="10.00">+ Shut()</text>
<text text-anchor="start" x="622" y="-139.5" font-family="Helvetica,sans-Serif" font-size="10.00">+ Execute()</text>
<text text-anchor="start" x="622" y="-128.5" font-family="Helvetica,sans-Serif" font-size="10.00">+ AfterInit()</text>
<text text-anchor="start" x="622" y="-117.5" font-family="Helvetica,sans-Serif" font-size="10.00">+ GetCloneSceneType()</text>
<text text-anchor="start" x="622" y="-106.5" font-family="Helvetica,sans-Serif" font-size="10.00">+ IsCloneScene()</text>
<text text-anchor="start" x="622" y="-95.5" font-family="Helvetica,sans-Serif" font-size="10.00">+ ApplyCloneGroup()</text>
<text text-anchor="start" x="622" y="-84.5" font-family="Helvetica,sans-Serif" font-size="10.00">+ ExitCloneGroup()</text>
<text text-anchor="start" x="622" y="-73.5" font-family="Helvetica,sans-Serif" font-size="10.00"># CreateCloneScene()</text>
<text text-anchor="start" x="622" y="-62.5" font-family="Helvetica,sans-Serif" font-size="10.00"># CreateSceneObject()</text>
<text text-anchor="start" x="622" y="-51.5" font-family="Helvetica,sans-Serif" font-size="10.00"># LoadSceneResource()</text>
<text text-anchor="start" x="622" y="-40.5" font-family="Helvetica,sans-Serif" font-size="10.00"># OnObjectClassEvent()</text>
<text text-anchor="start" x="622" y="-29.5" font-family="Helvetica,sans-Serif" font-size="10.00"># OnEnterSceneEvent()</text>
<text text-anchor="start" x="622" y="-18.5" font-family="Helvetica,sans-Serif" font-size="10.00"># OnLeaveSceneEvent()</text>
<text text-anchor="start" x="622" y="-7.5" font-family="Helvetica,sans-Serif" font-size="10.00"># OnClienSwapSceneProcess()</text>
</g>
<!-- Node4 -->
<g id="node2" class="node"><title>Node4</title>
<g id="a_node2"><a xlink:href="class_n_f_i_scene_process_module.html" target="_top" xlink:title="{NFISceneProcessModule\n||+ IsCloneScene()\l+ GetCloneSceneType()\l+ ApplyCloneGroup()\l+ ExitCloneGroup()\l}">
<polygon fill="white" stroke="black" points="750,-358.5 750,-448.5 877,-448.5 877,-358.5 750,-358.5"/>
<text text-anchor="middle" x="813.5" y="-436.5" font-family="Helvetica,sans-Serif" font-size="10.00">NFISceneProcessModule</text>
<polyline fill="none" stroke="black" points="750,-429.5 877,-429.5 "/>
<text text-anchor="middle" x="813.5" y="-417.5" font-family="Helvetica,sans-Serif" font-size="10.00"> </text>
<polyline fill="none" stroke="black" points="750,-410.5 877,-410.5 "/>
<text text-anchor="start" x="758" y="-398.5" font-family="Helvetica,sans-Serif" font-size="10.00">+ IsCloneScene()</text>
<text text-anchor="start" x="758" y="-387.5" font-family="Helvetica,sans-Serif" font-size="10.00">+ GetCloneSceneType()</text>
<text text-anchor="start" x="758" y="-376.5" font-family="Helvetica,sans-Serif" font-size="10.00">+ ApplyCloneGroup()</text>
<text text-anchor="start" x="758" y="-365.5" font-family="Helvetica,sans-Serif" font-size="10.00">+ ExitCloneGroup()</text>
</a>
</g>
</g>
<!-- Node4&#45;&gt;Node3 -->
<g id="edge1" class="edge"><title>Node4&#45;&gt;Node3</title>
<path fill="none" stroke="midnightblue" d="M800.15,-348.44C792.17,-319.302 780.965,-283.056 767.5,-252 764.885,-245.969 762.066,-239.865 759.104,-233.757"/>
<polygon fill="none" stroke="midnightblue" points="796.86,-349.682 802.837,-358.43 803.62,-347.864 796.86,-349.682"/>
</g>
<!-- Node5 -->
<g id="node3" class="node"><title>Node5</title>
<g id="a_node3"><a xlink:href="class_n_f_i_module.html" target="_top" xlink:title="{NFIModule\n|+ strName\l# mbReloading\l|+ NFIModule()\l+ ~NFIModule()\l+ Init()\l+ AfterInit()\l+ CheckConfig()\l+ BeforeShut()\l+ Shut()\l+ Execute()\l+ StartReLoadState()\l+ EndReLoadState()\l+ GetPluginManager()\l+ Loading()\l}">
<polygon fill="white" stroke="black" points="507.5,-562.5 507.5,-751.5 619.5,-751.5 619.5,-562.5 507.5,-562.5"/>
<text text-anchor="middle" x="563.5" y="-739.5" font-family="Helvetica,sans-Serif" font-size="10.00">NFIModule</text>
<polyline fill="none" stroke="black" points="507.5,-732.5 619.5,-732.5 "/>
<text text-anchor="start" x="515.5" y="-720.5" font-family="Helvetica,sans-Serif" font-size="10.00">+ strName</text>
<text text-anchor="start" x="515.5" y="-709.5" font-family="Helvetica,sans-Serif" font-size="10.00"># mbReloading</text>
<polyline fill="none" stroke="black" points="507.5,-702.5 619.5,-702.5 "/>
<text text-anchor="start" x="515.5" y="-690.5" font-family="Helvetica,sans-Serif" font-size="10.00">+ NFIModule()</text>
<text text-anchor="start" x="515.5" y="-679.5" font-family="Helvetica,sans-Serif" font-size="10.00">+ ~NFIModule()</text>
<text text-anchor="start" x="515.5" y="-668.5" font-family="Helvetica,sans-Serif" font-size="10.00">+ Init()</text>
<text text-anchor="start" x="515.5" y="-657.5" font-family="Helvetica,sans-Serif" font-size="10.00">+ AfterInit()</text>
<text text-anchor="start" x="515.5" y="-646.5" font-family="Helvetica,sans-Serif" font-size="10.00">+ CheckConfig()</text>
<text text-anchor="start" x="515.5" y="-635.5" font-family="Helvetica,sans-Serif" font-size="10.00">+ BeforeShut()</text>
<text text-anchor="start" x="515.5" y="-624.5" font-family="Helvetica,sans-Serif" font-size="10.00">+ Shut()</text>
<text text-anchor="start" x="515.5" y="-613.5" font-family="Helvetica,sans-Serif" font-size="10.00">+ Execute()</text>
<text text-anchor="start" x="515.5" y="-602.5" font-family="Helvetica,sans-Serif" font-size="10.00">+ StartReLoadState()</text>
<text text-anchor="start" x="515.5" y="-591.5" font-family="Helvetica,sans-Serif" font-size="10.00">+ EndReLoadState()</text>
<text text-anchor="start" x="515.5" y="-580.5" font-family="Helvetica,sans-Serif" font-size="10.00">+ GetPluginManager()</text>
<text text-anchor="start" x="515.5" y="-569.5" font-family="Helvetica,sans-Serif" font-size="10.00">+ Loading()</text>
</a>
</g>
</g>
<!-- Node5&#45;&gt;Node4 -->
<g id="edge2" class="edge"><title>Node5&#45;&gt;Node4</title>
<path fill="none" stroke="midnightblue" d="M627.913,-612.33C663.431,-586.455 706.988,-551.631 740.5,-515 758.813,-494.982 775.754,-469.941 788.696,-448.761"/>
<polygon fill="none" stroke="midnightblue" points="625.595,-609.687 619.534,-618.377 629.691,-615.363 625.595,-609.687"/>
</g>
<!-- Node6 -->
<g id="node4" class="node"><title>Node6</title>
<g id="a_node4"><a xlink:href="class_n_f_i_plugin_manager.html" target="_top" xlink:title="{NFIPluginManager\n||+ NFIPluginManager()\l+ FindModule()\l+ Registered()\l+ UnRegistered()\l+ FindPlugin()\l+ AddModule()\l+ RemoveModule()\l+ FindModule()\l+ AppID()\l+ GetInitTime()\l+ GetNowTime()\l+ GetConfigPath()\l+ SetConfigName()\l}">
<polygon fill="white" stroke="black" points="520,-309 520,-498 631,-498 631,-309 520,-309"/>
<text text-anchor="middle" x="575.5" y="-486" font-family="Helvetica,sans-Serif" font-size="10.00">NFIPluginManager</text>
<polyline fill="none" stroke="black" points="520,-479 631,-479 "/>
<text text-anchor="middle" x="575.5" y="-467" font-family="Helvetica,sans-Serif" font-size="10.00"> </text>
<polyline fill="none" stroke="black" points="520,-460 631,-460 "/>
<text text-anchor="start" x="528" y="-448" font-family="Helvetica,sans-Serif" font-size="10.00">+ NFIPluginManager()</text>
<text text-anchor="start" x="528" y="-437" font-family="Helvetica,sans-Serif" font-size="10.00">+ FindModule()</text>
<text text-anchor="start" x="528" y="-426" font-family="Helvetica,sans-Serif" font-size="10.00">+ Registered()</text>
<text text-anchor="start" x="528" y="-415" font-family="Helvetica,sans-Serif" font-size="10.00">+ UnRegistered()</text>
<text text-anchor="start" x="528" y="-404" font-family="Helvetica,sans-Serif" font-size="10.00">+ FindPlugin()</text>
<text text-anchor="start" x="528" y="-393" font-family="Helvetica,sans-Serif" font-size="10.00">+ AddModule()</text>
<text text-anchor="start" x="528" y="-382" font-family="Helvetica,sans-Serif" font-size="10.00">+ RemoveModule()</text>
<text text-anchor="start" x="528" y="-371" font-family="Helvetica,sans-Serif" font-size="10.00">+ FindModule()</text>
<text text-anchor="start" x="528" y="-360" font-family="Helvetica,sans-Serif" font-size="10.00">+ AppID()</text>
<text text-anchor="start" x="528" y="-349" font-family="Helvetica,sans-Serif" font-size="10.00">+ GetInitTime()</text>
<text text-anchor="start" x="528" y="-338" font-family="Helvetica,sans-Serif" font-size="10.00">+ GetNowTime()</text>
<text text-anchor="start" x="528" y="-327" font-family="Helvetica,sans-Serif" font-size="10.00">+ GetConfigPath()</text>
<text text-anchor="start" x="528" y="-316" font-family="Helvetica,sans-Serif" font-size="10.00">+ SetConfigName()</text>
</a>
</g>
</g>
<!-- Node5&#45;&gt;Node6 -->
<g id="edge4" class="edge"><title>Node5&#45;&gt;Node6</title>
<path fill="none" stroke="midnightblue" d="M564.738,-552.106C564.955,-545.639 565.207,-539.23 565.5,-533 566.03,-521.712 566.741,-509.878 567.539,-498.151"/>
<polygon fill="none" stroke="midnightblue" points="561.234,-552.195 564.426,-562.297 568.231,-552.409 561.234,-552.195"/>
</g>
<!-- Node8 -->
<g id="node6" class="node"><title>Node8</title>
<g id="a_node6"><a xlink:href="class_n_f_i_kernel_module.html" target="_top" xlink:title="{NFIKernelModule\n||+ AddHeartBeat()\l+ FindHeartBeat()\l+ RemoveHeartBeat()\l+ AddRecordCallBack()\l+ AddPropertyCallBack()\l+ AddEventCallBack()\l+ AddClassCallBack()\l+ DoEvent()\l+ DoEvent()\l+ RegisterCommonClassEvent()\land 56 more...\l# AddEventCallBack()\l# AddClassCallBack()\l# RegisterCommonClassEvent()\l# RegisterCommonPropertyEvent()\l# RegisterCommonRecordEvent()\l}">
<polygon fill="white" stroke="black" points="0,-292.5 0,-514.5 167,-514.5 167,-292.5 0,-292.5"/>
<text text-anchor="middle" x="83.5" y="-502.5" font-family="Helvetica,sans-Serif" font-size="10.00">NFIKernelModule</text>
<polyline fill="none" stroke="black" points="0,-495.5 167,-495.5 "/>
<text text-anchor="middle" x="83.5" y="-483.5" font-family="Helvetica,sans-Serif" font-size="10.00"> </text>
<polyline fill="none" stroke="black" points="0,-476.5 167,-476.5 "/>
<text text-anchor="start" x="8" y="-464.5" font-family="Helvetica,sans-Serif" font-size="10.00">+ AddHeartBeat()</text>
<text text-anchor="start" x="8" y="-453.5" font-family="Helvetica,sans-Serif" font-size="10.00">+ FindHeartBeat()</text>
<text text-anchor="start" x="8" y="-442.5" font-family="Helvetica,sans-Serif" font-size="10.00">+ RemoveHeartBeat()</text>
<text text-anchor="start" x="8" y="-431.5" font-family="Helvetica,sans-Serif" font-size="10.00">+ AddRecordCallBack()</text>
<text text-anchor="start" x="8" y="-420.5" font-family="Helvetica,sans-Serif" font-size="10.00">+ AddPropertyCallBack()</text>
<text text-anchor="start" x="8" y="-409.5" font-family="Helvetica,sans-Serif" font-size="10.00">+ AddEventCallBack()</text>
<text text-anchor="start" x="8" y="-398.5" font-family="Helvetica,sans-Serif" font-size="10.00">+ AddClassCallBack()</text>
<text text-anchor="start" x="8" y="-387.5" font-family="Helvetica,sans-Serif" font-size="10.00">+ DoEvent()</text>
<text text-anchor="start" x="8" y="-376.5" font-family="Helvetica,sans-Serif" font-size="10.00">+ DoEvent()</text>
<text text-anchor="start" x="8" y="-365.5" font-family="Helvetica,sans-Serif" font-size="10.00">+ RegisterCommonClassEvent()</text>
<text text-anchor="start" x="8" y="-354.5" font-family="Helvetica,sans-Serif" font-size="10.00">and 56 more...</text>
<text text-anchor="start" x="8" y="-343.5" font-family="Helvetica,sans-Serif" font-size="10.00"># AddEventCallBack()</text>
<text text-anchor="start" x="8" y="-332.5" font-family="Helvetica,sans-Serif" font-size="10.00"># AddClassCallBack()</text>
<text text-anchor="start" x="8" y="-321.5" font-family="Helvetica,sans-Serif" font-size="10.00"># RegisterCommonClassEvent()</text>
<text text-anchor="start" x="8" y="-310.5" font-family="Helvetica,sans-Serif" font-size="10.00"># RegisterCommonPropertyEvent()</text>
<text text-anchor="start" x="8" y="-299.5" font-family="Helvetica,sans-Serif" font-size="10.00"># RegisterCommonRecordEvent()</text>
</a>
</g>
</g>
<!-- Node5&#45;&gt;Node8 -->
<g id="edge7" class="edge"><title>Node5&#45;&gt;Node8</title>
<path fill="none" stroke="midnightblue" d="M497.234,-642.924C416.006,-624.53 276.81,-585.152 176.5,-515 173.315,-512.773 170.175,-510.41 167.086,-507.936"/>
<polygon fill="none" stroke="midnightblue" points="496.809,-646.415 507.33,-645.17 498.329,-639.582 496.809,-646.415"/>
</g>
<!-- Node9 -->
<g id="node7" class="node"><title>Node9</title>
<g id="a_node7"><a xlink:href="class_n_f_i_game_server_net___server_module.html" target="_top" xlink:title="{NFIGameServerNet_ServerModule\n||+ GetNetModule()\l+ SendMsgPBToGate()\l+ SendMsgPBToGate()\l+ AddPlayerGateInfo()\l+ RemovePlayerGateInfo()\l+ GetPlayerGateInfo()\l+ OnPropertyEnter()\l+ OnRecordEnter()\l+ OnObjectListEnter()\l+ OnObjectListLeave()\l}">
<polygon fill="white" stroke="black" points="185.5,-325.5 185.5,-481.5 349.5,-481.5 349.5,-325.5 185.5,-325.5"/>
<text text-anchor="middle" x="267.5" y="-469.5" font-family="Helvetica,sans-Serif" font-size="10.00">NFIGameServerNet_ServerModule</text>
<polyline fill="none" stroke="black" points="185.5,-462.5 349.5,-462.5 "/>
<text text-anchor="middle" x="267.5" y="-450.5" font-family="Helvetica,sans-Serif" font-size="10.00"> </text>
<polyline fill="none" stroke="black" points="185.5,-443.5 349.5,-443.5 "/>
<text text-anchor="start" x="193.5" y="-431.5" font-family="Helvetica,sans-Serif" font-size="10.00">+ GetNetModule()</text>
<text text-anchor="start" x="193.5" y="-420.5" font-family="Helvetica,sans-Serif" font-size="10.00">+ SendMsgPBToGate()</text>
<text text-anchor="start" x="193.5" y="-409.5" font-family="Helvetica,sans-Serif" font-size="10.00">+ SendMsgPBToGate()</text>
<text text-anchor="start" x="193.5" y="-398.5" font-family="Helvetica,sans-Serif" font-size="10.00">+ AddPlayerGateInfo()</text>
<text text-anchor="start" x="193.5" y="-387.5" font-family="Helvetica,sans-Serif" font-size="10.00">+ RemovePlayerGateInfo()</text>
<text text-anchor="start" x="193.5" y="-376.5" font-family="Helvetica,sans-Serif" font-size="10.00">+ GetPlayerGateInfo()</text>
<text text-anchor="start" x="193.5" y="-365.5" font-family="Helvetica,sans-Serif" font-size="10.00">+ OnPropertyEnter()</text>
<text text-anchor="start" x="193.5" y="-354.5" font-family="Helvetica,sans-Serif" font-size="10.00">+ OnRecordEnter()</text>
<text text-anchor="start" x="193.5" y="-343.5" font-family="Helvetica,sans-Serif" font-size="10.00">+ OnObjectListEnter()</text>
<text text-anchor="start" x="193.5" y="-332.5" font-family="Helvetica,sans-Serif" font-size="10.00">+ OnObjectListLeave()</text>
</a>
</g>
</g>
<!-- Node5&#45;&gt;Node9 -->
<g id="edge9" class="edge"><title>Node5&#45;&gt;Node9</title>
<path fill="none" stroke="midnightblue" d="M498.815,-618.074C456.666,-591.829 401.686,-554.606 358.5,-515 347.419,-504.838 336.493,-493.307 326.268,-481.622"/>
<polygon fill="none" stroke="midnightblue" points="496.988,-621.06 507.335,-623.339 500.668,-615.105 496.988,-621.06"/>
</g>
<!-- Node10 -->
<g id="node8" class="node"><title>Node10</title>
<g id="a_node8"><a xlink:href="class_n_f_i_class_module.html" target="_top" xlink:title="{NFIClassModule\n||+ ~NFIClassModule()\l+ Load()\l+ Save()\l+ Clear()\l+ AddClassCallBack()\l+ DoEvent()\l+ AddClassCallBack()\l+ GetClassPropertyManager()\l+ GetClassRecordManager()\l+ GetClassComponentManager()\l}">
<polygon fill="white" stroke="black" points="895,-325.5 895,-481.5 1054,-481.5 1054,-325.5 895,-325.5"/>
<text text-anchor="middle" x="974.5" y="-469.5" font-family="Helvetica,sans-Serif" font-size="10.00">NFIClassModule</text>
<polyline fill="none" stroke="black" points="895,-462.5 1054,-462.5 "/>
<text text-anchor="middle" x="974.5" y="-450.5" font-family="Helvetica,sans-Serif" font-size="10.00"> </text>
<polyline fill="none" stroke="black" points="895,-443.5 1054,-443.5 "/>
<text text-anchor="start" x="903" y="-431.5" font-family="Helvetica,sans-Serif" font-size="10.00">+ ~NFIClassModule()</text>
<text text-anchor="start" x="903" y="-420.5" font-family="Helvetica,sans-Serif" font-size="10.00">+ Load()</text>
<text text-anchor="start" x="903" y="-409.5" font-family="Helvetica,sans-Serif" font-size="10.00">+ Save()</text>
<text text-anchor="start" x="903" y="-398.5" font-family="Helvetica,sans-Serif" font-size="10.00">+ Clear()</text>
<text text-anchor="start" x="903" y="-387.5" font-family="Helvetica,sans-Serif" font-size="10.00">+ AddClassCallBack()</text>
<text text-anchor="start" x="903" y="-376.5" font-family="Helvetica,sans-Serif" font-size="10.00">+ DoEvent()</text>
<text text-anchor="start" x="903" y="-365.5" font-family="Helvetica,sans-Serif" font-size="10.00">+ AddClassCallBack()</text>
<text text-anchor="start" x="903" y="-354.5" font-family="Helvetica,sans-Serif" font-size="10.00">+ GetClassPropertyManager()</text>
<text text-anchor="start" x="903" y="-343.5" font-family="Helvetica,sans-Serif" font-size="10.00">+ GetClassRecordManager()</text>
<text text-anchor="start" x="903" y="-332.5" font-family="Helvetica,sans-Serif" font-size="10.00">+ GetClassComponentManager()</text>
</a>
</g>
</g>
<!-- Node5&#45;&gt;Node10 -->
<g id="edge11" class="edge"><title>Node5&#45;&gt;Node10</title>
<path fill="none" stroke="midnightblue" d="M629.447,-637.42C698.199,-615.815 806.714,-575.235 885.5,-515 898.024,-505.425 909.848,-493.731 920.54,-481.576"/>
<polygon fill="none" stroke="midnightblue" points="628.116,-634.168 619.6,-640.47 630.188,-640.855 628.116,-634.168"/>
</g>
<!-- Node12 -->
<g id="node10" class="node"><title>Node12</title>
<g id="a_node10"><a xlink:href="class_n_f_i_element_module.html" target="_top" xlink:title="{NFIElementModule\n||+ Load()\l+ Save()\l+ Clear()\l+ ExistElement()\l+ ExistElement()\l+ GetPropertyManager()\l+ GetRecordManager()\l+ GetComponentManager()\l+ GetPropertyInt()\l+ GetPropertyFloat()\l+ GetPropertyString()\l}">
<polygon fill="white" stroke="black" points="367.5,-320 367.5,-487 501.5,-487 501.5,-320 367.5,-320"/>
<text text-anchor="middle" x="434.5" y="-475" font-family="Helvetica,sans-Serif" font-size="10.00">NFIElementModule</text>
<polyline fill="none" stroke="black" points="367.5,-468 501.5,-468 "/>
<text text-anchor="middle" x="434.5" y="-456" font-family="Helvetica,sans-Serif" font-size="10.00"> </text>
<polyline fill="none" stroke="black" points="367.5,-449 501.5,-449 "/>
<text text-anchor="start" x="375.5" y="-437" font-family="Helvetica,sans-Serif" font-size="10.00">+ Load()</text>
<text text-anchor="start" x="375.5" y="-426" font-family="Helvetica,sans-Serif" font-size="10.00">+ Save()</text>
<text text-anchor="start" x="375.5" y="-415" font-family="Helvetica,sans-Serif" font-size="10.00">+ Clear()</text>
<text text-anchor="start" x="375.5" y="-404" font-family="Helvetica,sans-Serif" font-size="10.00">+ ExistElement()</text>
<text text-anchor="start" x="375.5" y="-393" font-family="Helvetica,sans-Serif" font-size="10.00">+ ExistElement()</text>
<text text-anchor="start" x="375.5" y="-382" font-family="Helvetica,sans-Serif" font-size="10.00">+ GetPropertyManager()</text>
<text text-anchor="start" x="375.5" y="-371" font-family="Helvetica,sans-Serif" font-size="10.00">+ GetRecordManager()</text>
<text text-anchor="start" x="375.5" y="-360" font-family="Helvetica,sans-Serif" font-size="10.00">+ GetComponentManager()</text>
<text text-anchor="start" x="375.5" y="-349" font-family="Helvetica,sans-Serif" font-size="10.00">+ GetPropertyInt()</text>
<text text-anchor="start" x="375.5" y="-338" font-family="Helvetica,sans-Serif" font-size="10.00">+ GetPropertyFloat()</text>
<text text-anchor="start" x="375.5" y="-327" font-family="Helvetica,sans-Serif" font-size="10.00">+ GetPropertyString()</text>
</a>
</g>
</g>
<!-- Node5&#45;&gt;Node12 -->
<g id="edge14" class="edge"><title>Node5&#45;&gt;Node12</title>
<path fill="none" stroke="midnightblue" d="M510.823,-553.3C499.513,-531.25 487.701,-508.221 476.843,-487.052"/>
<polygon fill="none" stroke="midnightblue" points="507.787,-555.05 515.465,-562.351 514.015,-551.855 507.787,-555.05"/>
</g>
<!-- Node13 -->
<g id="node11" class="node"><title>Node13</title>
<g id="a_node11"><a xlink:href="class_n_f_i_log_module.html" target="_top" xlink:title="{NFILogModule\n||+ LogDebug()\l+ LogInfo()\l+ LogWarning()\l+ LogError()\l+ LogFatal()\l+ LogDebug()\l+ LogInfo()\l+ LogWarning()\l+ LogError()\l+ LogFatal()\land 8 more...\l}">
<polygon fill="white" stroke="black" points="649,-320 649,-487 732,-487 732,-320 649,-320"/>
<text text-anchor="middle" x="690.5" y="-475" font-family="Helvetica,sans-Serif" font-size="10.00">NFILogModule</text>
<polyline fill="none" stroke="black" points="649,-468 732,-468 "/>
<text text-anchor="middle" x="690.5" y="-456" font-family="Helvetica,sans-Serif" font-size="10.00"> </text>
<polyline fill="none" stroke="black" points="649,-449 732,-449 "/>
<text text-anchor="start" x="657" y="-437" font-family="Helvetica,sans-Serif" font-size="10.00">+ LogDebug()</text>
<text text-anchor="start" x="657" y="-426" font-family="Helvetica,sans-Serif" font-size="10.00">+ LogInfo()</text>
<text text-anchor="start" x="657" y="-415" font-family="Helvetica,sans-Serif" font-size="10.00">+ LogWarning()</text>
<text text-anchor="start" x="657" y="-404" font-family="Helvetica,sans-Serif" font-size="10.00">+ LogError()</text>
<text text-anchor="start" x="657" y="-393" font-family="Helvetica,sans-Serif" font-size="10.00">+ LogFatal()</text>
<text text-anchor="start" x="657" y="-382" font-family="Helvetica,sans-Serif" font-size="10.00">+ LogDebug()</text>
<text text-anchor="start" x="657" y="-371" font-family="Helvetica,sans-Serif" font-size="10.00">+ LogInfo()</text>
<text text-anchor="start" x="657" y="-360" font-family="Helvetica,sans-Serif" font-size="10.00">+ LogWarning()</text>
<text text-anchor="start" x="657" y="-349" font-family="Helvetica,sans-Serif" font-size="10.00">+ LogError()</text>
<text text-anchor="start" x="657" y="-338" font-family="Helvetica,sans-Serif" font-size="10.00">+ LogFatal()</text>
<text text-anchor="start" x="657" y="-327" font-family="Helvetica,sans-Serif" font-size="10.00">and 8 more...</text>
</a>
</g>
</g>
<!-- Node5&#45;&gt;Node13 -->
<g id="edge16" class="edge"><title>Node5&#45;&gt;Node13</title>
<path fill="none" stroke="midnightblue" d="M625.83,-586.306C635.759,-572.897 645.16,-558.496 652.5,-544 661.401,-526.421 668.416,-506.505 673.866,-487.34"/>
<polygon fill="none" stroke="midnightblue" points="622.854,-584.438 619.593,-594.518 628.429,-588.671 622.854,-584.438"/>
</g>
<!-- Node6&#45;&gt;Node5 -->
<g id="edge3" class="edge"><title>Node6&#45;&gt;Node5</title>
<path fill="none" stroke="#404040" d="M571.028,-498.228C570.22,-515.169 569.372,-532.941 568.548,-550.199"/>
<polygon fill="none" stroke="#404040" points="568.54,-550.364 572.25,-556.548 567.968,-562.351 564.259,-556.167 568.54,-550.364"/>
<text text-anchor="middle" x="609" y="-536" font-family="Helvetica,sans-Serif" font-size="10.00"> #pPluginManager</text>
</g>
<!-- Node7 -->
<g id="node5" class="node"><title>Node7</title>
<g id="a_node5"><a xlink:href="class_n_f_map_ex.html" target="_top" xlink:title="{NFMapEx\&lt; int, NFMapEx\l\&lt; std::string, NFCSceneProcess\lModule::SceneSeedResource \&gt; \&gt;\n|&#45; mObjectList\l&#45; mObjectCurIter\l|+ NFMapEx()\l+ ~NFMapEx()\l+ AddElement()\l+ SetElement()\l+ RemoveElement()\l+ GetElementNude()\l+ GetElement()\l+ FirstNude()\l+ FirstNude()\l+ NextNude()\land 7 more...\l}">
<polygon fill="white" stroke="black" points="1072.5,-303.5 1072.5,-503.5 1236.5,-503.5 1236.5,-303.5 1072.5,-303.5"/>
<text text-anchor="start" x="1080.5" y="-491.5" font-family="Helvetica,sans-Serif" font-size="10.00">NFMapEx&lt; int, NFMapEx</text>
<text text-anchor="start" x="1080.5" y="-480.5" font-family="Helvetica,sans-Serif" font-size="10.00">&lt; std::string, NFCSceneProcess</text>
<text text-anchor="middle" x="1154.5" y="-469.5" font-family="Helvetica,sans-Serif" font-size="10.00">Module::SceneSeedResource &gt; &gt;</text>
<polyline fill="none" stroke="black" points="1072.5,-462.5 1236.5,-462.5 "/>
<text text-anchor="start" x="1080.5" y="-450.5" font-family="Helvetica,sans-Serif" font-size="10.00">&#45; mObjectList</text>
<text text-anchor="start" x="1080.5" y="-439.5" font-family="Helvetica,sans-Serif" font-size="10.00">&#45; mObjectCurIter</text>
<polyline fill="none" stroke="black" points="1072.5,-432.5 1236.5,-432.5 "/>
<text text-anchor="start" x="1080.5" y="-420.5" font-family="Helvetica,sans-Serif" font-size="10.00">+ NFMapEx()</text>
<text text-anchor="start" x="1080.5" y="-409.5" font-family="Helvetica,sans-Serif" font-size="10.00">+ ~NFMapEx()</text>
<text text-anchor="start" x="1080.5" y="-398.5" font-family="Helvetica,sans-Serif" font-size="10.00">+ AddElement()</text>
<text text-anchor="start" x="1080.5" y="-387.5" font-family="Helvetica,sans-Serif" font-size="10.00">+ SetElement()</text>
<text text-anchor="start" x="1080.5" y="-376.5" font-family="Helvetica,sans-Serif" font-size="10.00">+ RemoveElement()</text>
<text text-anchor="start" x="1080.5" y="-365.5" font-family="Helvetica,sans-Serif" font-size="10.00">+ GetElementNude()</text>
<text text-anchor="start" x="1080.5" y="-354.5" font-family="Helvetica,sans-Serif" font-size="10.00">+ GetElement()</text>
<text text-anchor="start" x="1080.5" y="-343.5" font-family="Helvetica,sans-Serif" font-size="10.00">+ FirstNude()</text>
<text text-anchor="start" x="1080.5" y="-332.5" font-family="Helvetica,sans-Serif" font-size="10.00">+ FirstNude()</text>
<text text-anchor="start" x="1080.5" y="-321.5" font-family="Helvetica,sans-Serif" font-size="10.00">+ NextNude()</text>
<text text-anchor="start" x="1080.5" y="-310.5" font-family="Helvetica,sans-Serif" font-size="10.00">and 7 more...</text>
</a>
</g>
</g>
<!-- Node7&#45;&gt;Node3 -->
<g id="edge5" class="edge"><title>Node7&#45;&gt;Node3</title>
<path fill="none" stroke="#404040" d="M1076.18,-303.488C1071.71,-299.439 1067.15,-295.583 1062.5,-292 975.328,-224.763 857.982,-175.334 778.573,-146.692"/>
<polygon fill="none" stroke="#404040" points="778.444,-146.646 771.449,-148.4 767.14,-142.617 774.135,-140.864 778.444,-146.646"/>
<text text-anchor="middle" x="1093.5" y="-260.5" font-family="Helvetica,sans-Serif" font-size="10.00"> &#45;mtSceneResourceConfig</text>
</g>
<!-- Node8&#45;&gt;Node3 -->
<g id="edge6" class="edge"><title>Node8&#45;&gt;Node3</title>
<path fill="none" stroke="#404040" d="M167.084,-299.061C170.174,-296.588 173.314,-294.226 176.5,-292 308.614,-199.667 493.712,-153.034 601.969,-132.256"/>
<polygon fill="none" stroke="#404040" points="602.02,-132.246 607.177,-127.206 613.813,-130.027 608.656,-135.068 602.02,-132.246"/>
<text text-anchor="middle" x="282" y="-260.5" font-family="Helvetica,sans-Serif" font-size="10.00"> &#45;m_pKernelModule</text>
</g>
<!-- Node9&#45;&gt;Node3 -->
<g id="edge8" class="edge"><title>Node9&#45;&gt;Node3</title>
<path fill="none" stroke="#404040" d="M329.464,-325.303C339.013,-313.982 348.894,-302.58 358.5,-292 375.4,-273.386 377.861,-266.358 398.5,-252 461.84,-207.936 541.99,-172.366 602.287,-148.977"/>
<polygon fill="none" stroke="#404040" points="602.483,-148.902 606.654,-143.019 613.688,-144.607 609.517,-150.489 602.483,-148.902"/>
<text text-anchor="start" x="398.5" y="-266" font-family="Helvetica,sans-Serif" font-size="10.00"> &#45;m_pGameServerNet_Server</text>
<text text-anchor="middle" x="461.5" y="-255" font-family="Helvetica,sans-Serif" font-size="10.00">Module</text>
</g>
<!-- Node10&#45;&gt;Node3 -->
<g id="edge10" class="edge"><title>Node10&#45;&gt;Node3</title>
<path fill="none" stroke="#404040" d="M915.047,-325.321C905.468,-313.884 895.429,-302.444 885.5,-292 851.636,-256.381 811.518,-219.753 776.5,-189.346"/>
<polygon fill="none" stroke="#404040" points="776.324,-189.193 769.168,-188.298 767.243,-181.348 774.398,-182.244 776.324,-189.193"/>
<text text-anchor="middle" x="907.5" y="-260.5" font-family="Helvetica,sans-Serif" font-size="10.00"> &#45;m_pClassModule</text>
</g>
<!-- Node11 -->
<g id="node9" class="node"><title>Node11</title>
<g id="a_node9"><a xlink:href="class_n_f_map_ex.html" target="_top" xlink:title="{NFMapEx\&lt; std::string,\l NFIClass \&gt;\n|&#45; mObjectList\l&#45; mObjectCurIter\l|+ NFMapEx()\l+ ~NFMapEx()\l+ AddElement()\l+ SetElement()\l+ RemoveElement()\l+ GetElementNude()\l+ GetElement()\l+ FirstNude()\l+ FirstNude()\l+ NextNude()\land 7 more...\l}">
<polygon fill="white" stroke="black" points="916.5,-562.5 916.5,-751.5 1032.5,-751.5 1032.5,-562.5 916.5,-562.5"/>
<text text-anchor="start" x="924.5" y="-739.5" font-family="Helvetica,sans-Serif" font-size="10.00">NFMapEx&lt; std::string,</text>
<text text-anchor="middle" x="974.5" y="-728.5" font-family="Helvetica,sans-Serif" font-size="10.00"> NFIClass &gt;</text>
<polyline fill="none" stroke="black" points="916.5,-721.5 1032.5,-721.5 "/>
<text text-anchor="start" x="924.5" y="-709.5" font-family="Helvetica,sans-Serif" font-size="10.00">&#45; mObjectList</text>
<text text-anchor="start" x="924.5" y="-698.5" font-family="Helvetica,sans-Serif" font-size="10.00">&#45; mObjectCurIter</text>
<polyline fill="none" stroke="black" points="916.5,-691.5 1032.5,-691.5 "/>
<text text-anchor="start" x="924.5" y="-679.5" font-family="Helvetica,sans-Serif" font-size="10.00">+ NFMapEx()</text>
<text text-anchor="start" x="924.5" y="-668.5" font-family="Helvetica,sans-Serif" font-size="10.00">+ ~NFMapEx()</text>
<text text-anchor="start" x="924.5" y="-657.5" font-family="Helvetica,sans-Serif" font-size="10.00">+ AddElement()</text>
<text text-anchor="start" x="924.5" y="-646.5" font-family="Helvetica,sans-Serif" font-size="10.00">+ SetElement()</text>
<text text-anchor="start" x="924.5" y="-635.5" font-family="Helvetica,sans-Serif" font-size="10.00">+ RemoveElement()</text>
<text text-anchor="start" x="924.5" y="-624.5" font-family="Helvetica,sans-Serif" font-size="10.00">+ GetElementNude()</text>
<text text-anchor="start" x="924.5" y="-613.5" font-family="Helvetica,sans-Serif" font-size="10.00">+ GetElement()</text>
<text text-anchor="start" x="924.5" y="-602.5" font-family="Helvetica,sans-Serif" font-size="10.00">+ FirstNude()</text>
<text text-anchor="start" x="924.5" y="-591.5" font-family="Helvetica,sans-Serif" font-size="10.00">+ FirstNude()</text>
<text text-anchor="start" x="924.5" y="-580.5" font-family="Helvetica,sans-Serif" font-size="10.00">+ NextNude()</text>
<text text-anchor="start" x="924.5" y="-569.5" font-family="Helvetica,sans-Serif" font-size="10.00">and 7 more...</text>
</a>
</g>
</g>
<!-- Node11&#45;&gt;Node10 -->
<g id="edge12" class="edge"><title>Node11&#45;&gt;Node10</title>
<path fill="none" stroke="midnightblue" d="M974.5,-552.314C974.5,-528.72 974.5,-504.055 974.5,-481.785"/>
<polygon fill="none" stroke="midnightblue" points="971,-552.351 974.5,-562.351 978,-552.351 971,-552.351"/>
</g>
<!-- Node12&#45;&gt;Node3 -->
<g id="edge13" class="edge"><title>Node12&#45;&gt;Node3</title>
<path fill="none" stroke="#404040" d="M488.54,-319.968C495.646,-310.324 503.054,-300.797 510.5,-292 539.124,-258.182 573.493,-223.707 604.493,-194.46"/>
<polygon fill="none" stroke="#404040" points="604.81,-194.164 606.453,-187.142 613.566,-185.958 611.923,-192.98 604.81,-194.164"/>
<text text-anchor="middle" x="589" y="-260.5" font-family="Helvetica,sans-Serif" font-size="10.00"> &#45;m_pElementModule</text>
</g>
<!-- Node13&#45;&gt;Node3 -->
<g id="edge15" class="edge"><title>Node13&#45;&gt;Node3</title>
<path fill="none" stroke="#404040" d="M690.5,-319.829C690.5,-296.706 690.5,-271.02 690.5,-245.935"/>
<polygon fill="none" stroke="#404040" points="690.5,-245.682 686.5,-239.682 690.5,-233.682 694.5,-239.682 690.5,-245.682"/>
<text text-anchor="middle" x="727" y="-260.5" font-family="Helvetica,sans-Serif" font-size="10.00"> &#45;m_pLogModule</text>
</g>
</g>
</svg>
        <g id="navigator" transform="translate(0 0)" fill="#404254">
                <rect fill="#f2f5e9" fill-opacity="0.5" stroke="#606060" stroke-width=".5" x="0" y="0" width="60" height="60"/>
                <use id="zoomplus" xlink:href="#zoomPlus" x="17" y="9" onmousedown="handleZoom(evt,'in')"/>
                <use id="zoomminus" xlink:href="#zoomMin" x="42" y="9" onmousedown="handleZoom(evt,'out')"/>
                <use id="reset" xlink:href="#resetDef" x="30" y="36" onmousedown="handleReset()"/>
                <g id="arrowUp" xlink:href="#dirArrow" transform="translate(30 24)" onmousedown="handlePan(0,-1)">
                  <use xlink:href="#rim" fill="#404040">
                        <set attributeName="fill" to="#808080" begin="arrowUp.mouseover" end="arrowUp.mouseout"/>
                  </use>
                  <path fill="none" stroke="white" stroke-width="1.5" d="M0,-3.0v7 M-2.5,-0.5L0,-3.0L2.5,-0.5"/>
                </g>
                <g id="arrowRight" xlink:href="#dirArrow" transform="rotate(90) translate(36 -43)" onmousedown="handlePan(1,0)">
                  <use xlink:href="#rim" fill="#404040">
                        <set attributeName="fill" to="#808080" begin="arrowRight.mouseover" end="arrowRight.mouseout"/>
                  </use>
                  <path fill="none" stroke="white" stroke-width="1.5" d="M0,-3.0v7 M-2.5,-0.5L0,-3.0L2.5,-0.5"/>
                </g>
                <g id="arrowDown" xlink:href="#dirArrow" transform="rotate(180) translate(-30 -48)" onmousedown="handlePan(0,1)">
                  <use xlink:href="#rim" fill="#404040">
                        <set attributeName="fill" to="#808080" begin="arrowDown.mouseover" end="arrowDown.mouseout"/>
                  </use>
                  <path fill="none" stroke="white" stroke-width="1.5" d="M0,-3.0v7 M-2.5,-0.5L0,-3.0L2.5,-0.5"/>
                </g>
                <g id="arrowLeft" xlink:href="#dirArrow" transform="rotate(270) translate(-36 17)" onmousedown="handlePan(-1,0)">
                  <use xlink:href="#rim" fill="#404040">
                        <set attributeName="fill" to="#808080" begin="arrowLeft.mouseover" end="arrowLeft.mouseout"/>
                  </use>
                  <path fill="none" stroke="white" stroke-width="1.5" d="M0,-3.0v7 M-2.5,-0.5L0,-3.0L2.5,-0.5"/>
                </g>
        </g>
        <svg viewBox="0 0 15 15" width="100%" height="30px" preserveAspectRatio="xMaxYMin meet">
         <g id="arrow_out" transform="scale(0.3 0.3)">
          <a xlink:href="class_n_f_c_scene_process_module__coll__graph_org.svg" target="_base">
           <rect id="button" ry="5" rx="5" y="6" x="6" height="38" width="38"
                fill="#f2f5e9" fill-opacity="0.5" stroke="#606060" stroke-width="1.0"/>
           <path id="arrow"
             d="M 11.500037,31.436501 C 11.940474,20.09759 22.043105,11.32322 32.158766,21.979434 L 37.068811,17.246167 C 37.068811,17.246167 37.088388,32 37.088388,32 L 22.160133,31.978069 C 22.160133,31.978069 26.997745,27.140456 26.997745,27.140456 C 18.528582,18.264221 13.291696,25.230495 11.500037,31.436501 z"
             style="fill:#404040;"/>
          </a>
         </g>
        </svg>
</svg>
