<?xml version="1.0" encoding="UTF-8" standalone="no"?>
<!DOCTYPE svg PUBLIC "-//W3C//DTD SVG 1.1//EN"
 "http://www.w3.org/Graphics/SVG/1.1/DTD/svg11.dtd">
<!-- Generated by graphviz version 2.38.0 (20140413.2041)
 -->
<!-- Title: NFCMasterModule Pages: 1 -->
<svg width="415pt" height="606pt"
 viewBox="0.00 0.00 415.00 606.00" xmlns="http://www.w3.org/2000/svg" xmlns:xlink="http://www.w3.org/1999/xlink">
<g id="graph0" class="graph" transform="scale(1 1) rotate(0) translate(4 602)">
<title>NFCMasterModule</title>
<polygon fill="white" stroke="none" points="-4,4 -4,-602 411,-602 411,4 -4,4"/>
<!-- Node3 -->
<g id="node1" class="node"><title>Node3</title>
<polygon fill="#bfbfbf" stroke="black" points="67,-0.5 67,-90.5 180,-90.5 180,-0.5 67,-0.5"/>
<text text-anchor="middle" x="123.5" y="-78.5" font-family="Helvetica,sans-Serif" font-size="10.00">NFCMasterModule</text>
<polyline fill="none" stroke="black" points="67,-71.5 180,-71.5 "/>
<text text-anchor="middle" x="123.5" y="-59.5" font-family="Helvetica,sans-Serif" font-size="10.00"> </text>
<polyline fill="none" stroke="black" points="67,-52.5 180,-52.5 "/>
<text text-anchor="start" x="75" y="-40.5" font-family="Helvetica,sans-Serif" font-size="10.00">+ NFCMasterModule()</text>
<text text-anchor="start" x="75" y="-29.5" font-family="Helvetica,sans-Serif" font-size="10.00">+ Init()</text>
<text text-anchor="start" x="75" y="-18.5" font-family="Helvetica,sans-Serif" font-size="10.00">+ Shut()</text>
<text text-anchor="start" x="75" y="-7.5" font-family="Helvetica,sans-Serif" font-size="10.00">+ Execute()</text>
</g>
<!-- Node4 -->
<g id="node2" class="node"><title>Node4</title>
<g id="a_node2"><a xlink:href="class_n_f_i_master_module.html" target="_top" xlink:title="{NFIMasterModule\n||}">
<polygon fill="white" stroke="black" points="0,-221 0,-278 93,-278 93,-221 0,-221"/>
<text text-anchor="middle" x="46.5" y="-266" font-family="Helvetica,sans-Serif" font-size="10.00">NFIMasterModule</text>
<polyline fill="none" stroke="black" points="0,-259 93,-259 "/>
<text text-anchor="middle" x="46.5" y="-247" font-family="Helvetica,sans-Serif" font-size="10.00"> </text>
<polyline fill="none" stroke="black" points="0,-240 93,-240 "/>
<text text-anchor="middle" x="46.5" y="-228" font-family="Helvetica,sans-Serif" font-size="10.00"> </text>
</a>
</g>
</g>
<!-- Node4&#45;&gt;Node3 -->
<g id="edge1" class="edge"><title>Node4&#45;&gt;Node3</title>
<path fill="none" stroke="midnightblue" d="M60.6909,-211.272C73.654,-177.265 92.8395,-126.934 106.592,-90.8551"/>
<polygon fill="none" stroke="midnightblue" points="57.3366,-210.245 57.0451,-220.836 63.8775,-212.739 57.3366,-210.245"/>
</g>
<!-- Node5 -->
<g id="node3" class="node"><title>Node5</title>
<g id="a_node3"><a xlink:href="class_n_f_i_module.html" target="_top" xlink:title="{NFIModule\n|+ strName\l# mbReloading\l|+ NFIModule()\l+ ~NFIModule()\l+ Init()\l+ AfterInit()\l+ CheckConfig()\l+ BeforeShut()\l+ Shut()\l+ Execute()\l+ StartReLoadState()\l+ EndReLoadState()\l+ GetPluginManager()\l+ Loading()\l}">
<polygon fill="white" stroke="black" points="109.5,-408.5 109.5,-597.5 221.5,-597.5 221.5,-408.5 109.5,-408.5"/>
<text text-anchor="middle" x="165.5" y="-585.5" font-family="Helvetica,sans-Serif" font-size="10.00">NFIModule</text>
<polyline fill="none" stroke="black" points="109.5,-578.5 221.5,-578.5 "/>
<text text-anchor="start" x="117.5" y="-566.5" font-family="Helvetica,sans-Serif" font-size="10.00">+ strName</text>
<text text-anchor="start" x="117.5" y="-555.5" font-family="Helvetica,sans-Serif" font-size="10.00"># mbReloading</text>
<polyline fill="none" stroke="black" points="109.5,-548.5 221.5,-548.5 "/>
<text text-anchor="start" x="117.5" y="-536.5" font-family="Helvetica,sans-Serif" font-size="10.00">+ NFIModule()</text>
<text text-anchor="start" x="117.5" y="-525.5" font-family="Helvetica,sans-Serif" font-size="10.00">+ ~NFIModule()</text>
<text text-anchor="start" x="117.5" y="-514.5" font-family="Helvetica,sans-Serif" font-size="10.00">+ Init()</text>
<text text-anchor="start" x="117.5" y="-503.5" font-family="Helvetica,sans-Serif" font-size="10.00">+ AfterInit()</text>
<text text-anchor="start" x="117.5" y="-492.5" font-family="Helvetica,sans-Serif" font-size="10.00">+ CheckConfig()</text>
<text text-anchor="start" x="117.5" y="-481.5" font-family="Helvetica,sans-Serif" font-size="10.00">+ BeforeShut()</text>
<text text-anchor="start" x="117.5" y="-470.5" font-family="Helvetica,sans-Serif" font-size="10.00">+ Shut()</text>
<text text-anchor="start" x="117.5" y="-459.5" font-family="Helvetica,sans-Serif" font-size="10.00">+ Execute()</text>
<text text-anchor="start" x="117.5" y="-448.5" font-family="Helvetica,sans-Serif" font-size="10.00">+ StartReLoadState()</text>
<text text-anchor="start" x="117.5" y="-437.5" font-family="Helvetica,sans-Serif" font-size="10.00">+ EndReLoadState()</text>
<text text-anchor="start" x="117.5" y="-426.5" font-family="Helvetica,sans-Serif" font-size="10.00">+ GetPluginManager()</text>
<text text-anchor="start" x="117.5" y="-415.5" font-family="Helvetica,sans-Serif" font-size="10.00">+ Loading()</text>
</a>
</g>
</g>
<!-- Node5&#45;&gt;Node4 -->
<g id="edge2" class="edge"><title>Node5&#45;&gt;Node4</title>
<path fill="none" stroke="midnightblue" d="M116.783,-399.039C95.9886,-355.091 73.3764,-307.302 59.5684,-278.119"/>
<polygon fill="none" stroke="midnightblue" points="113.748,-400.808 121.189,-408.351 120.075,-397.814 113.748,-400.808"/>
</g>
<!-- Node6 -->
<g id="node4" class="node"><title>Node6</title>
<g id="a_node4"><a xlink:href="class_n_f_i_plugin_manager.html" target="_top" xlink:title="{NFIPluginManager\n||+ NFIPluginManager()\l+ FindModule()\l+ Registered()\l+ UnRegistered()\l+ FindPlugin()\l+ AddModule()\l+ RemoveModule()\l+ FindModule()\l+ AppID()\l+ GetInitTime()\l+ GetNowTime()\l+ GetConfigPath()\l+ SetConfigName()\l}">
<polygon fill="white" stroke="black" points="111,-155 111,-344 222,-344 222,-155 111,-155"/>
<text text-anchor="middle" x="166.5" y="-332" font-family="Helvetica,sans-Serif" font-size="10.00">NFIPluginManager</text>
<polyline fill="none" stroke="black" points="111,-325 222,-325 "/>
<text text-anchor="middle" x="166.5" y="-313" font-family="Helvetica,sans-Serif" font-size="10.00"> </text>
<polyline fill="none" stroke="black" points="111,-306 222,-306 "/>
<text text-anchor="start" x="119" y="-294" font-family="Helvetica,sans-Serif" font-size="10.00">+ NFIPluginManager()</text>
<text text-anchor="start" x="119" y="-283" font-family="Helvetica,sans-Serif" font-size="10.00">+ FindModule()</text>
<text text-anchor="start" x="119" y="-272" font-family="Helvetica,sans-Serif" font-size="10.00">+ Registered()</text>
<text text-anchor="start" x="119" y="-261" font-family="Helvetica,sans-Serif" font-size="10.00">+ UnRegistered()</text>
<text text-anchor="start" x="119" y="-250" font-family="Helvetica,sans-Serif" font-size="10.00">+ FindPlugin()</text>
<text text-anchor="start" x="119" y="-239" font-family="Helvetica,sans-Serif" font-size="10.00">+ AddModule()</text>
<text text-anchor="start" x="119" y="-228" font-family="Helvetica,sans-Serif" font-size="10.00">+ RemoveModule()</text>
<text text-anchor="start" x="119" y="-217" font-family="Helvetica,sans-Serif" font-size="10.00">+ FindModule()</text>
<text text-anchor="start" x="119" y="-206" font-family="Helvetica,sans-Serif" font-size="10.00">+ AppID()</text>
<text text-anchor="start" x="119" y="-195" font-family="Helvetica,sans-Serif" font-size="10.00">+ GetInitTime()</text>
<text text-anchor="start" x="119" y="-184" font-family="Helvetica,sans-Serif" font-size="10.00">+ GetNowTime()</text>
<text text-anchor="start" x="119" y="-173" font-family="Helvetica,sans-Serif" font-size="10.00">+ GetConfigPath()</text>
<text text-anchor="start" x="119" y="-162" font-family="Helvetica,sans-Serif" font-size="10.00">+ SetConfigName()</text>
</a>
</g>
</g>
<!-- Node5&#45;&gt;Node6 -->
<g id="edge4" class="edge"><title>Node5&#45;&gt;Node6</title>
<path fill="none" stroke="midnightblue" d="M163.583,-398.295C163.552,-395.501 163.524,-392.732 163.5,-390 163.368,-375.224 163.469,-359.569 163.7,-344.293"/>
<polygon fill="none" stroke="midnightblue" points="160.085,-398.543 163.706,-408.5 167.085,-398.458 160.085,-398.543"/>
</g>
<!-- Node7 -->
<g id="node5" class="node"><title>Node7</title>
<g id="a_node5"><a xlink:href="class_n_f_i_kernel_module.html" target="_top" xlink:title="{NFIKernelModule\n||+ AddHeartBeat()\l+ FindHeartBeat()\l+ RemoveHeartBeat()\l+ AddRecordCallBack()\l+ AddPropertyCallBack()\l+ AddEventCallBack()\l+ AddClassCallBack()\l+ DoEvent()\l+ DoEvent()\l+ RegisterCommonClassEvent()\land 56 more...\l# AddEventCallBack()\l# AddClassCallBack()\l# RegisterCommonClassEvent()\l# RegisterCommonPropertyEvent()\l# RegisterCommonRecordEvent()\l}">
<polygon fill="white" stroke="black" points="240,-138.5 240,-360.5 407,-360.5 407,-138.5 240,-138.5"/>
<text text-anchor="middle" x="323.5" y="-348.5" font-family="Helvetica,sans-Serif" font-size="10.00">NFIKernelModule</text>
<polyline fill="none" stroke="black" points="240,-341.5 407,-341.5 "/>
<text text-anchor="middle" x="323.5" y="-329.5" font-family="Helvetica,sans-Serif" font-size="10.00"> </text>
<polyline fill="none" stroke="black" points="240,-322.5 407,-322.5 "/>
<text text-anchor="start" x="248" y="-310.5" font-family="Helvetica,sans-Serif" font-size="10.00">+ AddHeartBeat()</text>
<text text-anchor="start" x="248" y="-299.5" font-family="Helvetica,sans-Serif" font-size="10.00">+ FindHeartBeat()</text>
<text text-anchor="start" x="248" y="-288.5" font-family="Helvetica,sans-Serif" font-size="10.00">+ RemoveHeartBeat()</text>
<text text-anchor="start" x="248" y="-277.5" font-family="Helvetica,sans-Serif" font-size="10.00">+ AddRecordCallBack()</text>
<text text-anchor="start" x="248" y="-266.5" font-family="Helvetica,sans-Serif" font-size="10.00">+ AddPropertyCallBack()</text>
<text text-anchor="start" x="248" y="-255.5" font-family="Helvetica,sans-Serif" font-size="10.00">+ AddEventCallBack()</text>
<text text-anchor="start" x="248" y="-244.5" font-family="Helvetica,sans-Serif" font-size="10.00">+ AddClassCallBack()</text>
<text text-anchor="start" x="248" y="-233.5" font-family="Helvetica,sans-Serif" font-size="10.00">+ DoEvent()</text>
<text text-anchor="start" x="248" y="-222.5" font-family="Helvetica,sans-Serif" font-size="10.00">+ DoEvent()</text>
<text text-anchor="start" x="248" y="-211.5" font-family="Helvetica,sans-Serif" font-size="10.00">+ RegisterCommonClassEvent()</text>
<text text-anchor="start" x="248" y="-200.5" font-family="Helvetica,sans-Serif" font-size="10.00">and 56 more...</text>
<text text-anchor="start" x="248" y="-189.5" font-family="Helvetica,sans-Serif" font-size="10.00"># AddEventCallBack()</text>
<text text-anchor="start" x="248" y="-178.5" font-family="Helvetica,sans-Serif" font-size="10.00"># AddClassCallBack()</text>
<text text-anchor="start" x="248" y="-167.5" font-family="Helvetica,sans-Serif" font-size="10.00"># RegisterCommonClassEvent()</text>
<text text-anchor="start" x="248" y="-156.5" font-family="Helvetica,sans-Serif" font-size="10.00"># RegisterCommonPropertyEvent()</text>
<text text-anchor="start" x="248" y="-145.5" font-family="Helvetica,sans-Serif" font-size="10.00"># RegisterCommonRecordEvent()</text>
</a>
</g>
</g>
<!-- Node5&#45;&gt;Node7 -->
<g id="edge6" class="edge"><title>Node5&#45;&gt;Node7</title>
<path fill="none" stroke="midnightblue" d="M227.424,-421.304C234.755,-410.925 241.951,-400.319 248.5,-390 254.468,-380.598 260.424,-370.679 266.224,-360.642"/>
<polygon fill="none" stroke="midnightblue" points="224.486,-419.396 221.525,-429.568 230.183,-423.462 224.486,-419.396"/>
</g>
<!-- Node6&#45;&gt;Node5 -->
<g id="edge3" class="edge"><title>Node6&#45;&gt;Node5</title>
<path fill="none" stroke="#404040" d="M166.127,-344.228C166.06,-361.169 165.989,-378.941 165.921,-396.199"/>
<polygon fill="none" stroke="#404040" points="165.92,-396.351 169.896,-402.367 165.872,-408.351 161.896,-402.335 165.92,-396.351"/>
<text text-anchor="middle" x="205" y="-382" font-family="Helvetica,sans-Serif" font-size="10.00"> #pPluginManager</text>
</g>
<!-- Node7&#45;&gt;Node3 -->
<g id="edge5" class="edge"><title>Node7&#45;&gt;Node3</title>
<path fill="none" stroke="#404040" d="M239.948,-146.72C237.132,-143.75 234.312,-140.836 231.5,-138 218.229,-124.615 203.216,-111.037 188.696,-98.5833"/>
<polygon fill="none" stroke="#404040" points="188.402,-98.3344 181.239,-97.506 179.248,-90.575 186.412,-91.4034 188.402,-98.3344"/>
<text text-anchor="middle" x="254" y="-112" font-family="Helvetica,sans-Serif" font-size="10.00"> &#45;m_pKernelModule</text>
</g>
</g>
</svg>
