<?xml version="1.0" encoding="UTF-8" standalone="no"?>
<!DOCTYPE svg PUBLIC "-//W3C//DTD SVG 1.1//EN"
 "http://www.w3.org/Graphics/SVG/1.1/DTD/svg11.dtd">
<!-- Generated by graphviz version 2.38.0 (20140413.2041)
 -->
<!-- Title: NFIWorldGuildBroadcastModule Pages: 1 -->
<svg width="163pt" height="160pt"
 viewBox="0.00 0.00 163.00 160.00" xmlns="http://www.w3.org/2000/svg" xmlns:xlink="http://www.w3.org/1999/xlink">
<g id="graph0" class="graph" transform="scale(1 1) rotate(0) translate(4 156)">
<title>NFIWorldGuildBroadcastModule</title>
<polygon fill="white" stroke="none" points="-4,4 -4,-156 159,-156 159,4 -4,4"/>
<!-- Node2 -->
<g id="node1" class="node"><title>Node2</title>
<polygon fill="#bfbfbf" stroke="black" points="0,-0.5 0,-57.5 155,-57.5 155,-0.5 0,-0.5"/>
<text text-anchor="middle" x="77.5" y="-45.5" font-family="Helvetica,sans-Serif" font-size="10.00">NFIWorldGuildBroadcastModule</text>
<polyline fill="none" stroke="black" points="0,-38.5 155,-38.5 "/>
<text text-anchor="middle" x="77.5" y="-26.5" font-family="Helvetica,sans-Serif" font-size="10.00"> </text>
<polyline fill="none" stroke="black" points="0,-19.5 155,-19.5 "/>
<text text-anchor="middle" x="77.5" y="-7.5" font-family="Helvetica,sans-Serif" font-size="10.00"> </text>
</g>
<!-- Node3 -->
<g id="node2" class="node"><title>Node3</title>
<polygon fill="white" stroke="#bfbfbf" points="34.5,-94.5 34.5,-151.5 120.5,-151.5 120.5,-94.5 34.5,-94.5"/>
<text text-anchor="middle" x="77.5" y="-139.5" font-family="Helvetica,sans-Serif" font-size="10.00">NFILogicModule</text>
<polyline fill="none" stroke="#bfbfbf" points="34.5,-132.5 120.5,-132.5 "/>
<text text-anchor="middle" x="77.5" y="-120.5" font-family="Helvetica,sans-Serif" font-size="10.00"> </text>
<polyline fill="none" stroke="#bfbfbf" points="34.5,-113.5 120.5,-113.5 "/>
<text text-anchor="middle" x="77.5" y="-101.5" font-family="Helvetica,sans-Serif" font-size="10.00"> </text>
</g>
<!-- Node3&#45;&gt;Node2 -->
<g id="edge1" class="edge"><title>Node3&#45;&gt;Node2</title>
<path fill="none" stroke="midnightblue" d="M77.5,-84.2092C77.5,-75.2929 77.5,-65.9513 77.5,-57.5836"/>
<polygon fill="none" stroke="midnightblue" points="74.0001,-84.3969 77.5,-94.397 81.0001,-84.397 74.0001,-84.3969"/>
</g>
</g>
</svg>
