<?xml version="1.0" encoding="UTF-8" standalone="no"?>
<!DOCTYPE svg PUBLIC "-//W3C//DTD SVG 1.1//EN"
 "http://www.w3.org/Graphics/SVG/1.1/DTD/svg11.dtd">
<!-- Generated by graphviz version 2.38.0 (20140413.2041)
 -->
<!-- Title: NFCGameServerNet_ServerModule Pages: 1 -->
<svg width="1832pt" height="914pt"
 viewBox="0.00 0.00 1832.00 914.00" xmlns="http://www.w3.org/2000/svg" xmlns:xlink="http://www.w3.org/1999/xlink">
<g id="graph0" class="graph" transform="scale(1 1) rotate(0) translate(4 910)">
<title>NFCGameServerNet_ServerModule</title>
<polygon fill="white" stroke="none" points="-4,4 -4,-910 1828,-910 1828,4 -4,4"/>
<!-- Node3 -->
<g id="node1" class="node"><title>Node3</title>
<polygon fill="#bfbfbf" stroke="black" points="827.5,-0.5 827.5,-310.5 1010.5,-310.5 1010.5,-0.5 827.5,-0.5"/>
<text text-anchor="middle" x="919" y="-298.5" font-family="Helvetica,sans-Serif" font-size="10.00">NFCGameServerNet_ServerModule</text>
<polyline fill="none" stroke="black" points="827.5,-291.5 1010.5,-291.5 "/>
<text text-anchor="middle" x="919" y="-279.5" font-family="Helvetica,sans-Serif" font-size="10.00"> </text>
<polyline fill="none" stroke="black" points="827.5,-272.5 1010.5,-272.5 "/>
<text text-anchor="start" x="835.5" y="-260.5" font-family="Helvetica,sans-Serif" font-size="10.00">+ NFCGameServerNet_ServerModule()</text>
<text text-anchor="start" x="835.5" y="-249.5" font-family="Helvetica,sans-Serif" font-size="10.00">+ Init()</text>
<text text-anchor="start" x="835.5" y="-238.5" font-family="Helvetica,sans-Serif" font-size="10.00">+ Shut()</text>
<text text-anchor="start" x="835.5" y="-227.5" font-family="Helvetica,sans-Serif" font-size="10.00">+ Execute()</text>
<text text-anchor="start" x="835.5" y="-216.5" font-family="Helvetica,sans-Serif" font-size="10.00">+ AfterInit()</text>
<text text-anchor="start" x="835.5" y="-205.5" font-family="Helvetica,sans-Serif" font-size="10.00">+ LogReceive()</text>
<text text-anchor="start" x="835.5" y="-194.5" font-family="Helvetica,sans-Serif" font-size="10.00">+ LogSend()</text>
<text text-anchor="start" x="835.5" y="-183.5" font-family="Helvetica,sans-Serif" font-size="10.00">+ SendMsgPBToGate()</text>
<text text-anchor="start" x="835.5" y="-172.5" font-family="Helvetica,sans-Serif" font-size="10.00">+ SendMsgPBToGate()</text>
<text text-anchor="start" x="835.5" y="-161.5" font-family="Helvetica,sans-Serif" font-size="10.00">+ GetNetModule()</text>
<text text-anchor="start" x="835.5" y="-150.5" font-family="Helvetica,sans-Serif" font-size="10.00">and 9 more...</text>
<text text-anchor="start" x="835.5" y="-139.5" font-family="Helvetica,sans-Serif" font-size="10.00"># OnSocketPSEvent()</text>
<text text-anchor="start" x="835.5" y="-128.5" font-family="Helvetica,sans-Serif" font-size="10.00"># OnClientDisconnect()</text>
<text text-anchor="start" x="835.5" y="-117.5" font-family="Helvetica,sans-Serif" font-size="10.00"># OnClientConnected()</text>
<text text-anchor="start" x="835.5" y="-106.5" font-family="Helvetica,sans-Serif" font-size="10.00"># OnProxyServerRegisteredProcess()</text>
<text text-anchor="start" x="835.5" y="-95.5" font-family="Helvetica,sans-Serif" font-size="10.00"># OnProxyServerUnRegistered</text>
<text text-anchor="start" x="835.5" y="-84.5" font-family="Helvetica,sans-Serif" font-size="10.00">Process()</text>
<text text-anchor="start" x="835.5" y="-73.5" font-family="Helvetica,sans-Serif" font-size="10.00"># OnRefreshProxyServerInfo</text>
<text text-anchor="start" x="835.5" y="-62.5" font-family="Helvetica,sans-Serif" font-size="10.00">Process()</text>
<text text-anchor="start" x="835.5" y="-51.5" font-family="Helvetica,sans-Serif" font-size="10.00"># OnReqiureRoleListProcess()</text>
<text text-anchor="start" x="835.5" y="-40.5" font-family="Helvetica,sans-Serif" font-size="10.00"># OnCreateRoleGameProcess()</text>
<text text-anchor="start" x="835.5" y="-29.5" font-family="Helvetica,sans-Serif" font-size="10.00"># OnDeleteRoleGameProcess()</text>
<text text-anchor="start" x="835.5" y="-18.5" font-family="Helvetica,sans-Serif" font-size="10.00"># OnClienEnterGameProcess()</text>
<text text-anchor="start" x="835.5" y="-7.5" font-family="Helvetica,sans-Serif" font-size="10.00">and 12 more...</text>
</g>
<!-- Node4 -->
<g id="node2" class="node"><title>Node4</title>
<g id="a_node2"><a xlink:href="class_n_f_i_game_server_net___server_module.html" target="_top" xlink:title="{NFIGameServerNet_ServerModule\n||+ GetNetModule()\l+ SendMsgPBToGate()\l+ SendMsgPBToGate()\l+ AddPlayerGateInfo()\l+ RemovePlayerGateInfo()\l+ GetPlayerGateInfo()\l+ OnPropertyEnter()\l+ OnRecordEnter()\l+ OnObjectListEnter()\l+ OnObjectListLeave()\l}">
<polygon fill="white" stroke="black" points="104,-435.5 104,-591.5 268,-591.5 268,-435.5 104,-435.5"/>
<text text-anchor="middle" x="186" y="-579.5" font-family="Helvetica,sans-Serif" font-size="10.00">NFIGameServerNet_ServerModule</text>
<polyline fill="none" stroke="black" points="104,-572.5 268,-572.5 "/>
<text text-anchor="middle" x="186" y="-560.5" font-family="Helvetica,sans-Serif" font-size="10.00"> </text>
<polyline fill="none" stroke="black" points="104,-553.5 268,-553.5 "/>
<text text-anchor="start" x="112" y="-541.5" font-family="Helvetica,sans-Serif" font-size="10.00">+ GetNetModule()</text>
<text text-anchor="start" x="112" y="-530.5" font-family="Helvetica,sans-Serif" font-size="10.00">+ SendMsgPBToGate()</text>
<text text-anchor="start" x="112" y="-519.5" font-family="Helvetica,sans-Serif" font-size="10.00">+ SendMsgPBToGate()</text>
<text text-anchor="start" x="112" y="-508.5" font-family="Helvetica,sans-Serif" font-size="10.00">+ AddPlayerGateInfo()</text>
<text text-anchor="start" x="112" y="-497.5" font-family="Helvetica,sans-Serif" font-size="10.00">+ RemovePlayerGateInfo()</text>
<text text-anchor="start" x="112" y="-486.5" font-family="Helvetica,sans-Serif" font-size="10.00">+ GetPlayerGateInfo()</text>
<text text-anchor="start" x="112" y="-475.5" font-family="Helvetica,sans-Serif" font-size="10.00">+ OnPropertyEnter()</text>
<text text-anchor="start" x="112" y="-464.5" font-family="Helvetica,sans-Serif" font-size="10.00">+ OnRecordEnter()</text>
<text text-anchor="start" x="112" y="-453.5" font-family="Helvetica,sans-Serif" font-size="10.00">+ OnObjectListEnter()</text>
<text text-anchor="start" x="112" y="-442.5" font-family="Helvetica,sans-Serif" font-size="10.00">+ OnObjectListLeave()</text>
</a>
</g>
</g>
<!-- Node4&#45;&gt;Node3 -->
<g id="edge1" class="edge"><title>Node4&#45;&gt;Node3</title>
<path fill="none" stroke="midnightblue" d="M221.911,-426.642C235.936,-401.582 254.215,-376.101 277,-358 442.103,-226.842 693.546,-180.465 827.497,-164.517"/>
<polygon fill="none" stroke="midnightblue" points="218.812,-425.015 217.127,-435.475 224.967,-428.349 218.812,-425.015"/>
</g>
<!-- Node5 -->
<g id="node3" class="node"><title>Node5</title>
<g id="a_node3"><a xlink:href="class_n_f_i_module.html" target="_top" xlink:title="{NFIModule\n|+ strName\l# mbReloading\l|+ NFIModule()\l+ ~NFIModule()\l+ Init()\l+ AfterInit()\l+ CheckConfig()\l+ BeforeShut()\l+ Shut()\l+ Execute()\l+ StartReLoadState()\l+ EndReLoadState()\l+ GetPluginManager()\l+ Loading()\l}">
<polygon fill="white" stroke="black" points="863,-716.5 863,-905.5 975,-905.5 975,-716.5 863,-716.5"/>
<text text-anchor="middle" x="919" y="-893.5" font-family="Helvetica,sans-Serif" font-size="10.00">NFIModule</text>
<polyline fill="none" stroke="black" points="863,-886.5 975,-886.5 "/>
<text text-anchor="start" x="871" y="-874.5" font-family="Helvetica,sans-Serif" font-size="10.00">+ strName</text>
<text text-anchor="start" x="871" y="-863.5" font-family="Helvetica,sans-Serif" font-size="10.00"># mbReloading</text>
<polyline fill="none" stroke="black" points="863,-856.5 975,-856.5 "/>
<text text-anchor="start" x="871" y="-844.5" font-family="Helvetica,sans-Serif" font-size="10.00">+ NFIModule()</text>
<text text-anchor="start" x="871" y="-833.5" font-family="Helvetica,sans-Serif" font-size="10.00">+ ~NFIModule()</text>
<text text-anchor="start" x="871" y="-822.5" font-family="Helvetica,sans-Serif" font-size="10.00">+ Init()</text>
<text text-anchor="start" x="871" y="-811.5" font-family="Helvetica,sans-Serif" font-size="10.00">+ AfterInit()</text>
<text text-anchor="start" x="871" y="-800.5" font-family="Helvetica,sans-Serif" font-size="10.00">+ CheckConfig()</text>
<text text-anchor="start" x="871" y="-789.5" font-family="Helvetica,sans-Serif" font-size="10.00">+ BeforeShut()</text>
<text text-anchor="start" x="871" y="-778.5" font-family="Helvetica,sans-Serif" font-size="10.00">+ Shut()</text>
<text text-anchor="start" x="871" y="-767.5" font-family="Helvetica,sans-Serif" font-size="10.00">+ Execute()</text>
<text text-anchor="start" x="871" y="-756.5" font-family="Helvetica,sans-Serif" font-size="10.00">+ StartReLoadState()</text>
<text text-anchor="start" x="871" y="-745.5" font-family="Helvetica,sans-Serif" font-size="10.00">+ EndReLoadState()</text>
<text text-anchor="start" x="871" y="-734.5" font-family="Helvetica,sans-Serif" font-size="10.00">+ GetPluginManager()</text>
<text text-anchor="start" x="871" y="-723.5" font-family="Helvetica,sans-Serif" font-size="10.00">+ Loading()</text>
</a>
</g>
</g>
<!-- Node5&#45;&gt;Node4 -->
<g id="edge2" class="edge"><title>Node5&#45;&gt;Node4</title>
<path fill="none" stroke="midnightblue" d="M852.865,-802.303C708.147,-784.392 368.972,-736.27 277,-669 250.492,-649.612 230.377,-619.964 215.889,-591.806"/>
<polygon fill="none" stroke="midnightblue" points="852.59,-805.796 862.942,-803.54 853.444,-798.848 852.59,-805.796"/>
</g>
<!-- Node6 -->
<g id="node4" class="node"><title>Node6</title>
<g id="a_node4"><a xlink:href="class_n_f_i_plugin_manager.html" target="_top" xlink:title="{NFIPluginManager\n||+ NFIPluginManager()\l+ FindModule()\l+ Registered()\l+ UnRegistered()\l+ FindPlugin()\l+ AddModule()\l+ RemoveModule()\l+ FindModule()\l+ AppID()\l+ GetInitTime()\l+ GetNowTime()\l+ GetConfigPath()\l+ SetConfigName()\l}">
<polygon fill="white" stroke="black" points="713.5,-419 713.5,-608 824.5,-608 824.5,-419 713.5,-419"/>
<text text-anchor="middle" x="769" y="-596" font-family="Helvetica,sans-Serif" font-size="10.00">NFIPluginManager</text>
<polyline fill="none" stroke="black" points="713.5,-589 824.5,-589 "/>
<text text-anchor="middle" x="769" y="-577" font-family="Helvetica,sans-Serif" font-size="10.00"> </text>
<polyline fill="none" stroke="black" points="713.5,-570 824.5,-570 "/>
<text text-anchor="start" x="721.5" y="-558" font-family="Helvetica,sans-Serif" font-size="10.00">+ NFIPluginManager()</text>
<text text-anchor="start" x="721.5" y="-547" font-family="Helvetica,sans-Serif" font-size="10.00">+ FindModule()</text>
<text text-anchor="start" x="721.5" y="-536" font-family="Helvetica,sans-Serif" font-size="10.00">+ Registered()</text>
<text text-anchor="start" x="721.5" y="-525" font-family="Helvetica,sans-Serif" font-size="10.00">+ UnRegistered()</text>
<text text-anchor="start" x="721.5" y="-514" font-family="Helvetica,sans-Serif" font-size="10.00">+ FindPlugin()</text>
<text text-anchor="start" x="721.5" y="-503" font-family="Helvetica,sans-Serif" font-size="10.00">+ AddModule()</text>
<text text-anchor="start" x="721.5" y="-492" font-family="Helvetica,sans-Serif" font-size="10.00">+ RemoveModule()</text>
<text text-anchor="start" x="721.5" y="-481" font-family="Helvetica,sans-Serif" font-size="10.00">+ FindModule()</text>
<text text-anchor="start" x="721.5" y="-470" font-family="Helvetica,sans-Serif" font-size="10.00">+ AppID()</text>
<text text-anchor="start" x="721.5" y="-459" font-family="Helvetica,sans-Serif" font-size="10.00">+ GetInitTime()</text>
<text text-anchor="start" x="721.5" y="-448" font-family="Helvetica,sans-Serif" font-size="10.00">+ GetNowTime()</text>
<text text-anchor="start" x="721.5" y="-437" font-family="Helvetica,sans-Serif" font-size="10.00">+ GetConfigPath()</text>
<text text-anchor="start" x="721.5" y="-426" font-family="Helvetica,sans-Serif" font-size="10.00">+ SetConfigName()</text>
</a>
</g>
</g>
<!-- Node5&#45;&gt;Node6 -->
<g id="edge4" class="edge"><title>Node5&#45;&gt;Node6</title>
<path fill="none" stroke="midnightblue" d="M880.411,-707.665C875.766,-700.307 870.64,-693.312 865,-687 854.385,-675.12 844.523,-680.962 834,-669 818.624,-651.521 806.51,-629.878 797.121,-608.381"/>
<polygon fill="none" stroke="midnightblue" points="877.519,-709.649 885.644,-716.448 883.533,-706.066 877.519,-709.649"/>
</g>
<!-- Node7 -->
<g id="node5" class="node"><title>Node7</title>
<g id="a_node5"><a xlink:href="class_n_f_i_game_server_to_world_module.html" target="_top" xlink:title="{NFIGameServerToWorldModule\n||+ SendBySuit()\l+ GetClusterClientModule()\l}">
<polygon fill="white" stroke="black" points="843,-479.5 843,-547.5 995,-547.5 995,-479.5 843,-479.5"/>
<text text-anchor="middle" x="919" y="-535.5" font-family="Helvetica,sans-Serif" font-size="10.00">NFIGameServerToWorldModule</text>
<polyline fill="none" stroke="black" points="843,-528.5 995,-528.5 "/>
<text text-anchor="middle" x="919" y="-516.5" font-family="Helvetica,sans-Serif" font-size="10.00"> </text>
<polyline fill="none" stroke="black" points="843,-509.5 995,-509.5 "/>
<text text-anchor="start" x="851" y="-497.5" font-family="Helvetica,sans-Serif" font-size="10.00">+ SendBySuit()</text>
<text text-anchor="start" x="851" y="-486.5" font-family="Helvetica,sans-Serif" font-size="10.00">+ GetClusterClientModule()</text>
</a>
</g>
</g>
<!-- Node5&#45;&gt;Node7 -->
<g id="edge6" class="edge"><title>Node5&#45;&gt;Node7</title>
<path fill="none" stroke="midnightblue" d="M919,-705.844C919,-650.333 919,-585.804 919,-547.656"/>
<polygon fill="none" stroke="midnightblue" points="915.5,-706.096 919,-716.096 922.5,-706.096 915.5,-706.096"/>
</g>
<!-- Node8 -->
<g id="node6" class="node"><title>Node8</title>
<g id="a_node6"><a xlink:href="class_n_f_i_kernel_module.html" target="_top" xlink:title="{NFIKernelModule\n||+ AddHeartBeat()\l+ FindHeartBeat()\l+ RemoveHeartBeat()\l+ AddRecordCallBack()\l+ AddPropertyCallBack()\l+ AddEventCallBack()\l+ AddClassCallBack()\l+ DoEvent()\l+ DoEvent()\l+ RegisterCommonClassEvent()\land 56 more...\l# AddEventCallBack()\l# AddClassCallBack()\l# RegisterCommonClassEvent()\l# RegisterCommonPropertyEvent()\l# RegisterCommonRecordEvent()\l}">
<polygon fill="white" stroke="black" points="1013.5,-402.5 1013.5,-624.5 1180.5,-624.5 1180.5,-402.5 1013.5,-402.5"/>
<text text-anchor="middle" x="1097" y="-612.5" font-family="Helvetica,sans-Serif" font-size="10.00">NFIKernelModule</text>
<polyline fill="none" stroke="black" points="1013.5,-605.5 1180.5,-605.5 "/>
<text text-anchor="middle" x="1097" y="-593.5" font-family="Helvetica,sans-Serif" font-size="10.00"> </text>
<polyline fill="none" stroke="black" points="1013.5,-586.5 1180.5,-586.5 "/>
<text text-anchor="start" x="1021.5" y="-574.5" font-family="Helvetica,sans-Serif" font-size="10.00">+ AddHeartBeat()</text>
<text text-anchor="start" x="1021.5" y="-563.5" font-family="Helvetica,sans-Serif" font-size="10.00">+ FindHeartBeat()</text>
<text text-anchor="start" x="1021.5" y="-552.5" font-family="Helvetica,sans-Serif" font-size="10.00">+ RemoveHeartBeat()</text>
<text text-anchor="start" x="1021.5" y="-541.5" font-family="Helvetica,sans-Serif" font-size="10.00">+ AddRecordCallBack()</text>
<text text-anchor="start" x="1021.5" y="-530.5" font-family="Helvetica,sans-Serif" font-size="10.00">+ AddPropertyCallBack()</text>
<text text-anchor="start" x="1021.5" y="-519.5" font-family="Helvetica,sans-Serif" font-size="10.00">+ AddEventCallBack()</text>
<text text-anchor="start" x="1021.5" y="-508.5" font-family="Helvetica,sans-Serif" font-size="10.00">+ AddClassCallBack()</text>
<text text-anchor="start" x="1021.5" y="-497.5" font-family="Helvetica,sans-Serif" font-size="10.00">+ DoEvent()</text>
<text text-anchor="start" x="1021.5" y="-486.5" font-family="Helvetica,sans-Serif" font-size="10.00">+ DoEvent()</text>
<text text-anchor="start" x="1021.5" y="-475.5" font-family="Helvetica,sans-Serif" font-size="10.00">+ RegisterCommonClassEvent()</text>
<text text-anchor="start" x="1021.5" y="-464.5" font-family="Helvetica,sans-Serif" font-size="10.00">and 56 more...</text>
<text text-anchor="start" x="1021.5" y="-453.5" font-family="Helvetica,sans-Serif" font-size="10.00"># AddEventCallBack()</text>
<text text-anchor="start" x="1021.5" y="-442.5" font-family="Helvetica,sans-Serif" font-size="10.00"># AddClassCallBack()</text>
<text text-anchor="start" x="1021.5" y="-431.5" font-family="Helvetica,sans-Serif" font-size="10.00"># RegisterCommonClassEvent()</text>
<text text-anchor="start" x="1021.5" y="-420.5" font-family="Helvetica,sans-Serif" font-size="10.00"># RegisterCommonPropertyEvent()</text>
<text text-anchor="start" x="1021.5" y="-409.5" font-family="Helvetica,sans-Serif" font-size="10.00"># RegisterCommonRecordEvent()</text>
</a>
</g>
</g>
<!-- Node5&#45;&gt;Node8 -->
<g id="edge8" class="edge"><title>Node5&#45;&gt;Node8</title>
<path fill="none" stroke="midnightblue" d="M980.252,-708.412C988.242,-695.155 996.317,-681.754 1004,-669 1012.64,-654.653 1021.73,-639.554 1030.71,-624.645"/>
<polygon fill="none" stroke="midnightblue" points="977.183,-706.724 975.018,-717.095 983.178,-710.337 977.183,-706.724"/>
</g>
<!-- Node11 -->
<g id="node9" class="node"><title>Node11</title>
<g id="a_node9"><a xlink:href="class_n_f_i_class_module.html" target="_top" xlink:title="{NFIClassModule\n||+ ~NFIClassModule()\l+ Load()\l+ Save()\l+ Clear()\l+ AddClassCallBack()\l+ DoEvent()\l+ AddClassCallBack()\l+ GetClassPropertyManager()\l+ GetClassRecordManager()\l+ GetClassComponentManager()\l}">
<polygon fill="white" stroke="black" points="1351.5,-435.5 1351.5,-591.5 1510.5,-591.5 1510.5,-435.5 1351.5,-435.5"/>
<text text-anchor="middle" x="1431" y="-579.5" font-family="Helvetica,sans-Serif" font-size="10.00">NFIClassModule</text>
<polyline fill="none" stroke="black" points="1351.5,-572.5 1510.5,-572.5 "/>
<text text-anchor="middle" x="1431" y="-560.5" font-family="Helvetica,sans-Serif" font-size="10.00"> </text>
<polyline fill="none" stroke="black" points="1351.5,-553.5 1510.5,-553.5 "/>
<text text-anchor="start" x="1359.5" y="-541.5" font-family="Helvetica,sans-Serif" font-size="10.00">+ ~NFIClassModule()</text>
<text text-anchor="start" x="1359.5" y="-530.5" font-family="Helvetica,sans-Serif" font-size="10.00">+ Load()</text>
<text text-anchor="start" x="1359.5" y="-519.5" font-family="Helvetica,sans-Serif" font-size="10.00">+ Save()</text>
<text text-anchor="start" x="1359.5" y="-508.5" font-family="Helvetica,sans-Serif" font-size="10.00">+ Clear()</text>
<text text-anchor="start" x="1359.5" y="-497.5" font-family="Helvetica,sans-Serif" font-size="10.00">+ AddClassCallBack()</text>
<text text-anchor="start" x="1359.5" y="-486.5" font-family="Helvetica,sans-Serif" font-size="10.00">+ DoEvent()</text>
<text text-anchor="start" x="1359.5" y="-475.5" font-family="Helvetica,sans-Serif" font-size="10.00">+ AddClassCallBack()</text>
<text text-anchor="start" x="1359.5" y="-464.5" font-family="Helvetica,sans-Serif" font-size="10.00">+ GetClassPropertyManager()</text>
<text text-anchor="start" x="1359.5" y="-453.5" font-family="Helvetica,sans-Serif" font-size="10.00">+ GetClassRecordManager()</text>
<text text-anchor="start" x="1359.5" y="-442.5" font-family="Helvetica,sans-Serif" font-size="10.00">+ GetClassComponentManager()</text>
</a>
</g>
</g>
<!-- Node5&#45;&gt;Node11 -->
<g id="edge12" class="edge"><title>Node5&#45;&gt;Node11</title>
<path fill="none" stroke="midnightblue" d="M985.192,-789.293C1100.58,-753.007 1327.73,-680.659 1342,-669 1366.93,-648.633 1386.3,-619.316 1400.5,-591.682"/>
<polygon fill="none" stroke="midnightblue" points="983.887,-786.035 975.396,-792.372 985.985,-792.713 983.887,-786.035"/>
</g>
<!-- Node13 -->
<g id="node11" class="node"><title>Node13</title>
<g id="a_node11"><a xlink:href="class_n_f_i_element_module.html" target="_top" xlink:title="{NFIElementModule\n||+ Load()\l+ Save()\l+ Clear()\l+ ExistElement()\l+ ExistElement()\l+ GetPropertyManager()\l+ GetRecordManager()\l+ GetComponentManager()\l+ GetPropertyInt()\l+ GetPropertyFloat()\l+ GetPropertyString()\l}">
<polygon fill="white" stroke="black" points="1199,-430 1199,-597 1333,-597 1333,-430 1199,-430"/>
<text text-anchor="middle" x="1266" y="-585" font-family="Helvetica,sans-Serif" font-size="10.00">NFIElementModule</text>
<polyline fill="none" stroke="black" points="1199,-578 1333,-578 "/>
<text text-anchor="middle" x="1266" y="-566" font-family="Helvetica,sans-Serif" font-size="10.00"> </text>
<polyline fill="none" stroke="black" points="1199,-559 1333,-559 "/>
<text text-anchor="start" x="1207" y="-547" font-family="Helvetica,sans-Serif" font-size="10.00">+ Load()</text>
<text text-anchor="start" x="1207" y="-536" font-family="Helvetica,sans-Serif" font-size="10.00">+ Save()</text>
<text text-anchor="start" x="1207" y="-525" font-family="Helvetica,sans-Serif" font-size="10.00">+ Clear()</text>
<text text-anchor="start" x="1207" y="-514" font-family="Helvetica,sans-Serif" font-size="10.00">+ ExistElement()</text>
<text text-anchor="start" x="1207" y="-503" font-family="Helvetica,sans-Serif" font-size="10.00">+ ExistElement()</text>
<text text-anchor="start" x="1207" y="-492" font-family="Helvetica,sans-Serif" font-size="10.00">+ GetPropertyManager()</text>
<text text-anchor="start" x="1207" y="-481" font-family="Helvetica,sans-Serif" font-size="10.00">+ GetRecordManager()</text>
<text text-anchor="start" x="1207" y="-470" font-family="Helvetica,sans-Serif" font-size="10.00">+ GetComponentManager()</text>
<text text-anchor="start" x="1207" y="-459" font-family="Helvetica,sans-Serif" font-size="10.00">+ GetPropertyInt()</text>
<text text-anchor="start" x="1207" y="-448" font-family="Helvetica,sans-Serif" font-size="10.00">+ GetPropertyFloat()</text>
<text text-anchor="start" x="1207" y="-437" font-family="Helvetica,sans-Serif" font-size="10.00">+ GetPropertyString()</text>
</a>
</g>
</g>
<!-- Node5&#45;&gt;Node13 -->
<g id="edge15" class="edge"><title>Node5&#45;&gt;Node13</title>
<path fill="none" stroke="midnightblue" d="M984.706,-788.945C1044.33,-767.032 1131.46,-727.638 1189,-669 1208.84,-648.785 1224.52,-622.442 1236.41,-597.249"/>
<polygon fill="none" stroke="midnightblue" points="983.232,-785.755 975.014,-792.442 985.608,-792.34 983.232,-785.755"/>
</g>
<!-- Node14 -->
<g id="node12" class="node"><title>Node14</title>
<g id="a_node12"><a xlink:href="class_n_f_i_scene_process_module.html" target="_top" xlink:title="{NFISceneProcessModule\n||+ IsCloneScene()\l+ GetCloneSceneType()\l+ ApplyCloneGroup()\l+ ExitCloneGroup()\l}">
<polygon fill="white" stroke="black" points="1528.5,-468.5 1528.5,-558.5 1655.5,-558.5 1655.5,-468.5 1528.5,-468.5"/>
<text text-anchor="middle" x="1592" y="-546.5" font-family="Helvetica,sans-Serif" font-size="10.00">NFISceneProcessModule</text>
<polyline fill="none" stroke="black" points="1528.5,-539.5 1655.5,-539.5 "/>
<text text-anchor="middle" x="1592" y="-527.5" font-family="Helvetica,sans-Serif" font-size="10.00"> </text>
<polyline fill="none" stroke="black" points="1528.5,-520.5 1655.5,-520.5 "/>
<text text-anchor="start" x="1536.5" y="-508.5" font-family="Helvetica,sans-Serif" font-size="10.00">+ IsCloneScene()</text>
<text text-anchor="start" x="1536.5" y="-497.5" font-family="Helvetica,sans-Serif" font-size="10.00">+ GetCloneSceneType()</text>
<text text-anchor="start" x="1536.5" y="-486.5" font-family="Helvetica,sans-Serif" font-size="10.00">+ ApplyCloneGroup()</text>
<text text-anchor="start" x="1536.5" y="-475.5" font-family="Helvetica,sans-Serif" font-size="10.00">+ ExitCloneGroup()</text>
</a>
</g>
</g>
<!-- Node5&#45;&gt;Node14 -->
<g id="edge17" class="edge"><title>Node5&#45;&gt;Node14</title>
<path fill="none" stroke="midnightblue" d="M985.088,-788.689C1072.34,-761.314 1231.18,-714.108 1370,-687 1402.95,-680.566 1492.81,-688.699 1520,-669 1555.94,-642.954 1574.49,-594.387 1583.68,-558.633"/>
<polygon fill="none" stroke="midnightblue" points="983.811,-785.422 975.324,-791.763 985.913,-792.098 983.811,-785.422"/>
</g>
<!-- Node15 -->
<g id="node13" class="node"><title>Node15</title>
<g id="a_node13"><a xlink:href="class_n_f_i_u_u_i_d_module.html" target="_top" xlink:title="{NFIUUIDModule\n||+ CreateGUID()\l+ GetIdentID()\l+ SetIdentID()\l}">
<polygon fill="white" stroke="black" points="0,-474 0,-553 86,-553 86,-474 0,-474"/>
<text text-anchor="middle" x="43" y="-541" font-family="Helvetica,sans-Serif" font-size="10.00">NFIUUIDModule</text>
<polyline fill="none" stroke="black" points="0,-534 86,-534 "/>
<text text-anchor="middle" x="43" y="-522" font-family="Helvetica,sans-Serif" font-size="10.00"> </text>
<polyline fill="none" stroke="black" points="0,-515 86,-515 "/>
<text text-anchor="start" x="8" y="-503" font-family="Helvetica,sans-Serif" font-size="10.00">+ CreateGUID()</text>
<text text-anchor="start" x="8" y="-492" font-family="Helvetica,sans-Serif" font-size="10.00">+ GetIdentID()</text>
<text text-anchor="start" x="8" y="-481" font-family="Helvetica,sans-Serif" font-size="10.00">+ SetIdentID()</text>
</a>
</g>
</g>
<!-- Node5&#45;&gt;Node15 -->
<g id="edge19" class="edge"><title>Node5&#45;&gt;Node15</title>
<path fill="none" stroke="midnightblue" d="M852.85,-807.23C678.003,-798.615 209.2,-766.723 95,-669 61.3476,-640.203 49.407,-588.875 45.2087,-553.325"/>
<polygon fill="none" stroke="midnightblue" points="852.787,-810.731 862.944,-807.718 853.124,-803.739 852.787,-810.731"/>
</g>
<!-- Node16 -->
<g id="node14" class="node"><title>Node16</title>
<g id="a_node14"><a xlink:href="class_n_f_i_net_module.html" target="_top" xlink:title="{NFINetModule\n|&#45; nLastTime\l&#45; mxReceiveCallBack\l&#45; mxEventCallBackList\l&#45; mxCallBackList\l|+ NFINetModule()\l+ NFINetModule()\l+ ~NFINetModule()\l+ Initialization()\l+ Initialization()\l+ AddReceiveCallBack()\l+ AddReceiveCallBack()\l+ AddReceiveCallBack()\l+ AddReceiveCallBack()\l+ AddEventCallBack()\land 10 more...\l+ PBToNF()\l+ NFToPB()\l+ PBToNF()\l+ NFToPB()\l+ ReceivePB()\l+ ReceivePB()\l# NFINetModule()\l# OnReceiveNetPack()\l# OnSocketNetEvent()\l# KeepAlive()\l}">
<polygon fill="white" stroke="black" points="1674,-358.5 1674,-668.5 1796,-668.5 1796,-358.5 1674,-358.5"/>
<text text-anchor="middle" x="1735" y="-656.5" font-family="Helvetica,sans-Serif" font-size="10.00">NFINetModule</text>
<polyline fill="none" stroke="black" points="1674,-649.5 1796,-649.5 "/>
<text text-anchor="start" x="1682" y="-637.5" font-family="Helvetica,sans-Serif" font-size="10.00">&#45; nLastTime</text>
<text text-anchor="start" x="1682" y="-626.5" font-family="Helvetica,sans-Serif" font-size="10.00">&#45; mxReceiveCallBack</text>
<text text-anchor="start" x="1682" y="-615.5" font-family="Helvetica,sans-Serif" font-size="10.00">&#45; mxEventCallBackList</text>
<text text-anchor="start" x="1682" y="-604.5" font-family="Helvetica,sans-Serif" font-size="10.00">&#45; mxCallBackList</text>
<polyline fill="none" stroke="black" points="1674,-597.5 1796,-597.5 "/>
<text text-anchor="start" x="1682" y="-585.5" font-family="Helvetica,sans-Serif" font-size="10.00">+ NFINetModule()</text>
<text text-anchor="start" x="1682" y="-574.5" font-family="Helvetica,sans-Serif" font-size="10.00">+ NFINetModule()</text>
<text text-anchor="start" x="1682" y="-563.5" font-family="Helvetica,sans-Serif" font-size="10.00">+ ~NFINetModule()</text>
<text text-anchor="start" x="1682" y="-552.5" font-family="Helvetica,sans-Serif" font-size="10.00">+ Initialization()</text>
<text text-anchor="start" x="1682" y="-541.5" font-family="Helvetica,sans-Serif" font-size="10.00">+ Initialization()</text>
<text text-anchor="start" x="1682" y="-530.5" font-family="Helvetica,sans-Serif" font-size="10.00">+ AddReceiveCallBack()</text>
<text text-anchor="start" x="1682" y="-519.5" font-family="Helvetica,sans-Serif" font-size="10.00">+ AddReceiveCallBack()</text>
<text text-anchor="start" x="1682" y="-508.5" font-family="Helvetica,sans-Serif" font-size="10.00">+ AddReceiveCallBack()</text>
<text text-anchor="start" x="1682" y="-497.5" font-family="Helvetica,sans-Serif" font-size="10.00">+ AddReceiveCallBack()</text>
<text text-anchor="start" x="1682" y="-486.5" font-family="Helvetica,sans-Serif" font-size="10.00">+ AddEventCallBack()</text>
<text text-anchor="start" x="1682" y="-475.5" font-family="Helvetica,sans-Serif" font-size="10.00">and 10 more...</text>
<text text-anchor="start" x="1682" y="-464.5" font-family="Helvetica,sans-Serif" font-size="10.00">+ PBToNF()</text>
<text text-anchor="start" x="1682" y="-453.5" font-family="Helvetica,sans-Serif" font-size="10.00">+ NFToPB()</text>
<text text-anchor="start" x="1682" y="-442.5" font-family="Helvetica,sans-Serif" font-size="10.00">+ PBToNF()</text>
<text text-anchor="start" x="1682" y="-431.5" font-family="Helvetica,sans-Serif" font-size="10.00">+ NFToPB()</text>
<text text-anchor="start" x="1682" y="-420.5" font-family="Helvetica,sans-Serif" font-size="10.00">+ ReceivePB()</text>
<text text-anchor="start" x="1682" y="-409.5" font-family="Helvetica,sans-Serif" font-size="10.00">+ ReceivePB()</text>
<text text-anchor="start" x="1682" y="-398.5" font-family="Helvetica,sans-Serif" font-size="10.00"># NFINetModule()</text>
<text text-anchor="start" x="1682" y="-387.5" font-family="Helvetica,sans-Serif" font-size="10.00"># OnReceiveNetPack()</text>
<text text-anchor="start" x="1682" y="-376.5" font-family="Helvetica,sans-Serif" font-size="10.00"># OnSocketNetEvent()</text>
<text text-anchor="start" x="1682" y="-365.5" font-family="Helvetica,sans-Serif" font-size="10.00"># KeepAlive()</text>
</a>
</g>
</g>
<!-- Node5&#45;&gt;Node16 -->
<g id="edge21" class="edge"><title>Node5&#45;&gt;Node16</title>
<path fill="none" stroke="midnightblue" d="M984.968,-794.916C1071.66,-775.359 1228.78,-740.82 1364,-716 1497.17,-691.555 1557.22,-750.957 1665,-669 1668.05,-666.683 1670.97,-664.203 1673.76,-661.582"/>
<polygon fill="none" stroke="midnightblue" points="983.99,-791.549 975.008,-797.167 985.534,-798.377 983.99,-791.549"/>
</g>
<!-- Node18 -->
<g id="node16" class="node"><title>Node18</title>
<g id="a_node16"><a xlink:href="class_n_f_i_log_module.html" target="_top" xlink:title="{NFILogModule\n||+ LogDebug()\l+ LogInfo()\l+ LogWarning()\l+ LogError()\l+ LogFatal()\l+ LogDebug()\l+ LogInfo()\l+ LogWarning()\l+ LogError()\l+ LogFatal()\land 8 more...\l}">
<polygon fill="white" stroke="black" points="286.5,-430 286.5,-597 369.5,-597 369.5,-430 286.5,-430"/>
<text text-anchor="middle" x="328" y="-585" font-family="Helvetica,sans-Serif" font-size="10.00">NFILogModule</text>
<polyline fill="none" stroke="black" points="286.5,-578 369.5,-578 "/>
<text text-anchor="middle" x="328" y="-566" font-family="Helvetica,sans-Serif" font-size="10.00"> </text>
<polyline fill="none" stroke="black" points="286.5,-559 369.5,-559 "/>
<text text-anchor="start" x="294.5" y="-547" font-family="Helvetica,sans-Serif" font-size="10.00">+ LogDebug()</text>
<text text-anchor="start" x="294.5" y="-536" font-family="Helvetica,sans-Serif" font-size="10.00">+ LogInfo()</text>
<text text-anchor="start" x="294.5" y="-525" font-family="Helvetica,sans-Serif" font-size="10.00">+ LogWarning()</text>
<text text-anchor="start" x="294.5" y="-514" font-family="Helvetica,sans-Serif" font-size="10.00">+ LogError()</text>
<text text-anchor="start" x="294.5" y="-503" font-family="Helvetica,sans-Serif" font-size="10.00">+ LogFatal()</text>
<text text-anchor="start" x="294.5" y="-492" font-family="Helvetica,sans-Serif" font-size="10.00">+ LogDebug()</text>
<text text-anchor="start" x="294.5" y="-481" font-family="Helvetica,sans-Serif" font-size="10.00">+ LogInfo()</text>
<text text-anchor="start" x="294.5" y="-470" font-family="Helvetica,sans-Serif" font-size="10.00">+ LogWarning()</text>
<text text-anchor="start" x="294.5" y="-459" font-family="Helvetica,sans-Serif" font-size="10.00">+ LogError()</text>
<text text-anchor="start" x="294.5" y="-448" font-family="Helvetica,sans-Serif" font-size="10.00">+ LogFatal()</text>
<text text-anchor="start" x="294.5" y="-437" font-family="Helvetica,sans-Serif" font-size="10.00">and 8 more...</text>
</a>
</g>
</g>
<!-- Node5&#45;&gt;Node18 -->
<g id="edge24" class="edge"><title>Node5&#45;&gt;Node18</title>
<path fill="none" stroke="midnightblue" d="M852.824,-800.729C724.367,-781.485 447.789,-733.559 379,-669 358.918,-650.153 346.736,-623.252 339.348,-597.164"/>
<polygon fill="none" stroke="midnightblue" points="852.522,-804.223 862.928,-802.229 853.55,-797.299 852.522,-804.223"/>
</g>
<!-- Node6&#45;&gt;Node5 -->
<g id="edge3" class="edge"><title>Node6&#45;&gt;Node5</title>
<path fill="none" stroke="#404040" d="M763.948,-608.041C765.824,-638.17 771.772,-670.78 786,-698 801.246,-727.168 827.629,-751.806 852.898,-770.482"/>
<polygon fill="none" stroke="#404040" points="853.106,-770.63 860.313,-770.859 862.874,-777.601 855.666,-777.371 853.106,-770.63"/>
<text text-anchor="middle" x="825.5" y="-690" font-family="Helvetica,sans-Serif" font-size="10.00"> #pPluginManager</text>
</g>
<!-- Node7&#45;&gt;Node3 -->
<g id="edge5" class="edge"><title>Node7&#45;&gt;Node3</title>
<path fill="none" stroke="#404040" d="M919,-479.328C919,-443.074 919,-382.24 919,-323.092"/>
<polygon fill="none" stroke="#404040" points="919,-322.9 915,-316.9 919,-310.9 923,-316.9 919,-322.9"/>
<text text-anchor="middle" x="992" y="-332" font-family="Helvetica,sans-Serif" font-size="10.00"> &#45;m_pGameServerToWorldModule</text>
</g>
<!-- Node8&#45;&gt;Node3 -->
<g id="edge7" class="edge"><title>Node8&#45;&gt;Node3</title>
<path fill="none" stroke="#404040" d="M1090.45,-402.327C1086.2,-377.424 1079.49,-351.664 1069,-329 1056.34,-301.657 1038,-275.36 1018.45,-251.894"/>
<polygon fill="none" stroke="#404040" points="1018.4,-251.835 1011.47,-249.864 1010.62,-242.703 1017.56,-244.674 1018.4,-251.835"/>
<text text-anchor="middle" x="1115.5" y="-332" font-family="Helvetica,sans-Serif" font-size="10.00"> &#45;m_pKernelModule</text>
</g>
<!-- Node9 -->
<g id="node7" class="node"><title>Node9</title>
<g id="a_node7"><a xlink:href="class_n_f_map_ex.html" target="_top" xlink:title="{NFMapEx\&lt; int, GateServer\lInfo \&gt;\n|&#45; mObjectList\l&#45; mObjectCurIter\l|+ NFMapEx()\l+ ~NFMapEx()\l+ AddElement()\l+ SetElement()\l+ RemoveElement()\l+ GetElementNude()\l+ GetElement()\l+ FirstNude()\l+ FirstNude()\l+ NextNude()\land 7 more...\l}">
<polygon fill="white" stroke="black" points="388,-419 388,-608 522,-608 522,-419 388,-419"/>
<text text-anchor="start" x="396" y="-596" font-family="Helvetica,sans-Serif" font-size="10.00">NFMapEx&lt; int, GateServer</text>
<text text-anchor="middle" x="455" y="-585" font-family="Helvetica,sans-Serif" font-size="10.00">Info &gt;</text>
<polyline fill="none" stroke="black" points="388,-578 522,-578 "/>
<text text-anchor="start" x="396" y="-566" font-family="Helvetica,sans-Serif" font-size="10.00">&#45; mObjectList</text>
<text text-anchor="start" x="396" y="-555" font-family="Helvetica,sans-Serif" font-size="10.00">&#45; mObjectCurIter</text>
<polyline fill="none" stroke="black" points="388,-548 522,-548 "/>
<text text-anchor="start" x="396" y="-536" font-family="Helvetica,sans-Serif" font-size="10.00">+ NFMapEx()</text>
<text text-anchor="start" x="396" y="-525" font-family="Helvetica,sans-Serif" font-size="10.00">+ ~NFMapEx()</text>
<text text-anchor="start" x="396" y="-514" font-family="Helvetica,sans-Serif" font-size="10.00">+ AddElement()</text>
<text text-anchor="start" x="396" y="-503" font-family="Helvetica,sans-Serif" font-size="10.00">+ SetElement()</text>
<text text-anchor="start" x="396" y="-492" font-family="Helvetica,sans-Serif" font-size="10.00">+ RemoveElement()</text>
<text text-anchor="start" x="396" y="-481" font-family="Helvetica,sans-Serif" font-size="10.00">+ GetElementNude()</text>
<text text-anchor="start" x="396" y="-470" font-family="Helvetica,sans-Serif" font-size="10.00">+ GetElement()</text>
<text text-anchor="start" x="396" y="-459" font-family="Helvetica,sans-Serif" font-size="10.00">+ FirstNude()</text>
<text text-anchor="start" x="396" y="-448" font-family="Helvetica,sans-Serif" font-size="10.00">+ FirstNude()</text>
<text text-anchor="start" x="396" y="-437" font-family="Helvetica,sans-Serif" font-size="10.00">+ NextNude()</text>
<text text-anchor="start" x="396" y="-426" font-family="Helvetica,sans-Serif" font-size="10.00">and 7 more...</text>
</a>
</g>
</g>
<!-- Node9&#45;&gt;Node3 -->
<g id="edge9" class="edge"><title>Node9&#45;&gt;Node3</title>
<path fill="none" stroke="#404040" d="M489.25,-418.877C500.241,-397.129 514.067,-375.307 531,-358 610.759,-276.48 730.552,-221.239 815.91,-189.512"/>
<polygon fill="none" stroke="#404040" points="815.924,-189.507 820.183,-183.688 827.192,-185.38 822.934,-191.2 815.924,-189.507"/>
<text text-anchor="middle" x="586.5" y="-332" font-family="Helvetica,sans-Serif" font-size="10.00"> &#45;mProxyMap</text>
</g>
<!-- Node10 -->
<g id="node8" class="node"><title>Node10</title>
<g id="a_node8"><a xlink:href="class_n_f_map_ex.html" target="_top" xlink:title="{NFMapEx\&lt; NFGUID, GateBase\lInfo \&gt;\n|&#45; mObjectList\l&#45; mObjectCurIter\l|+ NFMapEx()\l+ ~NFMapEx()\l+ AddElement()\l+ SetElement()\l+ RemoveElement()\l+ GetElementNude()\l+ GetElement()\l+ FirstNude()\l+ FirstNude()\l+ NextNude()\land 7 more...\l}">
<polygon fill="white" stroke="black" points="540.5,-419 540.5,-608 695.5,-608 695.5,-419 540.5,-419"/>
<text text-anchor="start" x="548.5" y="-596" font-family="Helvetica,sans-Serif" font-size="10.00">NFMapEx&lt; NFGUID, GateBase</text>
<text text-anchor="middle" x="618" y="-585" font-family="Helvetica,sans-Serif" font-size="10.00">Info &gt;</text>
<polyline fill="none" stroke="black" points="540.5,-578 695.5,-578 "/>
<text text-anchor="start" x="548.5" y="-566" font-family="Helvetica,sans-Serif" font-size="10.00">&#45; mObjectList</text>
<text text-anchor="start" x="548.5" y="-555" font-family="Helvetica,sans-Serif" font-size="10.00">&#45; mObjectCurIter</text>
<polyline fill="none" stroke="black" points="540.5,-548 695.5,-548 "/>
<text text-anchor="start" x="548.5" y="-536" font-family="Helvetica,sans-Serif" font-size="10.00">+ NFMapEx()</text>
<text text-anchor="start" x="548.5" y="-525" font-family="Helvetica,sans-Serif" font-size="10.00">+ ~NFMapEx()</text>
<text text-anchor="start" x="548.5" y="-514" font-family="Helvetica,sans-Serif" font-size="10.00">+ AddElement()</text>
<text text-anchor="start" x="548.5" y="-503" font-family="Helvetica,sans-Serif" font-size="10.00">+ SetElement()</text>
<text text-anchor="start" x="548.5" y="-492" font-family="Helvetica,sans-Serif" font-size="10.00">+ RemoveElement()</text>
<text text-anchor="start" x="548.5" y="-481" font-family="Helvetica,sans-Serif" font-size="10.00">+ GetElementNude()</text>
<text text-anchor="start" x="548.5" y="-470" font-family="Helvetica,sans-Serif" font-size="10.00">+ GetElement()</text>
<text text-anchor="start" x="548.5" y="-459" font-family="Helvetica,sans-Serif" font-size="10.00">+ FirstNude()</text>
<text text-anchor="start" x="548.5" y="-448" font-family="Helvetica,sans-Serif" font-size="10.00">+ FirstNude()</text>
<text text-anchor="start" x="548.5" y="-437" font-family="Helvetica,sans-Serif" font-size="10.00">+ NextNude()</text>
<text text-anchor="start" x="548.5" y="-426" font-family="Helvetica,sans-Serif" font-size="10.00">and 7 more...</text>
</a>
</g>
</g>
<!-- Node10&#45;&gt;Node3 -->
<g id="edge10" class="edge"><title>Node10&#45;&gt;Node3</title>
<path fill="none" stroke="#404040" d="M664.004,-418.852C675.878,-398.033 689.454,-376.632 704,-358 737.297,-315.349 779.782,-273.545 818.178,-239.168"/>
<polygon fill="none" stroke="#404040" points="818.352,-239.013 820.184,-232.039 827.327,-231.047 825.495,-238.022 818.352,-239.013"/>
<text text-anchor="middle" x="763.5" y="-332" font-family="Helvetica,sans-Serif" font-size="10.00"> &#45;mRoleBaseData</text>
</g>
<!-- Node11&#45;&gt;Node3 -->
<g id="edge11" class="edge"><title>Node11&#45;&gt;Node3</title>
<path fill="none" stroke="#404040" d="M1398.29,-435.31C1384.02,-408.32 1365.18,-379.438 1342,-358 1249.79,-272.726 1114.95,-217.017 1022.43,-186.229"/>
<polygon fill="none" stroke="#404040" points="1022.2,-186.154 1015.25,-188.086 1010.8,-182.415 1017.75,-180.484 1022.2,-186.154"/>
<text text-anchor="middle" x="1355" y="-332" font-family="Helvetica,sans-Serif" font-size="10.00"> &#45;m_pClassModule</text>
</g>
<!-- Node12 -->
<g id="node10" class="node"><title>Node12</title>
<g id="a_node10"><a xlink:href="class_n_f_map_ex.html" target="_top" xlink:title="{NFMapEx\&lt; std::string,\l NFIClass \&gt;\n|&#45; mObjectList\l&#45; mObjectCurIter\l|+ NFMapEx()\l+ ~NFMapEx()\l+ AddElement()\l+ SetElement()\l+ RemoveElement()\l+ GetElementNude()\l+ GetElement()\l+ FirstNude()\l+ FirstNude()\l+ NextNude()\land 7 more...\l}">
<polygon fill="white" stroke="black" points="1373,-716.5 1373,-905.5 1489,-905.5 1489,-716.5 1373,-716.5"/>
<text text-anchor="start" x="1381" y="-893.5" font-family="Helvetica,sans-Serif" font-size="10.00">NFMapEx&lt; std::string,</text>
<text text-anchor="middle" x="1431" y="-882.5" font-family="Helvetica,sans-Serif" font-size="10.00"> NFIClass &gt;</text>
<polyline fill="none" stroke="black" points="1373,-875.5 1489,-875.5 "/>
<text text-anchor="start" x="1381" y="-863.5" font-family="Helvetica,sans-Serif" font-size="10.00">&#45; mObjectList</text>
<text text-anchor="start" x="1381" y="-852.5" font-family="Helvetica,sans-Serif" font-size="10.00">&#45; mObjectCurIter</text>
<polyline fill="none" stroke="black" points="1373,-845.5 1489,-845.5 "/>
<text text-anchor="start" x="1381" y="-833.5" font-family="Helvetica,sans-Serif" font-size="10.00">+ NFMapEx()</text>
<text text-anchor="start" x="1381" y="-822.5" font-family="Helvetica,sans-Serif" font-size="10.00">+ ~NFMapEx()</text>
<text text-anchor="start" x="1381" y="-811.5" font-family="Helvetica,sans-Serif" font-size="10.00">+ AddElement()</text>
<text text-anchor="start" x="1381" y="-800.5" font-family="Helvetica,sans-Serif" font-size="10.00">+ SetElement()</text>
<text text-anchor="start" x="1381" y="-789.5" font-family="Helvetica,sans-Serif" font-size="10.00">+ RemoveElement()</text>
<text text-anchor="start" x="1381" y="-778.5" font-family="Helvetica,sans-Serif" font-size="10.00">+ GetElementNude()</text>
<text text-anchor="start" x="1381" y="-767.5" font-family="Helvetica,sans-Serif" font-size="10.00">+ GetElement()</text>
<text text-anchor="start" x="1381" y="-756.5" font-family="Helvetica,sans-Serif" font-size="10.00">+ FirstNude()</text>
<text text-anchor="start" x="1381" y="-745.5" font-family="Helvetica,sans-Serif" font-size="10.00">+ FirstNude()</text>
<text text-anchor="start" x="1381" y="-734.5" font-family="Helvetica,sans-Serif" font-size="10.00">+ NextNude()</text>
<text text-anchor="start" x="1381" y="-723.5" font-family="Helvetica,sans-Serif" font-size="10.00">and 7 more...</text>
</a>
</g>
</g>
<!-- Node12&#45;&gt;Node11 -->
<g id="edge13" class="edge"><title>Node12&#45;&gt;Node11</title>
<path fill="none" stroke="midnightblue" d="M1431,-705.643C1431,-668.168 1431,-626.606 1431,-591.835"/>
<polygon fill="none" stroke="midnightblue" points="1427.5,-706.096 1431,-716.096 1434.5,-706.096 1427.5,-706.096"/>
</g>
<!-- Node13&#45;&gt;Node3 -->
<g id="edge14" class="edge"><title>Node13&#45;&gt;Node3</title>
<path fill="none" stroke="#404040" d="M1230.24,-429.825C1218.44,-405.846 1204.36,-380.169 1189,-358 1146.11,-296.111 1078.08,-245.511 1021.04,-210.496"/>
<polygon fill="none" stroke="#404040" points="1020.79,-210.348 1013.59,-210.667 1010.52,-204.14 1017.73,-203.821 1020.79,-210.348"/>
<text text-anchor="middle" x="1219.5" y="-332" font-family="Helvetica,sans-Serif" font-size="10.00"> &#45;m_pElementModule</text>
</g>
<!-- Node14&#45;&gt;Node3 -->
<g id="edge16" class="edge"><title>Node14&#45;&gt;Node3</title>
<path fill="none" stroke="#404040" d="M1581.71,-468.437C1571.5,-433.939 1552.55,-387.079 1520,-358 1377.94,-231.096 1153.22,-183.683 1022.57,-166.283"/>
<polygon fill="none" stroke="#404040" points="1022.51,-166.276 1016.05,-169.475 1010.61,-164.739 1017.08,-161.54 1022.51,-166.276"/>
<text text-anchor="middle" x="1553.5" y="-332" font-family="Helvetica,sans-Serif" font-size="10.00"> &#45;m_pSceneProcessModule</text>
</g>
<!-- Node15&#45;&gt;Node3 -->
<g id="edge18" class="edge"><title>Node15&#45;&gt;Node3</title>
<path fill="none" stroke="#404040" d="M45.7208,-473.865C50.2884,-438.705 62.4855,-387.867 95,-358 200.105,-261.453 618.375,-195.598 815.371,-169.302"/>
<polygon fill="none" stroke="#404040" points="815.552,-169.278 820.975,-164.524 827.449,-167.702 822.026,-172.455 815.552,-169.278"/>
<text text-anchor="middle" x="165.5" y="-332" font-family="Helvetica,sans-Serif" font-size="10.00"> &#45;m_pUUIDModule</text>
</g>
<!-- Node16&#45;&gt;Node3 -->
<g id="edge20" class="edge"><title>Node16&#45;&gt;Node3</title>
<path fill="none" stroke="#404040" d="M1673.99,-369.061C1671.11,-365.235 1668.11,-361.537 1665,-358 1648.78,-339.574 1640.63,-338.499 1618,-329 1415.58,-244.038 1161.9,-194.462 1022.57,-171.708"/>
<polygon fill="none" stroke="#404040" points="1022.53,-171.702 1015.97,-174.693 1010.68,-169.787 1017.24,-166.795 1022.53,-171.702"/>
<text text-anchor="middle" x="1679" y="-332" font-family="Helvetica,sans-Serif" font-size="10.00"> &#45;m_pNetModule</text>
</g>
<!-- Node17 -->
<g id="node15" class="node"><title>Node17</title>
<g id="a_node15"><a xlink:href="class_n_f_i_net.html" target="_top" xlink:title="{NFINet\n||+ Execute()\l+ Initialization()\l+ Initialization()\l+ Final()\l+ SendMsgWithOutHead()\l+ SendMsgWithOutHead()\l+ SendMsgToAllClient()\l+ SendMsgToAllClientWithOutHead()\l+ CloseNetObject()\l+ CloseNetObject()\l+ IsServer()\l+ Log()\l}">
<polygon fill="white" stroke="black" points="1646,-722 1646,-900 1824,-900 1824,-722 1646,-722"/>
<text text-anchor="middle" x="1735" y="-888" font-family="Helvetica,sans-Serif" font-size="10.00">NFINet</text>
<polyline fill="none" stroke="black" points="1646,-881 1824,-881 "/>
<text text-anchor="middle" x="1735" y="-869" font-family="Helvetica,sans-Serif" font-size="10.00"> </text>
<polyline fill="none" stroke="black" points="1646,-862 1824,-862 "/>
<text text-anchor="start" x="1654" y="-850" font-family="Helvetica,sans-Serif" font-size="10.00">+ Execute()</text>
<text text-anchor="start" x="1654" y="-839" font-family="Helvetica,sans-Serif" font-size="10.00">+ Initialization()</text>
<text text-anchor="start" x="1654" y="-828" font-family="Helvetica,sans-Serif" font-size="10.00">+ Initialization()</text>
<text text-anchor="start" x="1654" y="-817" font-family="Helvetica,sans-Serif" font-size="10.00">+ Final()</text>
<text text-anchor="start" x="1654" y="-806" font-family="Helvetica,sans-Serif" font-size="10.00">+ SendMsgWithOutHead()</text>
<text text-anchor="start" x="1654" y="-795" font-family="Helvetica,sans-Serif" font-size="10.00">+ SendMsgWithOutHead()</text>
<text text-anchor="start" x="1654" y="-784" font-family="Helvetica,sans-Serif" font-size="10.00">+ SendMsgToAllClient()</text>
<text text-anchor="start" x="1654" y="-773" font-family="Helvetica,sans-Serif" font-size="10.00">+ SendMsgToAllClientWithOutHead()</text>
<text text-anchor="start" x="1654" y="-762" font-family="Helvetica,sans-Serif" font-size="10.00">+ CloseNetObject()</text>
<text text-anchor="start" x="1654" y="-751" font-family="Helvetica,sans-Serif" font-size="10.00">+ CloseNetObject()</text>
<text text-anchor="start" x="1654" y="-740" font-family="Helvetica,sans-Serif" font-size="10.00">+ IsServer()</text>
<text text-anchor="start" x="1654" y="-729" font-family="Helvetica,sans-Serif" font-size="10.00">+ Log()</text>
</a>
</g>
</g>
<!-- Node17&#45;&gt;Node16 -->
<g id="edge22" class="edge"><title>Node17&#45;&gt;Node16</title>
<path fill="none" stroke="#404040" d="M1735,-721.741C1735,-708.719 1735,-694.956 1735,-680.967"/>
<polygon fill="none" stroke="#404040" points="1735,-680.627 1731,-674.627 1735,-668.627 1739,-674.627 1735,-680.627"/>
<text text-anchor="middle" x="1755" y="-690" font-family="Helvetica,sans-Serif" font-size="10.00"> &#45;m_pNet</text>
</g>
<!-- Node18&#45;&gt;Node3 -->
<g id="edge23" class="edge"><title>Node18&#45;&gt;Node3</title>
<path fill="none" stroke="#404040" d="M340.828,-429.781C348.324,-404.149 360.196,-377.538 379,-358 496.397,-236.017 694.483,-187.258 815.326,-168.217"/>
<polygon fill="none" stroke="#404040" points="815.635,-168.17 820.962,-163.31 827.497,-166.358 822.17,-171.218 815.635,-168.17"/>
<text text-anchor="middle" x="438.5" y="-332" font-family="Helvetica,sans-Serif" font-size="10.00"> &#45;m_pLogModule</text>
</g>
</g>
</svg>
