<?xml version="1.0" encoding="UTF-8" standalone="no"?>
<!DOCTYPE svg PUBLIC "-//W3C//DTD SVG 1.1//EN"
 "http://www.w3.org/Graphics/SVG/1.1/DTD/svg11.dtd">
<!-- Generated by graphviz version 2.38.0 (20140413.2041)
 -->
<!-- Title: NFCHeartBeatElement Pages: 1 -->
<svg width="145pt" height="347pt"
 viewBox="0.00 0.00 145.00 347.00" xmlns="http://www.w3.org/2000/svg" xmlns:xlink="http://www.w3.org/1999/xlink">
<g id="graph0" class="graph" transform="scale(1 1) rotate(0) translate(4 343)">
<title>NFCHeartBeatElement</title>
<polygon fill="white" stroke="none" points="-4,4 -4,-343 141,-343 141,4 -4,4"/>
<!-- Node0 -->
<g id="node1" class="node"><title>Node0</title>
<polygon fill="#bfbfbf" stroke="black" points="0,-0.5 0,-134.5 137,-134.5 137,-0.5 0,-0.5"/>
<text text-anchor="middle" x="68.5" y="-122.5" font-family="Helvetica,sans-Serif" font-size="10.00">NFCHeartBeatElement</text>
<polyline fill="none" stroke="black" points="0,-115.5 137,-115.5 "/>
<text text-anchor="start" x="8" y="-103.5" font-family="Helvetica,sans-Serif" font-size="10.00">+ self</text>
<text text-anchor="start" x="8" y="-92.5" font-family="Helvetica,sans-Serif" font-size="10.00">+ nBeatTime</text>
<text text-anchor="start" x="8" y="-81.5" font-family="Helvetica,sans-Serif" font-size="10.00">+ nNextTriggerTime</text>
<text text-anchor="start" x="8" y="-70.5" font-family="Helvetica,sans-Serif" font-size="10.00">+ nCount</text>
<text text-anchor="start" x="8" y="-59.5" font-family="Helvetica,sans-Serif" font-size="10.00">+ strBeatName</text>
<polyline fill="none" stroke="black" points="0,-52.5 137,-52.5 "/>
<text text-anchor="start" x="8" y="-40.5" font-family="Helvetica,sans-Serif" font-size="10.00">+ operator==()</text>
<text text-anchor="start" x="8" y="-29.5" font-family="Helvetica,sans-Serif" font-size="10.00">+ NFCHeartBeatElement()</text>
<text text-anchor="start" x="8" y="-18.5" font-family="Helvetica,sans-Serif" font-size="10.00">+ ~NFCHeartBeatElement()</text>
<text text-anchor="start" x="8" y="-7.5" font-family="Helvetica,sans-Serif" font-size="10.00">+ DoHeartBeatEvent()</text>
</g>
<!-- Node1 -->
<g id="node2" class="node"><title>Node1</title>
<g id="a_node2"><a xlink:href="class_n_f_list.html" target="_top" xlink:title="{NFList\&lt; HEART_BEAT\l_FUNCTOR_PTR \&gt;\n|# mtObjConfigList\l# mCurIter\l|+ ~NFList()\l+ Add()\l+ Find()\l+ Remove()\l+ ClearAll()\l+ First()\l+ Next()\l+ Get()\l+ Count()\l}">
<polygon fill="white" stroke="black" points="10,-171.5 10,-338.5 127,-338.5 127,-171.5 10,-171.5"/>
<text text-anchor="start" x="18" y="-326.5" font-family="Helvetica,sans-Serif" font-size="10.00">NFList&lt; HEART_BEAT</text>
<text text-anchor="middle" x="68.5" y="-315.5" font-family="Helvetica,sans-Serif" font-size="10.00">_FUNCTOR_PTR &gt;</text>
<polyline fill="none" stroke="black" points="10,-308.5 127,-308.5 "/>
<text text-anchor="start" x="18" y="-296.5" font-family="Helvetica,sans-Serif" font-size="10.00"># mtObjConfigList</text>
<text text-anchor="start" x="18" y="-285.5" font-family="Helvetica,sans-Serif" font-size="10.00"># mCurIter</text>
<polyline fill="none" stroke="black" points="10,-278.5 127,-278.5 "/>
<text text-anchor="start" x="18" y="-266.5" font-family="Helvetica,sans-Serif" font-size="10.00">+ ~NFList()</text>
<text text-anchor="start" x="18" y="-255.5" font-family="Helvetica,sans-Serif" font-size="10.00">+ Add()</text>
<text text-anchor="start" x="18" y="-244.5" font-family="Helvetica,sans-Serif" font-size="10.00">+ Find()</text>
<text text-anchor="start" x="18" y="-233.5" font-family="Helvetica,sans-Serif" font-size="10.00">+ Remove()</text>
<text text-anchor="start" x="18" y="-222.5" font-family="Helvetica,sans-Serif" font-size="10.00">+ ClearAll()</text>
<text text-anchor="start" x="18" y="-211.5" font-family="Helvetica,sans-Serif" font-size="10.00">+ First()</text>
<text text-anchor="start" x="18" y="-200.5" font-family="Helvetica,sans-Serif" font-size="10.00">+ Next()</text>
<text text-anchor="start" x="18" y="-189.5" font-family="Helvetica,sans-Serif" font-size="10.00">+ Get()</text>
<text text-anchor="start" x="18" y="-178.5" font-family="Helvetica,sans-Serif" font-size="10.00">+ Count()</text>
</a>
</g>
</g>
<!-- Node1&#45;&gt;Node0 -->
<g id="edge1" class="edge"><title>Node1&#45;&gt;Node0</title>
<path fill="none" stroke="midnightblue" d="M68.5,-161.186C68.5,-152.224 68.5,-143.263 68.5,-134.638"/>
<polygon fill="none" stroke="midnightblue" points="65.0001,-161.286 68.5,-171.286 72.0001,-161.286 65.0001,-161.286"/>
</g>
</g>
</svg>
