<?xml version="1.0" encoding="UTF-8" standalone="no"?>
<!DOCTYPE svg PUBLIC "-//W3C//DTD SVG 1.1//EN"
 "http://www.w3.org/Graphics/SVG/1.1/DTD/svg11.dtd">
<!-- Generated by graphviz version 2.38.0 (20140413.2041)
 -->
<!-- Title: NFIPlugin Pages: 1 -->
<svg width="273pt" height="435pt"
 viewBox="0.00 0.00 272.50 435.00" xmlns="http://www.w3.org/2000/svg" xmlns:xlink="http://www.w3.org/1999/xlink">
<g id="graph0" class="graph" transform="scale(1 1) rotate(0) translate(4 431)">
<title>NFIPlugin</title>
<polygon fill="white" stroke="none" points="-4,4 -4,-431 268.5,-431 268.5,4 -4,4"/>
<!-- Node23 -->
<g id="node1" class="node"><title>Node23</title>
<polygon fill="#bfbfbf" stroke="black" points="131,-17 131,-173 238,-173 238,-17 131,-17"/>
<text text-anchor="middle" x="184.5" y="-161" font-family="Helvetica,sans-Serif" font-size="10.00">NFIPlugin</text>
<polyline fill="none" stroke="black" points="131,-154 238,-154 "/>
<text text-anchor="middle" x="184.5" y="-142" font-family="Helvetica,sans-Serif" font-size="10.00"> </text>
<polyline fill="none" stroke="black" points="131,-135 238,-135 "/>
<text text-anchor="start" x="139" y="-123" font-family="Helvetica,sans-Serif" font-size="10.00">+ GetPluginVersion()</text>
<text text-anchor="start" x="139" y="-112" font-family="Helvetica,sans-Serif" font-size="10.00">+ GetPluginName()</text>
<text text-anchor="start" x="139" y="-101" font-family="Helvetica,sans-Serif" font-size="10.00">+ Install()</text>
<text text-anchor="start" x="139" y="-90" font-family="Helvetica,sans-Serif" font-size="10.00">+ Init()</text>
<text text-anchor="start" x="139" y="-79" font-family="Helvetica,sans-Serif" font-size="10.00">+ AfterInit()</text>
<text text-anchor="start" x="139" y="-68" font-family="Helvetica,sans-Serif" font-size="10.00">+ CheckConfig()</text>
<text text-anchor="start" x="139" y="-57" font-family="Helvetica,sans-Serif" font-size="10.00">+ Execute()</text>
<text text-anchor="start" x="139" y="-46" font-family="Helvetica,sans-Serif" font-size="10.00">+ BeforeShut()</text>
<text text-anchor="start" x="139" y="-35" font-family="Helvetica,sans-Serif" font-size="10.00">+ Shut()</text>
<text text-anchor="start" x="139" y="-24" font-family="Helvetica,sans-Serif" font-size="10.00">+ Uninstall()</text>
</g>
<!-- Node24 -->
<g id="node2" class="node"><title>Node24</title>
<g id="a_node2"><a xlink:href="class_n_f_i_module.html" target="_top" xlink:title="{NFIModule\n|+ strName\l# mbReloading\l|+ NFIModule()\l+ ~NFIModule()\l+ Init()\l+ AfterInit()\l+ CheckConfig()\l+ BeforeShut()\l+ Shut()\l+ Execute()\l+ StartReLoadState()\l+ EndReLoadState()\l+ GetPluginManager()\l+ Loading()\l}">
<polygon fill="white" stroke="black" points="30.5,-237.5 30.5,-426.5 142.5,-426.5 142.5,-237.5 30.5,-237.5"/>
<text text-anchor="middle" x="86.5" y="-414.5" font-family="Helvetica,sans-Serif" font-size="10.00">NFIModule</text>
<polyline fill="none" stroke="black" points="30.5,-407.5 142.5,-407.5 "/>
<text text-anchor="start" x="38.5" y="-395.5" font-family="Helvetica,sans-Serif" font-size="10.00">+ strName</text>
<text text-anchor="start" x="38.5" y="-384.5" font-family="Helvetica,sans-Serif" font-size="10.00"># mbReloading</text>
<polyline fill="none" stroke="black" points="30.5,-377.5 142.5,-377.5 "/>
<text text-anchor="start" x="38.5" y="-365.5" font-family="Helvetica,sans-Serif" font-size="10.00">+ NFIModule()</text>
<text text-anchor="start" x="38.5" y="-354.5" font-family="Helvetica,sans-Serif" font-size="10.00">+ ~NFIModule()</text>
<text text-anchor="start" x="38.5" y="-343.5" font-family="Helvetica,sans-Serif" font-size="10.00">+ Init()</text>
<text text-anchor="start" x="38.5" y="-332.5" font-family="Helvetica,sans-Serif" font-size="10.00">+ AfterInit()</text>
<text text-anchor="start" x="38.5" y="-321.5" font-family="Helvetica,sans-Serif" font-size="10.00">+ CheckConfig()</text>
<text text-anchor="start" x="38.5" y="-310.5" font-family="Helvetica,sans-Serif" font-size="10.00">+ BeforeShut()</text>
<text text-anchor="start" x="38.5" y="-299.5" font-family="Helvetica,sans-Serif" font-size="10.00">+ Shut()</text>
<text text-anchor="start" x="38.5" y="-288.5" font-family="Helvetica,sans-Serif" font-size="10.00">+ Execute()</text>
<text text-anchor="start" x="38.5" y="-277.5" font-family="Helvetica,sans-Serif" font-size="10.00">+ StartReLoadState()</text>
<text text-anchor="start" x="38.5" y="-266.5" font-family="Helvetica,sans-Serif" font-size="10.00">+ EndReLoadState()</text>
<text text-anchor="start" x="38.5" y="-255.5" font-family="Helvetica,sans-Serif" font-size="10.00">+ GetPluginManager()</text>
<text text-anchor="start" x="38.5" y="-244.5" font-family="Helvetica,sans-Serif" font-size="10.00">+ Loading()</text>
</a>
</g>
</g>
<!-- Node24&#45;&gt;Node23 -->
<g id="edge1" class="edge"><title>Node24&#45;&gt;Node23</title>
<path fill="none" stroke="midnightblue" d="M147.176,-235.227C149.806,-229.816 152.271,-224.386 154.5,-219 160.468,-204.58 165.434,-188.698 169.493,-173.274"/>
<polygon fill="none" stroke="midnightblue" points="143.977,-233.799 142.606,-244.305 150.229,-236.947 143.977,-233.799"/>
</g>
<!-- Node25 -->
<g id="node3" class="node"><title>Node25</title>
<g id="a_node3"><a xlink:href="class_n_f_i_plugin_manager.html" target="_top" xlink:title="{NFIPluginManager\n||+ NFIPluginManager()\l+ FindModule()\l+ Registered()\l+ UnRegistered()\l+ FindPlugin()\l+ AddModule()\l+ RemoveModule()\l+ FindModule()\l+ AppID()\l+ GetInitTime()\l+ GetNowTime()\l+ GetConfigPath()\l+ SetConfigName()\l}">
<polygon fill="white" stroke="black" points="0,-0.5 0,-189.5 111,-189.5 111,-0.5 0,-0.5"/>
<text text-anchor="middle" x="55.5" y="-177.5" font-family="Helvetica,sans-Serif" font-size="10.00">NFIPluginManager</text>
<polyline fill="none" stroke="black" points="0,-170.5 111,-170.5 "/>
<text text-anchor="middle" x="55.5" y="-158.5" font-family="Helvetica,sans-Serif" font-size="10.00"> </text>
<polyline fill="none" stroke="black" points="0,-151.5 111,-151.5 "/>
<text text-anchor="start" x="8" y="-139.5" font-family="Helvetica,sans-Serif" font-size="10.00">+ NFIPluginManager()</text>
<text text-anchor="start" x="8" y="-128.5" font-family="Helvetica,sans-Serif" font-size="10.00">+ FindModule()</text>
<text text-anchor="start" x="8" y="-117.5" font-family="Helvetica,sans-Serif" font-size="10.00">+ Registered()</text>
<text text-anchor="start" x="8" y="-106.5" font-family="Helvetica,sans-Serif" font-size="10.00">+ UnRegistered()</text>
<text text-anchor="start" x="8" y="-95.5" font-family="Helvetica,sans-Serif" font-size="10.00">+ FindPlugin()</text>
<text text-anchor="start" x="8" y="-84.5" font-family="Helvetica,sans-Serif" font-size="10.00">+ AddModule()</text>
<text text-anchor="start" x="8" y="-73.5" font-family="Helvetica,sans-Serif" font-size="10.00">+ RemoveModule()</text>
<text text-anchor="start" x="8" y="-62.5" font-family="Helvetica,sans-Serif" font-size="10.00">+ FindModule()</text>
<text text-anchor="start" x="8" y="-51.5" font-family="Helvetica,sans-Serif" font-size="10.00">+ AppID()</text>
<text text-anchor="start" x="8" y="-40.5" font-family="Helvetica,sans-Serif" font-size="10.00">+ GetInitTime()</text>
<text text-anchor="start" x="8" y="-29.5" font-family="Helvetica,sans-Serif" font-size="10.00">+ GetNowTime()</text>
<text text-anchor="start" x="8" y="-18.5" font-family="Helvetica,sans-Serif" font-size="10.00">+ GetConfigPath()</text>
<text text-anchor="start" x="8" y="-7.5" font-family="Helvetica,sans-Serif" font-size="10.00">+ SetConfigName()</text>
</a>
</g>
</g>
<!-- Node24&#45;&gt;Node25 -->
<g id="edge3" class="edge"><title>Node24&#45;&gt;Node25</title>
<path fill="none" stroke="midnightblue" d="M69.6159,-227.188C69.2319,-224.431 68.8591,-221.698 68.5,-219 67.2392,-209.528 66.024,-199.632 64.8765,-189.747"/>
<polygon fill="none" stroke="midnightblue" points="66.174,-227.844 71.0504,-237.25 73.1039,-226.856 66.174,-227.844"/>
</g>
<!-- Node25&#45;&gt;Node24 -->
<g id="edge2" class="edge"><title>Node25&#45;&gt;Node24</title>
<path fill="none" stroke="#404040" d="M67.8493,-189.615C69.407,-201.424 71.0091,-213.569 72.589,-225.545"/>
<polygon fill="none" stroke="#404040" points="72.5894,-225.55 77.3398,-230.975 74.1589,-237.447 69.4085,-232.021 72.5894,-225.55"/>
<text text-anchor="middle" x="111" y="-211" font-family="Helvetica,sans-Serif" font-size="10.00"> #pPluginManager</text>
</g>
<!-- Node26 -->
<g id="node4" class="node"><title>Node26</title>
<g id="a_node4"><a xlink:href="class_n_f_map.html" target="_top" xlink:title="{NFMap\&lt; std::string,\l NFIModule \&gt;\n|&#45; mObjectList\l&#45; mObjectCurIter\l|+ NFMap()\l+ ~NFMap()\l+ AddElement()\l+ RemoveElement()\l+ GetElement()\l+ First()\l+ First()\l+ Next()\l+ Next()\l+ Count()\l+ ClearAll()\l}">
<polygon fill="white" stroke="black" points="160.5,-237.5 160.5,-426.5 264.5,-426.5 264.5,-237.5 160.5,-237.5"/>
<text text-anchor="start" x="168.5" y="-414.5" font-family="Helvetica,sans-Serif" font-size="10.00">NFMap&lt; std::string,</text>
<text text-anchor="middle" x="212.5" y="-403.5" font-family="Helvetica,sans-Serif" font-size="10.00"> NFIModule &gt;</text>
<polyline fill="none" stroke="black" points="160.5,-396.5 264.5,-396.5 "/>
<text text-anchor="start" x="168.5" y="-384.5" font-family="Helvetica,sans-Serif" font-size="10.00">&#45; mObjectList</text>
<text text-anchor="start" x="168.5" y="-373.5" font-family="Helvetica,sans-Serif" font-size="10.00">&#45; mObjectCurIter</text>
<polyline fill="none" stroke="black" points="160.5,-366.5 264.5,-366.5 "/>
<text text-anchor="start" x="168.5" y="-354.5" font-family="Helvetica,sans-Serif" font-size="10.00">+ NFMap()</text>
<text text-anchor="start" x="168.5" y="-343.5" font-family="Helvetica,sans-Serif" font-size="10.00">+ ~NFMap()</text>
<text text-anchor="start" x="168.5" y="-332.5" font-family="Helvetica,sans-Serif" font-size="10.00">+ AddElement()</text>
<text text-anchor="start" x="168.5" y="-321.5" font-family="Helvetica,sans-Serif" font-size="10.00">+ RemoveElement()</text>
<text text-anchor="start" x="168.5" y="-310.5" font-family="Helvetica,sans-Serif" font-size="10.00">+ GetElement()</text>
<text text-anchor="start" x="168.5" y="-299.5" font-family="Helvetica,sans-Serif" font-size="10.00">+ First()</text>
<text text-anchor="start" x="168.5" y="-288.5" font-family="Helvetica,sans-Serif" font-size="10.00">+ First()</text>
<text text-anchor="start" x="168.5" y="-277.5" font-family="Helvetica,sans-Serif" font-size="10.00">+ Next()</text>
<text text-anchor="start" x="168.5" y="-266.5" font-family="Helvetica,sans-Serif" font-size="10.00">+ Next()</text>
<text text-anchor="start" x="168.5" y="-255.5" font-family="Helvetica,sans-Serif" font-size="10.00">+ Count()</text>
<text text-anchor="start" x="168.5" y="-244.5" font-family="Helvetica,sans-Serif" font-size="10.00">+ ClearAll()</text>
</a>
</g>
</g>
<!-- Node26&#45;&gt;Node23 -->
<g id="edge4" class="edge"><title>Node26&#45;&gt;Node23</title>
<path fill="none" stroke="midnightblue" d="M200.757,-227.111C200.001,-220.643 199.244,-214.232 198.5,-208 197.152,-196.715 195.697,-184.794 194.251,-173.105"/>
<polygon fill="none" stroke="midnightblue" points="197.311,-227.775 201.944,-237.303 204.264,-226.966 197.311,-227.775"/>
</g>
</g>
</svg>
