<?xml version="1.0" encoding="UTF-8" standalone="no"?>
<!DOCTYPE svg PUBLIC "-//W3C//DTD SVG 1.1//EN"
 "http://www.w3.org/Graphics/SVG/1.1/DTD/svg11.dtd">
<!-- Generated by graphviz version 2.38.0 (20140413.2041)
 -->
<!-- Title: HelloWorld3Module Pages: 1 -->
<svg width="496pt" height="683pt"
 viewBox="0.00 0.00 496.21 683.00" xmlns="http://www.w3.org/2000/svg" xmlns:xlink="http://www.w3.org/1999/xlink">
<g id="graph0" class="graph" transform="scale(1 1) rotate(0) translate(4 679)">
<title>HelloWorld3Module</title>
<polygon fill="white" stroke="none" points="-4,4 -4,-679 492.213,-679 492.213,4 -4,4"/>
<!-- Node2 -->
<g id="node1" class="node"><title>Node2</title>
<polygon fill="#bfbfbf" stroke="black" points="174.213,-0.5 174.213,-167.5 330.213,-167.5 330.213,-0.5 174.213,-0.5"/>
<text text-anchor="middle" x="252.213" y="-155.5" font-family="Helvetica,sans-Serif" font-size="10.00">HelloWorld3Module</text>
<polyline fill="none" stroke="black" points="174.213,-148.5 330.213,-148.5 "/>
<text text-anchor="start" x="182.213" y="-136.5" font-family="Helvetica,sans-Serif" font-size="10.00"># mLastTime</text>
<polyline fill="none" stroke="black" points="174.213,-129.5 330.213,-129.5 "/>
<text text-anchor="start" x="182.213" y="-117.5" font-family="Helvetica,sans-Serif" font-size="10.00">+ HelloWorld3Module()</text>
<text text-anchor="start" x="182.213" y="-106.5" font-family="Helvetica,sans-Serif" font-size="10.00">+ Init()</text>
<text text-anchor="start" x="182.213" y="-95.5" font-family="Helvetica,sans-Serif" font-size="10.00">+ AfterInit()</text>
<text text-anchor="start" x="182.213" y="-84.5" font-family="Helvetica,sans-Serif" font-size="10.00">+ Execute()</text>
<text text-anchor="start" x="182.213" y="-73.5" font-family="Helvetica,sans-Serif" font-size="10.00">+ BeforeShut()</text>
<text text-anchor="start" x="182.213" y="-62.5" font-family="Helvetica,sans-Serif" font-size="10.00">+ Shut()</text>
<text text-anchor="start" x="182.213" y="-51.5" font-family="Helvetica,sans-Serif" font-size="10.00"># OnEvent()</text>
<text text-anchor="start" x="182.213" y="-40.5" font-family="Helvetica,sans-Serif" font-size="10.00"># OnClassCallBackEvent()</text>
<text text-anchor="start" x="182.213" y="-29.5" font-family="Helvetica,sans-Serif" font-size="10.00"># OnPropertyCallBackEvent()</text>
<text text-anchor="start" x="182.213" y="-18.5" font-family="Helvetica,sans-Serif" font-size="10.00"># OnPropertyStrCallBackEvent()</text>
<text text-anchor="start" x="182.213" y="-7.5" font-family="Helvetica,sans-Serif" font-size="10.00"># OnHeartBeat()</text>
</g>
<!-- Node3 -->
<g id="node2" class="node"><title>Node3</title>
<g id="a_node2"><a xlink:href="class_n_f_i_module.html" target="_top" xlink:title="{NFIModule\n|+ strName\l# mbReloading\l|+ NFIModule()\l+ ~NFIModule()\l+ Init()\l+ AfterInit()\l+ CheckConfig()\l+ BeforeShut()\l+ Shut()\l+ Execute()\l+ StartReLoadState()\l+ EndReLoadState()\l+ GetPluginManager()\l+ Loading()\l}">
<polygon fill="white" stroke="black" points="72.2129,-485.5 72.2129,-674.5 184.213,-674.5 184.213,-485.5 72.2129,-485.5"/>
<text text-anchor="middle" x="128.213" y="-662.5" font-family="Helvetica,sans-Serif" font-size="10.00">NFIModule</text>
<polyline fill="none" stroke="black" points="72.2129,-655.5 184.213,-655.5 "/>
<text text-anchor="start" x="80.2129" y="-643.5" font-family="Helvetica,sans-Serif" font-size="10.00">+ strName</text>
<text text-anchor="start" x="80.2129" y="-632.5" font-family="Helvetica,sans-Serif" font-size="10.00"># mbReloading</text>
<polyline fill="none" stroke="black" points="72.2129,-625.5 184.213,-625.5 "/>
<text text-anchor="start" x="80.2129" y="-613.5" font-family="Helvetica,sans-Serif" font-size="10.00">+ NFIModule()</text>
<text text-anchor="start" x="80.2129" y="-602.5" font-family="Helvetica,sans-Serif" font-size="10.00">+ ~NFIModule()</text>
<text text-anchor="start" x="80.2129" y="-591.5" font-family="Helvetica,sans-Serif" font-size="10.00">+ Init()</text>
<text text-anchor="start" x="80.2129" y="-580.5" font-family="Helvetica,sans-Serif" font-size="10.00">+ AfterInit()</text>
<text text-anchor="start" x="80.2129" y="-569.5" font-family="Helvetica,sans-Serif" font-size="10.00">+ CheckConfig()</text>
<text text-anchor="start" x="80.2129" y="-558.5" font-family="Helvetica,sans-Serif" font-size="10.00">+ BeforeShut()</text>
<text text-anchor="start" x="80.2129" y="-547.5" font-family="Helvetica,sans-Serif" font-size="10.00">+ Shut()</text>
<text text-anchor="start" x="80.2129" y="-536.5" font-family="Helvetica,sans-Serif" font-size="10.00">+ Execute()</text>
<text text-anchor="start" x="80.2129" y="-525.5" font-family="Helvetica,sans-Serif" font-size="10.00">+ StartReLoadState()</text>
<text text-anchor="start" x="80.2129" y="-514.5" font-family="Helvetica,sans-Serif" font-size="10.00">+ EndReLoadState()</text>
<text text-anchor="start" x="80.2129" y="-503.5" font-family="Helvetica,sans-Serif" font-size="10.00">+ GetPluginManager()</text>
<text text-anchor="start" x="80.2129" y="-492.5" font-family="Helvetica,sans-Serif" font-size="10.00">+ Loading()</text>
</a>
</g>
</g>
<!-- Node3&#45;&gt;Node2 -->
<g id="edge1" class="edge"><title>Node3&#45;&gt;Node2</title>
<path fill="none" stroke="midnightblue" d="M66.1419,-507.465C51.4785,-486.445 37.8863,-462.485 30.2129,-438 0.574073,-343.424 -19.0783,-300.985 30.2129,-215 60.9219,-161.43 123.207,-127.807 174.008,-108.209"/>
<polygon fill="none" stroke="midnightblue" points="63.3559,-509.586 72.0266,-515.675 69.0453,-505.508 63.3559,-509.586"/>
</g>
<!-- Node4 -->
<g id="node3" class="node"><title>Node4</title>
<g id="a_node3"><a xlink:href="class_n_f_i_plugin_manager.html" target="_top" xlink:title="{NFIPluginManager\n||+ NFIPluginManager()\l+ FindModule()\l+ Registered()\l+ UnRegistered()\l+ FindPlugin()\l+ AddModule()\l+ RemoveModule()\l+ FindModule()\l+ AppID()\l+ GetInitTime()\l+ GetNowTime()\l+ GetConfigPath()\l+ SetConfigName()\l}">
<polygon fill="white" stroke="black" points="39.7129,-232 39.7129,-421 150.713,-421 150.713,-232 39.7129,-232"/>
<text text-anchor="middle" x="95.2129" y="-409" font-family="Helvetica,sans-Serif" font-size="10.00">NFIPluginManager</text>
<polyline fill="none" stroke="black" points="39.7129,-402 150.713,-402 "/>
<text text-anchor="middle" x="95.2129" y="-390" font-family="Helvetica,sans-Serif" font-size="10.00"> </text>
<polyline fill="none" stroke="black" points="39.7129,-383 150.713,-383 "/>
<text text-anchor="start" x="47.7129" y="-371" font-family="Helvetica,sans-Serif" font-size="10.00">+ NFIPluginManager()</text>
<text text-anchor="start" x="47.7129" y="-360" font-family="Helvetica,sans-Serif" font-size="10.00">+ FindModule()</text>
<text text-anchor="start" x="47.7129" y="-349" font-family="Helvetica,sans-Serif" font-size="10.00">+ Registered()</text>
<text text-anchor="start" x="47.7129" y="-338" font-family="Helvetica,sans-Serif" font-size="10.00">+ UnRegistered()</text>
<text text-anchor="start" x="47.7129" y="-327" font-family="Helvetica,sans-Serif" font-size="10.00">+ FindPlugin()</text>
<text text-anchor="start" x="47.7129" y="-316" font-family="Helvetica,sans-Serif" font-size="10.00">+ AddModule()</text>
<text text-anchor="start" x="47.7129" y="-305" font-family="Helvetica,sans-Serif" font-size="10.00">+ RemoveModule()</text>
<text text-anchor="start" x="47.7129" y="-294" font-family="Helvetica,sans-Serif" font-size="10.00">+ FindModule()</text>
<text text-anchor="start" x="47.7129" y="-283" font-family="Helvetica,sans-Serif" font-size="10.00">+ AppID()</text>
<text text-anchor="start" x="47.7129" y="-272" font-family="Helvetica,sans-Serif" font-size="10.00">+ GetInitTime()</text>
<text text-anchor="start" x="47.7129" y="-261" font-family="Helvetica,sans-Serif" font-size="10.00">+ GetNowTime()</text>
<text text-anchor="start" x="47.7129" y="-250" font-family="Helvetica,sans-Serif" font-size="10.00">+ GetConfigPath()</text>
<text text-anchor="start" x="47.7129" y="-239" font-family="Helvetica,sans-Serif" font-size="10.00">+ SetConfigName()</text>
</a>
</g>
</g>
<!-- Node3&#45;&gt;Node4 -->
<g id="edge3" class="edge"><title>Node3&#45;&gt;Node4</title>
<path fill="none" stroke="midnightblue" d="M110.351,-475.196C109.957,-472.437 109.577,-469.701 109.213,-467 107.213,-452.165 105.365,-436.407 103.713,-421.025"/>
<polygon fill="none" stroke="midnightblue" points="106.914,-475.881 111.829,-485.267 113.84,-474.865 106.914,-475.881"/>
</g>
<!-- Node5 -->
<g id="node4" class="node"><title>Node5</title>
<g id="a_node4"><a xlink:href="class_n_f_i_kernel_module.html" target="_top" xlink:title="{NFIKernelModule\n||+ AddHeartBeat()\l+ FindHeartBeat()\l+ RemoveHeartBeat()\l+ AddRecordCallBack()\l+ AddPropertyCallBack()\l+ AddEventCallBack()\l+ AddClassCallBack()\l+ DoEvent()\l+ DoEvent()\l+ RegisterCommonClassEvent()\land 56 more...\l# AddEventCallBack()\l# AddClassCallBack()\l# RegisterCommonClassEvent()\l# RegisterCommonPropertyEvent()\l# RegisterCommonRecordEvent()\l}">
<polygon fill="white" stroke="black" points="168.713,-215.5 168.713,-437.5 335.713,-437.5 335.713,-215.5 168.713,-215.5"/>
<text text-anchor="middle" x="252.213" y="-425.5" font-family="Helvetica,sans-Serif" font-size="10.00">NFIKernelModule</text>
<polyline fill="none" stroke="black" points="168.713,-418.5 335.713,-418.5 "/>
<text text-anchor="middle" x="252.213" y="-406.5" font-family="Helvetica,sans-Serif" font-size="10.00"> </text>
<polyline fill="none" stroke="black" points="168.713,-399.5 335.713,-399.5 "/>
<text text-anchor="start" x="176.713" y="-387.5" font-family="Helvetica,sans-Serif" font-size="10.00">+ AddHeartBeat()</text>
<text text-anchor="start" x="176.713" y="-376.5" font-family="Helvetica,sans-Serif" font-size="10.00">+ FindHeartBeat()</text>
<text text-anchor="start" x="176.713" y="-365.5" font-family="Helvetica,sans-Serif" font-size="10.00">+ RemoveHeartBeat()</text>
<text text-anchor="start" x="176.713" y="-354.5" font-family="Helvetica,sans-Serif" font-size="10.00">+ AddRecordCallBack()</text>
<text text-anchor="start" x="176.713" y="-343.5" font-family="Helvetica,sans-Serif" font-size="10.00">+ AddPropertyCallBack()</text>
<text text-anchor="start" x="176.713" y="-332.5" font-family="Helvetica,sans-Serif" font-size="10.00">+ AddEventCallBack()</text>
<text text-anchor="start" x="176.713" y="-321.5" font-family="Helvetica,sans-Serif" font-size="10.00">+ AddClassCallBack()</text>
<text text-anchor="start" x="176.713" y="-310.5" font-family="Helvetica,sans-Serif" font-size="10.00">+ DoEvent()</text>
<text text-anchor="start" x="176.713" y="-299.5" font-family="Helvetica,sans-Serif" font-size="10.00">+ DoEvent()</text>
<text text-anchor="start" x="176.713" y="-288.5" font-family="Helvetica,sans-Serif" font-size="10.00">+ RegisterCommonClassEvent()</text>
<text text-anchor="start" x="176.713" y="-277.5" font-family="Helvetica,sans-Serif" font-size="10.00">and 56 more...</text>
<text text-anchor="start" x="176.713" y="-266.5" font-family="Helvetica,sans-Serif" font-size="10.00"># AddEventCallBack()</text>
<text text-anchor="start" x="176.713" y="-255.5" font-family="Helvetica,sans-Serif" font-size="10.00"># AddClassCallBack()</text>
<text text-anchor="start" x="176.713" y="-244.5" font-family="Helvetica,sans-Serif" font-size="10.00"># RegisterCommonClassEvent()</text>
<text text-anchor="start" x="176.713" y="-233.5" font-family="Helvetica,sans-Serif" font-size="10.00"># RegisterCommonPropertyEvent()</text>
<text text-anchor="start" x="176.713" y="-222.5" font-family="Helvetica,sans-Serif" font-size="10.00"># RegisterCommonRecordEvent()</text>
</a>
</g>
</g>
<!-- Node3&#45;&gt;Node5 -->
<g id="edge5" class="edge"><title>Node3&#45;&gt;Node5</title>
<path fill="none" stroke="midnightblue" d="M189.102,-480.709C191.567,-476.11 193.95,-471.525 196.213,-467 200.94,-457.547 205.573,-447.593 210.024,-437.534"/>
<polygon fill="none" stroke="midnightblue" points="185.99,-479.105 184.27,-489.56 192.134,-482.46 185.99,-479.105"/>
</g>
<!-- Node6 -->
<g id="node5" class="node"><title>Node6</title>
<g id="a_node5"><a xlink:href="class_n_f_i_element_module.html" target="_top" xlink:title="{NFIElementModule\n||+ Load()\l+ Save()\l+ Clear()\l+ ExistElement()\l+ ExistElement()\l+ GetPropertyManager()\l+ GetRecordManager()\l+ GetComponentManager()\l+ GetPropertyInt()\l+ GetPropertyFloat()\l+ GetPropertyString()\l}">
<polygon fill="white" stroke="black" points="354.213,-243 354.213,-410 488.213,-410 488.213,-243 354.213,-243"/>
<text text-anchor="middle" x="421.213" y="-398" font-family="Helvetica,sans-Serif" font-size="10.00">NFIElementModule</text>
<polyline fill="none" stroke="black" points="354.213,-391 488.213,-391 "/>
<text text-anchor="middle" x="421.213" y="-379" font-family="Helvetica,sans-Serif" font-size="10.00"> </text>
<polyline fill="none" stroke="black" points="354.213,-372 488.213,-372 "/>
<text text-anchor="start" x="362.213" y="-360" font-family="Helvetica,sans-Serif" font-size="10.00">+ Load()</text>
<text text-anchor="start" x="362.213" y="-349" font-family="Helvetica,sans-Serif" font-size="10.00">+ Save()</text>
<text text-anchor="start" x="362.213" y="-338" font-family="Helvetica,sans-Serif" font-size="10.00">+ Clear()</text>
<text text-anchor="start" x="362.213" y="-327" font-family="Helvetica,sans-Serif" font-size="10.00">+ ExistElement()</text>
<text text-anchor="start" x="362.213" y="-316" font-family="Helvetica,sans-Serif" font-size="10.00">+ ExistElement()</text>
<text text-anchor="start" x="362.213" y="-305" font-family="Helvetica,sans-Serif" font-size="10.00">+ GetPropertyManager()</text>
<text text-anchor="start" x="362.213" y="-294" font-family="Helvetica,sans-Serif" font-size="10.00">+ GetRecordManager()</text>
<text text-anchor="start" x="362.213" y="-283" font-family="Helvetica,sans-Serif" font-size="10.00">+ GetComponentManager()</text>
<text text-anchor="start" x="362.213" y="-272" font-family="Helvetica,sans-Serif" font-size="10.00">+ GetPropertyInt()</text>
<text text-anchor="start" x="362.213" y="-261" font-family="Helvetica,sans-Serif" font-size="10.00">+ GetPropertyFloat()</text>
<text text-anchor="start" x="362.213" y="-250" font-family="Helvetica,sans-Serif" font-size="10.00">+ GetPropertyString()</text>
</a>
</g>
</g>
<!-- Node3&#45;&gt;Node6 -->
<g id="edge7" class="edge"><title>Node3&#45;&gt;Node6</title>
<path fill="none" stroke="midnightblue" d="M193.2,-545.361C238.699,-519.818 299.164,-481.705 344.213,-438 352.94,-429.534 361.298,-419.947 369.078,-410.046"/>
<polygon fill="none" stroke="midnightblue" points="191.351,-542.385 184.309,-550.3 194.75,-548.504 191.351,-542.385"/>
</g>
<!-- Node4&#45;&gt;Node3 -->
<g id="edge2" class="edge"><title>Node4&#45;&gt;Node3</title>
<path fill="none" stroke="#404040" d="M107.511,-421.228C109.745,-438.251 112.089,-456.113 114.363,-473.449"/>
<polygon fill="none" stroke="#404040" points="114.364,-473.453 119.11,-478.881 115.925,-485.351 111.178,-479.922 114.364,-473.453"/>
<text text-anchor="middle" x="152.713" y="-459" font-family="Helvetica,sans-Serif" font-size="10.00"> #pPluginManager</text>
</g>
<!-- Node5&#45;&gt;Node2 -->
<g id="edge4" class="edge"><title>Node5&#45;&gt;Node2</title>
<path fill="none" stroke="#404040" d="M252.213,-215.456C252.213,-203.522 252.213,-191.453 252.213,-179.724"/>
<polygon fill="none" stroke="#404040" points="252.213,-179.644 248.213,-173.644 252.213,-167.644 256.213,-173.644 252.213,-179.644"/>
<text text-anchor="middle" x="295.713" y="-189" font-family="Helvetica,sans-Serif" font-size="10.00"> #m_pKernelModule</text>
</g>
<!-- Node6&#45;&gt;Node2 -->
<g id="edge6" class="edge"><title>Node6&#45;&gt;Node2</title>
<path fill="none" stroke="#404040" d="M379.011,-242.845C368.137,-223.672 355.897,-203.707 343.213,-186 341.083,-183.026 338.877,-180.042 336.612,-177.06"/>
<polygon fill="none" stroke="#404040" points="336.581,-177.02 329.737,-174.749 329.201,-167.557 336.045,-169.829 336.581,-177.02"/>
<text text-anchor="middle" x="398.713" y="-189" font-family="Helvetica,sans-Serif" font-size="10.00"> #m_pElementModule</text>
</g>
</g>
</svg>
