<?xml version="1.0" encoding="UTF-8" standalone="no"?>
<!DOCTYPE svg PUBLIC "-//W3C//DTD SVG 1.1//EN"
 "http://www.w3.org/Graphics/SVG/1.1/DTD/svg11.dtd">
<!-- Generated by graphviz version 2.38.0 (20140413.2041)
 -->
<!-- Title: NFIGameServerModule Pages: 1 -->
<svg width="150pt" height="485pt"
 viewBox="0.00 0.00 150.00 485.00" xmlns="http://www.w3.org/2000/svg" xmlns:xlink="http://www.w3.org/1999/xlink">
<g id="graph0" class="graph" transform="scale(1 1) rotate(0) translate(4 481)">
<title>NFIGameServerModule</title>
<polygon fill="white" stroke="none" points="-4,4 -4,-481 146,-481 146,4 -4,4"/>
<!-- Node0 -->
<g id="node1" class="node"><title>Node0</title>
<polygon fill="#bfbfbf" stroke="black" points="13,-182.5 13,-239.5 129,-239.5 129,-182.5 13,-182.5"/>
<text text-anchor="middle" x="71" y="-227.5" font-family="Helvetica,sans-Serif" font-size="10.00">NFIGameServerModule</text>
<polyline fill="none" stroke="black" points="13,-220.5 129,-220.5 "/>
<text text-anchor="middle" x="71" y="-208.5" font-family="Helvetica,sans-Serif" font-size="10.00"> </text>
<polyline fill="none" stroke="black" points="13,-201.5 129,-201.5 "/>
<text text-anchor="middle" x="71" y="-189.5" font-family="Helvetica,sans-Serif" font-size="10.00"> </text>
</g>
<!-- Node2 -->
<g id="node3" class="node"><title>Node2</title>
<g id="a_node3"><a xlink:href="class_n_f_c_game_server_module.html" target="_top" xlink:title="{NFCGameServerModule\n|# m_pUUIDModule\l# m_pClassModule\l# m_pKernelModule\l|+ NFCGameServerModule()\l+ ~NFCGameServerModule()\l+ Init()\l+ Shut()\l+ Execute()\l+ AfterInit()\l+ BeforeShut()\l}">
<polygon fill="white" stroke="black" points="0,-0.5 0,-145.5 142,-145.5 142,-0.5 0,-0.5"/>
<text text-anchor="middle" x="71" y="-133.5" font-family="Helvetica,sans-Serif" font-size="10.00">NFCGameServerModule</text>
<polyline fill="none" stroke="black" points="0,-126.5 142,-126.5 "/>
<text text-anchor="start" x="8" y="-114.5" font-family="Helvetica,sans-Serif" font-size="10.00"># m_pUUIDModule</text>
<text text-anchor="start" x="8" y="-103.5" font-family="Helvetica,sans-Serif" font-size="10.00"># m_pClassModule</text>
<text text-anchor="start" x="8" y="-92.5" font-family="Helvetica,sans-Serif" font-size="10.00"># m_pKernelModule</text>
<polyline fill="none" stroke="black" points="0,-85.5 142,-85.5 "/>
<text text-anchor="start" x="8" y="-73.5" font-family="Helvetica,sans-Serif" font-size="10.00">+ NFCGameServerModule()</text>
<text text-anchor="start" x="8" y="-62.5" font-family="Helvetica,sans-Serif" font-size="10.00">+ ~NFCGameServerModule()</text>
<text text-anchor="start" x="8" y="-51.5" font-family="Helvetica,sans-Serif" font-size="10.00">+ Init()</text>
<text text-anchor="start" x="8" y="-40.5" font-family="Helvetica,sans-Serif" font-size="10.00">+ Shut()</text>
<text text-anchor="start" x="8" y="-29.5" font-family="Helvetica,sans-Serif" font-size="10.00">+ Execute()</text>
<text text-anchor="start" x="8" y="-18.5" font-family="Helvetica,sans-Serif" font-size="10.00">+ AfterInit()</text>
<text text-anchor="start" x="8" y="-7.5" font-family="Helvetica,sans-Serif" font-size="10.00">+ BeforeShut()</text>
</a>
</g>
</g>
<!-- Node0&#45;&gt;Node2 -->
<g id="edge2" class="edge"><title>Node0&#45;&gt;Node2</title>
<path fill="none" stroke="midnightblue" d="M71,-172.356C71,-163.999 71,-154.872 71,-145.656"/>
<polygon fill="none" stroke="midnightblue" points="67.5001,-172.478 71,-182.478 74.5001,-172.478 67.5001,-172.478"/>
</g>
<!-- Node1 -->
<g id="node2" class="node"><title>Node1</title>
<g id="a_node2"><a xlink:href="class_n_f_i_module.html" target="_top" xlink:title="{NFIModule\n|+ strName\l# pPluginManager\l# mbReloading\l|+ NFIModule()\l+ ~NFIModule()\l+ Init()\l+ AfterInit()\l+ CheckConfig()\l+ BeforeShut()\l+ Shut()\l+ Execute()\l+ StartReLoadState()\l+ EndReLoadState()\l+ GetPluginManager()\l+ Loading()\l}">
<polygon fill="white" stroke="black" points="15,-276.5 15,-476.5 127,-476.5 127,-276.5 15,-276.5"/>
<text text-anchor="middle" x="71" y="-464.5" font-family="Helvetica,sans-Serif" font-size="10.00">NFIModule</text>
<polyline fill="none" stroke="black" points="15,-457.5 127,-457.5 "/>
<text text-anchor="start" x="23" y="-445.5" font-family="Helvetica,sans-Serif" font-size="10.00">+ strName</text>
<text text-anchor="start" x="23" y="-434.5" font-family="Helvetica,sans-Serif" font-size="10.00"># pPluginManager</text>
<text text-anchor="start" x="23" y="-423.5" font-family="Helvetica,sans-Serif" font-size="10.00"># mbReloading</text>
<polyline fill="none" stroke="black" points="15,-416.5 127,-416.5 "/>
<text text-anchor="start" x="23" y="-404.5" font-family="Helvetica,sans-Serif" font-size="10.00">+ NFIModule()</text>
<text text-anchor="start" x="23" y="-393.5" font-family="Helvetica,sans-Serif" font-size="10.00">+ ~NFIModule()</text>
<text text-anchor="start" x="23" y="-382.5" font-family="Helvetica,sans-Serif" font-size="10.00">+ Init()</text>
<text text-anchor="start" x="23" y="-371.5" font-family="Helvetica,sans-Serif" font-size="10.00">+ AfterInit()</text>
<text text-anchor="start" x="23" y="-360.5" font-family="Helvetica,sans-Serif" font-size="10.00">+ CheckConfig()</text>
<text text-anchor="start" x="23" y="-349.5" font-family="Helvetica,sans-Serif" font-size="10.00">+ BeforeShut()</text>
<text text-anchor="start" x="23" y="-338.5" font-family="Helvetica,sans-Serif" font-size="10.00">+ Shut()</text>
<text text-anchor="start" x="23" y="-327.5" font-family="Helvetica,sans-Serif" font-size="10.00">+ Execute()</text>
<text text-anchor="start" x="23" y="-316.5" font-family="Helvetica,sans-Serif" font-size="10.00">+ StartReLoadState()</text>
<text text-anchor="start" x="23" y="-305.5" font-family="Helvetica,sans-Serif" font-size="10.00">+ EndReLoadState()</text>
<text text-anchor="start" x="23" y="-294.5" font-family="Helvetica,sans-Serif" font-size="10.00">+ GetPluginManager()</text>
<text text-anchor="start" x="23" y="-283.5" font-family="Helvetica,sans-Serif" font-size="10.00">+ Loading()</text>
</a>
</g>
</g>
<!-- Node1&#45;&gt;Node0 -->
<g id="edge1" class="edge"><title>Node1&#45;&gt;Node0</title>
<path fill="none" stroke="midnightblue" d="M71,-265.964C71,-256.366 71,-247.348 71,-239.533"/>
<polygon fill="none" stroke="midnightblue" points="67.5001,-266.15 71,-276.15 74.5001,-266.15 67.5001,-266.15"/>
</g>
</g>
</svg>
