<?xml version="1.0" encoding="UTF-8" standalone="no"?>
<!DOCTYPE svg PUBLIC "-//W3C//DTD SVG 1.1//EN"
 "http://www.w3.org/Graphics/SVG/1.1/DTD/svg11.dtd">
<!-- Generated by graphviz version 2.38.0 (20140413.2041)
 -->
<!-- Title: NFCGameServerToWorldModule Pages: 1 -->
<svg width="1329pt" height="964pt"
 viewBox="0.00 0.00 1329.00 964.00" xmlns="http://www.w3.org/2000/svg" xmlns:xlink="http://www.w3.org/1999/xlink">
<g id="graph0" class="graph" transform="scale(1 1) rotate(0) translate(4 960)">
<title>NFCGameServerToWorldModule</title>
<polygon fill="white" stroke="none" points="-4,4 -4,-960 1325,-960 1325,4 -4,4"/>
<!-- Node3 -->
<g id="node1" class="node"><title>Node3</title>
<polygon fill="#bfbfbf" stroke="black" points="728.5,-0.5 728.5,-200.5 900.5,-200.5 900.5,-0.5 728.5,-0.5"/>
<text text-anchor="middle" x="814.5" y="-188.5" font-family="Helvetica,sans-Serif" font-size="10.00">NFCGameServerToWorldModule</text>
<polyline fill="none" stroke="black" points="728.5,-181.5 900.5,-181.5 "/>
<text text-anchor="middle" x="814.5" y="-169.5" font-family="Helvetica,sans-Serif" font-size="10.00"> </text>
<polyline fill="none" stroke="black" points="728.5,-162.5 900.5,-162.5 "/>
<text text-anchor="start" x="736.5" y="-150.5" font-family="Helvetica,sans-Serif" font-size="10.00">+ NFCGameServerToWorldModule()</text>
<text text-anchor="start" x="736.5" y="-139.5" font-family="Helvetica,sans-Serif" font-size="10.00">+ Init()</text>
<text text-anchor="start" x="736.5" y="-128.5" font-family="Helvetica,sans-Serif" font-size="10.00">+ Shut()</text>
<text text-anchor="start" x="736.5" y="-117.5" font-family="Helvetica,sans-Serif" font-size="10.00">+ Execute()</text>
<text text-anchor="start" x="736.5" y="-106.5" font-family="Helvetica,sans-Serif" font-size="10.00">+ AfterInit()</text>
<text text-anchor="start" x="736.5" y="-95.5" font-family="Helvetica,sans-Serif" font-size="10.00">+ SendBySuit()</text>
<text text-anchor="start" x="736.5" y="-84.5" font-family="Helvetica,sans-Serif" font-size="10.00">+ GetClusterClientModule()</text>
<text text-anchor="start" x="736.5" y="-73.5" font-family="Helvetica,sans-Serif" font-size="10.00"># OnSocketWSEvent()</text>
<text text-anchor="start" x="736.5" y="-62.5" font-family="Helvetica,sans-Serif" font-size="10.00"># Register()</text>
<text text-anchor="start" x="736.5" y="-51.5" font-family="Helvetica,sans-Serif" font-size="10.00"># RefreshWorldInfo()</text>
<text text-anchor="start" x="736.5" y="-40.5" font-family="Helvetica,sans-Serif" font-size="10.00"># TransPBToProxy()</text>
<text text-anchor="start" x="736.5" y="-29.5" font-family="Helvetica,sans-Serif" font-size="10.00"># OnObjectClassEvent()</text>
<text text-anchor="start" x="736.5" y="-18.5" font-family="Helvetica,sans-Serif" font-size="10.00">&#45; SendOnline()</text>
<text text-anchor="start" x="736.5" y="-7.5" font-family="Helvetica,sans-Serif" font-size="10.00">&#45; SendOffline()</text>
</g>
<!-- Node4 -->
<g id="node2" class="node"><title>Node4</title>
<g id="a_node2"><a xlink:href="class_n_f_i_game_server_to_world_module.html" target="_top" xlink:title="{NFIGameServerToWorldModule\n||+ SendBySuit()\l+ GetClusterClientModule()\l}">
<polygon fill="white" stroke="black" points="738.5,-402.5 738.5,-470.5 890.5,-470.5 890.5,-402.5 738.5,-402.5"/>
<text text-anchor="middle" x="814.5" y="-458.5" font-family="Helvetica,sans-Serif" font-size="10.00">NFIGameServerToWorldModule</text>
<polyline fill="none" stroke="black" points="738.5,-451.5 890.5,-451.5 "/>
<text text-anchor="middle" x="814.5" y="-439.5" font-family="Helvetica,sans-Serif" font-size="10.00"> </text>
<polyline fill="none" stroke="black" points="738.5,-432.5 890.5,-432.5 "/>
<text text-anchor="start" x="746.5" y="-420.5" font-family="Helvetica,sans-Serif" font-size="10.00">+ SendBySuit()</text>
<text text-anchor="start" x="746.5" y="-409.5" font-family="Helvetica,sans-Serif" font-size="10.00">+ GetClusterClientModule()</text>
</a>
</g>
</g>
<!-- Node4&#45;&gt;Node3 -->
<g id="edge1" class="edge"><title>Node4&#45;&gt;Node3</title>
<path fill="none" stroke="midnightblue" d="M814.5,-392.151C814.5,-343.868 814.5,-264.23 814.5,-200.514"/>
<polygon fill="none" stroke="midnightblue" points="811,-392.254 814.5,-402.254 818,-392.254 811,-392.254"/>
</g>
<!-- Node5 -->
<g id="node3" class="node"><title>Node5</title>
<g id="a_node3"><a xlink:href="class_n_f_i_module.html" target="_top" xlink:title="{NFIModule\n|+ strName\l# mbReloading\l|+ NFIModule()\l+ ~NFIModule()\l+ Init()\l+ AfterInit()\l+ CheckConfig()\l+ BeforeShut()\l+ Shut()\l+ Execute()\l+ StartReLoadState()\l+ EndReLoadState()\l+ GetPluginManager()\l+ Loading()\l}">
<polygon fill="white" stroke="black" points="582.5,-661.5 582.5,-850.5 694.5,-850.5 694.5,-661.5 582.5,-661.5"/>
<text text-anchor="middle" x="638.5" y="-838.5" font-family="Helvetica,sans-Serif" font-size="10.00">NFIModule</text>
<polyline fill="none" stroke="black" points="582.5,-831.5 694.5,-831.5 "/>
<text text-anchor="start" x="590.5" y="-819.5" font-family="Helvetica,sans-Serif" font-size="10.00">+ strName</text>
<text text-anchor="start" x="590.5" y="-808.5" font-family="Helvetica,sans-Serif" font-size="10.00"># mbReloading</text>
<polyline fill="none" stroke="black" points="582.5,-801.5 694.5,-801.5 "/>
<text text-anchor="start" x="590.5" y="-789.5" font-family="Helvetica,sans-Serif" font-size="10.00">+ NFIModule()</text>
<text text-anchor="start" x="590.5" y="-778.5" font-family="Helvetica,sans-Serif" font-size="10.00">+ ~NFIModule()</text>
<text text-anchor="start" x="590.5" y="-767.5" font-family="Helvetica,sans-Serif" font-size="10.00">+ Init()</text>
<text text-anchor="start" x="590.5" y="-756.5" font-family="Helvetica,sans-Serif" font-size="10.00">+ AfterInit()</text>
<text text-anchor="start" x="590.5" y="-745.5" font-family="Helvetica,sans-Serif" font-size="10.00">+ CheckConfig()</text>
<text text-anchor="start" x="590.5" y="-734.5" font-family="Helvetica,sans-Serif" font-size="10.00">+ BeforeShut()</text>
<text text-anchor="start" x="590.5" y="-723.5" font-family="Helvetica,sans-Serif" font-size="10.00">+ Shut()</text>
<text text-anchor="start" x="590.5" y="-712.5" font-family="Helvetica,sans-Serif" font-size="10.00">+ Execute()</text>
<text text-anchor="start" x="590.5" y="-701.5" font-family="Helvetica,sans-Serif" font-size="10.00">+ StartReLoadState()</text>
<text text-anchor="start" x="590.5" y="-690.5" font-family="Helvetica,sans-Serif" font-size="10.00">+ EndReLoadState()</text>
<text text-anchor="start" x="590.5" y="-679.5" font-family="Helvetica,sans-Serif" font-size="10.00">+ GetPluginManager()</text>
<text text-anchor="start" x="590.5" y="-668.5" font-family="Helvetica,sans-Serif" font-size="10.00">+ Loading()</text>
</a>
</g>
</g>
<!-- Node5&#45;&gt;Node4 -->
<g id="edge2" class="edge"><title>Node5&#45;&gt;Node4</title>
<path fill="none" stroke="midnightblue" d="M700.239,-662.929C710.365,-646.829 720.484,-630.082 729.5,-614 756.776,-565.347 783.989,-506.595 800.025,-470.651"/>
<polygon fill="none" stroke="midnightblue" points="697.015,-661.479 694.62,-671.799 702.928,-665.225 697.015,-661.479"/>
</g>
<!-- Node6 -->
<g id="node4" class="node"><title>Node6</title>
<g id="a_node4"><a xlink:href="class_n_f_i_plugin_manager.html" target="_top" xlink:title="{NFIPluginManager\n||+ NFIPluginManager()\l+ FindModule()\l+ Registered()\l+ UnRegistered()\l+ FindPlugin()\l+ AddModule()\l+ RemoveModule()\l+ FindModule()\l+ AppID()\l+ GetInitTime()\l+ GetNowTime()\l+ GetConfigPath()\l+ SetConfigName()\l}">
<polygon fill="white" stroke="black" points="242,-342 242,-531 353,-531 353,-342 242,-342"/>
<text text-anchor="middle" x="297.5" y="-519" font-family="Helvetica,sans-Serif" font-size="10.00">NFIPluginManager</text>
<polyline fill="none" stroke="black" points="242,-512 353,-512 "/>
<text text-anchor="middle" x="297.5" y="-500" font-family="Helvetica,sans-Serif" font-size="10.00"> </text>
<polyline fill="none" stroke="black" points="242,-493 353,-493 "/>
<text text-anchor="start" x="250" y="-481" font-family="Helvetica,sans-Serif" font-size="10.00">+ NFIPluginManager()</text>
<text text-anchor="start" x="250" y="-470" font-family="Helvetica,sans-Serif" font-size="10.00">+ FindModule()</text>
<text text-anchor="start" x="250" y="-459" font-family="Helvetica,sans-Serif" font-size="10.00">+ Registered()</text>
<text text-anchor="start" x="250" y="-448" font-family="Helvetica,sans-Serif" font-size="10.00">+ UnRegistered()</text>
<text text-anchor="start" x="250" y="-437" font-family="Helvetica,sans-Serif" font-size="10.00">+ FindPlugin()</text>
<text text-anchor="start" x="250" y="-426" font-family="Helvetica,sans-Serif" font-size="10.00">+ AddModule()</text>
<text text-anchor="start" x="250" y="-415" font-family="Helvetica,sans-Serif" font-size="10.00">+ RemoveModule()</text>
<text text-anchor="start" x="250" y="-404" font-family="Helvetica,sans-Serif" font-size="10.00">+ FindModule()</text>
<text text-anchor="start" x="250" y="-393" font-family="Helvetica,sans-Serif" font-size="10.00">+ AppID()</text>
<text text-anchor="start" x="250" y="-382" font-family="Helvetica,sans-Serif" font-size="10.00">+ GetInitTime()</text>
<text text-anchor="start" x="250" y="-371" font-family="Helvetica,sans-Serif" font-size="10.00">+ GetNowTime()</text>
<text text-anchor="start" x="250" y="-360" font-family="Helvetica,sans-Serif" font-size="10.00">+ GetConfigPath()</text>
<text text-anchor="start" x="250" y="-349" font-family="Helvetica,sans-Serif" font-size="10.00">+ SetConfigName()</text>
</a>
</g>
</g>
<!-- Node5&#45;&gt;Node6 -->
<g id="edge4" class="edge"><title>Node5&#45;&gt;Node6</title>
<path fill="none" stroke="midnightblue" d="M572.679,-736.932C510.302,-716.639 417.985,-677.897 361.5,-614 340.883,-590.678 326.742,-560.194 317.114,-531.137"/>
<polygon fill="none" stroke="midnightblue" points="571.833,-740.336 582.423,-740.032 573.954,-733.665 571.833,-740.336"/>
</g>
<!-- Node7 -->
<g id="node5" class="node"><title>Node7</title>
<g id="a_node5"><a xlink:href="class_n_f_i_net_client_module.html" target="_top" xlink:title="{NFINetClientModule\n|&#45; mxTempNetList\l&#45; mxReceiveCallBack\l&#45; mxEventCallBack\l&#45; mxCallBackList\l|+ NFINetClientModule()\l+ Init()\l+ AfterInit()\l+ BeforeShut()\l+ Shut()\l+ Execute()\l+ AddReceiveCallBack()\l+ AddReceiveCallBack()\l+ AddEventCallBack()\l+ AddServer()\land 14 more...\l# NFINetClientModule()\l# ProcessExecute()\l# KeepReport()\l# LogServerInfo()\l&#45; LogServerInfo()\l&#45; KeepState()\l&#45; OnSocketEvent()\l&#45; OnConnected()\l&#45; OnDisConnected()\l&#45; ProcessAddNetConnect()\l&#45; InitNetCallback()\l&#45; GetServerMachineData()\l&#45; AddServerWeightData()\l&#45; RemoveServerWeightData()\l}">
<polygon fill="white" stroke="black" points="83,-259.5 83,-613.5 224,-613.5 224,-259.5 83,-259.5"/>
<text text-anchor="middle" x="153.5" y="-601.5" font-family="Helvetica,sans-Serif" font-size="10.00">NFINetClientModule</text>
<polyline fill="none" stroke="black" points="83,-594.5 224,-594.5 "/>
<text text-anchor="start" x="91" y="-582.5" font-family="Helvetica,sans-Serif" font-size="10.00">&#45; mxTempNetList</text>
<text text-anchor="start" x="91" y="-571.5" font-family="Helvetica,sans-Serif" font-size="10.00">&#45; mxReceiveCallBack</text>
<text text-anchor="start" x="91" y="-560.5" font-family="Helvetica,sans-Serif" font-size="10.00">&#45; mxEventCallBack</text>
<text text-anchor="start" x="91" y="-549.5" font-family="Helvetica,sans-Serif" font-size="10.00">&#45; mxCallBackList</text>
<polyline fill="none" stroke="black" points="83,-542.5 224,-542.5 "/>
<text text-anchor="start" x="91" y="-530.5" font-family="Helvetica,sans-Serif" font-size="10.00">+ NFINetClientModule()</text>
<text text-anchor="start" x="91" y="-519.5" font-family="Helvetica,sans-Serif" font-size="10.00">+ Init()</text>
<text text-anchor="start" x="91" y="-508.5" font-family="Helvetica,sans-Serif" font-size="10.00">+ AfterInit()</text>
<text text-anchor="start" x="91" y="-497.5" font-family="Helvetica,sans-Serif" font-size="10.00">+ BeforeShut()</text>
<text text-anchor="start" x="91" y="-486.5" font-family="Helvetica,sans-Serif" font-size="10.00">+ Shut()</text>
<text text-anchor="start" x="91" y="-475.5" font-family="Helvetica,sans-Serif" font-size="10.00">+ Execute()</text>
<text text-anchor="start" x="91" y="-464.5" font-family="Helvetica,sans-Serif" font-size="10.00">+ AddReceiveCallBack()</text>
<text text-anchor="start" x="91" y="-453.5" font-family="Helvetica,sans-Serif" font-size="10.00">+ AddReceiveCallBack()</text>
<text text-anchor="start" x="91" y="-442.5" font-family="Helvetica,sans-Serif" font-size="10.00">+ AddEventCallBack()</text>
<text text-anchor="start" x="91" y="-431.5" font-family="Helvetica,sans-Serif" font-size="10.00">+ AddServer()</text>
<text text-anchor="start" x="91" y="-420.5" font-family="Helvetica,sans-Serif" font-size="10.00">and 14 more...</text>
<text text-anchor="start" x="91" y="-409.5" font-family="Helvetica,sans-Serif" font-size="10.00"># NFINetClientModule()</text>
<text text-anchor="start" x="91" y="-398.5" font-family="Helvetica,sans-Serif" font-size="10.00"># ProcessExecute()</text>
<text text-anchor="start" x="91" y="-387.5" font-family="Helvetica,sans-Serif" font-size="10.00"># KeepReport()</text>
<text text-anchor="start" x="91" y="-376.5" font-family="Helvetica,sans-Serif" font-size="10.00"># LogServerInfo()</text>
<text text-anchor="start" x="91" y="-365.5" font-family="Helvetica,sans-Serif" font-size="10.00">&#45; LogServerInfo()</text>
<text text-anchor="start" x="91" y="-354.5" font-family="Helvetica,sans-Serif" font-size="10.00">&#45; KeepState()</text>
<text text-anchor="start" x="91" y="-343.5" font-family="Helvetica,sans-Serif" font-size="10.00">&#45; OnSocketEvent()</text>
<text text-anchor="start" x="91" y="-332.5" font-family="Helvetica,sans-Serif" font-size="10.00">&#45; OnConnected()</text>
<text text-anchor="start" x="91" y="-321.5" font-family="Helvetica,sans-Serif" font-size="10.00">&#45; OnDisConnected()</text>
<text text-anchor="start" x="91" y="-310.5" font-family="Helvetica,sans-Serif" font-size="10.00">&#45; ProcessAddNetConnect()</text>
<text text-anchor="start" x="91" y="-299.5" font-family="Helvetica,sans-Serif" font-size="10.00">&#45; InitNetCallback()</text>
<text text-anchor="start" x="91" y="-288.5" font-family="Helvetica,sans-Serif" font-size="10.00">&#45; GetServerMachineData()</text>
<text text-anchor="start" x="91" y="-277.5" font-family="Helvetica,sans-Serif" font-size="10.00">&#45; AddServerWeightData()</text>
<text text-anchor="start" x="91" y="-266.5" font-family="Helvetica,sans-Serif" font-size="10.00">&#45; RemoveServerWeightData()</text>
</a>
</g>
</g>
<!-- Node5&#45;&gt;Node7 -->
<g id="edge6" class="edge"><title>Node5&#45;&gt;Node7</title>
<path fill="none" stroke="midnightblue" d="M573.04,-730.07C504.342,-704.251 392.989,-663.369 295.5,-632 267.779,-623.08 254.505,-633.073 232.5,-614 229.583,-611.471 226.768,-608.814 224.052,-606.044"/>
<polygon fill="none" stroke="midnightblue" points="571.852,-733.363 582.444,-733.611 574.319,-726.812 571.852,-733.363"/>
</g>
<!-- Node11 -->
<g id="node9" class="node"><title>Node11</title>
<g id="a_node9"><a xlink:href="class_n_f_i_kernel_module.html" target="_top" xlink:title="{NFIKernelModule\n||+ AddHeartBeat()\l+ FindHeartBeat()\l+ RemoveHeartBeat()\l+ AddRecordCallBack()\l+ AddPropertyCallBack()\l+ AddEventCallBack()\l+ AddClassCallBack()\l+ DoEvent()\l+ DoEvent()\l+ RegisterCommonClassEvent()\land 56 more...\l# AddEventCallBack()\l# AddClassCallBack()\l# RegisterCommonClassEvent()\l# RegisterCommonPropertyEvent()\l# RegisterCommonRecordEvent()\l}">
<polygon fill="white" stroke="black" points="371,-325.5 371,-547.5 538,-547.5 538,-325.5 371,-325.5"/>
<text text-anchor="middle" x="454.5" y="-535.5" font-family="Helvetica,sans-Serif" font-size="10.00">NFIKernelModule</text>
<polyline fill="none" stroke="black" points="371,-528.5 538,-528.5 "/>
<text text-anchor="middle" x="454.5" y="-516.5" font-family="Helvetica,sans-Serif" font-size="10.00"> </text>
<polyline fill="none" stroke="black" points="371,-509.5 538,-509.5 "/>
<text text-anchor="start" x="379" y="-497.5" font-family="Helvetica,sans-Serif" font-size="10.00">+ AddHeartBeat()</text>
<text text-anchor="start" x="379" y="-486.5" font-family="Helvetica,sans-Serif" font-size="10.00">+ FindHeartBeat()</text>
<text text-anchor="start" x="379" y="-475.5" font-family="Helvetica,sans-Serif" font-size="10.00">+ RemoveHeartBeat()</text>
<text text-anchor="start" x="379" y="-464.5" font-family="Helvetica,sans-Serif" font-size="10.00">+ AddRecordCallBack()</text>
<text text-anchor="start" x="379" y="-453.5" font-family="Helvetica,sans-Serif" font-size="10.00">+ AddPropertyCallBack()</text>
<text text-anchor="start" x="379" y="-442.5" font-family="Helvetica,sans-Serif" font-size="10.00">+ AddEventCallBack()</text>
<text text-anchor="start" x="379" y="-431.5" font-family="Helvetica,sans-Serif" font-size="10.00">+ AddClassCallBack()</text>
<text text-anchor="start" x="379" y="-420.5" font-family="Helvetica,sans-Serif" font-size="10.00">+ DoEvent()</text>
<text text-anchor="start" x="379" y="-409.5" font-family="Helvetica,sans-Serif" font-size="10.00">+ DoEvent()</text>
<text text-anchor="start" x="379" y="-398.5" font-family="Helvetica,sans-Serif" font-size="10.00">+ RegisterCommonClassEvent()</text>
<text text-anchor="start" x="379" y="-387.5" font-family="Helvetica,sans-Serif" font-size="10.00">and 56 more...</text>
<text text-anchor="start" x="379" y="-376.5" font-family="Helvetica,sans-Serif" font-size="10.00"># AddEventCallBack()</text>
<text text-anchor="start" x="379" y="-365.5" font-family="Helvetica,sans-Serif" font-size="10.00"># AddClassCallBack()</text>
<text text-anchor="start" x="379" y="-354.5" font-family="Helvetica,sans-Serif" font-size="10.00"># RegisterCommonClassEvent()</text>
<text text-anchor="start" x="379" y="-343.5" font-family="Helvetica,sans-Serif" font-size="10.00"># RegisterCommonPropertyEvent()</text>
<text text-anchor="start" x="379" y="-332.5" font-family="Helvetica,sans-Serif" font-size="10.00"># RegisterCommonRecordEvent()</text>
</a>
</g>
</g>
<!-- Node5&#45;&gt;Node11 -->
<g id="edge11" class="edge"><title>Node5&#45;&gt;Node11</title>
<path fill="none" stroke="midnightblue" d="M588.456,-652.666C583.452,-645.399 578.125,-638.419 572.5,-632 563.476,-621.703 556.485,-624.331 547.5,-614 530.339,-594.269 515.211,-570.824 502.41,-547.573"/>
<polygon fill="none" stroke="midnightblue" points="585.741,-654.905 594.18,-661.31 591.577,-651.04 585.741,-654.905"/>
</g>
<!-- Node12 -->
<g id="node10" class="node"><title>Node12</title>
<g id="a_node10"><a xlink:href="class_n_f_i_game_server_net___server_module.html" target="_top" xlink:title="{NFIGameServerNet_ServerModule\n||+ GetNetModule()\l+ SendMsgPBToGate()\l+ SendMsgPBToGate()\l+ AddPlayerGateInfo()\l+ RemovePlayerGateInfo()\l+ GetPlayerGateInfo()\l+ OnPropertyEnter()\l+ OnRecordEnter()\l+ OnObjectListEnter()\l+ OnObjectListLeave()\l}">
<polygon fill="white" stroke="black" points="556.5,-358.5 556.5,-514.5 720.5,-514.5 720.5,-358.5 556.5,-358.5"/>
<text text-anchor="middle" x="638.5" y="-502.5" font-family="Helvetica,sans-Serif" font-size="10.00">NFIGameServerNet_ServerModule</text>
<polyline fill="none" stroke="black" points="556.5,-495.5 720.5,-495.5 "/>
<text text-anchor="middle" x="638.5" y="-483.5" font-family="Helvetica,sans-Serif" font-size="10.00"> </text>
<polyline fill="none" stroke="black" points="556.5,-476.5 720.5,-476.5 "/>
<text text-anchor="start" x="564.5" y="-464.5" font-family="Helvetica,sans-Serif" font-size="10.00">+ GetNetModule()</text>
<text text-anchor="start" x="564.5" y="-453.5" font-family="Helvetica,sans-Serif" font-size="10.00">+ SendMsgPBToGate()</text>
<text text-anchor="start" x="564.5" y="-442.5" font-family="Helvetica,sans-Serif" font-size="10.00">+ SendMsgPBToGate()</text>
<text text-anchor="start" x="564.5" y="-431.5" font-family="Helvetica,sans-Serif" font-size="10.00">+ AddPlayerGateInfo()</text>
<text text-anchor="start" x="564.5" y="-420.5" font-family="Helvetica,sans-Serif" font-size="10.00">+ RemovePlayerGateInfo()</text>
<text text-anchor="start" x="564.5" y="-409.5" font-family="Helvetica,sans-Serif" font-size="10.00">+ GetPlayerGateInfo()</text>
<text text-anchor="start" x="564.5" y="-398.5" font-family="Helvetica,sans-Serif" font-size="10.00">+ OnPropertyEnter()</text>
<text text-anchor="start" x="564.5" y="-387.5" font-family="Helvetica,sans-Serif" font-size="10.00">+ OnRecordEnter()</text>
<text text-anchor="start" x="564.5" y="-376.5" font-family="Helvetica,sans-Serif" font-size="10.00">+ OnObjectListEnter()</text>
<text text-anchor="start" x="564.5" y="-365.5" font-family="Helvetica,sans-Serif" font-size="10.00">+ OnObjectListLeave()</text>
</a>
</g>
</g>
<!-- Node5&#45;&gt;Node12 -->
<g id="edge13" class="edge"><title>Node5&#45;&gt;Node12</title>
<path fill="none" stroke="midnightblue" d="M638.5,-651.189C638.5,-606.708 638.5,-555.662 638.5,-514.617"/>
<polygon fill="none" stroke="midnightblue" points="635,-651.457 638.5,-661.457 642,-651.457 635,-651.457"/>
</g>
<!-- Node13 -->
<g id="node11" class="node"><title>Node13</title>
<g id="a_node11"><a xlink:href="class_n_f_i_class_module.html" target="_top" xlink:title="{NFIClassModule\n||+ ~NFIClassModule()\l+ Load()\l+ Save()\l+ Clear()\l+ AddClassCallBack()\l+ DoEvent()\l+ AddClassCallBack()\l+ GetClassPropertyManager()\l+ GetClassRecordManager()\l+ GetClassComponentManager()\l}">
<polygon fill="white" stroke="black" points="1061,-358.5 1061,-514.5 1220,-514.5 1220,-358.5 1061,-358.5"/>
<text text-anchor="middle" x="1140.5" y="-502.5" font-family="Helvetica,sans-Serif" font-size="10.00">NFIClassModule</text>
<polyline fill="none" stroke="black" points="1061,-495.5 1220,-495.5 "/>
<text text-anchor="middle" x="1140.5" y="-483.5" font-family="Helvetica,sans-Serif" font-size="10.00"> </text>
<polyline fill="none" stroke="black" points="1061,-476.5 1220,-476.5 "/>
<text text-anchor="start" x="1069" y="-464.5" font-family="Helvetica,sans-Serif" font-size="10.00">+ ~NFIClassModule()</text>
<text text-anchor="start" x="1069" y="-453.5" font-family="Helvetica,sans-Serif" font-size="10.00">+ Load()</text>
<text text-anchor="start" x="1069" y="-442.5" font-family="Helvetica,sans-Serif" font-size="10.00">+ Save()</text>
<text text-anchor="start" x="1069" y="-431.5" font-family="Helvetica,sans-Serif" font-size="10.00">+ Clear()</text>
<text text-anchor="start" x="1069" y="-420.5" font-family="Helvetica,sans-Serif" font-size="10.00">+ AddClassCallBack()</text>
<text text-anchor="start" x="1069" y="-409.5" font-family="Helvetica,sans-Serif" font-size="10.00">+ DoEvent()</text>
<text text-anchor="start" x="1069" y="-398.5" font-family="Helvetica,sans-Serif" font-size="10.00">+ AddClassCallBack()</text>
<text text-anchor="start" x="1069" y="-387.5" font-family="Helvetica,sans-Serif" font-size="10.00">+ GetClassPropertyManager()</text>
<text text-anchor="start" x="1069" y="-376.5" font-family="Helvetica,sans-Serif" font-size="10.00">+ GetClassRecordManager()</text>
<text text-anchor="start" x="1069" y="-365.5" font-family="Helvetica,sans-Serif" font-size="10.00">+ GetClassComponentManager()</text>
</a>
</g>
</g>
<!-- Node5&#45;&gt;Node13 -->
<g id="edge15" class="edge"><title>Node5&#45;&gt;Node13</title>
<path fill="none" stroke="midnightblue" d="M704.51,-747.995C793.064,-735.451 950.812,-701.667 1051.5,-614 1081.52,-587.86 1102.61,-549.17 1116.7,-514.67"/>
<polygon fill="none" stroke="midnightblue" points="704.02,-744.529 694.587,-749.353 704.969,-751.465 704.02,-744.529"/>
</g>
<!-- Node15 -->
<g id="node13" class="node"><title>Node15</title>
<g id="a_node13"><a xlink:href="class_n_f_i_element_module.html" target="_top" xlink:title="{NFIElementModule\n||+ Load()\l+ Save()\l+ Clear()\l+ ExistElement()\l+ ExistElement()\l+ GetPropertyManager()\l+ GetRecordManager()\l+ GetComponentManager()\l+ GetPropertyInt()\l+ GetPropertyFloat()\l+ GetPropertyString()\l}">
<polygon fill="white" stroke="black" points="908.5,-353 908.5,-520 1042.5,-520 1042.5,-353 908.5,-353"/>
<text text-anchor="middle" x="975.5" y="-508" font-family="Helvetica,sans-Serif" font-size="10.00">NFIElementModule</text>
<polyline fill="none" stroke="black" points="908.5,-501 1042.5,-501 "/>
<text text-anchor="middle" x="975.5" y="-489" font-family="Helvetica,sans-Serif" font-size="10.00"> </text>
<polyline fill="none" stroke="black" points="908.5,-482 1042.5,-482 "/>
<text text-anchor="start" x="916.5" y="-470" font-family="Helvetica,sans-Serif" font-size="10.00">+ Load()</text>
<text text-anchor="start" x="916.5" y="-459" font-family="Helvetica,sans-Serif" font-size="10.00">+ Save()</text>
<text text-anchor="start" x="916.5" y="-448" font-family="Helvetica,sans-Serif" font-size="10.00">+ Clear()</text>
<text text-anchor="start" x="916.5" y="-437" font-family="Helvetica,sans-Serif" font-size="10.00">+ ExistElement()</text>
<text text-anchor="start" x="916.5" y="-426" font-family="Helvetica,sans-Serif" font-size="10.00">+ ExistElement()</text>
<text text-anchor="start" x="916.5" y="-415" font-family="Helvetica,sans-Serif" font-size="10.00">+ GetPropertyManager()</text>
<text text-anchor="start" x="916.5" y="-404" font-family="Helvetica,sans-Serif" font-size="10.00">+ GetRecordManager()</text>
<text text-anchor="start" x="916.5" y="-393" font-family="Helvetica,sans-Serif" font-size="10.00">+ GetComponentManager()</text>
<text text-anchor="start" x="916.5" y="-382" font-family="Helvetica,sans-Serif" font-size="10.00">+ GetPropertyInt()</text>
<text text-anchor="start" x="916.5" y="-371" font-family="Helvetica,sans-Serif" font-size="10.00">+ GetPropertyFloat()</text>
<text text-anchor="start" x="916.5" y="-360" font-family="Helvetica,sans-Serif" font-size="10.00">+ GetPropertyString()</text>
</a>
</g>
</g>
<!-- Node5&#45;&gt;Node15 -->
<g id="edge18" class="edge"><title>Node5&#45;&gt;Node15</title>
<path fill="none" stroke="midnightblue" d="M704.096,-733.624C762.203,-711.738 845.901,-672.578 899.5,-614 923.711,-587.54 940.99,-552.18 952.889,-520.059"/>
<polygon fill="none" stroke="midnightblue" points="702.806,-730.37 694.64,-737.119 705.233,-736.936 702.806,-730.37"/>
</g>
<!-- Node16 -->
<g id="node14" class="node"><title>Node16</title>
<g id="a_node14"><a xlink:href="class_n_f_i_log_module.html" target="_top" xlink:title="{NFILogModule\n||+ LogDebug()\l+ LogInfo()\l+ LogWarning()\l+ LogError()\l+ LogFatal()\l+ LogDebug()\l+ LogInfo()\l+ LogWarning()\l+ LogError()\l+ LogFatal()\land 8 more...\l}">
<polygon fill="white" stroke="black" points="1238,-353 1238,-520 1321,-520 1321,-353 1238,-353"/>
<text text-anchor="middle" x="1279.5" y="-508" font-family="Helvetica,sans-Serif" font-size="10.00">NFILogModule</text>
<polyline fill="none" stroke="black" points="1238,-501 1321,-501 "/>
<text text-anchor="middle" x="1279.5" y="-489" font-family="Helvetica,sans-Serif" font-size="10.00"> </text>
<polyline fill="none" stroke="black" points="1238,-482 1321,-482 "/>
<text text-anchor="start" x="1246" y="-470" font-family="Helvetica,sans-Serif" font-size="10.00">+ LogDebug()</text>
<text text-anchor="start" x="1246" y="-459" font-family="Helvetica,sans-Serif" font-size="10.00">+ LogInfo()</text>
<text text-anchor="start" x="1246" y="-448" font-family="Helvetica,sans-Serif" font-size="10.00">+ LogWarning()</text>
<text text-anchor="start" x="1246" y="-437" font-family="Helvetica,sans-Serif" font-size="10.00">+ LogError()</text>
<text text-anchor="start" x="1246" y="-426" font-family="Helvetica,sans-Serif" font-size="10.00">+ LogFatal()</text>
<text text-anchor="start" x="1246" y="-415" font-family="Helvetica,sans-Serif" font-size="10.00">+ LogDebug()</text>
<text text-anchor="start" x="1246" y="-404" font-family="Helvetica,sans-Serif" font-size="10.00">+ LogInfo()</text>
<text text-anchor="start" x="1246" y="-393" font-family="Helvetica,sans-Serif" font-size="10.00">+ LogWarning()</text>
<text text-anchor="start" x="1246" y="-382" font-family="Helvetica,sans-Serif" font-size="10.00">+ LogError()</text>
<text text-anchor="start" x="1246" y="-371" font-family="Helvetica,sans-Serif" font-size="10.00">+ LogFatal()</text>
<text text-anchor="start" x="1246" y="-360" font-family="Helvetica,sans-Serif" font-size="10.00">and 8 more...</text>
</a>
</g>
</g>
<!-- Node5&#45;&gt;Node16 -->
<g id="edge20" class="edge"><title>Node5&#45;&gt;Node16</title>
<path fill="none" stroke="midnightblue" d="M704.737,-741.037C854.817,-709.149 1209.31,-632.313 1228.5,-614 1254,-589.667 1266.99,-553.456 1273.51,-520.154"/>
<polygon fill="none" stroke="midnightblue" points="703.777,-737.663 694.722,-743.163 705.231,-744.51 703.777,-737.663"/>
</g>
<!-- Node6&#45;&gt;Node5 -->
<g id="edge3" class="edge"><title>Node6&#45;&gt;Node5</title>
<path fill="none" stroke="#404040" d="M313.421,-531.161C322.827,-561.26 337.771,-592.374 361.5,-614 384.924,-635.348 401.243,-619.816 430.5,-632 480.378,-652.772 532.714,-683.774 572.41,-709.456"/>
<polygon fill="none" stroke="#404040" points="572.432,-709.47 579.643,-709.402 582.48,-716.032 575.269,-716.1 572.432,-709.47"/>
<text text-anchor="middle" x="494" y="-635" font-family="Helvetica,sans-Serif" font-size="10.00"> #pPluginManager</text>
</g>
<!-- Node7&#45;&gt;Node3 -->
<g id="edge5" class="edge"><title>Node7&#45;&gt;Node3</title>
<path fill="none" stroke="#404040" d="M224.004,-266.9C226.734,-264.147 229.565,-261.508 232.5,-259 370.933,-140.705 589.967,-110.452 716.141,-103.211"/>
<polygon fill="none" stroke="#404040" points="716.447,-103.195 722.228,-98.8844 728.431,-102.562 722.65,-106.873 716.447,-103.195"/>
<text text-anchor="middle" x="333" y="-227.5" font-family="Helvetica,sans-Serif" font-size="10.00"> &#45;m_pNetClientModule</text>
</g>
<!-- Node8 -->
<g id="node6" class="node"><title>Node8</title>
<g id="a_node6"><a xlink:href="class_n_f_map_ex.html" target="_top" xlink:title="{NFMapEx\&lt; int, ConnectData \&gt;\n|&#45; mObjectList\l&#45; mObjectCurIter\l|+ NFMapEx()\l+ ~NFMapEx()\l+ AddElement()\l+ SetElement()\l+ RemoveElement()\l+ GetElementNude()\l+ GetElement()\l+ FirstNude()\l+ FirstNude()\l+ NextNude()\land 7 more...\l}">
<polygon fill="white" stroke="black" points="0,-667 0,-845 151,-845 151,-667 0,-667"/>
<text text-anchor="middle" x="75.5" y="-833" font-family="Helvetica,sans-Serif" font-size="10.00">NFMapEx&lt; int, ConnectData &gt;</text>
<polyline fill="none" stroke="black" points="0,-826 151,-826 "/>
<text text-anchor="start" x="8" y="-814" font-family="Helvetica,sans-Serif" font-size="10.00">&#45; mObjectList</text>
<text text-anchor="start" x="8" y="-803" font-family="Helvetica,sans-Serif" font-size="10.00">&#45; mObjectCurIter</text>
<polyline fill="none" stroke="black" points="0,-796 151,-796 "/>
<text text-anchor="start" x="8" y="-784" font-family="Helvetica,sans-Serif" font-size="10.00">+ NFMapEx()</text>
<text text-anchor="start" x="8" y="-773" font-family="Helvetica,sans-Serif" font-size="10.00">+ ~NFMapEx()</text>
<text text-anchor="start" x="8" y="-762" font-family="Helvetica,sans-Serif" font-size="10.00">+ AddElement()</text>
<text text-anchor="start" x="8" y="-751" font-family="Helvetica,sans-Serif" font-size="10.00">+ SetElement()</text>
<text text-anchor="start" x="8" y="-740" font-family="Helvetica,sans-Serif" font-size="10.00">+ RemoveElement()</text>
<text text-anchor="start" x="8" y="-729" font-family="Helvetica,sans-Serif" font-size="10.00">+ GetElementNude()</text>
<text text-anchor="start" x="8" y="-718" font-family="Helvetica,sans-Serif" font-size="10.00">+ GetElement()</text>
<text text-anchor="start" x="8" y="-707" font-family="Helvetica,sans-Serif" font-size="10.00">+ FirstNude()</text>
<text text-anchor="start" x="8" y="-696" font-family="Helvetica,sans-Serif" font-size="10.00">+ FirstNude()</text>
<text text-anchor="start" x="8" y="-685" font-family="Helvetica,sans-Serif" font-size="10.00">+ NextNude()</text>
<text text-anchor="start" x="8" y="-674" font-family="Helvetica,sans-Serif" font-size="10.00">and 7 more...</text>
</a>
</g>
</g>
<!-- Node8&#45;&gt;Node7 -->
<g id="edge7" class="edge"><title>Node8&#45;&gt;Node7</title>
<path fill="none" stroke="#404040" d="M97.1238,-666.98C100.347,-653.861 103.769,-639.932 107.271,-625.675"/>
<polygon fill="none" stroke="#404040" points="107.367,-625.286 104.914,-618.505 110.23,-613.633 112.683,-620.414 107.367,-625.286"/>
<text text-anchor="middle" x="138.5" y="-635" font-family="Helvetica,sans-Serif" font-size="10.00"> &#45;mxServerMap</text>
</g>
<!-- Node9 -->
<g id="node7" class="node"><title>Node9</title>
<g id="a_node7"><a xlink:href="class_n_f_c_consistent_hash.html" target="_top" xlink:title="A nfc consistent hash. ">
<polygon fill="white" stroke="black" points="169.5,-667 169.5,-845 295.5,-845 295.5,-667 169.5,-667"/>
<text text-anchor="middle" x="232.5" y="-833" font-family="Helvetica,sans-Serif" font-size="10.00">NFCConsistentHash</text>
<polyline fill="none" stroke="black" points="169.5,-826 295.5,-826 "/>
<text text-anchor="start" x="177.5" y="-814" font-family="Helvetica,sans-Serif" font-size="10.00">&#45; mxNodes</text>
<polyline fill="none" stroke="black" points="169.5,-807 295.5,-807 "/>
<text text-anchor="start" x="177.5" y="-795" font-family="Helvetica,sans-Serif" font-size="10.00">+ NFCConsistentHash()</text>
<text text-anchor="start" x="177.5" y="-784" font-family="Helvetica,sans-Serif" font-size="10.00">+ ~NFCConsistentHash()</text>
<text text-anchor="start" x="177.5" y="-773" font-family="Helvetica,sans-Serif" font-size="10.00">+ Size()</text>
<text text-anchor="start" x="177.5" y="-762" font-family="Helvetica,sans-Serif" font-size="10.00">+ Empty()</text>
<text text-anchor="start" x="177.5" y="-751" font-family="Helvetica,sans-Serif" font-size="10.00">+ Insert()</text>
<text text-anchor="start" x="177.5" y="-740" font-family="Helvetica,sans-Serif" font-size="10.00">+ Insert()</text>
<text text-anchor="start" x="177.5" y="-729" font-family="Helvetica,sans-Serif" font-size="10.00">+ Exist()</text>
<text text-anchor="start" x="177.5" y="-718" font-family="Helvetica,sans-Serif" font-size="10.00">+ Erase()</text>
<text text-anchor="start" x="177.5" y="-707" font-family="Helvetica,sans-Serif" font-size="10.00">+ GetSuitNode()</text>
<text text-anchor="start" x="177.5" y="-696" font-family="Helvetica,sans-Serif" font-size="10.00">+ GetSuitNode()</text>
<text text-anchor="start" x="177.5" y="-685" font-family="Helvetica,sans-Serif" font-size="10.00">+ GetSuitNode()</text>
<text text-anchor="start" x="177.5" y="-674" font-family="Helvetica,sans-Serif" font-size="10.00">+ GetNodeList()</text>
</a>
</g>
</g>
<!-- Node9&#45;&gt;Node7 -->
<g id="edge8" class="edge"><title>Node9&#45;&gt;Node7</title>
<path fill="none" stroke="#404040" d="M210.599,-666.98C207.335,-653.861 203.869,-639.932 200.322,-625.675"/>
<polygon fill="none" stroke="#404040" points="200.223,-625.278 194.892,-620.421 197.325,-613.633 202.656,-618.49 200.223,-625.278"/>
<text text-anchor="middle" x="247" y="-635" font-family="Helvetica,sans-Serif" font-size="10.00"> &#45;mxConsistentHash</text>
</g>
<!-- Node10 -->
<g id="node8" class="node"><title>Node10</title>
<g id="a_node8"><a xlink:href="class_n_f_i_hasher.html" target="_top" xlink:title="A nfi hasher. ">
<polygon fill="white" stroke="black" points="185,-898.5 185,-955.5 280,-955.5 280,-898.5 185,-898.5"/>
<text text-anchor="middle" x="232.5" y="-943.5" font-family="Helvetica,sans-Serif" font-size="10.00">NFIHasher</text>
<polyline fill="none" stroke="black" points="185,-936.5 280,-936.5 "/>
<text text-anchor="middle" x="232.5" y="-924.5" font-family="Helvetica,sans-Serif" font-size="10.00"> </text>
<polyline fill="none" stroke="black" points="185,-917.5 280,-917.5 "/>
<text text-anchor="start" x="193" y="-905.5" font-family="Helvetica,sans-Serif" font-size="10.00">+ GetHashValue()</text>
</a>
</g>
</g>
<!-- Node10&#45;&gt;Node9 -->
<g id="edge9" class="edge"><title>Node10&#45;&gt;Node9</title>
<path fill="none" stroke="#404040" d="M232.5,-898.471C232.5,-886.81 232.5,-872.44 232.5,-857.372"/>
<polygon fill="none" stroke="#404040" points="232.5,-857.176 228.5,-851.176 232.5,-845.176 236.5,-851.176 232.5,-857.176"/>
<text text-anchor="middle" x="260.5" y="-872" font-family="Helvetica,sans-Serif" font-size="10.00"> &#45;m_pHasher</text>
</g>
<!-- Node11&#45;&gt;Node3 -->
<g id="edge10" class="edge"><title>Node11&#45;&gt;Node3</title>
<path fill="none" stroke="#404040" d="M506.531,-325.364C518.865,-302.723 532.761,-279.544 547.5,-259 589.132,-200.974 659.343,-160.786 717.32,-135.533"/>
<polygon fill="none" stroke="#404040" points="717.323,-135.532 721.279,-129.503 728.366,-130.836 724.41,-136.865 717.323,-135.532"/>
<text text-anchor="middle" x="624" y="-227.5" font-family="Helvetica,sans-Serif" font-size="10.00"> &#45;m_pKernelModule</text>
</g>
<!-- Node12&#45;&gt;Node3 -->
<g id="edge12" class="edge"><title>Node12&#45;&gt;Node3</title>
<path fill="none" stroke="#404040" d="M643.182,-358.45C648.585,-315.111 660.093,-261.37 684.5,-219 693.78,-202.89 706.038,-187.775 719.323,-174.099"/>
<polygon fill="none" stroke="#404040" points="719.656,-173.769 721.103,-166.704 728.181,-165.323 726.734,-172.387 719.656,-173.769"/>
<text text-anchor="start" x="684.5" y="-233" font-family="Helvetica,sans-Serif" font-size="10.00"> &#45;m_pGameServerNet_Server</text>
<text text-anchor="middle" x="747.5" y="-222" font-family="Helvetica,sans-Serif" font-size="10.00">Module</text>
</g>
<!-- Node13&#45;&gt;Node3 -->
<g id="edge14" class="edge"><title>Node13&#45;&gt;Node3</title>
<path fill="none" stroke="#404040" d="M1111.91,-358.082C1097.23,-325.13 1077.01,-287.753 1051.5,-259 1012.26,-214.764 957.899,-177.462 911.14,-150.28"/>
<polygon fill="none" stroke="#404040" points="911.085,-150.249 903.891,-150.74 900.671,-144.288 907.865,-143.797 911.085,-150.249"/>
<text text-anchor="middle" x="1071.5" y="-227.5" font-family="Helvetica,sans-Serif" font-size="10.00"> &#45;m_pClassModule</text>
</g>
<!-- Node14 -->
<g id="node12" class="node"><title>Node14</title>
<g id="a_node12"><a xlink:href="class_n_f_map_ex.html" target="_top" xlink:title="{NFMapEx\&lt; std::string,\l NFIClass \&gt;\n|&#45; mObjectList\l&#45; mObjectCurIter\l|+ NFMapEx()\l+ ~NFMapEx()\l+ AddElement()\l+ SetElement()\l+ RemoveElement()\l+ GetElementNude()\l+ GetElement()\l+ FirstNude()\l+ FirstNude()\l+ NextNude()\land 7 more...\l}">
<polygon fill="white" stroke="black" points="1082.5,-661.5 1082.5,-850.5 1198.5,-850.5 1198.5,-661.5 1082.5,-661.5"/>
<text text-anchor="start" x="1090.5" y="-838.5" font-family="Helvetica,sans-Serif" font-size="10.00">NFMapEx&lt; std::string,</text>
<text text-anchor="middle" x="1140.5" y="-827.5" font-family="Helvetica,sans-Serif" font-size="10.00"> NFIClass &gt;</text>
<polyline fill="none" stroke="black" points="1082.5,-820.5 1198.5,-820.5 "/>
<text text-anchor="start" x="1090.5" y="-808.5" font-family="Helvetica,sans-Serif" font-size="10.00">&#45; mObjectList</text>
<text text-anchor="start" x="1090.5" y="-797.5" font-family="Helvetica,sans-Serif" font-size="10.00">&#45; mObjectCurIter</text>
<polyline fill="none" stroke="black" points="1082.5,-790.5 1198.5,-790.5 "/>
<text text-anchor="start" x="1090.5" y="-778.5" font-family="Helvetica,sans-Serif" font-size="10.00">+ NFMapEx()</text>
<text text-anchor="start" x="1090.5" y="-767.5" font-family="Helvetica,sans-Serif" font-size="10.00">+ ~NFMapEx()</text>
<text text-anchor="start" x="1090.5" y="-756.5" font-family="Helvetica,sans-Serif" font-size="10.00">+ AddElement()</text>
<text text-anchor="start" x="1090.5" y="-745.5" font-family="Helvetica,sans-Serif" font-size="10.00">+ SetElement()</text>
<text text-anchor="start" x="1090.5" y="-734.5" font-family="Helvetica,sans-Serif" font-size="10.00">+ RemoveElement()</text>
<text text-anchor="start" x="1090.5" y="-723.5" font-family="Helvetica,sans-Serif" font-size="10.00">+ GetElementNude()</text>
<text text-anchor="start" x="1090.5" y="-712.5" font-family="Helvetica,sans-Serif" font-size="10.00">+ GetElement()</text>
<text text-anchor="start" x="1090.5" y="-701.5" font-family="Helvetica,sans-Serif" font-size="10.00">+ FirstNude()</text>
<text text-anchor="start" x="1090.5" y="-690.5" font-family="Helvetica,sans-Serif" font-size="10.00">+ FirstNude()</text>
<text text-anchor="start" x="1090.5" y="-679.5" font-family="Helvetica,sans-Serif" font-size="10.00">+ NextNude()</text>
<text text-anchor="start" x="1090.5" y="-668.5" font-family="Helvetica,sans-Serif" font-size="10.00">and 7 more...</text>
</a>
</g>
</g>
<!-- Node14&#45;&gt;Node13 -->
<g id="edge16" class="edge"><title>Node14&#45;&gt;Node13</title>
<path fill="none" stroke="midnightblue" d="M1140.5,-651.189C1140.5,-606.708 1140.5,-555.662 1140.5,-514.617"/>
<polygon fill="none" stroke="midnightblue" points="1137,-651.457 1140.5,-661.457 1144,-651.457 1137,-651.457"/>
</g>
<!-- Node15&#45;&gt;Node3 -->
<g id="edge17" class="edge"><title>Node15&#45;&gt;Node3</title>
<path fill="none" stroke="#404040" d="M941.61,-352.654C928.958,-322.866 914.106,-289.18 899.5,-259 892.021,-243.547 883.812,-227.429 875.535,-211.651"/>
<polygon fill="none" stroke="#404040" points="875.406,-211.407 869.067,-207.969 869.802,-200.795 876.141,-204.233 875.406,-211.407"/>
<text text-anchor="middle" x="936" y="-227.5" font-family="Helvetica,sans-Serif" font-size="10.00"> &#45;m_pElementModule</text>
</g>
<!-- Node16&#45;&gt;Node3 -->
<g id="edge19" class="edge"><title>Node16&#45;&gt;Node3</title>
<path fill="none" stroke="#404040" d="M1271.57,-352.592C1264.68,-320.039 1251.94,-284.456 1228.5,-259 1145.9,-169.314 1006.81,-130.306 912.893,-113.604"/>
<polygon fill="none" stroke="#404040" points="912.638,-113.561 906.049,-116.49 900.811,-111.534 907.4,-108.605 912.638,-113.561"/>
<text text-anchor="middle" x="1240" y="-227.5" font-family="Helvetica,sans-Serif" font-size="10.00"> &#45;m_pLogModule</text>
</g>
</g>
</svg>
