<?xml version="1.0" encoding="UTF-8" standalone="no"?>
<!DOCTYPE svg PUBLIC "-//W3C//DTD SVG 1.1//EN"
 "http://www.w3.org/Graphics/SVG/1.1/DTD/svg11.dtd">
<!-- Generated by graphviz version 2.38.0 (20140413.2041)
 -->
<!-- Title: NFCSceneModule Pages: 1 -->
<svg width="296pt" height="463pt"
 viewBox="0.00 0.00 295.50 463.00" xmlns="http://www.w3.org/2000/svg" xmlns:xlink="http://www.w3.org/1999/xlink">
<g id="graph0" class="graph" transform="scale(1 1) rotate(0) translate(4 459)">
<title>NFCSceneModule</title>
<polygon fill="white" stroke="none" points="-4,4 -4,-459 291.5,-459 291.5,4 -4,4"/>
<!-- Node0 -->
<g id="node1" class="node"><title>Node0</title>
<polygon fill="#bfbfbf" stroke="black" points="74,-0.5 74,-123.5 190,-123.5 190,-0.5 74,-0.5"/>
<text text-anchor="middle" x="132" y="-111.5" font-family="Helvetica,sans-Serif" font-size="10.00">NFCSceneModule</text>
<polyline fill="none" stroke="black" points="74,-104.5 190,-104.5 "/>
<text text-anchor="middle" x="132" y="-92.5" font-family="Helvetica,sans-Serif" font-size="10.00"> </text>
<polyline fill="none" stroke="black" points="74,-85.5 190,-85.5 "/>
<text text-anchor="start" x="82" y="-73.5" font-family="Helvetica,sans-Serif" font-size="10.00">+ NFCSceneModule()</text>
<text text-anchor="start" x="82" y="-62.5" font-family="Helvetica,sans-Serif" font-size="10.00">+ ~NFCSceneModule()</text>
<text text-anchor="start" x="82" y="-51.5" font-family="Helvetica,sans-Serif" font-size="10.00">+ Init()</text>
<text text-anchor="start" x="82" y="-40.5" font-family="Helvetica,sans-Serif" font-size="10.00">+ AfterInit()</text>
<text text-anchor="start" x="82" y="-29.5" font-family="Helvetica,sans-Serif" font-size="10.00">+ BeforeShut()</text>
<text text-anchor="start" x="82" y="-18.5" font-family="Helvetica,sans-Serif" font-size="10.00">+ Shut()</text>
<text text-anchor="start" x="82" y="-7.5" font-family="Helvetica,sans-Serif" font-size="10.00">+ Execute()</text>
</g>
<!-- Node1 -->
<g id="node2" class="node"><title>Node1</title>
<g id="a_node2"><a xlink:href="class_n_f_i_scene_module.html" target="_top" xlink:title="{NFISceneModule\n||+ ~NFISceneModule()\l}">
<polygon fill="white" stroke="black" points="76,-160.5 76,-217.5 188,-217.5 188,-160.5 76,-160.5"/>
<text text-anchor="middle" x="132" y="-205.5" font-family="Helvetica,sans-Serif" font-size="10.00">NFISceneModule</text>
<polyline fill="none" stroke="black" points="76,-198.5 188,-198.5 "/>
<text text-anchor="middle" x="132" y="-186.5" font-family="Helvetica,sans-Serif" font-size="10.00"> </text>
<polyline fill="none" stroke="black" points="76,-179.5 188,-179.5 "/>
<text text-anchor="start" x="84" y="-167.5" font-family="Helvetica,sans-Serif" font-size="10.00">+ ~NFISceneModule()</text>
</a>
</g>
</g>
<!-- Node1&#45;&gt;Node0 -->
<g id="edge1" class="edge"><title>Node1&#45;&gt;Node0</title>
<path fill="none" stroke="midnightblue" d="M132,-150.099C132,-141.739 132,-132.68 132,-123.672"/>
<polygon fill="none" stroke="midnightblue" points="128.5,-150.258 132,-160.258 135.5,-150.258 128.5,-150.258"/>
</g>
<!-- Node2 -->
<g id="node3" class="node"><title>Node2</title>
<g id="a_node3"><a xlink:href="class_n_f_i_module.html" target="_top" xlink:title="{NFIModule\n|+ strName\l# pPluginManager\l# mbReloading\l|+ NFIModule()\l+ ~NFIModule()\l+ Init()\l+ AfterInit()\l+ CheckConfig()\l+ BeforeShut()\l+ Shut()\l+ Execute()\l+ StartReLoadState()\l+ EndReLoadState()\l+ GetPluginManager()\l+ Loading()\l}">
<polygon fill="white" stroke="black" points="0,-254.5 0,-454.5 112,-454.5 112,-254.5 0,-254.5"/>
<text text-anchor="middle" x="56" y="-442.5" font-family="Helvetica,sans-Serif" font-size="10.00">NFIModule</text>
<polyline fill="none" stroke="black" points="0,-435.5 112,-435.5 "/>
<text text-anchor="start" x="8" y="-423.5" font-family="Helvetica,sans-Serif" font-size="10.00">+ strName</text>
<text text-anchor="start" x="8" y="-412.5" font-family="Helvetica,sans-Serif" font-size="10.00"># pPluginManager</text>
<text text-anchor="start" x="8" y="-401.5" font-family="Helvetica,sans-Serif" font-size="10.00"># mbReloading</text>
<polyline fill="none" stroke="black" points="0,-394.5 112,-394.5 "/>
<text text-anchor="start" x="8" y="-382.5" font-family="Helvetica,sans-Serif" font-size="10.00">+ NFIModule()</text>
<text text-anchor="start" x="8" y="-371.5" font-family="Helvetica,sans-Serif" font-size="10.00">+ ~NFIModule()</text>
<text text-anchor="start" x="8" y="-360.5" font-family="Helvetica,sans-Serif" font-size="10.00">+ Init()</text>
<text text-anchor="start" x="8" y="-349.5" font-family="Helvetica,sans-Serif" font-size="10.00">+ AfterInit()</text>
<text text-anchor="start" x="8" y="-338.5" font-family="Helvetica,sans-Serif" font-size="10.00">+ CheckConfig()</text>
<text text-anchor="start" x="8" y="-327.5" font-family="Helvetica,sans-Serif" font-size="10.00">+ BeforeShut()</text>
<text text-anchor="start" x="8" y="-316.5" font-family="Helvetica,sans-Serif" font-size="10.00">+ Shut()</text>
<text text-anchor="start" x="8" y="-305.5" font-family="Helvetica,sans-Serif" font-size="10.00">+ Execute()</text>
<text text-anchor="start" x="8" y="-294.5" font-family="Helvetica,sans-Serif" font-size="10.00">+ StartReLoadState()</text>
<text text-anchor="start" x="8" y="-283.5" font-family="Helvetica,sans-Serif" font-size="10.00">+ EndReLoadState()</text>
<text text-anchor="start" x="8" y="-272.5" font-family="Helvetica,sans-Serif" font-size="10.00">+ GetPluginManager()</text>
<text text-anchor="start" x="8" y="-261.5" font-family="Helvetica,sans-Serif" font-size="10.00">+ Loading()</text>
</a>
</g>
</g>
<!-- Node2&#45;&gt;Node1 -->
<g id="edge2" class="edge"><title>Node2&#45;&gt;Node1</title>
<path fill="none" stroke="midnightblue" d="M106.492,-244.875C111.112,-234.937 115.454,-225.595 119.202,-217.533"/>
<polygon fill="none" stroke="midnightblue" points="103.222,-243.607 102.181,-254.15 109.57,-246.557 103.222,-243.607"/>
</g>
<!-- Node3 -->
<g id="node4" class="node"><title>Node3</title>
<g id="a_node4"><a xlink:href="class_n_f_map_ex.html" target="_top" xlink:title="{NFMapEx\&lt; int, NFCSceneInfo \&gt;\n|&#45; mObjectList\l&#45; mObjectCurIter\l|+ NFMapEx()\l+ ~NFMapEx()\l+ AddElement()\l+ SetElement()\l+ RemoveElement()\l+ GetElementNude()\l+ GetElement()\l+ FirstNude()\l+ FirstNude()\l+ NextNude()\land 7 more...\l}">
<polygon fill="white" stroke="black" points="130.5,-265.5 130.5,-443.5 287.5,-443.5 287.5,-265.5 130.5,-265.5"/>
<text text-anchor="middle" x="209" y="-431.5" font-family="Helvetica,sans-Serif" font-size="10.00">NFMapEx&lt; int, NFCSceneInfo &gt;</text>
<polyline fill="none" stroke="black" points="130.5,-424.5 287.5,-424.5 "/>
<text text-anchor="start" x="138.5" y="-412.5" font-family="Helvetica,sans-Serif" font-size="10.00">&#45; mObjectList</text>
<text text-anchor="start" x="138.5" y="-401.5" font-family="Helvetica,sans-Serif" font-size="10.00">&#45; mObjectCurIter</text>
<polyline fill="none" stroke="black" points="130.5,-394.5 287.5,-394.5 "/>
<text text-anchor="start" x="138.5" y="-382.5" font-family="Helvetica,sans-Serif" font-size="10.00">+ NFMapEx()</text>
<text text-anchor="start" x="138.5" y="-371.5" font-family="Helvetica,sans-Serif" font-size="10.00">+ ~NFMapEx()</text>
<text text-anchor="start" x="138.5" y="-360.5" font-family="Helvetica,sans-Serif" font-size="10.00">+ AddElement()</text>
<text text-anchor="start" x="138.5" y="-349.5" font-family="Helvetica,sans-Serif" font-size="10.00">+ SetElement()</text>
<text text-anchor="start" x="138.5" y="-338.5" font-family="Helvetica,sans-Serif" font-size="10.00">+ RemoveElement()</text>
<text text-anchor="start" x="138.5" y="-327.5" font-family="Helvetica,sans-Serif" font-size="10.00">+ GetElementNude()</text>
<text text-anchor="start" x="138.5" y="-316.5" font-family="Helvetica,sans-Serif" font-size="10.00">+ GetElement()</text>
<text text-anchor="start" x="138.5" y="-305.5" font-family="Helvetica,sans-Serif" font-size="10.00">+ FirstNude()</text>
<text text-anchor="start" x="138.5" y="-294.5" font-family="Helvetica,sans-Serif" font-size="10.00">+ FirstNude()</text>
<text text-anchor="start" x="138.5" y="-283.5" font-family="Helvetica,sans-Serif" font-size="10.00">+ NextNude()</text>
<text text-anchor="start" x="138.5" y="-272.5" font-family="Helvetica,sans-Serif" font-size="10.00">and 7 more...</text>
</a>
</g>
</g>
<!-- Node3&#45;&gt;Node1 -->
<g id="edge3" class="edge"><title>Node3&#45;&gt;Node1</title>
<path fill="none" stroke="midnightblue" d="M163.016,-255.859C156.482,-241.984 150.246,-228.744 145.103,-217.822"/>
<polygon fill="none" stroke="midnightblue" points="159.918,-257.495 167.345,-265.051 166.251,-254.512 159.918,-257.495"/>
</g>
</g>
</svg>
