<?xml version="1.0" encoding="UTF-8" standalone="no"?>
<!DOCTYPE svg PUBLIC "-//W3C//DTD SVG 1.1//EN"
 "http://www.w3.org/Graphics/SVG/1.1/DTD/svg11.dtd">
<!-- Generated by graphviz version 2.38.0 (20140413.2041)
 -->
<!-- Title: NFCPluginManager Pages: 1 -->
<svg width="285pt" height="727pt"
 viewBox="0.00 0.00 285.00 727.00" xmlns="http://www.w3.org/2000/svg" xmlns:xlink="http://www.w3.org/1999/xlink">
<g id="graph0" class="graph" transform="scale(1 1) rotate(0) translate(4 723)">
<title>NFCPluginManager</title>
<polygon fill="white" stroke="none" points="-4,4 -4,-723 281,-723 281,4 -4,4"/>
<!-- Node4 -->
<g id="node1" class="node"><title>Node4</title>
<polygon fill="#bfbfbf" stroke="black" points="25,-171.5 25,-481.5 147,-481.5 147,-171.5 25,-171.5"/>
<text text-anchor="middle" x="86" y="-469.5" font-family="Helvetica,sans-Serif" font-size="10.00">NFCPluginManager</text>
<polyline fill="none" stroke="black" points="25,-462.5 147,-462.5 "/>
<text text-anchor="start" x="33" y="-450.5" font-family="Helvetica,sans-Serif" font-size="10.00">&#45; mnAppID</text>
<text text-anchor="start" x="33" y="-439.5" font-family="Helvetica,sans-Serif" font-size="10.00">&#45; mnInitTime</text>
<text text-anchor="start" x="33" y="-428.5" font-family="Helvetica,sans-Serif" font-size="10.00">&#45; mnNowTime</text>
<text text-anchor="start" x="33" y="-417.5" font-family="Helvetica,sans-Serif" font-size="10.00">&#45; mstrConfigPath</text>
<text text-anchor="start" x="33" y="-406.5" font-family="Helvetica,sans-Serif" font-size="10.00">&#45; mstrConfigName</text>
<text text-anchor="start" x="33" y="-395.5" font-family="Helvetica,sans-Serif" font-size="10.00">&#45; mPluginNameMap</text>
<text text-anchor="start" x="33" y="-384.5" font-family="Helvetica,sans-Serif" font-size="10.00">&#45; mPluginLibMap</text>
<text text-anchor="start" x="33" y="-373.5" font-family="Helvetica,sans-Serif" font-size="10.00">&#45; mPluginInstanceMap</text>
<text text-anchor="start" x="33" y="-362.5" font-family="Helvetica,sans-Serif" font-size="10.00">&#45; mModuleInstanceMap</text>
<polyline fill="none" stroke="black" points="25,-355.5 147,-355.5 "/>
<text text-anchor="start" x="33" y="-343.5" font-family="Helvetica,sans-Serif" font-size="10.00">+ NFCPluginManager()</text>
<text text-anchor="start" x="33" y="-332.5" font-family="Helvetica,sans-Serif" font-size="10.00">+ ~NFCPluginManager()</text>
<text text-anchor="start" x="33" y="-321.5" font-family="Helvetica,sans-Serif" font-size="10.00">+ Init()</text>
<text text-anchor="start" x="33" y="-310.5" font-family="Helvetica,sans-Serif" font-size="10.00">+ AfterInit()</text>
<text text-anchor="start" x="33" y="-299.5" font-family="Helvetica,sans-Serif" font-size="10.00">+ CheckConfig()</text>
<text text-anchor="start" x="33" y="-288.5" font-family="Helvetica,sans-Serif" font-size="10.00">+ BeforeShut()</text>
<text text-anchor="start" x="33" y="-277.5" font-family="Helvetica,sans-Serif" font-size="10.00">+ Shut()</text>
<text text-anchor="start" x="33" y="-266.5" font-family="Helvetica,sans-Serif" font-size="10.00">+ Registered()</text>
<text text-anchor="start" x="33" y="-255.5" font-family="Helvetica,sans-Serif" font-size="10.00">+ UnRegistered()</text>
<text text-anchor="start" x="33" y="-244.5" font-family="Helvetica,sans-Serif" font-size="10.00">+ StartReLoadState()</text>
<text text-anchor="start" x="33" y="-233.5" font-family="Helvetica,sans-Serif" font-size="10.00">and 11 more...</text>
<text text-anchor="start" x="33" y="-222.5" font-family="Helvetica,sans-Serif" font-size="10.00"># LoadPluginConfig()</text>
<text text-anchor="start" x="33" y="-211.5" font-family="Helvetica,sans-Serif" font-size="10.00"># LoadStaticPlugin()</text>
<text text-anchor="start" x="33" y="-200.5" font-family="Helvetica,sans-Serif" font-size="10.00"># LoadPluginLibrary()</text>
<text text-anchor="start" x="33" y="-189.5" font-family="Helvetica,sans-Serif" font-size="10.00"># UnLoadPluginLibrary()</text>
<text text-anchor="start" x="33" y="-178.5" font-family="Helvetica,sans-Serif" font-size="10.00"># UnLoadStaticPlugin()</text>
</g>
<!-- Node7 -->
<g id="node4" class="node"><title>Node7</title>
<g id="a_node4"><a xlink:href="class_n_f_singleton.html" target="_top" xlink:title="{NFSingleton\&lt; NFCPluginManager \&gt;\n||+ NFSingleton()\l+ ~NFSingleton()\l+ GetSingletonPtr()\l+ GetSingletonRef()\l+ Instance()\l+ InstanceRef()\l+ ReleaseInstance()\l}">
<polygon fill="white" stroke="black" points="0,-0.5 0,-123.5 172,-123.5 172,-0.5 0,-0.5"/>
<text text-anchor="middle" x="86" y="-111.5" font-family="Helvetica,sans-Serif" font-size="10.00">NFSingleton&lt; NFCPluginManager &gt;</text>
<polyline fill="none" stroke="black" points="0,-104.5 172,-104.5 "/>
<text text-anchor="middle" x="86" y="-92.5" font-family="Helvetica,sans-Serif" font-size="10.00"> </text>
<polyline fill="none" stroke="black" points="0,-85.5 172,-85.5 "/>
<text text-anchor="start" x="8" y="-73.5" font-family="Helvetica,sans-Serif" font-size="10.00">+ NFSingleton()</text>
<text text-anchor="start" x="8" y="-62.5" font-family="Helvetica,sans-Serif" font-size="10.00">+ ~NFSingleton()</text>
<text text-anchor="start" x="8" y="-51.5" font-family="Helvetica,sans-Serif" font-size="10.00">+ GetSingletonPtr()</text>
<text text-anchor="start" x="8" y="-40.5" font-family="Helvetica,sans-Serif" font-size="10.00">+ GetSingletonRef()</text>
<text text-anchor="start" x="8" y="-29.5" font-family="Helvetica,sans-Serif" font-size="10.00">+ Instance()</text>
<text text-anchor="start" x="8" y="-18.5" font-family="Helvetica,sans-Serif" font-size="10.00">+ InstanceRef()</text>
<text text-anchor="start" x="8" y="-7.5" font-family="Helvetica,sans-Serif" font-size="10.00">+ ReleaseInstance()</text>
</a>
</g>
</g>
<!-- Node4&#45;&gt;Node7 -->
<g id="edge5" class="edge"><title>Node4&#45;&gt;Node7</title>
<path fill="none" stroke="#404040" d="M41.1288,-171.213C41.4637,-161.318 42.6783,-151.514 45,-142 45.5633,-139.692 46.2067,-137.376 46.9188,-135.062"/>
<polygon fill="none" stroke="#404040" points="46.9909,-134.858 45.2231,-127.867 50.9964,-123.546 52.7643,-130.537 46.9909,-134.858"/>
<text text-anchor="middle" x="76" y="-145" font-family="Helvetica,sans-Serif" font-size="10.00"> &#45;m_pInstance</text>
</g>
<!-- Node5 -->
<g id="node2" class="node"><title>Node5</title>
<g id="a_node2"><a xlink:href="class_n_f_i_plugin_manager.html" target="_top" xlink:title="{NFIPluginManager\n||+ NFIPluginManager()\l+ FindModule()\l+ Registered()\l+ UnRegistered()\l+ FindPlugin()\l+ AddModule()\l+ RemoveModule()\l+ FindModule()\l+ AppID()\l+ GetInitTime()\l+ GetNowTime()\l+ GetConfigPath()\l+ SetConfigName()\l}">
<polygon fill="white" stroke="black" points="71.5,-529.5 71.5,-718.5 182.5,-718.5 182.5,-529.5 71.5,-529.5"/>
<text text-anchor="middle" x="127" y="-706.5" font-family="Helvetica,sans-Serif" font-size="10.00">NFIPluginManager</text>
<polyline fill="none" stroke="black" points="71.5,-699.5 182.5,-699.5 "/>
<text text-anchor="middle" x="127" y="-687.5" font-family="Helvetica,sans-Serif" font-size="10.00"> </text>
<polyline fill="none" stroke="black" points="71.5,-680.5 182.5,-680.5 "/>
<text text-anchor="start" x="79.5" y="-668.5" font-family="Helvetica,sans-Serif" font-size="10.00">+ NFIPluginManager()</text>
<text text-anchor="start" x="79.5" y="-657.5" font-family="Helvetica,sans-Serif" font-size="10.00">+ FindModule()</text>
<text text-anchor="start" x="79.5" y="-646.5" font-family="Helvetica,sans-Serif" font-size="10.00">+ Registered()</text>
<text text-anchor="start" x="79.5" y="-635.5" font-family="Helvetica,sans-Serif" font-size="10.00">+ UnRegistered()</text>
<text text-anchor="start" x="79.5" y="-624.5" font-family="Helvetica,sans-Serif" font-size="10.00">+ FindPlugin()</text>
<text text-anchor="start" x="79.5" y="-613.5" font-family="Helvetica,sans-Serif" font-size="10.00">+ AddModule()</text>
<text text-anchor="start" x="79.5" y="-602.5" font-family="Helvetica,sans-Serif" font-size="10.00">+ RemoveModule()</text>
<text text-anchor="start" x="79.5" y="-591.5" font-family="Helvetica,sans-Serif" font-size="10.00">+ FindModule()</text>
<text text-anchor="start" x="79.5" y="-580.5" font-family="Helvetica,sans-Serif" font-size="10.00">+ AppID()</text>
<text text-anchor="start" x="79.5" y="-569.5" font-family="Helvetica,sans-Serif" font-size="10.00">+ GetInitTime()</text>
<text text-anchor="start" x="79.5" y="-558.5" font-family="Helvetica,sans-Serif" font-size="10.00">+ GetNowTime()</text>
<text text-anchor="start" x="79.5" y="-547.5" font-family="Helvetica,sans-Serif" font-size="10.00">+ GetConfigPath()</text>
<text text-anchor="start" x="79.5" y="-536.5" font-family="Helvetica,sans-Serif" font-size="10.00">+ SetConfigName()</text>
</a>
</g>
</g>
<!-- Node5&#45;&gt;Node4 -->
<g id="edge1" class="edge"><title>Node5&#45;&gt;Node4</title>
<path fill="none" stroke="midnightblue" d="M106.274,-519.216C105.831,-516.451 105.405,-513.708 105,-511 103.578,-501.497 102.228,-491.702 100.953,-481.813"/>
<polygon fill="none" stroke="midnightblue" points="102.858,-520.011 107.945,-529.304 109.764,-518.867 102.858,-520.011"/>
</g>
<!-- Node6 -->
<g id="node3" class="node"><title>Node6</title>
<g id="a_node3"><a xlink:href="class_n_f_i_module.html" target="_top" xlink:title="{NFIModule\n|+ strName\l# mbReloading\l|+ NFIModule()\l+ ~NFIModule()\l+ Init()\l+ AfterInit()\l+ CheckConfig()\l+ BeforeShut()\l+ Shut()\l+ Execute()\l+ StartReLoadState()\l+ EndReLoadState()\l+ GetPluginManager()\l+ Loading()\l}">
<polygon fill="white" stroke="black" points="165,-232 165,-421 277,-421 277,-232 165,-232"/>
<text text-anchor="middle" x="221" y="-409" font-family="Helvetica,sans-Serif" font-size="10.00">NFIModule</text>
<polyline fill="none" stroke="black" points="165,-402 277,-402 "/>
<text text-anchor="start" x="173" y="-390" font-family="Helvetica,sans-Serif" font-size="10.00">+ strName</text>
<text text-anchor="start" x="173" y="-379" font-family="Helvetica,sans-Serif" font-size="10.00"># mbReloading</text>
<polyline fill="none" stroke="black" points="165,-372 277,-372 "/>
<text text-anchor="start" x="173" y="-360" font-family="Helvetica,sans-Serif" font-size="10.00">+ NFIModule()</text>
<text text-anchor="start" x="173" y="-349" font-family="Helvetica,sans-Serif" font-size="10.00">+ ~NFIModule()</text>
<text text-anchor="start" x="173" y="-338" font-family="Helvetica,sans-Serif" font-size="10.00">+ Init()</text>
<text text-anchor="start" x="173" y="-327" font-family="Helvetica,sans-Serif" font-size="10.00">+ AfterInit()</text>
<text text-anchor="start" x="173" y="-316" font-family="Helvetica,sans-Serif" font-size="10.00">+ CheckConfig()</text>
<text text-anchor="start" x="173" y="-305" font-family="Helvetica,sans-Serif" font-size="10.00">+ BeforeShut()</text>
<text text-anchor="start" x="173" y="-294" font-family="Helvetica,sans-Serif" font-size="10.00">+ Shut()</text>
<text text-anchor="start" x="173" y="-283" font-family="Helvetica,sans-Serif" font-size="10.00">+ Execute()</text>
<text text-anchor="start" x="173" y="-272" font-family="Helvetica,sans-Serif" font-size="10.00">+ StartReLoadState()</text>
<text text-anchor="start" x="173" y="-261" font-family="Helvetica,sans-Serif" font-size="10.00">+ EndReLoadState()</text>
<text text-anchor="start" x="173" y="-250" font-family="Helvetica,sans-Serif" font-size="10.00">+ GetPluginManager()</text>
<text text-anchor="start" x="173" y="-239" font-family="Helvetica,sans-Serif" font-size="10.00">+ Loading()</text>
</a>
</g>
</g>
<!-- Node5&#45;&gt;Node6 -->
<g id="edge3" class="edge"><title>Node5&#45;&gt;Node6</title>
<path fill="none" stroke="#404040" d="M113.974,-529.197C115.629,-518.912 118.77,-508.943 124,-500 132.238,-485.914 145.139,-494.178 156,-482 168.912,-467.522 179.508,-450.108 188.117,-432.268"/>
<polygon fill="none" stroke="#404040" points="188.223,-432.036 187.087,-424.915 193.224,-421.128 194.36,-428.249 188.223,-432.036"/>
<text text-anchor="middle" x="163.5" y="-503" font-family="Helvetica,sans-Serif" font-size="10.00"> #pPluginManager</text>
</g>
<!-- Node6&#45;&gt;Node5 -->
<g id="edge2" class="edge"><title>Node6&#45;&gt;Node5</title>
<path fill="none" stroke="midnightblue" d="M222.884,-431.152C220.74,-457.782 216.087,-485.967 207,-511 201.17,-527.06 192.357,-542.886 182.68,-557.355"/>
<polygon fill="none" stroke="midnightblue" points="226.386,-431.25 223.587,-421.032 219.403,-430.765 226.386,-431.25"/>
</g>
<!-- Node7&#45;&gt;Node4 -->
<g id="edge4" class="edge"><title>Node7&#45;&gt;Node4</title>
<path fill="none" stroke="midnightblue" d="M109.532,-133.8C110.088,-136.554 110.582,-139.294 111,-142 112.472,-151.533 113.256,-161.351 113.493,-171.257"/>
<polygon fill="none" stroke="midnightblue" points="112.89,-132.781 107.269,-123.801 106.063,-134.327 112.89,-132.781"/>
</g>
</g>
</svg>
