<?xml version="1.0" encoding="UTF-8" standalone="no"?>
<!DOCTYPE svg PUBLIC "-//W3C//DTD SVG 1.1//EN"
 "http://www.w3.org/Graphics/SVG/1.1/DTD/svg11.dtd">
<!-- Generated by graphviz version 2.38.0 (20140413.2041)
 -->
<!-- Title: NFCLevelModule Pages: 1 -->
<svg width="806pt" height="639pt"
 viewBox="0.00 0.00 806.00 639.00" xmlns="http://www.w3.org/2000/svg" xmlns:xlink="http://www.w3.org/1999/xlink">
<g id="graph0" class="graph" transform="scale(1 1) rotate(0) translate(4 635)">
<title>NFCLevelModule</title>
<polygon fill="white" stroke="none" points="-4,4 -4,-635 802,-635 802,4 -4,4"/>
<!-- Node3 -->
<g id="node1" class="node"><title>Node3</title>
<polygon fill="#bfbfbf" stroke="black" points="425.5,-0.5 425.5,-123.5 535.5,-123.5 535.5,-0.5 425.5,-0.5"/>
<text text-anchor="middle" x="480.5" y="-111.5" font-family="Helvetica,sans-Serif" font-size="10.00">NFCLevelModule</text>
<polyline fill="none" stroke="black" points="425.5,-104.5 535.5,-104.5 "/>
<text text-anchor="middle" x="480.5" y="-92.5" font-family="Helvetica,sans-Serif" font-size="10.00"> </text>
<polyline fill="none" stroke="black" points="425.5,-85.5 535.5,-85.5 "/>
<text text-anchor="start" x="433.5" y="-73.5" font-family="Helvetica,sans-Serif" font-size="10.00">+ NFCLevelModule()</text>
<text text-anchor="start" x="433.5" y="-62.5" font-family="Helvetica,sans-Serif" font-size="10.00">+ ~NFCLevelModule()</text>
<text text-anchor="start" x="433.5" y="-51.5" font-family="Helvetica,sans-Serif" font-size="10.00">+ Init()</text>
<text text-anchor="start" x="433.5" y="-40.5" font-family="Helvetica,sans-Serif" font-size="10.00">+ Shut()</text>
<text text-anchor="start" x="433.5" y="-29.5" font-family="Helvetica,sans-Serif" font-size="10.00">+ Execute()</text>
<text text-anchor="start" x="433.5" y="-18.5" font-family="Helvetica,sans-Serif" font-size="10.00">+ AfterInit()</text>
<text text-anchor="start" x="433.5" y="-7.5" font-family="Helvetica,sans-Serif" font-size="10.00">+ AddExp()</text>
</g>
<!-- Node4 -->
<g id="node2" class="node"><title>Node4</title>
<g id="a_node2"><a xlink:href="class_n_f_i_level_module.html" target="_top" xlink:title="{NFILevelModule\n||+ AddExp()\l}">
<polygon fill="white" stroke="black" points="0,-254 0,-311 85,-311 85,-254 0,-254"/>
<text text-anchor="middle" x="42.5" y="-299" font-family="Helvetica,sans-Serif" font-size="10.00">NFILevelModule</text>
<polyline fill="none" stroke="black" points="0,-292 85,-292 "/>
<text text-anchor="middle" x="42.5" y="-280" font-family="Helvetica,sans-Serif" font-size="10.00"> </text>
<polyline fill="none" stroke="black" points="0,-273 85,-273 "/>
<text text-anchor="start" x="8" y="-261" font-family="Helvetica,sans-Serif" font-size="10.00">+ AddExp()</text>
</a>
</g>
</g>
<!-- Node4&#45;&gt;Node3 -->
<g id="edge1" class="edge"><title>Node4&#45;&gt;Node3</title>
<path fill="none" stroke="midnightblue" d="M51.1082,-243.967C58.4983,-219.87 71.5396,-189.696 93.5,-171 189.769,-89.0431 343.713,-69.0007 425.406,-64.2839"/>
<polygon fill="none" stroke="midnightblue" points="47.6605,-243.294 48.2775,-253.871 54.3909,-245.217 47.6605,-243.294"/>
</g>
<!-- Node5 -->
<g id="node3" class="node"><title>Node5</title>
<g id="a_node3"><a xlink:href="class_n_f_i_module.html" target="_top" xlink:title="{NFIModule\n|+ strName\l# mbReloading\l|+ NFIModule()\l+ ~NFIModule()\l+ Init()\l+ AfterInit()\l+ CheckConfig()\l+ BeforeShut()\l+ Shut()\l+ Execute()\l+ StartReLoadState()\l+ EndReLoadState()\l+ GetPluginManager()\l+ Loading()\l}">
<polygon fill="white" stroke="black" points="259.5,-441.5 259.5,-630.5 371.5,-630.5 371.5,-441.5 259.5,-441.5"/>
<text text-anchor="middle" x="315.5" y="-618.5" font-family="Helvetica,sans-Serif" font-size="10.00">NFIModule</text>
<polyline fill="none" stroke="black" points="259.5,-611.5 371.5,-611.5 "/>
<text text-anchor="start" x="267.5" y="-599.5" font-family="Helvetica,sans-Serif" font-size="10.00">+ strName</text>
<text text-anchor="start" x="267.5" y="-588.5" font-family="Helvetica,sans-Serif" font-size="10.00"># mbReloading</text>
<polyline fill="none" stroke="black" points="259.5,-581.5 371.5,-581.5 "/>
<text text-anchor="start" x="267.5" y="-569.5" font-family="Helvetica,sans-Serif" font-size="10.00">+ NFIModule()</text>
<text text-anchor="start" x="267.5" y="-558.5" font-family="Helvetica,sans-Serif" font-size="10.00">+ ~NFIModule()</text>
<text text-anchor="start" x="267.5" y="-547.5" font-family="Helvetica,sans-Serif" font-size="10.00">+ Init()</text>
<text text-anchor="start" x="267.5" y="-536.5" font-family="Helvetica,sans-Serif" font-size="10.00">+ AfterInit()</text>
<text text-anchor="start" x="267.5" y="-525.5" font-family="Helvetica,sans-Serif" font-size="10.00">+ CheckConfig()</text>
<text text-anchor="start" x="267.5" y="-514.5" font-family="Helvetica,sans-Serif" font-size="10.00">+ BeforeShut()</text>
<text text-anchor="start" x="267.5" y="-503.5" font-family="Helvetica,sans-Serif" font-size="10.00">+ Shut()</text>
<text text-anchor="start" x="267.5" y="-492.5" font-family="Helvetica,sans-Serif" font-size="10.00">+ Execute()</text>
<text text-anchor="start" x="267.5" y="-481.5" font-family="Helvetica,sans-Serif" font-size="10.00">+ StartReLoadState()</text>
<text text-anchor="start" x="267.5" y="-470.5" font-family="Helvetica,sans-Serif" font-size="10.00">+ EndReLoadState()</text>
<text text-anchor="start" x="267.5" y="-459.5" font-family="Helvetica,sans-Serif" font-size="10.00">+ GetPluginManager()</text>
<text text-anchor="start" x="267.5" y="-448.5" font-family="Helvetica,sans-Serif" font-size="10.00">+ Loading()</text>
</a>
</g>
</g>
<!-- Node5&#45;&gt;Node4 -->
<g id="edge2" class="edge"><title>Node5&#45;&gt;Node4</title>
<path fill="none" stroke="midnightblue" d="M250.269,-506.17C201.805,-482.025 136.85,-443.558 93.5,-394 72.3554,-369.827 58.3405,-335.404 50.4431,-311.425"/>
<polygon fill="none" stroke="midnightblue" points="248.904,-509.399 259.423,-510.659 251.986,-503.114 248.904,-509.399"/>
</g>
<!-- Node6 -->
<g id="node4" class="node"><title>Node6</title>
<g id="a_node4"><a xlink:href="class_n_f_i_plugin_manager.html" target="_top" xlink:title="{NFIPluginManager\n||+ NFIPluginManager()\l+ FindModule()\l+ Registered()\l+ UnRegistered()\l+ FindPlugin()\l+ AddModule()\l+ RemoveModule()\l+ FindModule()\l+ AppID()\l+ GetInitTime()\l+ GetNowTime()\l+ GetConfigPath()\l+ SetConfigName()\l}">
<polygon fill="white" stroke="black" points="103,-188 103,-377 214,-377 214,-188 103,-188"/>
<text text-anchor="middle" x="158.5" y="-365" font-family="Helvetica,sans-Serif" font-size="10.00">NFIPluginManager</text>
<polyline fill="none" stroke="black" points="103,-358 214,-358 "/>
<text text-anchor="middle" x="158.5" y="-346" font-family="Helvetica,sans-Serif" font-size="10.00"> </text>
<polyline fill="none" stroke="black" points="103,-339 214,-339 "/>
<text text-anchor="start" x="111" y="-327" font-family="Helvetica,sans-Serif" font-size="10.00">+ NFIPluginManager()</text>
<text text-anchor="start" x="111" y="-316" font-family="Helvetica,sans-Serif" font-size="10.00">+ FindModule()</text>
<text text-anchor="start" x="111" y="-305" font-family="Helvetica,sans-Serif" font-size="10.00">+ Registered()</text>
<text text-anchor="start" x="111" y="-294" font-family="Helvetica,sans-Serif" font-size="10.00">+ UnRegistered()</text>
<text text-anchor="start" x="111" y="-283" font-family="Helvetica,sans-Serif" font-size="10.00">+ FindPlugin()</text>
<text text-anchor="start" x="111" y="-272" font-family="Helvetica,sans-Serif" font-size="10.00">+ AddModule()</text>
<text text-anchor="start" x="111" y="-261" font-family="Helvetica,sans-Serif" font-size="10.00">+ RemoveModule()</text>
<text text-anchor="start" x="111" y="-250" font-family="Helvetica,sans-Serif" font-size="10.00">+ FindModule()</text>
<text text-anchor="start" x="111" y="-239" font-family="Helvetica,sans-Serif" font-size="10.00">+ AppID()</text>
<text text-anchor="start" x="111" y="-228" font-family="Helvetica,sans-Serif" font-size="10.00">+ GetInitTime()</text>
<text text-anchor="start" x="111" y="-217" font-family="Helvetica,sans-Serif" font-size="10.00">+ GetNowTime()</text>
<text text-anchor="start" x="111" y="-206" font-family="Helvetica,sans-Serif" font-size="10.00">+ GetConfigPath()</text>
<text text-anchor="start" x="111" y="-195" font-family="Helvetica,sans-Serif" font-size="10.00">+ SetConfigName()</text>
</a>
</g>
</g>
<!-- Node5&#45;&gt;Node6 -->
<g id="edge4" class="edge"><title>Node5&#45;&gt;Node6</title>
<path fill="none" stroke="midnightblue" d="M252.96,-465.36C242.145,-451.781 231.5,-437.306 222.5,-423 213.49,-408.678 205.012,-392.878 197.357,-377.215"/>
<polygon fill="none" stroke="midnightblue" points="250.327,-467.67 259.337,-473.244 255.769,-463.268 250.327,-467.67"/>
</g>
<!-- Node7 -->
<g id="node5" class="node"><title>Node7</title>
<g id="a_node5"><a xlink:href="class_n_f_i_kernel_module.html" target="_top" xlink:title="{NFIKernelModule\n||+ AddHeartBeat()\l+ FindHeartBeat()\l+ RemoveHeartBeat()\l+ AddRecordCallBack()\l+ AddPropertyCallBack()\l+ AddEventCallBack()\l+ AddClassCallBack()\l+ DoEvent()\l+ DoEvent()\l+ RegisterCommonClassEvent()\land 56 more...\l# AddEventCallBack()\l# AddClassCallBack()\l# RegisterCommonClassEvent()\l# RegisterCommonPropertyEvent()\l# RegisterCommonRecordEvent()\l}">
<polygon fill="white" stroke="black" points="232,-171.5 232,-393.5 399,-393.5 399,-171.5 232,-171.5"/>
<text text-anchor="middle" x="315.5" y="-381.5" font-family="Helvetica,sans-Serif" font-size="10.00">NFIKernelModule</text>
<polyline fill="none" stroke="black" points="232,-374.5 399,-374.5 "/>
<text text-anchor="middle" x="315.5" y="-362.5" font-family="Helvetica,sans-Serif" font-size="10.00"> </text>
<polyline fill="none" stroke="black" points="232,-355.5 399,-355.5 "/>
<text text-anchor="start" x="240" y="-343.5" font-family="Helvetica,sans-Serif" font-size="10.00">+ AddHeartBeat()</text>
<text text-anchor="start" x="240" y="-332.5" font-family="Helvetica,sans-Serif" font-size="10.00">+ FindHeartBeat()</text>
<text text-anchor="start" x="240" y="-321.5" font-family="Helvetica,sans-Serif" font-size="10.00">+ RemoveHeartBeat()</text>
<text text-anchor="start" x="240" y="-310.5" font-family="Helvetica,sans-Serif" font-size="10.00">+ AddRecordCallBack()</text>
<text text-anchor="start" x="240" y="-299.5" font-family="Helvetica,sans-Serif" font-size="10.00">+ AddPropertyCallBack()</text>
<text text-anchor="start" x="240" y="-288.5" font-family="Helvetica,sans-Serif" font-size="10.00">+ AddEventCallBack()</text>
<text text-anchor="start" x="240" y="-277.5" font-family="Helvetica,sans-Serif" font-size="10.00">+ AddClassCallBack()</text>
<text text-anchor="start" x="240" y="-266.5" font-family="Helvetica,sans-Serif" font-size="10.00">+ DoEvent()</text>
<text text-anchor="start" x="240" y="-255.5" font-family="Helvetica,sans-Serif" font-size="10.00">+ DoEvent()</text>
<text text-anchor="start" x="240" y="-244.5" font-family="Helvetica,sans-Serif" font-size="10.00">+ RegisterCommonClassEvent()</text>
<text text-anchor="start" x="240" y="-233.5" font-family="Helvetica,sans-Serif" font-size="10.00">and 56 more...</text>
<text text-anchor="start" x="240" y="-222.5" font-family="Helvetica,sans-Serif" font-size="10.00"># AddEventCallBack()</text>
<text text-anchor="start" x="240" y="-211.5" font-family="Helvetica,sans-Serif" font-size="10.00"># AddClassCallBack()</text>
<text text-anchor="start" x="240" y="-200.5" font-family="Helvetica,sans-Serif" font-size="10.00"># RegisterCommonClassEvent()</text>
<text text-anchor="start" x="240" y="-189.5" font-family="Helvetica,sans-Serif" font-size="10.00"># RegisterCommonPropertyEvent()</text>
<text text-anchor="start" x="240" y="-178.5" font-family="Helvetica,sans-Serif" font-size="10.00"># RegisterCommonRecordEvent()</text>
</a>
</g>
</g>
<!-- Node5&#45;&gt;Node7 -->
<g id="edge6" class="edge"><title>Node5&#45;&gt;Node7</title>
<path fill="none" stroke="midnightblue" d="M315.5,-431.088C315.5,-418.777 315.5,-406.178 315.5,-393.783"/>
<polygon fill="none" stroke="midnightblue" points="312,-431.351 315.5,-441.351 319,-431.351 312,-431.351"/>
</g>
<!-- Node8 -->
<g id="node6" class="node"><title>Node8</title>
<g id="a_node6"><a xlink:href="class_n_f_i_property_config_module.html" target="_top" xlink:title="{NFIPropertyConfigModule\n||+ CalculateBaseValue()\l+ LegalLevel()\l}">
<polygon fill="white" stroke="black" points="417,-248.5 417,-316.5 544,-316.5 544,-248.5 417,-248.5"/>
<text text-anchor="middle" x="480.5" y="-304.5" font-family="Helvetica,sans-Serif" font-size="10.00">NFIPropertyConfigModule</text>
<polyline fill="none" stroke="black" points="417,-297.5 544,-297.5 "/>
<text text-anchor="middle" x="480.5" y="-285.5" font-family="Helvetica,sans-Serif" font-size="10.00"> </text>
<polyline fill="none" stroke="black" points="417,-278.5 544,-278.5 "/>
<text text-anchor="start" x="425" y="-266.5" font-family="Helvetica,sans-Serif" font-size="10.00">+ CalculateBaseValue()</text>
<text text-anchor="start" x="425" y="-255.5" font-family="Helvetica,sans-Serif" font-size="10.00">+ LegalLevel()</text>
</a>
</g>
</g>
<!-- Node5&#45;&gt;Node8 -->
<g id="edge8" class="edge"><title>Node5&#45;&gt;Node8</title>
<path fill="none" stroke="midnightblue" d="M377.253,-440.873C405.821,-397.329 437.937,-348.376 458.653,-316.8"/>
<polygon fill="none" stroke="midnightblue" points="374.151,-439.221 371.592,-449.503 380.004,-443.061 374.151,-439.221"/>
</g>
<!-- Node9 -->
<g id="node7" class="node"><title>Node9</title>
<g id="a_node7"><a xlink:href="class_n_f_i_element_module.html" target="_top" xlink:title="{NFIElementModule\n||+ Load()\l+ Save()\l+ Clear()\l+ ExistElement()\l+ ExistElement()\l+ GetPropertyManager()\l+ GetRecordManager()\l+ GetComponentManager()\l+ GetPropertyInt()\l+ GetPropertyFloat()\l+ GetPropertyString()\l}">
<polygon fill="white" stroke="black" points="562.5,-199 562.5,-366 696.5,-366 696.5,-199 562.5,-199"/>
<text text-anchor="middle" x="629.5" y="-354" font-family="Helvetica,sans-Serif" font-size="10.00">NFIElementModule</text>
<polyline fill="none" stroke="black" points="562.5,-347 696.5,-347 "/>
<text text-anchor="middle" x="629.5" y="-335" font-family="Helvetica,sans-Serif" font-size="10.00"> </text>
<polyline fill="none" stroke="black" points="562.5,-328 696.5,-328 "/>
<text text-anchor="start" x="570.5" y="-316" font-family="Helvetica,sans-Serif" font-size="10.00">+ Load()</text>
<text text-anchor="start" x="570.5" y="-305" font-family="Helvetica,sans-Serif" font-size="10.00">+ Save()</text>
<text text-anchor="start" x="570.5" y="-294" font-family="Helvetica,sans-Serif" font-size="10.00">+ Clear()</text>
<text text-anchor="start" x="570.5" y="-283" font-family="Helvetica,sans-Serif" font-size="10.00">+ ExistElement()</text>
<text text-anchor="start" x="570.5" y="-272" font-family="Helvetica,sans-Serif" font-size="10.00">+ ExistElement()</text>
<text text-anchor="start" x="570.5" y="-261" font-family="Helvetica,sans-Serif" font-size="10.00">+ GetPropertyManager()</text>
<text text-anchor="start" x="570.5" y="-250" font-family="Helvetica,sans-Serif" font-size="10.00">+ GetRecordManager()</text>
<text text-anchor="start" x="570.5" y="-239" font-family="Helvetica,sans-Serif" font-size="10.00">+ GetComponentManager()</text>
<text text-anchor="start" x="570.5" y="-228" font-family="Helvetica,sans-Serif" font-size="10.00">+ GetPropertyInt()</text>
<text text-anchor="start" x="570.5" y="-217" font-family="Helvetica,sans-Serif" font-size="10.00">+ GetPropertyFloat()</text>
<text text-anchor="start" x="570.5" y="-206" font-family="Helvetica,sans-Serif" font-size="10.00">+ GetPropertyString()</text>
</a>
</g>
</g>
<!-- Node5&#45;&gt;Node9 -->
<g id="edge10" class="edge"><title>Node5&#45;&gt;Node9</title>
<path fill="none" stroke="midnightblue" d="M380.91,-505.607C431.517,-480.739 501.357,-441.592 552.5,-394 561.487,-385.637 570.026,-376.057 577.923,-366.111"/>
<polygon fill="none" stroke="midnightblue" points="379.16,-502.566 371.693,-510.083 382.218,-508.863 379.16,-502.566"/>
</g>
<!-- Node10 -->
<g id="node8" class="node"><title>Node10</title>
<g id="a_node8"><a xlink:href="class_n_f_i_log_module.html" target="_top" xlink:title="{NFILogModule\n||+ LogDebug()\l+ LogInfo()\l+ LogWarning()\l+ LogError()\l+ LogFatal()\l+ LogDebug()\l+ LogInfo()\l+ LogWarning()\l+ LogError()\l+ LogFatal()\land 8 more...\l}">
<polygon fill="white" stroke="black" points="715,-199 715,-366 798,-366 798,-199 715,-199"/>
<text text-anchor="middle" x="756.5" y="-354" font-family="Helvetica,sans-Serif" font-size="10.00">NFILogModule</text>
<polyline fill="none" stroke="black" points="715,-347 798,-347 "/>
<text text-anchor="middle" x="756.5" y="-335" font-family="Helvetica,sans-Serif" font-size="10.00"> </text>
<polyline fill="none" stroke="black" points="715,-328 798,-328 "/>
<text text-anchor="start" x="723" y="-316" font-family="Helvetica,sans-Serif" font-size="10.00">+ LogDebug()</text>
<text text-anchor="start" x="723" y="-305" font-family="Helvetica,sans-Serif" font-size="10.00">+ LogInfo()</text>
<text text-anchor="start" x="723" y="-294" font-family="Helvetica,sans-Serif" font-size="10.00">+ LogWarning()</text>
<text text-anchor="start" x="723" y="-283" font-family="Helvetica,sans-Serif" font-size="10.00">+ LogError()</text>
<text text-anchor="start" x="723" y="-272" font-family="Helvetica,sans-Serif" font-size="10.00">+ LogFatal()</text>
<text text-anchor="start" x="723" y="-261" font-family="Helvetica,sans-Serif" font-size="10.00">+ LogDebug()</text>
<text text-anchor="start" x="723" y="-250" font-family="Helvetica,sans-Serif" font-size="10.00">+ LogInfo()</text>
<text text-anchor="start" x="723" y="-239" font-family="Helvetica,sans-Serif" font-size="10.00">+ LogWarning()</text>
<text text-anchor="start" x="723" y="-228" font-family="Helvetica,sans-Serif" font-size="10.00">+ LogError()</text>
<text text-anchor="start" x="723" y="-217" font-family="Helvetica,sans-Serif" font-size="10.00">+ LogFatal()</text>
<text text-anchor="start" x="723" y="-206" font-family="Helvetica,sans-Serif" font-size="10.00">and 8 more...</text>
</a>
</g>
</g>
<!-- Node5&#45;&gt;Node10 -->
<g id="edge12" class="edge"><title>Node5&#45;&gt;Node10</title>
<path fill="none" stroke="midnightblue" d="M381.605,-526.927C466.327,-513.382 613.249,-478.683 705.5,-394 714.139,-386.07 721.429,-376.385 727.549,-366.078"/>
<polygon fill="none" stroke="midnightblue" points="380.936,-523.489 371.589,-528.476 382.006,-530.407 380.936,-523.489"/>
</g>
<!-- Node6&#45;&gt;Node5 -->
<g id="edge3" class="edge"><title>Node6&#45;&gt;Node5</title>
<path fill="none" stroke="#404040" d="M205.753,-377.276C214.27,-392.777 223.359,-408.508 232.5,-423 238.698,-432.825 245.489,-442.904 252.434,-452.795"/>
<polygon fill="none" stroke="#404040" points="252.458,-452.829 259.195,-455.4 259.414,-462.607 252.676,-460.037 252.458,-452.829"/>
<text text-anchor="middle" x="272" y="-415" font-family="Helvetica,sans-Serif" font-size="10.00"> #pPluginManager</text>
</g>
<!-- Node7&#45;&gt;Node3 -->
<g id="edge5" class="edge"><title>Node7&#45;&gt;Node3</title>
<path fill="none" stroke="#404040" d="M370.688,-171.4C377.236,-161.147 384.204,-151.174 391.5,-142 398.927,-132.662 407.532,-123.516 416.405,-114.952"/>
<polygon fill="none" stroke="#404040" points="416.573,-114.795 418.221,-107.775 425.335,-106.596 423.687,-113.616 416.573,-114.795"/>
<text text-anchor="middle" x="434" y="-145" font-family="Helvetica,sans-Serif" font-size="10.00"> &#45;m_pKernelModule</text>
</g>
<!-- Node8&#45;&gt;Node3 -->
<g id="edge7" class="edge"><title>Node8&#45;&gt;Node3</title>
<path fill="none" stroke="#404040" d="M480.5,-248.315C480.5,-218.582 480.5,-173.929 480.5,-135.904"/>
<polygon fill="none" stroke="#404040" points="480.5,-135.819 476.5,-129.819 480.5,-123.819 484.5,-129.819 480.5,-135.819"/>
<text text-anchor="middle" x="541" y="-145" font-family="Helvetica,sans-Serif" font-size="10.00"> &#45;m_pPropertyConfigModule</text>
</g>
<!-- Node9&#45;&gt;Node3 -->
<g id="edge9" class="edge"><title>Node9&#45;&gt;Node3</title>
<path fill="none" stroke="#404040" d="M626.119,-198.997C622.334,-179.096 615.732,-158.76 604.5,-142 590.212,-120.68 568.019,-103.921 546.334,-91.4284"/>
<polygon fill="none" stroke="#404040" points="546.291,-91.4044 539.107,-92.0287 535.767,-85.6373 542.951,-85.0131 546.291,-91.4044"/>
<text text-anchor="middle" x="657" y="-145" font-family="Helvetica,sans-Serif" font-size="10.00"> &#45;m_pElementModule</text>
</g>
<!-- Node10&#45;&gt;Node3 -->
<g id="edge11" class="edge"><title>Node10&#45;&gt;Node3</title>
<path fill="none" stroke="#404040" d="M740.928,-198.91C733.667,-178.203 723.041,-157.497 707.5,-142 664.779,-99.4017 597.909,-79.7217 547.793,-70.6602"/>
<polygon fill="none" stroke="#404040" points="547.594,-70.6266 541.012,-73.5717 535.762,-68.6284 542.344,-65.6833 547.594,-70.6266"/>
<text text-anchor="middle" x="752" y="-145" font-family="Helvetica,sans-Serif" font-size="10.00"> &#45;m_pLogModule</text>
</g>
</g>
</svg>
