<?xml version="1.0" encoding="UTF-8" standalone="no"?>
<!DOCTYPE svg PUBLIC "-//W3C//DTD SVG 1.1//EN"
 "http://www.w3.org/Graphics/SVG/1.1/DTD/svg11.dtd">
<!-- Generated by graphviz version 2.38.0 (20140413.2041)
 -->
<!-- Title: NFCObject Pages: 1 -->
<svg width="362pt" height="771pt"
 viewBox="0.00 0.00 361.50 771.00" xmlns="http://www.w3.org/2000/svg" xmlns:xlink="http://www.w3.org/1999/xlink">
<g id="graph0" class="graph" transform="scale(1 1) rotate(0) translate(4 767)">
<title>NFCObject</title>
<polygon fill="white" stroke="none" points="-4,4 -4,-767 357.5,-767 357.5,4 -4,4"/>
<!-- Node2 -->
<g id="node1" class="node"><title>Node2</title>
<polygon fill="#bfbfbf" stroke="black" points="186.5,-0.5 186.5,-255.5 314.5,-255.5 314.5,-0.5 186.5,-0.5"/>
<text text-anchor="middle" x="250.5" y="-243.5" font-family="Helvetica,sans-Serif" font-size="10.00">NFCObject</text>
<polyline fill="none" stroke="black" points="186.5,-236.5 314.5,-236.5 "/>
<text text-anchor="start" x="194.5" y="-224.5" font-family="Helvetica,sans-Serif" font-size="10.00">&#45; m_pRecordManager</text>
<text text-anchor="start" x="194.5" y="-213.5" font-family="Helvetica,sans-Serif" font-size="10.00">&#45; m_pHeartBeatManager</text>
<text text-anchor="start" x="194.5" y="-202.5" font-family="Helvetica,sans-Serif" font-size="10.00">&#45; m_pPropertyManager</text>
<text text-anchor="start" x="194.5" y="-191.5" font-family="Helvetica,sans-Serif" font-size="10.00">&#45; m_pComponentManager</text>
<text text-anchor="start" x="194.5" y="-180.5" font-family="Helvetica,sans-Serif" font-size="10.00">&#45; m_pEventManager</text>
<polyline fill="none" stroke="black" points="186.5,-173.5 314.5,-173.5 "/>
<text text-anchor="start" x="194.5" y="-161.5" font-family="Helvetica,sans-Serif" font-size="10.00">+ NFCObject()</text>
<text text-anchor="start" x="194.5" y="-150.5" font-family="Helvetica,sans-Serif" font-size="10.00">+ ~NFCObject()</text>
<text text-anchor="start" x="194.5" y="-139.5" font-family="Helvetica,sans-Serif" font-size="10.00">+ Init()</text>
<text text-anchor="start" x="194.5" y="-128.5" font-family="Helvetica,sans-Serif" font-size="10.00">+ Shut()</text>
<text text-anchor="start" x="194.5" y="-117.5" font-family="Helvetica,sans-Serif" font-size="10.00">+ Execute()</text>
<text text-anchor="start" x="194.5" y="-106.5" font-family="Helvetica,sans-Serif" font-size="10.00">+ Self()</text>
<text text-anchor="start" x="194.5" y="-95.5" font-family="Helvetica,sans-Serif" font-size="10.00">+ FindHeartBeat()</text>
<text text-anchor="start" x="194.5" y="-84.5" font-family="Helvetica,sans-Serif" font-size="10.00">+ RemoveHeartBeat()</text>
<text text-anchor="start" x="194.5" y="-73.5" font-family="Helvetica,sans-Serif" font-size="10.00">+ FindProperty()</text>
<text text-anchor="start" x="194.5" y="-62.5" font-family="Helvetica,sans-Serif" font-size="10.00">+ SetPropertyInt()</text>
<text text-anchor="start" x="194.5" y="-51.5" font-family="Helvetica,sans-Serif" font-size="10.00">and 35 more...</text>
<text text-anchor="start" x="194.5" y="-40.5" font-family="Helvetica,sans-Serif" font-size="10.00"># AddRecordCallBack()</text>
<text text-anchor="start" x="194.5" y="-29.5" font-family="Helvetica,sans-Serif" font-size="10.00"># AddPropertyCallBack()</text>
<text text-anchor="start" x="194.5" y="-18.5" font-family="Helvetica,sans-Serif" font-size="10.00"># AddHeartBeat()</text>
<text text-anchor="start" x="194.5" y="-7.5" font-family="Helvetica,sans-Serif" font-size="10.00">&#45; NFCObject()</text>
</g>
<!-- Node3 -->
<g id="node2" class="node"><title>Node3</title>
<g id="a_node2"><a xlink:href="class_n_f_i_object.html" target="_top" xlink:title="A nfi object. ">
<polygon fill="white" stroke="black" points="0,-314.5 0,-514.5 125,-514.5 125,-314.5 0,-314.5"/>
<text text-anchor="middle" x="62.5" y="-502.5" font-family="Helvetica,sans-Serif" font-size="10.00">NFIObject</text>
<polyline fill="none" stroke="black" points="0,-495.5 125,-495.5 "/>
<text text-anchor="middle" x="62.5" y="-483.5" font-family="Helvetica,sans-Serif" font-size="10.00"> </text>
<polyline fill="none" stroke="black" points="0,-476.5 125,-476.5 "/>
<text text-anchor="start" x="8" y="-464.5" font-family="Helvetica,sans-Serif" font-size="10.00">+ NFIObject()</text>
<text text-anchor="start" x="8" y="-453.5" font-family="Helvetica,sans-Serif" font-size="10.00">+ ~NFIObject()</text>
<text text-anchor="start" x="8" y="-442.5" font-family="Helvetica,sans-Serif" font-size="10.00">+ Execute()</text>
<text text-anchor="start" x="8" y="-431.5" font-family="Helvetica,sans-Serif" font-size="10.00">+ Self()</text>
<text text-anchor="start" x="8" y="-420.5" font-family="Helvetica,sans-Serif" font-size="10.00">+ AddPropertyCallBack()</text>
<text text-anchor="start" x="8" y="-409.5" font-family="Helvetica,sans-Serif" font-size="10.00">+ AddRecordCallBack()</text>
<text text-anchor="start" x="8" y="-398.5" font-family="Helvetica,sans-Serif" font-size="10.00">+ AddHeartBeat()</text>
<text text-anchor="start" x="8" y="-387.5" font-family="Helvetica,sans-Serif" font-size="10.00">+ AddComponent()</text>
<text text-anchor="start" x="8" y="-376.5" font-family="Helvetica,sans-Serif" font-size="10.00">+ AddComponent()</text>
<text text-anchor="start" x="8" y="-365.5" font-family="Helvetica,sans-Serif" font-size="10.00">+ FindComponent()</text>
<text text-anchor="start" x="8" y="-354.5" font-family="Helvetica,sans-Serif" font-size="10.00">and 39 more...</text>
<text text-anchor="start" x="8" y="-343.5" font-family="Helvetica,sans-Serif" font-size="10.00"># AddRecordCallBack()</text>
<text text-anchor="start" x="8" y="-332.5" font-family="Helvetica,sans-Serif" font-size="10.00"># AddPropertyCallBack()</text>
<text text-anchor="start" x="8" y="-321.5" font-family="Helvetica,sans-Serif" font-size="10.00"># AddHeartBeat()</text>
</a>
</g>
</g>
<!-- Node3&#45;&gt;Node2 -->
<g id="edge1" class="edge"><title>Node3&#45;&gt;Node2</title>
<path fill="none" stroke="midnightblue" d="M130.706,-308.761C131.98,-306.825 133.246,-304.903 134.5,-303 151.183,-277.688 169.324,-250.377 186.197,-225.063"/>
<polygon fill="none" stroke="midnightblue" points="127.64,-307.054 125.074,-317.333 133.491,-310.898 127.64,-307.054"/>
</g>
<!-- Node4 -->
<g id="node3" class="node"><title>Node4</title>
<g id="a_node3"><a xlink:href="class_n_f_i_plugin_manager.html" target="_top" xlink:title="{NFIPluginManager\n||+ NFIPluginManager()\l+ FindModule()\l+ Registered()\l+ UnRegistered()\l+ FindPlugin()\l+ AddModule()\l+ RemoveModule()\l+ FindModule()\l+ AppID()\l+ GetInitTime()\l+ GetNowTime()\l+ GetConfigPath()\l+ SetConfigName()\l}">
<polygon fill="white" stroke="black" points="122,-573.5 122,-762.5 233,-762.5 233,-573.5 122,-573.5"/>
<text text-anchor="middle" x="177.5" y="-750.5" font-family="Helvetica,sans-Serif" font-size="10.00">NFIPluginManager</text>
<polyline fill="none" stroke="black" points="122,-743.5 233,-743.5 "/>
<text text-anchor="middle" x="177.5" y="-731.5" font-family="Helvetica,sans-Serif" font-size="10.00"> </text>
<polyline fill="none" stroke="black" points="122,-724.5 233,-724.5 "/>
<text text-anchor="start" x="130" y="-712.5" font-family="Helvetica,sans-Serif" font-size="10.00">+ NFIPluginManager()</text>
<text text-anchor="start" x="130" y="-701.5" font-family="Helvetica,sans-Serif" font-size="10.00">+ FindModule()</text>
<text text-anchor="start" x="130" y="-690.5" font-family="Helvetica,sans-Serif" font-size="10.00">+ Registered()</text>
<text text-anchor="start" x="130" y="-679.5" font-family="Helvetica,sans-Serif" font-size="10.00">+ UnRegistered()</text>
<text text-anchor="start" x="130" y="-668.5" font-family="Helvetica,sans-Serif" font-size="10.00">+ FindPlugin()</text>
<text text-anchor="start" x="130" y="-657.5" font-family="Helvetica,sans-Serif" font-size="10.00">+ AddModule()</text>
<text text-anchor="start" x="130" y="-646.5" font-family="Helvetica,sans-Serif" font-size="10.00">+ RemoveModule()</text>
<text text-anchor="start" x="130" y="-635.5" font-family="Helvetica,sans-Serif" font-size="10.00">+ FindModule()</text>
<text text-anchor="start" x="130" y="-624.5" font-family="Helvetica,sans-Serif" font-size="10.00">+ AppID()</text>
<text text-anchor="start" x="130" y="-613.5" font-family="Helvetica,sans-Serif" font-size="10.00">+ GetInitTime()</text>
<text text-anchor="start" x="130" y="-602.5" font-family="Helvetica,sans-Serif" font-size="10.00">+ GetNowTime()</text>
<text text-anchor="start" x="130" y="-591.5" font-family="Helvetica,sans-Serif" font-size="10.00">+ GetConfigPath()</text>
<text text-anchor="start" x="130" y="-580.5" font-family="Helvetica,sans-Serif" font-size="10.00">+ SetConfigName()</text>
</a>
</g>
</g>
<!-- Node4&#45;&gt;Node3 -->
<g id="edge2" class="edge"><title>Node4&#45;&gt;Node3</title>
<path fill="none" stroke="#404040" d="M121.963,-617.387C105.264,-599.421 88.6896,-577.877 78.5,-555 74.5159,-546.055 71.3881,-536.483 68.9461,-526.7"/>
<polygon fill="none" stroke="#404040" points="68.882,-526.41 63.6829,-521.413 66.2959,-514.692 71.495,-519.689 68.882,-526.41"/>
<text text-anchor="middle" x="124.5" y="-547" font-family="Helvetica,sans-Serif" font-size="10.00"> #m_pPluginManager</text>
</g>
<!-- Node5 -->
<g id="node4" class="node"><title>Node5</title>
<g id="a_node4"><a xlink:href="class_n_f_i_module.html" target="_top" xlink:title="{NFIModule\n|+ strName\l# mbReloading\l|+ NFIModule()\l+ ~NFIModule()\l+ Init()\l+ AfterInit()\l+ CheckConfig()\l+ BeforeShut()\l+ Shut()\l+ Execute()\l+ StartReLoadState()\l+ EndReLoadState()\l+ GetPluginManager()\l+ Loading()\l}">
<polygon fill="white" stroke="black" points="143.5,-320 143.5,-509 255.5,-509 255.5,-320 143.5,-320"/>
<text text-anchor="middle" x="199.5" y="-497" font-family="Helvetica,sans-Serif" font-size="10.00">NFIModule</text>
<polyline fill="none" stroke="black" points="143.5,-490 255.5,-490 "/>
<text text-anchor="start" x="151.5" y="-478" font-family="Helvetica,sans-Serif" font-size="10.00">+ strName</text>
<text text-anchor="start" x="151.5" y="-467" font-family="Helvetica,sans-Serif" font-size="10.00"># mbReloading</text>
<polyline fill="none" stroke="black" points="143.5,-460 255.5,-460 "/>
<text text-anchor="start" x="151.5" y="-448" font-family="Helvetica,sans-Serif" font-size="10.00">+ NFIModule()</text>
<text text-anchor="start" x="151.5" y="-437" font-family="Helvetica,sans-Serif" font-size="10.00">+ ~NFIModule()</text>
<text text-anchor="start" x="151.5" y="-426" font-family="Helvetica,sans-Serif" font-size="10.00">+ Init()</text>
<text text-anchor="start" x="151.5" y="-415" font-family="Helvetica,sans-Serif" font-size="10.00">+ AfterInit()</text>
<text text-anchor="start" x="151.5" y="-404" font-family="Helvetica,sans-Serif" font-size="10.00">+ CheckConfig()</text>
<text text-anchor="start" x="151.5" y="-393" font-family="Helvetica,sans-Serif" font-size="10.00">+ BeforeShut()</text>
<text text-anchor="start" x="151.5" y="-382" font-family="Helvetica,sans-Serif" font-size="10.00">+ Shut()</text>
<text text-anchor="start" x="151.5" y="-371" font-family="Helvetica,sans-Serif" font-size="10.00">+ Execute()</text>
<text text-anchor="start" x="151.5" y="-360" font-family="Helvetica,sans-Serif" font-size="10.00">+ StartReLoadState()</text>
<text text-anchor="start" x="151.5" y="-349" font-family="Helvetica,sans-Serif" font-size="10.00">+ EndReLoadState()</text>
<text text-anchor="start" x="151.5" y="-338" font-family="Helvetica,sans-Serif" font-size="10.00">+ GetPluginManager()</text>
<text text-anchor="start" x="151.5" y="-327" font-family="Helvetica,sans-Serif" font-size="10.00">+ Loading()</text>
</a>
</g>
</g>
<!-- Node4&#45;&gt;Node5 -->
<g id="edge4" class="edge"><title>Node4&#45;&gt;Node5</title>
<path fill="none" stroke="#404040" d="M174.803,-573.199C174.683,-567.041 174.579,-560.932 174.5,-555 174.435,-550.112 174.031,-548.866 174.5,-544 175.215,-536.577 176.158,-528.946 177.258,-521.282"/>
<polygon fill="none" stroke="#404040" points="177.286,-521.098 174.242,-514.56 179.106,-509.236 182.15,-515.774 177.286,-521.098"/>
<text text-anchor="middle" x="214" y="-547" font-family="Helvetica,sans-Serif" font-size="10.00"> #pPluginManager</text>
</g>
<!-- Node5&#45;&gt;Node4 -->
<g id="edge3" class="edge"><title>Node5&#45;&gt;Node4</title>
<path fill="none" stroke="midnightblue" d="M258.376,-511.31C261.714,-525.804 262.085,-540.693 257.5,-555 252.104,-571.839 243.143,-588.301 233.128,-603.198"/>
<polygon fill="none" stroke="midnightblue" points="261.66,-510.052 255.615,-501.351 254.914,-511.922 261.66,-510.052"/>
</g>
<!-- Node6 -->
<g id="node5" class="node"><title>Node6</title>
<g id="a_node5"><a xlink:href="struct_n_f_g_u_i_d.html" target="_top" xlink:title="{NFGUID\n|+ nData64\l+ nHead64\l|+ NFGUID()\l+ NFGUID()\l+ NFGUID()\l+ NFGUID()\l+ operator=()\l+ GetData()\l+ GetHead()\l+ SetData()\l+ SetHead()\l+ IsNull()\l+ operator==()\l+ operator!=()\l+ operator\&lt;()\l+ ToString()\l+ FromString()\l}">
<polygon fill="white" stroke="black" points="273.5,-303.5 273.5,-525.5 353.5,-525.5 353.5,-303.5 273.5,-303.5"/>
<text text-anchor="middle" x="313.5" y="-513.5" font-family="Helvetica,sans-Serif" font-size="10.00">NFGUID</text>
<polyline fill="none" stroke="black" points="273.5,-506.5 353.5,-506.5 "/>
<text text-anchor="start" x="281.5" y="-494.5" font-family="Helvetica,sans-Serif" font-size="10.00">+ nData64</text>
<text text-anchor="start" x="281.5" y="-483.5" font-family="Helvetica,sans-Serif" font-size="10.00">+ nHead64</text>
<polyline fill="none" stroke="black" points="273.5,-476.5 353.5,-476.5 "/>
<text text-anchor="start" x="281.5" y="-464.5" font-family="Helvetica,sans-Serif" font-size="10.00">+ NFGUID()</text>
<text text-anchor="start" x="281.5" y="-453.5" font-family="Helvetica,sans-Serif" font-size="10.00">+ NFGUID()</text>
<text text-anchor="start" x="281.5" y="-442.5" font-family="Helvetica,sans-Serif" font-size="10.00">+ NFGUID()</text>
<text text-anchor="start" x="281.5" y="-431.5" font-family="Helvetica,sans-Serif" font-size="10.00">+ NFGUID()</text>
<text text-anchor="start" x="281.5" y="-420.5" font-family="Helvetica,sans-Serif" font-size="10.00">+ operator=()</text>
<text text-anchor="start" x="281.5" y="-409.5" font-family="Helvetica,sans-Serif" font-size="10.00">+ GetData()</text>
<text text-anchor="start" x="281.5" y="-398.5" font-family="Helvetica,sans-Serif" font-size="10.00">+ GetHead()</text>
<text text-anchor="start" x="281.5" y="-387.5" font-family="Helvetica,sans-Serif" font-size="10.00">+ SetData()</text>
<text text-anchor="start" x="281.5" y="-376.5" font-family="Helvetica,sans-Serif" font-size="10.00">+ SetHead()</text>
<text text-anchor="start" x="281.5" y="-365.5" font-family="Helvetica,sans-Serif" font-size="10.00">+ IsNull()</text>
<text text-anchor="start" x="281.5" y="-354.5" font-family="Helvetica,sans-Serif" font-size="10.00">+ operator==()</text>
<text text-anchor="start" x="281.5" y="-343.5" font-family="Helvetica,sans-Serif" font-size="10.00">+ operator!=()</text>
<text text-anchor="start" x="281.5" y="-332.5" font-family="Helvetica,sans-Serif" font-size="10.00">+ operator&lt;()</text>
<text text-anchor="start" x="281.5" y="-321.5" font-family="Helvetica,sans-Serif" font-size="10.00">+ ToString()</text>
<text text-anchor="start" x="281.5" y="-310.5" font-family="Helvetica,sans-Serif" font-size="10.00">+ FromString()</text>
</a>
</g>
</g>
<!-- Node6&#45;&gt;Node2 -->
<g id="edge5" class="edge"><title>Node6&#45;&gt;Node2</title>
<path fill="none" stroke="#404040" d="M289.052,-303.098C286.484,-291.5 283.85,-279.605 281.223,-267.743"/>
<polygon fill="none" stroke="#404040" points="281.196,-267.62 275.993,-262.626 278.602,-255.903 283.804,-260.897 281.196,-267.62"/>
<text text-anchor="middle" x="300" y="-277" font-family="Helvetica,sans-Serif" font-size="10.00"> &#45;mSelf</text>
</g>
</g>
</svg>
