<?xml version="1.0" encoding="UTF-8" standalone="no"?>
<!DOCTYPE svg PUBLIC "-//W3C//DTD SVG 1.1//EN"
 "http://www.w3.org/Graphics/SVG/1.1/DTD/svg11.dtd">
<!-- Generated by graphviz version 2.38.0 (20140413.2041)
 -->
<!-- Title: NFCHeartBeatManager Pages: 1 -->
<svg width="519pt" height="413pt"
 viewBox="0.00 0.00 518.50 413.00" xmlns="http://www.w3.org/2000/svg" xmlns:xlink="http://www.w3.org/1999/xlink">
<g id="graph0" class="graph" transform="scale(1 1) rotate(0) translate(4 409)">
<title>NFCHeartBeatManager</title>
<polygon fill="white" stroke="none" points="-4,4 -4,-409 514.5,-409 514.5,4 -4,4"/>
<!-- Node2 -->
<g id="node1" class="node"><title>Node2</title>
<polygon fill="#bfbfbf" stroke="black" points="177,-0.5 177,-134.5 315,-134.5 315,-0.5 177,-0.5"/>
<text text-anchor="middle" x="246" y="-122.5" font-family="Helvetica,sans-Serif" font-size="10.00">NFCHeartBeatManager</text>
<polyline fill="none" stroke="black" points="177,-115.5 315,-115.5 "/>
<text text-anchor="start" x="185" y="-103.5" font-family="Helvetica,sans-Serif" font-size="10.00"># mAddListEx</text>
<polyline fill="none" stroke="black" points="177,-96.5 315,-96.5 "/>
<text text-anchor="start" x="185" y="-84.5" font-family="Helvetica,sans-Serif" font-size="10.00">+ NFCHeartBeatManager()</text>
<text text-anchor="start" x="185" y="-73.5" font-family="Helvetica,sans-Serif" font-size="10.00">+ NFCHeartBeatManager()</text>
<text text-anchor="start" x="185" y="-62.5" font-family="Helvetica,sans-Serif" font-size="10.00">+ ~NFCHeartBeatManager()</text>
<text text-anchor="start" x="185" y="-51.5" font-family="Helvetica,sans-Serif" font-size="10.00">+ Self()</text>
<text text-anchor="start" x="185" y="-40.5" font-family="Helvetica,sans-Serif" font-size="10.00">+ Execute()</text>
<text text-anchor="start" x="185" y="-29.5" font-family="Helvetica,sans-Serif" font-size="10.00">+ Exist()</text>
<text text-anchor="start" x="185" y="-18.5" font-family="Helvetica,sans-Serif" font-size="10.00">+ AddHeartBeat()</text>
<text text-anchor="start" x="185" y="-7.5" font-family="Helvetica,sans-Serif" font-size="10.00">+ RemoveHeartBeat()</text>
</g>
<!-- Node3 -->
<g id="node2" class="node"><title>Node3</title>
<g id="a_node2"><a xlink:href="class_n_f_i_heart_beat_manager.html" target="_top" xlink:title="Manager for nfi heart beats. ">
<polygon fill="white" stroke="black" points="0,-232 0,-355 134,-355 134,-232 0,-232"/>
<text text-anchor="middle" x="67" y="-343" font-family="Helvetica,sans-Serif" font-size="10.00">NFIHeartBeatManager</text>
<polyline fill="none" stroke="black" points="0,-336 134,-336 "/>
<text text-anchor="middle" x="67" y="-324" font-family="Helvetica,sans-Serif" font-size="10.00"> </text>
<polyline fill="none" stroke="black" points="0,-317 134,-317 "/>
<text text-anchor="start" x="8" y="-305" font-family="Helvetica,sans-Serif" font-size="10.00">+ ~NFIHeartBeatManager()</text>
<text text-anchor="start" x="8" y="-294" font-family="Helvetica,sans-Serif" font-size="10.00">+ Self()</text>
<text text-anchor="start" x="8" y="-283" font-family="Helvetica,sans-Serif" font-size="10.00">+ Execute()</text>
<text text-anchor="start" x="8" y="-272" font-family="Helvetica,sans-Serif" font-size="10.00">+ Exist()</text>
<text text-anchor="start" x="8" y="-261" font-family="Helvetica,sans-Serif" font-size="10.00">+ AddHeartBeat()</text>
<text text-anchor="start" x="8" y="-250" font-family="Helvetica,sans-Serif" font-size="10.00">+ RemoveHeartBeat()</text>
<text text-anchor="start" x="8" y="-239" font-family="Helvetica,sans-Serif" font-size="10.00">+ AddHeartBeat()</text>
</a>
</g>
</g>
<!-- Node3&#45;&gt;Node2 -->
<g id="edge1" class="edge"><title>Node3&#45;&gt;Node2</title>
<path fill="none" stroke="midnightblue" d="M112.538,-223.218C122.258,-209.32 132.706,-195 143,-182 155.471,-166.249 169.545,-149.917 183.191,-134.716"/>
<polygon fill="none" stroke="midnightblue" points="109.409,-221.589 106.588,-231.801 115.162,-225.577 109.409,-221.589"/>
</g>
<!-- Node4 -->
<g id="node3" class="node"><title>Node4</title>
<g id="a_node3"><a xlink:href="struct_n_f_g_u_i_d.html" target="_top" xlink:title="{NFGUID\n|+ nData64\l+ nHead64\l|+ NFGUID()\l+ NFGUID()\l+ NFGUID()\l+ NFGUID()\l+ operator=()\l+ GetData()\l+ GetHead()\l+ SetData()\l+ SetHead()\l+ IsNull()\l+ operator==()\l+ operator!=()\l+ operator\&lt;()\l+ ToString()\l+ FromString()\l}">
<polygon fill="white" stroke="black" points="152,-182.5 152,-404.5 232,-404.5 232,-182.5 152,-182.5"/>
<text text-anchor="middle" x="192" y="-392.5" font-family="Helvetica,sans-Serif" font-size="10.00">NFGUID</text>
<polyline fill="none" stroke="black" points="152,-385.5 232,-385.5 "/>
<text text-anchor="start" x="160" y="-373.5" font-family="Helvetica,sans-Serif" font-size="10.00">+ nData64</text>
<text text-anchor="start" x="160" y="-362.5" font-family="Helvetica,sans-Serif" font-size="10.00">+ nHead64</text>
<polyline fill="none" stroke="black" points="152,-355.5 232,-355.5 "/>
<text text-anchor="start" x="160" y="-343.5" font-family="Helvetica,sans-Serif" font-size="10.00">+ NFGUID()</text>
<text text-anchor="start" x="160" y="-332.5" font-family="Helvetica,sans-Serif" font-size="10.00">+ NFGUID()</text>
<text text-anchor="start" x="160" y="-321.5" font-family="Helvetica,sans-Serif" font-size="10.00">+ NFGUID()</text>
<text text-anchor="start" x="160" y="-310.5" font-family="Helvetica,sans-Serif" font-size="10.00">+ NFGUID()</text>
<text text-anchor="start" x="160" y="-299.5" font-family="Helvetica,sans-Serif" font-size="10.00">+ operator=()</text>
<text text-anchor="start" x="160" y="-288.5" font-family="Helvetica,sans-Serif" font-size="10.00">+ GetData()</text>
<text text-anchor="start" x="160" y="-277.5" font-family="Helvetica,sans-Serif" font-size="10.00">+ GetHead()</text>
<text text-anchor="start" x="160" y="-266.5" font-family="Helvetica,sans-Serif" font-size="10.00">+ SetData()</text>
<text text-anchor="start" x="160" y="-255.5" font-family="Helvetica,sans-Serif" font-size="10.00">+ SetHead()</text>
<text text-anchor="start" x="160" y="-244.5" font-family="Helvetica,sans-Serif" font-size="10.00">+ IsNull()</text>
<text text-anchor="start" x="160" y="-233.5" font-family="Helvetica,sans-Serif" font-size="10.00">+ operator==()</text>
<text text-anchor="start" x="160" y="-222.5" font-family="Helvetica,sans-Serif" font-size="10.00">+ operator!=()</text>
<text text-anchor="start" x="160" y="-211.5" font-family="Helvetica,sans-Serif" font-size="10.00">+ operator&lt;()</text>
<text text-anchor="start" x="160" y="-200.5" font-family="Helvetica,sans-Serif" font-size="10.00">+ ToString()</text>
<text text-anchor="start" x="160" y="-189.5" font-family="Helvetica,sans-Serif" font-size="10.00">+ FromString()</text>
</a>
</g>
</g>
<!-- Node4&#45;&gt;Node2 -->
<g id="edge2" class="edge"><title>Node4&#45;&gt;Node2</title>
<path fill="none" stroke="#404040" d="M218.525,-182.469C221.455,-170.315 224.392,-158.131 227.199,-146.489"/>
<polygon fill="none" stroke="#404040" points="227.259,-146.242 224.776,-139.472 230.071,-134.576 232.553,-141.346 227.259,-146.242"/>
<text text-anchor="middle" x="243" y="-156" font-family="Helvetica,sans-Serif" font-size="10.00"> #mSelf</text>
</g>
<!-- Node5 -->
<g id="node4" class="node"><title>Node5</title>
<g id="a_node4"><a xlink:href="class_n_f_map_ex.html" target="_top" xlink:title="{NFMapEx\&lt; std::string,\l NFCHeartBeatElement \&gt;\n|&#45; mObjectList\l&#45; mObjectCurIter\l|+ NFMapEx()\l+ ~NFMapEx()\l+ AddElement()\l+ SetElement()\l+ RemoveElement()\l+ GetElementNude()\l+ GetElement()\l+ FirstNude()\l+ FirstNude()\l+ NextNude()\land 7 more...\l}">
<polygon fill="white" stroke="black" points="250,-199 250,-388 378,-388 378,-199 250,-199"/>
<text text-anchor="start" x="258" y="-376" font-family="Helvetica,sans-Serif" font-size="10.00">NFMapEx&lt; std::string,</text>
<text text-anchor="middle" x="314" y="-365" font-family="Helvetica,sans-Serif" font-size="10.00"> NFCHeartBeatElement &gt;</text>
<polyline fill="none" stroke="black" points="250,-358 378,-358 "/>
<text text-anchor="start" x="258" y="-346" font-family="Helvetica,sans-Serif" font-size="10.00">&#45; mObjectList</text>
<text text-anchor="start" x="258" y="-335" font-family="Helvetica,sans-Serif" font-size="10.00">&#45; mObjectCurIter</text>
<polyline fill="none" stroke="black" points="250,-328 378,-328 "/>
<text text-anchor="start" x="258" y="-316" font-family="Helvetica,sans-Serif" font-size="10.00">+ NFMapEx()</text>
<text text-anchor="start" x="258" y="-305" font-family="Helvetica,sans-Serif" font-size="10.00">+ ~NFMapEx()</text>
<text text-anchor="start" x="258" y="-294" font-family="Helvetica,sans-Serif" font-size="10.00">+ AddElement()</text>
<text text-anchor="start" x="258" y="-283" font-family="Helvetica,sans-Serif" font-size="10.00">+ SetElement()</text>
<text text-anchor="start" x="258" y="-272" font-family="Helvetica,sans-Serif" font-size="10.00">+ RemoveElement()</text>
<text text-anchor="start" x="258" y="-261" font-family="Helvetica,sans-Serif" font-size="10.00">+ GetElementNude()</text>
<text text-anchor="start" x="258" y="-250" font-family="Helvetica,sans-Serif" font-size="10.00">+ GetElement()</text>
<text text-anchor="start" x="258" y="-239" font-family="Helvetica,sans-Serif" font-size="10.00">+ FirstNude()</text>
<text text-anchor="start" x="258" y="-228" font-family="Helvetica,sans-Serif" font-size="10.00">+ FirstNude()</text>
<text text-anchor="start" x="258" y="-217" font-family="Helvetica,sans-Serif" font-size="10.00">+ NextNude()</text>
<text text-anchor="start" x="258" y="-206" font-family="Helvetica,sans-Serif" font-size="10.00">and 7 more...</text>
</a>
</g>
</g>
<!-- Node5&#45;&gt;Node2 -->
<g id="edge3" class="edge"><title>Node5&#45;&gt;Node2</title>
<path fill="none" stroke="#404040" d="M285.556,-198.802C280.233,-181.268 274.724,-163.12 269.569,-146.138"/>
<polygon fill="none" stroke="#404040" points="269.549,-146.073 263.979,-141.494 266.063,-134.59 271.634,-139.17 269.549,-146.073"/>
<text text-anchor="middle" x="337.5" y="-156" font-family="Helvetica,sans-Serif" font-size="10.00"> #mHeartBeatElementMapEx</text>
</g>
<!-- Node6 -->
<g id="node5" class="node"><title>Node6</title>
<g id="a_node5"><a xlink:href="class_n_f_list.html" target="_top" xlink:title="{NFList\&lt; std::string \&gt;\n|# mtObjConfigList\l# mCurIter\l|+ ~NFList()\l+ Add()\l+ Find()\l+ Remove()\l+ ClearAll()\l+ First()\l+ Next()\l+ Get()\l+ Count()\l}">
<polygon fill="white" stroke="black" points="403.5,-215.5 403.5,-371.5 510.5,-371.5 510.5,-215.5 403.5,-215.5"/>
<text text-anchor="middle" x="457" y="-359.5" font-family="Helvetica,sans-Serif" font-size="10.00">NFList&lt; std::string &gt;</text>
<polyline fill="none" stroke="black" points="403.5,-352.5 510.5,-352.5 "/>
<text text-anchor="start" x="411.5" y="-340.5" font-family="Helvetica,sans-Serif" font-size="10.00"># mtObjConfigList</text>
<text text-anchor="start" x="411.5" y="-329.5" font-family="Helvetica,sans-Serif" font-size="10.00"># mCurIter</text>
<polyline fill="none" stroke="black" points="403.5,-322.5 510.5,-322.5 "/>
<text text-anchor="start" x="411.5" y="-310.5" font-family="Helvetica,sans-Serif" font-size="10.00">+ ~NFList()</text>
<text text-anchor="start" x="411.5" y="-299.5" font-family="Helvetica,sans-Serif" font-size="10.00">+ Add()</text>
<text text-anchor="start" x="411.5" y="-288.5" font-family="Helvetica,sans-Serif" font-size="10.00">+ Find()</text>
<text text-anchor="start" x="411.5" y="-277.5" font-family="Helvetica,sans-Serif" font-size="10.00">+ Remove()</text>
<text text-anchor="start" x="411.5" y="-266.5" font-family="Helvetica,sans-Serif" font-size="10.00">+ ClearAll()</text>
<text text-anchor="start" x="411.5" y="-255.5" font-family="Helvetica,sans-Serif" font-size="10.00">+ First()</text>
<text text-anchor="start" x="411.5" y="-244.5" font-family="Helvetica,sans-Serif" font-size="10.00">+ Next()</text>
<text text-anchor="start" x="411.5" y="-233.5" font-family="Helvetica,sans-Serif" font-size="10.00">+ Get()</text>
<text text-anchor="start" x="411.5" y="-222.5" font-family="Helvetica,sans-Serif" font-size="10.00">+ Count()</text>
</a>
</g>
</g>
<!-- Node6&#45;&gt;Node2 -->
<g id="edge4" class="edge"><title>Node6&#45;&gt;Node2</title>
<path fill="none" stroke="#404040" d="M439.359,-215.395C431.553,-193.43 420.501,-170.69 405,-153 383.902,-128.924 354.24,-110.588 326.243,-97.2525"/>
<polygon fill="none" stroke="#404040" points="326.118,-97.1955 318.998,-98.3377 315.205,-92.2047 322.325,-91.0625 326.118,-97.1955"/>
<text text-anchor="middle" x="452.5" y="-156" font-family="Helvetica,sans-Serif" font-size="10.00"> #mRemoveListEx</text>
</g>
</g>
</svg>
