<?xml version="1.0" encoding="UTF-8" standalone="no"?>
<!DOCTYPE svg PUBLIC "-//W3C//DTD SVG 1.1//EN"
 "http://www.w3.org/Graphics/SVG/1.1/DTD/svg11.dtd">
<!-- Generated by graphviz version 2.38.0 (20140413.2041)
 -->
<!-- Title: NFCKernelModule Pages: 1 -->
<svg width="1273pt" height="859pt"
 viewBox="0.00 0.00 1272.50 859.00" xmlns="http://www.w3.org/2000/svg" xmlns:xlink="http://www.w3.org/1999/xlink">
<g id="graph0" class="graph" transform="scale(1 1) rotate(0) translate(4 855)">
<title>NFCKernelModule</title>
<polygon fill="white" stroke="none" points="-4,4 -4,-855 1268.5,-855 1268.5,4 -4,4"/>
<!-- Node4 -->
<g id="node1" class="node"><title>Node4</title>
<polygon fill="#bfbfbf" stroke="black" points="495,-0.5 495,-343.5 662,-343.5 662,-0.5 495,-0.5"/>
<text text-anchor="middle" x="578.5" y="-331.5" font-family="Helvetica,sans-Serif" font-size="10.00">NFCKernelModule</text>
<polyline fill="none" stroke="black" points="495,-324.5 662,-324.5 "/>
<text text-anchor="start" x="503" y="-312.5" font-family="Helvetica,sans-Serif" font-size="10.00"># mtDeleteSelfList</text>
<text text-anchor="start" x="503" y="-301.5" font-family="Helvetica,sans-Serif" font-size="10.00"># mtCommonClassCallBackList</text>
<text text-anchor="start" x="503" y="-290.5" font-family="Helvetica,sans-Serif" font-size="10.00"># mtCommonPropertyCallBackList</text>
<text text-anchor="start" x="503" y="-279.5" font-family="Helvetica,sans-Serif" font-size="10.00"># mtCommonRecordCallBackList</text>
<text text-anchor="start" x="503" y="-268.5" font-family="Helvetica,sans-Serif" font-size="10.00">&#45; mvRandom</text>
<text text-anchor="start" x="503" y="-257.5" font-family="Helvetica,sans-Serif" font-size="10.00">&#45; mnRandomPos</text>
<text text-anchor="start" x="503" y="-246.5" font-family="Helvetica,sans-Serif" font-size="10.00">&#45; nLastTime</text>
<polyline fill="none" stroke="black" points="495,-239.5 662,-239.5 "/>
<text text-anchor="start" x="503" y="-227.5" font-family="Helvetica,sans-Serif" font-size="10.00">+ NFCKernelModule()</text>
<text text-anchor="start" x="503" y="-216.5" font-family="Helvetica,sans-Serif" font-size="10.00">+ ~NFCKernelModule()</text>
<text text-anchor="start" x="503" y="-205.5" font-family="Helvetica,sans-Serif" font-size="10.00">+ Init()</text>
<text text-anchor="start" x="503" y="-194.5" font-family="Helvetica,sans-Serif" font-size="10.00">+ Shut()</text>
<text text-anchor="start" x="503" y="-183.5" font-family="Helvetica,sans-Serif" font-size="10.00">+ BeforeShut()</text>
<text text-anchor="start" x="503" y="-172.5" font-family="Helvetica,sans-Serif" font-size="10.00">+ AfterInit()</text>
<text text-anchor="start" x="503" y="-161.5" font-family="Helvetica,sans-Serif" font-size="10.00">+ Execute()</text>
<text text-anchor="start" x="503" y="-150.5" font-family="Helvetica,sans-Serif" font-size="10.00">+ FindHeartBeat()</text>
<text text-anchor="start" x="503" y="-139.5" font-family="Helvetica,sans-Serif" font-size="10.00">+ RemoveHeartBeat()</text>
<text text-anchor="start" x="503" y="-128.5" font-family="Helvetica,sans-Serif" font-size="10.00">+ IsContainer()</text>
<text text-anchor="start" x="503" y="-117.5" font-family="Helvetica,sans-Serif" font-size="10.00">and 58 more...</text>
<text text-anchor="start" x="503" y="-106.5" font-family="Helvetica,sans-Serif" font-size="10.00"># RegisterCommonClassEvent()</text>
<text text-anchor="start" x="503" y="-95.5" font-family="Helvetica,sans-Serif" font-size="10.00"># RegisterCommonPropertyEvent()</text>
<text text-anchor="start" x="503" y="-84.5" font-family="Helvetica,sans-Serif" font-size="10.00"># RegisterCommonRecordEvent()</text>
<text text-anchor="start" x="503" y="-73.5" font-family="Helvetica,sans-Serif" font-size="10.00"># AddEventCallBack()</text>
<text text-anchor="start" x="503" y="-62.5" font-family="Helvetica,sans-Serif" font-size="10.00"># AddClassCallBack()</text>
<text text-anchor="start" x="503" y="-51.5" font-family="Helvetica,sans-Serif" font-size="10.00"># InitRandom()</text>
<text text-anchor="start" x="503" y="-40.5" font-family="Helvetica,sans-Serif" font-size="10.00"># OnClassCommonEvent()</text>
<text text-anchor="start" x="503" y="-29.5" font-family="Helvetica,sans-Serif" font-size="10.00"># OnPropertyCommonEvent()</text>
<text text-anchor="start" x="503" y="-18.5" font-family="Helvetica,sans-Serif" font-size="10.00"># OnRecordCommonEvent()</text>
<text text-anchor="start" x="503" y="-7.5" font-family="Helvetica,sans-Serif" font-size="10.00"># ProcessMemFree()</text>
</g>
<!-- Node5 -->
<g id="node2" class="node"><title>Node5</title>
<g id="a_node2"><a xlink:href="class_n_f_i_kernel_module.html" target="_top" xlink:title="{NFIKernelModule\n||+ AddHeartBeat()\l+ FindHeartBeat()\l+ RemoveHeartBeat()\l+ AddRecordCallBack()\l+ AddPropertyCallBack()\l+ AddEventCallBack()\l+ AddClassCallBack()\l+ DoEvent()\l+ DoEvent()\l+ RegisterCommonClassEvent()\land 56 more...\l# AddEventCallBack()\l# AddClassCallBack()\l# RegisterCommonClassEvent()\l# RegisterCommonPropertyEvent()\l# RegisterCommonRecordEvent()\l}">
<polygon fill="white" stroke="black" points="945,-391.5 945,-613.5 1112,-613.5 1112,-391.5 945,-391.5"/>
<text text-anchor="middle" x="1028.5" y="-601.5" font-family="Helvetica,sans-Serif" font-size="10.00">NFIKernelModule</text>
<polyline fill="none" stroke="black" points="945,-594.5 1112,-594.5 "/>
<text text-anchor="middle" x="1028.5" y="-582.5" font-family="Helvetica,sans-Serif" font-size="10.00"> </text>
<polyline fill="none" stroke="black" points="945,-575.5 1112,-575.5 "/>
<text text-anchor="start" x="953" y="-563.5" font-family="Helvetica,sans-Serif" font-size="10.00">+ AddHeartBeat()</text>
<text text-anchor="start" x="953" y="-552.5" font-family="Helvetica,sans-Serif" font-size="10.00">+ FindHeartBeat()</text>
<text text-anchor="start" x="953" y="-541.5" font-family="Helvetica,sans-Serif" font-size="10.00">+ RemoveHeartBeat()</text>
<text text-anchor="start" x="953" y="-530.5" font-family="Helvetica,sans-Serif" font-size="10.00">+ AddRecordCallBack()</text>
<text text-anchor="start" x="953" y="-519.5" font-family="Helvetica,sans-Serif" font-size="10.00">+ AddPropertyCallBack()</text>
<text text-anchor="start" x="953" y="-508.5" font-family="Helvetica,sans-Serif" font-size="10.00">+ AddEventCallBack()</text>
<text text-anchor="start" x="953" y="-497.5" font-family="Helvetica,sans-Serif" font-size="10.00">+ AddClassCallBack()</text>
<text text-anchor="start" x="953" y="-486.5" font-family="Helvetica,sans-Serif" font-size="10.00">+ DoEvent()</text>
<text text-anchor="start" x="953" y="-475.5" font-family="Helvetica,sans-Serif" font-size="10.00">+ DoEvent()</text>
<text text-anchor="start" x="953" y="-464.5" font-family="Helvetica,sans-Serif" font-size="10.00">+ RegisterCommonClassEvent()</text>
<text text-anchor="start" x="953" y="-453.5" font-family="Helvetica,sans-Serif" font-size="10.00">and 56 more...</text>
<text text-anchor="start" x="953" y="-442.5" font-family="Helvetica,sans-Serif" font-size="10.00"># AddEventCallBack()</text>
<text text-anchor="start" x="953" y="-431.5" font-family="Helvetica,sans-Serif" font-size="10.00"># AddClassCallBack()</text>
<text text-anchor="start" x="953" y="-420.5" font-family="Helvetica,sans-Serif" font-size="10.00"># RegisterCommonClassEvent()</text>
<text text-anchor="start" x="953" y="-409.5" font-family="Helvetica,sans-Serif" font-size="10.00"># RegisterCommonPropertyEvent()</text>
<text text-anchor="start" x="953" y="-398.5" font-family="Helvetica,sans-Serif" font-size="10.00"># RegisterCommonRecordEvent()</text>
</a>
</g>
</g>
<!-- Node5&#45;&gt;Node4 -->
<g id="edge1" class="edge"><title>Node5&#45;&gt;Node4</title>
<path fill="none" stroke="midnightblue" d="M937.297,-391.69C937.031,-391.459 936.766,-391.229 936.5,-391 851.228,-317.449 738.231,-253.16 662.188,-213.812"/>
<polygon fill="none" stroke="midnightblue" points="935.18,-394.495 944.949,-398.596 939.87,-389.298 935.18,-394.495"/>
</g>
<!-- Node6 -->
<g id="node3" class="node"><title>Node6</title>
<g id="a_node3"><a xlink:href="class_n_f_i_module.html" target="_top" xlink:title="{NFIModule\n|+ strName\l# mbReloading\l|+ NFIModule()\l+ ~NFIModule()\l+ Init()\l+ AfterInit()\l+ CheckConfig()\l+ BeforeShut()\l+ Shut()\l+ Execute()\l+ StartReLoadState()\l+ EndReLoadState()\l+ GetPluginManager()\l+ Loading()\l}">
<polygon fill="white" stroke="black" points="733.5,-661.5 733.5,-850.5 845.5,-850.5 845.5,-661.5 733.5,-661.5"/>
<text text-anchor="middle" x="789.5" y="-838.5" font-family="Helvetica,sans-Serif" font-size="10.00">NFIModule</text>
<polyline fill="none" stroke="black" points="733.5,-831.5 845.5,-831.5 "/>
<text text-anchor="start" x="741.5" y="-819.5" font-family="Helvetica,sans-Serif" font-size="10.00">+ strName</text>
<text text-anchor="start" x="741.5" y="-808.5" font-family="Helvetica,sans-Serif" font-size="10.00"># mbReloading</text>
<polyline fill="none" stroke="black" points="733.5,-801.5 845.5,-801.5 "/>
<text text-anchor="start" x="741.5" y="-789.5" font-family="Helvetica,sans-Serif" font-size="10.00">+ NFIModule()</text>
<text text-anchor="start" x="741.5" y="-778.5" font-family="Helvetica,sans-Serif" font-size="10.00">+ ~NFIModule()</text>
<text text-anchor="start" x="741.5" y="-767.5" font-family="Helvetica,sans-Serif" font-size="10.00">+ Init()</text>
<text text-anchor="start" x="741.5" y="-756.5" font-family="Helvetica,sans-Serif" font-size="10.00">+ AfterInit()</text>
<text text-anchor="start" x="741.5" y="-745.5" font-family="Helvetica,sans-Serif" font-size="10.00">+ CheckConfig()</text>
<text text-anchor="start" x="741.5" y="-734.5" font-family="Helvetica,sans-Serif" font-size="10.00">+ BeforeShut()</text>
<text text-anchor="start" x="741.5" y="-723.5" font-family="Helvetica,sans-Serif" font-size="10.00">+ Shut()</text>
<text text-anchor="start" x="741.5" y="-712.5" font-family="Helvetica,sans-Serif" font-size="10.00">+ Execute()</text>
<text text-anchor="start" x="741.5" y="-701.5" font-family="Helvetica,sans-Serif" font-size="10.00">+ StartReLoadState()</text>
<text text-anchor="start" x="741.5" y="-690.5" font-family="Helvetica,sans-Serif" font-size="10.00">+ EndReLoadState()</text>
<text text-anchor="start" x="741.5" y="-679.5" font-family="Helvetica,sans-Serif" font-size="10.00">+ GetPluginManager()</text>
<text text-anchor="start" x="741.5" y="-668.5" font-family="Helvetica,sans-Serif" font-size="10.00">+ Loading()</text>
</a>
</g>
</g>
<!-- Node6&#45;&gt;Node5 -->
<g id="edge2" class="edge"><title>Node6&#45;&gt;Node5</title>
<path fill="none" stroke="midnightblue" d="M853.327,-701.863C873.841,-683.853 896.23,-663.174 915.5,-643 925.295,-632.745 935.178,-621.729 944.808,-610.546"/>
<polygon fill="none" stroke="midnightblue" points="850.805,-699.419 845.567,-708.629 855.405,-704.695 850.805,-699.419"/>
</g>
<!-- Node7 -->
<g id="node4" class="node"><title>Node7</title>
<g id="a_node4"><a xlink:href="class_n_f_i_plugin_manager.html" target="_top" xlink:title="{NFIPluginManager\n||+ NFIPluginManager()\l+ FindModule()\l+ Registered()\l+ UnRegistered()\l+ FindPlugin()\l+ AddModule()\l+ RemoveModule()\l+ FindModule()\l+ AppID()\l+ GetInitTime()\l+ GetNowTime()\l+ GetConfigPath()\l+ SetConfigName()\l}">
<polygon fill="white" stroke="black" points="816,-408 816,-597 927,-597 927,-408 816,-408"/>
<text text-anchor="middle" x="871.5" y="-585" font-family="Helvetica,sans-Serif" font-size="10.00">NFIPluginManager</text>
<polyline fill="none" stroke="black" points="816,-578 927,-578 "/>
<text text-anchor="middle" x="871.5" y="-566" font-family="Helvetica,sans-Serif" font-size="10.00"> </text>
<polyline fill="none" stroke="black" points="816,-559 927,-559 "/>
<text text-anchor="start" x="824" y="-547" font-family="Helvetica,sans-Serif" font-size="10.00">+ NFIPluginManager()</text>
<text text-anchor="start" x="824" y="-536" font-family="Helvetica,sans-Serif" font-size="10.00">+ FindModule()</text>
<text text-anchor="start" x="824" y="-525" font-family="Helvetica,sans-Serif" font-size="10.00">+ Registered()</text>
<text text-anchor="start" x="824" y="-514" font-family="Helvetica,sans-Serif" font-size="10.00">+ UnRegistered()</text>
<text text-anchor="start" x="824" y="-503" font-family="Helvetica,sans-Serif" font-size="10.00">+ FindPlugin()</text>
<text text-anchor="start" x="824" y="-492" font-family="Helvetica,sans-Serif" font-size="10.00">+ AddModule()</text>
<text text-anchor="start" x="824" y="-481" font-family="Helvetica,sans-Serif" font-size="10.00">+ RemoveModule()</text>
<text text-anchor="start" x="824" y="-470" font-family="Helvetica,sans-Serif" font-size="10.00">+ FindModule()</text>
<text text-anchor="start" x="824" y="-459" font-family="Helvetica,sans-Serif" font-size="10.00">+ AppID()</text>
<text text-anchor="start" x="824" y="-448" font-family="Helvetica,sans-Serif" font-size="10.00">+ GetInitTime()</text>
<text text-anchor="start" x="824" y="-437" font-family="Helvetica,sans-Serif" font-size="10.00">+ GetNowTime()</text>
<text text-anchor="start" x="824" y="-426" font-family="Helvetica,sans-Serif" font-size="10.00">+ GetConfigPath()</text>
<text text-anchor="start" x="824" y="-415" font-family="Helvetica,sans-Serif" font-size="10.00">+ SetConfigName()</text>
</a>
</g>
</g>
<!-- Node6&#45;&gt;Node7 -->
<g id="edge4" class="edge"><title>Node6&#45;&gt;Node7</title>
<path fill="none" stroke="midnightblue" d="M823.263,-651.447C829.118,-633.488 835.177,-614.906 840.941,-597.228"/>
<polygon fill="none" stroke="midnightblue" points="819.806,-650.758 820.034,-661.351 826.461,-652.928 819.806,-650.758"/>
</g>
<!-- Node10 -->
<g id="node7" class="node"><title>Node10</title>
<g id="a_node7"><a xlink:href="class_n_f_i_scene_module.html" target="_top" xlink:title="{NFISceneModule\n||+ ~NFISceneModule()\l}">
<polygon fill="white" stroke="black" points="22.5,-474 22.5,-531 134.5,-531 134.5,-474 22.5,-474"/>
<text text-anchor="middle" x="78.5" y="-519" font-family="Helvetica,sans-Serif" font-size="10.00">NFISceneModule</text>
<polyline fill="none" stroke="black" points="22.5,-512 134.5,-512 "/>
<text text-anchor="middle" x="78.5" y="-500" font-family="Helvetica,sans-Serif" font-size="10.00"> </text>
<polyline fill="none" stroke="black" points="22.5,-493 134.5,-493 "/>
<text text-anchor="start" x="30.5" y="-481" font-family="Helvetica,sans-Serif" font-size="10.00">+ ~NFISceneModule()</text>
</a>
</g>
</g>
<!-- Node6&#45;&gt;Node10 -->
<g id="edge8" class="edge"><title>Node6&#45;&gt;Node10</title>
<path fill="none" stroke="midnightblue" d="M724.4,-719.463C683.889,-698.987 630.045,-674.67 579.5,-661 485.429,-635.559 225.373,-666.852 143.5,-614 113.955,-594.928 96.1199,-557.306 86.7944,-531.297"/>
<polygon fill="none" stroke="midnightblue" points="722.857,-722.606 733.355,-724.037 726.041,-716.372 722.857,-722.606"/>
</g>
<!-- Node12 -->
<g id="node9" class="node"><title>Node12</title>
<g id="a_node9"><a xlink:href="class_n_f_i_class_module.html" target="_top" xlink:title="{NFIClassModule\n||+ ~NFIClassModule()\l+ Load()\l+ Save()\l+ Clear()\l+ AddClassCallBack()\l+ DoEvent()\l+ AddClassCallBack()\l+ GetClassPropertyManager()\l+ GetClassRecordManager()\l+ GetClassComponentManager()\l}">
<polygon fill="white" stroke="black" points="433,-424.5 433,-580.5 592,-580.5 592,-424.5 433,-424.5"/>
<text text-anchor="middle" x="512.5" y="-568.5" font-family="Helvetica,sans-Serif" font-size="10.00">NFIClassModule</text>
<polyline fill="none" stroke="black" points="433,-561.5 592,-561.5 "/>
<text text-anchor="middle" x="512.5" y="-549.5" font-family="Helvetica,sans-Serif" font-size="10.00"> </text>
<polyline fill="none" stroke="black" points="433,-542.5 592,-542.5 "/>
<text text-anchor="start" x="441" y="-530.5" font-family="Helvetica,sans-Serif" font-size="10.00">+ ~NFIClassModule()</text>
<text text-anchor="start" x="441" y="-519.5" font-family="Helvetica,sans-Serif" font-size="10.00">+ Load()</text>
<text text-anchor="start" x="441" y="-508.5" font-family="Helvetica,sans-Serif" font-size="10.00">+ Save()</text>
<text text-anchor="start" x="441" y="-497.5" font-family="Helvetica,sans-Serif" font-size="10.00">+ Clear()</text>
<text text-anchor="start" x="441" y="-486.5" font-family="Helvetica,sans-Serif" font-size="10.00">+ AddClassCallBack()</text>
<text text-anchor="start" x="441" y="-475.5" font-family="Helvetica,sans-Serif" font-size="10.00">+ DoEvent()</text>
<text text-anchor="start" x="441" y="-464.5" font-family="Helvetica,sans-Serif" font-size="10.00">+ AddClassCallBack()</text>
<text text-anchor="start" x="441" y="-453.5" font-family="Helvetica,sans-Serif" font-size="10.00">+ GetClassPropertyManager()</text>
<text text-anchor="start" x="441" y="-442.5" font-family="Helvetica,sans-Serif" font-size="10.00">+ GetClassRecordManager()</text>
<text text-anchor="start" x="441" y="-431.5" font-family="Helvetica,sans-Serif" font-size="10.00">+ GetClassComponentManager()</text>
</a>
</g>
</g>
<!-- Node6&#45;&gt;Node12 -->
<g id="edge11" class="edge"><title>Node6&#45;&gt;Node12</title>
<path fill="none" stroke="midnightblue" d="M724.748,-712.463C686.961,-686.209 639.419,-650.631 601.5,-614 590.87,-603.731 580.334,-592.206 570.432,-580.577"/>
<polygon fill="none" stroke="midnightblue" points="722.927,-715.458 733.146,-718.256 726.902,-709.696 722.927,-715.458"/>
</g>
<!-- Node14 -->
<g id="node11" class="node"><title>Node14</title>
<g id="a_node11"><a xlink:href="class_n_f_i_element_module.html" target="_top" xlink:title="{NFIElementModule\n||+ Load()\l+ Save()\l+ Clear()\l+ ExistElement()\l+ ExistElement()\l+ GetPropertyManager()\l+ GetRecordManager()\l+ GetComponentManager()\l+ GetPropertyInt()\l+ GetPropertyFloat()\l+ GetPropertyString()\l}">
<polygon fill="white" stroke="black" points="1130.5,-419 1130.5,-586 1264.5,-586 1264.5,-419 1130.5,-419"/>
<text text-anchor="middle" x="1197.5" y="-574" font-family="Helvetica,sans-Serif" font-size="10.00">NFIElementModule</text>
<polyline fill="none" stroke="black" points="1130.5,-567 1264.5,-567 "/>
<text text-anchor="middle" x="1197.5" y="-555" font-family="Helvetica,sans-Serif" font-size="10.00"> </text>
<polyline fill="none" stroke="black" points="1130.5,-548 1264.5,-548 "/>
<text text-anchor="start" x="1138.5" y="-536" font-family="Helvetica,sans-Serif" font-size="10.00">+ Load()</text>
<text text-anchor="start" x="1138.5" y="-525" font-family="Helvetica,sans-Serif" font-size="10.00">+ Save()</text>
<text text-anchor="start" x="1138.5" y="-514" font-family="Helvetica,sans-Serif" font-size="10.00">+ Clear()</text>
<text text-anchor="start" x="1138.5" y="-503" font-family="Helvetica,sans-Serif" font-size="10.00">+ ExistElement()</text>
<text text-anchor="start" x="1138.5" y="-492" font-family="Helvetica,sans-Serif" font-size="10.00">+ ExistElement()</text>
<text text-anchor="start" x="1138.5" y="-481" font-family="Helvetica,sans-Serif" font-size="10.00">+ GetPropertyManager()</text>
<text text-anchor="start" x="1138.5" y="-470" font-family="Helvetica,sans-Serif" font-size="10.00">+ GetRecordManager()</text>
<text text-anchor="start" x="1138.5" y="-459" font-family="Helvetica,sans-Serif" font-size="10.00">+ GetComponentManager()</text>
<text text-anchor="start" x="1138.5" y="-448" font-family="Helvetica,sans-Serif" font-size="10.00">+ GetPropertyInt()</text>
<text text-anchor="start" x="1138.5" y="-437" font-family="Helvetica,sans-Serif" font-size="10.00">+ GetPropertyFloat()</text>
<text text-anchor="start" x="1138.5" y="-426" font-family="Helvetica,sans-Serif" font-size="10.00">+ GetPropertyString()</text>
</a>
</g>
</g>
<!-- Node6&#45;&gt;Node14 -->
<g id="edge14" class="edge"><title>Node6&#45;&gt;Node14</title>
<path fill="none" stroke="midnightblue" d="M855.519,-738.906C927.038,-718.928 1041.6,-679.27 1121.5,-614 1131.33,-605.972 1140.41,-596.354 1148.63,-586.187"/>
<polygon fill="none" stroke="midnightblue" points="854.438,-735.573 845.721,-741.595 856.291,-742.324 854.438,-735.573"/>
</g>
<!-- Node15 -->
<g id="node12" class="node"><title>Node15</title>
<g id="a_node12"><a xlink:href="class_n_f_i_u_u_i_d_module.html" target="_top" xlink:title="{NFIUUIDModule\n||+ CreateGUID()\l+ GetIdentID()\l+ SetIdentID()\l}">
<polygon fill="white" stroke="black" points="610.5,-463 610.5,-542 696.5,-542 696.5,-463 610.5,-463"/>
<text text-anchor="middle" x="653.5" y="-530" font-family="Helvetica,sans-Serif" font-size="10.00">NFIUUIDModule</text>
<polyline fill="none" stroke="black" points="610.5,-523 696.5,-523 "/>
<text text-anchor="middle" x="653.5" y="-511" font-family="Helvetica,sans-Serif" font-size="10.00"> </text>
<polyline fill="none" stroke="black" points="610.5,-504 696.5,-504 "/>
<text text-anchor="start" x="618.5" y="-492" font-family="Helvetica,sans-Serif" font-size="10.00">+ CreateGUID()</text>
<text text-anchor="start" x="618.5" y="-481" font-family="Helvetica,sans-Serif" font-size="10.00">+ GetIdentID()</text>
<text text-anchor="start" x="618.5" y="-470" font-family="Helvetica,sans-Serif" font-size="10.00">+ SetIdentID()</text>
</a>
</g>
</g>
<!-- Node6&#45;&gt;Node15 -->
<g id="edge16" class="edge"><title>Node6&#45;&gt;Node15</title>
<path fill="none" stroke="midnightblue" d="M728.142,-654.714C720.315,-641.145 712.576,-627.312 705.5,-614 693.011,-590.504 680.27,-563.489 670.525,-542.052"/>
<polygon fill="none" stroke="midnightblue" points="725.244,-656.694 733.291,-663.585 731.298,-653.179 725.244,-656.694"/>
</g>
<!-- Node16 -->
<g id="node13" class="node"><title>Node16</title>
<g id="a_node13"><a xlink:href="class_n_f_i_log_module.html" target="_top" xlink:title="{NFILogModule\n||+ LogDebug()\l+ LogInfo()\l+ LogWarning()\l+ LogError()\l+ LogFatal()\l+ LogDebug()\l+ LogInfo()\l+ LogWarning()\l+ LogError()\l+ LogFatal()\land 8 more...\l}">
<polygon fill="white" stroke="black" points="715,-419 715,-586 798,-586 798,-419 715,-419"/>
<text text-anchor="middle" x="756.5" y="-574" font-family="Helvetica,sans-Serif" font-size="10.00">NFILogModule</text>
<polyline fill="none" stroke="black" points="715,-567 798,-567 "/>
<text text-anchor="middle" x="756.5" y="-555" font-family="Helvetica,sans-Serif" font-size="10.00"> </text>
<polyline fill="none" stroke="black" points="715,-548 798,-548 "/>
<text text-anchor="start" x="723" y="-536" font-family="Helvetica,sans-Serif" font-size="10.00">+ LogDebug()</text>
<text text-anchor="start" x="723" y="-525" font-family="Helvetica,sans-Serif" font-size="10.00">+ LogInfo()</text>
<text text-anchor="start" x="723" y="-514" font-family="Helvetica,sans-Serif" font-size="10.00">+ LogWarning()</text>
<text text-anchor="start" x="723" y="-503" font-family="Helvetica,sans-Serif" font-size="10.00">+ LogError()</text>
<text text-anchor="start" x="723" y="-492" font-family="Helvetica,sans-Serif" font-size="10.00">+ LogFatal()</text>
<text text-anchor="start" x="723" y="-481" font-family="Helvetica,sans-Serif" font-size="10.00">+ LogDebug()</text>
<text text-anchor="start" x="723" y="-470" font-family="Helvetica,sans-Serif" font-size="10.00">+ LogInfo()</text>
<text text-anchor="start" x="723" y="-459" font-family="Helvetica,sans-Serif" font-size="10.00">+ LogWarning()</text>
<text text-anchor="start" x="723" y="-448" font-family="Helvetica,sans-Serif" font-size="10.00">+ LogError()</text>
<text text-anchor="start" x="723" y="-437" font-family="Helvetica,sans-Serif" font-size="10.00">+ LogFatal()</text>
<text text-anchor="start" x="723" y="-426" font-family="Helvetica,sans-Serif" font-size="10.00">and 8 more...</text>
</a>
</g>
</g>
<!-- Node6&#45;&gt;Node16 -->
<g id="edge18" class="edge"><title>Node6&#45;&gt;Node16</title>
<path fill="none" stroke="midnightblue" d="M775.909,-651.417C773.051,-629.636 770.073,-606.939 767.332,-586.052"/>
<polygon fill="none" stroke="midnightblue" points="772.441,-651.891 777.212,-661.351 779.381,-650.98 772.441,-651.891"/>
</g>
<!-- Node7&#45;&gt;Node6 -->
<g id="edge3" class="edge"><title>Node7&#45;&gt;Node6</title>
<path fill="none" stroke="#404040" d="M844.878,-597.182C840.251,-612.545 835.36,-628.256 830.5,-643 829.759,-645.249 829.002,-647.521 828.232,-649.809"/>
<polygon fill="none" stroke="#404040" points="828.168,-649.996 830.015,-656.967 824.291,-661.352 822.444,-654.382 828.168,-649.996"/>
<text text-anchor="middle" x="872" y="-635" font-family="Helvetica,sans-Serif" font-size="10.00"> #pPluginManager</text>
</g>
<!-- Node8 -->
<g id="node5" class="node"><title>Node8</title>
<g id="a_node5"><a xlink:href="class_n_f_map_ex.html" target="_top" xlink:title="{NFMapEx\&lt; NFGUID, NFIObject \&gt;\n|&#45; mObjectList\l&#45; mObjectCurIter\l|+ NFMapEx()\l+ ~NFMapEx()\l+ AddElement()\l+ SetElement()\l+ RemoveElement()\l+ GetElementNude()\l+ GetElement()\l+ FirstNude()\l+ FirstNude()\l+ NextNude()\land 7 more...\l}">
<polygon fill="white" stroke="black" points="152.5,-413.5 152.5,-591.5 316.5,-591.5 316.5,-413.5 152.5,-413.5"/>
<text text-anchor="middle" x="234.5" y="-579.5" font-family="Helvetica,sans-Serif" font-size="10.00">NFMapEx&lt; NFGUID, NFIObject &gt;</text>
<polyline fill="none" stroke="black" points="152.5,-572.5 316.5,-572.5 "/>
<text text-anchor="start" x="160.5" y="-560.5" font-family="Helvetica,sans-Serif" font-size="10.00">&#45; mObjectList</text>
<text text-anchor="start" x="160.5" y="-549.5" font-family="Helvetica,sans-Serif" font-size="10.00">&#45; mObjectCurIter</text>
<polyline fill="none" stroke="black" points="152.5,-542.5 316.5,-542.5 "/>
<text text-anchor="start" x="160.5" y="-530.5" font-family="Helvetica,sans-Serif" font-size="10.00">+ NFMapEx()</text>
<text text-anchor="start" x="160.5" y="-519.5" font-family="Helvetica,sans-Serif" font-size="10.00">+ ~NFMapEx()</text>
<text text-anchor="start" x="160.5" y="-508.5" font-family="Helvetica,sans-Serif" font-size="10.00">+ AddElement()</text>
<text text-anchor="start" x="160.5" y="-497.5" font-family="Helvetica,sans-Serif" font-size="10.00">+ SetElement()</text>
<text text-anchor="start" x="160.5" y="-486.5" font-family="Helvetica,sans-Serif" font-size="10.00">+ RemoveElement()</text>
<text text-anchor="start" x="160.5" y="-475.5" font-family="Helvetica,sans-Serif" font-size="10.00">+ GetElementNude()</text>
<text text-anchor="start" x="160.5" y="-464.5" font-family="Helvetica,sans-Serif" font-size="10.00">+ GetElement()</text>
<text text-anchor="start" x="160.5" y="-453.5" font-family="Helvetica,sans-Serif" font-size="10.00">+ FirstNude()</text>
<text text-anchor="start" x="160.5" y="-442.5" font-family="Helvetica,sans-Serif" font-size="10.00">+ FirstNude()</text>
<text text-anchor="start" x="160.5" y="-431.5" font-family="Helvetica,sans-Serif" font-size="10.00">+ NextNude()</text>
<text text-anchor="start" x="160.5" y="-420.5" font-family="Helvetica,sans-Serif" font-size="10.00">and 7 more...</text>
</a>
</g>
</g>
<!-- Node8&#45;&gt;Node4 -->
<g id="edge5" class="edge"><title>Node8&#45;&gt;Node4</title>
<path fill="none" stroke="midnightblue" d="M311.479,-405.873C316.138,-400.765 320.83,-395.775 325.5,-391 378.707,-336.593 443.858,-280.672 494.721,-239.09"/>
<polygon fill="none" stroke="midnightblue" points="308.769,-403.653 304.685,-413.429 313.974,-408.334 308.769,-403.653"/>
</g>
<!-- Node9 -->
<g id="node6" class="node"><title>Node9</title>
<g id="a_node6"><a xlink:href="struct_n_f_g_u_i_d.html" target="_top" xlink:title="{NFGUID\n|+ nData64\l+ nHead64\l|+ NFGUID()\l+ NFGUID()\l+ NFGUID()\l+ NFGUID()\l+ operator=()\l+ GetData()\l+ GetHead()\l+ SetData()\l+ SetHead()\l+ IsNull()\l+ operator==()\l+ operator!=()\l+ operator\&lt;()\l+ ToString()\l+ FromString()\l}">
<polygon fill="white" stroke="black" points="334.5,-391.5 334.5,-613.5 414.5,-613.5 414.5,-391.5 334.5,-391.5"/>
<text text-anchor="middle" x="374.5" y="-601.5" font-family="Helvetica,sans-Serif" font-size="10.00">NFGUID</text>
<polyline fill="none" stroke="black" points="334.5,-594.5 414.5,-594.5 "/>
<text text-anchor="start" x="342.5" y="-582.5" font-family="Helvetica,sans-Serif" font-size="10.00">+ nData64</text>
<text text-anchor="start" x="342.5" y="-571.5" font-family="Helvetica,sans-Serif" font-size="10.00">+ nHead64</text>
<polyline fill="none" stroke="black" points="334.5,-564.5 414.5,-564.5 "/>
<text text-anchor="start" x="342.5" y="-552.5" font-family="Helvetica,sans-Serif" font-size="10.00">+ NFGUID()</text>
<text text-anchor="start" x="342.5" y="-541.5" font-family="Helvetica,sans-Serif" font-size="10.00">+ NFGUID()</text>
<text text-anchor="start" x="342.5" y="-530.5" font-family="Helvetica,sans-Serif" font-size="10.00">+ NFGUID()</text>
<text text-anchor="start" x="342.5" y="-519.5" font-family="Helvetica,sans-Serif" font-size="10.00">+ NFGUID()</text>
<text text-anchor="start" x="342.5" y="-508.5" font-family="Helvetica,sans-Serif" font-size="10.00">+ operator=()</text>
<text text-anchor="start" x="342.5" y="-497.5" font-family="Helvetica,sans-Serif" font-size="10.00">+ GetData()</text>
<text text-anchor="start" x="342.5" y="-486.5" font-family="Helvetica,sans-Serif" font-size="10.00">+ GetHead()</text>
<text text-anchor="start" x="342.5" y="-475.5" font-family="Helvetica,sans-Serif" font-size="10.00">+ SetData()</text>
<text text-anchor="start" x="342.5" y="-464.5" font-family="Helvetica,sans-Serif" font-size="10.00">+ SetHead()</text>
<text text-anchor="start" x="342.5" y="-453.5" font-family="Helvetica,sans-Serif" font-size="10.00">+ IsNull()</text>
<text text-anchor="start" x="342.5" y="-442.5" font-family="Helvetica,sans-Serif" font-size="10.00">+ operator==()</text>
<text text-anchor="start" x="342.5" y="-431.5" font-family="Helvetica,sans-Serif" font-size="10.00">+ operator!=()</text>
<text text-anchor="start" x="342.5" y="-420.5" font-family="Helvetica,sans-Serif" font-size="10.00">+ operator&lt;()</text>
<text text-anchor="start" x="342.5" y="-409.5" font-family="Helvetica,sans-Serif" font-size="10.00">+ ToString()</text>
<text text-anchor="start" x="342.5" y="-398.5" font-family="Helvetica,sans-Serif" font-size="10.00">+ FromString()</text>
</a>
</g>
</g>
<!-- Node9&#45;&gt;Node4 -->
<g id="edge6" class="edge"><title>Node9&#45;&gt;Node4</title>
<path fill="none" stroke="#404040" d="M414.503,-407.697C417.428,-401.986 420.436,-396.379 423.5,-391 442.528,-357.592 465.459,-322.992 487.779,-291.466"/>
<polygon fill="none" stroke="#404040" points="488.031,-291.113 488.259,-283.905 494.999,-281.343 494.772,-288.551 488.031,-291.113"/>
<text text-anchor="middle" x="479" y="-365" font-family="Helvetica,sans-Serif" font-size="10.00"> &#45;mnCurExeObject</text>
</g>
<!-- Node10&#45;&gt;Node4 -->
<g id="edge7" class="edge"><title>Node10&#45;&gt;Node4</title>
<path fill="none" stroke="#404040" d="M89.5197,-473.525C100.267,-449.185 118.626,-414.257 143.5,-391 242.419,-298.51 388.036,-236.369 483.071,-202.837"/>
<polygon fill="none" stroke="#404040" points="483.359,-202.737 487.71,-196.986 494.692,-198.79 490.341,-204.541 483.359,-202.737"/>
<text text-anchor="middle" x="216" y="-365" font-family="Helvetica,sans-Serif" font-size="10.00"> &#45;m_pSceneModule</text>
</g>
<!-- Node11 -->
<g id="node8" class="node"><title>Node11</title>
<g id="a_node8"><a xlink:href="class_n_f_map_ex.html" target="_top" xlink:title="{NFMapEx\&lt; int, NFCSceneInfo \&gt;\n|&#45; mObjectList\l&#45; mObjectCurIter\l|+ NFMapEx()\l+ ~NFMapEx()\l+ AddElement()\l+ SetElement()\l+ RemoveElement()\l+ GetElementNude()\l+ GetElement()\l+ FirstNude()\l+ FirstNude()\l+ NextNude()\land 7 more...\l}">
<polygon fill="white" stroke="black" points="0,-667 0,-845 157,-845 157,-667 0,-667"/>
<text text-anchor="middle" x="78.5" y="-833" font-family="Helvetica,sans-Serif" font-size="10.00">NFMapEx&lt; int, NFCSceneInfo &gt;</text>
<polyline fill="none" stroke="black" points="0,-826 157,-826 "/>
<text text-anchor="start" x="8" y="-814" font-family="Helvetica,sans-Serif" font-size="10.00">&#45; mObjectList</text>
<text text-anchor="start" x="8" y="-803" font-family="Helvetica,sans-Serif" font-size="10.00">&#45; mObjectCurIter</text>
<polyline fill="none" stroke="black" points="0,-796 157,-796 "/>
<text text-anchor="start" x="8" y="-784" font-family="Helvetica,sans-Serif" font-size="10.00">+ NFMapEx()</text>
<text text-anchor="start" x="8" y="-773" font-family="Helvetica,sans-Serif" font-size="10.00">+ ~NFMapEx()</text>
<text text-anchor="start" x="8" y="-762" font-family="Helvetica,sans-Serif" font-size="10.00">+ AddElement()</text>
<text text-anchor="start" x="8" y="-751" font-family="Helvetica,sans-Serif" font-size="10.00">+ SetElement()</text>
<text text-anchor="start" x="8" y="-740" font-family="Helvetica,sans-Serif" font-size="10.00">+ RemoveElement()</text>
<text text-anchor="start" x="8" y="-729" font-family="Helvetica,sans-Serif" font-size="10.00">+ GetElementNude()</text>
<text text-anchor="start" x="8" y="-718" font-family="Helvetica,sans-Serif" font-size="10.00">+ GetElement()</text>
<text text-anchor="start" x="8" y="-707" font-family="Helvetica,sans-Serif" font-size="10.00">+ FirstNude()</text>
<text text-anchor="start" x="8" y="-696" font-family="Helvetica,sans-Serif" font-size="10.00">+ FirstNude()</text>
<text text-anchor="start" x="8" y="-685" font-family="Helvetica,sans-Serif" font-size="10.00">+ NextNude()</text>
<text text-anchor="start" x="8" y="-674" font-family="Helvetica,sans-Serif" font-size="10.00">and 7 more...</text>
</a>
</g>
</g>
<!-- Node11&#45;&gt;Node10 -->
<g id="edge9" class="edge"><title>Node11&#45;&gt;Node10</title>
<path fill="none" stroke="midnightblue" d="M78.5,-656.547C78.5,-611.448 78.5,-561.428 78.5,-531.232"/>
<polygon fill="none" stroke="midnightblue" points="75.0001,-656.684 78.5,-666.684 82.0001,-656.684 75.0001,-656.684"/>
</g>
<!-- Node12&#45;&gt;Node4 -->
<g id="edge10" class="edge"><title>Node12&#45;&gt;Node4</title>
<path fill="none" stroke="#404040" d="M525.103,-424.265C528.601,-403.973 532.534,-382.133 536.5,-362 536.926,-359.837 537.358,-357.661 537.795,-355.474"/>
<polygon fill="none" stroke="#404040" points="537.801,-355.444 535.069,-348.771 540.178,-343.682 542.91,-350.356 537.801,-355.444"/>
<text text-anchor="middle" x="577.5" y="-365" font-family="Helvetica,sans-Serif" font-size="10.00"> &#45;m_pClassModule</text>
</g>
<!-- Node13 -->
<g id="node10" class="node"><title>Node13</title>
<g id="a_node10"><a xlink:href="class_n_f_map_ex.html" target="_top" xlink:title="{NFMapEx\&lt; std::string,\l NFIClass \&gt;\n|&#45; mObjectList\l&#45; mObjectCurIter\l|+ NFMapEx()\l+ ~NFMapEx()\l+ AddElement()\l+ SetElement()\l+ RemoveElement()\l+ GetElementNude()\l+ GetElement()\l+ FirstNude()\l+ FirstNude()\l+ NextNude()\land 7 more...\l}">
<polygon fill="white" stroke="black" points="454.5,-661.5 454.5,-850.5 570.5,-850.5 570.5,-661.5 454.5,-661.5"/>
<text text-anchor="start" x="462.5" y="-838.5" font-family="Helvetica,sans-Serif" font-size="10.00">NFMapEx&lt; std::string,</text>
<text text-anchor="middle" x="512.5" y="-827.5" font-family="Helvetica,sans-Serif" font-size="10.00"> NFIClass &gt;</text>
<polyline fill="none" stroke="black" points="454.5,-820.5 570.5,-820.5 "/>
<text text-anchor="start" x="462.5" y="-808.5" font-family="Helvetica,sans-Serif" font-size="10.00">&#45; mObjectList</text>
<text text-anchor="start" x="462.5" y="-797.5" font-family="Helvetica,sans-Serif" font-size="10.00">&#45; mObjectCurIter</text>
<polyline fill="none" stroke="black" points="454.5,-790.5 570.5,-790.5 "/>
<text text-anchor="start" x="462.5" y="-778.5" font-family="Helvetica,sans-Serif" font-size="10.00">+ NFMapEx()</text>
<text text-anchor="start" x="462.5" y="-767.5" font-family="Helvetica,sans-Serif" font-size="10.00">+ ~NFMapEx()</text>
<text text-anchor="start" x="462.5" y="-756.5" font-family="Helvetica,sans-Serif" font-size="10.00">+ AddElement()</text>
<text text-anchor="start" x="462.5" y="-745.5" font-family="Helvetica,sans-Serif" font-size="10.00">+ SetElement()</text>
<text text-anchor="start" x="462.5" y="-734.5" font-family="Helvetica,sans-Serif" font-size="10.00">+ RemoveElement()</text>
<text text-anchor="start" x="462.5" y="-723.5" font-family="Helvetica,sans-Serif" font-size="10.00">+ GetElementNude()</text>
<text text-anchor="start" x="462.5" y="-712.5" font-family="Helvetica,sans-Serif" font-size="10.00">+ GetElement()</text>
<text text-anchor="start" x="462.5" y="-701.5" font-family="Helvetica,sans-Serif" font-size="10.00">+ FirstNude()</text>
<text text-anchor="start" x="462.5" y="-690.5" font-family="Helvetica,sans-Serif" font-size="10.00">+ FirstNude()</text>
<text text-anchor="start" x="462.5" y="-679.5" font-family="Helvetica,sans-Serif" font-size="10.00">+ NextNude()</text>
<text text-anchor="start" x="462.5" y="-668.5" font-family="Helvetica,sans-Serif" font-size="10.00">and 7 more...</text>
</a>
</g>
</g>
<!-- Node13&#45;&gt;Node12 -->
<g id="edge12" class="edge"><title>Node13&#45;&gt;Node12</title>
<path fill="none" stroke="midnightblue" d="M512.5,-651.314C512.5,-627.72 512.5,-603.055 512.5,-580.785"/>
<polygon fill="none" stroke="midnightblue" points="509,-651.351 512.5,-661.351 516,-651.351 509,-651.351"/>
</g>
<!-- Node14&#45;&gt;Node4 -->
<g id="edge13" class="edge"><title>Node14&#45;&gt;Node4</title>
<path fill="none" stroke="#404040" d="M1149.01,-418.91C1140.71,-408.667 1131.5,-399.003 1121.5,-391 986.12,-282.628 789.839,-221.851 674.077,-193.382"/>
<polygon fill="none" stroke="#404040" points="673.758,-193.305 666.985,-195.781 662.095,-190.481 668.868,-188.005 673.758,-193.305"/>
<text text-anchor="middle" x="1143" y="-365" font-family="Helvetica,sans-Serif" font-size="10.00"> &#45;m_pElementModule</text>
</g>
<!-- Node15&#45;&gt;Node4 -->
<g id="edge15" class="edge"><title>Node15&#45;&gt;Node4</title>
<path fill="none" stroke="#404040" d="M644.676,-462.851C638.389,-435.315 629.435,-396.097 620.138,-355.375"/>
<polygon fill="none" stroke="#404040" points="620.114,-355.269 614.879,-350.31 617.443,-343.57 622.678,-348.529 620.114,-355.269"/>
<text text-anchor="middle" x="663" y="-365" font-family="Helvetica,sans-Serif" font-size="10.00"> &#45;m_pUUIDModule</text>
</g>
<!-- Node16&#45;&gt;Node4 -->
<g id="edge17" class="edge"><title>Node16&#45;&gt;Node4</title>
<path fill="none" stroke="#404040" d="M730.771,-418.913C723.773,-399.834 715.583,-379.894 706.5,-362 695.478,-340.287 682.373,-318.109 668.82,-296.94"/>
<polygon fill="none" stroke="#404040" points="668.667,-296.703 662.046,-293.846 662.138,-286.635 668.758,-289.493 668.667,-296.703"/>
<text text-anchor="middle" x="749" y="-365" font-family="Helvetica,sans-Serif" font-size="10.00"> &#45;m_pLogModule</text>
</g>
</g>
</svg>
