<?xml version="1.0" encoding="UTF-8" standalone="no"?>
<!DOCTYPE svg PUBLIC "-//W3C//DTD SVG 1.1//EN"
 "http://www.w3.org/Graphics/SVG/1.1/DTD/svg11.dtd">
<!-- Generated by graphviz version 2.38.0 (20140413.2041)
 -->
<!-- Title: NFCLoginLogicModule Pages: 1 -->
<svg width="433pt" height="595pt"
 viewBox="0.00 0.00 432.50 595.00" xmlns="http://www.w3.org/2000/svg" xmlns:xlink="http://www.w3.org/1999/xlink">
<g id="graph0" class="graph" transform="scale(1 1) rotate(0) translate(4 591)">
<title>NFCLoginLogicModule</title>
<polygon fill="white" stroke="none" points="-4,4 -4,-591 428.5,-591 428.5,4 -4,4"/>
<!-- Node3 -->
<g id="node1" class="node"><title>Node3</title>
<polygon fill="#bfbfbf" stroke="black" points="69.5,-0.5 69.5,-112.5 198.5,-112.5 198.5,-0.5 69.5,-0.5"/>
<text text-anchor="middle" x="134" y="-100.5" font-family="Helvetica,sans-Serif" font-size="10.00">NFCLoginLogicModule</text>
<polyline fill="none" stroke="black" points="69.5,-93.5 198.5,-93.5 "/>
<text text-anchor="middle" x="134" y="-81.5" font-family="Helvetica,sans-Serif" font-size="10.00"> </text>
<polyline fill="none" stroke="black" points="69.5,-74.5 198.5,-74.5 "/>
<text text-anchor="start" x="77.5" y="-62.5" font-family="Helvetica,sans-Serif" font-size="10.00">+ NFCLoginLogicModule()</text>
<text text-anchor="start" x="77.5" y="-51.5" font-family="Helvetica,sans-Serif" font-size="10.00">+ Init()</text>
<text text-anchor="start" x="77.5" y="-40.5" font-family="Helvetica,sans-Serif" font-size="10.00">+ Shut()</text>
<text text-anchor="start" x="77.5" y="-29.5" font-family="Helvetica,sans-Serif" font-size="10.00">+ Execute()</text>
<text text-anchor="start" x="77.5" y="-18.5" font-family="Helvetica,sans-Serif" font-size="10.00">+ AfterInit()</text>
<text text-anchor="start" x="77.5" y="-7.5" font-family="Helvetica,sans-Serif" font-size="10.00">+ OnLoginProcess()</text>
</g>
<!-- Node4 -->
<g id="node2" class="node"><title>Node4</title>
<g id="a_node2"><a xlink:href="class_n_f_i_login_logic_module.html" target="_top" xlink:title="{NFILoginLogicModule\n||+ OnLoginProcess()\l}">
<polygon fill="white" stroke="black" points="0,-226.5 0,-283.5 110,-283.5 110,-226.5 0,-226.5"/>
<text text-anchor="middle" x="55" y="-271.5" font-family="Helvetica,sans-Serif" font-size="10.00">NFILoginLogicModule</text>
<polyline fill="none" stroke="black" points="0,-264.5 110,-264.5 "/>
<text text-anchor="middle" x="55" y="-252.5" font-family="Helvetica,sans-Serif" font-size="10.00"> </text>
<polyline fill="none" stroke="black" points="0,-245.5 110,-245.5 "/>
<text text-anchor="start" x="8" y="-233.5" font-family="Helvetica,sans-Serif" font-size="10.00">+ OnLoginProcess()</text>
</a>
</g>
</g>
<!-- Node4&#45;&gt;Node3 -->
<g id="edge1" class="edge"><title>Node4&#45;&gt;Node3</title>
<path fill="none" stroke="midnightblue" d="M69.9637,-216.78C81.7895,-187.365 98.4736,-145.866 111.847,-112.602"/>
<polygon fill="none" stroke="midnightblue" points="66.6341,-215.679 66.1512,-226.263 73.1288,-218.29 66.6341,-215.679"/>
</g>
<!-- Node5 -->
<g id="node3" class="node"><title>Node5</title>
<g id="a_node3"><a xlink:href="class_n_f_i_module.html" target="_top" xlink:title="{NFIModule\n|+ strName\l# mbReloading\l|+ NFIModule()\l+ ~NFIModule()\l+ Init()\l+ AfterInit()\l+ CheckConfig()\l+ BeforeShut()\l+ Shut()\l+ Execute()\l+ StartReLoadState()\l+ EndReLoadState()\l+ GetPluginManager()\l+ Loading()\l}">
<polygon fill="white" stroke="black" points="127,-397.5 127,-586.5 239,-586.5 239,-397.5 127,-397.5"/>
<text text-anchor="middle" x="183" y="-574.5" font-family="Helvetica,sans-Serif" font-size="10.00">NFIModule</text>
<polyline fill="none" stroke="black" points="127,-567.5 239,-567.5 "/>
<text text-anchor="start" x="135" y="-555.5" font-family="Helvetica,sans-Serif" font-size="10.00">+ strName</text>
<text text-anchor="start" x="135" y="-544.5" font-family="Helvetica,sans-Serif" font-size="10.00"># mbReloading</text>
<polyline fill="none" stroke="black" points="127,-537.5 239,-537.5 "/>
<text text-anchor="start" x="135" y="-525.5" font-family="Helvetica,sans-Serif" font-size="10.00">+ NFIModule()</text>
<text text-anchor="start" x="135" y="-514.5" font-family="Helvetica,sans-Serif" font-size="10.00">+ ~NFIModule()</text>
<text text-anchor="start" x="135" y="-503.5" font-family="Helvetica,sans-Serif" font-size="10.00">+ Init()</text>
<text text-anchor="start" x="135" y="-492.5" font-family="Helvetica,sans-Serif" font-size="10.00">+ AfterInit()</text>
<text text-anchor="start" x="135" y="-481.5" font-family="Helvetica,sans-Serif" font-size="10.00">+ CheckConfig()</text>
<text text-anchor="start" x="135" y="-470.5" font-family="Helvetica,sans-Serif" font-size="10.00">+ BeforeShut()</text>
<text text-anchor="start" x="135" y="-459.5" font-family="Helvetica,sans-Serif" font-size="10.00">+ Shut()</text>
<text text-anchor="start" x="135" y="-448.5" font-family="Helvetica,sans-Serif" font-size="10.00">+ Execute()</text>
<text text-anchor="start" x="135" y="-437.5" font-family="Helvetica,sans-Serif" font-size="10.00">+ StartReLoadState()</text>
<text text-anchor="start" x="135" y="-426.5" font-family="Helvetica,sans-Serif" font-size="10.00">+ EndReLoadState()</text>
<text text-anchor="start" x="135" y="-415.5" font-family="Helvetica,sans-Serif" font-size="10.00">+ GetPluginManager()</text>
<text text-anchor="start" x="135" y="-404.5" font-family="Helvetica,sans-Serif" font-size="10.00">+ Loading()</text>
</a>
</g>
</g>
<!-- Node5&#45;&gt;Node4 -->
<g id="edge2" class="edge"><title>Node5&#45;&gt;Node4</title>
<path fill="none" stroke="midnightblue" d="M127.06,-388.297C106.227,-350.05 84.2367,-309.677 70.1084,-283.738"/>
<polygon fill="none" stroke="midnightblue" points="124.186,-390.339 132.043,-397.447 130.334,-386.991 124.186,-390.339"/>
</g>
<!-- Node6 -->
<g id="node4" class="node"><title>Node6</title>
<g id="a_node4"><a xlink:href="class_n_f_i_plugin_manager.html" target="_top" xlink:title="{NFIPluginManager\n||+ NFIPluginManager()\l+ FindModule()\l+ Registered()\l+ UnRegistered()\l+ FindPlugin()\l+ AddModule()\l+ RemoveModule()\l+ FindModule()\l+ AppID()\l+ GetInitTime()\l+ GetNowTime()\l+ GetConfigPath()\l+ SetConfigName()\l}">
<polygon fill="white" stroke="black" points="128.5,-160.5 128.5,-349.5 239.5,-349.5 239.5,-160.5 128.5,-160.5"/>
<text text-anchor="middle" x="184" y="-337.5" font-family="Helvetica,sans-Serif" font-size="10.00">NFIPluginManager</text>
<polyline fill="none" stroke="black" points="128.5,-330.5 239.5,-330.5 "/>
<text text-anchor="middle" x="184" y="-318.5" font-family="Helvetica,sans-Serif" font-size="10.00"> </text>
<polyline fill="none" stroke="black" points="128.5,-311.5 239.5,-311.5 "/>
<text text-anchor="start" x="136.5" y="-299.5" font-family="Helvetica,sans-Serif" font-size="10.00">+ NFIPluginManager()</text>
<text text-anchor="start" x="136.5" y="-288.5" font-family="Helvetica,sans-Serif" font-size="10.00">+ FindModule()</text>
<text text-anchor="start" x="136.5" y="-277.5" font-family="Helvetica,sans-Serif" font-size="10.00">+ Registered()</text>
<text text-anchor="start" x="136.5" y="-266.5" font-family="Helvetica,sans-Serif" font-size="10.00">+ UnRegistered()</text>
<text text-anchor="start" x="136.5" y="-255.5" font-family="Helvetica,sans-Serif" font-size="10.00">+ FindPlugin()</text>
<text text-anchor="start" x="136.5" y="-244.5" font-family="Helvetica,sans-Serif" font-size="10.00">+ AddModule()</text>
<text text-anchor="start" x="136.5" y="-233.5" font-family="Helvetica,sans-Serif" font-size="10.00">+ RemoveModule()</text>
<text text-anchor="start" x="136.5" y="-222.5" font-family="Helvetica,sans-Serif" font-size="10.00">+ FindModule()</text>
<text text-anchor="start" x="136.5" y="-211.5" font-family="Helvetica,sans-Serif" font-size="10.00">+ AppID()</text>
<text text-anchor="start" x="136.5" y="-200.5" font-family="Helvetica,sans-Serif" font-size="10.00">+ GetInitTime()</text>
<text text-anchor="start" x="136.5" y="-189.5" font-family="Helvetica,sans-Serif" font-size="10.00">+ GetNowTime()</text>
<text text-anchor="start" x="136.5" y="-178.5" font-family="Helvetica,sans-Serif" font-size="10.00">+ GetConfigPath()</text>
<text text-anchor="start" x="136.5" y="-167.5" font-family="Helvetica,sans-Serif" font-size="10.00">+ SetConfigName()</text>
</a>
</g>
</g>
<!-- Node5&#45;&gt;Node6 -->
<g id="edge4" class="edge"><title>Node5&#45;&gt;Node6</title>
<path fill="none" stroke="midnightblue" d="M180.876,-387.121C180.878,-380.65 180.916,-374.236 181,-368 181.079,-362.068 181.183,-355.959 181.303,-349.801"/>
<polygon fill="none" stroke="midnightblue" points="177.376,-387.325 180.9,-397.317 184.376,-387.308 177.376,-387.325"/>
</g>
<!-- Node7 -->
<g id="node5" class="node"><title>Node7</title>
<g id="a_node5"><a xlink:href="class_n_f_i_login_net___server_module.html" target="_top" xlink:title="{NFILoginNet_ServerModule\n||+ OnSelectWorldResultsProcess()\l}">
<polygon fill="white" stroke="black" points="257.5,-226.5 257.5,-283.5 424.5,-283.5 424.5,-226.5 257.5,-226.5"/>
<text text-anchor="middle" x="341" y="-271.5" font-family="Helvetica,sans-Serif" font-size="10.00">NFILoginNet_ServerModule</text>
<polyline fill="none" stroke="black" points="257.5,-264.5 424.5,-264.5 "/>
<text text-anchor="middle" x="341" y="-252.5" font-family="Helvetica,sans-Serif" font-size="10.00"> </text>
<polyline fill="none" stroke="black" points="257.5,-245.5 424.5,-245.5 "/>
<text text-anchor="start" x="265.5" y="-233.5" font-family="Helvetica,sans-Serif" font-size="10.00">+ OnSelectWorldResultsProcess()</text>
</a>
</g>
</g>
<!-- Node5&#45;&gt;Node7 -->
<g id="edge6" class="edge"><title>Node5&#45;&gt;Node7</title>
<path fill="none" stroke="midnightblue" d="M245.232,-410.038C252.726,-399.705 260.145,-389.182 267,-379 288.434,-347.165 310.859,-309.12 325.326,-283.858"/>
<polygon fill="none" stroke="midnightblue" points="242.287,-408.135 239.215,-418.275 247.94,-412.264 242.287,-408.135"/>
</g>
<!-- Node6&#45;&gt;Node5 -->
<g id="edge3" class="edge"><title>Node6&#45;&gt;Node5</title>
<path fill="none" stroke="#404040" d="M183.602,-349.615C183.552,-361.301 183.501,-373.316 183.45,-385.171"/>
<polygon fill="none" stroke="#404040" points="183.449,-385.447 187.424,-391.464 183.398,-397.447 179.424,-391.43 183.449,-385.447"/>
<text text-anchor="middle" x="223.5" y="-371" font-family="Helvetica,sans-Serif" font-size="10.00"> #pPluginManager</text>
</g>
<!-- Node7&#45;&gt;Node3 -->
<g id="edge5" class="edge"><title>Node7&#45;&gt;Node3</title>
<path fill="none" stroke="#404040" d="M314.553,-226.43C296.163,-207.468 270.929,-181.861 248,-160 234.568,-147.194 219.996,-133.76 205.901,-120.991"/>
<polygon fill="none" stroke="#404040" points="205.633,-120.748 198.499,-119.698 196.725,-112.708 203.859,-113.759 205.633,-120.748"/>
<text text-anchor="middle" x="292" y="-134" font-family="Helvetica,sans-Serif" font-size="10.00"> #m_pLoginNet_ServerModule</text>
</g>
</g>
</svg>
