<?xml version="1.0" encoding="UTF-8" standalone="no"?>
<!DOCTYPE svg PUBLIC "-//W3C//DTD SVG 1.1//EN"
 "http://www.w3.org/Graphics/SVG/1.1/DTD/svg11.dtd">
<!-- Generated by graphviz version 2.38.0 (20140413.2041)
 -->
<!-- Title: NFCEventManager Pages: 1 -->
<svg width="528pt" height="424pt"
 viewBox="0.00 0.00 527.50 424.00" xmlns="http://www.w3.org/2000/svg" xmlns:xlink="http://www.w3.org/1999/xlink">
<g id="graph0" class="graph" transform="scale(1 1) rotate(0) translate(4 420)">
<title>NFCEventManager</title>
<polygon fill="white" stroke="none" points="-4,4 -4,-420 523.5,-420 523.5,4 -4,4"/>
<!-- Node2 -->
<g id="node1" class="node"><title>Node2</title>
<polygon fill="#bfbfbf" stroke="black" points="192,-0.5 192,-145.5 321,-145.5 321,-0.5 192,-0.5"/>
<text text-anchor="middle" x="256.5" y="-133.5" font-family="Helvetica,sans-Serif" font-size="10.00">NFCEventManager</text>
<polyline fill="none" stroke="black" points="192,-126.5 321,-126.5 "/>
<text text-anchor="middle" x="256.5" y="-114.5" font-family="Helvetica,sans-Serif" font-size="10.00"> </text>
<polyline fill="none" stroke="black" points="192,-107.5 321,-107.5 "/>
<text text-anchor="start" x="200" y="-95.5" font-family="Helvetica,sans-Serif" font-size="10.00">+ NFCEventManager()</text>
<text text-anchor="start" x="200" y="-84.5" font-family="Helvetica,sans-Serif" font-size="10.00">+ ~NFCEventManager()</text>
<text text-anchor="start" x="200" y="-73.5" font-family="Helvetica,sans-Serif" font-size="10.00">+ Init()</text>
<text text-anchor="start" x="200" y="-62.5" font-family="Helvetica,sans-Serif" font-size="10.00">+ Shut()</text>
<text text-anchor="start" x="200" y="-51.5" font-family="Helvetica,sans-Serif" font-size="10.00">+ Execute()</text>
<text text-anchor="start" x="200" y="-40.5" font-family="Helvetica,sans-Serif" font-size="10.00">+ RemoveEventCallBack()</text>
<text text-anchor="start" x="200" y="-29.5" font-family="Helvetica,sans-Serif" font-size="10.00">+ DoEvent()</text>
<text text-anchor="start" x="200" y="-18.5" font-family="Helvetica,sans-Serif" font-size="10.00">+ AddEventCallBack()</text>
<text text-anchor="start" x="200" y="-7.5" font-family="Helvetica,sans-Serif" font-size="10.00"># HasEventCallBack()</text>
</g>
<!-- Node3 -->
<g id="node2" class="node"><title>Node3</title>
<g id="a_node2"><a xlink:href="class_n_f_i_event_manager.html" target="_top" xlink:title="Manager for nfi events. ">
<polygon fill="white" stroke="black" points="0,-243 0,-366 129,-366 129,-243 0,-243"/>
<text text-anchor="middle" x="64.5" y="-354" font-family="Helvetica,sans-Serif" font-size="10.00">NFIEventManager</text>
<polyline fill="none" stroke="black" points="0,-347 129,-347 "/>
<text text-anchor="middle" x="64.5" y="-335" font-family="Helvetica,sans-Serif" font-size="10.00"> </text>
<polyline fill="none" stroke="black" points="0,-328 129,-328 "/>
<text text-anchor="start" x="8" y="-316" font-family="Helvetica,sans-Serif" font-size="10.00">+ ~NFIEventManager()</text>
<text text-anchor="start" x="8" y="-305" font-family="Helvetica,sans-Serif" font-size="10.00">+ Execute()</text>
<text text-anchor="start" x="8" y="-294" font-family="Helvetica,sans-Serif" font-size="10.00">+ AddEventCallBack()</text>
<text text-anchor="start" x="8" y="-283" font-family="Helvetica,sans-Serif" font-size="10.00">+ RemoveEventCallBack()</text>
<text text-anchor="start" x="8" y="-272" font-family="Helvetica,sans-Serif" font-size="10.00">+ DoEvent()</text>
<text text-anchor="start" x="8" y="-261" font-family="Helvetica,sans-Serif" font-size="10.00">+ AddEventCallBack()</text>
<text text-anchor="start" x="8" y="-250" font-family="Helvetica,sans-Serif" font-size="10.00"># HasEventCallBack()</text>
</a>
</g>
</g>
<!-- Node3&#45;&gt;Node2 -->
<g id="edge1" class="edge"><title>Node3&#45;&gt;Node2</title>
<path fill="none" stroke="midnightblue" d="M107.901,-234.274C117.502,-220.256 127.968,-205.875 138.5,-193 154.803,-173.07 173.937,-152.698 191.995,-134.571"/>
<polygon fill="none" stroke="midnightblue" points="104.744,-232.695 102.041,-242.939 110.542,-236.616 104.744,-232.695"/>
</g>
<!-- Node4 -->
<g id="node3" class="node"><title>Node4</title>
<g id="a_node3"><a xlink:href="struct_n_f_g_u_i_d.html" target="_top" xlink:title="{NFGUID\n|+ nData64\l+ nHead64\l|+ NFGUID()\l+ NFGUID()\l+ NFGUID()\l+ NFGUID()\l+ operator=()\l+ GetData()\l+ GetHead()\l+ SetData()\l+ SetHead()\l+ IsNull()\l+ operator==()\l+ operator!=()\l+ operator\&lt;()\l+ ToString()\l+ FromString()\l}">
<polygon fill="white" stroke="black" points="147.5,-193.5 147.5,-415.5 227.5,-415.5 227.5,-193.5 147.5,-193.5"/>
<text text-anchor="middle" x="187.5" y="-403.5" font-family="Helvetica,sans-Serif" font-size="10.00">NFGUID</text>
<polyline fill="none" stroke="black" points="147.5,-396.5 227.5,-396.5 "/>
<text text-anchor="start" x="155.5" y="-384.5" font-family="Helvetica,sans-Serif" font-size="10.00">+ nData64</text>
<text text-anchor="start" x="155.5" y="-373.5" font-family="Helvetica,sans-Serif" font-size="10.00">+ nHead64</text>
<polyline fill="none" stroke="black" points="147.5,-366.5 227.5,-366.5 "/>
<text text-anchor="start" x="155.5" y="-354.5" font-family="Helvetica,sans-Serif" font-size="10.00">+ NFGUID()</text>
<text text-anchor="start" x="155.5" y="-343.5" font-family="Helvetica,sans-Serif" font-size="10.00">+ NFGUID()</text>
<text text-anchor="start" x="155.5" y="-332.5" font-family="Helvetica,sans-Serif" font-size="10.00">+ NFGUID()</text>
<text text-anchor="start" x="155.5" y="-321.5" font-family="Helvetica,sans-Serif" font-size="10.00">+ NFGUID()</text>
<text text-anchor="start" x="155.5" y="-310.5" font-family="Helvetica,sans-Serif" font-size="10.00">+ operator=()</text>
<text text-anchor="start" x="155.5" y="-299.5" font-family="Helvetica,sans-Serif" font-size="10.00">+ GetData()</text>
<text text-anchor="start" x="155.5" y="-288.5" font-family="Helvetica,sans-Serif" font-size="10.00">+ GetHead()</text>
<text text-anchor="start" x="155.5" y="-277.5" font-family="Helvetica,sans-Serif" font-size="10.00">+ SetData()</text>
<text text-anchor="start" x="155.5" y="-266.5" font-family="Helvetica,sans-Serif" font-size="10.00">+ SetHead()</text>
<text text-anchor="start" x="155.5" y="-255.5" font-family="Helvetica,sans-Serif" font-size="10.00">+ IsNull()</text>
<text text-anchor="start" x="155.5" y="-244.5" font-family="Helvetica,sans-Serif" font-size="10.00">+ operator==()</text>
<text text-anchor="start" x="155.5" y="-233.5" font-family="Helvetica,sans-Serif" font-size="10.00">+ operator!=()</text>
<text text-anchor="start" x="155.5" y="-222.5" font-family="Helvetica,sans-Serif" font-size="10.00">+ operator&lt;()</text>
<text text-anchor="start" x="155.5" y="-211.5" font-family="Helvetica,sans-Serif" font-size="10.00">+ ToString()</text>
<text text-anchor="start" x="155.5" y="-200.5" font-family="Helvetica,sans-Serif" font-size="10.00">+ FromString()</text>
</a>
</g>
</g>
<!-- Node4&#45;&gt;Node2 -->
<g id="edge2" class="edge"><title>Node4&#45;&gt;Node2</title>
<path fill="none" stroke="#404040" d="M220.585,-193.455C224.243,-181.29 227.922,-169.054 231.457,-157.296"/>
<polygon fill="none" stroke="#404040" points="231.483,-157.208 229.38,-150.311 234.938,-145.717 237.041,-152.614 231.483,-157.208"/>
<text text-anchor="middle" x="244" y="-167" font-family="Helvetica,sans-Serif" font-size="10.00"> &#45;mSelf</text>
</g>
<!-- Node5 -->
<g id="node4" class="node"><title>Node5</title>
<g id="a_node4"><a xlink:href="class_n_f_map_ex.html" target="_top" xlink:title="{NFMapEx\&lt; int, NFList\l\&lt; EVENT_PROCESS_FUNCTOR\l_PTR \&gt; \&gt;\n|&#45; mObjectList\l&#45; mObjectCurIter\l|+ NFMapEx()\l+ ~NFMapEx()\l+ AddElement()\l+ SetElement()\l+ RemoveElement()\l+ GetElementNude()\l+ GetElement()\l+ FirstNude()\l+ FirstNude()\l+ NextNude()\land 7 more...\l}">
<polygon fill="white" stroke="black" points="245.5,-204.5 245.5,-404.5 407.5,-404.5 407.5,-204.5 245.5,-204.5"/>
<text text-anchor="start" x="253.5" y="-392.5" font-family="Helvetica,sans-Serif" font-size="10.00">NFMapEx&lt; int, NFList</text>
<text text-anchor="start" x="253.5" y="-381.5" font-family="Helvetica,sans-Serif" font-size="10.00">&lt; EVENT_PROCESS_FUNCTOR</text>
<text text-anchor="middle" x="326.5" y="-370.5" font-family="Helvetica,sans-Serif" font-size="10.00">_PTR &gt; &gt;</text>
<polyline fill="none" stroke="black" points="245.5,-363.5 407.5,-363.5 "/>
<text text-anchor="start" x="253.5" y="-351.5" font-family="Helvetica,sans-Serif" font-size="10.00">&#45; mObjectList</text>
<text text-anchor="start" x="253.5" y="-340.5" font-family="Helvetica,sans-Serif" font-size="10.00">&#45; mObjectCurIter</text>
<polyline fill="none" stroke="black" points="245.5,-333.5 407.5,-333.5 "/>
<text text-anchor="start" x="253.5" y="-321.5" font-family="Helvetica,sans-Serif" font-size="10.00">+ NFMapEx()</text>
<text text-anchor="start" x="253.5" y="-310.5" font-family="Helvetica,sans-Serif" font-size="10.00">+ ~NFMapEx()</text>
<text text-anchor="start" x="253.5" y="-299.5" font-family="Helvetica,sans-Serif" font-size="10.00">+ AddElement()</text>
<text text-anchor="start" x="253.5" y="-288.5" font-family="Helvetica,sans-Serif" font-size="10.00">+ SetElement()</text>
<text text-anchor="start" x="253.5" y="-277.5" font-family="Helvetica,sans-Serif" font-size="10.00">+ RemoveElement()</text>
<text text-anchor="start" x="253.5" y="-266.5" font-family="Helvetica,sans-Serif" font-size="10.00">+ GetElementNude()</text>
<text text-anchor="start" x="253.5" y="-255.5" font-family="Helvetica,sans-Serif" font-size="10.00">+ GetElement()</text>
<text text-anchor="start" x="253.5" y="-244.5" font-family="Helvetica,sans-Serif" font-size="10.00">+ FirstNude()</text>
<text text-anchor="start" x="253.5" y="-233.5" font-family="Helvetica,sans-Serif" font-size="10.00">+ FirstNude()</text>
<text text-anchor="start" x="253.5" y="-222.5" font-family="Helvetica,sans-Serif" font-size="10.00">+ NextNude()</text>
<text text-anchor="start" x="253.5" y="-211.5" font-family="Helvetica,sans-Serif" font-size="10.00">and 7 more...</text>
</a>
</g>
</g>
<!-- Node5&#45;&gt;Node2 -->
<g id="edge3" class="edge"><title>Node5&#45;&gt;Node2</title>
<path fill="none" stroke="#404040" d="M296.204,-204.173C291.481,-188.687 286.641,-172.82 282.038,-157.727"/>
<polygon fill="none" stroke="#404040" points="281.904,-157.289 276.328,-152.717 278.403,-145.811 283.98,-150.383 281.904,-157.289"/>
<text text-anchor="middle" x="342" y="-167" font-family="Helvetica,sans-Serif" font-size="10.00"> &#45;mObjectEventInfoMapEx</text>
</g>
<!-- Node6 -->
<g id="node5" class="node"><title>Node6</title>
<g id="a_node5"><a xlink:href="class_n_f_list.html" target="_top" xlink:title="{NFList\&lt; int \&gt;\n|# mtObjConfigList\l# mCurIter\l|+ ~NFList()\l+ Add()\l+ Find()\l+ Remove()\l+ ClearAll()\l+ First()\l+ Next()\l+ Get()\l+ Count()\l}">
<polygon fill="white" stroke="black" points="425.5,-226.5 425.5,-382.5 519.5,-382.5 519.5,-226.5 425.5,-226.5"/>
<text text-anchor="middle" x="472.5" y="-370.5" font-family="Helvetica,sans-Serif" font-size="10.00">NFList&lt; int &gt;</text>
<polyline fill="none" stroke="black" points="425.5,-363.5 519.5,-363.5 "/>
<text text-anchor="start" x="433.5" y="-351.5" font-family="Helvetica,sans-Serif" font-size="10.00"># mtObjConfigList</text>
<text text-anchor="start" x="433.5" y="-340.5" font-family="Helvetica,sans-Serif" font-size="10.00"># mCurIter</text>
<polyline fill="none" stroke="black" points="425.5,-333.5 519.5,-333.5 "/>
<text text-anchor="start" x="433.5" y="-321.5" font-family="Helvetica,sans-Serif" font-size="10.00">+ ~NFList()</text>
<text text-anchor="start" x="433.5" y="-310.5" font-family="Helvetica,sans-Serif" font-size="10.00">+ Add()</text>
<text text-anchor="start" x="433.5" y="-299.5" font-family="Helvetica,sans-Serif" font-size="10.00">+ Find()</text>
<text text-anchor="start" x="433.5" y="-288.5" font-family="Helvetica,sans-Serif" font-size="10.00">+ Remove()</text>
<text text-anchor="start" x="433.5" y="-277.5" font-family="Helvetica,sans-Serif" font-size="10.00">+ ClearAll()</text>
<text text-anchor="start" x="433.5" y="-266.5" font-family="Helvetica,sans-Serif" font-size="10.00">+ First()</text>
<text text-anchor="start" x="433.5" y="-255.5" font-family="Helvetica,sans-Serif" font-size="10.00">+ Next()</text>
<text text-anchor="start" x="433.5" y="-244.5" font-family="Helvetica,sans-Serif" font-size="10.00">+ Get()</text>
<text text-anchor="start" x="433.5" y="-233.5" font-family="Helvetica,sans-Serif" font-size="10.00">+ Count()</text>
</a>
</g>
</g>
<!-- Node6&#45;&gt;Node2 -->
<g id="edge4" class="edge"><title>Node6&#45;&gt;Node2</title>
<path fill="none" stroke="#404040" d="M443.154,-226.283C432.518,-204.56 418.975,-181.981 402.5,-164 382.699,-142.389 356.538,-124.091 331.837,-109.753"/>
<polygon fill="none" stroke="#404040" points="331.818,-109.742 324.627,-110.282 321.363,-103.852 328.554,-103.312 331.818,-109.742"/>
<text text-anchor="middle" x="462" y="-167" font-family="Helvetica,sans-Serif" font-size="10.00"> &#45;mRemoveEventListEx</text>
</g>
</g>
</svg>
