<?xml version="1.0" encoding="UTF-8" standalone="no"?>
<!DOCTYPE svg PUBLIC "-//W3C//DTD SVG 1.1//EN"
 "http://www.w3.org/Graphics/SVG/1.1/DTD/svg11.dtd">
<!-- Generated by graphviz version 2.38.0 (20140413.2041)
 -->
<!-- Title: NFCProxyServerToGameModule Pages: 1 -->
<svg width="1448pt" height="931pt"
 viewBox="0.00 0.00 1447.50 931.00" xmlns="http://www.w3.org/2000/svg" xmlns:xlink="http://www.w3.org/1999/xlink">
<g id="graph0" class="graph" transform="scale(1 1) rotate(0) translate(4 927)">
<title>NFCProxyServerToGameModule</title>
<polygon fill="white" stroke="none" points="-4,4 -4,-927 1443.5,-927 1443.5,4 -4,4"/>
<!-- Node3 -->
<g id="node1" class="node"><title>Node3</title>
<polygon fill="#bfbfbf" stroke="black" points="711,-0.5 711,-167.5 883,-167.5 883,-0.5 711,-0.5"/>
<text text-anchor="middle" x="797" y="-155.5" font-family="Helvetica,sans-Serif" font-size="10.00">NFCProxyServerToGameModule</text>
<polyline fill="none" stroke="black" points="711,-148.5 883,-148.5 "/>
<text text-anchor="middle" x="797" y="-136.5" font-family="Helvetica,sans-Serif" font-size="10.00"> </text>
<polyline fill="none" stroke="black" points="711,-129.5 883,-129.5 "/>
<text text-anchor="start" x="719" y="-117.5" font-family="Helvetica,sans-Serif" font-size="10.00">+ NFCProxyServerToGameModule()</text>
<text text-anchor="start" x="719" y="-106.5" font-family="Helvetica,sans-Serif" font-size="10.00">+ Init()</text>
<text text-anchor="start" x="719" y="-95.5" font-family="Helvetica,sans-Serif" font-size="10.00">+ Shut()</text>
<text text-anchor="start" x="719" y="-84.5" font-family="Helvetica,sans-Serif" font-size="10.00">+ Execute()</text>
<text text-anchor="start" x="719" y="-73.5" font-family="Helvetica,sans-Serif" font-size="10.00">+ AfterInit()</text>
<text text-anchor="start" x="719" y="-62.5" font-family="Helvetica,sans-Serif" font-size="10.00">+ GetClusterModule()</text>
<text text-anchor="start" x="719" y="-51.5" font-family="Helvetica,sans-Serif" font-size="10.00"># OnSocketGSEvent()</text>
<text text-anchor="start" x="719" y="-40.5" font-family="Helvetica,sans-Serif" font-size="10.00"># Register()</text>
<text text-anchor="start" x="719" y="-29.5" font-family="Helvetica,sans-Serif" font-size="10.00"># OnAckEnterGame()</text>
<text text-anchor="start" x="719" y="-18.5" font-family="Helvetica,sans-Serif" font-size="10.00"># LogServerInfo()</text>
<text text-anchor="start" x="719" y="-7.5" font-family="Helvetica,sans-Serif" font-size="10.00"># Transpond()</text>
</g>
<!-- Node4 -->
<g id="node2" class="node"><title>Node4</title>
<g id="a_node2"><a xlink:href="class_n_f_i_proxy_server_to_game_module.html" target="_top" xlink:title="{NFIProxyServerToGameModule\n||+ GetClusterModule()\l}">
<polygon fill="white" stroke="black" points="797,-375 797,-432 949,-432 949,-375 797,-375"/>
<text text-anchor="middle" x="873" y="-420" font-family="Helvetica,sans-Serif" font-size="10.00">NFIProxyServerToGameModule</text>
<polyline fill="none" stroke="black" points="797,-413 949,-413 "/>
<text text-anchor="middle" x="873" y="-401" font-family="Helvetica,sans-Serif" font-size="10.00"> </text>
<polyline fill="none" stroke="black" points="797,-394 949,-394 "/>
<text text-anchor="start" x="805" y="-382" font-family="Helvetica,sans-Serif" font-size="10.00">+ GetClusterModule()</text>
</a>
</g>
</g>
<!-- Node4&#45;&gt;Node3 -->
<g id="edge1" class="edge"><title>Node4&#45;&gt;Node3</title>
<path fill="none" stroke="midnightblue" d="M873.552,-364.606C873.194,-320.688 869.486,-246.591 851,-186 849.143,-179.914 846.907,-173.772 844.415,-167.682"/>
<polygon fill="none" stroke="midnightblue" points="870.053,-364.838 873.579,-374.829 877.053,-364.82 870.053,-364.838"/>
</g>
<!-- Node5 -->
<g id="node3" class="node"><title>Node5</title>
<g id="a_node3"><a xlink:href="class_n_f_i_module.html" target="_top" xlink:title="{NFIModule\n|+ strName\l# mbReloading\l|+ NFIModule()\l+ ~NFIModule()\l+ Init()\l+ AfterInit()\l+ CheckConfig()\l+ BeforeShut()\l+ Shut()\l+ Execute()\l+ StartReLoadState()\l+ EndReLoadState()\l+ GetPluginManager()\l+ Loading()\l}">
<polygon fill="white" stroke="black" points="586,-628.5 586,-817.5 698,-817.5 698,-628.5 586,-628.5"/>
<text text-anchor="middle" x="642" y="-805.5" font-family="Helvetica,sans-Serif" font-size="10.00">NFIModule</text>
<polyline fill="none" stroke="black" points="586,-798.5 698,-798.5 "/>
<text text-anchor="start" x="594" y="-786.5" font-family="Helvetica,sans-Serif" font-size="10.00">+ strName</text>
<text text-anchor="start" x="594" y="-775.5" font-family="Helvetica,sans-Serif" font-size="10.00"># mbReloading</text>
<polyline fill="none" stroke="black" points="586,-768.5 698,-768.5 "/>
<text text-anchor="start" x="594" y="-756.5" font-family="Helvetica,sans-Serif" font-size="10.00">+ NFIModule()</text>
<text text-anchor="start" x="594" y="-745.5" font-family="Helvetica,sans-Serif" font-size="10.00">+ ~NFIModule()</text>
<text text-anchor="start" x="594" y="-734.5" font-family="Helvetica,sans-Serif" font-size="10.00">+ Init()</text>
<text text-anchor="start" x="594" y="-723.5" font-family="Helvetica,sans-Serif" font-size="10.00">+ AfterInit()</text>
<text text-anchor="start" x="594" y="-712.5" font-family="Helvetica,sans-Serif" font-size="10.00">+ CheckConfig()</text>
<text text-anchor="start" x="594" y="-701.5" font-family="Helvetica,sans-Serif" font-size="10.00">+ BeforeShut()</text>
<text text-anchor="start" x="594" y="-690.5" font-family="Helvetica,sans-Serif" font-size="10.00">+ Shut()</text>
<text text-anchor="start" x="594" y="-679.5" font-family="Helvetica,sans-Serif" font-size="10.00">+ Execute()</text>
<text text-anchor="start" x="594" y="-668.5" font-family="Helvetica,sans-Serif" font-size="10.00">+ StartReLoadState()</text>
<text text-anchor="start" x="594" y="-657.5" font-family="Helvetica,sans-Serif" font-size="10.00">+ EndReLoadState()</text>
<text text-anchor="start" x="594" y="-646.5" font-family="Helvetica,sans-Serif" font-size="10.00">+ GetPluginManager()</text>
<text text-anchor="start" x="594" y="-635.5" font-family="Helvetica,sans-Serif" font-size="10.00">+ Loading()</text>
</a>
</g>
</g>
<!-- Node5&#45;&gt;Node4 -->
<g id="edge2" class="edge"><title>Node5&#45;&gt;Node4</title>
<path fill="none" stroke="midnightblue" d="M705.689,-669.601C733.306,-644.717 764.605,-613.371 788,-581 822.764,-532.899 849.629,-468.365 863.211,-432.151"/>
<polygon fill="none" stroke="midnightblue" points="703.146,-667.178 698.006,-676.443 707.802,-672.406 703.146,-667.178"/>
</g>
<!-- Node6 -->
<g id="node4" class="node"><title>Node6</title>
<g id="a_node4"><a xlink:href="class_n_f_i_plugin_manager.html" target="_top" xlink:title="{NFIPluginManager\n||+ NFIPluginManager()\l+ FindModule()\l+ Registered()\l+ UnRegistered()\l+ FindPlugin()\l+ AddModule()\l+ RemoveModule()\l+ FindModule()\l+ AppID()\l+ GetInitTime()\l+ GetNowTime()\l+ GetConfigPath()\l+ SetConfigName()\l}">
<polygon fill="white" stroke="black" points="352.5,-309 352.5,-498 463.5,-498 463.5,-309 352.5,-309"/>
<text text-anchor="middle" x="408" y="-486" font-family="Helvetica,sans-Serif" font-size="10.00">NFIPluginManager</text>
<polyline fill="none" stroke="black" points="352.5,-479 463.5,-479 "/>
<text text-anchor="middle" x="408" y="-467" font-family="Helvetica,sans-Serif" font-size="10.00"> </text>
<polyline fill="none" stroke="black" points="352.5,-460 463.5,-460 "/>
<text text-anchor="start" x="360.5" y="-448" font-family="Helvetica,sans-Serif" font-size="10.00">+ NFIPluginManager()</text>
<text text-anchor="start" x="360.5" y="-437" font-family="Helvetica,sans-Serif" font-size="10.00">+ FindModule()</text>
<text text-anchor="start" x="360.5" y="-426" font-family="Helvetica,sans-Serif" font-size="10.00">+ Registered()</text>
<text text-anchor="start" x="360.5" y="-415" font-family="Helvetica,sans-Serif" font-size="10.00">+ UnRegistered()</text>
<text text-anchor="start" x="360.5" y="-404" font-family="Helvetica,sans-Serif" font-size="10.00">+ FindPlugin()</text>
<text text-anchor="start" x="360.5" y="-393" font-family="Helvetica,sans-Serif" font-size="10.00">+ AddModule()</text>
<text text-anchor="start" x="360.5" y="-382" font-family="Helvetica,sans-Serif" font-size="10.00">+ RemoveModule()</text>
<text text-anchor="start" x="360.5" y="-371" font-family="Helvetica,sans-Serif" font-size="10.00">+ FindModule()</text>
<text text-anchor="start" x="360.5" y="-360" font-family="Helvetica,sans-Serif" font-size="10.00">+ AppID()</text>
<text text-anchor="start" x="360.5" y="-349" font-family="Helvetica,sans-Serif" font-size="10.00">+ GetInitTime()</text>
<text text-anchor="start" x="360.5" y="-338" font-family="Helvetica,sans-Serif" font-size="10.00">+ GetNowTime()</text>
<text text-anchor="start" x="360.5" y="-327" font-family="Helvetica,sans-Serif" font-size="10.00">+ GetConfigPath()</text>
<text text-anchor="start" x="360.5" y="-316" font-family="Helvetica,sans-Serif" font-size="10.00">+ SetConfigName()</text>
</a>
</g>
</g>
<!-- Node5&#45;&gt;Node6 -->
<g id="edge4" class="edge"><title>Node5&#45;&gt;Node6</title>
<path fill="none" stroke="midnightblue" d="M598.721,-620.111C592.351,-612.134 585.14,-604.9 577,-599 538.664,-571.212 508.324,-611.37 472,-581 447.119,-560.197 431.911,-528.903 422.615,-498.414"/>
<polygon fill="none" stroke="midnightblue" points="596.041,-622.372 604.813,-628.314 601.661,-618.199 596.041,-622.372"/>
</g>
<!-- Node7 -->
<g id="node5" class="node"><title>Node7</title>
<g id="a_node5"><a xlink:href="class_n_f_i_net_client_module.html" target="_top" xlink:title="{NFINetClientModule\n|&#45; mxTempNetList\l&#45; mxReceiveCallBack\l&#45; mxEventCallBack\l&#45; mxCallBackList\l|+ NFINetClientModule()\l+ Init()\l+ AfterInit()\l+ BeforeShut()\l+ Shut()\l+ Execute()\l+ AddReceiveCallBack()\l+ AddReceiveCallBack()\l+ AddEventCallBack()\l+ AddServer()\land 14 more...\l# NFINetClientModule()\l# ProcessExecute()\l# KeepReport()\l# LogServerInfo()\l&#45; LogServerInfo()\l&#45; KeepState()\l&#45; OnSocketEvent()\l&#45; OnConnected()\l&#45; OnDisConnected()\l&#45; ProcessAddNetConnect()\l&#45; InitNetCallback()\l&#45; GetServerMachineData()\l&#45; AddServerWeightData()\l&#45; RemoveServerWeightData()\l}">
<polygon fill="white" stroke="black" points="92.5,-226.5 92.5,-580.5 233.5,-580.5 233.5,-226.5 92.5,-226.5"/>
<text text-anchor="middle" x="163" y="-568.5" font-family="Helvetica,sans-Serif" font-size="10.00">NFINetClientModule</text>
<polyline fill="none" stroke="black" points="92.5,-561.5 233.5,-561.5 "/>
<text text-anchor="start" x="100.5" y="-549.5" font-family="Helvetica,sans-Serif" font-size="10.00">&#45; mxTempNetList</text>
<text text-anchor="start" x="100.5" y="-538.5" font-family="Helvetica,sans-Serif" font-size="10.00">&#45; mxReceiveCallBack</text>
<text text-anchor="start" x="100.5" y="-527.5" font-family="Helvetica,sans-Serif" font-size="10.00">&#45; mxEventCallBack</text>
<text text-anchor="start" x="100.5" y="-516.5" font-family="Helvetica,sans-Serif" font-size="10.00">&#45; mxCallBackList</text>
<polyline fill="none" stroke="black" points="92.5,-509.5 233.5,-509.5 "/>
<text text-anchor="start" x="100.5" y="-497.5" font-family="Helvetica,sans-Serif" font-size="10.00">+ NFINetClientModule()</text>
<text text-anchor="start" x="100.5" y="-486.5" font-family="Helvetica,sans-Serif" font-size="10.00">+ Init()</text>
<text text-anchor="start" x="100.5" y="-475.5" font-family="Helvetica,sans-Serif" font-size="10.00">+ AfterInit()</text>
<text text-anchor="start" x="100.5" y="-464.5" font-family="Helvetica,sans-Serif" font-size="10.00">+ BeforeShut()</text>
<text text-anchor="start" x="100.5" y="-453.5" font-family="Helvetica,sans-Serif" font-size="10.00">+ Shut()</text>
<text text-anchor="start" x="100.5" y="-442.5" font-family="Helvetica,sans-Serif" font-size="10.00">+ Execute()</text>
<text text-anchor="start" x="100.5" y="-431.5" font-family="Helvetica,sans-Serif" font-size="10.00">+ AddReceiveCallBack()</text>
<text text-anchor="start" x="100.5" y="-420.5" font-family="Helvetica,sans-Serif" font-size="10.00">+ AddReceiveCallBack()</text>
<text text-anchor="start" x="100.5" y="-409.5" font-family="Helvetica,sans-Serif" font-size="10.00">+ AddEventCallBack()</text>
<text text-anchor="start" x="100.5" y="-398.5" font-family="Helvetica,sans-Serif" font-size="10.00">+ AddServer()</text>
<text text-anchor="start" x="100.5" y="-387.5" font-family="Helvetica,sans-Serif" font-size="10.00">and 14 more...</text>
<text text-anchor="start" x="100.5" y="-376.5" font-family="Helvetica,sans-Serif" font-size="10.00"># NFINetClientModule()</text>
<text text-anchor="start" x="100.5" y="-365.5" font-family="Helvetica,sans-Serif" font-size="10.00"># ProcessExecute()</text>
<text text-anchor="start" x="100.5" y="-354.5" font-family="Helvetica,sans-Serif" font-size="10.00"># KeepReport()</text>
<text text-anchor="start" x="100.5" y="-343.5" font-family="Helvetica,sans-Serif" font-size="10.00"># LogServerInfo()</text>
<text text-anchor="start" x="100.5" y="-332.5" font-family="Helvetica,sans-Serif" font-size="10.00">&#45; LogServerInfo()</text>
<text text-anchor="start" x="100.5" y="-321.5" font-family="Helvetica,sans-Serif" font-size="10.00">&#45; KeepState()</text>
<text text-anchor="start" x="100.5" y="-310.5" font-family="Helvetica,sans-Serif" font-size="10.00">&#45; OnSocketEvent()</text>
<text text-anchor="start" x="100.5" y="-299.5" font-family="Helvetica,sans-Serif" font-size="10.00">&#45; OnConnected()</text>
<text text-anchor="start" x="100.5" y="-288.5" font-family="Helvetica,sans-Serif" font-size="10.00">&#45; OnDisConnected()</text>
<text text-anchor="start" x="100.5" y="-277.5" font-family="Helvetica,sans-Serif" font-size="10.00">&#45; ProcessAddNetConnect()</text>
<text text-anchor="start" x="100.5" y="-266.5" font-family="Helvetica,sans-Serif" font-size="10.00">&#45; InitNetCallback()</text>
<text text-anchor="start" x="100.5" y="-255.5" font-family="Helvetica,sans-Serif" font-size="10.00">&#45; GetServerMachineData()</text>
<text text-anchor="start" x="100.5" y="-244.5" font-family="Helvetica,sans-Serif" font-size="10.00">&#45; AddServerWeightData()</text>
<text text-anchor="start" x="100.5" y="-233.5" font-family="Helvetica,sans-Serif" font-size="10.00">&#45; RemoveServerWeightData()</text>
</a>
</g>
</g>
<!-- Node5&#45;&gt;Node7 -->
<g id="edge6" class="edge"><title>Node5&#45;&gt;Node7</title>
<path fill="none" stroke="midnightblue" d="M576.275,-701.958C469.421,-668.917 267.339,-604.343 242,-581 239.16,-578.384 236.417,-575.647 233.766,-572.805"/>
<polygon fill="none" stroke="midnightblue" points="575.409,-705.354 585.996,-704.959 577.473,-698.665 575.409,-705.354"/>
</g>
<!-- Node11 -->
<g id="node9" class="node"><title>Node11</title>
<g id="a_node9"><a xlink:href="class_n_f_i_kernel_module.html" target="_top" xlink:title="{NFIKernelModule\n||+ AddHeartBeat()\l+ FindHeartBeat()\l+ RemoveHeartBeat()\l+ AddRecordCallBack()\l+ AddPropertyCallBack()\l+ AddEventCallBack()\l+ AddClassCallBack()\l+ DoEvent()\l+ DoEvent()\l+ RegisterCommonClassEvent()\land 56 more...\l# AddEventCallBack()\l# AddClassCallBack()\l# RegisterCommonClassEvent()\l# RegisterCommonPropertyEvent()\l# RegisterCommonRecordEvent()\l}">
<polygon fill="white" stroke="black" points="481.5,-292.5 481.5,-514.5 648.5,-514.5 648.5,-292.5 481.5,-292.5"/>
<text text-anchor="middle" x="565" y="-502.5" font-family="Helvetica,sans-Serif" font-size="10.00">NFIKernelModule</text>
<polyline fill="none" stroke="black" points="481.5,-495.5 648.5,-495.5 "/>
<text text-anchor="middle" x="565" y="-483.5" font-family="Helvetica,sans-Serif" font-size="10.00"> </text>
<polyline fill="none" stroke="black" points="481.5,-476.5 648.5,-476.5 "/>
<text text-anchor="start" x="489.5" y="-464.5" font-family="Helvetica,sans-Serif" font-size="10.00">+ AddHeartBeat()</text>
<text text-anchor="start" x="489.5" y="-453.5" font-family="Helvetica,sans-Serif" font-size="10.00">+ FindHeartBeat()</text>
<text text-anchor="start" x="489.5" y="-442.5" font-family="Helvetica,sans-Serif" font-size="10.00">+ RemoveHeartBeat()</text>
<text text-anchor="start" x="489.5" y="-431.5" font-family="Helvetica,sans-Serif" font-size="10.00">+ AddRecordCallBack()</text>
<text text-anchor="start" x="489.5" y="-420.5" font-family="Helvetica,sans-Serif" font-size="10.00">+ AddPropertyCallBack()</text>
<text text-anchor="start" x="489.5" y="-409.5" font-family="Helvetica,sans-Serif" font-size="10.00">+ AddEventCallBack()</text>
<text text-anchor="start" x="489.5" y="-398.5" font-family="Helvetica,sans-Serif" font-size="10.00">+ AddClassCallBack()</text>
<text text-anchor="start" x="489.5" y="-387.5" font-family="Helvetica,sans-Serif" font-size="10.00">+ DoEvent()</text>
<text text-anchor="start" x="489.5" y="-376.5" font-family="Helvetica,sans-Serif" font-size="10.00">+ DoEvent()</text>
<text text-anchor="start" x="489.5" y="-365.5" font-family="Helvetica,sans-Serif" font-size="10.00">+ RegisterCommonClassEvent()</text>
<text text-anchor="start" x="489.5" y="-354.5" font-family="Helvetica,sans-Serif" font-size="10.00">and 56 more...</text>
<text text-anchor="start" x="489.5" y="-343.5" font-family="Helvetica,sans-Serif" font-size="10.00"># AddEventCallBack()</text>
<text text-anchor="start" x="489.5" y="-332.5" font-family="Helvetica,sans-Serif" font-size="10.00"># AddClassCallBack()</text>
<text text-anchor="start" x="489.5" y="-321.5" font-family="Helvetica,sans-Serif" font-size="10.00"># RegisterCommonClassEvent()</text>
<text text-anchor="start" x="489.5" y="-310.5" font-family="Helvetica,sans-Serif" font-size="10.00"># RegisterCommonPropertyEvent()</text>
<text text-anchor="start" x="489.5" y="-299.5" font-family="Helvetica,sans-Serif" font-size="10.00"># RegisterCommonRecordEvent()</text>
</a>
</g>
</g>
<!-- Node5&#45;&gt;Node11 -->
<g id="edge11" class="edge"><title>Node5&#45;&gt;Node11</title>
<path fill="none" stroke="midnightblue" d="M616.953,-618.721C608.885,-585.455 599.916,-548.471 591.732,-514.725"/>
<polygon fill="none" stroke="midnightblue" points="613.556,-619.563 619.314,-628.457 620.358,-617.914 613.556,-619.563"/>
</g>
<!-- Node12 -->
<g id="node10" class="node"><title>Node12</title>
<g id="a_node10"><a xlink:href="class_n_f_i_proxy_logic_module.html" target="_top" xlink:title="{NFIProxyLogicModule\n||}">
<polygon fill="white" stroke="black" points="667,-375 667,-432 779,-432 779,-375 667,-375"/>
<text text-anchor="middle" x="723" y="-420" font-family="Helvetica,sans-Serif" font-size="10.00">NFIProxyLogicModule</text>
<polyline fill="none" stroke="black" points="667,-413 779,-413 "/>
<text text-anchor="middle" x="723" y="-401" font-family="Helvetica,sans-Serif" font-size="10.00"> </text>
<polyline fill="none" stroke="black" points="667,-394 779,-394 "/>
<text text-anchor="middle" x="723" y="-382" font-family="Helvetica,sans-Serif" font-size="10.00"> </text>
</a>
</g>
</g>
<!-- Node5&#45;&gt;Node12 -->
<g id="edge13" class="edge"><title>Node5&#45;&gt;Node12</title>
<path fill="none" stroke="midnightblue" d="M668.406,-618.496C685.107,-553.033 705.461,-473.25 715.969,-432.06"/>
<polygon fill="none" stroke="midnightblue" points="664.945,-617.902 665.865,-628.457 671.728,-619.632 664.945,-617.902"/>
</g>
<!-- Node13 -->
<g id="node11" class="node"><title>Node13</title>
<g id="a_node11"><a xlink:href="class_n_f_i_class_module.html" target="_top" xlink:title="{NFIClassModule\n||+ ~NFIClassModule()\l+ Load()\l+ Save()\l+ Clear()\l+ AddClassCallBack()\l+ DoEvent()\l+ AddClassCallBack()\l+ GetClassPropertyManager()\l+ GetClassRecordManager()\l+ GetClassComponentManager()\l}">
<polygon fill="white" stroke="black" points="1119.5,-325.5 1119.5,-481.5 1278.5,-481.5 1278.5,-325.5 1119.5,-325.5"/>
<text text-anchor="middle" x="1199" y="-469.5" font-family="Helvetica,sans-Serif" font-size="10.00">NFIClassModule</text>
<polyline fill="none" stroke="black" points="1119.5,-462.5 1278.5,-462.5 "/>
<text text-anchor="middle" x="1199" y="-450.5" font-family="Helvetica,sans-Serif" font-size="10.00"> </text>
<polyline fill="none" stroke="black" points="1119.5,-443.5 1278.5,-443.5 "/>
<text text-anchor="start" x="1127.5" y="-431.5" font-family="Helvetica,sans-Serif" font-size="10.00">+ ~NFIClassModule()</text>
<text text-anchor="start" x="1127.5" y="-420.5" font-family="Helvetica,sans-Serif" font-size="10.00">+ Load()</text>
<text text-anchor="start" x="1127.5" y="-409.5" font-family="Helvetica,sans-Serif" font-size="10.00">+ Save()</text>
<text text-anchor="start" x="1127.5" y="-398.5" font-family="Helvetica,sans-Serif" font-size="10.00">+ Clear()</text>
<text text-anchor="start" x="1127.5" y="-387.5" font-family="Helvetica,sans-Serif" font-size="10.00">+ AddClassCallBack()</text>
<text text-anchor="start" x="1127.5" y="-376.5" font-family="Helvetica,sans-Serif" font-size="10.00">+ DoEvent()</text>
<text text-anchor="start" x="1127.5" y="-365.5" font-family="Helvetica,sans-Serif" font-size="10.00">+ AddClassCallBack()</text>
<text text-anchor="start" x="1127.5" y="-354.5" font-family="Helvetica,sans-Serif" font-size="10.00">+ GetClassPropertyManager()</text>
<text text-anchor="start" x="1127.5" y="-343.5" font-family="Helvetica,sans-Serif" font-size="10.00">+ GetClassRecordManager()</text>
<text text-anchor="start" x="1127.5" y="-332.5" font-family="Helvetica,sans-Serif" font-size="10.00">+ GetClassComponentManager()</text>
</a>
</g>
</g>
<!-- Node5&#45;&gt;Node13 -->
<g id="edge15" class="edge"><title>Node5&#45;&gt;Node13</title>
<path fill="none" stroke="midnightblue" d="M708.133,-718.257C806.432,-709.446 992.132,-679.916 1110,-581 1140.62,-555.299 1161.81,-516.438 1175.8,-481.716"/>
<polygon fill="none" stroke="midnightblue" points="707.7,-714.781 698.032,-719.117 708.293,-721.756 707.7,-714.781"/>
</g>
<!-- Node15 -->
<g id="node13" class="node"><title>Node15</title>
<g id="a_node13"><a xlink:href="class_n_f_i_element_module.html" target="_top" xlink:title="{NFIElementModule\n||+ Load()\l+ Save()\l+ Clear()\l+ ExistElement()\l+ ExistElement()\l+ GetPropertyManager()\l+ GetRecordManager()\l+ GetComponentManager()\l+ GetPropertyInt()\l+ GetPropertyFloat()\l+ GetPropertyString()\l}">
<polygon fill="white" stroke="black" points="967,-320 967,-487 1101,-487 1101,-320 967,-320"/>
<text text-anchor="middle" x="1034" y="-475" font-family="Helvetica,sans-Serif" font-size="10.00">NFIElementModule</text>
<polyline fill="none" stroke="black" points="967,-468 1101,-468 "/>
<text text-anchor="middle" x="1034" y="-456" font-family="Helvetica,sans-Serif" font-size="10.00"> </text>
<polyline fill="none" stroke="black" points="967,-449 1101,-449 "/>
<text text-anchor="start" x="975" y="-437" font-family="Helvetica,sans-Serif" font-size="10.00">+ Load()</text>
<text text-anchor="start" x="975" y="-426" font-family="Helvetica,sans-Serif" font-size="10.00">+ Save()</text>
<text text-anchor="start" x="975" y="-415" font-family="Helvetica,sans-Serif" font-size="10.00">+ Clear()</text>
<text text-anchor="start" x="975" y="-404" font-family="Helvetica,sans-Serif" font-size="10.00">+ ExistElement()</text>
<text text-anchor="start" x="975" y="-393" font-family="Helvetica,sans-Serif" font-size="10.00">+ ExistElement()</text>
<text text-anchor="start" x="975" y="-382" font-family="Helvetica,sans-Serif" font-size="10.00">+ GetPropertyManager()</text>
<text text-anchor="start" x="975" y="-371" font-family="Helvetica,sans-Serif" font-size="10.00">+ GetRecordManager()</text>
<text text-anchor="start" x="975" y="-360" font-family="Helvetica,sans-Serif" font-size="10.00">+ GetComponentManager()</text>
<text text-anchor="start" x="975" y="-349" font-family="Helvetica,sans-Serif" font-size="10.00">+ GetPropertyInt()</text>
<text text-anchor="start" x="975" y="-338" font-family="Helvetica,sans-Serif" font-size="10.00">+ GetPropertyFloat()</text>
<text text-anchor="start" x="975" y="-327" font-family="Helvetica,sans-Serif" font-size="10.00">+ GetPropertyString()</text>
</a>
</g>
</g>
<!-- Node5&#45;&gt;Node15 -->
<g id="edge18" class="edge"><title>Node5&#45;&gt;Node15</title>
<path fill="none" stroke="midnightblue" d="M708.367,-707.605C778.654,-689.236 888.818,-651.094 958,-581 983.428,-555.237 1000.95,-519.607 1012.71,-487.103"/>
<polygon fill="none" stroke="midnightblue" points="707.121,-704.311 698.296,-710.173 708.85,-711.094 707.121,-704.311"/>
</g>
<!-- Node16 -->
<g id="node14" class="node"><title>Node16</title>
<g id="a_node14"><a xlink:href="class_n_f_i_proxy_server_net___server_module.html" target="_top" xlink:title="{NFIProxyServerNet_Server\lModule\n||+ Transpond()\l+ EnterGameSuccessEvent()\l}">
<polygon fill="white" stroke="black" points="1296.5,-364 1296.5,-443 1439.5,-443 1439.5,-364 1296.5,-364"/>
<text text-anchor="start" x="1304.5" y="-431" font-family="Helvetica,sans-Serif" font-size="10.00">NFIProxyServerNet_Server</text>
<text text-anchor="middle" x="1368" y="-420" font-family="Helvetica,sans-Serif" font-size="10.00">Module</text>
<polyline fill="none" stroke="black" points="1296.5,-413 1439.5,-413 "/>
<text text-anchor="middle" x="1368" y="-401" font-family="Helvetica,sans-Serif" font-size="10.00"> </text>
<polyline fill="none" stroke="black" points="1296.5,-394 1439.5,-394 "/>
<text text-anchor="start" x="1304.5" y="-382" font-family="Helvetica,sans-Serif" font-size="10.00">+ Transpond()</text>
<text text-anchor="start" x="1304.5" y="-371" font-family="Helvetica,sans-Serif" font-size="10.00">+ EnterGameSuccessEvent()</text>
</a>
</g>
</g>
<!-- Node5&#45;&gt;Node16 -->
<g id="edge20" class="edge"><title>Node5&#45;&gt;Node16</title>
<path fill="none" stroke="midnightblue" d="M708.268,-709.198C868.458,-678.03 1265.24,-599.41 1288,-581 1330.9,-546.304 1351.67,-483.626 1361.05,-443.058"/>
<polygon fill="none" stroke="midnightblue" points="707.213,-705.838 698.065,-711.182 708.549,-712.709 707.213,-705.838"/>
</g>
<!-- Node17 -->
<g id="node15" class="node"><title>Node17</title>
<g id="a_node15"><a xlink:href="class_n_f_i_log_module.html" target="_top" xlink:title="{NFILogModule\n||+ LogDebug()\l+ LogInfo()\l+ LogWarning()\l+ LogError()\l+ LogFatal()\l+ LogDebug()\l+ LogInfo()\l+ LogWarning()\l+ LogError()\l+ LogFatal()\land 8 more...\l}">
<polygon fill="white" stroke="black" points="251.5,-320 251.5,-487 334.5,-487 334.5,-320 251.5,-320"/>
<text text-anchor="middle" x="293" y="-475" font-family="Helvetica,sans-Serif" font-size="10.00">NFILogModule</text>
<polyline fill="none" stroke="black" points="251.5,-468 334.5,-468 "/>
<text text-anchor="middle" x="293" y="-456" font-family="Helvetica,sans-Serif" font-size="10.00"> </text>
<polyline fill="none" stroke="black" points="251.5,-449 334.5,-449 "/>
<text text-anchor="start" x="259.5" y="-437" font-family="Helvetica,sans-Serif" font-size="10.00">+ LogDebug()</text>
<text text-anchor="start" x="259.5" y="-426" font-family="Helvetica,sans-Serif" font-size="10.00">+ LogInfo()</text>
<text text-anchor="start" x="259.5" y="-415" font-family="Helvetica,sans-Serif" font-size="10.00">+ LogWarning()</text>
<text text-anchor="start" x="259.5" y="-404" font-family="Helvetica,sans-Serif" font-size="10.00">+ LogError()</text>
<text text-anchor="start" x="259.5" y="-393" font-family="Helvetica,sans-Serif" font-size="10.00">+ LogFatal()</text>
<text text-anchor="start" x="259.5" y="-382" font-family="Helvetica,sans-Serif" font-size="10.00">+ LogDebug()</text>
<text text-anchor="start" x="259.5" y="-371" font-family="Helvetica,sans-Serif" font-size="10.00">+ LogInfo()</text>
<text text-anchor="start" x="259.5" y="-360" font-family="Helvetica,sans-Serif" font-size="10.00">+ LogWarning()</text>
<text text-anchor="start" x="259.5" y="-349" font-family="Helvetica,sans-Serif" font-size="10.00">+ LogError()</text>
<text text-anchor="start" x="259.5" y="-338" font-family="Helvetica,sans-Serif" font-size="10.00">+ LogFatal()</text>
<text text-anchor="start" x="259.5" y="-327" font-family="Helvetica,sans-Serif" font-size="10.00">and 8 more...</text>
</a>
</g>
</g>
<!-- Node5&#45;&gt;Node17 -->
<g id="edge22" class="edge"><title>Node5&#45;&gt;Node17</title>
<path fill="none" stroke="midnightblue" d="M576.219,-707.944C508.146,-690.005 403.482,-652.356 343,-581 320.863,-554.883 308.501,-519.577 301.608,-487.405"/>
<polygon fill="none" stroke="midnightblue" points="575.431,-711.355 585.987,-710.45 577.17,-704.575 575.431,-711.355"/>
</g>
<!-- Node6&#45;&gt;Node5 -->
<g id="edge3" class="edge"><title>Node6&#45;&gt;Node5</title>
<path fill="none" stroke="#404040" d="M433.062,-498.018C442.836,-525.965 455.689,-555.837 472,-581 498.291,-621.56 539.909,-656.364 575.386,-681.246"/>
<polygon fill="none" stroke="#404040" points="575.798,-681.529 583.009,-681.626 585.692,-688.32 578.481,-688.222 575.798,-681.529"/>
<text text-anchor="middle" x="533.5" y="-602" font-family="Helvetica,sans-Serif" font-size="10.00"> #pPluginManager</text>
</g>
<!-- Node7&#45;&gt;Node3 -->
<g id="edge5" class="edge"><title>Node7&#45;&gt;Node3</title>
<path fill="none" stroke="#404040" d="M228.109,-226.402C240.162,-210.6 254.343,-196.597 271,-186 340.662,-141.682 566.783,-110.249 698.778,-95.15"/>
<polygon fill="none" stroke="#404040" points="698.933,-95.1326 704.446,-90.4835 710.857,-93.7838 705.345,-98.4328 698.933,-95.1326"/>
<text text-anchor="middle" x="319.5" y="-194.5" font-family="Helvetica,sans-Serif" font-size="10.00"> &#45;m_pNetClientModule</text>
</g>
<!-- Node8 -->
<g id="node6" class="node"><title>Node8</title>
<g id="a_node6"><a xlink:href="class_n_f_map_ex.html" target="_top" xlink:title="{NFMapEx\&lt; int, ConnectData \&gt;\n|&#45; mObjectList\l&#45; mObjectCurIter\l|+ NFMapEx()\l+ ~NFMapEx()\l+ AddElement()\l+ SetElement()\l+ RemoveElement()\l+ GetElementNude()\l+ GetElement()\l+ FirstNude()\l+ FirstNude()\l+ NextNude()\land 7 more...\l}">
<polygon fill="white" stroke="black" points="144.5,-634 144.5,-812 295.5,-812 295.5,-634 144.5,-634"/>
<text text-anchor="middle" x="220" y="-800" font-family="Helvetica,sans-Serif" font-size="10.00">NFMapEx&lt; int, ConnectData &gt;</text>
<polyline fill="none" stroke="black" points="144.5,-793 295.5,-793 "/>
<text text-anchor="start" x="152.5" y="-781" font-family="Helvetica,sans-Serif" font-size="10.00">&#45; mObjectList</text>
<text text-anchor="start" x="152.5" y="-770" font-family="Helvetica,sans-Serif" font-size="10.00">&#45; mObjectCurIter</text>
<polyline fill="none" stroke="black" points="144.5,-763 295.5,-763 "/>
<text text-anchor="start" x="152.5" y="-751" font-family="Helvetica,sans-Serif" font-size="10.00">+ NFMapEx()</text>
<text text-anchor="start" x="152.5" y="-740" font-family="Helvetica,sans-Serif" font-size="10.00">+ ~NFMapEx()</text>
<text text-anchor="start" x="152.5" y="-729" font-family="Helvetica,sans-Serif" font-size="10.00">+ AddElement()</text>
<text text-anchor="start" x="152.5" y="-718" font-family="Helvetica,sans-Serif" font-size="10.00">+ SetElement()</text>
<text text-anchor="start" x="152.5" y="-707" font-family="Helvetica,sans-Serif" font-size="10.00">+ RemoveElement()</text>
<text text-anchor="start" x="152.5" y="-696" font-family="Helvetica,sans-Serif" font-size="10.00">+ GetElementNude()</text>
<text text-anchor="start" x="152.5" y="-685" font-family="Helvetica,sans-Serif" font-size="10.00">+ GetElement()</text>
<text text-anchor="start" x="152.5" y="-674" font-family="Helvetica,sans-Serif" font-size="10.00">+ FirstNude()</text>
<text text-anchor="start" x="152.5" y="-663" font-family="Helvetica,sans-Serif" font-size="10.00">+ FirstNude()</text>
<text text-anchor="start" x="152.5" y="-652" font-family="Helvetica,sans-Serif" font-size="10.00">+ NextNude()</text>
<text text-anchor="start" x="152.5" y="-641" font-family="Helvetica,sans-Serif" font-size="10.00">and 7 more...</text>
</a>
</g>
</g>
<!-- Node8&#45;&gt;Node7 -->
<g id="edge7" class="edge"><title>Node8&#45;&gt;Node7</title>
<path fill="none" stroke="#404040" d="M204.198,-633.98C201.843,-620.861 199.342,-606.932 196.783,-592.675"/>
<polygon fill="none" stroke="#404040" points="196.741,-592.444 191.744,-587.245 194.621,-580.633 199.618,-585.832 196.741,-592.444"/>
<text text-anchor="middle" x="232" y="-602" font-family="Helvetica,sans-Serif" font-size="10.00"> &#45;mxServerMap</text>
</g>
<!-- Node9 -->
<g id="node7" class="node"><title>Node9</title>
<g id="a_node7"><a xlink:href="class_n_f_c_consistent_hash.html" target="_top" xlink:title="A nfc consistent hash. ">
<polygon fill="white" stroke="black" points="0,-634 0,-812 126,-812 126,-634 0,-634"/>
<text text-anchor="middle" x="63" y="-800" font-family="Helvetica,sans-Serif" font-size="10.00">NFCConsistentHash</text>
<polyline fill="none" stroke="black" points="0,-793 126,-793 "/>
<text text-anchor="start" x="8" y="-781" font-family="Helvetica,sans-Serif" font-size="10.00">&#45; mxNodes</text>
<polyline fill="none" stroke="black" points="0,-774 126,-774 "/>
<text text-anchor="start" x="8" y="-762" font-family="Helvetica,sans-Serif" font-size="10.00">+ NFCConsistentHash()</text>
<text text-anchor="start" x="8" y="-751" font-family="Helvetica,sans-Serif" font-size="10.00">+ ~NFCConsistentHash()</text>
<text text-anchor="start" x="8" y="-740" font-family="Helvetica,sans-Serif" font-size="10.00">+ Size()</text>
<text text-anchor="start" x="8" y="-729" font-family="Helvetica,sans-Serif" font-size="10.00">+ Empty()</text>
<text text-anchor="start" x="8" y="-718" font-family="Helvetica,sans-Serif" font-size="10.00">+ Insert()</text>
<text text-anchor="start" x="8" y="-707" font-family="Helvetica,sans-Serif" font-size="10.00">+ Insert()</text>
<text text-anchor="start" x="8" y="-696" font-family="Helvetica,sans-Serif" font-size="10.00">+ Exist()</text>
<text text-anchor="start" x="8" y="-685" font-family="Helvetica,sans-Serif" font-size="10.00">+ Erase()</text>
<text text-anchor="start" x="8" y="-674" font-family="Helvetica,sans-Serif" font-size="10.00">+ GetSuitNode()</text>
<text text-anchor="start" x="8" y="-663" font-family="Helvetica,sans-Serif" font-size="10.00">+ GetSuitNode()</text>
<text text-anchor="start" x="8" y="-652" font-family="Helvetica,sans-Serif" font-size="10.00">+ GetSuitNode()</text>
<text text-anchor="start" x="8" y="-641" font-family="Helvetica,sans-Serif" font-size="10.00">+ GetNodeList()</text>
</a>
</g>
</g>
<!-- Node9&#45;&gt;Node7 -->
<g id="edge8" class="edge"><title>Node9&#45;&gt;Node7</title>
<path fill="none" stroke="#404040" d="M90.7228,-633.98C94.896,-620.73 99.3295,-606.654 103.867,-592.248"/>
<polygon fill="none" stroke="#404040" points="103.92,-592.079 101.907,-585.154 107.525,-580.633 109.538,-587.557 103.92,-592.079"/>
<text text-anchor="middle" x="146.5" y="-602" font-family="Helvetica,sans-Serif" font-size="10.00"> &#45;mxConsistentHash</text>
</g>
<!-- Node10 -->
<g id="node8" class="node"><title>Node10</title>
<g id="a_node8"><a xlink:href="class_n_f_i_hasher.html" target="_top" xlink:title="A nfi hasher. ">
<polygon fill="white" stroke="black" points="15.5,-865.5 15.5,-922.5 110.5,-922.5 110.5,-865.5 15.5,-865.5"/>
<text text-anchor="middle" x="63" y="-910.5" font-family="Helvetica,sans-Serif" font-size="10.00">NFIHasher</text>
<polyline fill="none" stroke="black" points="15.5,-903.5 110.5,-903.5 "/>
<text text-anchor="middle" x="63" y="-891.5" font-family="Helvetica,sans-Serif" font-size="10.00"> </text>
<polyline fill="none" stroke="black" points="15.5,-884.5 110.5,-884.5 "/>
<text text-anchor="start" x="23.5" y="-872.5" font-family="Helvetica,sans-Serif" font-size="10.00">+ GetHashValue()</text>
</a>
</g>
</g>
<!-- Node10&#45;&gt;Node9 -->
<g id="edge9" class="edge"><title>Node10&#45;&gt;Node9</title>
<path fill="none" stroke="#404040" d="M63,-865.471C63,-853.81 63,-839.44 63,-824.372"/>
<polygon fill="none" stroke="#404040" points="63.0001,-824.176 59,-818.176 63,-812.176 67,-818.176 63.0001,-824.176"/>
<text text-anchor="middle" x="91" y="-839" font-family="Helvetica,sans-Serif" font-size="10.00"> &#45;m_pHasher</text>
</g>
<!-- Node11&#45;&gt;Node3 -->
<g id="edge10" class="edge"><title>Node11&#45;&gt;Node3</title>
<path fill="none" stroke="#404040" d="M595.262,-292.385C608.735,-256.068 627.278,-217.061 652,-186 665.621,-168.886 682.902,-153.471 700.748,-140.135"/>
<polygon fill="none" stroke="#404040" points="700.974,-139.972 703.494,-133.215 710.7,-132.943 708.18,-139.699 700.974,-139.972"/>
<text text-anchor="middle" x="694.5" y="-194.5" font-family="Helvetica,sans-Serif" font-size="10.00"> &#45;m_pKernelModule</text>
</g>
<!-- Node12&#45;&gt;Node3 -->
<g id="edge12" class="edge"><title>Node12&#45;&gt;Node3</title>
<path fill="none" stroke="#404040" d="M722.551,-374.868C722.592,-333.088 725.499,-251.74 745,-186 745.673,-183.731 746.397,-181.453 747.166,-179.171"/>
<polygon fill="none" stroke="#404040" points="747.219,-179.027 745.533,-172.016 751.357,-167.763 753.043,-174.774 747.219,-179.027"/>
<text text-anchor="middle" x="798" y="-194.5" font-family="Helvetica,sans-Serif" font-size="10.00"> &#45;m_pProxyLogicModule</text>
</g>
<!-- Node13&#45;&gt;Node3 -->
<g id="edge14" class="edge"><title>Node13&#45;&gt;Node3</title>
<path fill="none" stroke="#404040" d="M1171.62,-325.214C1157.07,-291.904 1136.61,-254.209 1110,-226 1052.3,-164.833 963.13,-128.26 894.703,-107.751"/>
<polygon fill="none" stroke="#404040" points="894.566,-107.711 887.686,-109.871 883.046,-104.351 889.926,-102.191 894.566,-107.711"/>
<text text-anchor="middle" x="1132" y="-194.5" font-family="Helvetica,sans-Serif" font-size="10.00"> &#45;m_pClassModule</text>
</g>
<!-- Node14 -->
<g id="node12" class="node"><title>Node14</title>
<g id="a_node12"><a xlink:href="class_n_f_map_ex.html" target="_top" xlink:title="{NFMapEx\&lt; std::string,\l NFIClass \&gt;\n|&#45; mObjectList\l&#45; mObjectCurIter\l|+ NFMapEx()\l+ ~NFMapEx()\l+ AddElement()\l+ SetElement()\l+ RemoveElement()\l+ GetElementNude()\l+ GetElement()\l+ FirstNude()\l+ FirstNude()\l+ NextNude()\land 7 more...\l}">
<polygon fill="white" stroke="black" points="1141,-628.5 1141,-817.5 1257,-817.5 1257,-628.5 1141,-628.5"/>
<text text-anchor="start" x="1149" y="-805.5" font-family="Helvetica,sans-Serif" font-size="10.00">NFMapEx&lt; std::string,</text>
<text text-anchor="middle" x="1199" y="-794.5" font-family="Helvetica,sans-Serif" font-size="10.00"> NFIClass &gt;</text>
<polyline fill="none" stroke="black" points="1141,-787.5 1257,-787.5 "/>
<text text-anchor="start" x="1149" y="-775.5" font-family="Helvetica,sans-Serif" font-size="10.00">&#45; mObjectList</text>
<text text-anchor="start" x="1149" y="-764.5" font-family="Helvetica,sans-Serif" font-size="10.00">&#45; mObjectCurIter</text>
<polyline fill="none" stroke="black" points="1141,-757.5 1257,-757.5 "/>
<text text-anchor="start" x="1149" y="-745.5" font-family="Helvetica,sans-Serif" font-size="10.00">+ NFMapEx()</text>
<text text-anchor="start" x="1149" y="-734.5" font-family="Helvetica,sans-Serif" font-size="10.00">+ ~NFMapEx()</text>
<text text-anchor="start" x="1149" y="-723.5" font-family="Helvetica,sans-Serif" font-size="10.00">+ AddElement()</text>
<text text-anchor="start" x="1149" y="-712.5" font-family="Helvetica,sans-Serif" font-size="10.00">+ SetElement()</text>
<text text-anchor="start" x="1149" y="-701.5" font-family="Helvetica,sans-Serif" font-size="10.00">+ RemoveElement()</text>
<text text-anchor="start" x="1149" y="-690.5" font-family="Helvetica,sans-Serif" font-size="10.00">+ GetElementNude()</text>
<text text-anchor="start" x="1149" y="-679.5" font-family="Helvetica,sans-Serif" font-size="10.00">+ GetElement()</text>
<text text-anchor="start" x="1149" y="-668.5" font-family="Helvetica,sans-Serif" font-size="10.00">+ FirstNude()</text>
<text text-anchor="start" x="1149" y="-657.5" font-family="Helvetica,sans-Serif" font-size="10.00">+ FirstNude()</text>
<text text-anchor="start" x="1149" y="-646.5" font-family="Helvetica,sans-Serif" font-size="10.00">+ NextNude()</text>
<text text-anchor="start" x="1149" y="-635.5" font-family="Helvetica,sans-Serif" font-size="10.00">and 7 more...</text>
</a>
</g>
</g>
<!-- Node14&#45;&gt;Node13 -->
<g id="edge16" class="edge"><title>Node14&#45;&gt;Node13</title>
<path fill="none" stroke="midnightblue" d="M1199,-618.189C1199,-573.708 1199,-522.662 1199,-481.617"/>
<polygon fill="none" stroke="midnightblue" points="1195.5,-618.457 1199,-628.457 1202.5,-618.457 1195.5,-618.457"/>
</g>
<!-- Node15&#45;&gt;Node3 -->
<g id="edge17" class="edge"><title>Node15&#45;&gt;Node3</title>
<path fill="none" stroke="#404040" d="M1007.21,-319.838C994.943,-288.776 978.513,-254.19 958,-226 939.665,-200.804 916.064,-176.984 892.615,-156.342"/>
<polygon fill="none" stroke="#404040" points="892.379,-156.138 885.224,-155.243 883.298,-148.294 890.453,-149.189 892.379,-156.138"/>
<text text-anchor="middle" x="990.5" y="-194.5" font-family="Helvetica,sans-Serif" font-size="10.00"> &#45;m_pElementModule</text>
</g>
<!-- Node16&#45;&gt;Node3 -->
<g id="edge19" class="edge"><title>Node16&#45;&gt;Node3</title>
<path fill="none" stroke="#404040" d="M1359.85,-363.907C1349.57,-324.208 1328.17,-263.087 1288,-226 1179.5,-125.822 1004.43,-96.3097 895.28,-87.9187"/>
<polygon fill="none" stroke="#404040" points="895.259,-87.9173 888.989,-91.4792 883.29,-87.0614 889.56,-83.4996 895.259,-87.9173"/>
<text text-anchor="start" x="1256" y="-200" font-family="Helvetica,sans-Serif" font-size="10.00"> &#45;m_pProxyServerNet</text>
<text text-anchor="middle" x="1302.5" y="-189" font-family="Helvetica,sans-Serif" font-size="10.00">_ServerModule</text>
</g>
<!-- Node17&#45;&gt;Node3 -->
<g id="edge21" class="edge"><title>Node17&#45;&gt;Node3</title>
<path fill="none" stroke="#404040" d="M299.461,-319.78C305.985,-286.867 318.652,-250.967 343,-226 437.133,-129.476 595.999,-98.7251 698.651,-89.1092"/>
<polygon fill="none" stroke="#404040" points="698.928,-89.085 704.556,-84.5769 710.882,-88.0383 705.254,-92.5464 698.928,-89.085"/>
<text text-anchor="middle" x="418.5" y="-194.5" font-family="Helvetica,sans-Serif" font-size="10.00"> &#45;m_pLogModule</text>
</g>
</g>
</svg>
