<?xml version="1.0" encoding="UTF-8" standalone="no"?>
<!DOCTYPE svg PUBLIC "-//W3C//DTD SVG 1.1//EN"
 "http://www.w3.org/Graphics/SVG/1.1/DTD/svg11.dtd">
<!-- Generated by graphviz version 2.38.0 (20140413.2041)
 -->
<!-- Title: NFCClassModule Pages: 1 -->
<svg width="449pt" height="749pt"
 viewBox="0.00 0.00 449.00 749.00" xmlns="http://www.w3.org/2000/svg" xmlns:xlink="http://www.w3.org/1999/xlink">
<g id="graph0" class="graph" transform="scale(1 1) rotate(0) translate(4 745)">
<title>NFCClassModule</title>
<polygon fill="white" stroke="none" points="-4,4 -4,-745 445,-745 445,4 -4,4"/>
<!-- Node4 -->
<g id="node1" class="node"><title>Node4</title>
<polygon fill="#bfbfbf" stroke="black" points="206,-0.5 206,-266.5 365,-266.5 365,-0.5 206,-0.5"/>
<text text-anchor="middle" x="285.5" y="-254.5" font-family="Helvetica,sans-Serif" font-size="10.00">NFCClassModule</text>
<polyline fill="none" stroke="black" points="206,-247.5 365,-247.5 "/>
<text text-anchor="start" x="214" y="-235.5" font-family="Helvetica,sans-Serif" font-size="10.00"># msConfigFileName</text>
<polyline fill="none" stroke="black" points="206,-228.5 365,-228.5 "/>
<text text-anchor="start" x="214" y="-216.5" font-family="Helvetica,sans-Serif" font-size="10.00">+ NFCClassModule()</text>
<text text-anchor="start" x="214" y="-205.5" font-family="Helvetica,sans-Serif" font-size="10.00">+ ~NFCClassModule()</text>
<text text-anchor="start" x="214" y="-194.5" font-family="Helvetica,sans-Serif" font-size="10.00">+ Init()</text>
<text text-anchor="start" x="214" y="-183.5" font-family="Helvetica,sans-Serif" font-size="10.00">+ Shut()</text>
<text text-anchor="start" x="214" y="-172.5" font-family="Helvetica,sans-Serif" font-size="10.00">+ Load()</text>
<text text-anchor="start" x="214" y="-161.5" font-family="Helvetica,sans-Serif" font-size="10.00">+ Save()</text>
<text text-anchor="start" x="214" y="-150.5" font-family="Helvetica,sans-Serif" font-size="10.00">+ Clear()</text>
<text text-anchor="start" x="214" y="-139.5" font-family="Helvetica,sans-Serif" font-size="10.00">+ AddClassCallBack()</text>
<text text-anchor="start" x="214" y="-128.5" font-family="Helvetica,sans-Serif" font-size="10.00">+ DoEvent()</text>
<text text-anchor="start" x="214" y="-117.5" font-family="Helvetica,sans-Serif" font-size="10.00">+ GetClassPropertyManager()</text>
<text text-anchor="start" x="214" y="-106.5" font-family="Helvetica,sans-Serif" font-size="10.00">+ GetClassRecordManager()</text>
<text text-anchor="start" x="214" y="-95.5" font-family="Helvetica,sans-Serif" font-size="10.00">+ GetClassComponentManager()</text>
<text text-anchor="start" x="214" y="-84.5" font-family="Helvetica,sans-Serif" font-size="10.00">+ AddClass()</text>
<text text-anchor="start" x="214" y="-73.5" font-family="Helvetica,sans-Serif" font-size="10.00"># ComputerType()</text>
<text text-anchor="start" x="214" y="-62.5" font-family="Helvetica,sans-Serif" font-size="10.00"># AddPropertys()</text>
<text text-anchor="start" x="214" y="-51.5" font-family="Helvetica,sans-Serif" font-size="10.00"># AddRecords()</text>
<text text-anchor="start" x="214" y="-40.5" font-family="Helvetica,sans-Serif" font-size="10.00"># AddComponents()</text>
<text text-anchor="start" x="214" y="-29.5" font-family="Helvetica,sans-Serif" font-size="10.00"># AddClassInclude()</text>
<text text-anchor="start" x="214" y="-18.5" font-family="Helvetica,sans-Serif" font-size="10.00"># AddClass()</text>
<text text-anchor="start" x="214" y="-7.5" font-family="Helvetica,sans-Serif" font-size="10.00"># Load()</text>
</g>
<!-- Node5 -->
<g id="node2" class="node"><title>Node5</title>
<g id="a_node2"><a xlink:href="class_n_f_i_class_module.html" target="_top" xlink:title="{NFIClassModule\n||+ ~NFIClassModule()\l+ Load()\l+ Save()\l+ Clear()\l+ AddClassCallBack()\l+ DoEvent()\l+ AddClassCallBack()\l+ GetClassPropertyManager()\l+ GetClassRecordManager()\l+ GetClassComponentManager()\l}">
<polygon fill="white" stroke="black" points="282,-331 282,-487 441,-487 441,-331 282,-331"/>
<text text-anchor="middle" x="361.5" y="-475" font-family="Helvetica,sans-Serif" font-size="10.00">NFIClassModule</text>
<polyline fill="none" stroke="black" points="282,-468 441,-468 "/>
<text text-anchor="middle" x="361.5" y="-456" font-family="Helvetica,sans-Serif" font-size="10.00"> </text>
<polyline fill="none" stroke="black" points="282,-449 441,-449 "/>
<text text-anchor="start" x="290" y="-437" font-family="Helvetica,sans-Serif" font-size="10.00">+ ~NFIClassModule()</text>
<text text-anchor="start" x="290" y="-426" font-family="Helvetica,sans-Serif" font-size="10.00">+ Load()</text>
<text text-anchor="start" x="290" y="-415" font-family="Helvetica,sans-Serif" font-size="10.00">+ Save()</text>
<text text-anchor="start" x="290" y="-404" font-family="Helvetica,sans-Serif" font-size="10.00">+ Clear()</text>
<text text-anchor="start" x="290" y="-393" font-family="Helvetica,sans-Serif" font-size="10.00">+ AddClassCallBack()</text>
<text text-anchor="start" x="290" y="-382" font-family="Helvetica,sans-Serif" font-size="10.00">+ DoEvent()</text>
<text text-anchor="start" x="290" y="-371" font-family="Helvetica,sans-Serif" font-size="10.00">+ AddClassCallBack()</text>
<text text-anchor="start" x="290" y="-360" font-family="Helvetica,sans-Serif" font-size="10.00">+ GetClassPropertyManager()</text>
<text text-anchor="start" x="290" y="-349" font-family="Helvetica,sans-Serif" font-size="10.00">+ GetClassRecordManager()</text>
<text text-anchor="start" x="290" y="-338" font-family="Helvetica,sans-Serif" font-size="10.00">+ GetClassComponentManager()</text>
</a>
</g>
</g>
<!-- Node5&#45;&gt;Node4 -->
<g id="edge1" class="edge"><title>Node5&#45;&gt;Node4</title>
<path fill="none" stroke="midnightblue" d="M337.249,-320.728C332.461,-303.497 327.336,-285.056 322.242,-266.723"/>
<polygon fill="none" stroke="midnightblue" points="333.977,-322.025 340.026,-330.723 340.721,-320.151 333.977,-322.025"/>
</g>
<!-- Node6 -->
<g id="node3" class="node"><title>Node6</title>
<g id="a_node3"><a xlink:href="class_n_f_i_module.html" target="_top" xlink:title="{NFIModule\n|+ strName\l# mbReloading\l|+ NFIModule()\l+ ~NFIModule()\l+ Init()\l+ AfterInit()\l+ CheckConfig()\l+ BeforeShut()\l+ Shut()\l+ Execute()\l+ StartReLoadState()\l+ EndReLoadState()\l+ GetPluginManager()\l+ Loading()\l}">
<polygon fill="white" stroke="black" points="84.5,-551.5 84.5,-740.5 196.5,-740.5 196.5,-551.5 84.5,-551.5"/>
<text text-anchor="middle" x="140.5" y="-728.5" font-family="Helvetica,sans-Serif" font-size="10.00">NFIModule</text>
<polyline fill="none" stroke="black" points="84.5,-721.5 196.5,-721.5 "/>
<text text-anchor="start" x="92.5" y="-709.5" font-family="Helvetica,sans-Serif" font-size="10.00">+ strName</text>
<text text-anchor="start" x="92.5" y="-698.5" font-family="Helvetica,sans-Serif" font-size="10.00"># mbReloading</text>
<polyline fill="none" stroke="black" points="84.5,-691.5 196.5,-691.5 "/>
<text text-anchor="start" x="92.5" y="-679.5" font-family="Helvetica,sans-Serif" font-size="10.00">+ NFIModule()</text>
<text text-anchor="start" x="92.5" y="-668.5" font-family="Helvetica,sans-Serif" font-size="10.00">+ ~NFIModule()</text>
<text text-anchor="start" x="92.5" y="-657.5" font-family="Helvetica,sans-Serif" font-size="10.00">+ Init()</text>
<text text-anchor="start" x="92.5" y="-646.5" font-family="Helvetica,sans-Serif" font-size="10.00">+ AfterInit()</text>
<text text-anchor="start" x="92.5" y="-635.5" font-family="Helvetica,sans-Serif" font-size="10.00">+ CheckConfig()</text>
<text text-anchor="start" x="92.5" y="-624.5" font-family="Helvetica,sans-Serif" font-size="10.00">+ BeforeShut()</text>
<text text-anchor="start" x="92.5" y="-613.5" font-family="Helvetica,sans-Serif" font-size="10.00">+ Shut()</text>
<text text-anchor="start" x="92.5" y="-602.5" font-family="Helvetica,sans-Serif" font-size="10.00">+ Execute()</text>
<text text-anchor="start" x="92.5" y="-591.5" font-family="Helvetica,sans-Serif" font-size="10.00">+ StartReLoadState()</text>
<text text-anchor="start" x="92.5" y="-580.5" font-family="Helvetica,sans-Serif" font-size="10.00">+ EndReLoadState()</text>
<text text-anchor="start" x="92.5" y="-569.5" font-family="Helvetica,sans-Serif" font-size="10.00">+ GetPluginManager()</text>
<text text-anchor="start" x="92.5" y="-558.5" font-family="Helvetica,sans-Serif" font-size="10.00">+ Loading()</text>
</a>
</g>
</g>
<!-- Node6&#45;&gt;Node5 -->
<g id="edge2" class="edge"><title>Node6&#45;&gt;Node5</title>
<path fill="none" stroke="midnightblue" d="M203.565,-577.94C230.145,-549.676 261.245,-516.606 288.785,-487.321"/>
<polygon fill="none" stroke="midnightblue" points="200.854,-575.713 196.553,-585.396 205.954,-580.509 200.854,-575.713"/>
</g>
<!-- Node7 -->
<g id="node4" class="node"><title>Node7</title>
<g id="a_node4"><a xlink:href="class_n_f_i_plugin_manager.html" target="_top" xlink:title="{NFIPluginManager\n||+ NFIPluginManager()\l+ FindModule()\l+ Registered()\l+ UnRegistered()\l+ FindPlugin()\l+ AddModule()\l+ RemoveModule()\l+ FindModule()\l+ AppID()\l+ GetInitTime()\l+ GetNowTime()\l+ GetConfigPath()\l+ SetConfigName()\l}">
<polygon fill="white" stroke="black" points="0,-314.5 0,-503.5 111,-503.5 111,-314.5 0,-314.5"/>
<text text-anchor="middle" x="55.5" y="-491.5" font-family="Helvetica,sans-Serif" font-size="10.00">NFIPluginManager</text>
<polyline fill="none" stroke="black" points="0,-484.5 111,-484.5 "/>
<text text-anchor="middle" x="55.5" y="-472.5" font-family="Helvetica,sans-Serif" font-size="10.00"> </text>
<polyline fill="none" stroke="black" points="0,-465.5 111,-465.5 "/>
<text text-anchor="start" x="8" y="-453.5" font-family="Helvetica,sans-Serif" font-size="10.00">+ NFIPluginManager()</text>
<text text-anchor="start" x="8" y="-442.5" font-family="Helvetica,sans-Serif" font-size="10.00">+ FindModule()</text>
<text text-anchor="start" x="8" y="-431.5" font-family="Helvetica,sans-Serif" font-size="10.00">+ Registered()</text>
<text text-anchor="start" x="8" y="-420.5" font-family="Helvetica,sans-Serif" font-size="10.00">+ UnRegistered()</text>
<text text-anchor="start" x="8" y="-409.5" font-family="Helvetica,sans-Serif" font-size="10.00">+ FindPlugin()</text>
<text text-anchor="start" x="8" y="-398.5" font-family="Helvetica,sans-Serif" font-size="10.00">+ AddModule()</text>
<text text-anchor="start" x="8" y="-387.5" font-family="Helvetica,sans-Serif" font-size="10.00">+ RemoveModule()</text>
<text text-anchor="start" x="8" y="-376.5" font-family="Helvetica,sans-Serif" font-size="10.00">+ FindModule()</text>
<text text-anchor="start" x="8" y="-365.5" font-family="Helvetica,sans-Serif" font-size="10.00">+ AppID()</text>
<text text-anchor="start" x="8" y="-354.5" font-family="Helvetica,sans-Serif" font-size="10.00">+ GetInitTime()</text>
<text text-anchor="start" x="8" y="-343.5" font-family="Helvetica,sans-Serif" font-size="10.00">+ GetNowTime()</text>
<text text-anchor="start" x="8" y="-332.5" font-family="Helvetica,sans-Serif" font-size="10.00">+ GetConfigPath()</text>
<text text-anchor="start" x="8" y="-321.5" font-family="Helvetica,sans-Serif" font-size="10.00">+ SetConfigName()</text>
</a>
</g>
</g>
<!-- Node6&#45;&gt;Node7 -->
<g id="edge4" class="edge"><title>Node6&#45;&gt;Node7</title>
<path fill="none" stroke="midnightblue" d="M88.8169,-541.79C87.6639,-538.844 86.5552,-535.91 85.5,-533 82.0908,-523.598 78.9459,-513.653 76.0788,-503.654"/>
<polygon fill="none" stroke="midnightblue" points="85.6409,-543.272 92.6385,-551.228 92.1291,-540.645 85.6409,-543.272"/>
</g>
<!-- Node9 -->
<g id="node6" class="node"><title>Node9</title>
<g id="a_node6"><a xlink:href="class_n_f_i_element_module.html" target="_top" xlink:title="{NFIElementModule\n||+ Load()\l+ Save()\l+ Clear()\l+ ExistElement()\l+ ExistElement()\l+ GetPropertyManager()\l+ GetRecordManager()\l+ GetComponentManager()\l+ GetPropertyInt()\l+ GetPropertyFloat()\l+ GetPropertyString()\l}">
<polygon fill="white" stroke="black" points="129.5,-325.5 129.5,-492.5 263.5,-492.5 263.5,-325.5 129.5,-325.5"/>
<text text-anchor="middle" x="196.5" y="-480.5" font-family="Helvetica,sans-Serif" font-size="10.00">NFIElementModule</text>
<polyline fill="none" stroke="black" points="129.5,-473.5 263.5,-473.5 "/>
<text text-anchor="middle" x="196.5" y="-461.5" font-family="Helvetica,sans-Serif" font-size="10.00"> </text>
<polyline fill="none" stroke="black" points="129.5,-454.5 263.5,-454.5 "/>
<text text-anchor="start" x="137.5" y="-442.5" font-family="Helvetica,sans-Serif" font-size="10.00">+ Load()</text>
<text text-anchor="start" x="137.5" y="-431.5" font-family="Helvetica,sans-Serif" font-size="10.00">+ Save()</text>
<text text-anchor="start" x="137.5" y="-420.5" font-family="Helvetica,sans-Serif" font-size="10.00">+ Clear()</text>
<text text-anchor="start" x="137.5" y="-409.5" font-family="Helvetica,sans-Serif" font-size="10.00">+ ExistElement()</text>
<text text-anchor="start" x="137.5" y="-398.5" font-family="Helvetica,sans-Serif" font-size="10.00">+ ExistElement()</text>
<text text-anchor="start" x="137.5" y="-387.5" font-family="Helvetica,sans-Serif" font-size="10.00">+ GetPropertyManager()</text>
<text text-anchor="start" x="137.5" y="-376.5" font-family="Helvetica,sans-Serif" font-size="10.00">+ GetRecordManager()</text>
<text text-anchor="start" x="137.5" y="-365.5" font-family="Helvetica,sans-Serif" font-size="10.00">+ GetComponentManager()</text>
<text text-anchor="start" x="137.5" y="-354.5" font-family="Helvetica,sans-Serif" font-size="10.00">+ GetPropertyInt()</text>
<text text-anchor="start" x="137.5" y="-343.5" font-family="Helvetica,sans-Serif" font-size="10.00">+ GetPropertyFloat()</text>
<text text-anchor="start" x="137.5" y="-332.5" font-family="Helvetica,sans-Serif" font-size="10.00">+ GetPropertyString()</text>
</a>
</g>
</g>
<!-- Node6&#45;&gt;Node9 -->
<g id="edge7" class="edge"><title>Node6&#45;&gt;Node9</title>
<path fill="none" stroke="midnightblue" d="M173.364,-541.582C174.105,-538.697 174.819,-535.832 175.5,-533 178.615,-520.046 181.445,-506.218 183.948,-492.683"/>
<polygon fill="none" stroke="midnightblue" points="169.926,-540.89 170.746,-551.453 176.692,-542.684 169.926,-540.89"/>
</g>
<!-- Node7&#45;&gt;Node6 -->
<g id="edge3" class="edge"><title>Node7&#45;&gt;Node6</title>
<path fill="none" stroke="#404040" d="M82.4875,-503.713C85.7072,-513.652 89.0728,-523.569 92.5,-533 93.3128,-535.237 94.1469,-537.493 94.9988,-539.764"/>
<polygon fill="none" stroke="#404040" points="95.0887,-539.998 100.974,-544.165 99.3909,-551.2 93.5057,-547.033 95.0887,-539.998"/>
<text text-anchor="middle" x="132" y="-525" font-family="Helvetica,sans-Serif" font-size="10.00"> #pPluginManager</text>
</g>
<!-- Node8 -->
<g id="node5" class="node"><title>Node8</title>
<g id="a_node5"><a xlink:href="class_n_f_map_ex.html" target="_top" xlink:title="{NFMapEx\&lt; std::string,\l NFIClass \&gt;\n|&#45; mObjectList\l&#45; mObjectCurIter\l|+ NFMapEx()\l+ ~NFMapEx()\l+ AddElement()\l+ SetElement()\l+ RemoveElement()\l+ GetElementNude()\l+ GetElement()\l+ FirstNude()\l+ FirstNude()\l+ NextNude()\land 7 more...\l}">
<polygon fill="white" stroke="black" points="303.5,-551.5 303.5,-740.5 419.5,-740.5 419.5,-551.5 303.5,-551.5"/>
<text text-anchor="start" x="311.5" y="-728.5" font-family="Helvetica,sans-Serif" font-size="10.00">NFMapEx&lt; std::string,</text>
<text text-anchor="middle" x="361.5" y="-717.5" font-family="Helvetica,sans-Serif" font-size="10.00"> NFIClass &gt;</text>
<polyline fill="none" stroke="black" points="303.5,-710.5 419.5,-710.5 "/>
<text text-anchor="start" x="311.5" y="-698.5" font-family="Helvetica,sans-Serif" font-size="10.00">&#45; mObjectList</text>
<text text-anchor="start" x="311.5" y="-687.5" font-family="Helvetica,sans-Serif" font-size="10.00">&#45; mObjectCurIter</text>
<polyline fill="none" stroke="black" points="303.5,-680.5 419.5,-680.5 "/>
<text text-anchor="start" x="311.5" y="-668.5" font-family="Helvetica,sans-Serif" font-size="10.00">+ NFMapEx()</text>
<text text-anchor="start" x="311.5" y="-657.5" font-family="Helvetica,sans-Serif" font-size="10.00">+ ~NFMapEx()</text>
<text text-anchor="start" x="311.5" y="-646.5" font-family="Helvetica,sans-Serif" font-size="10.00">+ AddElement()</text>
<text text-anchor="start" x="311.5" y="-635.5" font-family="Helvetica,sans-Serif" font-size="10.00">+ SetElement()</text>
<text text-anchor="start" x="311.5" y="-624.5" font-family="Helvetica,sans-Serif" font-size="10.00">+ RemoveElement()</text>
<text text-anchor="start" x="311.5" y="-613.5" font-family="Helvetica,sans-Serif" font-size="10.00">+ GetElementNude()</text>
<text text-anchor="start" x="311.5" y="-602.5" font-family="Helvetica,sans-Serif" font-size="10.00">+ GetElement()</text>
<text text-anchor="start" x="311.5" y="-591.5" font-family="Helvetica,sans-Serif" font-size="10.00">+ FirstNude()</text>
<text text-anchor="start" x="311.5" y="-580.5" font-family="Helvetica,sans-Serif" font-size="10.00">+ FirstNude()</text>
<text text-anchor="start" x="311.5" y="-569.5" font-family="Helvetica,sans-Serif" font-size="10.00">+ NextNude()</text>
<text text-anchor="start" x="311.5" y="-558.5" font-family="Helvetica,sans-Serif" font-size="10.00">and 7 more...</text>
</a>
</g>
</g>
<!-- Node8&#45;&gt;Node5 -->
<g id="edge5" class="edge"><title>Node8&#45;&gt;Node5</title>
<path fill="none" stroke="midnightblue" d="M361.5,-541.357C361.5,-523.093 361.5,-504.375 361.5,-487.002"/>
<polygon fill="none" stroke="midnightblue" points="358,-541.447 361.5,-551.447 365,-541.447 358,-541.447"/>
</g>
<!-- Node9&#45;&gt;Node4 -->
<g id="edge6" class="edge"><title>Node9&#45;&gt;Node4</title>
<path fill="none" stroke="#404040" d="M217.537,-325.316C221.309,-311.78 225.363,-297.953 229.5,-285 230.216,-282.759 230.945,-280.503 231.686,-278.234"/>
<polygon fill="none" stroke="#404040" points="231.701,-278.191 229.797,-271.236 235.485,-266.803 237.389,-273.759 231.701,-278.191"/>
<text text-anchor="middle" x="277" y="-288" font-family="Helvetica,sans-Serif" font-size="10.00"> #m_pElementModule</text>
</g>
</g>
</svg>
