<?xml version="1.0" encoding="UTF-8" standalone="no"?>
<!DOCTYPE svg PUBLIC "-//W3C//DTD SVG 1.1//EN"
 "http://www.w3.org/Graphics/SVG/1.1/DTD/svg11.dtd">
<!-- Generated by graphviz version 2.38.0 (20140413.2041)
 -->
<!-- Title: NFIPluginManager Pages: 1 -->
<svg width="120pt" height="435pt"
 viewBox="0.00 0.00 120.00 435.00" xmlns="http://www.w3.org/2000/svg" xmlns:xlink="http://www.w3.org/1999/xlink">
<g id="graph0" class="graph" transform="scale(1 1) rotate(0) translate(4 431)">
<title>NFIPluginManager</title>
<polygon fill="white" stroke="none" points="-4,4 -4,-431 116,-431 116,4 -4,4"/>
<!-- Node3 -->
<g id="node1" class="node"><title>Node3</title>
<polygon fill="#bfbfbf" stroke="black" points="0.5,-237.5 0.5,-426.5 111.5,-426.5 111.5,-237.5 0.5,-237.5"/>
<text text-anchor="middle" x="56" y="-414.5" font-family="Helvetica,sans-Serif" font-size="10.00">NFIPluginManager</text>
<polyline fill="none" stroke="black" points="0.5,-407.5 111.5,-407.5 "/>
<text text-anchor="middle" x="56" y="-395.5" font-family="Helvetica,sans-Serif" font-size="10.00"> </text>
<polyline fill="none" stroke="black" points="0.5,-388.5 111.5,-388.5 "/>
<text text-anchor="start" x="8.5" y="-376.5" font-family="Helvetica,sans-Serif" font-size="10.00">+ NFIPluginManager()</text>
<text text-anchor="start" x="8.5" y="-365.5" font-family="Helvetica,sans-Serif" font-size="10.00">+ FindModule()</text>
<text text-anchor="start" x="8.5" y="-354.5" font-family="Helvetica,sans-Serif" font-size="10.00">+ Registered()</text>
<text text-anchor="start" x="8.5" y="-343.5" font-family="Helvetica,sans-Serif" font-size="10.00">+ UnRegistered()</text>
<text text-anchor="start" x="8.5" y="-332.5" font-family="Helvetica,sans-Serif" font-size="10.00">+ FindPlugin()</text>
<text text-anchor="start" x="8.5" y="-321.5" font-family="Helvetica,sans-Serif" font-size="10.00">+ AddModule()</text>
<text text-anchor="start" x="8.5" y="-310.5" font-family="Helvetica,sans-Serif" font-size="10.00">+ RemoveModule()</text>
<text text-anchor="start" x="8.5" y="-299.5" font-family="Helvetica,sans-Serif" font-size="10.00">+ FindModule()</text>
<text text-anchor="start" x="8.5" y="-288.5" font-family="Helvetica,sans-Serif" font-size="10.00">+ AppID()</text>
<text text-anchor="start" x="8.5" y="-277.5" font-family="Helvetica,sans-Serif" font-size="10.00">+ GetInitTime()</text>
<text text-anchor="start" x="8.5" y="-266.5" font-family="Helvetica,sans-Serif" font-size="10.00">+ GetNowTime()</text>
<text text-anchor="start" x="8.5" y="-255.5" font-family="Helvetica,sans-Serif" font-size="10.00">+ GetConfigPath()</text>
<text text-anchor="start" x="8.5" y="-244.5" font-family="Helvetica,sans-Serif" font-size="10.00">+ SetConfigName()</text>
</g>
<!-- Node4 -->
<g id="node2" class="node"><title>Node4</title>
<g id="a_node2"><a xlink:href="class_n_f_i_module.html" target="_top" xlink:title="{NFIModule\n|+ strName\l# mbReloading\l|+ NFIModule()\l+ ~NFIModule()\l+ Init()\l+ AfterInit()\l+ CheckConfig()\l+ BeforeShut()\l+ Shut()\l+ Execute()\l+ StartReLoadState()\l+ EndReLoadState()\l+ GetPluginManager()\l+ Loading()\l}">
<polygon fill="white" stroke="black" points="0,-0.5 0,-189.5 112,-189.5 112,-0.5 0,-0.5"/>
<text text-anchor="middle" x="56" y="-177.5" font-family="Helvetica,sans-Serif" font-size="10.00">NFIModule</text>
<polyline fill="none" stroke="black" points="0,-170.5 112,-170.5 "/>
<text text-anchor="start" x="8" y="-158.5" font-family="Helvetica,sans-Serif" font-size="10.00">+ strName</text>
<text text-anchor="start" x="8" y="-147.5" font-family="Helvetica,sans-Serif" font-size="10.00"># mbReloading</text>
<polyline fill="none" stroke="black" points="0,-140.5 112,-140.5 "/>
<text text-anchor="start" x="8" y="-128.5" font-family="Helvetica,sans-Serif" font-size="10.00">+ NFIModule()</text>
<text text-anchor="start" x="8" y="-117.5" font-family="Helvetica,sans-Serif" font-size="10.00">+ ~NFIModule()</text>
<text text-anchor="start" x="8" y="-106.5" font-family="Helvetica,sans-Serif" font-size="10.00">+ Init()</text>
<text text-anchor="start" x="8" y="-95.5" font-family="Helvetica,sans-Serif" font-size="10.00">+ AfterInit()</text>
<text text-anchor="start" x="8" y="-84.5" font-family="Helvetica,sans-Serif" font-size="10.00">+ CheckConfig()</text>
<text text-anchor="start" x="8" y="-73.5" font-family="Helvetica,sans-Serif" font-size="10.00">+ BeforeShut()</text>
<text text-anchor="start" x="8" y="-62.5" font-family="Helvetica,sans-Serif" font-size="10.00">+ Shut()</text>
<text text-anchor="start" x="8" y="-51.5" font-family="Helvetica,sans-Serif" font-size="10.00">+ Execute()</text>
<text text-anchor="start" x="8" y="-40.5" font-family="Helvetica,sans-Serif" font-size="10.00">+ StartReLoadState()</text>
<text text-anchor="start" x="8" y="-29.5" font-family="Helvetica,sans-Serif" font-size="10.00">+ EndReLoadState()</text>
<text text-anchor="start" x="8" y="-18.5" font-family="Helvetica,sans-Serif" font-size="10.00">+ GetPluginManager()</text>
<text text-anchor="start" x="8" y="-7.5" font-family="Helvetica,sans-Serif" font-size="10.00">+ Loading()</text>
</a>
</g>
</g>
<!-- Node3&#45;&gt;Node4 -->
<g id="edge2" class="edge"><title>Node3&#45;&gt;Node4</title>
<path fill="none" stroke="#404040" d="M10.8152,-237.233C8.92393,-231.148 7.28694,-225.04 6,-219 4.77351,-213.244 4.28898,-207.413 4.41061,-201.578"/>
<polygon fill="none" stroke="#404040" points="4.41083,-201.575 0.955013,-195.246 5.46809,-189.622 8.92391,-195.951 4.41083,-201.575"/>
<text text-anchor="middle" x="45.5" y="-211" font-family="Helvetica,sans-Serif" font-size="10.00"> #pPluginManager</text>
</g>
<!-- Node4&#45;&gt;Node3 -->
<g id="edge1" class="edge"><title>Node4&#45;&gt;Node3</title>
<path fill="none" stroke="midnightblue" d="M89.9876,-199.738C90.1976,-206.223 89.9115,-212.681 89,-219 88.1317,-225.019 87.0138,-231.165 85.7166,-237.327"/>
<polygon fill="none" stroke="midnightblue" points="93.4633,-199.268 89.2682,-189.539 86.4807,-199.761 93.4633,-199.268"/>
</g>
</g>
</svg>
