<?xml version="1.0" encoding="UTF-8" standalone="no"?>
<!DOCTYPE svg PUBLIC "-//W3C//DTD SVG 1.1//EN"
 "http://www.w3.org/Graphics/SVG/1.1/DTD/svg11.dtd">
<!-- Generated by graphviz version 2.38.0 (20140413.2041)
 -->
<!-- Title: NFCPropertyModule Pages: 1 -->
<svg width="1025pt" height="716pt"
 viewBox="0.00 0.00 1025.00 716.00" xmlns="http://www.w3.org/2000/svg" xmlns:xlink="http://www.w3.org/1999/xlink">
<g id="graph0" class="graph" transform="scale(1 1) rotate(0) translate(4 712)">
<title>NFCPropertyModule</title>
<polygon fill="white" stroke="none" points="-4,4 -4,-712 1021,-712 1021,4 -4,4"/>
<!-- Node3 -->
<g id="node1" class="node"><title>Node3</title>
<polygon fill="#bfbfbf" stroke="black" points="448,-0.5 448,-200.5 583,-200.5 583,-0.5 448,-0.5"/>
<text text-anchor="middle" x="515.5" y="-188.5" font-family="Helvetica,sans-Serif" font-size="10.00">NFCPropertyModule</text>
<polyline fill="none" stroke="black" points="448,-181.5 583,-181.5 "/>
<text text-anchor="middle" x="515.5" y="-169.5" font-family="Helvetica,sans-Serif" font-size="10.00"> </text>
<polyline fill="none" stroke="black" points="448,-162.5 583,-162.5 "/>
<text text-anchor="start" x="456" y="-150.5" font-family="Helvetica,sans-Serif" font-size="10.00">+ NFCPropertyModule()</text>
<text text-anchor="start" x="456" y="-139.5" font-family="Helvetica,sans-Serif" font-size="10.00">+ ~NFCPropertyModule()</text>
<text text-anchor="start" x="456" y="-128.5" font-family="Helvetica,sans-Serif" font-size="10.00">+ Init()</text>
<text text-anchor="start" x="456" y="-117.5" font-family="Helvetica,sans-Serif" font-size="10.00">+ Shut()</text>
<text text-anchor="start" x="456" y="-106.5" font-family="Helvetica,sans-Serif" font-size="10.00">+ Execute()</text>
<text text-anchor="start" x="456" y="-95.5" font-family="Helvetica,sans-Serif" font-size="10.00">+ AfterInit()</text>
<text text-anchor="start" x="456" y="-84.5" font-family="Helvetica,sans-Serif" font-size="10.00">+ RefreshBaseProperty()</text>
<text text-anchor="start" x="456" y="-73.5" font-family="Helvetica,sans-Serif" font-size="10.00">+ GetPropertyValue()</text>
<text text-anchor="start" x="456" y="-62.5" font-family="Helvetica,sans-Serif" font-size="10.00">+ SetPropertyValue()</text>
<text text-anchor="start" x="456" y="-51.5" font-family="Helvetica,sans-Serif" font-size="10.00">+ AddPropertyValue()</text>
<text text-anchor="start" x="456" y="-40.5" font-family="Helvetica,sans-Serif" font-size="10.00">and 18 more...</text>
<text text-anchor="start" x="456" y="-29.5" font-family="Helvetica,sans-Serif" font-size="10.00"># OnObjectClassEvent()</text>
<text text-anchor="start" x="456" y="-18.5" font-family="Helvetica,sans-Serif" font-size="10.00"># OnObjectLevelEvent()</text>
<text text-anchor="start" x="456" y="-7.5" font-family="Helvetica,sans-Serif" font-size="10.00"># OnRecordPropertyEvent()</text>
</g>
<!-- Node4 -->
<g id="node2" class="node"><title>Node4</title>
<g id="a_node2"><a xlink:href="class_n_f_i_property_module.html" target="_top" xlink:title="{NFIPropertyModule\n||+ RefreshBaseProperty()\l+ GetPropertyValue()\l+ SetPropertyValue()\l+ AddPropertyValue()\l+ SubPropertyValue()\l+ FullHPMP()\l+ AddHP()\l+ ConsumeHP()\l+ EnoughHP()\l+ AddMP()\land 12 more...\l}">
<polygon fill="white" stroke="black" points="715.5,-276 715.5,-443 839.5,-443 839.5,-276 715.5,-276"/>
<text text-anchor="middle" x="777.5" y="-431" font-family="Helvetica,sans-Serif" font-size="10.00">NFIPropertyModule</text>
<polyline fill="none" stroke="black" points="715.5,-424 839.5,-424 "/>
<text text-anchor="middle" x="777.5" y="-412" font-family="Helvetica,sans-Serif" font-size="10.00"> </text>
<polyline fill="none" stroke="black" points="715.5,-405 839.5,-405 "/>
<text text-anchor="start" x="723.5" y="-393" font-family="Helvetica,sans-Serif" font-size="10.00">+ RefreshBaseProperty()</text>
<text text-anchor="start" x="723.5" y="-382" font-family="Helvetica,sans-Serif" font-size="10.00">+ GetPropertyValue()</text>
<text text-anchor="start" x="723.5" y="-371" font-family="Helvetica,sans-Serif" font-size="10.00">+ SetPropertyValue()</text>
<text text-anchor="start" x="723.5" y="-360" font-family="Helvetica,sans-Serif" font-size="10.00">+ AddPropertyValue()</text>
<text text-anchor="start" x="723.5" y="-349" font-family="Helvetica,sans-Serif" font-size="10.00">+ SubPropertyValue()</text>
<text text-anchor="start" x="723.5" y="-338" font-family="Helvetica,sans-Serif" font-size="10.00">+ FullHPMP()</text>
<text text-anchor="start" x="723.5" y="-327" font-family="Helvetica,sans-Serif" font-size="10.00">+ AddHP()</text>
<text text-anchor="start" x="723.5" y="-316" font-family="Helvetica,sans-Serif" font-size="10.00">+ ConsumeHP()</text>
<text text-anchor="start" x="723.5" y="-305" font-family="Helvetica,sans-Serif" font-size="10.00">+ EnoughHP()</text>
<text text-anchor="start" x="723.5" y="-294" font-family="Helvetica,sans-Serif" font-size="10.00">+ AddMP()</text>
<text text-anchor="start" x="723.5" y="-283" font-family="Helvetica,sans-Serif" font-size="10.00">and 12 more...</text>
</a>
</g>
</g>
<!-- Node4&#45;&gt;Node3 -->
<g id="edge1" class="edge"><title>Node4&#45;&gt;Node3</title>
<path fill="none" stroke="midnightblue" d="M720.603,-267.245C715.683,-260.592 710.622,-254.105 705.5,-248 670.829,-206.678 622.615,-169.674 583.433,-143.193"/>
<polygon fill="none" stroke="midnightblue" points="718.057,-269.696 726.755,-275.745 723.727,-265.592 718.057,-269.696"/>
</g>
<!-- Node5 -->
<g id="node3" class="node"><title>Node5</title>
<g id="a_node3"><a xlink:href="class_n_f_i_module.html" target="_top" xlink:title="{NFIModule\n|+ strName\l# mbReloading\l|+ NFIModule()\l+ ~NFIModule()\l+ Init()\l+ AfterInit()\l+ CheckConfig()\l+ BeforeShut()\l+ Shut()\l+ Execute()\l+ StartReLoadState()\l+ EndReLoadState()\l+ GetPluginManager()\l+ Loading()\l}">
<polygon fill="white" stroke="black" points="470.5,-518.5 470.5,-707.5 582.5,-707.5 582.5,-518.5 470.5,-518.5"/>
<text text-anchor="middle" x="526.5" y="-695.5" font-family="Helvetica,sans-Serif" font-size="10.00">NFIModule</text>
<polyline fill="none" stroke="black" points="470.5,-688.5 582.5,-688.5 "/>
<text text-anchor="start" x="478.5" y="-676.5" font-family="Helvetica,sans-Serif" font-size="10.00">+ strName</text>
<text text-anchor="start" x="478.5" y="-665.5" font-family="Helvetica,sans-Serif" font-size="10.00"># mbReloading</text>
<polyline fill="none" stroke="black" points="470.5,-658.5 582.5,-658.5 "/>
<text text-anchor="start" x="478.5" y="-646.5" font-family="Helvetica,sans-Serif" font-size="10.00">+ NFIModule()</text>
<text text-anchor="start" x="478.5" y="-635.5" font-family="Helvetica,sans-Serif" font-size="10.00">+ ~NFIModule()</text>
<text text-anchor="start" x="478.5" y="-624.5" font-family="Helvetica,sans-Serif" font-size="10.00">+ Init()</text>
<text text-anchor="start" x="478.5" y="-613.5" font-family="Helvetica,sans-Serif" font-size="10.00">+ AfterInit()</text>
<text text-anchor="start" x="478.5" y="-602.5" font-family="Helvetica,sans-Serif" font-size="10.00">+ CheckConfig()</text>
<text text-anchor="start" x="478.5" y="-591.5" font-family="Helvetica,sans-Serif" font-size="10.00">+ BeforeShut()</text>
<text text-anchor="start" x="478.5" y="-580.5" font-family="Helvetica,sans-Serif" font-size="10.00">+ Shut()</text>
<text text-anchor="start" x="478.5" y="-569.5" font-family="Helvetica,sans-Serif" font-size="10.00">+ Execute()</text>
<text text-anchor="start" x="478.5" y="-558.5" font-family="Helvetica,sans-Serif" font-size="10.00">+ StartReLoadState()</text>
<text text-anchor="start" x="478.5" y="-547.5" font-family="Helvetica,sans-Serif" font-size="10.00">+ EndReLoadState()</text>
<text text-anchor="start" x="478.5" y="-536.5" font-family="Helvetica,sans-Serif" font-size="10.00">+ GetPluginManager()</text>
<text text-anchor="start" x="478.5" y="-525.5" font-family="Helvetica,sans-Serif" font-size="10.00">+ Loading()</text>
</a>
</g>
</g>
<!-- Node5&#45;&gt;Node4 -->
<g id="edge2" class="edge"><title>Node5&#45;&gt;Node4</title>
<path fill="none" stroke="midnightblue" d="M591.37,-568.82C627.402,-542.981 671.648,-508.034 705.5,-471 713.379,-462.381 720.976,-452.81 728.091,-443.01"/>
<polygon fill="none" stroke="midnightblue" points="588.999,-566.211 582.873,-574.855 593.052,-571.918 588.999,-566.211"/>
</g>
<!-- Node6 -->
<g id="node4" class="node"><title>Node6</title>
<g id="a_node4"><a xlink:href="class_n_f_i_plugin_manager.html" target="_top" xlink:title="{NFIPluginManager\n||+ NFIPluginManager()\l+ FindModule()\l+ Registered()\l+ UnRegistered()\l+ FindPlugin()\l+ AddModule()\l+ RemoveModule()\l+ FindModule()\l+ AppID()\l+ GetInitTime()\l+ GetNowTime()\l+ GetConfigPath()\l+ SetConfigName()\l}">
<polygon fill="white" stroke="black" points="483,-265 483,-454 594,-454 594,-265 483,-265"/>
<text text-anchor="middle" x="538.5" y="-442" font-family="Helvetica,sans-Serif" font-size="10.00">NFIPluginManager</text>
<polyline fill="none" stroke="black" points="483,-435 594,-435 "/>
<text text-anchor="middle" x="538.5" y="-423" font-family="Helvetica,sans-Serif" font-size="10.00"> </text>
<polyline fill="none" stroke="black" points="483,-416 594,-416 "/>
<text text-anchor="start" x="491" y="-404" font-family="Helvetica,sans-Serif" font-size="10.00">+ NFIPluginManager()</text>
<text text-anchor="start" x="491" y="-393" font-family="Helvetica,sans-Serif" font-size="10.00">+ FindModule()</text>
<text text-anchor="start" x="491" y="-382" font-family="Helvetica,sans-Serif" font-size="10.00">+ Registered()</text>
<text text-anchor="start" x="491" y="-371" font-family="Helvetica,sans-Serif" font-size="10.00">+ UnRegistered()</text>
<text text-anchor="start" x="491" y="-360" font-family="Helvetica,sans-Serif" font-size="10.00">+ FindPlugin()</text>
<text text-anchor="start" x="491" y="-349" font-family="Helvetica,sans-Serif" font-size="10.00">+ AddModule()</text>
<text text-anchor="start" x="491" y="-338" font-family="Helvetica,sans-Serif" font-size="10.00">+ RemoveModule()</text>
<text text-anchor="start" x="491" y="-327" font-family="Helvetica,sans-Serif" font-size="10.00">+ FindModule()</text>
<text text-anchor="start" x="491" y="-316" font-family="Helvetica,sans-Serif" font-size="10.00">+ AppID()</text>
<text text-anchor="start" x="491" y="-305" font-family="Helvetica,sans-Serif" font-size="10.00">+ GetInitTime()</text>
<text text-anchor="start" x="491" y="-294" font-family="Helvetica,sans-Serif" font-size="10.00">+ GetNowTime()</text>
<text text-anchor="start" x="491" y="-283" font-family="Helvetica,sans-Serif" font-size="10.00">+ GetConfigPath()</text>
<text text-anchor="start" x="491" y="-272" font-family="Helvetica,sans-Serif" font-size="10.00">+ SetConfigName()</text>
</a>
</g>
</g>
<!-- Node5&#45;&gt;Node6 -->
<g id="edge4" class="edge"><title>Node5&#45;&gt;Node6</title>
<path fill="none" stroke="midnightblue" d="M527.738,-508.106C527.955,-501.639 528.207,-495.23 528.5,-489 529.03,-477.712 529.741,-465.878 530.539,-454.151"/>
<polygon fill="none" stroke="midnightblue" points="524.234,-508.195 527.426,-518.297 531.231,-508.409 524.234,-508.195"/>
</g>
<!-- Node7 -->
<g id="node5" class="node"><title>Node7</title>
<g id="a_node5"><a xlink:href="class_n_f_i_kernel_module.html" target="_top" xlink:title="{NFIKernelModule\n||+ AddHeartBeat()\l+ FindHeartBeat()\l+ RemoveHeartBeat()\l+ AddRecordCallBack()\l+ AddPropertyCallBack()\l+ AddEventCallBack()\l+ AddClassCallBack()\l+ DoEvent()\l+ DoEvent()\l+ RegisterCommonClassEvent()\land 56 more...\l# AddEventCallBack()\l# AddClassCallBack()\l# RegisterCommonClassEvent()\l# RegisterCommonPropertyEvent()\l# RegisterCommonRecordEvent()\l}">
<polygon fill="white" stroke="black" points="0,-248.5 0,-470.5 167,-470.5 167,-248.5 0,-248.5"/>
<text text-anchor="middle" x="83.5" y="-458.5" font-family="Helvetica,sans-Serif" font-size="10.00">NFIKernelModule</text>
<polyline fill="none" stroke="black" points="0,-451.5 167,-451.5 "/>
<text text-anchor="middle" x="83.5" y="-439.5" font-family="Helvetica,sans-Serif" font-size="10.00"> </text>
<polyline fill="none" stroke="black" points="0,-432.5 167,-432.5 "/>
<text text-anchor="start" x="8" y="-420.5" font-family="Helvetica,sans-Serif" font-size="10.00">+ AddHeartBeat()</text>
<text text-anchor="start" x="8" y="-409.5" font-family="Helvetica,sans-Serif" font-size="10.00">+ FindHeartBeat()</text>
<text text-anchor="start" x="8" y="-398.5" font-family="Helvetica,sans-Serif" font-size="10.00">+ RemoveHeartBeat()</text>
<text text-anchor="start" x="8" y="-387.5" font-family="Helvetica,sans-Serif" font-size="10.00">+ AddRecordCallBack()</text>
<text text-anchor="start" x="8" y="-376.5" font-family="Helvetica,sans-Serif" font-size="10.00">+ AddPropertyCallBack()</text>
<text text-anchor="start" x="8" y="-365.5" font-family="Helvetica,sans-Serif" font-size="10.00">+ AddEventCallBack()</text>
<text text-anchor="start" x="8" y="-354.5" font-family="Helvetica,sans-Serif" font-size="10.00">+ AddClassCallBack()</text>
<text text-anchor="start" x="8" y="-343.5" font-family="Helvetica,sans-Serif" font-size="10.00">+ DoEvent()</text>
<text text-anchor="start" x="8" y="-332.5" font-family="Helvetica,sans-Serif" font-size="10.00">+ DoEvent()</text>
<text text-anchor="start" x="8" y="-321.5" font-family="Helvetica,sans-Serif" font-size="10.00">+ RegisterCommonClassEvent()</text>
<text text-anchor="start" x="8" y="-310.5" font-family="Helvetica,sans-Serif" font-size="10.00">and 56 more...</text>
<text text-anchor="start" x="8" y="-299.5" font-family="Helvetica,sans-Serif" font-size="10.00"># AddEventCallBack()</text>
<text text-anchor="start" x="8" y="-288.5" font-family="Helvetica,sans-Serif" font-size="10.00"># AddClassCallBack()</text>
<text text-anchor="start" x="8" y="-277.5" font-family="Helvetica,sans-Serif" font-size="10.00"># RegisterCommonClassEvent()</text>
<text text-anchor="start" x="8" y="-266.5" font-family="Helvetica,sans-Serif" font-size="10.00"># RegisterCommonPropertyEvent()</text>
<text text-anchor="start" x="8" y="-255.5" font-family="Helvetica,sans-Serif" font-size="10.00"># RegisterCommonRecordEvent()</text>
</a>
</g>
</g>
<!-- Node5&#45;&gt;Node7 -->
<g id="edge6" class="edge"><title>Node5&#45;&gt;Node7</title>
<path fill="none" stroke="midnightblue" d="M460.559,-596.041C386.171,-575.766 264.039,-535.452 175.5,-471 172.675,-468.943 169.883,-466.781 167.13,-464.531"/>
<polygon fill="none" stroke="midnightblue" points="459.717,-599.438 470.283,-598.651 461.532,-592.678 459.717,-599.438"/>
</g>
<!-- Node8 -->
<g id="node6" class="node"><title>Node8</title>
<g id="a_node6"><a xlink:href="class_n_f_i_property_config_module.html" target="_top" xlink:title="{NFIPropertyConfigModule\n||+ CalculateBaseValue()\l+ LegalLevel()\l}">
<polygon fill="white" stroke="black" points="185,-325.5 185,-393.5 312,-393.5 312,-325.5 185,-325.5"/>
<text text-anchor="middle" x="248.5" y="-381.5" font-family="Helvetica,sans-Serif" font-size="10.00">NFIPropertyConfigModule</text>
<polyline fill="none" stroke="black" points="185,-374.5 312,-374.5 "/>
<text text-anchor="middle" x="248.5" y="-362.5" font-family="Helvetica,sans-Serif" font-size="10.00"> </text>
<polyline fill="none" stroke="black" points="185,-355.5 312,-355.5 "/>
<text text-anchor="start" x="193" y="-343.5" font-family="Helvetica,sans-Serif" font-size="10.00">+ CalculateBaseValue()</text>
<text text-anchor="start" x="193" y="-332.5" font-family="Helvetica,sans-Serif" font-size="10.00">+ LegalLevel()</text>
</a>
</g>
</g>
<!-- Node5&#45;&gt;Node8 -->
<g id="edge8" class="edge"><title>Node5&#45;&gt;Node8</title>
<path fill="none" stroke="midnightblue" d="M461.718,-576.334C418.796,-550.678 362.97,-513.252 321.5,-471 298.952,-448.027 279.234,-417.133 265.994,-393.853"/>
<polygon fill="none" stroke="midnightblue" points="460.008,-579.388 470.397,-581.467 463.571,-573.363 460.008,-579.388"/>
</g>
<!-- Node9 -->
<g id="node7" class="node"><title>Node9</title>
<g id="a_node7"><a xlink:href="class_n_f_i_class_module.html" target="_top" xlink:title="{NFIClassModule\n||+ ~NFIClassModule()\l+ Load()\l+ Save()\l+ Clear()\l+ AddClassCallBack()\l+ DoEvent()\l+ AddClassCallBack()\l+ GetClassPropertyManager()\l+ GetClassRecordManager()\l+ GetClassComponentManager()\l}">
<polygon fill="white" stroke="black" points="858,-281.5 858,-437.5 1017,-437.5 1017,-281.5 858,-281.5"/>
<text text-anchor="middle" x="937.5" y="-425.5" font-family="Helvetica,sans-Serif" font-size="10.00">NFIClassModule</text>
<polyline fill="none" stroke="black" points="858,-418.5 1017,-418.5 "/>
<text text-anchor="middle" x="937.5" y="-406.5" font-family="Helvetica,sans-Serif" font-size="10.00"> </text>
<polyline fill="none" stroke="black" points="858,-399.5 1017,-399.5 "/>
<text text-anchor="start" x="866" y="-387.5" font-family="Helvetica,sans-Serif" font-size="10.00">+ ~NFIClassModule()</text>
<text text-anchor="start" x="866" y="-376.5" font-family="Helvetica,sans-Serif" font-size="10.00">+ Load()</text>
<text text-anchor="start" x="866" y="-365.5" font-family="Helvetica,sans-Serif" font-size="10.00">+ Save()</text>
<text text-anchor="start" x="866" y="-354.5" font-family="Helvetica,sans-Serif" font-size="10.00">+ Clear()</text>
<text text-anchor="start" x="866" y="-343.5" font-family="Helvetica,sans-Serif" font-size="10.00">+ AddClassCallBack()</text>
<text text-anchor="start" x="866" y="-332.5" font-family="Helvetica,sans-Serif" font-size="10.00">+ DoEvent()</text>
<text text-anchor="start" x="866" y="-321.5" font-family="Helvetica,sans-Serif" font-size="10.00">+ AddClassCallBack()</text>
<text text-anchor="start" x="866" y="-310.5" font-family="Helvetica,sans-Serif" font-size="10.00">+ GetClassPropertyManager()</text>
<text text-anchor="start" x="866" y="-299.5" font-family="Helvetica,sans-Serif" font-size="10.00">+ GetClassRecordManager()</text>
<text text-anchor="start" x="866" y="-288.5" font-family="Helvetica,sans-Serif" font-size="10.00">+ GetClassComponentManager()</text>
</a>
</g>
</g>
<!-- Node5&#45;&gt;Node9 -->
<g id="edge10" class="edge"><title>Node5&#45;&gt;Node9</title>
<path fill="none" stroke="midnightblue" d="M592.447,-593.42C661.199,-571.815 769.714,-531.235 848.5,-471 861.024,-461.425 872.848,-449.731 883.54,-437.576"/>
<polygon fill="none" stroke="midnightblue" points="591.116,-590.168 582.6,-596.47 593.188,-596.855 591.116,-590.168"/>
</g>
<!-- Node11 -->
<g id="node9" class="node"><title>Node11</title>
<g id="a_node9"><a xlink:href="class_n_f_i_element_module.html" target="_top" xlink:title="{NFIElementModule\n||+ Load()\l+ Save()\l+ Clear()\l+ ExistElement()\l+ ExistElement()\l+ GetPropertyManager()\l+ GetRecordManager()\l+ GetComponentManager()\l+ GetPropertyInt()\l+ GetPropertyFloat()\l+ GetPropertyString()\l}">
<polygon fill="white" stroke="black" points="330.5,-276 330.5,-443 464.5,-443 464.5,-276 330.5,-276"/>
<text text-anchor="middle" x="397.5" y="-431" font-family="Helvetica,sans-Serif" font-size="10.00">NFIElementModule</text>
<polyline fill="none" stroke="black" points="330.5,-424 464.5,-424 "/>
<text text-anchor="middle" x="397.5" y="-412" font-family="Helvetica,sans-Serif" font-size="10.00"> </text>
<polyline fill="none" stroke="black" points="330.5,-405 464.5,-405 "/>
<text text-anchor="start" x="338.5" y="-393" font-family="Helvetica,sans-Serif" font-size="10.00">+ Load()</text>
<text text-anchor="start" x="338.5" y="-382" font-family="Helvetica,sans-Serif" font-size="10.00">+ Save()</text>
<text text-anchor="start" x="338.5" y="-371" font-family="Helvetica,sans-Serif" font-size="10.00">+ Clear()</text>
<text text-anchor="start" x="338.5" y="-360" font-family="Helvetica,sans-Serif" font-size="10.00">+ ExistElement()</text>
<text text-anchor="start" x="338.5" y="-349" font-family="Helvetica,sans-Serif" font-size="10.00">+ ExistElement()</text>
<text text-anchor="start" x="338.5" y="-338" font-family="Helvetica,sans-Serif" font-size="10.00">+ GetPropertyManager()</text>
<text text-anchor="start" x="338.5" y="-327" font-family="Helvetica,sans-Serif" font-size="10.00">+ GetRecordManager()</text>
<text text-anchor="start" x="338.5" y="-316" font-family="Helvetica,sans-Serif" font-size="10.00">+ GetComponentManager()</text>
<text text-anchor="start" x="338.5" y="-305" font-family="Helvetica,sans-Serif" font-size="10.00">+ GetPropertyInt()</text>
<text text-anchor="start" x="338.5" y="-294" font-family="Helvetica,sans-Serif" font-size="10.00">+ GetPropertyFloat()</text>
<text text-anchor="start" x="338.5" y="-283" font-family="Helvetica,sans-Serif" font-size="10.00">+ GetPropertyString()</text>
</a>
</g>
</g>
<!-- Node5&#45;&gt;Node11 -->
<g id="edge13" class="edge"><title>Node5&#45;&gt;Node11</title>
<path fill="none" stroke="midnightblue" d="M473.823,-509.3C462.513,-487.25 450.701,-464.221 439.843,-443.052"/>
<polygon fill="none" stroke="midnightblue" points="470.787,-511.05 478.465,-518.351 477.015,-507.855 470.787,-511.05"/>
</g>
<!-- Node12 -->
<g id="node10" class="node"><title>Node12</title>
<g id="a_node10"><a xlink:href="class_n_f_i_level_module.html" target="_top" xlink:title="{NFILevelModule\n||+ AddExp()\l}">
<polygon fill="white" stroke="black" points="612,-331 612,-388 697,-388 697,-331 612,-331"/>
<text text-anchor="middle" x="654.5" y="-376" font-family="Helvetica,sans-Serif" font-size="10.00">NFILevelModule</text>
<polyline fill="none" stroke="black" points="612,-369 697,-369 "/>
<text text-anchor="middle" x="654.5" y="-357" font-family="Helvetica,sans-Serif" font-size="10.00"> </text>
<polyline fill="none" stroke="black" points="612,-350 697,-350 "/>
<text text-anchor="start" x="620" y="-338" font-family="Helvetica,sans-Serif" font-size="10.00">+ AddExp()</text>
</a>
</g>
</g>
<!-- Node5&#45;&gt;Node12 -->
<g id="edge15" class="edge"><title>Node5&#45;&gt;Node12</title>
<path fill="none" stroke="midnightblue" d="M588.75,-542.265C598.687,-528.861 608.112,-514.471 615.5,-500 634.081,-463.604 644.787,-417.206 650.129,-388.168"/>
<polygon fill="none" stroke="midnightblue" points="585.774,-540.396 582.51,-550.476 591.347,-544.632 585.774,-540.396"/>
</g>
<!-- Node6&#45;&gt;Node5 -->
<g id="edge3" class="edge"><title>Node6&#45;&gt;Node5</title>
<path fill="none" stroke="#404040" d="M534.028,-454.228C533.22,-471.169 532.372,-488.941 531.548,-506.199"/>
<polygon fill="none" stroke="#404040" points="531.54,-506.364 535.25,-512.548 530.968,-518.351 527.259,-512.167 531.54,-506.364"/>
<text text-anchor="middle" x="572" y="-492" font-family="Helvetica,sans-Serif" font-size="10.00"> #pPluginManager</text>
</g>
<!-- Node7&#45;&gt;Node3 -->
<g id="edge5" class="edge"><title>Node7&#45;&gt;Node3</title>
<path fill="none" stroke="#404040" d="M167.054,-254.999C169.838,-252.577 172.655,-250.238 175.5,-248 254.091,-186.16 362.741,-145.375 435.883,-122.893"/>
<polygon fill="none" stroke="#404040" points="436.269,-122.777 440.857,-117.214 447.757,-119.309 443.169,-124.872 436.269,-122.777"/>
<text text-anchor="middle" x="259" y="-222" font-family="Helvetica,sans-Serif" font-size="10.00"> &#45;m_pKernelModule</text>
</g>
<!-- Node8&#45;&gt;Node3 -->
<g id="edge7" class="edge"><title>Node8&#45;&gt;Node3</title>
<path fill="none" stroke="#404040" d="M262.733,-325.434C276.934,-295.181 301.006,-250.472 331.5,-219 361.855,-187.67 402.107,-160.762 437.222,-140.631"/>
<polygon fill="none" stroke="#404040" points="437.478,-140.487 440.747,-134.059 447.937,-134.604 444.669,-141.032 437.478,-140.487"/>
<text text-anchor="middle" x="392" y="-222" font-family="Helvetica,sans-Serif" font-size="10.00"> &#45;m_pPropertyConfigModule</text>
</g>
<!-- Node9&#45;&gt;Node3 -->
<g id="edge9" class="edge"><title>Node9&#45;&gt;Node3</title>
<path fill="none" stroke="#404040" d="M883.527,-281.442C872.836,-269.285 861.016,-257.586 848.5,-248 771.078,-188.702 665.91,-147.64 594.63,-124.388"/>
<polygon fill="none" stroke="#404040" points="594.477,-124.339 587.541,-126.313 583.052,-120.67 589.987,-118.696 594.477,-124.339"/>
<text text-anchor="middle" x="857.5" y="-222" font-family="Helvetica,sans-Serif" font-size="10.00"> &#45;m_pClassModule</text>
</g>
<!-- Node10 -->
<g id="node8" class="node"><title>Node10</title>
<g id="a_node8"><a xlink:href="class_n_f_map_ex.html" target="_top" xlink:title="{NFMapEx\&lt; std::string,\l NFIClass \&gt;\n|&#45; mObjectList\l&#45; mObjectCurIter\l|+ NFMapEx()\l+ ~NFMapEx()\l+ AddElement()\l+ SetElement()\l+ RemoveElement()\l+ GetElementNude()\l+ GetElement()\l+ FirstNude()\l+ FirstNude()\l+ NextNude()\land 7 more...\l}">
<polygon fill="white" stroke="black" points="879.5,-518.5 879.5,-707.5 995.5,-707.5 995.5,-518.5 879.5,-518.5"/>
<text text-anchor="start" x="887.5" y="-695.5" font-family="Helvetica,sans-Serif" font-size="10.00">NFMapEx&lt; std::string,</text>
<text text-anchor="middle" x="937.5" y="-684.5" font-family="Helvetica,sans-Serif" font-size="10.00"> NFIClass &gt;</text>
<polyline fill="none" stroke="black" points="879.5,-677.5 995.5,-677.5 "/>
<text text-anchor="start" x="887.5" y="-665.5" font-family="Helvetica,sans-Serif" font-size="10.00">&#45; mObjectList</text>
<text text-anchor="start" x="887.5" y="-654.5" font-family="Helvetica,sans-Serif" font-size="10.00">&#45; mObjectCurIter</text>
<polyline fill="none" stroke="black" points="879.5,-647.5 995.5,-647.5 "/>
<text text-anchor="start" x="887.5" y="-635.5" font-family="Helvetica,sans-Serif" font-size="10.00">+ NFMapEx()</text>
<text text-anchor="start" x="887.5" y="-624.5" font-family="Helvetica,sans-Serif" font-size="10.00">+ ~NFMapEx()</text>
<text text-anchor="start" x="887.5" y="-613.5" font-family="Helvetica,sans-Serif" font-size="10.00">+ AddElement()</text>
<text text-anchor="start" x="887.5" y="-602.5" font-family="Helvetica,sans-Serif" font-size="10.00">+ SetElement()</text>
<text text-anchor="start" x="887.5" y="-591.5" font-family="Helvetica,sans-Serif" font-size="10.00">+ RemoveElement()</text>
<text text-anchor="start" x="887.5" y="-580.5" font-family="Helvetica,sans-Serif" font-size="10.00">+ GetElementNude()</text>
<text text-anchor="start" x="887.5" y="-569.5" font-family="Helvetica,sans-Serif" font-size="10.00">+ GetElement()</text>
<text text-anchor="start" x="887.5" y="-558.5" font-family="Helvetica,sans-Serif" font-size="10.00">+ FirstNude()</text>
<text text-anchor="start" x="887.5" y="-547.5" font-family="Helvetica,sans-Serif" font-size="10.00">+ FirstNude()</text>
<text text-anchor="start" x="887.5" y="-536.5" font-family="Helvetica,sans-Serif" font-size="10.00">+ NextNude()</text>
<text text-anchor="start" x="887.5" y="-525.5" font-family="Helvetica,sans-Serif" font-size="10.00">and 7 more...</text>
</a>
</g>
</g>
<!-- Node10&#45;&gt;Node9 -->
<g id="edge11" class="edge"><title>Node10&#45;&gt;Node9</title>
<path fill="none" stroke="midnightblue" d="M937.5,-508.314C937.5,-484.72 937.5,-460.055 937.5,-437.785"/>
<polygon fill="none" stroke="midnightblue" points="934,-508.351 937.5,-518.351 941,-508.351 934,-508.351"/>
</g>
<!-- Node11&#45;&gt;Node3 -->
<g id="edge12" class="edge"><title>Node11&#45;&gt;Node3</title>
<path fill="none" stroke="#404040" d="M435.485,-275.769C444.837,-255.401 454.999,-233.269 464.845,-211.825"/>
<polygon fill="none" stroke="#404040" points="464.951,-211.593 463.82,-204.471 469.959,-200.688 471.09,-207.809 464.951,-211.593"/>
<text text-anchor="middle" x="507" y="-222" font-family="Helvetica,sans-Serif" font-size="10.00"> &#45;m_pElementModule</text>
</g>
<!-- Node12&#45;&gt;Node3 -->
<g id="edge14" class="edge"><title>Node12&#45;&gt;Node3</title>
<path fill="none" stroke="#404040" d="M642.398,-330.894C632.29,-308.32 617.209,-275.718 602.5,-248 596.173,-236.076 589.337,-223.748 582.374,-211.54"/>
<polygon fill="none" stroke="#404040" points="582.213,-211.258 575.755,-208.05 576.233,-200.854 582.691,-204.063 582.213,-211.258"/>
<text text-anchor="middle" x="631" y="-222" font-family="Helvetica,sans-Serif" font-size="10.00"> &#45;m_pLevelModule</text>
</g>
</g>
</svg>
