<?xml version="1.0" encoding="UTF-8" standalone="no"?>
<!DOCTYPE svg PUBLIC "-//W3C//DTD SVG 1.1//EN"
 "http://www.w3.org/Graphics/SVG/1.1/DTD/svg11.dtd">
<!-- Generated by graphviz version 2.38.0 (20140413.2041)
 -->
<!-- Title: NFIHasher Pages: 1 -->
<svg width="103pt" height="160pt"
 viewBox="0.00 0.00 103.00 160.00" xmlns="http://www.w3.org/2000/svg" xmlns:xlink="http://www.w3.org/1999/xlink">
<g id="graph0" class="graph" transform="scale(1 1) rotate(0) translate(4 156)">
<title>NFIHasher</title>
<polygon fill="white" stroke="none" points="-4,4 -4,-156 99,-156 99,4 -4,4"/>
<!-- Node0 -->
<g id="node1" class="node"><title>Node0</title>
<polygon fill="#bfbfbf" stroke="black" points="0,-94.5 0,-151.5 95,-151.5 95,-94.5 0,-94.5"/>
<text text-anchor="middle" x="47.5" y="-139.5" font-family="Helvetica,sans-Serif" font-size="10.00">NFIHasher</text>
<polyline fill="none" stroke="black" points="0,-132.5 95,-132.5 "/>
<text text-anchor="middle" x="47.5" y="-120.5" font-family="Helvetica,sans-Serif" font-size="10.00"> </text>
<polyline fill="none" stroke="black" points="0,-113.5 95,-113.5 "/>
<text text-anchor="start" x="8" y="-101.5" font-family="Helvetica,sans-Serif" font-size="10.00">+ GetHashValue()</text>
</g>
<!-- Node1 -->
<g id="node2" class="node"><title>Node1</title>
<g id="a_node2"><a xlink:href="class_n_f_c_hasher.html" target="_top" xlink:title="A nfc hasher. ">
<polygon fill="white" stroke="black" points="0,-0.5 0,-57.5 95,-57.5 95,-0.5 0,-0.5"/>
<text text-anchor="middle" x="47.5" y="-45.5" font-family="Helvetica,sans-Serif" font-size="10.00">NFCHasher</text>
<polyline fill="none" stroke="black" points="0,-38.5 95,-38.5 "/>
<text text-anchor="middle" x="47.5" y="-26.5" font-family="Helvetica,sans-Serif" font-size="10.00"> </text>
<polyline fill="none" stroke="black" points="0,-19.5 95,-19.5 "/>
<text text-anchor="start" x="8" y="-7.5" font-family="Helvetica,sans-Serif" font-size="10.00">+ GetHashValue()</text>
</a>
</g>
</g>
<!-- Node0&#45;&gt;Node1 -->
<g id="edge1" class="edge"><title>Node0&#45;&gt;Node1</title>
<path fill="none" stroke="midnightblue" d="M47.5,-84.2092C47.5,-75.2929 47.5,-65.9513 47.5,-57.5836"/>
<polygon fill="none" stroke="midnightblue" points="44.0001,-84.3969 47.5,-94.397 51.0001,-84.397 44.0001,-84.3969"/>
</g>
</g>
</svg>
