<?xml version="1.0" encoding="UTF-8" standalone="no"?>
<!DOCTYPE svg PUBLIC "-//W3C//DTD SVG 1.1//EN"
 "http://www.w3.org/Graphics/SVG/1.1/DTD/svg11.dtd">
<!-- Generated by graphviz version 2.38.0 (20140413.2041)
 -->
<!-- Title: NFCSceneModule Pages: 1 -->
<svg width="296pt" height="596pt"
 viewBox="0.00 0.00 295.50 596.00" xmlns="http://www.w3.org/2000/svg" xmlns:xlink="http://www.w3.org/1999/xlink">
<g id="graph0" class="graph" transform="scale(1 1) rotate(0) translate(4 592)">
<title>NFCSceneModule</title>
<polygon fill="white" stroke="none" points="-4,4 -4,-592 291.5,-592 291.5,4 -4,4"/>
<!-- Node4 -->
<g id="node1" class="node"><title>Node4</title>
<polygon fill="#bfbfbf" stroke="black" points="139,-0.5 139,-123.5 255,-123.5 255,-0.5 139,-0.5"/>
<text text-anchor="middle" x="197" y="-111.5" font-family="Helvetica,sans-Serif" font-size="10.00">NFCSceneModule</text>
<polyline fill="none" stroke="black" points="139,-104.5 255,-104.5 "/>
<text text-anchor="middle" x="197" y="-92.5" font-family="Helvetica,sans-Serif" font-size="10.00"> </text>
<polyline fill="none" stroke="black" points="139,-85.5 255,-85.5 "/>
<text text-anchor="start" x="147" y="-73.5" font-family="Helvetica,sans-Serif" font-size="10.00">+ NFCSceneModule()</text>
<text text-anchor="start" x="147" y="-62.5" font-family="Helvetica,sans-Serif" font-size="10.00">+ ~NFCSceneModule()</text>
<text text-anchor="start" x="147" y="-51.5" font-family="Helvetica,sans-Serif" font-size="10.00">+ Init()</text>
<text text-anchor="start" x="147" y="-40.5" font-family="Helvetica,sans-Serif" font-size="10.00">+ AfterInit()</text>
<text text-anchor="start" x="147" y="-29.5" font-family="Helvetica,sans-Serif" font-size="10.00">+ BeforeShut()</text>
<text text-anchor="start" x="147" y="-18.5" font-family="Helvetica,sans-Serif" font-size="10.00">+ Shut()</text>
<text text-anchor="start" x="147" y="-7.5" font-family="Helvetica,sans-Serif" font-size="10.00">+ Execute()</text>
</g>
<!-- Node5 -->
<g id="node2" class="node"><title>Node5</title>
<g id="a_node2"><a xlink:href="class_n_f_i_scene_module.html" target="_top" xlink:title="{NFISceneModule\n||+ ~NFISceneModule()\l}">
<polygon fill="white" stroke="black" points="141,-227.5 141,-284.5 253,-284.5 253,-227.5 141,-227.5"/>
<text text-anchor="middle" x="197" y="-272.5" font-family="Helvetica,sans-Serif" font-size="10.00">NFISceneModule</text>
<polyline fill="none" stroke="black" points="141,-265.5 253,-265.5 "/>
<text text-anchor="middle" x="197" y="-253.5" font-family="Helvetica,sans-Serif" font-size="10.00"> </text>
<polyline fill="none" stroke="black" points="141,-246.5 253,-246.5 "/>
<text text-anchor="start" x="149" y="-234.5" font-family="Helvetica,sans-Serif" font-size="10.00">+ ~NFISceneModule()</text>
</a>
</g>
</g>
<!-- Node5&#45;&gt;Node4 -->
<g id="edge1" class="edge"><title>Node5&#45;&gt;Node4</title>
<path fill="none" stroke="midnightblue" d="M197,-217.429C197,-190.787 197,-154.456 197,-123.725"/>
<polygon fill="none" stroke="midnightblue" points="193.5,-217.491 197,-227.491 200.5,-217.491 193.5,-217.491"/>
</g>
<!-- Node6 -->
<g id="node3" class="node"><title>Node6</title>
<g id="a_node3"><a xlink:href="class_n_f_i_module.html" target="_top" xlink:title="{NFIModule\n|+ strName\l# mbReloading\l|+ NFIModule()\l+ ~NFIModule()\l+ Init()\l+ AfterInit()\l+ CheckConfig()\l+ BeforeShut()\l+ Shut()\l+ Execute()\l+ StartReLoadState()\l+ EndReLoadState()\l+ GetPluginManager()\l+ Loading()\l}">
<polygon fill="white" stroke="black" points="0,-398.5 0,-587.5 112,-587.5 112,-398.5 0,-398.5"/>
<text text-anchor="middle" x="56" y="-575.5" font-family="Helvetica,sans-Serif" font-size="10.00">NFIModule</text>
<polyline fill="none" stroke="black" points="0,-568.5 112,-568.5 "/>
<text text-anchor="start" x="8" y="-556.5" font-family="Helvetica,sans-Serif" font-size="10.00">+ strName</text>
<text text-anchor="start" x="8" y="-545.5" font-family="Helvetica,sans-Serif" font-size="10.00"># mbReloading</text>
<polyline fill="none" stroke="black" points="0,-538.5 112,-538.5 "/>
<text text-anchor="start" x="8" y="-526.5" font-family="Helvetica,sans-Serif" font-size="10.00">+ NFIModule()</text>
<text text-anchor="start" x="8" y="-515.5" font-family="Helvetica,sans-Serif" font-size="10.00">+ ~NFIModule()</text>
<text text-anchor="start" x="8" y="-504.5" font-family="Helvetica,sans-Serif" font-size="10.00">+ Init()</text>
<text text-anchor="start" x="8" y="-493.5" font-family="Helvetica,sans-Serif" font-size="10.00">+ AfterInit()</text>
<text text-anchor="start" x="8" y="-482.5" font-family="Helvetica,sans-Serif" font-size="10.00">+ CheckConfig()</text>
<text text-anchor="start" x="8" y="-471.5" font-family="Helvetica,sans-Serif" font-size="10.00">+ BeforeShut()</text>
<text text-anchor="start" x="8" y="-460.5" font-family="Helvetica,sans-Serif" font-size="10.00">+ Shut()</text>
<text text-anchor="start" x="8" y="-449.5" font-family="Helvetica,sans-Serif" font-size="10.00">+ Execute()</text>
<text text-anchor="start" x="8" y="-438.5" font-family="Helvetica,sans-Serif" font-size="10.00">+ StartReLoadState()</text>
<text text-anchor="start" x="8" y="-427.5" font-family="Helvetica,sans-Serif" font-size="10.00">+ EndReLoadState()</text>
<text text-anchor="start" x="8" y="-416.5" font-family="Helvetica,sans-Serif" font-size="10.00">+ GetPluginManager()</text>
<text text-anchor="start" x="8" y="-405.5" font-family="Helvetica,sans-Serif" font-size="10.00">+ Loading()</text>
</a>
</g>
</g>
<!-- Node6&#45;&gt;Node5 -->
<g id="edge2" class="edge"><title>Node6&#45;&gt;Node5</title>
<path fill="none" stroke="midnightblue" d="M118.534,-400.986C119.356,-399.981 120.178,-398.986 121,-398 128.247,-389.312 132.491,-389.254 139,-380 160.19,-349.876 177.092,-310.791 187.064,-284.852"/>
<polygon fill="none" stroke="midnightblue" points="115.761,-398.851 112.256,-408.849 121.231,-403.218 115.761,-398.851"/>
</g>
<!-- Node7 -->
<g id="node4" class="node"><title>Node7</title>
<g id="a_node4"><a xlink:href="class_n_f_i_plugin_manager.html" target="_top" xlink:title="{NFIPluginManager\n||+ NFIPluginManager()\l+ FindModule()\l+ Registered()\l+ UnRegistered()\l+ FindPlugin()\l+ AddModule()\l+ RemoveModule()\l+ FindModule()\l+ AppID()\l+ GetInitTime()\l+ GetNowTime()\l+ GetConfigPath()\l+ SetConfigName()\l}">
<polygon fill="white" stroke="black" points="0.5,-161.5 0.5,-350.5 111.5,-350.5 111.5,-161.5 0.5,-161.5"/>
<text text-anchor="middle" x="56" y="-338.5" font-family="Helvetica,sans-Serif" font-size="10.00">NFIPluginManager</text>
<polyline fill="none" stroke="black" points="0.5,-331.5 111.5,-331.5 "/>
<text text-anchor="middle" x="56" y="-319.5" font-family="Helvetica,sans-Serif" font-size="10.00"> </text>
<polyline fill="none" stroke="black" points="0.5,-312.5 111.5,-312.5 "/>
<text text-anchor="start" x="8.5" y="-300.5" font-family="Helvetica,sans-Serif" font-size="10.00">+ NFIPluginManager()</text>
<text text-anchor="start" x="8.5" y="-289.5" font-family="Helvetica,sans-Serif" font-size="10.00">+ FindModule()</text>
<text text-anchor="start" x="8.5" y="-278.5" font-family="Helvetica,sans-Serif" font-size="10.00">+ Registered()</text>
<text text-anchor="start" x="8.5" y="-267.5" font-family="Helvetica,sans-Serif" font-size="10.00">+ UnRegistered()</text>
<text text-anchor="start" x="8.5" y="-256.5" font-family="Helvetica,sans-Serif" font-size="10.00">+ FindPlugin()</text>
<text text-anchor="start" x="8.5" y="-245.5" font-family="Helvetica,sans-Serif" font-size="10.00">+ AddModule()</text>
<text text-anchor="start" x="8.5" y="-234.5" font-family="Helvetica,sans-Serif" font-size="10.00">+ RemoveModule()</text>
<text text-anchor="start" x="8.5" y="-223.5" font-family="Helvetica,sans-Serif" font-size="10.00">+ FindModule()</text>
<text text-anchor="start" x="8.5" y="-212.5" font-family="Helvetica,sans-Serif" font-size="10.00">+ AppID()</text>
<text text-anchor="start" x="8.5" y="-201.5" font-family="Helvetica,sans-Serif" font-size="10.00">+ GetInitTime()</text>
<text text-anchor="start" x="8.5" y="-190.5" font-family="Helvetica,sans-Serif" font-size="10.00">+ GetNowTime()</text>
<text text-anchor="start" x="8.5" y="-179.5" font-family="Helvetica,sans-Serif" font-size="10.00">+ GetConfigPath()</text>
<text text-anchor="start" x="8.5" y="-168.5" font-family="Helvetica,sans-Serif" font-size="10.00">+ SetConfigName()</text>
</a>
</g>
</g>
<!-- Node6&#45;&gt;Node7 -->
<g id="edge4" class="edge"><title>Node6&#45;&gt;Node7</title>
<path fill="none" stroke="midnightblue" d="M54.0828,-388.295C54.0521,-385.501 54.0244,-382.732 54,-380 53.9152,-370.497 53.9202,-360.58 53.9866,-350.682"/>
<polygon fill="none" stroke="midnightblue" points="50.5854,-388.543 54.2056,-398.5 57.5849,-388.458 50.5854,-388.543"/>
</g>
<!-- Node7&#45;&gt;Node6 -->
<g id="edge3" class="edge"><title>Node7&#45;&gt;Node6</title>
<path fill="none" stroke="#404040" d="M56,-350.615C56,-362.301 56,-374.316 56,-386.171"/>
<polygon fill="none" stroke="#404040" points="56.0001,-386.447 60,-392.447 56,-398.447 52,-392.447 56.0001,-386.447"/>
<text text-anchor="middle" x="95.5" y="-372" font-family="Helvetica,sans-Serif" font-size="10.00"> #pPluginManager</text>
</g>
<!-- Node8 -->
<g id="node5" class="node"><title>Node8</title>
<g id="a_node5"><a xlink:href="class_n_f_map_ex.html" target="_top" xlink:title="{NFMapEx\&lt; int, NFCSceneInfo \&gt;\n|&#45; mObjectList\l&#45; mObjectCurIter\l|+ NFMapEx()\l+ ~NFMapEx()\l+ AddElement()\l+ SetElement()\l+ RemoveElement()\l+ GetElementNude()\l+ GetElement()\l+ FirstNude()\l+ FirstNude()\l+ NextNude()\land 7 more...\l}">
<polygon fill="white" stroke="black" points="130.5,-404 130.5,-582 287.5,-582 287.5,-404 130.5,-404"/>
<text text-anchor="middle" x="209" y="-570" font-family="Helvetica,sans-Serif" font-size="10.00">NFMapEx&lt; int, NFCSceneInfo &gt;</text>
<polyline fill="none" stroke="black" points="130.5,-563 287.5,-563 "/>
<text text-anchor="start" x="138.5" y="-551" font-family="Helvetica,sans-Serif" font-size="10.00">&#45; mObjectList</text>
<text text-anchor="start" x="138.5" y="-540" font-family="Helvetica,sans-Serif" font-size="10.00">&#45; mObjectCurIter</text>
<polyline fill="none" stroke="black" points="130.5,-533 287.5,-533 "/>
<text text-anchor="start" x="138.5" y="-521" font-family="Helvetica,sans-Serif" font-size="10.00">+ NFMapEx()</text>
<text text-anchor="start" x="138.5" y="-510" font-family="Helvetica,sans-Serif" font-size="10.00">+ ~NFMapEx()</text>
<text text-anchor="start" x="138.5" y="-499" font-family="Helvetica,sans-Serif" font-size="10.00">+ AddElement()</text>
<text text-anchor="start" x="138.5" y="-488" font-family="Helvetica,sans-Serif" font-size="10.00">+ SetElement()</text>
<text text-anchor="start" x="138.5" y="-477" font-family="Helvetica,sans-Serif" font-size="10.00">+ RemoveElement()</text>
<text text-anchor="start" x="138.5" y="-466" font-family="Helvetica,sans-Serif" font-size="10.00">+ GetElementNude()</text>
<text text-anchor="start" x="138.5" y="-455" font-family="Helvetica,sans-Serif" font-size="10.00">+ GetElement()</text>
<text text-anchor="start" x="138.5" y="-444" font-family="Helvetica,sans-Serif" font-size="10.00">+ FirstNude()</text>
<text text-anchor="start" x="138.5" y="-433" font-family="Helvetica,sans-Serif" font-size="10.00">+ FirstNude()</text>
<text text-anchor="start" x="138.5" y="-422" font-family="Helvetica,sans-Serif" font-size="10.00">+ NextNude()</text>
<text text-anchor="start" x="138.5" y="-411" font-family="Helvetica,sans-Serif" font-size="10.00">and 7 more...</text>
</a>
</g>
</g>
<!-- Node8&#45;&gt;Node5 -->
<g id="edge5" class="edge"><title>Node8&#45;&gt;Node5</title>
<path fill="none" stroke="midnightblue" d="M203.986,-393.818C201.961,-354.15 199.781,-311.463 198.405,-284.512"/>
<polygon fill="none" stroke="midnightblue" points="200.492,-394.018 204.498,-403.826 207.483,-393.661 200.492,-394.018"/>
</g>
</g>
</svg>
