<?xml version="1.0" encoding="UTF-8" standalone="no"?>
<!DOCTYPE svg PUBLIC "-//W3C//DTD SVG 1.1//EN"
 "http://www.w3.org/Graphics/SVG/1.1/DTD/svg11.dtd">
<!-- Generated by graphviz version 2.38.0 (20140413.2041)
 -->
<!-- Title: NFConcurrentMap&lt; T, TD &gt; Pages: 1 -->
<svg width="121pt" height="292pt"
 viewBox="0.00 0.00 121.00 292.00" xmlns="http://www.w3.org/2000/svg" xmlns:xlink="http://www.w3.org/1999/xlink">
<g id="graph0" class="graph" transform="scale(1 1) rotate(0) translate(4 288)">
<title>NFConcurrentMap&lt; T, TD &gt;</title>
<polygon fill="white" stroke="none" points="-4,4 -4,-288 117,-288 117,4 -4,4"/>
<!-- Node2 -->
<g id="node1" class="node"><title>Node2</title>
<polygon fill="#bfbfbf" stroke="black" points="0,-0.5 0,-68.5 113,-68.5 113,-0.5 0,-0.5"/>
<text text-anchor="start" x="8" y="-56.5" font-family="Helvetica,sans-Serif" font-size="10.00">NFConcurrentMap&lt; T,</text>
<text text-anchor="middle" x="56.5" y="-45.5" font-family="Helvetica,sans-Serif" font-size="10.00"> TD &gt;</text>
<polyline fill="none" stroke="black" points="0,-38.5 113,-38.5 "/>
<text text-anchor="middle" x="56.5" y="-26.5" font-family="Helvetica,sans-Serif" font-size="10.00"> </text>
<polyline fill="none" stroke="black" points="0,-19.5 113,-19.5 "/>
<text text-anchor="middle" x="56.5" y="-7.5" font-family="Helvetica,sans-Serif" font-size="10.00"> </text>
</g>
<!-- Node3 -->
<g id="node2" class="node"><title>Node3</title>
<g id="a_node2"><a xlink:href="class_n_f_map_ex.html" target="_top" xlink:title="{NFMapEx\&lt; T, TD \&gt;\n|&#45; mObjectList\l&#45; mObjectCurIter\l|+ NFMapEx()\l+ ~NFMapEx()\l+ AddElement()\l+ SetElement()\l+ RemoveElement()\l+ GetElementNude()\l+ GetElement()\l+ FirstNude()\l+ NextNude()\l+ FirstNude()\land 7 more...\l}">
<polygon fill="white" stroke="black" points="3.5,-105.5 3.5,-283.5 109.5,-283.5 109.5,-105.5 3.5,-105.5"/>
<text text-anchor="middle" x="56.5" y="-271.5" font-family="Helvetica,sans-Serif" font-size="10.00">NFMapEx&lt; T, TD &gt;</text>
<polyline fill="none" stroke="black" points="3.5,-264.5 109.5,-264.5 "/>
<text text-anchor="start" x="11.5" y="-252.5" font-family="Helvetica,sans-Serif" font-size="10.00">&#45; mObjectList</text>
<text text-anchor="start" x="11.5" y="-241.5" font-family="Helvetica,sans-Serif" font-size="10.00">&#45; mObjectCurIter</text>
<polyline fill="none" stroke="black" points="3.5,-234.5 109.5,-234.5 "/>
<text text-anchor="start" x="11.5" y="-222.5" font-family="Helvetica,sans-Serif" font-size="10.00">+ NFMapEx()</text>
<text text-anchor="start" x="11.5" y="-211.5" font-family="Helvetica,sans-Serif" font-size="10.00">+ ~NFMapEx()</text>
<text text-anchor="start" x="11.5" y="-200.5" font-family="Helvetica,sans-Serif" font-size="10.00">+ AddElement()</text>
<text text-anchor="start" x="11.5" y="-189.5" font-family="Helvetica,sans-Serif" font-size="10.00">+ SetElement()</text>
<text text-anchor="start" x="11.5" y="-178.5" font-family="Helvetica,sans-Serif" font-size="10.00">+ RemoveElement()</text>
<text text-anchor="start" x="11.5" y="-167.5" font-family="Helvetica,sans-Serif" font-size="10.00">+ GetElementNude()</text>
<text text-anchor="start" x="11.5" y="-156.5" font-family="Helvetica,sans-Serif" font-size="10.00">+ GetElement()</text>
<text text-anchor="start" x="11.5" y="-145.5" font-family="Helvetica,sans-Serif" font-size="10.00">+ FirstNude()</text>
<text text-anchor="start" x="11.5" y="-134.5" font-family="Helvetica,sans-Serif" font-size="10.00">+ NextNude()</text>
<text text-anchor="start" x="11.5" y="-123.5" font-family="Helvetica,sans-Serif" font-size="10.00">+ FirstNude()</text>
<text text-anchor="start" x="11.5" y="-112.5" font-family="Helvetica,sans-Serif" font-size="10.00">and 7 more...</text>
</a>
</g>
</g>
<!-- Node3&#45;&gt;Node2 -->
<g id="edge1" class="edge"><title>Node3&#45;&gt;Node2</title>
<path fill="none" stroke="midnightblue" d="M56.5,-94.9951C56.5,-85.6501 56.5,-76.6935 56.5,-68.6942"/>
<polygon fill="none" stroke="midnightblue" points="53.0001,-95.261 56.5,-105.261 60.0001,-95.2611 53.0001,-95.261"/>
</g>
</g>
</svg>
