<?xml version="1.0" encoding="UTF-8" standalone="no"?>
<!DOCTYPE svg PUBLIC "-//W3C//DTD SVG 1.1//EN"
 "http://www.w3.org/Graphics/SVG/1.1/DTD/svg11.dtd">
<!-- Generated by graphviz version 2.38.0 (20140413.2041)
 -->
<!-- Title: Frame Pages: 1 -->
<svg width="246pt" height="148pt"
 viewBox="0.00 0.00 246.00 148.00" xmlns="http://www.w3.org/2000/svg" xmlns:xlink="http://www.w3.org/1999/xlink">
<g id="graph0" class="graph" transform="scale(1 1) rotate(0) translate(4 144)">
<title>Frame</title>
<polygon fill="white" stroke="none" points="-4,4 -4,-144 242,-144 242,4 -4,4"/>
<g id="clust1" class="cluster"><title>clusterdir_7a06c62105c5affe7ed07b0b42060f70</title>
<g id="a_clust1"><a xlink:href="dir_7a06c62105c5affe7ed07b0b42060f70.html" target="_top">
<polygon fill="#eeeeff" stroke="black" points="8,-8 8,-132 230,-132 230,-8 8,-8"/>
</a>
</g>
</g>
<!-- dir_7a06c62105c5affe7ed07b0b42060f70 -->
<g id="node1" class="node"><title>dir_7a06c62105c5affe7ed07b0b42060f70</title>
<text text-anchor="middle" x="195" y="-103.5" font-family="Helvetica,sans-Serif" font-size="10.00">Frame</text>
</g>
<!-- dir_0b95f4527414882d5201ffcfb4c41afc -->
<g id="node2" class="node"><title>dir_0b95f4527414882d5201ffcfb4c41afc</title>
<g id="a_node2"><a xlink:href="dir_0b95f4527414882d5201ffcfb4c41afc.html" target="_top" xlink:title="Examples">
<polygon fill="white" stroke="red" points="150,-124 90,-124 90,-88 150,-88 150,-124"/>
<text text-anchor="middle" x="120" y="-103.5" font-family="Helvetica,sans-Serif" font-size="10.00">Examples</text>
</a>
</g>
</g>
<!-- dir_e8e2e8cd2e9cce0e00a01e88b353c0f0 -->
<g id="node3" class="node"><title>dir_e8e2e8cd2e9cce0e00a01e88b353c0f0</title>
<g id="a_node3"><a xlink:href="dir_e8e2e8cd2e9cce0e00a01e88b353c0f0.html" target="_top" xlink:title="NFComm">
<polygon fill="white" stroke="red" points="111,-52 53,-52 53,-16 111,-16 111,-52"/>
<text text-anchor="middle" x="82" y="-31.5" font-family="Helvetica,sans-Serif" font-size="10.00">NFComm</text>
</a>
</g>
</g>
<!-- dir_0b95f4527414882d5201ffcfb4c41afc&#45;&gt;dir_e8e2e8cd2e9cce0e00a01e88b353c0f0 -->
<g id="edge2" class="edge"><title>dir_0b95f4527414882d5201ffcfb4c41afc&#45;&gt;dir_e8e2e8cd2e9cce0e00a01e88b353c0f0</title>
<path fill="none" stroke="black" d="M110.607,-87.6966C106.235,-79.6436 100.943,-69.8945 96.1047,-60.9824"/>
<polygon fill="black" stroke="black" points="99.1322,-59.223 91.2852,-52.1043 92.9802,-62.5627 99.1322,-59.223"/>
<g id="a_edge2&#45;headlabel"><a xlink:href="dir_000003_000001.html" target="_top" xlink:title="18">
<text text-anchor="middle" x="103.342" y="-58.5276" font-family="Helvetica,sans-Serif" font-size="10.00">18</text>
</a>
</g>
</g>
<!-- dir_3cb4d07d289a2dd9111369886b8dcf20 -->
<g id="node4" class="node"><title>dir_3cb4d07d289a2dd9111369886b8dcf20</title>
<g id="a_node4"><a xlink:href="dir_3cb4d07d289a2dd9111369886b8dcf20.html" target="_top" xlink:title="NFServer">
<polygon fill="white" stroke="red" points="72,-124 16,-124 16,-88 72,-88 72,-124"/>
<text text-anchor="middle" x="44" y="-103.5" font-family="Helvetica,sans-Serif" font-size="10.00">NFServer</text>
</a>
</g>
</g>
<!-- dir_3cb4d07d289a2dd9111369886b8dcf20&#45;&gt;dir_e8e2e8cd2e9cce0e00a01e88b353c0f0 -->
<g id="edge1" class="edge"><title>dir_3cb4d07d289a2dd9111369886b8dcf20&#45;&gt;dir_e8e2e8cd2e9cce0e00a01e88b353c0f0</title>
<path fill="none" stroke="black" d="M53.3933,-87.6966C57.7649,-79.6436 63.0573,-69.8945 67.8953,-60.9824"/>
<polygon fill="black" stroke="black" points="71.0198,-62.5627 72.7148,-52.1043 64.8678,-59.223 71.0198,-62.5627"/>
<g id="a_edge1&#45;headlabel"><a xlink:href="dir_000010_000001.html" target="_top" xlink:title="222">
<text text-anchor="middle" x="71.8002" y="-64.5764" font-family="Helvetica,sans-Serif" font-size="10.00">222</text>
</a>
</g>
</g>
</g>
</svg>
