<?xml version="1.0" encoding="UTF-8" standalone="no"?>
<!DOCTYPE svg PUBLIC "-//W3C//DTD SVG 1.1//EN"
 "http://www.w3.org/Graphics/SVG/1.1/DTD/svg11.dtd">
<!-- Generated by graphviz version 2.38.0 (20140413.2041)
 -->
<!-- Title: NFLogPlugin Pages: 1 -->
<svg width="112pt" height="151pt"
 viewBox="0.00 0.00 112.00 151.00" xmlns="http://www.w3.org/2000/svg" xmlns:xlink="http://www.w3.org/1999/xlink">
<g id="graph0" class="graph" transform="scale(1 1) rotate(0) translate(4 147)">
<title>NFLogPlugin</title>
<polygon fill="white" stroke="none" points="-4,4 -4,-147 108,-147 108,4 -4,4"/>
<g id="clust1" class="cluster"><title>clusterdir_e8e2e8cd2e9cce0e00a01e88b353c0f0</title>
<g id="a_clust1"><a xlink:href="dir_e8e2e8cd2e9cce0e00a01e88b353c0f0.html" target="_top" xlink:title="NFComm">
<polygon fill="#ddddee" stroke="black" points="8,-64 8,-135 96,-135 96,-64 8,-64"/>
<text text-anchor="middle" x="52" y="-123" font-family="Helvetica,sans-Serif" font-size="10.00">NFComm</text>
</a>
</g>
</g>
<!-- dir_5b4fb4992c0eb487b71e971a223d67ae -->
<g id="node1" class="node"><title>dir_5b4fb4992c0eb487b71e971a223d67ae</title>
<g id="a_node1"><a xlink:href="dir_5b4fb4992c0eb487b71e971a223d67ae.html" target="_top" xlink:title="NFLogPlugin">
<polygon fill="#eeeeff" stroke="black" points="88,-108 16,-108 16,-72 88,-72 88,-108"/>
<text text-anchor="middle" x="52" y="-87.5" font-family="Helvetica,sans-Serif" font-size="10.00">NFLogPlugin</text>
</a>
</g>
</g>
<!-- dir_08b26fe749f887106e47d9ba8c8416ed -->
<g id="node2" class="node"><title>dir_08b26fe749f887106e47d9ba8c8416ed</title>
<g id="a_node2"><a xlink:href="dir_08b26fe749f887106e47d9ba8c8416ed.html" target="_top" xlink:title="NFPluginModule">
<polygon fill="none" stroke="black" points="96,-36 8,-36 8,-0 96,-0 96,-36"/>
<text text-anchor="middle" x="52" y="-15.5" font-family="Helvetica,sans-Serif" font-size="10.00">NFPluginModule</text>
</a>
</g>
</g>
<!-- dir_5b4fb4992c0eb487b71e971a223d67ae&#45;&gt;dir_08b26fe749f887106e47d9ba8c8416ed -->
<g id="edge1" class="edge"><title>dir_5b4fb4992c0eb487b71e971a223d67ae&#45;&gt;dir_08b26fe749f887106e47d9ba8c8416ed</title>
<path fill="none" stroke="black" d="M52,-71.6966C52,-63.9827 52,-54.7125 52,-46.1124"/>
<polygon fill="black" stroke="black" points="55.5001,-46.1043 52,-36.1043 48.5001,-46.1044 55.5001,-46.1043"/>
<g id="a_edge1&#45;headlabel"><a xlink:href="dir_000009_000030.html" target="_top" xlink:title="4">
<text text-anchor="middle" x="58.3393" y="-47.199" font-family="Helvetica,sans-Serif" font-size="10.00">4</text>
</a>
</g>
</g>
</g>
</svg>
