<?xml version="1.0" encoding="UTF-8" standalone="no"?>
<!DOCTYPE svg PUBLIC "-//W3C//DTD SVG 1.1//EN"
 "http://www.w3.org/Graphics/SVG/1.1/DTD/svg11.dtd">
<!-- Generated by graphviz version 2.38.0 (20140413.2041)
 -->
<!-- Title: NFServer Pages: 1 -->
<svg width="2168pt" height="159pt"
 viewBox="0.00 0.00 2168.00 159.00" xmlns="http://www.w3.org/2000/svg" xmlns:xlink="http://www.w3.org/1999/xlink">
<g id="graph0" class="graph" transform="scale(1 1) rotate(0) translate(4 155)">
<title>NFServer</title>
<polygon fill="white" stroke="none" points="-4,4 -4,-155 2164,-155 2164,4 -4,4"/>
<g id="clust1" class="cluster"><title>clusterdir_7a06c62105c5affe7ed07b0b42060f70</title>
<g id="a_clust1"><a xlink:href="dir_7a06c62105c5affe7ed07b0b42060f70.html" target="_top" xlink:title="Frame">
<polygon fill="#ddddee" stroke="black" points="8,-56 8,-143 2152,-143 2152,-56 8,-56"/>
<text text-anchor="middle" x="1080" y="-131" font-family="Helvetica,sans-Serif" font-size="10.00">Frame</text>
</a>
</g>
</g>
<g id="clust2" class="cluster"><title>clusterdir_3cb4d07d289a2dd9111369886b8dcf20</title>
<g id="a_clust2"><a xlink:href="dir_3cb4d07d289a2dd9111369886b8dcf20.html" target="_top">
<polygon fill="#eeeeff" stroke="black" points="16,-64 16,-116 2144,-116 2144,-64 16,-64"/>
</a>
</g>
</g>
<!-- dir_3cb4d07d289a2dd9111369886b8dcf20 -->
<g id="node1" class="node"><title>dir_3cb4d07d289a2dd9111369886b8dcf20</title>
<text text-anchor="middle" x="2108" y="-87.5" font-family="Helvetica,sans-Serif" font-size="10.00">NFServer</text>
</g>
<!-- dir_f53f303340e3bf4da8a11ca5af0f817f -->
<g id="node2" class="node"><title>dir_f53f303340e3bf4da8a11ca5af0f817f</title>
<g id="a_node2"><a xlink:href="dir_f53f303340e3bf4da8a11ca5af0f817f.html" target="_top" xlink:title="NFGameServerNet_ClientPlugin">
<polygon fill="white" stroke="black" points="2061.5,-108 1906.5,-108 1906.5,-72 2061.5,-72 2061.5,-108"/>
<text text-anchor="middle" x="1984" y="-87.5" font-family="Helvetica,sans-Serif" font-size="10.00">NFGameServerNet_ClientPlugin</text>
</a>
</g>
</g>
<!-- dir_e8e2e8cd2e9cce0e00a01e88b353c0f0 -->
<g id="node16" class="node"><title>dir_e8e2e8cd2e9cce0e00a01e88b353c0f0</title>
<g id="a_node16"><a xlink:href="dir_e8e2e8cd2e9cce0e00a01e88b353c0f0.html" target="_top" xlink:title="NFComm">
<polygon fill="white" stroke="red" points="1066,-36 1008,-36 1008,-0 1066,-0 1066,-36"/>
<text text-anchor="middle" x="1037" y="-15.5" font-family="Helvetica,sans-Serif" font-size="10.00">NFComm</text>
</a>
</g>
</g>
<!-- dir_f53f303340e3bf4da8a11ca5af0f817f&#45;&gt;dir_e8e2e8cd2e9cce0e00a01e88b353c0f0 -->
<g id="edge8" class="edge"><title>dir_f53f303340e3bf4da8a11ca5af0f817f&#45;&gt;dir_e8e2e8cd2e9cce0e00a01e88b353c0f0</title>
<path fill="none" stroke="black" d="M1947.12,-71.8365C1932.19,-65.6953 1914.6,-59.4453 1898,-56 1737.93,-22.7735 1223.74,-19.312 1076.65,-19.0105"/>
<polygon fill="black" stroke="black" points="1076.31,-15.51 1066.31,-18.9934 1076.3,-22.51 1076.31,-15.51"/>
<g id="a_edge8&#45;headlabel"><a xlink:href="dir_000011_000001.html" target="_top" xlink:title="14">
<text text-anchor="middle" x="1079.91" y="-10.1766" font-family="Helvetica,sans-Serif" font-size="10.00">14</text>
</a>
</g>
</g>
<!-- dir_d6b4f840df3b1d1dde67996ca3f83def -->
<g id="node3" class="node"><title>dir_d6b4f840df3b1d1dde67996ca3f83def</title>
<g id="a_node3"><a xlink:href="dir_d6b4f840df3b1d1dde67996ca3f83def.html" target="_top" xlink:title="NFGameServerNet_ServerPlugin">
<polygon fill="white" stroke="black" points="1888.5,-108 1731.5,-108 1731.5,-72 1888.5,-72 1888.5,-108"/>
<text text-anchor="middle" x="1810" y="-87.5" font-family="Helvetica,sans-Serif" font-size="10.00">NFGameServerNet_ServerPlugin</text>
</a>
</g>
</g>
<!-- dir_d6b4f840df3b1d1dde67996ca3f83def&#45;&gt;dir_e8e2e8cd2e9cce0e00a01e88b353c0f0 -->
<g id="edge2" class="edge"><title>dir_d6b4f840df3b1d1dde67996ca3f83def&#45;&gt;dir_e8e2e8cd2e9cce0e00a01e88b353c0f0</title>
<path fill="none" stroke="black" d="M1772.2,-71.9382C1756.93,-65.8109 1738.93,-59.544 1722,-56 1597.4,-29.9163 1203.25,-21.5947 1076.6,-19.559"/>
<polygon fill="black" stroke="black" points="1076.27,-16.0536 1066.22,-19.3967 1076.17,-23.0527 1076.27,-16.0536"/>
<g id="a_edge2&#45;headlabel"><a xlink:href="dir_000012_000001.html" target="_top" xlink:title="15">
<text text-anchor="middle" x="1079.91" y="-10.7707" font-family="Helvetica,sans-Serif" font-size="10.00">15</text>
</a>
</g>
</g>
<!-- dir_6e6e1dbe3189e66eac24c755d073eea6 -->
<g id="node4" class="node"><title>dir_6e6e1dbe3189e66eac24c755d073eea6</title>
<g id="a_node4"><a xlink:href="dir_6e6e1dbe3189e66eac24c755d073eea6.html" target="_top" xlink:title="NFGameServerPlugin">
<polygon fill="white" stroke="black" points="1713,-108 1603,-108 1603,-72 1713,-72 1713,-108"/>
<text text-anchor="middle" x="1658" y="-87.5" font-family="Helvetica,sans-Serif" font-size="10.00">NFGameServerPlugin</text>
</a>
</g>
</g>
<!-- dir_6e6e1dbe3189e66eac24c755d073eea6&#45;&gt;dir_e8e2e8cd2e9cce0e00a01e88b353c0f0 -->
<g id="edge10" class="edge"><title>dir_6e6e1dbe3189e66eac24c755d073eea6&#45;&gt;dir_e8e2e8cd2e9cce0e00a01e88b353c0f0</title>
<path fill="none" stroke="black" d="M1630.98,-71.9442C1619.93,-65.8178 1606.77,-59.5498 1594,-56 1496.31,-28.8371 1186.18,-21.3589 1076.17,-19.5335"/>
<polygon fill="black" stroke="black" points="1076.21,-16.0339 1066.16,-19.374 1076.1,-23.033 1076.21,-16.0339"/>
<g id="a_edge10&#45;headlabel"><a xlink:href="dir_000013_000001.html" target="_top" xlink:title="60">
<text text-anchor="middle" x="1079.85" y="-10.7522" font-family="Helvetica,sans-Serif" font-size="10.00">60</text>
</a>
</g>
</g>
<!-- dir_fc0be26efbf2012e4cc9d0c0eaf13c4a -->
<g id="node5" class="node"><title>dir_fc0be26efbf2012e4cc9d0c0eaf13c4a</title>
<g id="a_node5"><a xlink:href="dir_fc0be26efbf2012e4cc9d0c0eaf13c4a.html" target="_top" xlink:title="NFLoginLogicPlugin">
<polygon fill="white" stroke="black" points="1584.5,-108 1481.5,-108 1481.5,-72 1584.5,-72 1584.5,-108"/>
<text text-anchor="middle" x="1533" y="-87.5" font-family="Helvetica,sans-Serif" font-size="10.00">NFLoginLogicPlugin</text>
</a>
</g>
</g>
<!-- dir_fc0be26efbf2012e4cc9d0c0eaf13c4a&#45;&gt;dir_e8e2e8cd2e9cce0e00a01e88b353c0f0 -->
<g id="edge14" class="edge"><title>dir_fc0be26efbf2012e4cc9d0c0eaf13c4a&#45;&gt;dir_e8e2e8cd2e9cce0e00a01e88b353c0f0</title>
<path fill="none" stroke="black" d="M1507.47,-71.873C1497.19,-65.8153 1484.95,-59.6143 1473,-56 1399.31,-33.7086 1168.99,-23.5215 1076.26,-20.2453"/>
<polygon fill="black" stroke="black" points="1076.29,-16.7441 1066.17,-19.897 1076.04,-23.74 1076.29,-16.7441"/>
<g id="a_edge14&#45;headlabel"><a xlink:href="dir_000014_000001.html" target="_top" xlink:title="7">
<text text-anchor="middle" x="1079.98" y="-11.5304" font-family="Helvetica,sans-Serif" font-size="10.00">7</text>
</a>
</g>
</g>
<!-- dir_0f807368834577b89ae539efc8f905c9 -->
<g id="node6" class="node"><title>dir_0f807368834577b89ae539efc8f905c9</title>
<g id="a_node6"><a xlink:href="dir_0f807368834577b89ae539efc8f905c9.html" target="_top" xlink:title="NFLoginNet_ClientPlugin">
<polygon fill="white" stroke="black" points="1463.5,-108 1338.5,-108 1338.5,-72 1463.5,-72 1463.5,-108"/>
<text text-anchor="middle" x="1401" y="-87.5" font-family="Helvetica,sans-Serif" font-size="10.00">NFLoginNet_ClientPlugin</text>
</a>
</g>
</g>
<!-- dir_0f807368834577b89ae539efc8f905c9&#45;&gt;dir_e8e2e8cd2e9cce0e00a01e88b353c0f0 -->
<g id="edge11" class="edge"><title>dir_0f807368834577b89ae539efc8f905c9&#45;&gt;dir_e8e2e8cd2e9cce0e00a01e88b353c0f0</title>
<path fill="none" stroke="black" d="M1369.65,-71.8786C1357.58,-65.9725 1343.45,-59.8738 1330,-56 1241.64,-30.5582 1133.29,-22.6044 1076.32,-20.1223"/>
<polygon fill="black" stroke="black" points="1076.43,-16.6239 1066.29,-19.7195 1076.15,-23.6183 1076.43,-16.6239"/>
<g id="a_edge11&#45;headlabel"><a xlink:href="dir_000015_000001.html" target="_top" xlink:title="11">
<text text-anchor="middle" x="1080.13" y="-11.4312" font-family="Helvetica,sans-Serif" font-size="10.00">11</text>
</a>
</g>
</g>
<!-- dir_ed5f78a1e8601777b86cd3fd3a517f2d -->
<g id="node7" class="node"><title>dir_ed5f78a1e8601777b86cd3fd3a517f2d</title>
<g id="a_node7"><a xlink:href="dir_ed5f78a1e8601777b86cd3fd3a517f2d.html" target="_top" xlink:title="NFLoginNet_ServerPlugin">
<polygon fill="white" stroke="black" points="1320.5,-108 1193.5,-108 1193.5,-72 1320.5,-72 1320.5,-108"/>
<text text-anchor="middle" x="1257" y="-87.5" font-family="Helvetica,sans-Serif" font-size="10.00">NFLoginNet_ServerPlugin</text>
</a>
</g>
</g>
<!-- dir_ed5f78a1e8601777b86cd3fd3a517f2d&#45;&gt;dir_e8e2e8cd2e9cce0e00a01e88b353c0f0 -->
<g id="edge4" class="edge"><title>dir_ed5f78a1e8601777b86cd3fd3a517f2d&#45;&gt;dir_e8e2e8cd2e9cce0e00a01e88b353c0f0</title>
<path fill="none" stroke="black" d="M1222.61,-71.9348C1210.58,-66.3765 1196.87,-60.4885 1184,-56 1148.21,-43.5188 1106.17,-33.3706 1076.23,-26.8807"/>
<polygon fill="black" stroke="black" points="1076.69,-23.3994 1066.18,-24.7399 1075.23,-30.2459 1076.69,-23.3994"/>
<g id="a_edge4&#45;headlabel"><a xlink:href="dir_000016_000001.html" target="_top" xlink:title="13">
<text text-anchor="middle" x="1080.79" y="-18.871" font-family="Helvetica,sans-Serif" font-size="10.00">13</text>
</a>
</g>
</g>
<!-- dir_8c98d03a49eebf48fd337fa5da5e0b1c -->
<g id="node8" class="node"><title>dir_8c98d03a49eebf48fd337fa5da5e0b1c</title>
<g id="a_node8"><a xlink:href="dir_8c98d03a49eebf48fd337fa5da5e0b1c.html" target="_top" xlink:title="NFMasterNet_ServerPlugin">
<polygon fill="white" stroke="black" points="1175,-108 1041,-108 1041,-72 1175,-72 1175,-108"/>
<text text-anchor="middle" x="1108" y="-87.5" font-family="Helvetica,sans-Serif" font-size="10.00">NFMasterNet_ServerPlugin</text>
</a>
</g>
</g>
<!-- dir_8c98d03a49eebf48fd337fa5da5e0b1c&#45;&gt;dir_e8e2e8cd2e9cce0e00a01e88b353c0f0 -->
<g id="edge9" class="edge"><title>dir_8c98d03a49eebf48fd337fa5da5e0b1c&#45;&gt;dir_e8e2e8cd2e9cce0e00a01e88b353c0f0</title>
<path fill="none" stroke="black" d="M1090.45,-71.6966C1081.77,-63.135 1071.14,-52.6562 1061.65,-43.3045"/>
<polygon fill="black" stroke="black" points="1063.93,-40.6327 1054.35,-36.1043 1059.01,-45.6175 1063.93,-40.6327"/>
<g id="a_edge9&#45;headlabel"><a xlink:href="dir_000017_000001.html" target="_top" xlink:title="9">
<text text-anchor="middle" x="1068.48" y="-38.6345" font-family="Helvetica,sans-Serif" font-size="10.00">9</text>
</a>
</g>
</g>
<!-- dir_fd70cd5bfbd83693eee023ed4e58dead -->
<g id="node9" class="node"><title>dir_fd70cd5bfbd83693eee023ed4e58dead</title>
<g id="a_node9"><a xlink:href="dir_fd70cd5bfbd83693eee023ed4e58dead.html" target="_top" xlink:title="NFMasterServerPlugin">
<polygon fill="white" stroke="black" points="1022.5,-108 909.5,-108 909.5,-72 1022.5,-72 1022.5,-108"/>
<text text-anchor="middle" x="966" y="-87.5" font-family="Helvetica,sans-Serif" font-size="10.00">NFMasterServerPlugin</text>
</a>
</g>
</g>
<!-- dir_fd70cd5bfbd83693eee023ed4e58dead&#45;&gt;dir_e8e2e8cd2e9cce0e00a01e88b353c0f0 -->
<g id="edge3" class="edge"><title>dir_fd70cd5bfbd83693eee023ed4e58dead&#45;&gt;dir_e8e2e8cd2e9cce0e00a01e88b353c0f0</title>
<path fill="none" stroke="black" d="M983.551,-71.6966C992.234,-63.135 1002.86,-52.6562 1012.35,-43.3045"/>
<polygon fill="black" stroke="black" points="1014.99,-45.6175 1019.65,-36.1043 1010.07,-40.6327 1014.99,-45.6175"/>
<g id="a_edge3&#45;headlabel"><a xlink:href="dir_000018_000001.html" target="_top" xlink:title="6">
<text text-anchor="middle" x="1014.42" y="-47.663" font-family="Helvetica,sans-Serif" font-size="10.00">6</text>
</a>
</g>
</g>
<!-- dir_0d185645082e9f69b5b67e5fc955be32 -->
<g id="node10" class="node"><title>dir_0d185645082e9f69b5b67e5fc955be32</title>
<g id="a_node10"><a xlink:href="dir_0d185645082e9f69b5b67e5fc955be32.html" target="_top" xlink:title="NFProxyLogicPlugin">
<polygon fill="white" stroke="black" points="891.5,-108 786.5,-108 786.5,-72 891.5,-72 891.5,-108"/>
<text text-anchor="middle" x="839" y="-87.5" font-family="Helvetica,sans-Serif" font-size="10.00">NFProxyLogicPlugin</text>
</a>
</g>
</g>
<!-- dir_0d185645082e9f69b5b67e5fc955be32&#45;&gt;dir_e8e2e8cd2e9cce0e00a01e88b353c0f0 -->
<g id="edge13" class="edge"><title>dir_0d185645082e9f69b5b67e5fc955be32&#45;&gt;dir_e8e2e8cd2e9cce0e00a01e88b353c0f0</title>
<path fill="none" stroke="black" d="M868.004,-71.8373C878.202,-66.2713 889.891,-60.4033 901,-56 932.668,-43.4477 970.112,-33.6056 997.685,-27.2381"/>
<polygon fill="black" stroke="black" points="998.753,-30.5852 1007.74,-24.9694 997.212,-23.757 998.753,-30.5852"/>
<g id="a_edge13&#45;headlabel"><a xlink:href="dir_000019_000001.html" target="_top" xlink:title="8">
<text text-anchor="middle" x="995.872" y="-31.6461" font-family="Helvetica,sans-Serif" font-size="10.00">8</text>
</a>
</g>
</g>
<!-- dir_b81c8bb9db4e4006af012e85c0a668a8 -->
<g id="node11" class="node"><title>dir_b81c8bb9db4e4006af012e85c0a668a8</title>
<g id="a_node11"><a xlink:href="dir_b81c8bb9db4e4006af012e85c0a668a8.html" target="_top" xlink:title="NFProxyServerNet_ClientPlugin">
<polygon fill="white" stroke="black" points="768,-108 614,-108 614,-72 768,-72 768,-108"/>
<text text-anchor="middle" x="691" y="-87.5" font-family="Helvetica,sans-Serif" font-size="10.00">NFProxyServerNet_ClientPlugin</text>
</a>
</g>
</g>
<!-- dir_b81c8bb9db4e4006af012e85c0a668a8&#45;&gt;dir_e8e2e8cd2e9cce0e00a01e88b353c0f0 -->
<g id="edge5" class="edge"><title>dir_b81c8bb9db4e4006af012e85c0a668a8&#45;&gt;dir_e8e2e8cd2e9cce0e00a01e88b353c0f0</title>
<path fill="none" stroke="black" d="M730.684,-71.8347C745.326,-66.0672 762.2,-60.0717 778,-56 854.538,-36.2754 946.693,-26.2703 997.871,-21.8849"/>
<polygon fill="black" stroke="black" points="998.17,-25.3722 1007.85,-21.0572 997.591,-18.3962 998.17,-25.3722"/>
<g id="a_edge5&#45;headlabel"><a xlink:href="dir_000020_000001.html" target="_top" xlink:title="30">
<text text-anchor="middle" x="994.822" y="-25.9989" font-family="Helvetica,sans-Serif" font-size="10.00">30</text>
</a>
</g>
</g>
<!-- dir_33717786c4d4f79d7bc3907fd4df3e7d -->
<g id="node12" class="node"><title>dir_33717786c4d4f79d7bc3907fd4df3e7d</title>
<g id="a_node12"><a xlink:href="dir_33717786c4d4f79d7bc3907fd4df3e7d.html" target="_top" xlink:title="NFProxyServerNet_ServerPlugin">
<polygon fill="white" stroke="black" points="596,-108 440,-108 440,-72 596,-72 596,-108"/>
<text text-anchor="middle" x="518" y="-87.5" font-family="Helvetica,sans-Serif" font-size="10.00">NFProxyServerNet_ServerPlugin</text>
</a>
</g>
</g>
<!-- dir_33717786c4d4f79d7bc3907fd4df3e7d&#45;&gt;dir_e8e2e8cd2e9cce0e00a01e88b353c0f0 -->
<g id="edge7" class="edge"><title>dir_33717786c4d4f79d7bc3907fd4df3e7d&#45;&gt;dir_e8e2e8cd2e9cce0e00a01e88b353c0f0</title>
<path fill="none" stroke="black" d="M556.266,-71.8605C571.19,-65.8778 588.619,-59.7318 605,-56 746.947,-23.6625 920.982,-19.0679 997.605,-18.7544"/>
<polygon fill="black" stroke="black" points="997.763,-22.2543 1007.76,-18.7362 997.751,-15.2543 997.763,-22.2543"/>
<g id="a_edge7&#45;headlabel"><a xlink:href="dir_000021_000001.html" target="_top" xlink:title="15">
<text text-anchor="middle" x="994.174" y="-22.5999" font-family="Helvetica,sans-Serif" font-size="10.00">15</text>
</a>
</g>
</g>
<!-- dir_6f6a1ed19f8b97f2fb29bd3d340b2e4a -->
<g id="node13" class="node"><title>dir_6f6a1ed19f8b97f2fb29bd3d340b2e4a</title>
<g id="a_node13"><a xlink:href="dir_6f6a1ed19f8b97f2fb29bd3d340b2e4a.html" target="_top" xlink:title="NFWorldLogicPlugin">
<polygon fill="white" stroke="black" points="421.5,-108 316.5,-108 316.5,-72 421.5,-72 421.5,-108"/>
<text text-anchor="middle" x="369" y="-87.5" font-family="Helvetica,sans-Serif" font-size="10.00">NFWorldLogicPlugin</text>
</a>
</g>
</g>
<!-- dir_6f6a1ed19f8b97f2fb29bd3d340b2e4a&#45;&gt;dir_e8e2e8cd2e9cce0e00a01e88b353c0f0 -->
<g id="edge1" class="edge"><title>dir_6f6a1ed19f8b97f2fb29bd3d340b2e4a&#45;&gt;dir_e8e2e8cd2e9cce0e00a01e88b353c0f0</title>
<path fill="none" stroke="black" d="M395.101,-71.9036C405.793,-65.7716 418.561,-59.5104 431,-56 538.102,-25.7756 880.815,-20.2384 997.592,-19.226"/>
<polygon fill="black" stroke="black" points="997.882,-22.7238 1007.85,-19.1438 997.826,-15.7241 997.882,-22.7238"/>
<g id="a_edge1&#45;headlabel"><a xlink:href="dir_000022_000001.html" target="_top" xlink:title="8">
<text text-anchor="middle" x="994.31" y="-23.0917" font-family="Helvetica,sans-Serif" font-size="10.00">8</text>
</a>
</g>
</g>
<!-- dir_85e59b75005f10338f7060e89ffd3d55 -->
<g id="node14" class="node"><title>dir_85e59b75005f10338f7060e89ffd3d55</title>
<g id="a_node14"><a xlink:href="dir_85e59b75005f10338f7060e89ffd3d55.html" target="_top" xlink:title="NFWorldNet_ClientPlugin">
<polygon fill="white" stroke="black" points="298.5,-108 171.5,-108 171.5,-72 298.5,-72 298.5,-108"/>
<text text-anchor="middle" x="235" y="-87.5" font-family="Helvetica,sans-Serif" font-size="10.00">NFWorldNet_ClientPlugin</text>
</a>
</g>
</g>
<!-- dir_85e59b75005f10338f7060e89ffd3d55&#45;&gt;dir_e8e2e8cd2e9cce0e00a01e88b353c0f0 -->
<g id="edge6" class="edge"><title>dir_85e59b75005f10338f7060e89ffd3d55&#45;&gt;dir_e8e2e8cd2e9cce0e00a01e88b353c0f0</title>
<path fill="none" stroke="black" d="M266.059,-71.8626C278.693,-65.7248 293.671,-59.4706 308,-56 440.658,-23.8686 866.245,-19.6138 997.847,-19.0722"/>
<polygon fill="black" stroke="black" points="997.894,-22.5722 1007.88,-19.0359 997.868,-15.5722 997.894,-22.5722"/>
<g id="a_edge6&#45;headlabel"><a xlink:href="dir_000023_000001.html" target="_top" xlink:title="13">
<text text-anchor="middle" x="994.309" y="-22.9244" font-family="Helvetica,sans-Serif" font-size="10.00">13</text>
</a>
</g>
</g>
<!-- dir_7544840b387dae5d84301346f11d1a4f -->
<g id="node15" class="node"><title>dir_7544840b387dae5d84301346f11d1a4f</title>
<g id="a_node15"><a xlink:href="dir_7544840b387dae5d84301346f11d1a4f.html" target="_top" xlink:title="NFWorldNet_ServerPlugin">
<polygon fill="white" stroke="black" points="153.5,-108 24.5,-108 24.5,-72 153.5,-72 153.5,-108"/>
<text text-anchor="middle" x="89" y="-87.5" font-family="Helvetica,sans-Serif" font-size="10.00">NFWorldNet_ServerPlugin</text>
</a>
</g>
</g>
<!-- dir_7544840b387dae5d84301346f11d1a4f&#45;&gt;dir_e8e2e8cd2e9cce0e00a01e88b353c0f0 -->
<g id="edge12" class="edge"><title>dir_7544840b387dae5d84301346f11d1a4f&#45;&gt;dir_e8e2e8cd2e9cce0e00a01e88b353c0f0</title>
<path fill="none" stroke="black" d="M120.133,-71.9764C133.016,-65.7746 148.348,-59.4445 163,-56 324.882,-17.9438 849.384,-17.9215 997.639,-18.7103"/>
<polygon fill="black" stroke="black" points="997.633,-22.2102 1007.65,-18.7679 997.673,-15.2103 997.633,-22.2102"/>
<g id="a_edge12&#45;headlabel"><a xlink:href="dir_000024_000001.html" target="_top" xlink:title="13">
<text text-anchor="middle" x="994.022" y="-22.5288" font-family="Helvetica,sans-Serif" font-size="10.00">13</text>
</a>
</g>
</g>
</g>
</svg>
