<?xml version="1.0" encoding="UTF-8" standalone="no"?>
<!DOCTYPE svg PUBLIC "-//W3C//DTD SVG 1.1//EN"
 "http://www.w3.org/Graphics/SVG/1.1/DTD/svg11.dtd">
<!-- Generated by graphviz version 2.38.0 (20140413.2041)
 -->
<!-- Title: NFMasterNet_ServerPlugin Pages: 1 -->
<svg width="174pt" height="151pt"
 viewBox="0.00 0.00 174.00 151.00" xmlns="http://www.w3.org/2000/svg" xmlns:xlink="http://www.w3.org/1999/xlink">
<g id="graph0" class="graph" transform="scale(1 1) rotate(0) translate(4 147)">
<title>NFMasterNet_ServerPlugin</title>
<polygon fill="white" stroke="none" points="-4,4 -4,-147 170,-147 170,4 -4,4"/>
<g id="clust1" class="cluster"><title>clusterdir_3cb4d07d289a2dd9111369886b8dcf20</title>
<g id="a_clust1"><a xlink:href="dir_3cb4d07d289a2dd9111369886b8dcf20.html" target="_top" xlink:title="NFServer">
<polygon fill="#ddddee" stroke="black" points="8,-64 8,-135 158,-135 158,-64 8,-64"/>
<text text-anchor="middle" x="83" y="-123" font-family="Helvetica,sans-Serif" font-size="10.00">NFServer</text>
</a>
</g>
</g>
<!-- dir_8c98d03a49eebf48fd337fa5da5e0b1c -->
<g id="node1" class="node"><title>dir_8c98d03a49eebf48fd337fa5da5e0b1c</title>
<g id="a_node1"><a xlink:href="dir_8c98d03a49eebf48fd337fa5da5e0b1c.html" target="_top" xlink:title="NFMasterNet_ServerPlugin">
<polygon fill="#eeeeff" stroke="black" points="150,-108 16,-108 16,-72 150,-72 150,-108"/>
<text text-anchor="middle" x="83" y="-87.5" font-family="Helvetica,sans-Serif" font-size="10.00">NFMasterNet_ServerPlugin</text>
</a>
</g>
</g>
<!-- dir_e8e2e8cd2e9cce0e00a01e88b353c0f0 -->
<g id="node2" class="node"><title>dir_e8e2e8cd2e9cce0e00a01e88b353c0f0</title>
<g id="a_node2"><a xlink:href="dir_e8e2e8cd2e9cce0e00a01e88b353c0f0.html" target="_top" xlink:title="NFComm">
<polygon fill="white" stroke="red" points="112,-36 54,-36 54,-0 112,-0 112,-36"/>
<text text-anchor="middle" x="83" y="-15.5" font-family="Helvetica,sans-Serif" font-size="10.00">NFComm</text>
</a>
</g>
</g>
<!-- dir_8c98d03a49eebf48fd337fa5da5e0b1c&#45;&gt;dir_e8e2e8cd2e9cce0e00a01e88b353c0f0 -->
<g id="edge1" class="edge"><title>dir_8c98d03a49eebf48fd337fa5da5e0b1c&#45;&gt;dir_e8e2e8cd2e9cce0e00a01e88b353c0f0</title>
<path fill="none" stroke="black" d="M83,-71.6966C83,-63.9827 83,-54.7125 83,-46.1124"/>
<polygon fill="black" stroke="black" points="86.5001,-46.1043 83,-36.1043 79.5001,-46.1044 86.5001,-46.1043"/>
<g id="a_edge1&#45;headlabel"><a xlink:href="dir_000017_000001.html" target="_top" xlink:title="9">
<text text-anchor="middle" x="89.3393" y="-47.199" font-family="Helvetica,sans-Serif" font-size="10.00">9</text>
</a>
</g>
</g>
</g>
</svg>
