<?xml version="1.0" encoding="UTF-8" standalone="no"?>
<!DOCTYPE svg PUBLIC "-//W3C//DTD SVG 1.1//EN"
 "http://www.w3.org/Graphics/SVG/1.1/DTD/svg11.dtd">
<!-- Generated by graphviz version 2.38.0 (20140413.2041)
 -->
<!-- Title: Tutorial2 Pages: 1 -->
<svg width="94pt" height="151pt"
 viewBox="0.00 0.00 94.00 151.00" xmlns="http://www.w3.org/2000/svg" xmlns:xlink="http://www.w3.org/1999/xlink">
<g id="graph0" class="graph" transform="scale(1 1) rotate(0) translate(4 147)">
<title>Tutorial2</title>
<polygon fill="white" stroke="none" points="-4,4 -4,-147 90,-147 90,4 -4,4"/>
<g id="clust1" class="cluster"><title>clusterdir_0b95f4527414882d5201ffcfb4c41afc</title>
<g id="a_clust1"><a xlink:href="dir_0b95f4527414882d5201ffcfb4c41afc.html" target="_top" xlink:title="Examples">
<polygon fill="#ddddee" stroke="black" points="8,-64 8,-135 78,-135 78,-64 8,-64"/>
<text text-anchor="middle" x="43" y="-123" font-family="Helvetica,sans-Serif" font-size="10.00">Examples</text>
</a>
</g>
</g>
<!-- dir_307c9436d7c4fd2ddc6b040ebcd7658e -->
<g id="node1" class="node"><title>dir_307c9436d7c4fd2ddc6b040ebcd7658e</title>
<g id="a_node1"><a xlink:href="dir_307c9436d7c4fd2ddc6b040ebcd7658e.html" target="_top" xlink:title="Tutorial2">
<polygon fill="#eeeeff" stroke="black" points="70,-108 16,-108 16,-72 70,-72 70,-108"/>
<text text-anchor="middle" x="43" y="-87.5" font-family="Helvetica,sans-Serif" font-size="10.00">Tutorial2</text>
</a>
</g>
</g>
<!-- dir_e8e2e8cd2e9cce0e00a01e88b353c0f0 -->
<g id="node2" class="node"><title>dir_e8e2e8cd2e9cce0e00a01e88b353c0f0</title>
<g id="a_node2"><a xlink:href="dir_e8e2e8cd2e9cce0e00a01e88b353c0f0.html" target="_top" xlink:title="NFComm">
<polygon fill="white" stroke="red" points="72,-36 14,-36 14,-0 72,-0 72,-36"/>
<text text-anchor="middle" x="43" y="-15.5" font-family="Helvetica,sans-Serif" font-size="10.00">NFComm</text>
</a>
</g>
</g>
<!-- dir_307c9436d7c4fd2ddc6b040ebcd7658e&#45;&gt;dir_e8e2e8cd2e9cce0e00a01e88b353c0f0 -->
<g id="edge1" class="edge"><title>dir_307c9436d7c4fd2ddc6b040ebcd7658e&#45;&gt;dir_e8e2e8cd2e9cce0e00a01e88b353c0f0</title>
<path fill="none" stroke="black" d="M43,-71.6966C43,-63.9827 43,-54.7125 43,-46.1124"/>
<polygon fill="black" stroke="black" points="46.5001,-46.1043 43,-36.1043 39.5001,-46.1044 46.5001,-46.1043"/>
<g id="a_edge1&#45;headlabel"><a xlink:href="dir_000005_000001.html" target="_top" xlink:title="7">
<text text-anchor="middle" x="49.3393" y="-47.199" font-family="Helvetica,sans-Serif" font-size="10.00">7</text>
</a>
</g>
</g>
</g>
</svg>
