<?xml version="1.0" encoding="UTF-8" standalone="no"?>
<!DOCTYPE svg PUBLIC "-//W3C//DTD SVG 1.1//EN"
 "http://www.w3.org/Graphics/SVG/1.1/DTD/svg11.dtd">
<!-- Generated by graphviz version 2.38.0 (20140413.2041)
 -->
<!-- Title: NFNet Pages: 1 -->
<svg width="184pt" height="151pt"
 viewBox="0.00 0.00 184.00 151.00" xmlns="http://www.w3.org/2000/svg" xmlns:xlink="http://www.w3.org/1999/xlink">
<g id="graph0" class="graph" transform="scale(1 1) rotate(0) translate(4 147)">
<title>NFNet</title>
<polygon fill="white" stroke="none" points="-4,4 -4,-147 180,-147 180,4 -4,4"/>
<g id="clust1" class="cluster"><title>clusterdir_e8e2e8cd2e9cce0e00a01e88b353c0f0</title>
<g id="a_clust1"><a xlink:href="dir_e8e2e8cd2e9cce0e00a01e88b353c0f0.html" target="_top" xlink:title="NFComm">
<polygon fill="#ddddee" stroke="black" points="8,-64 8,-135 78,-135 78,-64 8,-64"/>
<text text-anchor="middle" x="43" y="-123" font-family="Helvetica,sans-Serif" font-size="10.00">NFComm</text>
</a>
</g>
</g>
<!-- dir_47495336d2ae8218759d2f130bef5741 -->
<g id="node1" class="node"><title>dir_47495336d2ae8218759d2f130bef5741</title>
<g id="a_node1"><a xlink:href="dir_47495336d2ae8218759d2f130bef5741.html" target="_top" xlink:title="NFNet">
<polygon fill="#eeeeff" stroke="black" points="70,-108 16,-108 16,-72 70,-72 70,-108"/>
<text text-anchor="middle" x="43" y="-87.5" font-family="Helvetica,sans-Serif" font-size="10.00">NFNet</text>
</a>
</g>
</g>
<!-- dir_08b26fe749f887106e47d9ba8c8416ed -->
<g id="node2" class="node"><title>dir_08b26fe749f887106e47d9ba8c8416ed</title>
<g id="a_node2"><a xlink:href="dir_08b26fe749f887106e47d9ba8c8416ed.html" target="_top" xlink:title="NFPluginModule">
<polygon fill="none" stroke="black" points="176,-108 88,-108 88,-72 176,-72 176,-108"/>
<text text-anchor="middle" x="132" y="-87.5" font-family="Helvetica,sans-Serif" font-size="10.00">NFPluginModule</text>
</a>
</g>
</g>
<!-- dir_47495336d2ae8218759d2f130bef5741&#45;&gt;dir_08b26fe749f887106e47d9ba8c8416ed -->
<g id="edge3" class="edge"><title>dir_47495336d2ae8218759d2f130bef5741&#45;&gt;dir_08b26fe749f887106e47d9ba8c8416ed</title>
<path fill="none" stroke="black" d="M70.1172,-90C72.5647,-90 75.0122,-90 77.4597,-90"/>
<polygon fill="black" stroke="black" points="77.5218,-93.5001 87.5217,-90 77.5217,-86.5001 77.5218,-93.5001"/>
<g id="a_edge3&#45;headlabel"><a xlink:href="dir_000028_000030.html" target="_top" xlink:title="1">
<text text-anchor="middle" x="73.9271" y="-93.8393" font-family="Helvetica,sans-Serif" font-size="10.00">1</text>
</a>
</g>
</g>
<!-- dir_134fe9bf93b8508b01ec5bdc93793970 -->
<g id="node3" class="node"><title>dir_134fe9bf93b8508b01ec5bdc93793970</title>
<g id="a_node3"><a xlink:href="dir_134fe9bf93b8508b01ec5bdc93793970.html" target="_top" xlink:title="NFCore">
<polygon fill="white" stroke="red" points="159,-36 105,-36 105,-0 159,-0 159,-36"/>
<text text-anchor="middle" x="132" y="-15.5" font-family="Helvetica,sans-Serif" font-size="10.00">NFCore</text>
</a>
</g>
</g>
<!-- dir_47495336d2ae8218759d2f130bef5741&#45;&gt;dir_134fe9bf93b8508b01ec5bdc93793970 -->
<g id="edge4" class="edge"><title>dir_47495336d2ae8218759d2f130bef5741&#45;&gt;dir_134fe9bf93b8508b01ec5bdc93793970</title>
<path fill="none" stroke="black" d="M65,-71.6966C76.2088,-62.8807 90.0021,-52.0321 102.154,-42.4742"/>
<polygon fill="black" stroke="black" points="104.557,-45.0375 110.253,-36.1043 100.229,-39.5354 104.557,-45.0375"/>
<g id="a_edge4&#45;headlabel"><a xlink:href="dir_000028_000002.html" target="_top" xlink:title="2">
<text text-anchor="middle" x="103.487" y="-46.9914" font-family="Helvetica,sans-Serif" font-size="10.00">2</text>
</a>
</g>
</g>
<!-- dir_08b26fe749f887106e47d9ba8c8416ed&#45;&gt;dir_47495336d2ae8218759d2f130bef5741 -->
<g id="edge1" class="edge"><title>dir_08b26fe749f887106e47d9ba8c8416ed&#45;&gt;dir_47495336d2ae8218759d2f130bef5741</title>
<path fill="none" stroke="black" d="M87.5217,-90C85.0742,-90 82.6267,-90 80.1792,-90"/>
<polygon fill="black" stroke="black" points="80.1172,-86.5001 70.1172,-90 80.1172,-93.5001 80.1172,-86.5001"/>
<g id="a_edge1&#45;headlabel"><a xlink:href="dir_000030_000028.html" target="_top" xlink:title="1">
<text text-anchor="middle" x="83.7118" y="-81.1607" font-family="Helvetica,sans-Serif" font-size="10.00">1</text>
</a>
</g>
</g>
<!-- dir_08b26fe749f887106e47d9ba8c8416ed&#45;&gt;dir_134fe9bf93b8508b01ec5bdc93793970 -->
<g id="edge2" class="edge"><title>dir_08b26fe749f887106e47d9ba8c8416ed&#45;&gt;dir_134fe9bf93b8508b01ec5bdc93793970</title>
<path fill="none" stroke="black" d="M126.084,-71.6966C125.289,-63.9827 125.062,-54.7125 125.405,-46.1124"/>
<polygon fill="black" stroke="black" points="128.898,-46.3243 126.105,-36.1043 121.915,-45.8356 128.898,-46.3243"/>
<g id="a_edge2&#45;headlabel"><a xlink:href="dir_000030_000002.html" target="_top" xlink:title="19">
<text text-anchor="middle" x="131.48" y="-47.6083" font-family="Helvetica,sans-Serif" font-size="10.00">19</text>
</a>
</g>
</g>
<!-- dir_134fe9bf93b8508b01ec5bdc93793970&#45;&gt;dir_08b26fe749f887106e47d9ba8c8416ed -->
<g id="edge5" class="edge"><title>dir_134fe9bf93b8508b01ec5bdc93793970&#45;&gt;dir_08b26fe749f887106e47d9ba8c8416ed</title>
<path fill="none" stroke="black" d="M137.895,-36.1043C138.701,-43.7913 138.937,-53.0537 138.604,-61.6651"/>
<polygon fill="black" stroke="black" points="135.109,-61.4805 137.916,-71.6966 142.092,-61.9597 135.109,-61.4805"/>
<g id="a_edge5&#45;headlabel"><a xlink:href="dir_000002_000030.html" target="_top" xlink:title="19">
<text text-anchor="middle" x="132.522" y="-55.2" font-family="Helvetica,sans-Serif" font-size="10.00">19</text>
</a>
</g>
</g>
</g>
</svg>
