<?xml version="1.0" encoding="UTF-8" standalone="no"?>
<!DOCTYPE svg PUBLIC "-//W3C//DTD SVG 1.1//EN"
 "http://www.w3.org/Graphics/SVG/1.1/DTD/svg11.dtd">
<!-- Generated by graphviz version 2.38.0 (20140413.2041)
 -->
<!-- Title: NFLoginNet_ClientPlugin Pages: 1 -->
<svg width="166pt" height="151pt"
 viewBox="0.00 0.00 166.00 151.00" xmlns="http://www.w3.org/2000/svg" xmlns:xlink="http://www.w3.org/1999/xlink">
<g id="graph0" class="graph" transform="scale(1 1) rotate(0) translate(4 147)">
<title>NFLoginNet_ClientPlugin</title>
<polygon fill="white" stroke="none" points="-4,4 -4,-147 162,-147 162,4 -4,4"/>
<g id="clust1" class="cluster"><title>clusterdir_3cb4d07d289a2dd9111369886b8dcf20</title>
<g id="a_clust1"><a xlink:href="dir_3cb4d07d289a2dd9111369886b8dcf20.html" target="_top" xlink:title="NFServer">
<polygon fill="#ddddee" stroke="black" points="8,-64 8,-135 150,-135 150,-64 8,-64"/>
<text text-anchor="middle" x="79" y="-123" font-family="Helvetica,sans-Serif" font-size="10.00">NFServer</text>
</a>
</g>
</g>
<!-- dir_0f807368834577b89ae539efc8f905c9 -->
<g id="node1" class="node"><title>dir_0f807368834577b89ae539efc8f905c9</title>
<g id="a_node1"><a xlink:href="dir_0f807368834577b89ae539efc8f905c9.html" target="_top" xlink:title="NFLoginNet_ClientPlugin">
<polygon fill="#eeeeff" stroke="black" points="141.5,-108 16.5,-108 16.5,-72 141.5,-72 141.5,-108"/>
<text text-anchor="middle" x="79" y="-87.5" font-family="Helvetica,sans-Serif" font-size="10.00">NFLoginNet_ClientPlugin</text>
</a>
</g>
</g>
<!-- dir_e8e2e8cd2e9cce0e00a01e88b353c0f0 -->
<g id="node2" class="node"><title>dir_e8e2e8cd2e9cce0e00a01e88b353c0f0</title>
<g id="a_node2"><a xlink:href="dir_e8e2e8cd2e9cce0e00a01e88b353c0f0.html" target="_top" xlink:title="NFComm">
<polygon fill="white" stroke="red" points="108,-36 50,-36 50,-0 108,-0 108,-36"/>
<text text-anchor="middle" x="79" y="-15.5" font-family="Helvetica,sans-Serif" font-size="10.00">NFComm</text>
</a>
</g>
</g>
<!-- dir_0f807368834577b89ae539efc8f905c9&#45;&gt;dir_e8e2e8cd2e9cce0e00a01e88b353c0f0 -->
<g id="edge1" class="edge"><title>dir_0f807368834577b89ae539efc8f905c9&#45;&gt;dir_e8e2e8cd2e9cce0e00a01e88b353c0f0</title>
<path fill="none" stroke="black" d="M79,-71.6966C79,-63.9827 79,-54.7125 79,-46.1124"/>
<polygon fill="black" stroke="black" points="82.5001,-46.1043 79,-36.1043 75.5001,-46.1044 82.5001,-46.1043"/>
<g id="a_edge1&#45;headlabel"><a xlink:href="dir_000015_000001.html" target="_top" xlink:title="11">
<text text-anchor="middle" x="85.3393" y="-47.199" font-family="Helvetica,sans-Serif" font-size="10.00">11</text>
</a>
</g>
</g>
</g>
</svg>
