<?xml version="1.0" encoding="UTF-8" standalone="no"?>
<!DOCTYPE svg PUBLIC "-//W3C//DTD SVG 1.1//EN"
 "http://www.w3.org/Graphics/SVG/1.1/DTD/svg11.dtd">
<!-- Generated by graphviz version 2.38.0 (20140413.2041)
 -->
<!-- Title: NFKernelPlugin Pages: 1 -->
<svg width="253pt" height="303pt"
 viewBox="0.00 0.00 253.00 303.00" xmlns="http://www.w3.org/2000/svg" xmlns:xlink="http://www.w3.org/1999/xlink">
<g id="graph0" class="graph" transform="scale(1 1) rotate(0) translate(4 299)">
<title>NFKernelPlugin</title>
<polygon fill="white" stroke="none" points="-4,4 -4,-299 249,-299 249,4 -4,4"/>
<g id="clust1" class="cluster"><title>clusterdir_e8e2e8cd2e9cce0e00a01e88b353c0f0</title>
<g id="a_clust1"><a xlink:href="dir_e8e2e8cd2e9cce0e00a01e88b353c0f0.html" target="_top" xlink:title="NFComm">
<polygon fill="#ddddee" stroke="black" points="8,-128 8,-287 237,-287 237,-128 8,-128"/>
<text text-anchor="middle" x="122.5" y="-275" font-family="Helvetica,sans-Serif" font-size="10.00">NFComm</text>
</a>
</g>
</g>
<g id="clust2" class="cluster"><title>clusterdir_8b93dcf1df35386fef243535e3956220</title>
<g id="a_clust2"><a xlink:href="dir_8b93dcf1df35386fef243535e3956220.html" target="_top">
<polygon fill="#eeeeff" stroke="black" points="16,-136 16,-260 229,-260 229,-136 16,-136"/>
</a>
</g>
</g>
<!-- dir_8b93dcf1df35386fef243535e3956220 -->
<g id="node1" class="node"><title>dir_8b93dcf1df35386fef243535e3956220</title>
<text text-anchor="middle" x="122" y="-231.5" font-family="Helvetica,sans-Serif" font-size="10.00">NFKernelPlugin</text>
</g>
<!-- dir_977c8a38a8d3f80e9d4d3c652fb6c8ca -->
<g id="node2" class="node"><title>dir_977c8a38a8d3f80e9d4d3c652fb6c8ca</title>
<g id="a_node2"><a xlink:href="dir_977c8a38a8d3f80e9d4d3c652fb6c8ca.html" target="_top" xlink:title="NFKernelModule">
<polygon fill="white" stroke="black" points="113.5,-180 24.5,-180 24.5,-144 113.5,-144 113.5,-180"/>
<text text-anchor="middle" x="69" y="-159.5" font-family="Helvetica,sans-Serif" font-size="10.00">NFKernelModule</text>
</a>
</g>
</g>
<!-- dir_8b93dcf1df35386fef243535e3956220&#45;&gt;dir_977c8a38a8d3f80e9d4d3c652fb6c8ca -->
<g id="edge2" class="edge"><title>dir_8b93dcf1df35386fef243535e3956220&#45;&gt;dir_977c8a38a8d3f80e9d4d3c652fb6c8ca</title>
<path fill="none" stroke="black" d="M108.899,-215.697C102.609,-207.389 94.9526,-197.277 88.0351,-188.141"/>
<polygon fill="black" stroke="black" points="90.7773,-185.964 81.9504,-180.104 85.1964,-190.19 90.7773,-185.964"/>
<g id="a_edge2&#45;headlabel"><a xlink:href="dir_000008_000027.html" target="_top" xlink:title="2">
<text text-anchor="middle" x="95.2107" y="-184.616" font-family="Helvetica,sans-Serif" font-size="10.00">2</text>
</a>
</g>
</g>
<!-- dir_997256c40e22ef43d8084b47d26760b6 -->
<g id="node3" class="node"><title>dir_997256c40e22ef43d8084b47d26760b6</title>
<g id="a_node3"><a xlink:href="dir_997256c40e22ef43d8084b47d26760b6.html" target="_top" xlink:title="NFSceneModule">
<polygon fill="white" stroke="black" points="220.5,-180 131.5,-180 131.5,-144 220.5,-144 220.5,-180"/>
<text text-anchor="middle" x="176" y="-159.5" font-family="Helvetica,sans-Serif" font-size="10.00">NFSceneModule</text>
</a>
</g>
</g>
<!-- dir_8b93dcf1df35386fef243535e3956220&#45;&gt;dir_997256c40e22ef43d8084b47d26760b6 -->
<g id="edge1" class="edge"><title>dir_8b93dcf1df35386fef243535e3956220&#45;&gt;dir_997256c40e22ef43d8084b47d26760b6</title>
<path fill="none" stroke="black" d="M135.348,-215.697C141.757,-207.389 149.558,-197.277 156.606,-188.141"/>
<polygon fill="black" stroke="black" points="159.468,-190.16 162.805,-180.104 153.926,-185.884 159.468,-190.16"/>
<g id="a_edge1&#45;headlabel"><a xlink:href="dir_000008_000025.html" target="_top" xlink:title="1">
<text text-anchor="middle" x="159.521" y="-192.24" font-family="Helvetica,sans-Serif" font-size="10.00">1</text>
</a>
</g>
</g>
<!-- dir_08b26fe749f887106e47d9ba8c8416ed -->
<g id="node4" class="node"><title>dir_08b26fe749f887106e47d9ba8c8416ed</title>
<g id="a_node4"><a xlink:href="dir_08b26fe749f887106e47d9ba8c8416ed.html" target="_top" xlink:title="NFPluginModule">
<polygon fill="none" stroke="black" points="167,-108 79,-108 79,-72 167,-72 167,-108"/>
<text text-anchor="middle" x="123" y="-87.5" font-family="Helvetica,sans-Serif" font-size="10.00">NFPluginModule</text>
</a>
</g>
</g>
<!-- dir_977c8a38a8d3f80e9d4d3c652fb6c8ca&#45;&gt;dir_08b26fe749f887106e47d9ba8c8416ed -->
<g id="edge6" class="edge"><title>dir_977c8a38a8d3f80e9d4d3c652fb6c8ca&#45;&gt;dir_08b26fe749f887106e47d9ba8c8416ed</title>
<path fill="none" stroke="black" d="M82.3483,-143.697C88.7568,-135.389 96.5577,-125.277 103.606,-116.141"/>
<polygon fill="black" stroke="black" points="106.468,-118.16 109.805,-108.104 100.926,-113.884 106.468,-118.16"/>
<g id="a_edge6&#45;headlabel"><a xlink:href="dir_000027_000030.html" target="_top" xlink:title="12">
<text text-anchor="middle" x="106.521" y="-120.24" font-family="Helvetica,sans-Serif" font-size="10.00">12</text>
</a>
</g>
</g>
<!-- dir_134fe9bf93b8508b01ec5bdc93793970 -->
<g id="node5" class="node"><title>dir_134fe9bf93b8508b01ec5bdc93793970</title>
<g id="a_node5"><a xlink:href="dir_134fe9bf93b8508b01ec5bdc93793970.html" target="_top" xlink:title="NFCore">
<polygon fill="white" stroke="red" points="150,-36 96,-36 96,-0 150,-0 150,-36"/>
<text text-anchor="middle" x="123" y="-15.5" font-family="Helvetica,sans-Serif" font-size="10.00">NFCore</text>
</a>
</g>
</g>
<!-- dir_977c8a38a8d3f80e9d4d3c652fb6c8ca&#45;&gt;dir_134fe9bf93b8508b01ec5bdc93793970 -->
<g id="edge7" class="edge"><title>dir_977c8a38a8d3f80e9d4d3c652fb6c8ca&#45;&gt;dir_134fe9bf93b8508b01ec5bdc93793970</title>
<path fill="none" stroke="black" d="M65.4863,-143.829C62.5248,-125.314 60.1707,-95.358 70,-72 74.6454,-60.9608 82.8013,-51.0086 91.343,-42.7887"/>
<polygon fill="black" stroke="black" points="93.7696,-45.3137 98.8701,-36.0274 89.0918,-40.1062 93.7696,-45.3137"/>
<g id="a_edge7&#45;headlabel"><a xlink:href="dir_000027_000002.html" target="_top" xlink:title="8">
<text text-anchor="middle" x="92.9928" y="-47.328" font-family="Helvetica,sans-Serif" font-size="10.00">8</text>
</a>
</g>
</g>
<!-- dir_997256c40e22ef43d8084b47d26760b6&#45;&gt;dir_08b26fe749f887106e47d9ba8c8416ed -->
<g id="edge4" class="edge"><title>dir_997256c40e22ef43d8084b47d26760b6&#45;&gt;dir_08b26fe749f887106e47d9ba8c8416ed</title>
<path fill="none" stroke="black" d="M162.899,-143.697C156.609,-135.389 148.953,-125.277 142.035,-116.141"/>
<polygon fill="black" stroke="black" points="144.777,-113.964 135.95,-108.104 139.196,-118.19 144.777,-113.964"/>
<g id="a_edge4&#45;headlabel"><a xlink:href="dir_000025_000030.html" target="_top" xlink:title="2">
<text text-anchor="middle" x="149.211" y="-112.616" font-family="Helvetica,sans-Serif" font-size="10.00">2</text>
</a>
</g>
</g>
<!-- dir_997256c40e22ef43d8084b47d26760b6&#45;&gt;dir_134fe9bf93b8508b01ec5bdc93793970 -->
<g id="edge5" class="edge"><title>dir_997256c40e22ef43d8084b47d26760b6&#45;&gt;dir_134fe9bf93b8508b01ec5bdc93793970</title>
<path fill="none" stroke="black" d="M179.757,-143.849C182.97,-125.353 185.697,-95.4114 176,-72 171.455,-61.0279 163.415,-51.1429 154.949,-42.9644"/>
<polygon fill="black" stroke="black" points="157.249,-40.3255 147.477,-36.2321 152.563,-45.5261 157.249,-40.3255"/>
<g id="a_edge5&#45;headlabel"><a xlink:href="dir_000025_000002.html" target="_top" xlink:title="1">
<text text-anchor="middle" x="161.82" y="-38.1222" font-family="Helvetica,sans-Serif" font-size="10.00">1</text>
</a>
</g>
</g>
<!-- dir_08b26fe749f887106e47d9ba8c8416ed&#45;&gt;dir_134fe9bf93b8508b01ec5bdc93793970 -->
<g id="edge3" class="edge"><title>dir_08b26fe749f887106e47d9ba8c8416ed&#45;&gt;dir_134fe9bf93b8508b01ec5bdc93793970</title>
<path fill="none" stroke="black" d="M117.084,-71.6966C116.289,-63.9827 116.062,-54.7125 116.405,-46.1124"/>
<polygon fill="black" stroke="black" points="119.898,-46.3243 117.105,-36.1043 112.915,-45.8356 119.898,-46.3243"/>
<g id="a_edge3&#45;headlabel"><a xlink:href="dir_000030_000002.html" target="_top" xlink:title="19">
<text text-anchor="middle" x="122.48" y="-47.6083" font-family="Helvetica,sans-Serif" font-size="10.00">19</text>
</a>
</g>
</g>
<!-- dir_134fe9bf93b8508b01ec5bdc93793970&#45;&gt;dir_08b26fe749f887106e47d9ba8c8416ed -->
<g id="edge8" class="edge"><title>dir_134fe9bf93b8508b01ec5bdc93793970&#45;&gt;dir_08b26fe749f887106e47d9ba8c8416ed</title>
<path fill="none" stroke="black" d="M128.895,-36.1043C129.701,-43.7913 129.937,-53.0537 129.604,-61.6651"/>
<polygon fill="black" stroke="black" points="126.109,-61.4805 128.916,-71.6966 133.092,-61.9597 126.109,-61.4805"/>
<g id="a_edge8&#45;headlabel"><a xlink:href="dir_000002_000030.html" target="_top" xlink:title="19">
<text text-anchor="middle" x="123.522" y="-55.2" font-family="Helvetica,sans-Serif" font-size="10.00">19</text>
</a>
</g>
</g>
</g>
</svg>
