<?xml version="1.0" encoding="UTF-8" standalone="no"?>
<!DOCTYPE svg PUBLIC "-//W3C//DTD SVG 1.1//EN"
 "http://www.w3.org/Graphics/SVG/1.1/DTD/svg11.dtd">
<!-- Generated by graphviz version 2.38.0 (20140413.2041)
 -->
<!-- Title: NFPluginModule Pages: 1 -->
<svg width="184pt" height="188pt"
 viewBox="0.00 0.00 184.00 188.00" xmlns="http://www.w3.org/2000/svg" xmlns:xlink="http://www.w3.org/1999/xlink">
<g id="graph0" class="graph" transform="scale(1 1) rotate(0) translate(4 184)">
<title>NFPluginModule</title>
<polygon fill="white" stroke="none" points="-4,4 -4,-184 180,-184 180,4 -4,4"/>
<g id="clust1" class="cluster"><title>clusterdir_e8e2e8cd2e9cce0e00a01e88b353c0f0</title>
<g id="a_clust1"><a xlink:href="dir_e8e2e8cd2e9cce0e00a01e88b353c0f0.html" target="_top" xlink:title="NFComm">
<polygon fill="#ddddee" stroke="black" points="8,-64 8,-135 112,-135 112,-64 8,-64"/>
<text text-anchor="middle" x="60" y="-123" font-family="Helvetica,sans-Serif" font-size="10.00">NFComm</text>
</a>
</g>
</g>
<!-- dir_08b26fe749f887106e47d9ba8c8416ed -->
<g id="node1" class="node"><title>dir_08b26fe749f887106e47d9ba8c8416ed</title>
<g id="a_node1"><a xlink:href="dir_08b26fe749f887106e47d9ba8c8416ed.html" target="_top" xlink:title="NFPluginModule">
<polygon fill="#eeeeff" stroke="black" points="104,-108 16,-108 16,-72 104,-72 104,-108"/>
<text text-anchor="middle" x="60" y="-87.5" font-family="Helvetica,sans-Serif" font-size="10.00">NFPluginModule</text>
</a>
</g>
</g>
<!-- dir_d0d954446d58a380f8b1ef76f62c80dc -->
<g id="node2" class="node"><title>dir_d0d954446d58a380f8b1ef76f62c80dc</title>
<g id="a_node2"><a xlink:href="dir_d0d954446d58a380f8b1ef76f62c80dc.html" target="_top" xlink:title="NFEventDefine">
<polygon fill="none" stroke="black" points="144,-36 64,-36 64,-0 144,-0 144,-36"/>
<text text-anchor="middle" x="104" y="-15.5" font-family="Helvetica,sans-Serif" font-size="10.00">NFEventDefine</text>
</a>
</g>
</g>
<!-- dir_08b26fe749f887106e47d9ba8c8416ed&#45;&gt;dir_d0d954446d58a380f8b1ef76f62c80dc -->
<g id="edge1" class="edge"><title>dir_08b26fe749f887106e47d9ba8c8416ed&#45;&gt;dir_d0d954446d58a380f8b1ef76f62c80dc</title>
<path fill="none" stroke="black" d="M70.8764,-71.6966C75.9916,-63.5589 82.1955,-53.689 87.8449,-44.7013"/>
<polygon fill="black" stroke="black" points="90.8902,-46.4333 93.2487,-36.1043 84.9637,-42.7081 90.8902,-46.4333"/>
<g id="a_edge1&#45;headlabel"><a xlink:href="dir_000030_000029.html" target="_top" xlink:title="1">
<text text-anchor="middle" x="91.3811" y="-48.4876" font-family="Helvetica,sans-Serif" font-size="10.00">1</text>
</a>
</g>
</g>
<!-- dir_47495336d2ae8218759d2f130bef5741 -->
<g id="node3" class="node"><title>dir_47495336d2ae8218759d2f130bef5741</title>
<g id="a_node3"><a xlink:href="dir_47495336d2ae8218759d2f130bef5741.html" target="_top" xlink:title="NFNet">
<polygon fill="none" stroke="black" points="131,-180 77,-180 77,-144 131,-144 131,-180"/>
<text text-anchor="middle" x="104" y="-159.5" font-family="Helvetica,sans-Serif" font-size="10.00">NFNet</text>
</a>
</g>
</g>
<!-- dir_08b26fe749f887106e47d9ba8c8416ed&#45;&gt;dir_47495336d2ae8218759d2f130bef5741 -->
<g id="edge2" class="edge"><title>dir_08b26fe749f887106e47d9ba8c8416ed&#45;&gt;dir_47495336d2ae8218759d2f130bef5741</title>
<path fill="none" stroke="black" d="M64.8563,-108.104C69.148,-116.298 75.2117,-126.282 81.3523,-135.359"/>
<polygon fill="black" stroke="black" points="78.5962,-137.525 87.2079,-143.697 84.3245,-133.502 78.5962,-137.525"/>
<g id="a_edge2&#45;headlabel"><a xlink:href="dir_000030_000028.html" target="_top" xlink:title="1">
<text text-anchor="middle" x="74.2068" y="-133.715" font-family="Helvetica,sans-Serif" font-size="10.00">1</text>
</a>
</g>
</g>
<!-- dir_134fe9bf93b8508b01ec5bdc93793970 -->
<g id="node4" class="node"><title>dir_134fe9bf93b8508b01ec5bdc93793970</title>
<g id="a_node4"><a xlink:href="dir_134fe9bf93b8508b01ec5bdc93793970.html" target="_top" xlink:title="NFCore">
<polygon fill="white" stroke="red" points="176,-108 122,-108 122,-72 176,-72 176,-108"/>
<text text-anchor="middle" x="149" y="-87.5" font-family="Helvetica,sans-Serif" font-size="10.00">NFCore</text>
</a>
</g>
</g>
<!-- dir_08b26fe749f887106e47d9ba8c8416ed&#45;&gt;dir_134fe9bf93b8508b01ec5bdc93793970 -->
<g id="edge3" class="edge"><title>dir_08b26fe749f887106e47d9ba8c8416ed&#45;&gt;dir_134fe9bf93b8508b01ec5bdc93793970</title>
<path fill="none" stroke="black" d="M104.152,-90C106.616,-90 109.079,-90 111.543,-90"/>
<polygon fill="black" stroke="black" points="111.671,-93.5001 121.671,-90 111.671,-86.5001 111.671,-93.5001"/>
<g id="a_edge3&#45;headlabel"><a xlink:href="dir_000030_000002.html" target="_top" xlink:title="19">
<text text-anchor="middle" x="108.076" y="-93.8393" font-family="Helvetica,sans-Serif" font-size="10.00">19</text>
</a>
</g>
</g>
<!-- dir_47495336d2ae8218759d2f130bef5741&#45;&gt;dir_08b26fe749f887106e47d9ba8c8416ed -->
<g id="edge4" class="edge"><title>dir_47495336d2ae8218759d2f130bef5741&#45;&gt;dir_08b26fe749f887106e47d9ba8c8416ed</title>
<path fill="none" stroke="black" d="M99.0393,-143.697C94.719,-135.474 88.6405,-125.483 82.4988,-116.421"/>
<polygon fill="black" stroke="black" points="85.2637,-114.268 76.6463,-108.104 79.5392,-118.297 85.2637,-114.268"/>
<g id="a_edge4&#45;headlabel"><a xlink:href="dir_000028_000030.html" target="_top" xlink:title="1">
<text text-anchor="middle" x="89.6544" y="-113.074" font-family="Helvetica,sans-Serif" font-size="10.00">1</text>
</a>
</g>
</g>
<!-- dir_47495336d2ae8218759d2f130bef5741&#45;&gt;dir_134fe9bf93b8508b01ec5bdc93793970 -->
<g id="edge5" class="edge"><title>dir_47495336d2ae8218759d2f130bef5741&#45;&gt;dir_134fe9bf93b8508b01ec5bdc93793970</title>
<path fill="none" stroke="black" d="M115.124,-143.697C120.355,-135.559 126.7,-125.689 132.478,-116.701"/>
<polygon fill="black" stroke="black" points="135.541,-118.409 138.004,-108.104 129.653,-114.623 135.541,-118.409"/>
<g id="a_edge5&#45;headlabel"><a xlink:href="dir_000028_000002.html" target="_top" xlink:title="2">
<text text-anchor="middle" x="135.985" y="-120.468" font-family="Helvetica,sans-Serif" font-size="10.00">2</text>
</a>
</g>
</g>
<!-- dir_134fe9bf93b8508b01ec5bdc93793970&#45;&gt;dir_08b26fe749f887106e47d9ba8c8416ed -->
<g id="edge6" class="edge"><title>dir_134fe9bf93b8508b01ec5bdc93793970&#45;&gt;dir_08b26fe749f887106e47d9ba8c8416ed</title>
<path fill="none" stroke="black" d="M121.671,-90C119.207,-90 116.744,-90 114.28,-90"/>
<polygon fill="black" stroke="black" points="114.152,-86.5001 104.152,-90 114.152,-93.5001 114.152,-86.5001"/>
<g id="a_edge6&#45;headlabel"><a xlink:href="dir_000002_000030.html" target="_top" xlink:title="19">
<text text-anchor="middle" x="117.747" y="-81.1607" font-family="Helvetica,sans-Serif" font-size="10.00">19</text>
</a>
</g>
</g>
<!-- dir_134fe9bf93b8508b01ec5bdc93793970&#45;&gt;dir_d0d954446d58a380f8b1ef76f62c80dc -->
<g id="edge7" class="edge"><title>dir_134fe9bf93b8508b01ec5bdc93793970&#45;&gt;dir_d0d954446d58a380f8b1ef76f62c80dc</title>
<path fill="none" stroke="black" d="M137.876,-71.6966C132.645,-63.5589 126.3,-53.689 120.522,-44.7013"/>
<polygon fill="black" stroke="black" points="123.347,-42.6235 114.996,-36.1043 117.459,-46.4088 123.347,-42.6235"/>
<g id="a_edge7&#45;headlabel"><a xlink:href="dir_000002_000029.html" target="_top" xlink:title="1">
<text text-anchor="middle" x="127.679" y="-41.6118" font-family="Helvetica,sans-Serif" font-size="10.00">1</text>
</a>
</g>
</g>
</g>
</svg>
