<?xml version="1.0" encoding="UTF-8" standalone="no"?>
<!DOCTYPE svg PUBLIC "-//W3C//DTD SVG 1.1//EN"
 "http://www.w3.org/Graphics/SVG/1.1/DTD/svg11.dtd">
<!-- Generated by graphviz version 2.38.0 (20140413.2041)
 -->
<!-- Title: NFProxyServerNet_ClientPlugin Pages: 1 -->
<svg width="194pt" height="151pt"
 viewBox="0.00 0.00 194.00 151.00" xmlns="http://www.w3.org/2000/svg" xmlns:xlink="http://www.w3.org/1999/xlink">
<g id="graph0" class="graph" transform="scale(1 1) rotate(0) translate(4 147)">
<title>NFProxyServerNet_ClientPlugin</title>
<polygon fill="white" stroke="none" points="-4,4 -4,-147 190,-147 190,4 -4,4"/>
<g id="clust1" class="cluster"><title>clusterdir_3cb4d07d289a2dd9111369886b8dcf20</title>
<g id="a_clust1"><a xlink:href="dir_3cb4d07d289a2dd9111369886b8dcf20.html" target="_top" xlink:title="NFServer">
<polygon fill="#ddddee" stroke="black" points="8,-64 8,-135 178,-135 178,-64 8,-64"/>
<text text-anchor="middle" x="93" y="-123" font-family="Helvetica,sans-Serif" font-size="10.00">NFServer</text>
</a>
</g>
</g>
<!-- dir_b81c8bb9db4e4006af012e85c0a668a8 -->
<g id="node1" class="node"><title>dir_b81c8bb9db4e4006af012e85c0a668a8</title>
<g id="a_node1"><a xlink:href="dir_b81c8bb9db4e4006af012e85c0a668a8.html" target="_top" xlink:title="NFProxyServerNet_ClientPlugin">
<polygon fill="#eeeeff" stroke="black" points="170,-108 16,-108 16,-72 170,-72 170,-108"/>
<text text-anchor="middle" x="93" y="-87.5" font-family="Helvetica,sans-Serif" font-size="10.00">NFProxyServerNet_ClientPlugin</text>
</a>
</g>
</g>
<!-- dir_e8e2e8cd2e9cce0e00a01e88b353c0f0 -->
<g id="node2" class="node"><title>dir_e8e2e8cd2e9cce0e00a01e88b353c0f0</title>
<g id="a_node2"><a xlink:href="dir_e8e2e8cd2e9cce0e00a01e88b353c0f0.html" target="_top" xlink:title="NFComm">
<polygon fill="white" stroke="red" points="122,-36 64,-36 64,-0 122,-0 122,-36"/>
<text text-anchor="middle" x="93" y="-15.5" font-family="Helvetica,sans-Serif" font-size="10.00">NFComm</text>
</a>
</g>
</g>
<!-- dir_b81c8bb9db4e4006af012e85c0a668a8&#45;&gt;dir_e8e2e8cd2e9cce0e00a01e88b353c0f0 -->
<g id="edge1" class="edge"><title>dir_b81c8bb9db4e4006af012e85c0a668a8&#45;&gt;dir_e8e2e8cd2e9cce0e00a01e88b353c0f0</title>
<path fill="none" stroke="black" d="M93,-71.6966C93,-63.9827 93,-54.7125 93,-46.1124"/>
<polygon fill="black" stroke="black" points="96.5001,-46.1043 93,-36.1043 89.5001,-46.1044 96.5001,-46.1043"/>
<g id="a_edge1&#45;headlabel"><a xlink:href="dir_000020_000001.html" target="_top" xlink:title="30">
<text text-anchor="middle" x="99.3393" y="-47.199" font-family="Helvetica,sans-Serif" font-size="10.00">30</text>
</a>
</g>
</g>
</g>
</svg>
