<?xml version="1.0" encoding="UTF-8" standalone="no"?>
<!DOCTYPE svg PUBLIC "-//W3C//DTD SVG 1.1//EN"
 "http://www.w3.org/Graphics/SVG/1.1/DTD/svg11.dtd">
<!-- Generated by graphviz version 2.38.0 (20140413.2041)
 -->
<!-- Title: NFConfigPlugin Pages: 1 -->
<svg width="146pt" height="223pt"
 viewBox="0.00 0.00 146.00 223.00" xmlns="http://www.w3.org/2000/svg" xmlns:xlink="http://www.w3.org/1999/xlink">
<g id="graph0" class="graph" transform="scale(1 1) rotate(0) translate(4 219)">
<title>NFConfigPlugin</title>
<polygon fill="white" stroke="none" points="-4,4 -4,-219 142,-219 142,4 -4,4"/>
<g id="clust1" class="cluster"><title>clusterdir_e8e2e8cd2e9cce0e00a01e88b353c0f0</title>
<g id="a_clust1"><a xlink:href="dir_e8e2e8cd2e9cce0e00a01e88b353c0f0.html" target="_top" xlink:title="NFComm">
<polygon fill="#ddddee" stroke="black" points="30,-136 30,-207 130,-207 130,-136 30,-136"/>
<text text-anchor="middle" x="80" y="-195" font-family="Helvetica,sans-Serif" font-size="10.00">NFComm</text>
</a>
</g>
</g>
<!-- dir_8ff66794f6c3184dbb7977cd0fe8b0e5 -->
<g id="node1" class="node"><title>dir_8ff66794f6c3184dbb7977cd0fe8b0e5</title>
<g id="a_node1"><a xlink:href="dir_8ff66794f6c3184dbb7977cd0fe8b0e5.html" target="_top" xlink:title="NFConfigPlugin">
<polygon fill="#eeeeff" stroke="black" points="121.5,-180 38.5,-180 38.5,-144 121.5,-144 121.5,-180"/>
<text text-anchor="middle" x="80" y="-159.5" font-family="Helvetica,sans-Serif" font-size="10.00">NFConfigPlugin</text>
</a>
</g>
</g>
<!-- dir_08b26fe749f887106e47d9ba8c8416ed -->
<g id="node2" class="node"><title>dir_08b26fe749f887106e47d9ba8c8416ed</title>
<g id="a_node2"><a xlink:href="dir_08b26fe749f887106e47d9ba8c8416ed.html" target="_top" xlink:title="NFPluginModule">
<polygon fill="none" stroke="black" points="88,-108 0,-108 0,-72 88,-72 88,-108"/>
<text text-anchor="middle" x="44" y="-87.5" font-family="Helvetica,sans-Serif" font-size="10.00">NFPluginModule</text>
</a>
</g>
</g>
<!-- dir_8ff66794f6c3184dbb7977cd0fe8b0e5&#45;&gt;dir_08b26fe749f887106e47d9ba8c8416ed -->
<g id="edge1" class="edge"><title>dir_8ff66794f6c3184dbb7977cd0fe8b0e5&#45;&gt;dir_08b26fe749f887106e47d9ba8c8416ed</title>
<path fill="none" stroke="black" d="M71.1011,-143.697C67.0032,-135.728 62.0512,-126.1 57.5073,-117.264"/>
<polygon fill="black" stroke="black" points="60.4826,-115.396 52.7965,-108.104 54.2575,-118.598 60.4826,-115.396"/>
<g id="a_edge1&#45;headlabel"><a xlink:href="dir_000007_000030.html" target="_top" xlink:title="8">
<text text-anchor="middle" x="64.6514" y="-114.795" font-family="Helvetica,sans-Serif" font-size="10.00">8</text>
</a>
</g>
</g>
<!-- dir_134fe9bf93b8508b01ec5bdc93793970 -->
<g id="node3" class="node"><title>dir_134fe9bf93b8508b01ec5bdc93793970</title>
<g id="a_node3"><a xlink:href="dir_134fe9bf93b8508b01ec5bdc93793970.html" target="_top" xlink:title="NFCore">
<polygon fill="white" stroke="red" points="71,-36 17,-36 17,-0 71,-0 71,-36"/>
<text text-anchor="middle" x="44" y="-15.5" font-family="Helvetica,sans-Serif" font-size="10.00">NFCore</text>
</a>
</g>
</g>
<!-- dir_8ff66794f6c3184dbb7977cd0fe8b0e5&#45;&gt;dir_134fe9bf93b8508b01ec5bdc93793970 -->
<g id="edge2" class="edge"><title>dir_8ff66794f6c3184dbb7977cd0fe8b0e5&#45;&gt;dir_134fe9bf93b8508b01ec5bdc93793970</title>
<path fill="none" stroke="black" d="M88.9855,-143.676C97.2374,-125.293 106.812,-95.6893 97,-72 92.4552,-61.0279 84.4148,-51.1429 75.9488,-42.9644"/>
<polygon fill="black" stroke="black" points="78.2487,-40.3255 68.4766,-36.2321 73.5631,-45.5261 78.2487,-40.3255"/>
<g id="a_edge2&#45;headlabel"><a xlink:href="dir_000007_000002.html" target="_top" xlink:title="13">
<text text-anchor="middle" x="82.8197" y="-38.1222" font-family="Helvetica,sans-Serif" font-size="10.00">13</text>
</a>
</g>
</g>
<!-- dir_08b26fe749f887106e47d9ba8c8416ed&#45;&gt;dir_134fe9bf93b8508b01ec5bdc93793970 -->
<g id="edge3" class="edge"><title>dir_08b26fe749f887106e47d9ba8c8416ed&#45;&gt;dir_134fe9bf93b8508b01ec5bdc93793970</title>
<path fill="none" stroke="black" d="M38.0843,-71.6966C37.2886,-63.9827 37.0621,-54.7125 37.4047,-46.1124"/>
<polygon fill="black" stroke="black" points="40.8984,-46.3243 38.105,-36.1043 33.9154,-45.8356 40.8984,-46.3243"/>
<g id="a_edge3&#45;headlabel"><a xlink:href="dir_000030_000002.html" target="_top" xlink:title="19">
<text text-anchor="middle" x="43.4799" y="-47.6083" font-family="Helvetica,sans-Serif" font-size="10.00">19</text>
</a>
</g>
</g>
<!-- dir_134fe9bf93b8508b01ec5bdc93793970&#45;&gt;dir_08b26fe749f887106e47d9ba8c8416ed -->
<g id="edge4" class="edge"><title>dir_134fe9bf93b8508b01ec5bdc93793970&#45;&gt;dir_08b26fe749f887106e47d9ba8c8416ed</title>
<path fill="none" stroke="black" d="M49.895,-36.1043C50.7005,-43.7913 50.9369,-53.0537 50.604,-61.6651"/>
<polygon fill="black" stroke="black" points="47.1085,-61.4805 49.9157,-71.6966 54.0921,-61.9597 47.1085,-61.4805"/>
<g id="a_edge4&#45;headlabel"><a xlink:href="dir_000002_000030.html" target="_top" xlink:title="19">
<text text-anchor="middle" x="44.5219" y="-55.2" font-family="Helvetica,sans-Serif" font-size="10.00">19</text>
</a>
</g>
</g>
</g>
</svg>
