<?xml version="1.0" encoding="UTF-8" standalone="no"?>
<!DOCTYPE svg PUBLIC "-//W3C//DTD SVG 1.1//EN"
 "http://www.w3.org/Graphics/SVG/1.1/DTD/svg11.dtd">
<!-- Generated by graphviz version 2.38.0 (20140413.2041)
 -->
<!-- Title: NFCore Pages: 1 -->
<svg width="198pt" height="183pt"
 viewBox="0.00 0.00 198.00 183.00" xmlns="http://www.w3.org/2000/svg" xmlns:xlink="http://www.w3.org/1999/xlink">
<g id="graph0" class="graph" transform="scale(1 1) rotate(0) translate(4 179)">
<title>NFCore</title>
<polygon fill="white" stroke="none" points="-4,4 -4,-179 194,-179 194,4 -4,4"/>
<g id="clust1" class="cluster"><title>clusterdir_e8e2e8cd2e9cce0e00a01e88b353c0f0</title>
<g id="a_clust1"><a xlink:href="dir_e8e2e8cd2e9cce0e00a01e88b353c0f0.html" target="_top" xlink:title="NFComm">
<polygon fill="#ddddee" stroke="black" points="8,-8 8,-167 94,-167 94,-8 8,-8"/>
<text text-anchor="middle" x="51" y="-155" font-family="Helvetica,sans-Serif" font-size="10.00">NFComm</text>
</a>
</g>
</g>
<g id="clust2" class="cluster"><title>clusterdir_134fe9bf93b8508b01ec5bdc93793970</title>
<g id="a_clust2"><a xlink:href="dir_134fe9bf93b8508b01ec5bdc93793970.html" target="_top">
<polygon fill="#eeeeff" stroke="black" points="16,-16 16,-140 86,-140 86,-16 16,-16"/>
</a>
</g>
</g>
<!-- dir_134fe9bf93b8508b01ec5bdc93793970 -->
<g id="node1" class="node"><title>dir_134fe9bf93b8508b01ec5bdc93793970</title>
<text text-anchor="middle" x="51" y="-111.5" font-family="Helvetica,sans-Serif" font-size="10.00">NFCore</text>
</g>
<!-- dir_55fe8ebbfe45323d5094c3f81362b652 -->
<g id="node2" class="node"><title>dir_55fe8ebbfe45323d5094c3f81362b652</title>
<g id="a_node2"><a xlink:href="dir_55fe8ebbfe45323d5094c3f81362b652.html" target="_top" xlink:title="Math">
<polygon fill="white" stroke="black" points="78,-60 24,-60 24,-24 78,-24 78,-60"/>
<text text-anchor="middle" x="51" y="-39.5" font-family="Helvetica,sans-Serif" font-size="10.00">Math</text>
</a>
</g>
</g>
<!-- dir_134fe9bf93b8508b01ec5bdc93793970&#45;&gt;dir_55fe8ebbfe45323d5094c3f81362b652 -->
<g id="edge5" class="edge"><title>dir_134fe9bf93b8508b01ec5bdc93793970&#45;&gt;dir_55fe8ebbfe45323d5094c3f81362b652</title>
<path fill="none" stroke="black" d="M51,-95.6966C51,-87.9827 51,-78.7125 51,-70.1124"/>
<polygon fill="black" stroke="black" points="54.5001,-70.1043 51,-60.1043 47.5001,-70.1044 54.5001,-70.1043"/>
<g id="a_edge5&#45;headlabel"><a xlink:href="dir_000002_000031.html" target="_top" xlink:title="1">
<text text-anchor="middle" x="57.3393" y="-71.199" font-family="Helvetica,sans-Serif" font-size="10.00">1</text>
</a>
</g>
</g>
<!-- dir_08b26fe749f887106e47d9ba8c8416ed -->
<g id="node3" class="node"><title>dir_08b26fe749f887106e47d9ba8c8416ed</title>
<g id="a_node3"><a xlink:href="dir_08b26fe749f887106e47d9ba8c8416ed.html" target="_top" xlink:title="NFPluginModule">
<polygon fill="none" stroke="black" points="190,-132 102,-132 102,-96 190,-96 190,-132"/>
<text text-anchor="middle" x="146" y="-111.5" font-family="Helvetica,sans-Serif" font-size="10.00">NFPluginModule</text>
</a>
</g>
</g>
<!-- dir_134fe9bf93b8508b01ec5bdc93793970&#45;&gt;dir_08b26fe749f887106e47d9ba8c8416ed -->
<g id="edge3" class="edge"><title>dir_134fe9bf93b8508b01ec5bdc93793970&#45;&gt;dir_08b26fe749f887106e47d9ba8c8416ed</title>
<path fill="none" stroke="black" d="M78.0898,-114C82.6907,-114 87.2915,-114 91.8924,-114"/>
<polygon fill="black" stroke="black" points="91.9645,-117.5 101.965,-114 91.9645,-110.5 91.9645,-117.5"/>
<g id="a_edge3&#45;headlabel"><a xlink:href="dir_000002_000030.html" target="_top" xlink:title="19">
<text text-anchor="middle" x="88.3699" y="-117.839" font-family="Helvetica,sans-Serif" font-size="10.00">19</text>
</a>
</g>
</g>
<!-- dir_d0d954446d58a380f8b1ef76f62c80dc -->
<g id="node4" class="node"><title>dir_d0d954446d58a380f8b1ef76f62c80dc</title>
<g id="a_node4"><a xlink:href="dir_d0d954446d58a380f8b1ef76f62c80dc.html" target="_top" xlink:title="NFEventDefine">
<polygon fill="none" stroke="black" points="184,-60 104,-60 104,-24 184,-24 184,-60"/>
<text text-anchor="middle" x="144" y="-39.5" font-family="Helvetica,sans-Serif" font-size="10.00">NFEventDefine</text>
</a>
</g>
</g>
<!-- dir_134fe9bf93b8508b01ec5bdc93793970&#45;&gt;dir_d0d954446d58a380f8b1ef76f62c80dc -->
<g id="edge4" class="edge"><title>dir_134fe9bf93b8508b01ec5bdc93793970&#45;&gt;dir_d0d954446d58a380f8b1ef76f62c80dc</title>
<path fill="none" stroke="black" d="M73.9888,-95.6966C85.8139,-86.796 100.392,-75.8232 113.179,-66.1989"/>
<polygon fill="black" stroke="black" points="115.391,-68.9145 121.276,-60.1043 111.181,-63.3217 115.391,-68.9145"/>
<g id="a_edge4&#45;headlabel"><a xlink:href="dir_000002_000029.html" target="_top" xlink:title="1">
<text text-anchor="middle" x="114.226" y="-70.8447" font-family="Helvetica,sans-Serif" font-size="10.00">1</text>
</a>
</g>
</g>
<!-- dir_08b26fe749f887106e47d9ba8c8416ed&#45;&gt;dir_134fe9bf93b8508b01ec5bdc93793970 -->
<g id="edge2" class="edge"><title>dir_08b26fe749f887106e47d9ba8c8416ed&#45;&gt;dir_134fe9bf93b8508b01ec5bdc93793970</title>
<path fill="none" stroke="black" d="M101.965,-114C97.3637,-114 92.7628,-114 88.162,-114"/>
<polygon fill="black" stroke="black" points="88.0899,-110.5 78.0898,-114 88.0898,-117.5 88.0899,-110.5"/>
<g id="a_edge2&#45;headlabel"><a xlink:href="dir_000030_000002.html" target="_top" xlink:title="19">
<text text-anchor="middle" x="91.6845" y="-105.161" font-family="Helvetica,sans-Serif" font-size="10.00">19</text>
</a>
</g>
</g>
<!-- dir_08b26fe749f887106e47d9ba8c8416ed&#45;&gt;dir_d0d954446d58a380f8b1ef76f62c80dc -->
<g id="edge1" class="edge"><title>dir_08b26fe749f887106e47d9ba8c8416ed&#45;&gt;dir_d0d954446d58a380f8b1ef76f62c80dc</title>
<path fill="none" stroke="black" d="M145.506,-95.6966C145.285,-87.9827 145.02,-78.7125 144.775,-70.1124"/>
<polygon fill="black" stroke="black" points="148.273,-70.0003 144.489,-60.1043 141.276,-70.2002 148.273,-70.0003"/>
<g id="a_edge1&#45;headlabel"><a xlink:href="dir_000030_000029.html" target="_top" xlink:title="1">
<text text-anchor="middle" x="151.214" y="-71.0124" font-family="Helvetica,sans-Serif" font-size="10.00">1</text>
</a>
</g>
</g>
</g>
</svg>
