<?xml version="1.0" encoding="UTF-8" standalone="no"?>
<!DOCTYPE svg PUBLIC "-//W3C//DTD SVG 1.1//EN"
 "http://www.w3.org/Graphics/SVG/1.1/DTD/svg11.dtd">
<!-- Generated by graphviz version 2.38.0 (20140413.2041)
 -->
<!-- Title: NFComm Pages: 1 -->
<svg width="422pt" height="327pt"
 viewBox="0.00 0.00 422.00 327.00" xmlns="http://www.w3.org/2000/svg" xmlns:xlink="http://www.w3.org/1999/xlink">
<g id="graph0" class="graph" transform="scale(1 1) rotate(0) translate(4 323)">
<title>NFComm</title>
<polygon fill="white" stroke="none" points="-4,4 -4,-323 418,-323 418,4 -4,4"/>
<g id="clust1" class="cluster"><title>clusterdir_7a06c62105c5affe7ed07b0b42060f70</title>
<g id="a_clust1"><a xlink:href="dir_7a06c62105c5affe7ed07b0b42060f70.html" target="_top" xlink:title="Frame">
<polygon fill="#ddddee" stroke="black" points="8,-8 8,-311 406,-311 406,-8 8,-8"/>
<text text-anchor="middle" x="207" y="-299" font-family="Helvetica,sans-Serif" font-size="10.00">Frame</text>
</a>
</g>
</g>
<g id="clust2" class="cluster"><title>clusterdir_e8e2e8cd2e9cce0e00a01e88b353c0f0</title>
<g id="a_clust2"><a xlink:href="dir_e8e2e8cd2e9cce0e00a01e88b353c0f0.html" target="_top">
<polygon fill="#eeeeff" stroke="black" points="16,-16 16,-284 398,-284 398,-16 16,-16"/>
</a>
</g>
</g>
<!-- dir_e8e2e8cd2e9cce0e00a01e88b353c0f0 -->
<g id="node1" class="node"><title>dir_e8e2e8cd2e9cce0e00a01e88b353c0f0</title>
<text text-anchor="middle" x="361" y="-255.5" font-family="Helvetica,sans-Serif" font-size="10.00">NFComm</text>
</g>
<!-- dir_8ff66794f6c3184dbb7977cd0fe8b0e5 -->
<g id="node2" class="node"><title>dir_8ff66794f6c3184dbb7977cd0fe8b0e5</title>
<g id="a_node2"><a xlink:href="dir_8ff66794f6c3184dbb7977cd0fe8b0e5.html" target="_top" xlink:title="NFConfigPlugin">
<polygon fill="white" stroke="black" points="313.5,-276 230.5,-276 230.5,-240 313.5,-240 313.5,-276"/>
<text text-anchor="middle" x="272" y="-255.5" font-family="Helvetica,sans-Serif" font-size="10.00">NFConfigPlugin</text>
</a>
</g>
</g>
<!-- dir_134fe9bf93b8508b01ec5bdc93793970 -->
<g id="node3" class="node"><title>dir_134fe9bf93b8508b01ec5bdc93793970</title>
<g id="a_node3"><a xlink:href="dir_134fe9bf93b8508b01ec5bdc93793970.html" target="_top" xlink:title="NFCore">
<polygon fill="white" stroke="red" points="291,-204 237,-204 237,-168 291,-168 291,-204"/>
<text text-anchor="middle" x="264" y="-183.5" font-family="Helvetica,sans-Serif" font-size="10.00">NFCore</text>
</a>
</g>
</g>
<!-- dir_8ff66794f6c3184dbb7977cd0fe8b0e5&#45;&gt;dir_134fe9bf93b8508b01ec5bdc93793970 -->
<g id="edge2" class="edge"><title>dir_8ff66794f6c3184dbb7977cd0fe8b0e5&#45;&gt;dir_134fe9bf93b8508b01ec5bdc93793970</title>
<path fill="none" stroke="black" d="M270.022,-239.697C269.141,-231.983 268.081,-222.712 267.099,-214.112"/>
<polygon fill="black" stroke="black" points="270.568,-213.642 265.955,-204.104 263.613,-214.437 270.568,-213.642"/>
<g id="a_edge2&#45;headlabel"><a xlink:href="dir_000007_000002.html" target="_top" xlink:title="13">
<text text-anchor="middle" x="273.797" y="-214.391" font-family="Helvetica,sans-Serif" font-size="10.00">13</text>
</a>
</g>
</g>
<!-- dir_08b26fe749f887106e47d9ba8c8416ed -->
<g id="node9" class="node"><title>dir_08b26fe749f887106e47d9ba8c8416ed</title>
<g id="a_node9"><a xlink:href="dir_08b26fe749f887106e47d9ba8c8416ed.html" target="_top" xlink:title="NFPluginModule">
<polygon fill="white" stroke="black" points="233,-132 145,-132 145,-96 233,-96 233,-132"/>
<text text-anchor="middle" x="189" y="-111.5" font-family="Helvetica,sans-Serif" font-size="10.00">NFPluginModule</text>
</a>
</g>
</g>
<!-- dir_8ff66794f6c3184dbb7977cd0fe8b0e5&#45;&gt;dir_08b26fe749f887106e47d9ba8c8416ed -->
<g id="edge1" class="edge"><title>dir_8ff66794f6c3184dbb7977cd0fe8b0e5&#45;&gt;dir_08b26fe749f887106e47d9ba8c8416ed</title>
<path fill="none" stroke="black" d="M255.607,-239.799C246.696,-229.862 235.914,-216.823 228,-204 215.74,-184.135 205.339,-159.742 198.37,-141.52"/>
<polygon fill="black" stroke="black" points="201.631,-140.249 194.861,-132.1 195.071,-142.692 201.631,-140.249"/>
<g id="a_edge1&#45;headlabel"><a xlink:href="dir_000007_000030.html" target="_top" xlink:title="8">
<text text-anchor="middle" x="205.546" y="-140.126" font-family="Helvetica,sans-Serif" font-size="10.00">8</text>
</a>
</g>
</g>
<!-- dir_d0d954446d58a380f8b1ef76f62c80dc -->
<g id="node4" class="node"><title>dir_d0d954446d58a380f8b1ef76f62c80dc</title>
<g id="a_node4"><a xlink:href="dir_d0d954446d58a380f8b1ef76f62c80dc.html" target="_top" xlink:title="NFEventDefine">
<polygon fill="white" stroke="black" points="314,-60 234,-60 234,-24 314,-24 314,-60"/>
<text text-anchor="middle" x="274" y="-39.5" font-family="Helvetica,sans-Serif" font-size="10.00">NFEventDefine</text>
</a>
</g>
</g>
<!-- dir_134fe9bf93b8508b01ec5bdc93793970&#45;&gt;dir_d0d954446d58a380f8b1ef76f62c80dc -->
<g id="edge14" class="edge"><title>dir_134fe9bf93b8508b01ec5bdc93793970&#45;&gt;dir_d0d954446d58a380f8b1ef76f62c80dc</title>
<path fill="none" stroke="black" d="M265.206,-167.871C266.911,-143.67 270.041,-99.2108 272.071,-70.3932"/>
<polygon fill="black" stroke="black" points="275.578,-70.4105 272.789,-60.1893 268.596,-69.9187 275.578,-70.4105"/>
<g id="a_edge14&#45;headlabel"><a xlink:href="dir_000002_000029.html" target="_top" xlink:title="1">
<text text-anchor="middle" x="278.158" y="-71.6956" font-family="Helvetica,sans-Serif" font-size="10.00">1</text>
</a>
</g>
</g>
<!-- dir_134fe9bf93b8508b01ec5bdc93793970&#45;&gt;dir_08b26fe749f887106e47d9ba8c8416ed -->
<g id="edge13" class="edge"><title>dir_134fe9bf93b8508b01ec5bdc93793970&#45;&gt;dir_08b26fe749f887106e47d9ba8c8416ed</title>
<path fill="none" stroke="black" d="M239.545,-167.697C229.489,-159.135 218.079,-148.656 208.579,-139.304"/>
<polygon fill="black" stroke="black" points="210.96,-136.735 201.431,-132.104 205.992,-141.667 210.96,-136.735"/>
<g id="a_edge13&#45;headlabel"><a xlink:href="dir_000002_000030.html" target="_top" xlink:title="19">
<text text-anchor="middle" x="215.508" y="-134.786" font-family="Helvetica,sans-Serif" font-size="10.00">19</text>
</a>
</g>
</g>
<!-- dir_8b93dcf1df35386fef243535e3956220 -->
<g id="node5" class="node"><title>dir_8b93dcf1df35386fef243535e3956220</title>
<g id="a_node5"><a xlink:href="dir_8b93dcf1df35386fef243535e3956220.html" target="_top" xlink:title="NFKernelPlugin">
<polygon fill="white" stroke="red" points="212,-276 128,-276 128,-240 212,-240 212,-276"/>
<text text-anchor="middle" x="170" y="-255.5" font-family="Helvetica,sans-Serif" font-size="10.00">NFKernelPlugin</text>
</a>
</g>
</g>
<!-- dir_8b93dcf1df35386fef243535e3956220&#45;&gt;dir_134fe9bf93b8508b01ec5bdc93793970 -->
<g id="edge4" class="edge"><title>dir_8b93dcf1df35386fef243535e3956220&#45;&gt;dir_134fe9bf93b8508b01ec5bdc93793970</title>
<path fill="none" stroke="black" d="M193.236,-239.697C205.188,-230.796 219.923,-219.823 232.847,-210.199"/>
<polygon fill="black" stroke="black" points="235.101,-212.884 241.031,-204.104 230.92,-207.27 235.101,-212.884"/>
<g id="a_edge4&#45;headlabel"><a xlink:href="dir_000008_000002.html" target="_top" xlink:title="9">
<text text-anchor="middle" x="233.914" y="-214.808" font-family="Helvetica,sans-Serif" font-size="10.00">9</text>
</a>
</g>
</g>
<!-- dir_8b93dcf1df35386fef243535e3956220&#45;&gt;dir_08b26fe749f887106e47d9ba8c8416ed -->
<g id="edge3" class="edge"><title>dir_8b93dcf1df35386fef243535e3956220&#45;&gt;dir_08b26fe749f887106e47d9ba8c8416ed</title>
<path fill="none" stroke="black" d="M146.248,-239.91C135.447,-230.651 123.803,-218.2 118,-204 111.948,-189.189 110.828,-182.303 118,-168 124.098,-155.837 134.459,-145.752 145.408,-137.761"/>
<polygon fill="black" stroke="black" points="147.515,-140.562 153.835,-132.059 143.591,-134.764 147.515,-140.562"/>
<g id="a_edge3&#45;headlabel"><a xlink:href="dir_000008_000030.html" target="_top" xlink:title="17">
<text text-anchor="middle" x="146.129" y="-142.428" font-family="Helvetica,sans-Serif" font-size="10.00">17</text>
</a>
</g>
</g>
<!-- dir_5b4fb4992c0eb487b71e971a223d67ae -->
<g id="node6" class="node"><title>dir_5b4fb4992c0eb487b71e971a223d67ae</title>
<g id="a_node6"><a xlink:href="dir_5b4fb4992c0eb487b71e971a223d67ae.html" target="_top" xlink:title="NFLogPlugin">
<polygon fill="white" stroke="black" points="199,-204 127,-204 127,-168 199,-168 199,-204"/>
<text text-anchor="middle" x="163" y="-183.5" font-family="Helvetica,sans-Serif" font-size="10.00">NFLogPlugin</text>
</a>
</g>
</g>
<!-- dir_5b4fb4992c0eb487b71e971a223d67ae&#45;&gt;dir_08b26fe749f887106e47d9ba8c8416ed -->
<g id="edge10" class="edge"><title>dir_5b4fb4992c0eb487b71e971a223d67ae&#45;&gt;dir_08b26fe749f887106e47d9ba8c8416ed</title>
<path fill="none" stroke="black" d="M169.427,-167.697C172.355,-159.813 175.887,-150.304 179.14,-141.546"/>
<polygon fill="black" stroke="black" points="182.446,-142.697 182.647,-132.104 175.884,-140.26 182.446,-142.697"/>
<g id="a_edge10&#45;headlabel"><a xlink:href="dir_000009_000030.html" target="_top" xlink:title="4">
<text text-anchor="middle" x="183.856" y="-144.556" font-family="Helvetica,sans-Serif" font-size="10.00">4</text>
</a>
</g>
</g>
<!-- dir_47495336d2ae8218759d2f130bef5741 -->
<g id="node7" class="node"><title>dir_47495336d2ae8218759d2f130bef5741</title>
<g id="a_node7"><a xlink:href="dir_47495336d2ae8218759d2f130bef5741.html" target="_top" xlink:title="NFNet">
<polygon fill="white" stroke="black" points="216,-60 162,-60 162,-24 216,-24 216,-60"/>
<text text-anchor="middle" x="189" y="-39.5" font-family="Helvetica,sans-Serif" font-size="10.00">NFNet</text>
</a>
</g>
</g>
<!-- dir_47495336d2ae8218759d2f130bef5741&#45;&gt;dir_134fe9bf93b8508b01ec5bdc93793970 -->
<g id="edge12" class="edge"><title>dir_47495336d2ae8218759d2f130bef5741&#45;&gt;dir_134fe9bf93b8508b01ec5bdc93793970</title>
<path fill="none" stroke="black" d="M211.215,-60.2322C221.997,-69.6978 234.26,-82.2881 242,-96 252.791,-115.118 258.34,-139.471 261.164,-157.868"/>
<polygon fill="black" stroke="black" points="257.716,-158.489 262.53,-167.927 264.652,-157.547 257.716,-158.489"/>
<g id="a_edge12&#45;headlabel"><a xlink:href="dir_000028_000002.html" target="_top" xlink:title="2">
<text text-anchor="middle" x="254.419" y="-152.809" font-family="Helvetica,sans-Serif" font-size="10.00">2</text>
</a>
</g>
</g>
<!-- dir_47495336d2ae8218759d2f130bef5741&#45;&gt;dir_08b26fe749f887106e47d9ba8c8416ed -->
<g id="edge11" class="edge"><title>dir_47495336d2ae8218759d2f130bef5741&#45;&gt;dir_08b26fe749f887106e47d9ba8c8416ed</title>
<path fill="none" stroke="black" d="M194.895,-60.1043C195.701,-67.7913 195.937,-77.0537 195.604,-85.6651"/>
<polygon fill="black" stroke="black" points="192.109,-85.4805 194.916,-95.6966 199.092,-85.9597 192.109,-85.4805"/>
<g id="a_edge11&#45;headlabel"><a xlink:href="dir_000028_000030.html" target="_top" xlink:title="1">
<text text-anchor="middle" x="189.522" y="-79.2" font-family="Helvetica,sans-Serif" font-size="10.00">1</text>
</a>
</g>
</g>
<!-- dir_11993cffcf9778ab5d0c883992b20da4 -->
<g id="node8" class="node"><title>dir_11993cffcf9778ab5d0c883992b20da4</title>
<g id="a_node8"><a xlink:href="dir_11993cffcf9778ab5d0c883992b20da4.html" target="_top" xlink:title="NFPluginLoader">
<polygon fill="white" stroke="black" points="110,-276 24,-276 24,-240 110,-240 110,-276"/>
<text text-anchor="middle" x="67" y="-255.5" font-family="Helvetica,sans-Serif" font-size="10.00">NFPluginLoader</text>
</a>
</g>
</g>
<!-- dir_11993cffcf9778ab5d0c883992b20da4&#45;&gt;dir_134fe9bf93b8508b01ec5bdc93793970 -->
<g id="edge9" class="edge"><title>dir_11993cffcf9778ab5d0c883992b20da4&#45;&gt;dir_134fe9bf93b8508b01ec5bdc93793970</title>
<path fill="none" stroke="black" d="M110.232,-241.638C145.234,-229.201 194.002,-211.873 227.166,-200.088"/>
<polygon fill="black" stroke="black" points="228.674,-203.267 236.925,-196.62 226.331,-196.671 228.674,-203.267"/>
<g id="a_edge9&#45;headlabel"><a xlink:href="dir_000026_000002.html" target="_top" xlink:title="1">
<text text-anchor="middle" x="226.238" y="-204.646" font-family="Helvetica,sans-Serif" font-size="10.00">1</text>
</a>
</g>
</g>
<!-- dir_11993cffcf9778ab5d0c883992b20da4&#45;&gt;dir_08b26fe749f887106e47d9ba8c8416ed -->
<g id="edge8" class="edge"><title>dir_11993cffcf9778ab5d0c883992b20da4&#45;&gt;dir_08b26fe749f887106e47d9ba8c8416ed</title>
<path fill="none" stroke="black" d="M72.2824,-239.71C78.7886,-220.546 91.3245,-189.51 110,-168 120.293,-156.144 133.835,-145.785 146.794,-137.446"/>
<polygon fill="black" stroke="black" points="148.95,-140.229 155.625,-132.002 145.276,-134.271 148.95,-140.229"/>
<g id="a_edge8&#45;headlabel"><a xlink:href="dir_000026_000030.html" target="_top" xlink:title="5">
<text text-anchor="middle" x="147.38" y="-142.033" font-family="Helvetica,sans-Serif" font-size="10.00">5</text>
</a>
</g>
</g>
<!-- dir_08b26fe749f887106e47d9ba8c8416ed&#45;&gt;dir_134fe9bf93b8508b01ec5bdc93793970 -->
<g id="edge7" class="edge"><title>dir_08b26fe749f887106e47d9ba8c8416ed&#45;&gt;dir_134fe9bf93b8508b01ec5bdc93793970</title>
<path fill="none" stroke="black" d="M213.221,-132.104C223.256,-140.636 234.67,-151.108 244.2,-160.478"/>
<polygon fill="black" stroke="black" points="241.844,-163.072 251.376,-167.697 246.808,-158.137 241.844,-163.072"/>
<g id="a_edge7&#45;headlabel"><a xlink:href="dir_000030_000002.html" target="_top" xlink:title="19">
<text text-anchor="middle" x="237.296" y="-160.025" font-family="Helvetica,sans-Serif" font-size="10.00">19</text>
</a>
</g>
</g>
<!-- dir_08b26fe749f887106e47d9ba8c8416ed&#45;&gt;dir_d0d954446d58a380f8b1ef76f62c80dc -->
<g id="edge5" class="edge"><title>dir_08b26fe749f887106e47d9ba8c8416ed&#45;&gt;dir_d0d954446d58a380f8b1ef76f62c80dc</title>
<path fill="none" stroke="black" d="M210.011,-95.6966C220.716,-86.8807 233.89,-76.0321 245.496,-66.4742"/>
<polygon fill="black" stroke="black" points="247.736,-69.1632 253.23,-60.1043 243.286,-63.7597 247.736,-69.1632"/>
<g id="a_edge5&#45;headlabel"><a xlink:href="dir_000030_000029.html" target="_top" xlink:title="1">
<text text-anchor="middle" x="246.766" y="-71.14" font-family="Helvetica,sans-Serif" font-size="10.00">1</text>
</a>
</g>
</g>
<!-- dir_08b26fe749f887106e47d9ba8c8416ed&#45;&gt;dir_47495336d2ae8218759d2f130bef5741 -->
<g id="edge6" class="edge"><title>dir_08b26fe749f887106e47d9ba8c8416ed&#45;&gt;dir_47495336d2ae8218759d2f130bef5741</title>
<path fill="none" stroke="black" d="M183.084,-95.6966C182.289,-87.9827 182.062,-78.7125 182.405,-70.1124"/>
<polygon fill="black" stroke="black" points="185.898,-70.3243 183.105,-60.1043 178.915,-69.8356 185.898,-70.3243"/>
<g id="a_edge6&#45;headlabel"><a xlink:href="dir_000030_000028.html" target="_top" xlink:title="1">
<text text-anchor="middle" x="188.48" y="-71.6083" font-family="Helvetica,sans-Serif" font-size="10.00">1</text>
</a>
</g>
</g>
</g>
</svg>
