<?xml version="1.0" encoding="UTF-8" standalone="no"?>
<!DOCTYPE svg PUBLIC "-//W3C//DTD SVG 1.1//EN"
 "http://www.w3.org/Graphics/SVG/1.1/DTD/svg11.dtd">
<!-- Generated by graphviz version 2.38.0 (20140413.2041)
 -->
<!-- Title: Examples Pages: 1 -->
<svg width="332pt" height="159pt"
 viewBox="0.00 0.00 332.00 159.00" xmlns="http://www.w3.org/2000/svg" xmlns:xlink="http://www.w3.org/1999/xlink">
<g id="graph0" class="graph" transform="scale(1 1) rotate(0) translate(4 155)">
<title>Examples</title>
<polygon fill="white" stroke="none" points="-4,4 -4,-155 328,-155 328,4 -4,4"/>
<g id="clust1" class="cluster"><title>clusterdir_7a06c62105c5affe7ed07b0b42060f70</title>
<g id="a_clust1"><a xlink:href="dir_7a06c62105c5affe7ed07b0b42060f70.html" target="_top" xlink:title="Frame">
<polygon fill="#ddddee" stroke="black" points="8,-56 8,-143 316,-143 316,-56 8,-56"/>
<text text-anchor="middle" x="162" y="-131" font-family="Helvetica,sans-Serif" font-size="10.00">Frame</text>
</a>
</g>
</g>
<g id="clust2" class="cluster"><title>clusterdir_0b95f4527414882d5201ffcfb4c41afc</title>
<g id="a_clust2"><a xlink:href="dir_0b95f4527414882d5201ffcfb4c41afc.html" target="_top">
<polygon fill="#eeeeff" stroke="black" points="16,-64 16,-116 308,-116 308,-64 16,-64"/>
</a>
</g>
</g>
<!-- dir_0b95f4527414882d5201ffcfb4c41afc -->
<g id="node1" class="node"><title>dir_0b95f4527414882d5201ffcfb4c41afc</title>
<text text-anchor="middle" x="270" y="-87.5" font-family="Helvetica,sans-Serif" font-size="10.00">Examples</text>
</g>
<!-- dir_20ac9a6c47a468bac63bdcb8d005b4f8 -->
<g id="node2" class="node"><title>dir_20ac9a6c47a468bac63bdcb8d005b4f8</title>
<g id="a_node2"><a xlink:href="dir_20ac9a6c47a468bac63bdcb8d005b4f8.html" target="_top" xlink:title="Tutorial1">
<polygon fill="white" stroke="black" points="222,-108 168,-108 168,-72 222,-72 222,-108"/>
<text text-anchor="middle" x="195" y="-87.5" font-family="Helvetica,sans-Serif" font-size="10.00">Tutorial1</text>
</a>
</g>
</g>
<!-- dir_e8e2e8cd2e9cce0e00a01e88b353c0f0 -->
<g id="node5" class="node"><title>dir_e8e2e8cd2e9cce0e00a01e88b353c0f0</title>
<g id="a_node5"><a xlink:href="dir_e8e2e8cd2e9cce0e00a01e88b353c0f0.html" target="_top" xlink:title="NFComm">
<polygon fill="white" stroke="red" points="152,-36 94,-36 94,-0 152,-0 152,-36"/>
<text text-anchor="middle" x="123" y="-15.5" font-family="Helvetica,sans-Serif" font-size="10.00">NFComm</text>
</a>
</g>
</g>
<!-- dir_20ac9a6c47a468bac63bdcb8d005b4f8&#45;&gt;dir_e8e2e8cd2e9cce0e00a01e88b353c0f0 -->
<g id="edge3" class="edge"><title>dir_20ac9a6c47a468bac63bdcb8d005b4f8&#45;&gt;dir_e8e2e8cd2e9cce0e00a01e88b353c0f0</title>
<path fill="none" stroke="black" d="M177.202,-71.6966C168.396,-63.135 157.618,-52.6562 147.999,-43.3045"/>
<polygon fill="black" stroke="black" points="150.203,-40.5657 140.593,-36.1043 145.323,-45.5846 150.203,-40.5657"/>
<g id="a_edge3&#45;headlabel"><a xlink:href="dir_000004_000001.html" target="_top" xlink:title="5">
<text text-anchor="middle" x="154.759" y="-38.5356" font-family="Helvetica,sans-Serif" font-size="10.00">5</text>
</a>
</g>
</g>
<!-- dir_307c9436d7c4fd2ddc6b040ebcd7658e -->
<g id="node3" class="node"><title>dir_307c9436d7c4fd2ddc6b040ebcd7658e</title>
<g id="a_node3"><a xlink:href="dir_307c9436d7c4fd2ddc6b040ebcd7658e.html" target="_top" xlink:title="Tutorial2">
<polygon fill="white" stroke="black" points="150,-108 96,-108 96,-72 150,-72 150,-108"/>
<text text-anchor="middle" x="123" y="-87.5" font-family="Helvetica,sans-Serif" font-size="10.00">Tutorial2</text>
</a>
</g>
</g>
<!-- dir_307c9436d7c4fd2ddc6b040ebcd7658e&#45;&gt;dir_e8e2e8cd2e9cce0e00a01e88b353c0f0 -->
<g id="edge2" class="edge"><title>dir_307c9436d7c4fd2ddc6b040ebcd7658e&#45;&gt;dir_e8e2e8cd2e9cce0e00a01e88b353c0f0</title>
<path fill="none" stroke="black" d="M123,-71.6966C123,-63.9827 123,-54.7125 123,-46.1124"/>
<polygon fill="black" stroke="black" points="126.5,-46.1043 123,-36.1043 119.5,-46.1044 126.5,-46.1043"/>
<g id="a_edge2&#45;headlabel"><a xlink:href="dir_000005_000001.html" target="_top" xlink:title="7">
<text text-anchor="middle" x="129.339" y="-47.199" font-family="Helvetica,sans-Serif" font-size="10.00">7</text>
</a>
</g>
</g>
<!-- dir_ec51a6f508ea392b3affa7efd08ef804 -->
<g id="node4" class="node"><title>dir_ec51a6f508ea392b3affa7efd08ef804</title>
<g id="a_node4"><a xlink:href="dir_ec51a6f508ea392b3affa7efd08ef804.html" target="_top" xlink:title="Tutorial3">
<polygon fill="white" stroke="black" points="78,-108 24,-108 24,-72 78,-72 78,-108"/>
<text text-anchor="middle" x="51" y="-87.5" font-family="Helvetica,sans-Serif" font-size="10.00">Tutorial3</text>
</a>
</g>
</g>
<!-- dir_ec51a6f508ea392b3affa7efd08ef804&#45;&gt;dir_e8e2e8cd2e9cce0e00a01e88b353c0f0 -->
<g id="edge1" class="edge"><title>dir_ec51a6f508ea392b3affa7efd08ef804&#45;&gt;dir_e8e2e8cd2e9cce0e00a01e88b353c0f0</title>
<path fill="none" stroke="black" d="M68.7978,-71.6966C77.604,-63.135 88.3821,-52.6562 98.0011,-43.3045"/>
<polygon fill="black" stroke="black" points="100.677,-45.5846 105.407,-36.1043 95.7972,-40.5657 100.677,-45.5846"/>
<g id="a_edge1&#45;headlabel"><a xlink:href="dir_000006_000001.html" target="_top" xlink:title="6">
<text text-anchor="middle" x="100.079" y="-47.6261" font-family="Helvetica,sans-Serif" font-size="10.00">6</text>
</a>
</g>
</g>
</g>
</svg>
