<?xml version="1.0" encoding="UTF-8" standalone="no"?>
<!DOCTYPE svg PUBLIC "-//W3C//DTD SVG 1.1//EN"
 "http://www.w3.org/Graphics/SVG/1.1/DTD/svg11.dtd">
<!-- Generated by graphviz version 2.38.0 (20140413.2041)
 -->
<!-- Title: Graphical Class Hierarchy Pages: 1 -->
<svg width="400pt" height="39pt"
 viewBox="0.00 0.00 400.00 39.00" xmlns="http://www.w3.org/2000/svg" xmlns:xlink="http://www.w3.org/1999/xlink">
<g id="graph0" class="graph" transform="scale(1 1) rotate(0) translate(4 35)">
<title>Graphical Class Hierarchy</title>
<polygon fill="white" stroke="none" points="-4,4 -4,-35 396,-35 396,4 -4,4"/>
<!-- Node0 -->
<g id="node1" class="node"><title>Node0</title>
<g id="a_node1"><a xlink:href="class_n_f_map_ex.html" target="_top" xlink:title="NFMapEx\&lt; std::string,\l NFIRecord \&gt;">
<polygon fill="white" stroke="black" points="0,-0.5 0,-30.5 116,-30.5 116,-0.5 0,-0.5"/>
<text text-anchor="start" x="8" y="-18.5" font-family="Helvetica,sans-Serif" font-size="10.00">NFMapEx&lt; std::string,</text>
<text text-anchor="middle" x="58" y="-7.5" font-family="Helvetica,sans-Serif" font-size="10.00"> NFIRecord &gt;</text>
</a>
</g>
</g>
<!-- Node1 -->
<g id="node2" class="node"><title>Node1</title>
<g id="a_node2"><a xlink:href="class_n_f_i_record_manager.html" target="_top" xlink:title="Manager for nfi records. ">
<polygon fill="white" stroke="black" points="152,-6 152,-25 252,-25 252,-6 152,-6"/>
<text text-anchor="middle" x="202" y="-13" font-family="Helvetica,sans-Serif" font-size="10.00">NFIRecordManager</text>
</a>
</g>
</g>
<!-- Node0&#45;&gt;Node1 -->
<g id="edge1" class="edge"><title>Node0&#45;&gt;Node1</title>
<path fill="none" stroke="midnightblue" d="M126.59,-15.5C135.04,-15.5 143.554,-15.5 151.653,-15.5"/>
<polygon fill="midnightblue" stroke="midnightblue" points="126.348,-12.0001 116.348,-15.5 126.347,-19.0001 126.348,-12.0001"/>
</g>
<!-- Node2 -->
<g id="node3" class="node"><title>Node2</title>
<g id="a_node3"><a xlink:href="class_n_f_c_record_manager.html" target="_top" xlink:title="Manager for nfc records. ">
<polygon fill="white" stroke="black" points="288,-6 288,-25 392,-25 392,-6 288,-6"/>
<text text-anchor="middle" x="340" y="-13" font-family="Helvetica,sans-Serif" font-size="10.00">NFCRecordManager</text>
</a>
</g>
</g>
<!-- Node1&#45;&gt;Node2 -->
<g id="edge2" class="edge"><title>Node1&#45;&gt;Node2</title>
<path fill="none" stroke="midnightblue" d="M262.291,-15.5C270.75,-15.5 279.392,-15.5 287.681,-15.5"/>
<polygon fill="midnightblue" stroke="midnightblue" points="262.099,-12.0001 252.099,-15.5 262.099,-19.0001 262.099,-12.0001"/>
</g>
</g>
</svg>
