<?xml version="1.0" encoding="UTF-8" standalone="no"?>
<!DOCTYPE svg PUBLIC "-//W3C//DTD SVG 1.1//EN"
 "http://www.w3.org/Graphics/SVG/1.1/DTD/svg11.dtd">
<!-- Generated by graphviz version 2.38.0 (20140413.2041)
 -->
<!-- Title: Graphical Class Hierarchy Pages: 1 -->
<svg width="158pt" height="66pt"
 viewBox="0.00 0.00 158.00 66.00" xmlns="http://www.w3.org/2000/svg" xmlns:xlink="http://www.w3.org/1999/xlink">
<g id="graph0" class="graph" transform="scale(1 1) rotate(0) translate(4 62)">
<title>Graphical Class Hierarchy</title>
<polygon fill="white" stroke="none" points="-4,4 -4,-62 154,-62 154,4 -4,4"/>
<!-- Node0 -->
<g id="node1" class="node"><title>Node0</title>
<g id="a_node1"><a xlink:href="class_n_f_i_net.html" target="_top" xlink:title="NFINet">
<polygon fill="white" stroke="black" points="0,-19.5 0,-38.5 47,-38.5 47,-19.5 0,-19.5"/>
<text text-anchor="middle" x="23.5" y="-26.5" font-family="Helvetica,sans-Serif" font-size="10.00">NFINet</text>
</a>
</g>
</g>
<!-- Node1 -->
<g id="node2" class="node"><title>Node1</title>
<g id="a_node2"><a xlink:href="class_n_f_c_mul_net.html" target="_top" xlink:title="NFCMulNet">
<polygon fill="white" stroke="black" points="83,-38.5 83,-57.5 150,-57.5 150,-38.5 83,-38.5"/>
<text text-anchor="middle" x="116.5" y="-45.5" font-family="Helvetica,sans-Serif" font-size="10.00">NFCMulNet</text>
</a>
</g>
</g>
<!-- Node0&#45;&gt;Node1 -->
<g id="edge1" class="edge"><title>Node0&#45;&gt;Node1</title>
<path fill="none" stroke="midnightblue" d="M57.2553,-35.839C65.6055,-37.5825 74.5786,-39.456 82.92,-41.1976"/>
<polygon fill="midnightblue" stroke="midnightblue" points="57.9674,-32.4123 47.4631,-33.7945 56.5367,-39.2645 57.9674,-32.4123"/>
</g>
<!-- Node2 -->
<g id="node3" class="node"><title>Node2</title>
<g id="a_node3"><a xlink:href="class_n_f_c_net.html" target="_top" xlink:title="NFCNet">
<polygon fill="white" stroke="black" points="91,-0.5 91,-19.5 142,-19.5 142,-0.5 91,-0.5"/>
<text text-anchor="middle" x="116.5" y="-7.5" font-family="Helvetica,sans-Serif" font-size="10.00">NFCNet</text>
</a>
</g>
</g>
<!-- Node0&#45;&gt;Node2 -->
<g id="edge2" class="edge"><title>Node0&#45;&gt;Node2</title>
<path fill="none" stroke="midnightblue" d="M57.2715,-22.1576C68.3809,-19.838 80.5914,-17.2886 90.949,-15.126"/>
<polygon fill="midnightblue" stroke="midnightblue" points="56.5367,-18.7355 47.4631,-24.2055 57.9674,-25.5877 56.5367,-18.7355"/>
</g>
</g>
</svg>
