<?xml version="1.0" encoding="UTF-8" standalone="no"?>
<!DOCTYPE svg PUBLIC "-//W3C//DTD SVG 1.1//EN"
 "http://www.w3.org/Graphics/SVG/1.1/DTD/svg11.dtd">
<!-- Generated by graphviz version 2.38.0 (20140413.2041)
 -->
<!-- Title: Graphical Class Hierarchy Pages: 1 -->
<svg width="285pt" height="256pt"
 viewBox="0.00 0.00 285.00 256.00" xmlns="http://www.w3.org/2000/svg" xmlns:xlink="http://www.w3.org/1999/xlink">
<g id="graph0" class="graph" transform="scale(1 1) rotate(0) translate(4 252)">
<title>Graphical Class Hierarchy</title>
<polygon fill="white" stroke="none" points="-4,4 -4,-252 281,-252 281,4 -4,4"/>
<!-- Node162 -->
<g id="node1" class="node"><title>Node162</title>
<polygon fill="white" stroke="#bfbfbf" points="0,-114.5 0,-133.5 86,-133.5 86,-114.5 0,-114.5"/>
<text text-anchor="middle" x="43" y="-121.5" font-family="Helvetica,sans-Serif" font-size="10.00">NFILogicModule</text>
</g>
<!-- Node0 -->
<g id="node2" class="node"><title>Node0</title>
<g id="a_node2"><a xlink:href="class_n_f_c_create_role_module.html" target="_top" xlink:title="NFCCreateRoleModule">
<polygon fill="white" stroke="black" points="141.5,-228.5 141.5,-247.5 257.5,-247.5 257.5,-228.5 141.5,-228.5"/>
<text text-anchor="middle" x="199.5" y="-235.5" font-family="Helvetica,sans-Serif" font-size="10.00">NFCCreateRoleModule</text>
</a>
</g>
</g>
<!-- Node162&#45;&gt;Node0 -->
<g id="edge1" class="edge"><title>Node162&#45;&gt;Node0</title>
<path fill="none" stroke="midnightblue" d="M54.1166,-142.413C67.0054,-164.103 91.3344,-199.629 122,-219 128.132,-222.873 135.004,-225.957 142.046,-228.413"/>
<polygon fill="midnightblue" stroke="midnightblue" points="57.0311,-140.459 49.0181,-133.528 50.9598,-143.944 57.0311,-140.459"/>
</g>
<!-- Node164 -->
<g id="node3" class="node"><title>Node164</title>
<g id="a_node3"><a xlink:href="class_n_f_i_common_config_module.html" target="_top" xlink:title="NFICommonConfigModule">
<polygon fill="white" stroke="black" points="135,-190.5 135,-209.5 264,-209.5 264,-190.5 135,-190.5"/>
<text text-anchor="middle" x="199.5" y="-197.5" font-family="Helvetica,sans-Serif" font-size="10.00">NFICommonConfigModule</text>
</a>
</g>
</g>
<!-- Node162&#45;&gt;Node164 -->
<g id="edge2" class="edge"><title>Node162&#45;&gt;Node164</title>
<path fill="none" stroke="midnightblue" d="M62.1943,-140.49C77.2232,-153.286 99.6456,-170.551 122,-181 130.182,-184.825 139.23,-187.94 148.154,-190.458"/>
<polygon fill="midnightblue" stroke="midnightblue" points="64.0908,-137.499 54.2563,-133.558 59.4864,-142.772 64.0908,-137.499"/>
</g>
<!-- Node165 -->
<g id="node4" class="node"><title>Node165</title>
<g id="a_node4"><a xlink:href="class_n_f_i_game_server_script_module.html" target="_top" xlink:title="NFIGameServerScriptModule">
<polygon fill="white" stroke="black" points="128.5,-152.5 128.5,-171.5 270.5,-171.5 270.5,-152.5 128.5,-152.5"/>
<text text-anchor="middle" x="199.5" y="-159.5" font-family="Helvetica,sans-Serif" font-size="10.00">NFIGameServerScriptModule</text>
</a>
</g>
</g>
<!-- Node162&#45;&gt;Node165 -->
<g id="edge3" class="edge"><title>Node162&#45;&gt;Node165</title>
<path fill="none" stroke="midnightblue" d="M92.9521,-136.04C114.536,-141.349 139.541,-147.499 159.793,-152.48"/>
<polygon fill="midnightblue" stroke="midnightblue" points="93.5334,-132.579 82.9869,-133.589 91.8615,-139.376 93.5334,-132.579"/>
</g>
<!-- Node166 -->
<g id="node5" class="node"><title>Node166</title>
<g id="a_node5"><a xlink:href="class_n_f_i_world_guild_broadcast_module.html" target="_top" xlink:title="NFIWorldGuildBroadcastModule">
<polygon fill="white" stroke="black" points="122,-114.5 122,-133.5 277,-133.5 277,-114.5 122,-114.5"/>
<text text-anchor="middle" x="199.5" y="-121.5" font-family="Helvetica,sans-Serif" font-size="10.00">NFIWorldGuildBroadcastModule</text>
</a>
</g>
</g>
<!-- Node162&#45;&gt;Node166 -->
<g id="edge4" class="edge"><title>Node162&#45;&gt;Node166</title>
<path fill="none" stroke="midnightblue" d="M96.3748,-124C104.597,-124 113.24,-124 121.872,-124"/>
<polygon fill="midnightblue" stroke="midnightblue" points="96.2178,-120.5 86.2178,-124 96.2178,-127.5 96.2178,-120.5"/>
</g>
<!-- Node167 -->
<g id="node6" class="node"><title>Node167</title>
<g id="a_node6"><a xlink:href="class_n_f_i_world_guild_data_module.html" target="_top" xlink:title="NFIWorldGuildDataModule">
<polygon fill="white" stroke="black" points="134,-76.5 134,-95.5 265,-95.5 265,-76.5 134,-76.5"/>
<text text-anchor="middle" x="199.5" y="-83.5" font-family="Helvetica,sans-Serif" font-size="10.00">NFIWorldGuildDataModule</text>
</a>
</g>
</g>
<!-- Node162&#45;&gt;Node167 -->
<g id="edge5" class="edge"><title>Node162&#45;&gt;Node167</title>
<path fill="none" stroke="midnightblue" d="M92.9521,-111.96C114.536,-106.651 139.541,-100.501 159.793,-95.5201"/>
<polygon fill="midnightblue" stroke="midnightblue" points="91.8615,-108.624 82.9869,-114.411 93.5334,-115.421 91.8615,-108.624"/>
</g>
<!-- Node168 -->
<g id="node7" class="node"><title>Node168</title>
<g id="a_node7"><a xlink:href="class_n_f_i_world_guild_ectype_module.html" target="_top" xlink:title="NFIWorldGuildEctypeModule">
<polygon fill="white" stroke="black" points="128.5,-38.5 128.5,-57.5 270.5,-57.5 270.5,-38.5 128.5,-38.5"/>
<text text-anchor="middle" x="199.5" y="-45.5" font-family="Helvetica,sans-Serif" font-size="10.00">NFIWorldGuildEctypeModule</text>
</a>
</g>
</g>
<!-- Node162&#45;&gt;Node168 -->
<g id="edge6" class="edge"><title>Node162&#45;&gt;Node168</title>
<path fill="none" stroke="midnightblue" d="M62.1943,-107.51C77.2232,-94.7144 99.6456,-77.4493 122,-67 130.182,-63.1753 139.23,-60.0599 148.154,-57.5422"/>
<polygon fill="midnightblue" stroke="midnightblue" points="59.4864,-105.228 54.2563,-114.442 64.0908,-110.501 59.4864,-105.228"/>
</g>
<!-- Node169 -->
<g id="node8" class="node"><title>Node169</title>
<g id="a_node8"><a xlink:href="class_n_f_i_world_guild_module.html" target="_top" xlink:title="NFIWorldGuildModule">
<polygon fill="white" stroke="black" points="144,-0.5 144,-19.5 255,-19.5 255,-0.5 144,-0.5"/>
<text text-anchor="middle" x="199.5" y="-7.5" font-family="Helvetica,sans-Serif" font-size="10.00">NFIWorldGuildModule</text>
</a>
</g>
</g>
<!-- Node162&#45;&gt;Node169 -->
<g id="edge7" class="edge"><title>Node162&#45;&gt;Node169</title>
<path fill="none" stroke="midnightblue" d="M54.1166,-105.587C67.0054,-83.8973 91.3344,-48.3711 122,-29 128.595,-24.8342 136.045,-21.5815 143.644,-19.0419"/>
<polygon fill="midnightblue" stroke="midnightblue" points="50.9598,-104.056 49.0181,-114.472 57.0311,-107.541 50.9598,-104.056"/>
</g>
</g>
</svg>
