<?xml version="1.0" encoding="UTF-8" standalone="no"?>
<!DOCTYPE svg PUBLIC "-//W3C//DTD SVG 1.1//EN"
 "http://www.w3.org/Graphics/SVG/1.1/DTD/svg11.dtd">
<!-- Generated by graphviz version 2.38.0 (20140413.2041)
 -->
<!-- Title: NFIGameServerNet_ServerModule::GateBaseInfo Pages: 1 -->
<svg width="172pt" height="369pt"
 viewBox="0.00 0.00 172.00 369.00" xmlns="http://www.w3.org/2000/svg" xmlns:xlink="http://www.w3.org/1999/xlink">
<g id="graph0" class="graph" transform="scale(1 1) rotate(0) translate(4 365)">
<title>NFIGameServerNet_ServerModule::GateBaseInfo</title>
<polygon fill="white" stroke="none" points="-4,4 -4,-365 168,-365 168,4 -4,4"/>
<!-- Node1 -->
<g id="node1" class="node"><title>Node1</title>
<polygon fill="#bfbfbf" stroke="black" points="0,-0.5 0,-90.5 164,-90.5 164,-0.5 0,-0.5"/>
<text text-anchor="start" x="8" y="-78.5" font-family="Helvetica,sans-Serif" font-size="10.00">NFIGameServerNet_ServerModule</text>
<text text-anchor="middle" x="82" y="-67.5" font-family="Helvetica,sans-Serif" font-size="10.00">::GateBaseInfo</text>
<polyline fill="none" stroke="black" points="0,-60.5 164,-60.5 "/>
<text text-anchor="start" x="8" y="-48.5" font-family="Helvetica,sans-Serif" font-size="10.00">+ nActorID</text>
<text text-anchor="start" x="8" y="-37.5" font-family="Helvetica,sans-Serif" font-size="10.00">+ nGateID</text>
<polyline fill="none" stroke="black" points="0,-30.5 164,-30.5 "/>
<text text-anchor="start" x="8" y="-18.5" font-family="Helvetica,sans-Serif" font-size="10.00">+ GateBaseInfo()</text>
<text text-anchor="start" x="8" y="-7.5" font-family="Helvetica,sans-Serif" font-size="10.00">+ GateBaseInfo()</text>
</g>
<!-- Node2 -->
<g id="node2" class="node"><title>Node2</title>
<g id="a_node2"><a xlink:href="struct_n_f_g_u_i_d.html" target="_top" xlink:title="{NFGUID\n|+ nData64\l+ nHead64\l|+ NFGUID()\l+ NFGUID()\l+ NFGUID()\l+ NFGUID()\l+ operator=()\l+ GetData()\l+ GetHead()\l+ SetData()\l+ SetHead()\l+ IsNull()\l+ operator==()\l+ operator!=()\l+ operator\&lt;()\l+ ToString()\l+ FromString()\l}">
<polygon fill="white" stroke="black" points="42,-138.5 42,-360.5 122,-360.5 122,-138.5 42,-138.5"/>
<text text-anchor="middle" x="82" y="-348.5" font-family="Helvetica,sans-Serif" font-size="10.00">NFGUID</text>
<polyline fill="none" stroke="black" points="42,-341.5 122,-341.5 "/>
<text text-anchor="start" x="50" y="-329.5" font-family="Helvetica,sans-Serif" font-size="10.00">+ nData64</text>
<text text-anchor="start" x="50" y="-318.5" font-family="Helvetica,sans-Serif" font-size="10.00">+ nHead64</text>
<polyline fill="none" stroke="black" points="42,-311.5 122,-311.5 "/>
<text text-anchor="start" x="50" y="-299.5" font-family="Helvetica,sans-Serif" font-size="10.00">+ NFGUID()</text>
<text text-anchor="start" x="50" y="-288.5" font-family="Helvetica,sans-Serif" font-size="10.00">+ NFGUID()</text>
<text text-anchor="start" x="50" y="-277.5" font-family="Helvetica,sans-Serif" font-size="10.00">+ NFGUID()</text>
<text text-anchor="start" x="50" y="-266.5" font-family="Helvetica,sans-Serif" font-size="10.00">+ NFGUID()</text>
<text text-anchor="start" x="50" y="-255.5" font-family="Helvetica,sans-Serif" font-size="10.00">+ operator=()</text>
<text text-anchor="start" x="50" y="-244.5" font-family="Helvetica,sans-Serif" font-size="10.00">+ GetData()</text>
<text text-anchor="start" x="50" y="-233.5" font-family="Helvetica,sans-Serif" font-size="10.00">+ GetHead()</text>
<text text-anchor="start" x="50" y="-222.5" font-family="Helvetica,sans-Serif" font-size="10.00">+ SetData()</text>
<text text-anchor="start" x="50" y="-211.5" font-family="Helvetica,sans-Serif" font-size="10.00">+ SetHead()</text>
<text text-anchor="start" x="50" y="-200.5" font-family="Helvetica,sans-Serif" font-size="10.00">+ IsNull()</text>
<text text-anchor="start" x="50" y="-189.5" font-family="Helvetica,sans-Serif" font-size="10.00">+ operator==()</text>
<text text-anchor="start" x="50" y="-178.5" font-family="Helvetica,sans-Serif" font-size="10.00">+ operator!=()</text>
<text text-anchor="start" x="50" y="-167.5" font-family="Helvetica,sans-Serif" font-size="10.00">+ operator&lt;()</text>
<text text-anchor="start" x="50" y="-156.5" font-family="Helvetica,sans-Serif" font-size="10.00">+ ToString()</text>
<text text-anchor="start" x="50" y="-145.5" font-family="Helvetica,sans-Serif" font-size="10.00">+ FromString()</text>
</a>
</g>
</g>
<!-- Node2&#45;&gt;Node1 -->
<g id="edge1" class="edge"><title>Node2&#45;&gt;Node1</title>
<path fill="none" stroke="#404040" d="M82,-138.338C82,-126.13 82,-114.102 82,-102.976"/>
<polygon fill="none" stroke="#404040" points="82.0001,-102.835 78,-96.8347 82,-90.8346 86,-96.8346 82.0001,-102.835"/>
<text text-anchor="middle" x="106.5" y="-112" font-family="Helvetica,sans-Serif" font-size="10.00"> +xClientID</text>
</g>
</g>
</svg>
