<?xml version="1.0" encoding="UTF-8" standalone="no"?>
<!DOCTYPE svg PUBLIC "-//W3C//DTD SVG 1.1//EN"
 "http://www.w3.org/Graphics/SVG/1.1/DTD/svg11.dtd">
<!-- Generated by graphviz version 2.38.0 (20140413.2041)
 -->
<!-- Title: NFIMsgHead Pages: 1 -->
<svg width="107pt" height="358pt"
 viewBox="0.00 0.00 107.00 358.00" xmlns="http://www.w3.org/2000/svg" xmlns:xlink="http://www.w3.org/1999/xlink">
<g id="graph0" class="graph" transform="scale(1 1) rotate(0) translate(4 354)">
<title>NFIMsgHead</title>
<polygon fill="white" stroke="none" points="-4,4 -4,-354 103,-354 103,4 -4,4"/>
<!-- Node0 -->
<g id="node1" class="node"><title>Node0</title>
<polygon fill="#bfbfbf" stroke="black" points="0,-171.5 0,-349.5 99,-349.5 99,-171.5 0,-171.5"/>
<text text-anchor="middle" x="49.5" y="-337.5" font-family="Helvetica,sans-Serif" font-size="10.00">NFIMsgHead</text>
<polyline fill="none" stroke="black" points="0,-330.5 99,-330.5 "/>
<text text-anchor="middle" x="49.5" y="-318.5" font-family="Helvetica,sans-Serif" font-size="10.00"> </text>
<polyline fill="none" stroke="black" points="0,-311.5 99,-311.5 "/>
<text text-anchor="start" x="8" y="-299.5" font-family="Helvetica,sans-Serif" font-size="10.00">+ EnCode()</text>
<text text-anchor="start" x="8" y="-288.5" font-family="Helvetica,sans-Serif" font-size="10.00">+ DeCode()</text>
<text text-anchor="start" x="8" y="-277.5" font-family="Helvetica,sans-Serif" font-size="10.00">+ GetMsgID()</text>
<text text-anchor="start" x="8" y="-266.5" font-family="Helvetica,sans-Serif" font-size="10.00">+ SetMsgID()</text>
<text text-anchor="start" x="8" y="-255.5" font-family="Helvetica,sans-Serif" font-size="10.00">+ GetBodyLength()</text>
<text text-anchor="start" x="8" y="-244.5" font-family="Helvetica,sans-Serif" font-size="10.00">+ SetBodyLength()</text>
<text text-anchor="start" x="8" y="-233.5" font-family="Helvetica,sans-Serif" font-size="10.00">+ NF_HTONLL()</text>
<text text-anchor="start" x="8" y="-222.5" font-family="Helvetica,sans-Serif" font-size="10.00">+ NF_NTOHLL()</text>
<text text-anchor="start" x="8" y="-211.5" font-family="Helvetica,sans-Serif" font-size="10.00">+ NF_HTONL()</text>
<text text-anchor="start" x="8" y="-200.5" font-family="Helvetica,sans-Serif" font-size="10.00">+ NF_NTOHL()</text>
<text text-anchor="start" x="8" y="-189.5" font-family="Helvetica,sans-Serif" font-size="10.00">+ NF_HTONS()</text>
<text text-anchor="start" x="8" y="-178.5" font-family="Helvetica,sans-Serif" font-size="10.00">+ NF_NTOHS()</text>
</g>
<!-- Node1 -->
<g id="node2" class="node"><title>Node1</title>
<g id="a_node2"><a xlink:href="class_n_f_c_msg_head.html" target="_top" xlink:title="{NFCMsgHead\n|# munSize\l# munMsgID\l|+ NFCMsgHead()\l+ EnCode()\l+ DeCode()\l+ GetMsgID()\l+ SetMsgID()\l+ GetBodyLength()\l+ SetBodyLength()\l}">
<polygon fill="white" stroke="black" points="0,-0.5 0,-134.5 99,-134.5 99,-0.5 0,-0.5"/>
<text text-anchor="middle" x="49.5" y="-122.5" font-family="Helvetica,sans-Serif" font-size="10.00">NFCMsgHead</text>
<polyline fill="none" stroke="black" points="0,-115.5 99,-115.5 "/>
<text text-anchor="start" x="8" y="-103.5" font-family="Helvetica,sans-Serif" font-size="10.00"># munSize</text>
<text text-anchor="start" x="8" y="-92.5" font-family="Helvetica,sans-Serif" font-size="10.00"># munMsgID</text>
<polyline fill="none" stroke="black" points="0,-85.5 99,-85.5 "/>
<text text-anchor="start" x="8" y="-73.5" font-family="Helvetica,sans-Serif" font-size="10.00">+ NFCMsgHead()</text>
<text text-anchor="start" x="8" y="-62.5" font-family="Helvetica,sans-Serif" font-size="10.00">+ EnCode()</text>
<text text-anchor="start" x="8" y="-51.5" font-family="Helvetica,sans-Serif" font-size="10.00">+ DeCode()</text>
<text text-anchor="start" x="8" y="-40.5" font-family="Helvetica,sans-Serif" font-size="10.00">+ GetMsgID()</text>
<text text-anchor="start" x="8" y="-29.5" font-family="Helvetica,sans-Serif" font-size="10.00">+ SetMsgID()</text>
<text text-anchor="start" x="8" y="-18.5" font-family="Helvetica,sans-Serif" font-size="10.00">+ GetBodyLength()</text>
<text text-anchor="start" x="8" y="-7.5" font-family="Helvetica,sans-Serif" font-size="10.00">+ SetBodyLength()</text>
</a>
</g>
</g>
<!-- Node0&#45;&gt;Node1 -->
<g id="edge1" class="edge"><title>Node0&#45;&gt;Node1</title>
<path fill="none" stroke="midnightblue" d="M49.5,-161.146C49.5,-152.178 49.5,-143.244 49.5,-134.66"/>
<polygon fill="none" stroke="midnightblue" points="46.0001,-161.268 49.5,-171.268 53.0001,-161.268 46.0001,-161.268"/>
</g>
</g>
</svg>
