<?xml version="1.0" encoding="UTF-8" standalone="no"?>
<!DOCTYPE svg PUBLIC "-//W3C//DTD SVG 1.1//EN"
 "http://www.w3.org/Graphics/SVG/1.1/DTD/svg11.dtd">
<!-- Generated by graphviz version 2.38.0 (20140413.2041)
 -->
<!-- Title: NFCMulNet::EventInfo Pages: 1 -->
<svg width="120pt" height="347pt"
 viewBox="0.00 0.00 120.00 347.00" xmlns="http://www.w3.org/2000/svg" xmlns:xlink="http://www.w3.org/1999/xlink">
<g id="graph0" class="graph" transform="scale(1 1) rotate(0) translate(4 343)">
<title>NFCMulNet::EventInfo</title>
<polygon fill="white" stroke="none" points="-4,4 -4,-343 116,-343 116,4 -4,4"/>
<!-- Node1 -->
<g id="node1" class="node"><title>Node1</title>
<polygon fill="#bfbfbf" stroke="black" points="0,-0.5 0,-68.5 112,-68.5 112,-0.5 0,-0.5"/>
<text text-anchor="middle" x="56" y="-56.5" font-family="Helvetica,sans-Serif" font-size="10.00">NFCMulNet::EventInfo</text>
<polyline fill="none" stroke="black" points="0,-49.5 112,-49.5 "/>
<text text-anchor="start" x="8" y="-37.5" font-family="Helvetica,sans-Serif" font-size="10.00">+ nSockIndex</text>
<text text-anchor="start" x="8" y="-26.5" font-family="Helvetica,sans-Serif" font-size="10.00">+ nEvent</text>
<polyline fill="none" stroke="black" points="0,-19.5 112,-19.5 "/>
<text text-anchor="start" x="8" y="-7.5" font-family="Helvetica,sans-Serif" font-size="10.00">+ EventInfo()</text>
</g>
<!-- Node2 -->
<g id="node2" class="node"><title>Node2</title>
<g id="a_node2"><a xlink:href="struct_n_f_g_u_i_d.html" target="_top" xlink:title="{NFGUID\n|+ nData64\l+ nHead64\l|+ NFGUID()\l+ NFGUID()\l+ NFGUID()\l+ NFGUID()\l+ operator=()\l+ GetData()\l+ GetHead()\l+ SetData()\l+ SetHead()\l+ IsNull()\l+ operator==()\l+ operator!=()\l+ operator\&lt;()\l+ ToString()\l+ FromString()\l}">
<polygon fill="white" stroke="black" points="16,-116.5 16,-338.5 96,-338.5 96,-116.5 16,-116.5"/>
<text text-anchor="middle" x="56" y="-326.5" font-family="Helvetica,sans-Serif" font-size="10.00">NFGUID</text>
<polyline fill="none" stroke="black" points="16,-319.5 96,-319.5 "/>
<text text-anchor="start" x="24" y="-307.5" font-family="Helvetica,sans-Serif" font-size="10.00">+ nData64</text>
<text text-anchor="start" x="24" y="-296.5" font-family="Helvetica,sans-Serif" font-size="10.00">+ nHead64</text>
<polyline fill="none" stroke="black" points="16,-289.5 96,-289.5 "/>
<text text-anchor="start" x="24" y="-277.5" font-family="Helvetica,sans-Serif" font-size="10.00">+ NFGUID()</text>
<text text-anchor="start" x="24" y="-266.5" font-family="Helvetica,sans-Serif" font-size="10.00">+ NFGUID()</text>
<text text-anchor="start" x="24" y="-255.5" font-family="Helvetica,sans-Serif" font-size="10.00">+ NFGUID()</text>
<text text-anchor="start" x="24" y="-244.5" font-family="Helvetica,sans-Serif" font-size="10.00">+ NFGUID()</text>
<text text-anchor="start" x="24" y="-233.5" font-family="Helvetica,sans-Serif" font-size="10.00">+ operator=()</text>
<text text-anchor="start" x="24" y="-222.5" font-family="Helvetica,sans-Serif" font-size="10.00">+ GetData()</text>
<text text-anchor="start" x="24" y="-211.5" font-family="Helvetica,sans-Serif" font-size="10.00">+ GetHead()</text>
<text text-anchor="start" x="24" y="-200.5" font-family="Helvetica,sans-Serif" font-size="10.00">+ SetData()</text>
<text text-anchor="start" x="24" y="-189.5" font-family="Helvetica,sans-Serif" font-size="10.00">+ SetHead()</text>
<text text-anchor="start" x="24" y="-178.5" font-family="Helvetica,sans-Serif" font-size="10.00">+ IsNull()</text>
<text text-anchor="start" x="24" y="-167.5" font-family="Helvetica,sans-Serif" font-size="10.00">+ operator==()</text>
<text text-anchor="start" x="24" y="-156.5" font-family="Helvetica,sans-Serif" font-size="10.00">+ operator!=()</text>
<text text-anchor="start" x="24" y="-145.5" font-family="Helvetica,sans-Serif" font-size="10.00">+ operator&lt;()</text>
<text text-anchor="start" x="24" y="-134.5" font-family="Helvetica,sans-Serif" font-size="10.00">+ ToString()</text>
<text text-anchor="start" x="24" y="-123.5" font-family="Helvetica,sans-Serif" font-size="10.00">+ FromString()</text>
</a>
</g>
</g>
<!-- Node2&#45;&gt;Node1 -->
<g id="edge1" class="edge"><title>Node2&#45;&gt;Node1</title>
<path fill="none" stroke="#404040" d="M56,-116.224C56,-103.859 56,-91.8322 56,-81.0007"/>
<polygon fill="none" stroke="#404040" points="56.0001,-80.8857 52,-74.8857 56,-68.8857 60,-74.8857 56.0001,-80.8857"/>
<text text-anchor="middle" x="80.5" y="-90" font-family="Helvetica,sans-Serif" font-size="10.00"> +xClientID</text>
</g>
</g>
</svg>
