<?xml version="1.0" encoding="UTF-8" standalone="no"?>
<!DOCTYPE svg PUBLIC "-//W3C//DTD SVG 1.1//EN"
 "http://www.w3.org/Graphics/SVG/1.1/DTD/svg11.dtd">
<!-- Generated by graphviz version 2.38.0 (20140413.2041)
 -->
<!-- Title: NFIGameServerNet_ServerModule::GateServerInfo Pages: 1 -->
<svg width="172pt" height="204pt"
 viewBox="0.00 0.00 172.00 204.00" xmlns="http://www.w3.org/2000/svg" xmlns:xlink="http://www.w3.org/1999/xlink">
<g id="graph0" class="graph" transform="scale(1 1) rotate(0) translate(4 200)">
<title>NFIGameServerNet_ServerModule::GateServerInfo</title>
<polygon fill="white" stroke="none" points="-4,4 -4,-200 168,-200 168,4 -4,4"/>
<!-- Node1 -->
<g id="node1" class="node"><title>Node1</title>
<polygon fill="#bfbfbf" stroke="black" points="0,-0.5 0,-68.5 164,-68.5 164,-0.5 0,-0.5"/>
<text text-anchor="start" x="8" y="-56.5" font-family="Helvetica,sans-Serif" font-size="10.00">NFIGameServerNet_ServerModule</text>
<text text-anchor="middle" x="82" y="-45.5" font-family="Helvetica,sans-Serif" font-size="10.00">::GateServerInfo</text>
<polyline fill="none" stroke="black" points="0,-38.5 164,-38.5 "/>
<text text-anchor="start" x="8" y="-26.5" font-family="Helvetica,sans-Serif" font-size="10.00">+ xRoleInfo</text>
<polyline fill="none" stroke="black" points="0,-19.5 164,-19.5 "/>
<text text-anchor="middle" x="82" y="-7.5" font-family="Helvetica,sans-Serif" font-size="10.00"> </text>
</g>
<!-- Node2 -->
<g id="node2" class="node"><title>Node2</title>
<g id="a_node2"><a xlink:href="struct_server_data.html" target="_top" xlink:title="{ServerData\n|+ nFD\l+ pData\l|+ ServerData()\l+ ~ServerData()\l}">
<polygon fill="white" stroke="black" points="39.5,-116.5 39.5,-195.5 124.5,-195.5 124.5,-116.5 39.5,-116.5"/>
<text text-anchor="middle" x="82" y="-183.5" font-family="Helvetica,sans-Serif" font-size="10.00">ServerData</text>
<polyline fill="none" stroke="black" points="39.5,-176.5 124.5,-176.5 "/>
<text text-anchor="start" x="47.5" y="-164.5" font-family="Helvetica,sans-Serif" font-size="10.00">+ nFD</text>
<text text-anchor="start" x="47.5" y="-153.5" font-family="Helvetica,sans-Serif" font-size="10.00">+ pData</text>
<polyline fill="none" stroke="black" points="39.5,-146.5 124.5,-146.5 "/>
<text text-anchor="start" x="47.5" y="-134.5" font-family="Helvetica,sans-Serif" font-size="10.00">+ ServerData()</text>
<text text-anchor="start" x="47.5" y="-123.5" font-family="Helvetica,sans-Serif" font-size="10.00">+ ~ServerData()</text>
</a>
</g>
</g>
<!-- Node2&#45;&gt;Node1 -->
<g id="edge1" class="edge"><title>Node2&#45;&gt;Node1</title>
<path fill="none" stroke="#404040" d="M82,-116.202C82,-104.991 82,-92.6534 82,-81.0704"/>
<polygon fill="none" stroke="#404040" points="82.0001,-80.8867 78,-74.8867 82,-68.8867 86,-74.8867 82.0001,-80.8867"/>
<text text-anchor="middle" x="113" y="-90" font-family="Helvetica,sans-Serif" font-size="10.00"> +xServerData</text>
</g>
</g>
</svg>
